<?xml version="1.0" encoding="UTF-8"?>
<svg xmlns="http://www.w3.org/2000/svg" xmlns:xlink="http://www.w3.org/1999/xlink" width="434.774109pt" height="129.573654pt" viewBox="0 0 434.774109 129.573654" version="1.1">
<defs>
<clipPath id="clip1">
  <path d="M 307 2 L 434.773438 2 L 434.773438 129.574219 L 307 129.574219 Z M 307 2 "/>
</clipPath>
<clipPath id="clip2">
  <path d="M 0 3 L 126 3 L 126 129.574219 L 0 129.574219 Z M 0 3 "/>
</clipPath>
<filter id="alpha" filterUnits="objectBoundingBox" x="0%" y="0%" width="100%" height="100%">
  <feColorMatrix type="matrix" in="SourceGraphic" values="0 0 0 0 1 0 0 0 0 1 0 0 0 0 1 0 0 0 1 0"/>
</filter>
<clipPath id="clip3">
  <rect width="117" height="118"/>
</clipPath>
<g id="surface8" clip-path="url(#clip3)">
<rect x="0" y="0" width="117" height="118" style="fill:rgb(0%,0%,0%);fill-opacity:0.97;stroke:none;"/>
</g>
<mask id="mask0">
  <g filter="url(#alpha)">
<use xlink:href="#surface8"/>
  </g>
</mask>
<clipPath id="clip4">
  <rect width="117" height="118"/>
</clipPath>
<g id="surface10" clip-path="url(#clip4)">
<path style="fill-rule:nonzero;fill:rgb(100%,100%,100%);fill-opacity:1;stroke-width:1.6;stroke-linecap:round;stroke-linejoin:round;stroke:rgb(0%,0%,0%);stroke-opacity:1;stroke-miterlimit:4;" d="M 58.40625 127.59375 L 0.804688 69.996094 L 58.40625 12.394531 L 116.007812 69.996094 Z M 58.40625 127.59375 " transform="matrix(1,0,0,1,0,-11)"/>
</g>
<clipPath id="clip5">
  <rect width="5" height="58"/>
</clipPath>
<g id="surface14" clip-path="url(#clip5)">
<rect x="0" y="0" width="5" height="58" style="fill:rgb(0%,0%,0%);fill-opacity:0.97;stroke:none;"/>
</g>
<mask id="mask1">
  <g filter="url(#alpha)">
<use xlink:href="#surface14"/>
  </g>
</mask>
<clipPath id="clip6">
  <rect width="5" height="58"/>
</clipPath>
<g id="surface16" clip-path="url(#clip6)">
<path style="fill:none;stroke-width:1.6;stroke-linecap:round;stroke-linejoin:round;stroke:rgb(100%,0%,0%);stroke-opacity:1;stroke-miterlimit:4;" d="M 58.40625 69.996094 L 58.40625 122.796875 " transform="matrix(1,0,0,1,-56,-68)"/>
<path style="fill-rule:evenodd;fill:rgb(100%,0%,0%);fill-opacity:1;stroke-width:0.4;stroke-linecap:butt;stroke-linejoin:miter;stroke:rgb(100%,0%,0%);stroke-opacity:1;stroke-miterlimit:4;" d="M 71.5625 -58.40625 C 71.5625 -57.523438 70.847656 -56.804688 69.964844 -56.804688 C 69.078125 -56.804688 68.363281 -57.523438 68.363281 -58.40625 C 68.363281 -59.289062 69.078125 -60.007812 69.964844 -60.007812 C 70.847656 -60.007812 71.5625 -59.289062 71.5625 -58.40625 Z M 71.5625 -58.40625 " transform="matrix(0,1,-1,0,-56,-68)"/>
<path style="fill-rule:evenodd;fill:rgb(100%,0%,0%);fill-opacity:1;stroke-width:0.4;stroke-linecap:butt;stroke-linejoin:miter;stroke:rgb(100%,0%,0%);stroke-opacity:1;stroke-miterlimit:4;" d="M -120.875 58.40625 L -119.273438 56.804688 L -124.875 58.40625 L -119.273438 60.007812 Z M -120.875 58.40625 " transform="matrix(0,-1,1,0,-56,-68)"/>
</g>
<clipPath id="clip7">
  <path d="M 150 3 L 284 3 L 284 129.574219 L 150 129.574219 Z M 150 3 "/>
</clipPath>
<clipPath id="clip8">
  <rect width="118" height="118"/>
</clipPath>
<g id="surface20" clip-path="url(#clip8)">
<rect x="0" y="0" width="118" height="118" style="fill:rgb(0%,0%,0%);fill-opacity:0.97;stroke:none;"/>
</g>
<mask id="mask2">
  <g filter="url(#alpha)">
<use xlink:href="#surface20"/>
  </g>
</mask>
<clipPath id="clip9">
  <rect width="118" height="118"/>
</clipPath>
<g id="surface22" clip-path="url(#clip9)">
<path style="fill-rule:nonzero;fill:rgb(100%,100%,100%);fill-opacity:1;stroke-width:1.6;stroke-linecap:round;stroke-linejoin:round;stroke:rgb(0%,0%,0%);stroke-opacity:1;stroke-miterlimit:4;" d="M 216.804688 127.59375 L 176.078125 110.722656 L 159.207031 69.996094 L 176.078125 29.265625 L 216.804688 12.394531 L 257.535156 29.265625 L 274.40625 69.996094 L 257.535156 110.722656 Z M 216.804688 127.59375 " transform="matrix(1,0,0,1,-158,-11)"/>
</g>
<clipPath id="clip10">
  <rect width="5" height="58"/>
</clipPath>
<g id="surface26" clip-path="url(#clip10)">
<rect x="0" y="0" width="5" height="58" style="fill:rgb(0%,0%,0%);fill-opacity:0.97;stroke:none;"/>
</g>
<mask id="mask3">
  <g filter="url(#alpha)">
<use xlink:href="#surface26"/>
  </g>
</mask>
<clipPath id="clip11">
  <rect width="5" height="58"/>
</clipPath>
<g id="surface28" clip-path="url(#clip11)">
<path style="fill:none;stroke-width:1.6;stroke-linecap:round;stroke-linejoin:round;stroke:rgb(100%,0%,0%);stroke-opacity:1;stroke-miterlimit:4;" d="M 216.804688 69.996094 L 216.804688 122.796875 " transform="matrix(1,0,0,1,-214,-68)"/>
<path style="fill-rule:evenodd;fill:rgb(100%,0%,0%);fill-opacity:1;stroke-width:0.4;stroke-linecap:butt;stroke-linejoin:miter;stroke:rgb(100%,0%,0%);stroke-opacity:1;stroke-miterlimit:4;" d="M 71.5625 -216.804688 C 71.5625 -215.921875 70.847656 -215.207031 69.964844 -215.207031 C 69.078125 -215.207031 68.363281 -215.921875 68.363281 -216.804688 C 68.363281 -217.6875 69.078125 -218.40625 69.964844 -218.40625 C 70.847656 -218.40625 71.5625 -217.6875 71.5625 -216.804688 Z M 71.5625 -216.804688 " transform="matrix(0,1,-1,0,-214,-68)"/>
<path style="fill-rule:evenodd;fill:rgb(100%,0%,0%);fill-opacity:1;stroke-width:0.4;stroke-linecap:butt;stroke-linejoin:miter;stroke:rgb(100%,0%,0%);stroke-opacity:1;stroke-miterlimit:4;" d="M -120.875 216.804688 L -119.273438 215.207031 L -124.875 216.804688 L -119.273438 218.40625 Z M -120.875 216.804688 " transform="matrix(0,-1,1,0,-214,-68)"/>
</g>
<clipPath id="clip12">
  <rect width="5" height="58"/>
</clipPath>
<g id="surface32" clip-path="url(#clip12)">
<rect x="0" y="0" width="5" height="58" style="fill:rgb(0%,0%,0%);fill-opacity:0.97;stroke:none;"/>
</g>
<mask id="mask4">
  <g filter="url(#alpha)">
<use xlink:href="#surface32"/>
  </g>
</mask>
<clipPath id="clip13">
  <rect width="5" height="58"/>
</clipPath>
<g id="surface29" clip-path="url(#clip13)">
<path style="fill:none;stroke-width:1.6;stroke-linecap:round;stroke-linejoin:round;stroke:rgb(100%,0%,0%);stroke-opacity:1;stroke-miterlimit:4;" d="M 375.207031 69.996094 L 375.207031 122.796875 " transform="matrix(1,0,0,1,-373,-68)"/>
<path style="fill-rule:evenodd;fill:rgb(100%,0%,0%);fill-opacity:1;stroke-width:0.4;stroke-linecap:butt;stroke-linejoin:miter;stroke:rgb(100%,0%,0%);stroke-opacity:1;stroke-miterlimit:4;" d="M 71.5625 -375.207031 C 71.5625 -374.324219 70.847656 -373.605469 69.964844 -373.605469 C 69.078125 -373.605469 68.363281 -374.324219 68.363281 -375.207031 C 68.363281 -376.089844 69.078125 -376.804688 69.964844 -376.804688 C 70.847656 -376.804688 71.5625 -376.089844 71.5625 -375.207031 Z M 71.5625 -375.207031 " transform="matrix(0,1,-1,0,-373,-68)"/>
<path style="fill-rule:evenodd;fill:rgb(100%,0%,0%);fill-opacity:1;stroke-width:0.4;stroke-linecap:butt;stroke-linejoin:miter;stroke:rgb(100%,0%,0%);stroke-opacity:1;stroke-miterlimit:4;" d="M -120.875 375.207031 L -119.273438 373.605469 L -124.875 375.207031 L -119.273438 376.804688 Z M -120.875 375.207031 " transform="matrix(0,-1,1,0,-373,-68)"/>
</g>
</defs>
<g id="surface1">
<path style=" stroke:none;fill-rule:nonzero;fill:rgb(0%,50.195312%,50.195312%);fill-opacity:1;" d="M 433.957031 69.996094 C 433.957031 102.441406 407.652344 128.746094 375.207031 128.746094 C 342.757812 128.746094 316.453125 102.441406 316.453125 69.996094 C 316.453125 37.546875 342.757812 11.242188 375.207031 11.242188 C 407.652344 11.242188 433.957031 37.546875 433.957031 69.996094 Z M 433.957031 69.996094 "/>
<g clip-path="url(#clip1)" clip-rule="nonzero">
<path style="fill:none;stroke-width:1.632;stroke-linecap:butt;stroke-linejoin:miter;stroke:rgb(0%,0%,0%);stroke-opacity:1;stroke-miterlimit:4;" d="M 433.957031 69.996094 C 433.957031 102.441406 407.652344 128.746094 375.207031 128.746094 C 342.757812 128.746094 316.453125 102.441406 316.453125 69.996094 C 316.453125 37.546875 342.757812 11.242188 375.207031 11.242188 C 407.652344 11.242188 433.957031 37.546875 433.957031 69.996094 Z M 433.957031 69.996094 "/>
</g>
<path style="fill-rule:nonzero;fill:rgb(100%,100%,100%);fill-opacity:1;stroke-width:1.6;stroke-linecap:round;stroke-linejoin:round;stroke:rgb(0%,0%,0%);stroke-opacity:1;stroke-miterlimit:4;" d="M 375.207031 127.59375 L 353.164062 123.210938 L 334.476562 110.722656 L 321.992188 92.039062 L 317.605469 69.996094 L 321.992188 47.953125 L 334.476562 29.265625 L 353.164062 16.78125 L 375.207031 12.394531 L 397.25 16.78125 L 415.933594 29.265625 L 428.421875 47.953125 L 432.804688 69.996094 L 428.421875 92.039062 L 415.933594 110.722656 L 397.25 123.210938 Z M 375.207031 127.59375 "/>
<path style=" stroke:none;fill-rule:nonzero;fill:rgb(0%,50.195312%,50.195312%);fill-opacity:1;" d="M 116.007812 69.996094 C 116.007812 101.808594 90.21875 127.59375 58.40625 127.59375 C 26.59375 127.59375 0.804688 101.808594 0.804688 69.996094 C 0.804688 38.183594 26.59375 12.394531 58.40625 12.394531 C 90.21875 12.394531 116.007812 38.183594 116.007812 69.996094 Z M 116.007812 69.996094 "/>
<g clip-path="url(#clip2)" clip-rule="nonzero">
<path style="fill:none;stroke-width:1.6;stroke-linecap:butt;stroke-linejoin:miter;stroke:rgb(0%,0%,0%);stroke-opacity:1;stroke-miterlimit:4;" d="M 116.007812 69.996094 C 116.007812 101.808594 90.21875 127.59375 58.40625 127.59375 C 26.59375 127.59375 0.804688 101.808594 0.804688 69.996094 C 0.804688 38.183594 26.59375 12.394531 58.40625 12.394531 C 90.21875 12.394531 116.007812 38.183594 116.007812 69.996094 Z M 116.007812 69.996094 "/>
</g>
<use xlink:href="#surface10" transform="matrix(1,0,0,1,0,11)" mask="url(#mask0)"/>
<path style="fill:none;stroke-width:0.8;stroke-linecap:butt;stroke-linejoin:miter;stroke:rgb(0%,0%,0%);stroke-opacity:1;stroke-miterlimit:4;" d="M 0.804688 69.996094 L 116.007812 69.996094 "/>
<path style="fill:none;stroke-width:0.8;stroke-linecap:butt;stroke-linejoin:miter;stroke:rgb(0%,0%,0%);stroke-opacity:1;stroke-miterlimit:4;" d="M 58.40625 12.394531 L 58.40625 69.996094 "/>
<use xlink:href="#surface16" transform="matrix(1,0,0,1,56,68)" mask="url(#mask1)"/>
<path style=" stroke:none;fill-rule:nonzero;fill:rgb(0%,0%,0%);fill-opacity:1;" d="M 62.019531 45.121094 C 61.894531 45.671875 61.847656 45.769531 61.144531 45.769531 C 60.972656 45.769531 60.796875 45.769531 60.796875 46.070312 C 60.796875 46.195312 60.871094 46.269531 60.996094 46.269531 C 61.421875 46.269531 61.894531 46.21875 62.320312 46.21875 C 62.871094 46.21875 63.394531 46.269531 63.921875 46.269531 C 63.996094 46.269531 64.195312 46.269531 64.195312 45.945312 C 64.195312 45.769531 64.046875 45.769531 63.820312 45.769531 C 63.019531 45.769531 63.019531 45.671875 63.019531 45.519531 C 63.019531 45.320312 63.695312 42.71875 63.796875 42.320312 C 63.996094 42.796875 64.445312 43.34375 65.269531 43.34375 C 67.121094 43.34375 69.121094 41.019531 69.121094 38.671875 C 69.121094 37.171875 68.195312 36.121094 66.996094 36.121094 C 66.195312 36.121094 65.421875 36.695312 64.894531 37.320312 C 64.746094 36.445312 64.046875 36.121094 63.472656 36.121094 C 62.722656 36.121094 62.421875 36.746094 62.296875 37.019531 C 61.996094 37.570312 61.796875 38.519531 61.796875 38.570312 C 61.796875 38.746094 61.945312 38.746094 61.972656 38.746094 C 62.144531 38.746094 62.144531 38.71875 62.246094 38.371094 C 62.519531 37.246094 62.847656 36.46875 63.421875 36.46875 C 63.695312 36.46875 63.921875 36.59375 63.921875 37.195312 C 63.921875 37.570312 63.871094 37.746094 63.796875 38.019531 Z M 64.820312 38.195312 C 64.921875 37.769531 65.371094 37.320312 65.644531 37.070312 C 66.222656 36.59375 66.671875 36.46875 66.945312 36.46875 C 67.570312 36.46875 67.972656 37.019531 67.972656 37.96875 C 67.972656 38.921875 67.445312 40.746094 67.144531 41.34375 C 66.597656 42.46875 65.847656 42.996094 65.246094 42.996094 C 64.195312 42.996094 63.996094 41.671875 63.996094 41.570312 C 63.996094 41.546875 63.996094 41.519531 64.046875 41.320312 Z M 64.820312 38.195312 "/>
<path style=" stroke:none;fill-rule:nonzero;fill:rgb(0%,0%,0%);fill-opacity:1;" d="M 75.214844 43.734375 L 75.214844 43.335938 L 73.964844 43.335938 L 73.964844 38.359375 C 73.964844 38.136719 73.964844 38.035156 73.742188 38.035156 C 73.589844 38.035156 73.542969 38.035156 73.441406 38.210938 L 69.742188 43.335938 L 69.742188 43.734375 L 73.042969 43.734375 L 73.042969 44.636719 C 73.042969 45.035156 73.042969 45.160156 72.117188 45.160156 L 71.816406 45.160156 L 71.816406 45.5625 C 72.390625 45.535156 73.089844 45.511719 73.492188 45.511719 C 73.917969 45.511719 74.617188 45.535156 75.191406 45.5625 L 75.191406 45.160156 L 74.890625 45.160156 C 73.964844 45.160156 73.964844 45.035156 73.964844 44.636719 L 73.964844 43.734375 Z M 73.117188 39.261719 L 73.117188 43.335938 L 70.167969 43.335938 Z M 73.117188 39.261719 "/>
<path style=" stroke:none;fill-rule:nonzero;fill:rgb(0%,50.195312%,50.195312%);fill-opacity:1;" d="M 274.40625 69.996094 C 274.40625 101.808594 248.617188 127.59375 216.804688 127.59375 C 184.996094 127.59375 159.207031 101.808594 159.207031 69.996094 C 159.207031 38.183594 184.996094 12.394531 216.804688 12.394531 C 248.617188 12.394531 274.40625 38.183594 274.40625 69.996094 Z M 274.40625 69.996094 "/>
<g clip-path="url(#clip7)" clip-rule="nonzero">
<path style="fill:none;stroke-width:1.6;stroke-linecap:butt;stroke-linejoin:miter;stroke:rgb(0%,0%,0%);stroke-opacity:1;stroke-miterlimit:4;" d="M 274.40625 69.996094 C 274.40625 101.808594 248.617188 127.59375 216.804688 127.59375 C 184.996094 127.59375 159.207031 101.808594 159.207031 69.996094 C 159.207031 38.183594 184.996094 12.394531 216.804688 12.394531 C 248.617188 12.394531 274.40625 38.183594 274.40625 69.996094 Z M 274.40625 69.996094 "/>
</g>
<use xlink:href="#surface22" transform="matrix(1,0,0,1,158,11)" mask="url(#mask2)"/>
<path style="fill:none;stroke-width:0.8;stroke-linecap:butt;stroke-linejoin:miter;stroke:rgb(0%,0%,0%);stroke-opacity:1;stroke-miterlimit:4;" d="M 159.207031 69.996094 L 274.40625 69.996094 "/>
<path style="fill:none;stroke-width:0.8;stroke-linecap:butt;stroke-linejoin:miter;stroke:rgb(0%,0%,0%);stroke-opacity:1;stroke-miterlimit:4;" d="M 216.804688 12.394531 L 216.804688 69.996094 "/>
<path style="fill:none;stroke-width:0.8;stroke-linecap:butt;stroke-linejoin:miter;stroke:rgb(0%,0%,0%);stroke-opacity:1;stroke-miterlimit:4;" d="M 176.078125 110.722656 L 257.535156 29.265625 "/>
<path style="fill:none;stroke-width:0.8;stroke-linecap:butt;stroke-linejoin:miter;stroke:rgb(0%,0%,0%);stroke-opacity:1;stroke-miterlimit:4;" d="M 257.535156 110.722656 L 176.078125 29.265625 "/>
<use xlink:href="#surface28" transform="matrix(1,0,0,1,214,68)" mask="url(#mask3)"/>
<path style=" stroke:none;fill-rule:nonzero;fill:rgb(0%,0%,0%);fill-opacity:1;" d="M 220.507812 45.121094 C 220.382812 45.671875 220.332031 45.769531 219.632812 45.769531 C 219.457031 45.769531 219.285156 45.769531 219.285156 46.070312 C 219.285156 46.195312 219.359375 46.269531 219.484375 46.269531 C 219.910156 46.269531 220.382812 46.21875 220.808594 46.21875 C 221.359375 46.21875 221.882812 46.269531 222.410156 46.269531 C 222.484375 46.269531 222.683594 46.269531 222.683594 45.945312 C 222.683594 45.769531 222.535156 45.769531 222.308594 45.769531 C 221.507812 45.769531 221.507812 45.671875 221.507812 45.519531 C 221.507812 45.320312 222.183594 42.71875 222.285156 42.320312 C 222.484375 42.796875 222.933594 43.34375 223.757812 43.34375 C 225.609375 43.34375 227.609375 41.019531 227.609375 38.671875 C 227.609375 37.171875 226.683594 36.121094 225.484375 36.121094 C 224.683594 36.121094 223.910156 36.695312 223.382812 37.320312 C 223.234375 36.445312 222.535156 36.121094 221.957031 36.121094 C 221.207031 36.121094 220.910156 36.746094 220.785156 37.019531 C 220.484375 37.570312 220.285156 38.519531 220.285156 38.570312 C 220.285156 38.746094 220.433594 38.746094 220.457031 38.746094 C 220.632812 38.746094 220.632812 38.71875 220.734375 38.371094 C 221.007812 37.246094 221.332031 36.46875 221.910156 36.46875 C 222.183594 36.46875 222.410156 36.59375 222.410156 37.195312 C 222.410156 37.570312 222.359375 37.746094 222.285156 38.019531 Z M 223.308594 38.195312 C 223.410156 37.769531 223.859375 37.320312 224.132812 37.070312 C 224.707031 36.59375 225.160156 36.46875 225.433594 36.46875 C 226.058594 36.46875 226.457031 37.019531 226.457031 37.96875 C 226.457031 38.921875 225.933594 40.746094 225.632812 41.34375 C 225.082031 42.46875 224.332031 42.996094 223.734375 42.996094 C 222.683594 42.996094 222.484375 41.671875 222.484375 41.570312 C 222.484375 41.546875 222.484375 41.519531 222.535156 41.320312 Z M 223.308594 38.195312 "/>
<path style=" stroke:none;fill-rule:nonzero;fill:rgb(0%,0%,0%);fill-opacity:1;" d="M 231.753906 41.535156 C 232.628906 41.109375 233.179688 40.585938 233.179688 39.8125 C 233.179688 38.734375 232.054688 38.160156 230.980469 38.160156 C 229.753906 38.160156 228.753906 38.960938 228.753906 40.011719 C 228.753906 40.535156 229.003906 40.910156 229.203125 41.136719 C 229.402344 41.386719 229.480469 41.4375 230.128906 41.8125 C 229.503906 42.085938 228.402344 42.6875 228.402344 43.859375 C 228.402344 45.085938 229.679688 45.785156 230.953125 45.785156 C 232.378906 45.785156 233.527344 44.886719 233.527344 43.6875 C 233.527344 42.9375 233.105469 42.3125 232.453125 41.9375 C 232.304688 41.835938 231.929688 41.636719 231.753906 41.535156 Z M 229.953125 40.484375 C 229.652344 40.3125 229.355469 40.011719 229.355469 39.585938 C 229.355469 38.886719 230.152344 38.484375 230.953125 38.484375 C 231.828125 38.484375 232.605469 39.035156 232.605469 39.8125 C 232.605469 40.8125 231.429688 41.3125 231.429688 41.3125 C 231.402344 41.3125 231.378906 41.3125 231.304688 41.261719 Z M 230.480469 42.035156 L 232.027344 42.910156 C 232.304688 43.085938 232.855469 43.410156 232.855469 44.0625 C 232.855469 44.910156 231.929688 45.4375 230.980469 45.4375 C 229.953125 45.4375 229.078125 44.761719 229.078125 43.859375 C 229.078125 43.035156 229.679688 42.386719 230.480469 42.035156 Z M 230.480469 42.035156 "/>
<path style="fill:none;stroke-width:0.8;stroke-linecap:butt;stroke-linejoin:miter;stroke:rgb(0%,0%,0%);stroke-opacity:1;stroke-miterlimit:4;" d="M 317.605469 69.996094 L 432.804688 69.996094 "/>
<path style="fill:none;stroke-width:0.8;stroke-linecap:butt;stroke-linejoin:miter;stroke:rgb(0%,0%,0%);stroke-opacity:1;stroke-miterlimit:4;" d="M 375.207031 12.394531 L 375.207031 69.996094 "/>
<path style="fill:none;stroke-width:0.8;stroke-linecap:butt;stroke-linejoin:miter;stroke:rgb(0%,0%,0%);stroke-opacity:1;stroke-miterlimit:4;" d="M 334.476562 110.722656 L 415.933594 29.265625 "/>
<path style="fill:none;stroke-width:0.8;stroke-linecap:butt;stroke-linejoin:miter;stroke:rgb(0%,0%,0%);stroke-opacity:1;stroke-miterlimit:4;" d="M 415.933594 110.722656 L 334.476562 29.265625 "/>
<path style="fill:none;stroke-width:0.739104;stroke-linecap:butt;stroke-linejoin:miter;stroke:rgb(0%,0%,0%);stroke-opacity:1;stroke-miterlimit:4;" d="M 307.378185 -35.281285 L 382.634833 -110.53958 " transform="matrix(1,0.414214,-0.414214,1,0,0)"/>
<path style="fill:none;stroke-width:0.739104;stroke-linecap:butt;stroke-linejoin:miter;stroke:rgb(0%,0%,0%);stroke-opacity:1;stroke-miterlimit:4;" d="M 382.635657 -35.282108 L 307.377362 -110.538757 " transform="matrix(1,0.414214,-0.414214,1,0,0)"/>
<path style="fill:none;stroke-width:0.739104;stroke-linecap:butt;stroke-linejoin:miter;stroke:rgb(0%,0%,0%);stroke-opacity:1;stroke-miterlimit:4;" d="M 257.882612 230.029526 L 333.140907 154.772878 " transform="matrix(1,-0.414214,0.414214,1,0,0)"/>
<path style="fill:none;stroke-width:0.739104;stroke-linecap:butt;stroke-linejoin:miter;stroke:rgb(0%,0%,0%);stroke-opacity:1;stroke-miterlimit:4;" d="M 333.140084 230.030349 L 257.883436 154.772054 " transform="matrix(1,-0.414214,0.414214,1,0,0)"/>
<use xlink:href="#surface29" transform="matrix(1,0,0,1,373,68)" mask="url(#mask4)"/>
<path style=" stroke:none;fill-rule:nonzero;fill:rgb(0%,0%,0%);fill-opacity:1;" d="M 401.140625 9 C 401.015625 9.550781 400.964844 9.648438 400.265625 9.648438 C 400.089844 9.648438 399.914062 9.648438 399.914062 9.949219 C 399.914062 10.074219 399.988281 10.148438 400.113281 10.148438 C 400.539062 10.148438 401.015625 10.101562 401.4375 10.101562 C 401.988281 10.101562 402.515625 10.148438 403.039062 10.148438 C 403.113281 10.148438 403.3125 10.148438 403.3125 9.824219 C 403.3125 9.648438 403.164062 9.648438 402.9375 9.648438 C 402.140625 9.648438 402.140625 9.550781 402.140625 9.398438 C 402.140625 9.199219 402.8125 6.601562 402.914062 6.199219 C 403.113281 6.675781 403.5625 7.226562 404.390625 7.226562 C 406.238281 7.226562 408.238281 4.898438 408.238281 2.550781 C 408.238281 1.050781 407.3125 0 406.113281 0 C 405.3125 0 404.539062 0.574219 404.015625 1.199219 C 403.863281 0.324219 403.164062 0 402.589844 0 C 401.839844 0 401.539062 0.625 401.414062 0.898438 C 401.113281 1.449219 400.914062 2.398438 400.914062 2.449219 C 400.914062 2.625 401.0625 2.625 401.089844 2.625 C 401.265625 2.625 401.265625 2.601562 401.363281 2.25 C 401.640625 1.125 401.964844 0.351562 402.539062 0.351562 C 402.8125 0.351562 403.039062 0.476562 403.039062 1.074219 C 403.039062 1.449219 402.988281 1.625 402.914062 1.898438 Z M 403.9375 2.074219 C 404.039062 1.648438 404.488281 1.199219 404.765625 0.949219 C 405.339844 0.476562 405.789062 0.351562 406.0625 0.351562 C 406.6875 0.351562 407.089844 0.898438 407.089844 1.851562 C 407.089844 2.800781 406.5625 4.625 406.265625 5.226562 C 405.714844 6.351562 404.964844 6.875 404.363281 6.875 C 403.3125 6.875 403.113281 5.550781 403.113281 5.449219 C 403.113281 5.425781 403.113281 5.398438 403.164062 5.199219 Z M 403.9375 2.074219 "/>
<path style=" stroke:none;fill-rule:nonzero;fill:rgb(0%,0%,0%);fill-opacity:1;" d="M 412.160156 2.339844 C 412.160156 2.039062 412.160156 2.039062 411.835938 2.039062 C 411.109375 2.742188 410.109375 2.742188 409.660156 2.742188 L 409.660156 3.140625 C 409.910156 3.140625 410.660156 3.140625 411.261719 2.839844 L 411.261719 8.515625 C 411.261719 8.890625 411.261719 9.039062 410.160156 9.039062 L 409.734375 9.039062 L 409.734375 9.441406 C 409.933594 9.441406 411.308594 9.390625 411.710938 9.390625 C 412.058594 9.390625 413.460938 9.441406 413.710938 9.441406 L 413.710938 9.039062 L 413.285156 9.039062 C 412.160156 9.039062 412.160156 8.890625 412.160156 8.515625 Z M 412.160156 2.339844 "/>
<path style=" stroke:none;fill-rule:nonzero;fill:rgb(0%,0%,0%);fill-opacity:1;" d="M 416.464844 5.789062 C 416.464844 4.890625 416.539062 4.066406 416.964844 3.367188 C 417.339844 2.765625 417.941406 2.367188 418.664062 2.367188 C 418.988281 2.367188 419.441406 2.441406 419.664062 2.742188 C 419.390625 2.765625 419.140625 2.964844 419.140625 3.289062 C 419.140625 3.566406 419.339844 3.816406 419.664062 3.816406 C 420.015625 3.816406 420.214844 3.589844 420.214844 3.265625 C 420.214844 2.617188 419.738281 2.039062 418.640625 2.039062 C 417.039062 2.039062 415.390625 3.515625 415.390625 5.914062 C 415.390625 8.789062 416.738281 9.664062 417.988281 9.664062 C 419.339844 9.664062 420.515625 8.617188 420.515625 7.164062 C 420.515625 5.742188 419.390625 4.691406 418.089844 4.691406 C 417.191406 4.691406 416.714844 5.289062 416.464844 5.789062 Z M 417.988281 9.316406 C 417.414062 9.316406 416.988281 8.992188 416.738281 8.492188 C 416.589844 8.164062 416.488281 7.589844 416.488281 6.941406 C 416.488281 5.839844 417.140625 5.015625 418.039062 5.015625 C 418.539062 5.015625 418.890625 5.214844 419.164062 5.617188 C 419.441406 6.039062 419.441406 6.515625 419.441406 7.164062 C 419.441406 7.789062 419.441406 8.265625 419.140625 8.714844 C 418.890625 9.089844 418.515625 9.316406 417.988281 9.316406 Z M 417.988281 9.316406 "/>
</g>
</svg>
