<?xml version="1.0" encoding="UTF-8"?>
<svg xmlns="http://www.w3.org/2000/svg" xmlns:xlink="http://www.w3.org/1999/xlink" width="376.833313pt" height="103.367897pt" viewBox="0 0 376.833313 103.367897" version="1.1">
<defs>
<clipPath id="clip1">
  <path d="M 255 0 L 376.832031 0 L 376.832031 93 L 255 93 Z M 255 0 "/>
</clipPath>
<clipPath id="clip2">
  <path d="M 255 0 L 376.832031 0 L 376.832031 93 L 255 93 Z M 255 0 "/>
</clipPath>
<filter id="alpha" filterUnits="objectBoundingBox" x="0%" y="0%" width="100%" height="100%">
  <feColorMatrix type="matrix" in="SourceGraphic" values="0 0 0 0 1 0 0 0 0 1 0 0 0 0 1 0 0 0 1 0"/>
</filter>
<clipPath id="clip3">
  <rect width="17" height="27"/>
</clipPath>
<g id="surface8" clip-path="url(#clip3)">
<rect x="0" y="0" width="17" height="27" style="fill:rgb(0%,0%,0%);fill-opacity:0.97;stroke:none;"/>
</g>
<mask id="mask0">
  <g filter="url(#alpha)">
<use xlink:href="#surface8"/>
  </g>
</mask>
<clipPath id="clip4">
  <rect width="17" height="27"/>
</clipPath>
<g id="surface5" clip-path="url(#clip4)">
<path style="fill:none;stroke-width:1.6;stroke-linecap:round;stroke-linejoin:round;stroke:rgb(100%,0%,0%);stroke-opacity:1;stroke-miterlimit:4;" d="M 22.90625 61.949219 C 29.386719 67.429688 33.550781 75.160156 34.566406 83.589844 " transform="matrix(1,0,0,1,-20,-60)"/>
<path style="fill-rule:evenodd;fill:rgb(100%,0%,0%);fill-opacity:1;stroke-width:0.30541;stroke-linecap:butt;stroke-linejoin:miter;stroke:rgb(100%,0%,0%);stroke-opacity:1;stroke-miterlimit:4;" d="M 45.363363 24.819894 L 46.584875 23.599258 L 42.309452 24.820812 L 46.585924 26.043683 Z M 45.363363 24.819894 " transform="matrix(1,0.845784,-0.845784,1,-20,-60)"/>
<path style="fill-rule:evenodd;fill:rgb(100%,0%,0%);fill-opacity:1;stroke-width:0.397133;stroke-linecap:butt;stroke-linejoin:miter;stroke:rgb(100%,0%,0%);stroke-opacity:1;stroke-miterlimit:4;" d="M -84.59106 24.153204 L -83.001703 22.567181 L -88.560133 24.155892 L -83.001186 25.743024 Z M -84.59106 24.153204 " transform="matrix(-0.120376,-1,1,-0.120376,-20,-60)"/>
</g>
<clipPath id="clip5">
  <path d="M 84 92 L 91 92 L 91 103.367188 L 84 103.367188 Z M 84 92 "/>
</clipPath>
<clipPath id="clip6">
  <path d="M 201 0 L 376.832031 0 L 376.832031 89 L 201 89 Z M 201 0 "/>
</clipPath>
<clipPath id="clip7">
  <path d="M 286 92 L 293 92 L 293 103.367188 L 286 103.367188 Z M 286 92 "/>
</clipPath>
</defs>
<g id="surface1">
<path style=" stroke:none;fill-rule:nonzero;fill:rgb(100%,0%,100%);fill-opacity:1;" d="M 260.40625 1.203125 L 375.609375 1.203125 L 375.609375 87.605469 Z M 260.40625 1.203125 "/>
<g clip-path="url(#clip1)" clip-rule="nonzero">
<path style="fill:none;stroke-width:0.8;stroke-linecap:butt;stroke-linejoin:miter;stroke:rgb(0%,0%,0%);stroke-opacity:1;stroke-dasharray:0.8,0.8;stroke-miterlimit:4;" d="M 260.40625 1.203125 L 375.609375 1.203125 L 375.609375 87.605469 Z M 260.40625 1.203125 "/>
</g>
<path style=" stroke:none;fill-rule:nonzero;fill:rgb(100%,39.99939%,0%);fill-opacity:1;" d="M 375.609375 87.605469 L 260.40625 87.605469 L 260.40625 1.203125 Z M 375.609375 87.605469 "/>
<g clip-path="url(#clip2)" clip-rule="nonzero">
<path style="fill:none;stroke-width:0.8;stroke-linecap:butt;stroke-linejoin:miter;stroke:rgb(0%,0%,0%);stroke-opacity:1;stroke-dasharray:0.8,0.8;stroke-miterlimit:4;" d="M 375.609375 87.605469 L 260.40625 87.605469 L 260.40625 1.203125 Z M 375.609375 87.605469 "/>
</g>
<path style="fill-rule:nonzero;fill:rgb(0%,100%,0%);fill-opacity:1;stroke-width:0.8;stroke-linecap:butt;stroke-linejoin:miter;stroke:rgb(0%,0%,0%);stroke-opacity:1;stroke-dasharray:0.8,0.8;stroke-miterlimit:4;" d="M 260.40625 1.203125 L 202.808594 87.605469 L 260.40625 87.605469 Z M 260.40625 1.203125 "/>
<path style="fill-rule:nonzero;fill:rgb(0%,100%,100%);fill-opacity:1;stroke-width:0.8;stroke-linecap:butt;stroke-linejoin:miter;stroke:rgb(0%,0%,0%);stroke-opacity:1;stroke-dasharray:0.8,0.8;stroke-miterlimit:4;" d="M 202.808594 87.605469 L 260.40625 1.203125 L 202.808594 1.203125 Z M 202.808594 87.605469 "/>
<path style="fill:none;stroke-width:0.8;stroke-linecap:butt;stroke-linejoin:miter;stroke:rgb(100%,0%,0%);stroke-opacity:1;stroke-miterlimit:4;" d="M 68.40625 87.605469 L 68.40625 78.003906 L 58.808594 78.003906 "/>
<path style="fill:none;stroke-width:2.4;stroke-linecap:butt;stroke-linejoin:round;stroke:rgb(0%,0%,0%);stroke-opacity:1;stroke-miterlimit:4;" d="M 1.207031 87.605469 L 174.007812 87.605469 L 58.808594 1.203125 Z M 1.207031 87.605469 "/>
<use xlink:href="#surface5" transform="matrix(1,0,0,1,20,60)" mask="url(#mask0)"/>
<path style=" stroke:none;fill-rule:nonzero;fill:rgb(0%,0%,0%);fill-opacity:1;" d="M 26.859375 32.214844 C 26.558594 31.617188 26.109375 31.191406 25.382812 31.191406 C 23.53125 31.191406 21.558594 33.542969 21.558594 35.867188 C 21.558594 37.367188 22.433594 38.417969 23.65625 38.417969 C 23.984375 38.417969 24.78125 38.339844 25.734375 37.214844 C 25.859375 37.890625 26.433594 38.417969 27.183594 38.417969 C 27.757812 38.417969 28.109375 38.042969 28.382812 37.542969 C 28.632812 36.964844 28.859375 35.992188 28.859375 35.964844 C 28.859375 35.792969 28.707031 35.792969 28.65625 35.792969 C 28.507812 35.792969 28.484375 35.867188 28.433594 36.089844 C 28.15625 37.117188 27.882812 38.066406 27.234375 38.066406 C 26.78125 38.066406 26.757812 37.640625 26.757812 37.339844 C 26.757812 36.992188 26.78125 36.839844 26.957031 36.140625 C 27.132812 35.492188 27.15625 35.316406 27.308594 34.714844 L 27.882812 32.492188 C 27.984375 32.042969 27.984375 32.015625 27.984375 31.941406 C 27.984375 31.667969 27.808594 31.515625 27.53125 31.515625 C 27.132812 31.515625 26.90625 31.867188 26.859375 32.214844 Z M 25.832031 36.339844 C 25.734375 36.640625 25.734375 36.667969 25.507812 36.941406 C 24.808594 37.816406 24.15625 38.066406 23.707031 38.066406 C 22.90625 38.066406 22.683594 37.191406 22.683594 36.566406 C 22.683594 35.765625 23.183594 33.816406 23.558594 33.066406 C 24.058594 32.140625 24.757812 31.542969 25.40625 31.542969 C 26.433594 31.542969 26.65625 32.839844 26.65625 32.941406 C 26.65625 33.042969 26.632812 33.140625 26.609375 33.214844 Z M 25.832031 36.339844 "/>
<g clip-path="url(#clip5)" clip-rule="nonzero">
<path style=" stroke:none;fill-rule:nonzero;fill:rgb(0%,0%,0%);fill-opacity:1;" d="M 87.71875 92.292969 C 87.71875 92.292969 87.71875 92.117188 87.519531 92.117188 C 87.171875 92.117188 85.996094 92.242188 85.570312 92.292969 C 85.445312 92.292969 85.269531 92.316406 85.269531 92.59375 C 85.269531 92.792969 85.421875 92.792969 85.671875 92.792969 C 86.421875 92.792969 86.445312 92.894531 86.445312 93.066406 C 86.445312 93.167969 86.320312 93.71875 86.246094 94.042969 L 84.921875 99.242188 C 84.746094 100.042969 84.671875 100.316406 84.671875 100.867188 C 84.671875 102.367188 85.519531 103.367188 86.695312 103.367188 C 88.570312 103.367188 90.546875 100.992188 90.546875 98.691406 C 90.546875 97.242188 89.695312 96.144531 88.421875 96.144531 C 87.695312 96.144531 87.019531 96.617188 86.546875 97.09375 Z M 86.246094 98.316406 C 86.320312 97.96875 86.320312 97.941406 86.46875 97.769531 C 87.246094 96.742188 87.96875 96.492188 88.394531 96.492188 C 88.96875 96.492188 89.394531 96.96875 89.394531 97.992188 C 89.394531 98.941406 88.871094 100.769531 88.570312 101.367188 C 88.046875 102.441406 87.320312 103.019531 86.695312 103.019531 C 86.144531 103.019531 85.621094 102.59375 85.621094 101.417969 C 85.621094 101.09375 85.621094 100.792969 85.871094 99.792969 Z M 86.246094 98.316406 "/>
</g>
<path style=" stroke:none;fill-rule:nonzero;fill:rgb(0%,0%,0%);fill-opacity:1;" d="M 22.886719 74.757812 C 22.886719 73.707031 22.609375 71.480469 20.984375 71.480469 C 18.761719 71.480469 16.3125 75.980469 16.3125 79.632812 C 16.3125 81.132812 16.761719 82.90625 18.210938 82.90625 C 20.460938 82.90625 22.886719 78.332031 22.886719 74.757812 Z M 17.984375 76.933594 C 18.261719 75.933594 18.585938 74.65625 19.234375 73.507812 C 19.660156 72.730469 20.234375 71.832031 20.960938 71.832031 C 21.734375 71.832031 21.835938 72.855469 21.835938 73.757812 C 21.835938 74.558594 21.710938 75.355469 21.335938 76.933594 Z M 21.1875 77.457031 C 21.011719 78.183594 20.6875 79.53125 20.0625 80.683594 C 19.511719 81.78125 18.910156 82.558594 18.210938 82.558594 C 17.6875 82.558594 17.359375 82.082031 17.359375 80.605469 C 17.359375 79.933594 17.460938 79.007812 17.859375 77.457031 Z M 21.1875 77.457031 "/>
<path style=" stroke:none;fill-rule:nonzero;fill:rgb(0%,0%,0%);fill-opacity:1;" d="M 68.195312 38.953125 C 68.195312 38.953125 68.195312 38.777344 67.996094 38.777344 C 67.621094 38.777344 66.46875 38.902344 66.046875 38.953125 C 65.921875 38.953125 65.746094 38.980469 65.746094 39.253906 C 65.746094 39.453125 65.894531 39.453125 66.121094 39.453125 C 66.894531 39.453125 66.921875 39.554688 66.921875 39.730469 L 66.871094 40.054688 L 64.570312 49.230469 C 64.496094 49.453125 64.496094 49.480469 64.496094 49.578125 C 64.496094 49.953125 64.820312 50.027344 64.96875 50.027344 C 65.21875 50.027344 65.46875 49.828125 65.546875 49.605469 L 65.84375 48.402344 L 66.195312 46.980469 C 66.296875 46.605469 66.394531 46.253906 66.46875 45.902344 C 66.496094 45.804688 66.644531 45.277344 66.644531 45.179688 C 66.695312 45.027344 67.195312 44.152344 67.746094 43.703125 C 68.09375 43.453125 68.570312 43.152344 69.269531 43.152344 C 69.945312 43.152344 70.121094 43.703125 70.121094 44.277344 C 70.121094 45.128906 69.519531 46.878906 69.144531 47.855469 C 69.019531 48.203125 68.921875 48.402344 68.921875 48.730469 C 68.921875 49.480469 69.496094 50.027344 70.246094 50.027344 C 71.746094 50.027344 72.320312 47.703125 72.320312 47.578125 C 72.320312 47.402344 72.195312 47.402344 72.144531 47.402344 C 71.96875 47.402344 71.96875 47.453125 71.894531 47.703125 C 71.671875 48.554688 71.144531 49.679688 70.269531 49.679688 C 69.996094 49.679688 69.894531 49.527344 69.894531 49.152344 C 69.894531 48.753906 70.019531 48.378906 70.171875 48.027344 C 70.421875 47.328125 71.144531 45.429688 71.144531 44.503906 C 71.144531 43.480469 70.519531 42.804688 69.320312 42.804688 C 68.320312 42.804688 67.546875 43.304688 66.945312 44.027344 Z M 68.195312 38.953125 "/>
<path style="fill:none;stroke-width:0.8;stroke-linecap:butt;stroke-linejoin:miter;stroke:rgb(0%,0%,0%);stroke-opacity:1;stroke-dasharray:0.8,1.6;stroke-miterlimit:4;" d="M 58.808594 1.203125 L 58.808594 87.605469 "/>
<path style="fill:none;stroke-width:0.8;stroke-linecap:butt;stroke-linejoin:miter;stroke:rgb(100%,0%,0%);stroke-opacity:1;stroke-miterlimit:4;" d="M 270.007812 87.605469 L 270.007812 78.003906 L 260.40625 78.003906 "/>
<g clip-path="url(#clip6)" clip-rule="nonzero">
<path style="fill:none;stroke-width:2.4;stroke-linecap:butt;stroke-linejoin:round;stroke:rgb(0%,0%,0%);stroke-opacity:1;stroke-miterlimit:4;" d="M 202.808594 87.605469 L 375.609375 87.605469 L 260.40625 1.203125 Z M 202.808594 87.605469 "/>
</g>
<path style=" stroke:none;fill-rule:nonzero;fill:rgb(0%,0%,0%);fill-opacity:1;" d="M 228.457031 32.214844 C 228.15625 31.617188 227.707031 31.191406 226.984375 31.191406 C 225.132812 31.191406 223.15625 33.542969 223.15625 35.867188 C 223.15625 37.367188 224.03125 38.417969 225.257812 38.417969 C 225.582031 38.417969 226.382812 38.339844 227.332031 37.214844 C 227.457031 37.890625 228.03125 38.417969 228.78125 38.417969 C 229.359375 38.417969 229.707031 38.042969 229.984375 37.542969 C 230.234375 36.964844 230.457031 35.992188 230.457031 35.964844 C 230.457031 35.792969 230.308594 35.792969 230.257812 35.792969 C 230.109375 35.792969 230.082031 35.867188 230.03125 36.089844 C 229.757812 37.117188 229.484375 38.066406 228.832031 38.066406 C 228.382812 38.066406 228.359375 37.640625 228.359375 37.339844 C 228.359375 36.992188 228.382812 36.839844 228.558594 36.140625 C 228.734375 35.492188 228.757812 35.316406 228.90625 34.714844 L 229.484375 32.492188 C 229.582031 32.042969 229.582031 32.015625 229.582031 31.941406 C 229.582031 31.667969 229.40625 31.515625 229.132812 31.515625 C 228.734375 31.515625 228.507812 31.867188 228.457031 32.214844 Z M 227.433594 36.339844 C 227.332031 36.640625 227.332031 36.667969 227.109375 36.941406 C 226.40625 37.816406 225.757812 38.066406 225.308594 38.066406 C 224.507812 38.066406 224.28125 37.191406 224.28125 36.566406 C 224.28125 35.765625 224.78125 33.816406 225.15625 33.066406 C 225.65625 32.140625 226.359375 31.542969 227.007812 31.542969 C 228.03125 31.542969 228.257812 32.839844 228.257812 32.941406 C 228.257812 33.042969 228.234375 33.140625 228.207031 33.214844 Z M 227.433594 36.339844 "/>
<g clip-path="url(#clip7)" clip-rule="nonzero">
<path style=" stroke:none;fill-rule:nonzero;fill:rgb(0%,0%,0%);fill-opacity:1;" d="M 289.320312 92.292969 C 289.320312 92.292969 289.320312 92.117188 289.121094 92.117188 C 288.769531 92.117188 287.59375 92.242188 287.171875 92.292969 C 287.046875 92.292969 286.871094 92.316406 286.871094 92.59375 C 286.871094 92.792969 287.019531 92.792969 287.269531 92.792969 C 288.019531 92.792969 288.046875 92.894531 288.046875 93.066406 C 288.046875 93.167969 287.921875 93.71875 287.84375 94.042969 L 286.519531 99.242188 C 286.34375 100.042969 286.269531 100.316406 286.269531 100.867188 C 286.269531 102.367188 287.121094 103.367188 288.296875 103.367188 C 290.171875 103.367188 292.144531 100.992188 292.144531 98.691406 C 292.144531 97.242188 291.296875 96.144531 290.019531 96.144531 C 289.296875 96.144531 288.621094 96.617188 288.144531 97.09375 Z M 287.84375 98.316406 C 287.921875 97.96875 287.921875 97.941406 288.070312 97.769531 C 288.84375 96.742188 289.570312 96.492188 289.996094 96.492188 C 290.570312 96.492188 290.996094 96.96875 290.996094 97.992188 C 290.996094 98.941406 290.46875 100.769531 290.171875 101.367188 C 289.644531 102.441406 288.921875 103.019531 288.296875 103.019531 C 287.746094 103.019531 287.21875 102.59375 287.21875 101.417969 C 287.21875 101.09375 287.21875 100.792969 287.46875 99.792969 Z M 287.84375 98.316406 "/>
</g>
<path style=" stroke:none;fill-rule:nonzero;fill:rgb(0%,0%,0%);fill-opacity:1;" d="M 269.796875 38.953125 C 269.796875 38.953125 269.796875 38.777344 269.59375 38.777344 C 269.21875 38.777344 268.070312 38.902344 267.644531 38.953125 C 267.519531 38.953125 267.34375 38.980469 267.34375 39.253906 C 267.34375 39.453125 267.496094 39.453125 267.71875 39.453125 C 268.496094 39.453125 268.519531 39.554688 268.519531 39.730469 L 268.46875 40.054688 L 266.171875 49.230469 C 266.09375 49.453125 266.09375 49.480469 266.09375 49.578125 C 266.09375 49.953125 266.421875 50.027344 266.570312 50.027344 C 266.820312 50.027344 267.070312 49.828125 267.144531 49.605469 L 267.445312 48.402344 L 267.796875 46.980469 C 267.894531 46.605469 267.996094 46.253906 268.070312 45.902344 C 268.09375 45.804688 268.246094 45.277344 268.246094 45.179688 C 268.296875 45.027344 268.796875 44.152344 269.34375 43.703125 C 269.695312 43.453125 270.171875 43.152344 270.871094 43.152344 C 271.546875 43.152344 271.71875 43.703125 271.71875 44.277344 C 271.71875 45.128906 271.121094 46.878906 270.746094 47.855469 C 270.621094 48.203125 270.519531 48.402344 270.519531 48.730469 C 270.519531 49.480469 271.09375 50.027344 271.84375 50.027344 C 273.34375 50.027344 273.921875 47.703125 273.921875 47.578125 C 273.921875 47.402344 273.796875 47.402344 273.746094 47.402344 C 273.570312 47.402344 273.570312 47.453125 273.496094 47.703125 C 273.269531 48.554688 272.746094 49.679688 271.871094 49.679688 C 271.59375 49.679688 271.496094 49.527344 271.496094 49.152344 C 271.496094 48.753906 271.621094 48.378906 271.769531 48.027344 C 272.019531 47.328125 272.746094 45.429688 272.746094 44.503906 C 272.746094 43.480469 272.121094 42.804688 270.921875 42.804688 C 269.921875 42.804688 269.144531 43.304688 268.546875 44.027344 Z M 269.796875 38.953125 "/>
</g>
</svg>
