<?xml version="1.0" encoding="UTF-8"?>
<svg xmlns="http://www.w3.org/2000/svg" xmlns:xlink="http://www.w3.org/1999/xlink" width="110pt" height="112pt" viewBox="0 0 110 112" version="1.1">
<defs>
<clipPath id="clip1">
  <path d="M 0 1.601562 L 110 1.601562 L 110 111.699219 L 0 111.699219 Z M 0 1.601562 "/>
</clipPath>
<clipPath id="clip2">
  <path d="M 0 1.601562 L 110 1.601562 L 110 111.699219 L 0 111.699219 Z M 0 1.601562 "/>
</clipPath>
</defs>
<g id="surface1">
<g clip-path="url(#clip1)" clip-rule="nonzero">
<path style="fill:none;stroke-width:10;stroke-linecap:butt;stroke-linejoin:miter;stroke:rgb(0%,0%,0%);stroke-opacity:1;stroke-miterlimit:10;" d="M 1040.117188 553.59375 L 1038.984375 553.632812 L 1035.585938 553.828125 L 1029.960938 554.414062 L 1022.1875 555.46875 L 1012.34375 557.226562 L 1000.546875 559.84375 L 986.875 563.4375 L 971.484375 568.085938 L 936.328125 581.09375 L 896.445312 599.53125 L 853.476562 623.632812 L 809.140625 653.28125 L 765.039062 688.085938 L 722.773438 727.148438 L 683.671875 769.453125 L 648.90625 813.554688 L 619.21875 857.890625 L 595.117188 900.859375 L 576.71875 940.742188 L 563.671875 975.898438 L 559.023438 991.25 L 555.429688 1004.921875 L 552.851562 1016.757812 L 551.09375 1026.601562 L 550 1034.375 L 549.453125 1039.960938 L 549.21875 1043.398438 L 549.179688 1044.492188 L 549.179688 1043.398438 L 548.945312 1039.960938 L 548.398438 1034.375 L 547.304688 1026.601562 L 545.546875 1016.757812 L 542.96875 1004.921875 L 539.375 991.25 L 534.726562 975.898438 L 521.679688 940.742188 L 503.28125 900.859375 L 479.179688 857.890625 L 449.492188 813.554688 L 414.726562 769.453125 L 375.625 727.148438 L 333.359375 688.085938 L 289.257812 653.28125 L 244.882812 623.632812 L 201.953125 599.53125 L 162.070312 581.09375 L 126.914062 568.085938 L 111.523438 563.4375 L 97.851562 559.84375 L 86.054688 557.226562 L 76.210938 555.46875 L 68.4375 554.414062 L 62.8125 553.828125 L 59.414062 553.632812 L 58.28125 553.59375 L 59.414062 553.554688 L 62.8125 553.359375 L 68.4375 552.8125 L 76.210938 551.71875 L 86.054688 549.960938 L 97.851562 547.34375 L 111.523438 543.789062 L 126.914062 539.101562 L 162.070312 526.09375 L 201.953125 507.65625 L 244.882812 483.554688 L 289.257812 453.90625 L 333.359375 419.140625 L 375.625 380.039062 L 414.726562 337.773438 L 449.492188 293.671875 L 479.179688 249.296875 L 503.28125 206.367188 L 521.679688 166.484375 L 534.726562 131.289062 L 539.375 115.9375 L 542.96875 102.265625 L 545.546875 90.429688 L 547.304688 80.585938 L 548.398438 72.8125 L 548.945312 67.226562 L 549.179688 63.828125 L 549.179688 62.695312 L 549.21875 63.828125 L 549.453125 67.226562 L 550 72.8125 L 551.09375 80.585938 L 552.851562 90.429688 L 555.429688 102.265625 L 559.023438 115.9375 L 563.671875 131.289062 L 576.71875 166.484375 L 595.117188 206.367188 L 619.21875 249.296875 L 648.90625 293.671875 L 683.671875 337.773438 L 722.773438 380.039062 L 765.039062 419.140625 L 809.140625 453.90625 L 853.476562 483.554688 L 896.445312 507.65625 L 936.328125 526.09375 L 971.484375 539.101562 L 986.875 543.789062 L 1000.546875 547.34375 L 1012.34375 549.960938 L 1022.1875 551.71875 L 1029.960938 552.8125 L 1035.585938 553.359375 L 1038.984375 553.554688 L 1040.117188 553.59375 " transform="matrix(0.1,0,0,-0.1,0,112)"/>
</g>
<path style="fill:none;stroke-width:5;stroke-linecap:butt;stroke-linejoin:miter;stroke:rgb(0%,0%,0%);stroke-opacity:1;stroke-miterlimit:10;" d="M 9.21875 553.59375 L 1089.21875 553.59375 " transform="matrix(0.1,0,0,-0.1,0,112)"/>
<path style="fill:none;stroke-width:5;stroke-linecap:butt;stroke-linejoin:miter;stroke:rgb(0%,0%,0%);stroke-opacity:1;stroke-miterlimit:10;" d="M 549.179688 13.59375 L 549.179688 1093.59375 " transform="matrix(0.1,0,0,-0.1,0,112)"/>
<path style=" stroke:none;fill-rule:nonzero;fill:rgb(0%,0%,0%);fill-opacity:1;" d="M 104.675781 56.453125 C 104.675781 55.097656 103.574219 53.996094 102.21875 53.996094 C 100.863281 53.996094 99.765625 55.097656 99.765625 56.453125 C 99.765625 57.808594 100.863281 58.90625 102.21875 58.90625 C 103.574219 58.90625 104.675781 57.808594 104.675781 56.453125 "/>
<path style="fill:none;stroke-width:10;stroke-linecap:butt;stroke-linejoin:miter;stroke:rgb(92.939758%,10.978699%,14.118958%);stroke-opacity:1;stroke-miterlimit:10;" d="M 9.21875 715.9375 L 1089.21875 544.882812 " transform="matrix(0.1,0,0,-0.1,0,112)"/>
<path style=" stroke:none;fill-rule:nonzero;fill:rgb(0%,0%,0%);fill-opacity:1;" d="M 57.5625 9.339844 C 57.5625 7.984375 56.464844 6.886719 55.109375 6.886719 C 53.753906 6.886719 52.652344 7.984375 52.652344 9.339844 C 52.652344 10.695312 53.753906 11.796875 55.109375 11.796875 C 56.464844 11.796875 57.5625 10.695312 57.5625 9.339844 "/>
<g clip-path="url(#clip2)" clip-rule="nonzero">
<path style="fill:none;stroke-width:10;stroke-linecap:butt;stroke-linejoin:miter;stroke:rgb(92.939758%,10.978699%,14.118958%);stroke-opacity:1;stroke-miterlimit:10;" d="M 9.21875 4447.890625 L 1089.21875 -2370.976562 " transform="matrix(0.1,0,0,-0.1,0,112)"/>
</g>
</g>
</svg>
