<?xml version="1.0" encoding="UTF-8"?>
<svg xmlns="http://www.w3.org/2000/svg" xmlns:xlink="http://www.w3.org/1999/xlink" width="469.007141pt" height="195.949799pt" viewBox="0 0 469.007141 195.949799" version="1.1">
<defs>
<clipPath id="clip1">
  <path d="M 328 187 L 334 187 L 334 195.949219 L 328 195.949219 Z M 328 187 "/>
</clipPath>
<clipPath id="clip2">
  <path d="M 389 190 L 396 190 L 396 195.949219 L 389 195.949219 Z M 389 190 "/>
</clipPath>
<clipPath id="clip3">
  <path d="M 412 187 L 418 187 L 418 195.949219 L 412 195.949219 Z M 412 187 "/>
</clipPath>
<clipPath id="clip4">
  <path d="M 464 119 L 469.007812 119 L 469.007812 128 L 464 128 Z M 464 119 "/>
</clipPath>
</defs>
<g id="surface1">
<path style="fill-rule:evenodd;fill:rgb(78.430176%,44.313049%,21.568298%);fill-opacity:1;stroke-width:0.8;stroke-linecap:butt;stroke-linejoin:miter;stroke:rgb(0%,0%,0%);stroke-opacity:1;stroke-miterlimit:4;" d="M 7.484375 162.445312 L 17.082031 172.042969 L 45.882812 172.042969 C 50.679688 167.242188 50.683594 167.242188 50.683594 162.445312 Z M 7.484375 162.445312 "/>
<path style="fill:none;stroke-width:0.8;stroke-linecap:butt;stroke-linejoin:miter;stroke:rgb(0%,0%,0%);stroke-opacity:1;stroke-miterlimit:4;" d="M 31.484375 133.644531 L 31.484375 162.445312 "/>
<path style="fill-rule:evenodd;fill:rgb(68.626404%,86.665344%,91.371155%);fill-opacity:1;stroke-width:0.8;stroke-linecap:round;stroke-linejoin:round;stroke:rgb(0%,0%,0%);stroke-opacity:1;stroke-miterlimit:4;" d="M 31.484375 133.644531 C 18.722656 137.566406 12.792969 143.222656 12.28125 157.644531 L 45.882812 157.644531 C 33.535156 148.105469 24.347656 147.910156 31.484375 133.644531 "/>
<path style="fill-rule:evenodd;fill:rgb(0%,0%,0%);fill-opacity:1;stroke-width:0.8;stroke-linecap:butt;stroke-linejoin:miter;stroke:rgb(0%,0%,0%);stroke-opacity:1;stroke-miterlimit:4;" d="M 149.28125 157.480469 L 158.878906 171.878906 L 192.480469 171.878906 C 197.277344 167.078125 197.28125 162.28125 197.28125 157.480469 Z M 149.28125 157.480469 "/>
<path style="fill-rule:evenodd;fill:rgb(39.99939%,39.99939%,39.99939%);fill-opacity:1;stroke-width:0.747753;stroke-linecap:round;stroke-linejoin:round;stroke:rgb(19.999695%,19.999695%,19.999695%);stroke-opacity:1;stroke-miterlimit:4;" d="M 195.306421 69.717937 L 199.794754 69.718073 L 199.793048 83.179659 L 195.308128 83.178225 Z M 195.306421 69.717937 " transform="matrix(1,0.380296,-0.380296,1,0,0)"/>
<path style="fill-rule:evenodd;fill:rgb(39.99939%,39.99939%,39.99939%);fill-opacity:1;stroke-width:0.747753;stroke-linecap:round;stroke-linejoin:round;stroke:rgb(19.999695%,19.999695%,19.999695%);stroke-opacity:1;stroke-miterlimit:4;" d="M 203.694812 66.527865 L 208.179733 66.529299 L 208.181439 79.989588 L 203.693106 79.989452 Z M 203.694812 66.527865 " transform="matrix(1,0.380296,-0.380296,1,0,0)"/>
<path style="fill-rule:evenodd;fill:rgb(39.99939%,39.99939%,39.99939%);fill-opacity:1;stroke-width:0.747753;stroke-linecap:round;stroke-linejoin:round;stroke:rgb(19.999695%,19.999695%,19.999695%);stroke-opacity:1;stroke-miterlimit:4;" d="M 212.079791 63.339091 L 216.568124 63.339228 L 216.56983 76.799516 L 212.081497 76.79938 Z M 212.079791 63.339091 " transform="matrix(1,0.380296,-0.380296,1,0,0)"/>
<path style="fill-rule:evenodd;fill:rgb(100%,100%,100%);fill-opacity:1;stroke-width:0.8;stroke-linecap:round;stroke-linejoin:round;stroke:rgb(19.999695%,19.999695%,19.999695%);stroke-opacity:1;stroke-miterlimit:4;" d="M 149.28125 157.480469 L 152.480469 162.277344 L 197.085938 162.277344 C 197.261719 160.679688 197.28125 159.078125 197.28125 157.480469 Z M 149.28125 157.480469 "/>
<path style="fill:none;stroke-width:0.8;stroke-linecap:butt;stroke-linejoin:miter;stroke:rgb(100%,0%,0%);stroke-opacity:1;stroke-miterlimit:4;" d="M 28.9375 182.253906 L 172.894531 182.253906 "/>
<path style="fill-rule:evenodd;fill:rgb(100%,0%,0%);fill-opacity:1;stroke-width:0.4;stroke-linecap:butt;stroke-linejoin:miter;stroke:rgb(100%,0%,0%);stroke-opacity:1;stroke-miterlimit:4;" d="M 30.507812 182.253906 C 30.507812 183.136719 29.789062 183.855469 28.90625 183.855469 C 28.023438 183.855469 27.308594 183.136719 27.308594 182.253906 C 27.308594 181.371094 28.023438 180.65625 28.90625 180.65625 C 29.789062 180.65625 30.507812 181.371094 30.507812 182.253906 Z M 30.507812 182.253906 "/>
<path style="fill-rule:evenodd;fill:rgb(100%,0%,0%);fill-opacity:1;stroke-width:0.4;stroke-linecap:butt;stroke-linejoin:miter;stroke:rgb(100%,0%,0%);stroke-opacity:1;stroke-miterlimit:4;" d="M 174.460938 182.253906 C 174.460938 183.136719 173.746094 183.855469 172.863281 183.855469 C 171.980469 183.855469 171.261719 183.136719 171.261719 182.253906 C 171.261719 181.371094 171.980469 180.65625 172.863281 180.65625 C 173.746094 180.65625 174.460938 181.371094 174.460938 182.253906 Z M 174.460938 182.253906 "/>
<path style=" stroke:none;fill-rule:nonzero;fill:rgb(0%,0%,0%);fill-opacity:1;" d="M 97.082031 186.253906 C 97.082031 185.953125 97.082031 185.933594 96.800781 185.933594 C 96.050781 186.703125 95 186.703125 94.625 186.703125 L 94.625 187.078125 C 94.871094 187.078125 95.5625 187.078125 96.183594 186.761719 L 96.183594 192.964844 C 96.183594 193.398438 96.144531 193.527344 95.074219 193.527344 L 94.699219 193.527344 L 94.699219 193.902344 C 95.113281 193.867188 96.144531 193.867188 96.632812 193.867188 C 97.101562 193.867188 98.152344 193.867188 98.5625 193.902344 L 98.5625 193.527344 L 98.1875 193.527344 C 97.101562 193.527344 97.082031 193.398438 97.082031 192.964844 Z M 97.082031 186.253906 "/>
<path style=" stroke:none;fill-rule:nonzero;fill:rgb(0%,0%,0%);fill-opacity:1;" d="M 104.898438 191.503906 C 104.898438 190.078125 103.921875 188.878906 102.628906 188.878906 C 102.066406 188.878906 101.539062 189.066406 101.109375 189.496094 L 101.109375 187.152344 C 101.351562 187.230469 101.746094 187.304688 102.121094 187.304688 C 103.601562 187.304688 104.445312 186.214844 104.445312 186.066406 C 104.445312 185.992188 104.410156 185.933594 104.316406 185.933594 C 104.316406 185.933594 104.277344 185.933594 104.222656 185.972656 C 103.976562 186.085938 103.398438 186.328125 102.589844 186.328125 C 102.121094 186.328125 101.558594 186.234375 100.996094 185.992188 C 100.902344 185.953125 100.882812 185.953125 100.867188 185.953125 C 100.734375 185.953125 100.734375 186.046875 100.734375 186.234375 L 100.734375 189.777344 C 100.734375 189.984375 100.734375 190.078125 100.902344 190.078125 C 100.996094 190.078125 101.015625 190.058594 101.070312 189.984375 C 101.203125 189.796875 101.632812 189.140625 102.609375 189.140625 C 103.226562 189.140625 103.527344 189.683594 103.621094 189.910156 C 103.808594 190.359375 103.847656 190.808594 103.847656 191.410156 C 103.847656 191.839844 103.847656 192.554688 103.546875 193.058594 C 103.265625 193.527344 102.816406 193.828125 102.273438 193.828125 C 101.410156 193.828125 100.714844 193.191406 100.507812 192.496094 C 100.546875 192.496094 100.585938 192.515625 100.714844 192.515625 C 101.109375 192.515625 101.316406 192.214844 101.316406 191.933594 C 101.316406 191.636719 101.109375 191.335938 100.714844 191.335938 C 100.546875 191.335938 100.132812 191.429688 100.132812 191.972656 C 100.132812 193.003906 100.960938 194.167969 102.289062 194.167969 C 103.679688 194.167969 104.898438 193.023438 104.898438 191.503906 Z M 104.898438 191.503906 "/>
<path style="fill-rule:evenodd;fill:rgb(78.430176%,44.313049%,21.568298%);fill-opacity:1;stroke-width:0.8;stroke-linecap:butt;stroke-linejoin:miter;stroke:rgb(0%,0%,0%);stroke-opacity:1;stroke-miterlimit:4;" d="M 353.058594 163.054688 L 362.660156 172.65625 L 391.460938 172.65625 C 396.253906 167.855469 396.261719 167.855469 396.261719 163.054688 Z M 353.058594 163.054688 "/>
<path style="fill:none;stroke-width:0.8;stroke-linecap:butt;stroke-linejoin:miter;stroke:rgb(0%,0%,0%);stroke-opacity:1;stroke-miterlimit:4;" d="M 377.058594 134.253906 L 377.058594 163.054688 "/>
<path style="fill-rule:evenodd;fill:rgb(68.626404%,86.665344%,91.371155%);fill-opacity:1;stroke-width:0.8;stroke-linecap:round;stroke-linejoin:round;stroke:rgb(0%,0%,0%);stroke-opacity:1;stroke-miterlimit:4;" d="M 377.058594 134.253906 C 364.300781 138.175781 358.371094 143.835938 357.859375 158.253906 L 391.460938 158.253906 C 379.113281 148.71875 369.925781 148.523438 377.058594 134.253906 "/>
<path style="fill-rule:evenodd;fill:rgb(0%,0%,0%);fill-opacity:1;stroke-width:0.8;stroke-linecap:butt;stroke-linejoin:miter;stroke:rgb(0%,0%,0%);stroke-opacity:1;stroke-miterlimit:4;" d="M 408.742188 42.800781 L 418.34375 57.199219 L 451.941406 57.199219 C 456.738281 52.398438 456.742188 47.601562 456.742188 42.800781 Z M 408.742188 42.800781 "/>
<path style="fill-rule:evenodd;fill:rgb(39.99939%,39.99939%,39.99939%);fill-opacity:1;stroke-width:0.747753;stroke-linecap:round;stroke-linejoin:round;stroke:rgb(19.999695%,19.999695%,19.999695%);stroke-opacity:1;stroke-miterlimit:4;" d="M 383.885745 -116.677713 L 388.370665 -116.676279 L 388.372372 -103.215991 L 383.884039 -103.216127 Z M 383.885745 -116.677713 " transform="matrix(1,0.380296,-0.380296,1,0,0)"/>
<path style="fill-rule:evenodd;fill:rgb(39.99939%,39.99939%,39.99939%);fill-opacity:1;stroke-width:0.747753;stroke-linecap:round;stroke-linejoin:round;stroke:rgb(19.999695%,19.999695%,19.999695%);stroke-opacity:1;stroke-miterlimit:4;" d="M 392.270723 -119.866487 L 396.759056 -119.866351 L 396.75735 -106.404764 L 392.27243 -106.406198 Z M 392.270723 -119.866487 " transform="matrix(1,0.380296,-0.380296,1,0,0)"/>
<path style="fill-rule:evenodd;fill:rgb(39.99939%,39.99939%,39.99939%);fill-opacity:1;stroke-width:0.747753;stroke-linecap:round;stroke-linejoin:round;stroke:rgb(19.999695%,19.999695%,19.999695%);stroke-opacity:1;stroke-miterlimit:4;" d="M 400.659114 -123.056559 L 405.144035 -123.055125 L 405.145741 -109.594836 L 400.657408 -109.594972 Z M 400.659114 -123.056559 " transform="matrix(1,0.380296,-0.380296,1,0,0)"/>
<path style="fill-rule:evenodd;fill:rgb(100%,100%,100%);fill-opacity:1;stroke-width:0.8;stroke-linecap:round;stroke-linejoin:round;stroke:rgb(19.999695%,19.999695%,19.999695%);stroke-opacity:1;stroke-miterlimit:4;" d="M 408.742188 42.800781 L 411.941406 47.597656 L 456.546875 47.597656 C 456.726562 46 456.742188 44.398438 456.742188 42.800781 Z M 408.742188 42.800781 "/>
<path style="fill:none;stroke-width:0.8;stroke-linecap:butt;stroke-linejoin:miter;stroke:rgb(59.999084%,59.999084%,59.999084%);stroke-opacity:1;stroke-miterlimit:4;" d="M 288.140625 182.253906 L 374.539062 182.253906 "/>
<path style="fill-rule:evenodd;fill:rgb(59.999084%,59.999084%,59.999084%);fill-opacity:1;stroke-width:0.4;stroke-linecap:butt;stroke-linejoin:miter;stroke:rgb(59.999084%,59.999084%,59.999084%);stroke-opacity:1;stroke-miterlimit:4;" d="M 289.707031 182.253906 C 289.707031 183.136719 288.992188 183.855469 288.105469 183.855469 C 287.222656 183.855469 286.507812 183.136719 286.507812 182.253906 C 286.507812 181.371094 287.222656 180.65625 288.105469 180.65625 C 288.992188 180.65625 289.707031 181.371094 289.707031 182.253906 Z M 289.707031 182.253906 "/>
<path style="fill-rule:evenodd;fill:rgb(59.999084%,59.999084%,59.999084%);fill-opacity:1;stroke-width:0.4;stroke-linecap:butt;stroke-linejoin:miter;stroke:rgb(59.999084%,59.999084%,59.999084%);stroke-opacity:1;stroke-miterlimit:4;" d="M 376.105469 182.253906 C 376.105469 183.136719 375.390625 183.855469 374.507812 183.855469 C 373.625 183.855469 372.90625 183.136719 372.90625 182.253906 C 372.90625 181.371094 373.625 180.65625 374.507812 180.65625 C 375.390625 180.65625 376.105469 181.371094 376.105469 182.253906 Z M 376.105469 182.253906 "/>
<path style="fill:none;stroke-width:0.8;stroke-linecap:butt;stroke-linejoin:miter;stroke:rgb(100%,0%,0%);stroke-opacity:1;stroke-miterlimit:4;" d="M 374.539062 182.253906 L 432.09375 182.253906 "/>
<path style="fill-rule:evenodd;fill:rgb(100%,0%,0%);fill-opacity:1;stroke-width:0.4;stroke-linecap:butt;stroke-linejoin:miter;stroke:rgb(100%,0%,0%);stroke-opacity:1;stroke-miterlimit:4;" d="M 376.105469 182.253906 C 376.105469 183.136719 375.390625 183.855469 374.507812 183.855469 C 373.625 183.855469 372.90625 183.136719 372.90625 182.253906 C 372.90625 181.371094 373.625 180.65625 374.507812 180.65625 C 375.390625 180.65625 376.105469 181.371094 376.105469 182.253906 Z M 376.105469 182.253906 "/>
<path style="fill-rule:evenodd;fill:rgb(100%,0%,0%);fill-opacity:1;stroke-width:0.4;stroke-linecap:butt;stroke-linejoin:miter;stroke:rgb(100%,0%,0%);stroke-opacity:1;stroke-miterlimit:4;" d="M 433.660156 182.253906 C 433.660156 183.136719 432.945312 183.855469 432.0625 183.855469 C 431.179688 183.855469 430.460938 183.136719 430.460938 182.253906 C 430.460938 181.371094 431.179688 180.65625 432.0625 180.65625 C 432.945312 180.65625 433.660156 181.371094 433.660156 182.253906 Z M 433.660156 182.253906 "/>
<path style="fill:none;stroke-width:0.8;stroke-linecap:butt;stroke-linejoin:miter;stroke:rgb(100%,0%,0%);stroke-opacity:1;stroke-miterlimit:4;" d="M 432.140625 67.054688 L 432.140625 182.253906 "/>
<path style="fill-rule:evenodd;fill:rgb(100%,0%,0%);fill-opacity:1;stroke-width:0.4;stroke-linecap:butt;stroke-linejoin:miter;stroke:rgb(100%,0%,0%);stroke-opacity:1;stroke-miterlimit:4;" d="M 68.621094 -432.140625 C 68.621094 -431.257812 67.90625 -430.539062 67.023438 -430.539062 C 66.140625 -430.539062 65.421875 -431.257812 65.421875 -432.140625 C 65.421875 -433.023438 66.140625 -433.738281 67.023438 -433.738281 C 67.90625 -433.738281 68.621094 -433.023438 68.621094 -432.140625 Z M 68.621094 -432.140625 " transform="matrix(0,1,-1,0,0,0)"/>
<path style="fill-rule:evenodd;fill:rgb(100%,0%,0%);fill-opacity:1;stroke-width:0.4;stroke-linecap:butt;stroke-linejoin:miter;stroke:rgb(100%,0%,0%);stroke-opacity:1;stroke-miterlimit:4;" d="M 183.824219 -432.140625 C 183.824219 -431.257812 183.105469 -430.539062 182.222656 -430.539062 C 181.339844 -430.539062 180.621094 -431.257812 180.621094 -432.140625 C 180.621094 -433.023438 181.339844 -433.738281 182.222656 -433.738281 C 183.105469 -433.738281 183.824219 -433.023438 183.824219 -432.140625 Z M 183.824219 -432.140625 " transform="matrix(0,1,-1,0,0,0)"/>
<g clip-path="url(#clip1)" clip-rule="nonzero">
<path style=" stroke:none;fill-rule:nonzero;fill:rgb(0%,0%,0%);fill-opacity:1;" d="M 332.703125 191.882812 L 332.703125 192.273438 C 332.703125 195.070312 331.464844 195.613281 330.773438 195.613281 C 330.566406 195.613281 329.910156 195.59375 329.589844 195.179688 C 330.117188 195.179688 330.210938 194.84375 330.210938 194.636719 C 330.210938 194.261719 329.929688 194.09375 329.667969 194.09375 C 329.480469 194.09375 329.121094 194.1875 329.121094 194.65625 C 329.121094 195.460938 329.761719 195.949219 330.773438 195.949219 C 332.328125 195.949219 333.792969 194.320312 333.792969 191.75 C 333.792969 188.523438 332.402344 187.71875 331.335938 187.71875 C 330.679688 187.71875 330.097656 187.945312 329.589844 188.46875 C 329.085938 189.011719 328.824219 189.519531 328.824219 190.417969 C 328.824219 191.898438 329.871094 193.082031 331.203125 193.082031 C 331.933594 193.082031 332.421875 192.574219 332.703125 191.882812 Z M 331.222656 192.800781 C 331.035156 192.800781 330.472656 192.800781 330.117188 192.050781 C 329.890625 191.601562 329.890625 191.019531 329.890625 190.417969 C 329.890625 189.78125 329.890625 189.21875 330.152344 188.769531 C 330.472656 188.167969 330.921875 188.019531 331.335938 188.019531 C 331.898438 188.019531 332.292969 188.429688 332.496094 188.957031 C 332.628906 189.351562 332.683594 190.101562 332.683594 190.644531 C 332.683594 191.636719 332.273438 192.800781 331.222656 192.800781 Z M 331.222656 192.800781 "/>
</g>
<g clip-path="url(#clip2)" clip-rule="nonzero">
<path style=" stroke:none;fill-rule:nonzero;fill:rgb(0%,0%,0%);fill-opacity:1;" d="M 392.976562 192.070312 C 393.050781 191.769531 393.332031 190.664062 394.15625 190.664062 C 394.210938 190.664062 394.511719 190.664062 394.757812 190.8125 C 394.417969 190.886719 394.195312 191.167969 394.195312 191.46875 C 394.195312 191.65625 394.324219 191.882812 394.644531 191.882812 C 394.90625 191.882812 395.28125 191.675781 395.28125 191.1875 C 395.28125 190.570312 394.585938 190.398438 394.175781 190.398438 C 393.480469 190.398438 393.070312 191.039062 392.917969 191.300781 C 392.617188 190.511719 391.980469 190.398438 391.625 190.398438 C 390.386719 190.398438 389.695312 191.9375 389.695312 192.238281 C 389.695312 192.367188 389.824219 192.367188 389.84375 192.367188 C 389.9375 192.367188 389.976562 192.332031 389.992188 192.238281 C 390.40625 190.960938 391.195312 190.664062 391.605469 190.664062 C 391.832031 190.664062 392.242188 190.773438 392.242188 191.46875 C 392.242188 191.84375 392.039062 192.632812 391.605469 194.320312 C 391.417969 195.050781 390.988281 195.554688 390.460938 195.554688 C 390.386719 195.554688 390.125 195.554688 389.863281 195.40625 C 390.164062 195.332031 390.425781 195.085938 390.425781 194.75 C 390.425781 194.429688 390.164062 194.335938 389.992188 194.335938 C 389.617188 194.335938 389.335938 194.636719 389.335938 195.03125 C 389.335938 195.574219 389.917969 195.820312 390.445312 195.820312 C 391.25 195.820312 391.679688 194.976562 391.699219 194.917969 C 391.851562 195.351562 392.28125 195.820312 392.992188 195.820312 C 394.230469 195.820312 394.90625 194.28125 394.90625 193.980469 C 394.90625 193.851562 394.8125 193.851562 394.773438 193.851562 C 394.664062 193.851562 394.644531 193.90625 394.605469 193.980469 C 394.210938 195.273438 393.40625 195.554688 393.03125 195.554688 C 392.5625 195.554688 392.375 195.179688 392.375 194.769531 C 392.375 194.507812 392.429688 194.242188 392.5625 193.71875 Z M 392.976562 192.070312 "/>
</g>
<path style=" stroke:none;fill-rule:nonzero;fill:rgb(0%,0%,0%);fill-opacity:1;" d="M 407.347656 191.769531 C 407.535156 191.769531 407.757812 191.769531 407.757812 191.542969 C 407.757812 191.300781 407.535156 191.300781 407.367188 191.300781 L 400.203125 191.300781 C 400.035156 191.300781 399.808594 191.300781 399.808594 191.542969 C 399.808594 191.769531 400.035156 191.769531 400.203125 191.769531 Z M 407.367188 194.09375 C 407.535156 194.09375 407.757812 194.09375 407.757812 193.851562 C 407.757812 193.625 407.535156 193.625 407.347656 193.625 L 400.203125 193.625 C 400.035156 193.625 399.808594 193.625 399.808594 193.851562 C 399.808594 194.09375 400.035156 194.09375 400.203125 194.09375 Z M 407.367188 194.09375 "/>
<g clip-path="url(#clip3)" clip-rule="nonzero">
<path style=" stroke:none;fill-rule:nonzero;fill:rgb(0%,0%,0%);fill-opacity:1;" d="M 413.332031 191.769531 L 413.332031 191.46875 C 413.332031 188.449219 414.8125 188.019531 415.429688 188.019531 C 415.710938 188.019531 416.21875 188.09375 416.480469 188.507812 C 416.292969 188.507812 415.824219 188.507812 415.824219 189.03125 C 415.824219 189.40625 416.105469 189.59375 416.367188 189.59375 C 416.554688 189.59375 416.929688 189.480469 416.929688 189.011719 C 416.929688 188.300781 416.40625 187.71875 415.414062 187.71875 C 413.875 187.71875 412.261719 189.257812 412.261719 191.898438 C 412.261719 195.105469 413.648438 195.949219 414.757812 195.949219 C 416.085938 195.949219 417.230469 194.824219 417.230469 193.25 C 417.230469 191.730469 416.164062 190.585938 414.832031 190.585938 C 414.023438 190.585938 413.574219 191.1875 413.332031 191.769531 Z M 414.757812 195.613281 C 414.007812 195.613281 413.648438 194.898438 413.574219 194.710938 C 413.351562 194.148438 413.351562 193.195312 413.351562 192.988281 C 413.351562 192.050781 413.742188 190.851562 414.8125 190.851562 C 415.019531 190.851562 415.5625 190.851562 415.9375 191.601562 C 416.144531 192.03125 416.144531 192.648438 416.144531 193.230469 C 416.144531 193.8125 416.144531 194.414062 415.9375 194.84375 C 415.582031 195.554688 415.039062 195.613281 414.757812 195.613281 Z M 414.757812 195.613281 "/>
</g>
<path style=" stroke:none;fill-rule:nonzero;fill:rgb(0%,0%,0%);fill-opacity:1;" d="M 441.246094 122.824219 C 441.304688 122.652344 441.304688 122.636719 441.304688 122.542969 C 441.304688 122.335938 441.132812 122.222656 440.945312 122.222656 C 440.835938 122.222656 440.648438 122.296875 440.535156 122.464844 C 440.515625 122.542969 440.402344 122.898438 440.367188 123.121094 C 440.273438 123.421875 440.195312 123.761719 440.121094 124.078125 L 439.578125 126.234375 C 439.539062 126.402344 439.015625 127.246094 438.226562 127.246094 C 437.628906 127.246094 437.496094 126.722656 437.496094 126.273438 C 437.496094 125.730469 437.703125 124.980469 438.097656 123.929688 C 438.285156 123.441406 438.339844 123.308594 438.339844 123.066406 C 438.339844 122.542969 437.964844 122.089844 437.367188 122.089844 C 436.222656 122.089844 435.789062 123.835938 435.789062 123.929688 C 435.789062 124.058594 435.902344 124.058594 435.921875 124.058594 C 436.054688 124.058594 436.054688 124.023438 436.109375 123.835938 C 436.445312 122.710938 436.914062 122.355469 437.328125 122.355469 C 437.421875 122.355469 437.628906 122.355469 437.628906 122.730469 C 437.628906 123.027344 437.496094 123.347656 437.421875 123.574219 C 436.933594 124.847656 436.726562 125.523438 436.726562 126.085938 C 436.726562 127.152344 437.476562 127.511719 438.191406 127.511719 C 438.660156 127.511719 439.054688 127.304688 439.390625 126.964844 C 439.242188 127.585938 439.089844 128.183594 438.621094 128.824219 C 438.304688 129.214844 437.851562 129.574219 437.308594 129.574219 C 437.140625 129.574219 436.597656 129.535156 436.390625 129.066406 C 436.578125 129.066406 436.746094 129.066406 436.898438 128.917969 C 437.027344 128.824219 437.140625 128.652344 437.140625 128.429688 C 437.140625 128.054688 436.820312 128.015625 436.710938 128.015625 C 436.429688 128.015625 436.035156 128.203125 436.035156 128.785156 C 436.035156 129.386719 436.558594 129.835938 437.308594 129.835938 C 438.527344 129.835938 439.765625 128.746094 440.101562 127.398438 Z M 441.246094 122.824219 "/>
<path style=" stroke:none;fill-rule:nonzero;fill:rgb(0%,0%,0%);fill-opacity:1;" d="M 453.257812 123.460938 C 453.445312 123.460938 453.667969 123.460938 453.667969 123.234375 C 453.667969 122.992188 453.445312 122.992188 453.277344 122.992188 L 446.113281 122.992188 C 445.945312 122.992188 445.71875 122.992188 445.71875 123.234375 C 445.71875 123.460938 445.945312 123.460938 446.113281 123.460938 Z M 453.277344 125.785156 C 453.445312 125.785156 453.667969 125.785156 453.667969 125.542969 C 453.667969 125.316406 453.445312 125.316406 453.257812 125.316406 L 446.113281 125.316406 C 445.945312 125.316406 445.71875 125.316406 445.71875 125.542969 C 445.71875 125.785156 445.945312 125.785156 446.113281 125.785156 Z M 453.277344 125.785156 "/>
<path style=" stroke:none;fill-rule:nonzero;fill:rgb(0%,0%,0%);fill-opacity:1;" d="M 461.191406 119.730469 C 461.191406 119.429688 461.191406 119.410156 460.910156 119.410156 C 460.160156 120.179688 459.109375 120.179688 458.734375 120.179688 L 458.734375 120.554688 C 458.980469 120.554688 459.671875 120.554688 460.292969 120.234375 L 460.292969 126.441406 C 460.292969 126.871094 460.253906 127.003906 459.1875 127.003906 L 458.8125 127.003906 L 458.8125 127.378906 C 459.222656 127.339844 460.253906 127.339844 460.742188 127.339844 C 461.210938 127.339844 462.261719 127.339844 462.671875 127.378906 L 462.671875 127.003906 L 462.296875 127.003906 C 461.210938 127.003906 461.191406 126.871094 461.191406 126.441406 Z M 461.191406 119.730469 "/>
<g clip-path="url(#clip4)" clip-rule="nonzero">
<path style=" stroke:none;fill-rule:nonzero;fill:rgb(0%,0%,0%);fill-opacity:1;" d="M 465.164062 126.460938 L 466.4375 125.222656 C 468.292969 123.574219 469.007812 122.933594 469.007812 121.734375 C 469.007812 120.367188 467.9375 119.410156 466.476562 119.410156 C 465.125 119.410156 464.246094 120.515625 464.246094 121.585938 C 464.246094 122.242188 464.84375 122.242188 464.882812 122.242188 C 465.089844 122.242188 465.5 122.109375 465.5 121.605469 C 465.5 121.304688 465.277344 120.984375 464.863281 120.984375 C 464.769531 120.984375 464.75 120.984375 464.714844 121.003906 C 464.976562 120.214844 465.632812 119.785156 466.324219 119.785156 C 467.414062 119.785156 467.917969 120.761719 467.917969 121.734375 C 467.917969 122.691406 467.339844 123.628906 466.664062 124.378906 L 464.375 126.929688 C 464.246094 127.058594 464.246094 127.097656 464.246094 127.378906 L 468.6875 127.378906 L 469.007812 125.296875 L 468.726562 125.296875 C 468.652344 125.652344 468.574219 126.179688 468.445312 126.367188 C 468.371094 126.460938 467.582031 126.460938 467.320312 126.460938 Z M 465.164062 126.460938 "/>
</g>
<path style="fill:none;stroke-width:0.8;stroke-linecap:butt;stroke-linejoin:miter;stroke:rgb(0%,0%,0%);stroke-opacity:1;stroke-dasharray:0.8,0.8;stroke-miterlimit:4;" d="M 374.539062 182.253906 L 432.140625 67.054688 "/>
<path style=" stroke:none;fill-rule:nonzero;fill:rgb(0%,0%,0%);fill-opacity:1;" d="M 396.628906 119.011719 C 397.269531 118.316406 397.625 118.019531 398.054688 117.644531 C 398.054688 117.644531 398.785156 117.003906 399.21875 116.574219 C 400.363281 115.46875 400.625 114.886719 400.625 114.832031 C 400.625 114.71875 400.511719 114.71875 400.492188 114.71875 C 400.398438 114.71875 400.378906 114.738281 400.304688 114.847656 C 399.949219 115.429688 399.707031 115.617188 399.425781 115.617188 C 399.125 115.617188 398.992188 115.429688 398.804688 115.222656 C 398.582031 114.960938 398.375 114.71875 397.980469 114.71875 C 397.082031 114.71875 396.535156 115.824219 396.535156 116.085938 C 396.535156 116.144531 396.574219 116.21875 396.667969 116.21875 C 396.78125 116.21875 396.800781 116.160156 396.835938 116.085938 C 397.0625 115.523438 397.753906 115.523438 397.847656 115.523438 C 398.09375 115.523438 398.316406 115.597656 398.597656 115.691406 C 399.085938 115.878906 399.21875 115.878906 399.519531 115.878906 C 399.085938 116.386719 398.09375 117.25 397.867188 117.4375 L 396.78125 118.449219 C 395.972656 119.253906 395.542969 119.929688 395.542969 120.023438 C 395.542969 120.136719 395.675781 120.136719 395.691406 120.136719 C 395.785156 120.136719 395.804688 120.117188 395.878906 119.988281 C 396.160156 119.554688 396.519531 119.238281 396.910156 119.238281 C 397.175781 119.238281 397.304688 119.347656 397.605469 119.6875 C 397.792969 119.949219 398.019531 120.136719 398.355469 120.136719 C 399.554688 120.136719 400.25 118.617188 400.25 118.300781 C 400.25 118.242188 400.191406 118.167969 400.097656 118.167969 C 399.988281 118.167969 399.96875 118.242188 399.929688 118.335938 C 399.648438 119.105469 398.878906 119.332031 398.488281 119.332031 C 398.261719 119.332031 398.035156 119.253906 397.792969 119.179688 C 397.378906 119.03125 397.191406 118.972656 396.949219 118.972656 C 396.929688 118.972656 396.742188 118.972656 396.628906 119.011719 Z M 396.628906 119.011719 "/>
</g>
</svg>
