<?xml version="1.0" encoding="UTF-8"?>
<svg xmlns="http://www.w3.org/2000/svg" xmlns:xlink="http://www.w3.org/1999/xlink" width="96pt" height="33.599998pt" viewBox="0 0 96 33.599998" version="1.1">
<g id="surface1">
<path style=" stroke:none;fill-rule:nonzero;fill:rgb(66.665649%,69.802856%,67.0578%);fill-opacity:1;" d="M 2.726562 0.363281 L 93.410156 0.523438 C 94.675781 0.523438 95.808594 0.335938 95.808594 3.050781 L 95.699219 32.914062 L 0.4375 32.914062 L 0.4375 2.941406 C 0.4375 1.601562 0.566406 0.363281 2.726562 0.363281 Z M 2.726562 0.363281 "/>
<path style=" stroke:none;fill-rule:nonzero;fill:rgb(0%,0%,0%);fill-opacity:1;" d="M 94.203125 0 L 1.796875 0 C 0.808594 0 0 0.804688 0 1.796875 L 0 33.195312 C 0 33.417969 0.183594 33.601562 0.40625 33.601562 L 95.59375 33.601562 C 95.816406 33.601562 96 33.417969 96 33.195312 L 96 1.796875 C 96 0.804688 95.191406 0 94.203125 0 Z M 1.796875 0.8125 L 94.203125 0.8125 C 94.746094 0.8125 95.1875 1.253906 95.1875 1.796875 L 95.1875 23.574219 L 29.144531 23.574219 C 26.722656 27.949219 22.058594 30.921875 16.703125 30.921875 C 11.351562 30.921875 6.6875 27.953125 4.269531 23.574219 L 0.8125 23.574219 L 0.8125 1.796875 C 0.8125 1.253906 1.253906 0.8125 1.796875 0.8125 Z M 1.796875 0.8125 "/>
<path style=" stroke:none;fill-rule:nonzero;fill:rgb(100%,100%,100%);fill-opacity:1;" d="M 27.617188 15.640625 C 27.621094 21.664062 22.742188 26.550781 16.714844 26.554688 C 10.691406 26.558594 5.804688 21.675781 5.800781 15.652344 L 5.800781 15.640625 C 5.796875 9.617188 10.679688 4.730469 16.703125 4.726562 C 22.726562 4.722656 27.613281 9.605469 27.617188 15.628906 Z M 27.617188 15.640625 "/>
<path style=" stroke:none;fill-rule:nonzero;fill:rgb(0%,0%,0%);fill-opacity:1;" d="M 25.578125 6.757812 C 27.996094 9.175781 29.207031 12.136719 29.207031 15.640625 C 29.207031 19.144531 28.015625 22.074219 25.640625 24.429688 C 23.117188 26.914062 20.136719 28.152344 16.695312 28.152344 C 13.292969 28.152344 10.363281 26.921875 7.90625 24.460938 C 5.445312 22.003906 4.214844 19.0625 4.214844 15.640625 C 4.214844 12.222656 5.445312 9.257812 7.90625 6.757812 C 10.300781 4.339844 13.234375 3.128906 16.695312 3.128906 C 20.199219 3.128906 23.15625 4.339844 25.578125 6.757812 Z M 9.535156 8.382812 C 7.488281 10.449219 6.464844 12.871094 6.464844 15.644531 C 6.464844 18.417969 7.476562 20.816406 9.5 22.839844 C 11.527344 24.863281 13.933594 25.875 16.730469 25.875 C 19.527344 25.875 21.957031 24.855469 24.023438 22.808594 C 25.984375 20.910156 26.964844 18.523438 26.964844 15.644531 C 26.964844 12.785156 25.96875 10.363281 23.976562 8.367188 C 21.984375 6.378906 19.566406 5.378906 16.730469 5.378906 C 13.894531 5.378906 11.492188 6.382812 9.535156 8.382812 Z M 14.914062 14.421875 C 14.601562 13.742188 14.136719 13.402344 13.511719 13.402344 C 12.410156 13.402344 11.855469 14.144531 11.855469 15.628906 C 11.855469 17.113281 12.410156 17.855469 13.511719 17.855469 C 14.238281 17.855469 14.757812 17.492188 15.070312 16.769531 L 16.601562 17.582031 C 15.871094 18.878906 14.777344 19.527344 13.320312 19.527344 C 12.195312 19.527344 11.296875 19.179688 10.621094 18.492188 C 9.941406 17.800781 9.605469 16.851562 9.605469 15.640625 C 9.605469 14.449219 9.953125 13.507812 10.652344 12.804688 C 11.347656 12.105469 12.21875 11.757812 13.257812 11.757812 C 14.800781 11.757812 15.902344 12.363281 16.570312 13.578125 Z M 22.105469 14.421875 C 21.792969 13.742188 21.335938 13.402344 20.730469 13.402344 C 19.605469 13.402344 19.042969 14.144531 19.042969 15.628906 C 19.042969 17.113281 19.605469 17.855469 20.730469 17.855469 C 21.460938 17.855469 21.972656 17.492188 22.261719 16.769531 L 23.824219 17.582031 C 23.097656 18.878906 22.007812 19.527344 20.550781 19.527344 C 19.429688 19.527344 18.53125 19.179688 17.855469 18.492188 C 17.179688 17.800781 16.839844 16.851562 16.839844 15.640625 C 16.839844 14.449219 17.183594 13.507812 17.871094 12.804688 C 18.554688 12.105469 19.429688 11.757812 20.488281 11.757812 C 22.027344 11.757812 23.128906 12.363281 23.792969 13.578125 Z M 22.105469 14.421875 "/>
<path style=" stroke:none;fill-rule:nonzero;fill:rgb(100%,100%,100%);fill-opacity:1;" d="M 50 12.179688 C 50 16.921875 46.15625 20.769531 41.410156 20.769531 C 36.664062 20.769531 32.820312 16.921875 32.820312 12.179688 C 32.820312 7.433594 36.664062 3.589844 41.410156 3.589844 C 46.15625 3.589844 50 7.433594 50 12.179688 Z M 50 12.179688 "/>
<path style=" stroke:none;fill-rule:nonzero;fill:rgb(0%,0%,0%);fill-opacity:1;" d="M 43.898438 9.691406 C 43.898438 9.363281 43.628906 9.09375 43.296875 9.09375 L 39.503906 9.09375 C 39.171875 9.09375 38.902344 9.363281 38.902344 9.691406 L 38.902344 13.488281 L 39.960938 13.488281 L 39.960938 17.980469 L 42.839844 17.980469 L 42.839844 13.488281 L 43.898438 13.488281 Z M 43.898438 9.691406 "/>
<path style=" stroke:none;fill-rule:nonzero;fill:rgb(0%,0%,0%);fill-opacity:1;" d="M 42.699219 7.296875 C 42.699219 8.011719 42.117188 8.59375 41.402344 8.59375 C 40.683594 8.59375 40.101562 8.011719 40.101562 7.296875 C 40.101562 6.582031 40.683594 6 41.402344 6 C 42.117188 6 42.699219 6.582031 42.699219 7.296875 Z M 42.699219 7.296875 "/>
<path style=" stroke:none;fill-rule:evenodd;fill:rgb(0%,0%,0%);fill-opacity:1;" d="M 41.386719 2.714844 C 38.820312 2.714844 36.644531 3.609375 34.863281 5.402344 C 33.035156 7.257812 32.125 9.453125 32.125 11.988281 C 32.125 14.523438 33.035156 16.703125 34.863281 18.53125 C 36.691406 20.351562 38.867188 21.265625 41.386719 21.265625 C 43.941406 21.265625 46.15625 20.347656 48.03125 18.507812 C 49.796875 16.757812 50.675781 14.585938 50.675781 11.988281 C 50.675781 9.390625 49.78125 7.195312 47.984375 5.402344 C 46.1875 3.609375 43.992188 2.714844 41.386719 2.714844 Z M 41.414062 4.382812 C 43.519531 4.382812 45.304688 5.125 46.777344 6.609375 C 48.261719 8.078125 49.003906 9.871094 49.003906 11.988281 C 49.003906 14.121094 48.277344 15.894531 46.824219 17.300781 C 45.289062 18.816406 43.488281 19.574219 41.414062 19.574219 C 39.335938 19.574219 37.550781 18.824219 36.046875 17.324219 C 34.546875 15.824219 33.796875 14.046875 33.796875 11.988281 C 33.796875 9.933594 34.554688 8.140625 36.070312 6.609375 C 37.527344 5.125 39.308594 4.382812 41.414062 4.382812 Z M 41.414062 4.382812 "/>
<path style=" stroke:none;fill-rule:nonzero;fill:rgb(100%,100%,100%);fill-opacity:1;" d="M 38.722656 26.199219 C 38.972656 26.199219 39.203125 26.21875 39.410156 26.265625 C 39.621094 26.308594 39.796875 26.382812 39.949219 26.484375 C 40.097656 26.585938 40.210938 26.71875 40.292969 26.886719 C 40.375 27.054688 40.414062 27.261719 40.414062 27.511719 C 40.414062 27.777344 40.355469 28 40.234375 28.175781 C 40.113281 28.355469 39.933594 28.5 39.695312 28.617188 C 40.023438 28.710938 40.265625 28.875 40.429688 29.109375 C 40.589844 29.34375 40.671875 29.628906 40.671875 29.960938 C 40.671875 30.226562 40.617188 30.457031 40.515625 30.652344 C 40.410156 30.847656 40.269531 31.007812 40.09375 31.132812 C 39.917969 31.253906 39.71875 31.347656 39.492188 31.40625 C 39.265625 31.464844 39.035156 31.496094 38.796875 31.496094 L 36.222656 31.496094 L 36.222656 26.199219 Z M 38.570312 28.339844 C 38.78125 28.339844 38.949219 28.289062 39.085938 28.191406 C 39.21875 28.09375 39.285156 27.933594 39.285156 27.710938 C 39.285156 27.589844 39.261719 27.488281 39.21875 27.410156 C 39.171875 27.328125 39.113281 27.269531 39.039062 27.222656 C 38.964844 27.179688 38.878906 27.148438 38.785156 27.128906 C 38.6875 27.113281 38.585938 27.105469 38.484375 27.105469 L 37.390625 27.105469 L 37.390625 28.339844 Z M 38.640625 30.589844 C 38.753906 30.589844 38.863281 30.578125 38.96875 30.554688 C 39.070312 30.53125 39.164062 30.496094 39.242188 30.445312 C 39.320312 30.390625 39.386719 30.320312 39.433594 30.230469 C 39.480469 30.144531 39.503906 30.03125 39.503906 29.890625 C 39.503906 29.621094 39.425781 29.425781 39.273438 29.308594 C 39.117188 29.195312 38.914062 29.136719 38.664062 29.136719 L 37.390625 29.136719 L 37.390625 30.589844 Z M 38.640625 30.589844 "/>
<path style=" stroke:none;fill-rule:nonzero;fill:rgb(100%,100%,100%);fill-opacity:1;" d="M 40.875 26.199219 L 42.183594 26.199219 L 43.421875 28.289062 L 44.65625 26.199219 L 45.957031 26.199219 L 43.988281 29.460938 L 43.988281 31.496094 L 42.820312 31.496094 L 42.820312 29.433594 Z M 40.875 26.199219 "/>
<path style=" stroke:none;fill-rule:nonzero;fill:rgb(100%,100%,100%);fill-opacity:1;" d="M 78.753906 30.1875 C 78.816406 30.308594 78.902344 30.410156 79.007812 30.484375 C 79.113281 30.5625 79.238281 30.621094 79.382812 30.65625 C 79.523438 30.695312 79.671875 30.714844 79.828125 30.714844 C 79.929688 30.714844 80.039062 30.703125 80.160156 30.6875 C 80.277344 30.667969 80.386719 30.636719 80.492188 30.585938 C 80.59375 30.539062 80.683594 30.46875 80.75 30.382812 C 80.820312 30.296875 80.855469 30.1875 80.855469 30.050781 C 80.855469 29.910156 80.808594 29.792969 80.71875 29.703125 C 80.625 29.613281 80.507812 29.539062 80.359375 29.480469 C 80.210938 29.421875 80.042969 29.371094 79.855469 29.324219 C 79.667969 29.28125 79.476562 29.230469 79.285156 29.175781 C 79.085938 29.125 78.894531 29.066406 78.707031 28.996094 C 78.519531 28.921875 78.351562 28.832031 78.203125 28.714844 C 78.054688 28.601562 77.933594 28.460938 77.84375 28.289062 C 77.75 28.121094 77.707031 27.914062 77.707031 27.671875 C 77.707031 27.398438 77.765625 27.160156 77.878906 26.960938 C 77.996094 26.761719 78.148438 26.59375 78.335938 26.460938 C 78.523438 26.328125 78.734375 26.226562 78.972656 26.164062 C 79.210938 26.097656 79.449219 26.066406 79.683594 26.066406 C 79.960938 26.066406 80.226562 26.097656 80.480469 26.160156 C 80.734375 26.222656 80.960938 26.324219 81.160156 26.460938 C 81.359375 26.601562 81.515625 26.777344 81.632812 26.992188 C 81.746094 27.207031 81.804688 27.46875 81.804688 27.773438 L 80.675781 27.773438 C 80.664062 27.617188 80.632812 27.484375 80.574219 27.382812 C 80.519531 27.277344 80.445312 27.195312 80.347656 27.136719 C 80.257812 27.078125 80.148438 27.035156 80.027344 27.011719 C 79.910156 26.988281 79.777344 26.972656 79.632812 26.972656 C 79.539062 26.972656 79.445312 26.984375 79.351562 27.003906 C 79.257812 27.023438 79.175781 27.058594 79.097656 27.109375 C 79.023438 27.15625 78.960938 27.21875 78.910156 27.292969 C 78.859375 27.367188 78.835938 27.460938 78.835938 27.574219 C 78.835938 27.679688 78.855469 27.765625 78.894531 27.828125 C 78.933594 27.890625 79.011719 27.953125 79.128906 28.007812 C 79.246094 28.058594 79.40625 28.113281 79.609375 28.167969 C 79.816406 28.222656 80.085938 28.292969 80.414062 28.378906 C 80.511719 28.394531 80.652344 28.433594 80.824219 28.484375 C 81 28.535156 81.175781 28.621094 81.347656 28.734375 C 81.519531 28.847656 81.671875 29 81.796875 29.191406 C 81.921875 29.378906 81.984375 29.625 81.984375 29.921875 C 81.984375 30.164062 81.9375 30.386719 81.84375 30.597656 C 81.75 30.804688 81.609375 30.984375 81.425781 31.132812 C 81.238281 31.285156 81.007812 31.402344 80.734375 31.488281 C 80.460938 31.570312 80.144531 31.613281 79.78125 31.613281 C 79.488281 31.613281 79.207031 31.578125 78.933594 31.503906 C 78.65625 31.433594 78.414062 31.320312 78.207031 31.167969 C 77.996094 31.011719 77.828125 30.816406 77.703125 30.578125 C 77.582031 30.34375 77.519531 30.058594 77.527344 29.734375 L 78.65625 29.734375 C 78.65625 29.910156 78.6875 30.0625 78.753906 30.1875 Z M 78.753906 30.1875 "/>
<path style=" stroke:none;fill-rule:nonzero;fill:rgb(100%,100%,100%);fill-opacity:1;" d="M 85.316406 26.199219 L 87.296875 31.496094 L 86.089844 31.496094 L 85.6875 30.316406 L 83.707031 30.316406 L 83.289062 31.496094 L 82.117188 31.496094 L 84.121094 26.199219 Z M 85.382812 29.445312 L 84.714844 27.503906 L 84.699219 27.503906 L 84.011719 29.445312 Z M 85.382812 29.445312 "/>
<path style=" stroke:none;fill-rule:nonzero;fill:rgb(100%,100%,100%);fill-opacity:1;" d="M 58.015625 26.199219 L 60.226562 29.75 L 60.238281 29.75 L 60.238281 26.199219 L 61.332031 26.199219 L 61.332031 31.496094 L 60.167969 31.496094 L 57.964844 27.949219 L 57.949219 27.949219 L 57.949219 31.496094 L 56.855469 31.496094 L 56.855469 26.199219 Z M 58.015625 26.199219 "/>
<path style=" stroke:none;fill-rule:nonzero;fill:rgb(100%,100%,100%);fill-opacity:1;" d="M 65.757812 27.609375 C 65.6875 27.496094 65.601562 27.398438 65.496094 27.316406 C 65.390625 27.230469 65.273438 27.164062 65.144531 27.121094 C 65.011719 27.070312 64.875 27.046875 64.730469 27.046875 C 64.46875 27.046875 64.246094 27.097656 64.0625 27.199219 C 63.878906 27.300781 63.730469 27.4375 63.617188 27.609375 C 63.503906 27.777344 63.421875 27.972656 63.371094 28.191406 C 63.316406 28.40625 63.292969 28.632812 63.292969 28.867188 C 63.292969 29.089844 63.316406 29.304688 63.371094 29.515625 C 63.421875 29.726562 63.503906 29.914062 63.617188 30.082031 C 63.730469 30.25 63.878906 30.382812 64.0625 30.484375 C 64.246094 30.589844 64.46875 30.636719 64.730469 30.636719 C 65.089844 30.636719 65.367188 30.53125 65.566406 30.3125 C 65.765625 30.09375 65.890625 29.808594 65.933594 29.449219 L 67.0625 29.449219 C 67.03125 29.78125 66.957031 30.082031 66.832031 30.347656 C 66.710938 30.617188 66.546875 30.84375 66.34375 31.03125 C 66.140625 31.222656 65.902344 31.363281 65.628906 31.464844 C 65.359375 31.5625 65.058594 31.613281 64.730469 31.613281 C 64.328125 31.613281 63.960938 31.542969 63.636719 31.402344 C 63.3125 31.261719 63.039062 31.066406 62.816406 30.820312 C 62.59375 30.570312 62.421875 30.28125 62.304688 29.945312 C 62.183594 29.613281 62.125 29.253906 62.125 28.867188 C 62.125 28.46875 62.183594 28.101562 62.304688 27.765625 C 62.421875 27.425781 62.59375 27.128906 62.816406 26.875 C 63.039062 26.625 63.3125 26.425781 63.636719 26.28125 C 63.960938 26.140625 64.328125 26.066406 64.730469 26.066406 C 65.023438 26.066406 65.300781 26.109375 65.558594 26.195312 C 65.820312 26.277344 66.050781 26.402344 66.257812 26.5625 C 66.464844 26.722656 66.632812 26.921875 66.765625 27.160156 C 66.898438 27.398438 66.984375 27.667969 67.019531 27.976562 L 65.890625 27.976562 C 65.871094 27.84375 65.824219 27.71875 65.757812 27.609375 Z M 65.757812 27.609375 "/>
<path style=" stroke:none;fill-rule:nonzero;fill:rgb(100%,100%,100%);fill-opacity:1;" d="M 91.664062 11.984375 C 91.667969 16.660156 87.878906 20.453125 83.203125 20.457031 C 78.523438 20.460938 74.730469 16.671875 74.726562 11.996094 L 74.726562 11.984375 C 74.722656 7.308594 78.511719 3.515625 83.191406 3.511719 C 87.867188 3.507812 91.660156 7.296875 91.664062 11.972656 Z M 91.664062 11.984375 "/>
<path style=" stroke:none;fill-rule:nonzero;fill:rgb(0%,0%,0%);fill-opacity:1;" d="M 83.136719 2.707031 C 80.566406 2.707031 78.390625 3.605469 76.609375 5.398438 C 74.785156 7.253906 73.871094 9.449219 73.871094 11.984375 C 73.871094 14.519531 74.785156 16.699219 76.609375 18.523438 C 78.4375 20.347656 80.613281 21.261719 83.136719 21.261719 C 85.691406 21.261719 87.902344 20.339844 89.777344 18.5 C 91.542969 16.753906 92.425781 14.582031 92.425781 11.984375 C 92.425781 9.386719 91.527344 7.191406 89.730469 5.398438 C 87.933594 3.605469 85.734375 2.707031 83.136719 2.707031 Z M 83.160156 4.378906 C 85.265625 4.378906 87.050781 5.121094 88.523438 6.605469 C 90.007812 8.074219 90.75 9.867188 90.75 11.984375 C 90.75 14.117188 90.023438 15.886719 88.566406 17.296875 C 87.035156 18.808594 85.230469 19.566406 83.160156 19.566406 C 81.082031 19.566406 79.296875 18.816406 77.792969 17.316406 C 76.292969 15.820312 75.542969 14.042969 75.542969 11.984375 C 75.542969 9.929688 76.300781 8.136719 77.816406 6.605469 C 79.273438 5.121094 81.054688 4.378906 83.160156 4.378906 Z M 83.160156 4.378906 "/>
<path style=" stroke:none;fill-rule:nonzero;fill:rgb(0%,0%,0%);fill-opacity:1;" d="M 79.023438 10.675781 C 79.394531 8.339844 81.035156 7.09375 83.09375 7.09375 C 86.058594 7.09375 87.863281 9.242188 87.863281 12.109375 C 87.863281 14.902344 85.941406 17.074219 83.050781 17.074219 C 81.058594 17.074219 79.277344 15.851562 78.953125 13.449219 L 81.289062 13.449219 C 81.359375 14.695312 82.171875 15.136719 83.328125 15.136719 C 84.644531 15.136719 85.5 13.910156 85.5 12.039062 C 85.5 10.074219 84.761719 9.035156 83.371094 9.035156 C 82.355469 9.035156 81.476562 9.40625 81.289062 10.675781 L 81.96875 10.671875 L 80.128906 12.511719 L 78.292969 10.671875 Z M 79.023438 10.675781 "/>
<path style=" stroke:none;fill-rule:nonzero;fill:rgb(100%,100%,100%);fill-opacity:1;" d="M 70.902344 11.984375 C 70.90625 16.75 67.046875 20.617188 62.28125 20.621094 C 57.515625 20.625 53.648438 16.761719 53.644531 11.996094 L 53.644531 11.984375 C 53.640625 7.21875 57.5 3.351562 62.265625 3.347656 C 67.035156 3.347656 70.902344 7.207031 70.902344 11.972656 Z M 70.902344 11.984375 "/>
<path style=" stroke:none;fill-rule:nonzero;fill:rgb(0%,0%,0%);fill-opacity:1;" d="M 62.261719 2.707031 C 64.863281 2.707031 67.0625 3.605469 68.855469 5.398438 C 70.652344 7.191406 71.550781 9.386719 71.550781 11.984375 C 71.550781 14.582031 70.667969 16.753906 68.902344 18.5 C 67.03125 20.339844 64.816406 21.261719 62.261719 21.261719 C 59.738281 21.261719 57.5625 20.347656 55.738281 18.523438 C 53.910156 16.699219 52.996094 14.519531 52.996094 11.984375 C 52.996094 9.449219 53.910156 7.253906 55.738281 5.398438 C 57.515625 3.605469 59.691406 2.707031 62.261719 2.707031 Z M 55.085938 9.492188 C 54.808594 10.273438 54.667969 11.105469 54.667969 11.984375 C 54.667969 14.042969 55.417969 15.820312 56.921875 17.316406 C 58.421875 18.816406 60.210938 19.566406 62.285156 19.566406 C 64.359375 19.566406 66.164062 18.808594 67.695312 17.292969 C 68.207031 16.800781 68.632812 16.257812 68.964844 15.671875 L 65.464844 14.113281 C 65.230469 15.292969 64.179688 16.085938 62.914062 16.179688 L 62.914062 17.609375 L 61.847656 17.609375 L 61.847656 16.179688 C 60.808594 16.167969 59.800781 15.742188 59.03125 15.070312 L 60.308594 13.78125 C 60.925781 14.359375 61.539062 14.621094 62.378906 14.621094 C 62.925781 14.621094 63.527344 14.40625 63.527344 13.699219 C 63.527344 13.445312 63.429688 13.273438 63.277344 13.140625 L 62.394531 12.746094 L 61.292969 12.257812 C 60.746094 12.015625 60.285156 11.808594 59.824219 11.601562 Z M 62.285156 4.378906 C 60.179688 4.378906 58.398438 5.121094 56.945312 6.605469 C 56.546875 7.003906 56.203125 7.421875 55.910156 7.859375 L 59.457031 9.4375 C 59.777344 8.453125 60.714844 7.855469 61.847656 7.789062 L 61.847656 6.359375 L 62.914062 6.359375 L 62.914062 7.789062 C 63.644531 7.824219 64.449219 8.027344 65.242188 8.640625 L 64.023438 9.894531 C 63.574219 9.574219 63.007812 9.347656 62.4375 9.347656 C 61.976562 9.347656 61.328125 9.492188 61.328125 10.070312 C 61.328125 10.160156 61.355469 10.238281 61.410156 10.304688 L 62.597656 10.832031 L 63.398438 11.191406 C 63.914062 11.421875 64.402344 11.636719 64.890625 11.855469 L 69.644531 13.96875 C 69.800781 13.347656 69.878906 12.6875 69.878906 11.984375 C 69.878906 9.867188 69.136719 8.074219 67.648438 6.605469 C 66.179688 5.121094 64.390625 4.378906 62.285156 4.378906 Z M 62.285156 4.378906 "/>
</g>
</svg>
