<?xml version="1.0" encoding="UTF-8"?>
<svg xmlns="http://www.w3.org/2000/svg" xmlns:xlink="http://www.w3.org/1999/xlink" width="116.800003pt" height="145.600006pt" viewBox="0 0 116.800003 145.600006" version="1.1">
<defs>
<clipPath id="clip1">
  <path d="M 0 115 L 31 115 L 31 145.601562 L 0 145.601562 Z M 0 115 "/>
</clipPath>
<clipPath id="clip2">
  <path d="M 57 115 L 88 115 L 88 145.601562 L 57 145.601562 Z M 57 115 "/>
</clipPath>
<clipPath id="clip3">
  <path d="M 86 57 L 116.800781 57 L 116.800781 88 L 86 88 Z M 86 57 "/>
</clipPath>
</defs>
<g id="surface1">
<g clip-path="url(#clip1)" clip-rule="nonzero">
<path style="fill:none;stroke-width:1.6;stroke-linecap:round;stroke-linejoin:round;stroke:rgb(0%,0%,0%);stroke-opacity:1;stroke-miterlimit:4;" d="M 5.601562 115.988281 L 24.800781 115.988281 C 27.460938 115.988281 29.601562 118.128906 29.601562 120.789062 L 29.601562 139.988281 C 29.601562 142.648438 27.460938 144.789062 24.800781 144.789062 L 5.601562 144.789062 C 2.941406 144.789062 0.800781 142.648438 0.800781 139.988281 L 0.800781 120.789062 C 0.800781 118.128906 2.941406 115.988281 5.601562 115.988281 Z M 5.601562 115.988281 "/>
</g>
<path style=" stroke:none;fill-rule:nonzero;fill:rgb(0%,0%,0%);fill-opacity:1;" d="M 15.996094 129.78125 C 17.621094 129.25 18.777344 127.875 18.777344 126.28125 C 18.777344 124.65625 17.027344 123.53125 15.121094 123.53125 C 13.121094 123.53125 11.589844 124.71875 11.589844 126.25 C 11.589844 126.90625 12.027344 127.28125 12.621094 127.28125 C 13.214844 127.28125 13.621094 126.84375 13.621094 126.25 C 13.621094 125.28125 12.683594 125.28125 12.402344 125.28125 C 12.996094 124.28125 14.308594 124.03125 15.027344 124.03125 C 15.871094 124.03125 16.964844 124.46875 16.964844 126.25 C 16.964844 126.5 16.902344 127.65625 16.402344 128.53125 C 15.808594 129.5 15.121094 129.5625 14.621094 129.5625 C 14.464844 129.59375 13.996094 129.625 13.839844 129.625 C 13.683594 129.65625 13.558594 129.6875 13.558594 129.875 C 13.558594 130.09375 13.683594 130.09375 14.027344 130.09375 L 14.902344 130.09375 C 16.527344 130.09375 17.277344 131.4375 17.277344 133.40625 C 17.277344 136.125 15.902344 136.6875 15.027344 136.6875 C 14.152344 136.6875 12.652344 136.34375 11.964844 135.1875 C 12.652344 135.28125 13.277344 134.84375 13.277344 134.09375 C 13.277344 133.375 12.746094 132.96875 12.183594 132.96875 C 11.683594 132.96875 11.058594 133.25 11.058594 134.125 C 11.058594 135.9375 12.902344 137.25 15.089844 137.25 C 17.527344 137.25 19.339844 135.4375 19.339844 133.40625 C 19.339844 131.78125 18.058594 130.21875 15.996094 129.78125 Z M 15.996094 129.78125 "/>
<g clip-path="url(#clip2)" clip-rule="nonzero">
<path style="fill:none;stroke-width:1.6;stroke-linecap:round;stroke-linejoin:round;stroke:rgb(0%,0%,0%);stroke-opacity:1;stroke-miterlimit:4;" d="M 63.199219 115.988281 L 82.398438 115.988281 C 85.058594 115.988281 87.199219 118.128906 87.199219 120.789062 L 87.199219 139.988281 C 87.199219 142.648438 85.058594 144.789062 82.398438 144.789062 L 63.199219 144.789062 C 60.539062 144.789062 58.398438 142.648438 58.398438 139.988281 L 58.398438 120.789062 C 58.398438 118.128906 60.539062 115.988281 63.199219 115.988281 Z M 63.199219 115.988281 "/>
</g>
<path style=" stroke:none;fill-rule:nonzero;fill:rgb(0%,0%,0%);fill-opacity:1;" d="M 76.769531 132.8125 C 76.769531 130.4375 75.144531 128.4375 72.988281 128.4375 C 72.050781 128.4375 71.175781 128.75 70.457031 129.46875 L 70.457031 125.5625 C 70.863281 125.6875 71.519531 125.8125 72.144531 125.8125 C 74.613281 125.8125 76.019531 124 76.019531 123.75 C 76.019531 123.625 75.957031 123.53125 75.800781 123.53125 C 75.800781 123.53125 75.738281 123.53125 75.644531 123.59375 C 75.238281 123.78125 74.269531 124.1875 72.925781 124.1875 C 72.144531 124.1875 71.207031 124.03125 70.269531 123.625 C 70.113281 123.5625 70.082031 123.5625 70.050781 123.5625 C 69.832031 123.5625 69.832031 123.71875 69.832031 124.03125 L 69.832031 129.9375 C 69.832031 130.28125 69.832031 130.4375 70.113281 130.4375 C 70.269531 130.4375 70.300781 130.40625 70.394531 130.28125 C 70.613281 129.96875 71.332031 128.875 72.957031 128.875 C 73.988281 128.875 74.488281 129.78125 74.644531 130.15625 C 74.957031 130.90625 75.019531 131.65625 75.019531 132.65625 C 75.019531 133.375 75.019531 134.5625 74.519531 135.40625 C 74.050781 136.1875 73.300781 136.6875 72.394531 136.6875 C 70.957031 136.6875 69.800781 135.625 69.457031 134.46875 C 69.519531 134.46875 69.582031 134.5 69.800781 134.5 C 70.457031 134.5 70.800781 134 70.800781 133.53125 C 70.800781 133.03125 70.457031 132.53125 69.800781 132.53125 C 69.519531 132.53125 68.832031 132.6875 68.832031 133.59375 C 68.832031 135.3125 70.207031 137.25 72.425781 137.25 C 74.738281 137.25 76.769531 135.34375 76.769531 132.8125 Z M 76.769531 132.8125 "/>
<path style="fill:none;stroke-width:1.6;stroke-linecap:round;stroke-linejoin:round;stroke:rgb(0%,0%,0%);stroke-opacity:1;stroke-miterlimit:4;" d="M 34.398438 58.390625 L 53.601562 58.390625 C 56.257812 58.390625 58.398438 60.53125 58.398438 63.191406 L 58.398438 82.390625 C 58.398438 85.050781 56.257812 87.191406 53.601562 87.191406 L 34.398438 87.191406 C 31.742188 87.191406 29.601562 85.050781 29.601562 82.390625 L 29.601562 63.191406 C 29.601562 60.53125 31.742188 58.390625 34.398438 58.390625 Z M 34.398438 58.390625 "/>
<path style=" stroke:none;fill-rule:nonzero;fill:rgb(0%,0%,0%);fill-opacity:1;" d="M 44.40625 73.179688 L 49.96875 73.179688 C 50.25 73.179688 50.625 73.179688 50.625 72.773438 C 50.625 72.398438 50.25 72.398438 49.96875 72.398438 L 44.40625 72.398438 L 44.40625 66.804688 C 44.40625 66.523438 44.40625 66.148438 44 66.148438 C 43.59375 66.148438 43.59375 66.523438 43.59375 66.804688 L 43.59375 72.398438 L 38.03125 72.398438 C 37.75 72.398438 37.375 72.398438 37.375 72.773438 C 37.375 73.179688 37.75 73.179688 38.03125 73.179688 L 43.59375 73.179688 L 43.59375 78.773438 C 43.59375 79.054688 43.59375 79.429688 44 79.429688 C 44.40625 79.429688 44.40625 79.054688 44.40625 78.773438 Z M 44.40625 73.179688 "/>
<path style="fill:none;stroke-width:0.8;stroke-linecap:butt;stroke-linejoin:miter;stroke:rgb(100%,0%,0%);stroke-opacity:1;stroke-miterlimit:4;" d="M 15.199219 115.988281 L 39.363281 87.921875 "/>
<path style="fill-rule:evenodd;fill:rgb(100%,0%,0%);fill-opacity:1;stroke-width:0.606287;stroke-linecap:butt;stroke-linejoin:miter;stroke:rgb(100%,0%,0%);stroke-opacity:1;stroke-miterlimit:4;" d="M -56.726666 66.080379 C -56.726041 67.419685 -57.81481 68.50541 -59.151872 68.504104 C -60.491178 68.504728 -61.577216 67.420134 -61.577841 66.080828 C -61.578466 64.741522 -60.489697 63.655797 -59.150391 63.655172 C -57.813328 63.656479 -56.72729 64.741073 -56.726666 66.080379 Z M -56.726666 66.080379 " transform="matrix(0.86087,-1,1,0.86087,0,0)"/>
<path style="fill-rule:evenodd;fill:rgb(100%,0%,0%);fill-opacity:1;stroke-width:0.606287;stroke-linecap:butt;stroke-linejoin:miter;stroke:rgb(100%,0%,0%);stroke-opacity:1;stroke-miterlimit:4;" d="M 37.097512 -66.080666 L 39.522718 -68.504391 L 31.035147 -66.080509 L 39.523168 -63.653216 Z M 37.097512 -66.080666 " transform="matrix(-0.86087,1,-1,-0.86087,0,0)"/>
<path style="fill:none;stroke-width:0.8;stroke-linecap:butt;stroke-linejoin:miter;stroke:rgb(100%,0%,0%);stroke-opacity:1;stroke-miterlimit:4;" d="M 72.800781 115.988281 L 48.636719 87.921875 "/>
<path style="fill-rule:evenodd;fill:rgb(100%,0%,0%);fill-opacity:1;stroke-width:0.606287;stroke-linecap:butt;stroke-linejoin:miter;stroke:rgb(100%,0%,0%);stroke-opacity:1;stroke-miterlimit:4;" d="M -100.237483 -15.537536 C -100.238108 -14.19823 -101.324146 -13.113636 -102.661208 -13.112329 C -104.000514 -13.112954 -105.089283 -14.19868 -105.088658 -15.537986 C -105.088033 -16.877292 -104.001995 -17.961885 -102.662689 -17.961261 C -101.325627 -17.962568 -100.236858 -16.876842 -100.237483 -15.537536 Z M -100.237483 -15.537536 " transform="matrix(-0.86087,-1,1,-0.86087,0,0)"/>
<path style="fill-rule:evenodd;fill:rgb(100%,0%,0%);fill-opacity:1;stroke-width:0.606287;stroke-linecap:butt;stroke-linejoin:miter;stroke:rgb(100%,0%,0%);stroke-opacity:1;stroke-miterlimit:4;" d="M 80.608329 15.537823 L 83.033985 13.110373 L 74.545965 15.537666 L 83.033536 17.961548 Z M 80.608329 15.537823 " transform="matrix(0.86087,1,-1,0.86087,0,0)"/>
<path style="fill:none;stroke-width:1.6;stroke-linecap:round;stroke-linejoin:round;stroke:rgb(0%,0%,0%);stroke-opacity:1;stroke-miterlimit:4;" d="M 63.199219 0.789062 L 82.398438 0.789062 C 85.058594 0.789062 87.199219 2.929688 87.199219 5.589844 L 87.199219 24.789062 C 87.199219 27.449219 85.058594 29.589844 82.398438 29.589844 L 63.199219 29.589844 C 60.539062 29.589844 58.398438 27.449219 58.398438 24.789062 L 58.398438 5.589844 C 58.398438 2.929688 60.539062 0.789062 63.199219 0.789062 Z M 63.199219 0.789062 "/>
<path style=" stroke:none;fill-rule:nonzero;fill:rgb(0%,0%,0%);fill-opacity:1;" d="M 72.800781 14.644531 L 68.832031 10.675781 C 68.582031 10.425781 68.550781 10.394531 68.394531 10.394531 C 68.175781 10.394531 67.988281 10.550781 67.988281 10.800781 C 67.988281 10.925781 68.019531 10.957031 68.238281 11.175781 L 72.238281 15.175781 L 68.238281 19.207031 C 68.019531 19.425781 67.988281 19.457031 67.988281 19.582031 C 67.988281 19.832031 68.175781 19.988281 68.394531 19.988281 C 68.550781 19.988281 68.582031 19.957031 68.832031 19.707031 L 72.800781 15.738281 L 76.925781 19.863281 C 76.957031 19.894531 77.082031 19.988281 77.207031 19.988281 C 77.457031 19.988281 77.613281 19.832031 77.613281 19.582031 C 77.613281 19.550781 77.613281 19.488281 77.550781 19.363281 C 77.519531 19.332031 74.363281 16.207031 73.363281 15.175781 L 77.019531 11.550781 C 77.113281 11.425781 77.425781 11.175781 77.519531 11.050781 C 77.519531 11.019531 77.613281 10.925781 77.613281 10.800781 C 77.613281 10.550781 77.457031 10.394531 77.207031 10.394531 C 77.050781 10.394531 76.988281 10.457031 76.769531 10.675781 Z M 72.800781 14.644531 "/>
<g clip-path="url(#clip3)" clip-rule="nonzero">
<path style="fill:none;stroke-width:1.6;stroke-linecap:round;stroke-linejoin:round;stroke:rgb(0%,0%,0%);stroke-opacity:1;stroke-miterlimit:4;" d="M 92 58.390625 L 111.199219 58.390625 C 113.859375 58.390625 116 60.53125 116 63.191406 L 116 82.390625 C 116 85.050781 113.859375 87.191406 111.199219 87.191406 L 92 87.191406 C 89.339844 87.191406 87.199219 85.050781 87.199219 82.390625 L 87.199219 63.191406 C 87.199219 60.53125 89.339844 58.390625 92 58.390625 Z M 92 58.390625 "/>
</g>
<path style=" stroke:none;fill-rule:nonzero;fill:rgb(0%,0%,0%);fill-opacity:1;" d="M 99.164062 77.898438 L 101.289062 75.835938 C 104.382812 73.085938 105.570312 72.023438 105.570312 70.023438 C 105.570312 67.742188 103.789062 66.148438 101.351562 66.148438 C 99.101562 66.148438 97.632812 67.992188 97.632812 69.773438 C 97.632812 70.867188 98.632812 70.867188 98.695312 70.867188 C 99.039062 70.867188 99.726562 70.648438 99.726562 69.804688 C 99.726562 69.304688 99.351562 68.773438 98.664062 68.773438 C 98.507812 68.773438 98.476562 68.773438 98.414062 68.804688 C 98.851562 67.492188 99.945312 66.773438 101.101562 66.773438 C 102.914062 66.773438 103.757812 68.398438 103.757812 70.023438 C 103.757812 71.617188 102.789062 73.179688 101.664062 74.429688 L 97.851562 78.679688 C 97.632812 78.898438 97.632812 78.960938 97.632812 79.429688 L 105.039062 79.429688 L 105.570312 75.960938 L 105.101562 75.960938 C 104.976562 76.554688 104.851562 77.429688 104.632812 77.742188 C 104.507812 77.898438 103.195312 77.898438 102.757812 77.898438 Z M 99.164062 77.898438 "/>
<path style="fill:none;stroke-width:0.8;stroke-linecap:butt;stroke-linejoin:miter;stroke:rgb(100%,0%,0%);stroke-opacity:1;stroke-miterlimit:4;" d="M 44 58.390625 L 68.164062 30.320312 "/>
<path style="fill-rule:evenodd;fill:rgb(100%,0%,0%);fill-opacity:1;stroke-width:0.606287;stroke-linecap:butt;stroke-linejoin:miter;stroke:rgb(100%,0%,0%);stroke-opacity:1;stroke-miterlimit:4;" d="M -9.40289 54.141541 C -9.404197 55.478604 -10.491034 56.566573 -11.83034 56.567198 C -13.167403 56.565891 -14.253441 55.481297 -14.254065 54.141991 C -14.25469 52.802685 -13.167853 51.714716 -11.83079 51.716022 C -10.491484 51.715398 -9.403515 52.802235 -9.40289 54.141541 Z M -9.40289 54.141541 " transform="matrix(0.86087,-1,1,0.86087,0,0)"/>
<path style="fill-rule:evenodd;fill:rgb(100%,0%,0%);fill-opacity:1;stroke-width:0.606287;stroke-linecap:butt;stroke-linejoin:miter;stroke:rgb(100%,0%,0%);stroke-opacity:1;stroke-miterlimit:4;" d="M -10.226264 -54.141829 L -7.798814 -56.567485 L -16.288628 -54.141671 L -7.798364 -51.71631 Z M -10.226264 -54.141829 " transform="matrix(-0.86087,1,-1,-0.86087,0,0)"/>
<path style="fill:none;stroke-width:0.8;stroke-linecap:butt;stroke-linejoin:miter;stroke:rgb(100%,0%,0%);stroke-opacity:1;stroke-miterlimit:4;" d="M 101.601562 58.390625 L 77.4375 30.320312 "/>
<path style="fill-rule:evenodd;fill:rgb(100%,0%,0%);fill-opacity:1;stroke-width:0.606287;stroke-linecap:butt;stroke-linejoin:miter;stroke:rgb(100%,0%,0%);stroke-opacity:1;stroke-miterlimit:4;" d="M -81.394288 29.484787 C -81.394912 30.824093 -82.48095 31.908687 -83.820256 31.908062 C -85.157319 31.909369 -86.244156 30.8214 -86.245463 29.484337 C -86.244838 28.145031 -85.156869 27.058194 -83.819806 27.056887 C -82.4805 27.057512 -81.393663 28.145481 -81.394288 29.484787 Z M -81.394288 29.484787 " transform="matrix(-0.86087,-1,1,-0.86087,0,0)"/>
<path style="fill-rule:evenodd;fill:rgb(100%,0%,0%);fill-opacity:1;stroke-width:0.606287;stroke-linecap:butt;stroke-linejoin:miter;stroke:rgb(100%,0%,0%);stroke-opacity:1;stroke-miterlimit:4;" d="M 61.765134 -29.484499 L 64.191102 -31.907775 L 55.702769 -29.484657 L 64.192584 -27.058843 Z M 61.765134 -29.484499 " transform="matrix(0.86087,1,-1,0.86087,0,0)"/>
</g>
</svg>
