<?xml version="1.0" encoding="UTF-8"?>
<svg xmlns="http://www.w3.org/2000/svg" xmlns:xlink="http://www.w3.org/1999/xlink" width="88pt" height="88pt" viewBox="0 0 88 88" version="1.1">
<g id="surface1">
<path style="fill:none;stroke-width:1.6;stroke-linecap:round;stroke-linejoin:round;stroke:rgb(0%,0%,0%);stroke-opacity:1;stroke-miterlimit:4;" d="M 34.398438 0.789062 L 53.601562 0.789062 C 56.257812 0.789062 58.398438 2.929688 58.398438 5.589844 L 58.398438 24.789062 C 58.398438 27.449219 56.257812 29.589844 53.601562 29.589844 L 34.398438 29.589844 C 31.742188 29.589844 29.601562 27.449219 29.601562 24.789062 L 29.601562 5.589844 C 29.601562 2.929688 31.742188 0.789062 34.398438 0.789062 Z M 34.398438 0.789062 "/>
<path style=" stroke:none;fill-rule:nonzero;fill:rgb(0%,0%,0%);fill-opacity:1;" d="M 42.265625 12.488281 C 41.359375 11.894531 41.265625 11.238281 41.265625 10.894531 C 41.265625 9.675781 42.578125 8.832031 43.984375 8.832031 C 45.421875 8.832031 46.703125 9.863281 46.703125 11.300781 C 46.703125 12.457031 45.921875 13.394531 44.734375 14.082031 Z M 45.171875 14.394531 C 46.609375 13.644531 47.578125 12.613281 47.578125 11.300781 C 47.578125 9.457031 45.828125 8.332031 44.015625 8.332031 C 42.015625 8.332031 40.390625 9.800781 40.390625 11.675781 C 40.390625 12.019531 40.421875 12.925781 41.265625 13.863281 C 41.484375 14.082031 42.234375 14.582031 42.734375 14.925781 C 41.578125 15.519531 39.859375 16.613281 39.859375 18.613281 C 39.859375 20.707031 41.890625 22.050781 43.984375 22.050781 C 46.234375 22.050781 48.140625 20.394531 48.140625 18.269531 C 48.140625 17.550781 47.921875 16.644531 47.140625 15.800781 C 46.765625 15.394531 46.453125 15.207031 45.171875 14.394531 Z M 43.171875 15.238281 L 45.640625 16.800781 C 46.203125 17.175781 47.140625 17.769531 47.140625 18.988281 C 47.140625 20.457031 45.640625 21.488281 44.015625 21.488281 C 42.296875 21.488281 40.859375 20.269531 40.859375 18.613281 C 40.859375 17.457031 41.484375 16.175781 43.171875 15.238281 Z M 43.171875 15.238281 "/>
<path style="fill-rule:nonzero;fill:rgb(79.998779%,79.998779%,79.998779%);fill-opacity:1;stroke-width:1.6;stroke-linecap:round;stroke-linejoin:round;stroke:rgb(79.998779%,79.998779%,79.998779%);stroke-opacity:1;stroke-miterlimit:4;" d="M 5.601562 58.390625 L 24.800781 58.390625 C 27.460938 58.390625 29.601562 60.53125 29.601562 63.191406 L 29.601562 82.390625 C 29.601562 85.050781 27.460938 87.191406 24.800781 87.191406 L 5.601562 87.191406 C 2.941406 87.191406 0.800781 85.050781 0.800781 82.390625 L 0.800781 63.191406 C 0.800781 60.53125 2.941406 58.390625 5.601562 58.390625 Z M 5.601562 58.390625 "/>
<path style=" stroke:none;fill-rule:nonzero;fill:rgb(79.998779%,79.998779%,79.998779%);fill-opacity:1;" d="M 15.996094 72.179688 C 17.621094 71.648438 18.777344 70.273438 18.777344 68.679688 C 18.777344 67.054688 17.027344 65.929688 15.121094 65.929688 C 13.121094 65.929688 11.589844 67.117188 11.589844 68.648438 C 11.589844 69.304688 12.027344 69.679688 12.621094 69.679688 C 13.214844 69.679688 13.621094 69.242188 13.621094 68.648438 C 13.621094 67.679688 12.683594 67.679688 12.402344 67.679688 C 12.996094 66.679688 14.308594 66.429688 15.027344 66.429688 C 15.871094 66.429688 16.964844 66.867188 16.964844 68.648438 C 16.964844 68.898438 16.902344 70.054688 16.402344 70.929688 C 15.808594 71.898438 15.121094 71.960938 14.621094 71.960938 C 14.464844 71.992188 13.996094 72.023438 13.839844 72.023438 C 13.683594 72.054688 13.558594 72.085938 13.558594 72.273438 C 13.558594 72.492188 13.683594 72.492188 14.027344 72.492188 L 14.902344 72.492188 C 16.527344 72.492188 17.277344 73.835938 17.277344 75.804688 C 17.277344 78.523438 15.902344 79.085938 15.027344 79.085938 C 14.152344 79.085938 12.652344 78.742188 11.964844 77.585938 C 12.652344 77.679688 13.277344 77.242188 13.277344 76.492188 C 13.277344 75.773438 12.746094 75.367188 12.183594 75.367188 C 11.683594 75.367188 11.058594 75.648438 11.058594 76.523438 C 11.058594 78.335938 12.902344 79.648438 15.089844 79.648438 C 17.527344 79.648438 19.339844 77.835938 19.339844 75.804688 C 19.339844 74.179688 18.058594 72.617188 15.996094 72.179688 Z M 15.996094 72.179688 "/>
<path style="fill-rule:nonzero;fill:rgb(79.998779%,79.998779%,79.998779%);fill-opacity:1;stroke-width:1.6;stroke-linecap:round;stroke-linejoin:round;stroke:rgb(79.998779%,79.998779%,79.998779%);stroke-opacity:1;stroke-miterlimit:4;" d="M 63.199219 58.390625 L 82.398438 58.390625 C 85.058594 58.390625 87.199219 60.53125 87.199219 63.191406 L 87.199219 82.390625 C 87.199219 85.050781 85.058594 87.191406 82.398438 87.191406 L 63.199219 87.191406 C 60.539062 87.191406 58.398438 85.050781 58.398438 82.390625 L 58.398438 63.191406 C 58.398438 60.53125 60.539062 58.390625 63.199219 58.390625 Z M 63.199219 58.390625 "/>
<path style=" stroke:none;fill-rule:nonzero;fill:rgb(79.998779%,79.998779%,79.998779%);fill-opacity:1;" d="M 76.769531 75.210938 C 76.769531 72.835938 75.144531 70.835938 72.988281 70.835938 C 72.050781 70.835938 71.175781 71.148438 70.457031 71.867188 L 70.457031 67.960938 C 70.863281 68.085938 71.519531 68.210938 72.144531 68.210938 C 74.613281 68.210938 76.019531 66.398438 76.019531 66.148438 C 76.019531 66.023438 75.957031 65.929688 75.800781 65.929688 C 75.800781 65.929688 75.738281 65.929688 75.644531 65.992188 C 75.238281 66.179688 74.269531 66.585938 72.925781 66.585938 C 72.144531 66.585938 71.207031 66.429688 70.269531 66.023438 C 70.113281 65.960938 70.082031 65.960938 70.050781 65.960938 C 69.832031 65.960938 69.832031 66.117188 69.832031 66.429688 L 69.832031 72.335938 C 69.832031 72.679688 69.832031 72.835938 70.113281 72.835938 C 70.269531 72.835938 70.300781 72.804688 70.394531 72.679688 C 70.613281 72.367188 71.332031 71.273438 72.957031 71.273438 C 73.988281 71.273438 74.488281 72.179688 74.644531 72.554688 C 74.957031 73.304688 75.019531 74.054688 75.019531 75.054688 C 75.019531 75.773438 75.019531 76.960938 74.519531 77.804688 C 74.050781 78.585938 73.300781 79.085938 72.394531 79.085938 C 70.957031 79.085938 69.800781 78.023438 69.457031 76.867188 C 69.519531 76.867188 69.582031 76.898438 69.800781 76.898438 C 70.457031 76.898438 70.800781 76.398438 70.800781 75.929688 C 70.800781 75.429688 70.457031 74.929688 69.800781 74.929688 C 69.519531 74.929688 68.832031 75.085938 68.832031 75.992188 C 68.832031 77.710938 70.207031 79.648438 72.425781 79.648438 C 74.738281 79.648438 76.769531 77.742188 76.769531 75.210938 Z M 76.769531 75.210938 "/>
<path style="fill:none;stroke-width:0.8;stroke-linecap:butt;stroke-linejoin:miter;stroke:rgb(100%,0%,0%);stroke-opacity:1;stroke-miterlimit:4;" d="M 14.6875 58.375 L 38.847656 30.308594 "/>
<path style="fill-rule:evenodd;fill:rgb(100%,0%,0%);fill-opacity:1;stroke-width:0.606287;stroke-linecap:butt;stroke-linejoin:miter;stroke:rgb(100%,0%,0%);stroke-opacity:1;stroke-miterlimit:4;" d="M -23.891396 37.297855 C -23.890771 38.637161 -24.975365 39.723199 -26.314671 39.723823 C -27.653977 39.724448 -28.739703 38.635679 -28.740327 37.296373 C -28.739021 35.959311 -27.654427 34.873273 -26.315121 34.872648 C -24.975815 34.872024 -23.890089 35.960792 -23.891396 37.297855 Z M -23.891396 37.297855 " transform="matrix(0.86087,-1,1,0.86087,0,0)"/>
<path style="fill-rule:evenodd;fill:rgb(100%,0%,0%);fill-opacity:1;stroke-width:0.606287;stroke-linecap:butt;stroke-linejoin:miter;stroke:rgb(100%,0%,0%);stroke-opacity:1;stroke-miterlimit:4;" d="M 4.262242 -37.298142 L 6.685517 -39.724111 L -1.800122 -37.297985 L 6.685967 -34.872936 Z M 4.262242 -37.298142 " transform="matrix(-0.86087,1,-1,-0.86087,0,0)"/>
<path style="fill:none;stroke-width:0.8;stroke-linecap:butt;stroke-linejoin:miter;stroke:rgb(100%,0%,0%);stroke-opacity:1;stroke-miterlimit:4;" d="M 72.589844 57.746094 L 48.429688 29.675781 "/>
<path style="fill-rule:evenodd;fill:rgb(100%,0%,0%);fill-opacity:1;stroke-width:0.606287;stroke-linecap:butt;stroke-linejoin:miter;stroke:rgb(100%,0%,0%);stroke-opacity:1;stroke-miterlimit:4;" d="M -66.681446 13.142819 C -66.680139 14.479881 -67.768108 15.566718 -69.107414 15.566094 C -70.444477 15.567401 -71.531314 14.479431 -71.53069 13.140125 C -71.531996 11.803063 -70.444027 10.716225 -69.106965 10.714919 C -67.767659 10.715543 -66.680821 11.803513 -66.681446 13.142819 Z M -66.681446 13.142819 " transform="matrix(-0.86087,-1,1,-0.86087,0,0)"/>
<path style="fill-rule:evenodd;fill:rgb(100%,0%,0%);fill-opacity:1;stroke-width:0.606287;stroke-linecap:butt;stroke-linejoin:miter;stroke:rgb(100%,0%,0%);stroke-opacity:1;stroke-miterlimit:4;" d="M 47.052292 -13.142531 L 49.478261 -15.565806 L 40.989928 -13.142689 L 49.477811 -10.714631 Z M 47.052292 -13.142531 " transform="matrix(0.86087,1,-1,0.86087,0,0)"/>
</g>
</svg>
