<?xml version="1.0" encoding="UTF-8"?>
<svg xmlns="http://www.w3.org/2000/svg" xmlns:xlink="http://www.w3.org/1999/xlink" width="509.343353pt" height="202.399994pt" viewBox="0 0 509.343353 202.399994" version="1.1">
<defs>
<clipPath id="clip1">
  <path d="M 278 144 L 366 144 L 366 202.398438 L 278 202.398438 Z M 278 144 "/>
</clipPath>
<clipPath id="clip2">
  <path d="M 422 57 L 509.34375 57 L 509.34375 145 L 422 145 Z M 422 57 "/>
</clipPath>
</defs>
<g id="surface1">
<path style="fill-rule:nonzero;fill:rgb(0%,0%,100%);fill-opacity:1;stroke-width:0.8;stroke-linecap:butt;stroke-linejoin:round;stroke:rgb(0%,0%,0%);stroke-opacity:1;stroke-miterlimit:4;" d="M 278.542969 58 L 364.941406 58 L 364.941406 144.398438 L 278.542969 144.398438 Z M 278.542969 58 "/>
<path style="fill-rule:nonzero;fill:rgb(0%,100%,100%);fill-opacity:1;stroke-width:0.8;stroke-linecap:butt;stroke-linejoin:round;stroke:rgb(0%,0%,0%);stroke-opacity:1;stroke-miterlimit:4;" d="M 220.941406 58 L 278.542969 58 L 278.542969 144.398438 L 220.941406 144.398438 Z M 220.941406 58 "/>
<path style="fill-rule:nonzero;fill:rgb(0%,100%,100%);fill-opacity:1;stroke-width:0.8;stroke-linecap:butt;stroke-linejoin:round;stroke:rgb(0%,0%,0%);stroke-opacity:1;stroke-miterlimit:4;" d="M 364.941406 58 L 422.542969 58 L 422.542969 144.398438 L 364.941406 144.398438 Z M 364.941406 58 "/>
<path style="fill-rule:nonzero;fill:rgb(0%,100%,100%);fill-opacity:1;stroke-width:0.8;stroke-linecap:butt;stroke-linejoin:round;stroke:rgb(0%,0%,0%);stroke-opacity:1;stroke-miterlimit:4;" d="M 0.398438 -278.542969 L 58 -278.542969 L 58 -364.941406 L 0.398438 -364.941406 Z M 0.398438 -278.542969 " transform="matrix(0,1,-1,0,0,0)"/>
<path style=" stroke:none;fill-rule:nonzero;fill:rgb(0%,100%,100%);fill-opacity:1;" d="M 278.542969 144.398438 L 278.542969 202 L 364.941406 202 L 364.941406 144.398438 Z M 278.542969 144.398438 "/>
<g clip-path="url(#clip1)" clip-rule="nonzero">
<path style="fill:none;stroke-width:0.8;stroke-linecap:butt;stroke-linejoin:round;stroke:rgb(0%,0%,0%);stroke-opacity:1;stroke-miterlimit:4;" d="M 144.398438 -278.542969 L 202 -278.542969 L 202 -364.941406 L 144.398438 -364.941406 Z M 144.398438 -278.542969 " transform="matrix(0,1,-1,0,0,0)"/>
</g>
<path style=" stroke:none;fill-rule:evenodd;fill:rgb(0%,100%,100%);fill-opacity:1;" d="M 19.34375 86.800781 L 105.742188 86.800781 L 105.742188 144.398438 L 19.34375 144.398438 Z M 19.34375 86.800781 "/>
<path style=" stroke:none;fill-rule:evenodd;fill:rgb(0%,62.35199%,62.35199%);fill-opacity:1;" d="M 105.742188 86.800781 L 19.34375 86.800781 L 62.542969 67.601562 L 148.941406 67.601562 Z M 105.742188 86.800781 "/>
<path style=" stroke:none;fill-rule:evenodd;fill:rgb(0%,62.35199%,62.35199%);fill-opacity:1;" d="M 148.941406 125.199219 L 105.742188 144.398438 L 105.742188 86.800781 L 148.941406 67.601562 Z M 148.941406 125.199219 "/>
<path style="fill:none;stroke-width:1.6;stroke-linecap:round;stroke-linejoin:round;stroke:rgb(0%,0%,0%);stroke-opacity:1;stroke-miterlimit:4;" d="M 19.34375 86.800781 L 105.742188 86.800781 L 105.742188 144.398438 L 19.34375 144.398438 Z M 19.34375 86.800781 "/>
<path style="fill:none;stroke-width:1.6;stroke-linecap:round;stroke-linejoin:round;stroke:rgb(0%,0%,0%);stroke-opacity:1;stroke-miterlimit:4;" d="M 19.34375 86.800781 L 62.367188 67.785156 L 148.769531 67.785156 L 105.742188 86.800781 "/>
<path style="fill:none;stroke-width:1.6;stroke-linecap:round;stroke-linejoin:round;stroke:rgb(0%,0%,0%);stroke-opacity:1;stroke-miterlimit:4;" d="M 148.941406 67.601562 L 148.941406 125.199219 L 105.742188 144.398438 "/>
<path style="fill:none;stroke-width:0.8;stroke-linecap:butt;stroke-linejoin:round;stroke:rgb(0%,0%,0%);stroke-opacity:1;stroke-dasharray:0.8,0.8;stroke-miterlimit:4;" d="M 19.34375 144.398438 L 62.542969 125.199219 L 148.941406 125.199219 "/>
<path style="fill:none;stroke-width:0.8;stroke-linecap:butt;stroke-linejoin:round;stroke:rgb(0%,0%,0%);stroke-opacity:1;stroke-dasharray:0.8,0.8;stroke-miterlimit:4;" d="M 62.542969 125.199219 L 62.542969 67.601562 "/>
<path style=" stroke:none;fill-rule:nonzero;fill:rgb(0%,0%,0%);fill-opacity:1;" d="M 62.65625 156.179688 C 62.65625 156.179688 62.65625 156.003906 62.457031 156.003906 C 62.105469 156.003906 60.929688 156.128906 60.503906 156.179688 C 60.378906 156.179688 60.207031 156.203125 60.207031 156.480469 C 60.207031 156.679688 60.355469 156.679688 60.605469 156.679688 C 61.355469 156.679688 61.378906 156.78125 61.378906 156.953125 C 61.378906 157.054688 61.253906 157.605469 61.179688 157.929688 L 59.855469 163.128906 C 59.679688 163.929688 59.605469 164.203125 59.605469 164.753906 C 59.605469 166.253906 60.457031 167.253906 61.628906 167.253906 C 63.503906 167.253906 65.480469 164.878906 65.480469 162.578125 C 65.480469 161.128906 64.628906 160.03125 63.355469 160.03125 C 62.628906 160.03125 61.957031 160.503906 61.480469 160.980469 Z M 61.179688 162.203125 C 61.253906 161.855469 61.253906 161.828125 61.40625 161.65625 C 62.179688 160.628906 62.90625 160.378906 63.332031 160.378906 C 63.90625 160.378906 64.332031 160.855469 64.332031 161.878906 C 64.332031 162.828125 63.804688 164.65625 63.503906 165.253906 C 62.980469 166.328125 62.253906 166.90625 61.628906 166.90625 C 61.082031 166.90625 60.554688 166.480469 60.554688 165.304688 C 60.554688 164.980469 60.554688 164.679688 60.804688 163.679688 Z M 61.179688 162.203125 "/>
<path style=" stroke:none;fill-rule:nonzero;fill:rgb(0%,0%,0%);fill-opacity:1;" d="M 3.699219 110.148438 C 3.699219 110.148438 3.699219 109.976562 3.5 109.976562 C 3.125 109.976562 1.976562 110.101562 1.550781 110.148438 C 1.425781 110.148438 1.25 110.175781 1.25 110.449219 C 1.25 110.648438 1.398438 110.648438 1.625 110.648438 C 2.398438 110.648438 2.425781 110.75 2.425781 110.925781 L 2.375 111.25 L 0.0742188 120.425781 C 0 120.648438 0 120.675781 0 120.773438 C 0 121.148438 0.324219 121.226562 0.476562 121.226562 C 0.726562 121.226562 0.976562 121.023438 1.050781 120.800781 L 1.351562 119.601562 L 1.699219 118.175781 C 1.800781 117.800781 1.898438 117.449219 1.976562 117.101562 C 2 117 2.148438 116.476562 2.148438 116.375 C 2.199219 116.226562 2.699219 115.351562 3.25 114.898438 C 3.601562 114.648438 4.074219 114.351562 4.773438 114.351562 C 5.449219 114.351562 5.625 114.898438 5.625 115.476562 C 5.625 116.324219 5.023438 118.074219 4.648438 119.050781 C 4.523438 119.398438 4.425781 119.601562 4.425781 119.925781 C 4.425781 120.675781 5 121.226562 5.75 121.226562 C 7.25 121.226562 7.824219 118.898438 7.824219 118.773438 C 7.824219 118.601562 7.699219 118.601562 7.648438 118.601562 C 7.476562 118.601562 7.476562 118.648438 7.398438 118.898438 C 7.175781 119.75 6.648438 120.875 5.773438 120.875 C 5.5 120.875 5.398438 120.726562 5.398438 120.351562 C 5.398438 119.949219 5.523438 119.574219 5.675781 119.226562 C 5.925781 118.523438 6.648438 116.625 6.648438 115.699219 C 6.648438 114.675781 6.023438 114 4.824219 114 C 3.824219 114 3.050781 114.5 2.449219 115.226562 Z M 3.699219 110.148438 "/>
<path style="fill:none;stroke-width:0.8;stroke-linecap:butt;stroke-linejoin:miter;stroke:rgb(100%,0%,0%);stroke-opacity:1;stroke-miterlimit:4;" d="M 14.542969 91.601562 L 14.542969 139.601562 "/>
<path style="fill-rule:evenodd;fill:rgb(100%,0%,0%);fill-opacity:1;stroke-width:0.4;stroke-linecap:butt;stroke-linejoin:miter;stroke:rgb(100%,0%,0%);stroke-opacity:1;stroke-miterlimit:4;" d="M 94.800781 -14.542969 L 96.398438 -16.144531 L 90.800781 -14.542969 L 96.398438 -12.941406 Z M 94.800781 -14.542969 " transform="matrix(0,1,-1,0,0,0)"/>
<path style="fill-rule:evenodd;fill:rgb(100%,0%,0%);fill-opacity:1;stroke-width:0.4;stroke-linecap:butt;stroke-linejoin:miter;stroke:rgb(100%,0%,0%);stroke-opacity:1;stroke-miterlimit:4;" d="M -136.398438 14.542969 L -134.800781 12.941406 L -140.398438 14.542969 L -134.800781 16.144531 Z M -136.398438 14.542969 " transform="matrix(0,-1,1,0,0,0)"/>
<path style="fill:none;stroke-width:0.8;stroke-linecap:butt;stroke-linejoin:miter;stroke:rgb(100%,0%,0%);stroke-opacity:1;stroke-miterlimit:4;" d="M 100.941406 149.199219 L 24.144531 149.199219 "/>
<path style="fill-rule:evenodd;fill:rgb(100%,0%,0%);fill-opacity:1;stroke-width:0.4;stroke-linecap:butt;stroke-linejoin:miter;stroke:rgb(100%,0%,0%);stroke-opacity:1;stroke-miterlimit:4;" d="M -97.742188 -149.199219 L -96.144531 -150.800781 L -101.742188 -149.199219 L -96.144531 -147.601562 Z M -97.742188 -149.199219 " transform="matrix(-1,0,0,-1,0,0)"/>
<path style="fill-rule:evenodd;fill:rgb(100%,0%,0%);fill-opacity:1;stroke-width:0.4;stroke-linecap:butt;stroke-linejoin:miter;stroke:rgb(100%,0%,0%);stroke-opacity:1;stroke-miterlimit:4;" d="M 27.34375 149.199219 L 28.941406 147.601562 L 23.34375 149.199219 L 28.941406 150.800781 Z M 27.34375 149.199219 "/>
<path style=" stroke:none;fill-rule:nonzero;fill:rgb(0%,0%,0%);fill-opacity:1;" d="M 207.703125 95.75 C 207.703125 95.75 207.703125 95.574219 207.503906 95.574219 C 207.152344 95.574219 205.980469 95.699219 205.554688 95.75 C 205.429688 95.75 205.253906 95.773438 205.253906 96.050781 C 205.253906 96.25 205.402344 96.25 205.652344 96.25 C 206.402344 96.25 206.429688 96.351562 206.429688 96.523438 C 206.429688 96.625 206.304688 97.175781 206.230469 97.5 L 204.902344 102.699219 C 204.730469 103.5 204.652344 103.773438 204.652344 104.324219 C 204.652344 105.824219 205.503906 106.824219 206.679688 106.824219 C 208.554688 106.824219 210.527344 104.449219 210.527344 102.148438 C 210.527344 100.699219 209.679688 99.601562 208.402344 99.601562 C 207.679688 99.601562 207.003906 100.074219 206.527344 100.550781 Z M 206.230469 101.773438 C 206.304688 101.425781 206.304688 101.398438 206.453125 101.226562 C 207.230469 100.199219 207.953125 99.949219 208.378906 99.949219 C 208.953125 99.949219 209.378906 100.425781 209.378906 101.449219 C 209.378906 102.398438 208.855469 104.226562 208.554688 104.824219 C 208.027344 105.898438 207.304688 106.476562 206.679688 106.476562 C 206.128906 106.476562 205.605469 106.050781 205.605469 104.875 C 205.605469 104.550781 205.605469 104.25 205.855469 103.25 Z M 206.230469 101.773438 "/>
<path style="fill:none;stroke-width:0.8;stroke-linecap:butt;stroke-linejoin:miter;stroke:rgb(100%,0%,0%);stroke-opacity:1;stroke-miterlimit:4;" d="M 216.144531 139.601562 L 216.144531 62.800781 "/>
<path style="fill-rule:evenodd;fill:rgb(100%,0%,0%);fill-opacity:1;stroke-width:0.4;stroke-linecap:butt;stroke-linejoin:miter;stroke:rgb(100%,0%,0%);stroke-opacity:1;stroke-miterlimit:4;" d="M -136.398438 216.144531 L -134.800781 214.542969 L -140.398438 216.144531 L -134.800781 217.742188 Z M -136.398438 216.144531 " transform="matrix(0,-1,1,0,0,0)"/>
<path style="fill-rule:evenodd;fill:rgb(100%,0%,0%);fill-opacity:1;stroke-width:0.4;stroke-linecap:butt;stroke-linejoin:miter;stroke:rgb(100%,0%,0%);stroke-opacity:1;stroke-miterlimit:4;" d="M 66 -216.144531 L 67.601562 -217.742188 L 62 -216.144531 L 67.601562 -214.542969 Z M 66 -216.144531 " transform="matrix(0,1,-1,0,0,0)"/>
<path style=" stroke:none;fill-rule:nonzero;fill:rgb(0%,0%,0%);fill-opacity:1;" d="M 249.53125 153.074219 C 249.53125 153.074219 249.53125 152.898438 249.332031 152.898438 C 248.957031 152.898438 247.804688 153.023438 247.378906 153.074219 C 247.253906 153.074219 247.082031 153.097656 247.082031 153.375 C 247.082031 153.574219 247.230469 153.574219 247.457031 153.574219 C 248.230469 153.574219 248.253906 153.671875 248.253906 153.847656 L 248.207031 154.171875 L 245.90625 163.347656 C 245.832031 163.574219 245.832031 163.597656 245.832031 163.699219 C 245.832031 164.074219 246.15625 164.148438 246.304688 164.148438 C 246.554688 164.148438 246.804688 163.949219 246.878906 163.722656 L 247.179688 162.523438 L 247.53125 161.097656 C 247.628906 160.722656 247.730469 160.375 247.804688 160.023438 C 247.832031 159.921875 247.980469 159.398438 247.980469 159.296875 C 248.03125 159.148438 248.53125 158.273438 249.082031 157.824219 C 249.429688 157.574219 249.90625 157.273438 250.605469 157.273438 C 251.28125 157.273438 251.457031 157.824219 251.457031 158.398438 C 251.457031 159.25 250.855469 161 250.480469 161.972656 C 250.355469 162.324219 250.253906 162.523438 250.253906 162.847656 C 250.253906 163.597656 250.832031 164.148438 251.582031 164.148438 C 253.082031 164.148438 253.65625 161.824219 253.65625 161.699219 C 253.65625 161.523438 253.53125 161.523438 253.480469 161.523438 C 253.304688 161.523438 253.304688 161.574219 253.230469 161.824219 C 253.003906 162.671875 252.480469 163.796875 251.605469 163.796875 C 251.332031 163.796875 251.230469 163.648438 251.230469 163.273438 C 251.230469 162.875 251.355469 162.5 251.503906 162.148438 C 251.753906 161.449219 252.480469 159.546875 252.480469 158.625 C 252.480469 157.597656 251.855469 156.921875 250.65625 156.921875 C 249.65625 156.921875 248.878906 157.421875 248.28125 158.148438 Z M 249.53125 153.074219 "/>
<path style="fill:none;stroke-width:0.8;stroke-linecap:butt;stroke-linejoin:miter;stroke:rgb(100%,0%,0%);stroke-opacity:1;stroke-miterlimit:4;" d="M 273.742188 149.199219 L 225.742188 149.199219 "/>
<path style="fill-rule:evenodd;fill:rgb(100%,0%,0%);fill-opacity:1;stroke-width:0.4;stroke-linecap:butt;stroke-linejoin:miter;stroke:rgb(100%,0%,0%);stroke-opacity:1;stroke-miterlimit:4;" d="M -270.542969 -149.199219 L -268.941406 -150.800781 L -274.542969 -149.199219 L -268.941406 -147.601562 Z M -270.542969 -149.199219 " transform="matrix(-1,0,0,-1,0,0)"/>
<path style="fill-rule:evenodd;fill:rgb(100%,0%,0%);fill-opacity:1;stroke-width:0.4;stroke-linecap:butt;stroke-linejoin:miter;stroke:rgb(100%,0%,0%);stroke-opacity:1;stroke-miterlimit:4;" d="M 228.941406 149.199219 L 230.542969 147.601562 L 224.941406 149.199219 L 230.542969 150.800781 Z M 228.941406 149.199219 "/>
<path style=" stroke:none;fill-rule:nonzero;fill:rgb(0%,100%,100%);fill-opacity:1;" d="M 422.542969 58 L 508.941406 58 L 508.941406 144.398438 L 422.542969 144.398438 Z M 422.542969 58 "/>
<g clip-path="url(#clip2)" clip-rule="nonzero">
<path style="fill:none;stroke-width:0.8;stroke-linecap:butt;stroke-linejoin:round;stroke:rgb(0%,0%,0%);stroke-opacity:1;stroke-miterlimit:4;" d="M 422.542969 58 L 508.941406 58 L 508.941406 144.398438 L 422.542969 144.398438 Z M 422.542969 58 "/>
</g>
<path style=" stroke:none;fill-rule:nonzero;fill:rgb(0%,0%,0%);fill-opacity:1;" d="M 465.855469 154.347656 C 465.855469 154.347656 465.855469 154.171875 465.65625 154.171875 C 465.304688 154.171875 464.128906 154.296875 463.707031 154.347656 C 463.582031 154.347656 463.40625 154.371094 463.40625 154.648438 C 463.40625 154.847656 463.554688 154.847656 463.804688 154.847656 C 464.554688 154.847656 464.582031 154.949219 464.582031 155.121094 C 464.582031 155.222656 464.457031 155.773438 464.378906 156.097656 L 463.054688 161.296875 C 462.878906 162.097656 462.804688 162.371094 462.804688 162.921875 C 462.804688 164.421875 463.65625 165.421875 464.832031 165.421875 C 466.707031 165.421875 468.679688 163.046875 468.679688 160.746094 C 468.679688 159.296875 467.832031 158.199219 466.554688 158.199219 C 465.832031 158.199219 465.15625 158.671875 464.679688 159.148438 Z M 464.378906 160.371094 C 464.457031 160.023438 464.457031 159.996094 464.605469 159.824219 C 465.378906 158.796875 466.105469 158.546875 466.53125 158.546875 C 467.105469 158.546875 467.53125 159.023438 467.53125 160.046875 C 467.53125 160.996094 467.003906 162.824219 466.707031 163.421875 C 466.179688 164.496094 465.457031 165.074219 464.832031 165.074219 C 464.28125 165.074219 463.753906 164.648438 463.753906 163.472656 C 463.753906 163.148438 463.753906 162.847656 464.003906 161.847656 Z M 464.378906 160.371094 "/>
<path style="fill:none;stroke-width:0.8;stroke-linecap:butt;stroke-linejoin:miter;stroke:rgb(100%,0%,0%);stroke-opacity:1;stroke-miterlimit:4;" d="M 504.144531 149.199219 L 427.34375 149.199219 "/>
<path style="fill-rule:evenodd;fill:rgb(100%,0%,0%);fill-opacity:1;stroke-width:0.4;stroke-linecap:butt;stroke-linejoin:miter;stroke:rgb(100%,0%,0%);stroke-opacity:1;stroke-miterlimit:4;" d="M -500.941406 -149.199219 L -499.34375 -150.800781 L -504.941406 -149.199219 L -499.34375 -147.601562 Z M -500.941406 -149.199219 " transform="matrix(-1,0,0,-1,0,0)"/>
<path style="fill-rule:evenodd;fill:rgb(100%,0%,0%);fill-opacity:1;stroke-width:0.4;stroke-linecap:butt;stroke-linejoin:miter;stroke:rgb(100%,0%,0%);stroke-opacity:1;stroke-miterlimit:4;" d="M 430.542969 149.199219 L 432.144531 147.601562 L 426.542969 149.199219 L 432.144531 150.800781 Z M 430.542969 149.199219 "/>
<path style="fill:none;stroke-width:2.4;stroke-linecap:butt;stroke-linejoin:miter;stroke:rgb(0%,0%,100%);stroke-opacity:1;stroke-miterlimit:4;" d="M 19.34375 144.398438 L 105.742188 144.398438 L 148.941406 125.199219 "/>
</g>
</svg>
