<?xml version="1.0" encoding="UTF-8"?>
<svg xmlns="http://www.w3.org/2000/svg" xmlns:xlink="http://www.w3.org/1999/xlink" width="376.833313pt" height="108.156929pt" viewBox="0 0 376.833313 108.156929" version="1.1">
<defs>
<filter id="alpha" filterUnits="objectBoundingBox" x="0%" y="0%" width="100%" height="100%">
  <feColorMatrix type="matrix" in="SourceGraphic" values="0 0 0 0 1 0 0 0 0 1 0 0 0 0 1 0 0 0 1 0"/>
</filter>
<clipPath id="clip1">
  <rect width="17" height="27"/>
</clipPath>
<g id="surface8" clip-path="url(#clip1)">
<rect x="0" y="0" width="17" height="27" style="fill:rgb(0%,0%,0%);fill-opacity:0.97;stroke:none;"/>
</g>
<mask id="mask0">
  <g filter="url(#alpha)">
<use xlink:href="#surface8"/>
  </g>
</mask>
<clipPath id="clip2">
  <rect width="17" height="27"/>
</clipPath>
<g id="surface10" clip-path="url(#clip2)">
<path style="fill:none;stroke-width:1.6;stroke-linecap:round;stroke-linejoin:round;stroke:rgb(100%,0%,0%);stroke-opacity:1;stroke-miterlimit:4;" d="M 22.90625 61.949219 C 29.386719 67.429688 33.550781 75.160156 34.566406 83.589844 " transform="matrix(1,0,0,1,-20,-60)"/>
<path style="fill-rule:evenodd;fill:rgb(100%,0%,0%);fill-opacity:1;stroke-width:0.30541;stroke-linecap:butt;stroke-linejoin:miter;stroke:rgb(100%,0%,0%);stroke-opacity:1;stroke-miterlimit:4;" d="M 45.363363 24.819894 L 46.584875 23.599258 L 42.309452 24.820812 L 46.585924 26.043683 Z M 45.363363 24.819894 " transform="matrix(1,0.845784,-0.845784,1,-20,-60)"/>
<path style="fill-rule:evenodd;fill:rgb(100%,0%,0%);fill-opacity:1;stroke-width:0.397133;stroke-linecap:butt;stroke-linejoin:miter;stroke:rgb(100%,0%,0%);stroke-opacity:1;stroke-miterlimit:4;" d="M -84.59106 24.153204 L -83.001703 22.567181 L -88.560133 24.155892 L -83.001186 25.743024 Z M -84.59106 24.153204 " transform="matrix(-0.120376,-1,1,-0.120376,-20,-60)"/>
</g>
<clipPath id="clip3">
  <rect width="10" height="23"/>
</clipPath>
<g id="surface14" clip-path="url(#clip3)">
<rect x="0" y="0" width="10" height="23" style="fill:rgb(0%,0%,0%);fill-opacity:0.97;stroke:none;"/>
</g>
<mask id="mask1">
  <g filter="url(#alpha)">
<use xlink:href="#surface14"/>
  </g>
</mask>
<clipPath id="clip4">
  <rect width="10" height="23"/>
</clipPath>
<g id="surface16" clip-path="url(#clip4)">
<path style="fill:none;stroke-width:1.6;stroke-linecap:round;stroke-linejoin:round;stroke:rgb(100%,0%,0%);stroke-opacity:1;stroke-miterlimit:4;" d="M -136.875 65.527344 C -133.796875 70.699219 -131.835938 76.460938 -131.117188 82.441406 " transform="matrix(-1,0,0,1,-129,-63)"/>
<path style="fill-rule:evenodd;fill:rgb(100%,0%,0%);fill-opacity:1;stroke-width:0.343818;stroke-linecap:butt;stroke-linejoin:miter;stroke:rgb(100%,0%,0%);stroke-opacity:1;stroke-miterlimit:4;" d="M -10.064939 129.910221 L -8.689601 128.536549 L -13.502058 129.909581 L -8.691267 131.285558 Z M -10.064939 129.910221 " transform="matrix(-0.59457,1,1,0.59457,-129,-63)"/>
<path style="fill-rule:evenodd;fill:rgb(100%,0%,0%);fill-opacity:1;stroke-width:0.397133;stroke-linecap:butt;stroke-linejoin:miter;stroke:rgb(100%,0%,0%);stroke-opacity:1;stroke-miterlimit:4;" d="M -63.799571 -139.027593 L -62.210214 -140.613617 L -67.768644 -139.024906 L -62.209697 -137.437773 Z M -63.799571 -139.027593 " transform="matrix(0.120376,-1,-1,-0.120376,-129,-63)"/>
</g>
<clipPath id="clip5">
  <rect width="38" height="12"/>
</clipPath>
<g id="surface20" clip-path="url(#clip5)">
<rect x="0" y="0" width="38" height="12" style="fill:rgb(0%,0%,0%);fill-opacity:0.97;stroke:none;"/>
</g>
<mask id="mask2">
  <g filter="url(#alpha)">
<use xlink:href="#surface20"/>
  </g>
</mask>
<clipPath id="clip6">
  <rect width="38" height="12"/>
</clipPath>
<g id="surface22" clip-path="url(#clip6)">
<path style="fill:none;stroke-width:1.6;stroke-linecap:round;stroke-linejoin:round;stroke:rgb(100%,0%,0%);stroke-opacity:1;stroke-miterlimit:4;" d="M 27.308594 46.644531 C 32.414062 57.601562 30.132812 70.585938 21.59375 79.144531 " transform="matrix(0,1,1,0,-44,-19)"/>
<path style="fill-rule:evenodd;fill:rgb(100%,0%,0%);fill-opacity:1;stroke-width:0.362567;stroke-linecap:butt;stroke-linejoin:miter;stroke:rgb(100%,0%,0%);stroke-opacity:1;stroke-miterlimit:4;" d="M 50.517313 -4.580582 L 51.966329 -6.030356 L 46.891472 -4.578777 L 51.965592 -3.128356 Z M 50.517313 -4.580582 " transform="matrix(1,0.465989,0.465989,-1,-44,-19)"/>
<path style="fill-rule:evenodd;fill:rgb(100%,0%,0%);fill-opacity:1;stroke-width:0.283208;stroke-linecap:butt;stroke-linejoin:miter;stroke:rgb(100%,0%,0%);stroke-opacity:1;stroke-miterlimit:4;" d="M -27.518479 50.3967 L -26.384699 49.265845 L -30.350258 50.396954 L -26.385671 51.532439 Z M -27.518479 50.3967 " transform="matrix(-1,0.99742,0.99742,1,-44,-19)"/>
</g>
<clipPath id="clip7">
  <path d="M 201 0 L 376.832031 0 L 376.832031 89 L 201 89 Z M 201 0 "/>
</clipPath>
<clipPath id="clip8">
  <rect width="16" height="27"/>
</clipPath>
<g id="surface26" clip-path="url(#clip8)">
<rect x="0" y="0" width="16" height="27" style="fill:rgb(0%,0%,0%);fill-opacity:0.97;stroke:none;"/>
</g>
<mask id="mask3">
  <g filter="url(#alpha)">
<use xlink:href="#surface26"/>
  </g>
</mask>
<clipPath id="clip9">
  <rect width="16" height="27"/>
</clipPath>
<g id="surface28" clip-path="url(#clip9)">
<path style="fill:none;stroke-width:1.6;stroke-linecap:round;stroke-linejoin:round;stroke:rgb(100%,0%,0%);stroke-opacity:1;stroke-miterlimit:4;" d="M 224.507812 61.949219 C 230.988281 67.429688 235.152344 75.160156 236.167969 83.589844 " transform="matrix(1,0,0,1,-222,-60)"/>
<path style="fill-rule:evenodd;fill:rgb(100%,0%,0%);fill-opacity:1;stroke-width:0.30541;stroke-linecap:butt;stroke-linejoin:miter;stroke:rgb(100%,0%,0%);stroke-opacity:1;stroke-miterlimit:4;" d="M 162.89127 -74.583329 L 164.112782 -75.803965 L 159.837358 -74.582412 L 164.113831 -73.35954 Z M 162.89127 -74.583329 " transform="matrix(1,0.845784,-0.845784,1,-222,-60)"/>
<path style="fill-rule:evenodd;fill:rgb(100%,0%,0%);fill-opacity:1;stroke-width:0.397133;stroke-linecap:butt;stroke-linejoin:miter;stroke:rgb(100%,0%,0%);stroke-opacity:1;stroke-miterlimit:4;" d="M -108.51242 222.875209 L -106.9226 221.285335 L -112.48103 222.874046 L -106.922546 224.465029 Z M -108.51242 222.875209 " transform="matrix(-0.120376,-1,1,-0.120376,-222,-60)"/>
</g>
<clipPath id="clip10">
  <rect width="9" height="23"/>
</clipPath>
<g id="surface32" clip-path="url(#clip10)">
<rect x="0" y="0" width="9" height="23" style="fill:rgb(0%,0%,0%);fill-opacity:0.97;stroke:none;"/>
</g>
<mask id="mask4">
  <g filter="url(#alpha)">
<use xlink:href="#surface32"/>
  </g>
</mask>
<clipPath id="clip11">
  <rect width="9" height="23"/>
</clipPath>
<g id="surface34" clip-path="url(#clip11)">
<path style="fill:none;stroke-width:1.6;stroke-linecap:round;stroke-linejoin:round;stroke:rgb(100%,0%,0%);stroke-opacity:1;stroke-miterlimit:4;" d="M -338.476562 65.527344 C -335.398438 70.703125 -333.4375 76.460938 -332.71875 82.441406 " transform="matrix(-1,0,0,1,-331,-63)"/>
<path style="fill-rule:evenodd;fill:rgb(100%,0%,0%);fill-opacity:1;stroke-width:0.343818;stroke-linecap:butt;stroke-linejoin:miter;stroke:rgb(100%,0%,0%);stroke-opacity:1;stroke-miterlimit:4;" d="M -98.624264 278.857065 L -97.24721 277.480507 L -102.061384 278.856426 L -97.248876 280.229517 Z M -98.624264 278.857065 " transform="matrix(-0.59457,1,1,0.59457,-331,-63)"/>
<path style="fill-rule:evenodd;fill:rgb(100%,0%,0%);fill-opacity:1;stroke-width:0.397133;stroke-linecap:butt;stroke-linejoin:miter;stroke:rgb(100%,0%,0%);stroke-opacity:1;stroke-miterlimit:4;" d="M -39.878674 -337.745748 L -38.288854 -339.335622 L -43.847284 -337.746911 L -38.288337 -336.159778 Z M -39.878674 -337.745748 " transform="matrix(0.120376,-1,-1,-0.120376,-331,-63)"/>
</g>
<clipPath id="clip12">
  <path d="M 331 93 L 340 93 L 340 108.15625 L 331 108.15625 Z M 331 93 "/>
</clipPath>
<clipPath id="clip13">
  <rect width="52" height="3"/>
</clipPath>
<g id="surface38" clip-path="url(#clip13)">
<rect x="0" y="0" width="52" height="3" style="fill:rgb(0%,0%,0%);fill-opacity:0.97;stroke:none;"/>
</g>
<mask id="mask5">
  <g filter="url(#alpha)">
<use xlink:href="#surface38"/>
  </g>
</mask>
<clipPath id="clip14">
  <rect width="52" height="3"/>
</clipPath>
<g id="surface40" clip-path="url(#clip14)">
<path style="fill:none;stroke-width:0.8;stroke-linecap:round;stroke-linejoin:round;stroke:rgb(100%,0%,0%);stroke-opacity:1;stroke-miterlimit:4;" d="M 207.609375 92.402344 L 255.609375 92.402344 " transform="matrix(1,0,0,1,-206,-91)"/>
<path style="fill-rule:evenodd;fill:rgb(100%,0%,0%);fill-opacity:1;stroke-width:0.2;stroke-linecap:butt;stroke-linejoin:miter;stroke:rgb(100%,0%,0%);stroke-opacity:1;stroke-miterlimit:4;" d="M 208.566406 92.402344 L 209.367188 91.605469 L 206.566406 92.402344 L 209.367188 93.203125 Z M 208.566406 92.402344 " transform="matrix(1,0,0,1,-206,-91)"/>
<path style="fill-rule:evenodd;fill:rgb(100%,0%,0%);fill-opacity:1;stroke-width:0.2;stroke-linecap:butt;stroke-linejoin:miter;stroke:rgb(100%,0%,0%);stroke-opacity:1;stroke-miterlimit:4;" d="M -254.648438 -92.402344 L -253.847656 -93.203125 L -256.648438 -92.402344 L -253.847656 -91.605469 Z M -254.648438 -92.402344 " transform="matrix(-1,0,0,-1,-206,-91)"/>
</g>
<clipPath id="clip15">
  <rect width="110" height="3"/>
</clipPath>
<g id="surface44" clip-path="url(#clip15)">
<rect x="0" y="0" width="110" height="3" style="fill:rgb(0%,0%,0%);fill-opacity:0.97;stroke:none;"/>
</g>
<mask id="mask6">
  <g filter="url(#alpha)">
<use xlink:href="#surface44"/>
  </g>
</mask>
<clipPath id="clip16">
  <rect width="110" height="3"/>
</clipPath>
<g id="surface41" clip-path="url(#clip16)">
<path style="fill:none;stroke-width:0.8;stroke-linecap:round;stroke-linejoin:round;stroke:rgb(100%,0%,0%);stroke-opacity:1;stroke-miterlimit:4;" d="M 265.207031 92.402344 L 370.808594 92.402344 " transform="matrix(1,0,0,1,-263,-91)"/>
<path style="fill-rule:evenodd;fill:rgb(100%,0%,0%);fill-opacity:1;stroke-width:0.2;stroke-linecap:butt;stroke-linejoin:miter;stroke:rgb(100%,0%,0%);stroke-opacity:1;stroke-miterlimit:4;" d="M 266.167969 92.402344 L 266.96875 91.605469 L 264.167969 92.402344 L 266.96875 93.203125 Z M 266.167969 92.402344 " transform="matrix(1,0,0,1,-263,-91)"/>
<path style="fill-rule:evenodd;fill:rgb(100%,0%,0%);fill-opacity:1;stroke-width:0.2;stroke-linecap:butt;stroke-linejoin:miter;stroke:rgb(100%,0%,0%);stroke-opacity:1;stroke-miterlimit:4;" d="M -369.847656 -92.402344 L -369.046875 -93.203125 L -371.847656 -92.402344 L -369.046875 -91.605469 Z M -369.847656 -92.402344 " transform="matrix(-1,0,0,-1,-263,-91)"/>
</g>
</defs>
<g id="surface1">
<path style="fill:none;stroke-width:0.8;stroke-linecap:butt;stroke-linejoin:miter;stroke:rgb(100%,0%,0%);stroke-opacity:1;stroke-miterlimit:4;" d="M 260.40625 82.804688 L 265.207031 82.804688 L 265.207031 87.605469 "/>
<path style="fill:none;stroke-width:0.8;stroke-linecap:butt;stroke-linejoin:miter;stroke:rgb(0%,0%,0%);stroke-opacity:1;stroke-dasharray:0.8,1.6;stroke-miterlimit:4;" d="M 260.40625 1.203125 L 260.40625 97.203125 "/>
<path style="fill:none;stroke-width:2.4;stroke-linecap:butt;stroke-linejoin:round;stroke:rgb(0%,0%,0%);stroke-opacity:1;stroke-miterlimit:4;" d="M 1.207031 87.605469 L 174.007812 87.605469 L 58.808594 1.203125 Z M 1.207031 87.605469 "/>
<use xlink:href="#surface10" transform="matrix(1,0,0,1,20,60)" mask="url(#mask0)"/>
<path style=" stroke:none;fill-rule:nonzero;fill:rgb(0%,0%,0%);fill-opacity:1;" d="M 118.058594 27.417969 C 117.757812 26.816406 117.308594 26.390625 116.582031 26.390625 C 114.734375 26.390625 112.757812 28.742188 112.757812 31.066406 C 112.757812 32.566406 113.632812 33.617188 114.859375 33.617188 C 115.183594 33.617188 115.984375 33.542969 116.933594 32.417969 C 117.058594 33.089844 117.632812 33.617188 118.382812 33.617188 C 118.957031 33.617188 119.308594 33.242188 119.582031 32.742188 C 119.832031 32.167969 120.058594 31.191406 120.058594 31.167969 C 120.058594 30.992188 119.90625 30.992188 119.859375 30.992188 C 119.707031 30.992188 119.683594 31.066406 119.632812 31.292969 C 119.359375 32.316406 119.082031 33.265625 118.433594 33.265625 C 117.984375 33.265625 117.957031 32.839844 117.957031 32.542969 C 117.957031 32.191406 117.984375 32.042969 118.15625 31.339844 C 118.332031 30.691406 118.359375 30.515625 118.507812 29.917969 L 119.082031 27.691406 C 119.183594 27.242188 119.183594 27.214844 119.183594 27.140625 C 119.183594 26.867188 119.007812 26.714844 118.734375 26.714844 C 118.332031 26.714844 118.109375 27.066406 118.058594 27.417969 Z M 117.03125 31.542969 C 116.933594 31.839844 116.933594 31.867188 116.707031 32.140625 C 116.007812 33.015625 115.359375 33.265625 114.90625 33.265625 C 114.109375 33.265625 113.882812 32.390625 113.882812 31.765625 C 113.882812 30.964844 114.382812 29.015625 114.757812 28.265625 C 115.257812 27.339844 115.957031 26.742188 116.609375 26.742188 C 117.632812 26.742188 117.859375 28.042969 117.859375 28.140625 C 117.859375 28.242188 117.832031 28.339844 117.808594 28.417969 Z M 117.03125 31.542969 "/>
<path style=" stroke:none;fill-rule:nonzero;fill:rgb(0%,0%,0%);fill-opacity:1;" d="M 25.320312 29.355469 C 25.320312 29.355469 25.320312 29.179688 25.121094 29.179688 C 24.769531 29.179688 23.59375 29.304688 23.171875 29.355469 C 23.046875 29.355469 22.871094 29.378906 22.871094 29.652344 C 22.871094 29.855469 23.019531 29.855469 23.269531 29.855469 C 24.019531 29.855469 24.046875 29.953125 24.046875 30.128906 C 24.046875 30.230469 23.921875 30.777344 23.84375 31.105469 L 22.519531 36.304688 C 22.34375 37.105469 22.269531 37.378906 22.269531 37.929688 C 22.269531 39.429688 23.121094 40.429688 24.296875 40.429688 C 26.171875 40.429688 28.144531 38.054688 28.144531 35.753906 C 28.144531 34.304688 27.296875 33.203125 26.019531 33.203125 C 25.296875 33.203125 24.621094 33.679688 24.144531 34.152344 Z M 23.84375 35.378906 C 23.921875 35.027344 23.921875 35.003906 24.070312 34.828125 C 24.84375 33.804688 25.570312 33.554688 25.996094 33.554688 C 26.570312 33.554688 26.996094 34.027344 26.996094 35.054688 C 26.996094 36.003906 26.46875 37.828125 26.171875 38.429688 C 25.644531 39.503906 24.921875 40.078125 24.296875 40.078125 C 23.746094 40.078125 23.21875 39.652344 23.21875 38.480469 C 23.21875 38.152344 23.21875 37.855469 23.46875 36.855469 Z M 23.84375 35.378906 "/>
<path style=" stroke:none;fill-rule:nonzero;fill:rgb(0%,0%,0%);fill-opacity:1;" d="M 85.382812 94.589844 C 85.109375 94.589844 84.90625 94.589844 84.683594 94.792969 C 84.40625 95.042969 84.382812 95.316406 84.382812 95.417969 C 84.382812 95.816406 84.683594 95.992188 84.984375 95.992188 C 85.433594 95.992188 85.859375 95.589844 85.859375 94.964844 C 85.859375 94.191406 85.109375 93.589844 83.984375 93.589844 C 81.832031 93.589844 79.707031 95.867188 79.707031 98.117188 C 79.707031 99.566406 80.632812 100.816406 82.308594 100.816406 C 84.582031 100.816406 85.90625 99.117188 85.90625 98.941406 C 85.90625 98.839844 85.832031 98.714844 85.734375 98.714844 C 85.632812 98.714844 85.609375 98.765625 85.507812 98.890625 C 84.257812 100.464844 82.507812 100.464844 82.332031 100.464844 C 81.332031 100.464844 80.882812 99.691406 80.882812 98.714844 C 80.882812 98.066406 81.207031 96.515625 81.757812 95.542969 C 82.257812 94.617188 83.132812 93.941406 84.007812 93.941406 C 84.53125 93.941406 85.15625 94.140625 85.382812 94.589844 Z M 85.382812 94.589844 "/>
<path style=" stroke:none;fill-rule:nonzero;fill:rgb(0%,0%,0%);fill-opacity:1;" d="M 22.882812 77.667969 C 22.882812 75.167969 21.40625 74.390625 20.234375 74.390625 C 18.03125 74.390625 15.933594 76.667969 15.933594 78.917969 C 15.933594 80.417969 16.882812 81.617188 18.53125 81.617188 C 19.53125 81.617188 20.683594 81.242188 21.882812 80.265625 C 22.082031 81.117188 22.609375 81.617188 23.332031 81.617188 C 24.183594 81.617188 24.683594 80.742188 24.683594 80.492188 C 24.683594 80.367188 24.582031 80.316406 24.484375 80.316406 C 24.382812 80.316406 24.332031 80.367188 24.28125 80.492188 C 23.984375 81.265625 23.40625 81.265625 23.382812 81.265625 C 22.882812 81.265625 22.882812 80.015625 22.882812 79.640625 C 22.882812 79.316406 22.882812 79.265625 23.058594 79.089844 C 24.558594 77.191406 24.882812 75.339844 24.882812 75.339844 C 24.882812 75.292969 24.859375 75.167969 24.683594 75.167969 C 24.53125 75.167969 24.53125 75.214844 24.457031 75.515625 C 24.15625 76.515625 23.632812 77.714844 22.882812 78.667969 Z M 21.832031 79.867188 C 20.40625 81.089844 19.183594 81.265625 18.558594 81.265625 C 17.609375 81.265625 17.109375 80.542969 17.109375 79.515625 C 17.109375 78.742188 17.53125 77.015625 18.03125 76.214844 C 18.78125 75.042969 19.65625 74.742188 20.207031 74.742188 C 21.78125 74.742188 21.78125 76.839844 21.78125 78.066406 C 21.78125 78.667969 21.78125 79.589844 21.832031 79.867188 Z M 21.832031 79.867188 "/>
<path style=" stroke:none;fill-rule:nonzero;fill:rgb(0%,0%,0%);fill-opacity:1;" d="M 56.59375 16.566406 C 57.21875 14.742188 58.96875 14.714844 59.144531 14.714844 C 61.546875 14.714844 61.71875 17.515625 61.71875 18.765625 C 61.71875 19.742188 61.644531 20.015625 61.519531 20.339844 C 61.171875 21.492188 60.695312 23.339844 60.695312 23.765625 C 60.695312 23.941406 60.769531 24.042969 60.894531 24.042969 C 61.121094 24.042969 61.246094 23.691406 61.421875 23.089844 C 61.796875 21.742188 61.945312 20.839844 61.996094 20.339844 C 62.046875 20.140625 62.070312 19.941406 62.144531 19.714844 C 62.644531 18.140625 63.671875 15.765625 64.296875 14.515625 C 64.421875 14.316406 64.59375 13.964844 64.59375 13.890625 C 64.59375 13.742188 64.445312 13.742188 64.421875 13.742188 C 64.371094 13.742188 64.269531 13.742188 64.21875 13.839844 C 63.394531 15.367188 62.746094 16.964844 62.121094 18.566406 C 62.09375 18.089844 62.09375 16.867188 61.46875 15.316406 C 61.070312 14.339844 60.445312 13.566406 59.34375 13.566406 C 57.34375 13.566406 56.21875 15.992188 56.21875 16.492188 C 56.21875 16.640625 56.371094 16.640625 56.546875 16.640625 Z M 56.59375 16.566406 "/>
<path style=" stroke:none;fill-rule:nonzero;fill:rgb(0%,0%,0%);fill-opacity:1;" d="M 149.558594 73.003906 C 149.558594 71.804688 148.683594 70.828125 147.382812 70.828125 C 146.457031 70.828125 146.007812 71.078125 145.457031 71.480469 C 144.582031 72.128906 143.707031 73.679688 143.40625 74.878906 L 140.859375 85.003906 C 140.859375 85.078125 140.933594 85.179688 141.058594 85.179688 C 141.183594 85.179688 141.234375 85.128906 141.234375 85.105469 L 142.359375 80.679688 C 142.65625 81.652344 143.359375 82.230469 144.53125 82.230469 C 145.683594 82.230469 146.882812 81.679688 147.609375 80.980469 C 148.382812 80.253906 148.882812 79.230469 148.882812 78.054688 C 148.882812 76.902344 148.28125 76.054688 147.707031 75.679688 C 148.632812 75.128906 149.558594 74.152344 149.558594 73.003906 Z M 146.683594 75.652344 C 146.484375 75.730469 146.308594 75.753906 145.90625 75.753906 C 145.683594 75.753906 145.382812 75.777344 145.207031 75.703125 C 145.257812 75.527344 145.832031 75.578125 146.007812 75.578125 C 146.332031 75.578125 146.484375 75.578125 146.683594 75.652344 Z M 148.65625 72.628906 C 148.65625 73.753906 148.058594 74.902344 147.234375 75.402344 C 146.78125 75.230469 146.484375 75.203125 146.007812 75.203125 C 145.65625 75.203125 144.757812 75.179688 144.757812 75.703125 C 144.757812 76.152344 145.582031 76.105469 145.859375 76.105469 C 146.457031 76.105469 146.707031 76.105469 147.183594 75.902344 C 147.78125 76.480469 147.859375 76.980469 147.882812 77.703125 C 147.90625 78.628906 147.53125 79.828125 147.082031 80.453125 C 146.457031 81.304688 145.382812 81.878906 144.484375 81.878906 C 143.257812 81.878906 142.65625 80.953125 142.65625 79.828125 C 142.65625 79.679688 142.65625 79.429688 142.734375 79.128906 L 143.757812 75.105469 C 144.109375 73.730469 145.257812 71.179688 147.183594 71.179688 C 148.109375 71.179688 148.65625 71.679688 148.65625 72.628906 Z M 148.65625 72.628906 "/>
<use xlink:href="#surface16" transform="matrix(1,0,0,1,129,63)" mask="url(#mask1)"/>
<use xlink:href="#surface22" transform="matrix(1,0,0,1,44,19)" mask="url(#mask2)"/>
<g clip-path="url(#clip7)" clip-rule="nonzero">
<path style="fill:none;stroke-width:2.4;stroke-linecap:butt;stroke-linejoin:round;stroke:rgb(0%,0%,0%);stroke-opacity:1;stroke-miterlimit:4;" d="M 202.808594 87.605469 L 375.609375 87.605469 L 260.40625 1.203125 Z M 202.808594 87.605469 "/>
</g>
<use xlink:href="#surface28" transform="matrix(1,0,0,1,222,60)" mask="url(#mask3)"/>
<path style=" stroke:none;fill-rule:nonzero;fill:rgb(0%,0%,0%);fill-opacity:1;" d="M 319.65625 27.417969 C 319.359375 26.816406 318.90625 26.390625 318.183594 26.390625 C 316.332031 26.390625 314.359375 28.742188 314.359375 31.066406 C 314.359375 32.566406 315.234375 33.617188 316.457031 33.617188 C 316.78125 33.617188 317.582031 33.542969 318.53125 32.417969 C 318.65625 33.089844 319.234375 33.617188 319.984375 33.617188 C 320.558594 33.617188 320.90625 33.242188 321.183594 32.742188 C 321.433594 32.167969 321.65625 31.191406 321.65625 31.167969 C 321.65625 30.992188 321.507812 30.992188 321.457031 30.992188 C 321.308594 30.992188 321.28125 31.066406 321.234375 31.292969 C 320.957031 32.316406 320.683594 33.265625 320.03125 33.265625 C 319.582031 33.265625 319.558594 32.839844 319.558594 32.542969 C 319.558594 32.191406 319.582031 32.042969 319.757812 31.339844 C 319.933594 30.691406 319.957031 30.515625 320.109375 29.917969 L 320.683594 27.691406 C 320.78125 27.242188 320.78125 27.214844 320.78125 27.140625 C 320.78125 26.867188 320.609375 26.714844 320.332031 26.714844 C 319.933594 26.714844 319.707031 27.066406 319.65625 27.417969 Z M 318.632812 31.542969 C 318.53125 31.839844 318.53125 31.867188 318.308594 32.140625 C 317.609375 33.015625 316.957031 33.265625 316.507812 33.265625 C 315.707031 33.265625 315.484375 32.390625 315.484375 31.765625 C 315.484375 30.964844 315.984375 29.015625 316.359375 28.265625 C 316.859375 27.339844 317.558594 26.742188 318.207031 26.742188 C 319.234375 26.742188 319.457031 28.042969 319.457031 28.140625 C 319.457031 28.242188 319.433594 28.339844 319.40625 28.417969 Z M 318.632812 31.542969 "/>
<path style=" stroke:none;fill-rule:nonzero;fill:rgb(0%,0%,0%);fill-opacity:1;" d="M 226.921875 29.355469 C 226.921875 29.355469 226.921875 29.179688 226.71875 29.179688 C 226.371094 29.179688 225.195312 29.304688 224.769531 29.355469 C 224.644531 29.355469 224.46875 29.378906 224.46875 29.652344 C 224.46875 29.855469 224.621094 29.855469 224.871094 29.855469 C 225.621094 29.855469 225.644531 29.953125 225.644531 30.128906 C 225.644531 30.230469 225.519531 30.777344 225.445312 31.105469 L 224.121094 36.304688 C 223.945312 37.105469 223.871094 37.378906 223.871094 37.929688 C 223.871094 39.429688 224.71875 40.429688 225.894531 40.429688 C 227.769531 40.429688 229.746094 38.054688 229.746094 35.753906 C 229.746094 34.304688 228.894531 33.203125 227.621094 33.203125 C 226.894531 33.203125 226.21875 33.679688 225.746094 34.152344 Z M 225.445312 35.378906 C 225.519531 35.027344 225.519531 35.003906 225.671875 34.828125 C 226.445312 33.804688 227.171875 33.554688 227.59375 33.554688 C 228.171875 33.554688 228.59375 34.027344 228.59375 35.054688 C 228.59375 36.003906 228.070312 37.828125 227.769531 38.429688 C 227.246094 39.503906 226.519531 40.078125 225.894531 40.078125 C 225.34375 40.078125 224.820312 39.652344 224.820312 38.480469 C 224.820312 38.152344 224.820312 37.855469 225.070312 36.855469 Z M 225.445312 35.378906 "/>
<path style=" stroke:none;fill-rule:nonzero;fill:rgb(0%,0%,0%);fill-opacity:1;" d="M 224.484375 77.667969 C 224.484375 75.167969 223.007812 74.390625 221.832031 74.390625 C 219.632812 74.390625 217.53125 76.667969 217.53125 78.917969 C 217.53125 80.417969 218.484375 81.617188 220.132812 81.617188 C 221.132812 81.617188 222.28125 81.242188 223.484375 80.265625 C 223.683594 81.117188 224.207031 81.617188 224.933594 81.617188 C 225.78125 81.617188 226.28125 80.742188 226.28125 80.492188 C 226.28125 80.367188 226.183594 80.316406 226.082031 80.316406 C 225.984375 80.316406 225.933594 80.367188 225.882812 80.492188 C 225.582031 81.265625 225.007812 81.265625 224.984375 81.265625 C 224.484375 81.265625 224.484375 80.015625 224.484375 79.640625 C 224.484375 79.316406 224.484375 79.265625 224.65625 79.089844 C 226.15625 77.191406 226.484375 75.339844 226.484375 75.339844 C 226.484375 75.292969 226.457031 75.167969 226.28125 75.167969 C 226.132812 75.167969 226.132812 75.214844 226.058594 75.515625 C 225.757812 76.515625 225.234375 77.714844 224.484375 78.667969 Z M 223.433594 79.867188 C 222.007812 81.089844 220.78125 81.265625 220.15625 81.265625 C 219.207031 81.265625 218.707031 80.542969 218.707031 79.515625 C 218.707031 78.742188 219.132812 77.015625 219.632812 76.214844 C 220.382812 75.042969 221.257812 74.742188 221.808594 74.742188 C 223.382812 74.742188 223.382812 76.839844 223.382812 78.066406 C 223.382812 78.667969 223.382812 79.589844 223.433594 79.867188 Z M 223.433594 79.867188 "/>
<path style=" stroke:none;fill-rule:nonzero;fill:rgb(0%,0%,0%);fill-opacity:1;" d="M 351.15625 73.003906 C 351.15625 71.804688 350.28125 70.828125 348.984375 70.828125 C 348.058594 70.828125 347.609375 71.078125 347.058594 71.480469 C 346.183594 72.128906 345.308594 73.679688 345.007812 74.878906 L 342.457031 85.003906 C 342.457031 85.078125 342.53125 85.179688 342.65625 85.179688 C 342.78125 85.179688 342.832031 85.128906 342.832031 85.105469 L 343.957031 80.679688 C 344.257812 81.652344 344.957031 82.230469 346.132812 82.230469 C 347.28125 82.230469 348.484375 81.679688 349.207031 80.980469 C 349.984375 80.253906 350.484375 79.230469 350.484375 78.054688 C 350.484375 76.902344 349.882812 76.054688 349.308594 75.679688 C 350.234375 75.128906 351.15625 74.152344 351.15625 73.003906 Z M 348.28125 75.652344 C 348.082031 75.730469 347.90625 75.753906 347.507812 75.753906 C 347.28125 75.753906 346.984375 75.777344 346.808594 75.703125 C 346.859375 75.527344 347.433594 75.578125 347.609375 75.578125 C 347.933594 75.578125 348.082031 75.578125 348.28125 75.652344 Z M 350.257812 72.628906 C 350.257812 73.753906 349.65625 74.902344 348.832031 75.402344 C 348.382812 75.230469 348.082031 75.203125 347.609375 75.203125 C 347.257812 75.203125 346.359375 75.179688 346.359375 75.703125 C 346.359375 76.152344 347.183594 76.105469 347.457031 76.105469 C 348.058594 76.105469 348.308594 76.105469 348.78125 75.902344 C 349.382812 76.480469 349.457031 76.980469 349.484375 77.703125 C 349.507812 78.628906 349.132812 79.828125 348.683594 80.453125 C 348.058594 81.304688 346.984375 81.878906 346.082031 81.878906 C 344.859375 81.878906 344.257812 80.953125 344.257812 79.828125 C 344.257812 79.679688 344.257812 79.429688 344.332031 79.128906 L 345.359375 75.105469 C 345.707031 73.730469 346.859375 71.179688 348.78125 71.179688 C 349.707031 71.179688 350.257812 71.679688 350.257812 72.628906 Z M 350.257812 72.628906 "/>
<use xlink:href="#surface34" transform="matrix(1,0,0,1,331,63)" mask="url(#mask4)"/>
<path style=" stroke:none;fill-rule:nonzero;fill:rgb(0%,0%,0%);fill-opacity:1;" d="M 213.589844 94.265625 C 213.589844 94.265625 213.589844 94.089844 213.386719 94.089844 C 213.039062 94.089844 211.863281 94.214844 211.4375 94.265625 C 211.3125 94.265625 211.136719 94.289062 211.136719 94.5625 C 211.136719 94.765625 211.289062 94.765625 211.539062 94.765625 C 212.289062 94.765625 212.3125 94.863281 212.3125 95.039062 C 212.3125 95.140625 212.1875 95.6875 212.113281 96.015625 L 210.789062 101.214844 C 210.613281 102.015625 210.539062 102.289062 210.539062 102.839844 C 210.539062 104.339844 211.386719 105.339844 212.5625 105.339844 C 214.4375 105.339844 216.414062 102.964844 216.414062 100.664062 C 216.414062 99.214844 215.5625 98.113281 214.289062 98.113281 C 213.5625 98.113281 212.886719 98.589844 212.414062 99.0625 Z M 212.113281 100.289062 C 212.1875 99.9375 212.1875 99.914062 212.339844 99.738281 C 213.113281 98.714844 213.839844 98.464844 214.261719 98.464844 C 214.839844 98.464844 215.261719 98.9375 215.261719 99.964844 C 215.261719 100.914062 214.738281 102.738281 214.4375 103.339844 C 213.914062 104.414062 213.1875 104.988281 212.5625 104.988281 C 212.011719 104.988281 211.488281 104.5625 211.488281 103.390625 C 211.488281 103.0625 211.488281 102.765625 211.738281 101.765625 Z M 212.113281 100.289062 "/>
<path style=" stroke:none;fill-rule:nonzero;fill:rgb(0%,0%,0%);fill-opacity:1;" d="M 221.160156 101.6875 C 221.160156 99.089844 222.460938 98.414062 223.3125 98.414062 C 223.460938 98.414062 224.460938 98.4375 225.011719 99.015625 C 224.359375 99.0625 224.261719 99.539062 224.261719 99.738281 C 224.261719 100.164062 224.5625 100.464844 224.984375 100.464844 C 225.410156 100.464844 225.734375 100.214844 225.734375 99.714844 C 225.734375 98.640625 224.511719 98.015625 223.285156 98.015625 C 221.285156 98.015625 219.835938 99.738281 219.835938 101.714844 C 219.835938 103.765625 221.410156 105.339844 223.261719 105.339844 C 225.386719 105.339844 225.910156 103.414062 225.910156 103.265625 C 225.910156 103.113281 225.734375 103.113281 225.6875 103.113281 C 225.5625 103.113281 225.511719 103.164062 225.484375 103.265625 C 225.035156 104.738281 223.984375 104.9375 223.410156 104.9375 C 222.5625 104.9375 221.160156 104.265625 221.160156 101.6875 Z M 221.160156 101.6875 "/>
<path style=" stroke:none;fill-rule:nonzero;fill:rgb(0%,0%,0%);fill-opacity:1;" d="M 233.871094 101.738281 C 233.871094 99.714844 232.292969 98.015625 230.371094 98.015625 C 228.371094 98.015625 226.820312 99.765625 226.820312 101.738281 C 226.820312 103.8125 228.46875 105.339844 230.34375 105.339844 C 232.269531 105.339844 233.871094 103.765625 233.871094 101.738281 Z M 230.371094 104.9375 C 229.667969 104.9375 228.96875 104.613281 228.542969 103.863281 C 228.144531 103.164062 228.144531 102.1875 228.144531 101.613281 C 228.144531 100.988281 228.144531 100.140625 228.519531 99.4375 C 228.945312 98.714844 229.695312 98.363281 230.34375 98.363281 C 231.042969 98.363281 231.71875 98.714844 232.144531 99.414062 C 232.570312 100.089844 232.570312 101.015625 232.570312 101.613281 C 232.570312 102.1875 232.570312 103.0625 232.21875 103.765625 C 231.84375 104.488281 231.144531 104.9375 230.371094 104.9375 Z M 230.371094 104.9375 "/>
<path style=" stroke:none;fill-rule:nonzero;fill:rgb(0%,0%,0%);fill-opacity:1;" d="M 237.664062 102.0625 C 238.015625 102.140625 239.316406 102.390625 239.316406 103.539062 C 239.316406 104.339844 238.765625 104.988281 237.515625 104.988281 C 236.164062 104.988281 235.589844 104.089844 235.289062 102.714844 C 235.238281 102.515625 235.238281 102.464844 235.066406 102.464844 C 234.863281 102.464844 234.863281 102.5625 234.863281 102.839844 L 234.863281 104.964844 C 234.863281 105.238281 234.863281 105.339844 235.039062 105.339844 C 235.113281 105.339844 235.140625 105.3125 235.441406 105.015625 C 235.464844 104.988281 235.464844 104.964844 235.765625 104.664062 C 236.464844 105.3125 237.191406 105.339844 237.515625 105.339844 C 239.339844 105.339844 240.089844 104.265625 240.089844 103.113281 C 240.089844 102.289062 239.613281 101.789062 239.414062 101.613281 C 238.890625 101.089844 238.265625 100.964844 237.589844 100.839844 C 236.691406 100.664062 235.640625 100.464844 235.640625 99.539062 C 235.640625 98.964844 236.039062 98.3125 237.414062 98.3125 C 239.164062 98.3125 239.265625 99.765625 239.289062 100.238281 C 239.289062 100.390625 239.441406 100.390625 239.464844 100.390625 C 239.691406 100.390625 239.691406 100.3125 239.691406 100.015625 L 239.691406 98.390625 C 239.691406 98.140625 239.691406 98.015625 239.515625 98.015625 C 239.441406 98.015625 239.390625 98.015625 239.191406 98.214844 C 239.140625 98.265625 238.988281 98.414062 238.914062 98.464844 C 238.316406 98.015625 237.664062 98.015625 237.414062 98.015625 C 235.464844 98.015625 234.863281 99.089844 234.863281 99.988281 C 234.863281 100.539062 235.113281 100.988281 235.539062 101.339844 C 236.066406 101.738281 236.515625 101.839844 237.664062 102.0625 Z M 237.664062 102.0625 "/>
<path style=" stroke:none;fill-rule:nonzero;fill:rgb(0%,0%,0%);fill-opacity:1;" d="M 250.882812 101.390625 C 250.882812 98.890625 249.410156 98.113281 248.234375 98.113281 C 246.035156 98.113281 243.933594 100.390625 243.933594 102.640625 C 243.933594 104.140625 244.882812 105.339844 246.535156 105.339844 C 247.535156 105.339844 248.683594 104.964844 249.882812 103.988281 C 250.085938 104.839844 250.609375 105.339844 251.335938 105.339844 C 252.183594 105.339844 252.683594 104.464844 252.683594 104.214844 C 252.683594 104.089844 252.585938 104.039062 252.484375 104.039062 C 252.382812 104.039062 252.335938 104.089844 252.285156 104.214844 C 251.984375 104.988281 251.410156 104.988281 251.382812 104.988281 C 250.882812 104.988281 250.882812 103.738281 250.882812 103.363281 C 250.882812 103.039062 250.882812 102.988281 251.058594 102.8125 C 252.558594 100.914062 252.882812 99.0625 252.882812 99.0625 C 252.882812 99.015625 252.859375 98.890625 252.683594 98.890625 C 252.535156 98.890625 252.535156 98.9375 252.460938 99.238281 C 252.160156 100.238281 251.632812 101.4375 250.882812 102.390625 Z M 249.835938 103.589844 C 248.410156 104.8125 247.183594 104.988281 246.558594 104.988281 C 245.609375 104.988281 245.109375 104.265625 245.109375 103.238281 C 245.109375 102.464844 245.535156 100.738281 246.035156 99.9375 C 246.785156 98.765625 247.660156 98.464844 248.210938 98.464844 C 249.785156 98.464844 249.785156 100.5625 249.785156 101.789062 C 249.785156 102.390625 249.785156 103.3125 249.835938 103.589844 Z M 249.835938 103.589844 "/>
<path style=" stroke:none;fill-rule:nonzero;fill:rgb(0%,0%,0%);fill-opacity:1;" d="M 301.476562 99.03125 C 301.175781 98.433594 300.726562 98.007812 300.003906 98.007812 C 298.152344 98.007812 296.175781 100.355469 296.175781 102.683594 C 296.175781 104.183594 297.050781 105.230469 298.277344 105.230469 C 298.601562 105.230469 299.402344 105.15625 300.351562 104.03125 C 300.476562 104.707031 301.050781 105.230469 301.800781 105.230469 C 302.378906 105.230469 302.726562 104.855469 303.003906 104.355469 C 303.253906 103.78125 303.476562 102.808594 303.476562 102.78125 C 303.476562 102.605469 303.328125 102.605469 303.277344 102.605469 C 303.128906 102.605469 303.101562 102.683594 303.050781 102.90625 C 302.777344 103.933594 302.503906 104.882812 301.851562 104.882812 C 301.402344 104.882812 301.378906 104.457031 301.378906 104.15625 C 301.378906 103.808594 301.402344 103.65625 301.578125 102.957031 C 301.753906 102.308594 301.777344 102.132812 301.925781 101.53125 L 302.503906 99.308594 C 302.601562 98.855469 302.601562 98.832031 302.601562 98.757812 C 302.601562 98.480469 302.425781 98.332031 302.152344 98.332031 C 301.753906 98.332031 301.527344 98.683594 301.476562 99.03125 Z M 300.453125 103.15625 C 300.351562 103.457031 300.351562 103.480469 300.128906 103.757812 C 299.425781 104.632812 298.777344 104.882812 298.328125 104.882812 C 297.527344 104.882812 297.300781 104.007812 297.300781 103.382812 C 297.300781 102.582031 297.800781 100.632812 298.175781 99.882812 C 298.675781 98.957031 299.378906 98.355469 300.027344 98.355469 C 301.050781 98.355469 301.277344 99.65625 301.277344 99.757812 C 301.277344 99.855469 301.253906 99.957031 301.226562 100.03125 Z M 300.453125 103.15625 "/>
<path style=" stroke:none;fill-rule:nonzero;fill:rgb(0%,0%,0%);fill-opacity:1;" d="M 308.484375 101.582031 C 308.484375 98.980469 309.785156 98.308594 310.636719 98.308594 C 310.785156 98.308594 311.785156 98.332031 312.335938 98.90625 C 311.683594 98.957031 311.585938 99.433594 311.585938 99.632812 C 311.585938 100.058594 311.886719 100.355469 312.308594 100.355469 C 312.734375 100.355469 313.058594 100.105469 313.058594 99.605469 C 313.058594 98.53125 311.835938 97.90625 310.609375 97.90625 C 308.609375 97.90625 307.160156 99.632812 307.160156 101.605469 C 307.160156 103.65625 308.734375 105.230469 310.585938 105.230469 C 312.710938 105.230469 313.234375 103.308594 313.234375 103.15625 C 313.234375 103.007812 313.058594 103.007812 313.011719 103.007812 C 312.886719 103.007812 312.835938 103.058594 312.808594 103.15625 C 312.359375 104.632812 311.308594 104.832031 310.734375 104.832031 C 309.886719 104.832031 308.484375 104.15625 308.484375 101.582031 Z M 308.484375 101.582031 "/>
<path style=" stroke:none;fill-rule:nonzero;fill:rgb(0%,0%,0%);fill-opacity:1;" d="M 321.195312 101.632812 C 321.195312 99.605469 319.617188 97.90625 317.695312 97.90625 C 315.695312 97.90625 314.144531 99.65625 314.144531 101.632812 C 314.144531 103.707031 315.792969 105.230469 317.667969 105.230469 C 319.59375 105.230469 321.195312 103.65625 321.195312 101.632812 Z M 317.695312 104.832031 C 316.992188 104.832031 316.292969 104.507812 315.867188 103.757812 C 315.46875 103.058594 315.46875 102.082031 315.46875 101.507812 C 315.46875 100.882812 315.46875 100.03125 315.84375 99.332031 C 316.269531 98.605469 317.019531 98.257812 317.667969 98.257812 C 318.367188 98.257812 319.042969 98.605469 319.46875 99.308594 C 319.894531 99.980469 319.894531 100.90625 319.894531 101.507812 C 319.894531 102.082031 319.894531 102.957031 319.542969 103.65625 C 319.167969 104.382812 318.46875 104.832031 317.695312 104.832031 Z M 317.695312 104.832031 "/>
<path style=" stroke:none;fill-rule:nonzero;fill:rgb(0%,0%,0%);fill-opacity:1;" d="M 324.988281 101.957031 C 325.339844 102.03125 326.640625 102.28125 326.640625 103.433594 C 326.640625 104.230469 326.089844 104.882812 324.839844 104.882812 C 323.488281 104.882812 322.914062 103.980469 322.613281 102.605469 C 322.5625 102.40625 322.5625 102.355469 322.390625 102.355469 C 322.1875 102.355469 322.1875 102.457031 322.1875 102.730469 L 322.1875 104.855469 C 322.1875 105.132812 322.1875 105.230469 322.363281 105.230469 C 322.4375 105.230469 322.464844 105.207031 322.765625 104.90625 C 322.789062 104.882812 322.789062 104.855469 323.089844 104.558594 C 323.789062 105.207031 324.515625 105.230469 324.839844 105.230469 C 326.664062 105.230469 327.414062 104.15625 327.414062 103.007812 C 327.414062 102.183594 326.9375 101.683594 326.738281 101.507812 C 326.214844 100.980469 325.589844 100.855469 324.914062 100.730469 C 324.015625 100.558594 322.964844 100.355469 322.964844 99.433594 C 322.964844 98.855469 323.363281 98.207031 324.738281 98.207031 C 326.488281 98.207031 326.589844 99.65625 326.613281 100.132812 C 326.613281 100.28125 326.765625 100.28125 326.789062 100.28125 C 327.015625 100.28125 327.015625 100.207031 327.015625 99.90625 L 327.015625 98.28125 C 327.015625 98.03125 327.015625 97.90625 326.839844 97.90625 C 326.765625 97.90625 326.714844 97.90625 326.515625 98.105469 C 326.464844 98.15625 326.3125 98.308594 326.238281 98.355469 C 325.640625 97.90625 324.988281 97.90625 324.738281 97.90625 C 322.789062 97.90625 322.1875 98.980469 322.1875 99.882812 C 322.1875 100.433594 322.4375 100.882812 322.863281 101.230469 C 323.390625 101.632812 323.839844 101.730469 324.988281 101.957031 Z M 324.988281 101.957031 "/>
<g clip-path="url(#clip12)" clip-rule="nonzero">
<path style=" stroke:none;fill-rule:nonzero;fill:rgb(0%,0%,0%);fill-opacity:1;" d="M 339.785156 95.980469 C 339.785156 94.78125 338.910156 93.808594 337.609375 93.808594 C 336.683594 93.808594 336.234375 94.058594 335.683594 94.457031 C 334.808594 95.105469 333.933594 96.65625 333.632812 97.855469 L 331.082031 107.980469 C 331.082031 108.058594 331.160156 108.15625 331.285156 108.15625 C 331.410156 108.15625 331.457031 108.105469 331.457031 108.082031 L 332.582031 103.65625 C 332.882812 104.632812 333.582031 105.207031 334.757812 105.207031 C 335.910156 105.207031 337.109375 104.65625 337.832031 103.957031 C 338.609375 103.230469 339.109375 102.207031 339.109375 101.03125 C 339.109375 99.882812 338.507812 99.03125 337.933594 98.65625 C 338.859375 98.105469 339.785156 97.132812 339.785156 95.980469 Z M 336.910156 98.632812 C 336.707031 98.707031 336.535156 98.730469 336.132812 98.730469 C 335.910156 98.730469 335.609375 98.757812 335.433594 98.683594 C 335.484375 98.507812 336.058594 98.558594 336.234375 98.558594 C 336.558594 98.558594 336.707031 98.558594 336.910156 98.632812 Z M 338.882812 95.605469 C 338.882812 96.730469 338.285156 97.882812 337.457031 98.382812 C 337.007812 98.207031 336.707031 98.183594 336.234375 98.183594 C 335.882812 98.183594 334.984375 98.15625 334.984375 98.683594 C 334.984375 99.132812 335.808594 99.082031 336.082031 99.082031 C 336.683594 99.082031 336.933594 99.082031 337.410156 98.882812 C 338.007812 99.457031 338.082031 99.957031 338.109375 100.683594 C 338.132812 101.605469 337.757812 102.808594 337.308594 103.433594 C 336.683594 104.28125 335.609375 104.855469 334.707031 104.855469 C 333.484375 104.855469 332.882812 103.933594 332.882812 102.808594 C 332.882812 102.65625 332.882812 102.40625 332.957031 102.105469 L 333.984375 98.082031 C 334.332031 96.707031 335.484375 94.15625 337.410156 94.15625 C 338.332031 94.15625 338.882812 94.65625 338.882812 95.605469 Z M 338.882812 95.605469 "/>
</g>
<use xlink:href="#surface40" transform="matrix(1,0,0,1,206,91)" mask="url(#mask5)"/>
<use xlink:href="#surface41" transform="matrix(1,0,0,1,263,91)" mask="url(#mask6)"/>
</g>
</svg>
