<?xml version="1.0" encoding="UTF-8"?>
<svg xmlns="http://www.w3.org/2000/svg" xmlns:xlink="http://www.w3.org/1999/xlink" width="116.011391pt" height="77.263725pt" viewBox="0 0 116.011391 77.263725" version="1.1">
<defs>
<clipPath id="clip1">
  <path d="M 57 9 L 59 9 L 59 77.265625 L 57 77.265625 Z M 57 9 "/>
</clipPath>
<clipPath id="clip2">
  <path d="M 0 42 L 116.011719 42 L 116.011719 44 L 0 44 Z M 0 42 "/>
</clipPath>
<clipPath id="clip3">
  <path d="M 57 23 L 116.011719 23 L 116.011719 25 L 57 25 Z M 57 23 "/>
</clipPath>
<filter id="alpha" filterUnits="objectBoundingBox" x="0%" y="0%" width="100%" height="100%">
  <feColorMatrix type="matrix" in="SourceGraphic" values="0 0 0 0 1 0 0 0 0 1 0 0 0 0 1 0 0 0 1 0"/>
</filter>
<clipPath id="clip4">
  <rect width="6" height="7"/>
</clipPath>
<g id="surface8" clip-path="url(#clip4)">
<rect x="0" y="0" width="6" height="7" style="fill:rgb(0%,0%,0%);fill-opacity:0.97;stroke:none;"/>
</g>
<mask id="mask0">
  <g filter="url(#alpha)">
<use xlink:href="#surface8"/>
  </g>
</mask>
<clipPath id="clip5">
  <rect width="6" height="7"/>
</clipPath>
<g id="surface10" clip-path="url(#clip5)">
<path style="fill-rule:nonzero;fill:rgb(100%,100%,100%);fill-opacity:1;stroke-width:0.8;stroke-linecap:butt;stroke-linejoin:round;stroke:rgb(0%,0%,0%);stroke-opacity:1;stroke-miterlimit:4;" d="M 60.382812 62.578125 C 60.382812 63.90625 59.308594 64.980469 57.980469 64.980469 C 56.65625 64.980469 55.582031 63.90625 55.582031 62.578125 C 55.582031 61.253906 56.65625 60.179687 57.980469 60.179687 C 59.308594 60.179687 60.382812 61.253906 60.382812 62.578125 Z M 60.382812 62.578125 " transform="matrix(1,0,0,1,-55,-59)"/>
</g>
<clipPath id="clip6">
  <rect width="6" height="6"/>
</clipPath>
<g id="surface14" clip-path="url(#clip6)">
<rect x="0" y="0" width="6" height="6" style="fill:rgb(0%,0%,0%);fill-opacity:0.97;stroke:none;"/>
</g>
<mask id="mask1">
  <g filter="url(#alpha)">
<use xlink:href="#surface14"/>
  </g>
</mask>
<clipPath id="clip7">
  <rect width="6" height="6"/>
</clipPath>
<g id="surface11" clip-path="url(#clip7)">
<path style="fill-rule:nonzero;fill:rgb(100%,100%,100%);fill-opacity:1;stroke-width:0.8;stroke-linecap:butt;stroke-linejoin:round;stroke:rgb(0%,0%,0%);stroke-opacity:1;stroke-miterlimit:4;" d="M 60.300781 24.078125 C 60.300781 25.40625 59.226562 26.480469 57.902344 26.480469 C 56.578125 26.480469 55.5 25.40625 55.5 24.078125 C 55.5 22.753906 56.578125 21.679687 57.902344 21.679687 C 59.226562 21.679687 60.300781 22.753906 60.300781 24.078125 Z M 60.300781 24.078125 " transform="matrix(1,0,0,1,-55,-21)"/>
</g>
</defs>
<g id="surface1">
<g clip-path="url(#clip1)" clip-rule="nonzero">
<path style="fill:none;stroke-width:0.8;stroke-linecap:round;stroke-linejoin:round;stroke:rgb(100%,0%,0%);stroke-opacity:1;stroke-miterlimit:4;" d="M 58.019531 9.652344 L 58.019531 76.851562 "/>
</g>
<g clip-path="url(#clip2)" clip-rule="nonzero">
<path style="fill:none;stroke-width:0.8;stroke-linecap:round;stroke-linejoin:round;stroke:rgb(100%,0%,0%);stroke-opacity:1;stroke-miterlimit:4;" d="M 0.40625 43.371094 L 115.605469 43.371094 "/>
</g>
<path style=" stroke:none;fill-rule:nonzero;fill:rgb(0%,0%,0%);fill-opacity:1;" d="M 67.539062 6.109375 C 67.59375 5.941406 67.59375 5.921875 67.59375 5.828125 C 67.59375 5.621094 67.425781 5.511719 67.238281 5.511719 C 67.125 5.511719 66.9375 5.585938 66.824219 5.753906 C 66.808594 5.828125 66.695312 6.183594 66.65625 6.410156 C 66.5625 6.710938 66.488281 7.046875 66.414062 7.367188 L 65.871094 9.523438 C 65.832031 9.691406 65.308594 10.535156 64.519531 10.535156 C 63.917969 10.535156 63.789062 10.011719 63.789062 9.558594 C 63.789062 9.015625 63.996094 8.265625 64.386719 7.214844 C 64.574219 6.730469 64.632812 6.597656 64.632812 6.355469 C 64.632812 5.828125 64.257812 5.378906 63.65625 5.378906 C 62.511719 5.378906 62.082031 7.121094 62.082031 7.214844 C 62.082031 7.347656 62.195312 7.347656 62.214844 7.347656 C 62.34375 7.347656 62.34375 7.308594 62.402344 7.121094 C 62.738281 5.996094 63.207031 5.640625 63.621094 5.640625 C 63.714844 5.640625 63.917969 5.640625 63.917969 6.015625 C 63.917969 6.316406 63.789062 6.636719 63.714844 6.859375 C 63.226562 8.136719 63.019531 8.808594 63.019531 9.371094 C 63.019531 10.441406 63.769531 10.796875 64.480469 10.796875 C 64.949219 10.796875 65.34375 10.589844 65.683594 10.253906 C 65.53125 10.871094 65.382812 11.472656 64.914062 12.109375 C 64.59375 12.503906 64.144531 12.859375 63.601562 12.859375 C 63.433594 12.859375 62.886719 12.824219 62.683594 12.355469 C 62.871094 12.355469 63.039062 12.355469 63.1875 12.203125 C 63.320312 12.109375 63.433594 11.941406 63.433594 11.714844 C 63.433594 11.339844 63.113281 11.304688 63 11.304688 C 62.71875 11.304688 62.324219 11.492188 62.324219 12.074219 C 62.324219 12.671875 62.851562 13.121094 63.601562 13.121094 C 64.820312 13.121094 66.058594 12.035156 66.394531 10.683594 Z M 67.539062 6.109375 "/>
<path style=" stroke:none;fill-rule:nonzero;fill:rgb(0%,0%,0%);fill-opacity:1;" d="M 110.8125 47.207031 C 110.886719 46.90625 111.167969 45.800781 111.992188 45.800781 C 112.046875 45.800781 112.347656 45.800781 112.59375 45.949219 C 112.253906 46.027344 112.03125 46.308594 112.03125 46.605469 C 112.03125 46.792969 112.160156 47.019531 112.480469 47.019531 C 112.742188 47.019531 113.117188 46.8125 113.117188 46.324219 C 113.117188 45.707031 112.421875 45.539062 112.011719 45.539062 C 111.316406 45.539062 110.90625 46.175781 110.753906 46.4375 C 110.453125 45.652344 109.816406 45.539062 109.460938 45.539062 C 108.222656 45.539062 107.53125 47.074219 107.53125 47.375 C 107.53125 47.507812 107.660156 47.507812 107.679688 47.507812 C 107.773438 47.507812 107.8125 47.46875 107.828125 47.375 C 108.242188 46.101562 109.03125 45.800781 109.441406 45.800781 C 109.667969 45.800781 110.078125 45.914062 110.078125 46.605469 C 110.078125 46.980469 109.875 47.769531 109.441406 49.457031 C 109.253906 50.1875 108.824219 50.695312 108.296875 50.695312 C 108.222656 50.695312 107.960938 50.695312 107.699219 50.542969 C 108 50.46875 108.261719 50.226562 108.261719 49.886719 C 108.261719 49.570312 108 49.476562 107.828125 49.476562 C 107.453125 49.476562 107.171875 49.777344 107.171875 50.167969 C 107.171875 50.714844 107.753906 50.957031 108.28125 50.957031 C 109.085938 50.957031 109.515625 50.113281 109.535156 50.058594 C 109.6875 50.488281 110.117188 50.957031 110.828125 50.957031 C 112.066406 50.957031 112.742188 49.417969 112.742188 49.121094 C 112.742188 48.988281 112.648438 48.988281 112.609375 48.988281 C 112.5 48.988281 112.480469 49.042969 112.441406 49.121094 C 112.046875 50.414062 111.242188 50.695312 110.867188 50.695312 C 110.398438 50.695312 110.210938 50.320312 110.210938 49.90625 C 110.210938 49.644531 110.265625 49.382812 110.398438 48.855469 Z M 110.8125 47.207031 "/>
<g clip-path="url(#clip3)" clip-rule="nonzero">
<path style="fill:none;stroke-width:1.6;stroke-linecap:butt;stroke-linejoin:miter;stroke:rgb(0%,0%,0%);stroke-opacity:1;stroke-miterlimit:4;" d="M 58.402344 24.171875 L 116 24.171875 "/>
</g>
<path style=" stroke:none;fill-rule:nonzero;fill:rgb(0%,0%,0%);fill-opacity:1;" d="M 106.496094 0.09375 L 106.496094 0.394531 C 107.058594 0.394531 107.117188 0.46875 107.117188 0.863281 L 107.117188 2.605469 C 106.816406 2.304688 106.402344 2.117188 105.953125 2.117188 C 104.828125 2.117188 103.910156 2.960938 103.910156 4.011719 C 103.910156 5.0625 104.792969 5.886719 105.839844 5.886719 C 106.535156 5.886719 106.949219 5.53125 107.078125 5.382812 L 107.078125 5.886719 L 108.371094 5.8125 L 108.371094 5.511719 C 107.808594 5.511719 107.753906 5.457031 107.753906 5.042969 L 107.753906 0 Z M 107.078125 4.929688 C 106.871094 5.324219 106.441406 5.664062 105.898438 5.664062 C 105.429688 5.664062 105.089844 5.382812 104.921875 5.136719 C 104.753906 4.894531 104.660156 4.554688 104.660156 4.03125 C 104.660156 3.824219 104.660156 3.207031 104.996094 2.8125 C 105.335938 2.4375 105.746094 2.363281 105.992188 2.363281 C 106.386719 2.363281 106.761719 2.550781 106.984375 2.851562 C 107.078125 2.980469 107.078125 2.980469 107.078125 3.148438 Z M 107.078125 4.929688 "/>
<path style=" stroke:none;fill-rule:nonzero;fill:rgb(0%,0%,0%);fill-opacity:1;" d="M 113.445312 2.664062 C 113.484375 2.550781 113.484375 2.53125 113.484375 2.476562 C 113.484375 2.304688 113.351562 2.210938 113.203125 2.210938 C 113.109375 2.210938 112.960938 2.25 112.867188 2.398438 C 112.828125 2.457031 112.773438 2.71875 112.734375 2.886719 L 112.546875 3.582031 C 112.507812 3.789062 112.246094 4.835938 112.210938 4.929688 C 112.210938 4.929688 111.835938 5.664062 111.195312 5.664062 C 110.617188 5.664062 110.617188 5.117188 110.617188 4.96875 C 110.617188 4.519531 110.804688 3.992188 111.066406 3.335938 C 111.160156 3.074219 111.195312 2.980469 111.195312 2.832031 C 111.195312 2.4375 110.859375 2.117188 110.410156 2.117188 C 109.566406 2.117188 109.191406 3.261719 109.191406 3.414062 C 109.191406 3.507812 109.304688 3.507812 109.339844 3.507812 C 109.453125 3.507812 109.453125 3.46875 109.492188 3.375 C 109.695312 2.679688 110.054688 2.363281 110.390625 2.363281 C 110.523438 2.363281 110.597656 2.457031 110.597656 2.644531 C 110.597656 2.851562 110.523438 3.019531 110.484375 3.132812 C 110.070312 4.164062 109.996094 4.460938 109.996094 4.835938 C 109.996094 4.96875 109.996094 5.363281 110.316406 5.644531 C 110.578125 5.851562 110.933594 5.886719 111.160156 5.886719 C 111.496094 5.886719 111.796875 5.773438 112.058594 5.511719 C 111.964844 5.980469 111.871094 6.335938 111.515625 6.75 C 111.289062 7.011719 110.953125 7.273438 110.503906 7.273438 C 110.445312 7.273438 110.054688 7.273438 109.882812 7.011719 C 110.335938 6.957031 110.335938 6.5625 110.335938 6.542969 C 110.335938 6.28125 110.089844 6.226562 110.015625 6.226562 C 109.808594 6.226562 109.527344 6.394531 109.527344 6.789062 C 109.527344 7.199219 109.921875 7.519531 110.523438 7.519531 C 111.367188 7.519531 112.398438 6.863281 112.660156 5.8125 Z M 113.445312 2.664062 "/>
<path style="fill:none;stroke-width:0.4776;stroke-linecap:butt;stroke-linejoin:miter;stroke:rgb(0%,0%,0%);stroke-opacity:1;stroke-miterlimit:10;" d="M 103.382812 -8.15625 L 114.082031 -8.15625 " transform="matrix(1,0,0,-1,0,0)"/>
<path style=" stroke:none;fill-rule:nonzero;fill:rgb(0%,0%,0%);fill-opacity:1;" d="M 106.363281 9.550781 L 106.363281 9.851562 C 106.925781 9.851562 106.980469 9.925781 106.980469 10.320312 L 106.980469 12.0625 C 106.679688 11.761719 106.269531 11.574219 105.820312 11.574219 C 104.695312 11.574219 103.773438 12.417969 103.773438 13.46875 C 103.773438 14.519531 104.65625 15.34375 105.707031 15.34375 C 106.398438 15.34375 106.8125 14.988281 106.945312 14.835938 L 106.945312 15.34375 L 108.238281 15.269531 L 108.238281 14.96875 C 107.675781 14.96875 107.617188 14.914062 107.617188 14.5 L 107.617188 9.457031 Z M 106.945312 14.386719 C 106.738281 14.78125 106.304688 15.117188 105.761719 15.117188 C 105.292969 15.117188 104.957031 14.835938 104.789062 14.59375 C 104.617188 14.351562 104.523438 14.011719 104.523438 13.488281 C 104.523438 13.28125 104.523438 12.664062 104.863281 12.269531 C 105.199219 11.894531 105.613281 11.820312 105.855469 11.820312 C 106.25 11.820312 106.625 12.007812 106.851562 12.304688 C 106.945312 12.4375 106.945312 12.4375 106.945312 12.605469 Z M 106.945312 14.386719 "/>
<path style=" stroke:none;fill-rule:nonzero;fill:rgb(0%,0%,0%);fill-opacity:1;" d="M 110.742188 14.386719 C 110.667969 14.667969 110.386719 15.117188 109.953125 15.117188 C 109.9375 15.117188 109.671875 15.117188 109.503906 15.007812 C 109.84375 14.894531 109.878906 14.59375 109.878906 14.539062 C 109.878906 14.351562 109.730469 14.238281 109.542969 14.238281 C 109.296875 14.238281 109.054688 14.425781 109.054688 14.742188 C 109.054688 15.15625 109.523438 15.34375 109.9375 15.34375 C 110.328125 15.34375 110.667969 15.117188 110.875 14.761719 C 111.078125 15.195312 111.53125 15.34375 111.867188 15.34375 C 112.84375 15.34375 113.347656 14.3125 113.347656 14.070312 C 113.347656 13.957031 113.234375 13.957031 113.21875 13.957031 C 113.085938 13.957031 113.085938 14.011719 113.046875 14.105469 C 112.878906 14.6875 112.375 15.117188 111.90625 15.117188 C 111.566406 15.117188 111.398438 14.894531 111.398438 14.574219 C 111.398438 14.351562 111.605469 13.601562 111.828125 12.664062 C 112 12.023438 112.375 11.820312 112.65625 11.820312 C 112.671875 11.820312 112.917969 11.820312 113.105469 11.929688 C 112.84375 12.007812 112.730469 12.25 112.730469 12.398438 C 112.730469 12.570312 112.878906 12.699219 113.066406 12.699219 C 113.253906 12.699219 113.535156 12.550781 113.535156 12.195312 C 113.535156 11.726562 112.992188 11.574219 112.671875 11.574219 C 112.242188 11.574219 111.90625 11.855469 111.734375 12.175781 C 111.585938 11.835938 111.191406 11.574219 110.722656 11.574219 C 109.785156 11.574219 109.261719 12.605469 109.261719 12.867188 C 109.261719 12.960938 109.375 12.960938 109.390625 12.960938 C 109.503906 12.960938 109.503906 12.945312 109.5625 12.832031 C 109.765625 12.175781 110.292969 11.820312 110.703125 11.820312 C 110.984375 11.820312 111.210938 11.96875 111.210938 12.363281 C 111.210938 12.53125 111.097656 12.945312 111.023438 13.242188 Z M 110.742188 14.386719 "/>
<path style="fill:none;stroke-width:1.6;stroke-linecap:butt;stroke-linejoin:miter;stroke:rgb(0%,0%,0%);stroke-opacity:1;stroke-miterlimit:4;" d="M 0.710938 62.566406 L 58.3125 62.566406 "/>
<use xlink:href="#surface10" transform="matrix(1,0,0,1,55,59)" mask="url(#mask0)"/>
<use xlink:href="#surface11" transform="matrix(1,0,0,1,55,21)" mask="url(#mask1)"/>
</g>
</svg>
