<?xml version="1.0" encoding="UTF-8"?>
<svg xmlns="http://www.w3.org/2000/svg" xmlns:xlink="http://www.w3.org/1999/xlink" width="263.355804pt" height="174.399994pt" viewBox="0 0 263.355804 174.399994" version="1.1">
<defs>
<clipPath id="clip1">
  <path d="M 0 0 L 241 0 L 241 174.398438 L 0 174.398438 Z M 0 0 "/>
</clipPath>
<clipPath id="clip2">
  <path d="M 258 100 L 263.355469 100 L 263.355469 111 L 258 111 Z M 258 100 "/>
</clipPath>
</defs>
<g id="surface1">
<path style="fill:none;stroke-width:0.8;stroke-linecap:butt;stroke-linejoin:miter;stroke:rgb(0%,0%,0%);stroke-opacity:1;stroke-dasharray:0.8,1.6;stroke-miterlimit:4;" d="M 115.988281 0.800781 L 115.988281 173.601562 "/>
<path style="fill:none;stroke-width:0.8;stroke-linecap:butt;stroke-linejoin:miter;stroke:rgb(100%,0%,0%);stroke-opacity:1;stroke-miterlimit:4;" d="M 120.789062 92 L 135.1875 106.398438 L 154.390625 106.398438 "/>
<path style="fill-rule:evenodd;fill:rgb(100%,0%,0%);fill-opacity:1;stroke-width:0.282843;stroke-linecap:butt;stroke-linejoin:miter;stroke:rgb(100%,0%,0%);stroke-opacity:1;stroke-miterlimit:4;" d="M 108.65625 -14.394531 L 109.789062 -15.527344 L 105.828125 -14.394531 L 109.789062 -13.261719 Z M 108.65625 -14.394531 " transform="matrix(1,1,-1,1,0,0)"/>
<path style="fill-rule:evenodd;fill:rgb(100%,0%,0%);fill-opacity:1;stroke-width:0.4;stroke-linecap:butt;stroke-linejoin:miter;stroke:rgb(100%,0%,0%);stroke-opacity:1;stroke-miterlimit:4;" d="M 155.957031 106.398438 C 155.957031 107.28125 155.242188 108 154.355469 108 C 153.472656 108 152.757812 107.28125 152.757812 106.398438 C 152.757812 105.515625 153.472656 104.800781 154.355469 104.800781 C 155.242188 104.800781 155.957031 105.515625 155.957031 106.398438 Z M 155.957031 106.398438 "/>
<path style=" stroke:none;fill-rule:nonzero;fill:rgb(0%,0%,0%);fill-opacity:1;" d="M 33.433594 104.984375 C 33.433594 102.386719 34.734375 101.710938 35.585938 101.710938 C 35.734375 101.710938 36.734375 101.734375 37.285156 102.3125 C 36.632812 102.359375 36.535156 102.835938 36.535156 103.035156 C 36.535156 103.460938 36.835938 103.761719 37.257812 103.761719 C 37.683594 103.761719 38.007812 103.511719 38.007812 103.011719 C 38.007812 101.9375 36.785156 101.3125 35.558594 101.3125 C 33.558594 101.3125 32.109375 103.035156 32.109375 105.011719 C 32.109375 107.0625 33.683594 108.636719 35.535156 108.636719 C 37.660156 108.636719 38.183594 106.710938 38.183594 106.5625 C 38.183594 106.410156 38.007812 106.410156 37.960938 106.410156 C 37.835938 106.410156 37.785156 106.460938 37.757812 106.5625 C 37.308594 108.035156 36.257812 108.234375 35.683594 108.234375 C 34.835938 108.234375 33.433594 107.5625 33.433594 104.984375 Z M 33.433594 104.984375 "/>
<path style=" stroke:none;fill-rule:nonzero;fill:rgb(0%,0%,0%);fill-opacity:1;" d="M 46.144531 105.035156 C 46.144531 103.011719 44.566406 101.3125 42.644531 101.3125 C 40.644531 101.3125 39.09375 103.0625 39.09375 105.035156 C 39.09375 107.109375 40.742188 108.636719 42.617188 108.636719 C 44.542969 108.636719 46.144531 107.0625 46.144531 105.035156 Z M 42.644531 108.234375 C 41.941406 108.234375 41.242188 107.910156 40.816406 107.160156 C 40.417969 106.460938 40.417969 105.484375 40.417969 104.910156 C 40.417969 104.285156 40.417969 103.4375 40.792969 102.734375 C 41.21875 102.011719 41.96875 101.660156 42.617188 101.660156 C 43.316406 101.660156 43.992188 102.011719 44.417969 102.710938 C 44.84375 103.386719 44.84375 104.3125 44.84375 104.910156 C 44.84375 105.484375 44.84375 106.359375 44.492188 107.0625 C 44.117188 107.785156 43.417969 108.234375 42.644531 108.234375 Z M 42.644531 108.234375 "/>
<path style=" stroke:none;fill-rule:nonzero;fill:rgb(0%,0%,0%);fill-opacity:1;" d="M 48.363281 102.984375 L 48.363281 107.261719 C 48.363281 107.960938 48.1875 107.960938 47.113281 107.960938 L 47.113281 108.460938 C 47.6875 108.4375 48.488281 108.410156 48.9375 108.410156 C 49.339844 108.410156 50.164062 108.4375 50.714844 108.460938 L 50.714844 107.960938 C 49.636719 107.960938 49.464844 107.960938 49.464844 107.261719 L 49.464844 104.3125 C 49.464844 102.660156 50.613281 101.761719 51.613281 101.761719 C 52.636719 101.761719 52.8125 102.609375 52.8125 103.535156 L 52.8125 107.261719 C 52.8125 107.960938 52.636719 107.960938 51.5625 107.960938 L 51.5625 108.460938 C 52.113281 108.4375 52.9375 108.410156 53.363281 108.410156 C 53.761719 108.410156 54.613281 108.4375 55.136719 108.460938 L 55.136719 107.960938 C 54.3125 107.960938 53.914062 107.960938 53.914062 107.484375 L 53.914062 104.4375 C 53.914062 103.0625 53.914062 102.585938 53.414062 102.011719 C 53.1875 101.734375 52.664062 101.410156 51.738281 101.410156 C 50.5625 101.410156 49.8125 102.085938 49.363281 103.085938 L 49.363281 101.410156 L 47.113281 101.585938 L 47.113281 102.085938 C 48.238281 102.085938 48.363281 102.1875 48.363281 102.984375 Z M 48.363281 102.984375 "/>
<path style=" stroke:none;fill-rule:nonzero;fill:rgb(0%,0%,0%);fill-opacity:1;" d="M 57.34375 104.984375 C 57.34375 102.386719 58.644531 101.710938 59.496094 101.710938 C 59.644531 101.710938 60.644531 101.734375 61.195312 102.3125 C 60.542969 102.359375 60.445312 102.835938 60.445312 103.035156 C 60.445312 103.460938 60.746094 103.761719 61.167969 103.761719 C 61.59375 103.761719 61.917969 103.511719 61.917969 103.011719 C 61.917969 101.9375 60.695312 101.3125 59.46875 101.3125 C 57.46875 101.3125 56.019531 103.035156 56.019531 105.011719 C 56.019531 107.0625 57.59375 108.636719 59.445312 108.636719 C 61.570312 108.636719 62.09375 106.710938 62.09375 106.5625 C 62.09375 106.410156 61.917969 106.410156 61.871094 106.410156 C 61.746094 106.410156 61.695312 106.460938 61.667969 106.5625 C 61.21875 108.035156 60.167969 108.234375 59.59375 108.234375 C 58.746094 108.234375 57.34375 107.5625 57.34375 104.984375 Z M 57.34375 104.984375 "/>
<path style=" stroke:none;fill-rule:nonzero;fill:rgb(0%,0%,0%);fill-opacity:1;" d="M 67.851562 107.261719 C 67.929688 107.886719 68.351562 108.5625 69.101562 108.5625 C 69.453125 108.5625 70.429688 108.335938 70.429688 107.035156 L 70.429688 106.136719 L 70.027344 106.136719 L 70.027344 107.035156 C 70.027344 107.960938 69.628906 108.0625 69.453125 108.0625 C 68.929688 108.0625 68.851562 107.335938 68.851562 107.261719 L 68.851562 104.085938 C 68.851562 103.410156 68.851562 102.785156 68.277344 102.1875 C 67.652344 101.5625 66.851562 101.3125 66.101562 101.3125 C 64.777344 101.3125 63.679688 102.0625 63.679688 103.109375 C 63.679688 103.585938 64.003906 103.859375 64.429688 103.859375 C 64.878906 103.859375 65.152344 103.535156 65.152344 103.136719 C 65.152344 102.9375 65.078125 102.410156 64.328125 102.410156 C 64.777344 101.835938 65.554688 101.660156 66.054688 101.660156 C 66.851562 101.660156 67.753906 102.285156 67.753906 103.710938 L 67.753906 104.285156 C 66.929688 104.335938 65.828125 104.386719 64.828125 104.859375 C 63.628906 105.410156 63.226562 106.234375 63.226562 106.9375 C 63.226562 108.234375 64.777344 108.636719 65.777344 108.636719 C 66.828125 108.636719 67.554688 107.984375 67.851562 107.261719 Z M 67.753906 104.636719 L 67.753906 106.234375 C 67.753906 107.734375 66.601562 108.285156 65.878906 108.285156 C 65.101562 108.285156 64.453125 107.734375 64.453125 106.9375 C 64.453125 106.0625 65.128906 104.734375 67.753906 104.636719 Z M 67.753906 104.636719 "/>
<path style=" stroke:none;fill-rule:nonzero;fill:rgb(0%,0%,0%);fill-opacity:1;" d="M 76.703125 103.160156 C 76.851562 102.785156 77.128906 102.085938 78.175781 102.085938 L 78.175781 101.585938 C 77.800781 101.609375 77.351562 101.636719 76.976562 101.636719 C 76.601562 101.636719 75.878906 101.609375 75.601562 101.585938 L 75.601562 102.085938 C 76.175781 102.085938 76.351562 102.460938 76.351562 102.761719 C 76.351562 102.910156 76.328125 102.984375 76.277344 103.160156 L 74.628906 107.210938 L 72.851562 102.761719 C 72.753906 102.5625 72.753906 102.535156 72.753906 102.484375 C 72.753906 102.085938 73.378906 102.085938 73.675781 102.085938 L 73.675781 101.585938 C 73.175781 101.609375 72.300781 101.636719 71.925781 101.636719 C 71.503906 101.636719 70.851562 101.609375 70.378906 101.585938 L 70.378906 102.085938 C 71.378906 102.085938 71.453125 102.1875 71.652344 102.660156 L 73.953125 108.335938 C 74.050781 108.5625 74.078125 108.636719 74.277344 108.636719 C 74.503906 108.636719 74.550781 108.484375 74.628906 108.335938 Z M 76.703125 103.160156 "/>
<path style=" stroke:none;fill-rule:nonzero;fill:rgb(0%,0%,0%);fill-opacity:1;" d="M 79.820312 104.4375 C 79.917969 102.0625 81.269531 101.660156 81.820312 101.660156 C 83.445312 101.660156 83.617188 103.8125 83.617188 104.4375 Z M 79.820312 104.785156 L 84.269531 104.785156 C 84.617188 104.785156 84.667969 104.785156 84.667969 104.4375 C 84.667969 102.859375 83.792969 101.3125 81.820312 101.3125 C 79.96875 101.3125 78.492188 102.960938 78.492188 104.960938 C 78.492188 107.085938 80.167969 108.636719 81.992188 108.636719 C 83.945312 108.636719 84.667969 106.859375 84.667969 106.5625 C 84.667969 106.410156 84.542969 106.359375 84.445312 106.359375 C 84.320312 106.359375 84.269531 106.460938 84.242188 106.585938 C 83.695312 108.234375 82.242188 108.234375 82.09375 108.234375 C 81.292969 108.234375 80.667969 107.761719 80.292969 107.160156 C 79.820312 106.410156 79.820312 105.359375 79.820312 104.785156 Z M 79.820312 104.785156 "/>
<path style=" stroke:none;fill-rule:nonzero;fill:rgb(0%,0%,0%);fill-opacity:1;" d="M 55.71875 126.339844 L 55.71875 127.765625 L 58.015625 127.589844 L 58.015625 127.089844 C 56.917969 127.089844 56.792969 126.988281 56.792969 126.1875 L 56.792969 120.539062 L 54.441406 120.714844 L 54.441406 121.214844 C 55.542969 121.214844 55.691406 121.3125 55.691406 122.113281 L 55.691406 124.9375 C 55.691406 126.339844 54.917969 127.414062 53.742188 127.414062 C 52.417969 127.414062 52.34375 126.664062 52.34375 125.839844 L 52.34375 120.539062 L 49.992188 120.714844 L 49.992188 121.214844 C 51.242188 121.214844 51.242188 121.265625 51.242188 122.664062 L 51.242188 125.0625 C 51.242188 126.3125 51.242188 127.765625 53.667969 127.765625 C 54.566406 127.765625 55.265625 127.3125 55.71875 126.339844 Z M 55.71875 126.339844 "/>
<path style=" stroke:none;fill-rule:nonzero;fill:rgb(0%,0%,0%);fill-opacity:1;" d="M 61.097656 121.589844 L 61.097656 120.539062 L 58.796875 120.714844 L 58.796875 121.214844 C 59.921875 121.214844 60.046875 121.3125 60.046875 122.015625 L 60.046875 129.464844 C 60.046875 130.1875 59.875 130.1875 58.796875 130.1875 L 58.796875 130.6875 C 59.347656 130.664062 60.171875 130.640625 60.574219 130.640625 C 61.023438 130.640625 61.824219 130.664062 62.375 130.6875 L 62.375 130.1875 C 61.324219 130.1875 61.148438 130.1875 61.148438 129.464844 L 61.148438 126.640625 C 61.222656 126.914062 61.898438 127.765625 63.097656 127.765625 C 65 127.765625 66.648438 126.1875 66.648438 124.140625 C 66.648438 122.113281 65.125 120.539062 63.324219 120.539062 C 62.074219 120.539062 61.398438 121.238281 61.097656 121.589844 Z M 61.148438 125.765625 L 61.148438 122.214844 C 61.597656 121.390625 62.375 120.9375 63.199219 120.9375 C 64.375 120.9375 65.324219 122.339844 65.324219 124.140625 C 65.324219 126.0625 64.222656 127.414062 63.046875 127.414062 C 62.398438 127.414062 61.796875 127.089844 61.375 126.4375 C 61.148438 126.113281 61.148438 126.089844 61.148438 125.765625 Z M 61.148438 125.765625 "/>
<path style=" stroke:none;fill-rule:nonzero;fill:rgb(0%,0%,0%);fill-opacity:1;" d="M 148.632812 48.847656 C 148.632812 46.25 149.933594 45.574219 150.785156 45.574219 C 150.933594 45.574219 151.933594 45.597656 152.484375 46.171875 C 151.835938 46.222656 151.734375 46.699219 151.734375 46.898438 C 151.734375 47.324219 152.035156 47.625 152.460938 47.625 C 152.882812 47.625 153.210938 47.375 153.210938 46.875 C 153.210938 45.796875 151.984375 45.171875 150.757812 45.171875 C 148.757812 45.171875 147.308594 46.898438 147.308594 48.875 C 147.308594 50.921875 148.882812 52.5 150.734375 52.5 C 152.859375 52.5 153.382812 50.574219 153.382812 50.421875 C 153.382812 50.273438 153.210938 50.273438 153.160156 50.273438 C 153.035156 50.273438 152.984375 50.324219 152.960938 50.421875 C 152.507812 51.898438 151.460938 52.097656 150.882812 52.097656 C 150.035156 52.097656 148.632812 51.421875 148.632812 48.847656 Z M 148.632812 48.847656 "/>
<path style=" stroke:none;fill-rule:nonzero;fill:rgb(0%,0%,0%);fill-opacity:1;" d="M 161.34375 48.898438 C 161.34375 46.875 159.769531 45.171875 157.84375 45.171875 C 155.84375 45.171875 154.292969 46.921875 154.292969 48.898438 C 154.292969 50.972656 155.941406 52.5 157.816406 52.5 C 159.742188 52.5 161.34375 50.921875 161.34375 48.898438 Z M 157.84375 52.097656 C 157.144531 52.097656 156.441406 51.773438 156.019531 51.023438 C 155.617188 50.324219 155.617188 49.347656 155.617188 48.773438 C 155.617188 48.148438 155.617188 47.296875 155.992188 46.597656 C 156.417969 45.875 157.167969 45.523438 157.816406 45.523438 C 158.519531 45.523438 159.191406 45.875 159.617188 46.574219 C 160.042969 47.25 160.042969 48.171875 160.042969 48.773438 C 160.042969 49.347656 160.042969 50.222656 159.691406 50.921875 C 159.316406 51.648438 158.617188 52.097656 157.84375 52.097656 Z M 157.84375 52.097656 "/>
<path style=" stroke:none;fill-rule:nonzero;fill:rgb(0%,0%,0%);fill-opacity:1;" d="M 163.5625 46.847656 L 163.5625 51.125 C 163.5625 51.824219 163.386719 51.824219 162.3125 51.824219 L 162.3125 52.324219 C 162.886719 52.296875 163.6875 52.273438 164.136719 52.273438 C 164.539062 52.273438 165.363281 52.296875 165.914062 52.324219 L 165.914062 51.824219 C 164.839844 51.824219 164.664062 51.824219 164.664062 51.125 L 164.664062 48.171875 C 164.664062 46.523438 165.8125 45.625 166.8125 45.625 C 167.839844 45.625 168.011719 46.472656 168.011719 47.398438 L 168.011719 51.125 C 168.011719 51.824219 167.839844 51.824219 166.761719 51.824219 L 166.761719 52.324219 C 167.3125 52.296875 168.136719 52.273438 168.5625 52.273438 C 168.964844 52.273438 169.8125 52.296875 170.339844 52.324219 L 170.339844 51.824219 C 169.511719 51.824219 169.113281 51.824219 169.113281 51.347656 L 169.113281 48.296875 C 169.113281 46.921875 169.113281 46.449219 168.613281 45.875 C 168.386719 45.597656 167.863281 45.273438 166.9375 45.273438 C 165.761719 45.273438 165.011719 45.949219 164.5625 46.949219 L 164.5625 45.273438 L 162.3125 45.449219 L 162.3125 45.949219 C 163.4375 45.949219 163.5625 46.046875 163.5625 46.847656 Z M 163.5625 46.847656 "/>
<path style=" stroke:none;fill-rule:nonzero;fill:rgb(0%,0%,0%);fill-opacity:1;" d="M 172.542969 48.847656 C 172.542969 46.25 173.84375 45.574219 174.695312 45.574219 C 174.84375 45.574219 175.84375 45.597656 176.394531 46.171875 C 175.746094 46.222656 175.644531 46.699219 175.644531 46.898438 C 175.644531 47.324219 175.945312 47.625 176.371094 47.625 C 176.792969 47.625 177.121094 47.375 177.121094 46.875 C 177.121094 45.796875 175.894531 45.171875 174.667969 45.171875 C 172.667969 45.171875 171.21875 46.898438 171.21875 48.875 C 171.21875 50.921875 172.792969 52.5 174.644531 52.5 C 176.769531 52.5 177.292969 50.574219 177.292969 50.421875 C 177.292969 50.273438 177.121094 50.273438 177.070312 50.273438 C 176.945312 50.273438 176.894531 50.324219 176.871094 50.421875 C 176.417969 51.898438 175.371094 52.097656 174.792969 52.097656 C 173.945312 52.097656 172.542969 51.421875 172.542969 48.847656 Z M 172.542969 48.847656 "/>
<path style=" stroke:none;fill-rule:nonzero;fill:rgb(0%,0%,0%);fill-opacity:1;" d="M 183.054688 51.125 C 183.128906 51.75 183.554688 52.421875 184.304688 52.421875 C 184.652344 52.421875 185.628906 52.199219 185.628906 50.898438 L 185.628906 50 L 185.226562 50 L 185.226562 50.898438 C 185.226562 51.824219 184.828125 51.921875 184.652344 51.921875 C 184.128906 51.921875 184.054688 51.199219 184.054688 51.125 L 184.054688 47.949219 C 184.054688 47.273438 184.054688 46.648438 183.476562 46.046875 C 182.851562 45.421875 182.054688 45.171875 181.304688 45.171875 C 179.976562 45.171875 178.878906 45.921875 178.878906 46.972656 C 178.878906 47.449219 179.203125 47.722656 179.628906 47.722656 C 180.078125 47.722656 180.351562 47.398438 180.351562 47 C 180.351562 46.796875 180.277344 46.273438 179.527344 46.273438 C 179.976562 45.699219 180.753906 45.523438 181.253906 45.523438 C 182.054688 45.523438 182.953125 46.148438 182.953125 47.574219 L 182.953125 48.148438 C 182.128906 48.199219 181.027344 48.25 180.027344 48.722656 C 178.828125 49.273438 178.429688 50.097656 178.429688 50.796875 C 178.429688 52.097656 179.976562 52.5 180.976562 52.5 C 182.027344 52.5 182.753906 51.847656 183.054688 51.125 Z M 182.953125 48.5 L 182.953125 50.097656 C 182.953125 51.597656 181.804688 52.148438 181.078125 52.148438 C 180.304688 52.148438 179.652344 51.597656 179.652344 50.796875 C 179.652344 49.921875 180.328125 48.597656 182.953125 48.5 Z M 182.953125 48.5 "/>
<path style=" stroke:none;fill-rule:nonzero;fill:rgb(0%,0%,0%);fill-opacity:1;" d="M 191.902344 47.023438 C 192.050781 46.648438 192.328125 45.949219 193.378906 45.949219 L 193.378906 45.449219 C 193.003906 45.472656 192.550781 45.5 192.175781 45.5 C 191.800781 45.5 191.078125 45.472656 190.800781 45.449219 L 190.800781 45.949219 C 191.378906 45.949219 191.550781 46.324219 191.550781 46.625 C 191.550781 46.773438 191.527344 46.847656 191.476562 47.023438 L 189.828125 51.074219 L 188.050781 46.625 C 187.953125 46.421875 187.953125 46.398438 187.953125 46.347656 C 187.953125 45.949219 188.578125 45.949219 188.878906 45.949219 L 188.878906 45.449219 C 188.378906 45.472656 187.503906 45.5 187.128906 45.5 C 186.703125 45.5 186.050781 45.472656 185.578125 45.449219 L 185.578125 45.949219 C 186.578125 45.949219 186.652344 46.046875 186.851562 46.523438 L 189.152344 52.199219 C 189.253906 52.421875 189.277344 52.5 189.476562 52.5 C 189.703125 52.5 189.753906 52.347656 189.828125 52.199219 Z M 191.902344 47.023438 "/>
<path style=" stroke:none;fill-rule:nonzero;fill:rgb(0%,0%,0%);fill-opacity:1;" d="M 195.019531 48.296875 C 195.117188 45.921875 196.46875 45.523438 197.019531 45.523438 C 198.644531 45.523438 198.820312 47.671875 198.820312 48.296875 Z M 195.019531 48.648438 L 199.46875 48.648438 C 199.820312 48.648438 199.867188 48.648438 199.867188 48.296875 C 199.867188 46.722656 198.992188 45.171875 197.019531 45.171875 C 195.167969 45.171875 193.695312 46.824219 193.695312 48.824219 C 193.695312 50.949219 195.367188 52.5 197.195312 52.5 C 199.144531 52.5 199.867188 50.722656 199.867188 50.421875 C 199.867188 50.273438 199.742188 50.222656 199.644531 50.222656 C 199.519531 50.222656 199.46875 50.324219 199.445312 50.449219 C 198.894531 52.097656 197.445312 52.097656 197.292969 52.097656 C 196.492188 52.097656 195.867188 51.625 195.492188 51.023438 C 195.019531 50.273438 195.019531 49.222656 195.019531 48.648438 Z M 195.019531 48.648438 "/>
<path style=" stroke:none;fill-rule:nonzero;fill:rgb(0%,0%,0%);fill-opacity:1;" d="M 161.222656 70.578125 L 161.222656 71.625 L 163.570312 71.453125 L 163.570312 70.953125 C 162.472656 70.953125 162.320312 70.851562 162.320312 70.050781 L 162.320312 60.375 L 160.046875 60.550781 L 160.046875 61.050781 C 161.148438 61.050781 161.273438 61.152344 161.273438 61.953125 L 161.273438 65.402344 C 160.820312 64.828125 160.121094 64.402344 159.273438 64.402344 C 157.398438 64.402344 155.722656 65.976562 155.722656 68.027344 C 155.722656 70.050781 157.273438 71.625 159.097656 71.625 C 160.121094 71.625 160.820312 71.078125 161.222656 70.578125 Z M 161.222656 66.300781 L 161.222656 69.578125 C 161.222656 69.851562 161.222656 69.875 161.046875 70.152344 C 160.570312 70.925781 159.871094 71.277344 159.171875 71.277344 C 158.445312 71.277344 157.871094 70.851562 157.496094 70.25 C 157.097656 69.601562 157.046875 68.703125 157.046875 68.027344 C 157.046875 67.453125 157.070312 66.5 157.523438 65.777344 C 157.871094 65.277344 158.472656 64.75 159.347656 64.75 C 159.898438 64.75 160.570312 65 161.046875 65.703125 C 161.222656 65.976562 161.222656 66 161.222656 66.300781 Z M 161.222656 66.300781 "/>
<path style=" stroke:none;fill-rule:nonzero;fill:rgb(0%,0%,0%);fill-opacity:1;" d="M 171.527344 68.027344 C 171.527344 66 169.953125 64.300781 168.027344 64.300781 C 166.027344 64.300781 164.476562 66.050781 164.476562 68.027344 C 164.476562 70.101562 166.128906 71.625 168.003906 71.625 C 169.929688 71.625 171.527344 70.050781 171.527344 68.027344 Z M 168.027344 71.226562 C 167.328125 71.226562 166.628906 70.902344 166.203125 70.152344 C 165.804688 69.453125 165.804688 68.476562 165.804688 67.902344 C 165.804688 67.277344 165.804688 66.425781 166.179688 65.726562 C 166.601562 65 167.351562 64.652344 168.003906 64.652344 C 168.703125 64.652344 169.378906 65 169.804688 65.703125 C 170.226562 66.375 170.226562 67.300781 170.226562 67.902344 C 170.226562 68.476562 170.226562 69.351562 169.878906 70.050781 C 169.503906 70.777344 168.804688 71.226562 168.027344 71.226562 Z M 168.027344 71.226562 "/>
<path style=" stroke:none;fill-rule:nonzero;fill:rgb(0%,0%,0%);fill-opacity:1;" d="M 181.425781 66.101562 C 181.703125 65.300781 182.203125 65.078125 182.777344 65.078125 L 182.777344 64.578125 C 182.402344 64.601562 181.953125 64.625 181.601562 64.625 C 181.128906 64.625 180.425781 64.601562 180.128906 64.578125 L 180.128906 65.078125 C 180.703125 65.078125 181.050781 65.375 181.050781 65.828125 C 181.050781 65.925781 181.050781 65.976562 180.953125 66.175781 L 179.503906 70.25 L 177.925781 65.800781 C 177.878906 65.601562 177.851562 65.578125 177.851562 65.5 C 177.851562 65.078125 178.476562 65.078125 178.800781 65.078125 L 178.800781 64.578125 C 178.328125 64.601562 177.527344 64.625 177.128906 64.625 C 176.652344 64.625 176.203125 64.601562 175.726562 64.578125 L 175.726562 65.078125 C 176.300781 65.078125 176.550781 65.101562 176.726562 65.300781 C 176.800781 65.402344 176.976562 65.875 177.078125 66.175781 L 175.726562 70.050781 L 174.203125 65.800781 C 174.128906 65.601562 174.128906 65.578125 174.128906 65.5 C 174.128906 65.078125 174.753906 65.078125 175.050781 65.078125 L 175.050781 64.578125 C 174.578125 64.601562 173.675781 64.625 173.328125 64.625 C 173.253906 64.625 172.402344 64.601562 171.828125 64.578125 L 171.828125 65.078125 C 172.628906 65.078125 172.828125 65.125 173.027344 65.625 L 175.027344 71.277344 C 175.101562 71.5 175.152344 71.625 175.351562 71.625 C 175.578125 71.625 175.601562 71.527344 175.675781 71.300781 L 177.300781 66.800781 L 178.925781 71.328125 C 178.976562 71.5 179.027344 71.625 179.253906 71.625 C 179.453125 71.625 179.503906 71.476562 179.550781 71.328125 Z M 181.425781 66.101562 "/>
<path style=" stroke:none;fill-rule:nonzero;fill:rgb(0%,0%,0%);fill-opacity:1;" d="M 184.8125 65.976562 L 184.8125 70.25 C 184.8125 70.953125 184.640625 70.953125 183.5625 70.953125 L 183.5625 71.453125 C 184.140625 71.425781 184.9375 71.402344 185.390625 71.402344 C 185.789062 71.402344 186.613281 71.425781 187.164062 71.453125 L 187.164062 70.953125 C 186.089844 70.953125 185.914062 70.953125 185.914062 70.25 L 185.914062 67.300781 C 185.914062 65.652344 187.0625 64.75 188.0625 64.75 C 189.089844 64.75 189.265625 65.601562 189.265625 66.527344 L 189.265625 70.25 C 189.265625 70.953125 189.089844 70.953125 188.015625 70.953125 L 188.015625 71.453125 C 188.5625 71.425781 189.390625 71.402344 189.8125 71.402344 C 190.214844 71.402344 191.0625 71.425781 191.589844 71.453125 L 191.589844 70.953125 C 190.765625 70.953125 190.363281 70.953125 190.363281 70.476562 L 190.363281 67.425781 C 190.363281 66.050781 190.363281 65.578125 189.863281 65 C 189.640625 64.726562 189.113281 64.402344 188.1875 64.402344 C 187.015625 64.402344 186.265625 65.078125 185.8125 66.078125 L 185.8125 64.402344 L 183.5625 64.578125 L 183.5625 65.078125 C 184.6875 65.078125 184.8125 65.175781 184.8125 65.976562 Z M 184.8125 65.976562 "/>
<g clip-path="url(#clip1)" clip-rule="nonzero">
<path style="fill:none;stroke-width:1.6;stroke-linecap:butt;stroke-linejoin:miter;stroke:rgb(0%,0%,0%);stroke-opacity:1;stroke-miterlimit:4;" d="M 0.789062 87.199219 C 0.789062 87.199219 15.1875 173.601562 58.390625 173.601562 C 101.589844 173.601562 130.390625 0.800781 173.589844 0.800781 C 216.789062 0.800781 231.1875 87.199219 231.1875 87.199219 "/>
</g>
<path style="fill-rule:evenodd;fill:rgb(0%,0%,0%);fill-opacity:1;stroke-width:0.8;stroke-linecap:butt;stroke-linejoin:miter;stroke:rgb(100%,100%,100%);stroke-opacity:1;stroke-miterlimit:4;" d="M 118.390625 87.199219 C 118.390625 88.527344 117.316406 89.601562 115.988281 89.601562 C 114.664062 89.601562 113.589844 88.527344 113.589844 87.199219 C 113.589844 85.875 114.664062 84.800781 115.988281 84.800781 C 117.316406 84.800781 118.390625 85.875 118.390625 87.199219 Z M 118.390625 87.199219 "/>
<path style="fill:none;stroke-width:0.8;stroke-linecap:butt;stroke-linejoin:miter;stroke:rgb(100%,0%,0%);stroke-opacity:1;stroke-miterlimit:4;" d="M 111.53125 82.757812 L 91.988281 63.199219 L 72.789062 63.199219 "/>
<path style="fill-rule:evenodd;fill:rgb(100%,0%,0%);fill-opacity:1;stroke-width:0.282958;stroke-linecap:butt;stroke-linejoin:miter;stroke:rgb(100%,0%,0%);stroke-opacity:1;stroke-miterlimit:4;" d="M -94.915731 14.431442 L -93.784872 13.299657 L -97.745012 14.432599 L -93.785899 15.564255 Z M -94.915731 14.431442 " transform="matrix(-0.999182,-1,1,-0.999182,0,0)"/>
<path style="fill-rule:evenodd;fill:rgb(100%,0%,0%);fill-opacity:1;stroke-width:0.4;stroke-linecap:butt;stroke-linejoin:miter;stroke:rgb(100%,0%,0%);stroke-opacity:1;stroke-miterlimit:4;" d="M -71.222656 -63.199219 C -71.222656 -62.316406 -71.9375 -61.601562 -72.820312 -61.601562 C -73.703125 -61.601562 -74.421875 -62.316406 -74.421875 -63.199219 C -74.421875 -64.082031 -73.703125 -64.800781 -72.820312 -64.800781 C -71.9375 -64.800781 -71.222656 -64.082031 -71.222656 -63.199219 Z M -71.222656 -63.199219 " transform="matrix(-1,0,0,-1,0,0)"/>
<path style=" stroke:none;fill-rule:nonzero;fill:rgb(0%,0%,0%);fill-opacity:1;" d="M 20.675781 71.023438 C 20.675781 70.972656 20.675781 70.949219 20.398438 70.675781 C 18.425781 68.675781 17.898438 65.648438 17.898438 63.199219 C 17.898438 60.425781 18.5 57.648438 20.472656 55.675781 C 20.675781 55.472656 20.675781 55.449219 20.675781 55.398438 C 20.675781 55.273438 20.625 55.222656 20.523438 55.222656 C 20.347656 55.222656 18.925781 56.324219 17.972656 58.347656 C 17.175781 60.097656 16.972656 61.875 16.972656 63.199219 C 16.972656 64.449219 17.148438 66.375 18.023438 68.199219 C 19 70.148438 20.347656 71.199219 20.523438 71.199219 C 20.625 71.199219 20.675781 71.148438 20.675781 71.023438 Z M 20.675781 71.023438 "/>
<path style=" stroke:none;fill-rule:nonzero;fill:rgb(0%,0%,0%);fill-opacity:1;" d="M 27.921875 61.148438 C 27.648438 61.148438 27.449219 61.148438 27.222656 61.347656 C 26.949219 61.597656 26.921875 61.875 26.921875 61.972656 C 26.921875 62.375 27.222656 62.550781 27.523438 62.550781 C 27.972656 62.550781 28.398438 62.148438 28.398438 61.523438 C 28.398438 60.75 27.648438 60.148438 26.523438 60.148438 C 24.371094 60.148438 22.246094 62.425781 22.246094 64.675781 C 22.246094 66.125 23.171875 67.375 24.847656 67.375 C 27.121094 67.375 28.449219 65.675781 28.449219 65.5 C 28.449219 65.398438 28.371094 65.273438 28.273438 65.273438 C 28.171875 65.273438 28.148438 65.324219 28.046875 65.449219 C 26.796875 67.023438 25.046875 67.023438 24.871094 67.023438 C 23.871094 67.023438 23.421875 66.25 23.421875 65.273438 C 23.421875 64.625 23.746094 63.074219 24.296875 62.097656 C 24.796875 61.175781 25.671875 60.5 26.546875 60.5 C 27.074219 60.5 27.699219 60.699219 27.921875 61.148438 Z M 27.921875 61.148438 "/>
<path style=" stroke:none;fill-rule:nonzero;fill:rgb(0%,0%,0%);fill-opacity:1;" d="M 31.746094 67.175781 C 31.746094 66.125 31.347656 65.5 30.722656 65.5 C 30.195312 65.5 29.871094 65.898438 29.871094 66.347656 C 29.871094 66.773438 30.195312 67.199219 30.722656 67.199219 C 30.894531 67.199219 31.121094 67.125 31.269531 67 C 31.320312 66.949219 31.347656 66.949219 31.347656 66.949219 C 31.371094 66.949219 31.371094 66.949219 31.371094 67.175781 C 31.371094 68.375 30.820312 69.324219 30.296875 69.847656 C 30.121094 70.023438 30.121094 70.050781 30.121094 70.097656 C 30.121094 70.222656 30.195312 70.273438 30.269531 70.273438 C 30.445312 70.273438 31.746094 69.050781 31.746094 67.175781 Z M 31.746094 67.175781 "/>
<path style=" stroke:none;fill-rule:nonzero;fill:rgb(0%,0%,0%);fill-opacity:1;" d="M 41.4375 60.824219 L 42.8125 60.824219 C 43.136719 60.824219 43.285156 60.824219 43.285156 60.5 C 43.285156 60.324219 43.136719 60.324219 42.863281 60.324219 L 41.535156 60.324219 L 41.863281 58.5 C 41.9375 58.175781 42.160156 57.050781 42.261719 56.847656 C 42.386719 56.550781 42.660156 56.300781 43.011719 56.300781 C 43.0625 56.300781 43.488281 56.300781 43.785156 56.597656 C 43.085938 56.648438 42.910156 57.222656 42.910156 57.449219 C 42.910156 57.824219 43.210938 58.023438 43.511719 58.023438 C 43.9375 58.023438 44.386719 57.648438 44.386719 57.050781 C 44.386719 56.324219 43.660156 55.949219 43.011719 55.949219 C 42.460938 55.949219 41.460938 56.25 40.988281 57.824219 C 40.886719 58.148438 40.835938 58.324219 40.460938 60.324219 L 39.363281 60.324219 C 39.035156 60.324219 38.863281 60.324219 38.863281 60.625 C 38.863281 60.824219 39.011719 60.824219 39.3125 60.824219 L 40.363281 60.824219 L 39.1875 67.125 C 38.886719 68.675781 38.613281 70.125 37.785156 70.125 C 37.710938 70.125 37.335938 70.125 37.011719 69.824219 C 37.761719 69.773438 37.910156 69.199219 37.910156 68.972656 C 37.910156 68.597656 37.613281 68.398438 37.3125 68.398438 C 36.886719 68.398438 36.4375 68.773438 36.4375 69.375 C 36.4375 70.074219 37.136719 70.472656 37.785156 70.472656 C 38.660156 70.472656 39.3125 69.523438 39.585938 68.925781 C 40.113281 67.925781 40.460938 66 40.488281 65.875 Z M 41.4375 60.824219 "/>
<path style=" stroke:none;fill-rule:nonzero;fill:rgb(0%,0%,0%);fill-opacity:1;" d="M 50.375 71.023438 C 50.375 70.972656 50.375 70.949219 50.101562 70.675781 C 48.125 68.675781 47.601562 65.648438 47.601562 63.199219 C 47.601562 60.425781 48.203125 57.648438 50.175781 55.675781 C 50.375 55.472656 50.375 55.449219 50.375 55.398438 C 50.375 55.273438 50.328125 55.222656 50.226562 55.222656 C 50.050781 55.222656 48.625 56.324219 47.675781 58.347656 C 46.875 60.097656 46.675781 61.875 46.675781 63.199219 C 46.675781 64.449219 46.851562 66.375 47.726562 68.199219 C 48.703125 70.148438 50.050781 71.199219 50.226562 71.199219 C 50.328125 71.199219 50.375 71.148438 50.375 71.023438 Z M 50.375 71.023438 "/>
<path style=" stroke:none;fill-rule:nonzero;fill:rgb(0%,0%,0%);fill-opacity:1;" d="M 57.625 61.148438 C 57.351562 61.148438 57.148438 61.148438 56.925781 61.347656 C 56.648438 61.597656 56.625 61.875 56.625 61.972656 C 56.625 62.375 56.925781 62.550781 57.226562 62.550781 C 57.675781 62.550781 58.101562 62.148438 58.101562 61.523438 C 58.101562 60.75 57.351562 60.148438 56.226562 60.148438 C 54.074219 60.148438 51.949219 62.425781 51.949219 64.675781 C 51.949219 66.125 52.875 67.375 54.550781 67.375 C 56.824219 67.375 58.148438 65.675781 58.148438 65.5 C 58.148438 65.398438 58.074219 65.273438 57.976562 65.273438 C 57.875 65.273438 57.851562 65.324219 57.75 65.449219 C 56.5 67.023438 54.75 67.023438 54.574219 67.023438 C 53.574219 67.023438 53.125 66.25 53.125 65.273438 C 53.125 64.625 53.449219 63.074219 54 62.097656 C 54.5 61.175781 55.375 60.5 56.25 60.5 C 56.773438 60.5 57.398438 60.699219 57.625 61.148438 Z M 57.625 61.148438 "/>
<path style=" stroke:none;fill-rule:nonzero;fill:rgb(0%,0%,0%);fill-opacity:1;" d="M 62.796875 63.199219 C 62.796875 61.972656 62.621094 60.050781 61.746094 58.222656 C 60.796875 56.273438 59.421875 55.222656 59.273438 55.222656 C 59.171875 55.222656 59.097656 55.300781 59.097656 55.398438 C 59.097656 55.449219 59.097656 55.472656 59.398438 55.773438 C 60.972656 57.347656 61.871094 59.875 61.871094 63.199219 C 61.871094 65.949219 61.296875 68.75 59.324219 70.75 C 59.097656 70.949219 59.097656 70.972656 59.097656 71.023438 C 59.097656 71.125 59.171875 71.199219 59.273438 71.199219 C 59.421875 71.199219 60.871094 70.097656 61.796875 68.074219 C 62.621094 66.324219 62.796875 64.550781 62.796875 63.199219 Z M 62.796875 63.199219 "/>
<path style=" stroke:none;fill-rule:nonzero;fill:rgb(0%,0%,0%);fill-opacity:1;" d="M 68.996094 63.199219 C 68.996094 61.972656 68.820312 60.050781 67.945312 58.222656 C 66.996094 56.273438 65.621094 55.222656 65.472656 55.222656 C 65.371094 55.222656 65.296875 55.300781 65.296875 55.398438 C 65.296875 55.449219 65.296875 55.472656 65.597656 55.773438 C 67.171875 57.347656 68.070312 59.875 68.070312 63.199219 C 68.070312 65.949219 67.496094 68.75 65.523438 70.75 C 65.296875 70.949219 65.296875 70.972656 65.296875 71.023438 C 65.296875 71.125 65.371094 71.199219 65.472656 71.199219 C 65.621094 71.199219 67.070312 70.097656 67.996094 68.074219 C 68.820312 66.324219 68.996094 64.550781 68.996094 63.199219 Z M 68.996094 63.199219 "/>
<path style=" stroke:none;fill-rule:nonzero;fill:rgb(0%,0%,0%);fill-opacity:1;" d="M 161.699219 102.859375 L 159.472656 103.035156 L 159.472656 103.535156 C 160.5 103.535156 160.648438 103.636719 160.648438 104.410156 L 160.648438 108.710938 C 160.648438 109.410156 160.472656 109.410156 159.398438 109.410156 L 159.398438 109.910156 C 159.898438 109.886719 160.773438 109.859375 161.148438 109.859375 C 161.722656 109.859375 162.273438 109.886719 162.824219 109.910156 L 162.824219 109.410156 C 161.75 109.410156 161.699219 109.335938 161.699219 108.710938 Z M 161.75 100.085938 C 161.75 99.585938 161.375 99.234375 160.925781 99.234375 C 160.425781 99.234375 160.074219 99.660156 160.074219 100.085938 C 160.074219 100.511719 160.425781 100.933594 160.925781 100.933594 C 161.375 100.933594 161.75 100.585938 161.75 100.085938 Z M 161.75 100.085938 "/>
<path style=" stroke:none;fill-rule:nonzero;fill:rgb(0%,0%,0%);fill-opacity:1;" d="M 165.054688 104.433594 L 165.054688 108.710938 C 165.054688 109.410156 164.878906 109.410156 163.804688 109.410156 L 163.804688 109.910156 C 164.378906 109.886719 165.179688 109.859375 165.628906 109.859375 C 166.027344 109.859375 166.851562 109.886719 167.402344 109.910156 L 167.402344 109.410156 C 166.328125 109.410156 166.152344 109.410156 166.152344 108.710938 L 166.152344 105.761719 C 166.152344 104.109375 167.304688 103.210938 168.304688 103.210938 C 169.328125 103.210938 169.503906 104.058594 169.503906 104.984375 L 169.503906 108.710938 C 169.503906 109.410156 169.328125 109.410156 168.253906 109.410156 L 168.253906 109.910156 C 168.804688 109.886719 169.628906 109.859375 170.054688 109.859375 C 170.453125 109.859375 171.304688 109.886719 171.828125 109.910156 L 171.828125 109.410156 C 171.003906 109.410156 170.601562 109.410156 170.601562 108.933594 L 170.601562 105.886719 C 170.601562 104.511719 170.601562 104.035156 170.101562 103.460938 C 169.878906 103.183594 169.351562 102.859375 168.429688 102.859375 C 167.253906 102.859375 166.503906 103.535156 166.054688 104.535156 L 166.054688 102.859375 L 163.804688 103.035156 L 163.804688 103.535156 C 164.929688 103.535156 165.054688 103.636719 165.054688 104.433594 Z M 165.054688 104.433594 "/>
<path style=" stroke:none;fill-rule:nonzero;fill:rgb(0%,0%,0%);fill-opacity:1;" d="M 178.257812 103.535156 L 178.257812 108.710938 C 178.257812 109.410156 178.085938 109.410156 177.035156 109.410156 L 177.035156 109.910156 C 177.558594 109.886719 178.382812 109.859375 178.785156 109.859375 C 179.183594 109.859375 179.984375 109.886719 180.558594 109.910156 L 180.558594 109.410156 C 179.484375 109.410156 179.308594 109.410156 179.308594 108.710938 L 179.308594 98.835938 L 178.734375 98.933594 C 178.683594 98.933594 178.660156 98.910156 178.609375 98.886719 C 178.085938 98.660156 177.433594 98.660156 177.257812 98.660156 C 175.585938 98.660156 173.859375 99.558594 173.859375 101.210938 L 173.859375 103.035156 L 172.585938 103.035156 L 172.585938 103.535156 L 173.859375 103.535156 L 173.859375 108.710938 C 173.859375 109.410156 173.683594 109.410156 172.609375 109.410156 L 172.609375 109.910156 C 173.132812 109.886719 173.984375 109.859375 174.382812 109.859375 C 174.785156 109.859375 175.558594 109.886719 176.160156 109.910156 L 176.160156 109.410156 C 175.085938 109.410156 174.910156 109.410156 174.910156 108.710938 L 174.910156 103.535156 Z M 178.257812 103.035156 L 174.859375 103.035156 L 174.859375 101.234375 C 174.859375 99.761719 176.058594 99.011719 177.257812 99.011719 C 177.382812 99.011719 177.808594 99.011719 178.257812 99.160156 C 178.132812 99.234375 177.859375 99.386719 177.859375 99.808594 C 177.859375 100.085938 178.007812 100.335938 178.257812 100.410156 Z M 178.257812 103.035156 "/>
<path style=" stroke:none;fill-rule:nonzero;fill:rgb(0%,0%,0%);fill-opacity:1;" d="M 182.789062 105.886719 C 182.890625 103.511719 184.242188 103.109375 184.789062 103.109375 C 186.414062 103.109375 186.589844 105.261719 186.589844 105.886719 Z M 182.789062 106.234375 L 187.242188 106.234375 C 187.589844 106.234375 187.640625 106.234375 187.640625 105.886719 C 187.640625 104.308594 186.765625 102.761719 184.789062 102.761719 C 182.941406 102.761719 181.464844 104.410156 181.464844 106.410156 C 181.464844 108.535156 183.140625 110.085938 184.964844 110.085938 C 186.914062 110.085938 187.640625 108.308594 187.640625 108.011719 C 187.640625 107.859375 187.515625 107.808594 187.414062 107.808594 C 187.289062 107.808594 187.242188 107.910156 187.214844 108.035156 C 186.664062 109.683594 185.214844 109.683594 185.066406 109.683594 C 184.265625 109.683594 183.640625 109.210938 183.265625 108.609375 C 182.789062 107.859375 182.789062 106.808594 182.789062 106.234375 Z M 182.789062 106.234375 "/>
<path style=" stroke:none;fill-rule:nonzero;fill:rgb(0%,0%,0%);fill-opacity:1;" d="M 189.972656 106.433594 C 189.972656 103.835938 191.273438 103.160156 192.125 103.160156 C 192.273438 103.160156 193.273438 103.183594 193.824219 103.761719 C 193.175781 103.808594 193.074219 104.285156 193.074219 104.484375 C 193.074219 104.910156 193.375 105.210938 193.800781 105.210938 C 194.222656 105.210938 194.550781 104.960938 194.550781 104.460938 C 194.550781 103.386719 193.324219 102.761719 192.097656 102.761719 C 190.097656 102.761719 188.648438 104.484375 188.648438 106.460938 C 188.648438 108.511719 190.222656 110.085938 192.074219 110.085938 C 194.199219 110.085938 194.722656 108.160156 194.722656 108.011719 C 194.722656 107.859375 194.550781 107.859375 194.5 107.859375 C 194.375 107.859375 194.324219 107.910156 194.300781 108.011719 C 193.847656 109.484375 192.800781 109.683594 192.222656 109.683594 C 191.375 109.683594 189.972656 109.011719 189.972656 106.433594 Z M 189.972656 106.433594 "/>
<path style=" stroke:none;fill-rule:nonzero;fill:rgb(0%,0%,0%);fill-opacity:1;" d="M 197.933594 103.535156 L 200.234375 103.535156 L 200.234375 103.035156 L 197.933594 103.035156 L 197.933594 100.109375 L 197.53125 100.109375 C 197.53125 101.410156 197.058594 103.109375 195.484375 103.183594 L 195.484375 103.535156 L 196.832031 103.535156 L 196.832031 107.933594 C 196.832031 109.886719 198.332031 110.085938 198.90625 110.085938 C 200.03125 110.085938 200.484375 108.960938 200.484375 107.933594 L 200.484375 107.035156 L 200.082031 107.035156 L 200.082031 107.910156 C 200.082031 109.085938 199.609375 109.683594 199.007812 109.683594 C 197.933594 109.683594 197.933594 108.234375 197.933594 107.960938 Z M 197.933594 103.535156 "/>
<path style=" stroke:none;fill-rule:nonzero;fill:rgb(0%,0%,0%);fill-opacity:1;" d="M 204.207031 102.859375 L 201.980469 103.035156 L 201.980469 103.535156 C 203.007812 103.535156 203.15625 103.636719 203.15625 104.410156 L 203.15625 108.710938 C 203.15625 109.410156 202.980469 109.410156 201.90625 109.410156 L 201.90625 109.910156 C 202.40625 109.886719 203.28125 109.859375 203.65625 109.859375 C 204.230469 109.859375 204.78125 109.886719 205.332031 109.910156 L 205.332031 109.410156 C 204.257812 109.410156 204.207031 109.335938 204.207031 108.710938 Z M 204.257812 100.085938 C 204.257812 99.585938 203.882812 99.234375 203.433594 99.234375 C 202.933594 99.234375 202.582031 99.660156 202.582031 100.085938 C 202.582031 100.511719 202.933594 100.933594 203.433594 100.933594 C 203.882812 100.933594 204.257812 100.585938 204.257812 100.085938 Z M 204.257812 100.085938 "/>
<path style=" stroke:none;fill-rule:nonzero;fill:rgb(0%,0%,0%);fill-opacity:1;" d="M 213.308594 106.484375 C 213.308594 104.460938 211.734375 102.761719 209.808594 102.761719 C 207.808594 102.761719 206.261719 104.511719 206.261719 106.484375 C 206.261719 108.558594 207.910156 110.085938 209.785156 110.085938 C 211.710938 110.085938 213.308594 108.511719 213.308594 106.484375 Z M 209.808594 109.683594 C 209.109375 109.683594 208.410156 109.359375 207.984375 108.609375 C 207.585938 107.910156 207.585938 106.933594 207.585938 106.359375 C 207.585938 105.734375 207.585938 104.886719 207.960938 104.183594 C 208.386719 103.460938 209.136719 103.109375 209.785156 103.109375 C 210.484375 103.109375 211.160156 103.460938 211.585938 104.160156 C 212.011719 104.835938 212.011719 105.761719 212.011719 106.359375 C 212.011719 106.933594 212.011719 107.808594 211.660156 108.511719 C 211.285156 109.234375 210.585938 109.683594 209.808594 109.683594 Z M 209.808594 109.683594 "/>
<path style=" stroke:none;fill-rule:nonzero;fill:rgb(0%,0%,0%);fill-opacity:1;" d="M 215.53125 104.433594 L 215.53125 108.710938 C 215.53125 109.410156 215.355469 109.410156 214.28125 109.410156 L 214.28125 109.910156 C 214.855469 109.886719 215.65625 109.859375 216.105469 109.859375 C 216.503906 109.859375 217.332031 109.886719 217.878906 109.910156 L 217.878906 109.410156 C 216.804688 109.410156 216.628906 109.410156 216.628906 108.710938 L 216.628906 105.761719 C 216.628906 104.109375 217.78125 103.210938 218.78125 103.210938 C 219.804688 103.210938 219.980469 104.058594 219.980469 104.984375 L 219.980469 108.710938 C 219.980469 109.410156 219.804688 109.410156 218.730469 109.410156 L 218.730469 109.910156 C 219.28125 109.886719 220.105469 109.859375 220.53125 109.859375 C 220.929688 109.859375 221.78125 109.886719 222.304688 109.910156 L 222.304688 109.410156 C 221.480469 109.410156 221.082031 109.410156 221.082031 108.933594 L 221.082031 105.886719 C 221.082031 104.511719 221.082031 104.035156 220.582031 103.460938 C 220.355469 103.183594 219.832031 102.859375 218.90625 102.859375 C 217.730469 102.859375 216.980469 103.535156 216.53125 104.535156 L 216.53125 102.859375 L 214.28125 103.035156 L 214.28125 103.535156 C 215.40625 103.535156 215.53125 103.636719 215.53125 104.433594 Z M 215.53125 104.433594 "/>
<path style=" stroke:none;fill-rule:nonzero;fill:rgb(0%,0%,0%);fill-opacity:1;" d="M 230.695312 103.910156 L 230.695312 102.859375 L 228.394531 103.035156 L 228.394531 103.535156 C 229.519531 103.535156 229.644531 103.636719 229.644531 104.335938 L 229.644531 111.785156 C 229.644531 112.511719 229.46875 112.511719 228.394531 112.511719 L 228.394531 113.011719 C 228.945312 112.984375 229.769531 112.960938 230.167969 112.960938 C 230.621094 112.960938 231.417969 112.984375 231.96875 113.011719 L 231.96875 112.511719 C 230.917969 112.511719 230.746094 112.511719 230.746094 111.785156 L 230.746094 108.960938 C 230.820312 109.234375 231.496094 110.085938 232.695312 110.085938 C 234.59375 110.085938 236.246094 108.511719 236.246094 106.460938 C 236.246094 104.433594 234.71875 102.859375 232.917969 102.859375 C 231.667969 102.859375 230.996094 103.558594 230.695312 103.910156 Z M 230.746094 108.085938 L 230.746094 104.535156 C 231.195312 103.710938 231.96875 103.261719 232.792969 103.261719 C 233.96875 103.261719 234.917969 104.660156 234.917969 106.460938 C 234.917969 108.386719 233.820312 109.734375 232.644531 109.734375 C 231.996094 109.734375 231.394531 109.410156 230.96875 108.761719 C 230.746094 108.433594 230.746094 108.410156 230.746094 108.085938 Z M 230.746094 108.085938 "/>
<path style=" stroke:none;fill-rule:nonzero;fill:rgb(0%,0%,0%);fill-opacity:1;" d="M 244.746094 106.484375 C 244.746094 104.460938 243.171875 102.761719 241.246094 102.761719 C 239.246094 102.761719 237.699219 104.511719 237.699219 106.484375 C 237.699219 108.558594 239.347656 110.085938 241.222656 110.085938 C 243.148438 110.085938 244.746094 108.511719 244.746094 106.484375 Z M 241.246094 109.683594 C 240.546875 109.683594 239.847656 109.359375 239.421875 108.609375 C 239.023438 107.910156 239.023438 106.933594 239.023438 106.359375 C 239.023438 105.734375 239.023438 104.886719 239.398438 104.183594 C 239.824219 103.460938 240.574219 103.109375 241.222656 103.109375 C 241.921875 103.109375 242.597656 103.460938 243.023438 104.160156 C 243.449219 104.835938 243.449219 105.761719 243.449219 106.359375 C 243.449219 106.933594 243.449219 107.808594 243.097656 108.511719 C 242.722656 109.234375 242.023438 109.683594 241.246094 109.683594 Z M 241.246094 109.683594 "/>
<path style=" stroke:none;fill-rule:nonzero;fill:rgb(0%,0%,0%);fill-opacity:1;" d="M 248.042969 102.859375 L 245.816406 103.035156 L 245.816406 103.535156 C 246.84375 103.535156 246.992188 103.636719 246.992188 104.410156 L 246.992188 108.710938 C 246.992188 109.410156 246.816406 109.410156 245.742188 109.410156 L 245.742188 109.910156 C 246.242188 109.886719 247.117188 109.859375 247.492188 109.859375 C 248.066406 109.859375 248.617188 109.886719 249.167969 109.910156 L 249.167969 109.410156 C 248.09375 109.410156 248.042969 109.335938 248.042969 108.710938 Z M 248.09375 100.085938 C 248.09375 99.585938 247.71875 99.234375 247.269531 99.234375 C 246.769531 99.234375 246.417969 99.660156 246.417969 100.085938 C 246.417969 100.511719 246.769531 100.933594 247.269531 100.933594 C 247.71875 100.933594 248.09375 100.585938 248.09375 100.085938 Z M 248.09375 100.085938 "/>
<path style=" stroke:none;fill-rule:nonzero;fill:rgb(0%,0%,0%);fill-opacity:1;" d="M 251.394531 104.433594 L 251.394531 108.710938 C 251.394531 109.410156 251.222656 109.410156 250.144531 109.410156 L 250.144531 109.910156 C 250.722656 109.886719 251.519531 109.859375 251.972656 109.859375 C 252.371094 109.859375 253.195312 109.886719 253.746094 109.910156 L 253.746094 109.410156 C 252.671875 109.410156 252.496094 109.410156 252.496094 108.710938 L 252.496094 105.761719 C 252.496094 104.109375 253.644531 103.210938 254.644531 103.210938 C 255.671875 103.210938 255.847656 104.058594 255.847656 104.984375 L 255.847656 108.710938 C 255.847656 109.410156 255.671875 109.410156 254.597656 109.410156 L 254.597656 109.910156 C 255.144531 109.886719 255.972656 109.859375 256.394531 109.859375 C 256.796875 109.859375 257.644531 109.886719 258.171875 109.910156 L 258.171875 109.410156 C 257.347656 109.410156 256.945312 109.410156 256.945312 108.933594 L 256.945312 105.886719 C 256.945312 104.511719 256.945312 104.035156 256.445312 103.460938 C 256.222656 103.183594 255.695312 102.859375 254.769531 102.859375 C 253.597656 102.859375 252.847656 103.535156 252.394531 104.535156 L 252.394531 102.859375 L 250.144531 103.035156 L 250.144531 103.535156 C 251.269531 103.535156 251.394531 103.636719 251.394531 104.433594 Z M 251.394531 104.433594 "/>
<g clip-path="url(#clip2)" clip-rule="nonzero">
<path style=" stroke:none;fill-rule:nonzero;fill:rgb(0%,0%,0%);fill-opacity:1;" d="M 260.804688 103.535156 L 263.105469 103.535156 L 263.105469 103.035156 L 260.804688 103.035156 L 260.804688 100.109375 L 260.40625 100.109375 C 260.40625 101.410156 259.929688 103.109375 258.355469 103.183594 L 258.355469 103.535156 L 259.707031 103.535156 L 259.707031 107.933594 C 259.707031 109.886719 261.207031 110.085938 261.78125 110.085938 C 262.90625 110.085938 263.355469 108.960938 263.355469 107.933594 L 263.355469 107.035156 L 262.957031 107.035156 L 262.957031 107.910156 C 262.957031 109.085938 262.480469 109.683594 261.878906 109.683594 C 260.804688 109.683594 260.804688 108.234375 260.804688 107.960938 Z M 260.804688 103.535156 "/>
</g>
</g>
</svg>
