<?xml version="1.0" encoding="UTF-8"?>
<svg xmlns="http://www.w3.org/2000/svg" xmlns:xlink="http://www.w3.org/1999/xlink" width="388.433197pt" height="153.550003pt" viewBox="0 0 388.433197 153.550003" version="1.1">
<defs>
<clipPath id="clip1">
  <path d="M 171 80 L 388.433594 80 L 388.433594 82 L 171 82 Z M 171 80 "/>
</clipPath>
<clipPath id="clip2">
  <path d="M 283 0 L 285 0 L 285 153.550781 L 283 153.550781 Z M 283 0 "/>
</clipPath>
</defs>
<g id="surface1">
<path style="fill:none;stroke-width:0.4;stroke-linecap:butt;stroke-linejoin:miter;stroke:rgb(0%,0%,100%);stroke-opacity:1;stroke-dasharray:0.4,1.2;stroke-miterlimit:4;" d="M 9.949219 78.742188 L 97.222656 78.742188 "/>
<path style="fill:none;stroke-width:0.4;stroke-linecap:butt;stroke-linejoin:miter;stroke:rgb(0%,0%,100%);stroke-opacity:1;stroke-dasharray:0.4,1.2;stroke-miterlimit:4;" d="M 97.285156 79.617188 L 97.285156 114.578125 "/>
<path style=" stroke:none;fill-rule:nonzero;fill:rgb(0%,0%,0%);fill-opacity:1;" d="M 131.183594 41.777344 C 130.867188 41.792969 130.621094 42.058594 130.621094 42.320312 C 130.621094 42.488281 130.734375 42.675781 130.996094 42.675781 C 131.257812 42.675781 131.539062 42.46875 131.539062 42 C 131.539062 41.457031 131.035156 40.96875 130.117188 40.96875 C 128.539062 40.96875 128.089844 42.1875 128.089844 42.714844 C 128.089844 43.652344 128.972656 43.820312 129.328125 43.894531 C 129.945312 44.027344 130.566406 44.15625 130.566406 44.8125 C 130.566406 45.113281 130.304688 46.125 128.859375 46.125 C 128.691406 46.125 127.773438 46.125 127.492188 45.488281 C 127.960938 45.542969 128.257812 45.1875 128.257812 44.851562 C 128.257812 44.589844 128.054688 44.4375 127.808594 44.4375 C 127.492188 44.4375 127.132812 44.683594 127.132812 45.226562 C 127.132812 45.902344 127.828125 46.386719 128.839844 46.386719 C 130.789062 46.386719 131.257812 44.945312 131.257812 44.402344 C 131.257812 43.96875 131.035156 43.667969 130.882812 43.539062 C 130.566406 43.199219 130.210938 43.125 129.683594 43.03125 C 129.253906 42.9375 128.785156 42.84375 128.785156 42.300781 C 128.785156 41.964844 129.066406 41.230469 130.117188 41.230469 C 130.414062 41.230469 131.015625 41.324219 131.183594 41.777344 Z M 131.183594 41.777344 "/>
<path style=" stroke:none;fill-rule:nonzero;fill:rgb(0%,0%,0%);fill-opacity:1;" d="M 136.074219 49.125 C 136.074219 49.089844 136.074219 49.070312 135.871094 48.863281 C 134.386719 47.363281 133.996094 45.09375 133.996094 43.257812 C 133.996094 41.175781 134.445312 39.09375 135.925781 37.613281 C 136.074219 37.464844 136.074219 37.445312 136.074219 37.40625 C 136.074219 37.3125 136.039062 37.277344 135.964844 37.277344 C 135.832031 37.277344 134.761719 38.101562 134.050781 39.621094 C 133.449219 40.933594 133.300781 42.261719 133.300781 43.257812 C 133.300781 44.195312 133.433594 45.636719 134.089844 47.007812 C 134.820312 48.46875 135.832031 49.257812 135.964844 49.257812 C 136.039062 49.257812 136.074219 49.21875 136.074219 49.125 Z M 136.074219 49.125 "/>
<path style=" stroke:none;fill-rule:nonzero;fill:rgb(0%,0%,0%);fill-opacity:1;" d="M 139.222656 41.476562 L 140.347656 41.476562 C 140.59375 41.476562 140.722656 41.476562 140.722656 41.230469 C 140.722656 41.101562 140.59375 41.101562 140.386719 41.101562 L 139.335938 41.101562 C 139.769531 39.394531 139.824219 39.167969 139.824219 39.09375 C 139.824219 38.886719 139.675781 38.777344 139.46875 38.777344 C 139.429688 38.777344 139.09375 38.777344 139 39.207031 L 138.53125 41.101562 L 137.40625 41.101562 C 137.160156 41.101562 137.050781 41.101562 137.050781 41.324219 C 137.050781 41.476562 137.144531 41.476562 137.386719 41.476562 L 138.4375 41.476562 C 137.574219 44.871094 137.519531 45.074219 137.519531 45.28125 C 137.519531 45.9375 137.96875 46.386719 138.625 46.386719 C 139.84375 46.386719 140.519531 44.644531 140.519531 44.550781 C 140.519531 44.417969 140.425781 44.417969 140.386719 44.417969 C 140.273438 44.417969 140.253906 44.457031 140.199219 44.589844 C 139.691406 45.84375 139.054688 46.125 138.644531 46.125 C 138.398438 46.125 138.269531 45.976562 138.269531 45.582031 C 138.269531 45.28125 138.304688 45.207031 138.34375 45 Z M 139.222656 41.476562 "/>
<path style=" stroke:none;fill-rule:nonzero;fill:rgb(0%,0%,0%);fill-opacity:1;" d="M 144.535156 43.257812 C 144.535156 42.339844 144.40625 40.894531 143.75 39.527344 C 143.035156 38.0625 142.003906 37.277344 141.890625 37.277344 C 141.816406 37.277344 141.761719 37.332031 141.761719 37.40625 C 141.761719 37.445312 141.761719 37.464844 141.984375 37.6875 C 143.167969 38.871094 143.84375 40.761719 143.84375 43.257812 C 143.84375 45.320312 143.410156 47.417969 141.929688 48.917969 C 141.761719 49.070312 141.761719 49.089844 141.761719 49.125 C 141.761719 49.199219 141.816406 49.257812 141.890625 49.257812 C 142.003906 49.257812 143.09375 48.433594 143.785156 46.914062 C 144.40625 45.601562 144.535156 44.269531 144.535156 43.257812 Z M 144.535156 43.257812 "/>
<path style=" stroke:none;fill-rule:nonzero;fill:rgb(0%,0%,0%);fill-opacity:1;" d="M 153.023438 122.078125 L 154.148438 122.078125 C 154.390625 122.078125 154.523438 122.078125 154.523438 121.832031 C 154.523438 121.703125 154.390625 121.703125 154.183594 121.703125 L 153.132812 121.703125 C 153.566406 119.996094 153.621094 119.769531 153.621094 119.695312 C 153.621094 119.488281 153.472656 119.375 153.265625 119.375 C 153.226562 119.375 152.890625 119.375 152.796875 119.808594 L 152.328125 121.703125 L 151.203125 121.703125 C 150.960938 121.703125 150.847656 121.703125 150.847656 121.925781 C 150.847656 122.078125 150.941406 122.078125 151.183594 122.078125 L 152.234375 122.078125 C 151.371094 125.46875 151.316406 125.675781 151.316406 125.882812 C 151.316406 126.539062 151.765625 126.988281 152.421875 126.988281 C 153.640625 126.988281 154.316406 125.246094 154.316406 125.152344 C 154.316406 125.019531 154.222656 125.019531 154.183594 125.019531 C 154.070312 125.019531 154.054688 125.058594 153.996094 125.1875 C 153.492188 126.445312 152.851562 126.726562 152.441406 126.726562 C 152.195312 126.726562 152.066406 126.578125 152.066406 126.183594 C 152.066406 125.882812 152.101562 125.808594 152.140625 125.601562 Z M 153.023438 122.078125 "/>
<path style=" stroke:none;fill-rule:nonzero;fill:rgb(0%,0%,0%);fill-opacity:1;" d="M 6.347656 28.851562 C 6.027344 28.871094 5.785156 29.132812 5.785156 29.394531 C 5.785156 29.5625 5.898438 29.75 6.160156 29.75 C 6.421875 29.75 6.703125 29.542969 6.703125 29.074219 C 6.703125 28.53125 6.195312 28.042969 5.277344 28.042969 C 3.703125 28.042969 3.253906 29.261719 3.253906 29.789062 C 3.253906 30.726562 4.132812 30.894531 4.492188 30.96875 C 5.109375 31.101562 5.726562 31.230469 5.726562 31.886719 C 5.726562 32.1875 5.464844 33.199219 4.023438 33.199219 C 3.851562 33.199219 2.933594 33.199219 2.652344 32.5625 C 3.121094 32.621094 3.421875 32.261719 3.421875 31.925781 C 3.421875 31.664062 3.214844 31.511719 2.972656 31.511719 C 2.652344 31.511719 2.296875 31.757812 2.296875 32.300781 C 2.296875 32.976562 2.992188 33.464844 4.003906 33.464844 C 5.953125 33.464844 6.421875 32.019531 6.421875 31.476562 C 6.421875 31.042969 6.195312 30.746094 6.046875 30.613281 C 5.726562 30.277344 5.371094 30.199219 4.847656 30.105469 C 4.414062 30.011719 3.945312 29.917969 3.945312 29.375 C 3.945312 29.039062 4.226562 28.308594 5.277344 28.308594 C 5.578125 28.308594 6.179688 28.402344 6.347656 28.851562 Z M 6.347656 28.851562 "/>
<path style=" stroke:none;fill-rule:nonzero;fill:rgb(0%,0%,0%);fill-opacity:1;" d="M 3.1875 80.203125 L 3.1875 81.234375 C 3.1875 81.664062 3.148438 81.796875 2.269531 81.796875 L 2.023438 81.796875 L 2.023438 82.171875 C 2.511719 82.132812 3.132812 82.132812 3.636719 82.132812 C 4.144531 82.132812 4.761719 82.132812 5.269531 82.171875 L 5.269531 81.796875 L 5.007812 81.796875 C 4.125 81.796875 4.105469 81.664062 4.105469 81.234375 L 4.105469 80.203125 L 5.289062 80.203125 L 5.289062 79.828125 L 4.105469 79.828125 L 4.105469 74.390625 C 4.105469 74.144531 4.105469 74.070312 3.898438 74.070312 C 3.804688 74.070312 3.769531 74.070312 3.675781 74.222656 L 0 79.828125 L 0 80.203125 Z M 3.242188 79.828125 L 0.335938 79.828125 L 3.242188 75.363281 Z M 3.242188 79.828125 "/>
<path style=" stroke:none;fill-rule:nonzero;fill:rgb(0%,0%,0%);fill-opacity:1;" d="M 97.136719 123.957031 C 97.136719 122.457031 98.296875 121.59375 98.710938 121.296875 C 99.03125 121.050781 99.292969 120.621094 99.292969 120.113281 C 99.292969 119.421875 98.804688 118.5 97.023438 118.5 C 95.730469 118.5 95 119.328125 95 120.09375 C 95 120.507812 95.261719 120.675781 95.542969 120.675781 C 95.878906 120.675781 96.085938 120.433594 96.085938 120.113281 C 96.085938 119.589844 95.597656 119.589844 95.429688 119.589844 C 95.785156 118.953125 96.480469 118.765625 96.984375 118.765625 C 98.296875 118.765625 98.296875 119.589844 98.296875 120.058594 C 98.296875 120.75 98.109375 120.976562 97.886719 121.183594 C 97.097656 122.046875 96.835938 123.152344 96.835938 123.882812 L 96.835938 124.40625 C 96.835938 124.632812 96.835938 124.707031 96.984375 124.707031 C 97.136719 124.707031 97.136719 124.59375 97.136719 124.371094 Z M 97.605469 126.300781 C 97.605469 125.964844 97.324219 125.664062 96.984375 125.664062 C 96.628906 125.664062 96.347656 125.964844 96.347656 126.300781 C 96.347656 126.65625 96.628906 126.9375 96.984375 126.9375 C 97.324219 126.9375 97.605469 126.65625 97.605469 126.300781 Z M 97.605469 126.300781 "/>
<path style="fill:none;stroke-width:0.8;stroke-linecap:butt;stroke-linejoin:miter;stroke:rgb(100%,0%,0%);stroke-opacity:1;stroke-miterlimit:4;" d="M 10.144531 26.953125 L 10.144531 126.03125 "/>
<path style="fill:none;stroke-width:0.8;stroke-linecap:butt;stroke-linejoin:miter;stroke:rgb(100%,0%,0%);stroke-opacity:1;stroke-miterlimit:4;" d="M 0.0507812 115.042969 L 158.679688 115.042969 "/>
<path style="fill:none;stroke-width:1.6;stroke-linecap:butt;stroke-linejoin:miter;stroke:rgb(0%,0%,0%);stroke-opacity:1;stroke-miterlimit:4;" d="M 9.707031 115.332031 L 9.855469 115.269531 L 10.007812 115.207031 L 10.15625 115.148438 L 10.308594 115.085938 L 10.605469 114.960938 L 10.757812 114.898438 L 10.90625 114.839844 L 11.058594 114.777344 L 11.355469 114.652344 L 11.507812 114.589844 L 11.65625 114.53125 L 11.808594 114.46875 L 12.105469 114.34375 L 12.257812 114.28125 L 12.40625 114.222656 L 12.554688 114.160156 L 12.707031 114.097656 L 12.855469 114.035156 L 13.007812 113.976562 L 13.304688 113.851562 L 13.457031 113.789062 L 13.605469 113.726562 L 13.757812 113.667969 L 14.054688 113.542969 L 14.207031 113.480469 L 14.355469 113.417969 L 14.507812 113.359375 L 14.804688 113.234375 L 14.957031 113.171875 L 15.105469 113.109375 L 15.257812 113.050781 L 15.554688 112.925781 L 15.707031 112.863281 L 15.855469 112.800781 L 16.007812 112.742188 L 16.304688 112.617188 L 16.457031 112.554688 L 16.605469 112.492188 L 16.757812 112.433594 L 17.054688 112.308594 L 17.207031 112.246094 L 17.355469 112.183594 L 17.507812 112.125 L 17.804688 112 L 17.957031 111.9375 L 18.105469 111.875 L 18.253906 111.816406 L 18.40625 111.753906 L 18.554688 111.691406 L 18.707031 111.628906 L 18.855469 111.566406 L 19.003906 111.507812 L 19.15625 111.445312 L 19.304688 111.382812 L 19.457031 111.320312 L 19.605469 111.261719 L 19.753906 111.199219 L 19.90625 111.136719 L 20.054688 111.074219 L 20.207031 111.011719 L 20.355469 110.953125 L 20.503906 110.890625 L 20.65625 110.828125 L 20.804688 110.765625 L 20.957031 110.703125 L 21.105469 110.644531 L 21.253906 110.582031 L 21.40625 110.519531 L 21.554688 110.457031 L 21.707031 110.394531 L 21.855469 110.335938 L 22.003906 110.273438 L 22.15625 110.210938 L 22.304688 110.148438 L 22.457031 110.085938 L 22.605469 110.027344 L 22.753906 109.964844 L 22.90625 109.902344 L 23.203125 109.777344 L 23.355469 109.71875 L 23.503906 109.65625 L 23.65625 109.59375 L 23.953125 109.46875 L 24.105469 109.410156 L 24.253906 109.347656 L 24.40625 109.285156 L 24.703125 109.160156 L 24.855469 109.101562 L 25.003906 109.039062 L 25.15625 108.976562 L 25.453125 108.851562 L 25.605469 108.792969 L 25.753906 108.730469 L 25.90625 108.667969 L 26.054688 108.605469 L 26.203125 108.546875 L 26.355469 108.484375 L 26.503906 108.421875 L 26.65625 108.359375 L 26.804688 108.296875 L 26.953125 108.238281 L 27.105469 108.175781 L 27.253906 108.113281 L 27.40625 108.050781 L 27.554688 107.988281 L 27.703125 107.929688 L 27.855469 107.867188 L 28.003906 107.804688 L 28.15625 107.742188 L 28.304688 107.679688 L 28.453125 107.621094 L 28.605469 107.558594 L 28.902344 107.433594 L 29.054688 107.371094 L 29.203125 107.3125 L 29.355469 107.25 L 29.652344 107.125 L 29.804688 107.0625 L 29.953125 107.003906 L 30.105469 106.941406 L 30.402344 106.816406 L 30.554688 106.753906 L 30.703125 106.695312 L 30.855469 106.632812 L 31.152344 106.507812 L 31.304688 106.445312 L 31.453125 106.386719 L 31.605469 106.324219 L 31.902344 106.199219 L 32.054688 106.136719 L 32.203125 106.078125 L 32.355469 106.015625 L 32.652344 105.890625 L 32.804688 105.828125 L 32.953125 105.769531 L 33.105469 105.707031 L 33.402344 105.582031 L 33.554688 105.523438 L 33.703125 105.460938 L 33.855469 105.398438 L 34.152344 105.273438 L 34.304688 105.214844 L 34.601562 105.089844 L 34.753906 105.027344 L 34.902344 104.964844 L 35.054688 104.90625 L 35.351562 104.78125 L 35.503906 104.71875 L 35.652344 104.65625 L 35.804688 104.597656 L 36.101562 104.472656 L 36.253906 104.410156 L 36.402344 104.347656 L 36.554688 104.289062 L 36.851562 104.164062 L 37.003906 104.101562 L 37.152344 104.039062 L 37.304688 103.980469 L 37.601562 103.855469 L 37.753906 103.792969 L 37.902344 103.730469 L 38.054688 103.671875 L 38.351562 103.546875 L 38.503906 103.484375 L 38.652344 103.421875 L 38.804688 103.363281 L 39.101562 103.238281 L 39.253906 103.175781 L 39.402344 103.113281 L 39.550781 103.054688 L 39.703125 102.992188 L 39.851562 102.929688 L 40.003906 102.867188 L 40.152344 102.808594 L 40.300781 102.746094 L 40.453125 102.683594 L 40.601562 102.621094 L 40.753906 102.558594 L 40.902344 102.5 L 41.050781 102.4375 L 41.203125 102.375 L 41.351562 102.3125 L 41.503906 102.25 L 41.652344 102.191406 L 41.800781 102.128906 L 41.953125 102.066406 L 42.101562 102.003906 L 42.253906 101.941406 L 42.402344 101.882812 L 42.550781 101.820312 L 42.703125 101.757812 L 42.851562 101.695312 L 43.003906 101.632812 L 43.152344 101.574219 L 43.300781 101.511719 L 43.453125 101.449219 L 43.601562 101.386719 L 43.753906 101.324219 L 43.902344 101.265625 L 44.050781 101.203125 L 44.203125 101.140625 L 44.351562 101.078125 L 44.503906 101.015625 L 44.652344 100.957031 L 44.800781 100.894531 L 44.953125 100.832031 L 45.25 100.707031 L 45.402344 100.648438 L 45.550781 100.585938 L 45.703125 100.523438 L 46 100.398438 L 46.152344 100.339844 L 46.300781 100.277344 L 46.453125 100.214844 L 46.601562 100.152344 L 46.75 100.09375 L 46.902344 100.03125 L 47.050781 99.96875 L 47.203125 99.90625 L 47.351562 99.84375 L 47.5 99.785156 L 47.652344 99.722656 L 47.800781 99.660156 L 47.953125 99.597656 L 48.101562 99.535156 L 48.25 99.476562 L 48.402344 99.414062 L 48.550781 99.351562 L 48.703125 99.289062 L 48.851562 99.226562 L 49 99.167969 L 49.152344 99.105469 L 49.300781 99.042969 L 49.453125 98.980469 L 49.601562 98.917969 L 49.75 98.859375 L 49.902344 98.796875 L 50.199219 98.671875 L 50.351562 98.609375 L 50.5 98.550781 L 50.652344 98.488281 L 50.949219 98.363281 L 51.101562 98.300781 L 51.25 98.242188 L 51.402344 98.179688 L 51.699219 98.054688 L 51.851562 97.992188 L 52 97.933594 L 52.152344 97.871094 L 52.449219 97.746094 L 52.601562 97.683594 L 52.75 97.625 L 52.902344 97.5625 L 53.199219 97.4375 L 53.351562 97.375 L 53.5 97.316406 L 53.652344 97.253906 L 53.949219 97.128906 L 54.101562 97.070312 L 54.25 97.007812 L 54.402344 96.945312 L 54.699219 96.820312 L 54.851562 96.761719 L 55 96.699219 L 55.152344 96.636719 L 55.449219 96.511719 L 55.601562 96.453125 L 55.898438 96.328125 L 56.050781 96.265625 L 56.199219 96.203125 L 56.351562 96.144531 L 56.648438 96.019531 L 56.800781 95.957031 L 56.949219 95.894531 L 57.101562 95.835938 L 57.398438 95.710938 L 57.550781 95.648438 L 57.699219 95.585938 L 57.851562 95.527344 L 58.148438 95.402344 L 58.300781 95.339844 L 58.449219 95.277344 L 58.601562 95.21875 L 58.898438 95.09375 L 59.050781 95.03125 L 59.199219 94.96875 L 59.351562 94.910156 L 59.648438 94.785156 L 59.800781 94.722656 L 59.949219 94.660156 L 60.101562 94.601562 L 60.398438 94.476562 L 60.550781 94.414062 L 60.699219 94.355469 L 60.851562 94.292969 L 61.148438 94.167969 L 61.300781 94.105469 L 61.449219 94.046875 L 61.597656 93.984375 L 61.75 93.921875 L 61.898438 93.859375 L 62.050781 93.796875 L 62.199219 93.738281 L 62.347656 93.675781 L 62.5 93.613281 L 62.648438 93.550781 L 62.800781 93.488281 L 62.949219 93.429688 L 63.097656 93.367188 L 63.25 93.304688 L 63.398438 93.242188 L 63.550781 93.179688 L 63.699219 93.121094 L 63.847656 93.058594 L 64 92.996094 L 64.148438 92.933594 L 64.300781 92.871094 L 64.449219 92.8125 L 64.597656 92.75 L 64.75 92.6875 L 64.898438 92.625 L 65.050781 92.5625 L 65.199219 92.503906 L 65.347656 92.441406 L 65.5 92.378906 L 65.648438 92.316406 L 65.800781 92.253906 L 65.949219 92.195312 L 66.097656 92.132812 L 66.25 92.070312 L 66.546875 91.945312 L 66.699219 91.886719 L 66.847656 91.824219 L 67 91.761719 L 67.148438 91.699219 L 67.296875 91.640625 L 67.449219 91.578125 L 67.597656 91.515625 L 67.75 91.453125 L 67.898438 91.390625 L 68.046875 91.332031 L 68.199219 91.269531 L 68.347656 91.207031 L 68.5 91.144531 L 68.648438 91.082031 L 68.796875 91.023438 L 68.949219 90.960938 L 69.097656 90.898438 L 69.25 90.835938 L 69.398438 90.773438 L 69.546875 90.714844 L 69.699219 90.652344 L 69.847656 90.589844 L 70 90.527344 L 70.148438 90.464844 L 70.296875 90.40625 L 70.449219 90.34375 L 70.597656 90.28125 L 70.75 90.21875 L 70.898438 90.15625 L 71.046875 90.097656 L 71.199219 90.035156 L 71.347656 89.972656 L 71.5 89.910156 L 71.648438 89.847656 L 71.796875 89.789062 L 71.949219 89.726562 L 72.246094 89.601562 L 72.398438 89.539062 L 72.546875 89.480469 L 72.699219 89.417969 L 72.996094 89.292969 L 73.148438 89.230469 L 73.296875 89.171875 L 73.449219 89.109375 L 73.746094 88.984375 L 73.898438 88.921875 L 74.046875 88.863281 L 74.199219 88.800781 L 74.496094 88.675781 L 74.648438 88.617188 L 74.796875 88.554688 L 74.949219 88.492188 L 75.246094 88.367188 L 75.398438 88.308594 L 75.546875 88.246094 L 75.699219 88.183594 L 75.996094 88.058594 L 76.148438 88 L 76.296875 87.9375 L 76.449219 87.875 L 76.746094 87.75 L 76.898438 87.691406 L 77.046875 87.628906 L 77.199219 87.566406 L 77.496094 87.441406 L 77.648438 87.382812 L 77.945312 87.257812 L 78.097656 87.195312 L 78.246094 87.132812 L 78.398438 87.074219 L 78.695312 86.949219 L 78.847656 86.886719 L 78.996094 86.824219 L 79.148438 86.765625 L 79.445312 86.640625 L 79.597656 86.578125 L 79.746094 86.515625 L 79.898438 86.457031 L 80.195312 86.332031 L 80.347656 86.269531 L 80.496094 86.207031 L 80.648438 86.148438 L 80.945312 86.023438 L 81.097656 85.960938 L 81.246094 85.902344 L 81.398438 85.839844 L 81.695312 85.714844 L 81.847656 85.652344 L 81.996094 85.59375 L 82.148438 85.53125 L 82.445312 85.40625 L 82.597656 85.34375 L 82.746094 85.285156 L 82.894531 85.222656 L 83.046875 85.160156 L 83.195312 85.097656 L 83.347656 85.035156 L 83.496094 84.976562 L 83.644531 84.914062 L 83.796875 84.851562 L 83.945312 84.789062 L 84.097656 84.726562 L 84.246094 84.667969 L 84.394531 84.605469 L 84.546875 84.542969 L 84.695312 84.480469 L 84.847656 84.417969 L 84.996094 84.359375 L 85.144531 84.296875 L 85.296875 84.234375 L 85.445312 84.171875 L 85.597656 84.109375 L 85.746094 84.050781 L 85.894531 83.988281 L 86.046875 83.925781 L 86.195312 83.863281 L 86.347656 83.800781 L 86.496094 83.742188 L 86.644531 83.679688 L 86.796875 83.617188 L 86.945312 83.554688 L 87.097656 83.492188 L 87.246094 83.433594 L 87.394531 83.371094 L 87.546875 83.308594 L 87.695312 83.246094 L 87.847656 83.1875 L 88.144531 83.0625 L 88.296875 83 L 88.445312 82.9375 L 88.59375 82.878906 L 88.746094 82.816406 L 88.894531 82.753906 L 89.046875 82.691406 L 89.195312 82.628906 L 89.34375 82.570312 L 89.496094 82.507812 L 89.644531 82.445312 L 89.796875 82.382812 L 89.945312 82.320312 L 90.09375 82.261719 L 90.246094 82.199219 L 90.394531 82.136719 L 90.546875 82.074219 L 90.695312 82.011719 L 90.84375 81.953125 L 90.996094 81.890625 L 91.144531 81.828125 L 91.296875 81.765625 L 91.445312 81.703125 L 91.59375 81.644531 L 91.746094 81.582031 L 91.894531 81.519531 L 92.046875 81.457031 L 92.195312 81.394531 L 92.34375 81.335938 L 92.496094 81.273438 L 92.644531 81.210938 L 92.796875 81.148438 L 92.945312 81.085938 L 93.09375 81.027344 L 93.246094 80.964844 L 93.394531 80.902344 L 93.546875 80.839844 L 93.695312 80.777344 L 93.84375 80.71875 L 93.996094 80.65625 L 94.292969 80.53125 L 94.445312 80.46875 L 94.59375 80.410156 L 94.746094 80.347656 L 95.042969 80.222656 L 95.195312 80.164062 L 95.34375 80.101562 L 95.496094 80.039062 L 95.792969 79.914062 L 95.945312 79.855469 L 96.09375 79.792969 L 96.246094 79.730469 L 96.542969 79.605469 L 96.695312 79.546875 L 96.84375 79.484375 L 96.996094 79.421875 L 97.292969 79.296875 L 97.445312 79.238281 L 97.59375 79.175781 L 97.746094 79.113281 L 98.042969 78.988281 L 98.195312 78.929688 L 98.34375 78.867188 L 98.496094 78.804688 L 98.792969 78.679688 L 98.945312 78.621094 L 99.242188 78.496094 L 99.394531 78.433594 L 99.542969 78.371094 L 99.695312 78.3125 L 99.992188 78.1875 L 100.144531 78.125 L 100.292969 78.0625 L 100.445312 78.003906 L 100.742188 77.878906 L 100.894531 77.816406 L 101.042969 77.753906 L 101.195312 77.695312 L 101.492188 77.570312 L 101.644531 77.507812 L 101.792969 77.449219 L 101.945312 77.386719 L 102.242188 77.261719 L 102.394531 77.199219 L 102.542969 77.140625 L 102.695312 77.078125 L 102.992188 76.953125 L 103.144531 76.890625 L 103.292969 76.832031 L 103.445312 76.769531 L 103.742188 76.644531 L 103.894531 76.582031 L 104.042969 76.523438 L 104.195312 76.460938 L 104.492188 76.335938 L 104.644531 76.273438 L 104.792969 76.214844 L 104.941406 76.152344 L 105.09375 76.089844 L 105.242188 76.027344 L 105.394531 75.964844 L 105.542969 75.90625 L 105.691406 75.84375 L 105.84375 75.78125 L 105.992188 75.71875 L 106.144531 75.65625 L 106.292969 75.597656 L 106.441406 75.535156 L 106.59375 75.472656 L 106.742188 75.410156 L 106.894531 75.347656 L 107.042969 75.289062 L 107.191406 75.226562 L 107.34375 75.164062 L 107.492188 75.101562 L 107.644531 75.039062 L 107.792969 74.980469 L 107.941406 74.917969 L 108.09375 74.855469 L 108.242188 74.792969 L 108.394531 74.734375 L 108.691406 74.609375 L 108.84375 74.546875 L 108.992188 74.484375 L 109.144531 74.425781 L 109.441406 74.300781 L 109.59375 74.238281 L 109.742188 74.175781 L 109.890625 74.117188 L 110.042969 74.054688 L 110.191406 73.992188 L 110.34375 73.929688 L 110.492188 73.867188 L 110.640625 73.808594 L 110.792969 73.746094 L 110.941406 73.683594 L 111.09375 73.621094 L 111.242188 73.558594 L 111.390625 73.5 L 111.542969 73.4375 L 111.691406 73.375 L 111.84375 73.3125 L 111.992188 73.25 L 112.140625 73.191406 L 112.292969 73.128906 L 112.441406 73.066406 L 112.59375 73.003906 L 112.742188 72.941406 L 112.890625 72.882812 L 113.042969 72.820312 L 113.191406 72.757812 L 113.34375 72.695312 L 113.492188 72.632812 L 113.640625 72.574219 L 113.792969 72.511719 L 113.941406 72.449219 L 114.09375 72.386719 L 114.242188 72.324219 L 114.390625 72.265625 L 114.542969 72.203125 L 114.691406 72.140625 L 114.84375 72.078125 L 114.992188 72.015625 L 115.140625 71.957031 L 115.292969 71.894531 L 115.589844 71.769531 L 115.742188 71.710938 L 115.890625 71.648438 L 116.042969 71.585938 L 116.339844 71.460938 L 116.492188 71.402344 L 116.640625 71.339844 L 116.792969 71.277344 L 117.089844 71.152344 L 117.242188 71.09375 L 117.390625 71.03125 L 117.542969 70.96875 L 117.839844 70.84375 L 117.992188 70.785156 L 118.140625 70.722656 L 118.292969 70.660156 L 118.589844 70.535156 L 118.742188 70.476562 L 118.890625 70.414062 L 119.042969 70.351562 L 119.339844 70.226562 L 119.492188 70.167969 L 119.640625 70.105469 L 119.792969 70.042969 L 120.089844 69.917969 L 120.242188 69.859375 L 120.390625 69.796875 L 120.542969 69.734375 L 120.839844 69.609375 L 120.992188 69.550781 L 121.289062 69.425781 L 121.441406 69.363281 L 121.589844 69.300781 L 121.742188 69.242188 L 122.039062 69.117188 L 122.191406 69.054688 L 122.339844 68.996094 L 122.492188 68.933594 L 122.789062 68.808594 L 122.941406 68.746094 L 123.089844 68.6875 L 123.242188 68.625 L 123.539062 68.5 L 123.691406 68.4375 L 123.839844 68.378906 L 123.992188 68.316406 L 124.289062 68.191406 L 124.441406 68.128906 L 124.589844 68.070312 L 124.742188 68.007812 L 125.039062 67.882812 L 125.191406 67.820312 L 125.339844 67.761719 L 125.492188 67.699219 L 125.789062 67.574219 L 125.941406 67.511719 L 126.089844 67.453125 L 126.238281 67.390625 L 126.390625 67.328125 L 126.539062 67.265625 L 126.691406 67.203125 L 126.839844 67.144531 L 126.988281 67.082031 L 127.140625 67.019531 L 127.289062 66.957031 L 127.441406 66.894531 L 127.589844 66.835938 L 127.738281 66.773438 L 127.890625 66.710938 L 128.039062 66.648438 L 128.191406 66.585938 L 128.339844 66.527344 L 128.488281 66.464844 L 128.640625 66.402344 L 128.789062 66.339844 L 128.941406 66.28125 L 129.238281 66.15625 L 129.390625 66.09375 L 129.539062 66.03125 L 129.691406 65.972656 L 129.988281 65.847656 L 130.140625 65.785156 L 130.289062 65.722656 L 130.441406 65.664062 L 130.738281 65.539062 L 130.890625 65.476562 L 131.039062 65.414062 L 131.191406 65.355469 L 131.488281 65.230469 L 131.640625 65.167969 L 131.789062 65.105469 L 131.9375 65.046875 L 132.089844 64.984375 L 132.238281 64.921875 L 132.390625 64.859375 L 132.539062 64.796875 L 132.6875 64.738281 L 132.839844 64.675781 L 132.988281 64.613281 L 133.140625 64.550781 L 133.289062 64.488281 L 133.4375 64.429688 L 133.589844 64.367188 L 133.738281 64.304688 L 133.890625 64.242188 L 134.039062 64.179688 L 134.1875 64.121094 L 134.339844 64.058594 L 134.488281 63.996094 L 134.640625 63.933594 L 134.789062 63.871094 L 134.9375 63.8125 L 135.089844 63.75 L 135.238281 63.6875 L 135.390625 63.625 L 135.539062 63.5625 L 135.6875 63.503906 L 135.839844 63.441406 L 135.988281 63.378906 L 136.140625 63.316406 L 136.289062 63.257812 L 136.4375 63.195312 L 136.589844 63.132812 L 136.738281 63.070312 L 136.890625 63.007812 L 137.039062 62.949219 L 137.1875 62.886719 L 137.339844 62.824219 L 137.636719 62.699219 L 137.789062 62.640625 L 137.9375 62.578125 L 138.089844 62.515625 L 138.386719 62.390625 L 138.539062 62.332031 L 138.6875 62.269531 L 138.839844 62.207031 L 139.136719 62.082031 L 139.289062 62.023438 L 139.4375 61.960938 L 139.589844 61.898438 L 139.886719 61.773438 L 140.039062 61.714844 L 140.1875 61.652344 L 140.339844 61.589844 L 140.636719 61.464844 L 140.789062 61.40625 L 140.9375 61.34375 L 141.089844 61.28125 L 141.386719 61.15625 L 141.539062 61.097656 L 141.6875 61.035156 L 141.839844 60.972656 L 142.136719 60.847656 L 142.289062 60.789062 L 142.585938 60.664062 L 142.738281 60.601562 L 142.886719 60.542969 L 143.039062 60.480469 L 143.335938 60.355469 L 143.488281 60.292969 L 143.636719 60.234375 L 143.789062 60.171875 L 144.085938 60.046875 L 144.238281 59.984375 L 144.386719 59.925781 L 144.539062 59.863281 L 144.835938 59.738281 L 144.988281 59.675781 L 145.136719 59.617188 L 145.289062 59.554688 L 145.585938 59.429688 L 145.738281 59.367188 L 145.886719 59.308594 L 146.039062 59.246094 L 146.335938 59.121094 L 146.488281 59.058594 L 146.636719 59 L 146.789062 58.9375 L 147.085938 58.8125 L 147.238281 58.75 L 147.386719 58.691406 L 147.539062 58.628906 L 147.835938 58.503906 L 147.988281 58.441406 L 148.136719 58.382812 L 148.285156 58.320312 L 148.4375 58.257812 L 148.585938 58.195312 L 148.738281 58.132812 L 148.886719 58.074219 L 149.035156 58.011719 L 149.1875 57.949219 L 149.335938 57.886719 L 149.488281 57.828125 L 149.785156 57.703125 L 149.9375 57.640625 L 150.085938 57.578125 L 150.238281 57.519531 L 150.535156 57.394531 L 150.6875 57.332031 L 150.835938 57.269531 L 150.988281 57.210938 L 151.285156 57.085938 L 151.4375 57.023438 L 151.585938 56.960938 L 151.738281 56.902344 L 152.035156 56.777344 L 152.1875 56.714844 L 152.335938 56.652344 L 152.488281 56.59375 L 152.785156 56.46875 L 152.9375 56.40625 L 153.085938 56.34375 L 153.238281 56.285156 L 153.535156 56.160156 L 153.6875 56.097656 L 153.835938 56.035156 L 153.984375 55.976562 L 154.136719 55.914062 L 154.285156 55.851562 L 154.4375 55.789062 L 154.585938 55.726562 L 154.734375 55.667969 L 154.886719 55.605469 L 155.035156 55.542969 L 155.1875 55.480469 L 155.335938 55.417969 L 155.484375 55.359375 L 155.636719 55.296875 L 155.785156 55.234375 L 155.9375 55.171875 L 156.085938 55.109375 L 156.234375 55.050781 L 156.386719 54.988281 L 156.535156 54.925781 L 156.6875 54.863281 L 156.835938 54.804688 L 156.984375 54.742188 L 157.136719 54.679688 L 157.285156 54.617188 L 157.4375 54.554688 L 157.585938 54.496094 L 157.734375 54.433594 L 157.886719 54.371094 L 158.035156 54.308594 L 158.1875 54.246094 L 158.335938 54.1875 L 158.484375 54.125 L 158.636719 54.0625 L 158.933594 53.9375 L 159.085938 53.878906 L 159.234375 53.816406 L 159.386719 53.753906 L 159.535156 53.691406 "/>
<path style="fill:none;stroke-width:0.4;stroke-linecap:butt;stroke-linejoin:miter;stroke:rgb(0%,0%,100%);stroke-opacity:1;stroke-dasharray:0.4,1.2;stroke-miterlimit:4;" d="M 178.105469 52.46875 L 378.097656 52.46875 "/>
<path style=" stroke:none;fill-rule:nonzero;fill:rgb(0%,0%,0%);fill-opacity:1;" d="M 385.304688 85.789062 C 385.378906 85.488281 385.660156 84.382812 386.484375 84.382812 C 386.542969 84.382812 386.84375 84.382812 387.085938 84.535156 C 386.75 84.609375 386.523438 84.890625 386.523438 85.191406 C 386.523438 85.378906 386.65625 85.601562 386.972656 85.601562 C 387.234375 85.601562 387.609375 85.394531 387.609375 84.910156 C 387.609375 84.289062 386.917969 84.121094 386.503906 84.121094 C 385.8125 84.121094 385.398438 84.757812 385.25 85.019531 C 384.949219 84.234375 384.3125 84.121094 383.953125 84.121094 C 382.71875 84.121094 382.023438 85.660156 382.023438 85.957031 C 382.023438 86.089844 382.15625 86.089844 382.171875 86.089844 C 382.265625 86.089844 382.304688 86.050781 382.324219 85.957031 C 382.734375 84.683594 383.523438 84.382812 383.9375 84.382812 C 384.160156 84.382812 384.574219 84.496094 384.574219 85.191406 C 384.574219 85.566406 384.367188 86.351562 383.9375 88.039062 C 383.75 88.769531 383.316406 89.277344 382.792969 89.277344 C 382.71875 89.277344 382.453125 89.277344 382.191406 89.128906 C 382.492188 89.050781 382.753906 88.808594 382.753906 88.472656 C 382.753906 88.152344 382.492188 88.058594 382.324219 88.058594 C 381.949219 88.058594 381.667969 88.359375 381.667969 88.753906 C 381.667969 89.296875 382.25 89.539062 382.773438 89.539062 C 383.578125 89.539062 384.011719 88.695312 384.03125 88.640625 C 384.179688 89.070312 384.609375 89.539062 385.324219 89.539062 C 386.5625 89.539062 387.234375 88.003906 387.234375 87.703125 C 387.234375 87.570312 387.140625 87.570312 387.105469 87.570312 C 386.992188 87.570312 386.972656 87.628906 386.9375 87.703125 C 386.542969 88.996094 385.734375 89.277344 385.359375 89.277344 C 384.890625 89.277344 384.703125 88.902344 384.703125 88.488281 C 384.703125 88.226562 384.761719 87.964844 384.890625 87.441406 Z M 385.304688 85.789062 "/>
<path style=" stroke:none;fill-rule:nonzero;fill:rgb(0%,0%,0%);fill-opacity:1;" d="M 279.132812 4.898438 C 279.1875 4.730469 279.1875 4.710938 279.1875 4.617188 C 279.1875 4.414062 279.019531 4.300781 278.832031 4.300781 C 278.71875 4.300781 278.53125 4.375 278.421875 4.542969 C 278.402344 4.617188 278.289062 4.976562 278.25 5.199219 C 278.15625 5.5 278.082031 5.835938 278.007812 6.15625 L 277.464844 8.3125 C 277.425781 8.480469 276.902344 9.324219 276.113281 9.324219 C 275.515625 9.324219 275.382812 8.800781 275.382812 8.351562 C 275.382812 7.804688 275.589844 7.054688 275.984375 6.007812 C 276.171875 5.519531 276.226562 5.386719 276.226562 5.144531 C 276.226562 4.617188 275.851562 4.167969 275.25 4.167969 C 274.109375 4.167969 273.675781 5.914062 273.675781 6.007812 C 273.675781 6.136719 273.789062 6.136719 273.808594 6.136719 C 273.9375 6.136719 273.9375 6.101562 273.996094 5.914062 C 274.332031 4.789062 274.800781 4.429688 275.214844 4.429688 C 275.308594 4.429688 275.515625 4.429688 275.515625 4.804688 C 275.515625 5.105469 275.382812 5.425781 275.308594 5.648438 C 274.820312 6.925781 274.613281 7.601562 274.613281 8.164062 C 274.613281 9.230469 275.363281 9.585938 276.078125 9.585938 C 276.546875 9.585938 276.9375 9.382812 277.277344 9.042969 C 277.125 9.664062 276.976562 10.261719 276.507812 10.898438 C 276.1875 11.292969 275.738281 11.648438 275.195312 11.648438 C 275.027344 11.648438 274.484375 11.613281 274.277344 11.144531 C 274.464844 11.144531 274.632812 11.144531 274.78125 10.992188 C 274.914062 10.898438 275.027344 10.730469 275.027344 10.507812 C 275.027344 10.132812 274.707031 10.09375 274.59375 10.09375 C 274.3125 10.09375 273.921875 10.28125 273.921875 10.863281 C 273.921875 11.460938 274.445312 11.914062 275.195312 11.914062 C 276.414062 11.914062 277.652344 10.824219 277.988281 9.476562 Z M 279.132812 4.898438 "/>
<path style=" stroke:none;fill-rule:nonzero;fill:rgb(100%,100%,100%);fill-opacity:1;" d="M 275.621094 44.21875 L 282.550781 44.21875 L 282.550781 61.316406 L 275.621094 61.316406 Z M 275.621094 44.21875 "/>
<path style=" stroke:none;fill-rule:nonzero;fill:rgb(0%,0%,0%);fill-opacity:1;" d="M 279.394531 45.421875 C 279.394531 45.199219 279.394531 45.199219 279.152344 45.199219 C 278.609375 45.722656 277.859375 45.722656 277.519531 45.722656 L 277.519531 46.023438 C 277.707031 46.023438 278.269531 46.023438 278.71875 45.796875 L 278.71875 50.054688 C 278.71875 50.335938 278.71875 50.449219 277.894531 50.449219 L 277.578125 50.449219 L 277.578125 50.75 C 277.726562 50.75 278.757812 50.710938 279.058594 50.710938 C 279.320312 50.710938 280.371094 50.75 280.558594 50.75 L 280.558594 50.449219 L 280.238281 50.449219 C 279.394531 50.449219 279.394531 50.335938 279.394531 50.054688 Z M 279.394531 45.421875 "/>
<path style="fill:none;stroke-width:0.4776;stroke-linecap:butt;stroke-linejoin:miter;stroke:rgb(0%,0%,0%);stroke-opacity:1;stroke-miterlimit:10;" d="M 276.601562 -52.464844 L 281.363281 -52.464844 " transform="matrix(1,0,0,-1,0,0)"/>
<path style=" stroke:none;fill-rule:nonzero;fill:rgb(0%,0%,0%);fill-opacity:1;" d="M 280.820312 58.058594 L 280.539062 58.058594 C 280.519531 58.246094 280.425781 58.734375 280.3125 58.808594 C 280.257812 58.867188 279.621094 58.867188 279.488281 58.867188 L 277.953125 58.867188 C 278.832031 58.097656 279.132812 57.851562 279.621094 57.460938 C 280.238281 56.972656 280.820312 56.445312 280.820312 55.660156 C 280.820312 54.648438 279.9375 54.027344 278.871094 54.027344 C 277.839844 54.027344 277.125 54.757812 277.125 55.527344 C 277.125 55.941406 277.484375 55.996094 277.578125 55.996094 C 277.765625 55.996094 278.007812 55.847656 278.007812 55.546875 C 278.007812 55.398438 277.953125 55.097656 277.519531 55.097656 C 277.78125 54.515625 278.34375 54.328125 278.738281 54.328125 C 279.582031 54.328125 280.015625 54.984375 280.015625 55.660156 C 280.015625 56.390625 279.488281 56.953125 279.226562 57.253906 L 277.21875 59.257812 C 277.125 59.335938 277.125 59.351562 277.125 59.578125 L 280.578125 59.578125 Z M 280.820312 58.058594 "/>
<path style=" stroke:none;fill-rule:nonzero;fill:rgb(0%,0%,0%);fill-opacity:1;" d="M 350.070312 26.625 C 350.332031 26.683594 351.308594 26.871094 351.308594 27.734375 C 351.308594 28.332031 350.894531 28.820312 349.957031 28.820312 C 348.945312 28.820312 348.515625 28.144531 348.289062 27.113281 C 348.253906 26.964844 348.253906 26.925781 348.121094 26.925781 C 347.972656 26.925781 347.972656 27 347.972656 27.207031 L 347.972656 28.800781 C 347.972656 29.007812 347.972656 29.082031 348.101562 29.082031 C 348.160156 29.082031 348.175781 29.0625 348.402344 28.839844 C 348.421875 28.820312 348.421875 28.800781 348.644531 28.578125 C 349.171875 29.0625 349.714844 29.082031 349.957031 29.082031 C 351.328125 29.082031 351.890625 28.277344 351.890625 27.414062 C 351.890625 26.796875 351.535156 26.421875 351.382812 26.289062 C 350.988281 25.894531 350.519531 25.800781 350.015625 25.707031 C 349.339844 25.578125 348.550781 25.425781 348.550781 24.734375 C 348.550781 24.300781 348.851562 23.8125 349.882812 23.8125 C 351.195312 23.8125 351.269531 24.902344 351.289062 25.257812 C 351.289062 25.371094 351.402344 25.371094 351.421875 25.371094 C 351.589844 25.371094 351.589844 25.3125 351.589844 25.089844 L 351.589844 23.871094 C 351.589844 23.683594 351.589844 23.589844 351.457031 23.589844 C 351.402344 23.589844 351.363281 23.589844 351.214844 23.738281 C 351.175781 23.777344 351.066406 23.890625 351.007812 23.925781 C 350.558594 23.589844 350.070312 23.589844 349.882812 23.589844 C 348.421875 23.589844 347.972656 24.394531 347.972656 25.070312 C 347.972656 25.484375 348.160156 25.820312 348.476562 26.082031 C 348.871094 26.382812 349.207031 26.457031 350.070312 26.625 Z M 350.070312 26.625 "/>
<path style=" stroke:none;fill-rule:nonzero;fill:rgb(0%,0%,0%);fill-opacity:1;" d="M 354.410156 23.664062 L 352.742188 23.796875 L 352.742188 24.171875 C 353.511719 24.171875 353.625 24.246094 353.625 24.828125 L 353.625 28.050781 C 353.625 28.578125 353.492188 28.578125 352.6875 28.578125 L 352.6875 28.953125 C 353.0625 28.933594 353.71875 28.914062 354 28.914062 C 354.429688 28.914062 354.84375 28.933594 355.253906 28.953125 L 355.253906 28.578125 C 354.449219 28.578125 354.410156 28.519531 354.410156 28.050781 Z M 354.449219 21.582031 C 354.449219 21.207031 354.167969 20.945312 353.832031 20.945312 C 353.457031 20.945312 353.191406 21.265625 353.191406 21.582031 C 353.191406 21.902344 353.457031 22.21875 353.832031 22.21875 C 354.167969 22.21875 354.449219 21.957031 354.449219 21.582031 Z M 354.449219 21.582031 "/>
<path style=" stroke:none;fill-rule:nonzero;fill:rgb(0%,0%,0%);fill-opacity:1;" d="M 356.925781 24.84375 L 356.925781 28.050781 C 356.925781 28.578125 356.796875 28.578125 355.988281 28.578125 L 355.988281 28.953125 C 356.421875 28.933594 357.019531 28.914062 357.359375 28.914062 C 357.65625 28.914062 358.277344 28.933594 358.6875 28.953125 L 358.6875 28.578125 C 357.882812 28.578125 357.75 28.578125 357.75 28.050781 L 357.75 25.839844 C 357.75 24.601562 358.613281 23.925781 359.363281 23.925781 C 360.132812 23.925781 360.265625 24.5625 360.265625 25.257812 L 360.265625 28.050781 C 360.265625 28.578125 360.132812 28.578125 359.328125 28.578125 L 359.328125 28.953125 C 359.738281 28.933594 360.359375 28.914062 360.675781 28.914062 C 360.976562 28.914062 361.613281 28.933594 362.007812 28.953125 L 362.007812 28.578125 C 361.390625 28.578125 361.089844 28.578125 361.089844 28.21875 L 361.089844 25.933594 C 361.089844 24.902344 361.089844 24.546875 360.714844 24.113281 C 360.546875 23.90625 360.152344 23.664062 359.457031 23.664062 C 358.578125 23.664062 358.015625 24.171875 357.675781 24.921875 L 357.675781 23.664062 L 355.988281 23.796875 L 355.988281 24.171875 C 356.832031 24.171875 356.925781 24.246094 356.925781 24.84375 Z M 356.925781 24.84375 "/>
<path style=" stroke:none;fill-rule:nonzero;fill:rgb(0%,0%,0%);fill-opacity:1;" d="M 366.210938 31.820312 C 366.210938 31.78125 366.210938 31.765625 366.007812 31.558594 C 364.523438 30.058594 364.132812 27.789062 364.132812 25.953125 C 364.132812 23.871094 364.582031 21.789062 366.0625 20.308594 C 366.210938 20.15625 366.210938 20.140625 366.210938 20.101562 C 366.210938 20.007812 366.175781 19.96875 366.101562 19.96875 C 365.96875 19.96875 364.898438 20.796875 364.1875 22.3125 C 363.585938 23.625 363.4375 24.957031 363.4375 25.953125 C 363.4375 26.890625 363.570312 28.332031 364.226562 29.703125 C 364.957031 31.164062 365.96875 31.953125 366.101562 31.953125 C 366.175781 31.953125 366.210938 31.914062 366.210938 31.820312 Z M 366.210938 31.820312 "/>
<path style=" stroke:none;fill-rule:nonzero;fill:rgb(0%,0%,0%);fill-opacity:1;" d="M 370.898438 25.332031 C 370.972656 25.03125 371.253906 23.925781 372.078125 23.925781 C 372.136719 23.925781 372.4375 23.925781 372.679688 24.078125 C 372.34375 24.152344 372.117188 24.433594 372.117188 24.734375 C 372.117188 24.921875 372.25 25.144531 372.566406 25.144531 C 372.828125 25.144531 373.203125 24.9375 373.203125 24.453125 C 373.203125 23.832031 372.511719 23.664062 372.097656 23.664062 C 371.40625 23.664062 370.992188 24.300781 370.84375 24.5625 C 370.542969 23.777344 369.90625 23.664062 369.546875 23.664062 C 368.3125 23.664062 367.617188 25.203125 367.617188 25.5 C 367.617188 25.632812 367.75 25.632812 367.765625 25.632812 C 367.859375 25.632812 367.898438 25.59375 367.917969 25.5 C 368.328125 24.226562 369.117188 23.925781 369.53125 23.925781 C 369.753906 23.925781 370.167969 24.039062 370.167969 24.734375 C 370.167969 25.109375 369.960938 25.894531 369.53125 27.582031 C 369.34375 28.3125 368.910156 28.820312 368.386719 28.820312 C 368.3125 28.820312 368.046875 28.820312 367.785156 28.671875 C 368.085938 28.59375 368.347656 28.351562 368.347656 28.015625 C 368.347656 27.695312 368.085938 27.601562 367.917969 27.601562 C 367.542969 27.601562 367.261719 27.902344 367.261719 28.296875 C 367.261719 28.839844 367.84375 29.082031 368.367188 29.082031 C 369.171875 29.082031 369.605469 28.238281 369.625 28.183594 C 369.773438 28.613281 370.203125 29.082031 370.917969 29.082031 C 372.15625 29.082031 372.828125 27.546875 372.828125 27.246094 C 372.828125 27.113281 372.734375 27.113281 372.699219 27.113281 C 372.585938 27.113281 372.566406 27.171875 372.53125 27.246094 C 372.136719 28.539062 371.328125 28.820312 370.953125 28.820312 C 370.484375 28.820312 370.296875 28.445312 370.296875 28.03125 C 370.296875 27.769531 370.355469 27.507812 370.484375 26.984375 Z M 370.898438 25.332031 "/>
<path style=" stroke:none;fill-rule:nonzero;fill:rgb(0%,0%,0%);fill-opacity:1;" d="M 377.1875 25.953125 C 377.1875 25.03125 377.054688 23.589844 376.398438 22.21875 C 375.6875 20.757812 374.65625 19.96875 374.542969 19.96875 C 374.46875 19.96875 374.414062 20.027344 374.414062 20.101562 C 374.414062 20.140625 374.414062 20.15625 374.636719 20.382812 C 375.820312 21.5625 376.492188 23.457031 376.492188 25.953125 C 376.492188 28.015625 376.0625 30.113281 374.582031 31.613281 C 374.414062 31.765625 374.414062 31.78125 374.414062 31.820312 C 374.414062 31.894531 374.46875 31.953125 374.542969 31.953125 C 374.65625 31.953125 375.742188 31.125 376.4375 29.609375 C 377.054688 28.296875 377.1875 26.964844 377.1875 25.953125 Z M 377.1875 25.953125 "/>
<path style="fill:none;stroke-width:1.6;stroke-linecap:round;stroke-linejoin:miter;stroke:rgb(0%,0%,0%);stroke-opacity:1;stroke-miterlimit:4;" d="M 193.617188 80.050781 C 194.222656 75.039062 194.832031 70.027344 195.4375 65.179688 C 196.042969 60.328125 196.648438 55.636719 197.257812 51.257812 C 197.863281 46.878906 198.46875 42.8125 199.078125 39.1875 C 199.683594 35.558594 200.289062 32.375 200.894531 29.730469 C 201.503906 27.089844 202.109375 24.992188 202.714844 23.503906 C 203.324219 22.015625 203.929688 21.140625 204.535156 20.902344 C 205.140625 20.660156 205.75 21.0625 206.355469 22.089844 C 206.960938 23.113281 207.570312 24.769531 208.175781 26.992188 C 208.78125 29.21875 209.386719 32.015625 209.996094 35.296875 C 210.601562 38.578125 211.207031 42.34375 211.816406 46.46875 C 212.421875 50.597656 213.027344 55.089844 213.632812 59.796875 C 214.242188 64.503906 214.847656 69.433594 215.453125 74.421875 C 216.0625 79.410156 216.667969 84.457031 217.273438 89.40625 C 217.878906 94.355469 218.488281 99.199219 219.09375 103.792969 C 219.699219 108.382812 220.308594 112.714844 220.914062 116.65625 C 221.519531 120.59375 222.125 124.136719 222.734375 127.171875 C 223.339844 130.207031 223.945312 132.730469 224.554688 134.667969 C 225.160156 136.605469 225.765625 137.949219 226.371094 138.664062 C 226.980469 139.378906 227.585938 139.457031 228.191406 138.902344 C 228.800781 138.347656 229.40625 137.15625 230.011719 135.367188 C 230.617188 133.578125 231.226562 131.191406 231.832031 128.285156 C 232.4375 125.378906 233.046875 121.953125 233.652344 118.113281 C 234.257812 114.277344 234.863281 110.023438 235.472656 105.5 C 236.078125 100.976562 236.683594 96.175781 237.292969 91.257812 C 237.898438 86.335938 238.503906 81.296875 239.113281 76.292969 C 239.71875 71.292969 240.324219 66.332031 240.929688 61.574219 C 241.539062 56.8125 242.144531 52.25 242.75 48.035156 C 243.359375 43.820312 243.964844 39.949219 244.570312 36.550781 C 245.175781 33.148438 245.785156 30.21875 246.390625 27.851562 C 246.996094 25.484375 247.605469 23.683594 248.210938 22.503906 C 248.816406 21.320312 249.421875 20.761719 250.03125 20.839844 C 250.636719 20.917969 251.242188 21.640625 251.851562 22.972656 C 252.457031 24.308594 253.0625 26.261719 253.667969 28.765625 C 254.277344 31.273438 254.882812 34.332031 255.488281 37.847656 C 256.097656 41.359375 256.703125 45.332031 257.308594 49.632812 C 257.914062 53.929688 258.523438 58.558594 259.128906 63.367188 C 259.734375 68.175781 260.34375 73.164062 260.949219 78.171875 C 261.554688 83.179688 262.160156 88.207031 262.769531 93.097656 C 263.375 97.984375 263.980469 102.730469 264.589844 107.183594 C 265.195312 111.640625 265.800781 115.800781 266.40625 119.535156 C 267.015625 123.269531 267.621094 126.574219 268.226562 129.351562 C 268.835938 132.128906 269.441406 134.371094 270.046875 136.011719 C 270.652344 137.648438 271.261719 138.683594 271.867188 139.082031 C 272.472656 139.476562 273.082031 139.238281 273.6875 138.367188 C 274.292969 137.496094 274.898438 135.996094 275.507812 133.914062 C 276.113281 131.835938 276.71875 129.171875 277.328125 126.011719 C 277.933594 122.851562 278.539062 119.195312 279.144531 115.160156 C 279.753906 111.125 280.359375 106.710938 280.964844 102.058594 C 281.574219 97.40625 282.179688 92.515625 282.785156 87.546875 C 283.390625 82.574219 284 77.523438 284.605469 72.554688 C 285.210938 67.582031 285.820312 62.695312 286.425781 58.042969 C 287.03125 53.390625 287.636719 48.976562 288.246094 44.941406 C 288.851562 40.90625 289.457031 37.25 290.066406 34.089844 C 290.671875 30.929688 291.277344 28.265625 291.882812 26.183594 C 292.492188 24.101562 293.097656 22.605469 293.703125 21.734375 C 294.3125 20.863281 294.917969 20.625 295.523438 21.019531 C 296.132812 21.417969 296.738281 22.453125 297.34375 24.089844 C 297.949219 25.730469 298.558594 27.972656 299.164062 30.746094 C 299.769531 33.523438 300.378906 36.832031 300.984375 40.566406 C 301.589844 44.300781 302.195312 48.460938 302.804688 52.914062 C 303.410156 57.367188 304.015625 62.117188 304.625 67.003906 C 305.230469 71.890625 305.835938 76.921875 306.441406 81.929688 C 307.050781 86.9375 307.65625 91.925781 308.261719 96.734375 C 308.871094 101.542969 309.476562 106.167969 310.082031 110.46875 C 310.6875 114.769531 311.296875 118.738281 311.902344 122.253906 C 312.507812 125.769531 313.117188 128.828125 313.722656 131.332031 C 314.328125 133.839844 314.933594 135.789062 315.542969 137.125 C 316.148438 138.460938 316.753906 139.179688 317.363281 139.257812 C 317.96875 139.339844 318.574219 138.777344 319.179688 137.597656 C 319.789062 136.417969 320.394531 134.613281 321 132.246094 C 321.609375 129.878906 322.214844 126.949219 322.820312 123.550781 C 323.425781 120.152344 324.035156 116.28125 324.640625 112.066406 C 325.246094 107.851562 325.855469 103.289062 326.460938 98.527344 C 327.066406 93.765625 327.671875 88.808594 328.28125 83.804688 C 328.886719 78.804688 329.492188 73.765625 330.101562 68.84375 C 330.707031 63.921875 331.3125 59.125 331.917969 54.597656 C 332.527344 50.074219 333.132812 45.824219 333.738281 41.984375 C 334.347656 38.148438 334.953125 34.722656 335.558594 31.8125 C 336.164062 28.90625 336.773438 26.523438 337.378906 24.734375 C 337.984375 22.945312 338.59375 21.753906 339.199219 21.199219 C 339.804688 20.640625 340.410156 20.722656 341.019531 21.4375 C 341.625 22.148438 342.230469 23.496094 342.839844 25.429688 C 343.445312 27.367188 344.050781 29.894531 344.65625 32.925781 C 345.265625 35.960938 345.871094 39.507812 346.476562 43.445312 C 347.085938 47.382812 347.691406 51.71875 348.296875 56.308594 C 348.90625 60.898438 349.511719 65.746094 350.117188 70.695312 C 350.722656 75.640625 351.332031 80.691406 351.9375 85.679688 C 352.542969 90.667969 353.152344 95.59375 353.757812 100.304688 C 354.363281 105.011719 354.96875 109.5 355.578125 113.628906 C 356.183594 117.757812 356.789062 121.519531 357.398438 124.804688 C 358.003906 128.085938 358.609375 130.882812 359.214844 133.109375 C 359.824219 135.332031 360.429688 136.984375 361.035156 138.011719 C 361.644531 139.039062 362.25 139.4375 362.855469 139.199219 C 363.460938 138.960938 364.070312 138.082031 364.675781 136.597656 C 365.28125 135.109375 365.890625 133.007812 366.496094 130.367188 C 367.101562 127.726562 367.707031 124.539062 368.316406 120.914062 C 368.921875 117.289062 369.527344 113.21875 370.136719 108.839844 C 370.742188 104.460938 371.347656 99.773438 371.953125 94.921875 C 372.5625 90.070312 373.167969 85.0625 373.773438 80.050781 "/>
<g clip-path="url(#clip1)" clip-rule="nonzero">
<path style="fill:none;stroke-width:0.8;stroke-linecap:butt;stroke-linejoin:miter;stroke:rgb(100%,0%,0%);stroke-opacity:1;stroke-miterlimit:4;" d="M 171.628906 80.628906 L 388.433594 80.628906 "/>
</g>
<g clip-path="url(#clip2)" clip-rule="nonzero">
<path style="fill:none;stroke-width:0.8;stroke-linecap:butt;stroke-linejoin:miter;stroke:rgb(100%,0%,0%);stroke-opacity:1;stroke-miterlimit:4;" d="M 283.890625 0 L 283.890625 153.539062 "/>
</g>
</g>
</svg>
