<?xml version="1.0" encoding="UTF-8"?>
<svg xmlns="http://www.w3.org/2000/svg" xmlns:xlink="http://www.w3.org/1999/xlink" width="452.924988pt" height="154.699997pt" viewBox="0 0 452.924988 154.699997" version="1.1">
<defs>
<clipPath id="clip1">
  <path d="M 271 0 L 273 0 L 273 154.699219 L 271 154.699219 Z M 271 0 "/>
</clipPath>
<clipPath id="clip2">
  <path d="M 320 77 L 452.925781 77 L 452.925781 79 L 320 79 Z M 320 77 "/>
</clipPath>
</defs>
<g id="surface1">
<path style="fill:none;stroke-width:0.4;stroke-linecap:butt;stroke-linejoin:miter;stroke:rgb(0%,0%,100%);stroke-opacity:1;stroke-dasharray:0.4,1.2;stroke-miterlimit:4;" d="M 6.46875 52.46875 L 206.460938 52.46875 "/>
<path style="fill:none;stroke-width:0.8;stroke-linecap:round;stroke-linejoin:round;stroke:rgb(0%,0%,0%);stroke-opacity:1;stroke-miterlimit:4;" d="M 251.003906 139.722656 C 253.136719 139.71875 255.265625 137.679688 257.398438 133.800781 C 259.527344 129.917969 261.660156 124.199219 263.789062 117.207031 C 265.921875 110.214844 268.050781 101.953125 270.183594 93.230469 C 272.3125 84.511719 274.445312 75.339844 276.574219 66.621094 C 278.707031 57.898438 280.835938 49.640625 282.96875 42.644531 C 285.097656 35.648438 287.230469 29.933594 289.359375 26.050781 C 291.492188 22.167969 293.625 20.132812 295.753906 20.128906 "/>
<path style="fill:none;stroke-width:0.4;stroke-linecap:butt;stroke-linejoin:miter;stroke:rgb(0%,0%,100%);stroke-opacity:1;stroke-dasharray:0.4,1.2;stroke-miterlimit:4;" d="M 250.503906 78.773438 L 250.503906 138.632812 "/>
<path style="fill:none;stroke-width:0.4;stroke-linecap:butt;stroke-linejoin:miter;stroke:rgb(0%,0%,100%);stroke-opacity:1;stroke-dasharray:0.4,1.2;stroke-miterlimit:4;" d="M 295.921875 20.304688 L 295.921875 80.8125 "/>
<path style="fill:none;stroke-width:1.123878;stroke-linecap:round;stroke-linejoin:round;stroke:rgb(0%,0%,0%);stroke-opacity:1;stroke-miterlimit:4;" d="M 326.488281 121.734375 C 326.488281 117.519531 328.523438 113.300781 332.394531 109.085938 C 336.261719 104.867188 341.964844 100.652344 348.941406 96.433594 C 355.914062 92.214844 364.15625 88 372.851562 83.78125 C 381.546875 79.566406 390.691406 75.347656 399.390625 71.132812 C 408.089844 66.914062 416.324219 62.695312 423.300781 58.480469 C 430.277344 54.261719 435.976562 50.046875 439.847656 45.828125 C 443.722656 41.613281 445.753906 37.394531 445.753906 33.175781 "/>
<path style="fill:none;stroke-width:0.4;stroke-linecap:butt;stroke-linejoin:miter;stroke:rgb(0%,0%,100%);stroke-opacity:1;stroke-dasharray:0.4,1.2;stroke-miterlimit:4;" d="M 443.109375 33.808594 L 382.605469 33.808594 "/>
<path style="fill:none;stroke-width:0.4;stroke-linecap:butt;stroke-linejoin:miter;stroke:rgb(0%,0%,100%);stroke-opacity:1;stroke-dasharray:0.4,1.2;stroke-miterlimit:4;" d="M 389.316406 120.785156 L 328.808594 120.785156 "/>
<path style="fill:none;stroke-width:0.4;stroke-linecap:round;stroke-linejoin:miter;stroke:rgb(0%,0%,0%);stroke-opacity:1;stroke-miterlimit:4;" d="M 21.980469 80.050781 C 22.585938 75.039062 23.195312 70.03125 23.800781 65.179688 C 24.40625 60.328125 25.011719 55.640625 25.621094 51.261719 C 26.226562 46.878906 26.832031 42.8125 27.441406 39.1875 C 28.046875 35.558594 28.652344 32.375 29.257812 29.734375 C 29.867188 27.089844 30.472656 24.992188 31.078125 23.503906 C 31.6875 22.015625 32.292969 21.140625 32.898438 20.902344 C 33.503906 20.664062 34.113281 21.0625 34.71875 22.089844 C 35.324219 23.113281 35.933594 24.769531 36.539062 26.992188 C 37.144531 29.21875 37.75 32.015625 38.359375 35.296875 C 38.964844 38.578125 39.570312 42.34375 40.179688 46.472656 C 40.785156 50.597656 41.390625 55.089844 41.996094 59.796875 C 42.605469 64.507812 43.210938 69.433594 43.816406 74.421875 C 44.425781 79.410156 45.03125 84.460938 45.636719 89.40625 C 46.242188 94.355469 46.851562 99.203125 47.457031 103.792969 C 48.0625 108.382812 48.671875 112.71875 49.277344 116.65625 C 49.882812 120.59375 50.488281 124.136719 51.097656 127.171875 C 51.703125 130.207031 52.308594 132.734375 52.917969 134.667969 C 53.523438 136.605469 54.128906 137.949219 54.734375 138.664062 C 55.34375 139.378906 55.949219 139.457031 56.554688 138.902344 C 57.164062 138.347656 57.769531 137.15625 58.375 135.367188 C 58.980469 133.582031 59.589844 131.195312 60.195312 128.289062 C 60.800781 125.382812 61.410156 121.953125 62.015625 118.113281 C 62.621094 114.277344 63.226562 110.027344 63.835938 105.5 C 64.441406 100.976562 65.046875 96.179688 65.65625 91.257812 C 66.261719 86.335938 66.867188 81.296875 67.472656 76.296875 C 68.082031 71.292969 68.6875 66.335938 69.292969 61.574219 C 69.902344 56.8125 70.507812 52.25 71.113281 48.035156 C 71.71875 43.820312 72.328125 39.953125 72.933594 36.550781 C 73.539062 33.148438 74.148438 30.222656 74.753906 27.855469 C 75.359375 25.488281 75.964844 23.683594 76.574219 22.503906 C 77.179688 21.320312 77.785156 20.761719 78.394531 20.839844 C 79 20.921875 79.605469 21.640625 80.214844 22.976562 C 80.820312 24.308594 81.425781 26.261719 82.03125 28.769531 C 82.640625 31.273438 83.246094 34.332031 83.851562 37.847656 C 84.460938 41.363281 85.066406 45.332031 85.671875 49.632812 C 86.277344 53.933594 86.886719 58.558594 87.492188 63.367188 C 88.097656 68.175781 88.707031 73.164062 89.3125 78.171875 C 89.917969 83.179688 90.523438 88.207031 91.132812 93.097656 C 91.738281 97.984375 92.34375 102.730469 92.953125 107.183594 C 93.558594 111.640625 94.164062 115.800781 94.769531 119.535156 C 95.378906 123.269531 95.984375 126.578125 96.589844 129.351562 C 97.199219 132.128906 97.804688 134.371094 98.410156 136.011719 C 99.015625 137.648438 99.625 138.683594 100.230469 139.082031 C 100.835938 139.480469 101.445312 139.238281 102.050781 138.367188 C 102.65625 137.5 103.261719 135.996094 103.871094 133.917969 C 104.476562 131.835938 105.082031 129.171875 105.691406 126.011719 C 106.296875 122.851562 106.902344 119.195312 107.507812 115.160156 C 108.117188 111.125 108.722656 106.710938 109.328125 102.058594 C 109.9375 97.40625 110.542969 92.519531 111.148438 87.546875 C 111.753906 82.578125 112.363281 77.523438 112.96875 72.554688 C 113.574219 67.582031 114.183594 62.695312 114.789062 58.042969 C 115.394531 53.390625 116 48.976562 116.609375 44.941406 C 117.214844 40.90625 117.820312 37.25 118.429688 34.089844 C 119.035156 30.929688 119.640625 28.269531 120.246094 26.183594 C 120.855469 24.101562 121.460938 22.605469 122.066406 21.734375 C 122.675781 20.863281 123.28125 20.625 123.886719 21.019531 C 124.492188 21.417969 125.101562 22.453125 125.707031 24.089844 C 126.3125 25.730469 126.921875 27.972656 127.527344 30.75 C 128.132812 33.523438 128.738281 36.832031 129.347656 40.566406 C 129.953125 44.300781 130.558594 48.460938 131.167969 52.917969 C 131.773438 57.371094 132.378906 62.117188 132.988281 67.003906 C 133.59375 71.894531 134.199219 76.921875 134.804688 81.929688 C 135.414062 86.9375 136.019531 91.925781 136.625 96.734375 C 137.234375 101.542969 137.839844 106.167969 138.445312 110.46875 C 139.050781 114.769531 139.660156 118.738281 140.265625 122.253906 C 140.871094 125.769531 141.480469 128.828125 142.085938 131.335938 C 142.691406 133.839844 143.296875 135.789062 143.90625 137.125 C 144.511719 138.460938 145.117188 139.179688 145.726562 139.261719 C 146.332031 139.339844 146.9375 138.777344 147.542969 137.597656 C 148.152344 136.417969 148.757812 134.613281 149.363281 132.246094 C 149.972656 129.882812 150.578125 126.949219 151.183594 123.550781 C 151.789062 120.152344 152.398438 116.28125 153.003906 112.066406 C 153.609375 107.851562 154.21875 103.289062 154.824219 98.527344 C 155.429688 93.769531 156.035156 88.808594 156.644531 83.804688 C 157.25 78.804688 157.855469 73.765625 158.464844 68.84375 C 159.070312 63.921875 159.675781 59.125 160.28125 54.601562 C 160.890625 50.074219 161.496094 45.828125 162.101562 41.988281 C 162.710938 38.148438 163.316406 34.722656 163.921875 31.8125 C 164.527344 28.90625 165.136719 26.523438 165.742188 24.734375 C 166.347656 22.945312 166.957031 21.753906 167.5625 21.199219 C 168.167969 20.644531 168.773438 20.722656 169.382812 21.4375 C 169.988281 22.148438 170.59375 23.496094 171.203125 25.433594 C 171.808594 27.367188 172.414062 29.894531 173.019531 32.929688 C 173.628906 35.960938 174.234375 39.507812 174.839844 43.445312 C 175.449219 47.382812 176.054688 51.71875 176.660156 56.308594 C 177.265625 60.898438 177.875 65.746094 178.480469 70.695312 C 179.085938 75.640625 179.695312 80.691406 180.300781 85.679688 C 180.90625 90.667969 181.511719 95.59375 182.121094 100.304688 C 182.726562 105.011719 183.332031 109.503906 183.941406 113.628906 C 184.546875 117.757812 185.152344 121.523438 185.757812 124.804688 C 186.367188 128.085938 186.972656 130.882812 187.578125 133.109375 C 188.1875 135.335938 188.792969 136.984375 189.398438 138.011719 C 190.007812 139.039062 190.613281 139.4375 191.21875 139.199219 C 191.824219 138.960938 192.433594 138.085938 193.039062 136.597656 C 193.644531 135.109375 194.253906 133.011719 194.859375 130.367188 C 195.464844 127.726562 196.070312 124.542969 196.679688 120.914062 C 197.285156 117.289062 197.890625 113.21875 198.5 108.84375 C 199.105469 104.464844 199.710938 99.773438 200.316406 94.921875 C 200.925781 90.074219 201.53125 85.0625 202.136719 80.050781 "/>
<path style="fill:none;stroke-width:0.8;stroke-linecap:butt;stroke-linejoin:miter;stroke:rgb(100%,0%,0%);stroke-opacity:1;stroke-miterlimit:4;" d="M -0.0078125 80.628906 L 216.796875 80.628906 "/>
<path style="fill:none;stroke-width:0.8;stroke-linecap:butt;stroke-linejoin:miter;stroke:rgb(100%,0%,0%);stroke-opacity:1;stroke-miterlimit:4;" d="M 112.25 0.00390625 L 112.25 153.542969 "/>
<path style="fill:none;stroke-width:0.8;stroke-linecap:butt;stroke-linejoin:miter;stroke:rgb(100%,0%,0%);stroke-opacity:1;stroke-miterlimit:4;" d="M 237.242188 81.785156 L 299.351562 81.785156 "/>
<g clip-path="url(#clip1)" clip-rule="nonzero">
<path style="fill:none;stroke-width:0.8;stroke-linecap:butt;stroke-linejoin:miter;stroke:rgb(100%,0%,0%);stroke-opacity:1;stroke-miterlimit:4;" d="M 271.964844 1.160156 L 271.964844 154.699219 "/>
</g>
<path style=" stroke:none;fill-rule:nonzero;fill:rgb(0%,0%,0%);fill-opacity:1;" d="M 298.84375 88.730469 L 300.167969 88.730469 C 299.996094 89.402344 299.746094 90.402344 299.746094 91.304688 C 299.746094 91.753906 299.820312 92.054688 299.871094 92.277344 C 300.042969 92.855469 300.195312 92.878906 300.371094 92.878906 C 300.644531 92.878906 300.894531 92.652344 300.894531 92.378906 C 300.894531 92.304688 300.871094 92.253906 300.820312 92.152344 C 300.59375 91.730469 300.394531 91.105469 300.394531 90.179688 C 300.394531 89.980469 300.394531 89.527344 300.542969 88.730469 L 301.945312 88.730469 C 302.144531 88.730469 302.246094 88.730469 302.371094 88.652344 C 302.519531 88.527344 302.542969 88.355469 302.542969 88.304688 C 302.542969 87.980469 302.269531 87.980469 302.070312 87.980469 L 297.871094 87.980469 C 297.417969 87.980469 297.09375 88.078125 296.59375 88.554688 C 296.292969 88.804688 295.871094 89.402344 295.871094 89.503906 C 295.871094 89.628906 296.019531 89.628906 296.070312 89.628906 C 296.195312 89.628906 296.195312 89.605469 296.269531 89.503906 C 296.820312 88.730469 297.519531 88.730469 297.769531 88.730469 L 298.445312 88.730469 C 298.09375 89.953125 297.496094 91.277344 297.167969 91.953125 C 297.09375 92.078125 296.996094 92.328125 296.945312 92.355469 C 296.945312 92.402344 296.917969 92.453125 296.917969 92.527344 C 296.917969 92.703125 297.042969 92.878906 297.320312 92.878906 C 297.746094 92.878906 297.871094 92.378906 298.144531 91.378906 Z M 298.84375 88.730469 "/>
<path style="fill:none;stroke-width:0.6368;stroke-linecap:butt;stroke-linejoin:miter;stroke:rgb(0%,0%,0%);stroke-opacity:1;stroke-miterlimit:10;" d="M 295.371094 -95.070312 L 303.21875 -95.070312 " transform="matrix(1,0,0,-1,0,0)"/>
<path style=" stroke:none;fill-rule:nonzero;fill:rgb(0%,0%,0%);fill-opacity:1;" d="M 301.746094 102.527344 L 301.371094 102.527344 C 301.34375 102.777344 301.21875 103.425781 301.070312 103.527344 C 300.996094 103.601562 300.144531 103.601562 299.96875 103.601562 L 297.917969 103.601562 C 299.09375 102.578125 299.496094 102.25 300.144531 101.726562 C 300.96875 101.078125 301.746094 100.375 301.746094 99.328125 C 301.746094 97.976562 300.570312 97.152344 299.144531 97.152344 C 297.769531 97.152344 296.820312 98.125 296.820312 99.152344 C 296.820312 99.703125 297.292969 99.777344 297.417969 99.777344 C 297.667969 99.777344 297.996094 99.578125 297.996094 99.175781 C 297.996094 98.976562 297.917969 98.578125 297.34375 98.578125 C 297.695312 97.800781 298.445312 97.550781 298.96875 97.550781 C 300.09375 97.550781 300.667969 98.425781 300.667969 99.328125 C 300.667969 100.300781 299.96875 101.050781 299.621094 101.453125 L 296.945312 104.125 C 296.820312 104.226562 296.820312 104.25 296.820312 104.550781 L 301.417969 104.550781 Z M 301.746094 102.527344 "/>
<path style=" stroke:none;fill-rule:nonzero;fill:rgb(0%,0%,0%);fill-opacity:1;" d="M 237.496094 94.128906 C 237.71875 94.128906 238.019531 94.128906 238.019531 93.804688 C 238.019531 93.503906 237.71875 93.503906 237.496094 93.503906 L 228.796875 93.503906 C 228.570312 93.503906 228.269531 93.503906 228.269531 93.804688 C 228.269531 94.128906 228.570312 94.128906 228.796875 94.128906 Z M 237.496094 94.128906 "/>
<path style=" stroke:none;fill-rule:nonzero;fill:rgb(0%,0%,0%);fill-opacity:1;" d="M 244.730469 87.476562 L 246.054688 87.476562 C 245.882812 88.152344 245.632812 89.152344 245.632812 90.050781 C 245.632812 90.5 245.707031 90.800781 245.757812 91.027344 C 245.929688 91.601562 246.082031 91.625 246.257812 91.625 C 246.53125 91.625 246.78125 91.402344 246.78125 91.125 C 246.78125 91.050781 246.757812 91 246.707031 90.902344 C 246.480469 90.476562 246.28125 89.851562 246.28125 88.925781 C 246.28125 88.726562 246.28125 88.277344 246.429688 87.476562 L 247.832031 87.476562 C 248.03125 87.476562 248.132812 87.476562 248.257812 87.402344 C 248.40625 87.277344 248.429688 87.101562 248.429688 87.050781 C 248.429688 86.726562 248.15625 86.726562 247.957031 86.726562 L 243.757812 86.726562 C 243.304688 86.726562 242.980469 86.828125 242.480469 87.300781 C 242.179688 87.550781 241.757812 88.152344 241.757812 88.25 C 241.757812 88.375 241.90625 88.375 241.957031 88.375 C 242.082031 88.375 242.082031 88.351562 242.15625 88.25 C 242.707031 87.476562 243.40625 87.476562 243.65625 87.476562 L 244.332031 87.476562 C 243.980469 88.703125 243.382812 90.027344 243.054688 90.703125 C 242.980469 90.828125 242.882812 91.078125 242.832031 91.101562 C 242.832031 91.152344 242.804688 91.203125 242.804688 91.277344 C 242.804688 91.453125 242.929688 91.625 243.207031 91.625 C 243.632812 91.625 243.757812 91.125 244.03125 90.125 Z M 244.730469 87.476562 "/>
<path style="fill:none;stroke-width:0.6368;stroke-linecap:butt;stroke-linejoin:miter;stroke:rgb(0%,0%,0%);stroke-opacity:1;stroke-miterlimit:10;" d="M 241.253906 -93.816406 L 249.109375 -93.816406 " transform="matrix(1,0,0,-1,0,0)"/>
<path style=" stroke:none;fill-rule:nonzero;fill:rgb(0%,0%,0%);fill-opacity:1;" d="M 247.632812 101.273438 L 247.257812 101.273438 C 247.230469 101.523438 247.105469 102.175781 246.957031 102.273438 C 246.882812 102.347656 246.03125 102.347656 245.855469 102.347656 L 243.804688 102.347656 C 244.980469 101.324219 245.382812 101 246.03125 100.472656 C 246.855469 99.824219 247.632812 99.125 247.632812 98.074219 C 247.632812 96.722656 246.457031 95.898438 245.03125 95.898438 C 243.65625 95.898438 242.707031 96.875 242.707031 97.898438 C 242.707031 98.449219 243.179688 98.523438 243.304688 98.523438 C 243.554688 98.523438 243.882812 98.324219 243.882812 97.925781 C 243.882812 97.722656 243.804688 97.324219 243.230469 97.324219 C 243.582031 96.550781 244.332031 96.300781 244.855469 96.300781 C 245.980469 96.300781 246.554688 97.175781 246.554688 98.074219 C 246.554688 99.050781 245.855469 99.800781 245.507812 100.199219 L 242.832031 102.875 C 242.707031 102.972656 242.707031 103 242.707031 103.300781 L 247.304688 103.300781 Z M 247.632812 101.273438 "/>
<g clip-path="url(#clip2)" clip-rule="nonzero">
<path style="fill:none;stroke-width:0.8;stroke-linecap:butt;stroke-linejoin:miter;stroke:rgb(100%,0%,0%);stroke-opacity:1;stroke-miterlimit:4;" d="M 320.597656 77.933594 L 452.933594 77.933594 "/>
</g>
<path style="fill:none;stroke-width:0.8;stroke-linecap:butt;stroke-linejoin:miter;stroke:rgb(100%,0%,0%);stroke-opacity:1;stroke-miterlimit:4;" d="M 385.597656 20.5 L 385.597656 141.824219 "/>
<path style=" stroke:none;fill-rule:nonzero;fill:rgb(0%,0%,0%);fill-opacity:1;" d="M 395.332031 37.546875 L 396.660156 37.546875 C 396.484375 38.222656 396.234375 39.222656 396.234375 40.121094 C 396.234375 40.570312 396.308594 40.871094 396.359375 41.097656 C 396.535156 41.671875 396.683594 41.695312 396.859375 41.695312 C 397.132812 41.695312 397.382812 41.472656 397.382812 41.195312 C 397.382812 41.121094 397.359375 41.070312 397.308594 40.972656 C 397.082031 40.546875 396.882812 39.921875 396.882812 38.996094 C 396.882812 38.796875 396.882812 38.347656 397.035156 37.546875 L 398.433594 37.546875 C 398.632812 37.546875 398.734375 37.546875 398.859375 37.472656 C 399.007812 37.347656 399.035156 37.171875 399.035156 37.121094 C 399.035156 36.796875 398.757812 36.796875 398.558594 36.796875 L 394.359375 36.796875 C 393.910156 36.796875 393.582031 36.894531 393.082031 37.371094 C 392.785156 37.621094 392.359375 38.222656 392.359375 38.320312 C 392.359375 38.445312 392.507812 38.445312 392.558594 38.445312 C 392.683594 38.445312 392.683594 38.421875 392.757812 38.320312 C 393.308594 37.546875 394.007812 37.546875 394.257812 37.546875 L 394.933594 37.546875 C 394.582031 38.769531 393.984375 40.097656 393.660156 40.769531 C 393.582031 40.894531 393.484375 41.144531 393.433594 41.171875 C 393.433594 41.222656 393.410156 41.269531 393.410156 41.347656 C 393.410156 41.519531 393.535156 41.695312 393.808594 41.695312 C 394.234375 41.695312 394.359375 41.195312 394.632812 40.195312 Z M 395.332031 37.546875 "/>
<path style="fill:none;stroke-width:0.6368;stroke-linecap:butt;stroke-linejoin:miter;stroke:rgb(0%,0%,0%);stroke-opacity:1;stroke-miterlimit:10;" d="M 391.859375 -43.886719 L 399.710938 -43.886719 " transform="matrix(1,0,0,-1,0,0)"/>
<path style=" stroke:none;fill-rule:nonzero;fill:rgb(0%,0%,0%);fill-opacity:1;" d="M 398.234375 51.34375 L 397.859375 51.34375 C 397.835938 51.59375 397.710938 52.242188 397.558594 52.34375 C 397.484375 52.417969 396.632812 52.417969 396.460938 52.417969 L 394.410156 52.417969 C 395.585938 51.394531 395.984375 51.070312 396.632812 50.542969 C 397.460938 49.894531 398.234375 49.195312 398.234375 48.144531 C 398.234375 46.792969 397.058594 45.96875 395.632812 45.96875 C 394.257812 45.96875 393.308594 46.945312 393.308594 47.96875 C 393.308594 48.519531 393.785156 48.59375 393.910156 48.59375 C 394.160156 48.59375 394.484375 48.394531 394.484375 47.992188 C 394.484375 47.792969 394.410156 47.394531 393.835938 47.394531 C 394.183594 46.617188 394.933594 46.367188 395.460938 46.367188 C 396.585938 46.367188 397.160156 47.242188 397.160156 48.144531 C 397.160156 49.117188 396.460938 49.867188 396.109375 50.269531 L 393.433594 52.945312 C 393.308594 53.042969 393.308594 53.070312 393.308594 53.367188 L 397.910156 53.367188 Z M 398.234375 51.34375 "/>
<path style=" stroke:none;fill-rule:nonzero;fill:rgb(0%,0%,0%);fill-opacity:1;" d="M 366.082031 108.945312 C 366.308594 108.945312 366.609375 108.945312 366.609375 108.621094 C 366.609375 108.320312 366.308594 108.320312 366.082031 108.320312 L 357.382812 108.320312 C 357.15625 108.320312 356.859375 108.320312 356.859375 108.621094 C 356.859375 108.945312 357.15625 108.945312 357.382812 108.945312 Z M 366.082031 108.945312 "/>
<path style=" stroke:none;fill-rule:nonzero;fill:rgb(0%,0%,0%);fill-opacity:1;" d="M 373.320312 102.292969 L 374.644531 102.292969 C 374.46875 102.96875 374.21875 103.96875 374.21875 104.871094 C 374.21875 105.320312 374.292969 105.621094 374.34375 105.84375 C 374.519531 106.417969 374.667969 106.445312 374.84375 106.445312 C 375.117188 106.445312 375.367188 106.21875 375.367188 105.945312 C 375.367188 105.871094 375.34375 105.820312 375.292969 105.71875 C 375.070312 105.292969 374.867188 104.667969 374.867188 103.746094 C 374.867188 103.542969 374.867188 103.09375 375.019531 102.292969 L 376.417969 102.292969 C 376.617188 102.292969 376.71875 102.292969 376.84375 102.21875 C 376.992188 102.09375 377.019531 101.917969 377.019531 101.871094 C 377.019531 101.542969 376.742188 101.542969 376.542969 101.542969 L 372.34375 101.542969 C 371.894531 101.542969 371.570312 101.644531 371.070312 102.121094 C 370.769531 102.371094 370.34375 102.96875 370.34375 103.070312 C 370.34375 103.195312 370.492188 103.195312 370.542969 103.195312 C 370.667969 103.195312 370.667969 103.167969 370.742188 103.070312 C 371.292969 102.292969 371.992188 102.292969 372.242188 102.292969 L 372.917969 102.292969 C 372.570312 103.519531 371.96875 104.84375 371.644531 105.519531 C 371.570312 105.644531 371.46875 105.894531 371.417969 105.917969 C 371.417969 105.96875 371.394531 106.019531 371.394531 106.09375 C 371.394531 106.269531 371.519531 106.445312 371.792969 106.445312 C 372.21875 106.445312 372.34375 105.945312 372.617188 104.945312 Z M 373.320312 102.292969 "/>
<path style="fill:none;stroke-width:0.6368;stroke-linecap:butt;stroke-linejoin:miter;stroke:rgb(0%,0%,0%);stroke-opacity:1;stroke-miterlimit:10;" d="M 369.84375 -108.636719 L 377.699219 -108.636719 " transform="matrix(1,0,0,-1,0,0)"/>
<path style=" stroke:none;fill-rule:nonzero;fill:rgb(0%,0%,0%);fill-opacity:1;" d="M 376.21875 116.09375 L 375.84375 116.09375 C 375.820312 116.34375 375.695312 116.992188 375.542969 117.09375 C 375.46875 117.167969 374.617188 117.167969 374.445312 117.167969 L 372.394531 117.167969 C 373.570312 116.140625 373.96875 115.816406 374.617188 115.292969 C 375.445312 114.640625 376.21875 113.941406 376.21875 112.890625 C 376.21875 111.542969 375.042969 110.71875 373.617188 110.71875 C 372.242188 110.71875 371.292969 111.691406 371.292969 112.71875 C 371.292969 113.265625 371.769531 113.34375 371.894531 113.34375 C 372.144531 113.34375 372.46875 113.140625 372.46875 112.742188 C 372.46875 112.542969 372.394531 112.140625 371.820312 112.140625 C 372.167969 111.367188 372.917969 111.117188 373.445312 111.117188 C 374.570312 111.117188 375.144531 111.992188 375.144531 112.890625 C 375.144531 113.867188 374.445312 114.617188 374.09375 115.015625 L 371.417969 117.691406 C 371.292969 117.792969 371.292969 117.816406 371.292969 118.117188 L 375.894531 118.117188 Z M 376.21875 116.09375 "/>
</g>
</svg>
