<?xml version="1.0" encoding="UTF-8"?>
<svg xmlns="http://www.w3.org/2000/svg" xmlns:xlink="http://www.w3.org/1999/xlink" width="229.225006pt" height="153.550003pt" viewBox="0 0 229.225006 153.550003" version="1.1">
<defs>
<clipPath id="clip1">
  <path d="M 7 0 L 9 0 L 9 153.550781 L 7 153.550781 Z M 7 0 "/>
</clipPath>
<clipPath id="clip2">
  <path d="M 96 126 L 229.226562 126 L 229.226562 128 L 96 128 Z M 96 126 "/>
</clipPath>
</defs>
<g id="surface1">
<path style="fill:none;stroke-width:0.8;stroke-linecap:round;stroke-linejoin:round;stroke:rgb(0%,0%,0%);stroke-opacity:1;stroke-miterlimit:4;" d="M 9.257812 17.046875 C 11.390625 17.050781 13.519531 19.089844 15.652344 22.96875 C 17.78125 26.847656 19.914062 32.570312 22.042969 39.5625 C 24.175781 46.554688 26.308594 54.816406 28.4375 63.535156 C 30.570312 72.257812 32.699219 81.425781 34.832031 90.148438 C 36.960938 98.871094 39.09375 107.128906 41.222656 114.125 C 43.355469 121.121094 45.484375 126.832031 47.617188 130.714844 C 49.746094 134.597656 51.878906 136.636719 54.007812 136.636719 "/>
<path style="fill:none;stroke-width:0.4;stroke-linecap:butt;stroke-linejoin:miter;stroke:rgb(0%,0%,100%);stroke-opacity:1;stroke-dasharray:0.4,1.2;stroke-miterlimit:4;" d="M 55.144531 78.910156 L 55.144531 138.773438 "/>
<path style="fill:none;stroke-width:1.123878;stroke-linecap:round;stroke-linejoin:round;stroke:rgb(0%,0%,0%);stroke-opacity:1;stroke-miterlimit:4;" d="M 214.316406 127.027344 C 214.316406 122.8125 212.28125 118.59375 208.414062 114.378906 C 204.542969 110.160156 198.839844 105.941406 191.867188 101.726562 C 184.890625 97.507812 176.652344 93.292969 167.953125 89.074219 C 159.257812 84.859375 150.113281 80.640625 141.414062 76.421875 C 132.71875 72.207031 124.480469 67.988281 117.503906 63.773438 C 110.527344 59.554688 104.828125 55.339844 100.957031 51.121094 C 97.085938 46.90625 95.054688 42.6875 95.050781 38.46875 "/>
<path style="fill:none;stroke-width:0.4;stroke-linecap:butt;stroke-linejoin:miter;stroke:rgb(0%,0%,100%);stroke-opacity:1;stroke-dasharray:0.4,1.2;stroke-miterlimit:4;" d="M 155.625 37.8125 L 95.117188 37.8125 "/>
<path style="fill:none;stroke-width:0.8;stroke-linecap:butt;stroke-linejoin:miter;stroke:rgb(100%,0%,0%);stroke-opacity:1;stroke-miterlimit:4;" d="M 0.0078125 83.535156 L 62.117188 83.535156 "/>
<g clip-path="url(#clip1)" clip-rule="nonzero">
<path style="fill:none;stroke-width:0.8;stroke-linecap:butt;stroke-linejoin:miter;stroke:rgb(100%,0%,0%);stroke-opacity:1;stroke-miterlimit:4;" d="M 8.3125 0.0078125 L 8.3125 153.546875 "/>
</g>
<path style=" stroke:none;fill-rule:nonzero;fill:rgb(0%,0%,0%);fill-opacity:1;" d="M 26.175781 86.933594 L 27.5 86.933594 C 27.324219 87.609375 27.074219 88.609375 27.074219 89.507812 C 27.074219 89.960938 27.148438 90.257812 27.199219 90.484375 C 27.375 91.058594 27.523438 91.085938 27.699219 91.085938 C 27.972656 91.085938 28.222656 90.859375 28.222656 90.585938 C 28.222656 90.507812 28.199219 90.460938 28.148438 90.359375 C 27.925781 89.933594 27.722656 89.308594 27.722656 88.382812 C 27.722656 88.183594 27.722656 87.734375 27.875 86.933594 L 29.273438 86.933594 C 29.472656 86.933594 29.574219 86.933594 29.699219 86.859375 C 29.847656 86.734375 29.875 86.558594 29.875 86.507812 C 29.875 86.183594 29.597656 86.183594 29.398438 86.183594 L 25.199219 86.183594 C 24.75 86.183594 24.425781 86.285156 23.925781 86.757812 C 23.625 87.007812 23.199219 87.609375 23.199219 87.710938 C 23.199219 87.835938 23.347656 87.835938 23.398438 87.835938 C 23.523438 87.835938 23.523438 87.808594 23.597656 87.710938 C 24.148438 86.933594 24.847656 86.933594 25.097656 86.933594 L 25.773438 86.933594 C 25.425781 88.160156 24.824219 89.484375 24.5 90.160156 C 24.425781 90.285156 24.324219 90.535156 24.273438 90.558594 C 24.273438 90.609375 24.25 90.660156 24.25 90.734375 C 24.25 90.910156 24.375 91.085938 24.648438 91.085938 C 25.074219 91.085938 25.199219 90.585938 25.472656 89.585938 Z M 26.175781 86.933594 "/>
<path style="fill:none;stroke-width:0.6368;stroke-linecap:butt;stroke-linejoin:miter;stroke:rgb(0%,0%,0%);stroke-opacity:1;stroke-miterlimit:10;" d="M 22.699219 -93.273438 L 30.550781 -93.273438 " transform="matrix(1,0,0,-1,0,0)"/>
<path style=" stroke:none;fill-rule:nonzero;fill:rgb(0%,0%,0%);fill-opacity:1;" d="M 29.074219 100.730469 L 28.699219 100.730469 C 28.675781 100.980469 28.550781 101.632812 28.398438 101.730469 C 28.324219 101.808594 27.476562 101.808594 27.300781 101.808594 L 25.25 101.808594 C 26.425781 100.78125 26.824219 100.457031 27.476562 99.933594 C 28.300781 99.28125 29.074219 98.582031 29.074219 97.53125 C 29.074219 96.183594 27.898438 95.355469 26.476562 95.355469 C 25.101562 95.355469 24.148438 96.332031 24.148438 97.355469 C 24.148438 97.90625 24.625 97.980469 24.75 97.980469 C 25 97.980469 25.324219 97.78125 25.324219 97.382812 C 25.324219 97.183594 25.25 96.78125 24.675781 96.78125 C 25.023438 96.007812 25.773438 95.757812 26.300781 95.757812 C 27.425781 95.757812 28 96.632812 28 97.53125 C 28 98.507812 27.300781 99.257812 26.949219 99.65625 L 24.273438 102.332031 C 24.148438 102.433594 24.148438 102.457031 24.148438 102.757812 L 28.75 102.757812 Z M 29.074219 100.730469 "/>
<g clip-path="url(#clip2)" clip-rule="nonzero">
<path style="fill:none;stroke-width:0.8;stroke-linecap:butt;stroke-linejoin:miter;stroke:rgb(100%,0%,0%);stroke-opacity:1;stroke-miterlimit:4;" d="M 96.890625 127.355469 L 229.226562 127.355469 "/>
</g>
<path style="fill:none;stroke-width:0.8;stroke-linecap:butt;stroke-linejoin:miter;stroke:rgb(100%,0%,0%);stroke-opacity:1;stroke-miterlimit:4;" d="M 151.90625 24.503906 L 151.90625 145.828125 "/>
<path style=" stroke:none;fill-rule:nonzero;fill:rgb(0%,0%,0%);fill-opacity:1;" d="M 164.863281 63.132812 L 166.1875 63.132812 C 166.011719 63.808594 165.761719 64.808594 165.761719 65.707031 C 165.761719 66.15625 165.839844 66.457031 165.886719 66.683594 C 166.0625 67.257812 166.214844 67.28125 166.386719 67.28125 C 166.664062 67.28125 166.914062 67.058594 166.914062 66.78125 C 166.914062 66.707031 166.886719 66.65625 166.839844 66.558594 C 166.613281 66.132812 166.414062 65.507812 166.414062 64.582031 C 166.414062 64.382812 166.414062 63.933594 166.5625 63.132812 L 167.964844 63.132812 C 168.164062 63.132812 168.261719 63.132812 168.386719 63.058594 C 168.539062 62.933594 168.5625 62.757812 168.5625 62.707031 C 168.5625 62.382812 168.289062 62.382812 168.089844 62.382812 L 163.886719 62.382812 C 163.4375 62.382812 163.113281 62.484375 162.613281 62.957031 C 162.3125 63.207031 161.886719 63.808594 161.886719 63.90625 C 161.886719 64.03125 162.039062 64.03125 162.089844 64.03125 C 162.214844 64.03125 162.214844 64.007812 162.289062 63.90625 C 162.839844 63.132812 163.539062 63.132812 163.789062 63.132812 L 164.464844 63.132812 C 164.113281 64.359375 163.511719 65.683594 163.1875 66.359375 C 163.113281 66.484375 163.011719 66.734375 162.964844 66.757812 C 162.964844 66.808594 162.9375 66.859375 162.9375 66.933594 C 162.9375 67.109375 163.0625 67.28125 163.339844 67.28125 C 163.761719 67.28125 163.886719 66.78125 164.164062 65.78125 Z M 164.863281 63.132812 "/>
<path style="fill:none;stroke-width:0.6368;stroke-linecap:butt;stroke-linejoin:miter;stroke:rgb(0%,0%,0%);stroke-opacity:1;stroke-miterlimit:10;" d="M 161.390625 -69.472656 L 169.238281 -69.472656 " transform="matrix(1,0,0,-1,0,0)"/>
<path style=" stroke:none;fill-rule:nonzero;fill:rgb(0%,0%,0%);fill-opacity:1;" d="M 167.765625 76.929688 L 167.390625 76.929688 C 167.363281 77.179688 167.238281 77.832031 167.089844 77.929688 C 167.015625 78.003906 166.164062 78.003906 165.988281 78.003906 L 163.9375 78.003906 C 165.113281 76.980469 165.515625 76.65625 166.164062 76.128906 C 166.988281 75.480469 167.765625 74.78125 167.765625 73.730469 C 167.765625 72.378906 166.589844 71.554688 165.164062 71.554688 C 163.789062 71.554688 162.839844 72.53125 162.839844 73.554688 C 162.839844 74.105469 163.3125 74.179688 163.4375 74.179688 C 163.6875 74.179688 164.015625 73.980469 164.015625 73.582031 C 164.015625 73.378906 163.9375 72.980469 163.363281 72.980469 C 163.714844 72.207031 164.464844 71.957031 164.988281 71.957031 C 166.113281 71.957031 166.6875 72.832031 166.6875 73.730469 C 166.6875 74.707031 165.988281 75.457031 165.640625 75.855469 L 162.964844 78.53125 C 162.839844 78.628906 162.839844 78.65625 162.839844 78.957031 L 167.4375 78.957031 Z M 167.765625 76.929688 "/>
<path style=" stroke:none;fill-rule:nonzero;fill:rgb(0%,0%,0%);fill-opacity:1;" d="M 162.46875 32.398438 L 164.269531 32.398438 C 163.742188 34.746094 163.59375 35.449219 163.59375 36.523438 C 163.59375 36.746094 163.59375 37.171875 163.71875 37.722656 C 163.894531 38.421875 164.066406 38.523438 164.292969 38.523438 C 164.617188 38.523438 164.96875 38.246094 164.96875 37.921875 C 164.96875 37.824219 164.96875 37.796875 164.867188 37.574219 C 164.394531 36.421875 164.394531 35.371094 164.394531 34.921875 C 164.394531 34.097656 164.519531 33.222656 164.691406 32.398438 L 166.492188 32.398438 C 166.71875 32.398438 167.292969 32.398438 167.292969 31.847656 C 167.292969 31.472656 166.941406 31.472656 166.644531 31.472656 L 161.292969 31.472656 C 160.941406 31.472656 160.34375 31.472656 159.644531 32.222656 C 159.09375 32.847656 158.667969 33.574219 158.667969 33.648438 C 158.667969 33.671875 158.667969 33.824219 158.867188 33.824219 C 158.992188 33.824219 159.019531 33.746094 159.117188 33.621094 C 159.894531 32.398438 160.816406 32.398438 161.144531 32.398438 L 162.042969 32.398438 C 161.542969 34.324219 160.691406 36.246094 160.019531 37.699219 C 159.894531 37.949219 159.894531 37.972656 159.894531 38.097656 C 159.894531 38.398438 160.144531 38.523438 160.34375 38.523438 C 160.816406 38.523438 160.941406 38.074219 161.144531 37.496094 C 161.367188 36.746094 161.367188 36.722656 161.566406 35.921875 Z M 162.46875 32.398438 "/>
<path style=" stroke:none;fill-rule:nonzero;fill:rgb(0%,0%,0%);fill-opacity:1;" d="M 56.242188 68.714844 L 58.042969 68.714844 C 57.519531 71.0625 57.367188 71.765625 57.367188 72.839844 C 57.367188 73.0625 57.367188 73.488281 57.492188 74.039062 C 57.667969 74.738281 57.84375 74.839844 58.070312 74.839844 C 58.394531 74.839844 58.742188 74.5625 58.742188 74.238281 C 58.742188 74.140625 58.742188 74.113281 58.644531 73.890625 C 58.167969 72.738281 58.167969 71.6875 58.167969 71.238281 C 58.167969 70.414062 58.292969 69.539062 58.46875 68.714844 L 60.269531 68.714844 C 60.492188 68.714844 61.070312 68.714844 61.070312 68.164062 C 61.070312 67.789062 60.71875 67.789062 60.417969 67.789062 L 55.070312 67.789062 C 54.71875 67.789062 54.117188 67.789062 53.417969 68.539062 C 52.867188 69.164062 52.445312 69.890625 52.445312 69.964844 C 52.445312 69.988281 52.445312 70.140625 52.644531 70.140625 C 52.769531 70.140625 52.792969 70.0625 52.894531 69.9375 C 53.667969 68.714844 54.59375 68.714844 54.917969 68.714844 L 55.820312 68.714844 C 55.320312 70.640625 54.46875 72.5625 53.792969 74.015625 C 53.667969 74.265625 53.667969 74.289062 53.667969 74.414062 C 53.667969 74.714844 53.917969 74.839844 54.117188 74.839844 C 54.59375 74.839844 54.71875 74.390625 54.917969 73.8125 C 55.144531 73.0625 55.144531 73.039062 55.34375 72.238281 Z M 56.242188 68.714844 "/>
</g>
</svg>
