<?xml version="1.0" encoding="UTF-8"?>
<svg xmlns="http://www.w3.org/2000/svg" xmlns:xlink="http://www.w3.org/1999/xlink" width="299.722107pt" height="168.699997pt" viewBox="0 0 299.722107 168.699997" version="1.1">
<defs>
<clipPath id="clip1">
  <path d="M 51 14 L 53 14 L 53 168.699219 L 51 168.699219 Z M 51 14 "/>
</clipPath>
<clipPath id="clip2">
  <path d="M 107 86 L 299.722656 86 L 299.722656 88 L 107 88 Z M 107 86 "/>
</clipPath>
</defs>
<g id="surface1">
<path style="fill:none;stroke-width:0.4;stroke-linecap:butt;stroke-linejoin:miter;stroke:rgb(0%,0%,100%);stroke-opacity:1;stroke-dasharray:0.4,1.2;stroke-miterlimit:4;" d="M 88.59375 -0.00390625 L 88.59375 85.628906 "/>
<path style="fill:none;stroke-width:0.4;stroke-linecap:butt;stroke-linejoin:miter;stroke:rgb(0%,0%,100%);stroke-opacity:1;stroke-dasharray:0.4,1.2;stroke-miterlimit:4;" d="M 290.21875 44.582031 L 197.824219 44.582031 "/>
<path style="fill:none;stroke-width:0.4;stroke-linecap:butt;stroke-linejoin:miter;stroke:rgb(0%,0%,100%);stroke-opacity:1;stroke-dasharray:0.4,1.2;stroke-miterlimit:4;" d="M 13.535156 79.722656 L 13.535156 165.355469 "/>
<path style="fill:none;stroke-width:0.4;stroke-linecap:butt;stroke-linejoin:miter;stroke:rgb(0%,0%,100%);stroke-opacity:1;stroke-dasharray:0.4,1.2;stroke-miterlimit:4;" d="M 206.304688 120.285156 L 113.90625 120.285156 "/>
<path style="fill:none;stroke-width:0.8;stroke-linecap:butt;stroke-linejoin:miter;stroke:rgb(100%,0%,0%);stroke-opacity:1;stroke-miterlimit:4;" d="M 8.007812 82.898438 L 96.851562 82.898438 "/>
<g clip-path="url(#clip1)" clip-rule="nonzero">
<path style="fill:none;stroke-width:0.8;stroke-linecap:butt;stroke-linejoin:miter;stroke:rgb(100%,0%,0%);stroke-opacity:1;stroke-miterlimit:4;" d="M 52.066406 15.15625 L 52.066406 168.695312 "/>
</g>
<path style=" stroke:none;fill-rule:nonzero;fill:rgb(0%,0%,0%);fill-opacity:1;" d="M 94.734375 88.230469 L 96.058594 88.230469 C 95.882812 88.90625 95.632812 89.90625 95.632812 90.804688 C 95.632812 91.253906 95.707031 91.554688 95.757812 91.78125 C 95.933594 92.355469 96.082031 92.378906 96.257812 92.378906 C 96.535156 92.378906 96.785156 92.15625 96.785156 91.878906 C 96.785156 91.804688 96.757812 91.753906 96.707031 91.65625 C 96.484375 91.230469 96.285156 90.605469 96.285156 89.679688 C 96.285156 89.480469 96.285156 89.03125 96.433594 88.230469 L 97.832031 88.230469 C 98.035156 88.230469 98.132812 88.230469 98.257812 88.15625 C 98.410156 88.03125 98.433594 87.855469 98.433594 87.804688 C 98.433594 87.480469 98.160156 87.480469 97.957031 87.480469 L 93.757812 87.480469 C 93.308594 87.480469 92.984375 87.578125 92.484375 88.054688 C 92.183594 88.304688 91.757812 88.90625 91.757812 89.003906 C 91.757812 89.128906 91.910156 89.128906 91.957031 89.128906 C 92.082031 89.128906 92.082031 89.105469 92.160156 89.003906 C 92.707031 88.230469 93.410156 88.230469 93.660156 88.230469 L 94.332031 88.230469 C 93.984375 89.453125 93.382812 90.78125 93.058594 91.453125 C 92.984375 91.578125 92.882812 91.828125 92.832031 91.855469 C 92.832031 91.90625 92.808594 91.953125 92.808594 92.03125 C 92.808594 92.203125 92.933594 92.378906 93.207031 92.378906 C 93.632812 92.378906 93.757812 91.878906 94.035156 90.878906 Z M 94.734375 88.230469 "/>
<path style="fill:none;stroke-width:0.6368;stroke-linecap:butt;stroke-linejoin:miter;stroke:rgb(0%,0%,0%);stroke-opacity:1;stroke-miterlimit:10;" d="M 91.261719 -94.570312 L 99.109375 -94.570312 " transform="matrix(1,0,0,-1,0,0)"/>
<path style=" stroke:none;fill-rule:nonzero;fill:rgb(0%,0%,0%);fill-opacity:1;" d="M 97.632812 102.027344 L 97.257812 102.027344 C 97.234375 102.277344 97.109375 102.925781 96.957031 103.027344 C 96.882812 103.101562 96.035156 103.101562 95.859375 103.101562 L 93.808594 103.101562 C 94.984375 102.078125 95.382812 101.753906 96.035156 101.226562 C 96.859375 100.578125 97.632812 99.878906 97.632812 98.828125 C 97.632812 97.476562 96.457031 96.652344 95.035156 96.652344 C 93.660156 96.652344 92.707031 97.628906 92.707031 98.652344 C 92.707031 99.203125 93.183594 99.277344 93.308594 99.277344 C 93.558594 99.277344 93.882812 99.078125 93.882812 98.675781 C 93.882812 98.476562 93.808594 98.078125 93.234375 98.078125 C 93.582031 97.300781 94.332031 97.050781 94.859375 97.050781 C 95.984375 97.050781 96.558594 97.925781 96.558594 98.828125 C 96.558594 99.800781 95.859375 100.550781 95.507812 100.953125 L 92.832031 103.628906 C 92.707031 103.726562 92.707031 103.753906 92.707031 104.050781 L 97.308594 104.050781 Z M 97.632812 102.027344 "/>
<g clip-path="url(#clip2)" clip-rule="nonzero">
<path style="fill:none;stroke-width:0.8;stroke-linecap:butt;stroke-linejoin:miter;stroke:rgb(100%,0%,0%);stroke-opacity:1;stroke-miterlimit:4;" d="M 107.46875 86.773438 L 299.71875 86.773438 "/>
</g>
<path style="fill:none;stroke-width:0.8;stroke-linecap:butt;stroke-linejoin:miter;stroke:rgb(100%,0%,0%);stroke-opacity:1;stroke-miterlimit:4;" d="M 198.882812 28.050781 L 198.882812 149.378906 "/>
<path style="fill:none;stroke-width:0.680937;stroke-linecap:round;stroke-linejoin:round;stroke:rgb(0%,0%,0%);stroke-opacity:1;stroke-miterlimit:4;" d="M 15.40625 164.152344 C 17.519531 128.25 19.632812 124.15625 21.746094 117.191406 C 23.855469 110.222656 25.96875 106.492188 28.082031 103.382812 C 30.191406 100.277344 32.304688 98.046875 34.417969 96.117188 C 36.527344 94.191406 38.640625 92.597656 40.753906 91.136719 C 42.867188 89.675781 44.976562 88.359375 47.089844 87.074219 C 49.203125 85.792969 51.3125 84.550781 53.425781 83.269531 C 55.539062 81.984375 57.648438 80.667969 59.761719 79.207031 C 61.875 77.746094 63.988281 76.152344 66.097656 74.226562 C 68.210938 72.296875 70.324219 70.066406 72.433594 66.960938 C 74.546875 63.855469 76.660156 60.113281 78.773438 53.15625 C 80.882812 46.195312 82.996094 42.09375 85.109375 6.191406 "/>
<path style=" stroke:none;fill-rule:nonzero;fill:rgb(0%,0%,0%);fill-opacity:1;" d="M 9.226562 97.171875 C 9.449219 97.171875 9.75 97.171875 9.75 96.847656 C 9.75 96.546875 9.449219 96.546875 9.226562 96.546875 L 0.523438 96.546875 C 0.300781 96.546875 0 96.546875 0 96.847656 C 0 97.171875 0.300781 97.171875 0.523438 97.171875 Z M 9.226562 97.171875 "/>
<path style=" stroke:none;fill-rule:nonzero;fill:rgb(0%,0%,0%);fill-opacity:1;" d="M 16.460938 90.519531 L 17.785156 90.519531 C 17.609375 91.195312 17.359375 92.195312 17.359375 93.097656 C 17.359375 93.546875 17.433594 93.847656 17.484375 94.070312 C 17.660156 94.644531 17.808594 94.671875 17.984375 94.671875 C 18.261719 94.671875 18.511719 94.445312 18.511719 94.171875 C 18.511719 94.097656 18.484375 94.046875 18.433594 93.945312 C 18.210938 93.519531 18.011719 92.894531 18.011719 91.972656 C 18.011719 91.769531 18.011719 91.320312 18.160156 90.519531 L 19.558594 90.519531 C 19.761719 90.519531 19.859375 90.519531 19.984375 90.445312 C 20.136719 90.320312 20.160156 90.144531 20.160156 90.097656 C 20.160156 89.769531 19.886719 89.769531 19.683594 89.769531 L 15.484375 89.769531 C 15.035156 89.769531 14.710938 89.871094 14.210938 90.347656 C 13.910156 90.597656 13.484375 91.195312 13.484375 91.296875 C 13.484375 91.421875 13.636719 91.421875 13.683594 91.421875 C 13.808594 91.421875 13.808594 91.394531 13.886719 91.296875 C 14.433594 90.519531 15.136719 90.519531 15.386719 90.519531 L 16.058594 90.519531 C 15.710938 91.746094 15.109375 93.070312 14.785156 93.746094 C 14.710938 93.871094 14.609375 94.121094 14.558594 94.144531 C 14.558594 94.195312 14.535156 94.246094 14.535156 94.320312 C 14.535156 94.496094 14.660156 94.671875 14.933594 94.671875 C 15.359375 94.671875 15.484375 94.171875 15.761719 93.171875 Z M 16.460938 90.519531 "/>
<path style="fill:none;stroke-width:0.6368;stroke-linecap:butt;stroke-linejoin:miter;stroke:rgb(0%,0%,0%);stroke-opacity:1;stroke-miterlimit:10;" d="M 12.984375 -96.859375 L 20.839844 -96.859375 " transform="matrix(1,0,0,-1,0,0)"/>
<path style=" stroke:none;fill-rule:nonzero;fill:rgb(0%,0%,0%);fill-opacity:1;" d="M 19.359375 104.320312 L 18.984375 104.320312 C 18.960938 104.570312 18.835938 105.21875 18.6875 105.320312 C 18.609375 105.394531 17.761719 105.394531 17.585938 105.394531 L 15.535156 105.394531 C 16.710938 104.367188 17.109375 104.042969 17.761719 103.519531 C 18.585938 102.867188 19.359375 102.167969 19.359375 101.117188 C 19.359375 99.769531 18.1875 98.945312 16.761719 98.945312 C 15.386719 98.945312 14.4375 99.917969 14.4375 100.945312 C 14.4375 101.492188 14.910156 101.570312 15.035156 101.570312 C 15.285156 101.570312 15.609375 101.367188 15.609375 100.96875 C 15.609375 100.769531 15.535156 100.367188 14.960938 100.367188 C 15.3125 99.59375 16.0625 99.34375 16.585938 99.34375 C 17.710938 99.34375 18.285156 100.21875 18.285156 101.117188 C 18.285156 102.09375 17.585938 102.84375 17.234375 103.242188 L 14.5625 105.917969 C 14.4375 106.019531 14.4375 106.042969 14.4375 106.34375 L 19.035156 106.34375 Z M 19.359375 104.320312 "/>
<path style="fill:none;stroke-width:0.680937;stroke-linecap:round;stroke-linejoin:round;stroke:rgb(0%,0%,0%);stroke-opacity:1;stroke-miterlimit:4;" d="M 122.679688 117.765625 C 158.582031 115.65625 162.675781 113.542969 169.644531 111.429688 C 176.609375 109.320312 180.339844 107.207031 183.449219 105.09375 C 186.554688 102.980469 188.785156 100.871094 190.714844 98.757812 C 192.644531 96.644531 194.234375 94.535156 195.695312 92.421875 C 197.15625 90.308594 198.476562 88.199219 199.757812 86.085938 C 201.039062 83.972656 202.28125 81.859375 203.5625 79.75 C 204.847656 77.636719 206.164062 75.523438 207.625 73.414062 C 209.085938 71.300781 210.679688 69.1875 212.605469 67.074219 C 214.535156 64.964844 216.765625 62.851562 219.871094 60.738281 C 222.976562 58.628906 226.71875 56.515625 233.679688 54.402344 C 240.636719 52.292969 244.742188 50.179688 280.640625 48.066406 "/>
<path style=" stroke:none;fill-rule:nonzero;fill:rgb(0%,0%,0%);fill-opacity:1;" d="M 191.546875 34.792969 L 192.871094 34.792969 C 192.695312 35.46875 192.445312 36.46875 192.445312 37.367188 C 192.445312 37.816406 192.519531 38.117188 192.570312 38.34375 C 192.746094 38.917969 192.894531 38.941406 193.070312 38.941406 C 193.34375 38.941406 193.59375 38.71875 193.59375 38.441406 C 193.59375 38.367188 193.570312 38.316406 193.519531 38.21875 C 193.296875 37.792969 193.09375 37.167969 193.09375 36.242188 C 193.09375 36.042969 193.09375 35.59375 193.246094 34.792969 L 194.644531 34.792969 C 194.84375 34.792969 194.945312 34.792969 195.070312 34.71875 C 195.21875 34.59375 195.246094 34.417969 195.246094 34.367188 C 195.246094 34.042969 194.96875 34.042969 194.769531 34.042969 L 190.570312 34.042969 C 190.121094 34.042969 189.796875 34.140625 189.296875 34.617188 C 188.996094 34.867188 188.570312 35.46875 188.570312 35.566406 C 188.570312 35.691406 188.71875 35.691406 188.769531 35.691406 C 188.894531 35.691406 188.894531 35.667969 188.96875 35.566406 C 189.519531 34.792969 190.21875 34.792969 190.46875 34.792969 L 191.144531 34.792969 C 190.796875 36.015625 190.195312 37.34375 189.871094 38.015625 C 189.796875 38.140625 189.695312 38.390625 189.644531 38.417969 C 189.644531 38.46875 189.621094 38.515625 189.621094 38.59375 C 189.621094 38.765625 189.746094 38.941406 190.019531 38.941406 C 190.445312 38.941406 190.570312 38.441406 190.84375 37.441406 Z M 191.546875 34.792969 "/>
<path style="fill:none;stroke-width:0.6368;stroke-linecap:butt;stroke-linejoin:miter;stroke:rgb(0%,0%,0%);stroke-opacity:1;stroke-miterlimit:10;" d="M 188.070312 -41.132812 L 195.921875 -41.132812 " transform="matrix(1,0,0,-1,0,0)"/>
<path style=" stroke:none;fill-rule:nonzero;fill:rgb(0%,0%,0%);fill-opacity:1;" d="M 194.445312 48.589844 L 194.070312 48.589844 C 194.046875 48.839844 193.921875 49.488281 193.769531 49.589844 C 193.695312 49.664062 192.84375 49.664062 192.671875 49.664062 L 190.621094 49.664062 C 191.796875 48.640625 192.195312 48.316406 192.84375 47.789062 C 193.671875 47.140625 194.445312 46.441406 194.445312 45.390625 C 194.445312 44.039062 193.269531 43.214844 191.84375 43.214844 C 190.46875 43.214844 189.519531 44.191406 189.519531 45.214844 C 189.519531 45.765625 189.996094 45.839844 190.121094 45.839844 C 190.371094 45.839844 190.695312 45.640625 190.695312 45.238281 C 190.695312 45.039062 190.621094 44.640625 190.046875 44.640625 C 190.394531 43.863281 191.144531 43.613281 191.671875 43.613281 C 192.796875 43.613281 193.371094 44.488281 193.371094 45.390625 C 193.371094 46.363281 192.671875 47.113281 192.320312 47.515625 L 189.644531 50.191406 C 189.519531 50.289062 189.519531 50.316406 189.519531 50.613281 L 194.121094 50.613281 Z M 194.445312 48.589844 "/>
<path style=" stroke:none;fill-rule:nonzero;fill:rgb(0%,0%,0%);fill-opacity:1;" d="M 211.582031 124.554688 C 211.804688 124.554688 212.105469 124.554688 212.105469 124.230469 C 212.105469 123.929688 211.804688 123.929688 211.582031 123.929688 L 202.882812 123.929688 C 202.65625 123.929688 202.355469 123.929688 202.355469 124.230469 C 202.355469 124.554688 202.65625 124.554688 202.882812 124.554688 Z M 211.582031 124.554688 "/>
<path style=" stroke:none;fill-rule:nonzero;fill:rgb(0%,0%,0%);fill-opacity:1;" d="M 218.816406 117.902344 L 220.140625 117.902344 C 219.964844 118.578125 219.714844 119.578125 219.714844 120.476562 C 219.714844 120.925781 219.792969 121.226562 219.839844 121.453125 C 220.015625 122.027344 220.167969 122.050781 220.339844 122.050781 C 220.617188 122.050781 220.867188 121.828125 220.867188 121.550781 C 220.867188 121.476562 220.839844 121.425781 220.792969 121.328125 C 220.566406 120.902344 220.367188 120.277344 220.367188 119.351562 C 220.367188 119.152344 220.367188 118.703125 220.515625 117.902344 L 221.917969 117.902344 C 222.117188 117.902344 222.214844 117.902344 222.339844 117.828125 C 222.492188 117.703125 222.515625 117.527344 222.515625 117.476562 C 222.515625 117.152344 222.242188 117.152344 222.042969 117.152344 L 217.839844 117.152344 C 217.390625 117.152344 217.066406 117.253906 216.566406 117.726562 C 216.265625 117.976562 215.839844 118.578125 215.839844 118.675781 C 215.839844 118.800781 215.992188 118.800781 216.042969 118.800781 C 216.167969 118.800781 216.167969 118.777344 216.242188 118.675781 C 216.792969 117.902344 217.492188 117.902344 217.742188 117.902344 L 218.417969 117.902344 C 218.066406 119.128906 217.464844 120.453125 217.140625 121.128906 C 217.066406 121.253906 216.964844 121.503906 216.917969 121.527344 C 216.917969 121.578125 216.890625 121.628906 216.890625 121.703125 C 216.890625 121.878906 217.015625 122.050781 217.292969 122.050781 C 217.714844 122.050781 217.839844 121.550781 218.117188 120.550781 Z M 218.816406 117.902344 "/>
<path style="fill:none;stroke-width:0.6368;stroke-linecap:butt;stroke-linejoin:miter;stroke:rgb(0%,0%,0%);stroke-opacity:1;stroke-miterlimit:10;" d="M 215.339844 -124.242188 L 223.195312 -124.242188 " transform="matrix(1,0,0,-1,0,0)"/>
<path style=" stroke:none;fill-rule:nonzero;fill:rgb(0%,0%,0%);fill-opacity:1;" d="M 221.71875 131.699219 L 221.34375 131.699219 C 221.316406 131.949219 221.191406 132.601562 221.042969 132.699219 C 220.96875 132.773438 220.117188 132.773438 219.941406 132.773438 L 217.890625 132.773438 C 219.066406 131.75 219.46875 131.425781 220.117188 130.898438 C 220.941406 130.25 221.71875 129.550781 221.71875 128.5 C 221.71875 127.148438 220.542969 126.324219 219.117188 126.324219 C 217.742188 126.324219 216.792969 127.300781 216.792969 128.324219 C 216.792969 128.875 217.265625 128.949219 217.390625 128.949219 C 217.640625 128.949219 217.96875 128.75 217.96875 128.351562 C 217.96875 128.148438 217.890625 127.75 217.316406 127.75 C 217.667969 126.976562 218.417969 126.726562 218.941406 126.726562 C 220.066406 126.726562 220.640625 127.601562 220.640625 128.5 C 220.640625 129.476562 219.941406 130.226562 219.59375 130.625 L 216.917969 133.300781 C 216.792969 133.398438 216.792969 133.425781 216.792969 133.726562 L 221.390625 133.726562 Z M 221.71875 131.699219 "/>
</g>
</svg>
