<?xml version="1.0" encoding="UTF-8"?>
<svg xmlns="http://www.w3.org/2000/svg" xmlns:xlink="http://www.w3.org/1999/xlink" width="506.385254pt" height="94.912399pt" viewBox="0 0 506.385254 94.912399" version="1.1">
<defs>
<clipPath id="clip1">
  <path d="M 130 88 L 134 88 L 134 94.914062 L 130 94.914062 Z M 130 88 "/>
</clipPath>
<clipPath id="clip2">
  <path d="M 303 89 L 307 89 L 307 94.914062 L 303 94.914062 Z M 303 89 "/>
</clipPath>
<clipPath id="clip3">
  <path d="M 357 86 L 506.386719 86 L 506.386719 87 L 357 87 Z M 357 86 "/>
</clipPath>
<clipPath id="clip4">
  <path d="M 476 89 L 479 89 L 479 94.914062 L 476 94.914062 Z M 476 89 "/>
</clipPath>
<clipPath id="clip5">
  <path d="M 388 90 L 391 90 L 391 94.914062 L 388 94.914062 Z M 388 90 "/>
</clipPath>
<clipPath id="clip6">
  <path d="M 407 90 L 410 90 L 410 94.914062 L 407 94.914062 Z M 407 90 "/>
</clipPath>
<clipPath id="clip7">
  <path d="M 441 90 L 445 90 L 445 94.914062 L 441 94.914062 Z M 441 90 "/>
</clipPath>
</defs>
<g id="surface1">
<path style="fill:none;stroke-width:0.8;stroke-linecap:butt;stroke-linejoin:miter;stroke:rgb(0%,0%,100%);stroke-opacity:1;stroke-dasharray:0.8,1.6;stroke-miterlimit:4;" d="M 189.585938 38.390625 L 269.179688 38.390625 L 269.609375 86.390625 "/>
<path style="fill:none;stroke-width:0.8;stroke-linecap:butt;stroke-linejoin:miter;stroke:rgb(100%,0%,0%);stroke-opacity:1;stroke-miterlimit:4;" d="M 16.785156 -0.0117188 L 16.785156 91.191406 "/>
<path style="fill:none;stroke-width:0.8;stroke-linecap:butt;stroke-linejoin:miter;stroke:rgb(100%,0%,0%);stroke-opacity:1;stroke-miterlimit:4;" d="M 11.984375 86.390625 L 160.785156 86.390625 "/>
<path style="fill:none;stroke-width:0.8;stroke-linecap:butt;stroke-linejoin:miter;stroke:rgb(0%,0%,100%);stroke-opacity:1;stroke-dasharray:0.8,1.6;stroke-miterlimit:4;" d="M 16.785156 12.101562 L 131.984375 12.101562 L 131.984375 86.390625 "/>
<path style="fill:none;stroke-width:0.8;stroke-linecap:butt;stroke-linejoin:miter;stroke:rgb(0%,0%,100%);stroke-opacity:1;stroke-dasharray:0.8,1.6;stroke-miterlimit:4;" d="M 16.785156 65.15625 L 31.183594 65.15625 L 31.152344 86.390625 "/>
<path style="fill:none;stroke-width:1.6;stroke-linecap:butt;stroke-linejoin:miter;stroke:rgb(0%,0%,0%);stroke-opacity:1;stroke-miterlimit:4;" d="M 21.585938 81.589844 C 21.585938 81.589844 32.9375 56.136719 45.585938 52.789062 C 58.234375 49.445312 67.066406 74.140625 83.984375 67.191406 C 100.902344 60.238281 93.265625 8.945312 112.785156 4.789062 C 132.304688 0.632812 151.183594 38.390625 151.183594 38.390625 "/>
<path style=" stroke:none;fill-rule:nonzero;fill:rgb(0%,0%,0%);fill-opacity:1;" d="M 32.253906 89.863281 C 32.101562 89.5625 31.878906 89.351562 31.515625 89.351562 C 30.589844 89.351562 29.601562 90.527344 29.601562 91.6875 C 29.601562 92.4375 30.039062 92.964844 30.652344 92.964844 C 30.816406 92.964844 31.214844 92.925781 31.691406 92.363281 C 31.753906 92.703125 32.039062 92.964844 32.414062 92.964844 C 32.703125 92.964844 32.878906 92.777344 33.015625 92.527344 C 33.140625 92.238281 33.253906 91.75 33.253906 91.738281 C 33.253906 91.652344 33.175781 91.652344 33.152344 91.652344 C 33.078125 91.652344 33.066406 91.6875 33.039062 91.800781 C 32.902344 92.3125 32.765625 92.789062 32.441406 92.789062 C 32.214844 92.789062 32.203125 92.578125 32.203125 92.425781 C 32.203125 92.25 32.214844 92.175781 32.300781 91.828125 C 32.390625 91.5 32.402344 91.414062 32.476562 91.113281 L 32.765625 90 C 32.816406 89.777344 32.816406 89.765625 32.816406 89.726562 C 32.816406 89.589844 32.726562 89.515625 32.589844 89.515625 C 32.390625 89.515625 32.277344 89.6875 32.253906 89.863281 Z M 31.738281 91.925781 C 31.691406 92.078125 31.691406 92.089844 31.578125 92.226562 C 31.226562 92.664062 30.902344 92.789062 30.675781 92.789062 C 30.277344 92.789062 30.164062 92.351562 30.164062 92.039062 C 30.164062 91.640625 30.414062 90.664062 30.601562 90.289062 C 30.851562 89.828125 31.203125 89.527344 31.527344 89.527344 C 32.039062 89.527344 32.152344 90.175781 32.152344 90.226562 C 32.152344 90.277344 32.140625 90.328125 32.128906 90.363281 Z M 31.738281 91.925781 "/>
<g clip-path="url(#clip1)" clip-rule="nonzero">
<path style=" stroke:none;fill-rule:nonzero;fill:rgb(0%,0%,0%);fill-opacity:1;" d="M 131.976562 89.082031 C 131.976562 89.082031 131.976562 88.992188 131.878906 88.992188 C 131.703125 88.992188 131.113281 89.054688 130.902344 89.082031 C 130.839844 89.082031 130.753906 89.09375 130.753906 89.230469 C 130.753906 89.332031 130.828125 89.332031 130.953125 89.332031 C 131.328125 89.332031 131.339844 89.378906 131.339844 89.46875 C 131.339844 89.519531 131.277344 89.792969 131.238281 89.957031 L 130.578125 92.554688 C 130.488281 92.957031 130.453125 93.09375 130.453125 93.367188 C 130.453125 94.117188 130.878906 94.617188 131.464844 94.617188 C 132.402344 94.617188 133.390625 93.429688 133.390625 92.28125 C 133.390625 91.554688 132.964844 91.003906 132.328125 91.003906 C 131.964844 91.003906 131.628906 91.242188 131.390625 91.480469 Z M 131.238281 92.09375 C 131.277344 91.917969 131.277344 91.90625 131.351562 91.816406 C 131.738281 91.304688 132.101562 91.179688 132.316406 91.179688 C 132.601562 91.179688 132.816406 91.417969 132.816406 91.929688 C 132.816406 92.40625 132.550781 93.316406 132.402344 93.617188 C 132.140625 94.15625 131.777344 94.441406 131.464844 94.441406 C 131.191406 94.441406 130.925781 94.230469 130.925781 93.644531 C 130.925781 93.480469 130.925781 93.332031 131.050781 92.832031 Z M 131.238281 92.09375 "/>
</g>
<path style=" stroke:none;fill-rule:nonzero;fill:rgb(0%,0%,0%);fill-opacity:1;" d="M 2.5 63.695312 L 3.1875 63.695312 C 3.351562 63.695312 3.425781 63.695312 3.425781 63.535156 C 3.425781 63.445312 3.351562 63.445312 3.210938 63.445312 L 2.550781 63.445312 L 2.710938 62.535156 C 2.75 62.371094 2.863281 61.808594 2.914062 61.707031 C 2.976562 61.558594 3.113281 61.433594 3.289062 61.433594 C 3.3125 61.433594 3.523438 61.433594 3.675781 61.582031 C 3.324219 61.609375 3.238281 61.894531 3.238281 62.007812 C 3.238281 62.195312 3.386719 62.296875 3.539062 62.296875 C 3.75 62.296875 3.976562 62.109375 3.976562 61.808594 C 3.976562 61.445312 3.613281 61.257812 3.289062 61.257812 C 3.011719 61.257812 2.511719 61.410156 2.273438 62.195312 C 2.226562 62.359375 2.199219 62.445312 2.011719 63.445312 L 1.460938 63.445312 C 1.300781 63.445312 1.210938 63.445312 1.210938 63.597656 C 1.210938 63.695312 1.289062 63.695312 1.4375 63.695312 L 1.960938 63.695312 L 1.375 66.847656 C 1.226562 67.621094 1.085938 68.347656 0.675781 68.347656 C 0.636719 68.347656 0.449219 68.347656 0.289062 68.195312 C 0.664062 68.171875 0.738281 67.882812 0.738281 67.769531 C 0.738281 67.582031 0.585938 67.484375 0.4375 67.484375 C 0.226562 67.484375 0 67.671875 0 67.972656 C 0 68.320312 0.351562 68.519531 0.675781 68.519531 C 1.113281 68.519531 1.4375 68.046875 1.574219 67.746094 C 1.835938 67.246094 2.011719 66.285156 2.023438 66.222656 Z M 2.5 63.695312 "/>
<path style=" stroke:none;fill-rule:nonzero;fill:rgb(0%,0%,0%);fill-opacity:1;" d="M 6.972656 68.796875 C 6.972656 68.769531 6.972656 68.757812 6.835938 68.621094 C 5.847656 67.621094 5.585938 66.109375 5.585938 64.882812 C 5.585938 63.496094 5.886719 62.109375 6.871094 61.121094 C 6.972656 61.019531 6.972656 61.007812 6.972656 60.984375 C 6.972656 60.921875 6.949219 60.894531 6.898438 60.894531 C 6.808594 60.894531 6.097656 61.445312 5.621094 62.457031 C 5.222656 63.332031 5.121094 64.222656 5.121094 64.882812 C 5.121094 65.507812 5.210938 66.472656 5.648438 67.382812 C 6.136719 68.359375 6.808594 68.882812 6.898438 68.882812 C 6.949219 68.882812 6.972656 68.859375 6.972656 68.796875 Z M 6.972656 68.796875 "/>
<path style=" stroke:none;fill-rule:nonzero;fill:rgb(0%,0%,0%);fill-opacity:1;" d="M 10.410156 63.871094 C 10.257812 63.570312 10.035156 63.359375 9.671875 63.359375 C 8.746094 63.359375 7.757812 64.535156 7.757812 65.695312 C 7.757812 66.445312 8.195312 66.972656 8.808594 66.972656 C 8.972656 66.972656 9.371094 66.933594 9.847656 66.371094 C 9.910156 66.707031 10.195312 66.972656 10.570312 66.972656 C 10.859375 66.972656 11.035156 66.785156 11.171875 66.535156 C 11.296875 66.246094 11.410156 65.757812 11.410156 65.746094 C 11.410156 65.660156 11.335938 65.660156 11.308594 65.660156 C 11.234375 65.660156 11.222656 65.695312 11.195312 65.808594 C 11.058594 66.320312 10.921875 66.796875 10.597656 66.796875 C 10.371094 66.796875 10.359375 66.582031 10.359375 66.433594 C 10.359375 66.257812 10.371094 66.183594 10.460938 65.832031 C 10.546875 65.507812 10.558594 65.421875 10.632812 65.121094 L 10.921875 64.007812 C 10.972656 63.785156 10.972656 63.769531 10.972656 63.734375 C 10.972656 63.597656 10.882812 63.519531 10.746094 63.519531 C 10.546875 63.519531 10.433594 63.695312 10.410156 63.871094 Z M 9.898438 65.933594 C 9.847656 66.082031 9.847656 66.097656 9.734375 66.234375 C 9.382812 66.671875 9.058594 66.796875 8.835938 66.796875 C 8.433594 66.796875 8.320312 66.359375 8.320312 66.046875 C 8.320312 65.644531 8.570312 64.671875 8.757812 64.296875 C 9.007812 63.832031 9.359375 63.535156 9.683594 63.535156 C 10.195312 63.535156 10.308594 64.183594 10.308594 64.234375 C 10.308594 64.285156 10.296875 64.332031 10.285156 64.371094 Z M 9.898438 65.933594 "/>
<path style=" stroke:none;fill-rule:nonzero;fill:rgb(0%,0%,0%);fill-opacity:1;" d="M 13.949219 64.882812 C 13.949219 64.269531 13.859375 63.308594 13.421875 62.394531 C 12.949219 61.421875 12.261719 60.894531 12.183594 60.894531 C 12.136719 60.894531 12.097656 60.933594 12.097656 60.984375 C 12.097656 61.007812 12.097656 61.019531 12.246094 61.171875 C 13.035156 61.957031 13.484375 63.222656 13.484375 64.882812 C 13.484375 66.257812 13.199219 67.660156 12.210938 68.660156 C 12.097656 68.757812 12.097656 68.769531 12.097656 68.796875 C 12.097656 68.847656 12.136719 68.882812 12.183594 68.882812 C 12.261719 68.882812 12.984375 68.332031 13.449219 67.320312 C 13.859375 66.445312 13.949219 65.558594 13.949219 64.882812 Z M 13.949219 64.882812 "/>
<path style=" stroke:none;fill-rule:nonzero;fill:rgb(0%,0%,0%);fill-opacity:1;" d="M 3.367188 10.84375 L 4.054688 10.84375 C 4.21875 10.84375 4.292969 10.84375 4.292969 10.679688 C 4.292969 10.59375 4.21875 10.59375 4.078125 10.59375 L 3.417969 10.59375 L 3.578125 9.679688 C 3.617188 9.515625 3.730469 8.953125 3.78125 8.855469 C 3.84375 8.703125 3.980469 8.578125 4.15625 8.578125 C 4.179688 8.578125 4.390625 8.578125 4.542969 8.730469 C 4.191406 8.753906 4.105469 9.042969 4.105469 9.15625 C 4.105469 9.34375 4.253906 9.441406 4.40625 9.441406 C 4.617188 9.441406 4.84375 9.253906 4.84375 8.953125 C 4.84375 8.59375 4.480469 8.40625 4.15625 8.40625 C 3.878906 8.40625 3.378906 8.554688 3.140625 9.34375 C 3.09375 9.503906 3.066406 9.59375 2.878906 10.59375 L 2.328125 10.59375 C 2.167969 10.59375 2.078125 10.59375 2.078125 10.742188 C 2.078125 10.84375 2.15625 10.84375 2.304688 10.84375 L 2.828125 10.84375 L 2.242188 13.992188 C 2.09375 14.765625 1.953125 15.492188 1.542969 15.492188 C 1.503906 15.492188 1.316406 15.492188 1.15625 15.34375 C 1.53125 15.316406 1.605469 15.03125 1.605469 14.917969 C 1.605469 14.730469 1.453125 14.628906 1.304688 14.628906 C 1.09375 14.628906 0.867188 14.816406 0.867188 15.117188 C 0.867188 15.46875 1.21875 15.667969 1.542969 15.667969 C 1.980469 15.667969 2.304688 15.191406 2.441406 14.890625 C 2.703125 14.390625 2.878906 13.429688 2.890625 13.367188 Z M 3.367188 10.84375 "/>
<path style=" stroke:none;fill-rule:nonzero;fill:rgb(0%,0%,0%);fill-opacity:1;" d="M 7.839844 15.941406 C 7.839844 15.917969 7.839844 15.90625 7.703125 15.765625 C 6.714844 14.765625 6.453125 13.253906 6.453125 12.03125 C 6.453125 10.640625 6.753906 9.253906 7.738281 8.265625 C 7.839844 8.167969 7.839844 8.15625 7.839844 8.128906 C 7.839844 8.066406 7.816406 8.042969 7.765625 8.042969 C 7.675781 8.042969 6.964844 8.59375 6.488281 9.605469 C 6.089844 10.480469 5.988281 11.367188 5.988281 12.03125 C 5.988281 12.65625 6.078125 13.617188 6.515625 14.53125 C 7.003906 15.503906 7.675781 16.03125 7.765625 16.03125 C 7.816406 16.03125 7.839844 16.003906 7.839844 15.941406 Z M 7.839844 15.941406 "/>
<path style=" stroke:none;fill-rule:nonzero;fill:rgb(0%,0%,0%);fill-opacity:1;" d="M 10.203125 8.578125 C 10.203125 8.578125 10.203125 8.492188 10.101562 8.492188 C 9.925781 8.492188 9.339844 8.554688 9.125 8.578125 C 9.0625 8.578125 8.976562 8.59375 8.976562 8.730469 C 8.976562 8.828125 9.050781 8.828125 9.175781 8.828125 C 9.550781 8.828125 9.5625 8.878906 9.5625 8.96875 C 9.5625 9.015625 9.5 9.292969 9.464844 9.453125 L 8.800781 12.054688 C 8.714844 12.453125 8.675781 12.59375 8.675781 12.867188 C 8.675781 13.617188 9.101562 14.117188 9.6875 14.117188 C 10.625 14.117188 11.613281 12.929688 11.613281 11.78125 C 11.613281 11.054688 11.1875 10.503906 10.550781 10.503906 C 10.1875 10.503906 9.851562 10.742188 9.613281 10.980469 Z M 9.464844 11.59375 C 9.5 11.417969 9.5 11.40625 9.578125 11.316406 C 9.964844 10.804688 10.328125 10.679688 10.539062 10.679688 C 10.828125 10.679688 11.039062 10.917969 11.039062 11.429688 C 11.039062 11.90625 10.777344 12.816406 10.625 13.117188 C 10.363281 13.65625 10 13.941406 9.6875 13.941406 C 9.414062 13.941406 9.152344 13.730469 9.152344 13.140625 C 9.152344 12.980469 9.152344 12.828125 9.277344 12.328125 Z M 9.464844 11.59375 "/>
<path style=" stroke:none;fill-rule:nonzero;fill:rgb(0%,0%,0%);fill-opacity:1;" d="M 14.023438 12.03125 C 14.023438 11.417969 13.933594 10.453125 13.496094 9.542969 C 13.023438 8.566406 12.335938 8.042969 12.261719 8.042969 C 12.210938 8.042969 12.171875 8.078125 12.171875 8.128906 C 12.171875 8.15625 12.171875 8.167969 12.324219 8.316406 C 13.109375 9.105469 13.558594 10.367188 13.558594 12.03125 C 13.558594 13.40625 13.273438 14.804688 12.285156 15.804688 C 12.171875 15.90625 12.171875 15.917969 12.171875 15.941406 C 12.171875 15.992188 12.210938 16.03125 12.261719 16.03125 C 12.335938 16.03125 13.058594 15.480469 13.523438 14.46875 C 13.933594 13.59375 14.023438 12.703125 14.023438 12.03125 Z M 14.023438 12.03125 "/>
<path style="fill:none;stroke-width:0.8;stroke-linecap:butt;stroke-linejoin:miter;stroke:rgb(100%,0%,0%);stroke-opacity:1;stroke-miterlimit:4;" d="M 189.542969 0.285156 L 189.542969 91.484375 "/>
<path style="fill:none;stroke-width:0.8;stroke-linecap:butt;stroke-linejoin:miter;stroke:rgb(100%,0%,0%);stroke-opacity:1;stroke-miterlimit:4;" d="M 184.746094 86.683594 L 333.542969 86.683594 "/>
<path style="fill:none;stroke-width:0.8;stroke-linecap:butt;stroke-linejoin:miter;stroke:rgb(0%,0%,100%);stroke-opacity:1;stroke-dasharray:0.8,1.6;stroke-miterlimit:4;" d="M 189.542969 12.394531 L 304.746094 12.394531 L 304.746094 86.683594 "/>
<path style="fill:none;stroke-width:0.8;stroke-linecap:butt;stroke-linejoin:miter;stroke:rgb(0%,0%,100%);stroke-opacity:1;stroke-dasharray:0.8,1.6;stroke-miterlimit:4;" d="M 189.542969 65.449219 L 203.945312 65.449219 L 203.914062 86.683594 "/>
<path style="fill:none;stroke-width:1.6;stroke-linecap:butt;stroke-linejoin:miter;stroke:rgb(0%,0%,0%);stroke-opacity:1;stroke-miterlimit:4;" d="M 194.34375 81.882812 C 194.34375 81.882812 205.695312 56.429688 218.34375 53.085938 C 230.992188 49.738281 239.828125 74.433594 256.746094 67.484375 C 273.660156 60.535156 266.023438 9.242188 285.542969 5.085938 C 305.066406 0.929688 323.945312 38.683594 323.945312 38.683594 "/>
<path style=" stroke:none;fill-rule:nonzero;fill:rgb(0%,0%,0%);fill-opacity:1;" d="M 205.011719 90.160156 C 204.863281 89.859375 204.636719 89.644531 204.273438 89.644531 C 203.347656 89.644531 202.363281 90.820312 202.363281 91.984375 C 202.363281 92.734375 202.800781 93.257812 203.410156 93.257812 C 203.574219 93.257812 203.972656 93.222656 204.449219 92.660156 C 204.511719 92.996094 204.800781 93.257812 205.175781 93.257812 C 205.460938 93.257812 205.636719 93.070312 205.773438 92.820312 C 205.898438 92.535156 206.011719 92.046875 206.011719 92.035156 C 206.011719 91.945312 205.9375 91.945312 205.910156 91.945312 C 205.835938 91.945312 205.824219 91.984375 205.800781 92.097656 C 205.660156 92.609375 205.523438 93.082031 205.199219 93.082031 C 204.972656 93.082031 204.960938 92.871094 204.960938 92.722656 C 204.960938 92.546875 204.972656 92.472656 205.0625 92.121094 C 205.148438 91.796875 205.160156 91.707031 205.238281 91.410156 L 205.523438 90.296875 C 205.574219 90.070312 205.574219 90.058594 205.574219 90.019531 C 205.574219 89.882812 205.488281 89.808594 205.347656 89.808594 C 205.148438 89.808594 205.035156 89.984375 205.011719 90.160156 Z M 204.5 92.222656 C 204.449219 92.371094 204.449219 92.382812 204.335938 92.519531 C 203.988281 92.957031 203.660156 93.082031 203.4375 93.082031 C 203.035156 93.082031 202.925781 92.644531 202.925781 92.332031 C 202.925781 91.933594 203.175781 90.957031 203.363281 90.582031 C 203.613281 90.121094 203.960938 89.820312 204.285156 89.820312 C 204.800781 89.820312 204.910156 90.472656 204.910156 90.519531 C 204.910156 90.570312 204.898438 90.621094 204.886719 90.660156 Z M 204.5 92.222656 "/>
<g clip-path="url(#clip2)" clip-rule="nonzero">
<path style=" stroke:none;fill-rule:nonzero;fill:rgb(0%,0%,0%);fill-opacity:1;" d="M 304.738281 89.375 C 304.738281 89.375 304.738281 89.289062 304.636719 89.289062 C 304.460938 89.289062 303.875 89.351562 303.660156 89.375 C 303.597656 89.375 303.511719 89.386719 303.511719 89.523438 C 303.511719 89.625 303.585938 89.625 303.710938 89.625 C 304.085938 89.625 304.097656 89.675781 304.097656 89.761719 C 304.097656 89.8125 304.035156 90.085938 304 90.25 L 303.335938 92.851562 C 303.25 93.25 303.210938 93.386719 303.210938 93.664062 C 303.210938 94.414062 303.636719 94.914062 304.222656 94.914062 C 305.160156 94.914062 306.148438 93.726562 306.148438 92.574219 C 306.148438 91.851562 305.722656 91.300781 305.085938 91.300781 C 304.722656 91.300781 304.386719 91.539062 304.148438 91.773438 Z M 304 92.386719 C 304.035156 92.210938 304.035156 92.199219 304.113281 92.113281 C 304.5 91.601562 304.863281 91.476562 305.074219 91.476562 C 305.363281 91.476562 305.574219 91.710938 305.574219 92.226562 C 305.574219 92.699219 305.3125 93.613281 305.160156 93.914062 C 304.898438 94.449219 304.535156 94.738281 304.222656 94.738281 C 303.949219 94.738281 303.6875 94.523438 303.6875 93.9375 C 303.6875 93.773438 303.6875 93.625 303.8125 93.125 Z M 304 92.386719 "/>
</g>
<path style=" stroke:none;fill-rule:nonzero;fill:rgb(0%,0%,0%);fill-opacity:1;" d="M 175.257812 63.992188 L 175.945312 63.992188 C 176.109375 63.992188 176.183594 63.992188 176.183594 63.828125 C 176.183594 63.742188 176.109375 63.742188 175.972656 63.742188 L 175.308594 63.742188 L 175.472656 62.828125 C 175.507812 62.664062 175.621094 62.101562 175.671875 62.003906 C 175.734375 61.851562 175.871094 61.726562 176.046875 61.726562 C 176.070312 61.726562 176.285156 61.726562 176.433594 61.878906 C 176.082031 61.902344 175.996094 62.191406 175.996094 62.304688 C 175.996094 62.492188 176.144531 62.589844 176.296875 62.589844 C 176.507812 62.589844 176.734375 62.402344 176.734375 62.101562 C 176.734375 61.742188 176.371094 61.554688 176.046875 61.554688 C 175.769531 61.554688 175.269531 61.703125 175.035156 62.492188 C 174.984375 62.652344 174.957031 62.742188 174.769531 63.742188 L 174.222656 63.742188 C 174.058594 63.742188 173.972656 63.742188 173.972656 63.890625 C 173.972656 63.992188 174.046875 63.992188 174.195312 63.992188 L 174.722656 63.992188 L 174.132812 67.140625 C 173.984375 67.914062 173.847656 68.640625 173.433594 68.640625 C 173.394531 68.640625 173.207031 68.640625 173.046875 68.492188 C 173.421875 68.464844 173.496094 68.179688 173.496094 68.066406 C 173.496094 67.878906 173.347656 67.777344 173.195312 67.777344 C 172.984375 67.777344 172.757812 67.964844 172.757812 68.265625 C 172.757812 68.617188 173.109375 68.816406 173.433594 68.816406 C 173.871094 68.816406 174.195312 68.339844 174.332031 68.039062 C 174.597656 67.539062 174.769531 66.578125 174.785156 66.515625 Z M 175.257812 63.992188 "/>
<path style=" stroke:none;fill-rule:nonzero;fill:rgb(0%,0%,0%);fill-opacity:1;" d="M 179.730469 69.089844 C 179.730469 69.066406 179.730469 69.054688 179.59375 68.914062 C 178.605469 67.914062 178.34375 66.402344 178.34375 65.179688 C 178.34375 63.789062 178.644531 62.402344 179.632812 61.414062 C 179.730469 61.316406 179.730469 61.304688 179.730469 61.277344 C 179.730469 61.214844 179.707031 61.191406 179.65625 61.191406 C 179.570312 61.191406 178.855469 61.742188 178.382812 62.753906 C 177.980469 63.628906 177.882812 64.515625 177.882812 65.179688 C 177.882812 65.804688 177.96875 66.765625 178.40625 67.679688 C 178.894531 68.652344 179.570312 69.179688 179.65625 69.179688 C 179.707031 69.179688 179.730469 69.152344 179.730469 69.089844 Z M 179.730469 69.089844 "/>
<path style=" stroke:none;fill-rule:nonzero;fill:rgb(0%,0%,0%);fill-opacity:1;" d="M 183.167969 64.164062 C 183.019531 63.867188 182.792969 63.652344 182.429688 63.652344 C 181.503906 63.652344 180.519531 64.828125 180.519531 65.992188 C 180.519531 66.742188 180.957031 67.265625 181.566406 67.265625 C 181.730469 67.265625 182.128906 67.226562 182.605469 66.664062 C 182.667969 67.003906 182.957031 67.265625 183.332031 67.265625 C 183.617188 67.265625 183.792969 67.078125 183.929688 66.828125 C 184.054688 66.539062 184.167969 66.054688 184.167969 66.039062 C 184.167969 65.953125 184.09375 65.953125 184.066406 65.953125 C 183.992188 65.953125 183.980469 65.992188 183.957031 66.101562 C 183.816406 66.617188 183.679688 67.089844 183.355469 67.089844 C 183.128906 67.089844 183.117188 66.878906 183.117188 66.726562 C 183.117188 66.554688 183.128906 66.476562 183.21875 66.128906 C 183.304688 65.804688 183.316406 65.714844 183.394531 65.414062 L 183.679688 64.304688 C 183.730469 64.078125 183.730469 64.066406 183.730469 64.027344 C 183.730469 63.890625 183.644531 63.816406 183.503906 63.816406 C 183.304688 63.816406 183.191406 63.992188 183.167969 64.164062 Z M 182.65625 66.226562 C 182.605469 66.378906 182.605469 66.390625 182.492188 66.527344 C 182.144531 66.964844 181.816406 67.089844 181.59375 67.089844 C 181.191406 67.089844 181.082031 66.652344 181.082031 66.339844 C 181.082031 65.941406 181.332031 64.964844 181.519531 64.589844 C 181.769531 64.128906 182.117188 63.828125 182.441406 63.828125 C 182.957031 63.828125 183.066406 64.476562 183.066406 64.527344 C 183.066406 64.578125 183.054688 64.628906 183.042969 64.664062 Z M 182.65625 66.226562 "/>
<path style=" stroke:none;fill-rule:nonzero;fill:rgb(0%,0%,0%);fill-opacity:1;" d="M 186.707031 65.179688 C 186.707031 64.566406 186.621094 63.601562 186.183594 62.691406 C 185.707031 61.714844 185.019531 61.191406 184.945312 61.191406 C 184.894531 61.191406 184.855469 61.226562 184.855469 61.277344 C 184.855469 61.304688 184.855469 61.316406 185.007812 61.464844 C 185.792969 62.253906 186.246094 63.515625 186.246094 65.179688 C 186.246094 66.554688 185.957031 67.953125 184.96875 68.953125 C 184.855469 69.054688 184.855469 69.066406 184.855469 69.089844 C 184.855469 69.140625 184.894531 69.179688 184.945312 69.179688 C 185.019531 69.179688 185.746094 68.628906 186.207031 67.617188 C 186.621094 66.742188 186.707031 65.851562 186.707031 65.179688 Z M 186.707031 65.179688 "/>
<path style=" stroke:none;fill-rule:nonzero;fill:rgb(0%,0%,0%);fill-opacity:1;" d="M 176.125 11.136719 L 176.8125 11.136719 C 176.976562 11.136719 177.050781 11.136719 177.050781 10.972656 C 177.050781 10.886719 176.976562 10.886719 176.839844 10.886719 L 176.175781 10.886719 L 176.339844 9.972656 C 176.375 9.8125 176.488281 9.25 176.539062 9.148438 C 176.601562 9 176.738281 8.875 176.914062 8.875 C 176.9375 8.875 177.152344 8.875 177.300781 9.023438 C 176.953125 9.050781 176.863281 9.335938 176.863281 9.449219 C 176.863281 9.636719 177.015625 9.738281 177.164062 9.738281 C 177.375 9.738281 177.601562 9.550781 177.601562 9.25 C 177.601562 8.886719 177.238281 8.699219 176.914062 8.699219 C 176.640625 8.699219 176.140625 8.847656 175.902344 9.636719 C 175.851562 9.800781 175.828125 9.886719 175.640625 10.886719 L 175.089844 10.886719 C 174.925781 10.886719 174.839844 10.886719 174.839844 11.035156 C 174.839844 11.136719 174.914062 11.136719 175.0625 11.136719 L 175.589844 11.136719 L 175 14.285156 C 174.851562 15.0625 174.714844 15.785156 174.300781 15.785156 C 174.265625 15.785156 174.078125 15.785156 173.914062 15.636719 C 174.289062 15.613281 174.363281 15.324219 174.363281 15.210938 C 174.363281 15.023438 174.214844 14.925781 174.0625 14.925781 C 173.851562 14.925781 173.625 15.113281 173.625 15.410156 C 173.625 15.761719 173.976562 15.960938 174.300781 15.960938 C 174.738281 15.960938 175.0625 15.488281 175.203125 15.1875 C 175.464844 14.6875 175.640625 13.722656 175.652344 13.660156 Z M 176.125 11.136719 "/>
<path style=" stroke:none;fill-rule:nonzero;fill:rgb(0%,0%,0%);fill-opacity:1;" d="M 180.597656 16.238281 C 180.597656 16.210938 180.597656 16.199219 180.460938 16.0625 C 179.472656 15.0625 179.210938 13.550781 179.210938 12.324219 C 179.210938 10.9375 179.511719 9.550781 180.5 8.5625 C 180.597656 8.460938 180.597656 8.449219 180.597656 8.425781 C 180.597656 8.363281 180.574219 8.335938 180.523438 8.335938 C 180.4375 8.335938 179.722656 8.886719 179.25 9.898438 C 178.847656 10.773438 178.75 11.660156 178.75 12.324219 C 178.75 12.949219 178.835938 13.910156 179.273438 14.824219 C 179.761719 15.800781 180.4375 16.324219 180.523438 16.324219 C 180.574219 16.324219 180.597656 16.300781 180.597656 16.238281 Z M 180.597656 16.238281 "/>
<path style=" stroke:none;fill-rule:nonzero;fill:rgb(0%,0%,0%);fill-opacity:1;" d="M 182.960938 8.875 C 182.960938 8.875 182.960938 8.785156 182.859375 8.785156 C 182.683594 8.785156 182.097656 8.847656 181.886719 8.875 C 181.824219 8.875 181.734375 8.886719 181.734375 9.023438 C 181.734375 9.125 181.808594 9.125 181.933594 9.125 C 182.308594 9.125 182.324219 9.175781 182.324219 9.261719 C 182.324219 9.3125 182.261719 9.585938 182.222656 9.75 L 181.558594 12.347656 C 181.472656 12.75 181.433594 12.886719 181.433594 13.160156 C 181.433594 13.910156 181.859375 14.410156 182.449219 14.410156 C 183.386719 14.410156 184.371094 13.222656 184.371094 12.074219 C 184.371094 11.347656 183.949219 10.800781 183.308594 10.800781 C 182.949219 10.800781 182.609375 11.035156 182.371094 11.273438 Z M 182.222656 11.886719 C 182.261719 11.710938 182.261719 11.699219 182.335938 11.613281 C 182.722656 11.097656 183.085938 10.972656 183.296875 10.972656 C 183.585938 10.972656 183.796875 11.210938 183.796875 11.722656 C 183.796875 12.199219 183.535156 13.113281 183.386719 13.410156 C 183.121094 13.949219 182.761719 14.238281 182.449219 14.238281 C 182.171875 14.238281 181.910156 14.023438 181.910156 13.4375 C 181.910156 13.273438 181.910156 13.125 182.035156 12.625 Z M 182.222656 11.886719 "/>
<path style=" stroke:none;fill-rule:nonzero;fill:rgb(0%,0%,0%);fill-opacity:1;" d="M 186.78125 12.324219 C 186.78125 11.710938 186.695312 10.75 186.257812 9.835938 C 185.78125 8.863281 185.09375 8.335938 185.019531 8.335938 C 184.96875 8.335938 184.929688 8.375 184.929688 8.425781 C 184.929688 8.449219 184.929688 8.460938 185.082031 8.613281 C 185.867188 9.398438 186.320312 10.660156 186.320312 12.324219 C 186.320312 13.699219 186.03125 15.097656 185.042969 16.097656 C 184.929688 16.199219 184.929688 16.210938 184.929688 16.238281 C 184.929688 16.285156 184.96875 16.324219 185.019531 16.324219 C 185.09375 16.324219 185.820312 15.773438 186.28125 14.761719 C 186.695312 13.886719 186.78125 13 186.78125 12.324219 Z M 186.78125 12.324219 "/>
<path style=" stroke:none;fill-rule:nonzero;fill:rgb(0%,0%,0%);fill-opacity:1;" d="M 186.214844 36.59375 L 186.328125 36.484375 C 186.566406 36.246094 186.828125 35.96875 187.367188 35.933594 C 187.453125 35.921875 187.527344 35.921875 187.527344 35.78125 C 187.527344 35.71875 187.492188 35.683594 187.429688 35.683594 C 187.214844 35.683594 186.992188 35.707031 186.777344 35.707031 C 186.503906 35.707031 186.226562 35.683594 185.976562 35.683594 C 185.929688 35.683594 185.828125 35.683594 185.828125 35.832031 C 185.828125 35.921875 185.902344 35.933594 185.941406 35.933594 C 186.003906 35.933594 186.226562 35.945312 186.226562 36.121094 C 186.226562 36.257812 186.039062 36.457031 186.015625 36.496094 L 184.164062 38.632812 L 183.289062 36.257812 C 183.242188 36.144531 183.242188 36.132812 183.242188 36.121094 C 183.242188 35.933594 183.628906 35.933594 183.714844 35.933594 C 183.816406 35.933594 183.902344 35.933594 183.902344 35.769531 C 183.902344 35.683594 183.804688 35.683594 183.777344 35.683594 C 183.554688 35.683594 183.003906 35.707031 182.777344 35.707031 C 182.578125 35.707031 182.078125 35.683594 181.878906 35.683594 C 181.839844 35.683594 181.726562 35.683594 181.726562 35.84375 C 181.726562 35.933594 181.816406 35.933594 181.914062 35.933594 C 182.390625 35.933594 182.429688 36.007812 182.503906 36.207031 L 183.476562 38.832031 C 183.492188 38.859375 183.515625 38.945312 183.515625 38.957031 C 183.515625 38.984375 183.191406 40.269531 183.152344 40.421875 C 183.054688 40.859375 183.039062 40.882812 182.402344 40.882812 C 182.253906 40.882812 182.191406 40.882812 182.191406 41.046875 C 182.191406 41.132812 182.277344 41.132812 182.304688 41.132812 C 182.515625 41.132812 183.078125 41.109375 183.304688 41.109375 C 183.527344 41.109375 184.101562 41.132812 184.328125 41.132812 C 184.378906 41.132812 184.476562 41.132812 184.476562 40.96875 C 184.476562 40.882812 184.402344 40.882812 184.253906 40.882812 C 184.242188 40.882812 184.089844 40.882812 183.953125 40.871094 C 183.777344 40.859375 183.726562 40.832031 183.726562 40.746094 C 183.726562 40.683594 183.804688 40.40625 183.839844 40.246094 L 184.128906 39.121094 C 184.164062 38.957031 184.179688 38.945312 184.242188 38.871094 Z M 186.214844 36.59375 "/>
<path style=" stroke:none;fill-rule:nonzero;fill:rgb(0%,0%,0%);fill-opacity:1;" d="M 270.78125 90.144531 C 270.644531 90.144531 270.542969 90.144531 270.433594 90.246094 C 270.292969 90.371094 270.28125 90.507812 270.28125 90.558594 C 270.28125 90.757812 270.433594 90.847656 270.582031 90.847656 C 270.808594 90.847656 271.019531 90.644531 271.019531 90.332031 C 271.019531 89.945312 270.644531 89.644531 270.082031 89.644531 C 269.007812 89.644531 267.945312 90.785156 267.945312 91.910156 C 267.945312 92.632812 268.40625 93.257812 269.246094 93.257812 C 270.382812 93.257812 271.042969 92.410156 271.042969 92.320312 C 271.042969 92.269531 271.007812 92.207031 270.957031 92.207031 C 270.90625 92.207031 270.894531 92.234375 270.84375 92.296875 C 270.21875 93.082031 269.34375 93.082031 269.257812 93.082031 C 268.757812 93.082031 268.53125 92.695312 268.53125 92.207031 C 268.53125 91.882812 268.695312 91.109375 268.96875 90.621094 C 269.21875 90.160156 269.65625 89.820312 270.09375 89.820312 C 270.355469 89.820312 270.667969 89.921875 270.78125 90.144531 Z M 270.78125 90.144531 "/>
<path style="fill:none;stroke-width:0.8;stroke-linecap:butt;stroke-linejoin:miter;stroke:rgb(0%,0%,100%);stroke-opacity:1;stroke-dasharray:0.8,1.6;stroke-miterlimit:4;" d="M 362.386719 52.789062 L 440.433594 52.789062 "/>
<path style="fill:none;stroke-width:0.8;stroke-linecap:butt;stroke-linejoin:miter;stroke:rgb(100%,0%,0%);stroke-opacity:1;stroke-miterlimit:4;" d="M 362.386719 0.0585938 L 362.386719 91.261719 "/>
<g clip-path="url(#clip3)" clip-rule="nonzero">
<path style="fill:none;stroke-width:0.8;stroke-linecap:butt;stroke-linejoin:miter;stroke:rgb(100%,0%,0%);stroke-opacity:1;stroke-miterlimit:4;" d="M 357.585938 86.460938 L 506.386719 86.460938 "/>
</g>
<path style="fill:none;stroke-width:0.8;stroke-linecap:butt;stroke-linejoin:miter;stroke:rgb(0%,0%,100%);stroke-opacity:1;stroke-dasharray:0.8,1.6;stroke-miterlimit:4;" d="M 362.386719 12.171875 L 477.585938 12.171875 L 477.585938 86.460938 "/>
<path style="fill:none;stroke-width:0.8;stroke-linecap:butt;stroke-linejoin:miter;stroke:rgb(0%,0%,100%);stroke-opacity:1;stroke-dasharray:0.8,1.6;stroke-miterlimit:4;" d="M 362.386719 65.226562 L 376.785156 65.226562 L 376.753906 86.460938 "/>
<path style=" stroke:none;fill-rule:nonzero;fill:rgb(0%,0%,0%);fill-opacity:1;" d="M 377.851562 89.933594 C 377.703125 89.632812 377.476562 89.421875 377.117188 89.421875 C 376.191406 89.421875 375.203125 90.597656 375.203125 91.757812 C 375.203125 92.507812 375.640625 93.035156 376.253906 93.035156 C 376.414062 93.035156 376.816406 92.996094 377.289062 92.433594 C 377.351562 92.773438 377.640625 93.035156 378.015625 93.035156 C 378.304688 93.035156 378.476562 92.847656 378.617188 92.597656 C 378.742188 92.308594 378.851562 91.820312 378.851562 91.808594 C 378.851562 91.722656 378.777344 91.722656 378.753906 91.722656 C 378.679688 91.722656 378.664062 91.757812 378.640625 91.871094 C 378.503906 92.382812 378.367188 92.859375 378.039062 92.859375 C 377.816406 92.859375 377.804688 92.648438 377.804688 92.496094 C 377.804688 92.320312 377.816406 92.246094 377.902344 91.898438 C 377.992188 91.570312 378.003906 91.484375 378.078125 91.183594 L 378.367188 90.070312 C 378.414062 89.847656 378.414062 89.835938 378.414062 89.796875 C 378.414062 89.660156 378.328125 89.585938 378.191406 89.585938 C 377.992188 89.585938 377.878906 89.757812 377.851562 89.933594 Z M 377.339844 91.996094 C 377.289062 92.148438 377.289062 92.160156 377.179688 92.296875 C 376.828125 92.734375 376.503906 92.859375 376.277344 92.859375 C 375.878906 92.859375 375.765625 92.421875 375.765625 92.109375 C 375.765625 91.710938 376.015625 90.734375 376.203125 90.359375 C 376.453125 89.898438 376.804688 89.597656 377.128906 89.597656 C 377.640625 89.597656 377.753906 90.246094 377.753906 90.296875 C 377.753906 90.347656 377.742188 90.398438 377.726562 90.433594 Z M 377.339844 91.996094 "/>
<g clip-path="url(#clip4)" clip-rule="nonzero">
<path style=" stroke:none;fill-rule:nonzero;fill:rgb(0%,0%,0%);fill-opacity:1;" d="M 477.578125 89.152344 C 477.578125 89.152344 477.578125 89.0625 477.476562 89.0625 C 477.304688 89.0625 476.714844 89.125 476.503906 89.152344 C 476.441406 89.152344 476.351562 89.164062 476.351562 89.300781 C 476.351562 89.402344 476.429688 89.402344 476.554688 89.402344 C 476.929688 89.402344 476.941406 89.449219 476.941406 89.539062 C 476.941406 89.589844 476.878906 89.863281 476.839844 90.027344 L 476.179688 92.625 C 476.089844 93.027344 476.054688 93.164062 476.054688 93.4375 C 476.054688 94.1875 476.476562 94.6875 477.066406 94.6875 C 478.003906 94.6875 478.992188 93.5 478.992188 92.351562 C 478.992188 91.625 478.566406 91.074219 477.929688 91.074219 C 477.566406 91.074219 477.226562 91.3125 476.992188 91.550781 Z M 476.839844 92.164062 C 476.878906 91.988281 476.878906 91.976562 476.953125 91.886719 C 477.339844 91.375 477.703125 91.25 477.914062 91.25 C 478.203125 91.25 478.414062 91.488281 478.414062 92 C 478.414062 92.476562 478.152344 93.386719 478.003906 93.6875 C 477.742188 94.226562 477.378906 94.511719 477.066406 94.511719 C 476.789062 94.511719 476.527344 94.300781 476.527344 93.714844 C 476.527344 93.550781 476.527344 93.402344 476.652344 92.902344 Z M 476.839844 92.164062 "/>
</g>
<path style=" stroke:none;fill-rule:nonzero;fill:rgb(0%,0%,0%);fill-opacity:1;" d="M 348.101562 63.765625 L 348.789062 63.765625 C 348.949219 63.765625 349.027344 63.765625 349.027344 63.605469 C 349.027344 63.515625 348.949219 63.515625 348.8125 63.515625 L 348.152344 63.515625 L 348.3125 62.605469 C 348.351562 62.441406 348.464844 61.878906 348.511719 61.777344 C 348.574219 61.628906 348.714844 61.503906 348.886719 61.503906 C 348.914062 61.503906 349.125 61.503906 349.277344 61.652344 C 348.925781 61.679688 348.839844 61.964844 348.839844 62.078125 C 348.839844 62.265625 348.988281 62.367188 349.136719 62.367188 C 349.351562 62.367188 349.574219 62.179688 349.574219 61.878906 C 349.574219 61.515625 349.214844 61.328125 348.886719 61.328125 C 348.613281 61.328125 348.113281 61.480469 347.875 62.265625 C 347.824219 62.429688 347.800781 62.515625 347.613281 63.515625 L 347.0625 63.515625 C 346.902344 63.515625 346.8125 63.515625 346.8125 63.667969 C 346.8125 63.765625 346.886719 63.765625 347.039062 63.765625 L 347.5625 63.765625 L 346.976562 66.917969 C 346.824219 67.691406 346.6875 68.417969 346.277344 68.417969 C 346.238281 68.417969 346.050781 68.417969 345.886719 68.265625 C 346.261719 68.242188 346.339844 67.953125 346.339844 67.839844 C 346.339844 67.652344 346.1875 67.554688 346.039062 67.554688 C 345.824219 67.554688 345.601562 67.742188 345.601562 68.042969 C 345.601562 68.390625 345.949219 68.589844 346.277344 68.589844 C 346.714844 68.589844 347.039062 68.117188 347.175781 67.816406 C 347.4375 67.316406 347.613281 66.355469 347.625 66.292969 Z M 348.101562 63.765625 "/>
<path style=" stroke:none;fill-rule:nonzero;fill:rgb(0%,0%,0%);fill-opacity:1;" d="M 352.574219 68.867188 C 352.574219 68.839844 352.574219 68.828125 352.4375 68.691406 C 351.449219 67.691406 351.1875 66.179688 351.1875 64.953125 C 351.1875 63.566406 351.484375 62.179688 352.472656 61.191406 C 352.574219 61.089844 352.574219 61.078125 352.574219 61.054688 C 352.574219 60.992188 352.546875 60.964844 352.5 60.964844 C 352.410156 60.964844 351.699219 61.515625 351.222656 62.527344 C 350.824219 63.402344 350.722656 64.292969 350.722656 64.953125 C 350.722656 65.578125 350.8125 66.542969 351.25 67.453125 C 351.734375 68.429688 352.410156 68.953125 352.5 68.953125 C 352.546875 68.953125 352.574219 68.929688 352.574219 68.867188 Z M 352.574219 68.867188 "/>
<path style=" stroke:none;fill-rule:nonzero;fill:rgb(0%,0%,0%);fill-opacity:1;" d="M 356.011719 63.941406 C 355.859375 63.640625 355.636719 63.429688 355.273438 63.429688 C 354.347656 63.429688 353.359375 64.605469 353.359375 65.765625 C 353.359375 66.515625 353.796875 67.042969 354.410156 67.042969 C 354.574219 67.042969 354.972656 67.003906 355.449219 66.441406 C 355.511719 66.777344 355.796875 67.042969 356.171875 67.042969 C 356.460938 67.042969 356.636719 66.855469 356.773438 66.605469 C 356.898438 66.316406 357.011719 65.828125 357.011719 65.816406 C 357.011719 65.730469 356.933594 65.730469 356.910156 65.730469 C 356.835938 65.730469 356.824219 65.765625 356.796875 65.878906 C 356.660156 66.390625 356.523438 66.867188 356.199219 66.867188 C 355.972656 66.867188 355.960938 66.652344 355.960938 66.503906 C 355.960938 66.328125 355.972656 66.253906 356.058594 65.902344 C 356.148438 65.578125 356.160156 65.492188 356.234375 65.191406 L 356.523438 64.078125 C 356.574219 63.855469 356.574219 63.839844 356.574219 63.804688 C 356.574219 63.667969 356.484375 63.589844 356.347656 63.589844 C 356.148438 63.589844 356.035156 63.765625 356.011719 63.941406 Z M 355.496094 66.003906 C 355.449219 66.152344 355.449219 66.167969 355.335938 66.304688 C 354.984375 66.742188 354.660156 66.867188 354.433594 66.867188 C 354.035156 66.867188 353.921875 66.429688 353.921875 66.117188 C 353.921875 65.714844 354.171875 64.742188 354.359375 64.367188 C 354.609375 63.902344 354.960938 63.605469 355.285156 63.605469 C 355.796875 63.605469 355.910156 64.253906 355.910156 64.304688 C 355.910156 64.355469 355.898438 64.402344 355.886719 64.441406 Z M 355.496094 66.003906 "/>
<path style=" stroke:none;fill-rule:nonzero;fill:rgb(0%,0%,0%);fill-opacity:1;" d="M 359.546875 64.953125 C 359.546875 64.339844 359.460938 63.378906 359.023438 62.464844 C 358.546875 61.492188 357.859375 60.964844 357.785156 60.964844 C 357.734375 60.964844 357.699219 61.003906 357.699219 61.054688 C 357.699219 61.078125 357.699219 61.089844 357.847656 61.242188 C 358.636719 62.027344 359.085938 63.292969 359.085938 64.953125 C 359.085938 66.328125 358.796875 67.730469 357.8125 68.730469 C 357.699219 68.828125 357.699219 68.839844 357.699219 68.867188 C 357.699219 68.917969 357.734375 68.953125 357.785156 68.953125 C 357.859375 68.953125 358.585938 68.402344 359.046875 67.390625 C 359.460938 66.515625 359.546875 65.628906 359.546875 64.953125 Z M 359.546875 64.953125 "/>
<path style=" stroke:none;fill-rule:nonzero;fill:rgb(0%,0%,0%);fill-opacity:1;" d="M 348.96875 10.914062 L 349.65625 10.914062 C 349.816406 10.914062 349.894531 10.914062 349.894531 10.75 C 349.894531 10.664062 349.816406 10.664062 349.679688 10.664062 L 349.019531 10.664062 L 349.179688 9.75 C 349.21875 9.585938 349.332031 9.023438 349.378906 8.925781 C 349.441406 8.773438 349.582031 8.648438 349.753906 8.648438 C 349.78125 8.648438 349.992188 8.648438 350.144531 8.800781 C 349.792969 8.824219 349.707031 9.113281 349.707031 9.226562 C 349.707031 9.414062 349.855469 9.511719 350.003906 9.511719 C 350.21875 9.511719 350.441406 9.324219 350.441406 9.023438 C 350.441406 8.664062 350.082031 8.476562 349.753906 8.476562 C 349.480469 8.476562 348.980469 8.625 348.742188 9.414062 C 348.691406 9.574219 348.667969 9.664062 348.480469 10.664062 L 347.929688 10.664062 C 347.769531 10.664062 347.679688 10.664062 347.679688 10.8125 C 347.679688 10.914062 347.753906 10.914062 347.90625 10.914062 L 348.429688 10.914062 L 347.84375 14.0625 C 347.691406 14.835938 347.554688 15.5625 347.144531 15.5625 C 347.105469 15.5625 346.917969 15.5625 346.753906 15.414062 C 347.128906 15.386719 347.207031 15.101562 347.207031 14.988281 C 347.207031 14.800781 347.054688 14.699219 346.90625 14.699219 C 346.691406 14.699219 346.46875 14.886719 346.46875 15.1875 C 346.46875 15.539062 346.816406 15.738281 347.144531 15.738281 C 347.582031 15.738281 347.90625 15.261719 348.042969 14.960938 C 348.304688 14.460938 348.480469 13.5 348.492188 13.4375 Z M 348.96875 10.914062 "/>
<path style=" stroke:none;fill-rule:nonzero;fill:rgb(0%,0%,0%);fill-opacity:1;" d="M 353.441406 16.011719 C 353.441406 15.988281 353.441406 15.976562 353.304688 15.835938 C 352.316406 14.835938 352.054688 13.324219 352.054688 12.101562 C 352.054688 10.710938 352.351562 9.324219 353.339844 8.335938 C 353.441406 8.238281 353.441406 8.226562 353.441406 8.199219 C 353.441406 8.136719 353.414062 8.113281 353.367188 8.113281 C 353.277344 8.113281 352.566406 8.664062 352.089844 9.675781 C 351.691406 10.550781 351.589844 11.4375 351.589844 12.101562 C 351.589844 12.726562 351.679688 13.6875 352.117188 14.601562 C 352.601562 15.574219 353.277344 16.101562 353.367188 16.101562 C 353.414062 16.101562 353.441406 16.074219 353.441406 16.011719 Z M 353.441406 16.011719 "/>
<path style=" stroke:none;fill-rule:nonzero;fill:rgb(0%,0%,0%);fill-opacity:1;" d="M 355.800781 8.648438 C 355.800781 8.648438 355.800781 8.5625 355.703125 8.5625 C 355.527344 8.5625 354.941406 8.625 354.726562 8.648438 C 354.664062 8.648438 354.578125 8.664062 354.578125 8.800781 C 354.578125 8.898438 354.652344 8.898438 354.777344 8.898438 C 355.152344 8.898438 355.164062 8.949219 355.164062 9.039062 C 355.164062 9.085938 355.101562 9.363281 355.066406 9.523438 L 354.402344 12.125 C 354.316406 12.523438 354.277344 12.664062 354.277344 12.9375 C 354.277344 13.6875 354.703125 14.1875 355.289062 14.1875 C 356.226562 14.1875 357.214844 13 357.214844 11.851562 C 357.214844 11.125 356.789062 10.574219 356.152344 10.574219 C 355.789062 10.574219 355.453125 10.8125 355.214844 11.050781 Z M 355.066406 11.664062 C 355.101562 11.488281 355.101562 11.476562 355.175781 11.386719 C 355.566406 10.875 355.925781 10.75 356.140625 10.75 C 356.425781 10.75 356.640625 10.988281 356.640625 11.5 C 356.640625 11.976562 356.378906 12.886719 356.226562 13.1875 C 355.964844 13.726562 355.601562 14.011719 355.289062 14.011719 C 355.015625 14.011719 354.753906 13.800781 354.753906 13.210938 C 354.753906 13.050781 354.753906 12.898438 354.878906 12.398438 Z M 355.066406 11.664062 "/>
<path style=" stroke:none;fill-rule:nonzero;fill:rgb(0%,0%,0%);fill-opacity:1;" d="M 359.625 12.101562 C 359.625 11.488281 359.535156 10.523438 359.097656 9.613281 C 358.625 8.636719 357.9375 8.113281 357.859375 8.113281 C 357.8125 8.113281 357.773438 8.148438 357.773438 8.199219 C 357.773438 8.226562 357.773438 8.238281 357.921875 8.386719 C 358.710938 9.175781 359.160156 10.4375 359.160156 12.101562 C 359.160156 13.476562 358.875 14.875 357.886719 15.875 C 357.773438 15.976562 357.773438 15.988281 357.773438 16.011719 C 357.773438 16.0625 357.8125 16.101562 357.859375 16.101562 C 357.9375 16.101562 358.660156 15.550781 359.125 14.539062 C 359.535156 13.664062 359.625 12.773438 359.625 12.101562 Z M 359.625 12.101562 "/>
<path style=" stroke:none;fill-rule:nonzero;fill:rgb(0%,0%,0%);fill-opacity:1;" d="M 358.390625 50.90625 L 358.503906 50.796875 C 358.742188 50.558594 359.003906 50.28125 359.542969 50.246094 C 359.628906 50.234375 359.703125 50.234375 359.703125 50.09375 C 359.703125 50.03125 359.667969 49.996094 359.605469 49.996094 C 359.390625 49.996094 359.167969 50.019531 358.953125 50.019531 C 358.679688 50.019531 358.402344 49.996094 358.152344 49.996094 C 358.105469 49.996094 358.003906 49.996094 358.003906 50.144531 C 358.003906 50.234375 358.078125 50.246094 358.117188 50.246094 C 358.179688 50.246094 358.402344 50.257812 358.402344 50.433594 C 358.402344 50.570312 358.214844 50.769531 358.191406 50.808594 L 356.339844 52.945312 L 355.464844 50.570312 C 355.417969 50.457031 355.417969 50.445312 355.417969 50.433594 C 355.417969 50.246094 355.804688 50.246094 355.890625 50.246094 C 355.992188 50.246094 356.078125 50.246094 356.078125 50.082031 C 356.078125 49.996094 355.980469 49.996094 355.953125 49.996094 C 355.730469 49.996094 355.179688 50.019531 354.953125 50.019531 C 354.753906 50.019531 354.253906 49.996094 354.054688 49.996094 C 354.015625 49.996094 353.902344 49.996094 353.902344 50.15625 C 353.902344 50.246094 353.992188 50.246094 354.089844 50.246094 C 354.566406 50.246094 354.605469 50.320312 354.679688 50.519531 L 355.652344 53.144531 C 355.667969 53.171875 355.691406 53.257812 355.691406 53.269531 C 355.691406 53.296875 355.367188 54.582031 355.328125 54.734375 C 355.230469 55.171875 355.214844 55.195312 354.578125 55.195312 C 354.429688 55.195312 354.367188 55.195312 354.367188 55.359375 C 354.367188 55.445312 354.453125 55.445312 354.480469 55.445312 C 354.691406 55.445312 355.253906 55.421875 355.480469 55.421875 C 355.703125 55.421875 356.277344 55.445312 356.503906 55.445312 C 356.554688 55.445312 356.652344 55.445312 356.652344 55.28125 C 356.652344 55.195312 356.578125 55.195312 356.429688 55.195312 C 356.417969 55.195312 356.265625 55.195312 356.128906 55.183594 C 355.953125 55.171875 355.902344 55.144531 355.902344 55.058594 C 355.902344 54.996094 355.980469 54.71875 356.015625 54.558594 L 356.304688 53.433594 C 356.339844 53.269531 356.355469 53.257812 356.417969 53.183594 Z M 358.390625 50.90625 "/>
<path style="fill:none;stroke-width:0.8;stroke-linecap:butt;stroke-linejoin:miter;stroke:rgb(0%,0%,100%);stroke-opacity:1;stroke-dasharray:0.8,1.6;stroke-miterlimit:4;" d="M 386.550781 52.789062 L 386.550781 86.390625 "/>
<path style="fill:none;stroke-width:0.8;stroke-linecap:butt;stroke-linejoin:miter;stroke:rgb(0%,0%,100%);stroke-opacity:1;stroke-dasharray:0.8,1.6;stroke-miterlimit:4;" d="M 405.449219 52.632812 L 405.449219 86.230469 "/>
<path style="fill:none;stroke-width:0.8;stroke-linecap:butt;stroke-linejoin:miter;stroke:rgb(0%,0%,100%);stroke-opacity:1;stroke-dasharray:0.8,1.6;stroke-miterlimit:4;" d="M 440.429688 53.246094 L 440.429688 86.84375 "/>
<path style="fill:none;stroke-width:1.6;stroke-linecap:butt;stroke-linejoin:miter;stroke:rgb(0%,0%,0%);stroke-opacity:1;stroke-miterlimit:4;" d="M 367.1875 81.660156 C 367.1875 81.660156 381.824219 49.71875 395.984375 47.988281 C 410.144531 46.261719 411.234375 77.121094 429.585938 71.988281 C 447.9375 66.859375 438.222656 9.441406 458.386719 4.859375 C 478.550781 0.28125 496.785156 38.460938 496.785156 38.460938 "/>
<path style=" stroke:none;fill-rule:nonzero;fill:rgb(0%,0%,0%);fill-opacity:1;" d="M 387.539062 90.058594 C 387.402344 90.058594 387.300781 90.058594 387.1875 90.160156 C 387.050781 90.285156 387.039062 90.421875 387.039062 90.472656 C 387.039062 90.671875 387.1875 90.757812 387.339844 90.757812 C 387.5625 90.757812 387.777344 90.558594 387.777344 90.246094 C 387.777344 89.859375 387.402344 89.558594 386.839844 89.558594 C 385.761719 89.558594 384.699219 90.695312 384.699219 91.820312 C 384.699219 92.546875 385.164062 93.171875 386 93.171875 C 387.136719 93.171875 387.800781 92.320312 387.800781 92.234375 C 387.800781 92.183594 387.761719 92.121094 387.714844 92.121094 C 387.664062 92.121094 387.652344 92.148438 387.601562 92.210938 C 386.976562 92.996094 386.101562 92.996094 386.011719 92.996094 C 385.511719 92.996094 385.289062 92.609375 385.289062 92.121094 C 385.289062 91.796875 385.449219 91.023438 385.726562 90.535156 C 385.976562 90.070312 386.414062 89.734375 386.851562 89.734375 C 387.113281 89.734375 387.425781 89.835938 387.539062 90.058594 Z M 387.539062 90.058594 "/>
<g clip-path="url(#clip5)" clip-rule="nonzero">
<path style=" stroke:none;fill-rule:nonzero;fill:rgb(0%,0%,0%);fill-opacity:1;" d="M 389.6875 90.730469 C 389.6875 90.578125 389.6875 90.578125 389.523438 90.578125 C 389.164062 90.929688 388.664062 90.929688 388.4375 90.929688 L 388.4375 91.128906 C 388.5625 91.128906 388.9375 91.128906 389.238281 90.980469 L 389.238281 93.816406 C 389.238281 94.003906 389.238281 94.078125 388.6875 94.078125 L 388.476562 94.078125 L 388.476562 94.28125 C 388.574219 94.28125 389.261719 94.253906 389.460938 94.253906 C 389.636719 94.253906 390.335938 94.28125 390.460938 94.28125 L 390.460938 94.078125 L 390.25 94.078125 C 389.6875 94.078125 389.6875 94.003906 389.6875 93.816406 Z M 389.6875 90.730469 "/>
</g>
<path style=" stroke:none;fill-rule:nonzero;fill:rgb(0%,0%,0%);fill-opacity:1;" d="M 406.691406 90.058594 C 406.554688 90.058594 406.453125 90.058594 406.339844 90.160156 C 406.203125 90.285156 406.191406 90.421875 406.191406 90.472656 C 406.191406 90.671875 406.339844 90.757812 406.492188 90.757812 C 406.714844 90.757812 406.929688 90.558594 406.929688 90.246094 C 406.929688 89.859375 406.554688 89.558594 405.992188 89.558594 C 404.917969 89.558594 403.855469 90.695312 403.855469 91.820312 C 403.855469 92.546875 404.316406 93.171875 405.152344 93.171875 C 406.292969 93.171875 406.953125 92.320312 406.953125 92.234375 C 406.953125 92.183594 406.917969 92.121094 406.867188 92.121094 C 406.816406 92.121094 406.804688 92.148438 406.753906 92.210938 C 406.128906 92.996094 405.253906 92.996094 405.167969 92.996094 C 404.667969 92.996094 404.441406 92.609375 404.441406 92.121094 C 404.441406 91.796875 404.605469 91.023438 404.878906 90.535156 C 405.128906 90.070312 405.566406 89.734375 406.003906 89.734375 C 406.265625 89.734375 406.578125 89.835938 406.691406 90.058594 Z M 406.691406 90.058594 "/>
<g clip-path="url(#clip6)" clip-rule="nonzero">
<path style=" stroke:none;fill-rule:nonzero;fill:rgb(0%,0%,0%);fill-opacity:1;" d="M 409.789062 93.265625 L 409.601562 93.265625 C 409.589844 93.390625 409.527344 93.71875 409.453125 93.765625 C 409.414062 93.804688 408.992188 93.804688 408.902344 93.804688 L 407.878906 93.804688 C 408.464844 93.292969 408.664062 93.128906 408.992188 92.867188 C 409.402344 92.542969 409.789062 92.191406 409.789062 91.667969 C 409.789062 90.992188 409.203125 90.578125 408.492188 90.578125 C 407.804688 90.578125 407.328125 91.066406 407.328125 91.578125 C 407.328125 91.855469 407.566406 91.890625 407.628906 91.890625 C 407.753906 91.890625 407.914062 91.792969 407.914062 91.59375 C 407.914062 91.492188 407.878906 91.292969 407.589844 91.292969 C 407.765625 90.90625 408.140625 90.78125 408.402344 90.78125 C 408.964844 90.78125 409.253906 91.21875 409.253906 91.667969 C 409.253906 92.15625 408.902344 92.53125 408.726562 92.730469 L 407.390625 94.066406 C 407.328125 94.117188 407.328125 94.128906 407.328125 94.28125 L 409.628906 94.28125 Z M 409.789062 93.265625 "/>
</g>
<path style=" stroke:none;fill-rule:nonzero;fill:rgb(0%,0%,0%);fill-opacity:1;" d="M 441.402344 90.058594 C 441.265625 90.058594 441.164062 90.058594 441.050781 90.160156 C 440.914062 90.285156 440.902344 90.421875 440.902344 90.472656 C 440.902344 90.671875 441.050781 90.757812 441.203125 90.757812 C 441.425781 90.757812 441.640625 90.558594 441.640625 90.246094 C 441.640625 89.859375 441.265625 89.558594 440.703125 89.558594 C 439.625 89.558594 438.5625 90.695312 438.5625 91.820312 C 438.5625 92.546875 439.027344 93.171875 439.863281 93.171875 C 441 93.171875 441.664062 92.320312 441.664062 92.234375 C 441.664062 92.183594 441.625 92.121094 441.578125 92.121094 C 441.527344 92.121094 441.515625 92.148438 441.464844 92.210938 C 440.839844 92.996094 439.964844 92.996094 439.875 92.996094 C 439.375 92.996094 439.152344 92.609375 439.152344 92.121094 C 439.152344 91.796875 439.3125 91.023438 439.589844 90.535156 C 439.839844 90.070312 440.277344 89.734375 440.714844 89.734375 C 440.976562 89.734375 441.289062 89.835938 441.402344 90.058594 Z M 441.402344 90.058594 "/>
<g clip-path="url(#clip7)" clip-rule="nonzero">
<path style=" stroke:none;fill-rule:nonzero;fill:rgb(0%,0%,0%);fill-opacity:1;" d="M 443.214844 92.417969 C 443.652344 92.417969 443.964844 92.71875 443.964844 93.316406 C 443.964844 94.003906 443.550781 94.21875 443.238281 94.21875 C 443.011719 94.21875 442.511719 94.15625 442.289062 93.816406 C 442.550781 93.816406 442.613281 93.628906 442.613281 93.503906 C 442.613281 93.328125 442.476562 93.203125 442.300781 93.203125 C 442.152344 93.203125 441.988281 93.304688 441.988281 93.53125 C 441.988281 94.054688 442.5625 94.390625 443.238281 94.390625 C 444.011719 94.390625 444.550781 93.867188 444.550781 93.316406 C 444.550781 92.878906 444.199219 92.441406 443.589844 92.316406 C 444.164062 92.105469 444.375 91.691406 444.375 91.34375 C 444.375 90.90625 443.875 90.578125 443.25 90.578125 C 442.636719 90.578125 442.164062 90.878906 442.164062 91.328125 C 442.164062 91.515625 442.289062 91.617188 442.449219 91.617188 C 442.625 91.617188 442.738281 91.492188 442.738281 91.34375 C 442.738281 91.179688 442.625 91.054688 442.449219 91.042969 C 442.652344 90.804688 443.027344 90.742188 443.238281 90.742188 C 443.488281 90.742188 443.839844 90.867188 443.839844 91.34375 C 443.839844 91.578125 443.761719 91.84375 443.613281 92.003906 C 443.4375 92.21875 443.277344 92.230469 443 92.253906 C 442.863281 92.265625 442.851562 92.265625 442.824219 92.265625 C 442.8125 92.265625 442.761719 92.28125 442.761719 92.34375 C 442.761719 92.417969 442.8125 92.417969 442.914062 92.417969 Z M 443.214844 92.417969 "/>
</g>
<path style="fill-rule:nonzero;fill:rgb(0%,0%,0%);fill-opacity:1;stroke-width:0.8;stroke-linecap:round;stroke-linejoin:bevel;stroke:rgb(0%,0%,0%);stroke-opacity:1;stroke-miterlimit:4;" d="M 32.953125 65.214844 C 32.953125 66.191406 32.160156 66.980469 31.183594 66.980469 C 30.210938 66.980469 29.417969 66.191406 29.417969 65.214844 C 29.417969 64.238281 30.210938 63.449219 31.183594 63.449219 C 32.160156 63.449219 32.953125 64.238281 32.953125 65.214844 Z M 32.953125 65.214844 "/>
<path style="fill-rule:nonzero;fill:rgb(0%,0%,0%);fill-opacity:1;stroke-width:0.8;stroke-linecap:round;stroke-linejoin:bevel;stroke:rgb(0%,0%,0%);stroke-opacity:1;stroke-miterlimit:4;" d="M 133.75 12.125 C 133.75 13.101562 132.960938 13.890625 131.984375 13.890625 C 131.011719 13.890625 130.21875 13.101562 130.21875 12.125 C 130.21875 11.152344 131.011719 10.359375 131.984375 10.359375 C 132.960938 10.359375 133.75 11.152344 133.75 12.125 Z M 133.75 12.125 "/>
<path style="fill-rule:nonzero;fill:rgb(0%,0%,0%);fill-opacity:1;stroke-width:0.8;stroke-linecap:round;stroke-linejoin:bevel;stroke:rgb(0%,0%,0%);stroke-opacity:1;stroke-miterlimit:4;" d="M 306.550781 12.339844 C 306.550781 13.316406 305.761719 14.105469 304.785156 14.105469 C 303.808594 14.105469 303.019531 13.316406 303.019531 12.339844 C 303.019531 11.367188 303.808594 10.574219 304.785156 10.574219 C 305.761719 10.574219 306.550781 11.367188 306.550781 12.339844 Z M 306.550781 12.339844 "/>
<path style="fill-rule:nonzero;fill:rgb(0%,0%,0%);fill-opacity:1;stroke-width:0.8;stroke-linecap:round;stroke-linejoin:bevel;stroke:rgb(0%,0%,0%);stroke-opacity:1;stroke-miterlimit:4;" d="M 205.75 65.480469 C 205.75 66.453125 204.960938 67.246094 203.984375 67.246094 C 203.011719 67.246094 202.21875 66.453125 202.21875 65.480469 C 202.21875 64.503906 203.011719 63.714844 203.984375 63.714844 C 204.960938 63.714844 205.75 64.503906 205.75 65.480469 Z M 205.75 65.480469 "/>
<path style="fill-rule:nonzero;fill:rgb(0%,0%,0%);fill-opacity:1;stroke-width:0.8;stroke-linecap:round;stroke-linejoin:bevel;stroke:rgb(0%,0%,0%);stroke-opacity:1;stroke-miterlimit:4;" d="M 378.550781 65.277344 C 378.550781 66.253906 377.761719 67.042969 376.785156 67.042969 C 375.808594 67.042969 375.019531 66.253906 375.019531 65.277344 C 375.019531 64.300781 375.808594 63.511719 376.785156 63.511719 C 377.761719 63.511719 378.550781 64.300781 378.550781 65.277344 Z M 378.550781 65.277344 "/>
<path style="fill-rule:nonzero;fill:rgb(0%,0%,0%);fill-opacity:1;stroke-width:0.8;stroke-linecap:round;stroke-linejoin:bevel;stroke:rgb(0%,0%,0%);stroke-opacity:1;stroke-miterlimit:4;" d="M 479.351562 12.15625 C 479.351562 13.132812 478.5625 13.921875 477.585938 13.921875 C 476.609375 13.921875 475.820312 13.132812 475.820312 12.15625 C 475.820312 11.179688 476.609375 10.390625 477.585938 10.390625 C 478.5625 10.390625 479.351562 11.179688 479.351562 12.15625 Z M 479.351562 12.15625 "/>
</g>
</svg>
