<?xml version="1.0" encoding="UTF-8"?>
<svg xmlns="http://www.w3.org/2000/svg" xmlns:xlink="http://www.w3.org/1999/xlink" width="210.406586pt" height="168.539764pt" viewBox="0 0 210.406586 168.539764" version="1.1">
<defs>
<clipPath id="clip1">
  <path d="M 8 144 L 210.40625 144 L 210.40625 154 L 8 154 Z M 8 144 "/>
</clipPath>
<clipPath id="clip2">
  <path d="M 3 139 L 210.40625 139 L 210.40625 159 L 3 159 Z M 3 139 "/>
</clipPath>
<clipPath id="clip3">
  <path d="M 77 163 L 84 163 L 84 168.539062 L 77 168.539062 Z M 77 163 "/>
</clipPath>
</defs>
<g id="surface1">
<path style="fill-rule:nonzero;fill:rgb(39.99939%,39.99939%,39.99939%);fill-opacity:1;stroke-width:0.635608;stroke-linecap:butt;stroke-linejoin:miter;stroke:rgb(50.195312%,50.195312%,50.195312%);stroke-opacity:1;stroke-miterlimit:4;" d="M 38.101 -13.875156 L 150.082513 -13.876522 C 150.755985 -13.8735 151.297333 -13.334743 151.296777 -12.659387 L 151.297849 -11.275755 C 151.299177 -10.602865 150.75607 -10.060935 150.083179 -10.059607 L 38.103551 -10.060707 C 37.428195 -10.061263 36.888731 -10.602486 36.887403 -11.275376 L 36.888216 -12.661474 C 36.889353 -13.332479 37.429995 -13.876293 38.101 -13.875156 Z M 38.101 -13.875156 " transform="matrix(0.764309,1,-1,0.764309,0,0)"/>
<path style="fill-rule:nonzero;fill:rgb(30.195618%,30.195618%,30.195618%);fill-opacity:1;stroke-width:0.635608;stroke-linecap:butt;stroke-linejoin:miter;stroke:rgb(50.195312%,50.195312%,50.195312%);stroke-opacity:1;stroke-miterlimit:4;" d="M 13.875252 48.327637 C 13.874356 49.381639 13.02113 50.237323 11.967128 50.236427 C 10.915591 50.237416 10.061791 49.381724 10.060803 48.330187 C 10.061699 47.276185 10.914925 46.4205 11.968928 46.421397 C 13.02293 46.422293 13.874264 47.2761 13.875252 48.327637 Z M 13.875252 48.327637 " transform="matrix(1,-0.764309,0.764309,1,0,0)"/>
<path style="fill-rule:nonzero;fill:rgb(30.195618%,30.195618%,30.195618%);fill-opacity:1;stroke-width:0.635608;stroke-linecap:butt;stroke-linejoin:miter;stroke:rgb(50.195312%,50.195312%,50.195312%);stroke-opacity:1;stroke-miterlimit:4;" d="M 13.874458 71.209842 C 13.876028 72.265729 13.022221 73.117063 11.968218 73.116167 C 10.916681 73.117155 10.060997 72.263929 10.061893 71.209927 C 10.060905 70.15839 10.916597 69.30459 11.968133 69.303602 C 13.022136 69.304498 13.87347 70.158305 13.874458 71.209842 Z M 13.874458 71.209842 " transform="matrix(1,-0.764309,0.764309,1,0,0)"/>
<path style="fill-rule:nonzero;fill:rgb(30.195618%,30.195618%,30.195618%);fill-opacity:1;stroke-width:0.635608;stroke-linecap:butt;stroke-linejoin:miter;stroke:rgb(50.195312%,50.195312%,50.195312%);stroke-opacity:1;stroke-miterlimit:4;" d="M 13.87613 94.093932 C 13.875234 95.147935 13.021426 95.999268 11.96989 96.000257 C 10.915887 95.999361 10.060203 95.146135 10.061099 94.092132 C 10.06011 93.040595 10.915802 92.186796 11.967339 92.185807 C 13.021342 92.186704 13.877026 93.039929 13.87613 94.093932 Z M 13.87613 94.093932 " transform="matrix(1,-0.764309,0.764309,1,0,0)"/>
<path style="fill-rule:nonzero;fill:rgb(30.195618%,30.195618%,30.195618%);fill-opacity:1;stroke-width:0.635608;stroke-linecap:butt;stroke-linejoin:miter;stroke:rgb(50.195312%,50.195312%,50.195312%);stroke-opacity:1;stroke-miterlimit:4;" d="M 13.875335 116.976137 C 13.876324 118.027674 13.020632 118.881474 11.969095 118.882462 C 10.915093 118.881566 10.061293 118.025874 10.060305 116.974338 C 10.061201 115.920335 10.915008 115.069001 11.966545 115.068013 C 13.020547 115.068909 13.876232 115.922135 13.875335 116.976137 Z M 13.875335 116.976137 " transform="matrix(1,-0.764309,0.764309,1,0,0)"/>
<path style="fill-rule:nonzero;fill:rgb(30.195618%,30.195618%,30.195618%);fill-opacity:1;stroke-width:0.635608;stroke-linecap:butt;stroke-linejoin:miter;stroke:rgb(50.195312%,50.195312%,50.195312%);stroke-opacity:1;stroke-miterlimit:4;" d="M 13.876426 139.855877 C 13.87553 140.90988 13.019838 141.763679 11.968301 141.764668 C 10.914299 141.763772 10.062965 140.909964 10.061976 139.858428 C 10.062872 138.804425 10.916098 137.948741 11.970101 137.949637 C 13.021638 137.948649 13.875437 138.80434 13.876426 139.855877 Z M 13.876426 139.855877 " transform="matrix(1,-0.764309,0.764309,1,0,0)"/>
<path style="fill-rule:nonzero;fill:rgb(30.195618%,30.195618%,30.195618%);fill-opacity:1;stroke-width:0.635608;stroke-linecap:butt;stroke-linejoin:miter;stroke:rgb(50.195312%,50.195312%,50.195312%);stroke-opacity:1;stroke-miterlimit:4;" d="M 13.876088 59.769682 C 13.875192 60.823684 13.021385 61.675018 11.967964 61.678472 C 10.913961 61.677576 10.062627 60.823769 10.063523 59.769766 C 10.062535 58.71823 10.915761 57.862545 11.969763 57.863442 C 13.0213 57.862453 13.8751 58.718145 13.876088 59.769682 Z M 13.876088 59.769682 " transform="matrix(1,-0.764309,0.764309,1,0,0)"/>
<path style="fill-rule:nonzero;fill:rgb(30.195618%,30.195618%,30.195618%);fill-opacity:1;stroke-width:0.635608;stroke-linecap:butt;stroke-linejoin:miter;stroke:rgb(50.195312%,50.195312%,50.195312%);stroke-opacity:1;stroke-miterlimit:4;" d="M 13.875294 82.651887 C 13.874398 83.70589 13.023056 84.559108 11.969054 84.558212 C 10.915051 84.557316 10.061833 83.705974 10.062729 82.651972 C 10.061741 81.600435 10.914966 80.744751 11.968969 80.745647 C 13.020506 80.744659 13.87619 81.597884 13.875294 82.651887 Z M 13.875294 82.651887 " transform="matrix(1,-0.764309,0.764309,1,0,0)"/>
<path style="fill-rule:nonzero;fill:rgb(30.195618%,30.195618%,30.195618%);fill-opacity:1;stroke-width:0.635608;stroke-linecap:butt;stroke-linejoin:miter;stroke:rgb(50.195312%,50.195312%,50.195312%);stroke-opacity:1;stroke-miterlimit:4;" d="M 13.8745 105.534092 C 13.875488 106.585629 13.022262 107.441313 11.96826 107.440417 C 10.916723 107.441406 10.061039 106.58818 10.061935 105.534177 C 10.062831 104.480175 10.914172 103.626956 11.968175 103.627852 C 13.022177 103.628749 13.875396 104.48009 13.8745 105.534092 Z M 13.8745 105.534092 " transform="matrix(1,-0.764309,0.764309,1,0,0)"/>
<path style="fill-rule:nonzero;fill:rgb(30.195618%,30.195618%,30.195618%);fill-opacity:1;stroke-width:0.635608;stroke-linecap:butt;stroke-linejoin:miter;stroke:rgb(50.195312%,50.195312%,50.195312%);stroke-opacity:1;stroke-miterlimit:4;" d="M 13.873705 128.416298 C 13.874694 129.467835 13.021468 130.323519 11.967465 130.322623 C 10.915929 130.323611 10.062129 129.467919 10.06114 128.416383 C 10.062037 127.36238 10.913378 126.509162 11.96738 126.510058 C 13.023268 126.508488 13.874601 127.362295 13.873705 128.416298 Z M 13.873705 128.416298 " transform="matrix(1,-0.764309,0.764309,1,0,0)"/>
<path style="fill-rule:nonzero;fill:rgb(66.665649%,26.66626%,0%);fill-opacity:1;stroke-width:0.8;stroke-linecap:butt;stroke-linejoin:miter;stroke:rgb(0%,0%,0%);stroke-opacity:1;stroke-miterlimit:4;" d="M 2.800781 -37.207031 L 142 -37.207031 C 143.328125 -37.207031 144.398438 -36.136719 144.398438 -34.804688 L 144.398438 -20.40625 C 144.398438 -19.078125 143.328125 -18.007812 142 -18.007812 L 2.800781 -18.007812 C 1.46875 -18.007812 0.398438 -19.078125 0.398438 -20.40625 L 0.398438 -34.804688 C 0.398438 -36.136719 1.46875 -37.207031 2.800781 -37.207031 Z M 2.800781 -37.207031 " transform="matrix(0,1,-1,0,0,0)"/>
<path style="fill:none;stroke-width:0.8;stroke-linecap:butt;stroke-linejoin:miter;stroke:rgb(0%,0%,0%);stroke-opacity:1;stroke-miterlimit:4;" d="M 18.007812 134.800781 L 37.207031 134.800781 "/>
<path style="fill:none;stroke-width:0.8;stroke-linecap:butt;stroke-linejoin:miter;stroke:rgb(0%,0%,0%);stroke-opacity:1;stroke-miterlimit:4;" d="M 18.007812 125.199219 L 37.207031 125.199219 "/>
<path style="fill:none;stroke-width:0.8;stroke-linecap:butt;stroke-linejoin:miter;stroke:rgb(0%,0%,0%);stroke-opacity:1;stroke-miterlimit:4;" d="M 27.605469 125.199219 L 27.605469 134.800781 "/>
<path style="fill:none;stroke-width:0.8;stroke-linecap:butt;stroke-linejoin:miter;stroke:rgb(0%,0%,0%);stroke-opacity:1;stroke-miterlimit:4;" d="M 18.007812 115.601562 L 37.207031 115.601562 "/>
<path style="fill:none;stroke-width:0.8;stroke-linecap:butt;stroke-linejoin:miter;stroke:rgb(0%,0%,0%);stroke-opacity:1;stroke-miterlimit:4;" d="M 18.007812 106 L 37.207031 106 "/>
<path style="fill:none;stroke-width:0.8;stroke-linecap:butt;stroke-linejoin:miter;stroke:rgb(0%,0%,0%);stroke-opacity:1;stroke-miterlimit:4;" d="M 27.605469 106 L 27.605469 115.601562 "/>
<path style="fill:none;stroke-width:0.8;stroke-linecap:butt;stroke-linejoin:miter;stroke:rgb(0%,0%,0%);stroke-opacity:1;stroke-miterlimit:4;" d="M 18.007812 96.398438 L 37.207031 96.398438 "/>
<path style="fill:none;stroke-width:0.8;stroke-linecap:butt;stroke-linejoin:miter;stroke:rgb(0%,0%,0%);stroke-opacity:1;stroke-miterlimit:4;" d="M 18.007812 86.800781 L 37.207031 86.800781 "/>
<path style="fill:none;stroke-width:0.8;stroke-linecap:butt;stroke-linejoin:miter;stroke:rgb(0%,0%,0%);stroke-opacity:1;stroke-miterlimit:4;" d="M 27.605469 86.800781 L 27.605469 96.398438 "/>
<path style="fill:none;stroke-width:0.8;stroke-linecap:butt;stroke-linejoin:miter;stroke:rgb(0%,0%,0%);stroke-opacity:1;stroke-miterlimit:4;" d="M 18.007812 77.199219 L 37.207031 77.199219 "/>
<path style="fill:none;stroke-width:0.8;stroke-linecap:butt;stroke-linejoin:miter;stroke:rgb(0%,0%,0%);stroke-opacity:1;stroke-miterlimit:4;" d="M 18.007812 67.601562 L 37.207031 67.601562 "/>
<path style="fill:none;stroke-width:0.8;stroke-linecap:butt;stroke-linejoin:miter;stroke:rgb(0%,0%,0%);stroke-opacity:1;stroke-miterlimit:4;" d="M 27.605469 67.601562 L 27.605469 77.199219 "/>
<path style="fill:none;stroke-width:0.8;stroke-linecap:butt;stroke-linejoin:miter;stroke:rgb(0%,0%,0%);stroke-opacity:1;stroke-miterlimit:4;" d="M 18.007812 58 L 37.207031 58 "/>
<path style="fill:none;stroke-width:0.8;stroke-linecap:butt;stroke-linejoin:miter;stroke:rgb(0%,0%,0%);stroke-opacity:1;stroke-miterlimit:4;" d="M 18.007812 48.398438 L 37.207031 48.398438 "/>
<path style="fill:none;stroke-width:0.8;stroke-linecap:butt;stroke-linejoin:miter;stroke:rgb(0%,0%,0%);stroke-opacity:1;stroke-miterlimit:4;" d="M 27.605469 48.398438 L 27.605469 58 "/>
<path style="fill:none;stroke-width:0.8;stroke-linecap:butt;stroke-linejoin:miter;stroke:rgb(0%,0%,0%);stroke-opacity:1;stroke-miterlimit:4;" d="M 18.007812 38.800781 L 37.207031 38.800781 "/>
<path style="fill:none;stroke-width:0.8;stroke-linecap:butt;stroke-linejoin:miter;stroke:rgb(0%,0%,0%);stroke-opacity:1;stroke-miterlimit:4;" d="M 18.007812 29.199219 L 37.207031 29.199219 "/>
<path style="fill:none;stroke-width:0.8;stroke-linecap:butt;stroke-linejoin:miter;stroke:rgb(0%,0%,0%);stroke-opacity:1;stroke-miterlimit:4;" d="M 27.605469 29.199219 L 27.605469 38.800781 "/>
<path style="fill:none;stroke-width:0.8;stroke-linecap:butt;stroke-linejoin:miter;stroke:rgb(0%,0%,0%);stroke-opacity:1;stroke-miterlimit:4;" d="M 18.007812 19.601562 L 37.207031 19.601562 "/>
<path style="fill:none;stroke-width:0.8;stroke-linecap:butt;stroke-linejoin:miter;stroke:rgb(0%,0%,0%);stroke-opacity:1;stroke-miterlimit:4;" d="M 18.007812 10 L 37.207031 10 "/>
<path style="fill:none;stroke-width:0.8;stroke-linecap:butt;stroke-linejoin:miter;stroke:rgb(0%,0%,0%);stroke-opacity:1;stroke-miterlimit:4;" d="M 27.605469 10 L 27.605469 19.601562 "/>
<g clip-path="url(#clip1)" clip-rule="nonzero">
<path style=" stroke:none;fill-rule:nonzero;fill:rgb(33.332825%,13.33313%,0%);fill-opacity:1;" d="M 207.605469 154 L 10.804688 154 C 9.476562 154 8.40625 152.929688 8.40625 151.601562 L 8.40625 146.800781 C 8.40625 145.46875 9.476562 144.398438 10.804688 144.398438 L 207.605469 144.398438 C 208.9375 144.398438 210.007812 145.46875 210.007812 146.800781 L 210.007812 151.601562 C 210.007812 152.929688 208.9375 154 207.605469 154 Z M 207.605469 154 "/>
</g>
<g clip-path="url(#clip2)" clip-rule="nonzero">
<path style="fill:none;stroke-width:0.8;stroke-linecap:butt;stroke-linejoin:miter;stroke:rgb(0%,0%,0%);stroke-opacity:1;stroke-miterlimit:4;" d="M -207.605469 -154 L -10.804688 -154 C -9.476562 -154 -8.40625 -152.929688 -8.40625 -151.601562 L -8.40625 -146.800781 C -8.40625 -145.46875 -9.476562 -144.398438 -10.804688 -144.398438 L -207.605469 -144.398438 C -208.9375 -144.398438 -210.007812 -145.46875 -210.007812 -146.800781 L -210.007812 -151.601562 C -210.007812 -152.929688 -208.9375 -154 -207.605469 -154 Z M -207.605469 -154 " transform="matrix(-1,0,0,-1,0,0)"/>
</g>
<path style="fill:none;stroke-width:0.8;stroke-linecap:butt;stroke-linejoin:miter;stroke:rgb(0%,0%,0%);stroke-opacity:1;stroke-dasharray:0.8,0.8;stroke-miterlimit:4;" d="M 8.40625 29.199219 L 51.605469 29.199219 "/>
<path style="fill:none;stroke-width:0.8;stroke-linecap:butt;stroke-linejoin:miter;stroke:rgb(0%,0%,0%);stroke-opacity:1;stroke-dasharray:0.8,0.8;stroke-miterlimit:4;" d="M 123.605469 130 L 123.605469 163.601562 "/>
<path style="fill:none;stroke-width:0.8;stroke-linecap:butt;stroke-linejoin:miter;stroke:rgb(100%,0%,0%);stroke-opacity:1;stroke-miterlimit:4;" d="M 13.207031 34 L 13.207031 144.398438 "/>
<path style="fill-rule:evenodd;fill:rgb(100%,0%,0%);fill-opacity:1;stroke-width:0.4;stroke-linecap:butt;stroke-linejoin:miter;stroke:rgb(100%,0%,0%);stroke-opacity:1;stroke-miterlimit:4;" d="M 37.199219 -13.207031 L 38.800781 -14.804688 L 33.199219 -13.207031 L 38.800781 -11.605469 Z M 37.199219 -13.207031 " transform="matrix(0,1,-1,0,0,0)"/>
<path style="fill-rule:evenodd;fill:rgb(100%,0%,0%);fill-opacity:1;stroke-width:0.4;stroke-linecap:butt;stroke-linejoin:miter;stroke:rgb(100%,0%,0%);stroke-opacity:1;stroke-miterlimit:4;" d="M 145.96875 -13.207031 C 145.96875 -12.324219 145.25 -11.605469 144.367188 -11.605469 C 143.484375 -11.605469 142.769531 -12.324219 142.769531 -13.207031 C 142.769531 -14.089844 143.484375 -14.804688 144.367188 -14.804688 C 145.25 -14.804688 145.96875 -14.089844 145.96875 -13.207031 Z M 145.96875 -13.207031 " transform="matrix(0,1,-1,0,0,0)"/>
<path style="fill:none;stroke-width:0.8;stroke-linecap:butt;stroke-linejoin:miter;stroke:rgb(0%,0%,0%);stroke-opacity:1;stroke-dasharray:0.8,0.8;stroke-miterlimit:4;" d="M 37.207031 130 L 37.207031 163.601562 "/>
<path style="fill:none;stroke-width:0.8;stroke-linecap:butt;stroke-linejoin:miter;stroke:rgb(100%,0%,0%);stroke-opacity:1;stroke-miterlimit:4;" d="M 118.804688 158.800781 L 37.207031 158.800781 "/>
<path style="fill-rule:evenodd;fill:rgb(100%,0%,0%);fill-opacity:1;stroke-width:0.4;stroke-linecap:butt;stroke-linejoin:miter;stroke:rgb(100%,0%,0%);stroke-opacity:1;stroke-miterlimit:4;" d="M -115.605422 -158.800815 L -114.007765 -160.398471 L -119.605422 -158.800816 L -114.007766 -157.199252 Z M -115.605422 -158.800815 " transform="matrix(-1,0.000000294118,-0.000000294118,-1,0,0)"/>
<path style="fill-rule:evenodd;fill:rgb(100%,0%,0%);fill-opacity:1;stroke-width:0.4;stroke-linecap:butt;stroke-linejoin:miter;stroke:rgb(100%,0%,0%);stroke-opacity:1;stroke-miterlimit:4;" d="M -35.636672 -158.800792 C -35.636672 -157.917979 -36.355423 -157.199229 -37.238235 -157.19923 C -38.121048 -157.19923 -38.839797 -157.91798 -38.839797 -158.800793 C -38.839797 -159.683605 -38.121047 -160.398449 -37.238234 -160.398448 C -36.355422 -160.398448 -35.636672 -159.683604 -35.636672 -158.800792 Z M -35.636672 -158.800792 " transform="matrix(-1,0.000000294118,-0.000000294118,-1,0,0)"/>
<path style=" stroke:none;fill-rule:nonzero;fill:rgb(0%,0%,0%);fill-opacity:1;" d="M 5.457031 86.179688 C 5.511719 86.011719 5.511719 85.992188 5.511719 85.898438 C 5.511719 85.691406 5.34375 85.578125 5.15625 85.578125 C 5.042969 85.578125 4.855469 85.65625 4.742188 85.824219 C 4.726562 85.898438 4.613281 86.253906 4.574219 86.480469 C 4.480469 86.78125 4.40625 87.117188 4.332031 87.4375 L 3.789062 89.59375 C 3.75 89.761719 3.226562 90.605469 2.4375 90.605469 C 1.835938 90.605469 1.707031 90.078125 1.707031 89.628906 C 1.707031 89.085938 1.914062 88.335938 2.304688 87.285156 C 2.492188 86.796875 2.550781 86.667969 2.550781 86.421875 C 2.550781 85.898438 2.175781 85.449219 1.574219 85.449219 C 0.429688 85.449219 0 87.191406 0 87.285156 C 0 87.417969 0.113281 87.417969 0.132812 87.417969 C 0.261719 87.417969 0.261719 87.378906 0.320312 87.191406 C 0.65625 86.066406 1.125 85.710938 1.539062 85.710938 C 1.632812 85.710938 1.835938 85.710938 1.835938 86.085938 C 1.835938 86.386719 1.707031 86.703125 1.632812 86.929688 C 1.144531 88.203125 0.9375 88.878906 0.9375 89.441406 C 0.9375 90.511719 1.6875 90.867188 2.398438 90.867188 C 2.867188 90.867188 3.261719 90.660156 3.601562 90.324219 C 3.449219 90.941406 3.300781 91.542969 2.832031 92.179688 C 2.511719 92.574219 2.0625 92.929688 1.519531 92.929688 C 1.351562 92.929688 0.804688 92.890625 0.601562 92.421875 C 0.789062 92.421875 0.957031 92.421875 1.105469 92.273438 C 1.238281 92.179688 1.351562 92.011719 1.351562 91.785156 C 1.351562 91.410156 1.03125 91.375 0.917969 91.375 C 0.636719 91.375 0.242188 91.5625 0.242188 92.140625 C 0.242188 92.742188 0.769531 93.191406 1.519531 93.191406 C 2.738281 93.191406 3.976562 92.105469 4.3125 90.753906 Z M 5.457031 86.179688 "/>
<g clip-path="url(#clip3)" clip-rule="nonzero">
<path style=" stroke:none;fill-rule:nonzero;fill:rgb(0%,0%,0%);fill-opacity:1;" d="M 81.070312 164.789062 C 81.148438 164.488281 81.429688 163.382812 82.253906 163.382812 C 82.308594 163.382812 82.609375 163.382812 82.851562 163.535156 C 82.515625 163.609375 82.289062 163.890625 82.289062 164.191406 C 82.289062 164.378906 82.421875 164.601562 82.742188 164.601562 C 83.003906 164.601562 83.378906 164.394531 83.378906 163.910156 C 83.378906 163.289062 82.683594 163.121094 82.273438 163.121094 C 81.578125 163.121094 81.164062 163.757812 81.015625 164.019531 C 80.714844 163.234375 80.078125 163.121094 79.722656 163.121094 C 78.484375 163.121094 77.789062 164.660156 77.789062 164.957031 C 77.789062 165.089844 77.921875 165.089844 77.941406 165.089844 C 78.035156 165.089844 78.070312 165.050781 78.089844 164.957031 C 78.503906 163.683594 79.289062 163.382812 79.703125 163.382812 C 79.929688 163.382812 80.339844 163.496094 80.339844 164.191406 C 80.339844 164.566406 80.132812 165.351562 79.703125 167.039062 C 79.515625 167.769531 79.085938 168.277344 78.558594 168.277344 C 78.484375 168.277344 78.222656 168.277344 77.960938 168.128906 C 78.257812 168.050781 78.523438 167.808594 78.523438 167.472656 C 78.523438 167.152344 78.257812 167.058594 78.089844 167.058594 C 77.714844 167.058594 77.433594 167.359375 77.433594 167.753906 C 77.433594 168.296875 78.015625 168.539062 78.539062 168.539062 C 79.347656 168.539062 79.777344 167.695312 79.796875 167.640625 C 79.945312 168.070312 80.378906 168.539062 81.089844 168.539062 C 82.328125 168.539062 83.003906 167.003906 83.003906 166.703125 C 83.003906 166.570312 82.910156 166.570312 82.871094 166.570312 C 82.757812 166.570312 82.742188 166.628906 82.703125 166.703125 C 82.308594 167.996094 81.503906 168.277344 81.128906 168.277344 C 80.660156 168.277344 80.472656 167.902344 80.472656 167.488281 C 80.472656 167.226562 80.527344 166.964844 80.660156 166.441406 Z M 81.070312 164.789062 "/>
</g>
</g>
</svg>
