<?xml version="1.0" encoding="UTF-8"?>
<svg xmlns="http://www.w3.org/2000/svg" xmlns:xlink="http://www.w3.org/1999/xlink" width="375.199982pt" height="182.251022pt" viewBox="0 0 375.199982 182.251022" version="1.1">
<defs>
<clipPath id="clip1">
  <path d="M 230 149 L 346 149 L 346 159 L 230 159 Z M 230 149 "/>
</clipPath>
<clipPath id="clip2">
  <path d="M 346 153.828125 C 346 156.476562 320.210938 158.625 288.398438 158.625 C 256.589844 158.625 230.800781 156.476562 230.800781 153.828125 C 230.800781 151.175781 256.589844 149.027344 288.398438 149.027344 C 320.210938 149.027344 346 151.175781 346 153.828125 Z M 346 153.828125 "/>
</clipPath>
<radialGradient id="radial0" gradientUnits="userSpaceOnUse" cx="206.584636" cy="632.433548" fx="206.584636" fy="632.433548" r="10.594086" gradientTransform="matrix(0.000000241845,0.640756,-1.359244,0.00000053133,1143.231896,21.45617)">
<stop offset="0" style="stop-color:rgb(50.038147%,50.038147%,50.038147%);stop-opacity:1;"/>
<stop offset="0.015625" style="stop-color:rgb(49.765015%,49.765015%,49.765015%);stop-opacity:1;"/>
<stop offset="0.0273438" style="stop-color:rgb(49.531555%,49.531555%,49.531555%);stop-opacity:1;"/>
<stop offset="0.0390625" style="stop-color:rgb(49.29657%,49.29657%,49.29657%);stop-opacity:1;"/>
<stop offset="0.0507812" style="stop-color:rgb(49.061584%,49.061584%,49.061584%);stop-opacity:1;"/>
<stop offset="0.0625" style="stop-color:rgb(48.828125%,48.828125%,48.828125%);stop-opacity:1;"/>
<stop offset="0.0742188" style="stop-color:rgb(48.59314%,48.59314%,48.59314%);stop-opacity:1;"/>
<stop offset="0.0859375" style="stop-color:rgb(48.35968%,48.35968%,48.35968%);stop-opacity:1;"/>
<stop offset="0.0976562" style="stop-color:rgb(48.124695%,48.124695%,48.124695%);stop-opacity:1;"/>
<stop offset="0.109375" style="stop-color:rgb(47.889709%,47.889709%,47.889709%);stop-opacity:1;"/>
<stop offset="0.121094" style="stop-color:rgb(47.65625%,47.65625%,47.65625%);stop-opacity:1;"/>
<stop offset="0.132812" style="stop-color:rgb(47.421265%,47.421265%,47.421265%);stop-opacity:1;"/>
<stop offset="0.144531" style="stop-color:rgb(47.187805%,47.187805%,47.187805%);stop-opacity:1;"/>
<stop offset="0.15625" style="stop-color:rgb(46.95282%,46.95282%,46.95282%);stop-opacity:1;"/>
<stop offset="0.167969" style="stop-color:rgb(46.717834%,46.717834%,46.717834%);stop-opacity:1;"/>
<stop offset="0.179688" style="stop-color:rgb(46.484375%,46.484375%,46.484375%);stop-opacity:1;"/>
<stop offset="0.191406" style="stop-color:rgb(46.24939%,46.24939%,46.24939%);stop-opacity:1;"/>
<stop offset="0.203125" style="stop-color:rgb(46.01593%,46.01593%,46.01593%);stop-opacity:1;"/>
<stop offset="0.214844" style="stop-color:rgb(45.780945%,45.780945%,45.780945%);stop-opacity:1;"/>
<stop offset="0.226562" style="stop-color:rgb(45.545959%,45.545959%,45.545959%);stop-opacity:1;"/>
<stop offset="0.238281" style="stop-color:rgb(45.3125%,45.3125%,45.3125%);stop-opacity:1;"/>
<stop offset="0.25" style="stop-color:rgb(45.077515%,45.077515%,45.077515%);stop-opacity:1;"/>
<stop offset="0.261719" style="stop-color:rgb(44.766235%,44.766235%,44.766235%);stop-opacity:1;"/>
<stop offset="0.28125" style="stop-color:rgb(44.37561%,44.37561%,44.37561%);stop-opacity:1;"/>
<stop offset="0.300781" style="stop-color:rgb(43.984985%,43.984985%,43.984985%);stop-opacity:1;"/>
<stop offset="0.320312" style="stop-color:rgb(43.59436%,43.59436%,43.59436%);stop-opacity:1;"/>
<stop offset="0.339844" style="stop-color:rgb(43.203735%,43.203735%,43.203735%);stop-opacity:1;"/>
<stop offset="0.359375" style="stop-color:rgb(42.81311%,42.81311%,42.81311%);stop-opacity:1;"/>
<stop offset="0.378906" style="stop-color:rgb(42.460632%,42.460632%,42.460632%);stop-opacity:1;"/>
<stop offset="0.394531" style="stop-color:rgb(42.147827%,42.147827%,42.147827%);stop-opacity:1;"/>
<stop offset="0.410156" style="stop-color:rgb(41.835022%,41.835022%,41.835022%);stop-opacity:1;"/>
<stop offset="0.425781" style="stop-color:rgb(41.522217%,41.522217%,41.522217%);stop-opacity:1;"/>
<stop offset="0.441406" style="stop-color:rgb(41.210938%,41.210938%,41.210938%);stop-opacity:1;"/>
<stop offset="0.457031" style="stop-color:rgb(40.898132%,40.898132%,40.898132%);stop-opacity:1;"/>
<stop offset="0.472656" style="stop-color:rgb(40.585327%,40.585327%,40.585327%);stop-opacity:1;"/>
<stop offset="0.488281" style="stop-color:rgb(40.272522%,40.272522%,40.272522%);stop-opacity:1;"/>
<stop offset="0.503906" style="stop-color:rgb(39.99939%,39.99939%,39.99939%);stop-opacity:1;"/>
<stop offset="0.515625" style="stop-color:rgb(39.76593%,39.76593%,39.76593%);stop-opacity:1;"/>
<stop offset="0.527344" style="stop-color:rgb(39.530945%,39.530945%,39.530945%);stop-opacity:1;"/>
<stop offset="0.539062" style="stop-color:rgb(39.295959%,39.295959%,39.295959%);stop-opacity:1;"/>
<stop offset="0.550781" style="stop-color:rgb(39.0625%,39.0625%,39.0625%);stop-opacity:1;"/>
<stop offset="0.5625" style="stop-color:rgb(38.827515%,38.827515%,38.827515%);stop-opacity:1;"/>
<stop offset="0.574219" style="stop-color:rgb(38.594055%,38.594055%,38.594055%);stop-opacity:1;"/>
<stop offset="0.585938" style="stop-color:rgb(38.35907%,38.35907%,38.35907%);stop-opacity:1;"/>
<stop offset="0.597656" style="stop-color:rgb(38.124084%,38.124084%,38.124084%);stop-opacity:1;"/>
<stop offset="0.609375" style="stop-color:rgb(37.890625%,37.890625%,37.890625%);stop-opacity:1;"/>
<stop offset="0.621094" style="stop-color:rgb(37.65564%,37.65564%,37.65564%);stop-opacity:1;"/>
<stop offset="0.632812" style="stop-color:rgb(37.34436%,37.34436%,37.34436%);stop-opacity:1;"/>
<stop offset="0.652344" style="stop-color:rgb(36.953735%,36.953735%,36.953735%);stop-opacity:1;"/>
<stop offset="0.671875" style="stop-color:rgb(36.56311%,36.56311%,36.56311%);stop-opacity:1;"/>
<stop offset="0.691406" style="stop-color:rgb(36.210632%,36.210632%,36.210632%);stop-opacity:1;"/>
<stop offset="0.707031" style="stop-color:rgb(35.897827%,35.897827%,35.897827%);stop-opacity:1;"/>
<stop offset="0.722656" style="stop-color:rgb(35.585022%,35.585022%,35.585022%);stop-opacity:1;"/>
<stop offset="0.738281" style="stop-color:rgb(35.272217%,35.272217%,35.272217%);stop-opacity:1;"/>
<stop offset="0.753906" style="stop-color:rgb(34.999084%,34.999084%,34.999084%);stop-opacity:1;"/>
<stop offset="0.765625" style="stop-color:rgb(34.765625%,34.765625%,34.765625%);stop-opacity:1;"/>
<stop offset="0.777344" style="stop-color:rgb(34.53064%,34.53064%,34.53064%);stop-opacity:1;"/>
<stop offset="0.789062" style="stop-color:rgb(34.29718%,34.29718%,34.29718%);stop-opacity:1;"/>
<stop offset="0.800781" style="stop-color:rgb(34.062195%,34.062195%,34.062195%);stop-opacity:1;"/>
<stop offset="0.8125" style="stop-color:rgb(33.827209%,33.827209%,33.827209%);stop-opacity:1;"/>
<stop offset="0.824219" style="stop-color:rgb(33.51593%,33.51593%,33.51593%);stop-opacity:1;"/>
<stop offset="0.84375" style="stop-color:rgb(33.125305%,33.125305%,33.125305%);stop-opacity:1;"/>
<stop offset="0.863281" style="stop-color:rgb(32.772827%,32.772827%,32.772827%);stop-opacity:1;"/>
<stop offset="0.878906" style="stop-color:rgb(32.499695%,32.499695%,32.499695%);stop-opacity:1;"/>
<stop offset="0.890625" style="stop-color:rgb(32.264709%,32.264709%,32.264709%);stop-opacity:1;"/>
<stop offset="0.902344" style="stop-color:rgb(32.03125%,32.03125%,32.03125%);stop-opacity:1;"/>
<stop offset="0.914062" style="stop-color:rgb(31.718445%,31.718445%,31.718445%);stop-opacity:1;"/>
<stop offset="0.933594" style="stop-color:rgb(31.365967%,31.365967%,31.365967%);stop-opacity:1;"/>
<stop offset="0.949219" style="stop-color:rgb(31.092834%,31.092834%,31.092834%);stop-opacity:1;"/>
<stop offset="0.960938" style="stop-color:rgb(30.781555%,30.781555%,30.781555%);stop-opacity:1;"/>
<stop offset="0.980469" style="stop-color:rgb(30.39093%,30.39093%,30.39093%);stop-opacity:1;"/>
<stop offset="1" style="stop-color:rgb(30.195618%,30.195618%,30.195618%);stop-opacity:1;"/>
</radialGradient>
<clipPath id="clip3">
  <path d="M 0 149 L 375.199219 149 L 375.199219 168 L 0 168 Z M 0 149 "/>
</clipPath>
<clipPath id="clip4">
  <path d="M 139 174 L 145 174 L 145 182.25 L 139 182.25 Z M 139 174 "/>
</clipPath>
<clipPath id="clip5">
  <path d="M 144 176 L 155 176 L 155 182.25 L 144 182.25 Z M 144 176 "/>
</clipPath>
<clipPath id="clip6">
  <path d="M 283 176 L 288 176 L 288 182.25 L 283 182.25 Z M 283 176 "/>
</clipPath>
</defs>
<g id="surface1">
<g clip-path="url(#clip1)" clip-rule="nonzero">
<g clip-path="url(#clip2)" clip-rule="nonzero">
<path style=" stroke:none;fill-rule:nonzero;fill:url(#radial0);" d="M 346 149.027344 L 230.800781 149.027344 L 230.800781 158.625 L 346 158.625 Z M 346 149.027344 "/>
</g>
</g>
<path style=" stroke:none;fill-rule:nonzero;fill:rgb(50.195312%,19.999695%,0%);fill-opacity:1;" d="M 2.453125 153.828125 L 372.746094 153.828125 C 373.882812 153.828125 374.800781 154.742188 374.800781 155.878906 L 374.800781 161.371094 C 374.800781 162.511719 373.882812 163.425781 372.746094 163.425781 L 2.453125 163.425781 C 1.316406 163.425781 0.398438 162.511719 0.398438 161.371094 L 0.398438 155.878906 C 0.398438 154.742188 1.316406 153.828125 2.453125 153.828125 Z M 2.453125 153.828125 "/>
<g clip-path="url(#clip3)" clip-rule="nonzero">
<path style="fill:none;stroke-width:0.8;stroke-linecap:butt;stroke-linejoin:miter;stroke:rgb(0%,0%,0%);stroke-opacity:1;stroke-miterlimit:4;" d="M 2.453125 153.828125 L 372.746094 153.828125 C 373.882812 153.828125 374.800781 154.742188 374.800781 155.878906 L 374.800781 161.371094 C 374.800781 162.511719 373.882812 163.425781 372.746094 163.425781 L 2.453125 163.425781 C 1.316406 163.425781 0.398438 162.511719 0.398438 161.371094 L 0.398438 155.878906 C 0.398438 154.742188 1.316406 153.828125 2.453125 153.828125 Z M 2.453125 153.828125 "/>
</g>
<path style="fill-rule:evenodd;fill:rgb(92.939758%,92.939758%,34.117126%);fill-opacity:1;stroke-width:0.465455;stroke-linecap:butt;stroke-linejoin:miter;stroke:rgb(0%,0%,0%);stroke-opacity:1;stroke-miterlimit:4;" d="M 66.286364 19.777344 L 63.490909 19.777344 L 57.904545 5.8125 L 63.490909 3.019531 Z M 66.286364 19.777344 " transform="matrix(0.859375,0,0,1,0,0)"/>
<path style="fill-rule:evenodd;fill:rgb(92.939758%,92.939758%,34.117126%);fill-opacity:1;stroke-width:0.465455;stroke-linecap:butt;stroke-linejoin:miter;stroke:rgb(0%,0%,0%);stroke-opacity:1;stroke-miterlimit:4;" d="M 69.077273 19.777344 L 71.868182 19.777344 L 77.454545 5.8125 L 71.868182 3.019531 Z M 69.077273 19.777344 " transform="matrix(0.859375,0,0,1,0,0)"/>
<path style="fill-rule:evenodd;fill:rgb(0%,0%,0%);fill-opacity:1;stroke-width:0.465455;stroke-linecap:butt;stroke-linejoin:miter;stroke:rgb(0%,0%,0%);stroke-opacity:1;stroke-miterlimit:4;" d="M 57.904545 5.8125 L 57.904545 3.019531 L 63.490909 0.226562 L 71.868182 0.226562 L 77.454545 3.019531 L 77.454545 5.8125 L 71.868182 3.019531 L 63.490909 3.019531 L 57.904545 5.8125 " transform="matrix(0.859375,0,0,1,0,0)"/>
<path style="fill-rule:evenodd;fill:rgb(100%,100%,0%);fill-opacity:1;stroke-width:0.465455;stroke-linecap:butt;stroke-linejoin:miter;stroke:rgb(0%,0%,0%);stroke-opacity:1;stroke-miterlimit:4;" d="M 66.286364 19.777344 L 69.077273 19.777344 L 71.868182 3.019531 L 63.490909 3.019531 Z M 66.286364 19.777344 " transform="matrix(0.859375,0,0,1,0,0)"/>
<path style="fill-rule:evenodd;fill:rgb(0%,0%,0%);fill-opacity:1;stroke-width:0.465455;stroke-linecap:round;stroke-linejoin:round;stroke:rgb(59.999084%,59.999084%,59.999084%);stroke-opacity:1;stroke-miterlimit:4;" d="M 66.286364 19.777344 L 69.077273 19.777344 L 69.077273 70.046875 L 66.286364 70.046875 Z M 66.286364 19.777344 " transform="matrix(0.859375,0,0,1,0,0)"/>
<path style="fill-rule:evenodd;fill:rgb(0%,0%,0%);fill-opacity:1;stroke-width:0.465455;stroke-linecap:round;stroke-linejoin:round;stroke:rgb(59.999084%,59.999084%,59.999084%);stroke-opacity:1;stroke-miterlimit:4;" d="M 63.490909 120.3125 L 71.868182 120.3125 L 71.868182 153.828125 L 63.490909 153.828125 Z M 63.490909 120.3125 " transform="matrix(0.859375,0,0,1,0,0)"/>
<path style="fill-rule:evenodd;fill:rgb(0%,0%,0%);fill-opacity:1;stroke-width:0.465455;stroke-linecap:round;stroke-linejoin:round;stroke:rgb(59.999084%,59.999084%,59.999084%);stroke-opacity:1;stroke-miterlimit:4;" d="M 64.886364 70.046875 L 70.472727 70.046875 L 70.472727 120.3125 L 64.886364 120.3125 Z M 64.886364 70.046875 " transform="matrix(0.859375,0,0,1,0,0)"/>
<path style="fill:none;stroke-width:0.8;stroke-linecap:butt;stroke-linejoin:miter;stroke:rgb(0%,0%,0%);stroke-opacity:1;stroke-dasharray:0.8,0.8;stroke-miterlimit:4;" d="M 346 153.828125 L 58 9.828125 "/>
<path style="fill-rule:evenodd;fill:rgb(0%,0%,0%);fill-opacity:1;stroke-width:0.357771;stroke-linecap:butt;stroke-linejoin:miter;stroke:rgb(0%,0%,0%);stroke-opacity:1;stroke-miterlimit:4;" d="M -336.928125 15.339063 C -336.928125 16.128125 -337.56875 16.76875 -338.360938 16.770313 C -339.15 16.770312 -339.790625 16.129688 -339.790625 15.340625 C -339.792188 14.548437 -339.148438 13.90625 -338.359375 13.90625 C -337.570313 13.90625 -336.928125 14.55 -336.928125 15.339063 Z M -336.928125 15.339063 " transform="matrix(-1,-0.5,0.5,-1,0,0)"/>
<path style="fill-rule:evenodd;fill:rgb(0%,0%,0%);fill-opacity:1;stroke-width:0.357771;stroke-linecap:butt;stroke-linejoin:miter;stroke:rgb(0%,0%,0%);stroke-opacity:1;stroke-miterlimit:4;" d="M -48.928125 15.339063 C -48.928125 16.128125 -49.56875 16.76875 -50.360938 16.770313 C -51.15 16.770313 -51.790625 16.129688 -51.790625 15.340625 C -51.792188 14.548438 -51.148438 13.90625 -50.359375 13.90625 C -49.570312 13.90625 -48.928125 14.55 -48.928125 15.339063 Z M -48.928125 15.339063 " transform="matrix(-1,-0.5,0.5,-1,0,0)"/>
<path style="fill:none;stroke-width:0.8;stroke-linecap:butt;stroke-linejoin:miter;stroke:rgb(100%,0%,0%);stroke-opacity:1;stroke-miterlimit:4;" d="M 43.601562 14.625 L 43.601562 153.828125 "/>
<path style="fill-rule:evenodd;fill:rgb(100%,0%,0%);fill-opacity:1;stroke-width:0.4;stroke-linecap:butt;stroke-linejoin:miter;stroke:rgb(100%,0%,0%);stroke-opacity:1;stroke-miterlimit:4;" d="M 17.828125 -43.601562 L 19.425781 -45.199219 L 13.828125 -43.601562 L 19.425781 -42 Z M 17.828125 -43.601562 " transform="matrix(0,1,-1,0,0,0)"/>
<path style="fill-rule:evenodd;fill:rgb(100%,0%,0%);fill-opacity:1;stroke-width:0.4;stroke-linecap:butt;stroke-linejoin:miter;stroke:rgb(100%,0%,0%);stroke-opacity:1;stroke-miterlimit:4;" d="M 155.394531 -43.601562 C 155.394531 -42.71875 154.679688 -42 153.792969 -42 C 152.910156 -42 152.195312 -42.71875 152.195312 -43.601562 C 152.195312 -44.484375 152.910156 -45.199219 153.792969 -45.199219 C 154.679688 -45.199219 155.394531 -44.484375 155.394531 -43.601562 Z M 155.394531 -43.601562 " transform="matrix(0,1,-1,0,0,0)"/>
<path style="fill:none;stroke-width:0.8;stroke-linecap:butt;stroke-linejoin:miter;stroke:rgb(100%,0%,0%);stroke-opacity:1;stroke-miterlimit:4;" d="M 221.199219 101.027344 L 221.199219 153.828125 "/>
<path style="fill-rule:evenodd;fill:rgb(100%,0%,0%);fill-opacity:1;stroke-width:0.4;stroke-linecap:butt;stroke-linejoin:miter;stroke:rgb(100%,0%,0%);stroke-opacity:1;stroke-miterlimit:4;" d="M 104.226562 -221.199219 L 105.828125 -222.800781 L 100.226562 -221.199219 L 105.828125 -219.601562 Z M 104.226562 -221.199219 " transform="matrix(0,1,-1,0,0,0)"/>
<path style="fill-rule:evenodd;fill:rgb(100%,0%,0%);fill-opacity:1;stroke-width:0.4;stroke-linecap:butt;stroke-linejoin:miter;stroke:rgb(100%,0%,0%);stroke-opacity:1;stroke-miterlimit:4;" d="M 155.394531 -221.199219 C 155.394531 -220.316406 154.679688 -219.601562 153.792969 -219.601562 C 152.910156 -219.601562 152.195312 -220.316406 152.195312 -221.199219 C 152.195312 -222.082031 152.910156 -222.800781 153.792969 -222.800781 C 154.679688 -222.800781 155.394531 -222.082031 155.394531 -221.199219 Z M 155.394531 -221.199219 " transform="matrix(0,1,-1,0,0,0)"/>
<path style="fill:none;stroke-width:0.8;stroke-linecap:butt;stroke-linejoin:miter;stroke:rgb(0%,0%,0%);stroke-opacity:1;stroke-dasharray:0.8,0.8;stroke-miterlimit:4;" d="M 346 173.027344 L 346 153.828125 "/>
<path style="fill:none;stroke-width:0.8;stroke-linecap:butt;stroke-linejoin:miter;stroke:rgb(0%,0%,0%);stroke-opacity:1;stroke-dasharray:0.8,0.8;stroke-miterlimit:4;" d="M 230.800781 173.027344 L 230.800781 153.828125 "/>
<path style="fill:none;stroke-width:0.8;stroke-linecap:butt;stroke-linejoin:miter;stroke:rgb(100%,0%,0%);stroke-opacity:1;stroke-miterlimit:4;" d="M 341.199219 168.226562 L 230.800781 168.226562 "/>
<path style="fill-rule:evenodd;fill:rgb(100%,0%,0%);fill-opacity:1;stroke-width:0.4;stroke-linecap:butt;stroke-linejoin:miter;stroke:rgb(100%,0%,0%);stroke-opacity:1;stroke-miterlimit:4;" d="M -338 -168.226562 L -336.398438 -169.828125 L -342 -168.226562 L -336.398438 -166.625 Z M -338 -168.226562 " transform="matrix(-1,0,0,-1,0,0)"/>
<path style="fill-rule:evenodd;fill:rgb(100%,0%,0%);fill-opacity:1;stroke-width:0.4;stroke-linecap:butt;stroke-linejoin:miter;stroke:rgb(100%,0%,0%);stroke-opacity:1;stroke-miterlimit:4;" d="M -229.230469 -168.226562 C -229.230469 -167.34375 -229.949219 -166.625 -230.832031 -166.625 C -231.714844 -166.625 -232.433594 -167.34375 -232.433594 -168.226562 C -232.433594 -169.109375 -231.714844 -169.828125 -230.832031 -169.828125 C -229.949219 -169.828125 -229.230469 -169.109375 -229.230469 -168.226562 Z M -229.230469 -168.226562 " transform="matrix(-1,0,0,-1,0,0)"/>
<path style="fill:none;stroke-width:0.8;stroke-linecap:butt;stroke-linejoin:miter;stroke:rgb(0%,0%,0%);stroke-opacity:1;stroke-dasharray:0.8,0.8;stroke-miterlimit:4;" d="M 34 9.828125 L 58 9.828125 "/>
<path style=" stroke:none;fill-rule:nonzero;fill:rgb(0%,0%,0%);fill-opacity:1;" d="M 34.613281 89.859375 C 34.613281 89.859375 34.613281 89.726562 34.464844 89.726562 C 34.183594 89.726562 33.320312 89.820312 33 89.859375 C 32.90625 89.859375 32.777344 89.878906 32.777344 90.085938 C 32.777344 90.234375 32.890625 90.234375 33.058594 90.234375 C 33.640625 90.234375 33.65625 90.308594 33.65625 90.441406 L 33.621094 90.683594 L 31.894531 97.566406 C 31.839844 97.734375 31.839844 97.753906 31.839844 97.828125 C 31.839844 98.109375 32.082031 98.164062 32.195312 98.164062 C 32.382812 98.164062 32.570312 98.015625 32.625 97.847656 L 32.851562 96.945312 L 33.113281 95.878906 C 33.1875 95.597656 33.265625 95.335938 33.320312 95.070312 C 33.339844 94.996094 33.453125 94.601562 33.453125 94.527344 C 33.488281 94.414062 33.863281 93.757812 34.277344 93.421875 C 34.539062 93.234375 34.894531 93.007812 35.421875 93.007812 C 35.925781 93.007812 36.058594 93.421875 36.058594 93.851562 C 36.058594 94.492188 35.609375 95.804688 35.328125 96.535156 C 35.234375 96.796875 35.15625 96.945312 35.15625 97.191406 C 35.15625 97.753906 35.589844 98.164062 36.152344 98.164062 C 37.277344 98.164062 37.707031 96.421875 37.707031 96.328125 C 37.707031 96.195312 37.613281 96.195312 37.578125 96.195312 C 37.445312 96.195312 37.445312 96.234375 37.390625 96.421875 C 37.21875 97.058594 36.828125 97.902344 36.171875 97.902344 C 35.964844 97.902344 35.890625 97.789062 35.890625 97.507812 C 35.890625 97.210938 35.984375 96.929688 36.09375 96.664062 C 36.28125 96.140625 36.828125 94.714844 36.828125 94.023438 C 36.828125 93.253906 36.359375 92.746094 35.457031 92.746094 C 34.707031 92.746094 34.125 93.121094 33.675781 93.664062 Z M 34.613281 89.859375 "/>
<path style="fill:none;stroke-width:0.8;stroke-linecap:butt;stroke-linejoin:miter;stroke:rgb(100%,0%,0%);stroke-opacity:1;stroke-miterlimit:4;" d="M 62.800781 168.226562 L 230.800781 168.226562 "/>
<path style="fill-rule:evenodd;fill:rgb(100%,0%,0%);fill-opacity:1;stroke-width:0.4;stroke-linecap:butt;stroke-linejoin:miter;stroke:rgb(100%,0%,0%);stroke-opacity:1;stroke-miterlimit:4;" d="M 66 168.226562 L 67.601562 166.625 L 62 168.226562 L 67.601562 169.828125 Z M 66 168.226562 "/>
<path style="fill-rule:evenodd;fill:rgb(100%,0%,0%);fill-opacity:1;stroke-width:0.4;stroke-linecap:butt;stroke-linejoin:miter;stroke:rgb(100%,0%,0%);stroke-opacity:1;stroke-miterlimit:4;" d="M 232.367188 168.226562 C 232.367188 169.109375 231.652344 169.828125 230.769531 169.828125 C 229.886719 169.828125 229.167969 169.109375 229.167969 168.226562 C 229.167969 167.34375 229.886719 166.625 230.769531 166.625 C 231.652344 166.625 232.367188 167.34375 232.367188 168.226562 Z M 232.367188 168.226562 "/>
<path style="fill:none;stroke-width:0.8;stroke-linecap:butt;stroke-linejoin:miter;stroke:rgb(0%,0%,0%);stroke-opacity:1;stroke-dasharray:0.8,0.8;stroke-miterlimit:4;" d="M 58 153.828125 L 58 173.027344 "/>
<path style="fill-rule:evenodd;fill:rgb(0%,0%,0%);fill-opacity:1;stroke-width:0.4;stroke-linecap:butt;stroke-linejoin:miter;stroke:rgb(0%,0%,0%);stroke-opacity:1;stroke-miterlimit:4;" d="M 155.394531 -58 C 155.394531 -57.117188 154.679688 -56.398438 153.792969 -56.398438 C 152.910156 -56.398438 152.195312 -57.117188 152.195312 -58 C 152.195312 -58.882812 152.910156 -59.601562 153.792969 -59.601562 C 154.679688 -59.601562 155.394531 -58.882812 155.394531 -58 Z M 155.394531 -58 " transform="matrix(0,1,-1,0,0,0)"/>
<path style="fill-rule:nonzero;fill:rgb(31.37207%,17.64679%,8.627319%);fill-opacity:1;stroke-width:0.8;stroke-linecap:butt;stroke-linejoin:miter;stroke:rgb(70.195007%,70.195007%,70.195007%);stroke-opacity:1;stroke-miterlimit:4;" d="M 228.347656 96.226562 L 233.148438 96.226562 L 233.148438 153.828125 L 228.347656 153.828125 Z M 228.347656 96.226562 "/>
<path style=" stroke:none;fill-rule:nonzero;fill:rgb(0%,0%,0%);fill-opacity:1;" d="M 201.644531 130.546875 L 202.917969 129.308594 C 204.773438 127.660156 205.488281 127.023438 205.488281 125.820312 C 205.488281 124.453125 204.417969 123.496094 202.957031 123.496094 C 201.605469 123.496094 200.726562 124.601562 200.726562 125.671875 C 200.726562 126.328125 201.324219 126.328125 201.363281 126.328125 C 201.570312 126.328125 201.980469 126.195312 201.980469 125.691406 C 201.980469 125.390625 201.757812 125.070312 201.34375 125.070312 C 201.25 125.070312 201.230469 125.070312 201.195312 125.089844 C 201.457031 124.304688 202.113281 123.871094 202.804688 123.871094 C 203.894531 123.871094 204.398438 124.847656 204.398438 125.820312 C 204.398438 126.777344 203.820312 127.714844 203.144531 128.464844 L 200.855469 131.015625 C 200.726562 131.148438 200.726562 131.183594 200.726562 131.464844 L 205.167969 131.464844 L 205.488281 129.382812 L 205.207031 129.382812 C 205.132812 129.742188 205.054688 130.265625 204.925781 130.453125 C 204.851562 130.546875 204.0625 130.546875 203.800781 130.546875 Z M 201.644531 130.546875 "/>
<path style=" stroke:none;fill-rule:nonzero;fill:rgb(0%,0%,0%);fill-opacity:1;" d="M 207.152344 130.753906 C 207.113281 130.941406 207.039062 131.222656 207.039062 131.277344 C 207.039062 131.484375 207.207031 131.597656 207.394531 131.597656 C 207.546875 131.597656 207.75 131.503906 207.84375 131.257812 C 207.84375 131.242188 207.996094 130.679688 208.070312 130.378906 L 208.332031 129.308594 C 208.390625 129.027344 208.464844 128.765625 208.539062 128.503906 C 208.578125 128.296875 208.671875 127.941406 208.6875 127.902344 C 208.859375 127.527344 209.496094 126.441406 210.640625 126.441406 C 211.183594 126.441406 211.277344 126.890625 211.277344 127.285156 C 211.277344 127.585938 211.203125 127.921875 211.109375 128.277344 L 210.769531 129.664062 L 210.527344 130.566406 C 210.488281 130.808594 210.375 131.222656 210.375 131.277344 C 210.375 131.484375 210.546875 131.597656 210.714844 131.597656 C 211.089844 131.597656 211.164062 131.296875 211.257812 130.921875 C 211.425781 130.246094 211.875 128.503906 211.96875 128.035156 C 212.007812 127.882812 212.644531 126.441406 213.957031 126.441406 C 214.464844 126.441406 214.59375 126.851562 214.59375 127.285156 C 214.59375 127.960938 214.089844 129.328125 213.84375 129.964844 C 213.75 130.246094 213.695312 130.378906 213.695312 130.621094 C 213.695312 131.183594 214.109375 131.597656 214.671875 131.597656 C 215.796875 131.597656 216.246094 129.851562 216.246094 129.757812 C 216.246094 129.628906 216.132812 129.628906 216.09375 129.628906 C 215.984375 129.628906 215.984375 129.664062 215.925781 129.851562 C 215.738281 130.492188 215.363281 131.335938 214.707031 131.335938 C 214.5 131.335938 214.40625 131.222656 214.40625 130.941406 C 214.40625 130.640625 214.519531 130.359375 214.632812 130.097656 C 214.859375 129.460938 215.363281 128.148438 215.363281 127.453125 C 215.363281 126.683594 214.875 126.179688 213.976562 126.179688 C 213.09375 126.179688 212.476562 126.703125 212.027344 127.339844 C 212.027344 127.191406 211.988281 126.777344 211.652344 126.496094 C 211.351562 126.234375 210.976562 126.179688 210.675781 126.179688 C 209.589844 126.179688 209.007812 126.945312 208.800781 127.226562 C 208.746094 126.535156 208.238281 126.179688 207.695312 126.179688 C 207.152344 126.179688 206.925781 126.648438 206.8125 126.851562 C 206.609375 127.285156 206.457031 127.976562 206.457031 128.015625 C 206.457031 128.148438 206.570312 128.148438 206.589844 128.148438 C 206.71875 128.148438 206.71875 128.128906 206.796875 127.867188 C 207 127.023438 207.246094 126.441406 207.675781 126.441406 C 207.863281 126.441406 208.03125 126.535156 208.03125 126.984375 C 208.03125 127.246094 207.996094 127.378906 207.84375 127.996094 Z M 207.152344 130.753906 "/>
<g clip-path="url(#clip4)" clip-rule="nonzero">
<path style=" stroke:none;fill-rule:nonzero;fill:rgb(0%,0%,0%);fill-opacity:1;" d="M 140.179688 178.070312 L 140.179688 177.769531 C 140.179688 174.75 141.664062 174.320312 142.28125 174.320312 C 142.5625 174.320312 143.070312 174.394531 143.332031 174.808594 C 143.144531 174.808594 142.675781 174.808594 142.675781 175.332031 C 142.675781 175.707031 142.957031 175.894531 143.21875 175.894531 C 143.40625 175.894531 143.78125 175.78125 143.78125 175.3125 C 143.78125 174.601562 143.257812 174.019531 142.261719 174.019531 C 140.726562 174.019531 139.113281 175.558594 139.113281 178.199219 C 139.113281 181.40625 140.5 182.25 141.605469 182.25 C 142.9375 182.25 144.082031 181.125 144.082031 179.550781 C 144.082031 178.03125 143.011719 176.886719 141.679688 176.886719 C 140.875 176.886719 140.425781 177.488281 140.179688 178.070312 Z M 141.605469 181.914062 C 140.855469 181.914062 140.5 181.199219 140.425781 181.011719 C 140.199219 180.449219 140.199219 179.496094 140.199219 179.289062 C 140.199219 178.351562 140.59375 177.152344 141.664062 177.152344 C 141.867188 177.152344 142.414062 177.152344 142.789062 177.902344 C 142.992188 178.332031 142.992188 178.949219 142.992188 179.53125 C 142.992188 180.113281 142.992188 180.714844 142.789062 181.144531 C 142.429688 181.855469 141.886719 181.914062 141.605469 181.914062 Z M 141.605469 181.914062 "/>
</g>
<g clip-path="url(#clip5)" clip-rule="nonzero">
<path style=" stroke:none;fill-rule:nonzero;fill:rgb(0%,0%,0%);fill-opacity:1;" d="M 145.632812 181.277344 C 145.597656 181.464844 145.519531 181.746094 145.519531 181.800781 C 145.519531 182.007812 145.691406 182.121094 145.878906 182.121094 C 146.027344 182.121094 146.234375 182.027344 146.328125 181.78125 C 146.328125 181.761719 146.476562 181.199219 146.550781 180.902344 L 146.816406 179.832031 C 146.871094 179.550781 146.945312 179.289062 147.019531 179.027344 C 147.058594 178.820312 147.152344 178.464844 147.171875 178.425781 C 147.339844 178.050781 147.976562 176.964844 149.121094 176.964844 C 149.664062 176.964844 149.757812 177.414062 149.757812 177.808594 C 149.757812 178.105469 149.683594 178.445312 149.589844 178.800781 L 149.253906 180.1875 L 149.007812 181.089844 C 148.972656 181.332031 148.859375 181.746094 148.859375 181.800781 C 148.859375 182.007812 149.027344 182.121094 149.195312 182.121094 C 149.570312 182.121094 149.644531 181.820312 149.738281 181.445312 C 149.910156 180.769531 150.359375 179.027344 150.453125 178.558594 C 150.488281 178.40625 151.128906 176.964844 152.441406 176.964844 C 152.945312 176.964844 153.078125 177.375 153.078125 177.808594 C 153.078125 178.480469 152.570312 179.851562 152.328125 180.488281 C 152.234375 180.769531 152.175781 180.902344 152.175781 181.144531 C 152.175781 181.707031 152.589844 182.121094 153.152344 182.121094 C 154.277344 182.121094 154.726562 180.375 154.726562 180.28125 C 154.726562 180.152344 154.613281 180.152344 154.578125 180.152344 C 154.464844 180.152344 154.464844 180.1875 154.410156 180.375 C 154.222656 181.011719 153.847656 181.855469 153.191406 181.855469 C 152.984375 181.855469 152.890625 181.746094 152.890625 181.464844 C 152.890625 181.164062 153.003906 180.882812 153.113281 180.621094 C 153.339844 179.980469 153.847656 178.667969 153.847656 177.976562 C 153.847656 177.207031 153.359375 176.699219 152.457031 176.699219 C 151.578125 176.699219 150.957031 177.226562 150.507812 177.863281 C 150.507812 177.714844 150.472656 177.300781 150.132812 177.019531 C 149.832031 176.757812 149.457031 176.699219 149.160156 176.699219 C 148.070312 176.699219 147.488281 177.46875 147.285156 177.75 C 147.226562 177.058594 146.722656 176.699219 146.175781 176.699219 C 145.632812 176.699219 145.410156 177.167969 145.296875 177.375 C 145.089844 177.808594 144.941406 178.5 144.941406 178.539062 C 144.941406 178.667969 145.050781 178.667969 145.070312 178.667969 C 145.203125 178.667969 145.203125 178.652344 145.277344 178.386719 C 145.484375 177.542969 145.726562 176.964844 146.160156 176.964844 C 146.347656 176.964844 146.515625 177.058594 146.515625 177.507812 C 146.515625 177.769531 146.476562 177.902344 146.328125 178.519531 Z M 145.632812 181.277344 "/>
</g>
<path style="fill:none;stroke-width:0.8;stroke-linecap:butt;stroke-linejoin:miter;stroke:rgb(0%,0%,0%);stroke-opacity:1;stroke-dasharray:0.8,0.8;stroke-miterlimit:4;" d="M 216.398438 96.226562 L 230.800781 96.226562 "/>
<g clip-path="url(#clip6)" clip-rule="nonzero">
<path style=" stroke:none;fill-rule:nonzero;fill:rgb(0%,0%,0%);fill-opacity:1;" d="M 287.460938 177.636719 C 287.144531 177.65625 286.898438 177.917969 286.898438 178.183594 C 286.898438 178.351562 287.011719 178.539062 287.273438 178.539062 C 287.539062 178.539062 287.820312 178.332031 287.820312 177.863281 C 287.820312 177.320312 287.3125 176.832031 286.394531 176.832031 C 284.820312 176.832031 284.367188 178.050781 284.367188 178.574219 C 284.367188 179.511719 285.25 179.683594 285.605469 179.757812 C 286.226562 179.886719 286.84375 180.019531 286.84375 180.675781 C 286.84375 180.976562 286.582031 181.988281 285.136719 181.988281 C 284.96875 181.988281 284.050781 181.988281 283.769531 181.351562 C 284.238281 181.40625 284.539062 181.050781 284.539062 180.714844 C 284.539062 180.449219 284.332031 180.300781 284.085938 180.300781 C 283.769531 180.300781 283.414062 180.542969 283.414062 181.089844 C 283.414062 181.761719 284.105469 182.25 285.117188 182.25 C 287.070312 182.25 287.539062 180.808594 287.539062 180.261719 C 287.539062 179.832031 287.3125 179.53125 287.164062 179.402344 C 286.84375 179.0625 286.488281 178.988281 285.960938 178.894531 C 285.53125 178.800781 285.0625 178.707031 285.0625 178.164062 C 285.0625 177.824219 285.34375 177.09375 286.394531 177.09375 C 286.695312 177.09375 287.292969 177.1875 287.460938 177.636719 Z M 287.460938 177.636719 "/>
</g>
</g>
</svg>
