<?xml version="1.0" encoding="UTF-8"?>
<svg xmlns="http://www.w3.org/2000/svg" xmlns:xlink="http://www.w3.org/1999/xlink" width="519.424988pt" height="82.875pt" viewBox="0 0 519.424988 82.875" version="1.1">
<defs>
<clipPath id="clip1">
  <path d="M 37 2 L 38 2 L 38 82.875 L 37 82.875 Z M 37 2 "/>
</clipPath>
<clipPath id="clip2">
  <path d="M 0 0 L 126 0 L 126 82.875 L 0 82.875 Z M 0 0 "/>
</clipPath>
<clipPath id="clip3">
  <path d="M 290 1 L 292 1 L 292 82.875 L 290 82.875 Z M 290 1 "/>
</clipPath>
<clipPath id="clip4">
  <path d="M 419 1 L 421 1 L 421 82.875 L 419 82.875 Z M 419 1 "/>
</clipPath>
<clipPath id="clip5">
  <path d="M 398 44 L 519.425781 44 L 519.425781 46 L 398 46 Z M 398 44 "/>
</clipPath>
<clipPath id="clip6">
  <path d="M 163 1 L 165 1 L 165 82.875 L 163 82.875 Z M 163 1 "/>
</clipPath>
<clipPath id="clip7">
  <path d="M 292 4 L 375 4 L 375 82.875 L 292 82.875 Z M 292 4 "/>
</clipPath>
<clipPath id="clip8">
  <path d="M 402 64 L 519.425781 64 L 519.425781 66 L 402 66 Z M 402 64 "/>
</clipPath>
</defs>
<g id="surface1">
<g clip-path="url(#clip1)" clip-rule="nonzero">
<path style="fill:none;stroke-width:0.8;stroke-linecap:butt;stroke-linejoin:miter;stroke:rgb(100%,0%,0%);stroke-opacity:1;stroke-miterlimit:4;" d="M 37.601562 2.953125 L 37.601562 82.882812 "/>
</g>
<path style="fill:none;stroke-width:0.8;stroke-linecap:butt;stroke-linejoin:miter;stroke:rgb(100%,0%,0%);stroke-opacity:1;stroke-miterlimit:4;" d="M 136.71875 73.117188 L 17.335938 73.117188 "/>
<g clip-path="url(#clip2)" clip-rule="nonzero">
<path style="fill:none;stroke-width:0.8;stroke-linecap:butt;stroke-linejoin:miter;stroke:rgb(0%,0%,0%);stroke-opacity:1;stroke-miterlimit:4;" d="M 0.371094 0.164062 C 7.894531 17.105469 21.453125 63.910156 48.226562 64.726562 C 65.023438 65.242188 63.871094 25.5 80.664062 26.140625 C 103.757812 27.023438 104.320312 77.433594 121.097656 82.46875 "/>
</g>
<g clip-path="url(#clip3)" clip-rule="nonzero">
<path style="fill:none;stroke-width:0.8;stroke-linecap:butt;stroke-linejoin:miter;stroke:rgb(100%,0%,0%);stroke-opacity:1;stroke-miterlimit:4;" d="M 291.132812 2.378906 L 291.132812 82.3125 "/>
</g>
<path style="fill:none;stroke-width:0.8;stroke-linecap:butt;stroke-linejoin:miter;stroke:rgb(100%,0%,0%);stroke-opacity:1;stroke-miterlimit:4;" d="M 390.25 44.324219 L 270.867188 44.324219 "/>
<g clip-path="url(#clip4)" clip-rule="nonzero">
<path style="fill:none;stroke-width:0.8;stroke-linecap:butt;stroke-linejoin:miter;stroke:rgb(100%,0%,0%);stroke-opacity:1;stroke-miterlimit:4;" d="M 419.65625 2.363281 L 419.65625 82.296875 "/>
</g>
<g clip-path="url(#clip5)" clip-rule="nonzero">
<path style="fill:none;stroke-width:0.8;stroke-linecap:butt;stroke-linejoin:miter;stroke:rgb(100%,0%,0%);stroke-opacity:1;stroke-miterlimit:4;" d="M 518.773438 44.738281 L 399.390625 44.738281 "/>
</g>
<g clip-path="url(#clip6)" clip-rule="nonzero">
<path style="fill:none;stroke-width:0.8;stroke-linecap:butt;stroke-linejoin:miter;stroke:rgb(100%,0%,0%);stroke-opacity:1;stroke-miterlimit:4;" d="M 164.15625 2.054688 L 164.15625 81.988281 "/>
</g>
<path style="fill:none;stroke-width:0.8;stroke-linecap:butt;stroke-linejoin:miter;stroke:rgb(100%,0%,0%);stroke-opacity:1;stroke-miterlimit:4;" d="M 263.273438 43.632812 L 143.890625 43.632812 "/>
<path style="fill:none;stroke-width:0.8;stroke-linecap:butt;stroke-linejoin:miter;stroke:rgb(0%,0%,100%);stroke-opacity:1;stroke-miterlimit:4;" d="M 48.597656 64.996094 L 48.597656 72.984375 "/>
<path style="fill:none;stroke-width:0.8;stroke-linecap:butt;stroke-linejoin:miter;stroke:rgb(0%,0%,100%);stroke-opacity:1;stroke-miterlimit:4;" d="M 80.542969 26.066406 L 80.542969 72.484375 "/>
<path style="fill:none;stroke-width:0.8;stroke-linecap:butt;stroke-linejoin:miter;stroke:rgb(0%,0%,0%);stroke-opacity:1;stroke-miterlimit:4;" d="M 157.535156 71.777344 C 176.929688 57.089844 184.132812 17.898438 197.480469 17.289062 C 210.832031 16.675781 223.027344 60.996094 241.335938 69.171875 "/>
<path style="fill-rule:nonzero;fill:rgb(0%,0%,100%);fill-opacity:1;stroke-width:0.8;stroke-linecap:round;stroke-linejoin:round;stroke:rgb(0%,0%,100%);stroke-opacity:1;stroke-miterlimit:4;" d="M 179.292969 43.757812 C 179.292969 44.472656 178.710938 45.054688 177.996094 45.054688 C 177.285156 45.054688 176.703125 44.472656 176.703125 43.757812 C 176.703125 43.042969 177.285156 42.464844 177.996094 42.464844 C 178.710938 42.464844 179.292969 43.042969 179.292969 43.757812 Z M 179.292969 43.757812 "/>
<path style="fill-rule:nonzero;fill:rgb(0%,0%,100%);fill-opacity:1;stroke-width:0.8;stroke-linecap:round;stroke-linejoin:round;stroke:rgb(0%,0%,100%);stroke-opacity:1;stroke-miterlimit:4;" d="M 220.703125 43.011719 C 220.703125 43.726562 220.121094 44.308594 219.40625 44.308594 C 218.691406 44.308594 218.113281 43.726562 218.113281 43.011719 C 218.113281 42.296875 218.691406 41.71875 219.40625 41.71875 C 220.121094 41.71875 220.703125 42.296875 220.703125 43.011719 Z M 220.703125 43.011719 "/>
<path style="fill-rule:nonzero;fill:rgb(0%,0%,100%);fill-opacity:1;stroke-width:0.8;stroke-linecap:round;stroke-linejoin:round;stroke:rgb(0%,0%,100%);stroke-opacity:1;stroke-miterlimit:4;" d="M 112.589844 72.644531 C 112.589844 73.359375 112.011719 73.941406 111.296875 73.941406 C 110.582031 73.941406 110 73.359375 110 72.644531 C 110 71.933594 110.582031 71.351562 111.296875 71.351562 C 112.011719 71.351562 112.589844 71.933594 112.589844 72.644531 Z M 112.589844 72.644531 "/>
<path style="fill:none;stroke-width:0.8;stroke-linecap:butt;stroke-linejoin:miter;stroke:rgb(0%,0%,100%);stroke-opacity:1;stroke-miterlimit:4;" d="M 197.265625 17.308594 L 197.265625 44.1875 "/>
<g clip-path="url(#clip7)" clip-rule="nonzero">
<path style="fill:none;stroke-width:0.8;stroke-linecap:butt;stroke-linejoin:miter;stroke:rgb(0%,0%,0%);stroke-opacity:1;stroke-miterlimit:4;" d="M 296.691406 8.605469 L 370.289062 78.726562 "/>
</g>
<path style="fill-rule:nonzero;fill:rgb(0%,0%,100%);fill-opacity:1;stroke-width:0.8;stroke-linecap:round;stroke-linejoin:round;stroke:rgb(0%,0%,100%);stroke-opacity:1;stroke-miterlimit:4;" d="M 335.109375 44.207031 C 335.109375 44.921875 334.53125 45.5 333.816406 45.5 C 333.101562 45.5 332.523438 44.921875 332.523438 44.207031 C 332.523438 43.492188 333.101562 42.914062 333.816406 42.914062 C 334.53125 42.914062 335.109375 43.492188 335.109375 44.207031 Z M 335.109375 44.207031 "/>
<g clip-path="url(#clip8)" clip-rule="nonzero">
<path style="fill:none;stroke-width:0.8;stroke-linecap:butt;stroke-linejoin:miter;stroke:rgb(0%,0%,0%);stroke-opacity:1;stroke-miterlimit:4;" d="M 402.851562 64.832031 L 519.429688 64.832031 "/>
</g>
</g>
</svg>
