<?xml version="1.0" encoding="UTF-8"?>
<svg xmlns="http://www.w3.org/2000/svg" xmlns:xlink="http://www.w3.org/1999/xlink" width="248.175003pt" height="76.824997pt" viewBox="0 0 248.175003 76.824997" version="1.1">
<defs>
<clipPath id="clip1">
  <path d="M 13 0 L 15 0 L 15 76.824219 L 13 76.824219 Z M 13 0 "/>
</clipPath>
<clipPath id="clip2">
  <path d="M 146 0 L 147 0 L 147 76.824219 L 146 76.824219 Z M 146 0 "/>
</clipPath>
<clipPath id="clip3">
  <path d="M 132 42 L 248.175781 42 L 248.175781 44 L 132 44 Z M 132 42 "/>
</clipPath>
<clipPath id="clip4">
  <path d="M 178 15 L 248.175781 15 L 248.175781 73 L 178 73 Z M 178 15 "/>
</clipPath>
</defs>
<g id="surface1">
<g clip-path="url(#clip1)" clip-rule="nonzero">
<path style="fill:none;stroke-width:0.8;stroke-linecap:butt;stroke-linejoin:miter;stroke:rgb(100%,0%,0%);stroke-opacity:1;stroke-miterlimit:4;" d="M 13.742188 0.0234375 L 13.742188 76.835938 "/>
</g>
<path style="fill:none;stroke-width:0.8;stroke-linecap:butt;stroke-linejoin:miter;stroke:rgb(100%,0%,0%);stroke-opacity:1;stroke-miterlimit:4;" d="M 114.878906 42.828125 L 0.0078125 42.828125 "/>
<path style="fill:none;stroke-width:0.8;stroke-linecap:butt;stroke-linejoin:miter;stroke:rgb(0%,0%,0%);stroke-opacity:1;stroke-miterlimit:4;" d="M 13.839844 41.871094 C 13.839844 41.871094 21.386719 25.617188 31.179688 18.539062 C 40.972656 11.464844 49.039062 12.402344 49.039062 12.402344 "/>
<path style="fill:none;stroke-width:0.8;stroke-linecap:butt;stroke-linejoin:miter;stroke:rgb(0%,0%,0%);stroke-opacity:1;stroke-miterlimit:4;" d="M 49.929688 12.566406 C 49.929688 12.566406 58.691406 11.363281 71.367188 23.957031 C 84.042969 36.546875 80.914062 45.550781 88.839844 51.875 C 96.765625 58.199219 115.1875 61.058594 115.1875 61.058594 "/>
<path style="fill-rule:nonzero;fill:rgb(100%,100%,100%);fill-opacity:1;stroke-width:0.8;stroke-linecap:butt;stroke-linejoin:miter;stroke:rgb(0%,0%,0%);stroke-opacity:1;stroke-miterlimit:4;" d="M 52.113281 12.191406 C 52.113281 13.433594 51.105469 14.441406 49.863281 14.441406 C 48.617188 14.441406 47.609375 13.433594 47.609375 12.191406 C 47.609375 10.949219 48.617188 9.941406 49.863281 9.941406 C 51.105469 9.941406 52.113281 10.949219 52.113281 12.191406 Z M 52.113281 12.191406 "/>
<path style="fill-rule:nonzero;fill:rgb(0%,0%,0%);fill-opacity:1;stroke-width:0.8;stroke-linecap:butt;stroke-linejoin:miter;stroke:rgb(0%,0%,0%);stroke-opacity:1;stroke-miterlimit:4;" d="M 52.183594 68.117188 C 52.183594 69.359375 51.175781 70.367188 49.933594 70.367188 C 48.691406 70.367188 47.683594 69.359375 47.683594 68.117188 C 47.683594 66.871094 48.691406 65.863281 49.933594 65.863281 C 51.175781 65.863281 52.183594 66.871094 52.183594 68.117188 Z M 52.183594 68.117188 "/>
<path style=" stroke:none;fill-rule:nonzero;fill:rgb(0%,0%,0%);fill-opacity:1;" d="M 9.226562 14.289062 L 10.078125 13.464844 C 11.3125 12.363281 11.789062 11.941406 11.789062 11.140625 C 11.789062 10.226562 11.078125 9.589844 10.101562 9.589844 C 9.203125 9.589844 8.613281 10.328125 8.613281 11.039062 C 8.613281 11.476562 9.015625 11.476562 9.039062 11.476562 C 9.175781 11.476562 9.453125 11.390625 9.453125 11.050781 C 9.453125 10.851562 9.300781 10.640625 9.027344 10.640625 C 8.964844 10.640625 8.953125 10.640625 8.925781 10.652344 C 9.101562 10.128906 9.539062 9.839844 10 9.839844 C 10.726562 9.839844 11.0625 10.488281 11.0625 11.140625 C 11.0625 11.777344 10.675781 12.402344 10.226562 12.902344 L 8.703125 14.601562 C 8.613281 14.691406 8.613281 14.714844 8.613281 14.902344 L 11.578125 14.902344 L 11.789062 13.515625 L 11.601562 13.515625 C 11.550781 13.753906 11.5 14.101562 11.414062 14.226562 C 11.363281 14.289062 10.839844 14.289062 10.664062 14.289062 Z M 9.226562 14.289062 "/>
<path style=" stroke:none;fill-rule:nonzero;fill:rgb(0%,0%,0%);fill-opacity:1;" d="M 7.339844 68.539062 C 7.476562 68.539062 7.625 68.539062 7.625 68.375 C 7.625 68.226562 7.476562 68.226562 7.339844 68.226562 L 3.027344 68.226562 C 2.890625 68.226562 2.75 68.226562 2.75 68.375 C 2.75 68.539062 2.890625 68.539062 3.027344 68.539062 Z M 7.339844 68.539062 "/>
<path style=" stroke:none;fill-rule:nonzero;fill:rgb(0%,0%,0%);fill-opacity:1;" d="M 9.300781 69.765625 L 10.152344 68.9375 C 11.386719 67.839844 11.863281 67.414062 11.863281 66.613281 C 11.863281 65.703125 11.152344 65.0625 10.175781 65.0625 C 9.277344 65.0625 8.6875 65.800781 8.6875 66.515625 C 8.6875 66.953125 9.089844 66.953125 9.113281 66.953125 C 9.25 66.953125 9.527344 66.863281 9.527344 66.527344 C 9.527344 66.328125 9.375 66.113281 9.101562 66.113281 C 9.039062 66.113281 9.027344 66.113281 9 66.125 C 9.175781 65.601562 9.613281 65.3125 10.074219 65.3125 C 10.800781 65.3125 11.136719 65.964844 11.136719 66.613281 C 11.136719 67.25 10.75 67.875 10.300781 68.375 L 8.777344 70.078125 C 8.6875 70.164062 8.6875 70.1875 8.6875 70.375 L 11.652344 70.375 L 11.863281 68.988281 L 11.675781 68.988281 C 11.625 69.226562 11.574219 69.578125 11.488281 69.703125 C 11.4375 69.765625 10.914062 69.765625 10.738281 69.765625 Z M 9.300781 69.765625 "/>
<path style=" stroke:none;fill-rule:nonzero;fill:rgb(0%,0%,0%);fill-opacity:1;" d="M 50.324219 45.121094 C 50.324219 44.921875 50.324219 44.910156 50.136719 44.910156 C 49.636719 45.421875 48.9375 45.421875 48.6875 45.421875 L 48.6875 45.671875 C 48.851562 45.671875 49.3125 45.671875 49.726562 45.457031 L 49.726562 49.597656 C 49.726562 49.882812 49.699219 49.972656 48.988281 49.972656 L 48.738281 49.972656 L 48.738281 50.222656 C 49.011719 50.195312 49.699219 50.195312 50.027344 50.195312 C 50.339844 50.195312 51.039062 50.195312 51.3125 50.222656 L 51.3125 49.972656 L 51.0625 49.972656 C 50.339844 49.972656 50.324219 49.882812 50.324219 49.597656 Z M 50.324219 45.121094 "/>
<g clip-path="url(#clip2)" clip-rule="nonzero">
<path style="fill:none;stroke-width:0.8;stroke-linecap:butt;stroke-linejoin:miter;stroke:rgb(100%,0%,0%);stroke-opacity:1;stroke-miterlimit:4;" d="M 146.539062 0 L 146.539062 76.8125 "/>
</g>
<g clip-path="url(#clip3)" clip-rule="nonzero">
<path style="fill:none;stroke-width:0.8;stroke-linecap:butt;stroke-linejoin:miter;stroke:rgb(100%,0%,0%);stroke-opacity:1;stroke-miterlimit:4;" d="M 247.675781 42.804688 L 132.808594 42.804688 "/>
</g>
<path style="fill:none;stroke-width:0.8;stroke-linecap:butt;stroke-linejoin:miter;stroke:rgb(0%,0%,0%);stroke-opacity:1;stroke-miterlimit:4;" d="M 146.640625 41.847656 C 146.640625 41.847656 154.183594 25.59375 163.976562 18.515625 C 173.769531 11.441406 181.839844 12.378906 181.839844 12.378906 "/>
<g clip-path="url(#clip4)" clip-rule="nonzero">
<path style="fill:none;stroke-width:0.8;stroke-linecap:butt;stroke-linejoin:miter;stroke:rgb(0%,0%,0%);stroke-opacity:1;stroke-miterlimit:4;" d="M 182.859375 68.09375 C 182.859375 68.09375 191.617188 69.292969 204.292969 56.703125 C 216.96875 44.109375 213.839844 35.109375 221.765625 28.785156 C 229.691406 22.460938 248.117188 19.601562 248.117188 19.601562 "/>
</g>
<path style="fill-rule:nonzero;fill:rgb(100%,100%,100%);fill-opacity:1;stroke-width:0.8;stroke-linecap:butt;stroke-linejoin:miter;stroke:rgb(0%,0%,0%);stroke-opacity:1;stroke-miterlimit:4;" d="M 184.910156 12.167969 C 184.910156 13.410156 183.902344 14.417969 182.660156 14.417969 C 181.417969 14.417969 180.410156 13.410156 180.410156 12.167969 C 180.410156 10.925781 181.417969 9.917969 182.660156 9.917969 C 183.902344 9.917969 184.910156 10.925781 184.910156 12.167969 Z M 184.910156 12.167969 "/>
<path style="fill-rule:nonzero;fill:rgb(0%,0%,0%);fill-opacity:1;stroke-width:0.8;stroke-linecap:butt;stroke-linejoin:miter;stroke:rgb(0%,0%,0%);stroke-opacity:1;stroke-miterlimit:4;" d="M 184.984375 68.09375 C 184.984375 69.335938 183.976562 70.34375 182.730469 70.34375 C 181.488281 70.34375 180.480469 69.335938 180.480469 68.09375 C 180.480469 66.847656 181.488281 65.839844 182.730469 65.839844 C 183.976562 65.839844 184.984375 66.847656 184.984375 68.09375 Z M 184.984375 68.09375 "/>
<path style=" stroke:none;fill-rule:nonzero;fill:rgb(0%,0%,0%);fill-opacity:1;" d="M 142.023438 14.265625 L 142.875 13.441406 C 144.113281 12.339844 144.585938 11.917969 144.585938 11.117188 C 144.585938 10.203125 143.875 9.566406 142.898438 9.566406 C 142 9.566406 141.414062 10.304688 141.414062 11.015625 C 141.414062 11.453125 141.8125 11.453125 141.835938 11.453125 C 141.976562 11.453125 142.25 11.367188 142.25 11.027344 C 142.25 10.828125 142.101562 10.617188 141.824219 10.617188 C 141.761719 10.617188 141.75 10.617188 141.726562 10.628906 C 141.898438 10.105469 142.335938 9.816406 142.800781 9.816406 C 143.523438 9.816406 143.863281 10.464844 143.863281 11.117188 C 143.863281 11.753906 143.476562 12.378906 143.023438 12.878906 L 141.5 14.578125 C 141.414062 14.667969 141.414062 14.691406 141.414062 14.878906 L 144.375 14.878906 L 144.585938 13.492188 L 144.398438 13.492188 C 144.351562 13.730469 144.300781 14.078125 144.210938 14.203125 C 144.164062 14.265625 143.636719 14.265625 143.460938 14.265625 Z M 142.023438 14.265625 "/>
<path style=" stroke:none;fill-rule:nonzero;fill:rgb(0%,0%,0%);fill-opacity:1;" d="M 140.136719 68.515625 C 140.273438 68.515625 140.425781 68.515625 140.425781 68.351562 C 140.425781 68.203125 140.273438 68.203125 140.136719 68.203125 L 135.824219 68.203125 C 135.6875 68.203125 135.550781 68.203125 135.550781 68.351562 C 135.550781 68.515625 135.6875 68.515625 135.824219 68.515625 Z M 140.136719 68.515625 "/>
<path style=" stroke:none;fill-rule:nonzero;fill:rgb(0%,0%,0%);fill-opacity:1;" d="M 142.097656 69.738281 L 142.949219 68.914062 C 144.1875 67.816406 144.660156 67.390625 144.660156 66.589844 C 144.660156 65.675781 143.949219 65.039062 142.972656 65.039062 C 142.074219 65.039062 141.488281 65.777344 141.488281 66.488281 C 141.488281 66.925781 141.886719 66.925781 141.910156 66.925781 C 142.050781 66.925781 142.324219 66.839844 142.324219 66.503906 C 142.324219 66.300781 142.175781 66.089844 141.898438 66.089844 C 141.835938 66.089844 141.824219 66.089844 141.800781 66.101562 C 141.972656 65.578125 142.410156 65.289062 142.875 65.289062 C 143.597656 65.289062 143.9375 65.941406 143.9375 66.589844 C 143.9375 67.226562 143.550781 67.851562 143.097656 68.351562 L 141.574219 70.050781 C 141.488281 70.140625 141.488281 70.164062 141.488281 70.351562 L 144.449219 70.351562 L 144.660156 68.964844 L 144.472656 68.964844 C 144.425781 69.203125 144.375 69.550781 144.285156 69.675781 C 144.238281 69.738281 143.710938 69.738281 143.535156 69.738281 Z M 142.097656 69.738281 "/>
<path style=" stroke:none;fill-rule:nonzero;fill:rgb(0%,0%,0%);fill-opacity:1;" d="M 183.125 45.097656 C 183.125 44.898438 183.125 44.886719 182.9375 44.886719 C 182.4375 45.398438 181.738281 45.398438 181.488281 45.398438 L 181.488281 45.648438 C 181.648438 45.648438 182.113281 45.648438 182.523438 45.433594 L 182.523438 49.574219 C 182.523438 49.859375 182.5 49.949219 181.785156 49.949219 L 181.535156 49.949219 L 181.535156 50.199219 C 181.8125 50.171875 182.5 50.171875 182.824219 50.171875 C 183.136719 50.171875 183.835938 50.171875 184.113281 50.199219 L 184.113281 49.949219 L 183.863281 49.949219 C 183.136719 49.949219 183.125 49.859375 183.125 49.574219 Z M 183.125 45.097656 "/>
<path style=" stroke:none;fill-rule:nonzero;fill:rgb(0%,0%,0%);fill-opacity:1;" d="M 74.132812 16.261719 L 74.820312 16.261719 C 74.984375 16.261719 75.058594 16.261719 75.058594 16.097656 C 75.058594 16.011719 74.984375 16.011719 74.847656 16.011719 L 74.183594 16.011719 L 74.347656 15.097656 C 74.382812 14.9375 74.496094 14.375 74.546875 14.273438 C 74.609375 14.125 74.746094 14 74.921875 14 C 74.945312 14 75.160156 14 75.308594 14.148438 C 74.957031 14.175781 74.871094 14.460938 74.871094 14.574219 C 74.871094 14.761719 75.019531 14.863281 75.171875 14.863281 C 75.382812 14.863281 75.609375 14.675781 75.609375 14.375 C 75.609375 14.011719 75.246094 13.824219 74.921875 13.824219 C 74.644531 13.824219 74.144531 13.972656 73.910156 14.761719 C 73.859375 14.925781 73.832031 15.011719 73.644531 16.011719 L 73.097656 16.011719 C 72.933594 16.011719 72.847656 16.011719 72.847656 16.160156 C 72.847656 16.261719 72.921875 16.261719 73.070312 16.261719 L 73.597656 16.261719 L 73.007812 19.410156 C 72.859375 20.1875 72.722656 20.910156 72.308594 20.910156 C 72.269531 20.910156 72.082031 20.910156 71.921875 20.761719 C 72.296875 20.738281 72.371094 20.449219 72.371094 20.335938 C 72.371094 20.148438 72.222656 20.050781 72.070312 20.050781 C 71.859375 20.050781 71.632812 20.238281 71.632812 20.535156 C 71.632812 20.886719 71.984375 21.085938 72.308594 21.085938 C 72.746094 21.085938 73.070312 20.613281 73.207031 20.3125 C 73.472656 19.8125 73.644531 18.847656 73.660156 18.785156 Z M 74.132812 16.261719 "/>
<path style=" stroke:none;fill-rule:nonzero;fill:rgb(0%,0%,0%);fill-opacity:1;" d="M 78.605469 21.363281 C 78.605469 21.335938 78.605469 21.324219 78.46875 21.1875 C 77.480469 20.1875 77.21875 18.675781 77.21875 17.449219 C 77.21875 16.0625 77.519531 14.675781 78.507812 13.6875 C 78.605469 13.585938 78.605469 13.574219 78.605469 13.550781 C 78.605469 13.488281 78.582031 13.460938 78.53125 13.460938 C 78.445312 13.460938 77.730469 14.011719 77.257812 15.023438 C 76.855469 15.898438 76.757812 16.785156 76.757812 17.449219 C 76.757812 18.074219 76.84375 19.035156 77.28125 19.949219 C 77.769531 20.925781 78.445312 21.449219 78.53125 21.449219 C 78.582031 21.449219 78.605469 21.425781 78.605469 21.363281 Z M 78.605469 21.363281 "/>
<path style=" stroke:none;fill-rule:nonzero;fill:rgb(0%,0%,0%);fill-opacity:1;" d="M 81.730469 17.035156 C 81.78125 16.835938 81.96875 16.097656 82.519531 16.097656 C 82.554688 16.097656 82.753906 16.097656 82.917969 16.199219 C 82.691406 16.25 82.542969 16.4375 82.542969 16.636719 C 82.542969 16.761719 82.628906 16.910156 82.84375 16.910156 C 83.019531 16.910156 83.269531 16.773438 83.269531 16.449219 C 83.269531 16.035156 82.804688 15.925781 82.53125 15.925781 C 82.066406 15.925781 81.792969 16.347656 81.691406 16.523438 C 81.492188 16 81.066406 15.925781 80.832031 15.925781 C 80.003906 15.925781 79.542969 16.949219 79.542969 17.148438 C 79.542969 17.238281 79.628906 17.238281 79.644531 17.238281 C 79.707031 17.238281 79.730469 17.210938 79.742188 17.148438 C 80.019531 16.300781 80.542969 16.097656 80.816406 16.097656 C 80.96875 16.097656 81.242188 16.175781 81.242188 16.636719 C 81.242188 16.886719 81.105469 17.410156 80.816406 18.535156 C 80.691406 19.023438 80.40625 19.363281 80.054688 19.363281 C 80.003906 19.363281 79.832031 19.363281 79.65625 19.261719 C 79.855469 19.210938 80.03125 19.050781 80.03125 18.824219 C 80.03125 18.613281 79.855469 18.550781 79.742188 18.550781 C 79.492188 18.550781 79.304688 18.75 79.304688 19.011719 C 79.304688 19.375 79.691406 19.535156 80.042969 19.535156 C 80.582031 19.535156 80.867188 18.972656 80.878906 18.9375 C 80.980469 19.222656 81.269531 19.535156 81.742188 19.535156 C 82.566406 19.535156 83.019531 18.511719 83.019531 18.3125 C 83.019531 18.222656 82.957031 18.222656 82.929688 18.222656 C 82.855469 18.222656 82.84375 18.261719 82.816406 18.3125 C 82.554688 19.175781 82.019531 19.363281 81.769531 19.363281 C 81.457031 19.363281 81.332031 19.113281 81.332031 18.835938 C 81.332031 18.660156 81.367188 18.488281 81.457031 18.136719 Z M 81.730469 17.035156 "/>
<path style=" stroke:none;fill-rule:nonzero;fill:rgb(0%,0%,0%);fill-opacity:1;" d="M 85.921875 17.449219 C 85.921875 16.835938 85.835938 15.875 85.398438 14.960938 C 84.921875 13.988281 84.234375 13.460938 84.160156 13.460938 C 84.109375 13.460938 84.074219 13.5 84.074219 13.550781 C 84.074219 13.574219 84.074219 13.585938 84.222656 13.738281 C 85.011719 14.523438 85.460938 15.785156 85.460938 17.449219 C 85.460938 18.824219 85.171875 20.222656 84.1875 21.222656 C 84.074219 21.324219 84.074219 21.335938 84.074219 21.363281 C 84.074219 21.410156 84.109375 21.449219 84.160156 21.449219 C 84.234375 21.449219 84.960938 20.898438 85.421875 19.886719 C 85.835938 19.011719 85.921875 18.125 85.921875 17.449219 Z M 85.921875 17.449219 "/>
<path style=" stroke:none;fill-rule:nonzero;fill:rgb(0%,0%,0%);fill-opacity:1;" d="M 225.765625 13.671875 C 225.777344 13.632812 225.792969 13.585938 225.792969 13.535156 C 225.792969 13.398438 225.703125 13.320312 225.566406 13.320312 C 225.492188 13.320312 225.265625 13.371094 225.242188 13.660156 C 225.089844 13.371094 224.816406 13.160156 224.492188 13.160156 C 223.589844 13.160156 222.605469 14.273438 222.605469 15.421875 C 222.605469 16.210938 223.078125 16.683594 223.652344 16.683594 C 224.128906 16.683594 224.503906 16.308594 224.578125 16.222656 L 224.589844 16.234375 C 224.429688 16.933594 224.328125 17.273438 224.328125 17.285156 C 224.292969 17.359375 224.027344 18.148438 223.179688 18.148438 C 223.027344 18.148438 222.765625 18.132812 222.542969 18.058594 C 222.777344 17.996094 222.867188 17.785156 222.867188 17.648438 C 222.867188 17.523438 222.777344 17.371094 222.566406 17.371094 C 222.390625 17.371094 222.140625 17.507812 222.140625 17.835938 C 222.140625 18.160156 222.429688 18.320312 223.191406 18.320312 C 224.191406 18.320312 224.765625 17.695312 224.890625 17.222656 Z M 224.742188 15.660156 C 224.691406 15.871094 224.503906 16.070312 224.328125 16.222656 C 224.167969 16.359375 223.917969 16.507812 223.679688 16.507812 C 223.277344 16.507812 223.167969 16.097656 223.167969 15.773438 C 223.167969 15.398438 223.390625 14.445312 223.617188 14.046875 C 223.828125 13.660156 224.167969 13.335938 224.503906 13.335938 C 225.027344 13.335938 225.140625 13.984375 225.140625 14.023438 C 225.140625 14.058594 225.128906 14.109375 225.117188 14.132812 Z M 224.742188 15.660156 "/>
<path style=" stroke:none;fill-rule:nonzero;fill:rgb(0%,0%,0%);fill-opacity:1;" d="M 228.742188 18.597656 C 228.742188 18.570312 228.742188 18.558594 228.601562 18.421875 C 227.617188 17.421875 227.351562 15.910156 227.351562 14.683594 C 227.351562 13.296875 227.652344 11.910156 228.640625 10.921875 C 228.742188 10.820312 228.742188 10.808594 228.742188 10.785156 C 228.742188 10.722656 228.714844 10.695312 228.664062 10.695312 C 228.578125 10.695312 227.867188 11.246094 227.390625 12.257812 C 226.992188 13.132812 226.890625 14.023438 226.890625 14.683594 C 226.890625 15.308594 226.976562 16.273438 227.414062 17.183594 C 227.902344 18.160156 228.578125 18.683594 228.664062 18.683594 C 228.714844 18.683594 228.742188 18.660156 228.742188 18.597656 Z M 228.742188 18.597656 "/>
<path style=" stroke:none;fill-rule:nonzero;fill:rgb(0%,0%,0%);fill-opacity:1;" d="M 230.839844 13.496094 L 231.589844 13.496094 C 231.753906 13.496094 231.839844 13.496094 231.839844 13.335938 C 231.839844 13.246094 231.753906 13.246094 231.617188 13.246094 L 230.914062 13.246094 C 231.203125 12.109375 231.242188 11.960938 231.242188 11.910156 C 231.242188 11.773438 231.140625 11.695312 231.003906 11.695312 C 230.976562 11.695312 230.753906 11.695312 230.691406 11.984375 L 230.378906 13.246094 L 229.628906 13.246094 C 229.464844 13.246094 229.390625 13.246094 229.390625 13.398438 C 229.390625 13.496094 229.453125 13.496094 229.617188 13.496094 L 230.316406 13.496094 C 229.742188 15.757812 229.703125 15.898438 229.703125 16.035156 C 229.703125 16.472656 230.003906 16.773438 230.441406 16.773438 C 231.253906 16.773438 231.703125 15.609375 231.703125 15.546875 C 231.703125 15.460938 231.640625 15.460938 231.617188 15.460938 C 231.539062 15.460938 231.527344 15.484375 231.492188 15.570312 C 231.152344 16.410156 230.726562 16.597656 230.453125 16.597656 C 230.289062 16.597656 230.203125 16.496094 230.203125 16.234375 C 230.203125 16.035156 230.226562 15.984375 230.253906 15.847656 Z M 230.839844 13.496094 "/>
<path style=" stroke:none;fill-rule:nonzero;fill:rgb(0%,0%,0%);fill-opacity:1;" d="M 234.378906 14.683594 C 234.378906 14.070312 234.292969 13.109375 233.855469 12.195312 C 233.378906 11.222656 232.691406 10.695312 232.617188 10.695312 C 232.566406 10.695312 232.53125 10.734375 232.53125 10.785156 C 232.53125 10.808594 232.53125 10.820312 232.679688 10.972656 C 233.46875 11.757812 233.917969 13.023438 233.917969 14.683594 C 233.917969 16.058594 233.628906 17.460938 232.644531 18.460938 C 232.53125 18.558594 232.53125 18.570312 232.53125 18.597656 C 232.53125 18.648438 232.566406 18.683594 232.617188 18.683594 C 232.691406 18.683594 233.417969 18.132812 233.878906 17.121094 C 234.292969 16.246094 234.378906 15.359375 234.378906 14.683594 Z M 234.378906 14.683594 "/>
<path style=" stroke:none;fill-rule:nonzero;fill:rgb(0%,0%,0%);fill-opacity:1;" d="M 111.847656 46.328125 C 111.894531 46.128906 112.082031 45.390625 112.632812 45.390625 C 112.671875 45.390625 112.871094 45.390625 113.035156 45.492188 C 112.808594 45.542969 112.660156 45.730469 112.660156 45.929688 C 112.660156 46.054688 112.746094 46.203125 112.957031 46.203125 C 113.132812 46.203125 113.382812 46.066406 113.382812 45.742188 C 113.382812 45.328125 112.921875 45.21875 112.644531 45.21875 C 112.183594 45.21875 111.910156 45.640625 111.808594 45.816406 C 111.609375 45.292969 111.183594 45.21875 110.945312 45.21875 C 110.121094 45.21875 109.660156 46.242188 109.660156 46.441406 C 109.660156 46.53125 109.746094 46.53125 109.757812 46.53125 C 109.820312 46.53125 109.847656 46.503906 109.859375 46.441406 C 110.132812 45.59375 110.660156 45.390625 110.933594 45.390625 C 111.082031 45.390625 111.359375 45.46875 111.359375 45.929688 C 111.359375 46.179688 111.222656 46.703125 110.933594 47.828125 C 110.808594 48.316406 110.519531 48.65625 110.171875 48.65625 C 110.121094 48.65625 109.945312 48.65625 109.769531 48.554688 C 109.972656 48.503906 110.144531 48.34375 110.144531 48.117188 C 110.144531 47.90625 109.972656 47.84375 109.859375 47.84375 C 109.609375 47.84375 109.421875 48.042969 109.421875 48.304688 C 109.421875 48.667969 109.808594 48.828125 110.160156 48.828125 C 110.695312 48.828125 110.984375 48.265625 110.996094 48.230469 C 111.097656 48.515625 111.382812 48.828125 111.859375 48.828125 C 112.683594 48.828125 113.132812 47.804688 113.132812 47.605469 C 113.132812 47.515625 113.070312 47.515625 113.046875 47.515625 C 112.972656 47.515625 112.957031 47.554688 112.933594 47.605469 C 112.671875 48.46875 112.132812 48.65625 111.882812 48.65625 C 111.570312 48.65625 111.445312 48.40625 111.445312 48.128906 C 111.445312 47.953125 111.484375 47.78125 111.570312 47.429688 Z M 111.847656 46.328125 "/>
<path style=" stroke:none;fill-rule:nonzero;fill:rgb(0%,0%,0%);fill-opacity:1;" d="M 245.058594 46.511719 L 245.808594 46.511719 C 245.972656 46.511719 246.058594 46.511719 246.058594 46.351562 C 246.058594 46.261719 245.972656 46.261719 245.835938 46.261719 L 245.132812 46.261719 C 245.421875 45.125 245.460938 44.976562 245.460938 44.925781 C 245.460938 44.789062 245.359375 44.710938 245.222656 44.710938 C 245.195312 44.710938 244.972656 44.710938 244.910156 45 L 244.597656 46.261719 L 243.847656 46.261719 C 243.683594 46.261719 243.609375 46.261719 243.609375 46.414062 C 243.609375 46.511719 243.671875 46.511719 243.835938 46.511719 L 244.535156 46.511719 C 243.960938 48.773438 243.921875 48.914062 243.921875 49.050781 C 243.921875 49.488281 244.222656 49.789062 244.660156 49.789062 C 245.472656 49.789062 245.921875 48.625 245.921875 48.5625 C 245.921875 48.476562 245.859375 48.476562 245.835938 48.476562 C 245.757812 48.476562 245.746094 48.5 245.710938 48.585938 C 245.371094 49.425781 244.945312 49.613281 244.671875 49.613281 C 244.507812 49.613281 244.421875 49.511719 244.421875 49.25 C 244.421875 49.050781 244.445312 49 244.472656 48.863281 Z M 245.058594 46.511719 "/>
</g>
</svg>
