<?xml version="1.0" encoding="UTF-8"?>
<svg xmlns="http://www.w3.org/2000/svg" xmlns:xlink="http://www.w3.org/1999/xlink" width="361.029449pt" height="101.311134pt" viewBox="0 0 361.029449 101.311134" version="1.1">
<defs>
<clipPath id="clip1">
  <path d="M 46 8 L 48 8 L 48 101.3125 L 46 101.3125 Z M 46 8 "/>
</clipPath>
<clipPath id="clip2">
  <path d="M 106 9 L 108 9 L 108 101.3125 L 106 101.3125 Z M 106 9 "/>
</clipPath>
<clipPath id="clip3">
  <path d="M 102 45 L 140 45 L 140 101.3125 L 102 101.3125 Z M 102 45 "/>
</clipPath>
<clipPath id="clip4">
  <path d="M 137 8 L 139 8 L 139 101.3125 L 137 101.3125 Z M 137 8 "/>
</clipPath>
<clipPath id="clip5">
  <path d="M 137 45 L 174 45 L 174 101.3125 L 137 101.3125 Z M 137 45 "/>
</clipPath>
<clipPath id="clip6">
  <path d="M 233 8 L 235 8 L 235 101.3125 L 233 101.3125 Z M 233 8 "/>
</clipPath>
<clipPath id="clip7">
  <path d="M 292 9 L 294 9 L 294 101.3125 L 292 101.3125 Z M 292 9 "/>
</clipPath>
<clipPath id="clip8">
  <path d="M 276 47 L 361.03125 47 L 361.03125 49 L 276 49 Z M 276 47 "/>
</clipPath>
<clipPath id="clip9">
  <path d="M 323 45 L 361 45 L 361 101.3125 L 323 101.3125 Z M 323 45 "/>
</clipPath>
<clipPath id="clip10">
  <path d="M 323 8 L 325 8 L 325 101.3125 L 323 101.3125 Z M 323 8 "/>
</clipPath>
</defs>
<g id="surface1">
<path style="fill:none;stroke-width:0.8;stroke-linecap:butt;stroke-linejoin:miter;stroke:rgb(100%,0%,0%);stroke-opacity:1;stroke-miterlimit:4;" d="M 15.949219 7.21875 L 15.949219 98.71875 "/>
<path style="fill:none;stroke-width:0.8;stroke-linecap:butt;stroke-linejoin:miter;stroke:rgb(100%,0%,0%);stroke-opacity:1;stroke-miterlimit:4;" d="M 83.851562 60.316406 L 0 60.316406 "/>
<path style="fill:none;stroke-width:0.8;stroke-linecap:butt;stroke-linejoin:miter;stroke:rgb(0%,0%,0%);stroke-opacity:1;stroke-miterlimit:4;" d="M 16.046875 58.375 C 22.277344 58.515625 28.960938 56.21875 32.429688 50.746094 C 39.824219 41.625 42.089844 29.597656 42.941406 18.1875 C 43.148438 15.28125 43.265625 12.371094 43.371094 9.460938 "/>
<g clip-path="url(#clip1)" clip-rule="nonzero">
<path style="fill:none;stroke-width:0.8;stroke-linecap:butt;stroke-linejoin:miter;stroke:rgb(100%,0%,0%);stroke-opacity:1;stroke-dasharray:0.8,1.6;stroke-miterlimit:4;" d="M 46.875 8.863281 L 46.875 100.671875 "/>
</g>
<path style="fill:none;stroke-width:0.8;stroke-linecap:butt;stroke-linejoin:miter;stroke:rgb(0%,0%,0%);stroke-opacity:1;stroke-miterlimit:4;" d="M 77.765625 57.808594 C 71.535156 57.949219 64.851562 55.652344 61.382812 50.179688 C 53.988281 41.058594 51.722656 29.03125 50.871094 17.621094 C 50.664062 14.714844 50.546875 11.804688 50.441406 8.894531 "/>
<g clip-path="url(#clip2)" clip-rule="nonzero">
<path style="fill:none;stroke-width:0.8;stroke-linecap:butt;stroke-linejoin:miter;stroke:rgb(100%,0%,0%);stroke-opacity:1;stroke-miterlimit:4;" d="M 107.292969 101.066406 L 107.292969 9.5625 "/>
</g>
<path style="fill:none;stroke-width:0.8;stroke-linecap:butt;stroke-linejoin:miter;stroke:rgb(100%,0%,0%);stroke-opacity:1;stroke-miterlimit:4;" d="M 175.195312 47.96875 L 91.34375 47.96875 "/>
<g clip-path="url(#clip3)" clip-rule="nonzero">
<path style="fill:none;stroke-width:0.8;stroke-linecap:butt;stroke-linejoin:miter;stroke:rgb(0%,0%,0%);stroke-opacity:1;stroke-miterlimit:4;" d="M 107.390625 49.90625 C 113.621094 49.765625 120.304688 52.0625 123.773438 57.535156 C 131.167969 66.65625 133.433594 78.683594 134.285156 90.097656 C 134.492188 93 134.609375 95.910156 134.714844 98.820312 "/>
</g>
<g clip-path="url(#clip4)" clip-rule="nonzero">
<path style="fill:none;stroke-width:0.8;stroke-linecap:butt;stroke-linejoin:miter;stroke:rgb(100%,0%,0%);stroke-opacity:1;stroke-dasharray:0.8,1.6;stroke-miterlimit:4;" d="M 138.21875 100.671875 L 138.21875 8.863281 "/>
</g>
<g clip-path="url(#clip5)" clip-rule="nonzero">
<path style="fill:none;stroke-width:0.8;stroke-linecap:butt;stroke-linejoin:miter;stroke:rgb(0%,0%,0%);stroke-opacity:1;stroke-miterlimit:4;" d="M 169.109375 50.472656 C 162.878906 50.332031 156.195312 52.628906 152.726562 58.101562 C 145.332031 67.222656 143.066406 79.25 142.214844 90.664062 C 142.007812 93.566406 141.890625 96.480469 141.785156 99.390625 "/>
</g>
<path style="fill:none;stroke-width:0.8;stroke-linecap:butt;stroke-linejoin:miter;stroke:rgb(100%,0%,0%);stroke-opacity:1;stroke-miterlimit:4;" d="M 202.792969 8.472656 L 202.792969 99.972656 "/>
<path style="fill:none;stroke-width:0.8;stroke-linecap:butt;stroke-linejoin:miter;stroke:rgb(100%,0%,0%);stroke-opacity:1;stroke-miterlimit:4;" d="M 270.695312 61.570312 L 186.84375 61.570312 "/>
<path style="fill:none;stroke-width:0.8;stroke-linecap:butt;stroke-linejoin:miter;stroke:rgb(0%,0%,0%);stroke-opacity:1;stroke-miterlimit:4;" d="M 202.890625 59.628906 C 209.121094 59.769531 215.804688 57.472656 219.273438 52 C 226.671875 42.878906 228.933594 30.851562 229.785156 19.441406 C 229.992188 16.535156 230.109375 13.625 230.214844 10.714844 "/>
<g clip-path="url(#clip6)" clip-rule="nonzero">
<path style="fill:none;stroke-width:0.8;stroke-linecap:butt;stroke-linejoin:miter;stroke:rgb(100%,0%,0%);stroke-opacity:1;stroke-dasharray:0.8,1.6;stroke-miterlimit:4;" d="M 233.71875 8.863281 L 233.71875 100.671875 "/>
</g>
<g clip-path="url(#clip7)" clip-rule="nonzero">
<path style="fill:none;stroke-width:0.8;stroke-linecap:butt;stroke-linejoin:miter;stroke:rgb(100%,0%,0%);stroke-opacity:1;stroke-miterlimit:4;" d="M 293.125 101.3125 L 293.125 9.808594 "/>
</g>
<g clip-path="url(#clip8)" clip-rule="nonzero">
<path style="fill:none;stroke-width:0.8;stroke-linecap:butt;stroke-linejoin:miter;stroke:rgb(100%,0%,0%);stroke-opacity:1;stroke-miterlimit:4;" d="M 361.03125 48.214844 L 277.175781 48.214844 "/>
</g>
<g clip-path="url(#clip9)" clip-rule="nonzero">
<path style="fill:none;stroke-width:0.8;stroke-linecap:butt;stroke-linejoin:miter;stroke:rgb(0%,0%,0%);stroke-opacity:1;stroke-miterlimit:4;" d="M 355.5 50.398438 C 349.269531 50.257812 342.585938 52.554688 339.117188 58.027344 C 331.71875 67.148438 329.457031 79.175781 328.605469 90.589844 C 328.398438 93.492188 328.28125 96.40625 328.175781 99.316406 "/>
</g>
<g clip-path="url(#clip10)" clip-rule="nonzero">
<path style="fill:none;stroke-width:0.8;stroke-linecap:butt;stroke-linejoin:miter;stroke:rgb(100%,0%,0%);stroke-opacity:1;stroke-dasharray:0.8,1.6;stroke-miterlimit:4;" d="M 324.050781 100.671875 L 324.050781 8.863281 "/>
</g>
<path style=" stroke:none;fill-rule:nonzero;fill:rgb(0%,0%,0%);fill-opacity:1;" d="M 53.097656 64.214844 C 52.949219 63.914062 52.722656 63.699219 52.363281 63.699219 C 51.4375 63.699219 50.449219 64.875 50.449219 66.039062 C 50.449219 66.789062 50.886719 67.3125 51.5 67.3125 C 51.660156 67.3125 52.0625 67.277344 52.535156 66.714844 C 52.597656 67.050781 52.886719 67.3125 53.261719 67.3125 C 53.550781 67.3125 53.722656 67.125 53.863281 66.875 C 53.988281 66.589844 54.097656 66.101562 54.097656 66.089844 C 54.097656 66 54.023438 66 54 66 C 53.925781 66 53.910156 66.039062 53.886719 66.152344 C 53.75 66.664062 53.613281 67.136719 53.285156 67.136719 C 53.0625 67.136719 53.050781 66.925781 53.050781 66.777344 C 53.050781 66.601562 53.0625 66.527344 53.148438 66.175781 C 53.238281 65.851562 53.25 65.761719 53.324219 65.464844 L 53.613281 64.351562 C 53.660156 64.125 53.660156 64.113281 53.660156 64.074219 C 53.660156 63.9375 53.574219 63.863281 53.4375 63.863281 C 53.238281 63.863281 53.125 64.039062 53.097656 64.214844 Z M 52.585938 66.277344 C 52.535156 66.425781 52.535156 66.4375 52.425781 66.574219 C 52.074219 67.011719 51.75 67.136719 51.523438 67.136719 C 51.125 67.136719 51.011719 66.699219 51.011719 66.386719 C 51.011719 65.988281 51.261719 65.011719 51.449219 64.636719 C 51.699219 64.175781 52.050781 63.875 52.375 63.875 C 52.886719 63.875 53 64.527344 53 64.574219 C 53 64.625 52.988281 64.675781 52.972656 64.714844 Z M 52.585938 66.277344 "/>
<path style=" stroke:none;fill-rule:nonzero;fill:rgb(0%,0%,0%);fill-opacity:1;" d="M 144.1875 51.75 C 144.035156 51.453125 143.8125 51.238281 143.449219 51.238281 C 142.523438 51.238281 141.535156 52.414062 141.535156 53.578125 C 141.535156 54.328125 141.972656 54.851562 142.585938 54.851562 C 142.75 54.851562 143.148438 54.8125 143.625 54.25 C 143.6875 54.589844 143.972656 54.851562 144.347656 54.851562 C 144.636719 54.851562 144.8125 54.664062 144.949219 54.414062 C 145.074219 54.125 145.1875 53.640625 145.1875 53.625 C 145.1875 53.539062 145.109375 53.539062 145.085938 53.539062 C 145.011719 53.539062 145 53.578125 144.972656 53.6875 C 144.835938 54.203125 144.699219 54.675781 144.375 54.675781 C 144.148438 54.675781 144.136719 54.464844 144.136719 54.3125 C 144.136719 54.140625 144.148438 54.0625 144.234375 53.714844 C 144.324219 53.390625 144.335938 53.300781 144.410156 53 L 144.699219 51.890625 C 144.75 51.664062 144.75 51.652344 144.75 51.613281 C 144.75 51.476562 144.660156 51.402344 144.523438 51.402344 C 144.324219 51.402344 144.210938 51.578125 144.1875 51.75 Z M 143.671875 53.8125 C 143.625 53.964844 143.625 53.976562 143.511719 54.113281 C 143.160156 54.550781 142.835938 54.675781 142.609375 54.675781 C 142.210938 54.675781 142.097656 54.238281 142.097656 53.925781 C 142.097656 53.527344 142.347656 52.550781 142.535156 52.175781 C 142.785156 51.714844 143.136719 51.414062 143.460938 51.414062 C 143.972656 51.414062 144.085938 52.0625 144.085938 52.113281 C 144.085938 52.164062 144.074219 52.214844 144.0625 52.25 Z M 143.671875 53.8125 "/>
<path style=" stroke:none;fill-rule:nonzero;fill:rgb(0%,0%,0%);fill-opacity:1;" d="M 239.6875 65.289062 C 239.539062 64.988281 239.3125 64.777344 238.949219 64.777344 C 238.023438 64.777344 237.039062 65.953125 237.039062 67.113281 C 237.039062 67.863281 237.476562 68.390625 238.085938 68.390625 C 238.25 68.390625 238.648438 68.351562 239.125 67.789062 C 239.1875 68.125 239.476562 68.390625 239.851562 68.390625 C 240.136719 68.390625 240.3125 68.203125 240.449219 67.953125 C 240.574219 67.664062 240.6875 67.175781 240.6875 67.164062 C 240.6875 67.078125 240.613281 67.078125 240.585938 67.078125 C 240.511719 67.078125 240.5 67.113281 240.476562 67.226562 C 240.335938 67.738281 240.199219 68.214844 239.875 68.214844 C 239.648438 68.214844 239.636719 68 239.636719 67.851562 C 239.636719 67.675781 239.648438 67.601562 239.738281 67.25 C 239.824219 66.925781 239.835938 66.839844 239.914062 66.539062 L 240.199219 65.425781 C 240.25 65.203125 240.25 65.1875 240.25 65.152344 C 240.25 65.015625 240.164062 64.9375 240.023438 64.9375 C 239.824219 64.9375 239.710938 65.113281 239.6875 65.289062 Z M 239.175781 67.351562 C 239.125 67.5 239.125 67.515625 239.011719 67.652344 C 238.664062 68.089844 238.335938 68.214844 238.113281 68.214844 C 237.710938 68.214844 237.601562 67.777344 237.601562 67.464844 C 237.601562 67.0625 237.851562 66.089844 238.039062 65.714844 C 238.289062 65.25 238.636719 64.953125 238.960938 64.953125 C 239.476562 64.953125 239.585938 65.601562 239.585938 65.652344 C 239.585938 65.703125 239.574219 65.75 239.5625 65.789062 Z M 239.175781 67.351562 "/>
<path style=" stroke:none;fill-rule:nonzero;fill:rgb(0%,0%,0%);fill-opacity:1;" d="M 330.019531 52.121094 C 329.871094 51.820312 329.644531 51.609375 329.28125 51.609375 C 328.355469 51.609375 327.371094 52.785156 327.371094 53.945312 C 327.371094 54.695312 327.808594 55.222656 328.417969 55.222656 C 328.582031 55.222656 328.980469 55.183594 329.457031 54.621094 C 329.519531 54.957031 329.808594 55.222656 330.183594 55.222656 C 330.46875 55.222656 330.644531 55.035156 330.78125 54.785156 C 330.90625 54.496094 331.019531 54.007812 331.019531 53.996094 C 331.019531 53.910156 330.945312 53.910156 330.917969 53.910156 C 330.84375 53.910156 330.832031 53.945312 330.808594 54.058594 C 330.667969 54.570312 330.53125 55.046875 330.207031 55.046875 C 329.980469 55.046875 329.96875 54.832031 329.96875 54.683594 C 329.96875 54.507812 329.980469 54.433594 330.070312 54.082031 C 330.15625 53.757812 330.167969 53.671875 330.246094 53.371094 L 330.53125 52.257812 C 330.582031 52.035156 330.582031 52.019531 330.582031 51.984375 C 330.582031 51.847656 330.496094 51.769531 330.355469 51.769531 C 330.15625 51.769531 330.042969 51.945312 330.019531 52.121094 Z M 329.507812 54.183594 C 329.457031 54.332031 329.457031 54.347656 329.34375 54.484375 C 328.996094 54.921875 328.667969 55.046875 328.445312 55.046875 C 328.042969 55.046875 327.933594 54.609375 327.933594 54.296875 C 327.933594 53.894531 328.183594 52.921875 328.371094 52.546875 C 328.621094 52.082031 328.96875 51.785156 329.292969 51.785156 C 329.808594 51.785156 329.917969 52.433594 329.917969 52.484375 C 329.917969 52.535156 329.90625 52.582031 329.894531 52.621094 Z M 329.507812 54.183594 "/>
<path style=" stroke:none;fill-rule:nonzero;fill:rgb(0%,0%,0%);fill-opacity:1;" d="M 30.972656 2.230469 L 30.972656 1.304688 C 30.972656 0.605469 31.347656 0.21875 31.699219 0.21875 C 31.722656 0.21875 31.847656 0.21875 31.960938 0.28125 C 31.875 0.304688 31.722656 0.417969 31.722656 0.617188 C 31.722656 0.792969 31.847656 0.957031 32.074219 0.957031 C 32.296875 0.957031 32.421875 0.792969 32.421875 0.605469 C 32.421875 0.304688 32.125 0.0429688 31.699219 0.0429688 C 31.148438 0.0429688 30.460938 0.46875 30.460938 1.320312 L 30.460938 2.230469 L 29.835938 2.230469 L 29.835938 2.480469 L 30.460938 2.480469 L 30.460938 5.070312 C 30.460938 5.417969 30.375 5.417969 29.847656 5.417969 L 29.847656 5.667969 C 30.160156 5.65625 30.535156 5.644531 30.75 5.644531 C 31.074219 5.644531 31.449219 5.644531 31.761719 5.667969 L 31.761719 5.417969 L 31.597656 5.417969 C 31.011719 5.417969 31 5.332031 31 5.042969 L 31 2.480469 L 31.898438 2.480469 L 31.898438 2.230469 Z M 30.972656 2.230469 "/>
<path style=" stroke:none;fill-rule:nonzero;fill:rgb(0%,0%,0%);fill-opacity:1;" d="M 35.121094 5.042969 L 35.121094 5.757812 L 36.269531 5.667969 L 36.269531 5.417969 C 35.722656 5.417969 35.660156 5.367188 35.660156 4.96875 L 35.660156 2.144531 L 34.484375 2.230469 L 34.484375 2.480469 C 35.035156 2.480469 35.109375 2.53125 35.109375 2.929688 L 35.109375 4.34375 C 35.109375 5.042969 34.722656 5.582031 34.132812 5.582031 C 33.472656 5.582031 33.433594 5.207031 33.433594 4.792969 L 33.433594 2.144531 L 32.257812 2.230469 L 32.257812 2.480469 C 32.882812 2.480469 32.882812 2.507812 32.882812 3.207031 L 32.882812 4.40625 C 32.882812 5.03125 32.882812 5.757812 34.097656 5.757812 C 34.546875 5.757812 34.894531 5.53125 35.121094 5.042969 Z M 35.121094 5.042969 "/>
<path style=" stroke:none;fill-rule:nonzero;fill:rgb(0%,0%,0%);fill-opacity:1;" d="M 37.3125 2.929688 L 37.3125 5.070312 C 37.3125 5.417969 37.222656 5.417969 36.6875 5.417969 L 36.6875 5.667969 C 36.972656 5.65625 37.375 5.644531 37.597656 5.644531 C 37.800781 5.644531 38.210938 5.65625 38.488281 5.667969 L 38.488281 5.417969 C 37.949219 5.417969 37.863281 5.417969 37.863281 5.070312 L 37.863281 3.59375 C 37.863281 2.769531 38.4375 2.320312 38.9375 2.320312 C 39.449219 2.320312 39.535156 2.742188 39.535156 3.207031 L 39.535156 5.070312 C 39.535156 5.417969 39.449219 5.417969 38.910156 5.417969 L 38.910156 5.667969 C 39.1875 5.65625 39.597656 5.644531 39.8125 5.644531 C 40.011719 5.644531 40.4375 5.65625 40.699219 5.667969 L 40.699219 5.417969 C 40.285156 5.417969 40.085938 5.417969 40.085938 5.179688 L 40.085938 3.65625 C 40.085938 2.96875 40.085938 2.730469 39.835938 2.445312 C 39.722656 2.304688 39.460938 2.144531 39 2.144531 C 38.410156 2.144531 38.035156 2.480469 37.8125 2.980469 L 37.8125 2.144531 L 36.6875 2.230469 L 36.6875 2.480469 C 37.25 2.480469 37.3125 2.53125 37.3125 2.929688 Z M 37.3125 2.929688 "/>
<path style=" stroke:none;fill-rule:nonzero;fill:rgb(0%,0%,0%);fill-opacity:1;" d="M 41.800781 3.929688 C 41.800781 2.632812 42.453125 2.292969 42.878906 2.292969 C 42.953125 2.292969 43.453125 2.304688 43.726562 2.59375 C 43.402344 2.617188 43.351562 2.855469 43.351562 2.957031 C 43.351562 3.167969 43.503906 3.320312 43.714844 3.320312 C 43.925781 3.320312 44.089844 3.195312 44.089844 2.945312 C 44.089844 2.40625 43.476562 2.09375 42.863281 2.09375 C 41.863281 2.09375 41.140625 2.957031 41.140625 3.945312 C 41.140625 4.96875 41.925781 5.757812 42.851562 5.757812 C 43.914062 5.757812 44.175781 4.792969 44.175781 4.71875 C 44.175781 4.644531 44.089844 4.644531 44.066406 4.644531 C 44.003906 4.644531 43.976562 4.667969 43.964844 4.71875 C 43.738281 5.457031 43.214844 5.554688 42.925781 5.554688 C 42.503906 5.554688 41.800781 5.21875 41.800781 3.929688 Z M 41.800781 3.929688 "/>
<path style=" stroke:none;fill-rule:nonzero;fill:rgb(0%,0%,0%);fill-opacity:1;" d="M 45.78125 2.480469 L 46.933594 2.480469 L 46.933594 2.230469 L 45.78125 2.230469 L 45.78125 0.769531 L 45.582031 0.769531 C 45.582031 1.417969 45.34375 2.269531 44.558594 2.304688 L 44.558594 2.480469 L 45.230469 2.480469 L 45.230469 4.679688 C 45.230469 5.65625 45.980469 5.757812 46.269531 5.757812 C 46.832031 5.757812 47.058594 5.195312 47.058594 4.679688 L 47.058594 4.230469 L 46.855469 4.230469 L 46.855469 4.667969 C 46.855469 5.257812 46.621094 5.554688 46.320312 5.554688 C 45.78125 5.554688 45.78125 4.832031 45.78125 4.695312 Z M 45.78125 2.480469 "/>
<path style=" stroke:none;fill-rule:nonzero;fill:rgb(0%,0%,0%);fill-opacity:1;" d="M 48.917969 2.144531 L 47.804688 2.230469 L 47.804688 2.480469 C 48.320312 2.480469 48.394531 2.53125 48.394531 2.917969 L 48.394531 5.070312 C 48.394531 5.417969 48.304688 5.417969 47.769531 5.417969 L 47.769531 5.667969 C 48.019531 5.65625 48.457031 5.644531 48.644531 5.644531 C 48.929688 5.644531 49.207031 5.65625 49.480469 5.667969 L 49.480469 5.417969 C 48.945312 5.417969 48.917969 5.382812 48.917969 5.070312 Z M 48.945312 0.757812 C 48.945312 0.507812 48.757812 0.332031 48.53125 0.332031 C 48.28125 0.332031 48.105469 0.542969 48.105469 0.757812 C 48.105469 0.96875 48.28125 1.179688 48.53125 1.179688 C 48.757812 1.179688 48.945312 1.007812 48.945312 0.757812 Z M 48.945312 0.757812 "/>
<path style=" stroke:none;fill-rule:nonzero;fill:rgb(0%,0%,0%);fill-opacity:1;" d="M 53.46875 3.957031 C 53.46875 2.945312 52.683594 2.09375 51.71875 2.09375 C 50.71875 2.09375 49.945312 2.96875 49.945312 3.957031 C 49.945312 4.992188 50.769531 5.757812 51.707031 5.757812 C 52.671875 5.757812 53.46875 4.96875 53.46875 3.957031 Z M 51.71875 5.554688 C 51.371094 5.554688 51.019531 5.394531 50.808594 5.019531 C 50.609375 4.667969 50.609375 4.179688 50.609375 3.894531 C 50.609375 3.582031 50.609375 3.15625 50.796875 2.804688 C 51.007812 2.445312 51.382812 2.269531 51.707031 2.269531 C 52.058594 2.269531 52.394531 2.445312 52.609375 2.792969 C 52.820312 3.132812 52.820312 3.59375 52.820312 3.894531 C 52.820312 4.179688 52.820312 4.617188 52.644531 4.96875 C 52.457031 5.332031 52.109375 5.554688 51.71875 5.554688 Z M 51.71875 5.554688 "/>
<path style=" stroke:none;fill-rule:nonzero;fill:rgb(0%,0%,0%);fill-opacity:1;" d="M 54.582031 2.929688 L 54.582031 5.070312 C 54.582031 5.417969 54.492188 5.417969 53.957031 5.417969 L 53.957031 5.667969 C 54.242188 5.65625 54.644531 5.644531 54.867188 5.644531 C 55.066406 5.644531 55.480469 5.65625 55.753906 5.667969 L 55.753906 5.417969 C 55.21875 5.417969 55.128906 5.417969 55.128906 5.070312 L 55.128906 3.59375 C 55.128906 2.769531 55.707031 2.320312 56.207031 2.320312 C 56.71875 2.320312 56.804688 2.742188 56.804688 3.207031 L 56.804688 5.070312 C 56.804688 5.417969 56.71875 5.417969 56.179688 5.417969 L 56.179688 5.667969 C 56.457031 5.65625 56.867188 5.644531 57.082031 5.644531 C 57.28125 5.644531 57.707031 5.65625 57.96875 5.667969 L 57.96875 5.417969 C 57.554688 5.417969 57.355469 5.417969 57.355469 5.179688 L 57.355469 3.65625 C 57.355469 2.96875 57.355469 2.730469 57.105469 2.445312 C 56.992188 2.304688 56.730469 2.144531 56.269531 2.144531 C 55.679688 2.144531 55.304688 2.480469 55.082031 2.980469 L 55.082031 2.144531 L 53.957031 2.230469 L 53.957031 2.480469 C 54.519531 2.480469 54.582031 2.53125 54.582031 2.929688 Z M 54.582031 2.929688 "/>
<path style=" stroke:none;fill-rule:nonzero;fill:rgb(0%,0%,0%);fill-opacity:1;" d="M 63.136719 0.570312 C 63.136719 0.367188 63.136719 0.355469 62.949219 0.355469 C 62.449219 0.867188 61.75 0.867188 61.5 0.867188 L 61.5 1.117188 C 61.664062 1.117188 62.125 1.117188 62.539062 0.90625 L 62.539062 5.042969 C 62.539062 5.332031 62.511719 5.417969 61.800781 5.417969 L 61.550781 5.417969 L 61.550781 5.667969 C 61.824219 5.644531 62.511719 5.644531 62.835938 5.644531 C 63.148438 5.644531 63.851562 5.644531 64.125 5.667969 L 64.125 5.417969 L 63.875 5.417969 C 63.148438 5.417969 63.136719 5.332031 63.136719 5.042969 Z M 63.136719 0.570312 "/>
<path style=" stroke:none;fill-rule:nonzero;fill:rgb(0%,0%,0%);fill-opacity:1;" d="M 121.996094 2.230469 L 121.996094 1.304688 C 121.996094 0.605469 122.371094 0.21875 122.71875 0.21875 C 122.746094 0.21875 122.871094 0.21875 122.984375 0.28125 C 122.894531 0.304688 122.746094 0.417969 122.746094 0.617188 C 122.746094 0.792969 122.871094 0.957031 123.09375 0.957031 C 123.320312 0.957031 123.445312 0.792969 123.445312 0.605469 C 123.445312 0.304688 123.144531 0.0429688 122.71875 0.0429688 C 122.171875 0.0429688 121.484375 0.46875 121.484375 1.320312 L 121.484375 2.230469 L 120.859375 2.230469 L 120.859375 2.480469 L 121.484375 2.480469 L 121.484375 5.070312 C 121.484375 5.417969 121.394531 5.417969 120.871094 5.417969 L 120.871094 5.667969 C 121.183594 5.65625 121.558594 5.644531 121.769531 5.644531 C 122.09375 5.644531 122.46875 5.644531 122.78125 5.667969 L 122.78125 5.417969 L 122.621094 5.417969 C 122.03125 5.417969 122.019531 5.332031 122.019531 5.042969 L 122.019531 2.480469 L 122.921875 2.480469 L 122.921875 2.230469 Z M 121.996094 2.230469 "/>
<path style=" stroke:none;fill-rule:nonzero;fill:rgb(0%,0%,0%);fill-opacity:1;" d="M 126.144531 5.042969 L 126.144531 5.757812 L 127.292969 5.667969 L 127.292969 5.417969 C 126.742188 5.417969 126.679688 5.367188 126.679688 4.96875 L 126.679688 2.144531 L 125.503906 2.230469 L 125.503906 2.480469 C 126.054688 2.480469 126.128906 2.53125 126.128906 2.929688 L 126.128906 4.34375 C 126.128906 5.042969 125.742188 5.582031 125.15625 5.582031 C 124.492188 5.582031 124.457031 5.207031 124.457031 4.792969 L 124.457031 2.144531 L 123.28125 2.230469 L 123.28125 2.480469 C 123.90625 2.480469 123.90625 2.507812 123.90625 3.207031 L 123.90625 4.40625 C 123.90625 5.03125 123.90625 5.757812 125.117188 5.757812 C 125.566406 5.757812 125.917969 5.53125 126.144531 5.042969 Z M 126.144531 5.042969 "/>
<path style=" stroke:none;fill-rule:nonzero;fill:rgb(0%,0%,0%);fill-opacity:1;" d="M 128.332031 2.929688 L 128.332031 5.070312 C 128.332031 5.417969 128.246094 5.417969 127.707031 5.417969 L 127.707031 5.667969 C 127.996094 5.65625 128.394531 5.644531 128.621094 5.644531 C 128.820312 5.644531 129.234375 5.65625 129.507812 5.667969 L 129.507812 5.417969 C 128.972656 5.417969 128.882812 5.417969 128.882812 5.070312 L 128.882812 3.59375 C 128.882812 2.769531 129.457031 2.320312 129.957031 2.320312 C 130.472656 2.320312 130.558594 2.742188 130.558594 3.207031 L 130.558594 5.070312 C 130.558594 5.417969 130.472656 5.417969 129.933594 5.417969 L 129.933594 5.667969 C 130.207031 5.65625 130.621094 5.644531 130.832031 5.644531 C 131.035156 5.644531 131.457031 5.65625 131.722656 5.667969 L 131.722656 5.417969 C 131.308594 5.417969 131.109375 5.417969 131.109375 5.179688 L 131.109375 3.65625 C 131.109375 2.96875 131.109375 2.730469 130.859375 2.445312 C 130.746094 2.304688 130.484375 2.144531 130.019531 2.144531 C 129.433594 2.144531 129.058594 2.480469 128.832031 2.980469 L 128.832031 2.144531 L 127.707031 2.230469 L 127.707031 2.480469 C 128.269531 2.480469 128.332031 2.53125 128.332031 2.929688 Z M 128.332031 2.929688 "/>
<path style=" stroke:none;fill-rule:nonzero;fill:rgb(0%,0%,0%);fill-opacity:1;" d="M 132.824219 3.929688 C 132.824219 2.632812 133.476562 2.292969 133.898438 2.292969 C 133.976562 2.292969 134.476562 2.304688 134.75 2.59375 C 134.425781 2.617188 134.375 2.855469 134.375 2.957031 C 134.375 3.167969 134.523438 3.320312 134.738281 3.320312 C 134.949219 3.320312 135.113281 3.195312 135.113281 2.945312 C 135.113281 2.40625 134.5 2.09375 133.886719 2.09375 C 132.886719 2.09375 132.164062 2.957031 132.164062 3.945312 C 132.164062 4.96875 132.949219 5.757812 133.875 5.757812 C 134.9375 5.757812 135.199219 4.792969 135.199219 4.71875 C 135.199219 4.644531 135.113281 4.644531 135.085938 4.644531 C 135.023438 4.644531 135 4.667969 134.988281 4.71875 C 134.761719 5.457031 134.238281 5.554688 133.949219 5.554688 C 133.523438 5.554688 132.824219 5.21875 132.824219 3.929688 Z M 132.824219 3.929688 "/>
<path style=" stroke:none;fill-rule:nonzero;fill:rgb(0%,0%,0%);fill-opacity:1;" d="M 136.804688 2.480469 L 137.953125 2.480469 L 137.953125 2.230469 L 136.804688 2.230469 L 136.804688 0.769531 L 136.605469 0.769531 C 136.605469 1.417969 136.367188 2.269531 135.578125 2.304688 L 135.578125 2.480469 L 136.253906 2.480469 L 136.253906 4.679688 C 136.253906 5.65625 137.003906 5.757812 137.292969 5.757812 C 137.855469 5.757812 138.078125 5.195312 138.078125 4.679688 L 138.078125 4.230469 L 137.878906 4.230469 L 137.878906 4.667969 C 137.878906 5.257812 137.640625 5.554688 137.339844 5.554688 C 136.804688 5.554688 136.804688 4.832031 136.804688 4.695312 Z M 136.804688 2.480469 "/>
<path style=" stroke:none;fill-rule:nonzero;fill:rgb(0%,0%,0%);fill-opacity:1;" d="M 139.941406 2.144531 L 138.828125 2.230469 L 138.828125 2.480469 C 139.339844 2.480469 139.417969 2.53125 139.417969 2.917969 L 139.417969 5.070312 C 139.417969 5.417969 139.328125 5.417969 138.792969 5.417969 L 138.792969 5.667969 C 139.042969 5.65625 139.480469 5.644531 139.667969 5.644531 C 139.953125 5.644531 140.230469 5.65625 140.503906 5.667969 L 140.503906 5.417969 C 139.964844 5.417969 139.941406 5.382812 139.941406 5.070312 Z M 139.964844 0.757812 C 139.964844 0.507812 139.777344 0.332031 139.554688 0.332031 C 139.304688 0.332031 139.128906 0.542969 139.128906 0.757812 C 139.128906 0.96875 139.304688 1.179688 139.554688 1.179688 C 139.777344 1.179688 139.964844 1.007812 139.964844 0.757812 Z M 139.964844 0.757812 "/>
<path style=" stroke:none;fill-rule:nonzero;fill:rgb(0%,0%,0%);fill-opacity:1;" d="M 144.492188 3.957031 C 144.492188 2.945312 143.707031 2.09375 142.742188 2.09375 C 141.742188 2.09375 140.96875 2.96875 140.96875 3.957031 C 140.96875 4.992188 141.792969 5.757812 142.730469 5.757812 C 143.691406 5.757812 144.492188 4.96875 144.492188 3.957031 Z M 142.742188 5.554688 C 142.394531 5.554688 142.042969 5.394531 141.832031 5.019531 C 141.628906 4.667969 141.628906 4.179688 141.628906 3.894531 C 141.628906 3.582031 141.628906 3.15625 141.816406 2.804688 C 142.03125 2.445312 142.40625 2.269531 142.730469 2.269531 C 143.082031 2.269531 143.417969 2.445312 143.628906 2.792969 C 143.84375 3.132812 143.84375 3.59375 143.84375 3.894531 C 143.84375 4.179688 143.84375 4.617188 143.667969 4.96875 C 143.480469 5.332031 143.128906 5.554688 142.742188 5.554688 Z M 142.742188 5.554688 "/>
<path style=" stroke:none;fill-rule:nonzero;fill:rgb(0%,0%,0%);fill-opacity:1;" d="M 145.601562 2.929688 L 145.601562 5.070312 C 145.601562 5.417969 145.515625 5.417969 144.976562 5.417969 L 144.976562 5.667969 C 145.265625 5.65625 145.664062 5.644531 145.890625 5.644531 C 146.089844 5.644531 146.503906 5.65625 146.777344 5.667969 L 146.777344 5.417969 C 146.242188 5.417969 146.152344 5.417969 146.152344 5.070312 L 146.152344 3.59375 C 146.152344 2.769531 146.726562 2.320312 147.226562 2.320312 C 147.742188 2.320312 147.828125 2.742188 147.828125 3.207031 L 147.828125 5.070312 C 147.828125 5.417969 147.742188 5.417969 147.203125 5.417969 L 147.203125 5.667969 C 147.476562 5.65625 147.890625 5.644531 148.101562 5.644531 C 148.304688 5.644531 148.726562 5.65625 148.992188 5.667969 L 148.992188 5.417969 C 148.578125 5.417969 148.378906 5.417969 148.378906 5.179688 L 148.378906 3.65625 C 148.378906 2.96875 148.378906 2.730469 148.128906 2.445312 C 148.015625 2.304688 147.753906 2.144531 147.289062 2.144531 C 146.703125 2.144531 146.328125 2.480469 146.101562 2.980469 L 146.101562 2.144531 L 144.976562 2.230469 L 144.976562 2.480469 C 145.539062 2.480469 145.601562 2.53125 145.601562 2.929688 Z M 145.601562 2.929688 "/>
<path style=" stroke:none;fill-rule:nonzero;fill:rgb(0%,0%,0%);fill-opacity:1;" d="M 152.824219 5.054688 L 153.671875 4.230469 C 154.910156 3.132812 155.386719 2.707031 155.386719 1.90625 C 155.386719 0.992188 154.671875 0.355469 153.699219 0.355469 C 152.796875 0.355469 152.210938 1.09375 152.210938 1.804688 C 152.210938 2.242188 152.609375 2.242188 152.636719 2.242188 C 152.773438 2.242188 153.046875 2.15625 153.046875 1.820312 C 153.046875 1.617188 152.898438 1.40625 152.621094 1.40625 C 152.558594 1.40625 152.546875 1.40625 152.523438 1.417969 C 152.699219 0.894531 153.136719 0.605469 153.597656 0.605469 C 154.324219 0.605469 154.660156 1.257812 154.660156 1.90625 C 154.660156 2.542969 154.273438 3.167969 153.824219 3.667969 L 152.296875 5.367188 C 152.210938 5.457031 152.210938 5.480469 152.210938 5.667969 L 155.171875 5.667969 L 155.386719 4.28125 L 155.199219 4.28125 C 155.148438 4.519531 155.097656 4.867188 155.011719 4.992188 C 154.960938 5.054688 154.433594 5.054688 154.261719 5.054688 Z M 152.824219 5.054688 "/>
<path style=" stroke:none;fill-rule:nonzero;fill:rgb(0%,0%,0%);fill-opacity:1;" d="M 217.371094 2.1875 L 217.371094 1.261719 C 217.371094 0.5625 217.746094 0.175781 218.097656 0.175781 C 218.121094 0.175781 218.246094 0.175781 218.359375 0.238281 C 218.273438 0.261719 218.121094 0.375 218.121094 0.574219 C 218.121094 0.75 218.246094 0.914062 218.472656 0.914062 C 218.699219 0.914062 218.824219 0.75 218.824219 0.5625 C 218.824219 0.261719 218.523438 0 218.097656 0 C 217.546875 0 216.859375 0.425781 216.859375 1.273438 L 216.859375 2.1875 L 216.234375 2.1875 L 216.234375 2.4375 L 216.859375 2.4375 L 216.859375 5.023438 C 216.859375 5.375 216.773438 5.375 216.246094 5.375 L 216.246094 5.625 C 216.558594 5.613281 216.933594 5.601562 217.148438 5.601562 C 217.472656 5.601562 217.847656 5.601562 218.160156 5.625 L 218.160156 5.375 L 217.996094 5.375 C 217.410156 5.375 217.398438 5.289062 217.398438 5 L 217.398438 2.4375 L 218.296875 2.4375 L 218.296875 2.1875 Z M 217.371094 2.1875 "/>
<path style=" stroke:none;fill-rule:nonzero;fill:rgb(0%,0%,0%);fill-opacity:1;" d="M 221.519531 5 L 221.519531 5.710938 L 222.671875 5.625 L 222.671875 5.375 C 222.121094 5.375 222.058594 5.324219 222.058594 4.925781 L 222.058594 2.101562 L 220.882812 2.1875 L 220.882812 2.4375 C 221.433594 2.4375 221.507812 2.488281 221.507812 2.886719 L 221.507812 4.300781 C 221.507812 5 221.121094 5.539062 220.535156 5.539062 C 219.871094 5.539062 219.832031 5.164062 219.832031 4.75 L 219.832031 2.101562 L 218.660156 2.1875 L 218.660156 2.4375 C 219.285156 2.4375 219.285156 2.460938 219.285156 3.164062 L 219.285156 4.363281 C 219.285156 4.988281 219.285156 5.710938 220.496094 5.710938 C 220.945312 5.710938 221.296875 5.488281 221.519531 5 Z M 221.519531 5 "/>
<path style=" stroke:none;fill-rule:nonzero;fill:rgb(0%,0%,0%);fill-opacity:1;" d="M 223.710938 2.886719 L 223.710938 5.023438 C 223.710938 5.375 223.625 5.375 223.085938 5.375 L 223.085938 5.625 C 223.375 5.613281 223.773438 5.601562 224 5.601562 C 224.199219 5.601562 224.613281 5.613281 224.886719 5.625 L 224.886719 5.375 C 224.347656 5.375 224.261719 5.375 224.261719 5.023438 L 224.261719 3.550781 C 224.261719 2.726562 224.835938 2.273438 225.335938 2.273438 C 225.847656 2.273438 225.9375 2.699219 225.9375 3.164062 L 225.9375 5.023438 C 225.9375 5.375 225.847656 5.375 225.3125 5.375 L 225.3125 5.625 C 225.585938 5.613281 226 5.601562 226.210938 5.601562 C 226.410156 5.601562 226.835938 5.613281 227.097656 5.625 L 227.097656 5.375 C 226.6875 5.375 226.488281 5.375 226.488281 5.136719 L 226.488281 3.613281 C 226.488281 2.925781 226.488281 2.6875 226.238281 2.398438 C 226.125 2.261719 225.863281 2.101562 225.398438 2.101562 C 224.8125 2.101562 224.4375 2.4375 224.210938 2.9375 L 224.210938 2.101562 L 223.085938 2.1875 L 223.085938 2.4375 C 223.648438 2.4375 223.710938 2.488281 223.710938 2.886719 Z M 223.710938 2.886719 "/>
<path style=" stroke:none;fill-rule:nonzero;fill:rgb(0%,0%,0%);fill-opacity:1;" d="M 228.203125 3.886719 C 228.203125 2.585938 228.851562 2.25 229.277344 2.25 C 229.351562 2.25 229.851562 2.261719 230.128906 2.550781 C 229.800781 2.574219 229.753906 2.8125 229.753906 2.914062 C 229.753906 3.125 229.902344 3.273438 230.113281 3.273438 C 230.328125 3.273438 230.488281 3.148438 230.488281 2.898438 C 230.488281 2.363281 229.878906 2.050781 229.265625 2.050781 C 228.265625 2.050781 227.539062 2.914062 227.539062 3.898438 C 227.539062 4.925781 228.328125 5.710938 229.253906 5.710938 C 230.316406 5.710938 230.578125 4.75 230.578125 4.675781 C 230.578125 4.601562 230.488281 4.601562 230.464844 4.601562 C 230.402344 4.601562 230.378906 4.625 230.363281 4.675781 C 230.140625 5.414062 229.613281 5.511719 229.328125 5.511719 C 228.902344 5.511719 228.203125 5.175781 228.203125 3.886719 Z M 228.203125 3.886719 "/>
<path style=" stroke:none;fill-rule:nonzero;fill:rgb(0%,0%,0%);fill-opacity:1;" d="M 232.179688 2.4375 L 233.332031 2.4375 L 233.332031 2.1875 L 232.179688 2.1875 L 232.179688 0.726562 L 231.980469 0.726562 C 231.980469 1.375 231.742188 2.226562 230.957031 2.261719 L 230.957031 2.4375 L 231.632812 2.4375 L 231.632812 4.636719 C 231.632812 5.613281 232.382812 5.710938 232.667969 5.710938 C 233.230469 5.710938 233.457031 5.148438 233.457031 4.636719 L 233.457031 4.1875 L 233.257812 4.1875 L 233.257812 4.625 C 233.257812 5.210938 233.019531 5.511719 232.71875 5.511719 C 232.179688 5.511719 232.179688 4.789062 232.179688 4.648438 Z M 232.179688 2.4375 "/>
<path style=" stroke:none;fill-rule:nonzero;fill:rgb(0%,0%,0%);fill-opacity:1;" d="M 235.320312 2.101562 L 234.207031 2.1875 L 234.207031 2.4375 C 234.71875 2.4375 234.792969 2.488281 234.792969 2.875 L 234.792969 5.023438 C 234.792969 5.375 234.707031 5.375 234.167969 5.375 L 234.167969 5.625 C 234.417969 5.613281 234.855469 5.601562 235.042969 5.601562 C 235.332031 5.601562 235.605469 5.613281 235.882812 5.625 L 235.882812 5.375 C 235.34375 5.375 235.320312 5.335938 235.320312 5.023438 Z M 235.34375 0.710938 C 235.34375 0.460938 235.15625 0.289062 234.929688 0.289062 C 234.679688 0.289062 234.507812 0.5 234.507812 0.710938 C 234.507812 0.925781 234.679688 1.136719 234.929688 1.136719 C 235.15625 1.136719 235.34375 0.960938 235.34375 0.710938 Z M 235.34375 0.710938 "/>
<path style=" stroke:none;fill-rule:nonzero;fill:rgb(0%,0%,0%);fill-opacity:1;" d="M 239.871094 3.914062 C 239.871094 2.898438 239.082031 2.050781 238.121094 2.050781 C 237.121094 2.050781 236.34375 2.925781 236.34375 3.914062 C 236.34375 4.949219 237.171875 5.710938 238.109375 5.710938 C 239.070312 5.710938 239.871094 4.925781 239.871094 3.914062 Z M 238.121094 5.511719 C 237.769531 5.511719 237.421875 5.351562 237.207031 4.976562 C 237.007812 4.625 237.007812 4.136719 237.007812 3.851562 C 237.007812 3.539062 237.007812 3.113281 237.195312 2.761719 C 237.40625 2.398438 237.78125 2.226562 238.109375 2.226562 C 238.457031 2.226562 238.796875 2.398438 239.007812 2.75 C 239.21875 3.085938 239.21875 3.550781 239.21875 3.851562 C 239.21875 4.136719 239.21875 4.574219 239.046875 4.925781 C 238.859375 5.289062 238.507812 5.511719 238.121094 5.511719 Z M 238.121094 5.511719 "/>
<path style=" stroke:none;fill-rule:nonzero;fill:rgb(0%,0%,0%);fill-opacity:1;" d="M 240.980469 2.886719 L 240.980469 5.023438 C 240.980469 5.375 240.894531 5.375 240.355469 5.375 L 240.355469 5.625 C 240.644531 5.613281 241.042969 5.601562 241.269531 5.601562 C 241.46875 5.601562 241.878906 5.613281 242.15625 5.625 L 242.15625 5.375 C 241.617188 5.375 241.53125 5.375 241.53125 5.023438 L 241.53125 3.550781 C 241.53125 2.726562 242.105469 2.273438 242.605469 2.273438 C 243.117188 2.273438 243.207031 2.699219 243.207031 3.164062 L 243.207031 5.023438 C 243.207031 5.375 243.117188 5.375 242.582031 5.375 L 242.582031 5.625 C 242.855469 5.613281 243.269531 5.601562 243.480469 5.601562 C 243.679688 5.601562 244.105469 5.613281 244.367188 5.625 L 244.367188 5.375 C 243.957031 5.375 243.753906 5.375 243.753906 5.136719 L 243.753906 3.613281 C 243.753906 2.925781 243.753906 2.6875 243.503906 2.398438 C 243.394531 2.261719 243.128906 2.101562 242.667969 2.101562 C 242.082031 2.101562 241.707031 2.4375 241.480469 2.9375 L 241.480469 2.101562 L 240.355469 2.1875 L 240.355469 2.4375 C 240.917969 2.4375 240.980469 2.488281 240.980469 2.886719 Z M 240.980469 2.886719 "/>
<path style=" stroke:none;fill-rule:nonzero;fill:rgb(0%,0%,0%);fill-opacity:1;" d="M 249.5 2.8125 C 250.148438 2.601562 250.613281 2.050781 250.613281 1.414062 C 250.613281 0.761719 249.914062 0.3125 249.148438 0.3125 C 248.351562 0.3125 247.738281 0.789062 247.738281 1.398438 C 247.738281 1.664062 247.914062 1.8125 248.148438 1.8125 C 248.386719 1.8125 248.550781 1.636719 248.550781 1.398438 C 248.550781 1.011719 248.175781 1.011719 248.0625 1.011719 C 248.300781 0.613281 248.824219 0.511719 249.113281 0.511719 C 249.449219 0.511719 249.886719 0.6875 249.886719 1.398438 C 249.886719 1.5 249.863281 1.960938 249.664062 2.3125 C 249.425781 2.699219 249.148438 2.726562 248.949219 2.726562 C 248.886719 2.738281 248.699219 2.75 248.636719 2.75 C 248.574219 2.761719 248.523438 2.773438 248.523438 2.851562 C 248.523438 2.9375 248.574219 2.9375 248.710938 2.9375 L 249.0625 2.9375 C 249.710938 2.9375 250.011719 3.476562 250.011719 4.261719 C 250.011719 5.351562 249.460938 5.574219 249.113281 5.574219 C 248.761719 5.574219 248.164062 5.4375 247.886719 4.976562 C 248.164062 5.011719 248.414062 4.835938 248.414062 4.539062 C 248.414062 4.25 248.199219 4.085938 247.976562 4.085938 C 247.773438 4.085938 247.523438 4.199219 247.523438 4.550781 C 247.523438 5.273438 248.261719 5.800781 249.136719 5.800781 C 250.113281 5.800781 250.835938 5.074219 250.835938 4.261719 C 250.835938 3.613281 250.324219 2.988281 249.5 2.8125 Z M 249.5 2.8125 "/>
<path style=" stroke:none;fill-rule:nonzero;fill:rgb(0%,0%,0%);fill-opacity:1;" d="M 307.707031 2.230469 L 307.707031 1.304688 C 307.707031 0.605469 308.082031 0.21875 308.429688 0.21875 C 308.457031 0.21875 308.582031 0.21875 308.691406 0.28125 C 308.605469 0.304688 308.457031 0.417969 308.457031 0.617188 C 308.457031 0.792969 308.582031 0.957031 308.804688 0.957031 C 309.03125 0.957031 309.15625 0.792969 309.15625 0.605469 C 309.15625 0.304688 308.855469 0.0429688 308.429688 0.0429688 C 307.878906 0.0429688 307.191406 0.46875 307.191406 1.320312 L 307.191406 2.230469 L 306.566406 2.230469 L 306.566406 2.480469 L 307.191406 2.480469 L 307.191406 5.070312 C 307.191406 5.417969 307.105469 5.417969 306.582031 5.417969 L 306.582031 5.667969 C 306.894531 5.65625 307.269531 5.644531 307.480469 5.644531 C 307.804688 5.644531 308.179688 5.644531 308.492188 5.667969 L 308.492188 5.417969 L 308.332031 5.417969 C 307.742188 5.417969 307.730469 5.332031 307.730469 5.042969 L 307.730469 2.480469 L 308.628906 2.480469 L 308.628906 2.230469 Z M 307.707031 2.230469 "/>
<path style=" stroke:none;fill-rule:nonzero;fill:rgb(0%,0%,0%);fill-opacity:1;" d="M 311.855469 5.042969 L 311.855469 5.757812 L 313.003906 5.667969 L 313.003906 5.417969 C 312.453125 5.417969 312.390625 5.367188 312.390625 4.96875 L 312.390625 2.144531 L 311.214844 2.230469 L 311.214844 2.480469 C 311.765625 2.480469 311.839844 2.53125 311.839844 2.929688 L 311.839844 4.34375 C 311.839844 5.042969 311.453125 5.582031 310.867188 5.582031 C 310.203125 5.582031 310.167969 5.207031 310.167969 4.792969 L 310.167969 2.144531 L 308.992188 2.230469 L 308.992188 2.480469 C 309.617188 2.480469 309.617188 2.507812 309.617188 3.207031 L 309.617188 4.40625 C 309.617188 5.03125 309.617188 5.757812 310.828125 5.757812 C 311.277344 5.757812 311.628906 5.53125 311.855469 5.042969 Z M 311.855469 5.042969 "/>
<path style=" stroke:none;fill-rule:nonzero;fill:rgb(0%,0%,0%);fill-opacity:1;" d="M 314.042969 2.929688 L 314.042969 5.070312 C 314.042969 5.417969 313.957031 5.417969 313.417969 5.417969 L 313.417969 5.667969 C 313.707031 5.65625 314.105469 5.644531 314.332031 5.644531 C 314.53125 5.644531 314.945312 5.65625 315.21875 5.667969 L 315.21875 5.417969 C 314.683594 5.417969 314.59375 5.417969 314.59375 5.070312 L 314.59375 3.59375 C 314.59375 2.769531 315.167969 2.320312 315.667969 2.320312 C 316.183594 2.320312 316.269531 2.742188 316.269531 3.207031 L 316.269531 5.070312 C 316.269531 5.417969 316.183594 5.417969 315.644531 5.417969 L 315.644531 5.667969 C 315.917969 5.65625 316.332031 5.644531 316.542969 5.644531 C 316.746094 5.644531 317.167969 5.65625 317.433594 5.667969 L 317.433594 5.417969 C 317.019531 5.417969 316.820312 5.417969 316.820312 5.179688 L 316.820312 3.65625 C 316.820312 2.96875 316.820312 2.730469 316.570312 2.445312 C 316.457031 2.304688 316.195312 2.144531 315.730469 2.144531 C 315.144531 2.144531 314.769531 2.480469 314.542969 2.980469 L 314.542969 2.144531 L 313.417969 2.230469 L 313.417969 2.480469 C 313.980469 2.480469 314.042969 2.53125 314.042969 2.929688 Z M 314.042969 2.929688 "/>
<path style=" stroke:none;fill-rule:nonzero;fill:rgb(0%,0%,0%);fill-opacity:1;" d="M 318.535156 3.929688 C 318.535156 2.632812 319.183594 2.292969 319.609375 2.292969 C 319.683594 2.292969 320.183594 2.304688 320.460938 2.59375 C 320.136719 2.617188 320.085938 2.855469 320.085938 2.957031 C 320.085938 3.167969 320.234375 3.320312 320.449219 3.320312 C 320.660156 3.320312 320.824219 3.195312 320.824219 2.945312 C 320.824219 2.40625 320.210938 2.09375 319.597656 2.09375 C 318.597656 2.09375 317.871094 2.957031 317.871094 3.945312 C 317.871094 4.96875 318.660156 5.757812 319.585938 5.757812 C 320.648438 5.757812 320.910156 4.792969 320.910156 4.71875 C 320.910156 4.644531 320.824219 4.644531 320.796875 4.644531 C 320.734375 4.644531 320.710938 4.667969 320.699219 4.71875 C 320.472656 5.457031 319.949219 5.554688 319.660156 5.554688 C 319.234375 5.554688 318.535156 5.21875 318.535156 3.929688 Z M 318.535156 3.929688 "/>
<path style=" stroke:none;fill-rule:nonzero;fill:rgb(0%,0%,0%);fill-opacity:1;" d="M 322.515625 2.480469 L 323.664062 2.480469 L 323.664062 2.230469 L 322.515625 2.230469 L 322.515625 0.769531 L 322.3125 0.769531 C 322.3125 1.417969 322.078125 2.269531 321.289062 2.304688 L 321.289062 2.480469 L 321.964844 2.480469 L 321.964844 4.679688 C 321.964844 5.65625 322.714844 5.757812 323 5.757812 C 323.5625 5.757812 323.789062 5.195312 323.789062 4.679688 L 323.789062 4.230469 L 323.589844 4.230469 L 323.589844 4.667969 C 323.589844 5.257812 323.351562 5.554688 323.050781 5.554688 C 322.515625 5.554688 322.515625 4.832031 322.515625 4.695312 Z M 322.515625 2.480469 "/>
<path style=" stroke:none;fill-rule:nonzero;fill:rgb(0%,0%,0%);fill-opacity:1;" d="M 325.652344 2.144531 L 324.539062 2.230469 L 324.539062 2.480469 C 325.050781 2.480469 325.125 2.53125 325.125 2.917969 L 325.125 5.070312 C 325.125 5.417969 325.039062 5.417969 324.5 5.417969 L 324.5 5.667969 C 324.75 5.65625 325.1875 5.644531 325.375 5.644531 C 325.664062 5.644531 325.9375 5.65625 326.214844 5.667969 L 326.214844 5.417969 C 325.675781 5.417969 325.652344 5.382812 325.652344 5.070312 Z M 325.675781 0.757812 C 325.675781 0.507812 325.488281 0.332031 325.265625 0.332031 C 325.015625 0.332031 324.839844 0.542969 324.839844 0.757812 C 324.839844 0.96875 325.015625 1.179688 325.265625 1.179688 C 325.488281 1.179688 325.675781 1.007812 325.675781 0.757812 Z M 325.675781 0.757812 "/>
<path style=" stroke:none;fill-rule:nonzero;fill:rgb(0%,0%,0%);fill-opacity:1;" d="M 330.203125 3.957031 C 330.203125 2.945312 329.414062 2.09375 328.453125 2.09375 C 327.453125 2.09375 326.679688 2.96875 326.679688 3.957031 C 326.679688 4.992188 327.503906 5.757812 328.441406 5.757812 C 329.402344 5.757812 330.203125 4.96875 330.203125 3.957031 Z M 328.453125 5.554688 C 328.101562 5.554688 327.753906 5.394531 327.539062 5.019531 C 327.339844 4.667969 327.339844 4.179688 327.339844 3.894531 C 327.339844 3.582031 327.339844 3.15625 327.527344 2.804688 C 327.742188 2.445312 328.117188 2.269531 328.441406 2.269531 C 328.789062 2.269531 329.128906 2.445312 329.339844 2.792969 C 329.554688 3.132812 329.554688 3.59375 329.554688 3.894531 C 329.554688 4.179688 329.554688 4.617188 329.378906 4.96875 C 329.191406 5.332031 328.839844 5.554688 328.453125 5.554688 Z M 328.453125 5.554688 "/>
<path style=" stroke:none;fill-rule:nonzero;fill:rgb(0%,0%,0%);fill-opacity:1;" d="M 331.3125 2.929688 L 331.3125 5.070312 C 331.3125 5.417969 331.226562 5.417969 330.6875 5.417969 L 330.6875 5.667969 C 330.976562 5.65625 331.375 5.644531 331.601562 5.644531 C 331.800781 5.644531 332.214844 5.65625 332.488281 5.667969 L 332.488281 5.417969 C 331.949219 5.417969 331.863281 5.417969 331.863281 5.070312 L 331.863281 3.59375 C 331.863281 2.769531 332.4375 2.320312 332.9375 2.320312 C 333.449219 2.320312 333.539062 2.742188 333.539062 3.207031 L 333.539062 5.070312 C 333.539062 5.417969 333.449219 5.417969 332.914062 5.417969 L 332.914062 5.667969 C 333.1875 5.65625 333.601562 5.644531 333.8125 5.644531 C 334.011719 5.644531 334.4375 5.65625 334.699219 5.667969 L 334.699219 5.417969 C 334.289062 5.417969 334.089844 5.417969 334.089844 5.179688 L 334.089844 3.65625 C 334.089844 2.96875 334.089844 2.730469 333.839844 2.445312 C 333.726562 2.304688 333.464844 2.144531 333 2.144531 C 332.414062 2.144531 332.039062 2.480469 331.8125 2.980469 L 331.8125 2.144531 L 330.6875 2.230469 L 330.6875 2.480469 C 331.25 2.480469 331.3125 2.53125 331.3125 2.929688 Z M 331.3125 2.929688 "/>
<path style=" stroke:none;fill-rule:nonzero;fill:rgb(0%,0%,0%);fill-opacity:1;" d="M 339.871094 4.355469 L 339.871094 5.042969 C 339.871094 5.332031 339.84375 5.417969 339.257812 5.417969 L 339.09375 5.417969 L 339.09375 5.667969 C 339.421875 5.644531 339.832031 5.644531 340.171875 5.644531 C 340.507812 5.644531 340.921875 5.644531 341.257812 5.667969 L 341.257812 5.417969 L 341.082031 5.417969 C 340.496094 5.417969 340.484375 5.332031 340.484375 5.042969 L 340.484375 4.355469 L 341.269531 4.355469 L 341.269531 4.105469 L 340.484375 4.105469 L 340.484375 0.480469 C 340.484375 0.320312 340.484375 0.269531 340.34375 0.269531 C 340.28125 0.269531 340.257812 0.269531 340.195312 0.367188 L 337.746094 4.105469 L 337.746094 4.355469 Z M 339.90625 4.105469 L 337.96875 4.105469 L 339.90625 1.132812 Z M 339.90625 4.105469 "/>
<path style="fill:none;stroke-width:0.8;stroke-linecap:butt;stroke-linejoin:miter;stroke:rgb(0%,0%,0%);stroke-opacity:1;stroke-miterlimit:4;" d="M 297.660156 45.171875 C 297.660156 45.171875 307.582031 43.089844 314.042969 37.542969 C 320.5 32 323.933594 24.175781 323.933594 24.175781 "/>
<path style="fill-rule:nonzero;fill:rgb(100%,100%,100%);fill-opacity:1;stroke-width:0.8;stroke-linecap:butt;stroke-linejoin:miter;stroke:rgb(0%,0%,0%);stroke-opacity:1;stroke-miterlimit:4;" d="M 325.382812 24.367188 C 325.382812 25.171875 324.730469 25.828125 323.925781 25.828125 C 323.117188 25.828125 322.464844 25.171875 322.464844 24.367188 C 322.464844 23.5625 323.117188 22.910156 323.925781 22.910156 C 324.730469 22.910156 325.382812 23.5625 325.382812 24.367188 Z M 325.382812 24.367188 "/>
<path style="fill:none;stroke-width:0.8;stroke-linecap:butt;stroke-linejoin:miter;stroke:rgb(0%,0%,0%);stroke-opacity:1;stroke-miterlimit:4;" d="M -260.03125 56.441406 C -260.03125 56.441406 -245.464844 57.359375 -243.648438 48.8125 C -241.828125 40.265625 -233.753906 35.445312 -233.753906 35.445312 " transform="matrix(-1,0,0,1,0,0)"/>
<path style="fill-rule:nonzero;fill:rgb(100%,100%,100%);fill-opacity:1;stroke-width:0.8;stroke-linecap:butt;stroke-linejoin:miter;stroke:rgb(0%,0%,0%);stroke-opacity:1;stroke-miterlimit:4;" d="M -232.304688 35.636719 C -232.304688 36.441406 -232.960938 37.097656 -233.765625 37.097656 C -234.570312 37.097656 -235.222656 36.441406 -235.222656 35.636719 C -235.222656 34.832031 -234.570312 34.179688 -233.765625 34.179688 C -232.960938 34.179688 -232.304688 34.832031 -232.304688 35.636719 Z M -232.304688 35.636719 " transform="matrix(-1,0,0,1,0,0)"/>
</g>
</svg>
