<?xml version="1.0" encoding="UTF-8"?>
<svg xmlns="http://www.w3.org/2000/svg" xmlns:xlink="http://www.w3.org/1999/xlink" width="380.370117pt" height="305.709015pt" viewBox="0 0 380.370117 305.709015" version="1.1">
<defs>
<clipPath id="clip1">
  <path d="M 363 254 L 380.371094 254 L 380.371094 270 L 363 270 Z M 363 254 "/>
</clipPath>
<clipPath id="clip2">
  <path d="M 51 0 L 171 0 L 171 305.710938 L 51 305.710938 Z M 51 0 "/>
</clipPath>
</defs>
<g id="surface1">
<path style="fill:none;stroke-width:0.8;stroke-linecap:butt;stroke-linejoin:miter;stroke:rgb(0%,0%,0%);stroke-opacity:1;stroke-dasharray:0.8,0.8;stroke-miterlimit:4;" d="M 290.914062 247.855469 L 290.914062 118.257812 "/>
<path style="fill:none;stroke-width:0.8;stroke-linecap:butt;stroke-linejoin:miter;stroke:rgb(0%,0%,0%);stroke-opacity:1;stroke-dasharray:0.8,0.8;stroke-miterlimit:4;" d="M 290.914062 247.855469 L 142.113281 247.855469 "/>
<path style="fill:none;stroke-width:0.8;stroke-linecap:butt;stroke-linejoin:miter;stroke:rgb(0%,0%,0%);stroke-opacity:1;stroke-dasharray:0.8,0.8;stroke-miterlimit:4;" d="M 142.113281 247.855469 L 290.914062 118.257812 "/>
<path style="fill:none;stroke-width:1.6;stroke-linecap:butt;stroke-linejoin:miter;stroke:rgb(100%,0%,0%);stroke-opacity:1;stroke-miterlimit:4;" d="M 60.515625 262.257812 L 377.3125 262.257812 "/>
<path style="fill-rule:evenodd;fill:rgb(100%,0%,0%);fill-opacity:1;stroke-width:0.8;stroke-linecap:butt;stroke-linejoin:miter;stroke:rgb(100%,0%,0%);stroke-opacity:1;stroke-miterlimit:4;" d="M 66.914043 262.257818 L 70.113262 259.054693 L 58.914043 262.257817 L 70.113261 265.457037 Z M 66.914043 262.257818 " transform="matrix(1,-0.0000000757576,0.0000000757576,1,0,0)"/>
<path style=" stroke:none;fill-rule:evenodd;fill:rgb(100%,0%,0%);fill-opacity:1;" d="M 370.914062 262.257812 L 367.714844 265.457031 L 378.914062 262.257812 L 367.714844 259.054688 Z M 370.914062 262.257812 "/>
<g clip-path="url(#clip1)" clip-rule="nonzero">
<path style="fill:none;stroke-width:0.8;stroke-linecap:butt;stroke-linejoin:miter;stroke:rgb(100%,0%,0%);stroke-opacity:1;stroke-miterlimit:4;" d="M -370.914043 -262.257841 L -367.714824 -265.457059 L -378.914043 -262.257841 L -367.714824 -259.054715 Z M -370.914043 -262.257841 " transform="matrix(-1,0.0000000757576,-0.0000000757576,-1,0,0)"/>
</g>
<path style="fill:none;stroke-width:1.6;stroke-linecap:butt;stroke-linejoin:miter;stroke:rgb(100%,0%,0%);stroke-opacity:1;stroke-miterlimit:4;" d="M 89.3125 3.054688 L 89.3125 291.054688 "/>
<path style="fill-rule:evenodd;fill:rgb(100%,0%,0%);fill-opacity:1;stroke-width:0.8;stroke-linecap:butt;stroke-linejoin:miter;stroke:rgb(100%,0%,0%);stroke-opacity:1;stroke-miterlimit:4;" d="M 9.457031 -89.3125 L 12.65625 -92.515625 L 1.457031 -89.3125 L 12.65625 -86.113281 Z M 9.457031 -89.3125 " transform="matrix(0,1,-1,0,0,0)"/>
<path style="fill-rule:evenodd;fill:rgb(100%,0%,0%);fill-opacity:1;stroke-width:0.8;stroke-linecap:butt;stroke-linejoin:miter;stroke:rgb(100%,0%,0%);stroke-opacity:1;stroke-miterlimit:4;" d="M -284.65625 89.3125 L -281.457031 86.113281 L -292.65625 89.3125 L -281.457031 92.515625 Z M -284.65625 89.3125 " transform="matrix(0,-1,1,0,0,0)"/>
<g clip-path="url(#clip2)" clip-rule="nonzero">
<path style="fill:none;stroke-width:1.6;stroke-linecap:butt;stroke-linejoin:miter;stroke:rgb(0%,0%,0%);stroke-opacity:1;stroke-miterlimit:4;" d="M 60.515625 3.054688 L 161.3125 305.457031 "/>
</g>
<path style="fill-rule:nonzero;fill:rgb(0%,0%,100%);fill-opacity:1;stroke-width:0.8;stroke-linecap:butt;stroke-linejoin:miter;stroke:rgb(0%,0%,0%);stroke-opacity:1;stroke-miterlimit:4;" d="M 293.3125 118.257812 C 293.3125 119.582031 292.238281 120.65625 290.914062 120.65625 C 289.589844 120.65625 288.515625 119.582031 288.515625 118.257812 C 288.515625 116.929688 289.589844 115.855469 290.914062 115.855469 C 292.238281 115.855469 293.3125 116.929688 293.3125 118.257812 Z M 293.3125 118.257812 "/>
<path style="fill-rule:nonzero;fill:rgb(0%,0%,100%);fill-opacity:1;stroke-width:0.8;stroke-linecap:butt;stroke-linejoin:miter;stroke:rgb(0%,0%,0%);stroke-opacity:1;stroke-miterlimit:4;" d="M 144.515625 247.855469 C 144.515625 249.179688 143.441406 250.257812 142.113281 250.257812 C 140.789062 250.257812 139.714844 249.179688 139.714844 247.855469 C 139.714844 246.53125 140.789062 245.457031 142.113281 245.457031 C 143.441406 245.457031 144.515625 246.53125 144.515625 247.855469 Z M 144.515625 247.855469 "/>
<path style=" stroke:none;fill-rule:nonzero;fill:rgb(0%,0%,0%);fill-opacity:1;" d="M 278.398438 111.355469 C 278.398438 111.304688 278.398438 111.28125 278.125 111.007812 C 276.148438 109.007812 275.625 105.980469 275.625 103.53125 C 275.625 100.757812 276.226562 97.980469 278.199219 96.007812 C 278.398438 95.804688 278.398438 95.78125 278.398438 95.730469 C 278.398438 95.605469 278.351562 95.554688 278.25 95.554688 C 278.074219 95.554688 276.648438 96.65625 275.699219 98.679688 C 274.898438 100.429688 274.699219 102.207031 274.699219 103.53125 C 274.699219 104.78125 274.875 106.707031 275.75 108.53125 C 276.726562 110.480469 278.074219 111.53125 278.25 111.53125 C 278.351562 111.53125 278.398438 111.480469 278.398438 111.355469 Z M 278.398438 111.355469 "/>
<path style=" stroke:none;fill-rule:nonzero;fill:rgb(0%,0%,0%);fill-opacity:1;" d="M 286.925781 97.804688 C 287.050781 97.632812 287.050781 97.605469 287.050781 97.257812 L 283.175781 97.257812 C 281.25 97.257812 281.199219 97.054688 281.148438 96.757812 L 280.75 96.757812 L 280.222656 100.03125 L 280.625 100.03125 C 280.675781 99.78125 280.800781 98.78125 281.023438 98.582031 C 281.125 98.480469 282.375 98.480469 282.574219 98.480469 L 285.875 98.480469 C 285.699219 98.730469 284.449219 100.480469 284.097656 101.007812 C 282.648438 103.15625 282.125 105.382812 282.125 107.007812 C 282.125 107.15625 282.125 107.882812 282.875 107.882812 C 283.597656 107.882812 283.597656 107.15625 283.597656 107.007812 L 283.597656 106.179688 C 283.597656 105.304688 283.648438 104.429688 283.773438 103.582031 C 283.847656 103.207031 284.050781 101.832031 284.773438 100.855469 Z M 286.925781 97.804688 "/>
<path style=" stroke:none;fill-rule:nonzero;fill:rgb(0%,0%,0%);fill-opacity:1;" d="M 290.542969 107.507812 C 290.542969 106.457031 290.144531 105.832031 289.519531 105.832031 C 288.996094 105.832031 288.667969 106.230469 288.667969 106.679688 C 288.667969 107.105469 288.996094 107.53125 289.519531 107.53125 C 289.695312 107.53125 289.917969 107.457031 290.070312 107.332031 C 290.121094 107.28125 290.144531 107.28125 290.144531 107.28125 C 290.167969 107.28125 290.167969 107.28125 290.167969 107.507812 C 290.167969 108.707031 289.621094 109.65625 289.09375 110.179688 C 288.917969 110.355469 288.917969 110.382812 288.917969 110.429688 C 288.917969 110.554688 288.996094 110.605469 289.070312 110.605469 C 289.246094 110.605469 290.542969 109.382812 290.542969 107.507812 Z M 290.542969 107.507812 "/>
<path style=" stroke:none;fill-rule:nonzero;fill:rgb(0%,0%,0%);fill-opacity:1;" d="M 301.53125 104.332031 C 301.53125 102.429688 300.230469 100.832031 298.503906 100.832031 C 297.753906 100.832031 297.054688 101.082031 296.480469 101.65625 L 296.480469 98.53125 C 296.804688 98.632812 297.328125 98.730469 297.828125 98.730469 C 299.804688 98.730469 300.929688 97.28125 300.929688 97.082031 C 300.929688 96.980469 300.878906 96.90625 300.753906 96.90625 C 300.753906 96.90625 300.703125 96.90625 300.628906 96.957031 C 300.304688 97.105469 299.53125 97.429688 298.453125 97.429688 C 297.828125 97.429688 297.078125 97.304688 296.328125 96.980469 C 296.203125 96.929688 296.179688 96.929688 296.15625 96.929688 C 295.980469 96.929688 295.980469 97.054688 295.980469 97.304688 L 295.980469 102.03125 C 295.980469 102.304688 295.980469 102.429688 296.203125 102.429688 C 296.328125 102.429688 296.355469 102.40625 296.429688 102.304688 C 296.605469 102.054688 297.179688 101.179688 298.480469 101.179688 C 299.304688 101.179688 299.703125 101.90625 299.828125 102.207031 C 300.078125 102.804688 300.128906 103.40625 300.128906 104.207031 C 300.128906 104.78125 300.128906 105.730469 299.730469 106.40625 C 299.355469 107.03125 298.753906 107.429688 298.03125 107.429688 C 296.878906 107.429688 295.953125 106.582031 295.679688 105.65625 C 295.730469 105.65625 295.78125 105.679688 295.953125 105.679688 C 296.480469 105.679688 296.753906 105.28125 296.753906 104.90625 C 296.753906 104.507812 296.480469 104.105469 295.953125 104.105469 C 295.730469 104.105469 295.179688 104.230469 295.179688 104.957031 C 295.179688 106.332031 296.28125 107.882812 298.054688 107.882812 C 299.90625 107.882812 301.53125 106.355469 301.53125 104.332031 Z M 301.53125 104.332031 "/>
<path style=" stroke:none;fill-rule:nonzero;fill:rgb(0%,0%,0%);fill-opacity:1;" d="M 306.949219 103.53125 C 306.949219 102.304688 306.773438 100.382812 305.898438 98.554688 C 304.949219 96.605469 303.574219 95.554688 303.425781 95.554688 C 303.324219 95.554688 303.25 95.632812 303.25 95.730469 C 303.25 95.78125 303.25 95.804688 303.550781 96.105469 C 305.125 97.679688 306.023438 100.207031 306.023438 103.53125 C 306.023438 106.28125 305.449219 109.082031 303.472656 111.082031 C 303.25 111.28125 303.25 111.304688 303.25 111.355469 C 303.25 111.457031 303.324219 111.53125 303.425781 111.53125 C 303.574219 111.53125 305.023438 110.429688 305.949219 108.40625 C 306.773438 106.65625 306.949219 104.882812 306.949219 103.53125 Z M 306.949219 103.53125 "/>
<path style=" stroke:none;fill-rule:nonzero;fill:rgb(0%,0%,0%);fill-opacity:1;" d="M 104.214844 254.082031 C 104.214844 254.03125 104.214844 254.007812 103.9375 253.730469 C 101.964844 251.730469 101.4375 248.707031 101.4375 246.257812 C 101.4375 243.480469 102.039062 240.707031 104.015625 238.730469 C 104.214844 238.53125 104.214844 238.507812 104.214844 238.457031 C 104.214844 238.332031 104.164062 238.28125 104.0625 238.28125 C 103.890625 238.28125 102.464844 239.382812 101.515625 241.40625 C 100.714844 243.15625 100.515625 244.929688 100.515625 246.257812 C 100.515625 247.507812 100.6875 249.429688 101.5625 251.257812 C 102.539062 253.207031 103.890625 254.257812 104.0625 254.257812 C 104.164062 254.257812 104.214844 254.207031 104.214844 254.082031 Z M 104.214844 254.082031 "/>
<path style=" stroke:none;fill-rule:nonzero;fill:rgb(0%,0%,0%);fill-opacity:1;" d="M 110.460938 245.429688 C 110.5625 245.03125 110.9375 243.554688 112.039062 243.554688 C 112.113281 243.554688 112.511719 243.554688 112.835938 243.757812 C 112.386719 243.855469 112.085938 244.230469 112.085938 244.632812 C 112.085938 244.882812 112.261719 245.179688 112.6875 245.179688 C 113.039062 245.179688 113.539062 244.90625 113.539062 244.257812 C 113.539062 243.429688 112.613281 243.207031 112.0625 243.207031 C 111.136719 243.207031 110.585938 244.054688 110.386719 244.40625 C 109.988281 243.355469 109.136719 243.207031 108.664062 243.207031 C 107.011719 243.207031 106.085938 245.257812 106.085938 245.65625 C 106.085938 245.832031 106.261719 245.832031 106.289062 245.832031 C 106.414062 245.832031 106.460938 245.78125 106.488281 245.65625 C 107.039062 243.957031 108.085938 243.554688 108.636719 243.554688 C 108.9375 243.554688 109.488281 243.707031 109.488281 244.632812 C 109.488281 245.132812 109.210938 246.179688 108.636719 248.429688 C 108.386719 249.40625 107.8125 250.082031 107.113281 250.082031 C 107.011719 250.082031 106.664062 250.082031 106.3125 249.882812 C 106.710938 249.78125 107.0625 249.457031 107.0625 249.007812 C 107.0625 248.582031 106.710938 248.457031 106.488281 248.457031 C 105.988281 248.457031 105.613281 248.855469 105.613281 249.382812 C 105.613281 250.105469 106.386719 250.429688 107.085938 250.429688 C 108.164062 250.429688 108.738281 249.304688 108.761719 249.230469 C 108.960938 249.804688 109.539062 250.429688 110.488281 250.429688 C 112.136719 250.429688 113.039062 248.382812 113.039062 247.980469 C 113.039062 247.804688 112.914062 247.804688 112.863281 247.804688 C 112.710938 247.804688 112.6875 247.882812 112.636719 247.980469 C 112.113281 249.707031 111.039062 250.082031 110.539062 250.082031 C 109.914062 250.082031 109.664062 249.582031 109.664062 249.03125 C 109.664062 248.679688 109.738281 248.332031 109.914062 247.632812 Z M 110.460938 245.429688 "/>
<path style=" stroke:none;fill-rule:nonzero;fill:rgb(0%,0%,0%);fill-opacity:1;" d="M 117.496094 250.230469 C 117.496094 249.179688 117.097656 248.554688 116.472656 248.554688 C 115.949219 248.554688 115.621094 248.957031 115.621094 249.40625 C 115.621094 249.832031 115.949219 250.257812 116.472656 250.257812 C 116.648438 250.257812 116.871094 250.179688 117.023438 250.054688 C 117.074219 250.007812 117.097656 250.007812 117.097656 250.007812 C 117.121094 250.007812 117.121094 250.007812 117.121094 250.230469 C 117.121094 251.429688 116.574219 252.382812 116.046875 252.90625 C 115.871094 253.082031 115.871094 253.105469 115.871094 253.15625 C 115.871094 253.28125 115.949219 253.332031 116.023438 253.332031 C 116.199219 253.332031 117.496094 252.105469 117.496094 250.230469 Z M 117.496094 250.230469 "/>
<path style=" stroke:none;fill-rule:nonzero;fill:rgb(0%,0%,0%);fill-opacity:1;" d="M 129.085938 244.179688 C 129.164062 243.957031 129.164062 243.929688 129.164062 243.804688 C 129.164062 243.53125 128.9375 243.382812 128.6875 243.382812 C 128.539062 243.382812 128.289062 243.480469 128.136719 243.707031 C 128.113281 243.804688 127.960938 244.28125 127.914062 244.582031 C 127.789062 244.980469 127.6875 245.429688 127.585938 245.855469 L 126.863281 248.730469 C 126.8125 248.957031 126.113281 250.082031 125.0625 250.082031 C 124.261719 250.082031 124.085938 249.382812 124.085938 248.78125 C 124.085938 248.054688 124.363281 247.054688 124.886719 245.65625 C 125.136719 245.007812 125.210938 244.832031 125.210938 244.507812 C 125.210938 243.804688 124.710938 243.207031 123.914062 243.207031 C 122.386719 243.207031 121.8125 245.53125 121.8125 245.65625 C 121.8125 245.832031 121.960938 245.832031 121.988281 245.832031 C 122.164062 245.832031 122.164062 245.78125 122.238281 245.53125 C 122.6875 244.03125 123.3125 243.554688 123.863281 243.554688 C 123.988281 243.554688 124.261719 243.554688 124.261719 244.054688 C 124.261719 244.457031 124.085938 244.882812 123.988281 245.179688 C 123.335938 246.882812 123.0625 247.78125 123.0625 248.53125 C 123.0625 249.957031 124.0625 250.429688 125.011719 250.429688 C 125.636719 250.429688 126.164062 250.15625 126.613281 249.707031 C 126.414062 250.53125 126.210938 251.332031 125.585938 252.179688 C 125.164062 252.707031 124.5625 253.179688 123.835938 253.179688 C 123.613281 253.179688 122.886719 253.132812 122.613281 252.507812 C 122.863281 252.507812 123.085938 252.507812 123.289062 252.304688 C 123.460938 252.179688 123.613281 251.957031 123.613281 251.65625 C 123.613281 251.15625 123.1875 251.105469 123.039062 251.105469 C 122.664062 251.105469 122.136719 251.355469 122.136719 252.132812 C 122.136719 252.929688 122.835938 253.53125 123.835938 253.53125 C 125.460938 253.53125 127.113281 252.082031 127.5625 250.28125 Z M 129.085938 244.179688 "/>
<path style=" stroke:none;fill-rule:nonzero;fill:rgb(0%,0%,0%);fill-opacity:1;" d="M 134.320312 246.257812 C 134.320312 245.03125 134.144531 243.105469 133.269531 241.28125 C 132.320312 239.332031 130.945312 238.28125 130.792969 238.28125 C 130.695312 238.28125 130.621094 238.355469 130.621094 238.457031 C 130.621094 238.507812 130.621094 238.53125 130.917969 238.832031 C 132.496094 240.40625 133.394531 242.929688 133.394531 246.257812 C 133.394531 249.007812 132.820312 251.804688 130.84375 253.804688 C 130.621094 254.007812 130.621094 254.03125 130.621094 254.082031 C 130.621094 254.179688 130.695312 254.257812 130.792969 254.257812 C 130.945312 254.257812 132.394531 253.15625 133.320312 251.132812 C 134.144531 249.382812 134.320312 247.605469 134.320312 246.257812 Z M 134.320312 246.257812 "/>
<path style=" stroke:none;fill-rule:nonzero;fill:rgb(0%,0%,0%);fill-opacity:1;" d="M 220.8125 196.480469 C 220.789062 196.53125 220.738281 196.582031 220.738281 196.632812 C 220.738281 196.707031 220.839844 196.855469 220.9375 196.855469 C 221.015625 196.855469 221.0625 196.804688 221.515625 196.355469 C 221.640625 196.230469 221.964844 195.929688 222.089844 195.804688 C 222.238281 197.054688 222.6875 198.257812 223.863281 198.257812 C 224.515625 198.257812 225.0625 197.882812 225.390625 197.632812 C 225.613281 197.480469 226.363281 196.855469 226.363281 196.707031 C 226.363281 196.65625 226.3125 196.507812 226.1875 196.507812 C 226.140625 196.507812 226.113281 196.53125 225.964844 196.65625 C 224.9375 197.65625 224.363281 197.90625 223.890625 197.90625 C 223.1875 197.90625 222.914062 197.054688 222.914062 195.832031 C 222.914062 195.730469 222.964844 195.007812 223.015625 194.90625 C 223.039062 194.855469 223.039062 194.832031 223.363281 194.507812 C 224.640625 193.230469 226.914062 190.53125 226.914062 188.054688 C 226.914062 187.78125 226.914062 186.804688 225.964844 186.804688 C 224.640625 186.804688 223.464844 189.429688 223.3125 189.804688 C 222.539062 191.554688 222.039062 193.40625 222.039062 195.304688 Z M 223.089844 194.257812 C 223.113281 194.054688 223.8125 190.53125 224.714844 188.65625 C 225.140625 187.804688 225.488281 187.15625 225.988281 187.15625 C 226.539062 187.15625 226.539062 187.730469 226.539062 187.980469 C 226.539062 190.65625 223.839844 193.457031 223.089844 194.257812 Z M 223.089844 194.257812 "/>
<path style=" stroke:none;fill-rule:nonzero;fill:rgb(0%,0%,0%);fill-opacity:1;" d="M 7.273438 61.457031 C 7.351562 61.230469 7.351562 61.207031 7.351562 61.082031 C 7.351562 60.804688 7.125 60.65625 6.875 60.65625 C 6.726562 60.65625 6.476562 60.757812 6.324219 60.980469 C 6.300781 61.082031 6.148438 61.554688 6.101562 61.855469 C 5.976562 62.257812 5.875 62.707031 5.773438 63.132812 L 5.050781 66.007812 C 5 66.230469 4.300781 67.355469 3.25 67.355469 C 2.449219 67.355469 2.273438 66.65625 2.273438 66.054688 C 2.273438 65.332031 2.550781 64.332031 3.074219 62.929688 C 3.324219 62.28125 3.398438 62.105469 3.398438 61.78125 C 3.398438 61.082031 2.898438 60.480469 2.101562 60.480469 C 0.574219 60.480469 0 62.804688 0 62.929688 C 0 63.105469 0.148438 63.105469 0.175781 63.105469 C 0.351562 63.105469 0.351562 63.054688 0.425781 62.804688 C 0.875 61.304688 1.5 60.832031 2.050781 60.832031 C 2.175781 60.832031 2.449219 60.832031 2.449219 61.332031 C 2.449219 61.730469 2.273438 62.15625 2.175781 62.457031 C 1.523438 64.15625 1.25 65.054688 1.25 65.804688 C 1.25 67.230469 2.25 67.707031 3.199219 67.707031 C 3.824219 67.707031 4.351562 67.429688 4.800781 66.980469 C 4.601562 67.804688 4.398438 68.605469 3.773438 69.457031 C 3.351562 69.980469 2.75 70.457031 2.023438 70.457031 C 1.800781 70.457031 1.074219 70.40625 0.800781 69.78125 C 1.050781 69.78125 1.273438 69.78125 1.476562 69.582031 C 1.648438 69.457031 1.800781 69.230469 1.800781 68.929688 C 1.800781 68.429688 1.375 68.382812 1.226562 68.382812 C 0.851562 68.382812 0.324219 68.632812 0.324219 69.40625 C 0.324219 70.207031 1.023438 70.804688 2.023438 70.804688 C 3.648438 70.804688 5.300781 69.355469 5.75 67.554688 Z M 7.273438 61.457031 "/>
<path style=" stroke:none;fill-rule:nonzero;fill:rgb(0%,0%,0%);fill-opacity:1;" d="M 23.289062 62.304688 C 23.539062 62.304688 23.839844 62.304688 23.839844 62.007812 C 23.839844 61.679688 23.539062 61.679688 23.3125 61.679688 L 13.765625 61.679688 C 13.539062 61.679688 13.238281 61.679688 13.238281 62.007812 C 13.238281 62.304688 13.539062 62.304688 13.765625 62.304688 Z M 23.3125 65.40625 C 23.539062 65.40625 23.839844 65.40625 23.839844 65.082031 C 23.839844 64.78125 23.539062 64.78125 23.289062 64.78125 L 13.765625 64.78125 C 13.539062 64.78125 13.238281 64.78125 13.238281 65.082031 C 13.238281 65.40625 13.539062 65.40625 13.765625 65.40625 Z M 23.3125 65.40625 "/>
<path style=" stroke:none;fill-rule:nonzero;fill:rgb(0%,0%,0%);fill-opacity:1;" d="M 31.269531 62.304688 L 31.269531 61.90625 C 31.269531 57.882812 33.242188 57.304688 34.070312 57.304688 C 34.445312 57.304688 35.117188 57.40625 35.46875 57.957031 C 35.21875 57.957031 34.59375 57.957031 34.59375 58.65625 C 34.59375 59.15625 34.96875 59.40625 35.320312 59.40625 C 35.570312 59.40625 36.070312 59.257812 36.070312 58.632812 C 36.070312 57.679688 35.367188 56.90625 34.042969 56.90625 C 31.992188 56.90625 29.84375 58.957031 29.84375 62.480469 C 29.84375 66.757812 31.695312 67.882812 33.167969 67.882812 C 34.945312 67.882812 36.46875 66.382812 36.46875 64.28125 C 36.46875 62.257812 35.042969 60.730469 33.269531 60.730469 C 32.195312 60.730469 31.59375 61.53125 31.269531 62.304688 Z M 33.167969 67.429688 C 32.167969 67.429688 31.695312 66.480469 31.59375 66.230469 C 31.292969 65.480469 31.292969 64.207031 31.292969 63.929688 C 31.292969 62.679688 31.820312 61.082031 33.242188 61.082031 C 33.519531 61.082031 34.242188 61.082031 34.742188 62.082031 C 35.019531 62.65625 35.019531 63.480469 35.019531 64.257812 C 35.019531 65.03125 35.019531 65.832031 34.742188 66.40625 C 34.269531 67.355469 33.542969 67.429688 33.167969 67.429688 Z M 33.167969 67.429688 "/>
<path style=" stroke:none;fill-rule:nonzero;fill:rgb(0%,0%,0%);fill-opacity:1;" d="M 51.179688 63.855469 C 51.453125 63.855469 51.753906 63.855469 51.753906 63.53125 C 51.753906 63.230469 51.453125 63.230469 51.179688 63.230469 L 42.554688 63.230469 C 42.277344 63.230469 42.003906 63.230469 42.003906 63.53125 C 42.003906 63.855469 42.277344 63.855469 42.554688 63.855469 Z M 51.179688 63.855469 "/>
<path style=" stroke:none;fill-rule:nonzero;fill:rgb(0%,0%,0%);fill-opacity:1;" d="M 61.242188 61.90625 C 62.542969 61.480469 63.46875 60.382812 63.46875 59.105469 C 63.46875 57.804688 62.066406 56.90625 60.542969 56.90625 C 58.941406 56.90625 57.71875 57.855469 57.71875 59.082031 C 57.71875 59.605469 58.066406 59.90625 58.542969 59.90625 C 59.019531 59.90625 59.34375 59.554688 59.34375 59.082031 C 59.34375 58.304688 58.59375 58.304688 58.367188 58.304688 C 58.84375 57.507812 59.894531 57.304688 60.46875 57.304688 C 61.144531 57.304688 62.019531 57.65625 62.019531 59.082031 C 62.019531 59.28125 61.96875 60.207031 61.566406 60.90625 C 61.09375 61.679688 60.542969 61.730469 60.144531 61.730469 C 60.019531 61.757812 59.644531 61.78125 59.519531 61.78125 C 59.394531 61.804688 59.292969 61.832031 59.292969 61.980469 C 59.292969 62.15625 59.394531 62.15625 59.667969 62.15625 L 60.367188 62.15625 C 61.667969 62.15625 62.269531 63.230469 62.269531 64.804688 C 62.269531 66.980469 61.167969 67.429688 60.46875 67.429688 C 59.769531 67.429688 58.566406 67.15625 58.019531 66.230469 C 58.566406 66.304688 59.066406 65.957031 59.066406 65.355469 C 59.066406 64.78125 58.644531 64.457031 58.191406 64.457031 C 57.792969 64.457031 57.292969 64.679688 57.292969 65.382812 C 57.292969 66.832031 58.769531 67.882812 60.519531 67.882812 C 62.46875 67.882812 63.917969 66.429688 63.917969 64.804688 C 63.917969 63.507812 62.894531 62.257812 61.242188 61.90625 Z M 61.242188 61.90625 "/>
<path style=" stroke:none;fill-rule:nonzero;fill:rgb(0%,0%,0%);fill-opacity:1;" d="M 69.914062 62.707031 C 70.015625 62.304688 70.390625 60.832031 71.488281 60.832031 C 71.5625 60.832031 71.964844 60.832031 72.289062 61.03125 C 71.839844 61.132812 71.539062 61.507812 71.539062 61.90625 C 71.539062 62.15625 71.714844 62.457031 72.140625 62.457031 C 72.488281 62.457031 72.988281 62.179688 72.988281 61.53125 C 72.988281 60.707031 72.0625 60.480469 71.515625 60.480469 C 70.589844 60.480469 70.039062 61.332031 69.839844 61.679688 C 69.4375 60.632812 68.589844 60.480469 68.113281 60.480469 C 66.464844 60.480469 65.539062 62.53125 65.539062 62.929688 C 65.539062 63.105469 65.714844 63.105469 65.738281 63.105469 C 65.863281 63.105469 65.914062 63.054688 65.9375 62.929688 C 66.488281 61.230469 67.539062 60.832031 68.089844 60.832031 C 68.390625 60.832031 68.9375 60.980469 68.9375 61.90625 C 68.9375 62.40625 68.664062 63.457031 68.089844 65.707031 C 67.839844 66.679688 67.265625 67.355469 66.5625 67.355469 C 66.464844 67.355469 66.113281 67.355469 65.765625 67.15625 C 66.164062 67.054688 66.515625 66.730469 66.515625 66.28125 C 66.515625 65.855469 66.164062 65.730469 65.9375 65.730469 C 65.4375 65.730469 65.0625 66.132812 65.0625 66.65625 C 65.0625 67.382812 65.839844 67.707031 66.539062 67.707031 C 67.613281 67.707031 68.1875 66.582031 68.214844 66.507812 C 68.414062 67.082031 68.988281 67.707031 69.9375 67.707031 C 71.589844 67.707031 72.488281 65.65625 72.488281 65.257812 C 72.488281 65.082031 72.363281 65.082031 72.3125 65.082031 C 72.164062 65.082031 72.140625 65.15625 72.089844 65.257812 C 71.5625 66.980469 70.488281 67.355469 69.988281 67.355469 C 69.363281 67.355469 69.113281 66.855469 69.113281 66.304688 C 69.113281 65.957031 69.1875 65.605469 69.363281 64.90625 Z M 69.914062 62.707031 "/>
</g>
</svg>
