<?xml version="1.0" encoding="UTF-8"?>
<svg xmlns="http://www.w3.org/2000/svg" xmlns:xlink="http://www.w3.org/1999/xlink" width="217pt" height="137pt" viewBox="0 0 217 137" version="1.1">
<defs>
<clipPath id="clip1">
  <path d="M 3 83 L 6 83 L 6 88 L 3 88 Z M 3 83 "/>
</clipPath>
</defs>
<g id="surface1">
<path style="fill:none;stroke-width:8;stroke-linecap:butt;stroke-linejoin:miter;stroke:rgb(100%,0%,0%);stroke-opacity:1;stroke-miterlimit:4;" d="M 135.234375 80.390625 L 135.234375 1232.382812 " transform="matrix(0.1,0,0,-0.1,0,137)"/>
<path style="fill-rule:evenodd;fill:rgb(100%,0%,0%);fill-opacity:1;stroke-width:4.26667;stroke-linecap:butt;stroke-linejoin:miter;stroke:rgb(100%,0%,0%);stroke-opacity:1;stroke-miterlimit:4;" d="M 135.234375 112.382812 L 119.21875 128.359375 L 135.234375 72.382812 L 151.210938 128.359375 Z M 135.234375 112.382812 " transform="matrix(0.1,0,0,-0.1,0,137)"/>
<path style="fill-rule:evenodd;fill:rgb(100%,0%,0%);fill-opacity:1;stroke-width:4.26667;stroke-linecap:butt;stroke-linejoin:miter;stroke:rgb(100%,0%,0%);stroke-opacity:1;stroke-miterlimit:4;" d="M 135.234375 1200.390625 L 151.210938 1184.375 L 135.234375 1240.390625 L 119.21875 1184.375 Z M 135.234375 1200.390625 " transform="matrix(0.1,0,0,-0.1,0,137)"/>
<path style="fill:none;stroke-width:8;stroke-linecap:butt;stroke-linejoin:miter;stroke:rgb(100%,0%,0%);stroke-opacity:1;stroke-miterlimit:4;" d="M 39.21875 512.382812 L 2151.210938 512.382812 " transform="matrix(0.1,0,0,-0.1,0,137)"/>
<path style=" stroke:none;fill-rule:evenodd;fill:rgb(100%,0%,0%);fill-opacity:1;" d="M 4.707031 85.761719 C 4.707031 86.203125 4.347656 86.5625 3.90625 86.5625 C 3.464844 86.5625 3.105469 86.203125 3.105469 85.761719 C 3.105469 85.320312 3.464844 84.960938 3.90625 84.960938 C 4.347656 84.960938 4.707031 85.320312 4.707031 85.761719 Z M 4.707031 85.761719 "/>
<g clip-path="url(#clip1)" clip-rule="nonzero">
<path style="fill:none;stroke-width:2.13333;stroke-linecap:butt;stroke-linejoin:miter;stroke:rgb(100%,0%,0%);stroke-opacity:1;stroke-miterlimit:4;" d="M 47.070312 512.382812 C 47.070312 507.96875 43.476562 504.375 39.0625 504.375 C 34.648438 504.375 31.054688 507.96875 31.054688 512.382812 C 31.054688 516.796875 34.648438 520.390625 39.0625 520.390625 C 43.476562 520.390625 47.070312 516.796875 47.070312 512.382812 Z M 47.070312 512.382812 " transform="matrix(0.1,0,0,-0.1,0,137)"/>
</g>
<path style="fill-rule:evenodd;fill:rgb(100%,0%,0%);fill-opacity:1;stroke-width:4.26667;stroke-linecap:butt;stroke-linejoin:miter;stroke:rgb(100%,0%,0%);stroke-opacity:1;stroke-miterlimit:4;" d="M 2119.21875 512.382812 L 2103.242188 496.367188 L 2159.21875 512.382812 L 2103.242188 528.359375 Z M 2119.21875 512.382812 " transform="matrix(0.1,0,0,-0.1,0,137)"/>
<path style="fill:none;stroke-width:4;stroke-linecap:butt;stroke-linejoin:miter;stroke:rgb(100%,0%,0%);stroke-opacity:1;stroke-miterlimit:4;" d="M 1335.234375 963.28125 L 567.226562 963.28125 L 471.210938 867.265625 " transform="matrix(0.1,0,0,-0.1,0,137)"/>
<path style="fill-rule:evenodd;fill:rgb(100%,0%,0%);fill-opacity:1;stroke-width:1.06667;stroke-linecap:butt;stroke-linejoin:miter;stroke:rgb(100%,0%,0%);stroke-opacity:1;stroke-miterlimit:4;" d="M 1331.289062 963.28125 C 1331.289062 965.46875 1333.085938 967.265625 1335.3125 967.265625 C 1337.5 967.265625 1339.296875 965.46875 1339.296875 963.28125 C 1339.296875 961.054688 1337.5 959.257812 1335.3125 959.257812 C 1333.085938 959.257812 1331.289062 961.054688 1331.289062 963.28125 Z M 1331.289062 963.28125 " transform="matrix(0.1,0,0,-0.1,0,137)"/>
<path style="fill-rule:evenodd;fill:rgb(100%,0%,0%);fill-opacity:1;stroke-width:2.13333;stroke-linecap:butt;stroke-linejoin:miter;stroke:rgb(100%,0%,0%);stroke-opacity:1;stroke-miterlimit:4;" d="M 482.539062 878.59375 L 482.539062 889.882812 L 468.398438 864.453125 L 493.867188 878.59375 Z M 482.539062 878.59375 " transform="matrix(0.1,0,0,-0.1,0,137)"/>
<path style="fill:none;stroke-width:16;stroke-linecap:butt;stroke-linejoin:miter;stroke:rgb(100%,100%,100%);stroke-opacity:1;stroke-miterlimit:4;" d="M 427.226562 800.390625 C 427.226562 800.390625 519.21875 656.367188 615.234375 656.367188 C 711.210938 656.367188 807.226562 1088.359375 951.210938 1088.359375 C 1095.234375 1088.359375 1047.226562 272.382812 1191.210938 272.382812 C 1335.234375 272.382812 1335.234375 560.390625 1479.21875 560.390625 C 1623.242188 560.390625 1863.242188 128.359375 1863.242188 128.359375 " transform="matrix(0.1,0,0,-0.1,0,137)"/>
<path style="fill:none;stroke-width:8;stroke-linecap:butt;stroke-linejoin:miter;stroke:rgb(0%,0%,0%);stroke-opacity:1;stroke-dasharray:8,16;stroke-miterlimit:4;" d="M 423.242188 776.367188 L 423.242188 512.382812 " transform="matrix(0.1,0,0,-0.1,0,137)"/>
<path style="fill:none;stroke-width:8;stroke-linecap:butt;stroke-linejoin:miter;stroke:rgb(0%,0%,0%);stroke-opacity:1;stroke-dasharray:8,16;stroke-miterlimit:4;" d="M 1863.242188 512.382812 L 1863.242188 128.359375 " transform="matrix(0.1,0,0,-0.1,0,137)"/>
<path style="fill:none;stroke-width:8;stroke-linecap:butt;stroke-linejoin:miter;stroke:rgb(0%,0%,0%);stroke-opacity:1;stroke-miterlimit:4;" d="M 427.226562 800.390625 C 427.226562 800.390625 519.21875 656.367188 615.234375 656.367188 C 711.210938 656.367188 807.226562 1088.359375 951.210938 1088.359375 C 1095.234375 1088.359375 1047.226562 272.382812 1191.210938 272.382812 C 1335.234375 272.382812 1335.234375 560.390625 1479.21875 560.390625 C 1623.242188 560.390625 1863.242188 128.359375 1863.242188 128.359375 " transform="matrix(0.1,0,0,-0.1,0,137)"/>
<path style="fill-rule:nonzero;fill:rgb(0%,50.193787%,50.193787%);fill-opacity:1;stroke-width:8;stroke-linecap:butt;stroke-linejoin:miter;stroke:rgb(100%,100%,100%);stroke-opacity:1;stroke-miterlimit:4;" d="M 447.226562 800.390625 C 447.226562 787.109375 436.484375 776.367188 423.242188 776.367188 C 409.960938 776.367188 399.21875 787.109375 399.21875 800.390625 C 399.21875 813.632812 409.960938 824.375 423.242188 824.375 C 436.484375 824.375 447.226562 813.632812 447.226562 800.390625 Z M 447.226562 800.390625 " transform="matrix(0.1,0,0,-0.1,0,137)"/>
<path style="fill-rule:nonzero;fill:rgb(0%,0%,100%);fill-opacity:1;stroke-width:8;stroke-linecap:butt;stroke-linejoin:miter;stroke:rgb(100%,100%,100%);stroke-opacity:1;stroke-miterlimit:4;" d="M 1887.226562 128.359375 C 1887.226562 115.117188 1876.484375 104.375 1863.242188 104.375 C 1849.960938 104.375 1839.21875 115.117188 1839.21875 128.359375 C 1839.21875 141.640625 1849.960938 152.382812 1863.242188 152.382812 C 1876.484375 152.382812 1887.226562 141.640625 1887.226562 128.359375 Z M 1887.226562 128.359375 " transform="matrix(0.1,0,0,-0.1,0,137)"/>
<path style="fill-rule:nonzero;fill:rgb(0%,0%,100%);fill-opacity:1;stroke-width:8;stroke-linecap:butt;stroke-linejoin:miter;stroke:rgb(100%,100%,100%);stroke-opacity:1;stroke-miterlimit:4;" d="M 1215.234375 272.382812 C 1215.234375 259.101562 1204.492188 248.359375 1191.210938 248.359375 C 1177.96875 248.359375 1167.226562 259.101562 1167.226562 272.382812 C 1167.226562 285.625 1177.96875 296.367188 1191.210938 296.367188 C 1204.492188 296.367188 1215.234375 285.625 1215.234375 272.382812 Z M 1215.234375 272.382812 " transform="matrix(0.1,0,0,-0.1,0,137)"/>
<path style="fill-rule:nonzero;fill:rgb(0%,50.193787%,50.193787%);fill-opacity:1;stroke-width:8;stroke-linecap:butt;stroke-linejoin:miter;stroke:rgb(100%,100%,100%);stroke-opacity:1;stroke-miterlimit:4;" d="M 1503.242188 560.390625 C 1503.242188 547.109375 1492.5 536.367188 1479.21875 536.367188 C 1465.976562 536.367188 1455.234375 547.109375 1455.234375 560.390625 C 1455.234375 573.632812 1465.976562 584.375 1479.21875 584.375 C 1492.5 584.375 1503.242188 573.632812 1503.242188 560.390625 Z M 1503.242188 560.390625 " transform="matrix(0.1,0,0,-0.1,0,137)"/>
<path style="fill-rule:nonzero;fill:rgb(0%,50.193787%,50.193787%);fill-opacity:1;stroke-width:8;stroke-linecap:butt;stroke-linejoin:miter;stroke:rgb(100%,100%,100%);stroke-opacity:1;stroke-miterlimit:4;" d="M 975.234375 1088.359375 C 975.234375 1075.117188 964.492188 1064.375 951.210938 1064.375 C 937.96875 1064.375 927.226562 1075.117188 927.226562 1088.359375 C 927.226562 1101.640625 937.96875 1112.382812 951.210938 1112.382812 C 964.492188 1112.382812 975.234375 1101.640625 975.234375 1088.359375 Z M 975.234375 1088.359375 " transform="matrix(0.1,0,0,-0.1,0,137)"/>
<path style="fill-rule:nonzero;fill:rgb(0%,0%,100%);fill-opacity:1;stroke-width:8;stroke-linecap:butt;stroke-linejoin:miter;stroke:rgb(100%,100%,100%);stroke-opacity:1;stroke-miterlimit:4;" d="M 639.21875 656.367188 C 639.21875 643.125 628.476562 632.382812 615.234375 632.382812 C 601.953125 632.382812 591.210938 643.125 591.210938 656.367188 C 591.210938 669.648438 601.953125 680.390625 615.234375 680.390625 C 628.476562 680.390625 639.21875 669.648438 639.21875 656.367188 Z M 639.21875 656.367188 " transform="matrix(0.1,0,0,-0.1,0,137)"/>
<path style=" stroke:none;fill-rule:nonzero;fill:rgb(0%,0%,0%);fill-opacity:1;" d="M 43.558594 90.460938 C 43.335938 90.011719 42.996094 89.691406 42.453125 89.691406 C 41.066406 89.691406 39.585938 91.457031 39.585938 93.199219 C 39.585938 94.324219 40.242188 95.113281 41.160156 95.113281 C 41.402344 95.113281 42.003906 95.054688 42.714844 94.210938 C 42.808594 94.71875 43.242188 95.113281 43.804688 95.113281 C 44.234375 95.113281 44.496094 94.832031 44.703125 94.457031 C 44.890625 94.023438 45.058594 93.292969 45.058594 93.273438 C 45.058594 93.144531 44.949219 93.144531 44.910156 93.144531 C 44.796875 93.144531 44.777344 93.199219 44.742188 93.367188 C 44.535156 94.136719 44.328125 94.847656 43.839844 94.847656 C 43.503906 94.847656 43.484375 94.53125 43.484375 94.304688 C 43.484375 94.042969 43.503906 93.929688 43.636719 93.40625 C 43.765625 92.917969 43.785156 92.785156 43.898438 92.335938 L 44.328125 90.667969 C 44.402344 90.332031 44.402344 90.3125 44.402344 90.253906 C 44.402344 90.050781 44.273438 89.9375 44.066406 89.9375 C 43.765625 89.9375 43.597656 90.199219 43.558594 90.460938 Z M 42.792969 93.554688 C 42.714844 93.78125 42.714844 93.800781 42.546875 94.003906 C 42.023438 94.660156 41.535156 94.847656 41.199219 94.847656 C 40.597656 94.847656 40.429688 94.191406 40.429688 93.722656 C 40.429688 93.125 40.804688 91.660156 41.085938 91.097656 C 41.460938 90.40625 41.984375 89.957031 42.472656 89.957031 C 43.242188 89.957031 43.410156 90.929688 43.410156 91.003906 C 43.410156 91.082031 43.390625 91.15625 43.371094 91.210938 Z M 42.792969 93.554688 "/>
<path style=" stroke:none;fill-rule:nonzero;fill:rgb(0%,0%,0%);fill-opacity:1;" d="M 186.484375 73.464844 C 186.484375 73.464844 186.484375 73.332031 186.335938 73.332031 C 186.074219 73.332031 185.191406 73.425781 184.875 73.464844 C 184.78125 73.464844 184.648438 73.480469 184.648438 73.6875 C 184.648438 73.839844 184.761719 73.839844 184.949219 73.839844 C 185.511719 73.839844 185.53125 73.914062 185.53125 74.042969 C 185.53125 74.121094 185.4375 74.53125 185.378906 74.777344 L 184.386719 78.675781 C 184.253906 79.277344 184.199219 79.480469 184.199219 79.894531 C 184.199219 81.019531 184.835938 81.769531 185.71875 81.769531 C 187.125 81.769531 188.605469 79.988281 188.605469 78.261719 C 188.605469 77.175781 187.96875 76.351562 187.011719 76.351562 C 186.46875 76.351562 185.960938 76.707031 185.605469 77.0625 Z M 185.378906 77.980469 C 185.4375 77.71875 185.4375 77.699219 185.546875 77.570312 C 186.128906 76.800781 186.671875 76.613281 186.992188 76.613281 C 187.421875 76.613281 187.742188 76.96875 187.742188 77.738281 C 187.742188 78.449219 187.347656 79.820312 187.125 80.269531 C 186.730469 81.074219 186.1875 81.507812 185.71875 81.507812 C 185.304688 81.507812 184.910156 81.1875 184.910156 80.308594 C 184.910156 80.0625 184.910156 79.839844 185.097656 79.089844 Z M 185.378906 77.980469 "/>
<path style="fill:none;stroke-width:4;stroke-linecap:butt;stroke-linejoin:miter;stroke:rgb(100%,0%,0%);stroke-opacity:1;stroke-miterlimit:4;" d="M 1335.234375 1011.289062 L 1095.234375 1011.289062 L 1047.226562 1059.257812 " transform="matrix(0.1,0,0,-0.1,0,137)"/>
<path style="fill-rule:evenodd;fill:rgb(100%,0%,0%);fill-opacity:1;stroke-width:1.06667;stroke-linecap:butt;stroke-linejoin:miter;stroke:rgb(100%,0%,0%);stroke-opacity:1;stroke-miterlimit:4;" d="M 1331.289062 1011.289062 C 1331.289062 1013.476562 1333.085938 1015.273438 1335.3125 1015.273438 C 1337.5 1015.273438 1339.296875 1013.476562 1339.296875 1011.289062 C 1339.296875 1009.0625 1337.5 1007.265625 1335.3125 1007.265625 C 1333.085938 1007.265625 1331.289062 1009.0625 1331.289062 1011.289062 Z M 1331.289062 1011.289062 " transform="matrix(0.1,0,0,-0.1,0,137)"/>
<path style="fill-rule:evenodd;fill:rgb(100%,0%,0%);fill-opacity:1;stroke-width:2.13333;stroke-linecap:butt;stroke-linejoin:miter;stroke:rgb(100%,0%,0%);stroke-opacity:1;stroke-miterlimit:4;" d="M 1058.554688 1047.96875 L 1069.84375 1047.96875 L 1044.414062 1062.109375 L 1058.554688 1036.640625 Z M 1058.554688 1047.96875 " transform="matrix(0.1,0,0,-0.1,0,137)"/>
<path style="fill:none;stroke-width:4;stroke-linecap:butt;stroke-linejoin:miter;stroke:rgb(100%,0%,0%);stroke-opacity:1;stroke-miterlimit:4;" d="M 1623.242188 915.273438 L 1623.242188 723.28125 L 1527.226562 627.265625 " transform="matrix(0.1,0,0,-0.1,0,137)"/>
<path style="fill-rule:evenodd;fill:rgb(100%,0%,0%);fill-opacity:1;stroke-width:1.06667;stroke-linecap:butt;stroke-linejoin:miter;stroke:rgb(100%,0%,0%);stroke-opacity:1;stroke-miterlimit:4;" d="M 1623.242188 911.367188 C 1621.015625 911.367188 1619.21875 913.164062 1619.21875 915.351562 C 1619.21875 917.578125 1621.015625 919.335938 1623.242188 919.335938 C 1625.429688 919.335938 1627.226562 917.578125 1627.226562 915.351562 C 1627.226562 913.164062 1625.429688 911.367188 1623.242188 911.367188 Z M 1623.242188 911.367188 " transform="matrix(0.1,0,0,-0.1,0,137)"/>
<path style="fill-rule:evenodd;fill:rgb(100%,0%,0%);fill-opacity:1;stroke-width:2.13333;stroke-linecap:butt;stroke-linejoin:miter;stroke:rgb(100%,0%,0%);stroke-opacity:1;stroke-miterlimit:4;" d="M 1538.554688 638.59375 L 1538.554688 649.882812 L 1524.414062 624.453125 L 1549.84375 638.59375 Z M 1538.554688 638.59375 " transform="matrix(0.1,0,0,-0.1,0,137)"/>
<path style="fill:none;stroke-width:4;stroke-linecap:butt;stroke-linejoin:miter;stroke:rgb(100%,0%,0%);stroke-opacity:1;stroke-miterlimit:4;" d="M 951.210938 258.28125 L 1143.242188 258.28125 " transform="matrix(0.1,0,0,-0.1,0,137)"/>
<path style="fill-rule:evenodd;fill:rgb(100%,0%,0%);fill-opacity:1;stroke-width:1.06667;stroke-linecap:butt;stroke-linejoin:miter;stroke:rgb(100%,0%,0%);stroke-opacity:1;stroke-miterlimit:4;" d="M 955.15625 258.28125 C 955.15625 256.054688 953.359375 254.257812 951.132812 254.257812 C 948.945312 254.257812 947.148438 256.054688 947.148438 258.28125 C 947.148438 260.46875 948.945312 262.265625 951.132812 262.265625 C 953.359375 262.265625 955.15625 260.46875 955.15625 258.28125 Z M 955.15625 258.28125 " transform="matrix(0.1,0,0,-0.1,0,137)"/>
<path style="fill-rule:evenodd;fill:rgb(100%,0%,0%);fill-opacity:1;stroke-width:2.13333;stroke-linecap:butt;stroke-linejoin:miter;stroke:rgb(100%,0%,0%);stroke-opacity:1;stroke-miterlimit:4;" d="M 1127.226562 258.28125 L 1119.21875 250.273438 L 1147.226562 258.28125 L 1119.21875 266.289062 Z M 1127.226562 258.28125 " transform="matrix(0.1,0,0,-0.1,0,137)"/>
<path style="fill:none;stroke-width:4;stroke-linecap:butt;stroke-linejoin:miter;stroke:rgb(100%,0%,0%);stroke-opacity:1;stroke-miterlimit:4;" d="M 951.210938 225.273438 L 1752.226562 225.273438 L 1800.234375 177.265625 " transform="matrix(0.1,0,0,-0.1,0,137)"/>
<path style="fill-rule:evenodd;fill:rgb(100%,0%,0%);fill-opacity:1;stroke-width:1.06667;stroke-linecap:butt;stroke-linejoin:miter;stroke:rgb(100%,0%,0%);stroke-opacity:1;stroke-miterlimit:4;" d="M 955.15625 225.273438 C 955.15625 223.046875 953.359375 221.289062 951.132812 221.289062 C 948.945312 221.289062 947.148438 223.046875 947.148438 225.273438 C 947.148438 227.5 948.945312 229.257812 951.132812 229.257812 C 953.359375 229.257812 955.15625 227.5 955.15625 225.273438 Z M 955.15625 225.273438 " transform="matrix(0.1,0,0,-0.1,0,137)"/>
<path style="fill-rule:evenodd;fill:rgb(100%,0%,0%);fill-opacity:1;stroke-width:2.13333;stroke-linecap:butt;stroke-linejoin:miter;stroke:rgb(100%,0%,0%);stroke-opacity:1;stroke-miterlimit:4;" d="M 1788.90625 188.59375 L 1777.617188 188.59375 L 1803.046875 174.453125 L 1788.90625 199.882812 Z M 1788.90625 188.59375 " transform="matrix(0.1,0,0,-0.1,0,137)"/>
<path style="fill:none;stroke-width:4;stroke-linecap:butt;stroke-linejoin:miter;stroke:rgb(100%,0%,0%);stroke-opacity:1;stroke-miterlimit:4;" d="M 519.21875 318.945312 L 519.21875 579.257812 L 567.226562 627.265625 " transform="matrix(0.1,0,0,-0.1,0,137)"/>
<path style="fill-rule:evenodd;fill:rgb(100%,0%,0%);fill-opacity:1;stroke-width:1.06667;stroke-linecap:butt;stroke-linejoin:miter;stroke:rgb(100%,0%,0%);stroke-opacity:1;stroke-miterlimit:4;" d="M 519.21875 322.890625 C 521.445312 322.890625 523.242188 321.09375 523.242188 318.867188 C 523.242188 316.679688 521.445312 314.882812 519.21875 314.882812 C 517.03125 314.882812 515.234375 316.679688 515.234375 318.867188 C 515.234375 321.09375 517.03125 322.890625 519.21875 322.890625 Z M 519.21875 322.890625 " transform="matrix(0.1,0,0,-0.1,0,137)"/>
<path style="fill-rule:evenodd;fill:rgb(100%,0%,0%);fill-opacity:1;stroke-width:2.13333;stroke-linecap:butt;stroke-linejoin:miter;stroke:rgb(100%,0%,0%);stroke-opacity:1;stroke-miterlimit:4;" d="M 555.898438 615.976562 L 555.898438 604.648438 L 570.039062 630.117188 L 544.609375 615.976562 Z M 555.898438 615.976562 " transform="matrix(0.1,0,0,-0.1,0,137)"/>
<path style=" stroke:none;fill-rule:nonzero;fill:rgb(0%,0%,0%);fill-opacity:1;" d="M 27.972656 107.535156 L 26.25 107.667969 L 26.25 108.042969 C 27.09375 108.042969 27.1875 108.117188 27.1875 108.714844 L 27.1875 114.941406 C 27.1875 115.464844 27.054688 115.464844 26.25 115.464844 L 26.25 115.839844 C 26.644531 115.824219 27.28125 115.804688 27.582031 115.804688 C 27.878906 115.804688 28.460938 115.824219 28.910156 115.839844 L 28.910156 115.464844 C 28.105469 115.464844 27.972656 115.464844 27.972656 114.941406 Z M 27.972656 107.535156 "/>
<path style=" stroke:none;fill-rule:nonzero;fill:rgb(0%,0%,0%);fill-opacity:1;" d="M 34.800781 113.273438 C 34.800781 111.753906 33.621094 110.480469 32.175781 110.480469 C 30.675781 110.480469 29.515625 111.792969 29.515625 113.273438 C 29.515625 114.828125 30.75 115.972656 32.15625 115.972656 C 33.601562 115.972656 34.800781 114.792969 34.800781 113.273438 Z M 32.175781 115.671875 C 31.652344 115.671875 31.125 115.429688 30.808594 114.867188 C 30.507812 114.339844 30.507812 113.609375 30.507812 113.179688 C 30.507812 112.710938 30.507812 112.074219 30.789062 111.546875 C 31.109375 111.003906 31.671875 110.742188 32.15625 110.742188 C 32.683594 110.742188 33.1875 111.003906 33.507812 111.527344 C 33.828125 112.035156 33.828125 112.730469 33.828125 113.179688 C 33.828125 113.609375 33.828125 114.265625 33.5625 114.792969 C 33.28125 115.335938 32.757812 115.671875 32.175781 115.671875 Z M 32.175781 115.671875 "/>
<path style=" stroke:none;fill-rule:nonzero;fill:rgb(0%,0%,0%);fill-opacity:1;" d="M 36.894531 113.234375 C 36.894531 111.285156 37.871094 110.777344 38.507812 110.777344 C 38.621094 110.777344 39.371094 110.796875 39.78125 111.230469 C 39.292969 111.265625 39.21875 111.621094 39.21875 111.773438 C 39.21875 112.089844 39.445312 112.316406 39.761719 112.316406 C 40.082031 112.316406 40.324219 112.128906 40.324219 111.753906 C 40.324219 110.949219 39.40625 110.480469 38.488281 110.480469 C 36.988281 110.480469 35.902344 111.773438 35.902344 113.253906 C 35.902344 114.792969 37.082031 115.972656 38.46875 115.972656 C 40.0625 115.972656 40.457031 114.527344 40.457031 114.417969 C 40.457031 114.304688 40.324219 114.304688 40.289062 114.304688 C 40.195312 114.304688 40.15625 114.339844 40.136719 114.417969 C 39.800781 115.523438 39.011719 115.671875 38.582031 115.671875 C 37.945312 115.671875 36.894531 115.167969 36.894531 113.234375 Z M 36.894531 113.234375 "/>
<path style=" stroke:none;fill-rule:nonzero;fill:rgb(0%,0%,0%);fill-opacity:1;" d="M 44.777344 114.941406 C 44.832031 115.410156 45.152344 115.917969 45.714844 115.917969 C 45.976562 115.917969 46.707031 115.746094 46.707031 114.773438 L 46.707031 114.097656 L 46.40625 114.097656 L 46.40625 114.773438 C 46.40625 115.464844 46.109375 115.542969 45.976562 115.542969 C 45.582031 115.542969 45.527344 114.996094 45.527344 114.941406 L 45.527344 112.558594 C 45.527344 112.054688 45.527344 111.585938 45.09375 111.136719 C 44.625 110.667969 44.027344 110.480469 43.464844 110.480469 C 42.46875 110.480469 41.644531 111.042969 41.644531 111.828125 C 41.644531 112.183594 41.890625 112.390625 42.207031 112.390625 C 42.546875 112.390625 42.75 112.148438 42.75 111.847656 C 42.75 111.699219 42.695312 111.304688 42.132812 111.304688 C 42.46875 110.871094 43.050781 110.742188 43.425781 110.742188 C 44.027344 110.742188 44.703125 111.210938 44.703125 112.277344 L 44.703125 112.710938 C 44.082031 112.746094 43.257812 112.785156 42.507812 113.140625 C 41.609375 113.554688 41.308594 114.171875 41.308594 114.699219 C 41.308594 115.671875 42.46875 115.972656 43.21875 115.972656 C 44.007812 115.972656 44.550781 115.484375 44.777344 114.941406 Z M 44.703125 112.972656 L 44.703125 114.171875 C 44.703125 115.296875 43.839844 115.710938 43.296875 115.710938 C 42.714844 115.710938 42.226562 115.296875 42.226562 114.699219 C 42.226562 114.042969 42.734375 113.046875 44.703125 112.972656 Z M 44.703125 112.972656 "/>
<path style=" stroke:none;fill-rule:nonzero;fill:rgb(0%,0%,0%);fill-opacity:1;" d="M 48.898438 107.535156 L 47.171875 107.667969 L 47.171875 108.042969 C 48.015625 108.042969 48.109375 108.117188 48.109375 108.714844 L 48.109375 114.941406 C 48.109375 115.464844 47.980469 115.464844 47.171875 115.464844 L 47.171875 115.839844 C 47.566406 115.824219 48.203125 115.804688 48.503906 115.804688 C 48.804688 115.804688 49.386719 115.824219 49.835938 115.839844 L 49.835938 115.464844 C 49.027344 115.464844 48.898438 115.464844 48.898438 114.941406 Z M 48.898438 107.535156 "/>
<path style=" stroke:none;fill-rule:nonzero;fill:rgb(0%,0%,0%);fill-opacity:1;" d="M 55.394531 111.734375 L 55.394531 114.941406 C 55.394531 115.464844 55.261719 115.464844 54.457031 115.464844 L 54.457031 115.839844 C 54.886719 115.824219 55.488281 115.804688 55.824219 115.804688 C 56.125 115.804688 56.742188 115.824219 57.15625 115.839844 L 57.15625 115.464844 C 56.351562 115.464844 56.21875 115.464844 56.21875 114.941406 L 56.21875 112.730469 C 56.21875 111.492188 57.082031 110.816406 57.832031 110.816406 C 58.601562 110.816406 58.730469 111.453125 58.730469 112.148438 L 58.730469 114.941406 C 58.730469 115.464844 58.601562 115.464844 57.792969 115.464844 L 57.792969 115.839844 C 58.207031 115.824219 58.824219 115.804688 59.144531 115.804688 C 59.445312 115.804688 60.082031 115.824219 60.476562 115.839844 L 60.476562 115.464844 C 59.6875 115.464844 59.554688 115.464844 59.554688 114.941406 L 59.554688 112.730469 C 59.554688 111.492188 60.398438 110.816406 61.167969 110.816406 C 61.917969 110.816406 62.050781 111.453125 62.050781 112.148438 L 62.050781 114.941406 C 62.050781 115.464844 61.917969 115.464844 61.113281 115.464844 L 61.113281 115.839844 C 61.523438 115.824219 62.144531 115.804688 62.460938 115.804688 C 62.78125 115.804688 63.398438 115.824219 63.8125 115.839844 L 63.8125 115.464844 C 63.195312 115.464844 62.894531 115.464844 62.875 115.109375 L 62.875 112.824219 C 62.875 111.792969 62.875 111.433594 62.5 111.003906 C 62.332031 110.796875 61.9375 110.554688 61.242188 110.554688 C 60.25 110.554688 59.707031 111.265625 59.519531 111.734375 C 59.351562 110.683594 58.46875 110.554688 57.925781 110.554688 C 57.042969 110.554688 56.480469 111.058594 56.144531 111.808594 L 56.144531 110.554688 L 54.457031 110.683594 L 54.457031 111.058594 C 55.300781 111.058594 55.394531 111.136719 55.394531 111.734375 Z M 55.394531 111.734375 "/>
<path style=" stroke:none;fill-rule:nonzero;fill:rgb(0%,0%,0%);fill-opacity:1;" d="M 66.164062 110.554688 L 64.492188 110.683594 L 64.492188 111.058594 C 65.261719 111.058594 65.375 111.136719 65.375 111.714844 L 65.375 114.941406 C 65.375 115.464844 65.242188 115.464844 64.4375 115.464844 L 64.4375 115.839844 C 64.8125 115.824219 65.46875 115.804688 65.75 115.804688 C 66.179688 115.804688 66.59375 115.824219 67.007812 115.839844 L 67.007812 115.464844 C 66.199219 115.464844 66.164062 115.410156 66.164062 114.941406 Z M 66.199219 108.472656 C 66.199219 108.097656 65.917969 107.835938 65.582031 107.835938 C 65.207031 107.835938 64.945312 108.152344 64.945312 108.472656 C 64.945312 108.792969 65.207031 109.109375 65.582031 109.109375 C 65.917969 109.109375 66.199219 108.847656 66.199219 108.472656 Z M 66.199219 108.472656 "/>
<path style=" stroke:none;fill-rule:nonzero;fill:rgb(0%,0%,0%);fill-opacity:1;" d="M 68.675781 111.734375 L 68.675781 114.941406 C 68.675781 115.464844 68.546875 115.464844 67.738281 115.464844 L 67.738281 115.839844 C 68.171875 115.824219 68.769531 115.804688 69.109375 115.804688 C 69.410156 115.804688 70.027344 115.824219 70.441406 115.839844 L 70.441406 115.464844 C 69.632812 115.464844 69.503906 115.464844 69.503906 114.941406 L 69.503906 112.730469 C 69.503906 111.492188 70.363281 110.816406 71.113281 110.816406 C 71.882812 110.816406 72.015625 111.453125 72.015625 112.148438 L 72.015625 114.941406 C 72.015625 115.464844 71.882812 115.464844 71.078125 115.464844 L 71.078125 115.839844 C 71.488281 115.824219 72.109375 115.804688 72.425781 115.804688 C 72.726562 115.804688 73.363281 115.824219 73.757812 115.839844 L 73.757812 115.464844 C 73.140625 115.464844 72.839844 115.464844 72.839844 115.109375 L 72.839844 112.824219 C 72.839844 111.792969 72.839844 111.433594 72.464844 111.003906 C 72.296875 110.796875 71.902344 110.554688 71.207031 110.554688 C 70.328125 110.554688 69.765625 111.058594 69.425781 111.808594 L 69.425781 110.554688 L 67.738281 110.683594 L 67.738281 111.058594 C 68.582031 111.058594 68.675781 111.136719 68.675781 111.734375 Z M 68.675781 111.734375 "/>
<path style=" stroke:none;fill-rule:nonzero;fill:rgb(0%,0%,0%);fill-opacity:1;" d="M 76.125 110.554688 L 74.457031 110.683594 L 74.457031 111.058594 C 75.226562 111.058594 75.339844 111.136719 75.339844 111.714844 L 75.339844 114.941406 C 75.339844 115.464844 75.207031 115.464844 74.402344 115.464844 L 74.402344 115.839844 C 74.777344 115.824219 75.433594 115.804688 75.714844 115.804688 C 76.144531 115.804688 76.558594 115.824219 76.96875 115.839844 L 76.96875 115.464844 C 76.164062 115.464844 76.125 115.410156 76.125 114.941406 Z M 76.164062 108.472656 C 76.164062 108.097656 75.882812 107.835938 75.542969 107.835938 C 75.167969 107.835938 74.90625 108.152344 74.90625 108.472656 C 74.90625 108.792969 75.167969 109.109375 75.542969 109.109375 C 75.882812 109.109375 76.164062 108.847656 76.164062 108.472656 Z M 76.164062 108.472656 "/>
<path style=" stroke:none;fill-rule:nonzero;fill:rgb(0%,0%,0%);fill-opacity:1;" d="M 78.640625 111.734375 L 78.640625 114.941406 C 78.640625 115.464844 78.507812 115.464844 77.703125 115.464844 L 77.703125 115.839844 C 78.132812 115.824219 78.734375 115.804688 79.070312 115.804688 C 79.371094 115.804688 79.992188 115.824219 80.402344 115.839844 L 80.402344 115.464844 C 79.597656 115.464844 79.464844 115.464844 79.464844 114.941406 L 79.464844 112.730469 C 79.464844 111.492188 80.328125 110.816406 81.078125 110.816406 C 81.847656 110.816406 81.976562 111.453125 81.976562 112.148438 L 81.976562 114.941406 C 81.976562 115.464844 81.847656 115.464844 81.039062 115.464844 L 81.039062 115.839844 C 81.453125 115.824219 82.070312 115.804688 82.390625 115.804688 C 82.691406 115.804688 83.328125 115.824219 83.722656 115.839844 L 83.722656 115.464844 C 82.933594 115.464844 82.804688 115.464844 82.804688 114.941406 L 82.804688 112.730469 C 82.804688 111.492188 83.648438 110.816406 84.414062 110.816406 C 85.164062 110.816406 85.296875 111.453125 85.296875 112.148438 L 85.296875 114.941406 C 85.296875 115.464844 85.164062 115.464844 84.359375 115.464844 L 84.359375 115.839844 C 84.773438 115.824219 85.390625 115.804688 85.710938 115.804688 C 86.027344 115.804688 86.648438 115.824219 87.058594 115.839844 L 87.058594 115.464844 C 86.441406 115.464844 86.140625 115.464844 86.121094 115.109375 L 86.121094 112.824219 C 86.121094 111.792969 86.121094 111.433594 85.746094 111.003906 C 85.578125 110.796875 85.183594 110.554688 84.492188 110.554688 C 83.496094 110.554688 82.953125 111.265625 82.765625 111.734375 C 82.597656 110.683594 81.714844 110.554688 81.171875 110.554688 C 80.289062 110.554688 79.726562 111.058594 79.390625 111.808594 L 79.390625 110.554688 L 77.703125 110.683594 L 77.703125 111.058594 C 78.546875 111.058594 78.640625 111.136719 78.640625 111.734375 Z M 78.640625 111.734375 "/>
<path style=" stroke:none;fill-rule:nonzero;fill:rgb(0%,0%,0%);fill-opacity:1;" d="M 91.265625 114.941406 C 91.320312 115.410156 91.640625 115.917969 92.203125 115.917969 C 92.464844 115.917969 93.195312 115.746094 93.195312 114.773438 L 93.195312 114.097656 L 92.894531 114.097656 L 92.894531 114.773438 C 92.894531 115.464844 92.597656 115.542969 92.464844 115.542969 C 92.070312 115.542969 92.015625 114.996094 92.015625 114.941406 L 92.015625 112.558594 C 92.015625 112.054688 92.015625 111.585938 91.582031 111.136719 C 91.113281 110.667969 90.515625 110.480469 89.953125 110.480469 C 88.957031 110.480469 88.132812 111.042969 88.132812 111.828125 C 88.132812 112.183594 88.378906 112.390625 88.695312 112.390625 C 89.035156 112.390625 89.238281 112.148438 89.238281 111.847656 C 89.238281 111.699219 89.183594 111.304688 88.621094 111.304688 C 88.957031 110.871094 89.539062 110.742188 89.914062 110.742188 C 90.515625 110.742188 91.191406 111.210938 91.191406 112.277344 L 91.191406 112.710938 C 90.570312 112.746094 89.746094 112.785156 88.996094 113.140625 C 88.097656 113.554688 87.796875 114.171875 87.796875 114.699219 C 87.796875 115.671875 88.957031 115.972656 89.707031 115.972656 C 90.496094 115.972656 91.039062 115.484375 91.265625 114.941406 Z M 91.191406 112.972656 L 91.191406 114.171875 C 91.191406 115.296875 90.328125 115.710938 89.785156 115.710938 C 89.203125 115.710938 88.714844 115.296875 88.714844 114.699219 C 88.714844 114.042969 89.222656 113.046875 91.191406 112.972656 Z M 91.191406 112.972656 "/>
<path style=" stroke:none;fill-rule:nonzero;fill:rgb(0%,0%,0%);fill-opacity:1;" d="M 87.394531 131.625 C 86.34375 131.625 86.34375 130.425781 86.34375 130.164062 C 86.34375 129.84375 86.363281 129.449219 86.53125 129.148438 C 86.625 129.019531 86.90625 128.679688 87.394531 128.679688 C 88.425781 128.679688 88.425781 129.863281 88.425781 130.144531 C 88.425781 130.460938 88.425781 130.855469 88.238281 131.15625 C 88.144531 131.289062 87.863281 131.625 87.394531 131.625 Z M 86.007812 132.09375 C 86.007812 132.054688 86.007812 131.773438 86.195312 131.53125 C 86.664062 131.867188 87.167969 131.90625 87.394531 131.90625 C 88.5 131.90625 89.324219 131.082031 89.324219 130.164062 C 89.324219 129.710938 89.136719 129.28125 88.835938 129 C 89.269531 128.585938 89.699219 128.53125 89.90625 128.53125 C 89.945312 128.53125 90 128.53125 90.039062 128.550781 C 89.90625 128.585938 89.832031 128.71875 89.832031 128.867188 C 89.832031 129.074219 90 129.207031 90.1875 129.207031 C 90.300781 129.207031 90.523438 129.132812 90.523438 128.851562 C 90.523438 128.644531 90.394531 128.269531 89.925781 128.269531 C 89.679688 128.269531 89.15625 128.34375 88.648438 128.832031 C 88.144531 128.4375 87.65625 128.398438 87.394531 128.398438 C 86.269531 128.398438 85.445312 129.226562 85.445312 130.144531 C 85.445312 130.667969 85.707031 131.117188 86.007812 131.382812 C 85.855469 131.550781 85.632812 131.945312 85.632812 132.375 C 85.632812 132.75 85.800781 133.199219 86.175781 133.445312 C 85.445312 133.632812 85.070312 134.15625 85.070312 134.625 C 85.070312 135.488281 86.25 136.144531 87.710938 136.144531 C 89.117188 136.144531 90.355469 135.542969 90.355469 134.605469 C 90.355469 134.195312 90.207031 133.574219 89.585938 133.238281 C 88.949219 132.917969 88.257812 132.917969 87.523438 132.917969 C 87.226562 132.917969 86.71875 132.917969 86.625 132.898438 C 86.25 132.84375 86.007812 132.488281 86.007812 132.09375 Z M 87.730469 135.882812 C 86.511719 135.882812 85.6875 135.261719 85.6875 134.625 C 85.6875 134.082031 86.136719 133.632812 86.664062 133.613281 L 87.375 133.613281 C 88.40625 133.613281 89.738281 133.613281 89.738281 134.625 C 89.738281 135.28125 88.894531 135.882812 87.730469 135.882812 Z M 87.730469 135.882812 "/>
<path style=" stroke:none;fill-rule:nonzero;fill:rgb(0%,0%,0%);fill-opacity:1;" d="M 92.828125 125.382812 L 91.101562 125.511719 L 91.101562 125.886719 C 91.945312 125.886719 92.039062 125.960938 92.039062 126.5625 L 92.039062 132.789062 C 92.039062 133.3125 91.910156 133.3125 91.101562 133.3125 L 91.101562 133.6875 C 91.496094 133.667969 92.132812 133.648438 92.433594 133.648438 C 92.734375 133.648438 93.316406 133.667969 93.765625 133.6875 L 93.765625 133.3125 C 92.957031 133.3125 92.828125 133.3125 92.828125 132.789062 Z M 92.828125 125.382812 "/>
<path style=" stroke:none;fill-rule:nonzero;fill:rgb(0%,0%,0%);fill-opacity:1;" d="M 99.65625 131.117188 C 99.65625 129.601562 98.472656 128.324219 97.03125 128.324219 C 95.53125 128.324219 94.367188 129.636719 94.367188 131.117188 C 94.367188 132.675781 95.605469 133.820312 97.011719 133.820312 C 98.453125 133.820312 99.65625 132.636719 99.65625 131.117188 Z M 97.03125 133.519531 C 96.503906 133.519531 95.980469 133.273438 95.660156 132.710938 C 95.359375 132.1875 95.359375 131.457031 95.359375 131.023438 C 95.359375 130.554688 95.359375 129.917969 95.640625 129.394531 C 95.960938 128.851562 96.523438 128.585938 97.011719 128.585938 C 97.535156 128.585938 98.042969 128.851562 98.359375 129.375 C 98.679688 129.882812 98.679688 130.574219 98.679688 131.023438 C 98.679688 131.457031 98.679688 132.113281 98.417969 132.636719 C 98.136719 133.179688 97.609375 133.519531 97.03125 133.519531 Z M 97.03125 133.519531 "/>
<path style=" stroke:none;fill-rule:nonzero;fill:rgb(0%,0%,0%);fill-opacity:1;" d="M 102.070312 129.167969 L 102.070312 125.382812 L 100.34375 125.511719 L 100.34375 125.886719 C 101.1875 125.886719 101.28125 125.960938 101.28125 126.5625 L 101.28125 133.6875 L 101.582031 133.6875 C 101.582031 133.667969 101.675781 133.5 102.011719 132.9375 C 102.183594 133.21875 102.6875 133.820312 103.570312 133.820312 C 104.996094 133.820312 106.230469 132.636719 106.230469 131.101562 C 106.230469 129.582031 105.070312 128.398438 103.699219 128.398438 C 102.761719 128.398438 102.257812 128.960938 102.070312 129.167969 Z M 102.105469 132.320312 L 102.105469 129.863281 C 102.105469 129.636719 102.105469 129.617188 102.238281 129.429688 C 102.707031 128.757812 103.363281 128.664062 103.644531 128.664062 C 104.1875 128.664062 104.621094 128.980469 104.902344 129.429688 C 105.21875 129.917969 105.238281 130.59375 105.238281 131.101562 C 105.238281 131.53125 105.21875 132.242188 104.882812 132.789062 C 104.621094 133.164062 104.167969 133.554688 103.53125 133.554688 C 102.988281 133.554688 102.558594 133.273438 102.277344 132.824219 C 102.105469 132.582031 102.105469 132.542969 102.105469 132.320312 Z M 102.105469 132.320312 "/>
<path style=" stroke:none;fill-rule:nonzero;fill:rgb(0%,0%,0%);fill-opacity:1;" d="M 110.625 132.789062 C 110.679688 133.257812 111 133.761719 111.5625 133.761719 C 111.824219 133.761719 112.554688 133.59375 112.554688 132.617188 L 112.554688 131.945312 L 112.253906 131.945312 L 112.253906 132.617188 C 112.253906 133.3125 111.957031 133.386719 111.824219 133.386719 C 111.429688 133.386719 111.375 132.84375 111.375 132.789062 L 111.375 130.40625 C 111.375 129.898438 111.375 129.429688 110.941406 128.980469 C 110.472656 128.511719 109.875 128.324219 109.3125 128.324219 C 108.316406 128.324219 107.492188 128.886719 107.492188 129.675781 C 107.492188 130.03125 107.738281 130.238281 108.054688 130.238281 C 108.394531 130.238281 108.597656 129.992188 108.597656 129.695312 C 108.597656 129.542969 108.542969 129.148438 107.980469 129.148438 C 108.316406 128.71875 108.898438 128.585938 109.273438 128.585938 C 109.875 128.585938 110.550781 129.054688 110.550781 130.125 L 110.550781 130.554688 C 109.929688 130.59375 109.105469 130.632812 108.355469 130.988281 C 107.457031 131.398438 107.15625 132.019531 107.15625 132.542969 C 107.15625 133.519531 108.316406 133.820312 109.066406 133.820312 C 109.855469 133.820312 110.398438 133.332031 110.625 132.789062 Z M 110.550781 130.820312 L 110.550781 132.019531 C 110.550781 133.144531 109.6875 133.554688 109.144531 133.554688 C 108.5625 133.554688 108.074219 133.144531 108.074219 132.542969 C 108.074219 131.886719 108.582031 130.894531 110.550781 130.820312 Z M 110.550781 130.820312 "/>
<path style=" stroke:none;fill-rule:nonzero;fill:rgb(0%,0%,0%);fill-opacity:1;" d="M 114.746094 125.382812 L 113.019531 125.511719 L 113.019531 125.886719 C 113.863281 125.886719 113.957031 125.960938 113.957031 126.5625 L 113.957031 132.789062 C 113.957031 133.3125 113.828125 133.3125 113.019531 133.3125 L 113.019531 133.6875 C 113.414062 133.667969 114.050781 133.648438 114.351562 133.648438 C 114.652344 133.648438 115.234375 133.667969 115.683594 133.6875 L 115.683594 133.3125 C 114.878906 133.3125 114.746094 133.3125 114.746094 132.789062 Z M 114.746094 125.382812 "/>
<path style=" stroke:none;fill-rule:nonzero;fill:rgb(0%,0%,0%);fill-opacity:1;" d="M 121.242188 129.582031 L 121.242188 132.789062 C 121.242188 133.3125 121.109375 133.3125 120.304688 133.3125 L 120.304688 133.6875 C 120.734375 133.667969 121.335938 133.648438 121.671875 133.648438 C 121.972656 133.648438 122.589844 133.667969 123.003906 133.6875 L 123.003906 133.3125 C 122.199219 133.3125 122.066406 133.3125 122.066406 132.789062 L 122.066406 130.574219 C 122.066406 129.335938 122.929688 128.664062 123.679688 128.664062 C 124.449219 128.664062 124.578125 129.300781 124.578125 129.992188 L 124.578125 132.789062 C 124.578125 133.3125 124.449219 133.3125 123.640625 133.3125 L 123.640625 133.6875 C 124.054688 133.667969 124.671875 133.648438 124.992188 133.648438 C 125.292969 133.648438 125.929688 133.667969 126.324219 133.6875 L 126.324219 133.3125 C 125.535156 133.3125 125.402344 133.3125 125.402344 132.789062 L 125.402344 130.574219 C 125.402344 129.335938 126.246094 128.664062 127.015625 128.664062 C 127.765625 128.664062 127.898438 129.300781 127.898438 129.992188 L 127.898438 132.789062 C 127.898438 133.3125 127.765625 133.3125 126.960938 133.3125 L 126.960938 133.6875 C 127.371094 133.667969 127.992188 133.648438 128.308594 133.648438 C 128.628906 133.648438 129.246094 133.667969 129.660156 133.6875 L 129.660156 133.3125 C 129.042969 133.3125 128.742188 133.3125 128.722656 132.957031 L 128.722656 130.667969 C 128.722656 129.636719 128.722656 129.28125 128.347656 128.851562 C 128.179688 128.644531 127.785156 128.398438 127.089844 128.398438 C 126.097656 128.398438 125.554688 129.113281 125.367188 129.582031 C 125.199219 128.53125 124.316406 128.398438 123.773438 128.398438 C 122.890625 128.398438 122.328125 128.90625 121.992188 129.65625 L 121.992188 128.398438 L 120.304688 128.53125 L 120.304688 128.90625 C 121.148438 128.90625 121.242188 128.980469 121.242188 129.582031 Z M 121.242188 129.582031 "/>
<path style=" stroke:none;fill-rule:nonzero;fill:rgb(0%,0%,0%);fill-opacity:1;" d="M 132.011719 128.398438 L 130.339844 128.53125 L 130.339844 128.90625 C 131.109375 128.90625 131.222656 128.980469 131.222656 129.5625 L 131.222656 132.789062 C 131.222656 133.3125 131.089844 133.3125 130.285156 133.3125 L 130.285156 133.6875 C 130.660156 133.667969 131.316406 133.648438 131.597656 133.648438 C 132.027344 133.648438 132.441406 133.667969 132.855469 133.6875 L 132.855469 133.3125 C 132.046875 133.3125 132.011719 133.257812 132.011719 132.789062 Z M 132.046875 126.320312 C 132.046875 125.945312 131.765625 125.679688 131.429688 125.679688 C 131.054688 125.679688 130.792969 126 130.792969 126.320312 C 130.792969 126.636719 131.054688 126.957031 131.429688 126.957031 C 131.765625 126.957031 132.046875 126.695312 132.046875 126.320312 Z M 132.046875 126.320312 "/>
<path style=" stroke:none;fill-rule:nonzero;fill:rgb(0%,0%,0%);fill-opacity:1;" d="M 134.523438 129.582031 L 134.523438 132.789062 C 134.523438 133.3125 134.394531 133.3125 133.585938 133.3125 L 133.585938 133.6875 C 134.019531 133.667969 134.617188 133.648438 134.957031 133.648438 C 135.257812 133.648438 135.875 133.667969 136.289062 133.6875 L 136.289062 133.3125 C 135.480469 133.3125 135.351562 133.3125 135.351562 132.789062 L 135.351562 130.574219 C 135.351562 129.335938 136.210938 128.664062 136.960938 128.664062 C 137.730469 128.664062 137.863281 129.300781 137.863281 129.992188 L 137.863281 132.789062 C 137.863281 133.3125 137.730469 133.3125 136.925781 133.3125 L 136.925781 133.6875 C 137.335938 133.667969 137.957031 133.648438 138.273438 133.648438 C 138.574219 133.648438 139.210938 133.667969 139.605469 133.6875 L 139.605469 133.3125 C 138.988281 133.3125 138.6875 133.3125 138.6875 132.957031 L 138.6875 130.667969 C 138.6875 129.636719 138.6875 129.28125 138.3125 128.851562 C 138.144531 128.644531 137.75 128.398438 137.054688 128.398438 C 136.175781 128.398438 135.613281 128.90625 135.273438 129.65625 L 135.273438 128.398438 L 133.585938 128.53125 L 133.585938 128.90625 C 134.429688 128.90625 134.523438 128.980469 134.523438 129.582031 Z M 134.523438 129.582031 "/>
<path style=" stroke:none;fill-rule:nonzero;fill:rgb(0%,0%,0%);fill-opacity:1;" d="M 141.972656 128.398438 L 140.304688 128.53125 L 140.304688 128.90625 C 141.074219 128.90625 141.1875 128.980469 141.1875 129.5625 L 141.1875 132.789062 C 141.1875 133.3125 141.054688 133.3125 140.25 133.3125 L 140.25 133.6875 C 140.625 133.667969 141.28125 133.648438 141.5625 133.648438 C 141.992188 133.648438 142.40625 133.667969 142.816406 133.6875 L 142.816406 133.3125 C 142.011719 133.3125 141.972656 133.257812 141.972656 132.789062 Z M 142.011719 126.320312 C 142.011719 125.945312 141.730469 125.679688 141.390625 125.679688 C 141.015625 125.679688 140.753906 126 140.753906 126.320312 C 140.753906 126.636719 141.015625 126.957031 141.390625 126.957031 C 141.730469 126.957031 142.011719 126.695312 142.011719 126.320312 Z M 142.011719 126.320312 "/>
<path style=" stroke:none;fill-rule:nonzero;fill:rgb(0%,0%,0%);fill-opacity:1;" d="M 144.488281 129.582031 L 144.488281 132.789062 C 144.488281 133.3125 144.355469 133.3125 143.550781 133.3125 L 143.550781 133.6875 C 143.980469 133.667969 144.582031 133.648438 144.917969 133.648438 C 145.21875 133.648438 145.839844 133.667969 146.25 133.6875 L 146.25 133.3125 C 145.445312 133.3125 145.3125 133.3125 145.3125 132.789062 L 145.3125 130.574219 C 145.3125 129.335938 146.175781 128.664062 146.925781 128.664062 C 147.695312 128.664062 147.824219 129.300781 147.824219 129.992188 L 147.824219 132.789062 C 147.824219 133.3125 147.695312 133.3125 146.886719 133.3125 L 146.886719 133.6875 C 147.300781 133.667969 147.917969 133.648438 148.238281 133.648438 C 148.539062 133.648438 149.175781 133.667969 149.570312 133.6875 L 149.570312 133.3125 C 148.78125 133.3125 148.652344 133.3125 148.652344 132.789062 L 148.652344 130.574219 C 148.652344 129.335938 149.496094 128.664062 150.261719 128.664062 C 151.011719 128.664062 151.144531 129.300781 151.144531 129.992188 L 151.144531 132.789062 C 151.144531 133.3125 151.011719 133.3125 150.207031 133.3125 L 150.207031 133.6875 C 150.621094 133.667969 151.238281 133.648438 151.558594 133.648438 C 151.875 133.648438 152.496094 133.667969 152.90625 133.6875 L 152.90625 133.3125 C 152.289062 133.3125 151.988281 133.3125 151.96875 132.957031 L 151.96875 130.667969 C 151.96875 129.636719 151.96875 129.28125 151.59375 128.851562 C 151.425781 128.644531 151.03125 128.398438 150.339844 128.398438 C 149.34375 128.398438 148.800781 129.113281 148.613281 129.582031 C 148.445312 128.53125 147.5625 128.398438 147.019531 128.398438 C 146.136719 128.398438 145.574219 128.90625 145.238281 129.65625 L 145.238281 128.398438 L 143.550781 128.53125 L 143.550781 128.90625 C 144.394531 128.90625 144.488281 128.980469 144.488281 129.582031 Z M 144.488281 129.582031 "/>
<path style=" stroke:none;fill-rule:nonzero;fill:rgb(0%,0%,0%);fill-opacity:1;" d="M 157.472656 132.75 L 157.472656 133.820312 L 159.195312 133.6875 L 159.195312 133.3125 C 158.371094 133.3125 158.277344 133.238281 158.277344 132.636719 L 158.277344 128.398438 L 156.515625 128.53125 L 156.515625 128.90625 C 157.339844 128.90625 157.453125 128.980469 157.453125 129.582031 L 157.453125 131.699219 C 157.453125 132.75 156.871094 133.554688 155.992188 133.554688 C 154.996094 133.554688 154.941406 132.992188 154.941406 132.375 L 154.941406 128.398438 L 153.179688 128.53125 L 153.179688 128.90625 C 154.117188 128.90625 154.117188 128.945312 154.117188 129.992188 L 154.117188 131.792969 C 154.117188 132.730469 154.117188 133.820312 155.933594 133.820312 C 156.609375 133.820312 157.132812 133.480469 157.472656 132.75 Z M 157.472656 132.75 "/>
<path style=" stroke:none;fill-rule:nonzero;fill:rgb(0%,0%,0%);fill-opacity:1;" d="M 160.757812 129.582031 L 160.757812 132.789062 C 160.757812 133.3125 160.625 133.3125 159.820312 133.3125 L 159.820312 133.6875 C 160.25 133.667969 160.851562 133.648438 161.1875 133.648438 C 161.488281 133.648438 162.109375 133.667969 162.519531 133.6875 L 162.519531 133.3125 C 161.714844 133.3125 161.582031 133.3125 161.582031 132.789062 L 161.582031 130.574219 C 161.582031 129.335938 162.445312 128.664062 163.195312 128.664062 C 163.964844 128.664062 164.09375 129.300781 164.09375 129.992188 L 164.09375 132.789062 C 164.09375 133.3125 163.964844 133.3125 163.15625 133.3125 L 163.15625 133.6875 C 163.570312 133.667969 164.1875 133.648438 164.507812 133.648438 C 164.808594 133.648438 165.445312 133.667969 165.839844 133.6875 L 165.839844 133.3125 C 165.050781 133.3125 164.921875 133.3125 164.921875 132.789062 L 164.921875 130.574219 C 164.921875 129.335938 165.765625 128.664062 166.53125 128.664062 C 167.28125 128.664062 167.414062 129.300781 167.414062 129.992188 L 167.414062 132.789062 C 167.414062 133.3125 167.28125 133.3125 166.476562 133.3125 L 166.476562 133.6875 C 166.890625 133.667969 167.507812 133.648438 167.828125 133.648438 C 168.144531 133.648438 168.765625 133.667969 169.175781 133.6875 L 169.175781 133.3125 C 168.558594 133.3125 168.257812 133.3125 168.238281 132.957031 L 168.238281 130.667969 C 168.238281 129.636719 168.238281 129.28125 167.863281 128.851562 C 167.695312 128.644531 167.300781 128.398438 166.609375 128.398438 C 165.613281 128.398438 165.070312 129.113281 164.882812 129.582031 C 164.714844 128.53125 163.832031 128.398438 163.289062 128.398438 C 162.40625 128.398438 161.84375 128.90625 161.507812 129.65625 L 161.507812 128.398438 L 159.820312 128.53125 L 159.820312 128.90625 C 160.664062 128.90625 160.757812 128.980469 160.757812 129.582031 Z M 160.757812 129.582031 "/>
<path style="fill:none;stroke-width:4;stroke-linecap:butt;stroke-linejoin:miter;stroke:rgb(100%,0%,0%);stroke-opacity:1;stroke-miterlimit:4;" d="M 1718.75 55.820312 L 1766.757812 55.820312 L 1814.765625 103.789062 " transform="matrix(0.1,0,0,-0.1,0,137)"/>
<path style="fill-rule:evenodd;fill:rgb(100%,0%,0%);fill-opacity:1;stroke-width:1.06667;stroke-linecap:butt;stroke-linejoin:miter;stroke:rgb(100%,0%,0%);stroke-opacity:1;stroke-miterlimit:4;" d="M 1722.65625 55.820312 C 1722.65625 53.59375 1720.859375 51.796875 1718.671875 51.796875 C 1716.445312 51.796875 1714.648438 53.59375 1714.648438 55.820312 C 1714.648438 58.007812 1716.445312 59.804688 1718.671875 59.804688 C 1720.859375 59.804688 1722.65625 58.007812 1722.65625 55.820312 Z M 1722.65625 55.820312 " transform="matrix(0.1,0,0,-0.1,0,137)"/>
<path style="fill-rule:evenodd;fill:rgb(100%,0%,0%);fill-opacity:1;stroke-width:2.13333;stroke-linecap:butt;stroke-linejoin:miter;stroke:rgb(100%,0%,0%);stroke-opacity:1;stroke-miterlimit:4;" d="M 1803.4375 92.5 L 1803.4375 81.171875 L 1817.578125 106.640625 L 1792.109375 92.5 Z M 1803.4375 92.5 " transform="matrix(0.1,0,0,-0.1,0,137)"/>
<path style=" stroke:none;fill-rule:nonzero;fill:rgb(0%,0%,0%);fill-opacity:1;" d="M 137.410156 32.445312 L 135.6875 32.574219 L 135.6875 32.949219 C 136.53125 32.949219 136.625 33.023438 136.625 33.625 L 136.625 39.851562 C 136.625 40.375 136.492188 40.375 135.6875 40.375 L 135.6875 40.75 C 136.082031 40.730469 136.71875 40.710938 137.019531 40.710938 C 137.316406 40.710938 137.898438 40.730469 138.347656 40.75 L 138.347656 40.375 C 137.542969 40.375 137.410156 40.375 137.410156 39.851562 Z M 137.410156 32.445312 "/>
<path style=" stroke:none;fill-rule:nonzero;fill:rgb(0%,0%,0%);fill-opacity:1;" d="M 144.238281 38.179688 C 144.238281 36.664062 143.058594 35.386719 141.613281 35.386719 C 140.113281 35.386719 138.953125 36.699219 138.953125 38.179688 C 138.953125 39.738281 140.1875 40.882812 141.59375 40.882812 C 143.039062 40.882812 144.238281 39.699219 144.238281 38.179688 Z M 141.613281 40.582031 C 141.089844 40.582031 140.5625 40.335938 140.246094 39.773438 C 139.945312 39.25 139.945312 38.519531 139.945312 38.085938 C 139.945312 37.617188 139.945312 36.980469 140.226562 36.457031 C 140.546875 35.914062 141.109375 35.648438 141.59375 35.648438 C 142.121094 35.648438 142.625 35.914062 142.945312 36.4375 C 143.265625 36.945312 143.265625 37.636719 143.265625 38.085938 C 143.265625 38.519531 143.265625 39.175781 143 39.699219 C 142.71875 40.242188 142.195312 40.582031 141.613281 40.582031 Z M 141.613281 40.582031 "/>
<path style=" stroke:none;fill-rule:nonzero;fill:rgb(0%,0%,0%);fill-opacity:1;" d="M 146.332031 38.144531 C 146.332031 36.195312 147.308594 35.6875 147.945312 35.6875 C 148.058594 35.6875 148.808594 35.707031 149.21875 36.136719 C 148.734375 36.175781 148.65625 36.53125 148.65625 36.679688 C 148.65625 37 148.882812 37.226562 149.203125 37.226562 C 149.519531 37.226562 149.765625 37.039062 149.765625 36.664062 C 149.765625 35.855469 148.84375 35.386719 147.925781 35.386719 C 146.425781 35.386719 145.339844 36.679688 145.339844 38.164062 C 145.339844 39.699219 146.519531 40.882812 147.90625 40.882812 C 149.5 40.882812 149.894531 39.4375 149.894531 39.324219 C 149.894531 39.210938 149.765625 39.210938 149.726562 39.210938 C 149.632812 39.210938 149.59375 39.25 149.578125 39.324219 C 149.238281 40.429688 148.453125 40.582031 148.019531 40.582031 C 147.382812 40.582031 146.332031 40.074219 146.332031 38.144531 Z M 146.332031 38.144531 "/>
<path style=" stroke:none;fill-rule:nonzero;fill:rgb(0%,0%,0%);fill-opacity:1;" d="M 154.214844 39.851562 C 154.269531 40.320312 154.589844 40.824219 155.152344 40.824219 C 155.414062 40.824219 156.144531 40.65625 156.144531 39.679688 L 156.144531 39.007812 L 155.84375 39.007812 L 155.84375 39.679688 C 155.84375 40.375 155.546875 40.449219 155.414062 40.449219 C 155.019531 40.449219 154.964844 39.90625 154.964844 39.851562 L 154.964844 37.46875 C 154.964844 36.960938 154.964844 36.492188 154.53125 36.042969 C 154.0625 35.574219 153.464844 35.386719 152.902344 35.386719 C 151.90625 35.386719 151.082031 35.949219 151.082031 36.738281 C 151.082031 37.09375 151.328125 37.300781 151.644531 37.300781 C 151.984375 37.300781 152.1875 37.054688 152.1875 36.757812 C 152.1875 36.605469 152.132812 36.210938 151.570312 36.210938 C 151.90625 35.78125 152.488281 35.648438 152.863281 35.648438 C 153.464844 35.648438 154.140625 36.117188 154.140625 37.1875 L 154.140625 37.617188 C 153.519531 37.65625 152.695312 37.695312 151.945312 38.050781 C 151.046875 38.460938 150.746094 39.082031 150.746094 39.605469 C 150.746094 40.582031 151.90625 40.882812 152.65625 40.882812 C 153.445312 40.882812 153.988281 40.394531 154.214844 39.851562 Z M 154.140625 37.882812 L 154.140625 39.082031 C 154.140625 40.207031 153.277344 40.617188 152.734375 40.617188 C 152.152344 40.617188 151.664062 40.207031 151.664062 39.605469 C 151.664062 38.949219 152.171875 37.957031 154.140625 37.882812 Z M 154.140625 37.882812 "/>
<path style=" stroke:none;fill-rule:nonzero;fill:rgb(0%,0%,0%);fill-opacity:1;" d="M 158.335938 32.445312 L 156.609375 32.574219 L 156.609375 32.949219 C 157.453125 32.949219 157.546875 33.023438 157.546875 33.625 L 157.546875 39.851562 C 157.546875 40.375 157.417969 40.375 156.609375 40.375 L 156.609375 40.75 C 157.003906 40.730469 157.640625 40.710938 157.941406 40.710938 C 158.242188 40.710938 158.824219 40.730469 159.273438 40.75 L 159.273438 40.375 C 158.46875 40.375 158.335938 40.375 158.335938 39.851562 Z M 158.335938 32.445312 "/>
<path style=" stroke:none;fill-rule:nonzero;fill:rgb(0%,0%,0%);fill-opacity:1;" d="M 164.832031 36.644531 L 164.832031 39.851562 C 164.832031 40.375 164.699219 40.375 163.894531 40.375 L 163.894531 40.75 C 164.324219 40.730469 164.925781 40.710938 165.261719 40.710938 C 165.5625 40.710938 166.183594 40.730469 166.59375 40.75 L 166.59375 40.375 C 165.789062 40.375 165.65625 40.375 165.65625 39.851562 L 165.65625 37.636719 C 165.65625 36.398438 166.519531 35.726562 167.269531 35.726562 C 168.039062 35.726562 168.167969 36.363281 168.167969 37.054688 L 168.167969 39.851562 C 168.167969 40.375 168.039062 40.375 167.230469 40.375 L 167.230469 40.75 C 167.644531 40.730469 168.261719 40.710938 168.582031 40.710938 C 168.882812 40.710938 169.519531 40.730469 169.914062 40.75 L 169.914062 40.375 C 169.125 40.375 168.996094 40.375 168.996094 39.851562 L 168.996094 37.636719 C 168.996094 36.398438 169.839844 35.726562 170.605469 35.726562 C 171.355469 35.726562 171.488281 36.363281 171.488281 37.054688 L 171.488281 39.851562 C 171.488281 40.375 171.355469 40.375 170.550781 40.375 L 170.550781 40.75 C 170.964844 40.730469 171.582031 40.710938 171.902344 40.710938 C 172.21875 40.710938 172.839844 40.730469 173.25 40.75 L 173.25 40.375 C 172.632812 40.375 172.332031 40.375 172.3125 40.019531 L 172.3125 37.730469 C 172.3125 36.699219 172.3125 36.34375 171.9375 35.914062 C 171.769531 35.707031 171.375 35.460938 170.683594 35.460938 C 169.6875 35.460938 169.144531 36.175781 168.957031 36.644531 C 168.789062 35.59375 167.90625 35.460938 167.363281 35.460938 C 166.480469 35.460938 165.917969 35.96875 165.582031 36.71875 L 165.582031 35.460938 L 163.894531 35.59375 L 163.894531 35.96875 C 164.738281 35.96875 164.832031 36.042969 164.832031 36.644531 Z M 164.832031 36.644531 "/>
<path style=" stroke:none;fill-rule:nonzero;fill:rgb(0%,0%,0%);fill-opacity:1;" d="M 177.457031 39.851562 C 177.511719 40.320312 177.832031 40.824219 178.394531 40.824219 C 178.65625 40.824219 179.386719 40.65625 179.386719 39.679688 L 179.386719 39.007812 L 179.085938 39.007812 L 179.085938 39.679688 C 179.085938 40.375 178.789062 40.449219 178.65625 40.449219 C 178.261719 40.449219 178.207031 39.90625 178.207031 39.851562 L 178.207031 37.46875 C 178.207031 36.960938 178.207031 36.492188 177.773438 36.042969 C 177.304688 35.574219 176.707031 35.386719 176.144531 35.386719 C 175.148438 35.386719 174.324219 35.949219 174.324219 36.738281 C 174.324219 37.09375 174.570312 37.300781 174.886719 37.300781 C 175.226562 37.300781 175.429688 37.054688 175.429688 36.757812 C 175.429688 36.605469 175.375 36.210938 174.8125 36.210938 C 175.148438 35.78125 175.730469 35.648438 176.105469 35.648438 C 176.707031 35.648438 177.382812 36.117188 177.382812 37.1875 L 177.382812 37.617188 C 176.761719 37.65625 175.9375 37.695312 175.1875 38.050781 C 174.289062 38.460938 173.988281 39.082031 173.988281 39.605469 C 173.988281 40.582031 175.148438 40.882812 175.898438 40.882812 C 176.6875 40.882812 177.230469 40.394531 177.457031 39.851562 Z M 177.382812 37.882812 L 177.382812 39.082031 C 177.382812 40.207031 176.519531 40.617188 175.976562 40.617188 C 175.394531 40.617188 174.90625 40.207031 174.90625 39.605469 C 174.90625 38.949219 175.414062 37.957031 177.382812 37.882812 Z M 177.382812 37.882812 "/>
<path style=" stroke:none;fill-rule:nonzero;fill:rgb(0%,0%,0%);fill-opacity:1;" d="M 182.890625 37.9375 C 183.246094 37.488281 183.695312 36.90625 183.996094 36.585938 C 184.371094 36.15625 184.859375 35.96875 185.421875 35.96875 L 185.421875 35.59375 C 185.101562 35.613281 184.746094 35.632812 184.425781 35.632812 C 184.070312 35.632812 183.433594 35.613281 183.285156 35.59375 L 183.285156 35.96875 C 183.546875 35.988281 183.640625 36.136719 183.640625 36.34375 C 183.640625 36.53125 183.507812 36.679688 183.453125 36.757812 L 182.722656 37.695312 L 181.785156 36.476562 C 181.671875 36.363281 181.671875 36.34375 181.671875 36.269531 C 181.671875 36.082031 181.859375 35.96875 182.082031 35.96875 L 182.082031 35.59375 C 181.785156 35.613281 180.996094 35.632812 180.789062 35.632812 C 180.546875 35.632812 179.984375 35.613281 179.664062 35.59375 L 179.664062 35.96875 C 180.507812 35.96875 180.507812 35.96875 181.070312 36.699219 L 182.253906 38.238281 L 181.128906 39.664062 C 180.566406 40.355469 179.851562 40.375 179.609375 40.375 L 179.609375 40.75 C 179.910156 40.730469 180.285156 40.710938 180.601562 40.710938 C 180.941406 40.710938 181.445312 40.730469 181.726562 40.75 L 181.726562 40.375 C 181.464844 40.335938 181.390625 40.1875 181.390625 40 C 181.390625 39.738281 181.726562 39.34375 182.457031 38.480469 L 183.378906 39.679688 C 183.472656 39.8125 183.621094 40 183.621094 40.074219 C 183.621094 40.1875 183.507812 40.375 183.191406 40.375 L 183.191406 40.75 C 183.546875 40.730469 184.222656 40.710938 184.484375 40.710938 C 184.800781 40.710938 185.269531 40.730469 185.628906 40.75 L 185.628906 40.375 C 184.988281 40.375 184.765625 40.355469 184.503906 40 Z M 182.890625 37.9375 "/>
<path style=" stroke:none;fill-rule:nonzero;fill:rgb(0%,0%,0%);fill-opacity:1;" d="M 187.886719 35.460938 L 186.21875 35.59375 L 186.21875 35.96875 C 186.988281 35.96875 187.101562 36.042969 187.101562 36.625 L 187.101562 39.851562 C 187.101562 40.375 186.96875 40.375 186.164062 40.375 L 186.164062 40.75 C 186.539062 40.730469 187.195312 40.710938 187.476562 40.710938 C 187.90625 40.710938 188.320312 40.730469 188.730469 40.75 L 188.730469 40.375 C 187.925781 40.375 187.886719 40.320312 187.886719 39.851562 Z M 187.925781 33.382812 C 187.925781 33.007812 187.644531 32.742188 187.304688 32.742188 C 186.929688 32.742188 186.667969 33.0625 186.667969 33.382812 C 186.667969 33.699219 186.929688 34.019531 187.304688 34.019531 C 187.644531 34.019531 187.925781 33.757812 187.925781 33.382812 Z M 187.925781 33.382812 "/>
<path style=" stroke:none;fill-rule:nonzero;fill:rgb(0%,0%,0%);fill-opacity:1;" d="M 190.402344 36.644531 L 190.402344 39.851562 C 190.402344 40.375 190.269531 40.375 189.464844 40.375 L 189.464844 40.75 C 189.894531 40.730469 190.496094 40.710938 190.832031 40.710938 C 191.132812 40.710938 191.753906 40.730469 192.164062 40.75 L 192.164062 40.375 C 191.359375 40.375 191.226562 40.375 191.226562 39.851562 L 191.226562 37.636719 C 191.226562 36.398438 192.089844 35.726562 192.839844 35.726562 C 193.609375 35.726562 193.738281 36.363281 193.738281 37.054688 L 193.738281 39.851562 C 193.738281 40.375 193.609375 40.375 192.800781 40.375 L 192.800781 40.75 C 193.214844 40.730469 193.832031 40.710938 194.152344 40.710938 C 194.453125 40.710938 195.089844 40.730469 195.484375 40.75 L 195.484375 40.375 C 194.695312 40.375 194.566406 40.375 194.566406 39.851562 L 194.566406 37.636719 C 194.566406 36.398438 195.410156 35.726562 196.175781 35.726562 C 196.925781 35.726562 197.058594 36.363281 197.058594 37.054688 L 197.058594 39.851562 C 197.058594 40.375 196.925781 40.375 196.121094 40.375 L 196.121094 40.75 C 196.535156 40.730469 197.152344 40.710938 197.472656 40.710938 C 197.789062 40.710938 198.410156 40.730469 198.820312 40.75 L 198.820312 40.375 C 198.203125 40.375 197.902344 40.375 197.882812 40.019531 L 197.882812 37.730469 C 197.882812 36.699219 197.882812 36.34375 197.507812 35.914062 C 197.339844 35.707031 196.945312 35.460938 196.253906 35.460938 C 195.257812 35.460938 194.714844 36.175781 194.527344 36.644531 C 194.359375 35.59375 193.476562 35.460938 192.933594 35.460938 C 192.050781 35.460938 191.488281 35.96875 191.152344 36.71875 L 191.152344 35.460938 L 189.464844 35.59375 L 189.464844 35.96875 C 190.308594 35.96875 190.402344 36.042969 190.402344 36.644531 Z M 190.402344 36.644531 "/>
<path style=" stroke:none;fill-rule:nonzero;fill:rgb(0%,0%,0%);fill-opacity:1;" d="M 203.027344 39.851562 C 203.082031 40.320312 203.402344 40.824219 203.964844 40.824219 C 204.226562 40.824219 204.957031 40.65625 204.957031 39.679688 L 204.957031 39.007812 L 204.660156 39.007812 L 204.660156 39.679688 C 204.660156 40.375 204.359375 40.449219 204.226562 40.449219 C 203.832031 40.449219 203.777344 39.90625 203.777344 39.851562 L 203.777344 37.46875 C 203.777344 36.960938 203.777344 36.492188 203.347656 36.042969 C 202.878906 35.574219 202.277344 35.386719 201.714844 35.386719 C 200.722656 35.386719 199.894531 35.949219 199.894531 36.738281 C 199.894531 37.09375 200.140625 37.300781 200.457031 37.300781 C 200.796875 37.300781 201.003906 37.054688 201.003906 36.757812 C 201.003906 36.605469 200.945312 36.210938 200.382812 36.210938 C 200.722656 35.78125 201.300781 35.648438 201.675781 35.648438 C 202.277344 35.648438 202.953125 36.117188 202.953125 37.1875 L 202.953125 37.617188 C 202.332031 37.65625 201.507812 37.695312 200.757812 38.050781 C 199.859375 38.460938 199.558594 39.082031 199.558594 39.605469 C 199.558594 40.582031 200.722656 40.882812 201.472656 40.882812 C 202.257812 40.882812 202.800781 40.394531 203.027344 39.851562 Z M 202.953125 37.882812 L 202.953125 39.082031 C 202.953125 40.207031 202.089844 40.617188 201.546875 40.617188 C 200.964844 40.617188 200.476562 40.207031 200.476562 39.605469 C 200.476562 38.949219 200.984375 37.957031 202.953125 37.882812 Z M 202.953125 37.882812 "/>
<path style=" stroke:none;fill-rule:nonzero;fill:rgb(0%,0%,0%);fill-opacity:1;" d="M 44.632812 9.242188 C 43.582031 9.242188 43.582031 8.042969 43.582031 7.78125 C 43.582031 7.460938 43.601562 7.070312 43.769531 6.769531 C 43.863281 6.636719 44.144531 6.300781 44.632812 6.300781 C 45.664062 6.300781 45.664062 7.480469 45.664062 7.761719 C 45.664062 8.082031 45.664062 8.476562 45.476562 8.773438 C 45.382812 8.90625 45.101562 9.242188 44.632812 9.242188 Z M 43.242188 9.710938 C 43.242188 9.675781 43.242188 9.394531 43.429688 9.148438 C 43.898438 9.488281 44.40625 9.523438 44.632812 9.523438 C 45.738281 9.523438 46.5625 8.699219 46.5625 7.78125 C 46.5625 7.332031 46.375 6.898438 46.074219 6.617188 C 46.507812 6.207031 46.9375 6.148438 47.144531 6.148438 C 47.179688 6.148438 47.238281 6.148438 47.273438 6.167969 C 47.144531 6.207031 47.070312 6.335938 47.070312 6.488281 C 47.070312 6.695312 47.238281 6.824219 47.425781 6.824219 C 47.539062 6.824219 47.761719 6.75 47.761719 6.46875 C 47.761719 6.261719 47.632812 5.886719 47.164062 5.886719 C 46.917969 5.886719 46.394531 5.960938 45.886719 6.449219 C 45.382812 6.054688 44.894531 6.019531 44.632812 6.019531 C 43.507812 6.019531 42.679688 6.84375 42.679688 7.761719 C 42.679688 8.289062 42.945312 8.738281 43.242188 9 C 43.09375 9.167969 42.867188 9.5625 42.867188 9.992188 C 42.867188 10.367188 43.039062 10.820312 43.414062 11.0625 C 42.679688 11.25 42.304688 11.773438 42.304688 12.242188 C 42.304688 13.105469 43.488281 13.761719 44.949219 13.761719 C 46.355469 13.761719 47.59375 13.164062 47.59375 12.226562 C 47.59375 11.8125 47.445312 11.195312 46.824219 10.855469 C 46.1875 10.539062 45.492188 10.539062 44.761719 10.539062 C 44.460938 10.539062 43.957031 10.539062 43.863281 10.519531 C 43.488281 10.460938 43.242188 10.105469 43.242188 9.710938 Z M 44.96875 13.5 C 43.75 13.5 42.925781 12.882812 42.925781 12.242188 C 42.925781 11.699219 43.375 11.25 43.898438 11.230469 L 44.613281 11.230469 C 45.644531 11.230469 46.976562 11.230469 46.976562 12.242188 C 46.976562 12.898438 46.132812 13.5 44.96875 13.5 Z M 44.96875 13.5 "/>
<path style=" stroke:none;fill-rule:nonzero;fill:rgb(0%,0%,0%);fill-opacity:1;" d="M 50.066406 3 L 48.339844 3.132812 L 48.339844 3.507812 C 49.183594 3.507812 49.277344 3.582031 49.277344 4.179688 L 49.277344 10.40625 C 49.277344 10.929688 49.144531 10.929688 48.339844 10.929688 L 48.339844 11.304688 C 48.734375 11.289062 49.371094 11.269531 49.671875 11.269531 C 49.972656 11.269531 50.550781 11.289062 51.003906 11.304688 L 51.003906 10.929688 C 50.195312 10.929688 50.066406 10.929688 50.066406 10.40625 Z M 50.066406 3 "/>
<path style=" stroke:none;fill-rule:nonzero;fill:rgb(0%,0%,0%);fill-opacity:1;" d="M 56.894531 8.738281 C 56.894531 7.21875 55.710938 5.945312 54.269531 5.945312 C 52.769531 5.945312 51.605469 7.257812 51.605469 8.738281 C 51.605469 10.292969 52.84375 11.4375 54.25 11.4375 C 55.691406 11.4375 56.894531 10.257812 56.894531 8.738281 Z M 54.269531 11.136719 C 53.742188 11.136719 53.21875 10.894531 52.898438 10.332031 C 52.597656 9.804688 52.597656 9.074219 52.597656 8.644531 C 52.597656 8.175781 52.597656 7.539062 52.878906 7.011719 C 53.199219 6.46875 53.761719 6.207031 54.25 6.207031 C 54.773438 6.207031 55.28125 6.46875 55.597656 6.992188 C 55.917969 7.5 55.917969 8.195312 55.917969 8.644531 C 55.917969 9.074219 55.917969 9.730469 55.65625 10.257812 C 55.375 10.800781 54.847656 11.136719 54.269531 11.136719 Z M 54.269531 11.136719 "/>
<path style=" stroke:none;fill-rule:nonzero;fill:rgb(0%,0%,0%);fill-opacity:1;" d="M 59.308594 6.789062 L 59.308594 3 L 57.582031 3.132812 L 57.582031 3.507812 C 58.425781 3.507812 58.519531 3.582031 58.519531 4.179688 L 58.519531 11.304688 L 58.820312 11.304688 C 58.820312 11.289062 58.914062 11.117188 59.25 10.554688 C 59.421875 10.835938 59.925781 11.4375 60.808594 11.4375 C 62.234375 11.4375 63.46875 10.257812 63.46875 8.71875 C 63.46875 7.199219 62.308594 6.019531 60.9375 6.019531 C 60 6.019531 59.496094 6.582031 59.308594 6.789062 Z M 59.34375 9.9375 L 59.34375 7.480469 C 59.34375 7.257812 59.34375 7.238281 59.476562 7.050781 C 59.945312 6.375 60.601562 6.28125 60.882812 6.28125 C 61.425781 6.28125 61.859375 6.601562 62.140625 7.050781 C 62.457031 7.539062 62.476562 8.210938 62.476562 8.71875 C 62.476562 9.148438 62.457031 9.863281 62.121094 10.40625 C 61.859375 10.78125 61.40625 11.175781 60.769531 11.175781 C 60.226562 11.175781 59.796875 10.894531 59.515625 10.445312 C 59.34375 10.199219 59.34375 10.164062 59.34375 9.9375 Z M 59.34375 9.9375 "/>
<path style=" stroke:none;fill-rule:nonzero;fill:rgb(0%,0%,0%);fill-opacity:1;" d="M 67.863281 10.40625 C 67.917969 10.875 68.238281 11.382812 68.800781 11.382812 C 69.0625 11.382812 69.792969 11.210938 69.792969 10.238281 L 69.792969 9.5625 L 69.492188 9.5625 L 69.492188 10.238281 C 69.492188 10.929688 69.195312 11.007812 69.0625 11.007812 C 68.667969 11.007812 68.613281 10.460938 68.613281 10.40625 L 68.613281 8.023438 C 68.613281 7.519531 68.613281 7.050781 68.179688 6.601562 C 67.710938 6.132812 67.113281 5.945312 66.550781 5.945312 C 65.554688 5.945312 64.730469 6.507812 64.730469 7.292969 C 64.730469 7.648438 64.976562 7.855469 65.292969 7.855469 C 65.632812 7.855469 65.835938 7.613281 65.835938 7.3125 C 65.835938 7.164062 65.78125 6.769531 65.21875 6.769531 C 65.554688 6.335938 66.136719 6.207031 66.511719 6.207031 C 67.113281 6.207031 67.789062 6.675781 67.789062 7.742188 L 67.789062 8.175781 C 67.167969 8.210938 66.34375 8.25 65.59375 8.605469 C 64.695312 9.019531 64.394531 9.636719 64.394531 10.164062 C 64.394531 11.136719 65.554688 11.4375 66.304688 11.4375 C 67.09375 11.4375 67.636719 10.949219 67.863281 10.40625 Z M 67.789062 8.4375 L 67.789062 9.636719 C 67.789062 10.761719 66.925781 11.175781 66.382812 11.175781 C 65.800781 11.175781 65.3125 10.761719 65.3125 10.164062 C 65.3125 9.507812 65.820312 8.511719 67.789062 8.4375 Z M 67.789062 8.4375 "/>
<path style=" stroke:none;fill-rule:nonzero;fill:rgb(0%,0%,0%);fill-opacity:1;" d="M 71.984375 3 L 70.257812 3.132812 L 70.257812 3.507812 C 71.101562 3.507812 71.195312 3.582031 71.195312 4.179688 L 71.195312 10.40625 C 71.195312 10.929688 71.066406 10.929688 70.257812 10.929688 L 70.257812 11.304688 C 70.652344 11.289062 71.289062 11.269531 71.589844 11.269531 C 71.890625 11.269531 72.472656 11.289062 72.921875 11.304688 L 72.921875 10.929688 C 72.113281 10.929688 71.984375 10.929688 71.984375 10.40625 Z M 71.984375 3 "/>
<path style=" stroke:none;fill-rule:nonzero;fill:rgb(0%,0%,0%);fill-opacity:1;" d="M 78.480469 7.199219 L 78.480469 10.40625 C 78.480469 10.929688 78.347656 10.929688 77.542969 10.929688 L 77.542969 11.304688 C 77.972656 11.289062 78.574219 11.269531 78.910156 11.269531 C 79.210938 11.269531 79.828125 11.289062 80.242188 11.304688 L 80.242188 10.929688 C 79.4375 10.929688 79.304688 10.929688 79.304688 10.40625 L 79.304688 8.195312 C 79.304688 6.957031 80.167969 6.28125 80.917969 6.28125 C 81.6875 6.28125 81.816406 6.917969 81.816406 7.613281 L 81.816406 10.40625 C 81.816406 10.929688 81.6875 10.929688 80.878906 10.929688 L 80.878906 11.304688 C 81.292969 11.289062 81.910156 11.269531 82.230469 11.269531 C 82.53125 11.269531 83.167969 11.289062 83.5625 11.304688 L 83.5625 10.929688 C 82.773438 10.929688 82.640625 10.929688 82.640625 10.40625 L 82.640625 8.195312 C 82.640625 6.957031 83.484375 6.28125 84.253906 6.28125 C 85.003906 6.28125 85.136719 6.917969 85.136719 7.613281 L 85.136719 10.40625 C 85.136719 10.929688 85.003906 10.929688 84.199219 10.929688 L 84.199219 11.304688 C 84.609375 11.289062 85.230469 11.269531 85.546875 11.269531 C 85.867188 11.269531 86.484375 11.289062 86.898438 11.304688 L 86.898438 10.929688 C 86.28125 10.929688 85.980469 10.929688 85.960938 10.574219 L 85.960938 8.289062 C 85.960938 7.257812 85.960938 6.898438 85.585938 6.46875 C 85.417969 6.261719 85.023438 6.019531 84.328125 6.019531 C 83.335938 6.019531 82.792969 6.730469 82.605469 7.199219 C 82.4375 6.148438 81.554688 6.019531 81.011719 6.019531 C 80.128906 6.019531 79.566406 6.523438 79.230469 7.273438 L 79.230469 6.019531 L 77.542969 6.148438 L 77.542969 6.523438 C 78.386719 6.523438 78.480469 6.601562 78.480469 7.199219 Z M 78.480469 7.199219 "/>
<path style=" stroke:none;fill-rule:nonzero;fill:rgb(0%,0%,0%);fill-opacity:1;" d="M 91.105469 10.40625 C 91.160156 10.875 91.480469 11.382812 92.042969 11.382812 C 92.304688 11.382812 93.035156 11.210938 93.035156 10.238281 L 93.035156 9.5625 L 92.734375 9.5625 L 92.734375 10.238281 C 92.734375 10.929688 92.4375 11.007812 92.304688 11.007812 C 91.910156 11.007812 91.855469 10.460938 91.855469 10.40625 L 91.855469 8.023438 C 91.855469 7.519531 91.855469 7.050781 91.421875 6.601562 C 90.953125 6.132812 90.355469 5.945312 89.792969 5.945312 C 88.796875 5.945312 87.972656 6.507812 87.972656 7.292969 C 87.972656 7.648438 88.21875 7.855469 88.535156 7.855469 C 88.875 7.855469 89.078125 7.613281 89.078125 7.3125 C 89.078125 7.164062 89.023438 6.769531 88.460938 6.769531 C 88.796875 6.335938 89.378906 6.207031 89.753906 6.207031 C 90.355469 6.207031 91.03125 6.675781 91.03125 7.742188 L 91.03125 8.175781 C 90.410156 8.210938 89.585938 8.25 88.835938 8.605469 C 87.9375 9.019531 87.636719 9.636719 87.636719 10.164062 C 87.636719 11.136719 88.796875 11.4375 89.546875 11.4375 C 90.335938 11.4375 90.878906 10.949219 91.105469 10.40625 Z M 91.03125 8.4375 L 91.03125 9.636719 C 91.03125 10.761719 90.167969 11.175781 89.625 11.175781 C 89.042969 11.175781 88.554688 10.761719 88.554688 10.164062 C 88.554688 9.507812 89.0625 8.511719 91.03125 8.4375 Z M 91.03125 8.4375 "/>
<path style=" stroke:none;fill-rule:nonzero;fill:rgb(0%,0%,0%);fill-opacity:1;" d="M 96.539062 8.492188 C 96.894531 8.042969 97.34375 7.460938 97.644531 7.144531 C 98.019531 6.710938 98.507812 6.523438 99.070312 6.523438 L 99.070312 6.148438 C 98.75 6.167969 98.394531 6.1875 98.074219 6.1875 C 97.71875 6.1875 97.082031 6.167969 96.933594 6.148438 L 96.933594 6.523438 C 97.195312 6.542969 97.289062 6.695312 97.289062 6.898438 C 97.289062 7.085938 97.15625 7.238281 97.101562 7.3125 L 96.371094 8.25 L 95.433594 7.03125 C 95.320312 6.917969 95.320312 6.898438 95.320312 6.824219 C 95.320312 6.636719 95.507812 6.523438 95.730469 6.523438 L 95.730469 6.148438 C 95.433594 6.167969 94.644531 6.1875 94.4375 6.1875 C 94.195312 6.1875 93.632812 6.167969 93.3125 6.148438 L 93.3125 6.523438 C 94.15625 6.523438 94.15625 6.523438 94.71875 7.257812 L 95.902344 8.792969 L 94.777344 10.21875 C 94.214844 10.914062 93.5 10.929688 93.257812 10.929688 L 93.257812 11.304688 C 93.558594 11.289062 93.933594 11.269531 94.25 11.269531 C 94.589844 11.269531 95.09375 11.289062 95.375 11.304688 L 95.375 10.929688 C 95.113281 10.894531 95.039062 10.742188 95.039062 10.554688 C 95.039062 10.292969 95.375 9.898438 96.105469 9.039062 L 97.027344 10.238281 C 97.121094 10.367188 97.269531 10.554688 97.269531 10.632812 C 97.269531 10.742188 97.15625 10.929688 96.839844 10.929688 L 96.839844 11.304688 C 97.195312 11.289062 97.871094 11.269531 98.132812 11.269531 C 98.449219 11.269531 98.917969 11.289062 99.277344 11.304688 L 99.277344 10.929688 C 98.636719 10.929688 98.414062 10.914062 98.152344 10.554688 Z M 96.539062 8.492188 "/>
<path style=" stroke:none;fill-rule:nonzero;fill:rgb(0%,0%,0%);fill-opacity:1;" d="M 101.535156 6.019531 L 99.867188 6.148438 L 99.867188 6.523438 C 100.636719 6.523438 100.75 6.601562 100.75 7.179688 L 100.75 10.40625 C 100.75 10.929688 100.617188 10.929688 99.8125 10.929688 L 99.8125 11.304688 C 100.1875 11.289062 100.84375 11.269531 101.125 11.269531 C 101.554688 11.269531 101.96875 11.289062 102.378906 11.304688 L 102.378906 10.929688 C 101.574219 10.929688 101.535156 10.875 101.535156 10.40625 Z M 101.574219 3.9375 C 101.574219 3.5625 101.292969 3.300781 100.953125 3.300781 C 100.578125 3.300781 100.316406 3.617188 100.316406 3.9375 C 100.316406 4.257812 100.578125 4.574219 100.953125 4.574219 C 101.292969 4.574219 101.574219 4.3125 101.574219 3.9375 Z M 101.574219 3.9375 "/>
<path style=" stroke:none;fill-rule:nonzero;fill:rgb(0%,0%,0%);fill-opacity:1;" d="M 104.050781 7.199219 L 104.050781 10.40625 C 104.050781 10.929688 103.917969 10.929688 103.113281 10.929688 L 103.113281 11.304688 C 103.542969 11.289062 104.144531 11.269531 104.480469 11.269531 C 104.78125 11.269531 105.402344 11.289062 105.8125 11.304688 L 105.8125 10.929688 C 105.007812 10.929688 104.875 10.929688 104.875 10.40625 L 104.875 8.195312 C 104.875 6.957031 105.738281 6.28125 106.488281 6.28125 C 107.257812 6.28125 107.386719 6.917969 107.386719 7.613281 L 107.386719 10.40625 C 107.386719 10.929688 107.257812 10.929688 106.449219 10.929688 L 106.449219 11.304688 C 106.863281 11.289062 107.480469 11.269531 107.800781 11.269531 C 108.101562 11.269531 108.738281 11.289062 109.132812 11.304688 L 109.132812 10.929688 C 108.34375 10.929688 108.214844 10.929688 108.214844 10.40625 L 108.214844 8.195312 C 108.214844 6.957031 109.058594 6.28125 109.824219 6.28125 C 110.574219 6.28125 110.707031 6.917969 110.707031 7.613281 L 110.707031 10.40625 C 110.707031 10.929688 110.574219 10.929688 109.769531 10.929688 L 109.769531 11.304688 C 110.183594 11.289062 110.800781 11.269531 111.121094 11.269531 C 111.4375 11.269531 112.058594 11.289062 112.46875 11.304688 L 112.46875 10.929688 C 111.851562 10.929688 111.550781 10.929688 111.53125 10.574219 L 111.53125 8.289062 C 111.53125 7.257812 111.53125 6.898438 111.15625 6.46875 C 110.988281 6.261719 110.59375 6.019531 109.902344 6.019531 C 108.90625 6.019531 108.363281 6.730469 108.175781 7.199219 C 108.007812 6.148438 107.125 6.019531 106.582031 6.019531 C 105.699219 6.019531 105.136719 6.523438 104.800781 7.273438 L 104.800781 6.019531 L 103.113281 6.148438 L 103.113281 6.523438 C 103.957031 6.523438 104.050781 6.601562 104.050781 7.199219 Z M 104.050781 7.199219 "/>
<path style=" stroke:none;fill-rule:nonzero;fill:rgb(0%,0%,0%);fill-opacity:1;" d="M 117.046875 10.367188 L 117.046875 11.4375 L 118.769531 11.304688 L 118.769531 10.929688 C 117.945312 10.929688 117.851562 10.855469 117.851562 10.257812 L 117.851562 6.019531 L 116.089844 6.148438 L 116.089844 6.523438 C 116.914062 6.523438 117.027344 6.601562 117.027344 7.199219 L 117.027344 9.320312 C 117.027344 10.367188 116.445312 11.175781 115.566406 11.175781 C 114.570312 11.175781 114.515625 10.613281 114.515625 9.992188 L 114.515625 6.019531 L 112.753906 6.148438 L 112.753906 6.523438 C 113.691406 6.523438 113.691406 6.5625 113.691406 7.613281 L 113.691406 9.414062 C 113.691406 10.351562 113.691406 11.4375 115.507812 11.4375 C 116.183594 11.4375 116.707031 11.101562 117.046875 10.367188 Z M 117.046875 10.367188 "/>
<path style=" stroke:none;fill-rule:nonzero;fill:rgb(0%,0%,0%);fill-opacity:1;" d="M 120.320312 7.199219 L 120.320312 10.40625 C 120.320312 10.929688 120.1875 10.929688 119.382812 10.929688 L 119.382812 11.304688 C 119.8125 11.289062 120.414062 11.269531 120.75 11.269531 C 121.050781 11.269531 121.671875 11.289062 122.082031 11.304688 L 122.082031 10.929688 C 121.277344 10.929688 121.144531 10.929688 121.144531 10.40625 L 121.144531 8.195312 C 121.144531 6.957031 122.007812 6.28125 122.757812 6.28125 C 123.527344 6.28125 123.65625 6.917969 123.65625 7.613281 L 123.65625 10.40625 C 123.65625 10.929688 123.527344 10.929688 122.71875 10.929688 L 122.71875 11.304688 C 123.132812 11.289062 123.75 11.269531 124.070312 11.269531 C 124.371094 11.269531 125.007812 11.289062 125.402344 11.304688 L 125.402344 10.929688 C 124.613281 10.929688 124.484375 10.929688 124.484375 10.40625 L 124.484375 8.195312 C 124.484375 6.957031 125.328125 6.28125 126.09375 6.28125 C 126.84375 6.28125 126.976562 6.917969 126.976562 7.613281 L 126.976562 10.40625 C 126.976562 10.929688 126.84375 10.929688 126.039062 10.929688 L 126.039062 11.304688 C 126.453125 11.289062 127.070312 11.269531 127.390625 11.269531 C 127.707031 11.269531 128.328125 11.289062 128.738281 11.304688 L 128.738281 10.929688 C 128.121094 10.929688 127.820312 10.929688 127.800781 10.574219 L 127.800781 8.289062 C 127.800781 7.257812 127.800781 6.898438 127.425781 6.46875 C 127.257812 6.261719 126.863281 6.019531 126.171875 6.019531 C 125.175781 6.019531 124.632812 6.730469 124.445312 7.199219 C 124.277344 6.148438 123.394531 6.019531 122.851562 6.019531 C 121.96875 6.019531 121.40625 6.523438 121.070312 7.273438 L 121.070312 6.019531 L 119.382812 6.148438 L 119.382812 6.523438 C 120.226562 6.523438 120.320312 6.601562 120.320312 7.199219 Z M 120.320312 7.199219 "/>
<path style="fill:none;stroke-width:4;stroke-linecap:butt;stroke-linejoin:miter;stroke:rgb(100%,0%,0%);stroke-opacity:1;stroke-miterlimit:4;" d="M 855.234375 1232.382812 L 855.234375 1184.375 L 903.242188 1136.367188 " transform="matrix(0.1,0,0,-0.1,0,137)"/>
<path style="fill-rule:evenodd;fill:rgb(100%,0%,0%);fill-opacity:1;stroke-width:1.06667;stroke-linecap:butt;stroke-linejoin:miter;stroke:rgb(100%,0%,0%);stroke-opacity:1;stroke-miterlimit:4;" d="M 855.234375 1228.4375 C 853.007812 1228.4375 851.210938 1230.234375 851.210938 1232.460938 C 851.210938 1234.648438 853.007812 1236.445312 855.234375 1236.445312 C 857.421875 1236.445312 859.21875 1234.648438 859.21875 1232.460938 C 859.21875 1230.234375 857.421875 1228.4375 855.234375 1228.4375 Z M 855.234375 1228.4375 " transform="matrix(0.1,0,0,-0.1,0,137)"/>
<path style="fill-rule:evenodd;fill:rgb(100%,0%,0%);fill-opacity:1;stroke-width:2.13333;stroke-linecap:butt;stroke-linejoin:miter;stroke:rgb(100%,0%,0%);stroke-opacity:1;stroke-miterlimit:4;" d="M 891.914062 1147.695312 L 880.585938 1147.695312 L 906.054688 1133.554688 L 891.914062 1158.984375 Z M 891.914062 1147.695312 " transform="matrix(0.1,0,0,-0.1,0,137)"/>
</g>
</svg>
