<?xml version="1.0" encoding="UTF-8"?>
<svg xmlns="http://www.w3.org/2000/svg" xmlns:xlink="http://www.w3.org/1999/xlink" width="307.786255pt" height="104.655243pt" viewBox="0 0 307.786255 104.655243" version="1.1">
<defs>
<clipPath id="clip1">
  <path d="M 8 0 L 10 0 L 10 104.65625 L 8 104.65625 Z M 8 0 "/>
</clipPath>
<clipPath id="clip2">
  <path d="M 177 0 L 179 0 L 179 104.65625 L 177 104.65625 Z M 177 0 "/>
</clipPath>
<clipPath id="clip3">
  <path d="M 168 90 L 307.785156 90 L 307.785156 91 L 168 91 Z M 168 90 "/>
</clipPath>
</defs>
<g id="surface1">
<path style="fill:none;stroke-width:0.8;stroke-linecap:butt;stroke-linejoin:miter;stroke:rgb(0%,0%,0%);stroke-opacity:1;stroke-miterlimit:4;" d="M 16.238281 56.574219 C 16.238281 56.574219 26.949219 26.804688 50.800781 26.578125 C 74.652344 26.355469 124.894531 55.582031 124.894531 55.582031 "/>
<g clip-path="url(#clip1)" clip-rule="nonzero">
<path style="fill:none;stroke-width:0.8;stroke-linecap:butt;stroke-linejoin:miter;stroke:rgb(100%,0%,0%);stroke-opacity:1;stroke-miterlimit:4;" d="M 9.234375 0 L 9.234375 104.65625 "/>
</g>
<path style="fill:none;stroke-width:0.8;stroke-linecap:butt;stroke-linejoin:miter;stroke:rgb(100%,0%,0%);stroke-opacity:1;stroke-miterlimit:4;" d="M 138.765625 90.496094 L 0 90.496094 "/>
<path style="fill:none;stroke-width:0.8;stroke-linecap:butt;stroke-linejoin:miter;stroke:rgb(0%,0%,0%);stroke-opacity:1;stroke-dasharray:0.8,3.2;stroke-miterlimit:4;" d="M 15.441406 55.980469 L 126.679688 55.980469 "/>
<path style="fill-rule:nonzero;fill:rgb(0%,0%,100%);fill-opacity:1;stroke-width:0.8;stroke-linecap:round;stroke-linejoin:round;stroke:rgb(0%,0%,0%);stroke-opacity:1;stroke-miterlimit:4;" d="M 17.628906 56.175781 C 17.628906 57.273438 16.738281 58.164062 15.640625 58.164062 C 14.542969 58.164062 13.65625 57.273438 13.65625 56.175781 C 13.65625 55.082031 14.542969 54.191406 15.640625 54.191406 C 16.738281 54.191406 17.628906 55.082031 17.628906 56.175781 Z M 17.628906 56.175781 "/>
<path style="fill-rule:nonzero;fill:rgb(0%,0%,100%);fill-opacity:1;stroke-width:0.8;stroke-linecap:round;stroke-linejoin:round;stroke:rgb(0%,0%,0%);stroke-opacity:1;stroke-miterlimit:4;" d="M 126.484375 55.78125 C 126.484375 56.878906 125.59375 57.765625 124.496094 57.765625 C 123.398438 57.765625 122.511719 56.878906 122.511719 55.78125 C 122.511719 54.683594 123.398438 53.792969 124.496094 53.792969 C 125.59375 53.792969 126.484375 54.683594 126.484375 55.78125 Z M 126.484375 55.78125 "/>
<path style="fill:none;stroke-width:0.8;stroke-linecap:butt;stroke-linejoin:miter;stroke:rgb(0%,0%,100%);stroke-opacity:1;stroke-dasharray:0.8,2.4;stroke-miterlimit:4;" d="M 51.238281 26.753906 L 51.238281 89.253906 "/>
<path style="fill:none;stroke-width:0.8;stroke-linecap:butt;stroke-linejoin:miter;stroke:rgb(100%,0%,0%);stroke-opacity:1;stroke-miterlimit:4;" d="M 35.292969 25.636719 L 66.226562 25.636719 "/>
<path style=" stroke:none;fill-rule:nonzero;fill:rgb(0%,0%,0%);fill-opacity:1;" d="M 18.976562 81.902344 C 18.753906 81.453125 18.414062 81.132812 17.871094 81.132812 C 16.484375 81.132812 15.003906 82.894531 15.003906 84.640625 C 15.003906 85.765625 15.660156 86.550781 16.578125 86.550781 C 16.820312 86.550781 17.421875 86.496094 18.132812 85.652344 C 18.226562 86.160156 18.660156 86.550781 19.222656 86.550781 C 19.652344 86.550781 19.914062 86.269531 20.121094 85.894531 C 20.308594 85.464844 20.476562 84.734375 20.476562 84.714844 C 20.476562 84.582031 20.367188 84.582031 20.328125 84.582031 C 20.214844 84.582031 20.195312 84.640625 20.160156 84.808594 C 19.953125 85.578125 19.746094 86.289062 19.257812 86.289062 C 18.921875 86.289062 18.902344 85.972656 18.902344 85.746094 C 18.902344 85.484375 18.921875 85.371094 19.054688 84.847656 C 19.183594 84.359375 19.203125 84.226562 19.316406 83.777344 L 19.746094 82.109375 C 19.820312 81.769531 19.820312 81.753906 19.820312 81.695312 C 19.820312 81.488281 19.691406 81.378906 19.484375 81.378906 C 19.183594 81.378906 19.015625 81.640625 18.976562 81.902344 Z M 18.210938 84.996094 C 18.132812 85.222656 18.132812 85.238281 17.964844 85.445312 C 17.441406 86.101562 16.953125 86.289062 16.617188 86.289062 C 16.015625 86.289062 15.847656 85.632812 15.847656 85.164062 C 15.847656 84.566406 16.222656 83.101562 16.503906 82.539062 C 16.878906 81.847656 17.402344 81.394531 17.890625 81.394531 C 18.660156 81.394531 18.828125 82.371094 18.828125 82.445312 C 18.828125 82.519531 18.808594 82.597656 18.789062 82.652344 Z M 18.210938 84.996094 "/>
<path style=" stroke:none;fill-rule:nonzero;fill:rgb(0%,0%,0%);fill-opacity:1;" d="M 125.597656 79.753906 C 125.597656 79.753906 125.597656 79.625 125.449219 79.625 C 125.1875 79.625 124.304688 79.71875 123.984375 79.753906 C 123.890625 79.753906 123.761719 79.773438 123.761719 79.980469 C 123.761719 80.128906 123.875 80.128906 124.0625 80.128906 C 124.625 80.128906 124.640625 80.207031 124.640625 80.335938 C 124.640625 80.410156 124.546875 80.824219 124.492188 81.066406 L 123.5 84.96875 C 123.367188 85.566406 123.3125 85.773438 123.3125 86.1875 C 123.3125 87.3125 123.949219 88.0625 124.828125 88.0625 C 126.234375 88.0625 127.71875 86.28125 127.71875 84.554688 C 127.71875 83.46875 127.078125 82.644531 126.125 82.644531 C 125.578125 82.644531 125.074219 83 124.71875 83.355469 Z M 124.492188 84.273438 C 124.546875 84.011719 124.546875 83.992188 124.660156 83.863281 C 125.242188 83.09375 125.785156 82.90625 126.105469 82.90625 C 126.535156 82.90625 126.855469 83.261719 126.855469 84.03125 C 126.855469 84.742188 126.460938 86.113281 126.234375 86.5625 C 125.84375 87.367188 125.296875 87.800781 124.828125 87.800781 C 124.417969 87.800781 124.023438 87.480469 124.023438 86.597656 C 124.023438 86.355469 124.023438 86.128906 124.210938 85.378906 Z M 124.492188 84.273438 "/>
<path style=" stroke:none;fill-rule:nonzero;fill:rgb(0%,0%,0%);fill-opacity:1;" d="M 53.082031 94.804688 C 52.875 94.804688 52.726562 94.804688 52.558594 94.957031 C 52.351562 95.144531 52.332031 95.347656 52.332031 95.425781 C 52.332031 95.722656 52.558594 95.855469 52.78125 95.855469 C 53.121094 95.855469 53.4375 95.554688 53.4375 95.085938 C 53.4375 94.503906 52.875 94.054688 52.03125 94.054688 C 50.417969 94.054688 48.824219 95.761719 48.824219 97.449219 C 48.824219 98.535156 49.519531 99.472656 50.777344 99.472656 C 52.480469 99.472656 53.476562 98.199219 53.476562 98.066406 C 53.476562 97.992188 53.417969 97.898438 53.34375 97.898438 C 53.269531 97.898438 53.25 97.9375 53.175781 98.03125 C 52.238281 99.210938 50.925781 99.210938 50.792969 99.210938 C 50.042969 99.210938 49.707031 98.628906 49.707031 97.898438 C 49.707031 97.410156 49.949219 96.25 50.363281 95.519531 C 50.738281 94.824219 51.394531 94.316406 52.050781 94.316406 C 52.445312 94.316406 52.914062 94.46875 53.082031 94.804688 Z M 53.082031 94.804688 "/>
<g clip-path="url(#clip2)" clip-rule="nonzero">
<path style="fill:none;stroke-width:0.8;stroke-linecap:butt;stroke-linejoin:miter;stroke:rgb(100%,0%,0%);stroke-opacity:1;stroke-miterlimit:4;" d="M 178.257812 0 L 178.257812 104.65625 "/>
</g>
<g clip-path="url(#clip3)" clip-rule="nonzero">
<path style="fill:none;stroke-width:0.8;stroke-linecap:butt;stroke-linejoin:miter;stroke:rgb(100%,0%,0%);stroke-opacity:1;stroke-miterlimit:4;" d="M 307.785156 90.496094 L 169.023438 90.496094 "/>
</g>
<path style="fill:none;stroke-width:0.769127;stroke-linecap:butt;stroke-linejoin:miter;stroke:rgb(0%,0%,0%);stroke-opacity:1;stroke-miterlimit:4;" d="M 158.033721 116.059815 C 158.033721 116.059815 168.329306 87.439655 191.261875 87.224833 C 214.195476 87.0064 262.494385 115.105249 262.494385 115.105249 " transform="matrix(1,-0.286166,0.286166,1,0,0)"/>
<path style="fill:none;stroke-width:0.769127;stroke-linecap:butt;stroke-linejoin:miter;stroke:rgb(0%,0%,0%);stroke-opacity:1;stroke-dasharray:0.769127,3.076509;stroke-miterlimit:4;" d="M 157.268427 115.485345 L 264.213065 115.487702 " transform="matrix(1,-0.286166,0.286166,1,0,0)"/>
<path style="fill-rule:nonzero;fill:rgb(0%,0%,100%);fill-opacity:1;stroke-width:0.769127;stroke-linecap:round;stroke-linejoin:round;stroke:rgb(0%,0%,0%);stroke-opacity:1;stroke-miterlimit:4;" d="M 159.369954 115.676575 C 159.368997 116.730989 158.514378 117.587988 157.459964 117.587032 C 156.404517 117.589686 155.548551 116.731457 155.549507 115.677043 C 155.550463 114.622629 156.404049 113.76924 157.459496 113.766585 C 158.51391 113.767542 159.37091 114.622161 159.369954 115.676575 Z M 159.369954 115.676575 " transform="matrix(1,-0.286166,0.286166,1,0,0)"/>
<path style="fill-rule:nonzero;fill:rgb(0%,0%,100%);fill-opacity:1;stroke-width:0.769127;stroke-linecap:round;stroke-linejoin:round;stroke:rgb(0%,0%,0%);stroke-opacity:1;stroke-miterlimit:4;" d="M 264.021761 115.296239 C 264.024416 116.351686 263.167219 117.204042 262.111772 117.206696 C 261.057358 117.20574 260.203969 116.352154 260.204926 115.29774 C 260.202271 114.242293 261.060501 113.386327 262.114915 113.387283 C 263.169329 113.388239 264.022718 114.241825 264.021761 115.296239 Z M 264.021761 115.296239 " transform="matrix(1,-0.286166,0.286166,1,0,0)"/>
<path style="fill:none;stroke-width:0.8;stroke-linecap:butt;stroke-linejoin:miter;stroke:rgb(0%,0%,100%);stroke-opacity:1;stroke-dasharray:0.8,2.4;stroke-miterlimit:4;" d="M 213.859375 33.488281 L 213.859375 89.253906 "/>
<path style="fill:none;stroke-width:0.8;stroke-linecap:butt;stroke-linejoin:miter;stroke:rgb(100%,0%,0%);stroke-opacity:1;stroke-miterlimit:4;" d="M 199.617188 37.183594 L 228.816406 26.976562 "/>
<path style=" stroke:none;fill-rule:nonzero;fill:rgb(0%,0%,0%);fill-opacity:1;" d="M 191.808594 81.902344 C 191.582031 81.453125 191.246094 81.132812 190.703125 81.132812 C 189.316406 81.132812 187.832031 82.894531 187.832031 84.640625 C 187.832031 85.765625 188.488281 86.550781 189.410156 86.550781 C 189.652344 86.550781 190.253906 86.496094 190.964844 85.652344 C 191.058594 86.160156 191.488281 86.550781 192.050781 86.550781 C 192.484375 86.550781 192.746094 86.269531 192.953125 85.894531 C 193.140625 85.464844 193.308594 84.734375 193.308594 84.714844 C 193.308594 84.582031 193.195312 84.582031 193.160156 84.582031 C 193.046875 84.582031 193.027344 84.640625 192.988281 84.808594 C 192.785156 85.578125 192.578125 86.289062 192.089844 86.289062 C 191.753906 86.289062 191.734375 85.972656 191.734375 85.746094 C 191.734375 85.484375 191.753906 85.371094 191.882812 84.847656 C 192.015625 84.359375 192.035156 84.226562 192.144531 83.777344 L 192.578125 82.109375 C 192.652344 81.769531 192.652344 81.753906 192.652344 81.695312 C 192.652344 81.488281 192.519531 81.378906 192.316406 81.378906 C 192.015625 81.378906 191.847656 81.640625 191.808594 81.902344 Z M 191.039062 84.996094 C 190.964844 85.222656 190.964844 85.238281 190.796875 85.445312 C 190.269531 86.101562 189.785156 86.289062 189.445312 86.289062 C 188.847656 86.289062 188.675781 85.632812 188.675781 85.164062 C 188.675781 84.566406 189.050781 83.101562 189.332031 82.539062 C 189.707031 81.847656 190.234375 81.394531 190.722656 81.394531 C 191.488281 81.394531 191.660156 82.371094 191.660156 82.445312 C 191.660156 82.519531 191.640625 82.597656 191.621094 82.652344 Z M 191.039062 84.996094 "/>
<path style=" stroke:none;fill-rule:nonzero;fill:rgb(0%,0%,0%);fill-opacity:1;" d="M 295.207031 79.753906 C 295.207031 79.753906 295.207031 79.625 295.058594 79.625 C 294.792969 79.625 293.914062 79.71875 293.59375 79.753906 C 293.5 79.753906 293.371094 79.773438 293.371094 79.980469 C 293.371094 80.128906 293.480469 80.128906 293.667969 80.128906 C 294.230469 80.128906 294.25 80.207031 294.25 80.335938 C 294.25 80.410156 294.15625 80.824219 294.101562 81.066406 L 293.105469 84.96875 C 292.976562 85.566406 292.917969 85.773438 292.917969 86.1875 C 292.917969 87.3125 293.558594 88.0625 294.4375 88.0625 C 295.84375 88.0625 297.324219 86.28125 297.324219 84.554688 C 297.324219 83.46875 296.6875 82.644531 295.730469 82.644531 C 295.1875 82.644531 294.683594 83 294.324219 83.355469 Z M 294.101562 84.273438 C 294.15625 84.011719 294.15625 83.992188 294.269531 83.863281 C 294.851562 83.09375 295.394531 82.90625 295.714844 82.90625 C 296.144531 82.90625 296.464844 83.261719 296.464844 84.03125 C 296.464844 84.742188 296.070312 86.113281 295.84375 86.5625 C 295.449219 87.367188 294.90625 87.800781 294.4375 87.800781 C 294.027344 87.800781 293.632812 87.480469 293.632812 86.597656 C 293.632812 86.355469 293.632812 86.128906 293.820312 85.378906 Z M 294.101562 84.273438 "/>
<path style=" stroke:none;fill-rule:nonzero;fill:rgb(0%,0%,0%);fill-opacity:1;" d="M 215.703125 94.804688 C 215.5 94.804688 215.347656 94.804688 215.179688 94.957031 C 214.972656 95.144531 214.953125 95.347656 214.953125 95.425781 C 214.953125 95.722656 215.179688 95.855469 215.40625 95.855469 C 215.742188 95.855469 216.0625 95.554688 216.0625 95.085938 C 216.0625 94.503906 215.5 94.054688 214.65625 94.054688 C 213.042969 94.054688 211.449219 95.761719 211.449219 97.449219 C 211.449219 98.535156 212.140625 99.472656 213.398438 99.472656 C 215.105469 99.472656 216.097656 98.199219 216.097656 98.066406 C 216.097656 97.992188 216.042969 97.898438 215.96875 97.898438 C 215.890625 97.898438 215.875 97.9375 215.796875 98.03125 C 214.859375 99.210938 213.546875 99.210938 213.417969 99.210938 C 212.667969 99.210938 212.328125 98.628906 212.328125 97.898438 C 212.328125 97.410156 212.574219 96.25 212.984375 95.519531 C 213.359375 94.824219 214.015625 94.316406 214.671875 94.316406 C 215.066406 94.316406 215.535156 94.46875 215.703125 94.804688 Z M 215.703125 94.804688 "/>
</g>
</svg>
