<?xml version="1.0" encoding="UTF-8"?>
<svg xmlns="http://www.w3.org/2000/svg" xmlns:xlink="http://www.w3.org/1999/xlink" width="463.199402pt" height="152.18718pt" viewBox="0 0 463.199402 152.18718" version="1.1">
<defs>
<filter id="alpha" filterUnits="objectBoundingBox" x="0%" y="0%" width="100%" height="100%">
  <feColorMatrix type="matrix" in="SourceGraphic" values="0 0 0 0 1 0 0 0 0 1 0 0 0 0 1 0 0 0 1 0"/>
</filter>
<clipPath id="clip1">
  <rect width="17" height="27"/>
</clipPath>
<g id="surface8" clip-path="url(#clip1)">
<rect x="0" y="0" width="17" height="27" style="fill:rgb(0%,0%,0%);fill-opacity:0.97;stroke:none;"/>
</g>
<mask id="mask0">
  <g filter="url(#alpha)">
<use xlink:href="#surface8"/>
  </g>
</mask>
<clipPath id="clip2">
  <rect width="17" height="27"/>
</clipPath>
<g id="surface10" clip-path="url(#clip2)">
<path style="fill:none;stroke-width:1.6;stroke-linecap:round;stroke-linejoin:round;stroke:rgb(100%,0%,0%);stroke-opacity:1;stroke-miterlimit:4;" d="M 22.90625 109.945312 C 29.386719 115.425781 33.550781 123.15625 34.566406 131.585938 " transform="matrix(1,0,0,1,-20,-108)"/>
<path style="fill-rule:evenodd;fill:rgb(100%,0%,0%);fill-opacity:1;stroke-width:0.30541;stroke-linecap:butt;stroke-linejoin:miter;stroke:rgb(100%,0%,0%);stroke-opacity:1;stroke-miterlimit:4;" d="M 69.028687 52.800235 L 70.2502 51.579599 L 65.974776 52.801152 L 70.251249 54.024024 Z M 69.028687 52.800235 " transform="matrix(1,0.845784,-0.845784,1,-20,-108)"/>
<path style="fill-rule:evenodd;fill:rgb(100%,0%,0%);fill-opacity:1;stroke-width:0.397133;stroke-linecap:butt;stroke-linejoin:miter;stroke:rgb(100%,0%,0%);stroke-opacity:1;stroke-miterlimit:4;" d="M -131.901606 18.45815 L -130.312249 16.872126 L -135.870679 18.460837 L -130.311732 20.04797 Z M -131.901606 18.45815 " transform="matrix(-0.120376,-1,1,-0.120376,-20,-108)"/>
</g>
<clipPath id="clip3">
  <rect width="10" height="23"/>
</clipPath>
<g id="surface14" clip-path="url(#clip3)">
<rect x="0" y="0" width="10" height="23" style="fill:rgb(0%,0%,0%);fill-opacity:0.97;stroke:none;"/>
</g>
<mask id="mask1">
  <g filter="url(#alpha)">
<use xlink:href="#surface14"/>
  </g>
</mask>
<clipPath id="clip4">
  <rect width="10" height="23"/>
</clipPath>
<g id="surface16" clip-path="url(#clip4)">
<path style="fill:none;stroke-width:1.6;stroke-linecap:round;stroke-linejoin:round;stroke:rgb(100%,0%,0%);stroke-opacity:1;stroke-miterlimit:4;" d="M -136.875 113.523438 C -133.796875 118.699219 -131.835938 124.457031 -131.117188 130.4375 " transform="matrix(-1,0,0,1,-129,-111)"/>
<path style="fill-rule:evenodd;fill:rgb(100%,0%,0%);fill-opacity:1;stroke-width:0.343818;stroke-linecap:butt;stroke-linejoin:miter;stroke:rgb(100%,0%,0%);stroke-opacity:1;stroke-miterlimit:4;" d="M 25.395435 150.993895 L 26.770773 149.620223 L 21.958315 150.993255 L 26.769107 152.369233 Z M 25.395435 150.993895 " transform="matrix(-0.59457,1,1,0.59457,-129,-111)"/>
<path style="fill-rule:evenodd;fill:rgb(100%,0%,0%);fill-opacity:1;stroke-width:0.397133;stroke-linecap:butt;stroke-linejoin:miter;stroke:rgb(100%,0%,0%);stroke-opacity:1;stroke-miterlimit:4;" d="M -111.110117 -144.722648 L -109.52076 -146.308671 L -115.07919 -144.71996 L -109.520243 -143.132827 Z M -111.110117 -144.722648 " transform="matrix(0.120376,-1,-1,-0.120376,-129,-111)"/>
</g>
<clipPath id="clip5">
  <rect width="38" height="12"/>
</clipPath>
<g id="surface20" clip-path="url(#clip5)">
<rect x="0" y="0" width="38" height="12" style="fill:rgb(0%,0%,0%);fill-opacity:0.97;stroke:none;"/>
</g>
<mask id="mask2">
  <g filter="url(#alpha)">
<use xlink:href="#surface20"/>
  </g>
</mask>
<clipPath id="clip6">
  <rect width="38" height="12"/>
</clipPath>
<g id="surface22" clip-path="url(#clip6)">
<path style="fill:none;stroke-width:1.6;stroke-linecap:round;stroke-linejoin:round;stroke:rgb(100%,0%,0%);stroke-opacity:1;stroke-miterlimit:4;" d="M 75.304688 46.644531 C 80.410156 57.601562 78.128906 70.585938 69.589844 79.144531 " transform="matrix(0,1,1,0,-44,-67)"/>
<path style="fill-rule:evenodd;fill:rgb(100%,0%,0%);fill-opacity:1;stroke-width:0.362567;stroke-linecap:butt;stroke-linejoin:miter;stroke:rgb(100%,0%,0%);stroke-opacity:1;stroke-miterlimit:4;" d="M 68.892805 -44.013898 L 70.341821 -45.463673 L 65.266964 -44.012094 L 70.341084 -42.561672 Z M 68.892805 -44.013898 " transform="matrix(1,0.465989,0.465989,-1,-44,-67)"/>
<path style="fill-rule:evenodd;fill:rgb(100%,0%,0%);fill-opacity:1;stroke-width:0.283208;stroke-linecap:butt;stroke-linejoin:miter;stroke:rgb(100%,0%,0%);stroke-opacity:1;stroke-miterlimit:4;" d="M -3.520513 74.456742 L -2.386732 73.325887 L -6.352291 74.456996 L -2.387704 75.592481 Z M -3.520513 74.456742 " transform="matrix(-1,0.99742,0.99742,1,-44,-67)"/>
</g>
<clipPath id="clip7">
  <path d="M 201 0 L 463.199219 0 L 463.199219 137 L 201 137 Z M 201 0 "/>
</clipPath>
<clipPath id="clip8">
  <rect width="16" height="27"/>
</clipPath>
<g id="surface26" clip-path="url(#clip8)">
<rect x="0" y="0" width="16" height="27" style="fill:rgb(0%,0%,0%);fill-opacity:0.97;stroke:none;"/>
</g>
<mask id="mask3">
  <g filter="url(#alpha)">
<use xlink:href="#surface26"/>
  </g>
</mask>
<clipPath id="clip9">
  <rect width="16" height="27"/>
</clipPath>
<g id="surface28" clip-path="url(#clip9)">
<path style="fill:none;stroke-width:1.6;stroke-linecap:round;stroke-linejoin:round;stroke:rgb(100%,0%,0%);stroke-opacity:1;stroke-miterlimit:4;" d="M 224.507812 109.945312 C 230.988281 115.425781 235.152344 123.15625 236.167969 131.585938 " transform="matrix(1,0,0,1,-222,-108)"/>
<path style="fill-rule:evenodd;fill:rgb(100%,0%,0%);fill-opacity:1;stroke-width:0.30541;stroke-linecap:butt;stroke-linejoin:miter;stroke:rgb(100%,0%,0%);stroke-opacity:1;stroke-miterlimit:4;" d="M 186.556594 -46.602989 L 187.778106 -47.823624 L 183.502683 -46.602071 L 187.779156 -45.379199 Z M 186.556594 -46.602989 " transform="matrix(1,0.845784,-0.845784,1,-222,-108)"/>
<path style="fill-rule:evenodd;fill:rgb(100%,0%,0%);fill-opacity:1;stroke-width:0.397133;stroke-linecap:butt;stroke-linejoin:miter;stroke:rgb(100%,0%,0%);stroke-opacity:1;stroke-miterlimit:4;" d="M -155.822966 217.180155 L -154.233146 215.590281 L -159.791576 217.178992 L -154.233092 218.769975 Z M -155.822966 217.180155 " transform="matrix(-0.120376,-1,1,-0.120376,-222,-108)"/>
</g>
<clipPath id="clip10">
  <rect width="10" height="23"/>
</clipPath>
<g id="surface32" clip-path="url(#clip10)">
<rect x="0" y="0" width="10" height="23" style="fill:rgb(0%,0%,0%);fill-opacity:0.97;stroke:none;"/>
</g>
<mask id="mask4">
  <g filter="url(#alpha)">
<use xlink:href="#surface32"/>
  </g>
</mask>
<clipPath id="clip11">
  <rect width="10" height="23"/>
</clipPath>
<g id="surface34" clip-path="url(#clip11)">
<path style="fill:none;stroke-width:1.6;stroke-linecap:round;stroke-linejoin:round;stroke:rgb(100%,0%,0%);stroke-opacity:1;stroke-miterlimit:4;" d="M -424.875 113.523438 C -421.796875 118.699219 -419.835938 124.457031 -419.117188 130.4375 " transform="matrix(-1,0,0,1,-417,-111)"/>
<path style="fill-rule:evenodd;fill:rgb(100%,0%,0%);fill-opacity:1;stroke-width:0.343818;stroke-linecap:butt;stroke-linejoin:miter;stroke:rgb(100%,0%,0%);stroke-opacity:1;stroke-miterlimit:4;" d="M -101.116906 363.773452 L -99.741569 362.39978 L -104.554026 363.772813 L -99.743235 365.14879 Z M -101.116906 363.773452 " transform="matrix(-0.59457,1,1,0.59457,-417,-111)"/>
<path style="fill-rule:evenodd;fill:rgb(100%,0%,0%);fill-opacity:1;stroke-width:0.397133;stroke-linecap:butt;stroke-linejoin:miter;stroke:rgb(100%,0%,0%);stroke-opacity:1;stroke-miterlimit:4;" d="M -76.93701 -428.609026 L -75.347653 -430.195049 L -80.906083 -428.606338 L -75.347136 -427.019206 Z M -76.93701 -428.609026 " transform="matrix(0.120376,-1,-1,-0.120376,-417,-111)"/>
</g>
<clipPath id="clip12">
  <rect width="38" height="12"/>
</clipPath>
<g id="surface38" clip-path="url(#clip12)">
<rect x="0" y="0" width="38" height="12" style="fill:rgb(0%,0%,0%);fill-opacity:0.97;stroke:none;"/>
</g>
<mask id="mask5">
  <g filter="url(#alpha)">
<use xlink:href="#surface38"/>
  </g>
</mask>
<clipPath id="clip13">
  <rect width="38" height="12"/>
</clipPath>
<g id="surface35" clip-path="url(#clip13)">
<path style="fill:none;stroke-width:1.6;stroke-linecap:round;stroke-linejoin:round;stroke:rgb(100%,0%,0%);stroke-opacity:1;stroke-miterlimit:4;" d="M 28.90625 277.042969 C 34.011719 288.003906 31.730469 300.984375 23.191406 309.546875 " transform="matrix(0,1,1,0,-274,-21)"/>
<path style="fill-rule:evenodd;fill:rgb(100%,0%,0%);fill-opacity:1;stroke-width:0.362567;stroke-linecap:butt;stroke-linejoin:miter;stroke:rgb(100%,0%,0%);stroke-opacity:1;stroke-miterlimit:4;" d="M 240.424737 82.320439 L 241.873754 80.870665 L 236.797183 82.317539 L 241.874511 83.769455 Z M 240.424737 82.320439 " transform="matrix(1,0.465989,0.465989,-1,-274,-21)"/>
<path style="fill-rule:evenodd;fill:rgb(100%,0%,0%);fill-opacity:1;stroke-width:0.283208;stroke-linecap:butt;stroke-linejoin:miter;stroke:rgb(100%,0%,0%);stroke-opacity:1;stroke-miterlimit:4;" d="M -142.218428 166.39838 L -141.086601 165.265566 L -145.050207 166.398633 L -141.085614 167.530207 Z M -142.218428 166.39838 " transform="matrix(-1,0.99742,0.99742,1,-274,-21)"/>
</g>
<clipPath id="clip14">
  <path d="M 326 140 L 338 140 L 338 152.1875 L 326 152.1875 Z M 326 140 "/>
</clipPath>
</defs>
<g id="surface1">
<path style="fill:none;stroke-width:2.4;stroke-linecap:butt;stroke-linejoin:round;stroke:rgb(0%,0%,0%);stroke-opacity:1;stroke-miterlimit:4;" d="M 1.207031 135.601562 L 174.007812 135.601562 L 58.808594 49.199219 Z M 1.207031 135.601562 "/>
<use xlink:href="#surface10" transform="matrix(1,0,0,1,20,108)" mask="url(#mask0)"/>
<path style=" stroke:none;fill-rule:nonzero;fill:rgb(0%,0%,0%);fill-opacity:1;" d="M 118.058594 75.414062 C 117.757812 74.8125 117.308594 74.386719 116.582031 74.386719 C 114.734375 74.386719 112.757812 76.738281 112.757812 79.0625 C 112.757812 80.5625 113.632812 81.613281 114.859375 81.613281 C 115.183594 81.613281 115.984375 81.539062 116.933594 80.414062 C 117.058594 81.085938 117.632812 81.613281 118.382812 81.613281 C 118.957031 81.613281 119.308594 81.238281 119.582031 80.738281 C 119.832031 80.164062 120.058594 79.1875 120.058594 79.164062 C 120.058594 78.988281 119.90625 78.988281 119.859375 78.988281 C 119.707031 78.988281 119.683594 79.0625 119.632812 79.289062 C 119.359375 80.3125 119.082031 81.261719 118.433594 81.261719 C 117.984375 81.261719 117.957031 80.835938 117.957031 80.539062 C 117.957031 80.1875 117.984375 80.039062 118.15625 79.335938 C 118.332031 78.6875 118.359375 78.511719 118.507812 77.914062 L 119.082031 75.6875 C 119.183594 75.238281 119.183594 75.210938 119.183594 75.136719 C 119.183594 74.863281 119.007812 74.710938 118.734375 74.710938 C 118.332031 74.710938 118.109375 75.0625 118.058594 75.414062 Z M 117.03125 79.539062 C 116.933594 79.835938 116.933594 79.863281 116.707031 80.136719 C 116.007812 81.011719 115.359375 81.261719 114.90625 81.261719 C 114.109375 81.261719 113.882812 80.386719 113.882812 79.761719 C 113.882812 78.960938 114.382812 77.011719 114.757812 76.261719 C 115.257812 75.335938 115.957031 74.738281 116.609375 74.738281 C 117.632812 74.738281 117.859375 76.039062 117.859375 76.136719 C 117.859375 76.238281 117.832031 76.335938 117.808594 76.414062 Z M 117.03125 79.539062 "/>
<path style=" stroke:none;fill-rule:nonzero;fill:rgb(0%,0%,0%);fill-opacity:1;" d="M 25.320312 77.351562 C 25.320312 77.351562 25.320312 77.175781 25.121094 77.175781 C 24.769531 77.175781 23.59375 77.300781 23.171875 77.351562 C 23.046875 77.351562 22.871094 77.375 22.871094 77.648438 C 22.871094 77.851562 23.019531 77.851562 23.269531 77.851562 C 24.019531 77.851562 24.046875 77.949219 24.046875 78.125 C 24.046875 78.226562 23.921875 78.773438 23.84375 79.101562 L 22.519531 84.300781 C 22.34375 85.101562 22.269531 85.375 22.269531 85.925781 C 22.269531 87.425781 23.121094 88.425781 24.296875 88.425781 C 26.171875 88.425781 28.144531 86.050781 28.144531 83.75 C 28.144531 82.300781 27.296875 81.199219 26.019531 81.199219 C 25.296875 81.199219 24.621094 81.675781 24.144531 82.148438 Z M 23.84375 83.375 C 23.921875 83.023438 23.921875 83 24.070312 82.824219 C 24.84375 81.800781 25.570312 81.550781 25.996094 81.550781 C 26.570312 81.550781 26.996094 82.023438 26.996094 83.050781 C 26.996094 84 26.46875 85.824219 26.171875 86.425781 C 25.644531 87.5 24.921875 88.074219 24.296875 88.074219 C 23.746094 88.074219 23.21875 87.648438 23.21875 86.476562 C 23.21875 86.148438 23.21875 85.851562 23.46875 84.851562 Z M 23.84375 83.375 "/>
<path style=" stroke:none;fill-rule:nonzero;fill:rgb(0%,0%,0%);fill-opacity:1;" d="M 85.382812 142.585938 C 85.109375 142.585938 84.90625 142.585938 84.683594 142.789062 C 84.40625 143.039062 84.382812 143.3125 84.382812 143.414062 C 84.382812 143.8125 84.683594 143.988281 84.984375 143.988281 C 85.433594 143.988281 85.859375 143.585938 85.859375 142.960938 C 85.859375 142.1875 85.109375 141.585938 83.984375 141.585938 C 81.832031 141.585938 79.707031 143.863281 79.707031 146.113281 C 79.707031 147.5625 80.632812 148.8125 82.308594 148.8125 C 84.582031 148.8125 85.90625 147.113281 85.90625 146.9375 C 85.90625 146.835938 85.832031 146.710938 85.734375 146.710938 C 85.632812 146.710938 85.609375 146.761719 85.507812 146.886719 C 84.257812 148.460938 82.507812 148.460938 82.332031 148.460938 C 81.332031 148.460938 80.882812 147.6875 80.882812 146.710938 C 80.882812 146.0625 81.207031 144.511719 81.757812 143.539062 C 82.257812 142.613281 83.132812 141.9375 84.007812 141.9375 C 84.53125 141.9375 85.15625 142.136719 85.382812 142.585938 Z M 85.382812 142.585938 "/>
<path style=" stroke:none;fill-rule:nonzero;fill:rgb(0%,0%,0%);fill-opacity:1;" d="M 22.882812 125.664062 C 22.882812 123.164062 21.40625 122.386719 20.234375 122.386719 C 18.03125 122.386719 15.933594 124.664062 15.933594 126.914062 C 15.933594 128.414062 16.882812 129.613281 18.53125 129.613281 C 19.53125 129.613281 20.683594 129.238281 21.882812 128.261719 C 22.082031 129.113281 22.609375 129.613281 23.332031 129.613281 C 24.183594 129.613281 24.683594 128.738281 24.683594 128.488281 C 24.683594 128.363281 24.582031 128.3125 24.484375 128.3125 C 24.382812 128.3125 24.332031 128.363281 24.28125 128.488281 C 23.984375 129.261719 23.40625 129.261719 23.382812 129.261719 C 22.882812 129.261719 22.882812 128.011719 22.882812 127.636719 C 22.882812 127.3125 22.882812 127.261719 23.058594 127.085938 C 24.558594 125.1875 24.882812 123.335938 24.882812 123.335938 C 24.882812 123.289062 24.859375 123.164062 24.683594 123.164062 C 24.53125 123.164062 24.53125 123.210938 24.457031 123.511719 C 24.15625 124.511719 23.632812 125.710938 22.882812 126.664062 Z M 21.832031 127.863281 C 20.40625 129.085938 19.183594 129.261719 18.558594 129.261719 C 17.609375 129.261719 17.109375 128.539062 17.109375 127.511719 C 17.109375 126.738281 17.53125 125.011719 18.03125 124.210938 C 18.78125 123.039062 19.65625 122.738281 20.207031 122.738281 C 21.78125 122.738281 21.78125 124.835938 21.78125 126.0625 C 21.78125 126.664062 21.78125 127.585938 21.832031 127.863281 Z M 21.832031 127.863281 "/>
<path style=" stroke:none;fill-rule:nonzero;fill:rgb(0%,0%,0%);fill-opacity:1;" d="M 56.59375 64.5625 C 57.21875 62.738281 58.96875 62.710938 59.144531 62.710938 C 61.546875 62.710938 61.71875 65.511719 61.71875 66.761719 C 61.71875 67.738281 61.644531 68.011719 61.519531 68.335938 C 61.171875 69.488281 60.695312 71.335938 60.695312 71.761719 C 60.695312 71.9375 60.769531 72.039062 60.894531 72.039062 C 61.121094 72.039062 61.246094 71.6875 61.421875 71.085938 C 61.796875 69.738281 61.945312 68.835938 61.996094 68.335938 C 62.046875 68.136719 62.070312 67.9375 62.144531 67.710938 C 62.644531 66.136719 63.671875 63.761719 64.296875 62.511719 C 64.421875 62.3125 64.59375 61.960938 64.59375 61.886719 C 64.59375 61.738281 64.445312 61.738281 64.421875 61.738281 C 64.371094 61.738281 64.269531 61.738281 64.21875 61.835938 C 63.394531 63.363281 62.746094 64.960938 62.121094 66.5625 C 62.09375 66.085938 62.09375 64.863281 61.46875 63.3125 C 61.070312 62.335938 60.445312 61.5625 59.34375 61.5625 C 57.34375 61.5625 56.21875 63.988281 56.21875 64.488281 C 56.21875 64.636719 56.371094 64.636719 56.546875 64.636719 Z M 56.59375 64.5625 "/>
<path style=" stroke:none;fill-rule:nonzero;fill:rgb(0%,0%,0%);fill-opacity:1;" d="M 149.558594 121 C 149.558594 119.800781 148.683594 118.824219 147.382812 118.824219 C 146.457031 118.824219 146.007812 119.074219 145.457031 119.476562 C 144.582031 120.125 143.707031 121.675781 143.40625 122.875 L 140.859375 133 C 140.859375 133.074219 140.933594 133.175781 141.058594 133.175781 C 141.183594 133.175781 141.234375 133.125 141.234375 133.101562 L 142.359375 128.675781 C 142.65625 129.648438 143.359375 130.226562 144.53125 130.226562 C 145.683594 130.226562 146.882812 129.675781 147.609375 128.976562 C 148.382812 128.25 148.882812 127.226562 148.882812 126.050781 C 148.882812 124.898438 148.28125 124.050781 147.707031 123.675781 C 148.632812 123.125 149.558594 122.148438 149.558594 121 Z M 146.683594 123.648438 C 146.484375 123.726562 146.308594 123.75 145.90625 123.75 C 145.683594 123.75 145.382812 123.773438 145.207031 123.699219 C 145.257812 123.523438 145.832031 123.574219 146.007812 123.574219 C 146.332031 123.574219 146.484375 123.574219 146.683594 123.648438 Z M 148.65625 120.625 C 148.65625 121.75 148.058594 122.898438 147.234375 123.398438 C 146.78125 123.226562 146.484375 123.199219 146.007812 123.199219 C 145.65625 123.199219 144.757812 123.175781 144.757812 123.699219 C 144.757812 124.148438 145.582031 124.101562 145.859375 124.101562 C 146.457031 124.101562 146.707031 124.101562 147.183594 123.898438 C 147.78125 124.476562 147.859375 124.976562 147.882812 125.699219 C 147.90625 126.625 147.53125 127.824219 147.082031 128.449219 C 146.457031 129.300781 145.382812 129.875 144.484375 129.875 C 143.257812 129.875 142.65625 128.949219 142.65625 127.824219 C 142.65625 127.675781 142.65625 127.425781 142.734375 127.125 L 143.757812 123.101562 C 144.109375 121.726562 145.257812 119.175781 147.183594 119.175781 C 148.109375 119.175781 148.65625 119.675781 148.65625 120.625 Z M 148.65625 120.625 "/>
<use xlink:href="#surface16" transform="matrix(1,0,0,1,129,111)" mask="url(#mask1)"/>
<use xlink:href="#surface22" transform="matrix(1,0,0,1,44,67)" mask="url(#mask2)"/>
<g clip-path="url(#clip7)" clip-rule="nonzero">
<path style="fill:none;stroke-width:2.4;stroke-linecap:butt;stroke-linejoin:round;stroke:rgb(0%,0%,0%);stroke-opacity:1;stroke-miterlimit:4;" d="M 202.808594 135.601562 L 462.007812 135.601562 L 289.207031 1.199219 Z M 202.808594 135.601562 "/>
</g>
<use xlink:href="#surface28" transform="matrix(1,0,0,1,222,108)" mask="url(#mask3)"/>
<path style=" stroke:none;fill-rule:nonzero;fill:rgb(0%,0%,0%);fill-opacity:1;" d="M 224.484375 125.664062 C 224.484375 123.164062 223.007812 122.386719 221.832031 122.386719 C 219.632812 122.386719 217.53125 124.664062 217.53125 126.914062 C 217.53125 128.414062 218.484375 129.613281 220.132812 129.613281 C 221.132812 129.613281 222.28125 129.238281 223.484375 128.261719 C 223.683594 129.113281 224.207031 129.613281 224.933594 129.613281 C 225.78125 129.613281 226.28125 128.738281 226.28125 128.488281 C 226.28125 128.363281 226.183594 128.3125 226.082031 128.3125 C 225.984375 128.3125 225.933594 128.363281 225.882812 128.488281 C 225.582031 129.261719 225.007812 129.261719 224.984375 129.261719 C 224.484375 129.261719 224.484375 128.011719 224.484375 127.636719 C 224.484375 127.3125 224.484375 127.261719 224.65625 127.085938 C 226.15625 125.1875 226.484375 123.335938 226.484375 123.335938 C 226.484375 123.289062 226.457031 123.164062 226.28125 123.164062 C 226.132812 123.164062 226.132812 123.210938 226.058594 123.511719 C 225.757812 124.511719 225.234375 125.710938 224.484375 126.664062 Z M 223.433594 127.863281 C 222.007812 129.085938 220.78125 129.261719 220.15625 129.261719 C 219.207031 129.261719 218.707031 128.539062 218.707031 127.511719 C 218.707031 126.738281 219.132812 125.011719 219.632812 124.210938 C 220.382812 123.039062 221.257812 122.738281 221.808594 122.738281 C 223.382812 122.738281 223.382812 124.835938 223.382812 126.0625 C 223.382812 126.664062 223.382812 127.585938 223.433594 127.863281 Z M 223.433594 127.863281 "/>
<path style=" stroke:none;fill-rule:nonzero;fill:rgb(0%,0%,0%);fill-opacity:1;" d="M 286.996094 18.164062 C 287.621094 16.335938 289.371094 16.3125 289.546875 16.3125 C 291.945312 16.3125 292.121094 19.113281 292.121094 20.363281 C 292.121094 21.335938 292.046875 21.613281 291.921875 21.9375 C 291.570312 23.085938 291.09375 24.9375 291.09375 25.363281 C 291.09375 25.539062 291.171875 25.636719 291.296875 25.636719 C 291.519531 25.636719 291.644531 25.289062 291.820312 24.6875 C 292.195312 23.335938 292.34375 22.4375 292.394531 21.9375 C 292.445312 21.738281 292.46875 21.539062 292.546875 21.3125 C 293.046875 19.738281 294.070312 17.363281 294.695312 16.113281 C 294.820312 15.914062 294.996094 15.5625 294.996094 15.488281 C 294.996094 15.335938 294.84375 15.335938 294.820312 15.335938 C 294.769531 15.335938 294.671875 15.335938 294.621094 15.4375 C 293.796875 16.960938 293.144531 18.5625 292.519531 20.164062 C 292.496094 19.6875 292.496094 18.460938 291.871094 16.914062 C 291.46875 15.9375 290.84375 15.164062 289.746094 15.164062 C 287.746094 15.164062 286.621094 17.585938 286.621094 18.085938 C 286.621094 18.238281 286.769531 18.238281 286.945312 18.238281 Z M 286.996094 18.164062 "/>
<path style=" stroke:none;fill-rule:nonzero;fill:rgb(0%,0%,0%);fill-opacity:1;" d="M 437.558594 121 C 437.558594 119.800781 436.683594 118.824219 435.382812 118.824219 C 434.457031 118.824219 434.007812 119.074219 433.457031 119.476562 C 432.582031 120.125 431.707031 121.675781 431.40625 122.875 L 428.859375 133 C 428.859375 133.074219 428.933594 133.175781 429.058594 133.175781 C 429.183594 133.175781 429.234375 133.125 429.234375 133.101562 L 430.359375 128.675781 C 430.65625 129.648438 431.359375 130.226562 432.53125 130.226562 C 433.683594 130.226562 434.882812 129.675781 435.609375 128.976562 C 436.382812 128.25 436.882812 127.226562 436.882812 126.050781 C 436.882812 124.898438 436.28125 124.050781 435.707031 123.675781 C 436.632812 123.125 437.558594 122.148438 437.558594 121 Z M 434.683594 123.648438 C 434.484375 123.726562 434.308594 123.75 433.90625 123.75 C 433.683594 123.75 433.382812 123.773438 433.207031 123.699219 C 433.257812 123.523438 433.832031 123.574219 434.007812 123.574219 C 434.332031 123.574219 434.484375 123.574219 434.683594 123.648438 Z M 436.65625 120.625 C 436.65625 121.75 436.058594 122.898438 435.234375 123.398438 C 434.78125 123.226562 434.484375 123.199219 434.007812 123.199219 C 433.65625 123.199219 432.757812 123.175781 432.757812 123.699219 C 432.757812 124.148438 433.582031 124.101562 433.859375 124.101562 C 434.457031 124.101562 434.707031 124.101562 435.183594 123.898438 C 435.78125 124.476562 435.859375 124.976562 435.882812 125.699219 C 435.90625 126.625 435.53125 127.824219 435.082031 128.449219 C 434.457031 129.300781 433.382812 129.875 432.484375 129.875 C 431.257812 129.875 430.65625 128.949219 430.65625 127.824219 C 430.65625 127.675781 430.65625 127.425781 430.734375 127.125 L 431.757812 123.101562 C 432.109375 121.726562 433.257812 119.175781 435.183594 119.175781 C 436.109375 119.175781 436.65625 119.675781 436.65625 120.625 Z M 436.65625 120.625 "/>
<use xlink:href="#surface34" transform="matrix(1,0,0,1,417,111)" mask="url(#mask4)"/>
<use xlink:href="#surface35" transform="matrix(1,0,0,1,274,21)" mask="url(#mask5)"/>
<path style=" stroke:none;fill-rule:nonzero;fill:rgb(0%,0%,0%);fill-opacity:1;" d="M 228.871094 67.800781 C 228.71875 68.425781 228.671875 68.550781 227.421875 68.550781 C 227.144531 68.550781 226.996094 68.550781 226.996094 68.875 C 226.996094 69.050781 227.144531 69.050781 227.421875 69.050781 L 233.121094 69.050781 C 235.644531 69.050781 237.519531 67.175781 237.519531 65.601562 C 237.519531 64.449219 236.59375 63.523438 235.046875 63.351562 C 236.695312 63.050781 238.371094 61.875 238.371094 60.351562 C 238.371094 59.175781 237.320312 58.148438 235.421875 58.148438 L 230.046875 58.148438 C 229.746094 58.148438 229.59375 58.148438 229.59375 58.476562 C 229.59375 58.648438 229.746094 58.648438 230.046875 58.648438 C 230.070312 58.648438 230.371094 58.648438 230.644531 58.675781 C 230.921875 58.726562 231.070312 58.726562 231.070312 58.949219 C 231.070312 59 231.046875 59.050781 231.019531 59.25 Z M 231.269531 63.199219 L 232.269531 59.25 C 232.421875 58.699219 232.445312 58.648438 233.121094 58.648438 L 235.195312 58.648438 C 236.59375 58.648438 236.921875 59.601562 236.921875 60.300781 C 236.921875 61.699219 235.546875 63.199219 233.621094 63.199219 Z M 230.570312 68.550781 L 230.21875 68.550781 C 230.046875 68.523438 229.996094 68.5 229.996094 68.375 C 229.996094 68.324219 229.996094 68.300781 230.09375 68.023438 L 231.195312 63.574219 L 234.195312 63.574219 C 235.71875 63.574219 236.046875 64.75 236.046875 65.425781 C 236.046875 67 234.621094 68.550781 232.71875 68.550781 Z M 230.570312 68.550781 "/>
<path style=" stroke:none;fill-rule:nonzero;fill:rgb(0%,0%,0%);fill-opacity:1;" d="M 394.957031 68.414062 C 394.332031 69.460938 393.707031 69.6875 393.007812 69.738281 C 392.808594 69.761719 392.65625 69.761719 392.65625 70.0625 C 392.65625 70.164062 392.757812 70.238281 392.882812 70.238281 C 393.308594 70.238281 393.808594 70.1875 394.234375 70.1875 C 394.78125 70.1875 395.332031 70.238281 395.832031 70.238281 C 395.933594 70.238281 396.132812 70.238281 396.132812 69.9375 C 396.132812 69.761719 396.007812 69.738281 395.882812 69.738281 C 395.53125 69.710938 395.132812 69.585938 395.132812 69.1875 C 395.132812 68.988281 395.234375 68.8125 395.359375 68.585938 L 396.582031 66.5625 L 400.582031 66.5625 C 400.609375 66.886719 400.832031 69.0625 400.832031 69.210938 C 400.832031 69.6875 400.007812 69.738281 399.683594 69.738281 C 399.457031 69.738281 399.308594 69.738281 399.308594 70.0625 C 399.308594 70.238281 399.484375 70.238281 399.53125 70.238281 C 400.183594 70.238281 400.859375 70.1875 401.507812 70.1875 C 401.90625 70.1875 402.933594 70.238281 403.332031 70.238281 C 403.40625 70.238281 403.609375 70.238281 403.609375 69.914062 C 403.609375 69.738281 403.457031 69.738281 403.234375 69.738281 C 402.257812 69.738281 402.257812 69.636719 402.207031 69.164062 L 401.234375 59.210938 C 401.207031 58.886719 401.207031 58.8125 400.933594 58.8125 C 400.683594 58.8125 400.609375 58.9375 400.507812 59.085938 Z M 396.882812 66.0625 L 400.007812 60.789062 L 400.53125 66.0625 Z M 396.882812 66.0625 "/>
<g clip-path="url(#clip14)" clip-rule="nonzero">
<path style=" stroke:none;fill-rule:nonzero;fill:rgb(0%,0%,0%);fill-opacity:1;" d="M 337.582031 140.761719 C 337.582031 140.710938 337.558594 140.585938 337.40625 140.585938 C 337.359375 140.585938 337.332031 140.613281 337.15625 140.789062 L 336.058594 142.011719 C 335.90625 141.789062 335.183594 140.585938 333.40625 140.585938 C 329.832031 140.585938 326.257812 144.113281 326.257812 147.8125 C 326.257812 150.4375 328.132812 152.1875 330.582031 152.1875 C 331.957031 152.1875 333.183594 151.5625 334.03125 150.8125 C 335.507812 149.511719 335.78125 148.0625 335.78125 148.011719 C 335.78125 147.835938 335.609375 147.835938 335.582031 147.835938 C 335.484375 147.835938 335.40625 147.886719 335.382812 148.011719 C 335.234375 148.460938 334.859375 149.613281 333.757812 150.539062 C 332.65625 151.414062 331.65625 151.6875 330.832031 151.6875 C 329.40625 151.6875 327.707031 150.863281 327.707031 148.386719 C 327.707031 147.460938 328.03125 144.886719 329.632812 143.011719 C 330.609375 141.886719 332.109375 141.085938 333.53125 141.085938 C 335.15625 141.085938 336.109375 142.3125 336.109375 144.164062 C 336.109375 144.8125 336.058594 144.8125 336.058594 144.988281 C 336.058594 145.136719 336.234375 145.136719 336.28125 145.136719 C 336.484375 145.136719 336.484375 145.113281 336.582031 144.8125 Z M 337.582031 140.761719 "/>
</g>
</g>
</svg>
