<?xml version="1.0" encoding="UTF-8"?>
<svg xmlns="http://www.w3.org/2000/svg" xmlns:xlink="http://www.w3.org/1999/xlink" width="306.724945pt" height="233.456039pt" viewBox="0 0 306.724945 233.456039" version="1.1">
<defs>
<clipPath id="clip1">
  <path d="M 69 89 L 70 89 L 70 233.457031 L 69 233.457031 Z M 69 89 "/>
</clipPath>
<clipPath id="clip2">
  <path d="M 155 89 L 157 89 L 157 233.457031 L 155 233.457031 Z M 155 89 "/>
</clipPath>
<clipPath id="clip3">
  <path d="M 300 147 L 306.726562 147 L 306.726562 176 L 300 176 Z M 300 147 "/>
</clipPath>
</defs>
<g id="surface1">
<g clip-path="url(#clip1)" clip-rule="nonzero">
<path style="fill:none;stroke-width:0.8;stroke-linecap:butt;stroke-linejoin:miter;stroke:rgb(0%,0%,0%);stroke-opacity:1;stroke-dasharray:0.8,1.6;stroke-miterlimit:4;" d="M 69.480469 89.457031 L 69.480469 233.457031 "/>
</g>
<g clip-path="url(#clip2)" clip-rule="nonzero">
<path style="fill:none;stroke-width:0.8;stroke-linecap:butt;stroke-linejoin:miter;stroke:rgb(0%,0%,0%);stroke-opacity:1;stroke-dasharray:0.8,1.6;stroke-miterlimit:4;" d="M 155.878906 89.457031 L 155.878906 233.457031 "/>
</g>
<path style="fill:none;stroke-width:1.6;stroke-linecap:butt;stroke-linejoin:miter;stroke:rgb(100%,0%,0%);stroke-opacity:1;stroke-miterlimit:4;" d="M 13.078125 89.457031 L 298.679688 89.457031 "/>
<path style="fill-rule:evenodd;fill:rgb(100%,0%,0%);fill-opacity:1;stroke-width:0.8;stroke-linecap:butt;stroke-linejoin:miter;stroke:rgb(100%,0%,0%);stroke-opacity:1;stroke-miterlimit:4;" d="M 19.480469 89.457031 L 22.679688 86.257812 L 11.480469 89.457031 L 22.679688 92.65625 Z M 19.480469 89.457031 "/>
<path style="fill-rule:evenodd;fill:rgb(100%,0%,0%);fill-opacity:1;stroke-width:0.8;stroke-linecap:butt;stroke-linejoin:miter;stroke:rgb(100%,0%,0%);stroke-opacity:1;stroke-miterlimit:4;" d="M -292.28125 -89.457031 L -289.078125 -92.65625 L -300.28125 -89.457031 L -289.078125 -86.257812 Z M -292.28125 -89.457031 " transform="matrix(-1,0,0,-1,0,0)"/>
<path style="fill:none;stroke-width:1.6;stroke-linecap:butt;stroke-linejoin:miter;stroke:rgb(100%,0%,0%);stroke-opacity:1;stroke-miterlimit:4;" d="M 69.480469 3.054688 L 69.480469 204.65625 "/>
<path style="fill-rule:evenodd;fill:rgb(100%,0%,0%);fill-opacity:1;stroke-width:0.8;stroke-linecap:butt;stroke-linejoin:miter;stroke:rgb(100%,0%,0%);stroke-opacity:1;stroke-miterlimit:4;" d="M 9.457031 -69.480469 L 12.65625 -72.679688 L 1.457031 -69.480469 L 12.65625 -66.28125 Z M 9.457031 -69.480469 " transform="matrix(0,1,-1,0,0,0)"/>
<path style="fill-rule:evenodd;fill:rgb(100%,0%,0%);fill-opacity:1;stroke-width:0.8;stroke-linecap:butt;stroke-linejoin:miter;stroke:rgb(100%,0%,0%);stroke-opacity:1;stroke-miterlimit:4;" d="M -198.257812 69.480469 L -195.054688 66.28125 L -206.257812 69.480469 L -195.054688 72.679688 Z M -198.257812 69.480469 " transform="matrix(0,-1,1,0,0,0)"/>
<path style="fill:none;stroke-width:1.6;stroke-linecap:round;stroke-linejoin:miter;stroke:rgb(0%,0%,0%);stroke-opacity:1;stroke-miterlimit:4;" d="M 40.679688 70.257812 C 40.679688 70.257812 46.132812 90.238281 69.480469 89.457031 C 92.828125 88.675781 140.226562 128.273438 155.878906 147.054688 "/>
<path style="fill-rule:evenodd;fill:rgb(0%,0%,0%);fill-opacity:1;stroke-width:0.8;stroke-linecap:butt;stroke-linejoin:miter;stroke:rgb(100%,100%,100%);stroke-opacity:1;stroke-miterlimit:4;" d="M 71.878906 89.457031 C 71.878906 90.78125 70.804688 91.855469 69.480469 91.855469 C 68.15625 91.855469 67.078125 90.78125 67.078125 89.457031 C 67.078125 88.128906 68.15625 87.054688 69.480469 87.054688 C 70.804688 87.054688 71.878906 88.128906 71.878906 89.457031 Z M 71.878906 89.457031 "/>
<path style="fill:none;stroke-width:1.6;stroke-linecap:butt;stroke-linejoin:miter;stroke:rgb(0%,0%,0%);stroke-opacity:1;stroke-miterlimit:4;" d="M 227.878906 151.855469 C 234.363281 134.089844 238.035156 111.257812 242.28125 89.457031 L 251.878906 17.457031 "/>
<path style="fill-rule:evenodd;fill:rgb(0%,0%,0%);fill-opacity:1;stroke-width:0.8;stroke-linecap:butt;stroke-linejoin:miter;stroke:rgb(100%,100%,100%);stroke-opacity:1;stroke-miterlimit:4;" d="M 244.679688 89.457031 C 244.679688 90.78125 243.605469 91.855469 242.28125 91.855469 C 240.953125 91.855469 239.878906 90.78125 239.878906 89.457031 C 239.878906 88.128906 240.953125 87.054688 242.28125 87.054688 C 243.605469 87.054688 244.679688 88.128906 244.679688 89.457031 Z M 244.679688 89.457031 "/>
<path style=" stroke:none;fill-rule:nonzero;fill:rgb(0%,0%,0%);fill-opacity:1;" d="M 249.992188 98.96875 L 249.992188 98.570312 C 249.992188 94.542969 251.96875 93.96875 252.792969 93.96875 C 253.167969 93.96875 253.84375 94.070312 254.191406 94.617188 C 253.941406 94.617188 253.316406 94.617188 253.316406 95.320312 C 253.316406 95.820312 253.691406 96.070312 254.042969 96.070312 C 254.292969 96.070312 254.792969 95.917969 254.792969 95.292969 C 254.792969 94.34375 254.09375 93.570312 252.765625 93.570312 C 250.71875 93.570312 248.566406 95.617188 248.566406 99.144531 C 248.566406 103.417969 250.417969 104.542969 251.890625 104.542969 C 253.667969 104.542969 255.191406 103.042969 255.191406 100.945312 C 255.191406 98.917969 253.765625 97.394531 251.992188 97.394531 C 250.917969 97.394531 250.316406 98.195312 249.992188 98.96875 Z M 251.890625 104.09375 C 250.890625 104.09375 250.417969 103.144531 250.316406 102.894531 C 250.015625 102.144531 250.015625 100.867188 250.015625 100.59375 C 250.015625 99.34375 250.542969 97.742188 251.96875 97.742188 C 252.242188 97.742188 252.96875 97.742188 253.46875 98.742188 C 253.742188 99.320312 253.742188 100.144531 253.742188 100.917969 C 253.742188 101.695312 253.742188 102.492188 253.46875 103.070312 C 252.992188 104.019531 252.265625 104.09375 251.890625 104.09375 Z M 251.890625 104.09375 "/>
<path style="fill:none;stroke-width:1.6;stroke-linecap:butt;stroke-linejoin:miter;stroke:rgb(0%,0%,0%);stroke-opacity:1;stroke-miterlimit:4;" d="M 40.679688 70.257812 C 35.878906 55.855469 26.800781 36.136719 21.480469 17.457031 "/>
<path style="fill:none;stroke-width:1.6;stroke-linecap:round;stroke-linejoin:miter;stroke:rgb(0%,0%,0%);stroke-opacity:1;stroke-miterlimit:4;" d="M 155.878906 147.054688 C 165.480469 156.65625 179.878906 175.855469 199.078125 175.855469 C 218.28125 175.855469 223.078125 166.257812 227.878906 151.855469 "/>
<path style="fill-rule:evenodd;fill:rgb(0%,0%,0%);fill-opacity:1;stroke-width:0.8;stroke-linecap:butt;stroke-linejoin:miter;stroke:rgb(100%,100%,100%);stroke-opacity:1;stroke-miterlimit:4;" d="M 201.480469 175.855469 C 201.480469 177.179688 200.40625 178.257812 199.078125 178.257812 C 197.753906 178.257812 196.679688 177.179688 196.679688 175.855469 C 196.679688 174.53125 197.753906 173.457031 199.078125 173.457031 C 200.40625 173.457031 201.480469 174.53125 201.480469 175.855469 Z M 201.480469 175.855469 "/>
<path style="fill:none;stroke-width:0.8;stroke-linecap:butt;stroke-linejoin:miter;stroke:rgb(100%,0%,0%);stroke-opacity:1;stroke-miterlimit:4;" d="M 203.878906 171.054688 L 213.480469 161.457031 L 242.28125 161.457031 "/>
<path style="fill-rule:evenodd;fill:rgb(100%,0%,0%);fill-opacity:1;stroke-width:0.282843;stroke-linecap:butt;stroke-linejoin:miter;stroke:rgb(100%,0%,0%);stroke-opacity:1;stroke-miterlimit:4;" d="M 18.673828 187.466797 L 19.804688 186.335938 L 15.845703 187.466797 L 19.806641 188.599609 Z M 18.673828 187.466797 " transform="matrix(1,-1,1,1,0,0)"/>
<path style="fill-rule:evenodd;fill:rgb(100%,0%,0%);fill-opacity:1;stroke-width:0.4;stroke-linecap:butt;stroke-linejoin:miter;stroke:rgb(100%,0%,0%);stroke-opacity:1;stroke-miterlimit:4;" d="M 243.847656 161.457031 C 243.847656 162.339844 243.132812 163.054688 242.246094 163.054688 C 241.363281 163.054688 240.648438 162.339844 240.648438 161.457031 C 240.648438 160.574219 241.363281 159.855469 242.246094 159.855469 C 243.132812 159.855469 243.847656 160.574219 243.847656 161.457031 Z M 243.847656 161.457031 "/>
<path style=" stroke:none;fill-rule:nonzero;fill:rgb(0%,0%,0%);fill-opacity:1;" d="M 252.742188 175.617188 L 252.917969 175.789062 L 253.269531 175.789062 C 253.316406 175.789062 253.441406 175.789062 253.441406 175.640625 C 253.441406 175.566406 253.417969 175.539062 253.394531 175.492188 C 252.816406 174.914062 251.941406 174.039062 250.96875 172.289062 C 249.242188 169.214844 248.59375 165.289062 248.59375 161.464844 C 248.59375 154.367188 250.617188 150.214844 253.394531 147.390625 C 253.441406 147.339844 253.441406 147.289062 253.441406 147.265625 C 253.441406 147.089844 253.34375 147.089844 253.144531 147.089844 C 252.941406 147.089844 252.917969 147.089844 252.769531 147.242188 C 251.242188 148.539062 249.542969 150.765625 248.441406 154.117188 C 247.769531 156.214844 247.394531 158.789062 247.394531 161.441406 C 247.394531 165.214844 248.066406 169.492188 250.566406 173.191406 C 251.019531 173.816406 251.59375 174.464844 251.59375 174.492188 C 251.769531 174.691406 251.992188 174.941406 252.117188 175.039062 Z M 252.742188 175.617188 "/>
<path style=" stroke:none;fill-rule:nonzero;fill:rgb(0%,0%,0%);fill-opacity:1;" d="M 260.601562 155.832031 C 260.601562 158.609375 259.25 159.03125 258.578125 159.03125 C 258.328125 159.03125 257.726562 159.007812 257.425781 158.65625 C 257.902344 158.609375 257.925781 158.234375 257.925781 158.132812 C 257.925781 157.859375 257.726562 157.609375 257.402344 157.609375 C 257.078125 157.609375 256.875 157.832031 256.875 158.15625 C 256.875 158.90625 257.5 159.382812 258.578125 159.382812 C 260.175781 159.382812 261.675781 157.882812 261.675781 155.484375 C 261.675781 152.734375 260.453125 151.757812 259.152344 151.757812 C 258.777344 151.757812 258.027344 151.808594 257.375 152.433594 C 257 152.808594 256.550781 153.234375 256.550781 154.234375 C 256.550781 155.65625 257.675781 156.707031 258.976562 156.707031 C 259.875 156.707031 260.351562 156.109375 260.601562 155.609375 Z M 259.050781 156.382812 C 258.601562 156.382812 258.203125 156.257812 257.875 155.734375 C 257.625 155.332031 257.625 154.859375 257.625 154.234375 C 257.625 153.582031 257.625 153.15625 257.953125 152.707031 C 258.226562 152.308594 258.578125 152.082031 259.152344 152.082031 C 259.726562 152.082031 260.078125 152.433594 260.25 152.734375 C 260.550781 153.183594 260.578125 153.984375 260.578125 154.359375 C 260.578125 155.808594 259.75 156.382812 259.050781 156.382812 Z M 259.050781 156.382812 "/>
<path style="fill:none;stroke-width:0.6368;stroke-linecap:butt;stroke-linejoin:miter;stroke:rgb(0%,0%,0%);stroke-opacity:1;stroke-miterlimit:10;" d="M 255.953125 -161.453125 L 262.308594 -161.453125 " transform="matrix(1,0,0,-1,0,0)"/>
<path style=" stroke:none;fill-rule:nonzero;fill:rgb(0%,0%,0%);fill-opacity:1;" d="M 261.578125 168.90625 L 261.203125 168.90625 C 261.175781 169.15625 261.050781 169.808594 260.902344 169.90625 C 260.828125 169.984375 259.976562 169.984375 259.800781 169.984375 L 257.75 169.984375 C 258.925781 168.957031 259.328125 168.632812 259.976562 168.109375 C 260.800781 167.457031 261.578125 166.757812 261.578125 165.707031 C 261.578125 164.359375 260.402344 163.53125 258.976562 163.53125 C 257.601562 163.53125 256.652344 164.507812 256.652344 165.53125 C 256.652344 166.082031 257.125 166.15625 257.25 166.15625 C 257.5 166.15625 257.828125 165.957031 257.828125 165.558594 C 257.828125 165.359375 257.75 164.957031 257.175781 164.957031 C 257.527344 164.183594 258.277344 163.933594 258.800781 163.933594 C 259.925781 163.933594 260.5 164.808594 260.5 165.707031 C 260.5 166.683594 259.800781 167.433594 259.453125 167.832031 L 256.777344 170.507812 C 256.652344 170.609375 256.652344 170.632812 256.652344 170.933594 L 261.25 170.933594 Z M 261.578125 168.90625 "/>
<path style=" stroke:none;fill-rule:nonzero;fill:rgb(0%,0%,0%);fill-opacity:1;" d="M 267.464844 165.410156 C 267.464844 164.359375 267.066406 163.734375 266.441406 163.734375 C 265.917969 163.734375 265.589844 164.136719 265.589844 164.585938 C 265.589844 165.011719 265.917969 165.433594 266.441406 165.433594 C 266.617188 165.433594 266.839844 165.359375 266.992188 165.234375 C 267.042969 165.183594 267.066406 165.183594 267.066406 165.183594 C 267.089844 165.183594 267.089844 165.183594 267.089844 165.410156 C 267.089844 166.609375 266.542969 167.558594 266.015625 168.085938 C 265.839844 168.261719 265.839844 168.285156 265.839844 168.335938 C 265.839844 168.460938 265.917969 168.511719 265.992188 168.511719 C 266.167969 168.511719 267.464844 167.285156 267.464844 165.410156 Z M 267.464844 165.410156 "/>
<path style=" stroke:none;fill-rule:nonzero;fill:rgb(0%,0%,0%);fill-opacity:1;" d="M 281.800781 161.761719 C 282.078125 161.761719 282.375 161.761719 282.375 161.433594 C 282.375 161.136719 282.078125 161.136719 281.800781 161.136719 L 273.175781 161.136719 C 272.902344 161.136719 272.625 161.136719 272.625 161.433594 C 272.625 161.761719 272.902344 161.761719 273.175781 161.761719 Z M 281.800781 161.761719 "/>
<path style=" stroke:none;fill-rule:nonzero;fill:rgb(0%,0%,0%);fill-opacity:1;" d="M 288.660156 155.433594 C 289.535156 155.433594 290.160156 156.03125 290.160156 157.234375 C 290.160156 158.609375 289.335938 159.03125 288.710938 159.03125 C 288.261719 159.03125 287.261719 158.90625 286.8125 158.234375 C 287.335938 158.234375 287.460938 157.859375 287.460938 157.609375 C 287.460938 157.257812 287.1875 157.007812 286.835938 157.007812 C 286.535156 157.007812 286.210938 157.207031 286.210938 157.65625 C 286.210938 158.707031 287.363281 159.382812 288.710938 159.382812 C 290.261719 159.382812 291.335938 158.332031 291.335938 157.234375 C 291.335938 156.359375 290.636719 155.484375 289.410156 155.234375 C 290.5625 154.808594 290.988281 153.984375 290.988281 153.28125 C 290.988281 152.40625 289.988281 151.757812 288.738281 151.757812 C 287.511719 151.757812 286.5625 152.359375 286.5625 153.257812 C 286.5625 153.632812 286.8125 153.832031 287.136719 153.832031 C 287.488281 153.832031 287.710938 153.582031 287.710938 153.28125 C 287.710938 152.957031 287.488281 152.707031 287.136719 152.683594 C 287.535156 152.207031 288.285156 152.082031 288.710938 152.082031 C 289.210938 152.082031 289.910156 152.332031 289.910156 153.28125 C 289.910156 153.757812 289.761719 154.28125 289.460938 154.609375 C 289.113281 155.03125 288.785156 155.058594 288.238281 155.109375 C 287.960938 155.132812 287.9375 155.132812 287.886719 155.132812 C 287.863281 155.132812 287.761719 155.15625 287.761719 155.28125 C 287.761719 155.433594 287.863281 155.433594 288.0625 155.433594 Z M 288.660156 155.433594 "/>
<path style=" stroke:none;fill-rule:nonzero;fill:rgb(0%,0%,0%);fill-opacity:1;" d="M 296.941406 149.574219 C 297.015625 149.5 297.015625 149.472656 297.042969 149.421875 L 297.042969 149.222656 L 295.09375 149.222656 C 294.890625 149.222656 293.71875 149.171875 293.59375 149.148438 C 293.390625 149.125 293.390625 149.046875 293.367188 148.949219 L 293.042969 148.949219 L 292.742188 150.75 L 293.066406 150.75 C 293.09375 150.625 293.167969 150.125 293.316406 150.023438 C 293.367188 150 294.117188 149.972656 294.242188 149.972656 L 296.140625 149.972656 C 295.792969 150.375 295.367188 150.796875 295.042969 151.199219 C 294.09375 152.398438 293.992188 153.546875 293.992188 154.046875 C 293.992188 154.472656 294.265625 154.523438 294.417969 154.523438 C 294.84375 154.523438 294.84375 154.125 294.84375 154.023438 L 294.84375 153.875 C 294.84375 152.449219 295.140625 151.574219 295.617188 151.046875 Z M 296.941406 149.574219 "/>
<path style="fill:none;stroke-width:0.6368;stroke-linecap:butt;stroke-linejoin:miter;stroke:rgb(0%,0%,0%);stroke-opacity:1;stroke-miterlimit:10;" d="M 285.613281 -161.453125 L 298.1875 -161.453125 " transform="matrix(1,0,0,-1,0,0)"/>
<path style=" stroke:none;fill-rule:nonzero;fill:rgb(0%,0%,0%);fill-opacity:1;" d="M 291.238281 168.90625 L 290.863281 168.90625 C 290.835938 169.15625 290.710938 169.808594 290.5625 169.90625 C 290.488281 169.984375 289.636719 169.984375 289.460938 169.984375 L 287.410156 169.984375 C 288.585938 168.957031 288.988281 168.632812 289.636719 168.109375 C 290.460938 167.457031 291.238281 166.757812 291.238281 165.707031 C 291.238281 164.359375 290.0625 163.53125 288.636719 163.53125 C 287.261719 163.53125 286.3125 164.507812 286.3125 165.53125 C 286.3125 166.082031 286.785156 166.15625 286.910156 166.15625 C 287.160156 166.15625 287.488281 165.957031 287.488281 165.558594 C 287.488281 165.359375 287.410156 164.957031 286.835938 164.957031 C 287.1875 164.183594 287.9375 163.933594 288.460938 163.933594 C 289.585938 163.933594 290.160156 164.808594 290.160156 165.707031 C 290.160156 166.683594 289.460938 167.433594 289.113281 167.832031 L 286.4375 170.507812 C 286.3125 170.609375 286.3125 170.632812 286.3125 170.933594 L 290.910156 170.933594 Z M 291.238281 168.90625 "/>
<path style=" stroke:none;fill-rule:nonzero;fill:rgb(0%,0%,0%);fill-opacity:1;" d="M 296.890625 166.445312 L 296.890625 166.09375 L 295.890625 166.09375 L 295.890625 162.59375 C 295.890625 162.394531 295.890625 162.34375 295.667969 162.34375 C 295.515625 162.34375 295.515625 162.34375 295.417969 162.46875 L 292.46875 166.09375 L 292.46875 166.445312 L 295.117188 166.445312 L 295.117188 167.070312 C 295.117188 167.320312 295.117188 167.394531 294.441406 167.394531 L 294.140625 167.394531 L 294.140625 167.742188 C 294.515625 167.71875 295.042969 167.71875 295.515625 167.71875 C 295.96875 167.71875 296.492188 167.71875 296.867188 167.742188 L 296.867188 167.394531 L 296.59375 167.394531 C 295.890625 167.394531 295.890625 167.320312 295.890625 167.070312 L 295.890625 166.445312 Z M 295.191406 163.195312 L 295.191406 166.09375 L 292.84375 166.09375 Z M 295.191406 163.195312 "/>
<g clip-path="url(#clip3)" clip-rule="nonzero">
<path style=" stroke:none;fill-rule:nonzero;fill:rgb(0%,0%,0%);fill-opacity:1;" d="M 306.726562 161.441406 C 306.726562 156.867188 305.675781 151.992188 302.523438 148.414062 C 302.300781 148.164062 301.699219 147.539062 301.324219 147.191406 C 301.226562 147.089844 301.175781 147.089844 300.976562 147.089844 C 300.824219 147.089844 300.675781 147.089844 300.675781 147.265625 C 300.675781 147.316406 300.75 147.390625 300.773438 147.414062 C 301.300781 147.992188 302.175781 148.867188 303.148438 150.617188 C 304.875 153.664062 305.523438 157.617188 305.523438 161.441406 C 305.523438 168.367188 303.601562 172.589844 300.75 175.515625 C 300.699219 175.539062 300.675781 175.589844 300.675781 175.640625 C 300.675781 175.789062 300.824219 175.789062 300.976562 175.789062 C 301.175781 175.789062 301.226562 175.789062 301.351562 175.664062 C 302.875 174.367188 304.574219 172.140625 305.675781 168.789062 C 306.375 166.589844 306.726562 164.015625 306.726562 161.441406 Z M 306.726562 161.441406 "/>
</g>
<path style="fill-rule:evenodd;fill:rgb(0%,0%,0%);fill-opacity:1;stroke-width:0.8;stroke-linecap:butt;stroke-linejoin:miter;stroke:rgb(100%,100%,100%);stroke-opacity:1;stroke-miterlimit:4;" d="M 158.28125 147.054688 C 158.28125 148.382812 157.207031 149.457031 155.878906 149.457031 C 154.554688 149.457031 153.480469 148.382812 153.480469 147.054688 C 153.480469 145.730469 154.554688 144.65625 155.878906 144.65625 C 157.207031 144.65625 158.28125 145.730469 158.28125 147.054688 Z M 158.28125 147.054688 "/>
<path style="fill:none;stroke-width:0.8;stroke-linecap:butt;stroke-linejoin:miter;stroke:rgb(100%,0%,0%);stroke-opacity:1;stroke-miterlimit:4;" d="M 151.078125 147.054688 L 131.878906 147.054688 "/>
<path style="fill-rule:evenodd;fill:rgb(100%,0%,0%);fill-opacity:1;stroke-width:0.4;stroke-linecap:butt;stroke-linejoin:miter;stroke:rgb(100%,0%,0%);stroke-opacity:1;stroke-miterlimit:4;" d="M -147.878906 -147.054688 L -146.28125 -148.65625 L -151.878906 -147.054688 L -146.28125 -145.457031 Z M -147.878906 -147.054688 " transform="matrix(-1,0,0,-1,0,0)"/>
<path style="fill-rule:evenodd;fill:rgb(100%,0%,0%);fill-opacity:1;stroke-width:0.4;stroke-linecap:butt;stroke-linejoin:miter;stroke:rgb(100%,0%,0%);stroke-opacity:1;stroke-miterlimit:4;" d="M -130.3125 -147.054688 C -130.3125 -146.171875 -131.027344 -145.457031 -131.910156 -145.457031 C -132.796875 -145.457031 -133.511719 -146.171875 -133.511719 -147.054688 C -133.511719 -147.9375 -132.796875 -148.65625 -131.910156 -148.65625 C -131.027344 -148.65625 -130.3125 -147.9375 -130.3125 -147.054688 Z M -130.3125 -147.054688 " transform="matrix(-1,0,0,-1,0,0)"/>
<path style=" stroke:none;fill-rule:nonzero;fill:rgb(0%,0%,0%);fill-opacity:1;" d="M 81.066406 156.46875 C 81.066406 156.417969 81.039062 156.367188 81.015625 156.320312 C 80.289062 155.542969 79.191406 154.242188 78.515625 151.644531 C 78.164062 150.195312 78.015625 148.570312 78.015625 147.070312 C 78.015625 142.867188 79.015625 139.945312 80.941406 137.867188 C 81.066406 137.71875 81.066406 137.695312 81.066406 137.667969 C 81.066406 137.492188 80.941406 137.492188 80.890625 137.492188 C 80.640625 137.492188 79.789062 138.46875 79.589844 138.695312 C 77.941406 140.644531 76.914062 143.492188 76.914062 147.070312 C 76.914062 149.320312 77.316406 152.519531 79.414062 155.21875 C 79.566406 155.417969 80.589844 156.617188 80.890625 156.617188 C 80.941406 156.617188 81.066406 156.617188 81.066406 156.46875 Z M 81.066406 156.46875 "/>
<path style=" stroke:none;fill-rule:nonzero;fill:rgb(0%,0%,0%);fill-opacity:1;" d="M 86.421875 145.429688 C 87.71875 145.003906 88.644531 143.90625 88.644531 142.628906 C 88.644531 141.332031 87.246094 140.429688 85.71875 140.429688 C 84.121094 140.429688 82.894531 141.378906 82.894531 142.605469 C 82.894531 143.128906 83.246094 143.429688 83.71875 143.429688 C 84.195312 143.429688 84.519531 143.082031 84.519531 142.605469 C 84.519531 141.832031 83.769531 141.832031 83.546875 141.832031 C 84.019531 141.03125 85.070312 140.832031 85.644531 140.832031 C 86.320312 140.832031 87.195312 141.179688 87.195312 142.605469 C 87.195312 142.804688 87.144531 143.730469 86.746094 144.429688 C 86.269531 145.207031 85.71875 145.253906 85.320312 145.253906 C 85.195312 145.28125 84.820312 145.304688 84.695312 145.304688 C 84.570312 145.332031 84.46875 145.355469 84.46875 145.503906 C 84.46875 145.679688 84.570312 145.679688 84.84375 145.679688 L 85.546875 145.679688 C 86.84375 145.679688 87.445312 146.753906 87.445312 148.332031 C 87.445312 150.503906 86.34375 150.957031 85.644531 150.957031 C 84.945312 150.957031 83.746094 150.679688 83.195312 149.753906 C 83.746094 149.832031 84.246094 149.480469 84.246094 148.878906 C 84.246094 148.304688 83.820312 147.980469 83.371094 147.980469 C 82.96875 147.980469 82.46875 148.207031 82.46875 148.90625 C 82.46875 150.355469 83.945312 151.40625 85.695312 151.40625 C 87.644531 151.40625 89.09375 149.957031 89.09375 148.332031 C 89.09375 147.03125 88.070312 145.78125 86.421875 145.429688 Z M 86.421875 145.429688 "/>
<path style=" stroke:none;fill-rule:nonzero;fill:rgb(0%,0%,0%);fill-opacity:1;" d="M 93.015625 151.03125 C 93.015625 149.980469 92.617188 149.355469 91.992188 149.355469 C 91.464844 149.355469 91.140625 149.753906 91.140625 150.207031 C 91.140625 150.628906 91.464844 151.054688 91.992188 151.054688 C 92.167969 151.054688 92.390625 150.980469 92.542969 150.855469 C 92.589844 150.804688 92.617188 150.804688 92.617188 150.804688 C 92.640625 150.804688 92.640625 150.804688 92.640625 151.03125 C 92.640625 152.230469 92.089844 153.179688 91.566406 153.707031 C 91.390625 153.878906 91.390625 153.90625 91.390625 153.957031 C 91.390625 154.082031 91.464844 154.128906 91.542969 154.128906 C 91.714844 154.128906 93.015625 152.90625 93.015625 151.03125 Z M 93.015625 151.03125 "/>
<path style=" stroke:none;fill-rule:nonzero;fill:rgb(0%,0%,0%);fill-opacity:1;" d="M 107.351562 147.378906 C 107.625 147.378906 107.925781 147.378906 107.925781 147.054688 C 107.925781 146.753906 107.625 146.753906 107.351562 146.753906 L 98.726562 146.753906 C 98.449219 146.753906 98.175781 146.753906 98.175781 147.054688 C 98.175781 147.378906 98.449219 147.378906 98.726562 147.378906 Z M 107.351562 147.378906 "/>
<path style=" stroke:none;fill-rule:nonzero;fill:rgb(0%,0%,0%);fill-opacity:1;" d="M 113.875 145.429688 C 115.171875 145.003906 116.097656 143.90625 116.097656 142.628906 C 116.097656 141.332031 114.699219 140.429688 113.171875 140.429688 C 111.574219 140.429688 110.347656 141.378906 110.347656 142.605469 C 110.347656 143.128906 110.699219 143.429688 111.171875 143.429688 C 111.648438 143.429688 111.972656 143.082031 111.972656 142.605469 C 111.972656 141.832031 111.222656 141.832031 111 141.832031 C 111.472656 141.03125 112.523438 140.832031 113.097656 140.832031 C 113.773438 140.832031 114.648438 141.179688 114.648438 142.605469 C 114.648438 142.804688 114.597656 143.730469 114.199219 144.429688 C 113.722656 145.207031 113.171875 145.253906 112.773438 145.253906 C 112.648438 145.28125 112.273438 145.304688 112.148438 145.304688 C 112.023438 145.332031 111.921875 145.355469 111.921875 145.503906 C 111.921875 145.679688 112.023438 145.679688 112.296875 145.679688 L 113 145.679688 C 114.296875 145.679688 114.898438 146.753906 114.898438 148.332031 C 114.898438 150.503906 113.796875 150.957031 113.097656 150.957031 C 112.398438 150.957031 111.199219 150.679688 110.648438 149.753906 C 111.199219 149.832031 111.699219 149.480469 111.699219 148.878906 C 111.699219 148.304688 111.273438 147.980469 110.824219 147.980469 C 110.421875 147.980469 109.921875 148.207031 109.921875 148.90625 C 109.921875 150.355469 111.398438 151.40625 113.148438 151.40625 C 115.097656 151.40625 116.546875 149.957031 116.546875 148.332031 C 116.546875 147.03125 115.523438 145.78125 113.875 145.429688 Z M 113.875 145.429688 "/>
<path style=" stroke:none;fill-rule:nonzero;fill:rgb(0%,0%,0%);fill-opacity:1;" d="M 123.121094 143.445312 L 123.121094 143.046875 L 121.871094 143.046875 L 121.871094 138.070312 C 121.871094 137.84375 121.871094 137.746094 121.644531 137.746094 C 121.496094 137.746094 121.445312 137.746094 121.34375 137.921875 L 117.644531 143.046875 L 117.644531 143.445312 L 120.945312 143.445312 L 120.945312 144.34375 C 120.945312 144.746094 120.945312 144.871094 120.019531 144.871094 L 119.71875 144.871094 L 119.71875 145.269531 C 120.292969 145.246094 120.996094 145.21875 121.394531 145.21875 C 121.820312 145.21875 122.519531 145.246094 123.09375 145.269531 L 123.09375 144.871094 L 122.792969 144.871094 C 121.871094 144.871094 121.871094 144.746094 121.871094 144.34375 L 121.871094 143.445312 Z M 121.019531 138.96875 L 121.019531 143.046875 L 118.070312 143.046875 Z M 121.019531 138.96875 "/>
<path style=" stroke:none;fill-rule:nonzero;fill:rgb(0%,0%,0%);fill-opacity:1;" d="M 129.246094 147.070312 C 129.246094 144.820312 128.84375 141.59375 126.746094 138.917969 C 126.59375 138.71875 125.542969 137.492188 125.269531 137.492188 C 125.195312 137.492188 125.070312 137.542969 125.070312 137.667969 C 125.070312 137.71875 125.09375 137.769531 125.167969 137.820312 C 125.945312 138.644531 126.96875 139.945312 127.621094 142.492188 C 127.996094 143.945312 128.144531 145.570312 128.144531 147.070312 C 128.144531 148.667969 127.996094 150.292969 127.570312 151.867188 C 126.96875 154.09375 126.019531 155.367188 125.21875 156.269531 C 125.070312 156.417969 125.070312 156.445312 125.070312 156.46875 C 125.070312 156.59375 125.195312 156.617188 125.269531 156.617188 C 125.496094 156.617188 126.371094 155.667969 126.570312 155.445312 C 128.195312 153.492188 129.246094 150.644531 129.246094 147.070312 Z M 129.246094 147.070312 "/>
<path style=" stroke:none;fill-rule:nonzero;fill:rgb(0%,0%,0%);fill-opacity:1;" d="M 1.324219 203.242188 C 1.324219 200.640625 2.625 199.96875 3.476562 199.96875 C 3.625 199.96875 4.625 199.992188 5.175781 200.566406 C 4.523438 200.617188 4.425781 201.09375 4.425781 201.292969 C 4.425781 201.71875 4.726562 202.015625 5.148438 202.015625 C 5.574219 202.015625 5.898438 201.765625 5.898438 201.265625 C 5.898438 200.191406 4.675781 199.566406 3.449219 199.566406 C 1.449219 199.566406 0 201.292969 0 203.265625 C 0 205.316406 1.574219 206.890625 3.425781 206.890625 C 5.550781 206.890625 6.074219 204.96875 6.074219 204.816406 C 6.074219 204.667969 5.898438 204.667969 5.851562 204.667969 C 5.726562 204.667969 5.675781 204.71875 5.648438 204.816406 C 5.199219 206.292969 4.148438 206.492188 3.574219 206.492188 C 2.726562 206.492188 1.324219 205.816406 1.324219 203.242188 Z M 1.324219 203.242188 "/>
<path style=" stroke:none;fill-rule:nonzero;fill:rgb(0%,0%,0%);fill-opacity:1;" d="M 14.035156 203.292969 C 14.035156 201.265625 12.457031 199.566406 10.535156 199.566406 C 8.535156 199.566406 6.984375 201.316406 6.984375 203.292969 C 6.984375 205.367188 8.632812 206.890625 10.507812 206.890625 C 12.433594 206.890625 14.035156 205.316406 14.035156 203.292969 Z M 10.535156 206.492188 C 9.832031 206.492188 9.132812 206.167969 8.707031 205.417969 C 8.308594 204.71875 8.308594 203.742188 8.308594 203.167969 C 8.308594 202.542969 8.308594 201.691406 8.683594 200.992188 C 9.109375 200.265625 9.859375 199.917969 10.507812 199.917969 C 11.207031 199.917969 11.882812 200.265625 12.308594 200.96875 C 12.734375 201.640625 12.734375 202.566406 12.734375 203.167969 C 12.734375 203.742188 12.734375 204.617188 12.382812 205.316406 C 12.007812 206.042969 11.308594 206.492188 10.535156 206.492188 Z M 10.535156 206.492188 "/>
<path style=" stroke:none;fill-rule:nonzero;fill:rgb(0%,0%,0%);fill-opacity:1;" d="M 16.253906 201.242188 L 16.253906 205.515625 C 16.253906 206.21875 16.078125 206.21875 15.003906 206.21875 L 15.003906 206.71875 C 15.578125 206.691406 16.378906 206.667969 16.828125 206.667969 C 17.230469 206.667969 18.054688 206.691406 18.605469 206.71875 L 18.605469 206.21875 C 17.527344 206.21875 17.355469 206.21875 17.355469 205.515625 L 17.355469 202.566406 C 17.355469 200.917969 18.503906 200.015625 19.503906 200.015625 C 20.527344 200.015625 20.703125 200.867188 20.703125 201.792969 L 20.703125 205.515625 C 20.703125 206.21875 20.527344 206.21875 19.453125 206.21875 L 19.453125 206.71875 C 20.003906 206.691406 20.828125 206.667969 21.253906 206.667969 C 21.652344 206.667969 22.503906 206.691406 23.027344 206.71875 L 23.027344 206.21875 C 22.203125 206.21875 21.804688 206.21875 21.804688 205.742188 L 21.804688 202.691406 C 21.804688 201.316406 21.804688 200.84375 21.304688 200.265625 C 21.078125 199.992188 20.554688 199.667969 19.628906 199.667969 C 18.453125 199.667969 17.703125 200.34375 17.253906 201.34375 L 17.253906 199.667969 L 15.003906 199.84375 L 15.003906 200.34375 C 16.128906 200.34375 16.253906 200.441406 16.253906 201.242188 Z M 16.253906 201.242188 "/>
<path style=" stroke:none;fill-rule:nonzero;fill:rgb(0%,0%,0%);fill-opacity:1;" d="M 25.234375 203.242188 C 25.234375 200.640625 26.535156 199.96875 27.386719 199.96875 C 27.535156 199.96875 28.535156 199.992188 29.085938 200.566406 C 28.433594 200.617188 28.335938 201.09375 28.335938 201.292969 C 28.335938 201.71875 28.636719 202.015625 29.058594 202.015625 C 29.484375 202.015625 29.808594 201.765625 29.808594 201.265625 C 29.808594 200.191406 28.585938 199.566406 27.359375 199.566406 C 25.359375 199.566406 23.910156 201.292969 23.910156 203.265625 C 23.910156 205.316406 25.484375 206.890625 27.335938 206.890625 C 29.460938 206.890625 29.984375 204.96875 29.984375 204.816406 C 29.984375 204.667969 29.808594 204.667969 29.761719 204.667969 C 29.636719 204.667969 29.585938 204.71875 29.558594 204.816406 C 29.109375 206.292969 28.058594 206.492188 27.484375 206.492188 C 26.636719 206.492188 25.234375 205.816406 25.234375 203.242188 Z M 25.234375 203.242188 "/>
<path style=" stroke:none;fill-rule:nonzero;fill:rgb(0%,0%,0%);fill-opacity:1;" d="M 35.742188 205.515625 C 35.820312 206.140625 36.242188 206.816406 36.992188 206.816406 C 37.34375 206.816406 38.320312 206.59375 38.320312 205.292969 L 38.320312 204.390625 L 37.917969 204.390625 L 37.917969 205.292969 C 37.917969 206.21875 37.519531 206.316406 37.34375 206.316406 C 36.820312 206.316406 36.742188 205.59375 36.742188 205.515625 L 36.742188 202.34375 C 36.742188 201.667969 36.742188 201.042969 36.167969 200.441406 C 35.542969 199.816406 34.742188 199.566406 33.992188 199.566406 C 32.667969 199.566406 31.570312 200.316406 31.570312 201.367188 C 31.570312 201.84375 31.894531 202.117188 32.320312 202.117188 C 32.769531 202.117188 33.042969 201.792969 33.042969 201.390625 C 33.042969 201.191406 32.96875 200.667969 32.21875 200.667969 C 32.667969 200.09375 33.445312 199.917969 33.945312 199.917969 C 34.742188 199.917969 35.644531 200.542969 35.644531 201.96875 L 35.644531 202.542969 C 34.820312 202.59375 33.71875 202.640625 32.71875 203.117188 C 31.519531 203.667969 31.117188 204.492188 31.117188 205.191406 C 31.117188 206.492188 32.667969 206.890625 33.667969 206.890625 C 34.71875 206.890625 35.445312 206.242188 35.742188 205.515625 Z M 35.644531 202.890625 L 35.644531 204.492188 C 35.644531 205.992188 34.492188 206.542969 33.769531 206.542969 C 32.992188 206.542969 32.34375 205.992188 32.34375 205.191406 C 32.34375 204.316406 33.019531 202.992188 35.644531 202.890625 Z M 35.644531 202.890625 "/>
<path style=" stroke:none;fill-rule:nonzero;fill:rgb(0%,0%,0%);fill-opacity:1;" d="M 44.59375 201.417969 C 44.742188 201.042969 45.019531 200.34375 46.066406 200.34375 L 46.066406 199.84375 C 45.691406 199.867188 45.242188 199.890625 44.867188 199.890625 C 44.492188 199.890625 43.769531 199.867188 43.492188 199.84375 L 43.492188 200.34375 C 44.066406 200.34375 44.242188 200.71875 44.242188 201.015625 C 44.242188 201.167969 44.21875 201.242188 44.167969 201.417969 L 42.519531 205.46875 L 40.742188 201.015625 C 40.644531 200.816406 40.644531 200.792969 40.644531 200.742188 C 40.644531 200.34375 41.269531 200.34375 41.566406 200.34375 L 41.566406 199.84375 C 41.066406 199.867188 40.191406 199.890625 39.816406 199.890625 C 39.394531 199.890625 38.742188 199.867188 38.269531 199.84375 L 38.269531 200.34375 C 39.269531 200.34375 39.34375 200.441406 39.542969 200.917969 L 41.84375 206.59375 C 41.941406 206.816406 41.96875 206.890625 42.167969 206.890625 C 42.394531 206.890625 42.441406 206.742188 42.519531 206.59375 Z M 44.59375 201.417969 "/>
<path style=" stroke:none;fill-rule:nonzero;fill:rgb(0%,0%,0%);fill-opacity:1;" d="M 47.710938 202.691406 C 47.808594 200.316406 49.160156 199.917969 49.710938 199.917969 C 51.335938 199.917969 51.507812 202.066406 51.507812 202.691406 Z M 47.710938 203.042969 L 52.160156 203.042969 C 52.507812 203.042969 52.558594 203.042969 52.558594 202.691406 C 52.558594 201.117188 51.683594 199.566406 49.710938 199.566406 C 47.859375 199.566406 46.382812 201.21875 46.382812 203.21875 C 46.382812 205.34375 48.058594 206.890625 49.882812 206.890625 C 51.835938 206.890625 52.558594 205.117188 52.558594 204.816406 C 52.558594 204.667969 52.433594 204.617188 52.335938 204.617188 C 52.210938 204.617188 52.160156 204.71875 52.132812 204.84375 C 51.585938 206.492188 50.132812 206.492188 49.984375 206.492188 C 49.183594 206.492188 48.558594 206.015625 48.183594 205.417969 C 47.710938 204.667969 47.710938 203.617188 47.710938 203.042969 Z M 47.710938 203.042969 "/>
<path style=" stroke:none;fill-rule:nonzero;fill:rgb(0%,0%,0%);fill-opacity:1;" d="M 23.609375 224.59375 L 23.609375 226.019531 L 25.90625 225.84375 L 25.90625 225.34375 C 24.808594 225.34375 24.683594 225.246094 24.683594 224.445312 L 24.683594 218.796875 L 22.332031 218.96875 L 22.332031 219.46875 C 23.433594 219.46875 23.582031 219.570312 23.582031 220.371094 L 23.582031 223.195312 C 23.582031 224.59375 22.808594 225.671875 21.632812 225.671875 C 20.308594 225.671875 20.234375 224.921875 20.234375 224.09375 L 20.234375 218.796875 L 17.882812 218.96875 L 17.882812 219.46875 C 19.132812 219.46875 19.132812 219.519531 19.132812 220.921875 L 19.132812 223.320312 C 19.132812 224.570312 19.132812 226.019531 21.558594 226.019531 C 22.457031 226.019531 23.15625 225.570312 23.609375 224.59375 Z M 23.609375 224.59375 "/>
<path style=" stroke:none;fill-rule:nonzero;fill:rgb(0%,0%,0%);fill-opacity:1;" d="M 28.988281 219.84375 L 28.988281 218.796875 L 26.6875 218.96875 L 26.6875 219.46875 C 27.8125 219.46875 27.9375 219.570312 27.9375 220.269531 L 27.9375 227.71875 C 27.9375 228.445312 27.765625 228.445312 26.6875 228.445312 L 26.6875 228.945312 C 27.238281 228.921875 28.0625 228.894531 28.464844 228.894531 C 28.914062 228.894531 29.714844 228.921875 30.265625 228.945312 L 30.265625 228.445312 C 29.214844 228.445312 29.039062 228.445312 29.039062 227.71875 L 29.039062 224.894531 C 29.113281 225.171875 29.789062 226.019531 30.988281 226.019531 C 32.890625 226.019531 34.539062 224.445312 34.539062 222.394531 C 34.539062 220.371094 33.015625 218.796875 31.214844 218.796875 C 29.964844 218.796875 29.289062 219.496094 28.988281 219.84375 Z M 29.039062 224.019531 L 29.039062 220.46875 C 29.488281 219.644531 30.265625 219.195312 31.089844 219.195312 C 32.265625 219.195312 33.214844 220.59375 33.214844 222.394531 C 33.214844 224.320312 32.113281 225.671875 30.9375 225.671875 C 30.289062 225.671875 29.6875 225.34375 29.265625 224.695312 C 29.039062 224.371094 29.039062 224.34375 29.039062 224.019531 Z M 29.039062 224.019531 "/>
<path style=" stroke:none;fill-rule:nonzero;fill:rgb(0%,0%,0%);fill-opacity:1;" d="M 178.925781 203.242188 C 178.925781 200.640625 180.226562 199.96875 181.074219 199.96875 C 181.226562 199.96875 182.226562 199.992188 182.773438 200.566406 C 182.125 200.617188 182.023438 201.09375 182.023438 201.292969 C 182.023438 201.71875 182.324219 202.015625 182.75 202.015625 C 183.175781 202.015625 183.5 201.765625 183.5 201.265625 C 183.5 200.191406 182.273438 199.566406 181.050781 199.566406 C 179.050781 199.566406 177.601562 201.292969 177.601562 203.265625 C 177.601562 205.316406 179.175781 206.890625 181.023438 206.890625 C 183.148438 206.890625 183.675781 204.96875 183.675781 204.816406 C 183.675781 204.667969 183.5 204.667969 183.449219 204.667969 C 183.324219 204.667969 183.273438 204.71875 183.25 204.816406 C 182.800781 206.292969 181.75 206.492188 181.175781 206.492188 C 180.324219 206.492188 178.925781 205.816406 178.925781 203.242188 Z M 178.925781 203.242188 "/>
<path style=" stroke:none;fill-rule:nonzero;fill:rgb(0%,0%,0%);fill-opacity:1;" d="M 191.632812 203.292969 C 191.632812 201.265625 190.058594 199.566406 188.132812 199.566406 C 186.132812 199.566406 184.582031 201.316406 184.582031 203.292969 C 184.582031 205.367188 186.234375 206.890625 188.109375 206.890625 C 190.035156 206.890625 191.632812 205.316406 191.632812 203.292969 Z M 188.132812 206.492188 C 187.433594 206.492188 186.734375 206.167969 186.308594 205.417969 C 185.910156 204.71875 185.910156 203.742188 185.910156 203.167969 C 185.910156 202.542969 185.910156 201.691406 186.285156 200.992188 C 186.707031 200.265625 187.457031 199.917969 188.109375 199.917969 C 188.808594 199.917969 189.484375 200.265625 189.910156 200.96875 C 190.332031 201.640625 190.332031 202.566406 190.332031 203.167969 C 190.332031 203.742188 190.332031 204.617188 189.984375 205.316406 C 189.609375 206.042969 188.910156 206.492188 188.132812 206.492188 Z M 188.132812 206.492188 "/>
<path style=" stroke:none;fill-rule:nonzero;fill:rgb(0%,0%,0%);fill-opacity:1;" d="M 193.855469 201.242188 L 193.855469 205.515625 C 193.855469 206.21875 193.679688 206.21875 192.605469 206.21875 L 192.605469 206.71875 C 193.179688 206.691406 193.980469 206.667969 194.429688 206.667969 C 194.828125 206.667969 195.652344 206.691406 196.203125 206.71875 L 196.203125 206.21875 C 195.128906 206.21875 194.953125 206.21875 194.953125 205.515625 L 194.953125 202.566406 C 194.953125 200.917969 196.105469 200.015625 197.105469 200.015625 C 198.128906 200.015625 198.304688 200.867188 198.304688 201.792969 L 198.304688 205.515625 C 198.304688 206.21875 198.128906 206.21875 197.054688 206.21875 L 197.054688 206.71875 C 197.605469 206.691406 198.429688 206.667969 198.855469 206.667969 C 199.253906 206.667969 200.105469 206.691406 200.628906 206.71875 L 200.628906 206.21875 C 199.804688 206.21875 199.402344 206.21875 199.402344 205.742188 L 199.402344 202.691406 C 199.402344 201.316406 199.402344 200.84375 198.902344 200.265625 C 198.679688 199.992188 198.152344 199.667969 197.230469 199.667969 C 196.054688 199.667969 195.304688 200.34375 194.855469 201.34375 L 194.855469 199.667969 L 192.605469 199.84375 L 192.605469 200.34375 C 193.730469 200.34375 193.855469 200.441406 193.855469 201.242188 Z M 193.855469 201.242188 "/>
<path style=" stroke:none;fill-rule:nonzero;fill:rgb(0%,0%,0%);fill-opacity:1;" d="M 202.835938 203.242188 C 202.835938 200.640625 204.136719 199.96875 204.984375 199.96875 C 205.136719 199.96875 206.136719 199.992188 206.683594 200.566406 C 206.035156 200.617188 205.933594 201.09375 205.933594 201.292969 C 205.933594 201.71875 206.234375 202.015625 206.660156 202.015625 C 207.085938 202.015625 207.410156 201.765625 207.410156 201.265625 C 207.410156 200.191406 206.183594 199.566406 204.960938 199.566406 C 202.960938 199.566406 201.511719 201.292969 201.511719 203.265625 C 201.511719 205.316406 203.085938 206.890625 204.933594 206.890625 C 207.058594 206.890625 207.585938 204.96875 207.585938 204.816406 C 207.585938 204.667969 207.410156 204.667969 207.359375 204.667969 C 207.234375 204.667969 207.183594 204.71875 207.160156 204.816406 C 206.710938 206.292969 205.660156 206.492188 205.085938 206.492188 C 204.234375 206.492188 202.835938 205.816406 202.835938 203.242188 Z M 202.835938 203.242188 "/>
<path style=" stroke:none;fill-rule:nonzero;fill:rgb(0%,0%,0%);fill-opacity:1;" d="M 213.34375 205.515625 C 213.417969 206.140625 213.84375 206.816406 214.59375 206.816406 C 214.945312 206.816406 215.917969 206.59375 215.917969 205.292969 L 215.917969 204.390625 L 215.519531 204.390625 L 215.519531 205.292969 C 215.519531 206.21875 215.117188 206.316406 214.945312 206.316406 C 214.417969 206.316406 214.34375 205.59375 214.34375 205.515625 L 214.34375 202.34375 C 214.34375 201.667969 214.34375 201.042969 213.769531 200.441406 C 213.144531 199.816406 212.34375 199.566406 211.59375 199.566406 C 210.269531 199.566406 209.167969 200.316406 209.167969 201.367188 C 209.167969 201.84375 209.492188 202.117188 209.917969 202.117188 C 210.367188 202.117188 210.644531 201.792969 210.644531 201.390625 C 210.644531 201.191406 210.570312 200.667969 209.820312 200.667969 C 210.269531 200.09375 211.042969 199.917969 211.542969 199.917969 C 212.34375 199.917969 213.242188 200.542969 213.242188 201.96875 L 213.242188 202.542969 C 212.417969 202.59375 211.320312 202.640625 210.320312 203.117188 C 209.117188 203.667969 208.71875 204.492188 208.71875 205.191406 C 208.71875 206.492188 210.269531 206.890625 211.269531 206.890625 C 212.320312 206.890625 213.042969 206.242188 213.34375 205.515625 Z M 213.242188 202.890625 L 213.242188 204.492188 C 213.242188 205.992188 212.09375 206.542969 211.367188 206.542969 C 210.59375 206.542969 209.945312 205.992188 209.945312 205.191406 C 209.945312 204.316406 210.617188 202.992188 213.242188 202.890625 Z M 213.242188 202.890625 "/>
<path style=" stroke:none;fill-rule:nonzero;fill:rgb(0%,0%,0%);fill-opacity:1;" d="M 222.191406 201.417969 C 222.34375 201.042969 222.617188 200.34375 223.667969 200.34375 L 223.667969 199.84375 C 223.292969 199.867188 222.84375 199.890625 222.46875 199.890625 C 222.09375 199.890625 221.367188 199.867188 221.09375 199.84375 L 221.09375 200.34375 C 221.667969 200.34375 221.84375 200.71875 221.84375 201.015625 C 221.84375 201.167969 221.816406 201.242188 221.769531 201.417969 L 220.117188 205.46875 L 218.34375 201.015625 C 218.242188 200.816406 218.242188 200.792969 218.242188 200.742188 C 218.242188 200.34375 218.867188 200.34375 219.167969 200.34375 L 219.167969 199.84375 C 218.667969 199.867188 217.792969 199.890625 217.417969 199.890625 C 216.992188 199.890625 216.34375 199.867188 215.867188 199.84375 L 215.867188 200.34375 C 216.867188 200.34375 216.941406 200.441406 217.144531 200.917969 L 219.441406 206.59375 C 219.542969 206.816406 219.566406 206.890625 219.769531 206.890625 C 219.992188 206.890625 220.042969 206.742188 220.117188 206.59375 Z M 222.191406 201.417969 "/>
<path style=" stroke:none;fill-rule:nonzero;fill:rgb(0%,0%,0%);fill-opacity:1;" d="M 225.308594 202.691406 C 225.410156 200.316406 226.757812 199.917969 227.308594 199.917969 C 228.933594 199.917969 229.109375 202.066406 229.109375 202.691406 Z M 225.308594 203.042969 L 229.757812 203.042969 C 230.109375 203.042969 230.160156 203.042969 230.160156 202.691406 C 230.160156 201.117188 229.285156 199.566406 227.308594 199.566406 C 225.460938 199.566406 223.984375 201.21875 223.984375 203.21875 C 223.984375 205.34375 225.660156 206.890625 227.484375 206.890625 C 229.433594 206.890625 230.160156 205.117188 230.160156 204.816406 C 230.160156 204.667969 230.035156 204.617188 229.933594 204.617188 C 229.808594 204.617188 229.757812 204.71875 229.734375 204.84375 C 229.183594 206.492188 227.734375 206.492188 227.585938 206.492188 C 226.785156 206.492188 226.160156 206.015625 225.785156 205.417969 C 225.308594 204.667969 225.308594 203.617188 225.308594 203.042969 Z M 225.308594 203.042969 "/>
<path style=" stroke:none;fill-rule:nonzero;fill:rgb(0%,0%,0%);fill-opacity:1;" d="M 201.207031 224.59375 L 201.207031 226.019531 L 203.507812 225.84375 L 203.507812 225.34375 C 202.40625 225.34375 202.28125 225.246094 202.28125 224.445312 L 202.28125 218.796875 L 199.933594 218.96875 L 199.933594 219.46875 C 201.03125 219.46875 201.183594 219.570312 201.183594 220.371094 L 201.183594 223.195312 C 201.183594 224.59375 200.40625 225.671875 199.234375 225.671875 C 197.90625 225.671875 197.832031 224.921875 197.832031 224.09375 L 197.832031 218.796875 L 195.484375 218.96875 L 195.484375 219.46875 C 196.734375 219.46875 196.734375 219.519531 196.734375 220.921875 L 196.734375 223.320312 C 196.734375 224.570312 196.734375 226.019531 199.15625 226.019531 C 200.058594 226.019531 200.757812 225.570312 201.207031 224.59375 Z M 201.207031 224.59375 "/>
<path style=" stroke:none;fill-rule:nonzero;fill:rgb(0%,0%,0%);fill-opacity:1;" d="M 206.589844 219.84375 L 206.589844 218.796875 L 204.289062 218.96875 L 204.289062 219.46875 C 205.414062 219.46875 205.539062 219.570312 205.539062 220.269531 L 205.539062 227.71875 C 205.539062 228.445312 205.363281 228.445312 204.289062 228.445312 L 204.289062 228.945312 C 204.839844 228.921875 205.664062 228.894531 206.0625 228.894531 C 206.515625 228.894531 207.3125 228.921875 207.863281 228.945312 L 207.863281 228.445312 C 206.8125 228.445312 206.640625 228.445312 206.640625 227.71875 L 206.640625 224.894531 C 206.714844 225.171875 207.390625 226.019531 208.589844 226.019531 C 210.488281 226.019531 212.140625 224.445312 212.140625 222.394531 C 212.140625 220.371094 210.613281 218.796875 208.8125 218.796875 C 207.5625 218.796875 206.890625 219.496094 206.589844 219.84375 Z M 206.640625 224.019531 L 206.640625 220.46875 C 207.089844 219.644531 207.863281 219.195312 208.6875 219.195312 C 209.863281 219.195312 210.8125 220.59375 210.8125 222.394531 C 210.8125 224.320312 209.714844 225.671875 208.539062 225.671875 C 207.890625 225.671875 207.289062 225.34375 206.863281 224.695312 C 206.640625 224.371094 206.640625 224.34375 206.640625 224.019531 Z M 206.640625 224.019531 "/>
<path style=" stroke:none;fill-rule:nonzero;fill:rgb(0%,0%,0%);fill-opacity:1;" d="M 87.726562 203.242188 C 87.726562 200.640625 89.023438 199.96875 89.875 199.96875 C 90.023438 199.96875 91.023438 199.992188 91.574219 200.566406 C 90.925781 200.617188 90.824219 201.09375 90.824219 201.292969 C 90.824219 201.71875 91.125 202.015625 91.550781 202.015625 C 91.976562 202.015625 92.300781 201.765625 92.300781 201.265625 C 92.300781 200.191406 91.074219 199.566406 89.851562 199.566406 C 87.851562 199.566406 86.398438 201.292969 86.398438 203.265625 C 86.398438 205.316406 87.976562 206.890625 89.824219 206.890625 C 91.949219 206.890625 92.476562 204.96875 92.476562 204.816406 C 92.476562 204.667969 92.300781 204.667969 92.25 204.667969 C 92.125 204.667969 92.074219 204.71875 92.050781 204.816406 C 91.601562 206.292969 90.550781 206.492188 89.976562 206.492188 C 89.125 206.492188 87.726562 205.816406 87.726562 203.242188 Z M 87.726562 203.242188 "/>
<path style=" stroke:none;fill-rule:nonzero;fill:rgb(0%,0%,0%);fill-opacity:1;" d="M 100.433594 203.292969 C 100.433594 201.265625 98.859375 199.566406 96.933594 199.566406 C 94.933594 199.566406 93.382812 201.316406 93.382812 203.292969 C 93.382812 205.367188 95.035156 206.890625 96.910156 206.890625 C 98.832031 206.890625 100.433594 205.316406 100.433594 203.292969 Z M 96.933594 206.492188 C 96.234375 206.492188 95.535156 206.167969 95.109375 205.417969 C 94.707031 204.71875 94.707031 203.742188 94.707031 203.167969 C 94.707031 202.542969 94.707031 201.691406 95.082031 200.992188 C 95.507812 200.265625 96.257812 199.917969 96.910156 199.917969 C 97.609375 199.917969 98.285156 200.265625 98.707031 200.96875 C 99.132812 201.640625 99.132812 202.566406 99.132812 203.167969 C 99.132812 203.742188 99.132812 204.617188 98.785156 205.316406 C 98.410156 206.042969 97.707031 206.492188 96.933594 206.492188 Z M 96.933594 206.492188 "/>
<path style=" stroke:none;fill-rule:nonzero;fill:rgb(0%,0%,0%);fill-opacity:1;" d="M 102.652344 201.242188 L 102.652344 205.515625 C 102.652344 206.21875 102.480469 206.21875 101.402344 206.21875 L 101.402344 206.71875 C 101.980469 206.691406 102.777344 206.667969 103.230469 206.667969 C 103.628906 206.667969 104.453125 206.691406 105.003906 206.71875 L 105.003906 206.21875 C 103.929688 206.21875 103.753906 206.21875 103.753906 205.515625 L 103.753906 202.566406 C 103.753906 200.917969 104.902344 200.015625 105.902344 200.015625 C 106.929688 200.015625 107.105469 200.867188 107.105469 201.792969 L 107.105469 205.515625 C 107.105469 206.21875 106.929688 206.21875 105.855469 206.21875 L 105.855469 206.71875 C 106.402344 206.691406 107.230469 206.667969 107.652344 206.667969 C 108.054688 206.667969 108.902344 206.691406 109.429688 206.71875 L 109.429688 206.21875 C 108.605469 206.21875 108.203125 206.21875 108.203125 205.742188 L 108.203125 202.691406 C 108.203125 201.316406 108.203125 200.84375 107.703125 200.265625 C 107.480469 199.992188 106.953125 199.667969 106.027344 199.667969 C 104.855469 199.667969 104.105469 200.34375 103.652344 201.34375 L 103.652344 199.667969 L 101.402344 199.84375 L 101.402344 200.34375 C 102.527344 200.34375 102.652344 200.441406 102.652344 201.242188 Z M 102.652344 201.242188 "/>
<path style=" stroke:none;fill-rule:nonzero;fill:rgb(0%,0%,0%);fill-opacity:1;" d="M 111.636719 203.242188 C 111.636719 200.640625 112.933594 199.96875 113.785156 199.96875 C 113.933594 199.96875 114.933594 199.992188 115.484375 200.566406 C 114.835938 200.617188 114.734375 201.09375 114.734375 201.292969 C 114.734375 201.71875 115.035156 202.015625 115.460938 202.015625 C 115.886719 202.015625 116.210938 201.765625 116.210938 201.265625 C 116.210938 200.191406 114.984375 199.566406 113.761719 199.566406 C 111.761719 199.566406 110.308594 201.292969 110.308594 203.265625 C 110.308594 205.316406 111.886719 206.890625 113.734375 206.890625 C 115.859375 206.890625 116.386719 204.96875 116.386719 204.816406 C 116.386719 204.667969 116.210938 204.667969 116.160156 204.667969 C 116.035156 204.667969 115.984375 204.71875 115.960938 204.816406 C 115.511719 206.292969 114.460938 206.492188 113.886719 206.492188 C 113.035156 206.492188 111.636719 205.816406 111.636719 203.242188 Z M 111.636719 203.242188 "/>
<path style=" stroke:none;fill-rule:nonzero;fill:rgb(0%,0%,0%);fill-opacity:1;" d="M 122.144531 205.515625 C 122.21875 206.140625 122.644531 206.816406 123.394531 206.816406 C 123.742188 206.816406 124.71875 206.59375 124.71875 205.292969 L 124.71875 204.390625 L 124.320312 204.390625 L 124.320312 205.292969 C 124.320312 206.21875 123.917969 206.316406 123.742188 206.316406 C 123.21875 206.316406 123.144531 205.59375 123.144531 205.515625 L 123.144531 202.34375 C 123.144531 201.667969 123.144531 201.042969 122.570312 200.441406 C 121.945312 199.816406 121.144531 199.566406 120.394531 199.566406 C 119.070312 199.566406 117.96875 200.316406 117.96875 201.367188 C 117.96875 201.84375 118.292969 202.117188 118.71875 202.117188 C 119.167969 202.117188 119.445312 201.792969 119.445312 201.390625 C 119.445312 201.191406 119.367188 200.667969 118.617188 200.667969 C 119.070312 200.09375 119.84375 199.917969 120.34375 199.917969 C 121.144531 199.917969 122.042969 200.542969 122.042969 201.96875 L 122.042969 202.542969 C 121.21875 202.59375 120.117188 202.640625 119.117188 203.117188 C 117.917969 203.667969 117.519531 204.492188 117.519531 205.191406 C 117.519531 206.492188 119.070312 206.890625 120.070312 206.890625 C 121.117188 206.890625 121.84375 206.242188 122.144531 205.515625 Z M 122.042969 202.890625 L 122.042969 204.492188 C 122.042969 205.992188 120.894531 206.542969 120.167969 206.542969 C 119.394531 206.542969 118.742188 205.992188 118.742188 205.191406 C 118.742188 204.316406 119.417969 202.992188 122.042969 202.890625 Z M 122.042969 202.890625 "/>
<path style=" stroke:none;fill-rule:nonzero;fill:rgb(0%,0%,0%);fill-opacity:1;" d="M 130.992188 201.417969 C 131.144531 201.042969 131.417969 200.34375 132.46875 200.34375 L 132.46875 199.84375 C 132.09375 199.867188 131.644531 199.890625 131.269531 199.890625 C 130.894531 199.890625 130.167969 199.867188 129.894531 199.84375 L 129.894531 200.34375 C 130.46875 200.34375 130.644531 200.71875 130.644531 201.015625 C 130.644531 201.167969 130.617188 201.242188 130.566406 201.417969 L 128.917969 205.46875 L 127.144531 201.015625 C 127.042969 200.816406 127.042969 200.792969 127.042969 200.742188 C 127.042969 200.34375 127.667969 200.34375 127.96875 200.34375 L 127.96875 199.84375 C 127.46875 199.867188 126.59375 199.890625 126.21875 199.890625 C 125.792969 199.890625 125.144531 199.867188 124.667969 199.84375 L 124.667969 200.34375 C 125.667969 200.34375 125.742188 200.441406 125.941406 200.917969 L 128.242188 206.59375 C 128.34375 206.816406 128.367188 206.890625 128.566406 206.890625 C 128.792969 206.890625 128.84375 206.742188 128.917969 206.59375 Z M 130.992188 201.417969 "/>
<path style=" stroke:none;fill-rule:nonzero;fill:rgb(0%,0%,0%);fill-opacity:1;" d="M 134.109375 202.691406 C 134.210938 200.316406 135.558594 199.917969 136.109375 199.917969 C 137.734375 199.917969 137.910156 202.066406 137.910156 202.691406 Z M 134.109375 203.042969 L 138.558594 203.042969 C 138.910156 203.042969 138.960938 203.042969 138.960938 202.691406 C 138.960938 201.117188 138.085938 199.566406 136.109375 199.566406 C 134.257812 199.566406 132.785156 201.21875 132.785156 203.21875 C 132.785156 205.34375 134.460938 206.890625 136.285156 206.890625 C 138.234375 206.890625 138.960938 205.117188 138.960938 204.816406 C 138.960938 204.667969 138.835938 204.617188 138.734375 204.617188 C 138.609375 204.617188 138.558594 204.71875 138.535156 204.84375 C 137.984375 206.492188 136.535156 206.492188 136.382812 206.492188 C 135.585938 206.492188 134.960938 206.015625 134.585938 205.417969 C 134.109375 204.667969 134.109375 203.617188 134.109375 203.042969 Z M 134.109375 203.042969 "/>
<path style=" stroke:none;fill-rule:nonzero;fill:rgb(0%,0%,0%);fill-opacity:1;" d="M 100.3125 224.96875 L 100.3125 226.019531 L 102.664062 225.84375 L 102.664062 225.34375 C 101.5625 225.34375 101.414062 225.246094 101.414062 224.445312 L 101.414062 214.769531 L 99.136719 214.945312 L 99.136719 215.445312 C 100.238281 215.445312 100.363281 215.546875 100.363281 216.34375 L 100.363281 219.796875 C 99.914062 219.21875 99.210938 218.796875 98.363281 218.796875 C 96.488281 218.796875 94.8125 220.371094 94.8125 222.421875 C 94.8125 224.445312 96.363281 226.019531 98.1875 226.019531 C 99.210938 226.019531 99.914062 225.46875 100.3125 224.96875 Z M 100.3125 220.695312 L 100.3125 223.96875 C 100.3125 224.246094 100.3125 224.269531 100.136719 224.546875 C 99.664062 225.320312 98.960938 225.671875 98.261719 225.671875 C 97.539062 225.671875 96.960938 225.246094 96.585938 224.644531 C 96.1875 223.996094 96.136719 223.09375 96.136719 222.421875 C 96.136719 221.84375 96.164062 220.894531 96.613281 220.171875 C 96.960938 219.671875 97.5625 219.144531 98.4375 219.144531 C 98.988281 219.144531 99.664062 219.394531 100.136719 220.09375 C 100.3125 220.371094 100.3125 220.394531 100.3125 220.695312 Z M 100.3125 220.695312 "/>
<path style=" stroke:none;fill-rule:nonzero;fill:rgb(0%,0%,0%);fill-opacity:1;" d="M 110.617188 222.421875 C 110.617188 220.394531 109.042969 218.695312 107.117188 218.695312 C 105.117188 218.695312 103.570312 220.445312 103.570312 222.421875 C 103.570312 224.496094 105.21875 226.019531 107.09375 226.019531 C 109.019531 226.019531 110.617188 224.445312 110.617188 222.421875 Z M 107.117188 225.621094 C 106.417969 225.621094 105.71875 225.296875 105.292969 224.546875 C 104.894531 223.84375 104.894531 222.871094 104.894531 222.296875 C 104.894531 221.671875 104.894531 220.820312 105.269531 220.121094 C 105.695312 219.394531 106.445312 219.046875 107.09375 219.046875 C 107.792969 219.046875 108.46875 219.394531 108.894531 220.09375 C 109.320312 220.769531 109.320312 221.695312 109.320312 222.296875 C 109.320312 222.871094 109.320312 223.746094 108.96875 224.445312 C 108.59375 225.171875 107.894531 225.621094 107.117188 225.621094 Z M 107.117188 225.621094 "/>
<path style=" stroke:none;fill-rule:nonzero;fill:rgb(0%,0%,0%);fill-opacity:1;" d="M 120.519531 220.496094 C 120.792969 219.695312 121.292969 219.46875 121.867188 219.46875 L 121.867188 218.96875 C 121.492188 218.996094 121.042969 219.019531 120.691406 219.019531 C 120.21875 219.019531 119.519531 218.996094 119.21875 218.96875 L 119.21875 219.46875 C 119.792969 219.46875 120.144531 219.769531 120.144531 220.21875 C 120.144531 220.320312 120.144531 220.371094 120.042969 220.570312 L 118.59375 224.644531 L 117.019531 220.195312 C 116.96875 219.996094 116.941406 219.96875 116.941406 219.894531 C 116.941406 219.46875 117.566406 219.46875 117.894531 219.46875 L 117.894531 218.96875 C 117.417969 218.996094 116.617188 219.019531 116.21875 219.019531 C 115.742188 219.019531 115.292969 218.996094 114.816406 218.96875 L 114.816406 219.46875 C 115.394531 219.46875 115.644531 219.496094 115.816406 219.695312 C 115.894531 219.796875 116.066406 220.269531 116.167969 220.570312 L 114.816406 224.445312 L 113.292969 220.195312 C 113.21875 219.996094 113.21875 219.96875 113.21875 219.894531 C 113.21875 219.46875 113.84375 219.46875 114.144531 219.46875 L 114.144531 218.96875 C 113.667969 218.996094 112.769531 219.019531 112.417969 219.019531 C 112.34375 219.019531 111.492188 218.996094 110.917969 218.96875 L 110.917969 219.46875 C 111.71875 219.46875 111.917969 219.519531 112.117188 220.019531 L 114.117188 225.671875 C 114.191406 225.894531 114.242188 226.019531 114.441406 226.019531 C 114.667969 226.019531 114.691406 225.921875 114.769531 225.695312 L 116.394531 221.195312 L 118.019531 225.71875 C 118.066406 225.894531 118.117188 226.019531 118.34375 226.019531 C 118.542969 226.019531 118.59375 225.871094 118.644531 225.71875 Z M 120.519531 220.496094 "/>
<path style=" stroke:none;fill-rule:nonzero;fill:rgb(0%,0%,0%);fill-opacity:1;" d="M 123.90625 220.371094 L 123.90625 224.644531 C 123.90625 225.34375 123.730469 225.34375 122.65625 225.34375 L 122.65625 225.84375 C 123.230469 225.820312 124.03125 225.796875 124.480469 225.796875 C 124.878906 225.796875 125.703125 225.820312 126.253906 225.84375 L 126.253906 225.34375 C 125.179688 225.34375 125.003906 225.34375 125.003906 224.644531 L 125.003906 221.695312 C 125.003906 220.046875 126.15625 219.144531 127.15625 219.144531 C 128.179688 219.144531 128.355469 219.996094 128.355469 220.921875 L 128.355469 224.644531 C 128.355469 225.34375 128.179688 225.34375 127.105469 225.34375 L 127.105469 225.84375 C 127.65625 225.820312 128.480469 225.796875 128.90625 225.796875 C 129.304688 225.796875 130.15625 225.820312 130.679688 225.84375 L 130.679688 225.34375 C 129.855469 225.34375 129.453125 225.34375 129.453125 224.871094 L 129.453125 221.820312 C 129.453125 220.445312 129.453125 219.96875 128.953125 219.394531 C 128.730469 219.121094 128.203125 218.796875 127.28125 218.796875 C 126.105469 218.796875 125.355469 219.46875 124.90625 220.46875 L 124.90625 218.796875 L 122.65625 218.96875 L 122.65625 219.46875 C 123.78125 219.46875 123.90625 219.570312 123.90625 220.371094 Z M 123.90625 220.371094 "/>
</g>
</svg>
