<?xml version="1.0" encoding="UTF-8"?>
<svg xmlns="http://www.w3.org/2000/svg" xmlns:xlink="http://www.w3.org/1999/xlink" width="351.720001pt" height="210.037994pt" viewBox="0 0 351.720001 210.037994" version="1.1">
<defs>
<clipPath id="clip1">
  <path d="M 334 81 L 351.71875 81 L 351.71875 98 L 334 98 Z M 334 81 "/>
</clipPath>
<clipPath id="clip2">
  <path d="M 145 199 L 154 199 L 154 210.039062 L 145 210.039062 Z M 145 199 "/>
</clipPath>
</defs>
<g id="surface1">
<path style="fill:none;stroke-width:0.8;stroke-linecap:butt;stroke-linejoin:miter;stroke:rgb(0%,0%,0%);stroke-opacity:1;stroke-dasharray:0.8,1.6;stroke-miterlimit:4;" d="M 233.460938 175.859375 L 233.460938 3.058594 "/>
<path style="fill:none;stroke-width:0.8;stroke-linecap:butt;stroke-linejoin:miter;stroke:rgb(0%,0%,0%);stroke-opacity:1;stroke-dasharray:0.8,1.6;stroke-miterlimit:4;" d="M 118.261719 175.859375 L 118.261719 3.058594 "/>
<path style="fill:none;stroke-width:1.6;stroke-linecap:butt;stroke-linejoin:miter;stroke:rgb(100%,0%,0%);stroke-opacity:1;stroke-miterlimit:4;" d="M 3.058594 89.460938 L 348.660156 89.460938 "/>
<path style="fill-rule:evenodd;fill:rgb(100%,0%,0%);fill-opacity:1;stroke-width:0.8;stroke-linecap:butt;stroke-linejoin:miter;stroke:rgb(100%,0%,0%);stroke-opacity:1;stroke-miterlimit:4;" d="M 9.460938 89.460938 L 12.660156 86.261719 L 1.460938 89.460938 L 12.660156 92.660156 Z M 9.460938 89.460938 "/>
<path style=" stroke:none;fill-rule:evenodd;fill:rgb(100%,0%,0%);fill-opacity:1;" d="M 342.261719 89.460938 L 339.058594 92.660156 L 350.261719 89.460938 L 339.058594 86.261719 Z M 342.261719 89.460938 "/>
<g clip-path="url(#clip1)" clip-rule="nonzero">
<path style="fill:none;stroke-width:0.8;stroke-linecap:butt;stroke-linejoin:miter;stroke:rgb(100%,0%,0%);stroke-opacity:1;stroke-miterlimit:4;" d="M -342.261719 -89.460938 L -339.058594 -92.660156 L -350.261719 -89.460938 L -339.058594 -86.261719 Z M -342.261719 -89.460938 " transform="matrix(-1,0,0,-1,0,0)"/>
</g>
<path style="fill:none;stroke-width:1.6;stroke-linecap:butt;stroke-linejoin:miter;stroke:rgb(100%,0%,0%);stroke-opacity:1;stroke-miterlimit:4;" d="M 175.859375 3.058594 L 175.859375 175.859375 "/>
<path style="fill-rule:evenodd;fill:rgb(100%,0%,0%);fill-opacity:1;stroke-width:0.8;stroke-linecap:butt;stroke-linejoin:miter;stroke:rgb(100%,0%,0%);stroke-opacity:1;stroke-miterlimit:4;" d="M 9.460938 -175.859375 L 12.660156 -179.058594 L 1.460938 -175.859375 L 12.660156 -172.660156 Z M 9.460938 -175.859375 " transform="matrix(0,1,-1,0,0,0)"/>
<path style="fill-rule:evenodd;fill:rgb(100%,0%,0%);fill-opacity:1;stroke-width:0.8;stroke-linecap:butt;stroke-linejoin:miter;stroke:rgb(100%,0%,0%);stroke-opacity:1;stroke-miterlimit:4;" d="M -169.460938 175.859375 L -166.261719 172.660156 L -177.460938 175.859375 L -166.261719 179.058594 Z M -169.460938 175.859375 " transform="matrix(0,-1,1,0,0,0)"/>
<path style="fill:none;stroke-width:1.6;stroke-linecap:butt;stroke-linejoin:miter;stroke:rgb(0%,0%,0%);stroke-opacity:1;stroke-miterlimit:4;" d="M 123.058594 3.058594 C 123.058594 46.261719 147.058594 60.660156 175.859375 89.460938 C 204.660156 118.261719 228.660156 132.660156 228.660156 175.859375 "/>
<path style="fill-rule:evenodd;fill:rgb(0%,0%,0%);fill-opacity:1;stroke-width:0.8;stroke-linecap:butt;stroke-linejoin:miter;stroke:rgb(100%,100%,100%);stroke-opacity:1;stroke-miterlimit:4;" d="M 178.261719 89.460938 C 178.261719 90.785156 177.183594 91.859375 175.859375 91.859375 C 174.535156 91.859375 173.460938 90.785156 173.460938 89.460938 C 173.460938 88.132812 174.535156 87.058594 175.859375 87.058594 C 177.183594 87.058594 178.261719 88.132812 178.261719 89.460938 Z M 178.261719 89.460938 "/>
<path style=" stroke:none;fill-rule:nonzero;fill:rgb(0%,0%,0%);fill-opacity:1;" d="M 38.105469 184.335938 C 38.105469 181.734375 39.40625 181.058594 40.253906 181.058594 C 40.40625 181.058594 41.40625 181.085938 41.957031 181.660156 C 41.304688 181.710938 41.207031 182.183594 41.207031 182.386719 C 41.207031 182.808594 41.503906 183.109375 41.929688 183.109375 C 42.355469 183.109375 42.679688 182.859375 42.679688 182.359375 C 42.679688 181.285156 41.457031 180.660156 40.230469 180.660156 C 38.230469 180.660156 36.78125 182.386719 36.78125 184.359375 C 36.78125 186.410156 38.355469 187.984375 40.207031 187.984375 C 42.332031 187.984375 42.855469 186.058594 42.855469 185.910156 C 42.855469 185.761719 42.679688 185.761719 42.628906 185.761719 C 42.503906 185.761719 42.457031 185.808594 42.429688 185.910156 C 41.980469 187.386719 40.929688 187.585938 40.355469 187.585938 C 39.503906 187.585938 38.105469 186.910156 38.105469 184.335938 Z M 38.105469 184.335938 "/>
<path style=" stroke:none;fill-rule:nonzero;fill:rgb(0%,0%,0%);fill-opacity:1;" d="M 50.8125 184.386719 C 50.8125 182.359375 49.238281 180.660156 47.3125 180.660156 C 45.3125 180.660156 43.765625 182.410156 43.765625 184.386719 C 43.765625 186.460938 45.414062 187.984375 47.289062 187.984375 C 49.214844 187.984375 50.8125 186.410156 50.8125 184.386719 Z M 47.3125 187.585938 C 46.613281 187.585938 45.914062 187.261719 45.488281 186.511719 C 45.089844 185.808594 45.089844 184.835938 45.089844 184.261719 C 45.089844 183.636719 45.089844 182.785156 45.464844 182.085938 C 45.890625 181.359375 46.640625 181.011719 47.289062 181.011719 C 47.988281 181.011719 48.664062 181.359375 49.089844 182.058594 C 49.515625 182.734375 49.515625 183.660156 49.515625 184.261719 C 49.515625 184.835938 49.515625 185.710938 49.164062 186.410156 C 48.789062 187.136719 48.089844 187.585938 47.3125 187.585938 Z M 47.3125 187.585938 "/>
<path style=" stroke:none;fill-rule:nonzero;fill:rgb(0%,0%,0%);fill-opacity:1;" d="M 53.035156 182.335938 L 53.035156 186.609375 C 53.035156 187.308594 52.859375 187.308594 51.785156 187.308594 L 51.785156 187.808594 C 52.359375 187.785156 53.160156 187.761719 53.609375 187.761719 C 54.007812 187.761719 54.835938 187.785156 55.382812 187.808594 L 55.382812 187.308594 C 54.308594 187.308594 54.132812 187.308594 54.132812 186.609375 L 54.132812 183.660156 C 54.132812 182.011719 55.285156 181.109375 56.285156 181.109375 C 57.308594 181.109375 57.484375 181.960938 57.484375 182.886719 L 57.484375 186.609375 C 57.484375 187.308594 57.308594 187.308594 56.234375 187.308594 L 56.234375 187.808594 C 56.785156 187.785156 57.609375 187.761719 58.035156 187.761719 C 58.433594 187.761719 59.285156 187.785156 59.808594 187.808594 L 59.808594 187.308594 C 58.984375 187.308594 58.585938 187.308594 58.585938 186.835938 L 58.585938 183.785156 C 58.585938 182.410156 58.585938 181.933594 58.085938 181.359375 C 57.859375 181.085938 57.335938 180.761719 56.410156 180.761719 C 55.234375 180.761719 54.484375 181.433594 54.035156 182.433594 L 54.035156 180.761719 L 51.785156 180.933594 L 51.785156 181.433594 C 52.910156 181.433594 53.035156 181.535156 53.035156 182.335938 Z M 53.035156 182.335938 "/>
<path style=" stroke:none;fill-rule:nonzero;fill:rgb(0%,0%,0%);fill-opacity:1;" d="M 62.015625 184.335938 C 62.015625 181.734375 63.316406 181.058594 64.164062 181.058594 C 64.316406 181.058594 65.316406 181.085938 65.867188 181.660156 C 65.214844 181.710938 65.117188 182.183594 65.117188 182.386719 C 65.117188 182.808594 65.414062 183.109375 65.839844 183.109375 C 66.265625 183.109375 66.589844 182.859375 66.589844 182.359375 C 66.589844 181.285156 65.367188 180.660156 64.140625 180.660156 C 62.140625 180.660156 60.691406 182.386719 60.691406 184.359375 C 60.691406 186.410156 62.265625 187.984375 64.117188 187.984375 C 66.242188 187.984375 66.765625 186.058594 66.765625 185.910156 C 66.765625 185.761719 66.589844 185.761719 66.539062 185.761719 C 66.414062 185.761719 66.367188 185.808594 66.339844 185.910156 C 65.890625 187.386719 64.839844 187.585938 64.265625 187.585938 C 63.414062 187.585938 62.015625 186.910156 62.015625 184.335938 Z M 62.015625 184.335938 "/>
<path style=" stroke:none;fill-rule:nonzero;fill:rgb(0%,0%,0%);fill-opacity:1;" d="M 72.523438 186.609375 C 72.597656 187.234375 73.023438 187.910156 73.773438 187.910156 C 74.125 187.910156 75.097656 187.683594 75.097656 186.386719 L 75.097656 185.484375 L 74.699219 185.484375 L 74.699219 186.386719 C 74.699219 187.308594 74.300781 187.410156 74.125 187.410156 C 73.597656 187.410156 73.523438 186.683594 73.523438 186.609375 L 73.523438 183.433594 C 73.523438 182.761719 73.523438 182.136719 72.949219 181.535156 C 72.324219 180.910156 71.523438 180.660156 70.773438 180.660156 C 69.449219 180.660156 68.347656 181.410156 68.347656 182.460938 C 68.347656 182.933594 68.675781 183.210938 69.097656 183.210938 C 69.550781 183.210938 69.824219 182.886719 69.824219 182.484375 C 69.824219 182.285156 69.75 181.761719 69 181.761719 C 69.449219 181.183594 70.222656 181.011719 70.722656 181.011719 C 71.523438 181.011719 72.425781 181.636719 72.425781 183.058594 L 72.425781 183.636719 C 71.597656 183.683594 70.5 183.734375 69.5 184.210938 C 68.300781 184.761719 67.898438 185.585938 67.898438 186.285156 C 67.898438 187.585938 69.449219 187.984375 70.449219 187.984375 C 71.5 187.984375 72.222656 187.335938 72.523438 186.609375 Z M 72.425781 183.984375 L 72.425781 185.585938 C 72.425781 187.085938 71.273438 187.636719 70.550781 187.636719 C 69.773438 187.636719 69.125 187.085938 69.125 186.285156 C 69.125 185.410156 69.800781 184.085938 72.425781 183.984375 Z M 72.425781 183.984375 "/>
<path style=" stroke:none;fill-rule:nonzero;fill:rgb(0%,0%,0%);fill-opacity:1;" d="M 81.371094 182.511719 C 81.523438 182.136719 81.796875 181.433594 82.847656 181.433594 L 82.847656 180.933594 C 82.472656 180.960938 82.023438 180.984375 81.648438 180.984375 C 81.273438 180.984375 80.546875 180.960938 80.273438 180.933594 L 80.273438 181.433594 C 80.847656 181.433594 81.023438 181.808594 81.023438 182.109375 C 81.023438 182.261719 80.996094 182.335938 80.949219 182.511719 L 79.296875 186.558594 L 77.523438 182.109375 C 77.421875 181.910156 77.421875 181.886719 77.421875 181.835938 C 77.421875 181.433594 78.046875 181.433594 78.347656 181.433594 L 78.347656 180.933594 C 77.847656 180.960938 76.972656 180.984375 76.597656 180.984375 C 76.171875 180.984375 75.523438 180.960938 75.046875 180.933594 L 75.046875 181.433594 C 76.046875 181.433594 76.121094 181.535156 76.324219 182.011719 L 78.621094 187.683594 C 78.722656 187.910156 78.746094 187.984375 78.949219 187.984375 C 79.171875 187.984375 79.222656 187.835938 79.296875 187.683594 Z M 81.371094 182.511719 "/>
<path style=" stroke:none;fill-rule:nonzero;fill:rgb(0%,0%,0%);fill-opacity:1;" d="M 84.488281 183.785156 C 84.589844 181.410156 85.941406 181.011719 86.488281 181.011719 C 88.113281 181.011719 88.289062 183.160156 88.289062 183.785156 Z M 84.488281 184.136719 L 88.941406 184.136719 C 89.289062 184.136719 89.339844 184.136719 89.339844 183.785156 C 89.339844 182.210938 88.464844 180.660156 86.488281 180.660156 C 84.640625 180.660156 83.164062 182.308594 83.164062 184.308594 C 83.164062 186.433594 84.839844 187.984375 86.664062 187.984375 C 88.613281 187.984375 89.339844 186.210938 89.339844 185.910156 C 89.339844 185.761719 89.214844 185.710938 89.113281 185.710938 C 88.988281 185.710938 88.941406 185.808594 88.914062 185.933594 C 88.363281 187.585938 86.914062 187.585938 86.765625 187.585938 C 85.964844 187.585938 85.339844 187.109375 84.964844 186.511719 C 84.488281 185.761719 84.488281 184.710938 84.488281 184.136719 Z M 84.488281 184.136719 "/>
<path style=" stroke:none;fill-rule:nonzero;fill:rgb(0%,0%,0%);fill-opacity:1;" d="M 50.691406 206.0625 L 50.691406 207.113281 L 53.042969 206.9375 L 53.042969 206.4375 C 51.941406 206.4375 51.792969 206.339844 51.792969 205.539062 L 51.792969 195.863281 L 49.519531 196.039062 L 49.519531 196.539062 C 50.617188 196.539062 50.742188 196.636719 50.742188 197.4375 L 50.742188 200.886719 C 50.292969 200.3125 49.59375 199.886719 48.742188 199.886719 C 46.867188 199.886719 45.191406 201.464844 45.191406 203.511719 C 45.191406 205.539062 46.742188 207.113281 48.566406 207.113281 C 49.59375 207.113281 50.292969 206.5625 50.691406 206.0625 Z M 50.691406 201.789062 L 50.691406 205.0625 C 50.691406 205.339844 50.691406 205.363281 50.519531 205.636719 C 50.042969 206.414062 49.34375 206.761719 48.644531 206.761719 C 47.917969 206.761719 47.34375 206.339844 46.96875 205.738281 C 46.566406 205.089844 46.519531 204.1875 46.519531 203.511719 C 46.519531 202.9375 46.542969 201.988281 46.992188 201.261719 C 47.34375 200.761719 47.941406 200.238281 48.816406 200.238281 C 49.367188 200.238281 50.042969 200.488281 50.519531 201.1875 C 50.691406 201.464844 50.691406 201.488281 50.691406 201.789062 Z M 50.691406 201.789062 "/>
<path style=" stroke:none;fill-rule:nonzero;fill:rgb(0%,0%,0%);fill-opacity:1;" d="M 61 203.511719 C 61 201.488281 59.425781 199.789062 57.5 199.789062 C 55.5 199.789062 53.949219 201.539062 53.949219 203.511719 C 53.949219 205.589844 55.597656 207.113281 57.472656 207.113281 C 59.398438 207.113281 61 205.539062 61 203.511719 Z M 57.5 206.714844 C 56.800781 206.714844 56.097656 206.386719 55.675781 205.636719 C 55.273438 204.9375 55.273438 203.964844 55.273438 203.386719 C 55.273438 202.761719 55.273438 201.914062 55.648438 201.214844 C 56.074219 200.488281 56.824219 200.136719 57.472656 200.136719 C 58.175781 200.136719 58.847656 200.488281 59.273438 201.1875 C 59.699219 201.863281 59.699219 202.789062 59.699219 203.386719 C 59.699219 203.964844 59.699219 204.839844 59.347656 205.539062 C 58.972656 206.261719 58.273438 206.714844 57.5 206.714844 Z M 57.5 206.714844 "/>
<path style=" stroke:none;fill-rule:nonzero;fill:rgb(0%,0%,0%);fill-opacity:1;" d="M 70.898438 201.589844 C 71.171875 200.789062 71.671875 200.5625 72.246094 200.5625 L 72.246094 200.0625 C 71.871094 200.089844 71.421875 200.113281 71.074219 200.113281 C 70.597656 200.113281 69.898438 200.089844 69.597656 200.0625 L 69.597656 200.5625 C 70.171875 200.5625 70.523438 200.863281 70.523438 201.3125 C 70.523438 201.414062 70.523438 201.464844 70.421875 201.664062 L 68.972656 205.738281 L 67.398438 201.289062 C 67.347656 201.089844 67.324219 201.0625 67.324219 200.988281 C 67.324219 200.5625 67.949219 200.5625 68.273438 200.5625 L 68.273438 200.0625 C 67.796875 200.089844 66.996094 200.113281 66.597656 200.113281 C 66.121094 200.113281 65.671875 200.089844 65.199219 200.0625 L 65.199219 200.5625 C 65.773438 200.5625 66.023438 200.589844 66.199219 200.789062 C 66.273438 200.886719 66.449219 201.363281 66.546875 201.664062 L 65.199219 205.539062 L 63.671875 201.289062 C 63.597656 201.089844 63.597656 201.0625 63.597656 200.988281 C 63.597656 200.5625 64.222656 200.5625 64.523438 200.5625 L 64.523438 200.0625 C 64.046875 200.089844 63.148438 200.113281 62.796875 200.113281 C 62.722656 200.113281 61.871094 200.089844 61.296875 200.0625 L 61.296875 200.5625 C 62.097656 200.5625 62.296875 200.613281 62.496094 201.113281 L 64.496094 206.761719 C 64.574219 206.988281 64.621094 207.113281 64.824219 207.113281 C 65.046875 207.113281 65.074219 207.011719 65.148438 206.789062 L 66.773438 202.289062 L 68.398438 206.8125 C 68.449219 206.988281 68.496094 207.113281 68.722656 207.113281 C 68.921875 207.113281 68.972656 206.964844 69.023438 206.8125 Z M 70.898438 201.589844 "/>
<path style=" stroke:none;fill-rule:nonzero;fill:rgb(0%,0%,0%);fill-opacity:1;" d="M 74.285156 201.464844 L 74.285156 205.738281 C 74.285156 206.4375 74.109375 206.4375 73.035156 206.4375 L 73.035156 206.9375 C 73.609375 206.914062 74.410156 206.886719 74.859375 206.886719 C 75.261719 206.886719 76.085938 206.914062 76.636719 206.9375 L 76.636719 206.4375 C 75.558594 206.4375 75.386719 206.4375 75.386719 205.738281 L 75.386719 202.789062 C 75.386719 201.136719 76.535156 200.238281 77.535156 200.238281 C 78.558594 200.238281 78.734375 201.089844 78.734375 202.011719 L 78.734375 205.738281 C 78.734375 206.4375 78.558594 206.4375 77.484375 206.4375 L 77.484375 206.9375 C 78.035156 206.914062 78.859375 206.886719 79.285156 206.886719 C 79.683594 206.886719 80.535156 206.914062 81.058594 206.9375 L 81.058594 206.4375 C 80.234375 206.4375 79.835938 206.4375 79.835938 205.964844 L 79.835938 202.914062 C 79.835938 201.539062 79.835938 201.0625 79.335938 200.488281 C 79.109375 200.214844 78.585938 199.886719 77.660156 199.886719 C 76.484375 199.886719 75.734375 200.5625 75.285156 201.5625 L 75.285156 199.886719 L 73.035156 200.0625 L 73.035156 200.5625 C 74.160156 200.5625 74.285156 200.664062 74.285156 201.464844 Z M 74.285156 201.464844 "/>
<path style=" stroke:none;fill-rule:nonzero;fill:rgb(0%,0%,0%);fill-opacity:1;" d="M 182.226562 184.335938 C 182.226562 181.734375 183.523438 181.058594 184.375 181.058594 C 184.523438 181.058594 185.523438 181.085938 186.074219 181.660156 C 185.425781 181.710938 185.324219 182.183594 185.324219 182.386719 C 185.324219 182.808594 185.625 183.109375 186.050781 183.109375 C 186.476562 183.109375 186.800781 182.859375 186.800781 182.359375 C 186.800781 181.285156 185.574219 180.660156 184.351562 180.660156 C 182.351562 180.660156 180.898438 182.386719 180.898438 184.359375 C 180.898438 186.410156 182.476562 187.984375 184.324219 187.984375 C 186.449219 187.984375 186.976562 186.058594 186.976562 185.910156 C 186.976562 185.761719 186.800781 185.761719 186.75 185.761719 C 186.625 185.761719 186.574219 185.808594 186.550781 185.910156 C 186.101562 187.386719 185.050781 187.585938 184.476562 187.585938 C 183.625 187.585938 182.226562 186.910156 182.226562 184.335938 Z M 182.226562 184.335938 "/>
<path style=" stroke:none;fill-rule:nonzero;fill:rgb(0%,0%,0%);fill-opacity:1;" d="M 194.933594 184.386719 C 194.933594 182.359375 193.359375 180.660156 191.433594 180.660156 C 189.433594 180.660156 187.882812 182.410156 187.882812 184.386719 C 187.882812 186.460938 189.535156 187.984375 191.410156 187.984375 C 193.335938 187.984375 194.933594 186.410156 194.933594 184.386719 Z M 191.433594 187.585938 C 190.734375 187.585938 190.035156 187.261719 189.609375 186.511719 C 189.210938 185.808594 189.210938 184.835938 189.210938 184.261719 C 189.210938 183.636719 189.210938 182.785156 189.585938 182.085938 C 190.007812 181.359375 190.757812 181.011719 191.410156 181.011719 C 192.109375 181.011719 192.785156 181.359375 193.210938 182.058594 C 193.632812 182.734375 193.632812 183.660156 193.632812 184.261719 C 193.632812 184.835938 193.632812 185.710938 193.285156 186.410156 C 192.910156 187.136719 192.210938 187.585938 191.433594 187.585938 Z M 191.433594 187.585938 "/>
<path style=" stroke:none;fill-rule:nonzero;fill:rgb(0%,0%,0%);fill-opacity:1;" d="M 197.152344 182.335938 L 197.152344 186.609375 C 197.152344 187.308594 196.980469 187.308594 195.902344 187.308594 L 195.902344 187.808594 C 196.480469 187.785156 197.277344 187.761719 197.730469 187.761719 C 198.128906 187.761719 198.953125 187.785156 199.503906 187.808594 L 199.503906 187.308594 C 198.429688 187.308594 198.253906 187.308594 198.253906 186.609375 L 198.253906 183.660156 C 198.253906 182.011719 199.402344 181.109375 200.402344 181.109375 C 201.429688 181.109375 201.605469 181.960938 201.605469 182.886719 L 201.605469 186.609375 C 201.605469 187.308594 201.429688 187.308594 200.355469 187.308594 L 200.355469 187.808594 C 200.902344 187.785156 201.730469 187.761719 202.152344 187.761719 C 202.554688 187.761719 203.402344 187.785156 203.929688 187.808594 L 203.929688 187.308594 C 203.105469 187.308594 202.703125 187.308594 202.703125 186.835938 L 202.703125 183.785156 C 202.703125 182.410156 202.703125 181.933594 202.203125 181.359375 C 201.980469 181.085938 201.453125 180.761719 200.527344 180.761719 C 199.355469 180.761719 198.605469 181.433594 198.152344 182.433594 L 198.152344 180.761719 L 195.902344 180.933594 L 195.902344 181.433594 C 197.027344 181.433594 197.152344 181.535156 197.152344 182.335938 Z M 197.152344 182.335938 "/>
<path style=" stroke:none;fill-rule:nonzero;fill:rgb(0%,0%,0%);fill-opacity:1;" d="M 206.136719 184.335938 C 206.136719 181.734375 207.433594 181.058594 208.285156 181.058594 C 208.433594 181.058594 209.433594 181.085938 209.984375 181.660156 C 209.335938 181.710938 209.234375 182.183594 209.234375 182.386719 C 209.234375 182.808594 209.535156 183.109375 209.960938 183.109375 C 210.386719 183.109375 210.710938 182.859375 210.710938 182.359375 C 210.710938 181.285156 209.484375 180.660156 208.261719 180.660156 C 206.261719 180.660156 204.808594 182.386719 204.808594 184.359375 C 204.808594 186.410156 206.386719 187.984375 208.234375 187.984375 C 210.359375 187.984375 210.886719 186.058594 210.886719 185.910156 C 210.886719 185.761719 210.710938 185.761719 210.660156 185.761719 C 210.535156 185.761719 210.484375 185.808594 210.460938 185.910156 C 210.011719 187.386719 208.960938 187.585938 208.386719 187.585938 C 207.535156 187.585938 206.136719 186.910156 206.136719 184.335938 Z M 206.136719 184.335938 "/>
<path style=" stroke:none;fill-rule:nonzero;fill:rgb(0%,0%,0%);fill-opacity:1;" d="M 216.644531 186.609375 C 216.71875 187.234375 217.144531 187.910156 217.894531 187.910156 C 218.246094 187.910156 219.21875 187.683594 219.21875 186.386719 L 219.21875 185.484375 L 218.820312 185.484375 L 218.820312 186.386719 C 218.820312 187.308594 218.417969 187.410156 218.246094 187.410156 C 217.71875 187.410156 217.644531 186.683594 217.644531 186.609375 L 217.644531 183.433594 C 217.644531 182.761719 217.644531 182.136719 217.070312 181.535156 C 216.445312 180.910156 215.644531 180.660156 214.894531 180.660156 C 213.570312 180.660156 212.46875 181.410156 212.46875 182.460938 C 212.46875 182.933594 212.792969 183.210938 213.21875 183.210938 C 213.667969 183.210938 213.945312 182.886719 213.945312 182.484375 C 213.945312 182.285156 213.871094 181.761719 213.121094 181.761719 C 213.570312 181.183594 214.34375 181.011719 214.84375 181.011719 C 215.644531 181.011719 216.542969 181.636719 216.542969 183.058594 L 216.542969 183.636719 C 215.71875 183.683594 214.621094 183.734375 213.621094 184.210938 C 212.417969 184.761719 212.019531 185.585938 212.019531 186.285156 C 212.019531 187.585938 213.570312 187.984375 214.570312 187.984375 C 215.621094 187.984375 216.34375 187.335938 216.644531 186.609375 Z M 216.542969 183.984375 L 216.542969 185.585938 C 216.542969 187.085938 215.394531 187.636719 214.667969 187.636719 C 213.894531 187.636719 213.246094 187.085938 213.246094 186.285156 C 213.246094 185.410156 213.917969 184.085938 216.542969 183.984375 Z M 216.542969 183.984375 "/>
<path style=" stroke:none;fill-rule:nonzero;fill:rgb(0%,0%,0%);fill-opacity:1;" d="M 225.492188 182.511719 C 225.644531 182.136719 225.917969 181.433594 226.96875 181.433594 L 226.96875 180.933594 C 226.59375 180.960938 226.144531 180.984375 225.769531 180.984375 C 225.394531 180.984375 224.667969 180.960938 224.394531 180.933594 L 224.394531 181.433594 C 224.96875 181.433594 225.144531 181.808594 225.144531 182.109375 C 225.144531 182.261719 225.117188 182.335938 225.066406 182.511719 L 223.417969 186.558594 L 221.644531 182.109375 C 221.542969 181.910156 221.542969 181.886719 221.542969 181.835938 C 221.542969 181.433594 222.167969 181.433594 222.46875 181.433594 L 222.46875 180.933594 C 221.96875 180.960938 221.09375 180.984375 220.71875 180.984375 C 220.292969 180.984375 219.644531 180.960938 219.167969 180.933594 L 219.167969 181.433594 C 220.167969 181.433594 220.242188 181.535156 220.441406 182.011719 L 222.742188 187.683594 C 222.84375 187.910156 222.867188 187.984375 223.066406 187.984375 C 223.292969 187.984375 223.34375 187.835938 223.417969 187.683594 Z M 225.492188 182.511719 "/>
<path style=" stroke:none;fill-rule:nonzero;fill:rgb(0%,0%,0%);fill-opacity:1;" d="M 228.609375 183.785156 C 228.710938 181.410156 230.058594 181.011719 230.609375 181.011719 C 232.234375 181.011719 232.410156 183.160156 232.410156 183.785156 Z M 228.609375 184.136719 L 233.058594 184.136719 C 233.410156 184.136719 233.460938 184.136719 233.460938 183.785156 C 233.460938 182.210938 232.585938 180.660156 230.609375 180.660156 C 228.761719 180.660156 227.285156 182.308594 227.285156 184.308594 C 227.285156 186.433594 228.960938 187.984375 230.785156 187.984375 C 232.734375 187.984375 233.460938 186.210938 233.460938 185.910156 C 233.460938 185.761719 233.335938 185.710938 233.234375 185.710938 C 233.109375 185.710938 233.058594 185.808594 233.035156 185.933594 C 232.484375 187.585938 231.035156 187.585938 230.886719 187.585938 C 230.085938 187.585938 229.460938 187.109375 229.085938 186.511719 C 228.609375 185.761719 228.609375 184.710938 228.609375 184.136719 Z M 228.609375 184.136719 "/>
<path style=" stroke:none;fill-rule:nonzero;fill:rgb(0%,0%,0%);fill-opacity:1;" d="M 194.8125 206.0625 L 194.8125 207.113281 L 197.164062 206.9375 L 197.164062 206.4375 C 196.0625 206.4375 195.914062 206.339844 195.914062 205.539062 L 195.914062 195.863281 L 193.636719 196.039062 L 193.636719 196.539062 C 194.738281 196.539062 194.863281 196.636719 194.863281 197.4375 L 194.863281 200.886719 C 194.414062 200.3125 193.714844 199.886719 192.863281 199.886719 C 190.988281 199.886719 189.3125 201.464844 189.3125 203.511719 C 189.3125 205.539062 190.863281 207.113281 192.6875 207.113281 C 193.714844 207.113281 194.414062 206.5625 194.8125 206.0625 Z M 194.8125 201.789062 L 194.8125 205.0625 C 194.8125 205.339844 194.8125 205.363281 194.636719 205.636719 C 194.164062 206.414062 193.464844 206.761719 192.761719 206.761719 C 192.039062 206.761719 191.464844 206.339844 191.089844 205.738281 C 190.6875 205.089844 190.636719 204.1875 190.636719 203.511719 C 190.636719 202.9375 190.664062 201.988281 191.113281 201.261719 C 191.464844 200.761719 192.0625 200.238281 192.9375 200.238281 C 193.488281 200.238281 194.164062 200.488281 194.636719 201.1875 C 194.8125 201.464844 194.8125 201.488281 194.8125 201.789062 Z M 194.8125 201.789062 "/>
<path style=" stroke:none;fill-rule:nonzero;fill:rgb(0%,0%,0%);fill-opacity:1;" d="M 205.121094 203.511719 C 205.121094 201.488281 203.542969 199.789062 201.621094 199.789062 C 199.621094 199.789062 198.070312 201.539062 198.070312 203.511719 C 198.070312 205.589844 199.71875 207.113281 201.59375 207.113281 C 203.519531 207.113281 205.121094 205.539062 205.121094 203.511719 Z M 201.621094 206.714844 C 200.917969 206.714844 200.21875 206.386719 199.792969 205.636719 C 199.394531 204.9375 199.394531 203.964844 199.394531 203.386719 C 199.394531 202.761719 199.394531 201.914062 199.769531 201.214844 C 200.195312 200.488281 200.945312 200.136719 201.59375 200.136719 C 202.292969 200.136719 202.96875 200.488281 203.394531 201.1875 C 203.820312 201.863281 203.820312 202.789062 203.820312 203.386719 C 203.820312 203.964844 203.820312 204.839844 203.46875 205.539062 C 203.09375 206.261719 202.394531 206.714844 201.621094 206.714844 Z M 201.621094 206.714844 "/>
<path style=" stroke:none;fill-rule:nonzero;fill:rgb(0%,0%,0%);fill-opacity:1;" d="M 215.019531 201.589844 C 215.292969 200.789062 215.792969 200.5625 216.367188 200.5625 L 216.367188 200.0625 C 215.992188 200.089844 215.542969 200.113281 215.191406 200.113281 C 214.71875 200.113281 214.019531 200.089844 213.71875 200.0625 L 213.71875 200.5625 C 214.292969 200.5625 214.644531 200.863281 214.644531 201.3125 C 214.644531 201.414062 214.644531 201.464844 214.542969 201.664062 L 213.09375 205.738281 L 211.519531 201.289062 C 211.46875 201.089844 211.441406 201.0625 211.441406 200.988281 C 211.441406 200.5625 212.066406 200.5625 212.394531 200.5625 L 212.394531 200.0625 C 211.917969 200.089844 211.117188 200.113281 210.71875 200.113281 C 210.242188 200.113281 209.792969 200.089844 209.316406 200.0625 L 209.316406 200.5625 C 209.894531 200.5625 210.144531 200.589844 210.316406 200.789062 C 210.394531 200.886719 210.566406 201.363281 210.667969 201.664062 L 209.316406 205.539062 L 207.792969 201.289062 C 207.71875 201.089844 207.71875 201.0625 207.71875 200.988281 C 207.71875 200.5625 208.34375 200.5625 208.644531 200.5625 L 208.644531 200.0625 C 208.167969 200.089844 207.269531 200.113281 206.917969 200.113281 C 206.84375 200.113281 205.992188 200.089844 205.417969 200.0625 L 205.417969 200.5625 C 206.21875 200.5625 206.417969 200.613281 206.617188 201.113281 L 208.617188 206.761719 C 208.691406 206.988281 208.742188 207.113281 208.941406 207.113281 C 209.167969 207.113281 209.191406 207.011719 209.269531 206.789062 L 210.894531 202.289062 L 212.519531 206.8125 C 212.566406 206.988281 212.617188 207.113281 212.84375 207.113281 C 213.042969 207.113281 213.09375 206.964844 213.144531 206.8125 Z M 215.019531 201.589844 "/>
<path style=" stroke:none;fill-rule:nonzero;fill:rgb(0%,0%,0%);fill-opacity:1;" d="M 218.40625 201.464844 L 218.40625 205.738281 C 218.40625 206.4375 218.230469 206.4375 217.15625 206.4375 L 217.15625 206.9375 C 217.730469 206.914062 218.53125 206.886719 218.980469 206.886719 C 219.378906 206.886719 220.207031 206.914062 220.753906 206.9375 L 220.753906 206.4375 C 219.679688 206.4375 219.503906 206.4375 219.503906 205.738281 L 219.503906 202.789062 C 219.503906 201.136719 220.65625 200.238281 221.65625 200.238281 C 222.679688 200.238281 222.855469 201.089844 222.855469 202.011719 L 222.855469 205.738281 C 222.855469 206.4375 222.679688 206.4375 221.605469 206.4375 L 221.605469 206.9375 C 222.15625 206.914062 222.980469 206.886719 223.40625 206.886719 C 223.804688 206.886719 224.65625 206.914062 225.179688 206.9375 L 225.179688 206.4375 C 224.355469 206.4375 223.957031 206.4375 223.957031 205.964844 L 223.957031 202.914062 C 223.957031 201.539062 223.957031 201.0625 223.457031 200.488281 C 223.230469 200.214844 222.707031 199.886719 221.78125 199.886719 C 220.605469 199.886719 219.855469 200.5625 219.40625 201.5625 L 219.40625 199.886719 L 217.15625 200.0625 L 217.15625 200.5625 C 218.28125 200.5625 218.40625 200.664062 218.40625 201.464844 Z M 218.40625 201.464844 "/>
<path style=" stroke:none;fill-rule:nonzero;fill:rgb(0%,0%,0%);fill-opacity:1;" d="M 263.707031 184.046875 C 263.707031 181.445312 265.003906 180.769531 265.855469 180.769531 C 266.003906 180.769531 267.003906 180.796875 267.554688 181.371094 C 266.90625 181.421875 266.804688 181.894531 266.804688 182.097656 C 266.804688 182.519531 267.105469 182.820312 267.53125 182.820312 C 267.957031 182.820312 268.28125 182.570312 268.28125 182.070312 C 268.28125 180.996094 267.054688 180.371094 265.832031 180.371094 C 263.832031 180.371094 262.378906 182.097656 262.378906 184.070312 C 262.378906 186.121094 263.957031 187.695312 265.804688 187.695312 C 267.929688 187.695312 268.457031 185.769531 268.457031 185.621094 C 268.457031 185.472656 268.28125 185.472656 268.230469 185.472656 C 268.105469 185.472656 268.054688 185.519531 268.03125 185.621094 C 267.582031 187.097656 266.53125 187.296875 265.957031 187.296875 C 265.105469 187.296875 263.707031 186.621094 263.707031 184.046875 Z M 263.707031 184.046875 "/>
<path style=" stroke:none;fill-rule:nonzero;fill:rgb(0%,0%,0%);fill-opacity:1;" d="M 276.414062 184.097656 C 276.414062 182.070312 274.839844 180.371094 272.914062 180.371094 C 270.914062 180.371094 269.363281 182.121094 269.363281 184.097656 C 269.363281 186.171875 271.015625 187.695312 272.890625 187.695312 C 274.8125 187.695312 276.414062 186.121094 276.414062 184.097656 Z M 272.914062 187.296875 C 272.214844 187.296875 271.515625 186.972656 271.089844 186.222656 C 270.6875 185.519531 270.6875 184.546875 270.6875 183.972656 C 270.6875 183.347656 270.6875 182.496094 271.0625 181.796875 C 271.488281 181.070312 272.238281 180.722656 272.890625 180.722656 C 273.589844 180.722656 274.265625 181.070312 274.6875 181.769531 C 275.113281 182.445312 275.113281 183.371094 275.113281 183.972656 C 275.113281 184.546875 275.113281 185.421875 274.765625 186.121094 C 274.390625 186.847656 273.6875 187.296875 272.914062 187.296875 Z M 272.914062 187.296875 "/>
<path style=" stroke:none;fill-rule:nonzero;fill:rgb(0%,0%,0%);fill-opacity:1;" d="M 278.632812 182.046875 L 278.632812 186.320312 C 278.632812 187.019531 278.460938 187.019531 277.382812 187.019531 L 277.382812 187.519531 C 277.960938 187.496094 278.757812 187.472656 279.210938 187.472656 C 279.609375 187.472656 280.433594 187.496094 280.984375 187.519531 L 280.984375 187.019531 C 279.910156 187.019531 279.734375 187.019531 279.734375 186.320312 L 279.734375 183.371094 C 279.734375 181.722656 280.882812 180.820312 281.882812 180.820312 C 282.910156 180.820312 283.085938 181.671875 283.085938 182.597656 L 283.085938 186.320312 C 283.085938 187.019531 282.910156 187.019531 281.835938 187.019531 L 281.835938 187.519531 C 282.382812 187.496094 283.210938 187.472656 283.632812 187.472656 C 284.035156 187.472656 284.882812 187.496094 285.410156 187.519531 L 285.410156 187.019531 C 284.585938 187.019531 284.183594 187.019531 284.183594 186.546875 L 284.183594 183.496094 C 284.183594 182.121094 284.183594 181.644531 283.683594 181.070312 C 283.460938 180.796875 282.933594 180.472656 282.007812 180.472656 C 280.835938 180.472656 280.085938 181.144531 279.632812 182.144531 L 279.632812 180.472656 L 277.382812 180.644531 L 277.382812 181.144531 C 278.507812 181.144531 278.632812 181.246094 278.632812 182.046875 Z M 278.632812 182.046875 "/>
<path style=" stroke:none;fill-rule:nonzero;fill:rgb(0%,0%,0%);fill-opacity:1;" d="M 287.617188 184.046875 C 287.617188 181.445312 288.914062 180.769531 289.765625 180.769531 C 289.914062 180.769531 290.914062 180.796875 291.464844 181.371094 C 290.816406 181.421875 290.714844 181.894531 290.714844 182.097656 C 290.714844 182.519531 291.015625 182.820312 291.441406 182.820312 C 291.867188 182.820312 292.191406 182.570312 292.191406 182.070312 C 292.191406 180.996094 290.964844 180.371094 289.742188 180.371094 C 287.742188 180.371094 286.289062 182.097656 286.289062 184.070312 C 286.289062 186.121094 287.867188 187.695312 289.714844 187.695312 C 291.839844 187.695312 292.367188 185.769531 292.367188 185.621094 C 292.367188 185.472656 292.191406 185.472656 292.140625 185.472656 C 292.015625 185.472656 291.964844 185.519531 291.941406 185.621094 C 291.492188 187.097656 290.441406 187.296875 289.867188 187.296875 C 289.015625 187.296875 287.617188 186.621094 287.617188 184.046875 Z M 287.617188 184.046875 "/>
<path style=" stroke:none;fill-rule:nonzero;fill:rgb(0%,0%,0%);fill-opacity:1;" d="M 298.125 186.320312 C 298.199219 186.945312 298.625 187.621094 299.375 187.621094 C 299.722656 187.621094 300.699219 187.394531 300.699219 186.097656 L 300.699219 185.195312 L 300.300781 185.195312 L 300.300781 186.097656 C 300.300781 187.019531 299.898438 187.121094 299.722656 187.121094 C 299.199219 187.121094 299.125 186.394531 299.125 186.320312 L 299.125 183.144531 C 299.125 182.472656 299.125 181.847656 298.550781 181.246094 C 297.925781 180.621094 297.125 180.371094 296.375 180.371094 C 295.050781 180.371094 293.949219 181.121094 293.949219 182.171875 C 293.949219 182.644531 294.273438 182.921875 294.699219 182.921875 C 295.148438 182.921875 295.425781 182.597656 295.425781 182.195312 C 295.425781 181.996094 295.347656 181.472656 294.597656 181.472656 C 295.050781 180.894531 295.824219 180.722656 296.324219 180.722656 C 297.125 180.722656 298.023438 181.347656 298.023438 182.769531 L 298.023438 183.347656 C 297.199219 183.394531 296.097656 183.445312 295.097656 183.921875 C 293.898438 184.472656 293.5 185.296875 293.5 185.996094 C 293.5 187.296875 295.050781 187.695312 296.050781 187.695312 C 297.097656 187.695312 297.824219 187.046875 298.125 186.320312 Z M 298.023438 183.695312 L 298.023438 185.296875 C 298.023438 186.796875 296.875 187.347656 296.148438 187.347656 C 295.375 187.347656 294.722656 186.796875 294.722656 185.996094 C 294.722656 185.121094 295.398438 183.796875 298.023438 183.695312 Z M 298.023438 183.695312 "/>
<path style=" stroke:none;fill-rule:nonzero;fill:rgb(0%,0%,0%);fill-opacity:1;" d="M 306.972656 182.222656 C 307.121094 181.847656 307.398438 181.144531 308.449219 181.144531 L 308.449219 180.644531 C 308.074219 180.671875 307.621094 180.695312 307.246094 180.695312 C 306.871094 180.695312 306.148438 180.671875 305.871094 180.644531 L 305.871094 181.144531 C 306.449219 181.144531 306.621094 181.519531 306.621094 181.820312 C 306.621094 181.972656 306.597656 182.046875 306.546875 182.222656 L 304.898438 186.269531 L 303.121094 181.820312 C 303.023438 181.621094 303.023438 181.597656 303.023438 181.546875 C 303.023438 181.144531 303.648438 181.144531 303.949219 181.144531 L 303.949219 180.644531 C 303.449219 180.671875 302.574219 180.695312 302.199219 180.695312 C 301.773438 180.695312 301.121094 180.671875 300.648438 180.644531 L 300.648438 181.144531 C 301.648438 181.144531 301.722656 181.246094 301.921875 181.722656 L 304.222656 187.394531 C 304.324219 187.621094 304.347656 187.695312 304.546875 187.695312 C 304.773438 187.695312 304.824219 187.546875 304.898438 187.394531 Z M 306.972656 182.222656 "/>
<path style=" stroke:none;fill-rule:nonzero;fill:rgb(0%,0%,0%);fill-opacity:1;" d="M 310.089844 183.496094 C 310.191406 181.121094 311.539062 180.722656 312.089844 180.722656 C 313.714844 180.722656 313.890625 182.871094 313.890625 183.496094 Z M 310.089844 183.847656 L 314.539062 183.847656 C 314.890625 183.847656 314.941406 183.847656 314.941406 183.496094 C 314.941406 181.921875 314.066406 180.371094 312.089844 180.371094 C 310.238281 180.371094 308.765625 182.019531 308.765625 184.019531 C 308.765625 186.144531 310.441406 187.695312 312.265625 187.695312 C 314.214844 187.695312 314.941406 185.921875 314.941406 185.621094 C 314.941406 185.472656 314.816406 185.421875 314.714844 185.421875 C 314.589844 185.421875 314.539062 185.519531 314.515625 185.644531 C 313.964844 187.296875 312.515625 187.296875 312.363281 187.296875 C 311.566406 187.296875 310.941406 186.820312 310.566406 186.222656 C 310.089844 185.472656 310.089844 184.421875 310.089844 183.847656 Z M 310.089844 183.847656 "/>
<path style=" stroke:none;fill-rule:nonzero;fill:rgb(0%,0%,0%);fill-opacity:1;" d="M 285.988281 205.398438 L 285.988281 206.824219 L 288.289062 206.648438 L 288.289062 206.148438 C 287.1875 206.148438 287.0625 206.050781 287.0625 205.25 L 287.0625 199.597656 L 284.714844 199.773438 L 284.714844 200.273438 C 285.8125 200.273438 285.964844 200.375 285.964844 201.175781 L 285.964844 204 C 285.964844 205.398438 285.1875 206.472656 284.011719 206.472656 C 282.6875 206.472656 282.613281 205.722656 282.613281 204.898438 L 282.613281 199.597656 L 280.261719 199.773438 L 280.261719 200.273438 C 281.511719 200.273438 281.511719 200.324219 281.511719 201.722656 L 281.511719 204.125 C 281.511719 205.375 281.511719 206.824219 283.9375 206.824219 C 284.839844 206.824219 285.539062 206.375 285.988281 205.398438 Z M 285.988281 205.398438 "/>
<path style=" stroke:none;fill-rule:nonzero;fill:rgb(0%,0%,0%);fill-opacity:1;" d="M 291.371094 200.648438 L 291.371094 199.597656 L 289.070312 199.773438 L 289.070312 200.273438 C 290.195312 200.273438 290.320312 200.375 290.320312 201.074219 L 290.320312 208.523438 C 290.320312 209.25 290.144531 209.25 289.070312 209.25 L 289.070312 209.75 C 289.621094 209.722656 290.445312 209.699219 290.84375 209.699219 C 291.292969 209.699219 292.09375 209.722656 292.644531 209.75 L 292.644531 209.25 C 291.59375 209.25 291.417969 209.25 291.417969 208.523438 L 291.417969 205.699219 C 291.496094 205.972656 292.167969 206.824219 293.371094 206.824219 C 295.269531 206.824219 296.917969 205.25 296.917969 203.199219 C 296.917969 201.175781 295.394531 199.597656 293.59375 199.597656 C 292.34375 199.597656 291.667969 200.300781 291.371094 200.648438 Z M 291.417969 204.824219 L 291.417969 201.273438 C 291.871094 200.449219 292.644531 200 293.46875 200 C 294.644531 200 295.59375 201.398438 295.59375 203.199219 C 295.59375 205.125 294.496094 206.472656 293.320312 206.472656 C 292.667969 206.472656 292.070312 206.148438 291.644531 205.5 C 291.417969 205.175781 291.417969 205.148438 291.417969 204.824219 Z M 291.417969 204.824219 "/>
<path style="fill:none;stroke-width:0.8;stroke-linecap:butt;stroke-linejoin:miter;stroke:rgb(100%,0%,0%);stroke-opacity:1;stroke-miterlimit:4;" d="M 180.660156 84.660156 L 190.261719 75.058594 L 190.261719 60.660156 "/>
<path style="fill-rule:evenodd;fill:rgb(100%,0%,0%);fill-opacity:1;stroke-width:0.282843;stroke-linecap:butt;stroke-linejoin:miter;stroke:rgb(100%,0%,0%);stroke-opacity:1;stroke-miterlimit:4;" d="M 50.261719 132.660156 L 51.394531 131.527344 L 47.433594 132.660156 L 51.392578 133.791016 Z M 50.261719 132.660156 " transform="matrix(1,-1,1,1,0,0)"/>
<path style="fill-rule:evenodd;fill:rgb(100%,0%,0%);fill-opacity:1;stroke-width:0.4;stroke-linecap:butt;stroke-linejoin:miter;stroke:rgb(100%,0%,0%);stroke-opacity:1;stroke-miterlimit:4;" d="M -59.09375 190.261719 C -59.09375 191.144531 -59.808594 191.859375 -60.691406 191.859375 C -61.574219 191.859375 -62.292969 191.144531 -62.292969 190.261719 C -62.292969 189.375 -61.574219 188.660156 -60.691406 188.660156 C -59.808594 188.660156 -59.09375 189.375 -59.09375 190.261719 Z M -59.09375 190.261719 " transform="matrix(0,-1,1,0,0,0)"/>
<path style=" stroke:none;fill-rule:nonzero;fill:rgb(0%,0%,0%);fill-opacity:1;" d="M 103.921875 100.699219 C 104.199219 100.699219 104.5 100.699219 104.5 100.371094 C 104.5 100.074219 104.199219 100.074219 103.921875 100.074219 L 95.296875 100.074219 C 95.023438 100.074219 94.75 100.074219 94.75 100.371094 C 94.75 100.699219 95.023438 100.699219 95.296875 100.699219 Z M 103.921875 100.699219 "/>
<path style=" stroke:none;fill-rule:nonzero;fill:rgb(0%,0%,0%);fill-opacity:1;" d="M 107.847656 103.148438 L 109.546875 101.496094 C 112.023438 99.296875 112.972656 98.449219 112.972656 96.847656 C 112.972656 95.023438 111.546875 93.746094 109.597656 93.746094 C 107.796875 93.746094 106.621094 95.222656 106.621094 96.648438 C 106.621094 97.523438 107.421875 97.523438 107.472656 97.523438 C 107.746094 97.523438 108.296875 97.347656 108.296875 96.671875 C 108.296875 96.273438 107.996094 95.847656 107.445312 95.847656 C 107.320312 95.847656 107.296875 95.847656 107.246094 95.871094 C 107.597656 94.824219 108.472656 94.246094 109.398438 94.246094 C 110.847656 94.246094 111.523438 95.546875 111.523438 96.847656 C 111.523438 98.121094 110.746094 99.371094 109.847656 100.371094 L 106.796875 103.773438 C 106.621094 103.949219 106.621094 103.996094 106.621094 104.371094 L 112.546875 104.371094 L 112.972656 101.597656 L 112.597656 101.597656 C 112.496094 102.074219 112.398438 102.773438 112.222656 103.023438 C 112.121094 103.148438 111.070312 103.148438 110.722656 103.148438 Z M 107.847656 103.148438 "/>
<path style=" stroke:none;fill-rule:nonzero;fill:rgb(0%,0%,0%);fill-opacity:1;" d="M 237.933594 102.636719 L 239.636719 100.984375 C 242.109375 98.785156 243.058594 97.933594 243.058594 96.335938 C 243.058594 94.511719 241.636719 93.234375 239.683594 93.234375 C 237.886719 93.234375 236.710938 94.710938 236.710938 96.136719 C 236.710938 97.011719 237.511719 97.011719 237.558594 97.011719 C 237.835938 97.011719 238.386719 96.835938 238.386719 96.160156 C 238.386719 95.761719 238.085938 95.335938 237.535156 95.335938 C 237.410156 95.335938 237.386719 95.335938 237.335938 95.359375 C 237.683594 94.308594 238.558594 93.734375 239.484375 93.734375 C 240.933594 93.734375 241.609375 95.035156 241.609375 96.335938 C 241.609375 97.609375 240.835938 98.859375 239.933594 99.859375 L 236.886719 103.261719 C 236.710938 103.433594 236.710938 103.484375 236.710938 103.859375 L 242.636719 103.859375 L 243.058594 101.085938 L 242.683594 101.085938 C 242.585938 101.558594 242.484375 102.261719 242.308594 102.511719 C 242.210938 102.636719 241.160156 102.636719 240.808594 102.636719 Z M 237.933594 102.636719 "/>
<path style="fill:none;stroke-width:1.6;stroke-linecap:butt;stroke-linejoin:miter;stroke:rgb(0%,0%,0%);stroke-opacity:1;stroke-miterlimit:4;" d="M 238.261719 3.058594 C 238.261719 16.125 246.09375 45.753906 262.261719 60.660156 C 278.425781 75.566406 318.566406 84.660156 339.058594 84.660156 "/>
<path style="fill:none;stroke-width:1.6;stroke-linecap:butt;stroke-linejoin:miter;stroke:rgb(0%,0%,0%);stroke-opacity:1;stroke-miterlimit:4;" d="M 113.460938 175.859375 C 113.460938 162.792969 105.625 133.167969 89.460938 118.261719 C 73.296875 103.351562 33.152344 94.261719 12.660156 94.261719 "/>
<path style=" stroke:none;fill-rule:nonzero;fill:rgb(0%,0%,0%);fill-opacity:1;" d="M 119.824219 184.335938 C 119.824219 181.734375 121.125 181.058594 121.976562 181.058594 C 122.125 181.058594 123.125 181.085938 123.675781 181.660156 C 123.023438 181.710938 122.925781 182.183594 122.925781 182.386719 C 122.925781 182.808594 123.226562 183.109375 123.648438 183.109375 C 124.074219 183.109375 124.398438 182.859375 124.398438 182.359375 C 124.398438 181.285156 123.175781 180.660156 121.949219 180.660156 C 119.949219 180.660156 118.5 182.386719 118.5 184.359375 C 118.5 186.410156 120.074219 187.984375 121.925781 187.984375 C 124.050781 187.984375 124.574219 186.058594 124.574219 185.910156 C 124.574219 185.761719 124.398438 185.761719 124.351562 185.761719 C 124.226562 185.761719 124.175781 185.808594 124.148438 185.910156 C 123.699219 187.386719 122.648438 187.585938 122.074219 187.585938 C 121.226562 187.585938 119.824219 186.910156 119.824219 184.335938 Z M 119.824219 184.335938 "/>
<path style=" stroke:none;fill-rule:nonzero;fill:rgb(0%,0%,0%);fill-opacity:1;" d="M 132.535156 184.386719 C 132.535156 182.359375 130.960938 180.660156 129.035156 180.660156 C 127.035156 180.660156 125.484375 182.410156 125.484375 184.386719 C 125.484375 186.460938 127.132812 187.984375 129.007812 187.984375 C 130.933594 187.984375 132.535156 186.410156 132.535156 184.386719 Z M 129.035156 187.585938 C 128.335938 187.585938 127.632812 187.261719 127.210938 186.511719 C 126.808594 185.808594 126.808594 184.835938 126.808594 184.261719 C 126.808594 183.636719 126.808594 182.785156 127.183594 182.085938 C 127.609375 181.359375 128.359375 181.011719 129.007812 181.011719 C 129.710938 181.011719 130.382812 181.359375 130.808594 182.058594 C 131.234375 182.734375 131.234375 183.660156 131.234375 184.261719 C 131.234375 184.835938 131.234375 185.710938 130.882812 186.410156 C 130.507812 187.136719 129.808594 187.585938 129.035156 187.585938 Z M 129.035156 187.585938 "/>
<path style=" stroke:none;fill-rule:nonzero;fill:rgb(0%,0%,0%);fill-opacity:1;" d="M 134.753906 182.335938 L 134.753906 186.609375 C 134.753906 187.308594 134.578125 187.308594 133.503906 187.308594 L 133.503906 187.808594 C 134.078125 187.785156 134.878906 187.761719 135.328125 187.761719 C 135.730469 187.761719 136.554688 187.785156 137.105469 187.808594 L 137.105469 187.308594 C 136.027344 187.308594 135.855469 187.308594 135.855469 186.609375 L 135.855469 183.660156 C 135.855469 182.011719 137.003906 181.109375 138.003906 181.109375 C 139.027344 181.109375 139.203125 181.960938 139.203125 182.886719 L 139.203125 186.609375 C 139.203125 187.308594 139.027344 187.308594 137.953125 187.308594 L 137.953125 187.808594 C 138.503906 187.785156 139.328125 187.761719 139.753906 187.761719 C 140.152344 187.761719 141.003906 187.785156 141.527344 187.808594 L 141.527344 187.308594 C 140.703125 187.308594 140.304688 187.308594 140.304688 186.835938 L 140.304688 183.785156 C 140.304688 182.410156 140.304688 181.933594 139.804688 181.359375 C 139.578125 181.085938 139.054688 180.761719 138.128906 180.761719 C 136.953125 180.761719 136.203125 181.433594 135.753906 182.433594 L 135.753906 180.761719 L 133.503906 180.933594 L 133.503906 181.433594 C 134.628906 181.433594 134.753906 181.535156 134.753906 182.335938 Z M 134.753906 182.335938 "/>
<path style=" stroke:none;fill-rule:nonzero;fill:rgb(0%,0%,0%);fill-opacity:1;" d="M 143.734375 184.335938 C 143.734375 181.734375 145.035156 181.058594 145.886719 181.058594 C 146.035156 181.058594 147.035156 181.085938 147.585938 181.660156 C 146.933594 181.710938 146.835938 182.183594 146.835938 182.386719 C 146.835938 182.808594 147.136719 183.109375 147.558594 183.109375 C 147.984375 183.109375 148.308594 182.859375 148.308594 182.359375 C 148.308594 181.285156 147.085938 180.660156 145.859375 180.660156 C 143.859375 180.660156 142.410156 182.386719 142.410156 184.359375 C 142.410156 186.410156 143.984375 187.984375 145.835938 187.984375 C 147.960938 187.984375 148.484375 186.058594 148.484375 185.910156 C 148.484375 185.761719 148.308594 185.761719 148.261719 185.761719 C 148.136719 185.761719 148.085938 185.808594 148.058594 185.910156 C 147.609375 187.386719 146.558594 187.585938 145.984375 187.585938 C 145.136719 187.585938 143.734375 186.910156 143.734375 184.335938 Z M 143.734375 184.335938 "/>
<path style=" stroke:none;fill-rule:nonzero;fill:rgb(0%,0%,0%);fill-opacity:1;" d="M 154.246094 186.609375 C 154.320312 187.234375 154.746094 187.910156 155.496094 187.910156 C 155.84375 187.910156 156.820312 187.683594 156.820312 186.386719 L 156.820312 185.484375 L 156.417969 185.484375 L 156.417969 186.386719 C 156.417969 187.308594 156.019531 187.410156 155.84375 187.410156 C 155.320312 187.410156 155.246094 186.683594 155.246094 186.609375 L 155.246094 183.433594 C 155.246094 182.761719 155.246094 182.136719 154.667969 181.535156 C 154.042969 180.910156 153.246094 180.660156 152.496094 180.660156 C 151.167969 180.660156 150.070312 181.410156 150.070312 182.460938 C 150.070312 182.933594 150.394531 183.210938 150.820312 183.210938 C 151.269531 183.210938 151.542969 182.886719 151.542969 182.484375 C 151.542969 182.285156 151.46875 181.761719 150.71875 181.761719 C 151.167969 181.183594 151.945312 181.011719 152.445312 181.011719 C 153.246094 181.011719 154.144531 181.636719 154.144531 183.058594 L 154.144531 183.636719 C 153.320312 183.683594 152.21875 183.734375 151.21875 184.210938 C 150.019531 184.761719 149.621094 185.585938 149.621094 186.285156 C 149.621094 187.585938 151.167969 187.984375 152.167969 187.984375 C 153.21875 187.984375 153.945312 187.335938 154.246094 186.609375 Z M 154.144531 183.984375 L 154.144531 185.585938 C 154.144531 187.085938 152.996094 187.636719 152.269531 187.636719 C 151.496094 187.636719 150.84375 187.085938 150.84375 186.285156 C 150.84375 185.410156 151.519531 184.085938 154.144531 183.984375 Z M 154.144531 183.984375 "/>
<path style=" stroke:none;fill-rule:nonzero;fill:rgb(0%,0%,0%);fill-opacity:1;" d="M 163.09375 182.511719 C 163.242188 182.136719 163.519531 181.433594 164.566406 181.433594 L 164.566406 180.933594 C 164.191406 180.960938 163.742188 180.984375 163.367188 180.984375 C 162.992188 180.984375 162.269531 180.960938 161.992188 180.933594 L 161.992188 181.433594 C 162.566406 181.433594 162.742188 181.808594 162.742188 182.109375 C 162.742188 182.261719 162.71875 182.335938 162.667969 182.511719 L 161.019531 186.558594 L 159.242188 182.109375 C 159.144531 181.910156 159.144531 181.886719 159.144531 181.835938 C 159.144531 181.433594 159.769531 181.433594 160.066406 181.433594 L 160.066406 180.933594 C 159.566406 180.960938 158.691406 180.984375 158.316406 180.984375 C 157.894531 180.984375 157.242188 180.960938 156.769531 180.933594 L 156.769531 181.433594 C 157.769531 181.433594 157.84375 181.535156 158.042969 182.011719 L 160.34375 187.683594 C 160.441406 187.910156 160.46875 187.984375 160.667969 187.984375 C 160.894531 187.984375 160.941406 187.835938 161.019531 187.683594 Z M 163.09375 182.511719 "/>
<path style=" stroke:none;fill-rule:nonzero;fill:rgb(0%,0%,0%);fill-opacity:1;" d="M 166.210938 183.785156 C 166.308594 181.410156 167.660156 181.011719 168.210938 181.011719 C 169.835938 181.011719 170.011719 183.160156 170.011719 183.785156 Z M 166.210938 184.136719 L 170.660156 184.136719 C 171.011719 184.136719 171.058594 184.136719 171.058594 183.785156 C 171.058594 182.210938 170.183594 180.660156 168.210938 180.660156 C 166.359375 180.660156 164.886719 182.308594 164.886719 184.308594 C 164.886719 186.433594 166.558594 187.984375 168.386719 187.984375 C 170.335938 187.984375 171.058594 186.210938 171.058594 185.910156 C 171.058594 185.761719 170.933594 185.710938 170.835938 185.710938 C 170.710938 185.710938 170.660156 185.808594 170.636719 185.933594 C 170.085938 187.585938 168.636719 187.585938 168.484375 187.585938 C 167.683594 187.585938 167.058594 187.109375 166.683594 186.511719 C 166.210938 185.761719 166.210938 184.710938 166.210938 184.136719 Z M 166.210938 184.136719 "/>
<path style=" stroke:none;fill-rule:nonzero;fill:rgb(0%,0%,0%);fill-opacity:1;" d="M 142.109375 205.6875 L 142.109375 207.113281 L 144.40625 206.9375 L 144.40625 206.4375 C 143.308594 206.4375 143.183594 206.339844 143.183594 205.539062 L 143.183594 199.886719 L 140.832031 200.0625 L 140.832031 200.5625 C 141.933594 200.5625 142.082031 200.664062 142.082031 201.464844 L 142.082031 204.289062 C 142.082031 205.6875 141.308594 206.761719 140.132812 206.761719 C 138.808594 206.761719 138.734375 206.011719 138.734375 205.1875 L 138.734375 199.886719 L 136.382812 200.0625 L 136.382812 200.5625 C 137.632812 200.5625 137.632812 200.613281 137.632812 202.011719 L 137.632812 204.414062 C 137.632812 205.664062 137.632812 207.113281 140.058594 207.113281 C 140.957031 207.113281 141.65625 206.664062 142.109375 205.6875 Z M 142.109375 205.6875 "/>
<g clip-path="url(#clip2)" clip-rule="nonzero">
<path style=" stroke:none;fill-rule:nonzero;fill:rgb(0%,0%,0%);fill-opacity:1;" d="M 147.488281 200.9375 L 147.488281 199.886719 L 145.1875 200.0625 L 145.1875 200.5625 C 146.3125 200.5625 146.4375 200.664062 146.4375 201.363281 L 146.4375 208.8125 C 146.4375 209.539062 146.265625 209.539062 145.1875 209.539062 L 145.1875 210.039062 C 145.738281 210.011719 146.5625 209.988281 146.964844 209.988281 C 147.414062 209.988281 148.214844 210.011719 148.765625 210.039062 L 148.765625 209.539062 C 147.714844 209.539062 147.539062 209.539062 147.539062 208.8125 L 147.539062 205.988281 C 147.613281 206.261719 148.289062 207.113281 149.488281 207.113281 C 151.390625 207.113281 153.039062 205.539062 153.039062 203.488281 C 153.039062 201.464844 151.515625 199.886719 149.714844 199.886719 C 148.464844 199.886719 147.789062 200.589844 147.488281 200.9375 Z M 147.539062 205.113281 L 147.539062 201.5625 C 147.988281 200.738281 148.765625 200.289062 149.589844 200.289062 C 150.765625 200.289062 151.714844 201.6875 151.714844 203.488281 C 151.714844 205.414062 150.613281 206.761719 149.4375 206.761719 C 148.789062 206.761719 148.1875 206.4375 147.765625 205.789062 C 147.539062 205.464844 147.539062 205.4375 147.539062 205.113281 Z M 147.539062 205.113281 "/>
</g>
<path style=" stroke:none;fill-rule:nonzero;fill:rgb(0%,0%,0%);fill-opacity:1;" d="M 186.042969 27.320312 L 183.820312 27.496094 L 183.820312 27.996094 C 184.84375 27.996094 184.992188 28.097656 184.992188 28.871094 L 184.992188 33.171875 C 184.992188 33.871094 184.820312 33.871094 183.742188 33.871094 L 183.742188 34.371094 C 184.242188 34.347656 185.117188 34.320312 185.492188 34.320312 C 186.070312 34.320312 186.617188 34.347656 187.167969 34.371094 L 187.167969 33.871094 C 186.09375 33.871094 186.042969 33.796875 186.042969 33.171875 Z M 186.09375 24.546875 C 186.09375 24.046875 185.71875 23.695312 185.269531 23.695312 C 184.769531 23.695312 184.417969 24.121094 184.417969 24.546875 C 184.417969 24.972656 184.769531 25.394531 185.269531 25.394531 C 185.71875 25.394531 186.09375 25.046875 186.09375 24.546875 Z M 186.09375 24.546875 "/>
<path style=" stroke:none;fill-rule:nonzero;fill:rgb(0%,0%,0%);fill-opacity:1;" d="M 189.398438 28.894531 L 189.398438 33.171875 C 189.398438 33.871094 189.222656 33.871094 188.148438 33.871094 L 188.148438 34.371094 C 188.722656 34.347656 189.523438 34.320312 189.972656 34.320312 C 190.371094 34.320312 191.195312 34.347656 191.746094 34.371094 L 191.746094 33.871094 C 190.671875 33.871094 190.496094 33.871094 190.496094 33.171875 L 190.496094 30.222656 C 190.496094 28.570312 191.648438 27.671875 192.648438 27.671875 C 193.671875 27.671875 193.847656 28.519531 193.847656 29.445312 L 193.847656 33.171875 C 193.847656 33.871094 193.671875 33.871094 192.597656 33.871094 L 192.597656 34.371094 C 193.148438 34.347656 193.972656 34.320312 194.398438 34.320312 C 194.796875 34.320312 195.648438 34.347656 196.171875 34.371094 L 196.171875 33.871094 C 195.347656 33.871094 194.945312 33.871094 194.945312 33.394531 L 194.945312 30.347656 C 194.945312 28.972656 194.945312 28.496094 194.445312 27.921875 C 194.222656 27.644531 193.695312 27.320312 192.773438 27.320312 C 191.597656 27.320312 190.847656 27.996094 190.398438 28.996094 L 190.398438 27.320312 L 188.148438 27.496094 L 188.148438 27.996094 C 189.273438 27.996094 189.398438 28.097656 189.398438 28.894531 Z M 189.398438 28.894531 "/>
<path style=" stroke:none;fill-rule:nonzero;fill:rgb(0%,0%,0%);fill-opacity:1;" d="M 202.601562 27.996094 L 202.601562 33.171875 C 202.601562 33.871094 202.429688 33.871094 201.378906 33.871094 L 201.378906 34.371094 C 201.902344 34.347656 202.726562 34.320312 203.128906 34.320312 C 203.527344 34.320312 204.328125 34.347656 204.902344 34.371094 L 204.902344 33.871094 C 203.828125 33.871094 203.652344 33.871094 203.652344 33.171875 L 203.652344 23.296875 L 203.078125 23.394531 C 203.027344 23.394531 203.003906 23.371094 202.953125 23.347656 C 202.429688 23.121094 201.777344 23.121094 201.601562 23.121094 C 199.929688 23.121094 198.203125 24.019531 198.203125 25.671875 L 198.203125 27.496094 L 196.929688 27.496094 L 196.929688 27.996094 L 198.203125 27.996094 L 198.203125 33.171875 C 198.203125 33.871094 198.027344 33.871094 196.953125 33.871094 L 196.953125 34.371094 C 197.476562 34.347656 198.328125 34.320312 198.726562 34.320312 C 199.128906 34.320312 199.902344 34.347656 200.503906 34.371094 L 200.503906 33.871094 C 199.429688 33.871094 199.253906 33.871094 199.253906 33.171875 L 199.253906 27.996094 Z M 202.601562 27.496094 L 199.203125 27.496094 L 199.203125 25.695312 C 199.203125 24.222656 200.402344 23.472656 201.601562 23.472656 C 201.726562 23.472656 202.152344 23.472656 202.601562 23.621094 C 202.476562 23.695312 202.203125 23.847656 202.203125 24.269531 C 202.203125 24.546875 202.351562 24.796875 202.601562 24.871094 Z M 202.601562 27.496094 "/>
<path style=" stroke:none;fill-rule:nonzero;fill:rgb(0%,0%,0%);fill-opacity:1;" d="M 207.132812 30.347656 C 207.234375 27.972656 208.585938 27.570312 209.132812 27.570312 C 210.757812 27.570312 210.933594 29.722656 210.933594 30.347656 Z M 207.132812 30.695312 L 211.585938 30.695312 C 211.933594 30.695312 211.984375 30.695312 211.984375 30.347656 C 211.984375 28.769531 211.109375 27.222656 209.132812 27.222656 C 207.285156 27.222656 205.808594 28.871094 205.808594 30.871094 C 205.808594 32.996094 207.484375 34.546875 209.308594 34.546875 C 211.257812 34.546875 211.984375 32.769531 211.984375 32.472656 C 211.984375 32.320312 211.859375 32.269531 211.757812 32.269531 C 211.632812 32.269531 211.585938 32.371094 211.558594 32.496094 C 211.007812 34.144531 209.558594 34.144531 209.410156 34.144531 C 208.609375 34.144531 207.984375 33.671875 207.609375 33.070312 C 207.132812 32.320312 207.132812 31.269531 207.132812 30.695312 Z M 207.132812 30.695312 "/>
<path style=" stroke:none;fill-rule:nonzero;fill:rgb(0%,0%,0%);fill-opacity:1;" d="M 214.320312 30.894531 C 214.320312 28.296875 215.617188 27.621094 216.46875 27.621094 C 216.617188 27.621094 217.617188 27.644531 218.167969 28.222656 C 217.519531 28.269531 217.417969 28.746094 217.417969 28.945312 C 217.417969 29.371094 217.71875 29.671875 218.144531 29.671875 C 218.570312 29.671875 218.894531 29.421875 218.894531 28.921875 C 218.894531 27.847656 217.667969 27.222656 216.445312 27.222656 C 214.445312 27.222656 212.992188 28.945312 212.992188 30.921875 C 212.992188 32.972656 214.570312 34.546875 216.417969 34.546875 C 218.542969 34.546875 219.070312 32.621094 219.070312 32.472656 C 219.070312 32.320312 218.894531 32.320312 218.84375 32.320312 C 218.71875 32.320312 218.667969 32.371094 218.644531 32.472656 C 218.195312 33.945312 217.144531 34.144531 216.570312 34.144531 C 215.71875 34.144531 214.320312 33.472656 214.320312 30.894531 Z M 214.320312 30.894531 "/>
<path style=" stroke:none;fill-rule:nonzero;fill:rgb(0%,0%,0%);fill-opacity:1;" d="M 222.277344 27.996094 L 224.578125 27.996094 L 224.578125 27.496094 L 222.277344 27.496094 L 222.277344 24.570312 L 221.878906 24.570312 C 221.878906 25.871094 221.402344 27.570312 219.828125 27.644531 L 219.828125 27.996094 L 221.175781 27.996094 L 221.175781 32.394531 C 221.175781 34.347656 222.675781 34.546875 223.253906 34.546875 C 224.378906 34.546875 224.828125 33.421875 224.828125 32.394531 L 224.828125 31.496094 L 224.425781 31.496094 L 224.425781 32.371094 C 224.425781 33.546875 223.953125 34.144531 223.351562 34.144531 C 222.277344 34.144531 222.277344 32.695312 222.277344 32.421875 Z M 222.277344 27.996094 "/>
<path style=" stroke:none;fill-rule:nonzero;fill:rgb(0%,0%,0%);fill-opacity:1;" d="M 228.777344 33.519531 C 228.777344 33.070312 228.402344 32.671875 227.953125 32.671875 C 227.476562 32.671875 227.101562 33.070312 227.101562 33.519531 C 227.101562 33.996094 227.476562 34.371094 227.953125 34.371094 C 228.402344 34.371094 228.777344 33.996094 228.777344 33.519531 Z M 228.777344 33.519531 "/>
<path style=" stroke:none;fill-rule:nonzero;fill:rgb(0%,0%,0%);fill-opacity:1;" d="M 191.28125 47.5 L 191.28125 46.449219 L 188.980469 46.625 L 188.980469 47.125 C 190.105469 47.125 190.230469 47.222656 190.230469 47.925781 L 190.230469 55.375 C 190.230469 56.097656 190.058594 56.097656 188.980469 56.097656 L 188.980469 56.597656 C 189.53125 56.574219 190.355469 56.550781 190.757812 56.550781 C 191.207031 56.550781 192.007812 56.574219 192.558594 56.597656 L 192.558594 56.097656 C 191.507812 56.097656 191.332031 56.097656 191.332031 55.375 L 191.332031 52.550781 C 191.40625 52.824219 192.082031 53.675781 193.28125 53.675781 C 195.183594 53.675781 196.832031 52.097656 196.832031 50.050781 C 196.832031 48.023438 195.308594 46.449219 193.507812 46.449219 C 192.257812 46.449219 191.582031 47.148438 191.28125 47.5 Z M 191.332031 51.675781 L 191.332031 48.125 C 191.78125 47.300781 192.558594 46.847656 193.382812 46.847656 C 194.558594 46.847656 195.507812 48.25 195.507812 50.050781 C 195.507812 51.972656 194.40625 53.324219 193.230469 53.324219 C 192.582031 53.324219 191.980469 53 191.558594 52.347656 C 191.332031 52.023438 191.332031 52 191.332031 51.675781 Z M 191.332031 51.675781 "/>
<path style=" stroke:none;fill-rule:nonzero;fill:rgb(0%,0%,0%);fill-opacity:1;" d="M 205.335938 50.074219 C 205.335938 48.050781 203.761719 46.347656 201.835938 46.347656 C 199.835938 46.347656 198.285156 48.097656 198.285156 50.074219 C 198.285156 52.148438 199.933594 53.675781 201.808594 53.675781 C 203.734375 53.675781 205.335938 52.097656 205.335938 50.074219 Z M 201.835938 53.273438 C 201.136719 53.273438 200.433594 52.949219 200.011719 52.199219 C 199.609375 51.5 199.609375 50.523438 199.609375 49.949219 C 199.609375 49.324219 199.609375 48.472656 199.984375 47.773438 C 200.410156 47.050781 201.160156 46.699219 201.808594 46.699219 C 202.511719 46.699219 203.183594 47.050781 203.609375 47.75 C 204.035156 48.425781 204.035156 49.347656 204.035156 49.949219 C 204.035156 50.523438 204.035156 51.398438 203.683594 52.097656 C 203.308594 52.824219 202.609375 53.273438 201.835938 53.273438 Z M 201.835938 53.273438 "/>
<path style=" stroke:none;fill-rule:nonzero;fill:rgb(0%,0%,0%);fill-opacity:1;" d="M 208.628906 46.449219 L 206.40625 46.625 L 206.40625 47.125 C 207.429688 47.125 207.578125 47.222656 207.578125 48 L 207.578125 52.300781 C 207.578125 53 207.40625 53 206.328125 53 L 206.328125 53.5 C 206.828125 53.472656 207.703125 53.449219 208.078125 53.449219 C 208.65625 53.449219 209.203125 53.472656 209.753906 53.5 L 209.753906 53 C 208.679688 53 208.628906 52.925781 208.628906 52.300781 Z M 208.679688 43.675781 C 208.679688 43.175781 208.304688 42.824219 207.855469 42.824219 C 207.355469 42.824219 207.003906 43.25 207.003906 43.675781 C 207.003906 44.097656 207.355469 44.523438 207.855469 44.523438 C 208.304688 44.523438 208.679688 44.175781 208.679688 43.675781 Z M 208.679688 43.675781 "/>
<path style=" stroke:none;fill-rule:nonzero;fill:rgb(0%,0%,0%);fill-opacity:1;" d="M 211.984375 48.023438 L 211.984375 52.300781 C 211.984375 53 211.808594 53 210.734375 53 L 210.734375 53.5 C 211.308594 53.472656 212.109375 53.449219 212.558594 53.449219 C 212.957031 53.449219 213.785156 53.472656 214.332031 53.5 L 214.332031 53 C 213.257812 53 213.082031 53 213.082031 52.300781 L 213.082031 49.347656 C 213.082031 47.699219 214.234375 46.800781 215.234375 46.800781 C 216.257812 46.800781 216.433594 47.648438 216.433594 48.574219 L 216.433594 52.300781 C 216.433594 53 216.257812 53 215.183594 53 L 215.183594 53.5 C 215.734375 53.472656 216.558594 53.449219 216.984375 53.449219 C 217.382812 53.449219 218.234375 53.472656 218.757812 53.5 L 218.757812 53 C 217.933594 53 217.535156 53 217.535156 52.523438 L 217.535156 49.472656 C 217.535156 48.097656 217.535156 47.625 217.035156 47.050781 C 216.808594 46.773438 216.285156 46.449219 215.359375 46.449219 C 214.183594 46.449219 213.433594 47.125 212.984375 48.125 L 212.984375 46.449219 L 210.734375 46.625 L 210.734375 47.125 C 211.859375 47.125 211.984375 47.222656 211.984375 48.023438 Z M 211.984375 48.023438 "/>
<path style=" stroke:none;fill-rule:nonzero;fill:rgb(0%,0%,0%);fill-opacity:1;" d="M 221.394531 47.125 L 223.691406 47.125 L 223.691406 46.625 L 221.394531 46.625 L 221.394531 43.699219 L 220.992188 43.699219 C 220.992188 45 220.519531 46.699219 218.941406 46.773438 L 218.941406 47.125 L 220.292969 47.125 L 220.292969 51.523438 C 220.292969 53.472656 221.792969 53.675781 222.367188 53.675781 C 223.492188 53.675781 223.941406 52.550781 223.941406 51.523438 L 223.941406 50.625 L 223.542969 50.625 L 223.542969 51.5 C 223.542969 52.675781 223.066406 53.273438 222.46875 53.273438 C 221.394531 53.273438 221.394531 51.824219 221.394531 51.550781 Z M 221.394531 47.125 "/>
</g>
</svg>
