<?xml version="1.0" encoding="UTF-8"?>
<svg xmlns="http://www.w3.org/2000/svg" xmlns:xlink="http://www.w3.org/1999/xlink" width="524.512024pt" height="178.912048pt" viewBox="0 0 524.512024 178.912048" version="1.1">
<defs>
<clipPath id="clip1">
  <path d="M 24 161 L 40 161 L 40 178.910156 L 24 178.910156 Z M 24 161 "/>
</clipPath>
<clipPath id="clip2">
  <path d="M 507 139 L 524.511719 139 L 524.511719 155 L 507 155 Z M 507 139 "/>
</clipPath>
<clipPath id="clip3">
  <path d="M 312 161 L 328 161 L 328 178.910156 L 312 178.910156 Z M 312 161 "/>
</clipPath>
</defs>
<g id="surface1">
<path style="fill:none;stroke-width:1.2;stroke-linecap:butt;stroke-linejoin:miter;stroke:rgb(100%,0%,0%);stroke-opacity:1;stroke-miterlimit:4;" d="M 204.476562 140.65625 L 147.234375 134.257812 "/>
<path style=" stroke:none;fill-rule:nonzero;fill:rgb(0%,0%,0%);fill-opacity:1;" d="M 101.003906 165.488281 L 102.378906 165.488281 C 102.703125 165.488281 102.855469 165.488281 102.855469 165.160156 C 102.855469 164.988281 102.703125 164.988281 102.429688 164.988281 L 101.105469 164.988281 L 101.429688 163.160156 C 101.503906 162.835938 101.730469 161.710938 101.828125 161.511719 C 101.953125 161.210938 102.230469 160.960938 102.578125 160.960938 C 102.628906 160.960938 103.054688 160.960938 103.355469 161.261719 C 102.652344 161.3125 102.480469 161.886719 102.480469 162.113281 C 102.480469 162.488281 102.777344 162.6875 103.078125 162.6875 C 103.503906 162.6875 103.953125 162.3125 103.953125 161.710938 C 103.953125 160.988281 103.230469 160.613281 102.578125 160.613281 C 102.027344 160.613281 101.027344 160.910156 100.554688 162.488281 C 100.453125 162.8125 100.402344 162.988281 100.027344 164.988281 L 98.929688 164.988281 C 98.605469 164.988281 98.429688 164.988281 98.429688 165.285156 C 98.429688 165.488281 98.578125 165.488281 98.878906 165.488281 L 99.929688 165.488281 L 98.753906 171.785156 C 98.453125 173.335938 98.179688 174.785156 97.355469 174.785156 C 97.277344 174.785156 96.902344 174.785156 96.578125 174.488281 C 97.328125 174.4375 97.480469 173.863281 97.480469 173.636719 C 97.480469 173.261719 97.179688 173.0625 96.878906 173.0625 C 96.453125 173.0625 96.003906 173.4375 96.003906 174.035156 C 96.003906 174.738281 96.703125 175.136719 97.355469 175.136719 C 98.230469 175.136719 98.878906 174.1875 99.152344 173.585938 C 99.679688 172.585938 100.027344 170.660156 100.054688 170.535156 Z M 101.003906 165.488281 "/>
<path style=" stroke:none;fill-rule:nonzero;fill:rgb(0%,0%,0%);fill-opacity:1;" d="M 107.898438 160.800781 C 108 160.625 108 160.527344 108 160.449219 C 108 160.101562 107.699219 159.851562 107.347656 159.851562 C 106.925781 159.851562 106.800781 160.199219 106.75 160.375 L 105.273438 165.199219 C 105.25 165.226562 105.199219 165.351562 105.199219 165.375 C 105.199219 165.5 105.550781 165.625 105.648438 165.625 C 105.722656 165.625 105.722656 165.601562 105.800781 165.425781 Z M 107.898438 160.800781 "/>
<path style=" stroke:none;fill-rule:nonzero;fill:rgb(0%,0%,0%);fill-opacity:1;" d="M 111.574219 160.800781 C 111.675781 160.625 111.675781 160.527344 111.675781 160.449219 C 111.675781 160.101562 111.375 159.851562 111.023438 159.851562 C 110.597656 159.851562 110.472656 160.199219 110.425781 160.375 L 108.949219 165.199219 C 108.925781 165.226562 108.875 165.351562 108.875 165.375 C 108.875 165.5 109.222656 165.625 109.324219 165.625 C 109.398438 165.625 109.398438 165.601562 109.472656 165.425781 Z M 111.574219 160.800781 "/>
<path style=" stroke:none;fill-rule:nonzero;fill:rgb(0%,0%,0%);fill-opacity:1;" d="M 118.097656 175.6875 C 118.097656 175.636719 118.097656 175.613281 117.820312 175.335938 C 115.847656 173.335938 115.320312 170.3125 115.320312 167.863281 C 115.320312 165.085938 115.921875 162.3125 117.894531 160.335938 C 118.097656 160.136719 118.097656 160.113281 118.097656 160.0625 C 118.097656 159.9375 118.046875 159.886719 117.945312 159.886719 C 117.769531 159.886719 116.347656 160.988281 115.394531 163.011719 C 114.597656 164.761719 114.394531 166.535156 114.394531 167.863281 C 114.394531 169.113281 114.570312 171.035156 115.445312 172.863281 C 116.421875 174.8125 117.769531 175.863281 117.945312 175.863281 C 118.046875 175.863281 118.097656 175.8125 118.097656 175.6875 Z M 118.097656 175.6875 "/>
<path style=" stroke:none;fill-rule:nonzero;fill:rgb(0%,0%,0%);fill-opacity:1;" d="M 124.34375 167.035156 C 124.445312 166.636719 124.820312 165.160156 125.917969 165.160156 C 125.996094 165.160156 126.394531 165.160156 126.71875 165.363281 C 126.269531 165.460938 125.96875 165.835938 125.96875 166.238281 C 125.96875 166.488281 126.144531 166.785156 126.570312 166.785156 C 126.917969 166.785156 127.417969 166.511719 127.417969 165.863281 C 127.417969 165.035156 126.496094 164.8125 125.945312 164.8125 C 125.019531 164.8125 124.46875 165.660156 124.269531 166.011719 C 123.871094 164.960938 123.019531 164.8125 122.542969 164.8125 C 120.894531 164.8125 119.96875 166.863281 119.96875 167.261719 C 119.96875 167.4375 120.144531 167.4375 120.167969 167.4375 C 120.292969 167.4375 120.34375 167.386719 120.371094 167.261719 C 120.917969 165.5625 121.96875 165.160156 122.519531 165.160156 C 122.820312 165.160156 123.371094 165.3125 123.371094 166.238281 C 123.371094 166.738281 123.09375 167.785156 122.519531 170.035156 C 122.269531 171.011719 121.695312 171.6875 120.996094 171.6875 C 120.894531 171.6875 120.542969 171.6875 120.195312 171.488281 C 120.59375 171.386719 120.945312 171.0625 120.945312 170.613281 C 120.945312 170.1875 120.59375 170.0625 120.371094 170.0625 C 119.871094 170.0625 119.496094 170.460938 119.496094 170.988281 C 119.496094 171.710938 120.269531 172.035156 120.96875 172.035156 C 122.042969 172.035156 122.621094 170.910156 122.644531 170.835938 C 122.84375 171.410156 123.417969 172.035156 124.371094 172.035156 C 126.019531 172.035156 126.917969 169.988281 126.917969 169.585938 C 126.917969 169.410156 126.792969 169.410156 126.746094 169.410156 C 126.59375 169.410156 126.570312 169.488281 126.519531 169.585938 C 125.996094 171.3125 124.917969 171.6875 124.417969 171.6875 C 123.792969 171.6875 123.542969 171.1875 123.542969 170.636719 C 123.542969 170.285156 123.621094 169.9375 123.792969 169.238281 Z M 124.34375 167.035156 "/>
<path style=" stroke:none;fill-rule:nonzero;fill:rgb(0%,0%,0%);fill-opacity:1;" d="M 132.730469 167.863281 C 132.730469 166.636719 132.554688 164.710938 131.679688 162.886719 C 130.730469 160.9375 129.355469 159.886719 129.207031 159.886719 C 129.105469 159.886719 129.03125 159.960938 129.03125 160.0625 C 129.03125 160.113281 129.03125 160.136719 129.332031 160.4375 C 130.90625 162.011719 131.804688 164.535156 131.804688 167.863281 C 131.804688 170.613281 131.230469 173.410156 129.253906 175.410156 C 129.03125 175.613281 129.03125 175.636719 129.03125 175.6875 C 129.03125 175.785156 129.105469 175.863281 129.207031 175.863281 C 129.355469 175.863281 130.804688 174.761719 131.730469 172.738281 C 132.554688 170.988281 132.730469 169.210938 132.730469 167.863281 Z M 132.730469 167.863281 "/>
<path style=" stroke:none;fill-rule:nonzero;fill:rgb(0%,0%,0%);fill-opacity:1;" d="M 149.53125 168.238281 C 149.707031 168.136719 149.832031 168.0625 149.832031 167.863281 C 149.832031 167.6875 149.707031 167.613281 149.53125 167.511719 L 140.683594 163.363281 C 140.480469 163.238281 140.457031 163.238281 140.40625 163.238281 C 140.230469 163.238281 140.082031 163.386719 140.082031 163.5625 C 140.082031 163.710938 140.15625 163.8125 140.382812 163.910156 L 148.757812 167.863281 L 140.382812 171.835938 C 140.15625 171.9375 140.082031 172.035156 140.082031 172.1875 C 140.082031 172.363281 140.230469 172.511719 140.40625 172.511719 C 140.457031 172.511719 140.480469 172.511719 140.683594 172.386719 Z M 149.53125 168.238281 "/>
<path style=" stroke:none;fill-rule:nonzero;fill:rgb(0%,0%,0%);fill-opacity:1;" d="M 162.90625 166.761719 C 162.90625 165.488281 162.832031 164.210938 162.28125 163.035156 C 161.558594 161.488281 160.234375 161.238281 159.582031 161.238281 C 158.609375 161.238281 157.457031 161.660156 156.78125 163.136719 C 156.28125 164.238281 156.207031 165.488281 156.207031 166.761719 C 156.207031 167.960938 156.257812 169.386719 156.933594 170.613281 C 157.609375 171.886719 158.78125 172.210938 159.558594 172.210938 C 160.40625 172.210938 161.632812 171.886719 162.332031 170.363281 C 162.832031 169.261719 162.90625 168.011719 162.90625 166.761719 Z M 159.558594 171.863281 C 158.933594 171.863281 157.984375 171.460938 157.707031 169.9375 C 157.53125 168.988281 157.53125 167.511719 157.53125 166.5625 C 157.53125 165.535156 157.53125 164.488281 157.65625 163.636719 C 157.957031 161.738281 159.15625 161.585938 159.558594 161.585938 C 160.082031 161.585938 161.132812 161.886719 161.433594 163.460938 C 161.609375 164.363281 161.609375 165.5625 161.609375 166.5625 C 161.609375 167.761719 161.609375 168.835938 161.433594 169.863281 C 161.183594 171.386719 160.28125 171.863281 159.558594 171.863281 Z M 159.558594 171.863281 "/>
<path style="fill:none;stroke-width:1.6;stroke-linecap:butt;stroke-linejoin:miter;stroke:rgb(100%,0%,0%);stroke-opacity:1;stroke-miterlimit:4;" d="M 3.054688 147.054688 L 233.457031 147.054688 "/>
<path style="fill-rule:evenodd;fill:rgb(100%,0%,0%);fill-opacity:1;stroke-width:0.8;stroke-linecap:butt;stroke-linejoin:miter;stroke:rgb(100%,0%,0%);stroke-opacity:1;stroke-miterlimit:4;" d="M 9.457031 147.054688 L 12.65625 143.855469 L 1.457031 147.054688 L 12.65625 150.257812 Z M 9.457031 147.054688 "/>
<path style="fill-rule:evenodd;fill:rgb(100%,0%,0%);fill-opacity:1;stroke-width:0.8;stroke-linecap:butt;stroke-linejoin:miter;stroke:rgb(100%,0%,0%);stroke-opacity:1;stroke-miterlimit:4;" d="M -227.054688 -147.054688 L -223.855469 -150.257812 L -235.054688 -147.054688 L -223.855469 -143.855469 Z M -227.054688 -147.054688 " transform="matrix(-1,0,0,-1,0,0)"/>
<path style="fill:none;stroke-width:1.6;stroke-linecap:butt;stroke-linejoin:miter;stroke:rgb(100%,0%,0%);stroke-opacity:1;stroke-miterlimit:4;" d="M 31.855469 3.054688 L 31.855469 175.855469 "/>
<path style="fill-rule:evenodd;fill:rgb(100%,0%,0%);fill-opacity:1;stroke-width:0.8;stroke-linecap:butt;stroke-linejoin:miter;stroke:rgb(100%,0%,0%);stroke-opacity:1;stroke-miterlimit:4;" d="M 9.457031 -31.855469 L 12.65625 -35.054688 L 1.457031 -31.855469 L 12.65625 -28.65625 Z M 9.457031 -31.855469 " transform="matrix(0,1,-1,0,0,0)"/>
<path style=" stroke:none;fill-rule:evenodd;fill:rgb(100%,0%,0%);fill-opacity:1;" d="M 31.855469 169.457031 L 28.65625 166.257812 L 31.855469 177.457031 L 35.054688 166.257812 Z M 31.855469 169.457031 "/>
<g clip-path="url(#clip1)" clip-rule="nonzero">
<path style="fill:none;stroke-width:0.8;stroke-linecap:butt;stroke-linejoin:miter;stroke:rgb(100%,0%,0%);stroke-opacity:1;stroke-miterlimit:4;" d="M -169.457031 31.855469 L -166.257812 28.65625 L -177.457031 31.855469 L -166.257812 35.054688 Z M -169.457031 31.855469 " transform="matrix(0,-1,1,0,0,0)"/>
</g>
<path style="fill:none;stroke-width:1.6;stroke-linecap:butt;stroke-linejoin:miter;stroke:rgb(100%,0%,0%);stroke-opacity:1;stroke-miterlimit:4;" d="M 291.054688 147.054688 L 521.457031 147.054688 "/>
<path style="fill-rule:evenodd;fill:rgb(100%,0%,0%);fill-opacity:1;stroke-width:0.8;stroke-linecap:butt;stroke-linejoin:miter;stroke:rgb(100%,0%,0%);stroke-opacity:1;stroke-miterlimit:4;" d="M 297.457031 147.054688 L 300.65625 143.855469 L 289.457031 147.054688 L 300.65625 150.257812 Z M 297.457031 147.054688 "/>
<path style=" stroke:none;fill-rule:evenodd;fill:rgb(100%,0%,0%);fill-opacity:1;" d="M 515.054688 147.054688 L 511.855469 150.257812 L 523.054688 147.054688 L 511.855469 143.855469 Z M 515.054688 147.054688 "/>
<g clip-path="url(#clip2)" clip-rule="nonzero">
<path style="fill:none;stroke-width:0.8;stroke-linecap:butt;stroke-linejoin:miter;stroke:rgb(100%,0%,0%);stroke-opacity:1;stroke-miterlimit:4;" d="M -515.054688 -147.054688 L -511.855469 -150.257812 L -523.054688 -147.054688 L -511.855469 -143.855469 Z M -515.054688 -147.054688 " transform="matrix(-1,0,0,-1,0,0)"/>
</g>
<path style="fill:none;stroke-width:1.6;stroke-linecap:butt;stroke-linejoin:miter;stroke:rgb(100%,0%,0%);stroke-opacity:1;stroke-miterlimit:4;" d="M 319.855469 3.054688 L 319.855469 175.855469 "/>
<path style="fill-rule:evenodd;fill:rgb(100%,0%,0%);fill-opacity:1;stroke-width:0.8;stroke-linecap:butt;stroke-linejoin:miter;stroke:rgb(100%,0%,0%);stroke-opacity:1;stroke-miterlimit:4;" d="M 9.457031 -319.855469 L 12.65625 -323.054688 L 1.457031 -319.855469 L 12.65625 -316.65625 Z M 9.457031 -319.855469 " transform="matrix(0,1,-1,0,0,0)"/>
<path style=" stroke:none;fill-rule:evenodd;fill:rgb(100%,0%,0%);fill-opacity:1;" d="M 319.855469 169.457031 L 316.65625 166.257812 L 319.855469 177.457031 L 323.054688 166.257812 Z M 319.855469 169.457031 "/>
<g clip-path="url(#clip3)" clip-rule="nonzero">
<path style="fill:none;stroke-width:0.8;stroke-linecap:butt;stroke-linejoin:miter;stroke:rgb(100%,0%,0%);stroke-opacity:1;stroke-miterlimit:4;" d="M -169.457031 319.855469 L -166.257812 316.65625 L -177.457031 319.855469 L -166.257812 323.054688 Z M -169.457031 319.855469 " transform="matrix(0,-1,1,0,0,0)"/>
</g>
<path style="fill:none;stroke-width:1.6;stroke-linecap:butt;stroke-linejoin:miter;stroke:rgb(0%,0%,0%);stroke-opacity:1;stroke-miterlimit:4;" d="M 319.855469 31.855469 C 319.855469 31.855469 401.617188 46.835938 439.855469 70.257812 C 478.09375 93.675781 492.65625 123.054688 492.65625 147.054688 "/>
<path style="fill:none;stroke-width:1.6;stroke-linecap:butt;stroke-linejoin:miter;stroke:rgb(0%,0%,0%);stroke-opacity:1;stroke-miterlimit:4;" d="M 41.457031 7.855469 C 41.457031 7.855469 55.855469 75.054688 94.257812 108.65625 C 132.65625 142.257812 228.65625 137.457031 228.65625 137.457031 "/>
<path style="fill-rule:evenodd;fill:rgb(0%,0%,0%);fill-opacity:1;stroke-width:0.8;stroke-linecap:butt;stroke-linejoin:miter;stroke:rgb(100%,100%,100%);stroke-opacity:1;stroke-miterlimit:4;" d="M 178.257812 135.402344 C 178.257812 136.726562 177.179688 137.800781 175.855469 137.800781 C 174.53125 137.800781 173.457031 136.726562 173.457031 135.402344 C 173.457031 134.074219 174.53125 133 175.855469 133 C 177.179688 133 178.257812 134.074219 178.257812 135.402344 Z M 178.257812 135.402344 "/>
<path style="fill:none;stroke-width:1.2;stroke-linecap:butt;stroke-linejoin:miter;stroke:rgb(100%,0%,0%);stroke-opacity:1;stroke-miterlimit:4;" d="M 123.054688 129.375 L 75.054688 97.535156 "/>
<path style="fill-rule:evenodd;fill:rgb(0%,0%,0%);fill-opacity:1;stroke-width:0.8;stroke-linecap:butt;stroke-linejoin:miter;stroke:rgb(100%,100%,100%);stroke-opacity:1;stroke-miterlimit:4;" d="M 101.457031 111.855469 C 101.457031 113.179688 100.382812 114.257812 99.054688 114.257812 C 97.730469 114.257812 96.65625 113.179688 96.65625 111.855469 C 96.65625 110.53125 97.730469 109.457031 99.054688 109.457031 C 100.382812 109.457031 101.457031 110.53125 101.457031 111.855469 Z M 101.457031 111.855469 "/>
<path style="fill:none;stroke-width:1.2;stroke-linecap:butt;stroke-linejoin:miter;stroke:rgb(100%,0%,0%);stroke-opacity:1;stroke-miterlimit:4;" d="M 72.867188 87.527344 L 45.242188 36.984375 "/>
<path style="fill-rule:evenodd;fill:rgb(0%,0%,0%);fill-opacity:1;stroke-width:0.8;stroke-linecap:butt;stroke-linejoin:miter;stroke:rgb(100%,100%,100%);stroke-opacity:1;stroke-miterlimit:4;" d="M 63.054688 61.800781 C 63.054688 63.125 61.980469 64.203125 60.65625 64.203125 C 59.332031 64.203125 58.257812 63.125 58.257812 61.800781 C 58.257812 60.476562 59.332031 59.402344 60.65625 59.402344 C 61.980469 59.402344 63.054688 60.476562 63.054688 61.800781 Z M 63.054688 61.800781 "/>
<path style=" stroke:none;fill-rule:nonzero;fill:rgb(0%,0%,0%);fill-opacity:1;" d="M 390.605469 165.488281 L 391.980469 165.488281 C 392.304688 165.488281 392.453125 165.488281 392.453125 165.160156 C 392.453125 164.988281 392.304688 164.988281 392.027344 164.988281 L 390.703125 164.988281 L 391.027344 163.160156 C 391.105469 162.835938 391.328125 161.710938 391.429688 161.511719 C 391.554688 161.210938 391.828125 160.960938 392.179688 160.960938 C 392.230469 160.960938 392.652344 160.960938 392.953125 161.261719 C 392.253906 161.3125 392.078125 161.886719 392.078125 162.113281 C 392.078125 162.488281 392.378906 162.6875 392.679688 162.6875 C 393.105469 162.6875 393.554688 162.3125 393.554688 161.710938 C 393.554688 160.988281 392.828125 160.613281 392.179688 160.613281 C 391.628906 160.613281 390.628906 160.910156 390.152344 162.488281 C 390.054688 162.8125 390.003906 162.988281 389.628906 164.988281 L 388.527344 164.988281 C 388.203125 164.988281 388.027344 164.988281 388.027344 165.285156 C 388.027344 165.488281 388.179688 165.488281 388.480469 165.488281 L 389.527344 165.488281 L 388.355469 171.785156 C 388.054688 173.335938 387.777344 174.785156 386.953125 174.785156 C 386.878906 174.785156 386.503906 174.785156 386.179688 174.488281 C 386.929688 174.4375 387.078125 173.863281 387.078125 173.636719 C 387.078125 173.261719 386.777344 173.0625 386.480469 173.0625 C 386.054688 173.0625 385.605469 173.4375 385.605469 174.035156 C 385.605469 174.738281 386.304688 175.136719 386.953125 175.136719 C 387.828125 175.136719 388.480469 174.1875 388.753906 173.585938 C 389.277344 172.585938 389.628906 170.660156 389.652344 170.535156 Z M 390.605469 165.488281 "/>
<path style=" stroke:none;fill-rule:nonzero;fill:rgb(0%,0%,0%);fill-opacity:1;" d="M 397.5 160.800781 C 397.597656 160.625 397.597656 160.527344 397.597656 160.449219 C 397.597656 160.101562 397.300781 159.851562 396.949219 159.851562 C 396.523438 159.851562 396.398438 160.199219 396.347656 160.375 L 394.875 165.199219 C 394.847656 165.226562 394.800781 165.351562 394.800781 165.375 C 394.800781 165.5 395.148438 165.625 395.25 165.625 C 395.324219 165.625 395.324219 165.601562 395.398438 165.425781 Z M 397.5 160.800781 "/>
<path style=" stroke:none;fill-rule:nonzero;fill:rgb(0%,0%,0%);fill-opacity:1;" d="M 401.175781 160.800781 C 401.273438 160.625 401.273438 160.527344 401.273438 160.449219 C 401.273438 160.101562 400.972656 159.851562 400.625 159.851562 C 400.199219 159.851562 400.074219 160.199219 400.023438 160.375 L 398.550781 165.199219 C 398.523438 165.226562 398.472656 165.351562 398.472656 165.375 C 398.472656 165.5 398.824219 165.625 398.925781 165.625 C 399 165.625 399 165.601562 399.074219 165.425781 Z M 401.175781 160.800781 "/>
<path style=" stroke:none;fill-rule:nonzero;fill:rgb(0%,0%,0%);fill-opacity:1;" d="M 407.695312 175.6875 C 407.695312 175.636719 407.695312 175.613281 407.421875 175.335938 C 405.445312 173.335938 404.921875 170.3125 404.921875 167.863281 C 404.921875 165.085938 405.519531 162.3125 407.496094 160.335938 C 407.695312 160.136719 407.695312 160.113281 407.695312 160.0625 C 407.695312 159.9375 407.644531 159.886719 407.546875 159.886719 C 407.371094 159.886719 405.945312 160.988281 404.996094 163.011719 C 404.195312 164.761719 403.996094 166.535156 403.996094 167.863281 C 403.996094 169.113281 404.171875 171.035156 405.046875 172.863281 C 406.019531 174.8125 407.371094 175.863281 407.546875 175.863281 C 407.644531 175.863281 407.695312 175.8125 407.695312 175.6875 Z M 407.695312 175.6875 "/>
<path style=" stroke:none;fill-rule:nonzero;fill:rgb(0%,0%,0%);fill-opacity:1;" d="M 413.945312 167.035156 C 414.042969 166.636719 414.417969 165.160156 415.519531 165.160156 C 415.59375 165.160156 415.996094 165.160156 416.320312 165.363281 C 415.871094 165.460938 415.570312 165.835938 415.570312 166.238281 C 415.570312 166.488281 415.746094 166.785156 416.167969 166.785156 C 416.519531 166.785156 417.019531 166.511719 417.019531 165.863281 C 417.019531 165.035156 416.09375 164.8125 415.542969 164.8125 C 414.621094 164.8125 414.070312 165.660156 413.871094 166.011719 C 413.46875 164.960938 412.621094 164.8125 412.144531 164.8125 C 410.496094 164.8125 409.570312 166.863281 409.570312 167.261719 C 409.570312 167.4375 409.746094 167.4375 409.769531 167.4375 C 409.894531 167.4375 409.945312 167.386719 409.96875 167.261719 C 410.519531 165.5625 411.570312 165.160156 412.121094 165.160156 C 412.417969 165.160156 412.96875 165.3125 412.96875 166.238281 C 412.96875 166.738281 412.695312 167.785156 412.121094 170.035156 C 411.871094 171.011719 411.292969 171.6875 410.59375 171.6875 C 410.496094 171.6875 410.144531 171.6875 409.792969 171.488281 C 410.195312 171.386719 410.542969 171.0625 410.542969 170.613281 C 410.542969 170.1875 410.195312 170.0625 409.96875 170.0625 C 409.46875 170.0625 409.09375 170.460938 409.09375 170.988281 C 409.09375 171.710938 409.871094 172.035156 410.570312 172.035156 C 411.644531 172.035156 412.21875 170.910156 412.246094 170.835938 C 412.445312 171.410156 413.019531 172.035156 413.96875 172.035156 C 415.621094 172.035156 416.519531 169.988281 416.519531 169.585938 C 416.519531 169.410156 416.394531 169.410156 416.34375 169.410156 C 416.195312 169.410156 416.167969 169.488281 416.121094 169.585938 C 415.59375 171.3125 414.519531 171.6875 414.019531 171.6875 C 413.394531 171.6875 413.144531 171.1875 413.144531 170.636719 C 413.144531 170.285156 413.21875 169.9375 413.394531 169.238281 Z M 413.945312 167.035156 "/>
<path style=" stroke:none;fill-rule:nonzero;fill:rgb(0%,0%,0%);fill-opacity:1;" d="M 422.332031 167.863281 C 422.332031 166.636719 422.15625 164.710938 421.28125 162.886719 C 420.332031 160.9375 418.957031 159.886719 418.804688 159.886719 C 418.707031 159.886719 418.628906 159.960938 418.628906 160.0625 C 418.628906 160.113281 418.628906 160.136719 418.929688 160.4375 C 420.503906 162.011719 421.40625 164.535156 421.40625 167.863281 C 421.40625 170.613281 420.832031 173.410156 418.855469 175.410156 C 418.628906 175.613281 418.628906 175.636719 418.628906 175.6875 C 418.628906 175.785156 418.707031 175.863281 418.804688 175.863281 C 418.957031 175.863281 420.40625 174.761719 421.332031 172.738281 C 422.15625 170.988281 422.332031 169.210938 422.332031 167.863281 Z M 422.332031 167.863281 "/>
<path style=" stroke:none;fill-rule:nonzero;fill:rgb(0%,0%,0%);fill-opacity:1;" d="M 439.132812 163.910156 C 439.308594 163.8125 439.433594 163.738281 439.433594 163.5625 C 439.433594 163.386719 439.28125 163.238281 439.105469 163.238281 C 439.058594 163.238281 439.03125 163.238281 438.832031 163.363281 L 429.980469 167.511719 C 429.808594 167.613281 429.683594 167.6875 429.683594 167.863281 C 429.683594 168.0625 429.808594 168.136719 429.980469 168.238281 L 438.832031 172.386719 C 439.03125 172.511719 439.058594 172.511719 439.105469 172.511719 C 439.28125 172.511719 439.433594 172.363281 439.433594 172.1875 C 439.433594 172.011719 439.308594 171.9375 439.132812 171.835938 L 430.757812 167.863281 Z M 439.132812 163.910156 "/>
<path style=" stroke:none;fill-rule:nonzero;fill:rgb(0%,0%,0%);fill-opacity:1;" d="M 452.507812 166.761719 C 452.507812 165.488281 452.433594 164.210938 451.882812 163.035156 C 451.15625 161.488281 449.832031 161.238281 449.183594 161.238281 C 448.207031 161.238281 447.058594 161.660156 446.382812 163.136719 C 445.882812 164.238281 445.808594 165.488281 445.808594 166.761719 C 445.808594 167.960938 445.859375 169.386719 446.53125 170.613281 C 447.207031 171.886719 448.382812 172.210938 449.15625 172.210938 C 450.007812 172.210938 451.234375 171.886719 451.933594 170.363281 C 452.433594 169.261719 452.507812 168.011719 452.507812 166.761719 Z M 449.15625 171.863281 C 448.53125 171.863281 447.582031 171.460938 447.308594 169.9375 C 447.132812 168.988281 447.132812 167.511719 447.132812 166.5625 C 447.132812 165.535156 447.132812 164.488281 447.257812 163.636719 C 447.558594 161.738281 448.757812 161.585938 449.15625 161.585938 C 449.683594 161.585938 450.734375 161.886719 451.03125 163.460938 C 451.207031 164.363281 451.207031 165.5625 451.207031 166.5625 C 451.207031 167.761719 451.207031 168.835938 451.03125 169.863281 C 450.78125 171.386719 449.882812 171.863281 449.15625 171.863281 Z M 449.15625 171.863281 "/>
<path style="fill:none;stroke-width:1.2;stroke-linecap:butt;stroke-linejoin:miter;stroke:rgb(100%,0%,0%);stroke-opacity:1;stroke-miterlimit:4;" d="M 390.894531 46.800781 L 334.925781 33.195312 "/>
<path style="fill-rule:evenodd;fill:rgb(0%,0%,0%);fill-opacity:1;stroke-width:0.8;stroke-linecap:butt;stroke-linejoin:miter;stroke:rgb(100%,100%,100%);stroke-opacity:1;stroke-miterlimit:4;" d="M 365.457031 41.457031 C 365.457031 42.78125 364.382812 43.855469 363.054688 43.855469 C 361.730469 43.855469 360.65625 42.78125 360.65625 41.457031 C 360.65625 40.128906 361.730469 39.054688 363.054688 39.054688 C 364.382812 39.054688 365.457031 40.128906 365.457031 41.457031 Z M 365.457031 41.457031 "/>
<path style="fill:none;stroke-width:1.2;stroke-linecap:butt;stroke-linejoin:miter;stroke:rgb(100%,0%,0%);stroke-opacity:1;stroke-miterlimit:4;" d="M 455.492188 78.453125 L 405.609375 49.652344 "/>
<path style="fill-rule:evenodd;fill:rgb(0%,0%,0%);fill-opacity:1;stroke-width:0.8;stroke-linecap:butt;stroke-linejoin:miter;stroke:rgb(100%,100%,100%);stroke-opacity:1;stroke-miterlimit:4;" d="M 432.65625 65.457031 C 432.65625 66.78125 431.582031 67.855469 430.257812 67.855469 C 428.929688 67.855469 427.855469 66.78125 427.855469 65.457031 C 427.855469 64.128906 428.929688 63.054688 430.257812 63.054688 C 431.582031 63.054688 432.65625 64.128906 432.65625 65.457031 Z M 432.65625 65.457031 "/>
<path style="fill:none;stroke-width:1.2;stroke-linecap:butt;stroke-linejoin:miter;stroke:rgb(100%,0%,0%);stroke-opacity:1;stroke-miterlimit:4;" d="M 495.789062 126.703125 L 460.722656 81.007812 "/>
<path style="fill-rule:evenodd;fill:rgb(0%,0%,0%);fill-opacity:1;stroke-width:0.8;stroke-linecap:butt;stroke-linejoin:miter;stroke:rgb(100%,100%,100%);stroke-opacity:1;stroke-miterlimit:4;" d="M 480.65625 103.855469 C 480.65625 105.179688 479.582031 106.257812 478.257812 106.257812 C 476.929688 106.257812 475.855469 105.179688 475.855469 103.855469 C 475.855469 102.53125 476.929688 101.457031 478.257812 101.457031 C 479.582031 101.457031 480.65625 102.53125 480.65625 103.855469 Z M 480.65625 103.855469 "/>
<path style=" stroke:none;fill-rule:nonzero;fill:rgb(0%,0%,0%);fill-opacity:1;" d="M 341.53125 70.507812 C 341.605469 70.28125 341.605469 70.257812 341.605469 70.132812 C 341.605469 69.855469 341.382812 69.707031 341.132812 69.707031 C 340.980469 69.707031 340.730469 69.804688 340.582031 70.03125 C 340.554688 70.132812 340.40625 70.605469 340.355469 70.90625 C 340.230469 71.304688 340.132812 71.757812 340.03125 72.179688 L 339.304688 75.054688 C 339.257812 75.28125 338.554688 76.40625 337.507812 76.40625 C 336.707031 76.40625 336.53125 75.707031 336.53125 75.105469 C 336.53125 74.382812 336.804688 73.382812 337.332031 71.980469 C 337.582031 71.332031 337.65625 71.15625 337.65625 70.832031 C 337.65625 70.132812 337.15625 69.53125 336.355469 69.53125 C 334.832031 69.53125 334.257812 71.855469 334.257812 71.980469 C 334.257812 72.15625 334.40625 72.15625 334.429688 72.15625 C 334.605469 72.15625 334.605469 72.105469 334.679688 71.855469 C 335.132812 70.355469 335.757812 69.882812 336.304688 69.882812 C 336.429688 69.882812 336.707031 69.882812 336.707031 70.382812 C 336.707031 70.78125 336.53125 71.207031 336.429688 71.507812 C 335.78125 73.207031 335.507812 74.105469 335.507812 74.855469 C 335.507812 76.28125 336.507812 76.757812 337.457031 76.757812 C 338.082031 76.757812 338.605469 76.480469 339.054688 76.03125 C 338.855469 76.855469 338.65625 77.65625 338.03125 78.507812 C 337.605469 79.03125 337.007812 79.507812 336.28125 79.507812 C 336.054688 79.507812 335.332031 79.457031 335.054688 78.832031 C 335.304688 78.832031 335.53125 78.832031 335.730469 78.632812 C 335.90625 78.507812 336.054688 78.28125 336.054688 77.980469 C 336.054688 77.480469 335.632812 77.429688 335.480469 77.429688 C 335.105469 77.429688 334.582031 77.679688 334.582031 78.457031 C 334.582031 79.257812 335.28125 79.855469 336.28125 79.855469 C 337.90625 79.855469 339.554688 78.40625 340.007812 76.605469 Z M 341.53125 70.507812 "/>
<path style=" stroke:none;fill-rule:nonzero;fill:rgb(0%,0%,0%);fill-opacity:1;" d="M 357.546875 71.355469 C 357.796875 71.355469 358.09375 71.355469 358.09375 71.054688 C 358.09375 70.730469 357.796875 70.730469 357.570312 70.730469 L 348.019531 70.730469 C 347.796875 70.730469 347.496094 70.730469 347.496094 71.054688 C 347.496094 71.355469 347.796875 71.355469 348.019531 71.355469 Z M 357.570312 74.457031 C 357.796875 74.457031 358.09375 74.457031 358.09375 74.132812 C 358.09375 73.832031 357.796875 73.832031 357.546875 73.832031 L 348.019531 73.832031 C 347.796875 73.832031 347.496094 73.832031 347.496094 74.132812 C 347.496094 74.457031 347.796875 74.457031 348.019531 74.457031 Z M 357.570312 74.457031 "/>
<path style=" stroke:none;fill-rule:nonzero;fill:rgb(0%,0%,0%);fill-opacity:1;" d="M 369.621094 77.683594 L 366.820312 71.484375 C 366.695312 71.234375 366.621094 71.234375 366.570312 71.234375 C 366.570312 71.234375 366.472656 71.234375 366.296875 71.359375 L 364.796875 72.507812 C 364.597656 72.683594 364.597656 72.707031 364.597656 72.757812 C 364.597656 72.859375 364.621094 72.933594 364.746094 72.933594 C 364.847656 72.933594 365.121094 72.707031 365.296875 72.582031 C 365.371094 72.507812 365.621094 72.332031 365.796875 72.207031 L 368.945312 79.109375 C 369.046875 79.359375 369.121094 79.359375 369.269531 79.359375 C 369.519531 79.359375 369.570312 79.28125 369.671875 79.058594 L 376.921875 64.058594 C 377.019531 63.832031 377.019531 63.78125 377.019531 63.734375 C 377.019531 63.582031 376.894531 63.40625 376.695312 63.40625 C 376.570312 63.40625 376.472656 63.507812 376.347656 63.757812 Z M 369.621094 77.683594 "/>
<path style="fill:none;stroke-width:0.6368;stroke-linecap:butt;stroke-linejoin:miter;stroke:rgb(0%,0%,0%);stroke-opacity:1;stroke-miterlimit:10;" d="M 376.707031 -63.738281 L 413.269531 -63.738281 " transform="matrix(1,0,0,-1,0,0)"/>
<path style=" stroke:none;fill-rule:nonzero;fill:rgb(0%,0%,0%);fill-opacity:1;" d="M 381.40625 73.957031 L 381.40625 75.332031 C 381.40625 75.90625 381.355469 76.082031 380.179688 76.082031 L 379.855469 76.082031 L 379.855469 76.582031 C 380.503906 76.53125 381.332031 76.53125 382.003906 76.53125 C 382.679688 76.53125 383.503906 76.53125 384.179688 76.582031 L 384.179688 76.082031 L 383.832031 76.082031 C 382.65625 76.082031 382.628906 75.90625 382.628906 75.332031 L 382.628906 73.957031 L 384.207031 73.957031 L 384.207031 73.457031 L 382.628906 73.457031 L 382.628906 66.207031 C 382.628906 65.882812 382.628906 65.78125 382.355469 65.78125 C 382.230469 65.78125 382.179688 65.78125 382.054688 65.980469 L 377.15625 73.457031 L 377.15625 73.957031 Z M 381.480469 73.457031 L 377.605469 73.457031 L 381.480469 67.507812 Z M 381.480469 73.457031 "/>
<path style=" stroke:none;fill-rule:nonzero;fill:rgb(0%,0%,0%);fill-opacity:1;" d="M 398.71875 72.90625 C 398.992188 72.90625 399.292969 72.90625 399.292969 72.582031 C 399.292969 72.28125 398.992188 72.28125 398.71875 72.28125 L 390.09375 72.28125 C 389.816406 72.28125 389.542969 72.28125 389.542969 72.582031 C 389.542969 72.90625 389.816406 72.90625 390.09375 72.90625 Z M 398.71875 72.90625 "/>
<path style=" stroke:none;fill-rule:nonzero;fill:rgb(0%,0%,0%);fill-opacity:1;" d="M 409.484375 71.757812 C 409.582031 71.355469 409.957031 69.882812 411.058594 69.882812 C 411.132812 69.882812 411.535156 69.882812 411.859375 70.082031 C 411.410156 70.179688 411.109375 70.554688 411.109375 70.957031 C 411.109375 71.207031 411.285156 71.507812 411.707031 71.507812 C 412.058594 71.507812 412.558594 71.230469 412.558594 70.582031 C 412.558594 69.757812 411.632812 69.53125 411.082031 69.53125 C 410.160156 69.53125 409.609375 70.382812 409.410156 70.730469 C 409.007812 69.679688 408.160156 69.53125 407.683594 69.53125 C 406.035156 69.53125 405.109375 71.582031 405.109375 71.980469 C 405.109375 72.15625 405.285156 72.15625 405.308594 72.15625 C 405.433594 72.15625 405.484375 72.105469 405.507812 71.980469 C 406.058594 70.28125 407.109375 69.882812 407.660156 69.882812 C 407.957031 69.882812 408.507812 70.03125 408.507812 70.957031 C 408.507812 71.457031 408.234375 72.507812 407.660156 74.757812 C 407.410156 75.730469 406.832031 76.40625 406.132812 76.40625 C 406.035156 76.40625 405.683594 76.40625 405.332031 76.207031 C 405.734375 76.105469 406.082031 75.78125 406.082031 75.332031 C 406.082031 74.90625 405.734375 74.78125 405.507812 74.78125 C 405.007812 74.78125 404.632812 75.179688 404.632812 75.707031 C 404.632812 76.429688 405.410156 76.757812 406.109375 76.757812 C 407.183594 76.757812 407.757812 75.632812 407.785156 75.554688 C 407.984375 76.132812 408.558594 76.757812 409.507812 76.757812 C 411.160156 76.757812 412.058594 74.707031 412.058594 74.304688 C 412.058594 74.132812 411.933594 74.132812 411.882812 74.132812 C 411.734375 74.132812 411.707031 74.207031 411.660156 74.304688 C 411.132812 76.03125 410.058594 76.40625 409.558594 76.40625 C 408.933594 76.40625 408.683594 75.90625 408.683594 75.355469 C 408.683594 75.007812 408.757812 74.65625 408.933594 73.957031 Z M 409.484375 71.757812 "/>
<path style=" stroke:none;fill-rule:nonzero;fill:rgb(0%,0%,0%);fill-opacity:1;" d="M 69.996094 24.273438 C 70.070312 24.050781 70.070312 24.023438 70.070312 23.898438 C 70.070312 23.625 69.84375 23.476562 69.59375 23.476562 C 69.445312 23.476562 69.195312 23.574219 69.046875 23.800781 C 69.019531 23.898438 68.871094 24.375 68.820312 24.675781 C 68.695312 25.074219 68.59375 25.523438 68.496094 25.949219 L 67.769531 28.824219 C 67.71875 29.050781 67.019531 30.175781 65.96875 30.175781 C 65.171875 30.175781 64.996094 29.476562 64.996094 28.875 C 64.996094 28.148438 65.269531 27.148438 65.796875 25.75 C 66.046875 25.101562 66.121094 24.925781 66.121094 24.601562 C 66.121094 23.898438 65.621094 23.300781 64.820312 23.300781 C 63.296875 23.300781 62.71875 25.625 62.71875 25.75 C 62.71875 25.925781 62.871094 25.925781 62.894531 25.925781 C 63.070312 25.925781 63.070312 25.875 63.144531 25.625 C 63.59375 24.125 64.21875 23.648438 64.769531 23.648438 C 64.894531 23.648438 65.171875 23.648438 65.171875 24.148438 C 65.171875 24.550781 64.996094 24.976562 64.894531 25.273438 C 64.246094 26.976562 63.96875 27.875 63.96875 28.625 C 63.96875 30.050781 64.96875 30.523438 65.921875 30.523438 C 66.546875 30.523438 67.070312 30.25 67.519531 29.800781 C 67.320312 30.625 67.121094 31.425781 66.496094 32.273438 C 66.070312 32.800781 65.46875 33.273438 64.746094 33.273438 C 64.519531 33.273438 63.796875 33.226562 63.519531 32.601562 C 63.769531 32.601562 63.996094 32.601562 64.195312 32.398438 C 64.371094 32.273438 64.519531 32.050781 64.519531 31.75 C 64.519531 31.25 64.09375 31.199219 63.945312 31.199219 C 63.570312 31.199219 63.046875 31.449219 63.046875 32.226562 C 63.046875 33.023438 63.746094 33.625 64.746094 33.625 C 66.371094 33.625 68.019531 32.175781 68.46875 30.375 Z M 69.996094 24.273438 "/>
<path style=" stroke:none;fill-rule:nonzero;fill:rgb(0%,0%,0%);fill-opacity:1;" d="M 86.007812 25.125 C 86.257812 25.125 86.558594 25.125 86.558594 24.824219 C 86.558594 24.5 86.257812 24.5 86.035156 24.5 L 76.484375 24.5 C 76.257812 24.5 75.960938 24.5 75.960938 24.824219 C 75.960938 25.125 76.257812 25.125 76.484375 25.125 Z M 86.035156 28.226562 C 86.257812 28.226562 86.558594 28.226562 86.558594 27.898438 C 86.558594 27.601562 86.257812 27.601562 86.007812 27.601562 L 76.484375 27.601562 C 76.257812 27.601562 75.960938 27.601562 75.960938 27.898438 C 75.960938 28.226562 76.257812 28.226562 76.484375 28.226562 Z M 86.035156 28.226562 "/>
<path style=" stroke:none;fill-rule:nonzero;fill:rgb(0%,0%,0%);fill-opacity:1;" d="M 105.710938 9.367188 C 105.710938 8.964844 105.710938 8.941406 105.335938 8.941406 C 104.335938 9.964844 102.933594 9.964844 102.433594 9.964844 L 102.433594 10.464844 C 102.761719 10.464844 103.683594 10.464844 104.511719 10.039062 L 104.511719 18.316406 C 104.511719 18.890625 104.460938 19.066406 103.035156 19.066406 L 102.535156 19.066406 L 102.535156 19.566406 C 103.085938 19.515625 104.460938 19.515625 105.109375 19.515625 C 105.734375 19.515625 107.136719 19.515625 107.683594 19.566406 L 107.683594 19.066406 L 107.183594 19.066406 C 105.734375 19.066406 105.710938 18.890625 105.710938 18.316406 Z M 105.710938 9.367188 "/>
<path style="fill:none;stroke-width:0.6368;stroke-linecap:butt;stroke-linejoin:miter;stroke:rgb(0%,0%,0%);stroke-opacity:1;stroke-miterlimit:10;" d="M 93.796875 -26.367188 L 116.191406 -26.367188 " transform="matrix(1,0,0,-1,0,0)"/>
<path style=" stroke:none;fill-rule:nonzero;fill:rgb(0%,0%,0%);fill-opacity:1;" d="M 100 43.496094 L 97.199219 37.296875 C 97.074219 37.046875 97 37.046875 96.949219 37.046875 C 96.949219 37.046875 96.847656 37.046875 96.675781 37.171875 L 95.175781 38.320312 C 94.972656 38.496094 94.972656 38.519531 94.972656 38.570312 C 94.972656 38.671875 95 38.746094 95.125 38.746094 C 95.222656 38.746094 95.5 38.519531 95.675781 38.394531 C 95.75 38.320312 96 38.144531 96.175781 38.019531 L 99.324219 44.921875 C 99.425781 45.171875 99.5 45.171875 99.648438 45.171875 C 99.898438 45.171875 99.949219 45.097656 100.050781 44.871094 L 107.300781 29.871094 C 107.398438 29.644531 107.398438 29.597656 107.398438 29.546875 C 107.398438 29.394531 107.273438 29.222656 107.074219 29.222656 C 106.949219 29.222656 106.847656 29.320312 106.722656 29.570312 Z M 100 43.496094 "/>
<path style="fill:none;stroke-width:0.6368;stroke-linecap:butt;stroke-linejoin:miter;stroke:rgb(0%,0%,0%);stroke-opacity:1;stroke-miterlimit:10;" d="M 107.078125 -29.554688 L 116.191406 -29.554688 " transform="matrix(1,0,0,-1,0,0)"/>
<path style=" stroke:none;fill-rule:nonzero;fill:rgb(0%,0%,0%);fill-opacity:1;" d="M 112.40625 36.527344 C 112.507812 36.128906 112.882812 34.652344 113.980469 34.652344 C 114.058594 34.652344 114.457031 34.652344 114.78125 34.851562 C 114.332031 34.953125 114.03125 35.328125 114.03125 35.726562 C 114.03125 35.976562 114.207031 36.277344 114.632812 36.277344 C 114.980469 36.277344 115.480469 36.003906 115.480469 35.351562 C 115.480469 34.527344 114.558594 34.304688 114.007812 34.304688 C 113.082031 34.304688 112.53125 35.152344 112.332031 35.503906 C 111.933594 34.453125 111.082031 34.304688 110.605469 34.304688 C 108.957031 34.304688 108.03125 36.351562 108.03125 36.753906 C 108.03125 36.929688 108.207031 36.929688 108.230469 36.929688 C 108.355469 36.929688 108.40625 36.878906 108.433594 36.753906 C 108.980469 35.054688 110.03125 34.652344 110.582031 34.652344 C 110.882812 34.652344 111.433594 34.804688 111.433594 35.726562 C 111.433594 36.226562 111.15625 37.277344 110.582031 39.527344 C 110.332031 40.503906 109.757812 41.179688 109.058594 41.179688 C 108.957031 41.179688 108.605469 41.179688 108.257812 40.976562 C 108.65625 40.878906 109.007812 40.554688 109.007812 40.101562 C 109.007812 39.679688 108.65625 39.554688 108.433594 39.554688 C 107.933594 39.554688 107.558594 39.953125 107.558594 40.476562 C 107.558594 41.203125 108.332031 41.527344 109.03125 41.527344 C 110.105469 41.527344 110.683594 40.402344 110.707031 40.328125 C 110.90625 40.902344 111.480469 41.527344 112.433594 41.527344 C 114.082031 41.527344 114.980469 39.476562 114.980469 39.078125 C 114.980469 38.902344 114.855469 38.902344 114.808594 38.902344 C 114.65625 38.902344 114.632812 38.976562 114.582031 39.078125 C 114.058594 40.804688 112.980469 41.179688 112.480469 41.179688 C 111.855469 41.179688 111.605469 40.679688 111.605469 40.128906 C 111.605469 39.777344 111.683594 39.429688 111.855469 38.726562 Z M 112.40625 36.527344 "/>
</g>
</svg>
