<?xml version="1.0" encoding="UTF-8"?>
<svg xmlns="http://www.w3.org/2000/svg" xmlns:xlink="http://www.w3.org/1999/xlink" width="351.712036pt" height="209.976501pt" viewBox="0 0 351.712036 209.976501" version="1.1">
<defs>
<clipPath id="clip1">
  <path d="M 0 32 L 351.710938 32 L 351.710938 162 L 0 162 Z M 0 32 "/>
</clipPath>
<clipPath id="clip2">
  <path d="M 175 65 L 177 65 L 177 209.976562 L 175 209.976562 Z M 175 65 "/>
</clipPath>
<clipPath id="clip3">
  <path d="M 334 58 L 351.710938 58 L 351.710938 74 L 334 74 Z M 334 58 "/>
</clipPath>
</defs>
<g id="surface1">
<g clip-path="url(#clip1)" clip-rule="nonzero">
<path style="fill:none;stroke-width:1.6;stroke-linecap:butt;stroke-linejoin:miter;stroke:rgb(0%,0%,0%);stroke-opacity:1;stroke-miterlimit:4;" d="M 3.054688 41.976562 C 3.054688 41.976562 58.957031 48.183594 89.457031 65.976562 C 119.953125 83.769531 135.125 152.375 175.855469 152.375 C 216.585938 152.375 231.757812 83.769531 262.257812 65.976562 C 292.753906 48.183594 348.65625 41.976562 348.65625 41.976562 "/>
</g>
<path style="fill:none;stroke-width:0.8;stroke-linecap:butt;stroke-linejoin:miter;stroke:rgb(0%,0%,0%);stroke-opacity:1;stroke-dasharray:0.8,1.6;stroke-miterlimit:4;" d="M 348.65625 37.175781 L 3.054688 37.175781 "/>
<g clip-path="url(#clip2)" clip-rule="nonzero">
<path style="fill:none;stroke-width:0.8;stroke-linecap:butt;stroke-linejoin:miter;stroke:rgb(0%,0%,0%);stroke-opacity:1;stroke-dasharray:0.8,1.6;stroke-miterlimit:4;" d="M 175.855469 65.976562 L 175.855469 209.976562 "/>
</g>
<path style="fill:none;stroke-width:1.6;stroke-linecap:butt;stroke-linejoin:miter;stroke:rgb(100%,0%,0%);stroke-opacity:1;stroke-miterlimit:4;" d="M 3.054688 65.976562 L 348.65625 65.976562 "/>
<path style="fill-rule:evenodd;fill:rgb(100%,0%,0%);fill-opacity:1;stroke-width:0.8;stroke-linecap:butt;stroke-linejoin:miter;stroke:rgb(100%,0%,0%);stroke-opacity:1;stroke-miterlimit:4;" d="M 9.457031 65.976562 L 12.65625 62.777344 L 1.457031 65.976562 L 12.65625 69.175781 Z M 9.457031 65.976562 "/>
<path style=" stroke:none;fill-rule:evenodd;fill:rgb(100%,0%,0%);fill-opacity:1;" d="M 342.257812 65.976562 L 339.054688 69.175781 L 350.257812 65.976562 L 339.054688 62.777344 Z M 342.257812 65.976562 "/>
<g clip-path="url(#clip3)" clip-rule="nonzero">
<path style="fill:none;stroke-width:0.8;stroke-linecap:butt;stroke-linejoin:miter;stroke:rgb(100%,0%,0%);stroke-opacity:1;stroke-miterlimit:4;" d="M -342.257812 -65.976562 L -339.054688 -69.175781 L -350.257812 -65.976562 L -339.054688 -62.777344 Z M -342.257812 -65.976562 " transform="matrix(-1,0,0,-1,0,0)"/>
</g>
<path style="fill:none;stroke-width:1.6;stroke-linecap:butt;stroke-linejoin:miter;stroke:rgb(100%,0%,0%);stroke-opacity:1;stroke-miterlimit:4;" d="M 175.855469 8.375 L 175.855469 181.175781 "/>
<path style="fill-rule:evenodd;fill:rgb(100%,0%,0%);fill-opacity:1;stroke-width:0.8;stroke-linecap:butt;stroke-linejoin:miter;stroke:rgb(100%,0%,0%);stroke-opacity:1;stroke-miterlimit:4;" d="M 14.777344 -175.855469 L 17.976562 -179.054688 L 6.777344 -175.855469 L 17.976562 -172.65625 Z M 14.777344 -175.855469 " transform="matrix(0,1,-1,0,0,0)"/>
<path style="fill-rule:evenodd;fill:rgb(100%,0%,0%);fill-opacity:1;stroke-width:0.8;stroke-linecap:butt;stroke-linejoin:miter;stroke:rgb(100%,0%,0%);stroke-opacity:1;stroke-miterlimit:4;" d="M -174.777344 175.855469 L -171.578125 172.65625 L -182.777344 175.855469 L -171.578125 179.054688 Z M -174.777344 175.855469 " transform="matrix(0,-1,1,0,0,0)"/>
<path style="fill-rule:evenodd;fill:rgb(0%,0%,0%);fill-opacity:1;stroke-width:0.8;stroke-linecap:butt;stroke-linejoin:miter;stroke:rgb(100%,100%,100%);stroke-opacity:1;stroke-miterlimit:4;" d="M 91.855469 65.976562 C 91.855469 67.300781 90.78125 68.375 89.457031 68.375 C 88.128906 68.375 87.054688 67.300781 87.054688 65.976562 C 87.054688 64.652344 88.128906 63.578125 89.457031 63.578125 C 90.78125 63.578125 91.855469 64.652344 91.855469 65.976562 Z M 91.855469 65.976562 "/>
<path style="fill-rule:evenodd;fill:rgb(0%,0%,0%);fill-opacity:1;stroke-width:0.8;stroke-linecap:butt;stroke-linejoin:miter;stroke:rgb(100%,100%,100%);stroke-opacity:1;stroke-miterlimit:4;" d="M 264.65625 65.976562 C 264.65625 67.300781 263.582031 68.375 262.257812 68.375 C 260.929688 68.375 259.855469 67.300781 259.855469 65.976562 C 259.855469 64.652344 260.929688 63.578125 262.257812 63.578125 C 263.582031 63.578125 264.65625 64.652344 264.65625 65.976562 Z M 264.65625 65.976562 "/>
<path style="fill-rule:evenodd;fill:rgb(0%,0%,0%);fill-opacity:1;stroke-width:0.8;stroke-linecap:butt;stroke-linejoin:miter;stroke:rgb(100%,100%,100%);stroke-opacity:1;stroke-miterlimit:4;" d="M 178.257812 152.375 C 178.257812 153.703125 177.179688 154.777344 175.855469 154.777344 C 174.53125 154.777344 173.457031 153.703125 173.457031 152.375 C 173.457031 151.050781 174.53125 149.976562 175.855469 149.976562 C 177.179688 149.976562 178.257812 151.050781 178.257812 152.375 Z M 178.257812 152.375 "/>
<path style=" stroke:none;fill-rule:nonzero;fill:rgb(0%,0%,0%);fill-opacity:1;" d="M 96.429688 3.125 C 96.53125 0.75 97.878906 0.351562 98.429688 0.351562 C 100.054688 0.351562 100.230469 2.5 100.230469 3.125 Z M 96.429688 3.476562 L 100.878906 3.476562 C 101.230469 3.476562 101.28125 3.476562 101.28125 3.125 C 101.28125 1.550781 100.40625 0 98.429688 0 C 96.578125 0 95.105469 1.648438 95.105469 3.648438 C 95.105469 5.773438 96.78125 7.324219 98.605469 7.324219 C 100.554688 7.324219 101.28125 5.550781 101.28125 5.25 C 101.28125 5.101562 101.15625 5.050781 101.054688 5.050781 C 100.929688 5.050781 100.878906 5.148438 100.855469 5.273438 C 100.304688 6.925781 98.855469 6.925781 98.703125 6.925781 C 97.90625 6.925781 97.28125 6.449219 96.90625 5.851562 C 96.429688 5.101562 96.429688 4.050781 96.429688 3.476562 Z M 96.429688 3.476562 "/>
<path style=" stroke:none;fill-rule:nonzero;fill:rgb(0%,0%,0%);fill-opacity:1;" d="M 108.363281 1.851562 C 108.511719 1.476562 108.789062 0.773438 109.839844 0.773438 L 109.839844 0.273438 C 109.464844 0.300781 109.011719 0.324219 108.636719 0.324219 C 108.261719 0.324219 107.539062 0.300781 107.261719 0.273438 L 107.261719 0.773438 C 107.839844 0.773438 108.011719 1.148438 108.011719 1.449219 C 108.011719 1.601562 107.988281 1.675781 107.9375 1.851562 L 106.289062 5.898438 L 104.511719 1.449219 C 104.414062 1.25 104.414062 1.226562 104.414062 1.175781 C 104.414062 0.773438 105.039062 0.773438 105.339844 0.773438 L 105.339844 0.273438 C 104.839844 0.300781 103.964844 0.324219 103.589844 0.324219 C 103.164062 0.324219 102.511719 0.300781 102.039062 0.273438 L 102.039062 0.773438 C 103.039062 0.773438 103.113281 0.875 103.3125 1.351562 L 105.613281 7.023438 C 105.714844 7.25 105.738281 7.324219 105.9375 7.324219 C 106.164062 7.324219 106.214844 7.175781 106.289062 7.023438 Z M 108.363281 1.851562 "/>
<path style=" stroke:none;fill-rule:nonzero;fill:rgb(0%,0%,0%);fill-opacity:1;" d="M 111.480469 3.125 C 111.582031 0.75 112.929688 0.351562 113.480469 0.351562 C 115.105469 0.351562 115.28125 2.5 115.28125 3.125 Z M 111.480469 3.476562 L 115.929688 3.476562 C 116.28125 3.476562 116.332031 3.476562 116.332031 3.125 C 116.332031 1.550781 115.457031 0 113.480469 0 C 111.628906 0 110.15625 1.648438 110.15625 3.648438 C 110.15625 5.773438 111.832031 7.324219 113.65625 7.324219 C 115.605469 7.324219 116.332031 5.550781 116.332031 5.25 C 116.332031 5.101562 116.207031 5.050781 116.105469 5.050781 C 115.980469 5.050781 115.929688 5.148438 115.90625 5.273438 C 115.355469 6.925781 113.90625 6.925781 113.753906 6.925781 C 112.957031 6.925781 112.332031 6.449219 111.957031 5.851562 C 111.480469 5.101562 111.480469 4.050781 111.480469 3.476562 Z M 111.480469 3.476562 "/>
<path style=" stroke:none;fill-rule:nonzero;fill:rgb(0%,0%,0%);fill-opacity:1;" d="M 118.539062 1.675781 L 118.539062 5.949219 C 118.539062 6.648438 118.363281 6.648438 117.289062 6.648438 L 117.289062 7.148438 C 117.863281 7.125 118.664062 7.101562 119.113281 7.101562 C 119.515625 7.101562 120.339844 7.125 120.890625 7.148438 L 120.890625 6.648438 C 119.8125 6.648438 119.640625 6.648438 119.640625 5.949219 L 119.640625 3 C 119.640625 1.351562 120.789062 0.449219 121.789062 0.449219 C 122.8125 0.449219 122.988281 1.300781 122.988281 2.226562 L 122.988281 5.949219 C 122.988281 6.648438 122.8125 6.648438 121.738281 6.648438 L 121.738281 7.148438 C 122.289062 7.125 123.113281 7.101562 123.539062 7.101562 C 123.9375 7.101562 124.789062 7.125 125.3125 7.148438 L 125.3125 6.648438 C 124.488281 6.648438 124.089844 6.648438 124.089844 6.175781 L 124.089844 3.125 C 124.089844 1.75 124.089844 1.273438 123.589844 0.699219 C 123.363281 0.425781 122.839844 0.101562 121.914062 0.101562 C 120.738281 0.101562 119.988281 0.773438 119.539062 1.773438 L 119.539062 0.101562 L 117.289062 0.273438 L 117.289062 0.773438 C 118.414062 0.773438 118.539062 0.875 118.539062 1.675781 Z M 118.539062 1.675781 "/>
<path style=" stroke:none;fill-rule:nonzero;fill:rgb(0%,0%,0%);fill-opacity:1;" d="M 78.871094 23.179688 C 79.222656 23.253906 80.523438 23.503906 80.523438 24.652344 C 80.523438 25.453125 79.972656 26.101562 78.722656 26.101562 C 77.371094 26.101562 76.796875 25.203125 76.496094 23.828125 C 76.445312 23.628906 76.445312 23.578125 76.273438 23.578125 C 76.070312 23.578125 76.070312 23.679688 76.070312 23.953125 L 76.070312 26.078125 C 76.070312 26.351562 76.070312 26.453125 76.246094 26.453125 C 76.320312 26.453125 76.347656 26.429688 76.648438 26.128906 C 76.671875 26.101562 76.671875 26.078125 76.972656 25.777344 C 77.671875 26.429688 78.398438 26.453125 78.722656 26.453125 C 80.546875 26.453125 81.296875 25.378906 81.296875 24.226562 C 81.296875 23.402344 80.820312 22.902344 80.621094 22.726562 C 80.097656 22.203125 79.472656 22.078125 78.796875 21.953125 C 77.898438 21.777344 76.847656 21.578125 76.847656 20.652344 C 76.847656 20.078125 77.246094 19.429688 78.621094 19.429688 C 80.371094 19.429688 80.472656 20.878906 80.496094 21.351562 C 80.496094 21.503906 80.648438 21.503906 80.671875 21.503906 C 80.898438 21.503906 80.898438 21.429688 80.898438 21.128906 L 80.898438 19.503906 C 80.898438 19.253906 80.898438 19.128906 80.722656 19.128906 C 80.648438 19.128906 80.597656 19.128906 80.398438 19.328125 C 80.347656 19.378906 80.195312 19.527344 80.121094 19.578125 C 79.523438 19.128906 78.871094 19.128906 78.621094 19.128906 C 76.671875 19.128906 76.070312 20.203125 76.070312 21.101562 C 76.070312 21.652344 76.320312 22.101562 76.746094 22.453125 C 77.273438 22.851562 77.722656 22.953125 78.871094 23.179688 Z M 78.871094 23.179688 "/>
<path style=" stroke:none;fill-rule:nonzero;fill:rgb(0%,0%,0%);fill-opacity:1;" d="M 88.460938 20.929688 C 88.859375 19.902344 89.683594 19.902344 89.933594 19.902344 L 89.933594 19.402344 C 89.558594 19.429688 89.109375 19.453125 88.734375 19.453125 C 88.460938 19.453125 87.710938 19.429688 87.359375 19.402344 L 87.359375 19.902344 C 87.859375 19.902344 88.109375 20.179688 88.109375 20.578125 C 88.109375 20.753906 88.085938 20.777344 88.007812 20.976562 L 86.382812 24.878906 L 84.632812 20.601562 C 84.558594 20.429688 84.535156 20.378906 84.535156 20.304688 C 84.535156 19.902344 85.109375 19.902344 85.433594 19.902344 L 85.433594 19.402344 C 85.007812 19.429688 83.960938 19.453125 83.683594 19.453125 C 83.257812 19.453125 82.609375 19.429688 82.132812 19.402344 L 82.132812 19.902344 C 82.910156 19.902344 83.210938 19.902344 83.433594 20.453125 L 85.835938 26.277344 C 85.734375 26.476562 85.507812 27.003906 85.433594 27.226562 C 85.085938 28.101562 84.632812 29.203125 83.609375 29.203125 C 83.535156 29.203125 83.160156 29.203125 82.859375 28.902344 C 83.359375 28.851562 83.484375 28.503906 83.484375 28.226562 C 83.484375 27.828125 83.183594 27.578125 82.808594 27.578125 C 82.484375 27.578125 82.132812 27.777344 82.132812 28.253906 C 82.132812 28.976562 82.808594 29.554688 83.609375 29.554688 C 84.609375 29.554688 85.257812 28.628906 85.632812 27.726562 Z M 88.460938 20.929688 "/>
<path style=" stroke:none;fill-rule:nonzero;fill:rgb(0%,0%,0%);fill-opacity:1;" d="M 91.996094 20.804688 L 91.996094 25.078125 C 91.996094 25.777344 91.820312 25.777344 90.746094 25.777344 L 90.746094 26.277344 C 91.320312 26.253906 92.121094 26.226562 92.570312 26.226562 C 92.972656 26.226562 93.796875 26.253906 94.347656 26.277344 L 94.347656 25.777344 C 93.273438 25.777344 93.097656 25.777344 93.097656 25.078125 L 93.097656 22.128906 C 93.097656 20.476562 94.246094 19.578125 95.246094 19.578125 C 96.273438 19.578125 96.445312 20.429688 96.445312 21.351562 L 96.445312 25.078125 C 96.445312 25.777344 96.273438 25.777344 95.195312 25.777344 L 95.195312 26.277344 C 95.746094 26.253906 96.570312 26.226562 96.996094 26.226562 C 97.398438 26.226562 98.246094 26.253906 98.773438 26.277344 L 98.773438 25.777344 C 97.722656 25.777344 97.546875 25.777344 97.546875 25.078125 L 97.546875 22.128906 C 97.546875 20.476562 98.671875 19.578125 99.695312 19.578125 C 100.695312 19.578125 100.871094 20.429688 100.871094 21.351562 L 100.871094 25.078125 C 100.871094 25.777344 100.695312 25.777344 99.621094 25.777344 L 99.621094 26.277344 C 100.171875 26.253906 100.996094 26.226562 101.421875 26.226562 C 101.847656 26.226562 102.671875 26.253906 103.222656 26.277344 L 103.222656 25.777344 C 102.398438 25.777344 101.996094 25.777344 101.972656 25.304688 L 101.972656 22.253906 C 101.972656 20.878906 101.972656 20.402344 101.472656 19.828125 C 101.246094 19.554688 100.722656 19.226562 99.796875 19.226562 C 98.472656 19.226562 97.746094 20.179688 97.496094 20.804688 C 97.273438 19.402344 96.097656 19.226562 95.371094 19.226562 C 94.195312 19.226562 93.445312 19.902344 92.996094 20.902344 L 92.996094 19.226562 L 90.746094 19.402344 L 90.746094 19.902344 C 91.871094 19.902344 91.996094 20.003906 91.996094 20.804688 Z M 91.996094 20.804688 "/>
<path style=" stroke:none;fill-rule:nonzero;fill:rgb(0%,0%,0%);fill-opacity:1;" d="M 105.28125 20.804688 L 105.28125 25.078125 C 105.28125 25.777344 105.105469 25.777344 104.03125 25.777344 L 104.03125 26.277344 C 104.605469 26.253906 105.40625 26.226562 105.855469 26.226562 C 106.253906 26.226562 107.082031 26.253906 107.628906 26.277344 L 107.628906 25.777344 C 106.554688 25.777344 106.378906 25.777344 106.378906 25.078125 L 106.378906 22.128906 C 106.378906 20.476562 107.53125 19.578125 108.53125 19.578125 C 109.554688 19.578125 109.730469 20.429688 109.730469 21.351562 L 109.730469 25.078125 C 109.730469 25.777344 109.554688 25.777344 108.480469 25.777344 L 108.480469 26.277344 C 109.03125 26.253906 109.855469 26.226562 110.28125 26.226562 C 110.679688 26.226562 111.53125 26.253906 112.054688 26.277344 L 112.054688 25.777344 C 111.003906 25.777344 110.832031 25.777344 110.832031 25.078125 L 110.832031 22.128906 C 110.832031 20.476562 111.957031 19.578125 112.980469 19.578125 C 113.980469 19.578125 114.15625 20.429688 114.15625 21.351562 L 114.15625 25.078125 C 114.15625 25.777344 113.980469 25.777344 112.90625 25.777344 L 112.90625 26.277344 C 113.457031 26.253906 114.28125 26.226562 114.707031 26.226562 C 115.128906 26.226562 115.957031 26.253906 116.503906 26.277344 L 116.503906 25.777344 C 115.679688 25.777344 115.28125 25.777344 115.253906 25.304688 L 115.253906 22.253906 C 115.253906 20.878906 115.253906 20.402344 114.753906 19.828125 C 114.53125 19.554688 114.003906 19.226562 113.082031 19.226562 C 111.753906 19.226562 111.03125 20.179688 110.78125 20.804688 C 110.554688 19.402344 109.378906 19.226562 108.65625 19.226562 C 107.480469 19.226562 106.730469 19.902344 106.28125 20.902344 L 106.28125 19.226562 L 104.03125 19.402344 L 104.03125 19.902344 C 105.15625 19.902344 105.28125 20.003906 105.28125 20.804688 Z M 105.28125 20.804688 "/>
<path style=" stroke:none;fill-rule:nonzero;fill:rgb(0%,0%,0%);fill-opacity:1;" d="M 118.589844 22.253906 C 118.6875 19.878906 120.039062 19.476562 120.589844 19.476562 C 122.214844 19.476562 122.386719 21.628906 122.386719 22.253906 Z M 118.589844 22.601562 L 123.039062 22.601562 C 123.386719 22.601562 123.4375 22.601562 123.4375 22.253906 C 123.4375 20.679688 122.5625 19.128906 120.589844 19.128906 C 118.738281 19.128906 117.261719 20.777344 117.261719 22.777344 C 117.261719 24.902344 118.9375 26.453125 120.761719 26.453125 C 122.714844 26.453125 123.4375 24.679688 123.4375 24.378906 C 123.4375 24.226562 123.3125 24.179688 123.214844 24.179688 C 123.089844 24.179688 123.039062 24.277344 123.011719 24.402344 C 122.464844 26.054688 121.011719 26.054688 120.863281 26.054688 C 120.0625 26.054688 119.4375 25.578125 119.0625 24.976562 C 118.589844 24.226562 118.589844 23.179688 118.589844 22.601562 Z M 118.589844 22.601562 "/>
<path style=" stroke:none;fill-rule:nonzero;fill:rgb(0%,0%,0%);fill-opacity:1;" d="M 126.648438 19.902344 L 128.945312 19.902344 L 128.945312 19.402344 L 126.648438 19.402344 L 126.648438 16.476562 L 126.246094 16.476562 C 126.246094 17.777344 125.773438 19.476562 124.195312 19.554688 L 124.195312 19.902344 L 125.546875 19.902344 L 125.546875 24.304688 C 125.546875 26.253906 127.046875 26.453125 127.621094 26.453125 C 128.746094 26.453125 129.195312 25.328125 129.195312 24.304688 L 129.195312 23.402344 L 128.796875 23.402344 L 128.796875 24.277344 C 128.796875 25.453125 128.320312 26.054688 127.722656 26.054688 C 126.648438 26.054688 126.648438 24.601562 126.648438 24.328125 Z M 126.648438 19.902344 "/>
<path style=" stroke:none;fill-rule:nonzero;fill:rgb(0%,0%,0%);fill-opacity:1;" d="M 132.769531 20.976562 L 132.769531 19.226562 L 130.546875 19.402344 L 130.546875 19.902344 C 131.671875 19.902344 131.796875 20.003906 131.796875 20.804688 L 131.796875 25.078125 C 131.796875 25.777344 131.621094 25.777344 130.546875 25.777344 L 130.546875 26.277344 C 131.171875 26.253906 131.921875 26.226562 132.371094 26.226562 C 132.996094 26.226562 133.746094 26.226562 134.394531 26.277344 L 134.394531 25.777344 L 134.046875 25.777344 C 132.871094 25.777344 132.847656 25.601562 132.847656 25.027344 L 132.847656 22.578125 C 132.847656 21.003906 133.519531 19.578125 134.722656 19.578125 C 134.820312 19.578125 134.871094 19.578125 134.894531 19.601562 C 134.847656 19.601562 134.519531 19.804688 134.519531 20.226562 C 134.519531 20.652344 134.871094 20.902344 135.222656 20.902344 C 135.496094 20.902344 135.894531 20.703125 135.894531 20.203125 C 135.894531 19.703125 135.394531 19.226562 134.722656 19.226562 C 133.546875 19.226562 132.972656 20.304688 132.769531 20.976562 Z M 132.769531 20.976562 "/>
<path style=" stroke:none;fill-rule:nonzero;fill:rgb(0%,0%,0%);fill-opacity:1;" d="M 142.964844 20.929688 C 143.363281 19.902344 144.191406 19.902344 144.441406 19.902344 L 144.441406 19.402344 C 144.066406 19.429688 143.613281 19.453125 143.238281 19.453125 C 142.964844 19.453125 142.214844 19.429688 141.863281 19.402344 L 141.863281 19.902344 C 142.363281 19.902344 142.613281 20.179688 142.613281 20.578125 C 142.613281 20.753906 142.589844 20.777344 142.515625 20.976562 L 140.890625 24.878906 L 139.140625 20.601562 C 139.066406 20.429688 139.039062 20.378906 139.039062 20.304688 C 139.039062 19.902344 139.613281 19.902344 139.941406 19.902344 L 139.941406 19.402344 C 139.515625 19.429688 138.464844 19.453125 138.191406 19.453125 C 137.765625 19.453125 137.113281 19.429688 136.640625 19.402344 L 136.640625 19.902344 C 137.414062 19.902344 137.714844 19.902344 137.941406 20.453125 L 140.339844 26.277344 C 140.238281 26.476562 140.015625 27.003906 139.941406 27.226562 C 139.589844 28.101562 139.140625 29.203125 138.113281 29.203125 C 138.039062 29.203125 137.664062 29.203125 137.363281 28.902344 C 137.863281 28.851562 137.988281 28.503906 137.988281 28.226562 C 137.988281 27.828125 137.691406 27.578125 137.316406 27.578125 C 136.988281 27.578125 136.640625 27.777344 136.640625 28.253906 C 136.640625 28.976562 137.316406 29.554688 138.113281 29.554688 C 139.113281 29.554688 139.765625 28.628906 140.140625 27.726562 Z M 142.964844 20.929688 "/>
<path style="fill:none;stroke-width:1.6;stroke-linecap:round;stroke-linejoin:miter;stroke:rgb(100%,0%,0%);stroke-opacity:1;stroke-miterlimit:4;" d="M 151.855469 27.578125 C 151.855469 27.578125 167.238281 22.777344 175.855469 22.777344 C 184.472656 22.777344 199.855469 27.578125 199.855469 27.578125 "/>
<path style="fill-rule:evenodd;fill:rgb(100%,0%,0%);fill-opacity:1;stroke-width:0.763689;stroke-linecap:butt;stroke-linejoin:miter;stroke:rgb(100%,0%,0%);stroke-opacity:1;stroke-miterlimit:4;" d="M 136.651061 68.309466 L 139.705744 65.254769 L 129.014337 68.309483 L 139.705757 71.364149 Z M 136.651061 68.309466 " transform="matrix(1,-0.312018,0.312018,1,0,0)"/>
<path style="fill-rule:evenodd;fill:rgb(100%,0%,0%);fill-opacity:1;stroke-width:0.763689;stroke-linecap:butt;stroke-linejoin:miter;stroke:rgb(100%,0%,0%);stroke-opacity:1;stroke-miterlimit:4;" d="M -183.856763 31.694744 L -180.802066 28.640062 L -191.493487 31.694727 L -180.80208 34.749441 Z M -183.856763 31.694744 " transform="matrix(-1,-0.312018,0.312018,-1,0,0)"/>
<path style=" stroke:none;fill-rule:nonzero;fill:rgb(0%,0%,0%);fill-opacity:1;" d="M 272.492188 75.089844 C 273.792969 74.664062 274.71875 73.5625 274.71875 72.289062 C 274.71875 70.988281 273.320312 70.089844 271.792969 70.089844 C 270.195312 70.089844 268.96875 71.039062 268.96875 72.265625 C 268.96875 72.789062 269.320312 73.089844 269.792969 73.089844 C 270.269531 73.089844 270.59375 72.738281 270.59375 72.265625 C 270.59375 71.488281 269.84375 71.488281 269.617188 71.488281 C 270.09375 70.6875 271.144531 70.488281 271.71875 70.488281 C 272.394531 70.488281 273.269531 70.839844 273.269531 72.265625 C 273.269531 72.464844 273.21875 73.390625 272.820312 74.089844 C 272.34375 74.863281 271.792969 74.914062 271.394531 74.914062 C 271.269531 74.9375 270.894531 74.964844 270.769531 74.964844 C 270.644531 74.988281 270.542969 75.015625 270.542969 75.164062 C 270.542969 75.339844 270.644531 75.339844 270.917969 75.339844 L 271.617188 75.339844 C 272.917969 75.339844 273.519531 76.414062 273.519531 77.988281 C 273.519531 80.164062 272.417969 80.613281 271.71875 80.613281 C 271.019531 80.613281 269.820312 80.339844 269.269531 79.414062 C 269.820312 79.488281 270.320312 79.140625 270.320312 78.539062 C 270.320312 77.964844 269.894531 77.640625 269.445312 77.640625 C 269.042969 77.640625 268.542969 77.863281 268.542969 78.5625 C 268.542969 80.015625 270.019531 81.0625 271.769531 81.0625 C 273.71875 81.0625 275.167969 79.613281 275.167969 77.988281 C 275.167969 76.6875 274.144531 75.4375 272.492188 75.089844 Z M 272.492188 75.089844 "/>
<path style=" stroke:none;fill-rule:nonzero;fill:rgb(0%,0%,0%);fill-opacity:1;" d="M 76.769531 77.039062 C 77.042969 77.039062 77.34375 77.039062 77.34375 76.714844 C 77.34375 76.414062 77.042969 76.414062 76.769531 76.414062 L 68.144531 76.414062 C 67.867188 76.414062 67.59375 76.414062 67.59375 76.714844 C 67.59375 77.039062 67.867188 77.039062 68.144531 77.039062 Z M 76.769531 77.039062 "/>
<path style=" stroke:none;fill-rule:nonzero;fill:rgb(0%,0%,0%);fill-opacity:1;" d="M 83.292969 75.089844 C 84.59375 74.664062 85.515625 73.5625 85.515625 72.289062 C 85.515625 70.988281 84.117188 70.089844 82.59375 70.089844 C 80.992188 70.089844 79.765625 71.039062 79.765625 72.265625 C 79.765625 72.789062 80.117188 73.089844 80.59375 73.089844 C 81.066406 73.089844 81.390625 72.738281 81.390625 72.265625 C 81.390625 71.488281 80.640625 71.488281 80.417969 71.488281 C 80.890625 70.6875 81.941406 70.488281 82.515625 70.488281 C 83.191406 70.488281 84.066406 70.839844 84.066406 72.265625 C 84.066406 72.464844 84.015625 73.390625 83.617188 74.089844 C 83.140625 74.863281 82.59375 74.914062 82.191406 74.914062 C 82.066406 74.9375 81.691406 74.964844 81.566406 74.964844 C 81.441406 74.988281 81.34375 75.015625 81.34375 75.164062 C 81.34375 75.339844 81.441406 75.339844 81.71875 75.339844 L 82.417969 75.339844 C 83.71875 75.339844 84.316406 76.414062 84.316406 77.988281 C 84.316406 80.164062 83.21875 80.613281 82.515625 80.613281 C 81.816406 80.613281 80.617188 80.339844 80.066406 79.414062 C 80.617188 79.488281 81.117188 79.140625 81.117188 78.539062 C 81.117188 77.964844 80.691406 77.640625 80.242188 77.640625 C 79.84375 77.640625 79.34375 77.863281 79.34375 78.5625 C 79.34375 80.015625 80.816406 81.0625 82.566406 81.0625 C 84.515625 81.0625 85.96875 79.613281 85.96875 77.988281 C 85.96875 76.6875 84.941406 75.4375 83.292969 75.089844 Z M 83.292969 75.089844 "/>
<path style=" stroke:none;fill-rule:nonzero;fill:rgb(0%,0%,0%);fill-opacity:1;" d="M 190.246094 163.4375 C 190.519531 163.4375 190.820312 163.4375 190.820312 163.113281 C 190.820312 162.8125 190.519531 162.8125 190.246094 162.8125 L 181.621094 162.8125 C 181.34375 162.8125 181.070312 162.8125 181.070312 163.113281 C 181.070312 163.4375 181.34375 163.4375 181.621094 163.4375 Z M 190.246094 163.4375 "/>
<path style=" stroke:none;fill-rule:nonzero;fill:rgb(0%,0%,0%);fill-opacity:1;" d="M 196.769531 161.488281 C 198.066406 161.0625 198.992188 159.964844 198.992188 158.6875 C 198.992188 157.390625 197.59375 156.488281 196.066406 156.488281 C 194.46875 156.488281 193.242188 157.4375 193.242188 158.664062 C 193.242188 159.1875 193.59375 159.488281 194.066406 159.488281 C 194.542969 159.488281 194.867188 159.140625 194.867188 158.664062 C 194.867188 157.890625 194.117188 157.890625 193.894531 157.890625 C 194.367188 157.089844 195.417969 156.890625 195.992188 156.890625 C 196.667969 156.890625 197.542969 157.238281 197.542969 158.664062 C 197.542969 158.863281 197.492188 159.789062 197.09375 160.488281 C 196.617188 161.265625 196.066406 161.3125 195.667969 161.3125 C 195.542969 161.339844 195.167969 161.363281 195.042969 161.363281 C 194.917969 161.390625 194.816406 161.414062 194.816406 161.5625 C 194.816406 161.738281 194.917969 161.738281 195.191406 161.738281 L 195.894531 161.738281 C 197.191406 161.738281 197.792969 162.8125 197.792969 164.390625 C 197.792969 166.5625 196.691406 167.015625 195.992188 167.015625 C 195.292969 167.015625 194.09375 166.738281 193.542969 165.8125 C 194.09375 165.890625 194.59375 165.539062 194.59375 164.9375 C 194.59375 164.363281 194.167969 164.039062 193.71875 164.039062 C 193.316406 164.039062 192.816406 164.265625 192.816406 164.964844 C 192.816406 166.414062 194.292969 167.464844 196.042969 167.464844 C 197.992188 167.464844 199.441406 166.015625 199.441406 164.390625 C 199.441406 163.089844 198.417969 161.839844 196.769531 161.488281 Z M 196.769531 161.488281 "/>
<path style=" stroke:none;fill-rule:nonzero;fill:rgb(0%,0%,0%);fill-opacity:1;" d="M 186.167969 41.714844 C 186.167969 41.3125 186.167969 41.289062 185.792969 41.289062 C 184.792969 42.3125 183.394531 42.3125 182.894531 42.3125 L 182.894531 42.8125 C 183.21875 42.8125 184.144531 42.8125 184.96875 42.390625 L 184.96875 50.664062 C 184.96875 51.238281 184.917969 51.414062 183.492188 51.414062 L 182.992188 51.414062 L 182.992188 51.914062 C 183.542969 51.863281 184.917969 51.863281 185.570312 51.863281 C 186.195312 51.863281 187.59375 51.863281 188.144531 51.914062 L 188.144531 51.414062 L 187.644531 51.414062 C 186.195312 51.414062 186.167969 51.238281 186.167969 50.664062 Z M 186.167969 41.714844 "/>
</g>
</svg>
