<?xml version="1.0" encoding="UTF-8"?>
<svg xmlns="http://www.w3.org/2000/svg" xmlns:xlink="http://www.w3.org/1999/xlink" width="351.712036pt" height="214.407516pt" viewBox="0 0 351.712036 214.407516" version="1.1">
<defs>
<clipPath id="clip1">
  <path d="M 0 27 L 351.710938 27 L 351.710938 157 L 0 157 Z M 0 27 "/>
</clipPath>
<clipPath id="clip2">
  <path d="M 334 52 L 351.710938 52 L 351.710938 69 L 334 69 Z M 334 52 "/>
</clipPath>
<clipPath id="clip3">
  <path d="M 176 204 L 185 204 L 185 214.40625 L 176 214.40625 Z M 176 204 "/>
</clipPath>
</defs>
<g id="surface1">
<path style="fill:none;stroke-width:0.8;stroke-linecap:butt;stroke-linejoin:miter;stroke:rgb(0%,0%,0%);stroke-opacity:1;stroke-dasharray:0.8,1.6;stroke-miterlimit:4;" d="M 204.65625 185.457031 L 204.65625 60.65625 "/>
<path style="fill:none;stroke-width:0.8;stroke-linecap:butt;stroke-linejoin:miter;stroke:rgb(0%,0%,0%);stroke-opacity:1;stroke-dasharray:0.8,1.6;stroke-miterlimit:4;" d="M 147.054688 185.457031 L 147.054688 60.65625 "/>
<g clip-path="url(#clip1)" clip-rule="nonzero">
<path style="fill:none;stroke-width:1.6;stroke-linecap:butt;stroke-linejoin:miter;stroke:rgb(0%,0%,0%);stroke-opacity:1;stroke-miterlimit:4;" d="M 3.054688 36.65625 C 3.054688 36.65625 64.820312 46.28125 89.457031 60.65625 C 114.089844 75.03125 137.457031 103.855469 147.054688 118.257812 C 156.65625 132.65625 161.457031 147.054688 175.855469 147.054688 C 190.257812 147.054688 190.257812 137.457031 204.65625 118.257812 C 219.054688 99.054688 237.621094 75.03125 262.257812 60.65625 C 286.890625 46.28125 348.65625 36.65625 348.65625 36.65625 "/>
</g>
<path style="fill:none;stroke-width:0.8;stroke-linecap:butt;stroke-linejoin:miter;stroke:rgb(0%,0%,0%);stroke-opacity:1;stroke-dasharray:0.8,1.6;stroke-miterlimit:4;" d="M 348.65625 31.855469 L 3.054688 31.855469 "/>
<path style="fill:none;stroke-width:1.6;stroke-linecap:butt;stroke-linejoin:miter;stroke:rgb(100%,0%,0%);stroke-opacity:1;stroke-miterlimit:4;" d="M 3.054688 60.65625 L 348.65625 60.65625 "/>
<path style="fill-rule:evenodd;fill:rgb(100%,0%,0%);fill-opacity:1;stroke-width:0.8;stroke-linecap:butt;stroke-linejoin:miter;stroke:rgb(100%,0%,0%);stroke-opacity:1;stroke-miterlimit:4;" d="M 9.457031 60.65625 L 12.65625 57.457031 L 1.457031 60.65625 L 12.65625 63.855469 Z M 9.457031 60.65625 "/>
<path style=" stroke:none;fill-rule:evenodd;fill:rgb(100%,0%,0%);fill-opacity:1;" d="M 342.257812 60.65625 L 339.054688 63.855469 L 350.257812 60.65625 L 339.054688 57.457031 Z M 342.257812 60.65625 "/>
<g clip-path="url(#clip2)" clip-rule="nonzero">
<path style="fill:none;stroke-width:0.8;stroke-linecap:butt;stroke-linejoin:miter;stroke:rgb(100%,0%,0%);stroke-opacity:1;stroke-miterlimit:4;" d="M -342.257812 -60.65625 L -339.054688 -63.855469 L -350.257812 -60.65625 L -339.054688 -57.457031 Z M -342.257812 -60.65625 " transform="matrix(-1,0,0,-1,0,0)"/>
</g>
<path style="fill:none;stroke-width:1.6;stroke-linecap:butt;stroke-linejoin:miter;stroke:rgb(100%,0%,0%);stroke-opacity:1;stroke-miterlimit:4;" d="M 175.855469 3.054688 L 175.855469 175.855469 "/>
<path style="fill-rule:evenodd;fill:rgb(100%,0%,0%);fill-opacity:1;stroke-width:0.8;stroke-linecap:butt;stroke-linejoin:miter;stroke:rgb(100%,0%,0%);stroke-opacity:1;stroke-miterlimit:4;" d="M 9.457031 -175.855469 L 12.65625 -179.054688 L 1.457031 -175.855469 L 12.65625 -172.65625 Z M 9.457031 -175.855469 " transform="matrix(0,1,-1,0,0,0)"/>
<path style="fill-rule:evenodd;fill:rgb(100%,0%,0%);fill-opacity:1;stroke-width:0.8;stroke-linecap:butt;stroke-linejoin:miter;stroke:rgb(100%,0%,0%);stroke-opacity:1;stroke-miterlimit:4;" d="M -169.457031 175.855469 L -166.257812 172.65625 L -177.457031 175.855469 L -166.257812 179.054688 Z M -169.457031 175.855469 " transform="matrix(0,-1,1,0,0,0)"/>
<path style="fill-rule:evenodd;fill:rgb(0%,0%,0%);fill-opacity:1;stroke-width:0.8;stroke-linecap:butt;stroke-linejoin:miter;stroke:rgb(100%,100%,100%);stroke-opacity:1;stroke-miterlimit:4;" d="M 91.855469 60.65625 C 91.855469 61.980469 90.78125 63.054688 89.457031 63.054688 C 88.128906 63.054688 87.054688 61.980469 87.054688 60.65625 C 87.054688 59.332031 88.128906 58.257812 89.457031 58.257812 C 90.78125 58.257812 91.855469 59.332031 91.855469 60.65625 Z M 91.855469 60.65625 "/>
<path style="fill-rule:evenodd;fill:rgb(0%,0%,0%);fill-opacity:1;stroke-width:0.8;stroke-linecap:butt;stroke-linejoin:miter;stroke:rgb(100%,100%,100%);stroke-opacity:1;stroke-miterlimit:4;" d="M 264.65625 60.65625 C 264.65625 61.980469 263.582031 63.054688 262.257812 63.054688 C 260.929688 63.054688 259.855469 61.980469 259.855469 60.65625 C 259.855469 59.332031 260.929688 58.257812 262.257812 58.257812 C 263.582031 58.257812 264.65625 59.332031 264.65625 60.65625 Z M 264.65625 60.65625 "/>
<path style="fill-rule:evenodd;fill:rgb(0%,0%,0%);fill-opacity:1;stroke-width:0.8;stroke-linecap:butt;stroke-linejoin:miter;stroke:rgb(100%,100%,100%);stroke-opacity:1;stroke-miterlimit:4;" d="M 178.257812 147.054688 C 178.257812 148.382812 177.179688 149.457031 175.855469 149.457031 C 174.53125 149.457031 173.457031 148.382812 173.457031 147.054688 C 173.457031 145.730469 174.53125 144.65625 175.855469 144.65625 C 177.179688 144.65625 178.257812 145.730469 178.257812 147.054688 Z M 178.257812 147.054688 "/>
<path style=" stroke:none;fill-rule:nonzero;fill:rgb(0%,0%,0%);fill-opacity:1;" d="M 272.492188 69.769531 C 273.792969 69.34375 274.71875 68.242188 274.71875 66.96875 C 274.71875 65.667969 273.320312 64.769531 271.792969 64.769531 C 270.195312 64.769531 268.96875 65.71875 268.96875 66.945312 C 268.96875 67.46875 269.320312 67.769531 269.792969 67.769531 C 270.269531 67.769531 270.59375 67.417969 270.59375 66.945312 C 270.59375 66.167969 269.84375 66.167969 269.617188 66.167969 C 270.09375 65.367188 271.144531 65.167969 271.71875 65.167969 C 272.394531 65.167969 273.269531 65.519531 273.269531 66.945312 C 273.269531 67.144531 273.21875 68.070312 272.820312 68.769531 C 272.34375 69.542969 271.792969 69.59375 271.394531 69.59375 C 271.269531 69.617188 270.894531 69.644531 270.769531 69.644531 C 270.644531 69.667969 270.542969 69.695312 270.542969 69.84375 C 270.542969 70.019531 270.644531 70.019531 270.917969 70.019531 L 271.617188 70.019531 C 272.917969 70.019531 273.519531 71.09375 273.519531 72.667969 C 273.519531 74.84375 272.417969 75.292969 271.71875 75.292969 C 271.019531 75.292969 269.820312 75.019531 269.269531 74.09375 C 269.820312 74.167969 270.320312 73.820312 270.320312 73.21875 C 270.320312 72.644531 269.894531 72.320312 269.445312 72.320312 C 269.042969 72.320312 268.542969 72.542969 268.542969 73.242188 C 268.542969 74.695312 270.019531 75.742188 271.769531 75.742188 C 273.71875 75.742188 275.167969 74.292969 275.167969 72.667969 C 275.167969 71.367188 274.144531 70.117188 272.492188 69.769531 Z M 272.492188 69.769531 "/>
<path style=" stroke:none;fill-rule:nonzero;fill:rgb(0%,0%,0%);fill-opacity:1;" d="M 76.769531 71.71875 C 77.042969 71.71875 77.34375 71.71875 77.34375 71.394531 C 77.34375 71.09375 77.042969 71.09375 76.769531 71.09375 L 68.144531 71.09375 C 67.867188 71.09375 67.59375 71.09375 67.59375 71.394531 C 67.59375 71.71875 67.867188 71.71875 68.144531 71.71875 Z M 76.769531 71.71875 "/>
<path style=" stroke:none;fill-rule:nonzero;fill:rgb(0%,0%,0%);fill-opacity:1;" d="M 83.292969 69.769531 C 84.59375 69.34375 85.515625 68.242188 85.515625 66.96875 C 85.515625 65.667969 84.117188 64.769531 82.59375 64.769531 C 80.992188 64.769531 79.765625 65.71875 79.765625 66.945312 C 79.765625 67.46875 80.117188 67.769531 80.59375 67.769531 C 81.066406 67.769531 81.390625 67.417969 81.390625 66.945312 C 81.390625 66.167969 80.640625 66.167969 80.417969 66.167969 C 80.890625 65.367188 81.941406 65.167969 82.515625 65.167969 C 83.191406 65.167969 84.066406 65.519531 84.066406 66.945312 C 84.066406 67.144531 84.015625 68.070312 83.617188 68.769531 C 83.140625 69.542969 82.59375 69.59375 82.191406 69.59375 C 82.066406 69.617188 81.691406 69.644531 81.566406 69.644531 C 81.441406 69.667969 81.34375 69.695312 81.34375 69.84375 C 81.34375 70.019531 81.441406 70.019531 81.71875 70.019531 L 82.417969 70.019531 C 83.71875 70.019531 84.316406 71.09375 84.316406 72.667969 C 84.316406 74.84375 83.21875 75.292969 82.515625 75.292969 C 81.816406 75.292969 80.617188 75.019531 80.066406 74.09375 C 80.617188 74.167969 81.117188 73.820312 81.117188 73.21875 C 81.117188 72.644531 80.691406 72.320312 80.242188 72.320312 C 79.84375 72.320312 79.34375 72.542969 79.34375 73.242188 C 79.34375 74.695312 80.816406 75.742188 82.566406 75.742188 C 84.515625 75.742188 85.96875 74.292969 85.96875 72.667969 C 85.96875 71.367188 84.941406 70.117188 83.292969 69.769531 Z M 83.292969 69.769531 "/>
<path style=" stroke:none;fill-rule:nonzero;fill:rgb(0%,0%,0%);fill-opacity:1;" d="M 190.246094 158.117188 C 190.519531 158.117188 190.820312 158.117188 190.820312 157.792969 C 190.820312 157.492188 190.519531 157.492188 190.246094 157.492188 L 181.621094 157.492188 C 181.34375 157.492188 181.070312 157.492188 181.070312 157.792969 C 181.070312 158.117188 181.34375 158.117188 181.621094 158.117188 Z M 190.246094 158.117188 "/>
<path style=" stroke:none;fill-rule:nonzero;fill:rgb(0%,0%,0%);fill-opacity:1;" d="M 196.769531 156.167969 C 198.066406 155.742188 198.992188 154.644531 198.992188 153.367188 C 198.992188 152.070312 197.59375 151.167969 196.066406 151.167969 C 194.46875 151.167969 193.242188 152.117188 193.242188 153.34375 C 193.242188 153.867188 193.59375 154.167969 194.066406 154.167969 C 194.542969 154.167969 194.867188 153.820312 194.867188 153.34375 C 194.867188 152.570312 194.117188 152.570312 193.894531 152.570312 C 194.367188 151.769531 195.417969 151.570312 195.992188 151.570312 C 196.667969 151.570312 197.542969 151.917969 197.542969 153.34375 C 197.542969 153.542969 197.492188 154.46875 197.09375 155.167969 C 196.617188 155.945312 196.066406 155.992188 195.667969 155.992188 C 195.542969 156.019531 195.167969 156.042969 195.042969 156.042969 C 194.917969 156.070312 194.816406 156.09375 194.816406 156.242188 C 194.816406 156.417969 194.917969 156.417969 195.191406 156.417969 L 195.894531 156.417969 C 197.191406 156.417969 197.792969 157.492188 197.792969 159.070312 C 197.792969 161.242188 196.691406 161.695312 195.992188 161.695312 C 195.292969 161.695312 194.09375 161.417969 193.542969 160.492188 C 194.09375 160.570312 194.59375 160.21875 194.59375 159.617188 C 194.59375 159.042969 194.167969 158.71875 193.71875 158.71875 C 193.316406 158.71875 192.816406 158.945312 192.816406 159.644531 C 192.816406 161.09375 194.292969 162.144531 196.042969 162.144531 C 197.992188 162.144531 199.441406 160.695312 199.441406 159.070312 C 199.441406 157.769531 198.417969 156.519531 196.769531 156.167969 Z M 196.769531 156.167969 "/>
<path style=" stroke:none;fill-rule:nonzero;fill:rgb(0%,0%,0%);fill-opacity:1;" d="M 186.167969 36.394531 C 186.167969 35.992188 186.167969 35.96875 185.792969 35.96875 C 184.792969 36.992188 183.394531 36.992188 182.894531 36.992188 L 182.894531 37.492188 C 183.21875 37.492188 184.144531 37.492188 184.96875 37.070312 L 184.96875 45.34375 C 184.96875 45.917969 184.917969 46.09375 183.492188 46.09375 L 182.992188 46.09375 L 182.992188 46.59375 C 183.542969 46.542969 184.917969 46.542969 185.570312 46.542969 C 186.195312 46.542969 187.59375 46.542969 188.144531 46.59375 L 188.144531 46.09375 L 187.644531 46.09375 C 186.195312 46.09375 186.167969 45.917969 186.167969 45.34375 Z M 186.167969 36.394531 "/>
<path style="fill-rule:evenodd;fill:rgb(0%,0%,0%);fill-opacity:1;stroke-width:0.8;stroke-linecap:butt;stroke-linejoin:miter;stroke:rgb(100%,100%,100%);stroke-opacity:1;stroke-miterlimit:4;" d="M 149.457031 118.257812 C 149.457031 119.582031 148.382812 120.65625 147.054688 120.65625 C 145.730469 120.65625 144.65625 119.582031 144.65625 118.257812 C 144.65625 116.929688 145.730469 115.855469 147.054688 115.855469 C 148.382812 115.855469 149.457031 116.929688 149.457031 118.257812 Z M 149.457031 118.257812 "/>
<path style="fill-rule:evenodd;fill:rgb(0%,0%,0%);fill-opacity:1;stroke-width:0.8;stroke-linecap:butt;stroke-linejoin:miter;stroke:rgb(100%,100%,100%);stroke-opacity:1;stroke-miterlimit:4;" d="M 207.054688 118.257812 C 207.054688 119.582031 205.980469 120.65625 204.65625 120.65625 C 203.332031 120.65625 202.257812 119.582031 202.257812 118.257812 C 202.257812 116.929688 203.332031 115.855469 204.65625 115.855469 C 205.980469 115.855469 207.054688 116.929688 207.054688 118.257812 Z M 207.054688 118.257812 "/>
<path style=" stroke:none;fill-rule:nonzero;fill:rgb(0%,0%,0%);fill-opacity:1;" d="M 77.300781 188.703125 C 77.300781 186.105469 78.601562 185.429688 79.453125 185.429688 C 79.601562 185.429688 80.601562 185.453125 81.152344 186.03125 C 80.5 186.078125 80.402344 186.554688 80.402344 186.753906 C 80.402344 187.179688 80.703125 187.480469 81.125 187.480469 C 81.550781 187.480469 81.875 187.230469 81.875 186.730469 C 81.875 185.65625 80.652344 185.03125 79.425781 185.03125 C 77.425781 185.03125 75.976562 186.753906 75.976562 188.730469 C 75.976562 190.78125 77.550781 192.355469 79.402344 192.355469 C 81.527344 192.355469 82.050781 190.429688 82.050781 190.28125 C 82.050781 190.128906 81.875 190.128906 81.828125 190.128906 C 81.703125 190.128906 81.652344 190.179688 81.625 190.28125 C 81.175781 191.753906 80.125 191.953125 79.550781 191.953125 C 78.703125 191.953125 77.300781 191.28125 77.300781 188.703125 Z M 77.300781 188.703125 "/>
<path style=" stroke:none;fill-rule:nonzero;fill:rgb(0%,0%,0%);fill-opacity:1;" d="M 90.011719 188.753906 C 90.011719 186.730469 88.433594 185.03125 86.511719 185.03125 C 84.511719 185.03125 82.960938 186.78125 82.960938 188.753906 C 82.960938 190.828125 84.609375 192.355469 86.484375 192.355469 C 88.410156 192.355469 90.011719 190.78125 90.011719 188.753906 Z M 86.511719 191.953125 C 85.808594 191.953125 85.109375 191.628906 84.683594 190.878906 C 84.285156 190.179688 84.285156 189.203125 84.285156 188.628906 C 84.285156 188.003906 84.285156 187.15625 84.660156 186.453125 C 85.085938 185.730469 85.835938 185.378906 86.484375 185.378906 C 87.183594 185.378906 87.859375 185.730469 88.285156 186.429688 C 88.710938 187.105469 88.710938 188.03125 88.710938 188.628906 C 88.710938 189.203125 88.710938 190.078125 88.359375 190.78125 C 87.984375 191.503906 87.285156 191.953125 86.511719 191.953125 Z M 86.511719 191.953125 "/>
<path style=" stroke:none;fill-rule:nonzero;fill:rgb(0%,0%,0%);fill-opacity:1;" d="M 92.230469 186.703125 L 92.230469 190.980469 C 92.230469 191.679688 92.054688 191.679688 90.980469 191.679688 L 90.980469 192.179688 C 91.554688 192.15625 92.355469 192.128906 92.804688 192.128906 C 93.203125 192.128906 94.03125 192.15625 94.578125 192.179688 L 94.578125 191.679688 C 93.503906 191.679688 93.328125 191.679688 93.328125 190.980469 L 93.328125 188.03125 C 93.328125 186.378906 94.480469 185.480469 95.480469 185.480469 C 96.503906 185.480469 96.679688 186.328125 96.679688 187.253906 L 96.679688 190.980469 C 96.679688 191.679688 96.503906 191.679688 95.429688 191.679688 L 95.429688 192.179688 C 95.980469 192.15625 96.804688 192.128906 97.230469 192.128906 C 97.628906 192.128906 98.480469 192.15625 99.003906 192.179688 L 99.003906 191.679688 C 98.179688 191.679688 97.78125 191.679688 97.78125 191.203125 L 97.78125 188.15625 C 97.78125 186.78125 97.78125 186.304688 97.28125 185.730469 C 97.054688 185.453125 96.53125 185.128906 95.605469 185.128906 C 94.429688 185.128906 93.679688 185.804688 93.230469 186.804688 L 93.230469 185.128906 L 90.980469 185.304688 L 90.980469 185.804688 C 92.105469 185.804688 92.230469 185.90625 92.230469 186.703125 Z M 92.230469 186.703125 "/>
<path style=" stroke:none;fill-rule:nonzero;fill:rgb(0%,0%,0%);fill-opacity:1;" d="M 101.210938 188.703125 C 101.210938 186.105469 102.511719 185.429688 103.363281 185.429688 C 103.511719 185.429688 104.511719 185.453125 105.0625 186.03125 C 104.410156 186.078125 104.3125 186.554688 104.3125 186.753906 C 104.3125 187.179688 104.613281 187.480469 105.035156 187.480469 C 105.460938 187.480469 105.785156 187.230469 105.785156 186.730469 C 105.785156 185.65625 104.5625 185.03125 103.335938 185.03125 C 101.335938 185.03125 99.886719 186.753906 99.886719 188.730469 C 99.886719 190.78125 101.460938 192.355469 103.3125 192.355469 C 105.4375 192.355469 105.960938 190.429688 105.960938 190.28125 C 105.960938 190.128906 105.785156 190.128906 105.738281 190.128906 C 105.613281 190.128906 105.5625 190.179688 105.535156 190.28125 C 105.085938 191.753906 104.035156 191.953125 103.460938 191.953125 C 102.613281 191.953125 101.210938 191.28125 101.210938 188.703125 Z M 101.210938 188.703125 "/>
<path style=" stroke:none;fill-rule:nonzero;fill:rgb(0%,0%,0%);fill-opacity:1;" d="M 111.71875 190.980469 C 111.796875 191.605469 112.21875 192.28125 112.96875 192.28125 C 113.320312 192.28125 114.296875 192.054688 114.296875 190.753906 L 114.296875 189.855469 L 113.894531 189.855469 L 113.894531 190.753906 C 113.894531 191.679688 113.496094 191.78125 113.320312 191.78125 C 112.796875 191.78125 112.71875 191.054688 112.71875 190.980469 L 112.71875 187.804688 C 112.71875 187.128906 112.71875 186.503906 112.144531 185.90625 C 111.519531 185.28125 110.71875 185.03125 109.96875 185.03125 C 108.644531 185.03125 107.546875 185.78125 107.546875 186.828125 C 107.546875 187.304688 107.871094 187.578125 108.296875 187.578125 C 108.746094 187.578125 109.019531 187.253906 109.019531 186.855469 C 109.019531 186.65625 108.945312 186.128906 108.195312 186.128906 C 108.644531 185.554688 109.421875 185.378906 109.921875 185.378906 C 110.71875 185.378906 111.621094 186.003906 111.621094 187.429688 L 111.621094 188.003906 C 110.796875 188.054688 109.695312 188.105469 108.695312 188.578125 C 107.496094 189.128906 107.09375 189.953125 107.09375 190.65625 C 107.09375 191.953125 108.644531 192.355469 109.644531 192.355469 C 110.695312 192.355469 111.421875 191.703125 111.71875 190.980469 Z M 111.621094 188.355469 L 111.621094 189.953125 C 111.621094 191.453125 110.46875 192.003906 109.746094 192.003906 C 108.96875 192.003906 108.320312 191.453125 108.320312 190.65625 C 108.320312 189.78125 108.996094 188.453125 111.621094 188.355469 Z M 111.621094 188.355469 "/>
<path style=" stroke:none;fill-rule:nonzero;fill:rgb(0%,0%,0%);fill-opacity:1;" d="M 120.570312 186.878906 C 120.71875 186.503906 120.992188 185.804688 122.042969 185.804688 L 122.042969 185.304688 C 121.667969 185.328125 121.21875 185.355469 120.84375 185.355469 C 120.46875 185.355469 119.742188 185.328125 119.46875 185.304688 L 119.46875 185.804688 C 120.042969 185.804688 120.21875 186.179688 120.21875 186.480469 C 120.21875 186.628906 120.195312 186.703125 120.144531 186.878906 L 118.492188 190.929688 L 116.71875 186.480469 C 116.617188 186.28125 116.617188 186.253906 116.617188 186.203125 C 116.617188 185.804688 117.242188 185.804688 117.542969 185.804688 L 117.542969 185.304688 C 117.042969 185.328125 116.167969 185.355469 115.792969 185.355469 C 115.367188 185.355469 114.71875 185.328125 114.242188 185.304688 L 114.242188 185.804688 C 115.242188 185.804688 115.320312 185.90625 115.519531 186.378906 L 117.820312 192.054688 C 117.917969 192.28125 117.945312 192.355469 118.144531 192.355469 C 118.367188 192.355469 118.417969 192.203125 118.492188 192.054688 Z M 120.570312 186.878906 "/>
<path style=" stroke:none;fill-rule:nonzero;fill:rgb(0%,0%,0%);fill-opacity:1;" d="M 123.6875 188.15625 C 123.785156 185.78125 125.136719 185.378906 125.6875 185.378906 C 127.3125 185.378906 127.484375 187.53125 127.484375 188.15625 Z M 123.6875 188.503906 L 128.136719 188.503906 C 128.484375 188.503906 128.535156 188.503906 128.535156 188.15625 C 128.535156 186.578125 127.660156 185.03125 125.6875 185.03125 C 123.835938 185.03125 122.359375 186.679688 122.359375 188.679688 C 122.359375 190.804688 124.035156 192.355469 125.859375 192.355469 C 127.8125 192.355469 128.535156 190.578125 128.535156 190.28125 C 128.535156 190.128906 128.410156 190.078125 128.3125 190.078125 C 128.1875 190.078125 128.136719 190.179688 128.109375 190.304688 C 127.5625 191.953125 126.109375 191.953125 125.960938 191.953125 C 125.160156 191.953125 124.535156 191.480469 124.160156 190.878906 C 123.6875 190.128906 123.6875 189.078125 123.6875 188.503906 Z M 123.6875 188.503906 "/>
<path style=" stroke:none;fill-rule:nonzero;fill:rgb(0%,0%,0%);fill-opacity:1;" d="M 89.890625 210.433594 L 89.890625 211.484375 L 92.238281 211.308594 L 92.238281 210.808594 C 91.140625 210.808594 90.988281 210.707031 90.988281 209.90625 L 90.988281 200.234375 L 88.714844 200.40625 L 88.714844 200.90625 C 89.8125 200.90625 89.9375 201.007812 89.9375 201.808594 L 89.9375 205.257812 C 89.488281 204.683594 88.789062 204.257812 87.9375 204.257812 C 86.0625 204.257812 84.390625 205.832031 84.390625 207.882812 C 84.390625 209.90625 85.9375 211.484375 87.765625 211.484375 C 88.789062 211.484375 89.488281 210.933594 89.890625 210.433594 Z M 89.890625 206.15625 L 89.890625 209.433594 C 89.890625 209.707031 89.890625 209.734375 89.714844 210.007812 C 89.238281 210.78125 88.539062 211.132812 87.839844 211.132812 C 87.113281 211.132812 86.539062 210.707031 86.164062 210.109375 C 85.765625 209.457031 85.714844 208.558594 85.714844 207.882812 C 85.714844 207.308594 85.738281 206.359375 86.1875 205.632812 C 86.539062 205.132812 87.140625 204.609375 88.015625 204.609375 C 88.5625 204.609375 89.238281 204.859375 89.714844 205.558594 C 89.890625 205.832031 89.890625 205.859375 89.890625 206.15625 Z M 89.890625 206.15625 "/>
<path style=" stroke:none;fill-rule:nonzero;fill:rgb(0%,0%,0%);fill-opacity:1;" d="M 100.195312 207.882812 C 100.195312 205.859375 98.621094 204.15625 96.695312 204.15625 C 94.695312 204.15625 93.144531 205.90625 93.144531 207.882812 C 93.144531 209.957031 94.796875 211.484375 96.671875 211.484375 C 98.59375 211.484375 100.195312 209.90625 100.195312 207.882812 Z M 96.695312 211.082031 C 95.996094 211.082031 95.296875 210.757812 94.871094 210.007812 C 94.46875 209.308594 94.46875 208.332031 94.46875 207.757812 C 94.46875 207.132812 94.46875 206.28125 94.84375 205.582031 C 95.269531 204.859375 96.019531 204.507812 96.671875 204.507812 C 97.371094 204.507812 98.046875 204.859375 98.46875 205.558594 C 98.894531 206.234375 98.894531 207.15625 98.894531 207.757812 C 98.894531 208.332031 98.894531 209.207031 98.546875 209.90625 C 98.171875 210.632812 97.46875 211.082031 96.695312 211.082031 Z M 96.695312 211.082031 "/>
<path style=" stroke:none;fill-rule:nonzero;fill:rgb(0%,0%,0%);fill-opacity:1;" d="M 110.09375 205.957031 C 110.367188 205.15625 110.867188 204.933594 111.445312 204.933594 L 111.445312 204.433594 C 111.070312 204.457031 110.617188 204.484375 110.269531 204.484375 C 109.792969 204.484375 109.09375 204.457031 108.792969 204.433594 L 108.792969 204.933594 C 109.367188 204.933594 109.71875 205.234375 109.71875 205.683594 C 109.71875 205.78125 109.71875 205.832031 109.617188 206.03125 L 108.167969 210.109375 L 106.59375 205.65625 C 106.542969 205.457031 106.519531 205.433594 106.519531 205.359375 C 106.519531 204.933594 107.144531 204.933594 107.46875 204.933594 L 107.46875 204.433594 C 106.992188 204.457031 106.195312 204.484375 105.792969 204.484375 C 105.320312 204.484375 104.867188 204.457031 104.394531 204.433594 L 104.394531 204.933594 C 104.96875 204.933594 105.21875 204.957031 105.394531 205.15625 C 105.46875 205.257812 105.644531 205.734375 105.742188 206.03125 L 104.394531 209.90625 L 102.867188 205.65625 C 102.792969 205.457031 102.792969 205.433594 102.792969 205.359375 C 102.792969 204.933594 103.417969 204.933594 103.71875 204.933594 L 103.71875 204.433594 C 103.242188 204.457031 102.34375 204.484375 101.992188 204.484375 C 101.917969 204.484375 101.070312 204.457031 100.492188 204.433594 L 100.492188 204.933594 C 101.292969 204.933594 101.492188 204.984375 101.695312 205.484375 L 103.695312 211.132812 C 103.769531 211.359375 103.820312 211.484375 104.019531 211.484375 C 104.242188 211.484375 104.269531 211.382812 104.34375 211.15625 L 105.96875 206.65625 L 107.59375 211.183594 C 107.644531 211.359375 107.695312 211.484375 107.917969 211.484375 C 108.117188 211.484375 108.167969 211.332031 108.21875 211.183594 Z M 110.09375 205.957031 "/>
<path style=" stroke:none;fill-rule:nonzero;fill:rgb(0%,0%,0%);fill-opacity:1;" d="M 113.480469 205.832031 L 113.480469 210.109375 C 113.480469 210.808594 113.304688 210.808594 112.230469 210.808594 L 112.230469 211.308594 C 112.804688 211.28125 113.605469 211.257812 114.054688 211.257812 C 114.457031 211.257812 115.28125 211.28125 115.832031 211.308594 L 115.832031 210.808594 C 114.757812 210.808594 114.582031 210.808594 114.582031 210.109375 L 114.582031 207.15625 C 114.582031 205.507812 115.730469 204.609375 116.730469 204.609375 C 117.757812 204.609375 117.929688 205.457031 117.929688 206.382812 L 117.929688 210.109375 C 117.929688 210.808594 117.757812 210.808594 116.679688 210.808594 L 116.679688 211.308594 C 117.230469 211.28125 118.054688 211.257812 118.480469 211.257812 C 118.882812 211.257812 119.730469 211.28125 120.257812 211.308594 L 120.257812 210.808594 C 119.429688 210.808594 119.03125 210.808594 119.03125 210.332031 L 119.03125 207.28125 C 119.03125 205.90625 119.03125 205.433594 118.53125 204.859375 C 118.304688 204.582031 117.78125 204.257812 116.855469 204.257812 C 115.679688 204.257812 114.929688 204.933594 114.480469 205.933594 L 114.480469 204.257812 L 112.230469 204.433594 L 112.230469 204.933594 C 113.355469 204.933594 113.480469 205.03125 113.480469 205.832031 Z M 113.480469 205.832031 "/>
<path style=" stroke:none;fill-rule:nonzero;fill:rgb(0%,0%,0%);fill-opacity:1;" d="M 224.5 188.703125 C 224.5 186.105469 225.800781 185.429688 226.652344 185.429688 C 226.800781 185.429688 227.800781 185.453125 228.351562 186.03125 C 227.703125 186.078125 227.601562 186.554688 227.601562 186.753906 C 227.601562 187.179688 227.902344 187.480469 228.328125 187.480469 C 228.75 187.480469 229.078125 187.230469 229.078125 186.730469 C 229.078125 185.65625 227.851562 185.03125 226.625 185.03125 C 224.625 185.03125 223.175781 186.753906 223.175781 188.730469 C 223.175781 190.78125 224.75 192.355469 226.601562 192.355469 C 228.726562 192.355469 229.25 190.429688 229.25 190.28125 C 229.25 190.128906 229.078125 190.128906 229.027344 190.128906 C 228.902344 190.128906 228.851562 190.179688 228.828125 190.28125 C 228.375 191.753906 227.328125 191.953125 226.75 191.953125 C 225.902344 191.953125 224.5 191.28125 224.5 188.703125 Z M 224.5 188.703125 "/>
<path style=" stroke:none;fill-rule:nonzero;fill:rgb(0%,0%,0%);fill-opacity:1;" d="M 237.210938 188.753906 C 237.210938 186.730469 235.636719 185.03125 233.710938 185.03125 C 231.710938 185.03125 230.160156 186.78125 230.160156 188.753906 C 230.160156 190.828125 231.808594 192.355469 233.683594 192.355469 C 235.609375 192.355469 237.210938 190.78125 237.210938 188.753906 Z M 233.710938 191.953125 C 233.011719 191.953125 232.308594 191.628906 231.886719 190.878906 C 231.484375 190.179688 231.484375 189.203125 231.484375 188.628906 C 231.484375 188.003906 231.484375 187.15625 231.859375 186.453125 C 232.285156 185.730469 233.035156 185.378906 233.683594 185.378906 C 234.386719 185.378906 235.058594 185.730469 235.484375 186.429688 C 235.910156 187.105469 235.910156 188.03125 235.910156 188.628906 C 235.910156 189.203125 235.910156 190.078125 235.558594 190.78125 C 235.183594 191.503906 234.484375 191.953125 233.710938 191.953125 Z M 233.710938 191.953125 "/>
<path style=" stroke:none;fill-rule:nonzero;fill:rgb(0%,0%,0%);fill-opacity:1;" d="M 239.429688 186.703125 L 239.429688 190.980469 C 239.429688 191.679688 239.253906 191.679688 238.179688 191.679688 L 238.179688 192.179688 C 238.753906 192.15625 239.554688 192.128906 240.003906 192.128906 C 240.40625 192.128906 241.230469 192.15625 241.78125 192.179688 L 241.78125 191.679688 C 240.703125 191.679688 240.53125 191.679688 240.53125 190.980469 L 240.53125 188.03125 C 240.53125 186.378906 241.679688 185.480469 242.679688 185.480469 C 243.703125 185.480469 243.878906 186.328125 243.878906 187.253906 L 243.878906 190.980469 C 243.878906 191.679688 243.703125 191.679688 242.628906 191.679688 L 242.628906 192.179688 C 243.179688 192.15625 244.003906 192.128906 244.429688 192.128906 C 244.828125 192.128906 245.679688 192.15625 246.203125 192.179688 L 246.203125 191.679688 C 245.378906 191.679688 244.980469 191.679688 244.980469 191.203125 L 244.980469 188.15625 C 244.980469 186.78125 244.980469 186.304688 244.480469 185.730469 C 244.253906 185.453125 243.730469 185.128906 242.804688 185.128906 C 241.628906 185.128906 240.878906 185.804688 240.429688 186.804688 L 240.429688 185.128906 L 238.179688 185.304688 L 238.179688 185.804688 C 239.304688 185.804688 239.429688 185.90625 239.429688 186.703125 Z M 239.429688 186.703125 "/>
<path style=" stroke:none;fill-rule:nonzero;fill:rgb(0%,0%,0%);fill-opacity:1;" d="M 248.410156 188.703125 C 248.410156 186.105469 249.710938 185.429688 250.5625 185.429688 C 250.710938 185.429688 251.710938 185.453125 252.261719 186.03125 C 251.613281 186.078125 251.511719 186.554688 251.511719 186.753906 C 251.511719 187.179688 251.8125 187.480469 252.238281 187.480469 C 252.660156 187.480469 252.988281 187.230469 252.988281 186.730469 C 252.988281 185.65625 251.761719 185.03125 250.535156 185.03125 C 248.535156 185.03125 247.085938 186.753906 247.085938 188.730469 C 247.085938 190.78125 248.660156 192.355469 250.511719 192.355469 C 252.636719 192.355469 253.160156 190.429688 253.160156 190.28125 C 253.160156 190.128906 252.988281 190.128906 252.9375 190.128906 C 252.8125 190.128906 252.761719 190.179688 252.738281 190.28125 C 252.285156 191.753906 251.238281 191.953125 250.660156 191.953125 C 249.8125 191.953125 248.410156 191.28125 248.410156 188.703125 Z M 248.410156 188.703125 "/>
<path style=" stroke:none;fill-rule:nonzero;fill:rgb(0%,0%,0%);fill-opacity:1;" d="M 258.921875 190.980469 C 258.996094 191.605469 259.421875 192.28125 260.171875 192.28125 C 260.519531 192.28125 261.496094 192.054688 261.496094 190.753906 L 261.496094 189.855469 L 261.09375 189.855469 L 261.09375 190.753906 C 261.09375 191.679688 260.695312 191.78125 260.519531 191.78125 C 259.996094 191.78125 259.921875 191.054688 259.921875 190.980469 L 259.921875 187.804688 C 259.921875 187.128906 259.921875 186.503906 259.34375 185.90625 C 258.71875 185.28125 257.921875 185.03125 257.171875 185.03125 C 255.84375 185.03125 254.746094 185.78125 254.746094 186.828125 C 254.746094 187.304688 255.070312 187.578125 255.496094 187.578125 C 255.945312 187.578125 256.21875 187.253906 256.21875 186.855469 C 256.21875 186.65625 256.144531 186.128906 255.394531 186.128906 C 255.84375 185.554688 256.621094 185.378906 257.121094 185.378906 C 257.921875 185.378906 258.820312 186.003906 258.820312 187.429688 L 258.820312 188.003906 C 257.996094 188.054688 256.894531 188.105469 255.894531 188.578125 C 254.695312 189.128906 254.296875 189.953125 254.296875 190.65625 C 254.296875 191.953125 255.84375 192.355469 256.84375 192.355469 C 257.894531 192.355469 258.621094 191.703125 258.921875 190.980469 Z M 258.820312 188.355469 L 258.820312 189.953125 C 258.820312 191.453125 257.671875 192.003906 256.945312 192.003906 C 256.171875 192.003906 255.519531 191.453125 255.519531 190.65625 C 255.519531 189.78125 256.195312 188.453125 258.820312 188.355469 Z M 258.820312 188.355469 "/>
<path style=" stroke:none;fill-rule:nonzero;fill:rgb(0%,0%,0%);fill-opacity:1;" d="M 267.769531 186.878906 C 267.917969 186.503906 268.195312 185.804688 269.242188 185.804688 L 269.242188 185.304688 C 268.867188 185.328125 268.417969 185.355469 268.042969 185.355469 C 267.667969 185.355469 266.945312 185.328125 266.667969 185.304688 L 266.667969 185.804688 C 267.242188 185.804688 267.417969 186.179688 267.417969 186.480469 C 267.417969 186.628906 267.394531 186.703125 267.34375 186.878906 L 265.695312 190.929688 L 263.917969 186.480469 C 263.820312 186.28125 263.820312 186.253906 263.820312 186.203125 C 263.820312 185.804688 264.445312 185.804688 264.742188 185.804688 L 264.742188 185.304688 C 264.242188 185.328125 263.367188 185.355469 262.992188 185.355469 C 262.570312 185.355469 261.917969 185.328125 261.445312 185.304688 L 261.445312 185.804688 C 262.445312 185.804688 262.519531 185.90625 262.71875 186.378906 L 265.019531 192.054688 C 265.117188 192.28125 265.144531 192.355469 265.34375 192.355469 C 265.570312 192.355469 265.617188 192.203125 265.695312 192.054688 Z M 267.769531 186.878906 "/>
<path style=" stroke:none;fill-rule:nonzero;fill:rgb(0%,0%,0%);fill-opacity:1;" d="M 270.886719 188.15625 C 270.984375 185.78125 272.335938 185.378906 272.886719 185.378906 C 274.511719 185.378906 274.6875 187.53125 274.6875 188.15625 Z M 270.886719 188.503906 L 275.335938 188.503906 C 275.6875 188.503906 275.734375 188.503906 275.734375 188.15625 C 275.734375 186.578125 274.859375 185.03125 272.886719 185.03125 C 271.035156 185.03125 269.5625 186.679688 269.5625 188.679688 C 269.5625 190.804688 271.234375 192.355469 273.0625 192.355469 C 275.011719 192.355469 275.734375 190.578125 275.734375 190.28125 C 275.734375 190.128906 275.609375 190.078125 275.511719 190.078125 C 275.386719 190.078125 275.335938 190.179688 275.3125 190.304688 C 274.761719 191.953125 273.3125 191.953125 273.160156 191.953125 C 272.359375 191.953125 271.734375 191.480469 271.359375 190.878906 C 270.886719 190.128906 270.886719 189.078125 270.886719 188.503906 Z M 270.886719 188.503906 "/>
<path style=" stroke:none;fill-rule:nonzero;fill:rgb(0%,0%,0%);fill-opacity:1;" d="M 237.089844 210.433594 L 237.089844 211.484375 L 239.4375 211.308594 L 239.4375 210.808594 C 238.339844 210.808594 238.1875 210.707031 238.1875 209.90625 L 238.1875 200.234375 L 235.914062 200.40625 L 235.914062 200.90625 C 237.015625 200.90625 237.140625 201.007812 237.140625 201.808594 L 237.140625 205.257812 C 236.6875 204.683594 235.988281 204.257812 235.140625 204.257812 C 233.265625 204.257812 231.589844 205.832031 231.589844 207.882812 C 231.589844 209.90625 233.140625 211.484375 234.964844 211.484375 C 235.988281 211.484375 236.6875 210.933594 237.089844 210.433594 Z M 237.089844 206.15625 L 237.089844 209.433594 C 237.089844 209.707031 237.089844 209.734375 236.914062 210.007812 C 236.4375 210.78125 235.738281 211.132812 235.039062 211.132812 C 234.3125 211.132812 233.738281 210.707031 233.363281 210.109375 C 232.964844 209.457031 232.914062 208.558594 232.914062 207.882812 C 232.914062 207.308594 232.9375 206.359375 233.390625 205.632812 C 233.738281 205.132812 234.339844 204.609375 235.214844 204.609375 C 235.765625 204.609375 236.4375 204.859375 236.914062 205.558594 C 237.089844 205.832031 237.089844 205.859375 237.089844 206.15625 Z M 237.089844 206.15625 "/>
<path style=" stroke:none;fill-rule:nonzero;fill:rgb(0%,0%,0%);fill-opacity:1;" d="M 247.394531 207.882812 C 247.394531 205.859375 245.820312 204.15625 243.894531 204.15625 C 241.894531 204.15625 240.34375 205.90625 240.34375 207.882812 C 240.34375 209.957031 241.996094 211.484375 243.871094 211.484375 C 245.796875 211.484375 247.394531 209.90625 247.394531 207.882812 Z M 243.894531 211.082031 C 243.195312 211.082031 242.496094 210.757812 242.070312 210.007812 C 241.671875 209.308594 241.671875 208.332031 241.671875 207.757812 C 241.671875 207.132812 241.671875 206.28125 242.046875 205.582031 C 242.46875 204.859375 243.21875 204.507812 243.871094 204.507812 C 244.570312 204.507812 245.246094 204.859375 245.671875 205.558594 C 246.09375 206.234375 246.09375 207.15625 246.09375 207.757812 C 246.09375 208.332031 246.09375 209.207031 245.746094 209.90625 C 245.371094 210.632812 244.671875 211.082031 243.894531 211.082031 Z M 243.894531 211.082031 "/>
<path style=" stroke:none;fill-rule:nonzero;fill:rgb(0%,0%,0%);fill-opacity:1;" d="M 257.292969 205.957031 C 257.570312 205.15625 258.070312 204.933594 258.644531 204.933594 L 258.644531 204.433594 C 258.269531 204.457031 257.820312 204.484375 257.46875 204.484375 C 256.992188 204.484375 256.292969 204.457031 255.992188 204.433594 L 255.992188 204.933594 C 256.570312 204.933594 256.917969 205.234375 256.917969 205.683594 C 256.917969 205.78125 256.917969 205.832031 256.820312 206.03125 L 255.367188 210.109375 L 253.792969 205.65625 C 253.742188 205.457031 253.71875 205.433594 253.71875 205.359375 C 253.71875 204.933594 254.34375 204.933594 254.667969 204.933594 L 254.667969 204.433594 C 254.195312 204.457031 253.394531 204.484375 252.992188 204.484375 C 252.519531 204.484375 252.070312 204.457031 251.59375 204.433594 L 251.59375 204.933594 C 252.167969 204.933594 252.417969 204.957031 252.59375 205.15625 C 252.667969 205.257812 252.84375 205.734375 252.945312 206.03125 L 251.59375 209.90625 L 250.070312 205.65625 C 249.992188 205.457031 249.992188 205.433594 249.992188 205.359375 C 249.992188 204.933594 250.617188 204.933594 250.917969 204.933594 L 250.917969 204.433594 C 250.445312 204.457031 249.542969 204.484375 249.195312 204.484375 C 249.117188 204.484375 248.269531 204.457031 247.695312 204.433594 L 247.695312 204.933594 C 248.492188 204.933594 248.695312 204.984375 248.894531 205.484375 L 250.894531 211.132812 C 250.96875 211.359375 251.019531 211.484375 251.21875 211.484375 C 251.445312 211.484375 251.46875 211.382812 251.542969 211.15625 L 253.167969 206.65625 L 254.792969 211.183594 C 254.84375 211.359375 254.894531 211.484375 255.117188 211.484375 C 255.320312 211.484375 255.367188 211.332031 255.417969 211.183594 Z M 257.292969 205.957031 "/>
<path style=" stroke:none;fill-rule:nonzero;fill:rgb(0%,0%,0%);fill-opacity:1;" d="M 260.679688 205.832031 L 260.679688 210.109375 C 260.679688 210.808594 260.507812 210.808594 259.429688 210.808594 L 259.429688 211.308594 C 260.007812 211.28125 260.804688 211.257812 261.257812 211.257812 C 261.65625 211.257812 262.480469 211.28125 263.03125 211.308594 L 263.03125 210.808594 C 261.957031 210.808594 261.78125 210.808594 261.78125 210.109375 L 261.78125 207.15625 C 261.78125 205.507812 262.929688 204.609375 263.929688 204.609375 C 264.957031 204.609375 265.132812 205.457031 265.132812 206.382812 L 265.132812 210.109375 C 265.132812 210.808594 264.957031 210.808594 263.882812 210.808594 L 263.882812 211.308594 C 264.429688 211.28125 265.257812 211.257812 265.679688 211.257812 C 266.082031 211.257812 266.929688 211.28125 267.457031 211.308594 L 267.457031 210.808594 C 266.632812 210.808594 266.230469 210.808594 266.230469 210.332031 L 266.230469 207.28125 C 266.230469 205.90625 266.230469 205.433594 265.730469 204.859375 C 265.507812 204.582031 264.980469 204.257812 264.054688 204.257812 C 262.882812 204.257812 262.132812 204.933594 261.679688 205.933594 L 261.679688 204.257812 L 259.429688 204.433594 L 259.429688 204.933594 C 260.554688 204.933594 260.679688 205.03125 260.679688 205.832031 Z M 260.679688 205.832031 "/>
<path style=" stroke:none;fill-rule:nonzero;fill:rgb(0%,0%,0%);fill-opacity:1;" d="M 150.902344 188.703125 C 150.902344 186.105469 152.203125 185.429688 153.050781 185.429688 C 153.203125 185.429688 154.203125 185.453125 154.75 186.03125 C 154.101562 186.078125 154 186.554688 154 186.753906 C 154 187.179688 154.300781 187.480469 154.726562 187.480469 C 155.152344 187.480469 155.476562 187.230469 155.476562 186.730469 C 155.476562 185.65625 154.25 185.03125 153.027344 185.03125 C 151.027344 185.03125 149.578125 186.753906 149.578125 188.730469 C 149.578125 190.78125 151.152344 192.355469 153 192.355469 C 155.125 192.355469 155.652344 190.429688 155.652344 190.28125 C 155.652344 190.128906 155.476562 190.128906 155.425781 190.128906 C 155.300781 190.128906 155.25 190.179688 155.226562 190.28125 C 154.777344 191.753906 153.726562 191.953125 153.152344 191.953125 C 152.300781 191.953125 150.902344 191.28125 150.902344 188.703125 Z M 150.902344 188.703125 "/>
<path style=" stroke:none;fill-rule:nonzero;fill:rgb(0%,0%,0%);fill-opacity:1;" d="M 163.609375 188.753906 C 163.609375 186.730469 162.035156 185.03125 160.109375 185.03125 C 158.109375 185.03125 156.558594 186.78125 156.558594 188.753906 C 156.558594 190.828125 158.210938 192.355469 160.085938 192.355469 C 162.011719 192.355469 163.609375 190.78125 163.609375 188.753906 Z M 160.109375 191.953125 C 159.410156 191.953125 158.710938 191.628906 158.285156 190.878906 C 157.886719 190.179688 157.886719 189.203125 157.886719 188.628906 C 157.886719 188.003906 157.886719 187.15625 158.261719 186.453125 C 158.683594 185.730469 159.433594 185.378906 160.085938 185.378906 C 160.785156 185.378906 161.460938 185.730469 161.886719 186.429688 C 162.308594 187.105469 162.308594 188.03125 162.308594 188.628906 C 162.308594 189.203125 162.308594 190.078125 161.960938 190.78125 C 161.585938 191.503906 160.886719 191.953125 160.109375 191.953125 Z M 160.109375 191.953125 "/>
<path style=" stroke:none;fill-rule:nonzero;fill:rgb(0%,0%,0%);fill-opacity:1;" d="M 165.828125 186.703125 L 165.828125 190.980469 C 165.828125 191.679688 165.65625 191.679688 164.578125 191.679688 L 164.578125 192.179688 C 165.15625 192.15625 165.953125 192.128906 166.40625 192.128906 C 166.804688 192.128906 167.628906 192.15625 168.179688 192.179688 L 168.179688 191.679688 C 167.105469 191.679688 166.929688 191.679688 166.929688 190.980469 L 166.929688 188.03125 C 166.929688 186.378906 168.078125 185.480469 169.078125 185.480469 C 170.105469 185.480469 170.28125 186.328125 170.28125 187.253906 L 170.28125 190.980469 C 170.28125 191.679688 170.105469 191.679688 169.03125 191.679688 L 169.03125 192.179688 C 169.578125 192.15625 170.40625 192.128906 170.828125 192.128906 C 171.230469 192.128906 172.078125 192.15625 172.605469 192.179688 L 172.605469 191.679688 C 171.78125 191.679688 171.378906 191.679688 171.378906 191.203125 L 171.378906 188.15625 C 171.378906 186.78125 171.378906 186.304688 170.878906 185.730469 C 170.65625 185.453125 170.128906 185.128906 169.203125 185.128906 C 168.03125 185.128906 167.28125 185.804688 166.828125 186.804688 L 166.828125 185.128906 L 164.578125 185.304688 L 164.578125 185.804688 C 165.703125 185.804688 165.828125 185.90625 165.828125 186.703125 Z M 165.828125 186.703125 "/>
<path style=" stroke:none;fill-rule:nonzero;fill:rgb(0%,0%,0%);fill-opacity:1;" d="M 174.8125 188.703125 C 174.8125 186.105469 176.113281 185.429688 176.960938 185.429688 C 177.113281 185.429688 178.113281 185.453125 178.660156 186.03125 C 178.011719 186.078125 177.910156 186.554688 177.910156 186.753906 C 177.910156 187.179688 178.210938 187.480469 178.636719 187.480469 C 179.0625 187.480469 179.386719 187.230469 179.386719 186.730469 C 179.386719 185.65625 178.160156 185.03125 176.9375 185.03125 C 174.9375 185.03125 173.488281 186.753906 173.488281 188.730469 C 173.488281 190.78125 175.0625 192.355469 176.910156 192.355469 C 179.035156 192.355469 179.5625 190.429688 179.5625 190.28125 C 179.5625 190.128906 179.386719 190.128906 179.335938 190.128906 C 179.210938 190.128906 179.160156 190.179688 179.136719 190.28125 C 178.6875 191.753906 177.636719 191.953125 177.0625 191.953125 C 176.210938 191.953125 174.8125 191.28125 174.8125 188.703125 Z M 174.8125 188.703125 "/>
<path style=" stroke:none;fill-rule:nonzero;fill:rgb(0%,0%,0%);fill-opacity:1;" d="M 185.320312 190.980469 C 185.394531 191.605469 185.820312 192.28125 186.570312 192.28125 C 186.921875 192.28125 187.894531 192.054688 187.894531 190.753906 L 187.894531 189.855469 L 187.496094 189.855469 L 187.496094 190.753906 C 187.496094 191.679688 187.09375 191.78125 186.921875 191.78125 C 186.394531 191.78125 186.320312 191.054688 186.320312 190.980469 L 186.320312 187.804688 C 186.320312 187.128906 186.320312 186.503906 185.746094 185.90625 C 185.121094 185.28125 184.320312 185.03125 183.570312 185.03125 C 182.246094 185.03125 181.144531 185.78125 181.144531 186.828125 C 181.144531 187.304688 181.46875 187.578125 181.894531 187.578125 C 182.34375 187.578125 182.621094 187.253906 182.621094 186.855469 C 182.621094 186.65625 182.546875 186.128906 181.796875 186.128906 C 182.246094 185.554688 183.019531 185.378906 183.519531 185.378906 C 184.320312 185.378906 185.21875 186.003906 185.21875 187.429688 L 185.21875 188.003906 C 184.394531 188.054688 183.296875 188.105469 182.296875 188.578125 C 181.09375 189.128906 180.695312 189.953125 180.695312 190.65625 C 180.695312 191.953125 182.246094 192.355469 183.246094 192.355469 C 184.296875 192.355469 185.019531 191.703125 185.320312 190.980469 Z M 185.21875 188.355469 L 185.21875 189.953125 C 185.21875 191.453125 184.070312 192.003906 183.34375 192.003906 C 182.570312 192.003906 181.921875 191.453125 181.921875 190.65625 C 181.921875 189.78125 182.59375 188.453125 185.21875 188.355469 Z M 185.21875 188.355469 "/>
<path style=" stroke:none;fill-rule:nonzero;fill:rgb(0%,0%,0%);fill-opacity:1;" d="M 194.167969 186.878906 C 194.320312 186.503906 194.59375 185.804688 195.644531 185.804688 L 195.644531 185.304688 C 195.269531 185.328125 194.820312 185.355469 194.445312 185.355469 C 194.070312 185.355469 193.34375 185.328125 193.070312 185.304688 L 193.070312 185.804688 C 193.644531 185.804688 193.820312 186.179688 193.820312 186.480469 C 193.820312 186.628906 193.792969 186.703125 193.742188 186.878906 L 192.09375 190.929688 L 190.320312 186.480469 C 190.21875 186.28125 190.21875 186.253906 190.21875 186.203125 C 190.21875 185.804688 190.84375 185.804688 191.144531 185.804688 L 191.144531 185.304688 C 190.644531 185.328125 189.769531 185.355469 189.394531 185.355469 C 188.96875 185.355469 188.320312 185.328125 187.84375 185.304688 L 187.84375 185.804688 C 188.84375 185.804688 188.917969 185.90625 189.117188 186.378906 L 191.417969 192.054688 C 191.519531 192.28125 191.542969 192.355469 191.742188 192.355469 C 191.96875 192.355469 192.019531 192.203125 192.09375 192.054688 Z M 194.167969 186.878906 "/>
<path style=" stroke:none;fill-rule:nonzero;fill:rgb(0%,0%,0%);fill-opacity:1;" d="M 197.285156 188.15625 C 197.386719 185.78125 198.734375 185.378906 199.285156 185.378906 C 200.910156 185.378906 201.085938 187.53125 201.085938 188.15625 Z M 197.285156 188.503906 L 201.734375 188.503906 C 202.085938 188.503906 202.136719 188.503906 202.136719 188.15625 C 202.136719 186.578125 201.261719 185.03125 199.285156 185.03125 C 197.4375 185.03125 195.960938 186.679688 195.960938 188.679688 C 195.960938 190.804688 197.636719 192.355469 199.460938 192.355469 C 201.410156 192.355469 202.136719 190.578125 202.136719 190.28125 C 202.136719 190.128906 202.011719 190.078125 201.910156 190.078125 C 201.785156 190.078125 201.734375 190.179688 201.710938 190.304688 C 201.160156 191.953125 199.710938 191.953125 199.5625 191.953125 C 198.761719 191.953125 198.136719 191.480469 197.761719 190.878906 C 197.285156 190.128906 197.285156 189.078125 197.285156 188.503906 Z M 197.285156 188.503906 "/>
<path style=" stroke:none;fill-rule:nonzero;fill:rgb(0%,0%,0%);fill-opacity:1;" d="M 173.183594 210.058594 L 173.183594 211.484375 L 175.484375 211.308594 L 175.484375 210.808594 C 174.382812 210.808594 174.257812 210.707031 174.257812 209.90625 L 174.257812 204.257812 L 171.910156 204.433594 L 171.910156 204.933594 C 173.007812 204.933594 173.160156 205.03125 173.160156 205.832031 L 173.160156 208.65625 C 173.160156 210.058594 172.382812 211.132812 171.207031 211.132812 C 169.882812 211.132812 169.808594 210.382812 169.808594 209.558594 L 169.808594 204.257812 L 167.457031 204.433594 L 167.457031 204.933594 C 168.707031 204.933594 168.707031 204.984375 168.707031 206.382812 L 168.707031 208.78125 C 168.707031 210.03125 168.707031 211.484375 171.132812 211.484375 C 172.035156 211.484375 172.734375 211.03125 173.183594 210.058594 Z M 173.183594 210.058594 "/>
<g clip-path="url(#clip3)" clip-rule="nonzero">
<path style=" stroke:none;fill-rule:nonzero;fill:rgb(0%,0%,0%);fill-opacity:1;" d="M 178.566406 205.308594 L 178.566406 204.257812 L 176.265625 204.433594 L 176.265625 204.933594 C 177.390625 204.933594 177.515625 205.03125 177.515625 205.734375 L 177.515625 213.183594 C 177.515625 213.90625 177.339844 213.90625 176.265625 213.90625 L 176.265625 214.40625 C 176.816406 214.382812 177.640625 214.359375 178.039062 214.359375 C 178.492188 214.359375 179.289062 214.382812 179.839844 214.40625 L 179.839844 213.90625 C 178.789062 213.90625 178.617188 213.90625 178.617188 213.183594 L 178.617188 210.359375 C 178.691406 210.632812 179.367188 211.484375 180.566406 211.484375 C 182.464844 211.484375 184.117188 209.90625 184.117188 207.859375 C 184.117188 205.832031 182.589844 204.257812 180.789062 204.257812 C 179.539062 204.257812 178.867188 204.957031 178.566406 205.308594 Z M 178.617188 209.484375 L 178.617188 205.933594 C 179.066406 205.109375 179.839844 204.65625 180.664062 204.65625 C 181.839844 204.65625 182.789062 206.058594 182.789062 207.859375 C 182.789062 209.78125 181.691406 211.132812 180.515625 211.132812 C 179.867188 211.132812 179.265625 210.808594 178.839844 210.15625 C 178.617188 209.832031 178.617188 209.808594 178.617188 209.484375 Z M 178.617188 209.484375 "/>
</g>
<path style=" stroke:none;fill-rule:nonzero;fill:rgb(0%,0%,0%);fill-opacity:1;" d="M 241.957031 140.457031 C 241.957031 140.40625 241.957031 140.382812 241.679688 140.105469 C 239.707031 138.105469 239.179688 135.082031 239.179688 132.632812 C 239.179688 129.855469 239.78125 127.082031 241.757812 125.105469 C 241.957031 124.90625 241.957031 124.882812 241.957031 124.832031 C 241.957031 124.707031 241.90625 124.65625 241.804688 124.65625 C 241.632812 124.65625 240.207031 125.757812 239.257812 127.78125 C 238.457031 129.53125 238.257812 131.304688 238.257812 132.632812 C 238.257812 133.882812 238.429688 135.804688 239.304688 137.632812 C 240.28125 139.582031 241.632812 140.632812 241.804688 140.632812 C 241.90625 140.632812 241.957031 140.582031 241.957031 140.457031 Z M 241.957031 140.457031 "/>
<path style=" stroke:none;fill-rule:nonzero;fill:rgb(0%,0%,0%);fill-opacity:1;" d="M 247.582031 126.429688 C 247.582031 126.03125 247.582031 126.007812 247.207031 126.007812 C 246.207031 127.03125 244.804688 127.03125 244.304688 127.03125 L 244.304688 127.53125 C 244.628906 127.53125 245.554688 127.53125 246.378906 127.105469 L 246.378906 135.382812 C 246.378906 135.957031 246.332031 136.132812 244.90625 136.132812 L 244.40625 136.132812 L 244.40625 136.632812 C 244.957031 136.582031 246.332031 136.582031 246.980469 136.582031 C 247.605469 136.582031 249.003906 136.582031 249.554688 136.632812 L 249.554688 136.132812 L 249.054688 136.132812 C 247.605469 136.132812 247.582031 135.957031 247.582031 135.382812 Z M 247.582031 126.429688 "/>
<path style=" stroke:none;fill-rule:nonzero;fill:rgb(0%,0%,0%);fill-opacity:1;" d="M 254.101562 136.605469 C 254.101562 135.554688 253.699219 134.929688 253.074219 134.929688 C 252.550781 134.929688 252.226562 135.332031 252.226562 135.78125 C 252.226562 136.207031 252.550781 136.632812 253.074219 136.632812 C 253.25 136.632812 253.476562 136.554688 253.625 136.429688 C 253.675781 136.382812 253.699219 136.382812 253.699219 136.382812 C 253.726562 136.382812 253.726562 136.382812 253.726562 136.605469 C 253.726562 137.804688 253.175781 138.757812 252.652344 139.28125 C 252.476562 139.457031 252.476562 139.480469 252.476562 139.53125 C 252.476562 139.65625 252.550781 139.707031 252.625 139.707031 C 252.800781 139.707031 254.101562 138.480469 254.101562 136.605469 Z M 254.101562 136.605469 "/>
<path style=" stroke:none;fill-rule:nonzero;fill:rgb(0%,0%,0%);fill-opacity:1;" d="M 268.433594 132.957031 C 268.710938 132.957031 269.011719 132.957031 269.011719 132.632812 C 269.011719 132.332031 268.710938 132.332031 268.433594 132.332031 L 259.808594 132.332031 C 259.535156 132.332031 259.261719 132.332031 259.261719 132.632812 C 259.261719 132.957031 259.535156 132.957031 259.808594 132.957031 Z M 268.433594 132.957031 "/>
<path style=" stroke:none;fill-rule:nonzero;fill:rgb(0%,0%,0%);fill-opacity:1;" d="M 272.355469 135.40625 L 274.058594 133.757812 C 276.53125 131.554688 277.480469 130.707031 277.480469 129.105469 C 277.480469 127.28125 276.058594 126.007812 274.105469 126.007812 C 272.308594 126.007812 271.132812 127.480469 271.132812 128.90625 C 271.132812 129.78125 271.933594 129.78125 271.980469 129.78125 C 272.257812 129.78125 272.808594 129.605469 272.808594 128.929688 C 272.808594 128.53125 272.507812 128.105469 271.957031 128.105469 C 271.832031 128.105469 271.808594 128.105469 271.757812 128.132812 C 272.105469 127.082031 272.980469 126.507812 273.90625 126.507812 C 275.355469 126.507812 276.03125 127.804688 276.03125 129.105469 C 276.03125 130.382812 275.257812 131.632812 274.355469 132.632812 L 271.308594 136.03125 C 271.132812 136.207031 271.132812 136.257812 271.132812 136.632812 L 277.058594 136.632812 L 277.480469 133.855469 L 277.105469 133.855469 C 277.007812 134.332031 276.90625 135.03125 276.730469 135.28125 C 276.632812 135.40625 275.582031 135.40625 275.230469 135.40625 Z M 272.355469 135.40625 "/>
<path style=" stroke:none;fill-rule:nonzero;fill:rgb(0%,0%,0%);fill-opacity:1;" d="M 282.902344 132.632812 C 282.902344 131.40625 282.726562 129.480469 281.851562 127.65625 C 280.902344 125.707031 279.527344 124.65625 279.378906 124.65625 C 279.277344 124.65625 279.203125 124.730469 279.203125 124.832031 C 279.203125 124.882812 279.203125 124.90625 279.503906 125.207031 C 281.078125 126.78125 281.976562 129.304688 281.976562 132.632812 C 281.976562 135.382812 281.402344 138.179688 279.425781 140.179688 C 279.203125 140.382812 279.203125 140.40625 279.203125 140.457031 C 279.203125 140.554688 279.277344 140.632812 279.378906 140.632812 C 279.527344 140.632812 280.976562 139.53125 281.902344 137.507812 C 282.726562 135.757812 282.902344 133.980469 282.902344 132.632812 Z M 282.902344 132.632812 "/>
<path style=" stroke:none;fill-rule:nonzero;fill:rgb(0%,0%,0%);fill-opacity:1;" d="M 59.832031 140.457031 C 59.832031 140.40625 59.832031 140.382812 59.558594 140.105469 C 57.582031 138.105469 57.058594 135.082031 57.058594 132.632812 C 57.058594 129.855469 57.660156 127.082031 59.632812 125.105469 C 59.832031 124.90625 59.832031 124.882812 59.832031 124.832031 C 59.832031 124.707031 59.785156 124.65625 59.683594 124.65625 C 59.507812 124.65625 58.082031 125.757812 57.132812 127.78125 C 56.332031 129.53125 56.132812 131.304688 56.132812 132.632812 C 56.132812 133.882812 56.308594 135.804688 57.183594 137.632812 C 58.160156 139.582031 59.507812 140.632812 59.683594 140.632812 C 59.785156 140.632812 59.832031 140.582031 59.832031 140.457031 Z M 59.832031 140.457031 "/>
<path style=" stroke:none;fill-rule:nonzero;fill:rgb(0%,0%,0%);fill-opacity:1;" d="M 71.257812 132.957031 C 71.53125 132.957031 71.832031 132.957031 71.832031 132.632812 C 71.832031 132.332031 71.53125 132.332031 71.257812 132.332031 L 62.632812 132.332031 C 62.355469 132.332031 62.082031 132.332031 62.082031 132.632812 C 62.082031 132.957031 62.355469 132.957031 62.632812 132.957031 Z M 71.257812 132.957031 "/>
<path style=" stroke:none;fill-rule:nonzero;fill:rgb(0%,0%,0%);fill-opacity:1;" d="M 77.855469 126.429688 C 77.855469 126.03125 77.855469 126.007812 77.480469 126.007812 C 76.480469 127.03125 75.082031 127.03125 74.582031 127.03125 L 74.582031 127.53125 C 74.90625 127.53125 75.832031 127.53125 76.65625 127.105469 L 76.65625 135.382812 C 76.65625 135.957031 76.605469 136.132812 75.179688 136.132812 L 74.679688 136.132812 L 74.679688 136.632812 C 75.230469 136.582031 76.605469 136.582031 77.253906 136.582031 C 77.878906 136.582031 79.28125 136.582031 79.832031 136.632812 L 79.832031 136.132812 L 79.332031 136.132812 C 77.878906 136.132812 77.855469 135.957031 77.855469 135.382812 Z M 77.855469 126.429688 "/>
<path style=" stroke:none;fill-rule:nonzero;fill:rgb(0%,0%,0%);fill-opacity:1;" d="M 84.375 136.605469 C 84.375 135.554688 83.976562 134.929688 83.351562 134.929688 C 82.828125 134.929688 82.5 135.332031 82.5 135.78125 C 82.5 136.207031 82.828125 136.632812 83.351562 136.632812 C 83.527344 136.632812 83.75 136.554688 83.902344 136.429688 C 83.953125 136.382812 83.976562 136.382812 83.976562 136.382812 C 84 136.382812 84 136.382812 84 136.605469 C 84 137.804688 83.453125 138.757812 82.925781 139.28125 C 82.75 139.457031 82.75 139.480469 82.75 139.53125 C 82.75 139.65625 82.828125 139.707031 82.902344 139.707031 C 83.078125 139.707031 84.375 138.480469 84.375 136.605469 Z M 84.375 136.605469 "/>
<path style=" stroke:none;fill-rule:nonzero;fill:rgb(0%,0%,0%);fill-opacity:1;" d="M 98.710938 132.957031 C 98.984375 132.957031 99.285156 132.957031 99.285156 132.632812 C 99.285156 132.332031 98.984375 132.332031 98.710938 132.332031 L 90.085938 132.332031 C 89.808594 132.332031 89.535156 132.332031 89.535156 132.632812 C 89.535156 132.957031 89.808594 132.957031 90.085938 132.957031 Z M 98.710938 132.957031 "/>
<path style=" stroke:none;fill-rule:nonzero;fill:rgb(0%,0%,0%);fill-opacity:1;" d="M 102.632812 135.40625 L 104.332031 133.757812 C 106.808594 131.554688 107.757812 130.707031 107.757812 129.105469 C 107.757812 127.28125 106.332031 126.007812 104.382812 126.007812 C 102.582031 126.007812 101.410156 127.480469 101.410156 128.90625 C 101.410156 129.78125 102.207031 129.78125 102.257812 129.78125 C 102.535156 129.78125 103.082031 129.605469 103.082031 128.929688 C 103.082031 128.53125 102.785156 128.105469 102.234375 128.105469 C 102.109375 128.105469 102.082031 128.105469 102.035156 128.132812 C 102.382812 127.082031 103.257812 126.507812 104.183594 126.507812 C 105.632812 126.507812 106.308594 127.804688 106.308594 129.105469 C 106.308594 130.382812 105.535156 131.632812 104.632812 132.632812 L 101.582031 136.03125 C 101.410156 136.207031 101.410156 136.257812 101.410156 136.632812 L 107.332031 136.632812 L 107.757812 133.855469 L 107.382812 133.855469 C 107.285156 134.332031 107.183594 135.03125 107.007812 135.28125 C 106.910156 135.40625 105.859375 135.40625 105.507812 135.40625 Z M 102.632812 135.40625 "/>
<path style=" stroke:none;fill-rule:nonzero;fill:rgb(0%,0%,0%);fill-opacity:1;" d="M 113.179688 132.632812 C 113.179688 131.40625 113.003906 129.480469 112.128906 127.65625 C 111.179688 125.707031 109.804688 124.65625 109.652344 124.65625 C 109.554688 124.65625 109.476562 124.730469 109.476562 124.832031 C 109.476562 124.882812 109.476562 124.90625 109.777344 125.207031 C 111.351562 126.78125 112.253906 129.304688 112.253906 132.632812 C 112.253906 135.382812 111.679688 138.179688 109.703125 140.179688 C 109.476562 140.382812 109.476562 140.40625 109.476562 140.457031 C 109.476562 140.554688 109.554688 140.632812 109.652344 140.632812 C 109.804688 140.632812 111.253906 139.53125 112.179688 137.507812 C 113.003906 135.757812 113.179688 133.980469 113.179688 132.632812 Z M 113.179688 132.632812 "/>
<path style="fill:none;stroke-width:0.8;stroke-linecap:butt;stroke-linejoin:miter;stroke:rgb(100%,0%,0%);stroke-opacity:1;stroke-miterlimit:4;" d="M 209.457031 123.054688 L 219.054688 132.65625 L 233.457031 132.65625 "/>
<path style="fill-rule:evenodd;fill:rgb(100%,0%,0%);fill-opacity:1;stroke-width:0.282843;stroke-linecap:butt;stroke-linejoin:miter;stroke:rgb(100%,0%,0%);stroke-opacity:1;stroke-miterlimit:4;" d="M 168.519531 -43.199219 L 169.650391 -44.330078 L 165.691406 -43.199219 L 169.650391 -42.068359 Z M 168.519531 -43.199219 " transform="matrix(1,1,-1,1,0,0)"/>
<path style="fill-rule:evenodd;fill:rgb(100%,0%,0%);fill-opacity:1;stroke-width:0.4;stroke-linecap:butt;stroke-linejoin:miter;stroke:rgb(100%,0%,0%);stroke-opacity:1;stroke-miterlimit:4;" d="M 235.023438 132.65625 C 235.023438 133.539062 234.308594 134.257812 233.425781 134.257812 C 232.539062 134.257812 231.824219 133.539062 231.824219 132.65625 C 231.824219 131.773438 232.539062 131.054688 233.425781 131.054688 C 234.308594 131.054688 235.023438 131.773438 235.023438 132.65625 Z M 235.023438 132.65625 "/>
<path style="fill:none;stroke-width:0.8;stroke-linecap:butt;stroke-linejoin:miter;stroke:rgb(100%,0%,0%);stroke-opacity:1;stroke-miterlimit:4;" d="M 142.257812 123.054688 L 132.65625 132.65625 L 118.257812 132.65625 "/>
<path style="fill-rule:evenodd;fill:rgb(100%,0%,0%);fill-opacity:1;stroke-width:0.282843;stroke-linecap:butt;stroke-linejoin:miter;stroke:rgb(100%,0%,0%);stroke-opacity:1;stroke-miterlimit:4;" d="M -7.335938 -132.65625 L -6.205078 -133.787109 L -10.164062 -132.65625 L -6.205078 -131.525391 Z M -7.335938 -132.65625 " transform="matrix(-1,1,-1,-1,0,0)"/>
<path style="fill-rule:evenodd;fill:rgb(100%,0%,0%);fill-opacity:1;stroke-width:0.4;stroke-linecap:butt;stroke-linejoin:miter;stroke:rgb(100%,0%,0%);stroke-opacity:1;stroke-miterlimit:4;" d="M -116.6875 -132.65625 C -116.6875 -131.773438 -117.40625 -131.054688 -118.289062 -131.054688 C -119.171875 -131.054688 -119.886719 -131.773438 -119.886719 -132.65625 C -119.886719 -133.539062 -119.171875 -134.257812 -118.289062 -134.257812 C -117.40625 -134.257812 -116.6875 -133.539062 -116.6875 -132.65625 Z M -116.6875 -132.65625 " transform="matrix(-1,0,0,-1,0,0)"/>
</g>
</svg>
