<?xml version="1.0" encoding="UTF-8"?>
<svg xmlns="http://www.w3.org/2000/svg" xmlns:xlink="http://www.w3.org/1999/xlink" width="347.127777pt" height="156.711349pt" viewBox="0 0 347.127777 156.711349" version="1.1">
<defs>
<clipPath id="clip1">
  <path d="M 56 146 L 62 146 L 62 156.710938 L 56 156.710938 Z M 56 146 "/>
</clipPath>
<filter id="alpha" filterUnits="objectBoundingBox" x="0%" y="0%" width="100%" height="100%">
  <feColorMatrix type="matrix" in="SourceGraphic" values="0 0 0 0 1 0 0 0 0 1 0 0 0 0 1 0 0 0 1 0"/>
</filter>
<clipPath id="clip2">
  <rect width="14" height="30"/>
</clipPath>
<g id="surface8" clip-path="url(#clip2)">
<rect x="0" y="0" width="14" height="30" style="fill:rgb(0%,0%,0%);fill-opacity:0.97;stroke:none;"/>
</g>
<mask id="mask0">
  <g filter="url(#alpha)">
<use xlink:href="#surface8"/>
  </g>
</mask>
<clipPath id="clip3">
  <rect width="14" height="30"/>
</clipPath>
<g id="surface10" clip-path="url(#clip3)">
<path style="fill:none;stroke-width:1.6;stroke-linecap:round;stroke-linejoin:round;stroke:rgb(100%,0%,0%);stroke-opacity:1;stroke-miterlimit:4;" d="M 38.914062 109.957031 C 44.421875 116.945312 47.875 125.332031 48.890625 134.171875 " transform="matrix(1,0,0,1,-37,-107)"/>
<path style="fill-rule:evenodd;fill:rgb(100%,0%,0%);fill-opacity:1;stroke-width:0.314275;stroke-linecap:butt;stroke-linejoin:miter;stroke:rgb(100%,0%,0%);stroke-opacity:1;stroke-miterlimit:4;" d="M 88.29876 29.422144 L 89.556333 28.162318 L 85.155808 29.420137 L 89.556175 30.677818 Z M 88.29876 29.422144 " transform="matrix(0.787369,1,-1,0.787369,-37,-107)"/>
<path style="fill-rule:evenodd;fill:rgb(100%,0%,0%);fill-opacity:1;stroke-width:0.397387;stroke-linecap:butt;stroke-linejoin:miter;stroke:rgb(100%,0%,0%);stroke-opacity:1;stroke-miterlimit:4;" d="M -136.061202 33.042661 L -134.468351 31.452193 L -140.033495 33.039492 L -134.470291 34.631657 Z M -136.061202 33.042661 " transform="matrix(-0.114869,-1,1,-0.114869,-37,-107)"/>
</g>
<clipPath id="clip4">
  <rect width="33" height="15"/>
</clipPath>
<g id="surface14" clip-path="url(#clip4)">
<rect x="0" y="0" width="33" height="15" style="fill:rgb(0%,0%,0%);fill-opacity:0.97;stroke:none;"/>
</g>
<mask id="mask1">
  <g filter="url(#alpha)">
<use xlink:href="#surface14"/>
  </g>
</mask>
<clipPath id="clip5">
  <rect width="33" height="15"/>
</clipPath>
<g id="surface16" clip-path="url(#clip5)">
<path style="fill:none;stroke-width:1.6;stroke-linecap:round;stroke-linejoin:round;stroke:rgb(100%,0%,0%);stroke-opacity:1;stroke-miterlimit:4;" d="M 110.890625 73.890625 C 101.03125 73.082031 91.660156 69.25 84.058594 62.910156 " transform="matrix(1,0,0,1,-81,-61)"/>
<path style="fill-rule:evenodd;fill:rgb(100%,0%,0%);fill-opacity:1;stroke-width:0.39867;stroke-linecap:butt;stroke-linejoin:miter;stroke:rgb(100%,0%,0%);stroke-opacity:1;stroke-miterlimit:4;" d="M -114.241257 -64.394341 L -112.649005 -65.989363 L -118.229388 -64.392502 L -112.645918 -62.798209 Z M -114.241257 -64.394341 " transform="matrix(-1,-0.0817571,0.0817571,-1,-81,-61)"/>
<path style="fill-rule:evenodd;fill:rgb(100%,0%,0%);fill-opacity:1;stroke-width:0.307189;stroke-linecap:butt;stroke-linejoin:miter;stroke:rgb(100%,0%,0%);stroke-opacity:1;stroke-miterlimit:4;" d="M 81.996252 -4.243347 L 83.225656 -5.471782 L 78.922704 -4.242542 L 83.224687 -3.013942 Z M 81.996252 -4.243347 " transform="matrix(1,0.833989,-0.833989,1,-81,-61)"/>
</g>
<clipPath id="clip6">
  <path d="M 260 0 L 347.128906 0 L 347.128906 141 L 260 141 Z M 260 0 "/>
</clipPath>
<clipPath id="clip7">
  <rect width="32" height="11"/>
</clipPath>
<g id="surface20" clip-path="url(#clip7)">
<rect x="0" y="0" width="32" height="11" style="fill:rgb(0%,0%,0%);fill-opacity:0.97;stroke:none;"/>
</g>
<mask id="mask2">
  <g filter="url(#alpha)">
<use xlink:href="#surface20"/>
  </g>
</mask>
<clipPath id="clip8">
  <rect width="32" height="11"/>
</clipPath>
<g id="surface22" clip-path="url(#clip8)">
<path style="fill:none;stroke-width:1.6;stroke-linecap:round;stroke-linejoin:round;stroke:rgb(100%,0%,0%);stroke-opacity:1;stroke-miterlimit:4;" d="M 256.320312 66.675781 C 247.40625 66.089844 238.722656 63.597656 230.851562 59.367188 " transform="matrix(1,0,0,1,-228,-58)"/>
<path style="fill-rule:evenodd;fill:rgb(100%,0%,0%);fill-opacity:1;stroke-width:0.399139;stroke-linecap:butt;stroke-linejoin:miter;stroke:rgb(100%,0%,0%);stroke-opacity:1;stroke-miterlimit:4;" d="M -257.662575 -49.622015 L -256.068277 -51.21895 L -261.654725 -49.621444 L -256.069274 -48.023572 Z M -257.662575 -49.622015 " transform="matrix(-1,-0.0657013,0.0657013,-1,-228,-58)"/>
<path style="fill-rule:evenodd;fill:rgb(100%,0%,0%);fill-opacity:1;stroke-width:0.35229;stroke-linecap:butt;stroke-linejoin:miter;stroke:rgb(100%,0%,0%);stroke-opacity:1;stroke-miterlimit:4;" d="M 205.52054 -50.249138 L 206.931699 -51.656453 L 201.997213 -50.248933 L 206.930885 -48.839609 Z M 205.52054 -50.249138 " transform="matrix(1,0.537769,-0.537769,1,-228,-58)"/>
</g>
<clipPath id="clip9">
  <rect width="21" height="36"/>
</clipPath>
<g id="surface26" clip-path="url(#clip9)">
<rect x="0" y="0" width="21" height="36" style="fill:rgb(0%,0%,0%);fill-opacity:0.97;stroke:none;"/>
</g>
<mask id="mask3">
  <g filter="url(#alpha)">
<use xlink:href="#surface26"/>
  </g>
</mask>
<clipPath id="clip10">
  <rect width="21" height="36"/>
</clipPath>
<g id="surface23" clip-path="url(#clip10)">
<path style="fill:none;stroke-width:1.6;stroke-linecap:round;stroke-linejoin:round;stroke:rgb(100%,0%,0%);stroke-opacity:1;stroke-miterlimit:4;" d="M 200.597656 105.605469 C 209.90625 112.878906 215.832031 123.644531 216.992188 135.398438 " transform="matrix(1,0,0,1,-198,-103)"/>
<path style="fill-rule:evenodd;fill:rgb(100%,0%,0%);fill-opacity:1;stroke-width:0.315204;stroke-linecap:butt;stroke-linejoin:miter;stroke:rgb(100%,0%,0%);stroke-opacity:1;stroke-miterlimit:4;" d="M 177.312901 -31.743024 L 178.573084 -33.004932 L 174.1615 -31.741817 L 178.572382 -30.480946 Z M 177.312901 -31.743024 " transform="matrix(1,0.781286,-0.781286,1,-198,-103)"/>
<path style="fill-rule:evenodd;fill:rgb(100%,0%,0%);fill-opacity:1;stroke-width:0.398059;stroke-linecap:butt;stroke-linejoin:miter;stroke:rgb(100%,0%,0%);stroke-opacity:1;stroke-miterlimit:4;" d="M -153.422429 201.637116 L -151.831378 200.04441 L -157.402997 201.638122 L -151.829723 203.228167 Z M -153.422429 201.637116 " transform="matrix(-0.0988615,-1,1,-0.0988615,-198,-103)"/>
</g>
</defs>
<g id="surface1">
<path style="fill-rule:nonzero;fill:rgb(79.998779%,79.998779%,79.998779%);fill-opacity:1;stroke-width:0.8;stroke-linecap:butt;stroke-linejoin:round;stroke:rgb(0%,0%,0%);stroke-opacity:1;stroke-dasharray:0.8,0.8;stroke-miterlimit:4;" d="M 1.203125 139.648438 L 1.203125 24.449219 L 116.402344 24.449219 "/>
<path style="fill:none;stroke-width:0.8;stroke-linecap:butt;stroke-linejoin:miter;stroke:rgb(100%,0%,0%);stroke-opacity:1;stroke-miterlimit:4;" d="M 106.804688 139.648438 L 106.804688 130.050781 L 116.402344 130.050781 "/>
<path style="fill:none;stroke-width:2.4;stroke-linecap:butt;stroke-linejoin:round;stroke:rgb(0%,0%,0%);stroke-opacity:1;stroke-miterlimit:4;" d="M 1.203125 139.648438 L 116.011719 139.242188 L 116.824219 24.433594 Z M 1.203125 139.648438 "/>
<path style=" stroke:none;fill-rule:nonzero;fill:rgb(0%,0%,0%);fill-opacity:1;" d="M 42.269531 79.726562 L 39.46875 73.527344 C 39.34375 73.277344 39.269531 73.277344 39.21875 73.277344 C 39.21875 73.277344 39.117188 73.277344 38.941406 73.402344 L 37.441406 74.550781 C 37.242188 74.726562 37.242188 74.75 37.242188 74.800781 C 37.242188 74.902344 37.269531 74.976562 37.394531 74.976562 C 37.492188 74.976562 37.769531 74.75 37.941406 74.625 C 38.019531 74.550781 38.269531 74.375 38.441406 74.25 L 41.59375 81.152344 C 41.691406 81.402344 41.769531 81.402344 41.917969 81.402344 C 42.167969 81.402344 42.21875 81.328125 42.316406 81.101562 L 49.566406 66.101562 C 49.667969 65.875 49.667969 65.828125 49.667969 65.777344 C 49.667969 65.625 49.542969 65.453125 49.34375 65.453125 C 49.21875 65.453125 49.117188 65.550781 48.992188 65.800781 Z M 42.269531 79.726562 "/>
<path style="fill:none;stroke-width:0.6368;stroke-linecap:butt;stroke-linejoin:miter;stroke:rgb(0%,0%,0%);stroke-opacity:1;stroke-miterlimit:10;" d="M 49.351562 -65.785156 L 57.320312 -65.785156 " transform="matrix(1,0,0,-1,0,0)"/>
<path style=" stroke:none;fill-rule:nonzero;fill:rgb(0%,0%,0%);fill-opacity:1;" d="M 51.375 78.0625 L 53.074219 76.414062 C 55.550781 74.214844 56.5 73.363281 56.5 71.765625 C 56.5 69.9375 55.074219 68.664062 53.125 68.664062 C 51.324219 68.664062 50.152344 70.140625 50.152344 71.5625 C 50.152344 72.4375 50.949219 72.4375 51 72.4375 C 51.277344 72.4375 51.824219 72.265625 51.824219 71.589844 C 51.824219 71.1875 51.527344 70.765625 50.976562 70.765625 C 50.851562 70.765625 50.824219 70.765625 50.777344 70.789062 C 51.125 69.738281 52 69.164062 52.925781 69.164062 C 54.375 69.164062 55.050781 70.464844 55.050781 71.765625 C 55.050781 73.039062 54.277344 74.289062 53.375 75.289062 L 50.324219 78.6875 C 50.152344 78.863281 50.152344 78.914062 50.152344 79.289062 L 56.074219 79.289062 L 56.5 76.515625 L 56.125 76.515625 C 56.027344 76.988281 55.925781 77.6875 55.75 77.9375 C 55.652344 78.0625 54.601562 78.0625 54.25 78.0625 Z M 51.375 78.0625 "/>
<path style=" stroke:none;fill-rule:nonzero;fill:rgb(0%,0%,0%);fill-opacity:1;" d="M 125.730469 77.710938 C 125.730469 77.3125 125.730469 77.285156 125.355469 77.285156 C 124.355469 78.3125 122.953125 78.3125 122.453125 78.3125 L 122.453125 78.8125 C 122.78125 78.8125 123.703125 78.8125 124.53125 78.386719 L 124.53125 86.660156 C 124.53125 87.238281 124.480469 87.410156 123.054688 87.410156 L 122.554688 87.410156 L 122.554688 87.910156 C 123.105469 87.863281 124.480469 87.863281 125.128906 87.863281 C 125.753906 87.863281 127.15625 87.863281 127.703125 87.910156 L 127.703125 87.410156 L 127.203125 87.410156 C 125.753906 87.410156 125.730469 87.238281 125.730469 86.660156 Z M 125.730469 77.710938 "/>
<g clip-path="url(#clip1)" clip-rule="nonzero">
<path style=" stroke:none;fill-rule:nonzero;fill:rgb(0%,0%,0%);fill-opacity:1;" d="M 59.371094 146.511719 C 59.371094 146.113281 59.371094 146.085938 58.996094 146.085938 C 57.996094 147.113281 56.59375 147.113281 56.09375 147.113281 L 56.09375 147.613281 C 56.421875 147.613281 57.34375 147.613281 58.171875 147.1875 L 58.171875 155.460938 C 58.171875 156.035156 58.121094 156.210938 56.695312 156.210938 L 56.195312 156.210938 L 56.195312 156.710938 C 56.746094 156.660156 58.121094 156.660156 58.769531 156.660156 C 59.394531 156.660156 60.796875 156.660156 61.34375 156.710938 L 61.34375 156.210938 L 60.84375 156.210938 C 59.394531 156.210938 59.371094 156.035156 59.371094 155.460938 Z M 59.371094 146.511719 "/>
</g>
<path style=" stroke:none;fill-rule:nonzero;fill:rgb(0%,0%,0%);fill-opacity:1;" d="M 22.855469 127.304688 L 24.65625 127.304688 C 24.128906 129.652344 23.980469 130.351562 23.980469 131.429688 C 23.980469 131.652344 23.980469 132.078125 24.105469 132.628906 C 24.28125 133.328125 24.453125 133.429688 24.679688 133.429688 C 25.003906 133.429688 25.355469 133.152344 25.355469 132.828125 C 25.355469 132.726562 25.355469 132.703125 25.253906 132.476562 C 24.78125 131.328125 24.78125 130.277344 24.78125 129.828125 C 24.78125 129.003906 24.90625 128.128906 25.078125 127.304688 L 26.878906 127.304688 C 27.105469 127.304688 27.679688 127.304688 27.679688 126.753906 C 27.679688 126.378906 27.328125 126.378906 27.03125 126.378906 L 21.679688 126.378906 C 21.328125 126.378906 20.730469 126.378906 20.03125 127.128906 C 19.480469 127.753906 19.054688 128.476562 19.054688 128.554688 C 19.054688 128.578125 19.054688 128.726562 19.253906 128.726562 C 19.378906 128.726562 19.40625 128.652344 19.503906 128.527344 C 20.28125 127.304688 21.203125 127.304688 21.53125 127.304688 L 22.429688 127.304688 C 21.929688 129.226562 21.078125 131.152344 20.40625 132.601562 C 20.28125 132.851562 20.28125 132.878906 20.28125 133.003906 C 20.28125 133.304688 20.53125 133.429688 20.730469 133.429688 C 21.203125 133.429688 21.328125 132.976562 21.53125 132.402344 C 21.753906 131.652344 21.753906 131.628906 21.953125 130.828125 Z M 22.855469 127.304688 "/>
<path style=" stroke:none;fill-rule:nonzero;fill:rgb(0%,0%,0%);fill-opacity:1;" d="M 35.289062 121.902344 C 35.363281 121.679688 35.363281 121.628906 35.363281 121.601562 C 35.363281 121.429688 35.238281 121.277344 35.066406 121.277344 C 34.941406 121.277344 34.839844 121.328125 34.789062 121.429688 L 29.238281 136.628906 C 29.164062 136.851562 29.164062 136.902344 29.164062 136.929688 C 29.164062 137.101562 29.316406 137.253906 29.488281 137.253906 C 29.691406 137.253906 29.738281 137.128906 29.839844 136.851562 Z M 35.289062 121.902344 "/>
<path style=" stroke:none;fill-rule:nonzero;fill:rgb(0%,0%,0%);fill-opacity:1;" d="M 40.957031 130.628906 L 40.957031 132.003906 C 40.957031 132.578125 40.910156 132.753906 39.734375 132.753906 L 39.410156 132.753906 L 39.410156 133.253906 C 40.058594 133.203125 40.882812 133.203125 41.558594 133.203125 C 42.234375 133.203125 43.058594 133.203125 43.734375 133.253906 L 43.734375 132.753906 L 43.382812 132.753906 C 42.207031 132.753906 42.183594 132.578125 42.183594 132.003906 L 42.183594 130.628906 L 43.757812 130.628906 L 43.757812 130.128906 L 42.183594 130.128906 L 42.183594 122.878906 C 42.183594 122.554688 42.183594 122.453125 41.910156 122.453125 C 41.785156 122.453125 41.734375 122.453125 41.609375 122.652344 L 36.707031 130.128906 L 36.707031 130.628906 Z M 41.035156 130.128906 L 37.160156 130.128906 L 41.035156 124.179688 Z M 41.035156 130.128906 "/>
<path style=" stroke:none;fill-rule:nonzero;fill:rgb(0%,0%,0%);fill-opacity:1;" d="M 93.253906 55.304688 L 95.054688 55.304688 C 94.53125 57.652344 94.378906 58.351562 94.378906 59.429688 C 94.378906 59.652344 94.378906 60.078125 94.503906 60.628906 C 94.679688 61.328125 94.855469 61.429688 95.078125 61.429688 C 95.40625 61.429688 95.753906 61.152344 95.753906 60.828125 C 95.753906 60.726562 95.753906 60.703125 95.65625 60.476562 C 95.179688 59.328125 95.179688 58.277344 95.179688 57.828125 C 95.179688 57.003906 95.304688 56.128906 95.480469 55.304688 L 97.28125 55.304688 C 97.503906 55.304688 98.078125 55.304688 98.078125 54.753906 C 98.078125 54.378906 97.730469 54.378906 97.429688 54.378906 L 92.078125 54.378906 C 91.730469 54.378906 91.128906 54.378906 90.429688 55.128906 C 89.878906 55.753906 89.453125 56.476562 89.453125 56.554688 C 89.453125 56.578125 89.453125 56.726562 89.65625 56.726562 C 89.78125 56.726562 89.804688 56.652344 89.90625 56.527344 C 90.679688 55.304688 91.605469 55.304688 91.929688 55.304688 L 92.828125 55.304688 C 92.328125 57.226562 91.480469 59.152344 90.804688 60.601562 C 90.679688 60.851562 90.679688 60.878906 90.679688 61.003906 C 90.679688 61.304688 90.929688 61.429688 91.128906 61.429688 C 91.605469 61.429688 91.730469 60.976562 91.929688 60.402344 C 92.15625 59.652344 92.15625 59.628906 92.355469 58.828125 Z M 93.253906 55.304688 "/>
<path style=" stroke:none;fill-rule:nonzero;fill:rgb(0%,0%,0%);fill-opacity:1;" d="M 105.691406 49.902344 C 105.765625 49.679688 105.765625 49.628906 105.765625 49.601562 C 105.765625 49.429688 105.640625 49.277344 105.464844 49.277344 C 105.339844 49.277344 105.238281 49.328125 105.191406 49.429688 L 99.640625 64.628906 C 99.566406 64.851562 99.566406 64.902344 99.566406 64.929688 C 99.566406 65.101562 99.714844 65.253906 99.890625 65.253906 C 100.089844 65.253906 100.140625 65.128906 100.238281 64.851562 Z M 105.691406 49.902344 "/>
<path style=" stroke:none;fill-rule:nonzero;fill:rgb(0%,0%,0%);fill-opacity:1;" d="M 111.359375 58.628906 L 111.359375 60.003906 C 111.359375 60.578125 111.308594 60.753906 110.132812 60.753906 L 109.808594 60.753906 L 109.808594 61.253906 C 110.457031 61.203125 111.285156 61.203125 111.957031 61.203125 C 112.632812 61.203125 113.457031 61.203125 114.132812 61.253906 L 114.132812 60.753906 L 113.785156 60.753906 C 112.609375 60.753906 112.582031 60.578125 112.582031 60.003906 L 112.582031 58.628906 L 114.160156 58.628906 L 114.160156 58.128906 L 112.582031 58.128906 L 112.582031 50.878906 C 112.582031 50.554688 112.582031 50.453125 112.308594 50.453125 C 112.183594 50.453125 112.132812 50.453125 112.007812 50.652344 L 107.109375 58.128906 L 107.109375 58.628906 Z M 111.433594 58.128906 L 107.558594 58.128906 L 111.433594 52.179688 Z M 111.433594 58.128906 "/>
<use xlink:href="#surface10" transform="matrix(1,0,0,1,37,107)" mask="url(#mask0)"/>
<use xlink:href="#surface16" transform="matrix(1,0,0,1,81,61)" mask="url(#mask1)"/>
<path style=" stroke:none;fill-rule:nonzero;fill:rgb(79.998779%,79.998779%,79.998779%);fill-opacity:1;" d="M 260.402344 139.648438 L 260.410156 1.203125 L 346.804688 139.648438 Z M 260.402344 139.648438 "/>
<g clip-path="url(#clip6)" clip-rule="nonzero">
<path style="fill:none;stroke-width:0.8;stroke-linecap:butt;stroke-linejoin:round;stroke:rgb(0%,0%,0%);stroke-opacity:1;stroke-dasharray:0.8,0.8;stroke-miterlimit:4;" d="M 260.402344 139.648438 L 260.410156 1.203125 L 346.804688 139.648438 Z M 260.402344 139.648438 "/>
</g>
<path style="fill:none;stroke-width:0.8;stroke-linecap:butt;stroke-linejoin:miter;stroke:rgb(100%,0%,0%);stroke-opacity:1;stroke-miterlimit:4;" d="M 250.804688 139.648438 L 250.804688 130.050781 L 260.402344 130.050781 "/>
<path style="fill:none;stroke-width:2.4;stroke-linecap:butt;stroke-linejoin:round;stroke:rgb(0%,0%,0%);stroke-opacity:1;stroke-miterlimit:4;" d="M 260.402344 139.648438 L 260.410156 1.203125 L 174.003906 139.648438 Z M 260.402344 139.648438 "/>
<path style=" stroke:none;fill-rule:nonzero;fill:rgb(0%,0%,0%);fill-opacity:1;" d="M 218.53125 144.910156 C 218.53125 144.511719 218.53125 144.488281 218.15625 144.488281 C 217.15625 145.511719 215.753906 145.511719 215.253906 145.511719 L 215.253906 146.011719 C 215.578125 146.011719 216.503906 146.011719 217.328125 145.585938 L 217.328125 153.863281 C 217.328125 154.4375 217.28125 154.613281 215.855469 154.613281 L 215.355469 154.613281 L 215.355469 155.113281 C 215.90625 155.0625 217.28125 155.0625 217.929688 155.0625 C 218.554688 155.0625 219.953125 155.0625 220.503906 155.113281 L 220.503906 154.613281 L 220.003906 154.613281 C 218.554688 154.613281 218.53125 154.4375 218.53125 153.863281 Z M 218.53125 144.910156 "/>
<path style=" stroke:none;fill-rule:nonzero;fill:rgb(0%,0%,0%);fill-opacity:1;" d="M 269.628906 80.347656 L 266.828125 74.148438 C 266.703125 73.898438 266.628906 73.898438 266.578125 73.898438 C 266.578125 73.898438 266.480469 73.898438 266.304688 74.023438 L 264.804688 75.175781 C 264.605469 75.347656 264.605469 75.375 264.605469 75.425781 C 264.605469 75.523438 264.628906 75.597656 264.753906 75.597656 C 264.855469 75.597656 265.128906 75.375 265.304688 75.25 C 265.378906 75.175781 265.628906 75 265.804688 74.875 L 268.953125 81.773438 C 269.054688 82.023438 269.128906 82.023438 269.28125 82.023438 C 269.53125 82.023438 269.578125 81.949219 269.679688 81.722656 L 276.929688 66.722656 C 277.03125 66.5 277.03125 66.449219 277.03125 66.398438 C 277.03125 66.25 276.90625 66.074219 276.703125 66.074219 C 276.578125 66.074219 276.480469 66.175781 276.355469 66.425781 Z M 269.628906 80.347656 "/>
<path style="fill:none;stroke-width:0.6368;stroke-linecap:butt;stroke-linejoin:miter;stroke:rgb(0%,0%,0%);stroke-opacity:1;stroke-miterlimit:10;" d="M 276.714844 -66.40625 L 284.683594 -66.40625 " transform="matrix(1,0,0,-1,0,0)"/>
<path style=" stroke:none;fill-rule:nonzero;fill:rgb(0%,0%,0%);fill-opacity:1;" d="M 281.339844 74.285156 C 282.636719 73.863281 283.5625 72.761719 283.5625 71.488281 C 283.5625 70.1875 282.164062 69.285156 280.636719 69.285156 C 279.039062 69.285156 277.8125 70.238281 277.8125 71.460938 C 277.8125 71.988281 278.164062 72.285156 278.636719 72.285156 C 279.113281 72.285156 279.4375 71.9375 279.4375 71.460938 C 279.4375 70.6875 278.6875 70.6875 278.464844 70.6875 C 278.9375 69.886719 279.988281 69.6875 280.5625 69.6875 C 281.238281 69.6875 282.113281 70.035156 282.113281 71.460938 C 282.113281 71.660156 282.0625 72.585938 281.664062 73.285156 C 281.1875 74.0625 280.636719 74.113281 280.238281 74.113281 C 280.113281 74.136719 279.738281 74.160156 279.613281 74.160156 C 279.488281 74.1875 279.386719 74.210938 279.386719 74.363281 C 279.386719 74.535156 279.488281 74.535156 279.761719 74.535156 L 280.464844 74.535156 C 281.761719 74.535156 282.363281 75.613281 282.363281 77.1875 C 282.363281 79.363281 281.261719 79.8125 280.5625 79.8125 C 279.863281 79.8125 278.664062 79.535156 278.113281 78.613281 C 278.664062 78.6875 279.164062 78.335938 279.164062 77.738281 C 279.164062 77.160156 278.738281 76.835938 278.289062 76.835938 C 277.886719 76.835938 277.386719 77.0625 277.386719 77.761719 C 277.386719 79.210938 278.863281 80.261719 280.613281 80.261719 C 282.5625 80.261719 284.011719 78.8125 284.011719 77.1875 C 284.011719 75.886719 282.988281 74.636719 281.339844 74.285156 Z M 281.339844 74.285156 "/>
<path style=" stroke:none;fill-rule:nonzero;fill:rgb(0%,0%,0%);fill-opacity:1;" d="M 204.65625 72.285156 L 206.355469 70.636719 C 208.828125 68.4375 209.78125 67.585938 209.78125 65.988281 C 209.78125 64.160156 208.355469 62.886719 206.40625 62.886719 C 204.605469 62.886719 203.429688 64.363281 203.429688 65.785156 C 203.429688 66.660156 204.230469 66.660156 204.28125 66.660156 C 204.554688 66.660156 205.105469 66.488281 205.105469 65.8125 C 205.105469 65.410156 204.804688 64.988281 204.253906 64.988281 C 204.128906 64.988281 204.105469 64.988281 204.054688 65.011719 C 204.40625 63.960938 205.28125 63.386719 206.203125 63.386719 C 207.65625 63.386719 208.328125 64.6875 208.328125 65.988281 C 208.328125 67.261719 207.554688 68.511719 206.65625 69.511719 L 203.605469 72.910156 C 203.429688 73.085938 203.429688 73.136719 203.429688 73.511719 L 209.355469 73.511719 L 209.78125 70.738281 L 209.40625 70.738281 C 209.304688 71.210938 209.203125 71.910156 209.03125 72.160156 C 208.929688 72.285156 207.878906 72.285156 207.53125 72.285156 Z M 204.65625 72.285156 "/>
<path style=" stroke:none;fill-rule:nonzero;fill:rgb(0%,0%,0%);fill-opacity:1;" d="M 188.332031 127.304688 L 190.132812 127.304688 C 189.609375 129.652344 189.457031 130.351562 189.457031 131.429688 C 189.457031 131.652344 189.457031 132.078125 189.582031 132.628906 C 189.757812 133.328125 189.933594 133.429688 190.160156 133.429688 C 190.484375 133.429688 190.832031 133.152344 190.832031 132.828125 C 190.832031 132.726562 190.832031 132.703125 190.734375 132.476562 C 190.257812 131.328125 190.257812 130.277344 190.257812 129.828125 C 190.257812 129.003906 190.382812 128.128906 190.558594 127.304688 L 192.359375 127.304688 C 192.582031 127.304688 193.160156 127.304688 193.160156 126.753906 C 193.160156 126.378906 192.808594 126.378906 192.507812 126.378906 L 187.160156 126.378906 C 186.808594 126.378906 186.207031 126.378906 185.507812 127.128906 C 184.957031 127.753906 184.535156 128.476562 184.535156 128.554688 C 184.535156 128.578125 184.535156 128.726562 184.734375 128.726562 C 184.859375 128.726562 184.882812 128.652344 184.984375 128.527344 C 185.757812 127.304688 186.683594 127.304688 187.007812 127.304688 L 187.910156 127.304688 C 187.410156 129.226562 186.558594 131.152344 185.882812 132.601562 C 185.757812 132.851562 185.757812 132.878906 185.757812 133.003906 C 185.757812 133.304688 186.007812 133.429688 186.207031 133.429688 C 186.683594 133.429688 186.808594 132.976562 187.007812 132.402344 C 187.234375 131.652344 187.234375 131.628906 187.433594 130.828125 Z M 188.332031 127.304688 "/>
<path style=" stroke:none;fill-rule:nonzero;fill:rgb(0%,0%,0%);fill-opacity:1;" d="M 200.769531 121.902344 C 200.84375 121.679688 200.84375 121.628906 200.84375 121.601562 C 200.84375 121.429688 200.71875 121.277344 200.542969 121.277344 C 200.417969 121.277344 200.316406 121.328125 200.269531 121.429688 L 194.71875 136.628906 C 194.644531 136.851562 194.644531 136.902344 194.644531 136.929688 C 194.644531 137.101562 194.792969 137.253906 194.96875 137.253906 C 195.167969 137.253906 195.21875 137.128906 195.316406 136.851562 Z M 200.769531 121.902344 "/>
<path style=" stroke:none;fill-rule:nonzero;fill:rgb(0%,0%,0%);fill-opacity:1;" d="M 206.363281 127.628906 C 207.664062 127.203125 208.585938 126.101562 208.585938 124.828125 C 208.585938 123.527344 207.1875 122.628906 205.664062 122.628906 C 204.0625 122.628906 202.835938 123.578125 202.835938 124.804688 C 202.835938 125.328125 203.1875 125.628906 203.664062 125.628906 C 204.136719 125.628906 204.460938 125.277344 204.460938 124.804688 C 204.460938 124.027344 203.710938 124.027344 203.488281 124.027344 C 203.960938 123.226562 205.011719 123.027344 205.585938 123.027344 C 206.261719 123.027344 207.136719 123.378906 207.136719 124.804688 C 207.136719 125.003906 207.085938 125.929688 206.6875 126.628906 C 206.210938 127.402344 205.664062 127.453125 205.261719 127.453125 C 205.136719 127.476562 204.761719 127.503906 204.636719 127.503906 C 204.511719 127.527344 204.414062 127.554688 204.414062 127.703125 C 204.414062 127.878906 204.511719 127.878906 204.789062 127.878906 L 205.488281 127.878906 C 206.789062 127.878906 207.386719 128.953125 207.386719 130.527344 C 207.386719 132.703125 206.289062 133.152344 205.585938 133.152344 C 204.886719 133.152344 203.6875 132.878906 203.136719 131.953125 C 203.6875 132.027344 204.1875 131.679688 204.1875 131.078125 C 204.1875 130.503906 203.761719 130.179688 203.3125 130.179688 C 202.914062 130.179688 202.414062 130.402344 202.414062 131.101562 C 202.414062 132.554688 203.886719 133.601562 205.636719 133.601562 C 207.585938 133.601562 209.039062 132.152344 209.039062 130.527344 C 209.039062 129.226562 208.011719 127.976562 206.363281 127.628906 Z M 206.363281 127.628906 "/>
<path style=" stroke:none;fill-rule:nonzero;fill:rgb(0%,0%,0%);fill-opacity:1;" d="M 236.941406 49.390625 L 238.742188 49.390625 C 238.214844 51.742188 238.066406 52.441406 238.066406 53.515625 C 238.066406 53.742188 238.066406 54.167969 238.191406 54.714844 C 238.367188 55.417969 238.539062 55.515625 238.765625 55.515625 C 239.089844 55.515625 239.441406 55.242188 239.441406 54.917969 C 239.441406 54.816406 239.441406 54.792969 239.339844 54.566406 C 238.867188 53.417969 238.867188 52.367188 238.867188 51.917969 C 238.867188 51.089844 238.992188 50.214844 239.164062 49.390625 L 240.964844 49.390625 C 241.191406 49.390625 241.765625 49.390625 241.765625 48.839844 C 241.765625 48.464844 241.414062 48.464844 241.117188 48.464844 L 235.765625 48.464844 C 235.414062 48.464844 234.816406 48.464844 234.117188 49.214844 C 233.566406 49.839844 233.140625 50.566406 233.140625 50.640625 C 233.140625 50.667969 233.140625 50.816406 233.339844 50.816406 C 233.464844 50.816406 233.492188 50.742188 233.589844 50.617188 C 234.367188 49.390625 235.289062 49.390625 235.617188 49.390625 L 236.515625 49.390625 C 236.015625 51.316406 235.164062 53.242188 234.492188 54.691406 C 234.367188 54.941406 234.367188 54.964844 234.367188 55.089844 C 234.367188 55.390625 234.617188 55.515625 234.816406 55.515625 C 235.289062 55.515625 235.414062 55.066406 235.617188 54.492188 C 235.839844 53.742188 235.839844 53.714844 236.039062 52.917969 Z M 236.941406 49.390625 "/>
<path style=" stroke:none;fill-rule:nonzero;fill:rgb(0%,0%,0%);fill-opacity:1;" d="M 249.375 43.992188 C 249.449219 43.765625 249.449219 43.714844 249.449219 43.691406 C 249.449219 43.515625 249.324219 43.367188 249.152344 43.367188 C 249.027344 43.367188 248.925781 43.417969 248.875 43.515625 L 243.324219 58.714844 C 243.25 58.941406 243.25 58.992188 243.25 59.015625 C 243.25 59.191406 243.402344 59.339844 243.574219 59.339844 C 243.777344 59.339844 243.824219 59.214844 243.925781 58.941406 Z M 249.375 43.992188 "/>
<path style=" stroke:none;fill-rule:nonzero;fill:rgb(0%,0%,0%);fill-opacity:1;" d="M 252.445312 50.117188 L 252.445312 49.714844 C 252.445312 45.691406 254.417969 45.117188 255.246094 45.117188 C 255.621094 45.117188 256.292969 45.214844 256.644531 45.765625 C 256.394531 45.765625 255.769531 45.765625 255.769531 46.464844 C 255.769531 46.964844 256.144531 47.214844 256.496094 47.214844 C 256.746094 47.214844 257.246094 47.066406 257.246094 46.441406 C 257.246094 45.492188 256.542969 44.714844 255.21875 44.714844 C 253.167969 44.714844 251.019531 46.765625 251.019531 50.292969 C 251.019531 54.566406 252.871094 55.691406 254.34375 55.691406 C 256.121094 55.691406 257.644531 54.191406 257.644531 52.089844 C 257.644531 50.066406 256.21875 48.542969 254.445312 48.542969 C 253.371094 48.542969 252.769531 49.339844 252.445312 50.117188 Z M 254.34375 55.242188 C 253.34375 55.242188 252.871094 54.292969 252.769531 54.042969 C 252.46875 53.292969 252.46875 52.015625 252.46875 51.742188 C 252.46875 50.492188 252.996094 48.890625 254.417969 48.890625 C 254.695312 48.890625 255.417969 48.890625 255.917969 49.890625 C 256.195312 50.464844 256.195312 51.292969 256.195312 52.066406 C 256.195312 52.839844 256.195312 53.640625 255.917969 54.214844 C 255.445312 55.167969 254.71875 55.242188 254.34375 55.242188 Z M 254.34375 55.242188 "/>
<use xlink:href="#surface22" transform="matrix(1,0,0,1,228,58)" mask="url(#mask2)"/>
<use xlink:href="#surface23" transform="matrix(1,0,0,1,198,103)" mask="url(#mask3)"/>
</g>
</svg>
