<?xml version="1.0" encoding="UTF-8"?>
<svg xmlns="http://www.w3.org/2000/svg" xmlns:xlink="http://www.w3.org/1999/xlink" width="240.714325pt" height="101.401871pt" viewBox="0 0 240.714325 101.401871" version="1.1">
<defs>
<clipPath id="clip1">
  <path d="M 12 4 L 14 4 L 14 101.402344 L 12 101.402344 Z M 12 4 "/>
</clipPath>
<filter id="alpha" filterUnits="objectBoundingBox" x="0%" y="0%" width="100%" height="100%">
  <feColorMatrix type="matrix" in="SourceGraphic" values="0 0 0 0 1 0 0 0 0 1 0 0 0 0 1 0 0 0 1 0"/>
</filter>
<clipPath id="clip2">
  <rect width="64" height="62"/>
</clipPath>
<g id="surface8" clip-path="url(#clip2)">
<rect x="0" y="0" width="64" height="62" style="fill:rgb(0%,0%,0%);fill-opacity:0.8;stroke:none;"/>
</g>
<mask id="mask0">
  <g filter="url(#alpha)">
<use xlink:href="#surface8"/>
  </g>
</mask>
<clipPath id="clip3">
  <rect width="64" height="62"/>
</clipPath>
<g id="surface10" clip-path="url(#clip3)">
<path style=" stroke:none;fill-rule:nonzero;fill:rgb(100%,100%,100%);fill-opacity:1;" d="M 17.859375 32.082031 L 0.578125 31.96875 L 62.898438 0.617188 L 63.210938 61.492188 L 0.648438 50.097656 L 17.941406 50.015625 Z M 17.859375 32.082031 "/>
</g>
<clipPath id="clip4">
  <rect width="64" height="62"/>
</clipPath>
<g id="surface14" clip-path="url(#clip4)">
<rect x="0" y="0" width="64" height="62" style="fill:rgb(0%,0%,0%);fill-opacity:0.8;stroke:none;"/>
</g>
<mask id="mask1">
  <g filter="url(#alpha)">
<use xlink:href="#surface14"/>
  </g>
</mask>
<clipPath id="clip5">
  <rect width="64" height="62"/>
</clipPath>
<g id="surface11" clip-path="url(#clip5)">
<path style=" stroke:none;fill-rule:nonzero;fill:rgb(100%,100%,100%);fill-opacity:1;" d="M 18.238281 32.203125 L 0.957031 32.085938 L 63.277344 0.738281 L 63.585938 61.613281 L 1.027344 50.21875 L 18.316406 50.132812 Z M 18.238281 32.203125 "/>
</g>
<clipPath id="clip6">
  <path d="M 129 9 L 240.714844 9 L 240.714844 50 L 129 50 Z M 129 9 "/>
</clipPath>
<clipPath id="clip7">
  <path d="M 129 58 L 240.714844 58 L 240.714844 79 L 129 79 Z M 129 58 "/>
</clipPath>
<clipPath id="clip8">
  <path d="M 179 13 L 240.714844 13 L 240.714844 75 L 179 75 Z M 179 13 "/>
</clipPath>
<clipPath id="clip9">
  <path d="M 173 5 L 240.714844 5 L 240.714844 83 L 173 83 Z M 173 5 "/>
</clipPath>
</defs>
<g id="surface1">
<path style="fill:none;stroke-width:0.8;stroke-linecap:butt;stroke-linejoin:miter;stroke:rgb(0%,0%,0%);stroke-opacity:1;stroke-miterlimit:4;" d="M 13.339844 87.273438 C 30.285156 80.960938 42.144531 66.910156 50.304688 51.398438 C 56.421875 39.46875 62.503906 26.375 64.8125 13.226562 "/>
<g clip-path="url(#clip1)" clip-rule="nonzero">
<path style="fill:none;stroke-width:0.8;stroke-linecap:round;stroke-linejoin:round;stroke:rgb(100%,0%,0%);stroke-opacity:1;stroke-miterlimit:4;" d="M 13.09375 4.734375 L 13.09375 100.984375 "/>
</g>
<path style="fill:none;stroke-width:0.8;stroke-linecap:round;stroke-linejoin:round;stroke:rgb(100%,0%,0%);stroke-opacity:1;stroke-miterlimit:4;" d="M 0.46875 87.484375 L 61.59375 87.484375 "/>
<path style=" stroke:none;fill-rule:nonzero;fill:rgb(0%,0%,0%);fill-opacity:1;" d="M 21.996094 5.628906 C 22.050781 5.460938 22.050781 5.441406 22.050781 5.347656 C 22.050781 5.140625 21.882812 5.03125 21.695312 5.03125 C 21.582031 5.03125 21.394531 5.105469 21.28125 5.273438 C 21.261719 5.347656 21.152344 5.703125 21.113281 5.929688 C 21.019531 6.230469 20.945312 6.566406 20.871094 6.886719 L 20.324219 9.042969 C 20.289062 9.210938 19.761719 10.054688 18.976562 10.054688 C 18.375 10.054688 18.246094 9.53125 18.246094 9.078125 C 18.246094 8.535156 18.449219 7.785156 18.84375 6.734375 C 19.03125 6.25 19.089844 6.117188 19.089844 5.875 C 19.089844 5.347656 18.714844 4.898438 18.113281 4.898438 C 16.96875 4.898438 16.539062 6.640625 16.539062 6.734375 C 16.539062 6.867188 16.652344 6.867188 16.667969 6.867188 C 16.800781 6.867188 16.800781 6.828125 16.855469 6.640625 C 17.195312 5.515625 17.664062 5.160156 18.074219 5.160156 C 18.167969 5.160156 18.375 5.160156 18.375 5.535156 C 18.375 5.835938 18.246094 6.15625 18.167969 6.378906 C 17.683594 7.65625 17.476562 8.328125 17.476562 8.890625 C 17.476562 9.960938 18.226562 10.316406 18.9375 10.316406 C 19.40625 10.316406 19.800781 10.109375 20.136719 9.773438 C 19.988281 10.390625 19.839844 10.992188 19.371094 11.628906 C 19.050781 12.023438 18.601562 12.378906 18.058594 12.378906 C 17.886719 12.378906 17.34375 12.34375 17.136719 11.875 C 17.324219 11.875 17.496094 11.875 17.644531 11.722656 C 17.777344 11.628906 17.886719 11.460938 17.886719 11.234375 C 17.886719 10.859375 17.570312 10.824219 17.457031 10.824219 C 17.175781 10.824219 16.78125 11.011719 16.78125 11.59375 C 16.78125 12.191406 17.308594 12.640625 18.058594 12.640625 C 19.277344 12.640625 20.511719 11.554688 20.851562 10.203125 Z M 21.996094 5.628906 "/>
<path style=" stroke:none;fill-rule:nonzero;fill:rgb(0%,0%,0%);fill-opacity:1;" d="M 59.714844 92.734375 C 59.789062 92.433594 60.070312 91.328125 60.894531 91.328125 C 60.949219 91.328125 61.25 91.328125 61.496094 91.476562 C 61.15625 91.550781 60.933594 91.832031 60.933594 92.132812 C 60.933594 92.320312 61.0625 92.546875 61.382812 92.546875 C 61.644531 92.546875 62.019531 92.339844 62.019531 91.851562 C 62.019531 91.234375 61.324219 91.0625 60.914062 91.0625 C 60.21875 91.0625 59.808594 91.703125 59.65625 91.964844 C 59.355469 91.175781 58.71875 91.0625 58.363281 91.0625 C 57.125 91.0625 56.433594 92.601562 56.433594 92.902344 C 56.433594 93.03125 56.5625 93.03125 56.582031 93.03125 C 56.675781 93.03125 56.714844 92.996094 56.730469 92.902344 C 57.144531 91.625 57.933594 91.328125 58.34375 91.328125 C 58.570312 91.328125 58.980469 91.4375 58.980469 92.132812 C 58.980469 92.507812 58.777344 93.296875 58.34375 94.984375 C 58.15625 95.714844 57.726562 96.21875 57.199219 96.21875 C 57.125 96.21875 56.863281 96.21875 56.601562 96.070312 C 56.902344 95.996094 57.164062 95.75 57.164062 95.414062 C 57.164062 95.09375 56.902344 95 56.730469 95 C 56.355469 95 56.074219 95.300781 56.074219 95.695312 C 56.074219 96.238281 56.65625 96.484375 57.183594 96.484375 C 57.988281 96.484375 58.417969 95.640625 58.4375 95.582031 C 58.589844 96.015625 59.019531 96.484375 59.730469 96.484375 C 60.96875 96.484375 61.644531 94.945312 61.644531 94.644531 C 61.644531 94.515625 61.550781 94.515625 61.511719 94.515625 C 61.402344 94.515625 61.382812 94.570312 61.34375 94.644531 C 60.949219 95.9375 60.144531 96.21875 59.769531 96.21875 C 59.300781 96.21875 59.113281 95.84375 59.113281 95.433594 C 59.113281 95.171875 59.167969 94.90625 59.300781 94.382812 Z M 59.714844 92.734375 "/>
<path style=" stroke:none;fill-rule:nonzero;fill:rgb(0%,0%,0%);fill-opacity:1;" d="M 74.390625 5.332031 C 74.445312 5.164062 74.445312 5.144531 74.445312 5.050781 C 74.445312 4.84375 74.277344 4.734375 74.089844 4.734375 C 73.976562 4.734375 73.789062 4.808594 73.675781 4.976562 C 73.660156 5.050781 73.546875 5.40625 73.507812 5.632812 C 73.414062 5.933594 73.339844 6.269531 73.265625 6.589844 L 72.722656 8.746094 C 72.683594 8.914062 72.160156 9.757812 71.371094 9.757812 C 70.769531 9.757812 70.640625 9.234375 70.640625 8.78125 C 70.640625 8.238281 70.847656 7.488281 71.238281 6.4375 C 71.425781 5.953125 71.484375 5.820312 71.484375 5.578125 C 71.484375 5.050781 71.109375 4.601562 70.507812 4.601562 C 69.363281 4.601562 68.933594 6.34375 68.933594 6.4375 C 68.933594 6.570312 69.046875 6.570312 69.066406 6.570312 C 69.195312 6.570312 69.195312 6.53125 69.253906 6.34375 C 69.589844 5.21875 70.058594 4.863281 70.472656 4.863281 C 70.566406 4.863281 70.769531 4.863281 70.769531 5.238281 C 70.769531 5.539062 70.640625 5.859375 70.566406 6.082031 C 70.078125 7.359375 69.871094 8.03125 69.871094 8.59375 C 69.871094 9.664062 70.621094 10.019531 71.332031 10.019531 C 71.800781 10.019531 72.195312 9.8125 72.535156 9.476562 C 72.382812 10.09375 72.234375 10.695312 71.765625 11.332031 C 71.445312 11.726562 70.996094 12.082031 70.453125 12.082031 C 70.285156 12.082031 69.738281 12.046875 69.535156 11.578125 C 69.722656 11.578125 69.890625 11.578125 70.039062 11.425781 C 70.171875 11.332031 70.285156 11.164062 70.285156 10.9375 C 70.285156 10.5625 69.964844 10.527344 69.851562 10.527344 C 69.570312 10.527344 69.175781 10.714844 69.175781 11.296875 C 69.175781 11.894531 69.703125 12.34375 70.453125 12.34375 C 71.671875 12.34375 72.910156 11.257812 73.246094 9.90625 Z M 74.390625 5.332031 "/>
<path style=" stroke:none;fill-rule:nonzero;fill:rgb(0%,0%,0%);fill-opacity:1;" d="M 86.402344 5.96875 C 86.589844 5.96875 86.8125 5.96875 86.8125 5.746094 C 86.8125 5.5 86.589844 5.5 86.417969 5.5 L 79.257812 5.5 C 79.089844 5.5 78.863281 5.5 78.863281 5.746094 C 78.863281 5.96875 79.089844 5.96875 79.257812 5.96875 Z M 86.417969 8.296875 C 86.589844 8.296875 86.8125 8.296875 86.8125 8.050781 C 86.8125 7.828125 86.589844 7.828125 86.402344 7.828125 L 79.257812 7.828125 C 79.089844 7.828125 78.863281 7.828125 78.863281 8.050781 C 78.863281 8.296875 79.089844 8.296875 79.257812 8.296875 Z M 86.417969 8.296875 "/>
<path style=" stroke:none;fill-rule:nonzero;fill:rgb(0%,0%,0%);fill-opacity:1;" d="M 94.800781 6.269531 C 94.875 5.96875 95.15625 4.863281 95.980469 4.863281 C 96.039062 4.863281 96.339844 4.863281 96.582031 5.015625 C 96.246094 5.089844 96.019531 5.371094 96.019531 5.671875 C 96.019531 5.859375 96.152344 6.082031 96.46875 6.082031 C 96.730469 6.082031 97.105469 5.875 97.105469 5.390625 C 97.105469 4.769531 96.414062 4.601562 96 4.601562 C 95.308594 4.601562 94.894531 5.238281 94.746094 5.5 C 94.445312 4.714844 93.808594 4.601562 93.449219 4.601562 C 92.214844 4.601562 91.519531 6.140625 91.519531 6.4375 C 91.519531 6.570312 91.652344 6.570312 91.667969 6.570312 C 91.761719 6.570312 91.800781 6.53125 91.820312 6.4375 C 92.230469 5.164062 93.019531 4.863281 93.433594 4.863281 C 93.65625 4.863281 94.070312 4.976562 94.070312 5.671875 C 94.070312 6.046875 93.863281 6.832031 93.433594 8.519531 C 93.246094 9.25 92.8125 9.757812 92.289062 9.757812 C 92.214844 9.757812 91.949219 9.757812 91.6875 9.609375 C 91.988281 9.53125 92.25 9.289062 92.25 8.953125 C 92.25 8.632812 91.988281 8.539062 91.820312 8.539062 C 91.445312 8.539062 91.164062 8.839844 91.164062 9.234375 C 91.164062 9.777344 91.746094 10.019531 92.269531 10.019531 C 93.074219 10.019531 93.507812 9.175781 93.527344 9.121094 C 93.675781 9.550781 94.105469 10.019531 94.820312 10.019531 C 96.058594 10.019531 96.730469 8.484375 96.730469 8.183594 C 96.730469 8.050781 96.636719 8.050781 96.601562 8.050781 C 96.488281 8.050781 96.46875 8.109375 96.433594 8.183594 C 96.039062 9.476562 95.230469 9.757812 94.855469 9.757812 C 94.386719 9.757812 94.199219 9.382812 94.199219 8.96875 C 94.199219 8.707031 94.257812 8.445312 94.386719 7.921875 Z M 94.800781 6.269531 "/>
<path style=" stroke:none;fill-rule:nonzero;fill:rgb(0%,0%,0%);fill-opacity:1;" d="M 101.859375 4.03125 L 101.578125 4.03125 C 101.558594 4.21875 101.464844 4.707031 101.351562 4.78125 C 101.296875 4.835938 100.660156 4.835938 100.527344 4.835938 L 98.988281 4.835938 C 99.871094 4.070312 100.171875 3.824219 100.660156 3.429688 C 101.277344 2.945312 101.859375 2.417969 101.859375 1.632812 C 101.859375 0.617188 100.976562 0 99.910156 0 C 98.878906 0 98.164062 0.730469 98.164062 1.5 C 98.164062 1.914062 98.519531 1.96875 98.613281 1.96875 C 98.800781 1.96875 99.046875 1.820312 99.046875 1.519531 C 99.046875 1.367188 98.988281 1.070312 98.558594 1.070312 C 98.820312 0.488281 99.382812 0.300781 99.777344 0.300781 C 100.621094 0.300781 101.050781 0.957031 101.050781 1.632812 C 101.050781 2.363281 100.527344 2.925781 100.265625 3.226562 L 98.257812 5.230469 C 98.164062 5.304688 98.164062 5.324219 98.164062 5.550781 L 101.613281 5.550781 Z M 101.859375 4.03125 "/>
<path style="fill:none;stroke-width:1.6;stroke-linecap:round;stroke-linejoin:round;stroke:rgb(0%,0%,50.195312%);stroke-opacity:1;stroke-miterlimit:4;" d="M 18.796875 90.988281 L 75.421875 26.488281 "/>
<path style=" stroke:none;fill-rule:nonzero;fill:rgb(0%,0%,0%);fill-opacity:1;" d="M 32.679688 61.683594 L 34.722656 61.683594 C 36.410156 61.683594 38.078125 60.445312 38.078125 59.117188 C 38.078125 58.179688 37.289062 57.296875 35.714844 57.296875 L 31.851562 57.296875 C 31.628906 57.296875 31.496094 57.296875 31.496094 57.523438 C 31.496094 57.671875 31.589844 57.671875 31.835938 57.671875 C 31.984375 57.671875 32.210938 57.691406 32.339844 57.691406 C 32.546875 57.726562 32.601562 57.746094 32.601562 57.898438 C 32.601562 57.933594 32.601562 57.972656 32.566406 58.121094 L 30.953125 64.535156 C 30.839844 65.003906 30.820312 65.097656 29.867188 65.097656 C 29.679688 65.097656 29.546875 65.097656 29.546875 65.320312 C 29.546875 65.472656 29.679688 65.472656 29.714844 65.472656 C 30.054688 65.472656 30.898438 65.433594 31.234375 65.433594 C 31.496094 65.433594 31.757812 65.453125 32.003906 65.453125 C 32.265625 65.453125 32.527344 65.472656 32.773438 65.472656 C 32.867188 65.472656 33.015625 65.472656 33.015625 65.226562 C 33.015625 65.097656 32.902344 65.097656 32.679688 65.097656 C 32.246094 65.097656 31.910156 65.097656 31.910156 64.890625 C 31.910156 64.816406 31.929688 64.757812 31.945312 64.683594 Z M 33.539062 58.121094 C 33.652344 57.710938 33.671875 57.671875 34.195312 57.671875 L 35.339844 57.671875 C 36.335938 57.671875 36.972656 57.992188 36.972656 58.816406 C 36.972656 59.285156 36.726562 60.316406 36.257812 60.746094 C 35.660156 61.289062 34.945312 61.382812 34.421875 61.382812 L 32.734375 61.382812 Z M 33.539062 58.121094 "/>
<use xlink:href="#surface10" transform="matrix(1,0,0,1,31,25)" mask="url(#mask0)"/>
<path style="fill:none;stroke-width:0.8;stroke-linecap:round;stroke-linejoin:miter;stroke:rgb(100%,0%,0%);stroke-opacity:1;stroke-dasharray:1.6,1.6;stroke-miterlimit:4;" d="M 32.203125 56.953125 L 93.855469 25.476562 "/>
<path style="fill:none;stroke-width:0.8;stroke-linecap:round;stroke-linejoin:miter;stroke:rgb(100%,0%,0%);stroke-opacity:1;stroke-dasharray:1.6,1.6;stroke-miterlimit:4;" d="M 31.832031 75.183594 L 93.976562 86.429688 "/>
<path style="fill:none;stroke-width:0.8;stroke-linecap:round;stroke-linejoin:miter;stroke:rgb(100%,0%,0%);stroke-opacity:1;stroke-dasharray:1.6,1.6;stroke-miterlimit:4;" d="M 48.929688 57.046875 L 154.292969 26.203125 "/>
<path style="fill:none;stroke-width:0.8;stroke-linecap:round;stroke-linejoin:miter;stroke:rgb(100%,0%,0%);stroke-opacity:1;stroke-dasharray:1.6,1.6;stroke-miterlimit:4;" d="M 48.984375 75.109375 L 154.414062 86.183594 "/>
<path style="fill:none;stroke-width:0.8;stroke-linecap:round;stroke-linejoin:bevel;stroke:rgb(100%,0%,0%);stroke-opacity:1;stroke-dasharray:1.6,1.6;stroke-miterlimit:4;" d="M 31.695312 57.035156 L 48.839844 57.035156 L 48.839844 75.089844 L 31.695312 75.089844 Z M 31.695312 57.035156 "/>
<path style="fill-rule:nonzero;fill:rgb(100%,100%,100%);fill-opacity:1;stroke-width:0.8;stroke-linecap:round;stroke-linejoin:bevel;stroke:rgb(100%,0%,0%);stroke-opacity:1;stroke-dasharray:1.6,1.6;stroke-miterlimit:4;" d="M 94.136719 25.605469 L 154.933594 25.605469 L 154.933594 86.40625 L 94.136719 86.40625 Z M 94.136719 25.605469 "/>
<path style="fill-rule:nonzero;fill:rgb(0%,0%,100%);fill-opacity:1;stroke-width:0.8;stroke-linecap:round;stroke-linejoin:round;stroke:rgb(0%,0%,50.195312%);stroke-opacity:1;stroke-miterlimit:4;" d="M -38.917969 -66.835938 C -38.917969 -66.203125 -39.433594 -65.6875 -40.070312 -65.6875 C -40.707031 -65.6875 -41.222656 -66.203125 -41.222656 -66.835938 C -41.222656 -67.472656 -40.707031 -67.988281 -40.070312 -67.988281 C -39.433594 -67.988281 -38.917969 -67.472656 -38.917969 -66.835938 Z M -38.917969 -66.835938 " transform="matrix(-1,0,0,-1,0,0)"/>
<path style="fill:none;stroke-width:1.6;stroke-linecap:round;stroke-linejoin:miter;stroke:rgb(0%,0%,0%);stroke-opacity:1;stroke-miterlimit:4;" d="M 94.894531 84.847656 C 94.894531 84.847656 116.3125 65.347656 125.175781 55.457031 C 134.039062 45.566406 148.183594 25.875 148.183594 25.875 "/>
<path style="fill:none;stroke-width:1.6;stroke-linecap:round;stroke-linejoin:round;stroke:rgb(0%,0%,50.195312%);stroke-opacity:1;stroke-miterlimit:4;" d="M 98.011719 85.484375 L 151.980469 26.582031 "/>
<path style="fill-rule:nonzero;fill:rgb(0%,0%,100%);fill-opacity:1;stroke-width:0.8;stroke-linecap:round;stroke-linejoin:round;stroke:rgb(0%,0%,50.195312%);stroke-opacity:1;stroke-miterlimit:4;" d="M -124.480469 -55.382812 C -124.480469 -54.746094 -124.996094 -54.230469 -125.632812 -54.230469 C -126.265625 -54.230469 -126.78125 -54.746094 -126.78125 -55.382812 C -126.78125 -56.019531 -126.265625 -56.535156 -125.632812 -56.535156 C -124.996094 -56.535156 -124.480469 -56.019531 -124.480469 -55.382812 Z M -124.480469 -55.382812 " transform="matrix(-1,0,0,-1,0,0)"/>
<use xlink:href="#surface11" transform="matrix(1,0,0,1,116,13)" mask="url(#mask1)"/>
<path style="fill:none;stroke-width:0.8;stroke-linecap:round;stroke-linejoin:miter;stroke:rgb(100%,0%,0%);stroke-opacity:1;stroke-dasharray:1.6,1.6;stroke-miterlimit:4;" d="M 117.582031 45.070312 L 179.230469 13.597656 "/>
<path style="fill:none;stroke-width:0.8;stroke-linecap:round;stroke-linejoin:miter;stroke:rgb(100%,0%,0%);stroke-opacity:1;stroke-dasharray:1.6,1.6;stroke-miterlimit:4;" d="M 117.210938 63.300781 L 179.355469 74.546875 "/>
<g clip-path="url(#clip6)" clip-rule="nonzero">
<path style="fill:none;stroke-width:0.8;stroke-linecap:round;stroke-linejoin:miter;stroke:rgb(100%,0%,0%);stroke-opacity:1;stroke-dasharray:1.6,1.6;stroke-miterlimit:4;" d="M 134.308594 45.164062 L 239.671875 14.320312 "/>
</g>
<g clip-path="url(#clip7)" clip-rule="nonzero">
<path style="fill:none;stroke-width:0.8;stroke-linecap:round;stroke-linejoin:miter;stroke:rgb(100%,0%,0%);stroke-opacity:1;stroke-dasharray:1.6,1.6;stroke-miterlimit:4;" d="M 134.363281 63.230469 L 239.789062 74.300781 "/>
</g>
<path style="fill:none;stroke-width:0.8;stroke-linecap:round;stroke-linejoin:bevel;stroke:rgb(100%,0%,0%);stroke-opacity:1;stroke-dasharray:1.6,1.6;stroke-miterlimit:4;" d="M 117.074219 45.152344 L 134.214844 45.152344 L 134.214844 63.207031 L 117.074219 63.207031 Z M 117.074219 45.152344 "/>
<g clip-path="url(#clip8)" clip-rule="nonzero">
<path style="fill-rule:nonzero;fill:rgb(100%,100%,100%);fill-opacity:1;stroke-width:0.8;stroke-linecap:round;stroke-linejoin:bevel;stroke:rgb(100%,0%,0%);stroke-opacity:1;stroke-dasharray:1.6,1.6;stroke-miterlimit:4;" d="M 179.511719 13.726562 L 240.3125 13.726562 L 240.3125 74.523438 L 179.511719 74.523438 Z M 179.511719 13.726562 "/>
</g>
<g clip-path="url(#clip9)" clip-rule="nonzero">
<path style="fill:none;stroke-width:1.6;stroke-linecap:round;stroke-linejoin:miter;stroke:rgb(0%,0%,0%);stroke-opacity:1;stroke-miterlimit:4;" d="M 182.316406 73.160156 C 182.316406 73.160156 202.066406 53.4375 210.941406 43.574219 C 219.816406 33.710938 235.605469 14.089844 235.605469 14.089844 "/>
</g>
<path style="fill:none;stroke-width:1.6;stroke-linecap:round;stroke-linejoin:round;stroke:rgb(0%,0%,50.195312%);stroke-opacity:1;stroke-miterlimit:4;" d="M 183.390625 73.601562 L 237.359375 14.703125 "/>
<path style="fill-rule:nonzero;fill:rgb(0%,0%,100%);fill-opacity:1;stroke-width:0.8;stroke-linecap:round;stroke-linejoin:round;stroke:rgb(0%,0%,50.195312%);stroke-opacity:1;stroke-miterlimit:4;" d="M -209.859375 -43.5 C -209.859375 -42.867188 -210.375 -42.351562 -211.007812 -42.351562 C -211.644531 -42.351562 -212.160156 -42.867188 -212.160156 -43.5 C -212.160156 -44.136719 -211.644531 -44.652344 -211.007812 -44.652344 C -210.375 -44.652344 -209.859375 -44.136719 -209.859375 -43.5 Z M -209.859375 -43.5 " transform="matrix(-1,0,0,-1,0,0)"/>
</g>
</svg>
