<?xml version="1.0" encoding="UTF-8"?>
<svg xmlns="http://www.w3.org/2000/svg" xmlns:xlink="http://www.w3.org/1999/xlink" width="231.68541pt" height="101.401871pt" viewBox="0 0 231.68541 101.401871" version="1.1">
<defs>
<clipPath id="clip1">
  <path d="M 12 4 L 14 4 L 14 101.402344 L 12 101.402344 Z M 12 4 "/>
</clipPath>
<filter id="alpha" filterUnits="objectBoundingBox" x="0%" y="0%" width="100%" height="100%">
  <feColorMatrix type="matrix" in="SourceGraphic" values="0 0 0 0 1 0 0 0 0 1 0 0 0 0 1 0 0 0 1 0"/>
</filter>
<clipPath id="clip2">
  <rect width="64" height="62"/>
</clipPath>
<g id="surface8" clip-path="url(#clip2)">
<rect x="0" y="0" width="64" height="62" style="fill:rgb(0%,0%,0%);fill-opacity:0.8;stroke:none;"/>
</g>
<mask id="mask0">
  <g filter="url(#alpha)">
<use xlink:href="#surface8"/>
  </g>
</mask>
<clipPath id="clip3">
  <rect width="64" height="62"/>
</clipPath>
<g id="surface10" clip-path="url(#clip3)">
<path style=" stroke:none;fill-rule:nonzero;fill:rgb(100%,100%,100%);fill-opacity:1;" d="M 17.832031 31.644531 L 0.546875 31.527344 L 62.871094 0.179688 L 63.179688 61.054688 L 0.621094 49.660156 L 17.910156 49.578125 Z M 17.832031 31.644531 "/>
</g>
<clipPath id="clip4">
  <path d="M 18 81 L 90 81 L 90 101.402344 L 18 101.402344 Z M 18 81 "/>
</clipPath>
<clipPath id="clip5">
  <path d="M 35 81 L 150 81 L 150 101.402344 L 35 101.402344 Z M 35 81 "/>
</clipPath>
<clipPath id="clip6">
  <rect width="64" height="62"/>
</clipPath>
<g id="surface14" clip-path="url(#clip6)">
<rect x="0" y="0" width="64" height="62" style="fill:rgb(0%,0%,0%);fill-opacity:0.8;stroke:none;"/>
</g>
<mask id="mask1">
  <g filter="url(#alpha)">
<use xlink:href="#surface14"/>
  </g>
</mask>
<clipPath id="clip7">
  <rect width="64" height="62"/>
</clipPath>
<g id="surface11" clip-path="url(#clip7)">
<path style=" stroke:none;fill-rule:nonzero;fill:rgb(100%,100%,100%);fill-opacity:1;" d="M 18.210938 31.761719 L 0.925781 31.644531 L 63.246094 0.296875 L 63.558594 61.171875 L 1 49.777344 L 18.289062 49.695312 Z M 18.210938 31.761719 "/>
</g>
<clipPath id="clip8">
  <path d="M 120 20 L 231.683594 20 L 231.683594 61 L 120 61 Z M 120 20 "/>
</clipPath>
<clipPath id="clip9">
  <path d="M 120 69 L 231.683594 69 L 231.683594 90 L 120 90 Z M 120 69 "/>
</clipPath>
<clipPath id="clip10">
  <path d="M 170 24 L 231.683594 24 L 231.683594 86 L 170 86 Z M 170 24 "/>
</clipPath>
<clipPath id="clip11">
  <path d="M 170 23 L 231.683594 23 L 231.683594 86 L 170 86 Z M 170 23 "/>
</clipPath>
<clipPath id="clip12">
  <path d="M 162 23 L 231.683594 23 L 231.683594 85 L 162 85 Z M 162 23 "/>
</clipPath>
</defs>
<g id="surface1">
<path style=" stroke:none;fill-rule:nonzero;fill:rgb(0%,0%,0%);fill-opacity:1;" d="M 23.703125 70.90625 L 25.746094 70.90625 C 27.433594 70.90625 29.101562 69.667969 29.101562 68.335938 C 29.101562 67.398438 28.316406 66.519531 26.738281 66.519531 L 22.878906 66.519531 C 22.652344 66.519531 22.519531 66.519531 22.519531 66.742188 C 22.519531 66.894531 22.613281 66.894531 22.859375 66.894531 C 23.007812 66.894531 23.234375 66.910156 23.363281 66.910156 C 23.570312 66.949219 23.628906 66.96875 23.628906 67.117188 C 23.628906 67.15625 23.628906 67.191406 23.589844 67.34375 L 21.976562 73.753906 C 21.863281 74.222656 21.847656 74.316406 20.890625 74.316406 C 20.703125 74.316406 20.570312 74.316406 20.570312 74.542969 C 20.570312 74.691406 20.703125 74.691406 20.738281 74.691406 C 21.078125 74.691406 21.921875 74.65625 22.257812 74.65625 C 22.519531 74.65625 22.785156 74.675781 23.027344 74.675781 C 23.289062 74.675781 23.550781 74.691406 23.796875 74.691406 C 23.890625 74.691406 24.039062 74.691406 24.039062 74.449219 C 24.039062 74.316406 23.925781 74.316406 23.703125 74.316406 C 23.269531 74.316406 22.933594 74.316406 22.933594 74.113281 C 22.933594 74.035156 22.953125 73.980469 22.972656 73.90625 Z M 24.566406 67.34375 C 24.675781 66.929688 24.695312 66.894531 25.222656 66.894531 L 26.363281 66.894531 C 27.359375 66.894531 27.996094 67.210938 27.996094 68.035156 C 27.996094 68.503906 27.753906 69.535156 27.285156 69.96875 C 26.683594 70.511719 25.972656 70.605469 25.445312 70.605469 L 23.757812 70.605469 Z M 24.566406 67.34375 "/>
<path style="fill:none;stroke-width:0.8;stroke-linecap:butt;stroke-linejoin:miter;stroke:rgb(0%,0%,0%);stroke-opacity:1;stroke-miterlimit:4;" d="M 13.089844 87.214844 C 30.035156 80.902344 41.894531 66.855469 50.054688 51.34375 C 56.171875 39.410156 62.253906 26.320312 64.5625 13.167969 "/>
<g clip-path="url(#clip1)" clip-rule="nonzero">
<path style="fill:none;stroke-width:0.8;stroke-linecap:round;stroke-linejoin:round;stroke:rgb(100%,0%,0%);stroke-opacity:1;stroke-miterlimit:4;" d="M 13.09375 4.734375 L 13.09375 100.984375 "/>
</g>
<path style="fill:none;stroke-width:0.8;stroke-linecap:round;stroke-linejoin:round;stroke:rgb(100%,0%,0%);stroke-opacity:1;stroke-miterlimit:4;" d="M 0.46875 87.484375 L 61.59375 87.484375 "/>
<path style=" stroke:none;fill-rule:nonzero;fill:rgb(0%,0%,0%);fill-opacity:1;" d="M 21.996094 5.628906 C 22.050781 5.460938 22.050781 5.441406 22.050781 5.347656 C 22.050781 5.140625 21.882812 5.03125 21.695312 5.03125 C 21.582031 5.03125 21.394531 5.105469 21.28125 5.273438 C 21.261719 5.347656 21.152344 5.703125 21.113281 5.929688 C 21.019531 6.230469 20.945312 6.566406 20.871094 6.886719 L 20.324219 9.042969 C 20.289062 9.210938 19.761719 10.054688 18.976562 10.054688 C 18.375 10.054688 18.246094 9.53125 18.246094 9.078125 C 18.246094 8.535156 18.449219 7.785156 18.84375 6.734375 C 19.03125 6.25 19.089844 6.117188 19.089844 5.875 C 19.089844 5.347656 18.714844 4.898438 18.113281 4.898438 C 16.96875 4.898438 16.539062 6.640625 16.539062 6.734375 C 16.539062 6.867188 16.652344 6.867188 16.667969 6.867188 C 16.800781 6.867188 16.800781 6.828125 16.855469 6.640625 C 17.195312 5.515625 17.664062 5.160156 18.074219 5.160156 C 18.167969 5.160156 18.375 5.160156 18.375 5.535156 C 18.375 5.835938 18.246094 6.15625 18.167969 6.378906 C 17.683594 7.65625 17.476562 8.328125 17.476562 8.890625 C 17.476562 9.960938 18.226562 10.316406 18.9375 10.316406 C 19.40625 10.316406 19.800781 10.109375 20.136719 9.773438 C 19.988281 10.390625 19.839844 10.992188 19.371094 11.628906 C 19.050781 12.023438 18.601562 12.378906 18.058594 12.378906 C 17.886719 12.378906 17.34375 12.34375 17.136719 11.875 C 17.324219 11.875 17.496094 11.875 17.644531 11.722656 C 17.777344 11.628906 17.886719 11.460938 17.886719 11.234375 C 17.886719 10.859375 17.570312 10.824219 17.457031 10.824219 C 17.175781 10.824219 16.78125 11.011719 16.78125 11.59375 C 16.78125 12.191406 17.308594 12.640625 18.058594 12.640625 C 19.277344 12.640625 20.511719 11.554688 20.851562 10.203125 Z M 21.996094 5.628906 "/>
<path style=" stroke:none;fill-rule:nonzero;fill:rgb(0%,0%,0%);fill-opacity:1;" d="M 59.714844 92.734375 C 59.789062 92.433594 60.070312 91.328125 60.894531 91.328125 C 60.949219 91.328125 61.25 91.328125 61.496094 91.476562 C 61.15625 91.550781 60.933594 91.832031 60.933594 92.132812 C 60.933594 92.320312 61.0625 92.546875 61.382812 92.546875 C 61.644531 92.546875 62.019531 92.339844 62.019531 91.851562 C 62.019531 91.234375 61.324219 91.0625 60.914062 91.0625 C 60.21875 91.0625 59.808594 91.703125 59.65625 91.964844 C 59.355469 91.175781 58.71875 91.0625 58.363281 91.0625 C 57.125 91.0625 56.433594 92.601562 56.433594 92.902344 C 56.433594 93.03125 56.5625 93.03125 56.582031 93.03125 C 56.675781 93.03125 56.714844 92.996094 56.730469 92.902344 C 57.144531 91.625 57.933594 91.328125 58.34375 91.328125 C 58.570312 91.328125 58.980469 91.4375 58.980469 92.132812 C 58.980469 92.507812 58.777344 93.296875 58.34375 94.984375 C 58.15625 95.714844 57.726562 96.21875 57.199219 96.21875 C 57.125 96.21875 56.863281 96.21875 56.601562 96.070312 C 56.902344 95.996094 57.164062 95.75 57.164062 95.414062 C 57.164062 95.09375 56.902344 95 56.730469 95 C 56.355469 95 56.074219 95.300781 56.074219 95.695312 C 56.074219 96.238281 56.65625 96.484375 57.183594 96.484375 C 57.988281 96.484375 58.417969 95.640625 58.4375 95.582031 C 58.589844 96.015625 59.019531 96.484375 59.730469 96.484375 C 60.96875 96.484375 61.644531 94.945312 61.644531 94.644531 C 61.644531 94.515625 61.550781 94.515625 61.511719 94.515625 C 61.402344 94.515625 61.382812 94.570312 61.34375 94.644531 C 60.949219 95.9375 60.144531 96.21875 59.769531 96.21875 C 59.300781 96.21875 59.113281 95.84375 59.113281 95.433594 C 59.113281 95.171875 59.167969 94.90625 59.300781 94.382812 Z M 59.714844 92.734375 "/>
<path style=" stroke:none;fill-rule:nonzero;fill:rgb(0%,0%,0%);fill-opacity:1;" d="M 74.390625 5.332031 C 74.445312 5.164062 74.445312 5.144531 74.445312 5.050781 C 74.445312 4.84375 74.277344 4.734375 74.089844 4.734375 C 73.976562 4.734375 73.789062 4.808594 73.675781 4.976562 C 73.660156 5.050781 73.546875 5.40625 73.507812 5.632812 C 73.414062 5.933594 73.339844 6.269531 73.265625 6.589844 L 72.722656 8.746094 C 72.683594 8.914062 72.160156 9.757812 71.371094 9.757812 C 70.769531 9.757812 70.640625 9.234375 70.640625 8.78125 C 70.640625 8.238281 70.847656 7.488281 71.238281 6.4375 C 71.425781 5.953125 71.484375 5.820312 71.484375 5.578125 C 71.484375 5.050781 71.109375 4.601562 70.507812 4.601562 C 69.363281 4.601562 68.933594 6.34375 68.933594 6.4375 C 68.933594 6.570312 69.046875 6.570312 69.066406 6.570312 C 69.195312 6.570312 69.195312 6.53125 69.253906 6.34375 C 69.589844 5.21875 70.058594 4.863281 70.472656 4.863281 C 70.566406 4.863281 70.769531 4.863281 70.769531 5.238281 C 70.769531 5.539062 70.640625 5.859375 70.566406 6.082031 C 70.078125 7.359375 69.871094 8.03125 69.871094 8.59375 C 69.871094 9.664062 70.621094 10.019531 71.332031 10.019531 C 71.800781 10.019531 72.195312 9.8125 72.535156 9.476562 C 72.382812 10.09375 72.234375 10.695312 71.765625 11.332031 C 71.445312 11.726562 70.996094 12.082031 70.453125 12.082031 C 70.285156 12.082031 69.738281 12.046875 69.535156 11.578125 C 69.722656 11.578125 69.890625 11.578125 70.039062 11.425781 C 70.171875 11.332031 70.285156 11.164062 70.285156 10.9375 C 70.285156 10.5625 69.964844 10.527344 69.851562 10.527344 C 69.570312 10.527344 69.175781 10.714844 69.175781 11.296875 C 69.175781 11.894531 69.703125 12.34375 70.453125 12.34375 C 71.671875 12.34375 72.910156 11.257812 73.246094 9.90625 Z M 74.390625 5.332031 "/>
<path style=" stroke:none;fill-rule:nonzero;fill:rgb(0%,0%,0%);fill-opacity:1;" d="M 86.402344 5.96875 C 86.589844 5.96875 86.8125 5.96875 86.8125 5.746094 C 86.8125 5.5 86.589844 5.5 86.417969 5.5 L 79.257812 5.5 C 79.089844 5.5 78.863281 5.5 78.863281 5.746094 C 78.863281 5.96875 79.089844 5.96875 79.257812 5.96875 Z M 86.417969 8.296875 C 86.589844 8.296875 86.8125 8.296875 86.8125 8.050781 C 86.8125 7.828125 86.589844 7.828125 86.402344 7.828125 L 79.257812 7.828125 C 79.089844 7.828125 78.863281 7.828125 78.863281 8.050781 C 78.863281 8.296875 79.089844 8.296875 79.257812 8.296875 Z M 86.417969 8.296875 "/>
<path style=" stroke:none;fill-rule:nonzero;fill:rgb(0%,0%,0%);fill-opacity:1;" d="M 94.800781 6.269531 C 94.875 5.96875 95.15625 4.863281 95.980469 4.863281 C 96.039062 4.863281 96.339844 4.863281 96.582031 5.015625 C 96.246094 5.089844 96.019531 5.371094 96.019531 5.671875 C 96.019531 5.859375 96.152344 6.082031 96.46875 6.082031 C 96.730469 6.082031 97.105469 5.875 97.105469 5.390625 C 97.105469 4.769531 96.414062 4.601562 96 4.601562 C 95.308594 4.601562 94.894531 5.238281 94.746094 5.5 C 94.445312 4.714844 93.808594 4.601562 93.449219 4.601562 C 92.214844 4.601562 91.519531 6.140625 91.519531 6.4375 C 91.519531 6.570312 91.652344 6.570312 91.667969 6.570312 C 91.761719 6.570312 91.800781 6.53125 91.820312 6.4375 C 92.230469 5.164062 93.019531 4.863281 93.433594 4.863281 C 93.65625 4.863281 94.070312 4.976562 94.070312 5.671875 C 94.070312 6.046875 93.863281 6.832031 93.433594 8.519531 C 93.246094 9.25 92.8125 9.757812 92.289062 9.757812 C 92.214844 9.757812 91.949219 9.757812 91.6875 9.609375 C 91.988281 9.53125 92.25 9.289062 92.25 8.953125 C 92.25 8.632812 91.988281 8.539062 91.820312 8.539062 C 91.445312 8.539062 91.164062 8.839844 91.164062 9.234375 C 91.164062 9.777344 91.746094 10.019531 92.269531 10.019531 C 93.074219 10.019531 93.507812 9.175781 93.527344 9.121094 C 93.675781 9.550781 94.105469 10.019531 94.820312 10.019531 C 96.058594 10.019531 96.730469 8.484375 96.730469 8.183594 C 96.730469 8.050781 96.636719 8.050781 96.601562 8.050781 C 96.488281 8.050781 96.46875 8.109375 96.433594 8.183594 C 96.039062 9.476562 95.230469 9.757812 94.855469 9.757812 C 94.386719 9.757812 94.199219 9.382812 94.199219 8.96875 C 94.199219 8.707031 94.257812 8.445312 94.386719 7.921875 Z M 94.800781 6.269531 "/>
<path style=" stroke:none;fill-rule:nonzero;fill:rgb(0%,0%,0%);fill-opacity:1;" d="M 101.859375 4.03125 L 101.578125 4.03125 C 101.558594 4.21875 101.464844 4.707031 101.351562 4.78125 C 101.296875 4.835938 100.660156 4.835938 100.527344 4.835938 L 98.988281 4.835938 C 99.871094 4.070312 100.171875 3.824219 100.660156 3.429688 C 101.277344 2.945312 101.859375 2.417969 101.859375 1.632812 C 101.859375 0.617188 100.976562 0 99.910156 0 C 98.878906 0 98.164062 0.730469 98.164062 1.5 C 98.164062 1.914062 98.519531 1.96875 98.613281 1.96875 C 98.800781 1.96875 99.046875 1.820312 99.046875 1.519531 C 99.046875 1.367188 98.988281 1.070312 98.558594 1.070312 C 98.820312 0.488281 99.382812 0.300781 99.777344 0.300781 C 100.621094 0.300781 101.050781 0.957031 101.050781 1.632812 C 101.050781 2.363281 100.527344 2.925781 100.265625 3.226562 L 98.257812 5.230469 C 98.164062 5.304688 98.164062 5.324219 98.164062 5.550781 L 101.613281 5.550781 Z M 101.859375 4.03125 "/>
<path style="fill:none;stroke-width:1.6;stroke-linecap:round;stroke-linejoin:round;stroke:rgb(0%,0%,50.195312%);stroke-opacity:1;stroke-miterlimit:4;" d="M 25.046875 86.125 L 67.230469 16.835938 "/>
<path style="fill-rule:nonzero;fill:rgb(0%,0%,100%);fill-opacity:1;stroke-width:0.8;stroke-linecap:round;stroke-linejoin:round;stroke:rgb(0%,0%,50.195312%);stroke-opacity:1;stroke-miterlimit:4;" d="M -29.804688 -76.460938 C -29.804688 -75.828125 -30.320312 -75.3125 -30.957031 -75.3125 C -31.59375 -75.3125 -32.109375 -75.828125 -32.109375 -76.460938 C -32.109375 -77.097656 -31.59375 -77.613281 -30.957031 -77.613281 C -30.320312 -77.613281 -29.804688 -77.097656 -29.804688 -76.460938 Z M -29.804688 -76.460938 " transform="matrix(-1,0,0,-1,0,0)"/>
<path style="fill-rule:nonzero;fill:rgb(100%,0%,0%);fill-opacity:1;stroke-width:0.8;stroke-linecap:round;stroke-linejoin:round;stroke:rgb(0%,0%,50.195312%);stroke-opacity:1;stroke-miterlimit:4;" d="M -59.597656 -27.546875 C -59.597656 -26.910156 -60.113281 -26.394531 -60.75 -26.394531 C -61.386719 -26.394531 -61.902344 -26.910156 -61.902344 -27.546875 C -61.902344 -28.183594 -61.386719 -28.699219 -60.75 -28.699219 C -60.113281 -28.699219 -59.597656 -28.183594 -59.597656 -27.546875 Z M -59.597656 -27.546875 " transform="matrix(-1,0,0,-1,0,0)"/>
<use xlink:href="#surface10" transform="matrix(1,0,0,1,22,36)" mask="url(#mask0)"/>
<path style="fill:none;stroke-width:0.8;stroke-linecap:round;stroke-linejoin:miter;stroke:rgb(100%,0%,0%);stroke-opacity:1;stroke-dasharray:1.6,1.6;stroke-miterlimit:4;" d="M 23.171875 67.511719 L 84.824219 36.039062 "/>
<g clip-path="url(#clip4)" clip-rule="nonzero">
<path style="fill:none;stroke-width:0.8;stroke-linecap:round;stroke-linejoin:miter;stroke:rgb(100%,0%,0%);stroke-opacity:1;stroke-dasharray:1.6,1.6;stroke-miterlimit:4;" d="M 22.804688 85.742188 L 84.949219 96.988281 "/>
</g>
<path style="fill:none;stroke-width:0.8;stroke-linecap:round;stroke-linejoin:miter;stroke:rgb(100%,0%,0%);stroke-opacity:1;stroke-dasharray:1.6,1.6;stroke-miterlimit:4;" d="M 39.902344 67.605469 L 145.265625 36.765625 "/>
<g clip-path="url(#clip5)" clip-rule="nonzero">
<path style="fill:none;stroke-width:0.8;stroke-linecap:round;stroke-linejoin:miter;stroke:rgb(100%,0%,0%);stroke-opacity:1;stroke-dasharray:1.6,1.6;stroke-miterlimit:4;" d="M 39.957031 85.671875 L 145.382812 96.742188 "/>
</g>
<path style="fill:none;stroke-width:0.8;stroke-linecap:round;stroke-linejoin:bevel;stroke:rgb(100%,0%,0%);stroke-opacity:1;stroke-dasharray:1.6,1.6;stroke-miterlimit:4;" d="M 22.667969 67.59375 L 39.808594 67.59375 L 39.808594 85.652344 L 22.667969 85.652344 Z M 22.667969 67.59375 "/>
<path style="fill-rule:nonzero;fill:rgb(100%,100%,100%);fill-opacity:1;stroke-width:0.8;stroke-linecap:round;stroke-linejoin:bevel;stroke:rgb(100%,0%,0%);stroke-opacity:1;stroke-dasharray:1.6,1.6;stroke-miterlimit:4;" d="M 85.105469 36.167969 L 145.90625 36.167969 L 145.90625 96.964844 L 85.105469 96.964844 Z M 85.105469 36.167969 "/>
<path style="fill:none;stroke-width:1.6;stroke-linecap:round;stroke-linejoin:miter;stroke:rgb(0%,0%,0%);stroke-opacity:1;stroke-miterlimit:4;" d="M 86.171875 85.289062 C 86.171875 85.289062 106.425781 73.632812 116.605469 65.863281 C 126.785156 58.097656 145.234375 39.820312 145.234375 39.820312 "/>
<path style="fill:none;stroke-width:1.6;stroke-linecap:round;stroke-linejoin:round;stroke:rgb(0%,0%,50.195312%);stroke-opacity:1;stroke-miterlimit:4;" d="M 97.050781 95.671875 L 134.71875 37.105469 "/>
<path style="fill-rule:nonzero;fill:rgb(0%,0%,100%);fill-opacity:1;stroke-width:0.8;stroke-linecap:round;stroke-linejoin:round;stroke:rgb(0%,0%,50.195312%);stroke-opacity:1;stroke-miterlimit:4;" d="M -115.171875 -65.898438 C -115.171875 -65.261719 -115.6875 -64.746094 -116.324219 -64.746094 C -116.960938 -64.746094 -117.476562 -65.261719 -117.476562 -65.898438 C -117.476562 -66.53125 -116.960938 -67.046875 -116.324219 -67.046875 C -115.6875 -67.046875 -115.171875 -66.53125 -115.171875 -65.898438 Z M -115.171875 -65.898438 " transform="matrix(-1,0,0,-1,0,0)"/>
<use xlink:href="#surface11" transform="matrix(1,0,0,1,107,24)" mask="url(#mask1)"/>
<path style="fill:none;stroke-width:0.8;stroke-linecap:round;stroke-linejoin:miter;stroke:rgb(100%,0%,0%);stroke-opacity:1;stroke-dasharray:1.6,1.6;stroke-miterlimit:4;" d="M 108.550781 55.628906 L 170.203125 24.15625 "/>
<path style="fill:none;stroke-width:0.8;stroke-linecap:round;stroke-linejoin:miter;stroke:rgb(100%,0%,0%);stroke-opacity:1;stroke-dasharray:1.6,1.6;stroke-miterlimit:4;" d="M 108.179688 73.863281 L 170.328125 85.109375 "/>
<g clip-path="url(#clip8)" clip-rule="nonzero">
<path style="fill:none;stroke-width:0.8;stroke-linecap:round;stroke-linejoin:miter;stroke:rgb(100%,0%,0%);stroke-opacity:1;stroke-dasharray:1.6,1.6;stroke-miterlimit:4;" d="M 125.277344 55.722656 L 230.644531 24.882812 "/>
</g>
<g clip-path="url(#clip9)" clip-rule="nonzero">
<path style="fill:none;stroke-width:0.8;stroke-linecap:round;stroke-linejoin:miter;stroke:rgb(100%,0%,0%);stroke-opacity:1;stroke-dasharray:1.6,1.6;stroke-miterlimit:4;" d="M 125.335938 73.789062 L 230.761719 84.859375 "/>
</g>
<path style="fill:none;stroke-width:0.8;stroke-linecap:round;stroke-linejoin:bevel;stroke:rgb(100%,0%,0%);stroke-opacity:1;stroke-dasharray:1.6,1.6;stroke-miterlimit:4;" d="M 108.046875 55.710938 L 125.1875 55.710938 L 125.1875 73.769531 L 108.046875 73.769531 Z M 108.046875 55.710938 "/>
<g clip-path="url(#clip10)" clip-rule="nonzero">
<path style=" stroke:none;fill-rule:nonzero;fill:rgb(100%,100%,100%);fill-opacity:1;" d="M 170.484375 24.285156 L 231.285156 24.285156 L 231.285156 85.085938 L 170.484375 85.085938 Z M 170.484375 24.285156 "/>
</g>
<g clip-path="url(#clip11)" clip-rule="nonzero">
<path style="fill:none;stroke-width:0.8;stroke-linecap:round;stroke-linejoin:bevel;stroke:rgb(100%,0%,0%);stroke-opacity:1;stroke-dasharray:1.6,1.6;stroke-miterlimit:4;" d="M 170.484375 24.285156 L 231.285156 24.285156 L 231.285156 85.085938 L 170.484375 85.085938 Z M 170.484375 24.285156 "/>
</g>
<g clip-path="url(#clip12)" clip-rule="nonzero">
<path style="fill:none;stroke-width:1.6;stroke-linecap:round;stroke-linejoin:miter;stroke:rgb(0%,0%,0%);stroke-opacity:1;stroke-miterlimit:4;" d="M 171.566406 75.574219 C 171.566406 75.574219 191.835938 61.609375 201.914062 54.3125 C 211.992188 47.015625 230.382812 33.042969 230.382812 33.042969 "/>
</g>
<path style="fill:none;stroke-width:1.6;stroke-linecap:round;stroke-linejoin:round;stroke:rgb(0%,0%,50.195312%);stroke-opacity:1;stroke-miterlimit:4;" d="M 185.0625 84.351562 L 218.125 25.175781 "/>
<path style="fill-rule:nonzero;fill:rgb(0%,0%,100%);fill-opacity:1;stroke-width:0.8;stroke-linecap:round;stroke-linejoin:round;stroke:rgb(0%,0%,50.195312%);stroke-opacity:1;stroke-miterlimit:4;" d="M -200.828125 -54.0625 C -200.828125 -53.425781 -201.34375 -52.910156 -201.980469 -52.910156 C -202.617188 -52.910156 -203.132812 -53.425781 -203.132812 -54.0625 C -203.132812 -54.699219 -202.617188 -55.214844 -201.980469 -55.214844 C -201.34375 -55.214844 -200.828125 -54.699219 -200.828125 -54.0625 Z M -200.828125 -54.0625 " transform="matrix(-1,0,0,-1,0,0)"/>
</g>
</svg>
