<?xml version="1.0" encoding="UTF-8"?>
<svg xmlns="http://www.w3.org/2000/svg" xmlns:xlink="http://www.w3.org/1999/xlink" width="369.019226pt" height="100.012741pt" viewBox="0 0 369.019226 100.012741" version="1.1">
<defs>
<filter id="alpha" filterUnits="objectBoundingBox" x="0%" y="0%" width="100%" height="100%">
  <feColorMatrix type="matrix" in="SourceGraphic" values="0 0 0 0 1 0 0 0 0 1 0 0 0 0 1 0 0 0 1 0"/>
</filter>
<clipPath id="clip1">
  <rect width="101" height="62"/>
</clipPath>
<g id="surface11" clip-path="url(#clip1)">
<rect x="0" y="0" width="101" height="62" style="fill:rgb(0%,0%,0%);fill-opacity:0.8;stroke:none;"/>
</g>
<mask id="mask0">
  <g filter="url(#alpha)">
<use xlink:href="#surface11"/>
  </g>
</mask>
<clipPath id="clip3">
  <rect width="101" height="62"/>
</clipPath>
<g id="surface8" clip-path="url(#clip3)">
<path style=" stroke:none;fill-rule:nonzero;fill:rgb(100%,100%,100%);fill-opacity:1;" d="M 18.253906 12.089844 L 1.328125 12.332031 L 100.527344 0.796875 L 100.597656 61.230469 L 0.84375 30.226562 L 18.253906 29.984375 Z M 18.253906 12.089844 "/>
</g>
<clipPath id="clip2">
  <rect width="101" height="62"/>
</clipPath>
<g id="surface13" clip-path="url(#clip2)">
<use xlink:href="#surface8"/>
</g>
<clipPath id="clip4">
  <rect width="75" height="62"/>
</clipPath>
<g id="surface20" clip-path="url(#clip4)">
<rect x="0" y="0" width="75" height="62" style="fill:rgb(0%,0%,0%);fill-opacity:0.8;stroke:none;"/>
</g>
<mask id="mask1">
  <g filter="url(#alpha)">
<use xlink:href="#surface20"/>
  </g>
</mask>
<clipPath id="clip6">
  <rect width="75" height="62"/>
</clipPath>
<g id="surface17" clip-path="url(#clip6)">
<path style=" stroke:none;fill-rule:nonzero;fill:rgb(100%,100%,100%);fill-opacity:1;" d="M 17.738281 24.96875 L 0.8125 25.210938 L 74.480469 0.761719 L 74.398438 61.644531 L 0.328125 43.105469 L 17.738281 42.863281 Z M 17.738281 24.96875 "/>
</g>
<clipPath id="clip5">
  <rect width="75" height="62"/>
</clipPath>
<g id="surface14" clip-path="url(#clip5)">
<use xlink:href="#surface17"/>
</g>
<clipPath id="clip7">
  <path d="M 17 76 L 101 76 L 101 100.011719 L 17 100.011719 Z M 17 76 "/>
</clipPath>
<clipPath id="clip8">
  <path d="M 35 76 L 162 76 L 162 100.011719 L 35 100.011719 Z M 35 76 "/>
</clipPath>
<clipPath id="clip9">
  <path d="M 220 29 L 369.019531 29 L 369.019531 51 L 220 51 Z M 220 29 "/>
</clipPath>
<clipPath id="clip10">
  <path d="M 221 58 L 369.019531 58 L 369.019531 99 L 221 99 Z M 221 58 "/>
</clipPath>
<clipPath id="clip11">
  <path d="M 302 50 L 369.019531 50 L 369.019531 92 L 302 92 Z M 302 50 "/>
</clipPath>
</defs>
<g id="surface1">
<path style="fill:none;stroke-width:0.8;stroke-linecap:butt;stroke-linejoin:miter;stroke:rgb(0%,0%,0%);stroke-opacity:1;stroke-miterlimit:4;" d="M 194.460938 83.371094 C 194.460938 83.371094 206.589844 55.082031 217.894531 53.453125 C 229.199219 51.820312 224.371094 78.890625 242.535156 76.773438 C 260.699219 74.65625 278.0625 13.410156 278.0625 13.410156 "/>
<path style="fill:none;stroke-width:0.8;stroke-linecap:round;stroke-linejoin:round;stroke:rgb(100%,0%,0%);stroke-opacity:1;stroke-miterlimit:4;" d="M 194.160156 0.488281 L 194.160156 96.738281 "/>
<path style="fill:none;stroke-width:0.8;stroke-linecap:round;stroke-linejoin:round;stroke:rgb(100%,0%,0%);stroke-opacity:1;stroke-miterlimit:4;" d="M 181.535156 83.238281 L 292.242188 83.238281 "/>
<path style=" stroke:none;fill-rule:nonzero;fill:rgb(0%,0%,0%);fill-opacity:1;" d="M 203.0625 1.382812 C 203.117188 1.214844 203.117188 1.195312 203.117188 1.101562 C 203.117188 0.894531 202.949219 0.785156 202.761719 0.785156 C 202.648438 0.785156 202.460938 0.859375 202.347656 1.027344 C 202.328125 1.101562 202.21875 1.457031 202.179688 1.683594 C 202.085938 1.984375 202.011719 2.320312 201.9375 2.640625 L 201.390625 4.796875 C 201.355469 4.964844 200.828125 5.808594 200.042969 5.808594 C 199.441406 5.808594 199.3125 5.285156 199.3125 4.832031 C 199.3125 4.289062 199.515625 3.539062 199.910156 2.488281 C 200.097656 2.003906 200.15625 1.871094 200.15625 1.628906 C 200.15625 1.101562 199.78125 0.652344 199.179688 0.652344 C 198.035156 0.652344 197.605469 2.394531 197.605469 2.488281 C 197.605469 2.621094 197.71875 2.621094 197.734375 2.621094 C 197.867188 2.621094 197.867188 2.582031 197.921875 2.394531 C 198.261719 1.269531 198.730469 0.914062 199.140625 0.914062 C 199.234375 0.914062 199.441406 0.914062 199.441406 1.289062 C 199.441406 1.589844 199.3125 1.910156 199.234375 2.132812 C 198.75 3.410156 198.542969 4.082031 198.542969 4.644531 C 198.542969 5.714844 199.292969 6.070312 200.003906 6.070312 C 200.472656 6.070312 200.867188 5.863281 201.203125 5.527344 C 201.054688 6.144531 200.90625 6.746094 200.4375 7.382812 C 200.117188 7.777344 199.667969 8.132812 199.125 8.132812 C 198.953125 8.132812 198.410156 8.097656 198.203125 7.628906 C 198.390625 7.628906 198.5625 7.628906 198.710938 7.476562 C 198.84375 7.382812 198.953125 7.214844 198.953125 6.988281 C 198.953125 6.613281 198.636719 6.578125 198.523438 6.578125 C 198.242188 6.578125 197.847656 6.765625 197.847656 7.347656 C 197.847656 7.945312 198.375 8.394531 199.125 8.394531 C 200.34375 8.394531 201.578125 7.308594 201.917969 5.957031 Z M 203.0625 1.382812 "/>
<path style=" stroke:none;fill-rule:nonzero;fill:rgb(0%,0%,0%);fill-opacity:1;" d="M 289.328125 88.226562 C 289.40625 87.929688 289.6875 86.820312 290.511719 86.820312 C 290.566406 86.820312 290.867188 86.820312 291.109375 86.972656 C 290.773438 87.046875 290.546875 87.328125 290.546875 87.628906 C 290.546875 87.816406 290.679688 88.039062 291 88.039062 C 291.261719 88.039062 291.636719 87.835938 291.636719 87.347656 C 291.636719 86.726562 290.941406 86.558594 290.53125 86.558594 C 289.835938 86.558594 289.421875 87.195312 289.273438 87.460938 C 288.972656 86.671875 288.335938 86.558594 287.980469 86.558594 C 286.742188 86.558594 286.046875 88.097656 286.046875 88.398438 C 286.046875 88.527344 286.179688 88.527344 286.199219 88.527344 C 286.292969 88.527344 286.328125 88.492188 286.347656 88.398438 C 286.761719 87.121094 287.546875 86.820312 287.960938 86.820312 C 288.1875 86.820312 288.597656 86.933594 288.597656 87.628906 C 288.597656 88.003906 288.390625 88.789062 287.960938 90.476562 C 287.773438 91.210938 287.34375 91.714844 286.816406 91.714844 C 286.742188 91.714844 286.480469 91.714844 286.21875 91.566406 C 286.515625 91.492188 286.78125 91.246094 286.78125 90.910156 C 286.78125 90.589844 286.515625 90.496094 286.347656 90.496094 C 285.972656 90.496094 285.691406 90.796875 285.691406 91.191406 C 285.691406 91.734375 286.273438 91.976562 286.796875 91.976562 C 287.605469 91.976562 288.035156 91.132812 288.054688 91.078125 C 288.203125 91.507812 288.636719 91.976562 289.347656 91.976562 C 290.585938 91.976562 291.261719 90.441406 291.261719 90.140625 C 291.261719 90.007812 291.167969 90.007812 291.128906 90.007812 C 291.015625 90.007812 291 90.066406 290.960938 90.140625 C 290.566406 91.433594 289.761719 91.714844 289.386719 91.714844 C 288.917969 91.714844 288.730469 91.339844 288.730469 90.929688 C 288.730469 90.664062 288.785156 90.402344 288.917969 89.878906 Z M 289.328125 88.226562 "/>
<path style="fill:none;stroke-width:1.6;stroke-linecap:round;stroke-linejoin:round;stroke:rgb(0%,0%,50.195312%);stroke-opacity:1;stroke-miterlimit:4;" d="M 285.3125 28.355469 L 199.527344 60.386719 "/>
<path style="fill-rule:nonzero;fill:rgb(100%,0%,0%);fill-opacity:1;stroke-width:0.8;stroke-linecap:round;stroke-linejoin:round;stroke:rgb(0%,0%,50.195312%);stroke-opacity:1;stroke-miterlimit:4;" d="M -270.328125 33.480469 C -270.328125 34.089844 -270.824219 34.582031 -271.433594 34.582031 C -272.042969 34.582031 -272.539062 34.089844 -272.539062 33.480469 C -272.539062 32.867188 -272.042969 32.375 -271.433594 32.375 C -270.824219 32.375 -270.328125 32.867188 -270.328125 33.480469 Z M -270.328125 33.480469 " transform="matrix(-1,0,0,1,0,0)"/>
<path style="fill-rule:nonzero;fill:rgb(0%,0%,100%);fill-opacity:1;stroke-width:0.8;stroke-linecap:round;stroke-linejoin:round;stroke:rgb(0%,0%,50.195312%);stroke-opacity:1;stroke-miterlimit:4;" d="M -214.988281 -54.015625 C -214.988281 -53.382812 -215.503906 -52.867188 -216.140625 -52.867188 C -216.777344 -52.867188 -217.292969 -53.382812 -217.292969 -54.015625 C -217.292969 -54.652344 -216.777344 -55.167969 -216.140625 -55.167969 C -215.503906 -55.167969 -214.988281 -54.652344 -214.988281 -54.015625 Z M -214.988281 -54.015625 " transform="matrix(-1,0,0,-1,0,0)"/>
<use xlink:href="#surface13" transform="matrix(1,0,0,1,207,33)" mask="url(#mask0)"/>
<path style="fill:none;stroke-width:0.8;stroke-linecap:round;stroke-linejoin:bevel;stroke:rgb(100%,0%,0%);stroke-opacity:1;stroke-dasharray:1.6,1.6;stroke-miterlimit:4;" d="M 208.152344 45.117188 L 225.296875 45.117188 L 225.296875 63.171875 L 208.152344 63.171875 Z M 208.152344 45.117188 "/>
<path style="fill:none;stroke-width:0.8;stroke-linecap:butt;stroke-linejoin:miter;stroke:rgb(0%,0%,0%);stroke-opacity:1;stroke-miterlimit:4;" d="M 13.066406 82.894531 C 30.007812 76.585938 41.871094 62.535156 50.03125 47.023438 C 56.148438 35.089844 62.230469 22 64.539062 8.847656 "/>
<path style="fill:none;stroke-width:0.8;stroke-linecap:round;stroke-linejoin:round;stroke:rgb(100%,0%,0%);stroke-opacity:1;stroke-miterlimit:4;" d="M 13.070312 0.417969 L 13.070312 96.667969 "/>
<path style="fill:none;stroke-width:0.8;stroke-linecap:round;stroke-linejoin:round;stroke:rgb(100%,0%,0%);stroke-opacity:1;stroke-miterlimit:4;" d="M 0.445312 83.167969 L 61.570312 83.167969 "/>
<path style=" stroke:none;fill-rule:nonzero;fill:rgb(0%,0%,0%);fill-opacity:1;" d="M 21.96875 1.308594 C 22.027344 1.140625 22.027344 1.121094 22.027344 1.027344 C 22.027344 0.824219 21.859375 0.710938 21.671875 0.710938 C 21.558594 0.710938 21.371094 0.785156 21.257812 0.953125 C 21.238281 1.027344 21.125 1.386719 21.089844 1.609375 C 20.996094 1.910156 20.921875 2.246094 20.84375 2.566406 L 20.300781 4.722656 C 20.265625 4.890625 19.738281 5.734375 18.953125 5.734375 C 18.351562 5.734375 18.21875 5.210938 18.21875 4.761719 C 18.21875 4.214844 18.425781 3.464844 18.820312 2.417969 C 19.007812 1.929688 19.0625 1.796875 19.0625 1.554688 C 19.0625 1.027344 18.6875 0.578125 18.089844 0.578125 C 16.945312 0.578125 16.515625 2.324219 16.515625 2.417969 C 16.515625 2.546875 16.625 2.546875 16.644531 2.546875 C 16.777344 2.546875 16.777344 2.511719 16.832031 2.324219 C 17.171875 1.199219 17.640625 0.839844 18.050781 0.839844 C 18.144531 0.839844 18.351562 0.839844 18.351562 1.214844 C 18.351562 1.515625 18.21875 1.835938 18.144531 2.058594 C 17.65625 3.335938 17.453125 4.011719 17.453125 4.574219 C 17.453125 5.640625 18.203125 5.996094 18.914062 5.996094 C 19.382812 5.996094 19.777344 5.792969 20.113281 5.453125 C 19.964844 6.074219 19.8125 6.671875 19.34375 7.308594 C 19.027344 7.703125 18.578125 8.058594 18.03125 8.058594 C 17.863281 8.058594 17.320312 8.023438 17.113281 7.554688 C 17.300781 7.554688 17.46875 7.554688 17.621094 7.402344 C 17.75 7.308594 17.863281 7.140625 17.863281 6.917969 C 17.863281 6.542969 17.546875 6.503906 17.433594 6.503906 C 17.152344 6.503906 16.757812 6.691406 16.757812 7.273438 C 16.757812 7.871094 17.28125 8.324219 18.03125 8.324219 C 19.25 8.324219 20.488281 7.234375 20.828125 5.886719 Z M 21.96875 1.308594 "/>
<path style=" stroke:none;fill-rule:nonzero;fill:rgb(0%,0%,0%);fill-opacity:1;" d="M 59.691406 88.414062 C 59.765625 88.113281 60.046875 87.007812 60.871094 87.007812 C 60.925781 87.007812 61.226562 87.007812 61.472656 87.15625 C 61.132812 87.230469 60.910156 87.511719 60.910156 87.8125 C 60.910156 88 61.039062 88.226562 61.359375 88.226562 C 61.621094 88.226562 61.996094 88.019531 61.996094 87.53125 C 61.996094 86.914062 61.300781 86.746094 60.890625 86.746094 C 60.195312 86.746094 59.785156 87.382812 59.632812 87.644531 C 59.332031 86.855469 58.695312 86.746094 58.339844 86.746094 C 57.101562 86.746094 56.410156 88.28125 56.410156 88.582031 C 56.410156 88.714844 56.539062 88.714844 56.558594 88.714844 C 56.652344 88.714844 56.691406 88.675781 56.707031 88.582031 C 57.121094 87.308594 57.910156 87.007812 58.320312 87.007812 C 58.546875 87.007812 58.957031 87.121094 58.957031 87.8125 C 58.957031 88.1875 58.753906 88.976562 58.320312 90.664062 C 58.132812 91.394531 57.703125 91.902344 57.175781 91.902344 C 57.101562 91.902344 56.839844 91.902344 56.578125 91.75 C 56.878906 91.675781 57.140625 91.433594 57.140625 91.09375 C 57.140625 90.777344 56.878906 90.683594 56.707031 90.683594 C 56.332031 90.683594 56.050781 90.980469 56.050781 91.375 C 56.050781 91.917969 56.632812 92.164062 57.160156 92.164062 C 57.964844 92.164062 58.394531 91.320312 58.414062 91.261719 C 58.566406 91.695312 58.996094 92.164062 59.707031 92.164062 C 60.945312 92.164062 61.621094 90.625 61.621094 90.324219 C 61.621094 90.195312 61.527344 90.195312 61.488281 90.195312 C 61.378906 90.195312 61.359375 90.25 61.320312 90.324219 C 60.925781 91.621094 60.121094 91.902344 59.746094 91.902344 C 59.277344 91.902344 59.089844 91.527344 59.089844 91.113281 C 59.089844 90.851562 59.144531 90.589844 59.277344 90.0625 Z M 59.691406 88.414062 "/>
<path style="fill:none;stroke-width:1.6;stroke-linecap:round;stroke-linejoin:round;stroke:rgb(0%,0%,50.195312%);stroke-opacity:1;stroke-miterlimit:4;" d="M 27.546875 77.753906 L 67.207031 12.515625 "/>
<path style="fill-rule:nonzero;fill:rgb(0%,0%,100%);fill-opacity:1;stroke-width:0.8;stroke-linecap:round;stroke-linejoin:round;stroke:rgb(0%,0%,50.195312%);stroke-opacity:1;stroke-miterlimit:4;" d="M -29.78125 -72.144531 C -29.78125 -71.507812 -30.296875 -70.992188 -30.933594 -70.992188 C -31.566406 -70.992188 -32.082031 -71.507812 -32.082031 -72.144531 C -32.082031 -72.78125 -31.566406 -73.296875 -30.933594 -73.296875 C -30.296875 -73.296875 -29.78125 -72.78125 -29.78125 -72.144531 Z M -29.78125 -72.144531 " transform="matrix(-1,0,0,-1,0,0)"/>
<path style="fill-rule:nonzero;fill:rgb(100%,0%,0%);fill-opacity:1;stroke-width:0.8;stroke-linecap:round;stroke-linejoin:round;stroke:rgb(0%,0%,50.195312%);stroke-opacity:1;stroke-miterlimit:4;" d="M -59.574219 -23.226562 C -59.574219 -22.589844 -60.089844 -22.074219 -60.726562 -22.074219 C -61.363281 -22.074219 -61.878906 -22.589844 -61.878906 -23.226562 C -61.878906 -23.863281 -61.363281 -24.378906 -60.726562 -24.378906 C -60.089844 -24.378906 -59.574219 -23.863281 -59.574219 -23.226562 Z M -59.574219 -23.226562 " transform="matrix(-1,0,0,-1,0,0)"/>
<use xlink:href="#surface14" transform="matrix(1,0,0,1,22,38)" mask="url(#mask1)"/>
<path style="fill:none;stroke-width:0.8;stroke-linecap:round;stroke-linejoin:bevel;stroke:rgb(100%,0%,0%);stroke-opacity:1;stroke-dasharray:1.6,1.6;stroke-miterlimit:4;" d="M 22.550781 63.058594 L 39.695312 63.058594 L 39.695312 81.117188 L 22.550781 81.117188 Z M 22.550781 63.058594 "/>
<path style="fill:none;stroke-width:0.8;stroke-linecap:round;stroke-linejoin:miter;stroke:rgb(100%,0%,0%);stroke-opacity:1;stroke-dasharray:1.6,1.6;stroke-miterlimit:4;" d="M 22.902344 62.746094 L 96.132812 38.644531 "/>
<g clip-path="url(#clip7)" clip-rule="nonzero">
<path style="fill:none;stroke-width:0.8;stroke-linecap:round;stroke-linejoin:miter;stroke:rgb(100%,0%,0%);stroke-opacity:1;stroke-dasharray:1.6,1.6;stroke-miterlimit:4;" d="M 22.4375 81.441406 L 96.023438 99.78125 "/>
</g>
<path style="fill:none;stroke-width:0.8;stroke-linecap:round;stroke-linejoin:miter;stroke:rgb(100%,0%,0%);stroke-opacity:1;stroke-dasharray:1.6,1.6;stroke-miterlimit:4;" d="M 39.90625 63.320312 L 157.160156 39.082031 "/>
<g clip-path="url(#clip8)" clip-rule="nonzero">
<path style="fill:none;stroke-width:0.8;stroke-linecap:round;stroke-linejoin:miter;stroke:rgb(100%,0%,0%);stroke-opacity:1;stroke-dasharray:1.6,1.6;stroke-miterlimit:4;" d="M 39.90625 81.003906 L 157.160156 99.128906 "/>
</g>
<path style="fill-rule:nonzero;fill:rgb(100%,100%,100%);fill-opacity:1;stroke-width:0.8;stroke-linecap:round;stroke-linejoin:bevel;stroke:rgb(100%,0%,0%);stroke-opacity:1;stroke-dasharray:1.6,1.6;stroke-miterlimit:4;" d="M 96.515625 38.625 L 157.3125 38.625 L 157.3125 99.421875 L 96.515625 99.421875 Z M 96.515625 38.625 "/>
<path style="fill:none;stroke-width:0.8;stroke-linecap:butt;stroke-linejoin:miter;stroke:rgb(0%,0%,0%);stroke-opacity:1;stroke-miterlimit:4;" d="M 96.785156 90.832031 C 96.785156 90.832031 110.742188 88.253906 124.296875 80.132812 C 137.855469 72.007812 143.300781 64.90625 150.0625 54.804688 C 156.828125 44.699219 156.832031 38.207031 156.832031 38.207031 "/>
<path style="fill:none;stroke-width:1.6;stroke-linecap:round;stroke-linejoin:round;stroke:rgb(0%,0%,50.195312%);stroke-opacity:1;stroke-miterlimit:4;" d="M 110.582031 97.03125 L 145.441406 39.652344 "/>
<path style="fill-rule:nonzero;fill:rgb(0%,0%,100%);fill-opacity:1;stroke-width:0.8;stroke-linecap:round;stroke-linejoin:round;stroke:rgb(0%,0%,50.195312%);stroke-opacity:1;stroke-miterlimit:4;" d="M -117.757812 -83.226562 C -117.757812 -82.589844 -118.273438 -82.074219 -118.910156 -82.074219 C -119.546875 -82.074219 -120.0625 -82.589844 -120.0625 -83.226562 C -120.0625 -83.863281 -119.546875 -84.378906 -118.910156 -84.378906 C -118.273438 -84.378906 -117.757812 -83.863281 -117.757812 -83.226562 Z M -117.757812 -83.226562 " transform="matrix(-1,0,0,-1,0,0)"/>
<path style="fill:none;stroke-width:0.8;stroke-linecap:round;stroke-linejoin:miter;stroke:rgb(100%,0%,0%);stroke-opacity:1;stroke-dasharray:1.6,1.6;stroke-miterlimit:4;" d="M 208.261719 45.230469 L 307.167969 33.984375 "/>
<path style="fill:none;stroke-width:0.8;stroke-linecap:round;stroke-linejoin:miter;stroke:rgb(100%,0%,0%);stroke-opacity:1;stroke-dasharray:1.6,1.6;stroke-miterlimit:4;" d="M 208.054688 63.230469 L 306.960938 94.214844 "/>
<g clip-path="url(#clip9)" clip-rule="nonzero">
<path style="fill:none;stroke-width:0.8;stroke-linecap:round;stroke-linejoin:miter;stroke:rgb(100%,0%,0%);stroke-opacity:1;stroke-dasharray:1.6,1.6;stroke-miterlimit:4;" d="M 224.914062 45.570312 L 368.132812 34.164062 "/>
</g>
<g clip-path="url(#clip10)" clip-rule="nonzero">
<path style="fill:none;stroke-width:0.8;stroke-linecap:round;stroke-linejoin:miter;stroke:rgb(100%,0%,0%);stroke-opacity:1;stroke-dasharray:1.6,1.6;stroke-miterlimit:4;" d="M 225.714844 63.230469 L 367.972656 94.214844 "/>
</g>
<path style="fill-rule:nonzero;fill:rgb(100%,100%,100%);fill-opacity:1;stroke-width:0.8;stroke-linecap:round;stroke-linejoin:bevel;stroke:rgb(100%,0%,0%);stroke-opacity:1;stroke-dasharray:1.6,1.6;stroke-miterlimit:4;" d="M 307.5625 33.902344 L 368.363281 33.902344 L 368.363281 94.703125 L 307.5625 94.703125 Z M 307.5625 33.902344 "/>
<g clip-path="url(#clip11)" clip-rule="nonzero">
<path style="fill:none;stroke-width:0.8;stroke-linecap:butt;stroke-linejoin:miter;stroke:rgb(0%,0%,0%);stroke-opacity:1;stroke-miterlimit:4;" d="M 307.519531 87.390625 C 307.519531 87.390625 317.722656 71.996094 323.414062 66.679688 C 329.109375 61.367188 334.683594 56.167969 340.59375 55.28125 C 346.503906 54.394531 349.847656 55.484375 355.207031 59.617188 C 360.566406 63.746094 368.371094 81.292969 368.371094 81.292969 "/>
</g>
<path style="fill:none;stroke-width:1.6;stroke-linecap:round;stroke-linejoin:round;stroke:rgb(0%,0%,50.195312%);stroke-opacity:1;stroke-miterlimit:4;" d="M 368.160156 44.660156 L 308.097656 66.980469 "/>
<path style="fill-rule:nonzero;fill:rgb(0%,0%,100%);fill-opacity:1;stroke-width:0.8;stroke-linecap:round;stroke-linejoin:round;stroke:rgb(0%,0%,50.195312%);stroke-opacity:1;stroke-miterlimit:4;" d="M -336.421875 -56.003906 C -336.421875 -55.367188 -336.9375 -54.851562 -337.574219 -54.851562 C -338.210938 -54.851562 -338.726562 -55.367188 -338.726562 -56.003906 C -338.726562 -56.640625 -338.210938 -57.15625 -337.574219 -57.15625 C -336.9375 -57.15625 -336.421875 -56.640625 -336.421875 -56.003906 Z M -336.421875 -56.003906 " transform="matrix(-1,0,0,-1,0,0)"/>
</g>
</svg>
