<?xml version="1.0" encoding="UTF-8"?>
<svg xmlns="http://www.w3.org/2000/svg" xmlns:xlink="http://www.w3.org/1999/xlink" width="238.10141pt" height="158.524994pt" viewBox="0 0 238.10141 158.524994" version="1.1">
<defs>
<clipPath id="clip1">
  <path d="M 235 22 L 238.101562 22 L 238.101562 35 L 235 35 Z M 235 22 "/>
</clipPath>
<clipPath id="clip2">
  <path d="M 51 19 L 200 19 L 200 158.523438 L 51 158.523438 Z M 51 19 "/>
</clipPath>
<clipPath id="clip3">
  <path d="M 47 5 L 114 5 L 114 158.523438 L 47 158.523438 Z M 47 5 "/>
</clipPath>
<clipPath id="clip4">
  <path d="M 45 0 L 47 0 L 47 158.523438 L 45 158.523438 Z M 45 0 "/>
</clipPath>
</defs>
<g id="surface1">
<path style=" stroke:none;fill-rule:nonzero;fill:rgb(0%,0%,0%);fill-opacity:1;" d="M 185.816406 147.730469 C 185.894531 147.429688 186.175781 146.324219 187 146.324219 C 187.054688 146.324219 187.355469 146.324219 187.597656 146.472656 C 187.261719 146.546875 187.035156 146.828125 187.035156 147.128906 C 187.035156 147.316406 187.167969 147.542969 187.488281 147.542969 C 187.75 147.542969 188.125 147.335938 188.125 146.847656 C 188.125 146.230469 187.429688 146.0625 187.019531 146.0625 C 186.324219 146.0625 185.910156 146.699219 185.761719 146.960938 C 185.460938 146.171875 184.824219 146.0625 184.46875 146.0625 C 183.230469 146.0625 182.535156 147.597656 182.535156 147.898438 C 182.535156 148.03125 182.667969 148.03125 182.6875 148.03125 C 182.78125 148.03125 182.816406 147.992188 182.835938 147.898438 C 183.25 146.625 184.035156 146.324219 184.449219 146.324219 C 184.675781 146.324219 185.085938 146.4375 185.085938 147.128906 C 185.085938 147.503906 184.878906 148.292969 184.449219 149.980469 C 184.261719 150.710938 183.832031 151.21875 183.304688 151.21875 C 183.230469 151.21875 182.96875 151.21875 182.707031 151.066406 C 183.003906 150.992188 183.269531 150.75 183.269531 150.410156 C 183.269531 150.09375 183.003906 150 182.835938 150 C 182.460938 150 182.179688 150.296875 182.179688 150.691406 C 182.179688 151.234375 182.761719 151.480469 183.285156 151.480469 C 184.09375 151.480469 184.523438 150.636719 184.542969 150.578125 C 184.691406 151.011719 185.125 151.480469 185.835938 151.480469 C 187.074219 151.480469 187.75 149.941406 187.75 149.640625 C 187.75 149.511719 187.65625 149.511719 187.617188 149.511719 C 187.503906 149.511719 187.488281 149.566406 187.449219 149.640625 C 187.054688 150.9375 186.25 151.21875 185.875 151.21875 C 185.40625 151.21875 185.21875 150.84375 185.21875 150.429688 C 185.21875 150.167969 185.273438 149.90625 185.40625 149.378906 Z M 185.816406 147.730469 "/>
<path style=" stroke:none;fill-rule:nonzero;fill:rgb(0%,0%,0%);fill-opacity:1;" d="M 43.828125 3.097656 C 43.886719 2.929688 43.886719 2.910156 43.886719 2.816406 C 43.886719 2.613281 43.71875 2.5 43.53125 2.5 C 43.417969 2.5 43.230469 2.574219 43.117188 2.742188 C 43.097656 2.816406 42.984375 3.175781 42.949219 3.398438 C 42.855469 3.699219 42.78125 4.035156 42.703125 4.355469 L 42.160156 6.511719 C 42.125 6.679688 41.597656 7.523438 40.8125 7.523438 C 40.210938 7.523438 40.078125 7 40.078125 6.550781 C 40.078125 6.003906 40.285156 5.253906 40.679688 4.207031 C 40.867188 3.71875 40.921875 3.585938 40.921875 3.34375 C 40.921875 2.816406 40.546875 2.367188 39.949219 2.367188 C 38.804688 2.367188 38.375 4.113281 38.375 4.207031 C 38.375 4.335938 38.484375 4.335938 38.503906 4.335938 C 38.636719 4.335938 38.636719 4.300781 38.691406 4.113281 C 39.03125 2.988281 39.5 2.628906 39.910156 2.628906 C 40.003906 2.628906 40.210938 2.628906 40.210938 3.003906 C 40.210938 3.304688 40.078125 3.625 40.003906 3.847656 C 39.515625 5.125 39.3125 5.800781 39.3125 6.363281 C 39.3125 7.429688 40.0625 7.785156 40.773438 7.785156 C 41.242188 7.785156 41.636719 7.582031 41.972656 7.242188 C 41.824219 7.863281 41.671875 8.460938 41.203125 9.097656 C 40.886719 9.492188 40.4375 9.847656 39.890625 9.847656 C 39.722656 9.847656 39.179688 9.8125 38.972656 9.34375 C 39.160156 9.34375 39.328125 9.34375 39.480469 9.191406 C 39.609375 9.097656 39.722656 8.929688 39.722656 8.707031 C 39.722656 8.332031 39.40625 8.292969 39.292969 8.292969 C 39.011719 8.292969 38.617188 8.480469 38.617188 9.0625 C 38.617188 9.660156 39.140625 10.113281 39.890625 10.113281 C 41.109375 10.113281 42.347656 9.023438 42.6875 7.675781 Z M 43.828125 3.097656 "/>
<path style=" stroke:none;fill-rule:nonzero;fill:rgb(0%,0%,0%);fill-opacity:1;" d="M 76.46875 146.828125 C 76.242188 146.378906 75.90625 146.0625 75.359375 146.0625 C 73.972656 146.0625 72.492188 147.824219 72.492188 149.566406 C 72.492188 150.691406 73.148438 151.480469 74.066406 151.480469 C 74.3125 151.480469 74.910156 151.421875 75.625 150.578125 C 75.71875 151.085938 76.148438 151.480469 76.710938 151.480469 C 77.140625 151.480469 77.40625 151.199219 77.609375 150.824219 C 77.796875 150.390625 77.96875 149.660156 77.96875 149.640625 C 77.96875 149.511719 77.855469 149.511719 77.816406 149.511719 C 77.703125 149.511719 77.6875 149.566406 77.648438 149.734375 C 77.441406 150.503906 77.234375 151.21875 76.75 151.21875 C 76.410156 151.21875 76.390625 150.898438 76.390625 150.671875 C 76.390625 150.410156 76.410156 150.296875 76.542969 149.773438 C 76.671875 149.285156 76.691406 149.15625 76.804688 148.703125 L 77.234375 147.035156 C 77.3125 146.699219 77.3125 146.679688 77.3125 146.625 C 77.3125 146.417969 77.179688 146.304688 76.972656 146.304688 C 76.671875 146.304688 76.503906 146.566406 76.46875 146.828125 Z M 75.699219 149.921875 C 75.625 150.148438 75.625 150.167969 75.453125 150.375 C 74.929688 151.03125 74.441406 151.21875 74.105469 151.21875 C 73.503906 151.21875 73.335938 150.5625 73.335938 150.09375 C 73.335938 149.492188 73.710938 148.03125 73.992188 147.46875 C 74.367188 146.773438 74.890625 146.324219 75.378906 146.324219 C 76.148438 146.324219 76.316406 147.296875 76.316406 147.375 C 76.316406 147.449219 76.296875 147.523438 76.28125 147.578125 Z M 75.699219 149.921875 "/>
<path style=" stroke:none;fill-rule:nonzero;fill:rgb(0%,0%,0%);fill-opacity:1;" d="M 142.421875 149.847656 C 142.195312 149.398438 141.859375 149.078125 141.316406 149.078125 C 139.925781 149.078125 138.445312 150.84375 138.445312 152.585938 C 138.445312 153.710938 139.101562 154.5 140.019531 154.5 C 140.265625 154.5 140.863281 154.441406 141.578125 153.597656 C 141.671875 154.105469 142.101562 154.5 142.664062 154.5 C 143.097656 154.5 143.359375 154.21875 143.566406 153.84375 C 143.753906 153.410156 143.921875 152.679688 143.921875 152.660156 C 143.921875 152.53125 143.808594 152.53125 143.769531 152.53125 C 143.660156 152.53125 143.640625 152.585938 143.601562 152.753906 C 143.394531 153.523438 143.191406 154.234375 142.703125 154.234375 C 142.363281 154.234375 142.347656 153.917969 142.347656 153.691406 C 142.347656 153.429688 142.363281 153.316406 142.496094 152.792969 C 142.628906 152.304688 142.644531 152.171875 142.757812 151.722656 L 143.191406 150.054688 C 143.265625 149.71875 143.265625 149.699219 143.265625 149.640625 C 143.265625 149.4375 143.132812 149.324219 142.925781 149.324219 C 142.628906 149.324219 142.457031 149.585938 142.421875 149.847656 Z M 141.652344 152.941406 C 141.578125 153.167969 141.578125 153.1875 141.410156 153.390625 C 140.882812 154.046875 140.394531 154.234375 140.058594 154.234375 C 139.457031 154.234375 139.289062 153.578125 139.289062 153.109375 C 139.289062 152.511719 139.664062 151.046875 139.945312 150.484375 C 140.320312 149.792969 140.847656 149.34375 141.332031 149.34375 C 142.101562 149.34375 142.269531 150.316406 142.269531 150.390625 C 142.269531 150.46875 142.253906 150.542969 142.234375 150.597656 Z M 141.652344 152.941406 "/>
<path style=" stroke:none;fill-rule:nonzero;fill:rgb(0%,0%,0%);fill-opacity:1;" d="M 151.828125 151.609375 L 155.164062 151.609375 C 155.335938 151.609375 155.558594 151.609375 155.558594 151.367188 C 155.558594 151.140625 155.335938 151.140625 155.164062 151.140625 L 151.828125 151.140625 L 151.828125 147.785156 C 151.828125 147.617188 151.828125 147.390625 151.585938 147.390625 C 151.339844 147.390625 151.339844 147.617188 151.339844 147.785156 L 151.339844 151.140625 L 148.003906 151.140625 C 147.835938 151.140625 147.609375 151.140625 147.609375 151.367188 C 147.609375 151.609375 147.835938 151.609375 148.003906 151.609375 L 151.339844 151.609375 L 151.339844 154.96875 C 151.339844 155.136719 151.339844 155.359375 151.585938 155.359375 C 151.828125 155.359375 151.828125 155.136719 151.828125 154.96875 Z M 151.828125 151.609375 "/>
<path style=" stroke:none;fill-rule:nonzero;fill:rgb(0%,0%,0%);fill-opacity:1;" d="M 162.320312 146.191406 C 162.320312 146.191406 162.320312 146.0625 162.171875 146.0625 C 161.890625 146.0625 161.027344 146.15625 160.707031 146.191406 C 160.613281 146.191406 160.484375 146.210938 160.484375 146.417969 C 160.484375 146.566406 160.597656 146.566406 160.765625 146.566406 C 161.347656 146.566406 161.363281 146.640625 161.363281 146.773438 L 161.328125 147.015625 L 159.601562 153.898438 C 159.546875 154.066406 159.546875 154.085938 159.546875 154.160156 C 159.546875 154.441406 159.789062 154.5 159.902344 154.5 C 160.089844 154.5 160.277344 154.347656 160.332031 154.179688 L 160.558594 153.28125 L 160.820312 152.210938 C 160.894531 151.929688 160.972656 151.667969 161.027344 151.40625 C 161.046875 151.328125 161.160156 150.9375 161.160156 150.859375 C 161.195312 150.75 161.570312 150.09375 161.984375 149.753906 C 162.246094 149.566406 162.601562 149.34375 163.128906 149.34375 C 163.632812 149.34375 163.765625 149.753906 163.765625 150.1875 C 163.765625 150.824219 163.316406 152.136719 163.035156 152.867188 C 162.941406 153.128906 162.863281 153.28125 162.863281 153.523438 C 162.863281 154.085938 163.296875 154.5 163.859375 154.5 C 164.984375 154.5 165.414062 152.753906 165.414062 152.660156 C 165.414062 152.53125 165.320312 152.53125 165.285156 152.53125 C 165.152344 152.53125 165.152344 152.566406 165.097656 152.753906 C 164.925781 153.390625 164.535156 154.234375 163.878906 154.234375 C 163.671875 154.234375 163.597656 154.125 163.597656 153.84375 C 163.597656 153.542969 163.691406 153.261719 163.800781 153 C 163.988281 152.472656 164.535156 151.046875 164.535156 150.355469 C 164.535156 149.585938 164.066406 149.078125 163.164062 149.078125 C 162.414062 149.078125 161.832031 149.453125 161.382812 150 Z M 162.320312 146.191406 "/>
<path style=" stroke:none;fill-rule:nonzero;fill:rgb(0%,0%,0%);fill-opacity:1;" d="M 118.101562 89.441406 C 118.101562 89.441406 118.101562 89.3125 117.953125 89.3125 C 117.671875 89.3125 116.808594 89.40625 116.488281 89.441406 C 116.394531 89.441406 116.265625 89.460938 116.265625 89.667969 C 116.265625 89.816406 116.378906 89.816406 116.546875 89.816406 C 117.128906 89.816406 117.144531 89.890625 117.144531 90.023438 L 117.109375 90.265625 L 115.382812 97.148438 C 115.328125 97.316406 115.328125 97.335938 115.328125 97.410156 C 115.328125 97.691406 115.570312 97.75 115.683594 97.75 C 115.871094 97.75 116.058594 97.597656 116.113281 97.429688 L 116.339844 96.53125 L 116.601562 95.460938 C 116.675781 95.179688 116.753906 94.917969 116.808594 94.65625 C 116.828125 94.578125 116.941406 94.1875 116.941406 94.109375 C 116.976562 94 117.351562 93.34375 117.765625 93.003906 C 118.027344 92.816406 118.382812 92.59375 118.910156 92.59375 C 119.414062 92.59375 119.546875 93.003906 119.546875 93.4375 C 119.546875 94.074219 119.097656 95.386719 118.816406 96.117188 C 118.722656 96.378906 118.644531 96.53125 118.644531 96.773438 C 118.644531 97.335938 119.078125 97.75 119.640625 97.75 C 120.765625 97.75 121.195312 96.003906 121.195312 95.910156 C 121.195312 95.78125 121.101562 95.78125 121.066406 95.78125 C 120.933594 95.78125 120.933594 95.816406 120.878906 96.003906 C 120.707031 96.640625 120.316406 97.484375 119.660156 97.484375 C 119.453125 97.484375 119.378906 97.375 119.378906 97.09375 C 119.378906 96.792969 119.472656 96.511719 119.582031 96.25 C 119.769531 95.722656 120.316406 94.296875 120.316406 93.605469 C 120.316406 92.835938 119.847656 92.328125 118.945312 92.328125 C 118.195312 92.328125 117.613281 92.703125 117.164062 93.25 Z M 118.101562 89.441406 "/>
<path style=" stroke:none;fill-rule:nonzero;fill:rgb(0%,0%,0%);fill-opacity:1;" d="M 158.597656 67.054688 L 159.628906 67.054688 C 159.875 67.054688 159.988281 67.054688 159.988281 66.808594 C 159.988281 66.679688 159.875 66.679688 159.667969 66.679688 L 158.675781 66.679688 L 158.917969 65.308594 C 158.972656 65.066406 159.144531 64.222656 159.21875 64.070312 C 159.3125 63.847656 159.519531 63.660156 159.78125 63.660156 C 159.816406 63.660156 160.136719 63.660156 160.363281 63.882812 C 159.835938 63.921875 159.707031 64.351562 159.707031 64.523438 C 159.707031 64.804688 159.929688 64.953125 160.15625 64.953125 C 160.472656 64.953125 160.8125 64.671875 160.8125 64.222656 C 160.8125 63.679688 160.269531 63.398438 159.78125 63.398438 C 159.367188 63.398438 158.617188 63.621094 158.261719 64.804688 C 158.1875 65.046875 158.148438 65.179688 157.867188 66.679688 L 157.042969 66.679688 C 156.800781 66.679688 156.667969 66.679688 156.667969 66.902344 C 156.667969 67.054688 156.78125 67.054688 157.003906 67.054688 L 157.792969 67.054688 L 156.910156 71.777344 C 156.6875 72.941406 156.480469 74.027344 155.863281 74.027344 C 155.804688 74.027344 155.523438 74.027344 155.28125 73.804688 C 155.84375 73.765625 155.957031 73.335938 155.957031 73.164062 C 155.957031 72.882812 155.730469 72.734375 155.503906 72.734375 C 155.1875 72.734375 154.847656 73.015625 154.847656 73.464844 C 154.847656 73.992188 155.375 74.289062 155.863281 74.289062 C 156.519531 74.289062 157.003906 73.578125 157.210938 73.128906 C 157.605469 72.378906 157.867188 70.933594 157.886719 70.839844 Z M 158.597656 67.054688 "/>
<path style=" stroke:none;fill-rule:nonzero;fill:rgb(0%,0%,0%);fill-opacity:1;" d="M 165.308594 74.703125 C 165.308594 74.664062 165.308594 74.648438 165.101562 74.441406 C 163.621094 72.941406 163.226562 70.671875 163.226562 68.835938 C 163.226562 66.753906 163.675781 64.671875 165.160156 63.191406 C 165.308594 63.039062 165.308594 63.023438 165.308594 62.984375 C 165.308594 62.890625 165.269531 62.851562 165.195312 62.851562 C 165.066406 62.851562 163.996094 63.679688 163.285156 65.195312 C 162.683594 66.507812 162.535156 67.839844 162.535156 68.835938 C 162.535156 69.773438 162.664062 71.214844 163.320312 72.585938 C 164.050781 74.046875 165.066406 74.835938 165.195312 74.835938 C 165.269531 74.835938 165.308594 74.796875 165.308594 74.703125 Z M 165.308594 74.703125 "/>
<path style=" stroke:none;fill-rule:nonzero;fill:rgb(0%,0%,0%);fill-opacity:1;" d="M 170.464844 67.316406 C 170.238281 66.867188 169.902344 66.546875 169.355469 66.546875 C 167.96875 66.546875 166.488281 68.308594 166.488281 70.054688 C 166.488281 71.179688 167.144531 71.964844 168.0625 71.964844 C 168.308594 71.964844 168.90625 71.910156 169.621094 71.066406 C 169.714844 71.570312 170.144531 71.964844 170.707031 71.964844 C 171.136719 71.964844 171.402344 71.683594 171.605469 71.308594 C 171.792969 70.878906 171.964844 70.148438 171.964844 70.128906 C 171.964844 69.996094 171.851562 69.996094 171.8125 69.996094 C 171.699219 69.996094 171.683594 70.054688 171.644531 70.222656 C 171.4375 70.992188 171.230469 71.703125 170.746094 71.703125 C 170.40625 71.703125 170.386719 71.382812 170.386719 71.160156 C 170.386719 70.898438 170.40625 70.785156 170.539062 70.257812 C 170.667969 69.773438 170.6875 69.640625 170.800781 69.191406 L 171.230469 67.523438 C 171.308594 67.183594 171.308594 67.164062 171.308594 67.109375 C 171.308594 66.902344 171.175781 66.789062 170.96875 66.789062 C 170.667969 66.789062 170.5 67.054688 170.464844 67.316406 Z M 169.695312 70.410156 C 169.621094 70.632812 169.621094 70.652344 169.449219 70.859375 C 168.925781 71.515625 168.4375 71.703125 168.101562 71.703125 C 167.5 71.703125 167.332031 71.046875 167.332031 70.578125 C 167.332031 69.976562 167.707031 68.515625 167.988281 67.953125 C 168.363281 67.257812 168.886719 66.808594 169.375 66.808594 C 170.144531 66.808594 170.3125 67.785156 170.3125 67.859375 C 170.3125 67.933594 170.292969 68.007812 170.277344 68.066406 Z M 169.695312 70.410156 "/>
<path style=" stroke:none;fill-rule:nonzero;fill:rgb(0%,0%,0%);fill-opacity:1;" d="M 179.871094 69.078125 L 183.207031 69.078125 C 183.375 69.078125 183.601562 69.078125 183.601562 68.835938 C 183.601562 68.609375 183.375 68.609375 183.207031 68.609375 L 179.871094 68.609375 L 179.871094 65.253906 C 179.871094 65.085938 179.871094 64.859375 179.625 64.859375 C 179.382812 64.859375 179.382812 65.085938 179.382812 65.253906 L 179.382812 68.609375 L 176.046875 68.609375 C 175.875 68.609375 175.652344 68.609375 175.652344 68.835938 C 175.652344 69.078125 175.875 69.078125 176.046875 69.078125 L 179.382812 69.078125 L 179.382812 72.433594 C 179.382812 72.601562 179.382812 72.828125 179.625 72.828125 C 179.871094 72.828125 179.871094 72.601562 179.871094 72.433594 Z M 179.871094 69.078125 "/>
<path style=" stroke:none;fill-rule:nonzero;fill:rgb(0%,0%,0%);fill-opacity:1;" d="M 190.363281 63.660156 C 190.363281 63.660156 190.363281 63.527344 190.214844 63.527344 C 189.933594 63.527344 189.070312 63.621094 188.75 63.660156 C 188.65625 63.660156 188.527344 63.679688 188.527344 63.882812 C 188.527344 64.035156 188.636719 64.035156 188.808594 64.035156 C 189.386719 64.035156 189.40625 64.109375 189.40625 64.242188 L 189.371094 64.484375 L 187.644531 71.367188 C 187.589844 71.535156 187.589844 71.554688 187.589844 71.628906 C 187.589844 71.910156 187.832031 71.964844 187.945312 71.964844 C 188.132812 71.964844 188.320312 71.816406 188.375 71.648438 L 188.601562 70.746094 L 188.863281 69.679688 C 188.9375 69.398438 189.011719 69.132812 189.070312 68.871094 C 189.089844 68.796875 189.199219 68.402344 189.199219 68.328125 C 189.238281 68.214844 189.613281 67.558594 190.027344 67.222656 C 190.289062 67.035156 190.644531 66.808594 191.167969 66.808594 C 191.675781 66.808594 191.808594 67.222656 191.808594 67.652344 C 191.808594 68.289062 191.355469 69.601562 191.074219 70.335938 C 190.980469 70.597656 190.90625 70.746094 190.90625 70.992188 C 190.90625 71.554688 191.339844 71.964844 191.902344 71.964844 C 193.027344 71.964844 193.457031 70.222656 193.457031 70.128906 C 193.457031 69.996094 193.363281 69.996094 193.324219 69.996094 C 193.195312 69.996094 193.195312 70.035156 193.136719 70.222656 C 192.96875 70.859375 192.574219 71.703125 191.917969 71.703125 C 191.714844 71.703125 191.636719 71.589844 191.636719 71.308594 C 191.636719 71.007812 191.730469 70.726562 191.84375 70.464844 C 192.03125 69.941406 192.574219 68.515625 192.574219 67.820312 C 192.574219 67.054688 192.105469 66.546875 191.207031 66.546875 C 190.457031 66.546875 189.875 66.921875 189.425781 67.464844 Z M 190.363281 63.660156 "/>
<path style=" stroke:none;fill-rule:nonzero;fill:rgb(0%,0%,0%);fill-opacity:1;" d="M 197.269531 68.835938 C 197.269531 67.914062 197.140625 66.472656 196.484375 65.101562 C 195.769531 63.640625 194.738281 62.851562 194.625 62.851562 C 194.550781 62.851562 194.496094 62.910156 194.496094 62.984375 C 194.496094 63.023438 194.496094 63.039062 194.71875 63.265625 C 195.902344 64.445312 196.578125 66.339844 196.578125 68.835938 C 196.578125 70.898438 196.144531 72.996094 194.664062 74.496094 C 194.496094 74.648438 194.496094 74.664062 194.496094 74.703125 C 194.496094 74.777344 194.550781 74.835938 194.625 74.835938 C 194.738281 74.835938 195.828125 74.007812 196.519531 72.492188 C 197.140625 71.179688 197.269531 69.847656 197.269531 68.835938 Z M 197.269531 68.835938 "/>
<path style=" stroke:none;fill-rule:nonzero;fill:rgb(0%,0%,0%);fill-opacity:1;" d="M 209 69.078125 C 209.207031 69.078125 209.433594 69.078125 209.433594 68.835938 C 209.433594 68.609375 209.207031 68.609375 209 68.609375 L 202.53125 68.609375 C 202.324219 68.609375 202.121094 68.609375 202.121094 68.835938 C 202.121094 69.078125 202.324219 69.078125 202.53125 69.078125 Z M 209 69.078125 "/>
<path style=" stroke:none;fill-rule:nonzero;fill:rgb(0%,0%,0%);fill-opacity:1;" d="M 217.46875 67.054688 L 218.5 67.054688 C 218.742188 67.054688 218.855469 67.054688 218.855469 66.808594 C 218.855469 66.679688 218.742188 66.679688 218.539062 66.679688 L 217.542969 66.679688 L 217.789062 65.308594 C 217.84375 65.066406 218.011719 64.222656 218.085938 64.070312 C 218.179688 63.847656 218.386719 63.660156 218.648438 63.660156 C 218.6875 63.660156 219.007812 63.660156 219.230469 63.882812 C 218.707031 63.921875 218.574219 64.351562 218.574219 64.523438 C 218.574219 64.804688 218.800781 64.953125 219.023438 64.953125 C 219.34375 64.953125 219.679688 64.671875 219.679688 64.222656 C 219.679688 63.679688 219.136719 63.398438 218.648438 63.398438 C 218.238281 63.398438 217.488281 63.621094 217.132812 64.804688 C 217.054688 65.046875 217.019531 65.179688 216.738281 66.679688 L 215.914062 66.679688 C 215.667969 66.679688 215.539062 66.679688 215.539062 66.902344 C 215.539062 67.054688 215.648438 67.054688 215.875 67.054688 L 216.664062 67.054688 L 215.78125 71.777344 C 215.554688 72.941406 215.351562 74.027344 214.730469 74.027344 C 214.675781 74.027344 214.394531 74.027344 214.148438 73.804688 C 214.710938 73.765625 214.824219 73.335938 214.824219 73.164062 C 214.824219 72.882812 214.601562 72.734375 214.375 72.734375 C 214.054688 72.734375 213.71875 73.015625 213.71875 73.464844 C 213.71875 73.992188 214.242188 74.289062 214.730469 74.289062 C 215.386719 74.289062 215.875 73.578125 216.082031 73.128906 C 216.476562 72.378906 216.738281 70.933594 216.757812 70.839844 Z M 217.46875 67.054688 "/>
<path style=" stroke:none;fill-rule:nonzero;fill:rgb(0%,0%,0%);fill-opacity:1;" d="M 224.179688 74.703125 C 224.179688 74.664062 224.179688 74.648438 223.972656 74.441406 C 222.492188 72.941406 222.097656 70.671875 222.097656 68.835938 C 222.097656 66.753906 222.546875 64.671875 224.027344 63.191406 C 224.179688 63.039062 224.179688 63.023438 224.179688 62.984375 C 224.179688 62.890625 224.140625 62.851562 224.066406 62.851562 C 223.933594 62.851562 222.867188 63.679688 222.152344 65.195312 C 221.554688 66.507812 221.402344 67.839844 221.402344 68.835938 C 221.402344 69.773438 221.535156 71.214844 222.191406 72.585938 C 222.921875 74.046875 223.933594 74.835938 224.066406 74.835938 C 224.140625 74.835938 224.179688 74.796875 224.179688 74.703125 Z M 224.179688 74.703125 "/>
<path style=" stroke:none;fill-rule:nonzero;fill:rgb(0%,0%,0%);fill-opacity:1;" d="M 229.332031 67.316406 C 229.109375 66.867188 228.769531 66.546875 228.226562 66.546875 C 226.839844 66.546875 225.359375 68.308594 225.359375 70.054688 C 225.359375 71.179688 226.015625 71.964844 226.933594 71.964844 C 227.175781 71.964844 227.777344 71.910156 228.488281 71.066406 C 228.582031 71.570312 229.015625 71.964844 229.578125 71.964844 C 230.007812 71.964844 230.269531 71.683594 230.476562 71.308594 C 230.664062 70.878906 230.832031 70.148438 230.832031 70.128906 C 230.832031 69.996094 230.71875 69.996094 230.683594 69.996094 C 230.570312 69.996094 230.550781 70.054688 230.515625 70.222656 C 230.308594 70.992188 230.101562 71.703125 229.613281 71.703125 C 229.277344 71.703125 229.257812 71.382812 229.257812 71.160156 C 229.257812 70.898438 229.277344 70.785156 229.40625 70.257812 C 229.539062 69.773438 229.558594 69.640625 229.671875 69.191406 L 230.101562 67.523438 C 230.175781 67.183594 230.175781 67.164062 230.175781 67.109375 C 230.175781 66.902344 230.046875 66.789062 229.839844 66.789062 C 229.539062 66.789062 229.371094 67.054688 229.332031 67.316406 Z M 228.5625 70.410156 C 228.488281 70.632812 228.488281 70.652344 228.320312 70.859375 C 227.796875 71.515625 227.308594 71.703125 226.96875 71.703125 C 226.371094 71.703125 226.203125 71.046875 226.203125 70.578125 C 226.203125 69.976562 226.578125 68.515625 226.859375 67.953125 C 227.234375 67.257812 227.757812 66.808594 228.246094 66.808594 C 229.015625 66.808594 229.183594 67.785156 229.183594 67.859375 C 229.183594 67.933594 229.164062 68.007812 229.144531 68.066406 Z M 228.5625 70.410156 "/>
<path style=" stroke:none;fill-rule:nonzero;fill:rgb(0%,0%,0%);fill-opacity:1;" d="M 234.640625 68.835938 C 234.640625 67.914062 234.507812 66.472656 233.851562 65.101562 C 233.140625 63.640625 232.109375 62.851562 231.996094 62.851562 C 231.921875 62.851562 231.863281 62.910156 231.863281 62.984375 C 231.863281 63.023438 231.863281 63.039062 232.089844 63.265625 C 233.269531 64.445312 233.945312 66.339844 233.945312 68.835938 C 233.945312 70.898438 233.515625 72.996094 232.035156 74.496094 C 231.863281 74.648438 231.863281 74.664062 231.863281 74.703125 C 231.863281 74.777344 231.921875 74.835938 231.996094 74.835938 C 232.109375 74.835938 233.195312 74.007812 233.890625 72.492188 C 234.507812 71.179688 234.640625 69.847656 234.640625 68.835938 Z M 234.640625 68.835938 "/>
<path style=" stroke:none;fill-rule:nonzero;fill:rgb(0%,0%,0%);fill-opacity:1;" d="M 199.609375 26.953125 C 199.667969 26.78125 199.667969 26.765625 199.667969 26.671875 C 199.667969 26.464844 199.5 26.351562 199.3125 26.351562 C 199.199219 26.351562 199.011719 26.425781 198.898438 26.59375 C 198.878906 26.671875 198.765625 27.027344 198.730469 27.25 C 198.636719 27.550781 198.5625 27.890625 198.484375 28.207031 L 197.941406 30.363281 C 197.90625 30.53125 197.378906 31.375 196.59375 31.375 C 195.992188 31.375 195.859375 30.851562 195.859375 30.402344 C 195.859375 29.859375 196.066406 29.109375 196.460938 28.058594 C 196.648438 27.570312 196.703125 27.4375 196.703125 27.195312 C 196.703125 26.671875 196.328125 26.21875 195.730469 26.21875 C 194.585938 26.21875 194.15625 27.964844 194.15625 28.058594 C 194.15625 28.1875 194.265625 28.1875 194.285156 28.1875 C 194.417969 28.1875 194.417969 28.152344 194.472656 27.964844 C 194.8125 26.839844 195.28125 26.484375 195.691406 26.484375 C 195.785156 26.484375 195.992188 26.484375 195.992188 26.859375 C 195.992188 27.15625 195.859375 27.476562 195.785156 27.703125 C 195.296875 28.976562 195.09375 29.652344 195.09375 30.214844 C 195.09375 31.28125 195.84375 31.640625 196.554688 31.640625 C 197.023438 31.640625 197.417969 31.433594 197.753906 31.09375 C 197.605469 31.714844 197.453125 32.3125 196.984375 32.953125 C 196.667969 33.34375 196.21875 33.703125 195.671875 33.703125 C 195.503906 33.703125 194.960938 33.664062 194.753906 33.195312 C 194.941406 33.195312 195.109375 33.195312 195.261719 33.046875 C 195.390625 32.953125 195.503906 32.78125 195.503906 32.558594 C 195.503906 32.183594 195.1875 32.144531 195.074219 32.144531 C 194.792969 32.144531 194.398438 32.332031 194.398438 32.914062 C 194.398438 33.515625 194.921875 33.964844 195.671875 33.964844 C 196.890625 33.964844 198.128906 32.875 198.46875 31.527344 Z M 199.609375 26.953125 "/>
<path style=" stroke:none;fill-rule:nonzero;fill:rgb(0%,0%,0%);fill-opacity:1;" d="M 211.621094 27.589844 C 211.808594 27.589844 212.035156 27.589844 212.035156 27.363281 C 212.035156 27.121094 211.808594 27.121094 211.640625 27.121094 L 204.476562 27.121094 C 204.308594 27.121094 204.085938 27.121094 204.085938 27.363281 C 204.085938 27.589844 204.308594 27.589844 204.476562 27.589844 Z M 211.640625 29.914062 C 211.808594 29.914062 212.035156 29.914062 212.035156 29.671875 C 212.035156 29.445312 211.808594 29.445312 211.621094 29.445312 L 204.476562 29.445312 C 204.308594 29.445312 204.085938 29.445312 204.085938 29.671875 C 204.085938 29.914062 204.308594 29.914062 204.476562 29.914062 Z M 211.640625 29.914062 "/>
<path style=" stroke:none;fill-rule:nonzero;fill:rgb(0%,0%,0%);fill-opacity:1;" d="M 220.417969 26.726562 L 221.449219 26.726562 C 221.691406 26.726562 221.804688 26.726562 221.804688 26.484375 C 221.804688 26.351562 221.691406 26.351562 221.484375 26.351562 L 220.492188 26.351562 L 220.734375 24.984375 C 220.792969 24.738281 220.960938 23.894531 221.035156 23.746094 C 221.128906 23.519531 221.335938 23.332031 221.597656 23.332031 C 221.636719 23.332031 221.953125 23.332031 222.179688 23.558594 C 221.652344 23.59375 221.523438 24.027344 221.523438 24.195312 C 221.523438 24.476562 221.746094 24.625 221.972656 24.625 C 222.292969 24.625 222.628906 24.34375 222.628906 23.894531 C 222.628906 23.351562 222.085938 23.070312 221.597656 23.070312 C 221.183594 23.070312 220.433594 23.296875 220.078125 24.476562 C 220.003906 24.71875 219.964844 24.851562 219.683594 26.351562 L 218.859375 26.351562 C 218.617188 26.351562 218.484375 26.351562 218.484375 26.578125 C 218.484375 26.726562 218.597656 26.726562 218.824219 26.726562 L 219.609375 26.726562 L 218.730469 31.453125 C 218.503906 32.613281 218.296875 33.703125 217.679688 33.703125 C 217.621094 33.703125 217.339844 33.703125 217.097656 33.476562 C 217.660156 33.4375 217.773438 33.007812 217.773438 32.839844 C 217.773438 32.558594 217.546875 32.40625 217.324219 32.40625 C 217.003906 32.40625 216.667969 32.6875 216.667969 33.140625 C 216.667969 33.664062 217.191406 33.964844 217.679688 33.964844 C 218.335938 33.964844 218.824219 33.25 219.027344 32.800781 C 219.421875 32.050781 219.683594 30.609375 219.703125 30.515625 Z M 220.417969 26.726562 "/>
<path style=" stroke:none;fill-rule:nonzero;fill:rgb(0%,0%,0%);fill-opacity:1;" d="M 227.125 34.375 C 227.125 34.339844 227.125 34.320312 226.917969 34.113281 C 225.4375 32.613281 225.042969 30.34375 225.042969 28.507812 C 225.042969 26.425781 225.492188 24.34375 226.976562 22.863281 C 227.125 22.714844 227.125 22.695312 227.125 22.65625 C 227.125 22.5625 227.085938 22.527344 227.011719 22.527344 C 226.882812 22.527344 225.8125 23.351562 225.101562 24.871094 C 224.5 26.183594 224.351562 27.515625 224.351562 28.507812 C 224.351562 29.445312 224.480469 30.890625 225.136719 32.257812 C 225.867188 33.71875 226.882812 34.507812 227.011719 34.507812 C 227.085938 34.507812 227.125 34.46875 227.125 34.375 Z M 227.125 34.375 "/>
<path style=" stroke:none;fill-rule:nonzero;fill:rgb(0%,0%,0%);fill-opacity:1;" d="M 231.8125 27.890625 C 231.886719 27.589844 232.167969 26.484375 232.992188 26.484375 C 233.050781 26.484375 233.351562 26.484375 233.59375 26.632812 C 233.257812 26.707031 233.03125 26.988281 233.03125 27.289062 C 233.03125 27.476562 233.164062 27.703125 233.480469 27.703125 C 233.742188 27.703125 234.117188 27.496094 234.117188 27.007812 C 234.117188 26.390625 233.425781 26.21875 233.011719 26.21875 C 232.320312 26.21875 231.90625 26.859375 231.757812 27.121094 C 231.457031 26.332031 230.820312 26.21875 230.460938 26.21875 C 229.226562 26.21875 228.53125 27.757812 228.53125 28.058594 C 228.53125 28.1875 228.664062 28.1875 228.679688 28.1875 C 228.773438 28.1875 228.8125 28.152344 228.832031 28.058594 C 229.242188 26.78125 230.03125 26.484375 230.445312 26.484375 C 230.667969 26.484375 231.082031 26.59375 231.082031 27.289062 C 231.082031 27.664062 230.875 28.453125 230.445312 30.140625 C 230.257812 30.871094 229.824219 31.375 229.300781 31.375 C 229.226562 31.375 228.960938 31.375 228.699219 31.226562 C 229 31.152344 229.261719 30.90625 229.261719 30.570312 C 229.261719 30.25 229 30.15625 228.832031 30.15625 C 228.457031 30.15625 228.175781 30.457031 228.175781 30.851562 C 228.175781 31.394531 228.757812 31.640625 229.28125 31.640625 C 230.085938 31.640625 230.519531 30.796875 230.539062 30.738281 C 230.6875 31.171875 231.117188 31.640625 231.832031 31.640625 C 233.070312 31.640625 233.742188 30.101562 233.742188 29.800781 C 233.742188 29.671875 233.648438 29.671875 233.613281 29.671875 C 233.5 29.671875 233.480469 29.726562 233.445312 29.800781 C 233.050781 31.09375 232.242188 31.375 231.867188 31.375 C 231.398438 31.375 231.210938 31 231.210938 30.589844 C 231.210938 30.328125 231.269531 30.0625 231.398438 29.539062 Z M 231.8125 27.890625 "/>
<g clip-path="url(#clip1)" clip-rule="nonzero">
<path style=" stroke:none;fill-rule:nonzero;fill:rgb(0%,0%,0%);fill-opacity:1;" d="M 238.101562 28.507812 C 238.101562 27.589844 237.96875 26.144531 237.3125 24.777344 C 236.601562 23.3125 235.570312 22.527344 235.457031 22.527344 C 235.382812 22.527344 235.328125 22.582031 235.328125 22.65625 C 235.328125 22.695312 235.328125 22.714844 235.550781 22.9375 C 236.734375 24.121094 237.40625 26.015625 237.40625 28.507812 C 237.40625 30.570312 236.976562 32.671875 235.496094 34.171875 C 235.328125 34.320312 235.328125 34.339844 235.328125 34.375 C 235.328125 34.453125 235.382812 34.507812 235.457031 34.507812 C 235.570312 34.507812 236.65625 33.683594 237.351562 32.164062 C 237.96875 30.851562 238.101562 29.519531 238.101562 28.507812 Z M 238.101562 28.507812 "/>
</g>
<path style="fill:none;stroke-width:1.6;stroke-linecap:butt;stroke-linejoin:miter;stroke:rgb(0%,0%,100%);stroke-opacity:1;stroke-miterlimit:4;" d="M 51.101562 119.988281 L 180.703125 14.390625 "/>
<path style="fill:none;stroke-width:0.8;stroke-linecap:butt;stroke-linejoin:miter;stroke:rgb(0%,0%,0%);stroke-opacity:1;stroke-dasharray:0.8,1.6;stroke-miterlimit:4;" d="M 75.257812 100.710938 L 75.257812 143.910156 "/>
<path style="fill:none;stroke-width:0.8;stroke-linecap:butt;stroke-linejoin:miter;stroke:rgb(0%,0%,0%);stroke-opacity:1;stroke-miterlimit:4;" d="M 151.902344 43.191406 L 151.902344 95.988281 "/>
<path style="fill-rule:evenodd;fill:rgb(0%,0%,0%);fill-opacity:1;stroke-width:0.4;stroke-linecap:butt;stroke-linejoin:miter;stroke:rgb(0%,0%,0%);stroke-opacity:1;stroke-miterlimit:4;" d="M 46.390625 -151.902344 L 47.988281 -153.5 L 42.390625 -151.902344 L 47.988281 -150.300781 Z M 46.390625 -151.902344 " transform="matrix(0,1,-1,0,0,0)"/>
<path style="fill-rule:evenodd;fill:rgb(0%,0%,0%);fill-opacity:1;stroke-width:0.4;stroke-linecap:butt;stroke-linejoin:miter;stroke:rgb(0%,0%,0%);stroke-opacity:1;stroke-miterlimit:4;" d="M -92.789062 151.902344 L -91.191406 150.300781 L -96.789062 151.902344 L -91.191406 153.5 Z M -92.789062 151.902344 " transform="matrix(0,-1,1,0,0,0)"/>
<path style="fill:none;stroke-width:0.8;stroke-linecap:butt;stroke-linejoin:miter;stroke:rgb(0%,0%,0%);stroke-opacity:1;stroke-miterlimit:4;" d="M 79.902344 100.789062 L 147.101562 100.789062 "/>
<path style="fill-rule:evenodd;fill:rgb(0%,0%,0%);fill-opacity:1;stroke-width:0.4;stroke-linecap:butt;stroke-linejoin:miter;stroke:rgb(0%,0%,0%);stroke-opacity:1;stroke-miterlimit:4;" d="M 83.101562 100.789062 L 84.703125 99.191406 L 79.101562 100.789062 L 84.703125 102.390625 Z M 83.101562 100.789062 "/>
<path style="fill-rule:evenodd;fill:rgb(0%,0%,0%);fill-opacity:1;stroke-width:0.4;stroke-linecap:butt;stroke-linejoin:miter;stroke:rgb(0%,0%,0%);stroke-opacity:1;stroke-miterlimit:4;" d="M -143.902344 -100.789062 L -142.300781 -102.390625 L -147.902344 -100.789062 L -142.300781 -99.191406 Z M -143.902344 -100.789062 " transform="matrix(-1,0,0,-1,0,0)"/>
<path style="fill:none;stroke-width:0.8;stroke-linecap:butt;stroke-linejoin:miter;stroke:rgb(0%,0%,0%);stroke-opacity:1;stroke-dasharray:0.8,1.6;stroke-miterlimit:4;" d="M 46.214844 38.804688 L 151.902344 38.390625 "/>
<path style="fill:none;stroke-width:0.8;stroke-linecap:butt;stroke-linejoin:miter;stroke:rgb(0%,0%,0%);stroke-opacity:1;stroke-dasharray:0.8,1.6;stroke-miterlimit:4;" d="M 46.300781 100.789062 L 75.101562 100.789062 "/>
<g clip-path="url(#clip2)" clip-rule="nonzero">
<path style="fill:none;stroke-width:1.6;stroke-linecap:butt;stroke-linejoin:miter;stroke:rgb(0%,0%,0%);stroke-opacity:1;stroke-miterlimit:4;" d="M 60.703125 158.390625 C 60.703125 158.390625 67.597656 117.753906 75.101562 100.789062 C 82.605469 83.828125 84.960938 72.054688 103.902344 57.589844 C 122.839844 43.125 170.847656 33.621094 190.300781 28.789062 "/>
</g>
<g clip-path="url(#clip3)" clip-rule="nonzero">
<path style="fill:none;stroke-width:1.6;stroke-linecap:butt;stroke-linejoin:miter;stroke:rgb(0%,50.195312%,0%);stroke-opacity:1;stroke-miterlimit:4;" d="M 56.910156 153.589844 L 104.910156 14.390625 "/>
</g>
<path style="fill-rule:nonzero;fill:rgb(0%,0%,0%);fill-opacity:1;stroke-width:0.8;stroke-linecap:butt;stroke-linejoin:miter;stroke:rgb(100%,100%,100%);stroke-opacity:1;stroke-miterlimit:4;" d="M 77.570312 100.796875 C 77.570312 102.125 76.496094 103.199219 75.171875 103.199219 C 73.847656 103.199219 72.773438 102.125 72.773438 100.796875 C 72.773438 99.472656 73.847656 98.398438 75.171875 98.398438 C 76.496094 98.398438 77.570312 99.472656 77.570312 100.796875 Z M 77.570312 100.796875 "/>
<path style="fill-rule:nonzero;fill:rgb(0%,0%,0%);fill-opacity:1;stroke-width:0.8;stroke-linecap:butt;stroke-linejoin:miter;stroke:rgb(100%,100%,100%);stroke-opacity:1;stroke-miterlimit:4;" d="M 153.890625 38.449219 C 153.890625 39.773438 152.816406 40.847656 151.492188 40.847656 C 150.167969 40.847656 149.09375 39.773438 149.09375 38.449219 C 149.09375 37.125 150.167969 36.046875 151.492188 36.046875 C 152.816406 36.046875 153.890625 37.125 153.890625 38.449219 Z M 153.890625 38.449219 "/>
<g clip-path="url(#clip4)" clip-rule="nonzero">
<path style="fill:none;stroke-width:0.8;stroke-linecap:butt;stroke-linejoin:miter;stroke:rgb(100%,0%,0%);stroke-opacity:1;stroke-miterlimit:4;" d="M 46.300781 -0.0117188 L 46.300781 158.390625 "/>
</g>
<path style="fill:none;stroke-width:0.8;stroke-linecap:butt;stroke-linejoin:miter;stroke:rgb(100%,0%,0%);stroke-opacity:1;stroke-miterlimit:4;" d="M 190.300781 143.988281 L 31.828125 144.042969 "/>
<path style="fill:none;stroke-width:0.8;stroke-linecap:butt;stroke-linejoin:miter;stroke:rgb(0%,0%,0%);stroke-opacity:1;stroke-dasharray:0.8,1.6;stroke-miterlimit:4;" d="M 151.832031 100.828125 L 151.832031 144.027344 "/>
<path style=" stroke:none;fill-rule:nonzero;fill:rgb(0%,0%,0%);fill-opacity:1;" d="M 25.191406 98.566406 L 26.222656 98.566406 C 26.46875 98.566406 26.578125 98.566406 26.578125 98.324219 C 26.578125 98.191406 26.46875 98.191406 26.261719 98.191406 L 25.265625 98.191406 L 25.511719 96.824219 C 25.566406 96.578125 25.734375 95.734375 25.8125 95.585938 C 25.90625 95.359375 26.109375 95.171875 26.375 95.171875 C 26.410156 95.171875 26.730469 95.171875 26.953125 95.398438 C 26.429688 95.4375 26.296875 95.867188 26.296875 96.035156 C 26.296875 96.316406 26.523438 96.46875 26.75 96.46875 C 27.066406 96.46875 27.40625 96.1875 27.40625 95.734375 C 27.40625 95.191406 26.859375 94.910156 26.375 94.910156 C 25.960938 94.910156 25.210938 95.136719 24.855469 96.316406 C 24.78125 96.5625 24.742188 96.691406 24.460938 98.191406 L 23.636719 98.191406 C 23.390625 98.191406 23.261719 98.191406 23.261719 98.417969 C 23.261719 98.566406 23.375 98.566406 23.597656 98.566406 L 24.386719 98.566406 L 23.503906 103.292969 C 23.28125 104.453125 23.074219 105.542969 22.453125 105.542969 C 22.398438 105.542969 22.117188 105.542969 21.875 105.316406 C 22.4375 105.28125 22.546875 104.847656 22.546875 104.679688 C 22.546875 104.398438 22.324219 104.25 22.097656 104.25 C 21.78125 104.25 21.441406 104.53125 21.441406 104.980469 C 21.441406 105.503906 21.96875 105.804688 22.453125 105.804688 C 23.109375 105.804688 23.597656 105.09375 23.804688 104.640625 C 24.199219 103.890625 24.460938 102.449219 24.480469 102.355469 Z M 25.191406 98.566406 "/>
<path style=" stroke:none;fill-rule:nonzero;fill:rgb(0%,0%,0%);fill-opacity:1;" d="M 31.902344 106.21875 C 31.902344 106.179688 31.902344 106.160156 31.695312 105.953125 C 30.214844 104.453125 29.820312 102.1875 29.820312 100.347656 C 29.820312 98.265625 30.269531 96.1875 31.75 94.703125 C 31.902344 94.554688 31.902344 94.535156 31.902344 94.5 C 31.902344 94.40625 31.863281 94.367188 31.789062 94.367188 C 31.65625 94.367188 30.589844 95.191406 29.875 96.710938 C 29.277344 98.023438 29.125 99.355469 29.125 100.347656 C 29.125 101.285156 29.257812 102.730469 29.914062 104.097656 C 30.644531 105.5625 31.65625 106.347656 31.789062 106.347656 C 31.863281 106.347656 31.902344 106.3125 31.902344 106.21875 Z M 31.902344 106.21875 "/>
<path style=" stroke:none;fill-rule:nonzero;fill:rgb(0%,0%,0%);fill-opacity:1;" d="M 37.054688 98.828125 C 36.832031 98.378906 36.492188 98.0625 35.949219 98.0625 C 34.5625 98.0625 33.082031 99.824219 33.082031 101.566406 C 33.082031 102.691406 33.738281 103.480469 34.65625 103.480469 C 34.898438 103.480469 35.5 103.421875 36.210938 102.578125 C 36.304688 103.085938 36.738281 103.480469 37.300781 103.480469 C 37.730469 103.480469 37.992188 103.199219 38.199219 102.824219 C 38.386719 102.390625 38.554688 101.660156 38.554688 101.640625 C 38.554688 101.511719 38.445312 101.511719 38.40625 101.511719 C 38.292969 101.511719 38.273438 101.566406 38.238281 101.734375 C 38.03125 102.503906 37.824219 103.21875 37.335938 103.21875 C 37 103.21875 36.980469 102.898438 36.980469 102.671875 C 36.980469 102.410156 37 102.296875 37.132812 101.773438 C 37.261719 101.285156 37.28125 101.15625 37.394531 100.703125 L 37.824219 99.035156 C 37.898438 98.699219 37.898438 98.679688 37.898438 98.625 C 37.898438 98.417969 37.769531 98.304688 37.5625 98.304688 C 37.261719 98.304688 37.09375 98.566406 37.054688 98.828125 Z M 36.289062 101.921875 C 36.210938 102.148438 36.210938 102.167969 36.042969 102.375 C 35.519531 103.03125 35.03125 103.21875 34.695312 103.21875 C 34.09375 103.21875 33.925781 102.5625 33.925781 102.09375 C 33.925781 101.492188 34.300781 100.03125 34.582031 99.46875 C 34.957031 98.773438 35.480469 98.324219 35.96875 98.324219 C 36.738281 98.324219 36.90625 99.296875 36.90625 99.375 C 36.90625 99.449219 36.886719 99.523438 36.867188 99.578125 Z M 36.289062 101.921875 "/>
<path style=" stroke:none;fill-rule:nonzero;fill:rgb(0%,0%,0%);fill-opacity:1;" d="M 42.363281 100.347656 C 42.363281 99.429688 42.234375 97.984375 41.578125 96.617188 C 40.863281 95.15625 39.832031 94.367188 39.71875 94.367188 C 39.644531 94.367188 39.589844 94.421875 39.589844 94.5 C 39.589844 94.535156 39.589844 94.554688 39.8125 94.78125 C 40.996094 95.960938 41.671875 97.855469 41.671875 100.347656 C 41.671875 102.410156 41.238281 104.511719 39.757812 106.011719 C 39.589844 106.160156 39.589844 106.179688 39.589844 106.21875 C 39.589844 106.292969 39.644531 106.347656 39.71875 106.347656 C 39.832031 106.347656 40.921875 105.523438 41.613281 104.003906 C 42.234375 102.691406 42.363281 101.359375 42.363281 100.347656 Z M 42.363281 100.347656 "/>
<path style=" stroke:none;fill-rule:nonzero;fill:rgb(0%,0%,0%);fill-opacity:1;" d="M 3.75 37.09375 L 4.78125 37.09375 C 5.023438 37.09375 5.136719 37.09375 5.136719 36.847656 C 5.136719 36.71875 5.023438 36.71875 4.820312 36.71875 L 3.824219 36.71875 L 4.070312 35.347656 C 4.125 35.105469 4.292969 34.261719 4.367188 34.113281 C 4.460938 33.886719 4.667969 33.699219 4.929688 33.699219 C 4.96875 33.699219 5.289062 33.699219 5.511719 33.925781 C 4.988281 33.960938 4.855469 34.394531 4.855469 34.5625 C 4.855469 34.84375 5.082031 34.992188 5.304688 34.992188 C 5.625 34.992188 5.960938 34.710938 5.960938 34.261719 C 5.960938 33.71875 5.417969 33.4375 4.929688 33.4375 C 4.519531 33.4375 3.769531 33.660156 3.414062 34.84375 C 3.335938 35.085938 3.300781 35.21875 3.019531 36.71875 L 2.195312 36.71875 C 1.949219 36.71875 1.820312 36.71875 1.820312 36.941406 C 1.820312 37.09375 1.929688 37.09375 2.15625 37.09375 L 2.945312 37.09375 L 2.0625 41.816406 C 1.835938 42.980469 1.632812 44.066406 1.011719 44.066406 C 0.957031 44.066406 0.675781 44.066406 0.429688 43.84375 C 0.992188 43.804688 1.105469 43.375 1.105469 43.207031 C 1.105469 42.925781 0.882812 42.773438 0.65625 42.773438 C 0.335938 42.773438 0 43.054688 0 43.503906 C 0 44.03125 0.523438 44.332031 1.011719 44.332031 C 1.667969 44.332031 2.15625 43.617188 2.363281 43.167969 C 2.757812 42.417969 3.019531 40.972656 3.039062 40.878906 Z M 3.75 37.09375 "/>
<path style=" stroke:none;fill-rule:nonzero;fill:rgb(0%,0%,0%);fill-opacity:1;" d="M 10.457031 44.742188 C 10.457031 44.707031 10.457031 44.6875 10.253906 44.480469 C 8.769531 42.980469 8.378906 40.710938 8.378906 38.875 C 8.378906 36.792969 8.828125 34.710938 10.308594 33.230469 C 10.457031 33.082031 10.457031 33.0625 10.457031 33.023438 C 10.457031 32.929688 10.421875 32.894531 10.347656 32.894531 C 10.214844 32.894531 9.144531 33.71875 8.433594 35.238281 C 7.832031 36.550781 7.683594 37.878906 7.683594 38.875 C 7.683594 39.8125 7.816406 41.253906 8.472656 42.625 C 9.203125 44.085938 10.214844 44.875 10.347656 44.875 C 10.421875 44.875 10.457031 44.835938 10.457031 44.742188 Z M 10.457031 44.742188 "/>
<path style=" stroke:none;fill-rule:nonzero;fill:rgb(0%,0%,0%);fill-opacity:1;" d="M 15.613281 37.355469 C 15.390625 36.90625 15.050781 36.585938 14.507812 36.585938 C 13.121094 36.585938 11.640625 38.347656 11.640625 40.09375 C 11.640625 41.21875 12.296875 42.003906 13.214844 42.003906 C 13.457031 42.003906 14.058594 41.949219 14.769531 41.105469 C 14.863281 41.613281 15.296875 42.003906 15.859375 42.003906 C 16.289062 42.003906 16.550781 41.722656 16.757812 41.347656 C 16.945312 40.917969 17.113281 40.1875 17.113281 40.167969 C 17.113281 40.035156 17 40.035156 16.964844 40.035156 C 16.851562 40.035156 16.832031 40.09375 16.796875 40.261719 C 16.589844 41.03125 16.382812 41.742188 15.894531 41.742188 C 15.558594 41.742188 15.539062 41.425781 15.539062 41.199219 C 15.539062 40.9375 15.558594 40.824219 15.6875 40.300781 C 15.820312 39.8125 15.839844 39.679688 15.953125 39.230469 L 16.382812 37.5625 C 16.457031 37.222656 16.457031 37.207031 16.457031 37.148438 C 16.457031 36.941406 16.328125 36.832031 16.121094 36.832031 C 15.820312 36.832031 15.652344 37.09375 15.613281 37.355469 Z M 14.84375 40.449219 C 14.769531 40.675781 14.769531 40.691406 14.601562 40.898438 C 14.078125 41.554688 13.589844 41.742188 13.25 41.742188 C 12.652344 41.742188 12.484375 41.085938 12.484375 40.617188 C 12.484375 40.019531 12.859375 38.554688 13.140625 37.992188 C 13.515625 37.300781 14.039062 36.847656 14.527344 36.847656 C 15.296875 36.847656 15.464844 37.824219 15.464844 37.898438 C 15.464844 37.972656 15.445312 38.050781 15.425781 38.105469 Z M 14.84375 40.449219 "/>
<path style=" stroke:none;fill-rule:nonzero;fill:rgb(0%,0%,0%);fill-opacity:1;" d="M 25.019531 39.117188 L 28.359375 39.117188 C 28.527344 39.117188 28.753906 39.117188 28.753906 38.875 C 28.753906 38.648438 28.527344 38.648438 28.359375 38.648438 L 25.019531 38.648438 L 25.019531 35.292969 C 25.019531 35.125 25.019531 34.898438 24.777344 34.898438 C 24.535156 34.898438 24.535156 35.125 24.535156 35.292969 L 24.535156 38.648438 L 21.195312 38.648438 C 21.027344 38.648438 20.800781 38.648438 20.800781 38.875 C 20.800781 39.117188 21.027344 39.117188 21.195312 39.117188 L 24.535156 39.117188 L 24.535156 42.472656 C 24.535156 42.644531 24.535156 42.867188 24.777344 42.867188 C 25.019531 42.867188 25.019531 42.644531 25.019531 42.472656 Z M 25.019531 39.117188 "/>
<path style=" stroke:none;fill-rule:nonzero;fill:rgb(0%,0%,0%);fill-opacity:1;" d="M 35.515625 33.699219 C 35.515625 33.699219 35.515625 33.566406 35.363281 33.566406 C 35.082031 33.566406 34.21875 33.660156 33.902344 33.699219 C 33.808594 33.699219 33.675781 33.71875 33.675781 33.925781 C 33.675781 34.074219 33.789062 34.074219 33.957031 34.074219 C 34.539062 34.074219 34.558594 34.148438 34.558594 34.28125 L 34.519531 34.523438 L 32.796875 41.40625 C 32.738281 41.574219 32.738281 41.59375 32.738281 41.667969 C 32.738281 41.949219 32.984375 42.003906 33.09375 42.003906 C 33.28125 42.003906 33.46875 41.855469 33.527344 41.6875 L 33.75 40.785156 L 34.015625 39.71875 C 34.089844 39.4375 34.164062 39.175781 34.21875 38.910156 C 34.238281 38.835938 34.351562 38.441406 34.351562 38.367188 C 34.390625 38.253906 34.765625 37.597656 35.175781 37.261719 C 35.4375 37.074219 35.796875 36.847656 36.320312 36.847656 C 36.828125 36.847656 36.957031 37.261719 36.957031 37.691406 C 36.957031 38.332031 36.507812 39.644531 36.226562 40.375 C 36.132812 40.636719 36.058594 40.785156 36.058594 41.03125 C 36.058594 41.59375 36.488281 42.003906 37.050781 42.003906 C 38.175781 42.003906 38.609375 40.261719 38.609375 40.167969 C 38.609375 40.035156 38.515625 40.035156 38.476562 40.035156 C 38.34375 40.035156 38.34375 40.074219 38.289062 40.261719 C 38.121094 40.898438 37.726562 41.742188 37.070312 41.742188 C 36.863281 41.742188 36.789062 41.628906 36.789062 41.347656 C 36.789062 41.050781 36.882812 40.769531 36.996094 40.503906 C 37.183594 39.980469 37.726562 38.554688 37.726562 37.863281 C 37.726562 37.09375 37.257812 36.585938 36.359375 36.585938 C 35.609375 36.585938 35.027344 36.960938 34.578125 37.503906 Z M 35.515625 33.699219 "/>
<path style=" stroke:none;fill-rule:nonzero;fill:rgb(0%,0%,0%);fill-opacity:1;" d="M 42.421875 38.875 C 42.421875 37.957031 42.289062 36.511719 41.632812 35.144531 C 40.921875 33.679688 39.890625 32.894531 39.777344 32.894531 C 39.703125 32.894531 39.644531 32.949219 39.644531 33.023438 C 39.644531 33.0625 39.644531 33.082031 39.871094 33.304688 C 41.050781 34.488281 41.726562 36.378906 41.726562 38.875 C 41.726562 40.9375 41.296875 43.035156 39.816406 44.535156 C 39.644531 44.6875 39.644531 44.707031 39.644531 44.742188 C 39.644531 44.816406 39.703125 44.875 39.777344 44.875 C 39.890625 44.875 40.976562 44.050781 41.671875 42.53125 C 42.289062 41.21875 42.421875 39.886719 42.421875 38.875 Z M 42.421875 38.875 "/>
<path style="fill-rule:nonzero;fill:rgb(59.999084%,59.999084%,59.999084%);fill-opacity:1;stroke-width:0.8;stroke-linecap:butt;stroke-linejoin:miter;stroke:rgb(100%,100%,100%);stroke-opacity:1;stroke-miterlimit:4;" d="M 154.371094 100.796875 C 154.371094 102.125 153.296875 103.199219 151.972656 103.199219 C 150.644531 103.199219 149.570312 102.125 149.570312 100.796875 C 149.570312 99.472656 150.644531 98.398438 151.972656 98.398438 C 153.296875 98.398438 154.371094 99.472656 154.371094 100.796875 Z M 154.371094 100.796875 "/>
</g>
</svg>
