<?xml version="1.0" encoding="UTF-8"?>
<svg xmlns="http://www.w3.org/2000/svg" xmlns:xlink="http://www.w3.org/1999/xlink" width="431.024994pt" height="180.58551pt" viewBox="0 0 431.024994 180.58551" version="1.1">
<defs>
<clipPath id="clip1">
  <path d="M 4 0 L 195 0 L 195 180.585938 L 4 180.585938 Z M 4 0 "/>
</clipPath>
<clipPath id="clip2">
  <path d="M 234 0 L 426 0 L 426 180.585938 L 234 180.585938 Z M 234 0 "/>
</clipPath>
<clipPath id="clip3">
  <path d="M 422 89 L 431.023438 89 L 431.023438 98 L 422 98 Z M 422 89 "/>
</clipPath>
</defs>
<g id="surface1">
<g clip-path="url(#clip1)" clip-rule="nonzero">
<path style="fill:none;stroke-width:1.6;stroke-linecap:butt;stroke-linejoin:miter;stroke:rgb(0%,0%,0%);stroke-opacity:1;stroke-miterlimit:4;" d="M 185.9375 93.375 C 185.9375 141.09375 147.253906 179.773438 99.535156 179.773438 C 51.820312 179.773438 13.136719 141.09375 13.136719 93.375 C 13.136719 45.65625 51.820312 6.976562 99.535156 6.976562 C 147.253906 6.976562 185.9375 45.65625 185.9375 93.375 Z M 185.9375 93.375 "/>
</g>
<path style="fill:none;stroke-width:0.8;stroke-linecap:butt;stroke-linejoin:miter;stroke:rgb(100%,0%,0%);stroke-opacity:1;stroke-miterlimit:4;" d="M 120.488281 17.304688 L 126.019531 25.152344 L 133.867188 19.625 "/>
<path style="fill:none;stroke-width:1.6;stroke-linecap:butt;stroke-linejoin:miter;stroke:rgb(0%,0%,0%);stroke-opacity:1;stroke-miterlimit:4;" d="M 13.136719 93.375 L 185.9375 93.375 L 128.335938 11.773438 Z M 13.136719 93.375 "/>
<path style=" stroke:none;fill-rule:nonzero;fill:rgb(0%,0%,0%);fill-opacity:1;" d="M 55.914062 96.660156 C 55.914062 96.359375 55.914062 96.339844 55.632812 96.339844 C 54.882812 97.109375 53.832031 97.109375 53.457031 97.109375 L 53.457031 97.484375 C 53.699219 97.484375 54.394531 97.484375 55.011719 97.167969 L 55.011719 103.371094 C 55.011719 103.804688 54.976562 103.933594 53.90625 103.933594 L 53.53125 103.933594 L 53.53125 104.308594 C 53.945312 104.273438 54.976562 104.273438 55.460938 104.273438 C 55.929688 104.273438 56.980469 104.273438 57.394531 104.308594 L 57.394531 103.933594 L 57.019531 103.933594 C 55.929688 103.933594 55.914062 103.804688 55.914062 103.371094 Z M 55.914062 96.660156 "/>
<path style=" stroke:none;fill-rule:nonzero;fill:rgb(0%,0%,0%);fill-opacity:1;" d="M 147.308594 96.660156 C 147.308594 96.359375 147.308594 96.339844 147.027344 96.339844 C 146.277344 97.109375 145.230469 97.109375 144.855469 97.109375 L 144.855469 97.484375 C 145.097656 97.484375 145.792969 97.484375 146.410156 97.167969 L 146.410156 103.371094 C 146.410156 103.804688 146.371094 103.933594 145.304688 103.933594 L 144.929688 103.933594 L 144.929688 104.308594 C 145.339844 104.273438 146.371094 104.273438 146.859375 104.273438 C 147.328125 104.273438 148.378906 104.273438 148.792969 104.308594 L 148.792969 103.933594 L 148.417969 103.933594 C 147.328125 103.933594 147.308594 103.804688 147.308594 103.371094 Z M 147.308594 96.660156 "/>
<path style="fill:none;stroke-width:0.8;stroke-linecap:butt;stroke-linejoin:miter;stroke:rgb(100%,0%,0%);stroke-opacity:1;stroke-miterlimit:4;" d="M 37.824219 78.542969 C 39.988281 82.148438 41.339844 86.183594 41.777344 90.363281 "/>
<path style="fill-rule:evenodd;fill:rgb(100%,0%,0%);fill-opacity:1;stroke-width:0.171433;stroke-linecap:butt;stroke-linejoin:miter;stroke:rgb(100%,0%,0%);stroke-opacity:1;stroke-miterlimit:4;" d="M 75.226717 6.884394 L 75.915078 6.200347 L 73.516085 6.883886 L 75.912489 7.569885 Z M 75.226717 6.884394 " transform="matrix(0.600861,1,-1,0.600861,0,0)"/>
<path style="fill-rule:evenodd;fill:rgb(100%,0%,0%);fill-opacity:1;stroke-width:0.198904;stroke-linecap:butt;stroke-linejoin:miter;stroke:rgb(100%,0%,0%);stroke-opacity:1;stroke-miterlimit:4;" d="M -92.766085 31.929601 L -91.971548 31.134204 L -94.754164 31.927677 L -91.970688 32.724138 Z M -92.766085 31.929601 " transform="matrix(-0.105104,-1,1,-0.105104,0,0)"/>
<path style="fill:none;stroke-width:0.8;stroke-linecap:butt;stroke-linejoin:miter;stroke:rgb(100%,0%,0%);stroke-opacity:1;stroke-miterlimit:4;" d="M 157.253906 90.769531 C 157.929688 83.320312 161.480469 76.425781 167.152344 71.546875 "/>
<path style="fill-rule:evenodd;fill:rgb(100%,0%,0%);fill-opacity:1;stroke-width:0.19918;stroke-linecap:butt;stroke-linejoin:miter;stroke:rgb(100%,0%,0%);stroke-opacity:1;stroke-miterlimit:4;" d="M -74.91053 164.146263 L -74.111999 163.347187 L -76.899085 164.143247 L -74.111806 164.940919 Z M -74.91053 164.146263 " transform="matrix(0.0908085,-1,1,0.0908085,0,0)"/>
<path style="fill-rule:evenodd;fill:rgb(100%,0%,0%);fill-opacity:1;stroke-width:0.151591;stroke-linecap:butt;stroke-linejoin:miter;stroke:rgb(100%,0%,0%);stroke-opacity:1;stroke-miterlimit:4;" d="M -59.92512 -123.744512 L -59.319841 -124.352504 L -61.4409 -123.744332 L -59.31906 -123.136988 Z M -59.92512 -123.744512 " transform="matrix(-1,0.860618,-0.860618,-1,0,0)"/>
<path style=" stroke:none;fill-rule:nonzero;fill:rgb(0%,0%,0%);fill-opacity:1;" d="M 172.039062 81.226562 C 172.039062 80.328125 171.382812 79.59375 170.410156 79.59375 C 169.714844 79.59375 169.378906 79.78125 168.964844 80.082031 C 168.308594 80.570312 167.652344 81.734375 167.429688 82.632812 L 165.515625 90.226562 C 165.515625 90.28125 165.570312 90.359375 165.664062 90.359375 C 165.757812 90.359375 165.796875 90.320312 165.796875 90.300781 L 166.640625 86.984375 C 166.867188 87.714844 167.390625 88.144531 168.273438 88.144531 C 169.132812 88.144531 170.035156 87.734375 170.578125 87.207031 C 171.160156 86.664062 171.535156 85.894531 171.535156 85.015625 C 171.535156 84.152344 171.085938 83.515625 170.652344 83.234375 C 171.347656 82.820312 172.039062 82.089844 172.039062 81.226562 Z M 169.882812 83.214844 C 169.734375 83.269531 169.601562 83.289062 169.304688 83.289062 C 169.132812 83.289062 168.910156 83.308594 168.777344 83.25 C 168.816406 83.121094 169.246094 83.15625 169.378906 83.15625 C 169.621094 83.15625 169.734375 83.15625 169.882812 83.214844 Z M 171.367188 80.945312 C 171.367188 81.789062 170.914062 82.652344 170.296875 83.027344 C 169.960938 82.894531 169.734375 82.875 169.378906 82.875 C 169.117188 82.875 168.441406 82.859375 168.441406 83.25 C 168.441406 83.589844 169.058594 83.550781 169.265625 83.550781 C 169.714844 83.550781 169.902344 83.550781 170.257812 83.402344 C 170.710938 83.832031 170.765625 84.207031 170.785156 84.75 C 170.804688 85.445312 170.523438 86.34375 170.183594 86.8125 C 169.714844 87.453125 168.910156 87.882812 168.234375 87.882812 C 167.316406 87.882812 166.867188 87.1875 166.867188 86.34375 C 166.867188 86.234375 166.867188 86.046875 166.921875 85.820312 L 167.691406 82.800781 C 167.953125 81.769531 168.816406 79.859375 170.257812 79.859375 C 170.953125 79.859375 171.367188 80.234375 171.367188 80.945312 Z M 171.367188 80.945312 "/>
<path style=" stroke:none;fill-rule:nonzero;fill:rgb(0%,0%,0%);fill-opacity:1;" d="M 33.488281 87.179688 C 33.488281 85.304688 32.382812 84.726562 31.503906 84.726562 C 29.851562 84.726562 28.277344 86.429688 28.277344 88.117188 C 28.277344 89.242188 28.988281 90.144531 30.226562 90.144531 C 30.976562 90.144531 31.839844 89.863281 32.738281 89.132812 C 32.890625 89.769531 33.285156 90.144531 33.828125 90.144531 C 34.464844 90.144531 34.839844 89.488281 34.839844 89.300781 C 34.839844 89.207031 34.765625 89.167969 34.691406 89.167969 C 34.613281 89.167969 34.578125 89.207031 34.539062 89.300781 C 34.316406 89.882812 33.882812 89.882812 33.863281 89.882812 C 33.488281 89.882812 33.488281 88.945312 33.488281 88.664062 C 33.488281 88.417969 33.488281 88.382812 33.621094 88.25 C 34.746094 86.824219 34.988281 85.4375 34.988281 85.4375 C 34.988281 85.398438 34.972656 85.304688 34.839844 85.304688 C 34.726562 85.304688 34.726562 85.34375 34.671875 85.570312 C 34.445312 86.320312 34.050781 87.21875 33.488281 87.929688 Z M 32.703125 88.832031 C 31.632812 89.75 30.714844 89.882812 30.246094 89.882812 C 29.535156 89.882812 29.160156 89.335938 29.160156 88.570312 C 29.160156 87.988281 29.476562 86.695312 29.851562 86.09375 C 30.414062 85.210938 31.070312 84.988281 31.484375 84.988281 C 32.664062 84.988281 32.664062 86.5625 32.664062 87.480469 C 32.664062 87.929688 32.664062 88.625 32.703125 88.832031 Z M 32.703125 88.832031 "/>
<g clip-path="url(#clip2)" clip-rule="nonzero">
<path style="fill:none;stroke-width:1.6;stroke-linecap:butt;stroke-linejoin:miter;stroke:rgb(0%,0%,0%);stroke-opacity:1;stroke-miterlimit:4;" d="M 416.335938 93.375 C 416.335938 141.09375 377.65625 179.773438 329.9375 179.773438 C 282.21875 179.773438 243.535156 141.09375 243.535156 93.375 C 243.535156 45.65625 282.21875 6.976562 329.9375 6.976562 C 377.65625 6.976562 416.335938 45.65625 416.335938 93.375 Z M 416.335938 93.375 "/>
</g>
<path style="fill:none;stroke-width:1.6;stroke-linecap:butt;stroke-linejoin:miter;stroke:rgb(0%,0%,0%);stroke-opacity:1;stroke-miterlimit:4;" d="M 243.535156 93.375 L 416.335938 93.375 L 358.738281 11.773438 Z M 243.535156 93.375 "/>
<path style="fill-rule:nonzero;fill:rgb(0%,100%,100%);fill-opacity:1;stroke-width:0.8;stroke-linecap:butt;stroke-linejoin:miter;stroke:rgb(0%,0%,0%);stroke-opacity:1;stroke-miterlimit:4;" d="M 329.9375 93.375 L 243.535156 93.375 L 358.738281 11.773438 Z M 329.9375 93.375 "/>
<path style="fill-rule:nonzero;fill:rgb(0%,100%,0%);fill-opacity:1;stroke-width:0.8;stroke-linecap:butt;stroke-linejoin:miter;stroke:rgb(0%,0%,0%);stroke-opacity:1;stroke-miterlimit:4;" d="M 416.335938 93.375 L 329.9375 93.375 L 358.738281 11.773438 Z M 416.335938 93.375 "/>
<path style=" stroke:none;fill-rule:nonzero;fill:rgb(0%,0%,0%);fill-opacity:1;" d="M 286.3125 96.660156 C 286.3125 96.359375 286.3125 96.339844 286.03125 96.339844 C 285.28125 97.109375 284.230469 97.109375 283.855469 97.109375 L 283.855469 97.484375 C 284.101562 97.484375 284.792969 97.484375 285.414062 97.167969 L 285.414062 103.371094 C 285.414062 103.804688 285.375 103.933594 284.304688 103.933594 L 283.929688 103.933594 L 283.929688 104.308594 C 284.34375 104.273438 285.375 104.273438 285.863281 104.273438 C 286.332031 104.273438 287.382812 104.273438 287.792969 104.308594 L 287.792969 103.933594 L 287.417969 103.933594 C 286.332031 103.933594 286.3125 103.804688 286.3125 103.371094 Z M 286.3125 96.660156 "/>
<path style=" stroke:none;fill-rule:nonzero;fill:rgb(0%,0%,0%);fill-opacity:1;" d="M 377.710938 96.660156 C 377.710938 96.359375 377.710938 96.339844 377.429688 96.339844 C 376.679688 97.109375 375.628906 97.109375 375.253906 97.109375 L 375.253906 97.484375 C 375.496094 97.484375 376.191406 97.484375 376.808594 97.167969 L 376.808594 103.371094 C 376.808594 103.804688 376.773438 103.933594 375.703125 103.933594 L 375.328125 103.933594 L 375.328125 104.308594 C 375.742188 104.273438 376.773438 104.273438 377.261719 104.273438 C 377.730469 104.273438 378.777344 104.273438 379.191406 104.308594 L 379.191406 103.933594 L 378.816406 103.933594 C 377.730469 103.933594 377.710938 103.804688 377.710938 103.371094 Z M 377.710938 96.660156 "/>
<path style=" stroke:none;fill-rule:nonzero;fill:rgb(0%,0%,0%);fill-opacity:1;" d="M 339.113281 48.660156 C 339.113281 48.359375 339.113281 48.339844 338.832031 48.339844 C 338.082031 49.109375 337.03125 49.109375 336.65625 49.109375 L 336.65625 49.484375 C 336.898438 49.484375 337.59375 49.484375 338.210938 49.167969 L 338.210938 55.371094 C 338.210938 55.804688 338.175781 55.933594 337.105469 55.933594 L 336.730469 55.933594 L 336.730469 56.308594 C 337.144531 56.273438 338.175781 56.273438 338.664062 56.273438 C 339.132812 56.273438 340.179688 56.273438 340.59375 56.308594 L 340.59375 55.933594 L 340.21875 55.933594 C 339.132812 55.933594 339.113281 55.804688 339.113281 55.371094 Z M 339.113281 48.660156 "/>
<path style="fill:none;stroke-width:0.8;stroke-linecap:butt;stroke-linejoin:miter;stroke:rgb(100%,0%,0%);stroke-opacity:1;stroke-miterlimit:4;" d="M 268.222656 78.542969 C 270.390625 82.148438 271.738281 86.183594 272.179688 90.363281 "/>
<path style="fill-rule:evenodd;fill:rgb(100%,0%,0%);fill-opacity:1;stroke-width:0.171433;stroke-linecap:butt;stroke-linejoin:miter;stroke:rgb(100%,0%,0%);stroke-opacity:1;stroke-miterlimit:4;" d="M 176.943345 -162.400395 L 177.631706 -163.084442 L 175.230988 -162.398033 L 177.629116 -161.714904 Z M 176.943345 -162.400395 " transform="matrix(0.600861,1,-1,0.600861,0,0)"/>
<path style="fill-rule:evenodd;fill:rgb(100%,0%,0%);fill-opacity:1;stroke-width:0.198904;stroke-linecap:butt;stroke-linejoin:miter;stroke:rgb(100%,0%,0%);stroke-opacity:1;stroke-miterlimit:4;" d="M -116.717297 259.81067 L -115.92276 259.015273 L -118.705782 259.81261 L -115.9219 260.605207 Z M -116.717297 259.81067 " transform="matrix(-0.105104,-1,1,-0.105104,0,0)"/>
<path style="fill:none;stroke-width:0.8;stroke-linecap:butt;stroke-linejoin:miter;stroke:rgb(100%,0%,0%);stroke-opacity:1;stroke-miterlimit:4;" d="M -346.960938 -38.058594 C -342.769531 -36.179688 -339.085938 -33.324219 -336.222656 -29.734375 " transform="matrix(-1,0,0,-1,0,0)"/>
<path style="fill-rule:evenodd;fill:rgb(100%,0%,0%);fill-opacity:1;stroke-width:0.182515;stroke-linecap:butt;stroke-linejoin:miter;stroke:rgb(100%,0%,0%);stroke-opacity:1;stroke-miterlimit:4;" d="M -302.273124 97.778781 L -301.541671 97.048687 L -304.09843 97.776354 L -301.541234 98.505523 Z M -302.273124 97.778781 " transform="matrix(-1,-0.448081,0.448081,-1,0,0)"/>
<path style="fill-rule:evenodd;fill:rgb(100%,0%,0%);fill-opacity:1;stroke-width:0.15636;stroke-linecap:butt;stroke-linejoin:miter;stroke:rgb(100%,0%,0%);stroke-opacity:1;stroke-miterlimit:4;" d="M 182.823828 -191.008803 L 183.448639 -191.635484 L 181.25898 -191.010757 L 183.448605 -190.381605 Z M 182.823828 -191.008803 " transform="matrix(0.797552,1,-1,0.797552,0,0)"/>
<path style="fill:none;stroke-width:0.8;stroke-linecap:butt;stroke-linejoin:miter;stroke:rgb(100%,0%,0%);stroke-opacity:1;stroke-miterlimit:4;" d="M 387.65625 90.769531 C 388.332031 83.320312 391.878906 76.425781 397.550781 71.546875 "/>
<path style="fill-rule:evenodd;fill:rgb(100%,0%,0%);fill-opacity:1;stroke-width:0.19918;stroke-linecap:butt;stroke-linejoin:miter;stroke:rgb(100%,0%,0%);stroke-opacity:1;stroke-miterlimit:4;" d="M -54.159511 392.660331 L -53.36098 391.861256 L -56.147714 392.66119 L -53.360786 393.454988 Z M -54.159511 392.660331 " transform="matrix(0.0908085,-1,1,0.0908085,0,0)"/>
<path style="fill-rule:evenodd;fill:rgb(100%,0%,0%);fill-opacity:1;stroke-width:0.151591;stroke-linecap:butt;stroke-linejoin:miter;stroke:rgb(100%,0%,0%);stroke-opacity:1;stroke-miterlimit:4;" d="M -192.289799 -237.659937 L -191.682275 -238.265997 L -193.805579 -237.659757 L -191.683739 -237.052413 Z M -192.289799 -237.659937 " transform="matrix(-1,0.860618,-0.860618,-1,0,0)"/>
<path style="fill:none;stroke-width:0.8;stroke-linecap:butt;stroke-linejoin:miter;stroke:rgb(100%,0%,0%);stroke-opacity:1;stroke-miterlimit:4;" d="M -36.527344 373.460938 C -40.378906 366.984375 -41.539062 359.253906 -39.757812 351.929688 " transform="matrix(0,-1,1,0,0,0)"/>
<path style="fill-rule:evenodd;fill:rgb(100%,0%,0%);fill-opacity:1;stroke-width:0.171883;stroke-linecap:butt;stroke-linejoin:miter;stroke:rgb(100%,0%,0%);stroke-opacity:1;stroke-miterlimit:4;" d="M -258.963055 -191.076113 L -258.2759 -191.764972 L -260.680498 -191.078311 L -258.274196 -190.388958 Z M -258.963055 -191.076113 " transform="matrix(-1,0.594913,-0.594913,-1,0,0)"/>
<path style="fill-rule:evenodd;fill:rgb(100%,0%,0%);fill-opacity:1;stroke-width:0.194334;stroke-linecap:butt;stroke-linejoin:miter;stroke:rgb(100%,0%,0%);stroke-opacity:1;stroke-miterlimit:4;" d="M 342.336048 -43.281337 L 343.112444 -44.056116 L 340.394538 -43.281764 L 343.115412 -42.50215 Z M 342.336048 -43.281337 " transform="matrix(1,0.243228,-0.243228,1,0,0)"/>
<path style=" stroke:none;fill-rule:nonzero;fill:rgb(0%,0%,0%);fill-opacity:1;" d="M 402.441406 81.226562 C 402.441406 80.328125 401.785156 79.59375 400.808594 79.59375 C 400.117188 79.59375 399.777344 79.78125 399.367188 80.082031 C 398.710938 80.570312 398.054688 81.734375 397.828125 82.632812 L 395.914062 90.226562 C 395.914062 90.28125 395.972656 90.359375 396.066406 90.359375 C 396.160156 90.359375 396.195312 90.320312 396.195312 90.300781 L 397.039062 86.984375 C 397.265625 87.714844 397.789062 88.144531 398.671875 88.144531 C 399.535156 88.144531 400.433594 87.734375 400.976562 87.207031 C 401.558594 86.664062 401.933594 85.894531 401.933594 85.015625 C 401.933594 84.152344 401.484375 83.515625 401.054688 83.234375 C 401.746094 82.820312 402.441406 82.089844 402.441406 81.226562 Z M 400.285156 83.214844 C 400.132812 83.269531 400.003906 83.289062 399.703125 83.289062 C 399.535156 83.289062 399.308594 83.308594 399.179688 83.25 C 399.214844 83.121094 399.648438 83.15625 399.777344 83.15625 C 400.023438 83.15625 400.132812 83.15625 400.285156 83.214844 Z M 401.765625 80.945312 C 401.765625 81.789062 401.316406 82.652344 400.695312 83.027344 C 400.359375 82.894531 400.132812 82.875 399.777344 82.875 C 399.515625 82.875 398.839844 82.859375 398.839844 83.25 C 398.839844 83.589844 399.460938 83.550781 399.664062 83.550781 C 400.117188 83.550781 400.304688 83.550781 400.660156 83.402344 C 401.109375 83.832031 401.164062 84.207031 401.183594 84.75 C 401.203125 85.445312 400.921875 86.34375 400.585938 86.8125 C 400.117188 87.453125 399.308594 87.882812 398.632812 87.882812 C 397.714844 87.882812 397.265625 87.1875 397.265625 86.34375 C 397.265625 86.234375 397.265625 86.046875 397.320312 85.820312 L 398.089844 82.800781 C 398.351562 81.769531 399.214844 79.859375 400.660156 79.859375 C 401.351562 79.859375 401.765625 80.234375 401.765625 80.945312 Z M 401.765625 80.945312 "/>
<path style=" stroke:none;fill-rule:nonzero;fill:rgb(0%,0%,0%);fill-opacity:1;" d="M 363.25 26 C 363.25 25.101562 362.59375 24.371094 361.617188 24.371094 C 360.921875 24.371094 360.585938 24.558594 360.171875 24.859375 C 359.515625 25.34375 358.859375 26.507812 358.636719 27.40625 L 356.722656 35 C 356.722656 35.058594 356.78125 35.132812 356.875 35.132812 C 356.96875 35.132812 357.003906 35.09375 357.003906 35.078125 L 357.847656 31.757812 C 358.074219 32.488281 358.597656 32.921875 359.480469 32.921875 C 360.34375 32.921875 361.242188 32.507812 361.785156 31.984375 C 362.367188 31.4375 362.742188 30.671875 362.742188 29.789062 C 362.742188 28.925781 362.292969 28.289062 361.859375 28.007812 C 362.554688 27.59375 363.25 26.863281 363.25 26 Z M 361.09375 27.988281 C 360.941406 28.046875 360.8125 28.0625 360.511719 28.0625 C 360.34375 28.0625 360.117188 28.082031 359.984375 28.027344 C 360.023438 27.894531 360.453125 27.933594 360.585938 27.933594 C 360.828125 27.933594 360.941406 27.933594 361.09375 27.988281 Z M 362.574219 25.71875 C 362.574219 26.5625 362.125 27.425781 361.503906 27.800781 C 361.167969 27.671875 360.941406 27.652344 360.585938 27.652344 C 360.324219 27.652344 359.648438 27.632812 359.648438 28.027344 C 359.648438 28.363281 360.265625 28.328125 360.472656 28.328125 C 360.921875 28.328125 361.109375 28.328125 361.46875 28.175781 C 361.917969 28.609375 361.972656 28.984375 361.992188 29.527344 C 362.011719 30.21875 361.730469 31.121094 361.390625 31.589844 C 360.921875 32.226562 360.117188 32.65625 359.441406 32.65625 C 358.523438 32.65625 358.074219 31.964844 358.074219 31.121094 C 358.074219 31.007812 358.074219 30.820312 358.128906 30.59375 L 358.898438 27.578125 C 359.160156 26.546875 360.023438 24.632812 361.46875 24.632812 C 362.160156 24.632812 362.574219 25.007812 362.574219 25.71875 Z M 362.574219 25.71875 "/>
<path style=" stroke:none;fill-rule:nonzero;fill:rgb(0%,0%,0%);fill-opacity:1;" d="M 263.890625 87.179688 C 263.890625 85.304688 262.785156 84.726562 261.902344 84.726562 C 260.253906 84.726562 258.675781 86.429688 258.675781 88.117188 C 258.675781 89.242188 259.390625 90.144531 260.628906 90.144531 C 261.378906 90.144531 262.238281 89.863281 263.140625 89.132812 C 263.289062 89.769531 263.683594 90.144531 264.226562 90.144531 C 264.863281 90.144531 265.238281 89.488281 265.238281 89.300781 C 265.238281 89.207031 265.164062 89.167969 265.089844 89.167969 C 265.015625 89.167969 264.976562 89.207031 264.941406 89.300781 C 264.714844 89.882812 264.285156 89.882812 264.265625 89.882812 C 263.890625 89.882812 263.890625 88.945312 263.890625 88.664062 C 263.890625 88.417969 263.890625 88.382812 264.019531 88.25 C 265.144531 86.824219 265.390625 85.4375 265.390625 85.4375 C 265.390625 85.398438 265.371094 85.304688 265.238281 85.304688 C 265.128906 85.304688 265.128906 85.34375 265.070312 85.570312 C 264.847656 86.320312 264.453125 87.21875 263.890625 87.929688 Z M 263.101562 88.832031 C 262.035156 89.75 261.113281 89.882812 260.644531 89.882812 C 259.933594 89.882812 259.558594 89.335938 259.558594 88.570312 C 259.558594 87.988281 259.878906 86.695312 260.253906 86.09375 C 260.816406 85.210938 261.472656 84.988281 261.882812 84.988281 C 263.066406 84.988281 263.066406 86.5625 263.066406 87.480469 C 263.066406 87.929688 263.066406 88.625 263.101562 88.832031 Z M 263.101562 88.832031 "/>
<path style=" stroke:none;fill-rule:nonzero;fill:rgb(0%,0%,0%);fill-opacity:1;" d="M 347.320312 28.195312 C 347.320312 26.320312 346.214844 25.738281 345.332031 25.738281 C 343.683594 25.738281 342.109375 27.445312 342.109375 29.132812 C 342.109375 30.257812 342.820312 31.15625 344.058594 31.15625 C 344.808594 31.15625 345.671875 30.875 346.570312 30.144531 C 346.71875 30.78125 347.113281 31.15625 347.65625 31.15625 C 348.296875 31.15625 348.671875 30.5 348.671875 30.3125 C 348.671875 30.21875 348.59375 30.183594 348.519531 30.183594 C 348.445312 30.183594 348.40625 30.21875 348.371094 30.3125 C 348.144531 30.894531 347.714844 30.894531 347.695312 30.894531 C 347.320312 30.894531 347.320312 29.957031 347.320312 29.675781 C 347.320312 29.433594 347.320312 29.394531 347.453125 29.265625 C 348.578125 27.839844 348.820312 26.453125 348.820312 26.453125 C 348.820312 26.414062 348.800781 26.320312 348.671875 26.320312 C 348.558594 26.320312 348.558594 26.359375 348.5 26.582031 C 348.277344 27.332031 347.882812 28.234375 347.320312 28.945312 Z M 346.53125 29.84375 C 345.464844 30.765625 344.546875 30.894531 344.078125 30.894531 C 343.363281 30.894531 342.988281 30.351562 342.988281 29.582031 C 342.988281 29 343.308594 27.707031 343.683594 27.109375 C 344.246094 26.226562 344.902344 26 345.3125 26 C 346.496094 26 346.496094 27.578125 346.496094 28.496094 C 346.496094 28.945312 346.496094 29.640625 346.53125 29.84375 Z M 346.53125 29.84375 "/>
<path style=" stroke:none;fill-rule:nonzero;fill:rgb(0%,0%,0%);fill-opacity:1;" d="M 332.335938 93.375 C 332.335938 94.703125 331.261719 95.777344 329.933594 95.777344 C 328.609375 95.777344 327.535156 94.703125 327.535156 93.375 C 327.535156 92.050781 328.609375 90.976562 329.933594 90.976562 C 331.261719 90.976562 332.335938 92.050781 332.335938 93.375 Z M 332.335938 93.375 "/>
<path style=" stroke:none;fill-rule:nonzero;fill:rgb(0%,0%,0%);fill-opacity:1;" d="M 101.925781 93.382812 C 101.925781 94.707031 100.851562 95.78125 99.523438 95.78125 C 98.199219 95.78125 97.125 94.707031 97.125 93.382812 C 97.125 92.054688 98.199219 90.980469 99.523438 90.980469 C 100.851562 90.980469 101.925781 92.054688 101.925781 93.382812 Z M 101.925781 93.382812 "/>
<path style=" stroke:none;fill-rule:nonzero;fill:rgb(0%,0%,0%);fill-opacity:1;" d="M 1.726562 96.246094 C 1.257812 97.035156 0.789062 97.203125 0.261719 97.242188 C 0.113281 97.257812 0 97.257812 0 97.484375 C 0 97.558594 0.0742188 97.617188 0.167969 97.617188 C 0.488281 97.617188 0.863281 97.578125 1.179688 97.578125 C 1.59375 97.578125 2.007812 97.617188 2.382812 97.617188 C 2.457031 97.617188 2.605469 97.617188 2.605469 97.390625 C 2.605469 97.257812 2.511719 97.242188 2.417969 97.242188 C 2.15625 97.222656 1.855469 97.128906 1.855469 96.828125 C 1.855469 96.679688 1.929688 96.546875 2.023438 96.378906 L 2.945312 94.859375 L 5.945312 94.859375 C 5.960938 95.101562 6.132812 96.734375 6.132812 96.847656 C 6.132812 97.203125 5.511719 97.242188 5.269531 97.242188 C 5.101562 97.242188 4.988281 97.242188 4.988281 97.484375 C 4.988281 97.617188 5.117188 97.617188 5.15625 97.617188 C 5.644531 97.617188 6.148438 97.578125 6.636719 97.578125 C 6.9375 97.578125 7.707031 97.617188 8.007812 97.617188 C 8.0625 97.617188 8.210938 97.617188 8.210938 97.371094 C 8.210938 97.242188 8.101562 97.242188 7.929688 97.242188 C 7.199219 97.242188 7.199219 97.164062 7.164062 96.808594 L 6.429688 89.347656 C 6.414062 89.101562 6.414062 89.046875 6.207031 89.046875 C 6.019531 89.046875 5.960938 89.140625 5.886719 89.253906 Z M 3.167969 94.484375 L 5.511719 90.527344 L 5.90625 94.484375 Z M 3.167969 94.484375 "/>
<path style=" stroke:none;fill-rule:nonzero;fill:rgb(0%,0%,0%);fill-opacity:1;" d="M 193.5 96.679688 C 193.386719 97.148438 193.351562 97.242188 192.414062 97.242188 C 192.207031 97.242188 192.09375 97.242188 192.09375 97.484375 C 192.09375 97.617188 192.207031 97.617188 192.414062 97.617188 L 196.6875 97.617188 C 198.582031 97.617188 199.988281 96.210938 199.988281 95.027344 C 199.988281 94.164062 199.292969 93.472656 198.132812 93.339844 C 199.367188 93.117188 200.625 92.234375 200.625 91.089844 C 200.625 90.210938 199.835938 89.441406 198.414062 89.441406 L 194.382812 89.441406 C 194.15625 89.441406 194.042969 89.441406 194.042969 89.683594 C 194.042969 89.816406 194.15625 89.816406 194.382812 89.816406 C 194.398438 89.816406 194.625 89.816406 194.832031 89.835938 C 195.039062 89.871094 195.148438 89.871094 195.148438 90.039062 C 195.148438 90.078125 195.132812 90.117188 195.113281 90.265625 Z M 195.300781 93.226562 L 196.050781 90.265625 C 196.164062 89.851562 196.179688 89.816406 196.6875 89.816406 L 198.242188 89.816406 C 199.292969 89.816406 199.539062 90.527344 199.539062 91.054688 C 199.539062 92.101562 198.507812 93.226562 197.0625 93.226562 Z M 194.773438 97.242188 L 194.511719 97.242188 C 194.382812 97.222656 194.34375 97.203125 194.34375 97.109375 C 194.34375 97.070312 194.34375 97.054688 194.417969 96.847656 L 195.242188 93.507812 L 197.492188 93.507812 C 198.636719 93.507812 198.882812 94.390625 198.882812 94.898438 C 198.882812 96.078125 197.8125 97.242188 196.386719 97.242188 Z M 194.773438 97.242188 "/>
<path style=" stroke:none;fill-rule:nonzero;fill:rgb(0%,0%,0%);fill-opacity:1;" d="M 136.386719 0.132812 C 136.386719 0.09375 136.367188 0 136.253906 0 C 136.21875 0 136.199219 0.0195312 136.066406 0.148438 L 135.242188 1.070312 C 135.128906 0.898438 134.585938 0 133.253906 0 C 130.574219 0 127.890625 2.644531 127.890625 5.417969 C 127.890625 7.386719 129.296875 8.699219 131.136719 8.699219 C 132.167969 8.699219 133.085938 8.230469 133.722656 7.667969 C 134.828125 6.695312 135.035156 5.605469 135.035156 5.570312 C 135.035156 5.4375 134.90625 5.4375 134.886719 5.4375 C 134.8125 5.4375 134.753906 5.476562 134.734375 5.570312 C 134.625 5.90625 134.34375 6.769531 133.515625 7.460938 C 132.691406 8.117188 131.941406 8.324219 131.324219 8.324219 C 130.253906 8.324219 128.980469 7.707031 128.980469 5.851562 C 128.980469 5.15625 129.222656 3.226562 130.421875 1.820312 C 131.15625 0.976562 132.28125 0.375 133.347656 0.375 C 134.566406 0.375 135.28125 1.292969 135.28125 2.679688 C 135.28125 3.167969 135.242188 3.167969 135.242188 3.300781 C 135.242188 3.414062 135.375 3.414062 135.410156 3.414062 C 135.5625 3.414062 135.5625 3.394531 135.636719 3.167969 Z M 136.386719 0.132812 "/>
<path style=" stroke:none;fill-rule:nonzero;fill:rgb(0%,0%,0%);fill-opacity:1;" d="M 103.761719 101.5 C 103.761719 99.566406 102.488281 98.273438 100.707031 98.273438 C 98.136719 98.273438 95.496094 100.992188 95.496094 103.785156 C 95.496094 105.773438 96.84375 106.972656 98.570312 106.972656 C 101.101562 106.972656 103.761719 104.347656 103.761719 101.5 Z M 98.625 106.65625 C 97.445312 106.65625 96.621094 105.699219 96.621094 104.125 C 96.621094 103.582031 96.789062 101.835938 97.707031 100.449219 C 98.53125 99.191406 99.695312 98.574219 100.652344 98.574219 C 101.625 98.574219 102.695312 99.25 102.695312 101.03125 C 102.695312 101.894531 102.375 103.75 101.195312 105.230469 C 100.613281 105.960938 99.636719 106.65625 98.625 106.65625 Z M 98.625 106.65625 "/>
<path style=" stroke:none;fill-rule:nonzero;fill:rgb(0%,0%,0%);fill-opacity:1;" d="M 232.125 96.246094 C 231.65625 97.035156 231.1875 97.203125 230.664062 97.242188 C 230.511719 97.257812 230.398438 97.257812 230.398438 97.484375 C 230.398438 97.558594 230.476562 97.617188 230.570312 97.617188 C 230.886719 97.617188 231.261719 97.578125 231.582031 97.578125 C 231.992188 97.578125 232.40625 97.617188 232.78125 97.617188 C 232.855469 97.617188 233.007812 97.617188 233.007812 97.390625 C 233.007812 97.257812 232.914062 97.242188 232.820312 97.242188 C 232.554688 97.222656 232.257812 97.128906 232.257812 96.828125 C 232.257812 96.679688 232.332031 96.546875 232.425781 96.378906 L 233.34375 94.859375 L 236.34375 94.859375 C 236.363281 95.101562 236.53125 96.734375 236.53125 96.847656 C 236.53125 97.203125 235.914062 97.242188 235.667969 97.242188 C 235.5 97.242188 235.386719 97.242188 235.386719 97.484375 C 235.386719 97.617188 235.519531 97.617188 235.554688 97.617188 C 236.042969 97.617188 236.550781 97.578125 237.039062 97.578125 C 237.335938 97.578125 238.105469 97.617188 238.40625 97.617188 C 238.460938 97.617188 238.613281 97.617188 238.613281 97.371094 C 238.613281 97.242188 238.5 97.242188 238.332031 97.242188 C 237.601562 97.242188 237.601562 97.164062 237.5625 96.808594 L 236.832031 89.347656 C 236.8125 89.101562 236.8125 89.046875 236.605469 89.046875 C 236.417969 89.046875 236.363281 89.140625 236.289062 89.253906 Z M 233.570312 94.484375 L 235.914062 90.527344 L 236.304688 94.484375 Z M 233.570312 94.484375 "/>
<g clip-path="url(#clip3)" clip-rule="nonzero">
<path style=" stroke:none;fill-rule:nonzero;fill:rgb(0%,0%,0%);fill-opacity:1;" d="M 423.898438 96.679688 C 423.789062 97.148438 423.75 97.242188 422.8125 97.242188 C 422.605469 97.242188 422.492188 97.242188 422.492188 97.484375 C 422.492188 97.617188 422.605469 97.617188 422.8125 97.617188 L 427.085938 97.617188 C 428.980469 97.617188 430.386719 96.210938 430.386719 95.027344 C 430.386719 94.164062 429.695312 93.472656 428.53125 93.339844 C 429.769531 93.117188 431.023438 92.234375 431.023438 91.089844 C 431.023438 90.210938 430.238281 89.441406 428.8125 89.441406 L 424.78125 89.441406 C 424.554688 89.441406 424.445312 89.441406 424.445312 89.683594 C 424.445312 89.816406 424.554688 89.816406 424.78125 89.816406 C 424.800781 89.816406 425.023438 89.816406 425.230469 89.835938 C 425.4375 89.871094 425.550781 89.871094 425.550781 90.039062 C 425.550781 90.078125 425.53125 90.117188 425.511719 90.265625 Z M 425.699219 93.226562 L 426.449219 90.265625 C 426.5625 89.851562 426.582031 89.816406 427.085938 89.816406 L 428.644531 89.816406 C 429.695312 89.816406 429.9375 90.527344 429.9375 91.054688 C 429.9375 92.101562 428.90625 93.226562 427.460938 93.226562 Z M 425.175781 97.242188 L 424.914062 97.242188 C 424.78125 97.222656 424.742188 97.203125 424.742188 97.109375 C 424.742188 97.070312 424.742188 97.054688 424.820312 96.847656 L 425.644531 93.507812 L 427.894531 93.507812 C 429.039062 93.507812 429.28125 94.390625 429.28125 94.898438 C 429.28125 96.078125 428.210938 97.242188 426.789062 97.242188 Z M 425.175781 97.242188 "/>
</g>
<path style=" stroke:none;fill-rule:nonzero;fill:rgb(0%,0%,0%);fill-opacity:1;" d="M 366.785156 0.132812 C 366.785156 0.09375 366.765625 0 366.65625 0 C 366.617188 0 366.597656 0.0195312 366.46875 0.148438 L 365.640625 1.070312 C 365.53125 0.898438 364.984375 0 363.65625 0 C 360.972656 0 358.292969 2.644531 358.292969 5.417969 C 358.292969 7.386719 359.699219 8.699219 361.535156 8.699219 C 362.566406 8.699219 363.484375 8.230469 364.125 7.667969 C 365.230469 6.695312 365.4375 5.605469 365.4375 5.570312 C 365.4375 5.4375 365.304688 5.4375 365.285156 5.4375 C 365.210938 5.4375 365.15625 5.476562 365.136719 5.570312 C 365.023438 5.90625 364.742188 6.769531 363.917969 7.460938 C 363.09375 8.117188 362.34375 8.324219 361.722656 8.324219 C 360.65625 8.324219 359.378906 7.707031 359.378906 5.851562 C 359.378906 5.15625 359.625 3.226562 360.824219 1.820312 C 361.554688 0.976562 362.679688 0.375 363.75 0.375 C 364.96875 0.375 365.679688 1.292969 365.679688 2.679688 C 365.679688 3.167969 365.640625 3.167969 365.640625 3.300781 C 365.640625 3.414062 365.773438 3.414062 365.8125 3.414062 C 365.960938 3.414062 365.960938 3.394531 366.035156 3.167969 Z M 366.785156 0.132812 "/>
<path style=" stroke:none;fill-rule:nonzero;fill:rgb(0%,0%,0%);fill-opacity:1;" d="M 334.164062 101.5 C 334.164062 99.566406 332.886719 98.273438 331.105469 98.273438 C 328.539062 98.273438 325.894531 100.992188 325.894531 103.785156 C 325.894531 105.773438 327.246094 106.972656 328.96875 106.972656 C 331.5 106.972656 334.164062 104.347656 334.164062 101.5 Z M 329.027344 106.65625 C 327.84375 106.65625 327.019531 105.699219 327.019531 104.125 C 327.019531 103.582031 327.1875 101.835938 328.105469 100.449219 C 328.933594 99.191406 330.09375 98.574219 331.050781 98.574219 C 332.027344 98.574219 333.09375 99.25 333.09375 101.03125 C 333.09375 101.894531 332.777344 103.75 331.59375 105.230469 C 331.011719 105.960938 330.039062 106.65625 329.027344 106.65625 Z M 329.027344 106.65625 "/>
</g>
</svg>
