<?xml version="1.0" encoding="UTF-8"?>
<svg xmlns="http://www.w3.org/2000/svg" xmlns:xlink="http://www.w3.org/1999/xlink" width="332.796875pt" height="261.193817pt" viewBox="0 0 332.796875 261.193817" version="1.1">
<defs>
<clipPath id="clip1">
  <path d="M 273 230 L 304 230 L 304 261.195312 L 273 261.195312 Z M 273 230 "/>
</clipPath>
<clipPath id="clip2">
  <path d="M 215 230 L 247 230 L 247 261.195312 L 215 261.195312 Z M 215 230 "/>
</clipPath>
<clipPath id="clip3">
  <path d="M 302 173 L 332.796875 173 L 332.796875 204 L 302 204 Z M 302 173 "/>
</clipPath>
</defs>
<g id="surface1">
<path style="fill:none;stroke-width:1.6;stroke-linecap:round;stroke-linejoin:round;stroke:rgb(0%,0%,0%);stroke-opacity:1;stroke-miterlimit:4;" d="M 187.996094 0.800781 L 207.195312 0.800781 C 209.855469 0.800781 211.996094 2.941406 211.996094 5.601562 L 211.996094 24.800781 C 211.996094 27.460938 209.855469 29.601562 207.195312 29.601562 L 187.996094 29.601562 C 185.335938 29.601562 183.195312 27.460938 183.195312 24.800781 L 183.195312 5.601562 C 183.195312 2.941406 185.335938 0.800781 187.996094 0.800781 Z M 187.996094 0.800781 "/>
<path style=" stroke:none;fill-rule:nonzero;fill:rgb(0%,0%,0%);fill-opacity:1;" d="M 197.597656 14.652344 L 193.628906 10.683594 C 193.378906 10.433594 193.347656 10.402344 193.191406 10.402344 C 192.972656 10.402344 192.785156 10.558594 192.785156 10.808594 C 192.785156 10.933594 192.816406 10.964844 193.035156 11.183594 L 197.035156 15.183594 L 193.035156 19.214844 C 192.816406 19.433594 192.785156 19.464844 192.785156 19.589844 C 192.785156 19.839844 192.972656 19.996094 193.191406 19.996094 C 193.347656 19.996094 193.378906 19.964844 193.628906 19.714844 L 197.597656 15.746094 L 201.722656 19.871094 C 201.753906 19.902344 201.878906 19.996094 202.003906 19.996094 C 202.253906 19.996094 202.410156 19.839844 202.410156 19.589844 C 202.410156 19.558594 202.410156 19.496094 202.347656 19.371094 C 202.316406 19.339844 199.160156 16.214844 198.160156 15.183594 L 201.816406 11.558594 C 201.910156 11.433594 202.222656 11.183594 202.316406 11.058594 C 202.316406 11.027344 202.410156 10.933594 202.410156 10.808594 C 202.410156 10.558594 202.253906 10.402344 202.003906 10.402344 C 201.847656 10.402344 201.785156 10.464844 201.566406 10.683594 Z M 197.597656 14.652344 "/>
<path style="fill:none;stroke-width:1.6;stroke-linecap:round;stroke-linejoin:round;stroke:rgb(0%,0%,0%);stroke-opacity:1;stroke-miterlimit:4;" d="M 149.597656 116 L 168.796875 116 C 171.457031 116 173.597656 118.140625 173.597656 120.800781 L 173.597656 140 C 173.597656 142.660156 171.457031 144.800781 168.796875 144.800781 L 149.597656 144.800781 C 146.9375 144.800781 144.796875 142.660156 144.796875 140 L 144.796875 120.800781 C 144.796875 118.140625 146.9375 116 149.597656 116 Z M 149.597656 116 "/>
<path style=" stroke:none;fill-rule:nonzero;fill:rgb(0%,0%,0%);fill-opacity:1;" d="M 164.570312 130.789062 C 164.914062 130.789062 165.289062 130.789062 165.289062 130.382812 C 165.289062 130.007812 164.914062 130.007812 164.570312 130.007812 L 153.789062 130.007812 C 153.445312 130.007812 153.101562 130.007812 153.101562 130.382812 C 153.101562 130.789062 153.445312 130.789062 153.789062 130.789062 Z M 164.570312 130.789062 "/>
<path style="fill:none;stroke-width:1.6;stroke-linecap:round;stroke-linejoin:round;stroke:rgb(0%,0%,0%);stroke-opacity:1;stroke-miterlimit:4;" d="M 178.398438 173.601562 L 197.597656 173.601562 C 200.257812 173.601562 202.398438 175.742188 202.398438 178.398438 L 202.398438 197.601562 C 202.398438 200.257812 200.257812 202.398438 197.597656 202.398438 L 178.398438 202.398438 C 175.738281 202.398438 173.597656 200.257812 173.597656 197.601562 L 173.597656 178.398438 C 173.597656 175.742188 175.738281 173.601562 178.398438 173.601562 Z M 178.398438 173.601562 "/>
<path style=" stroke:none;fill-rule:nonzero;fill:rgb(0%,0%,0%);fill-opacity:1;" d="M 187.355469 184.75 L 189.605469 184.75 C 188.949219 187.6875 188.761719 188.5625 188.761719 189.90625 C 188.761719 190.1875 188.761719 190.71875 188.917969 191.40625 C 189.136719 192.28125 189.355469 192.40625 189.636719 192.40625 C 190.042969 192.40625 190.480469 192.0625 190.480469 191.65625 C 190.480469 191.53125 190.480469 191.5 190.355469 191.21875 C 189.761719 189.78125 189.761719 188.46875 189.761719 187.90625 C 189.761719 186.875 189.917969 185.78125 190.136719 184.75 L 192.386719 184.75 C 192.667969 184.75 193.386719 184.75 193.386719 184.0625 C 193.386719 183.59375 192.949219 183.59375 192.574219 183.59375 L 185.886719 183.59375 C 185.449219 183.59375 184.699219 183.59375 183.824219 184.53125 C 183.136719 185.3125 182.605469 186.21875 182.605469 186.3125 C 182.605469 186.34375 182.605469 186.53125 182.855469 186.53125 C 183.011719 186.53125 183.042969 186.4375 183.167969 186.28125 C 184.136719 184.75 185.292969 184.75 185.699219 184.75 L 186.824219 184.75 C 186.199219 187.15625 185.136719 189.5625 184.292969 191.375 C 184.136719 191.6875 184.136719 191.71875 184.136719 191.875 C 184.136719 192.25 184.449219 192.40625 184.699219 192.40625 C 185.292969 192.40625 185.449219 191.84375 185.699219 191.125 C 185.980469 190.1875 185.980469 190.15625 186.230469 189.15625 Z M 187.355469 184.75 "/>
<path style="fill:none;stroke-width:1.6;stroke-linecap:round;stroke-linejoin:round;stroke:rgb(0%,0%,0%);stroke-opacity:1;stroke-miterlimit:4;" d="M 120.796875 173.601562 L 139.996094 173.601562 C 142.65625 173.601562 144.796875 175.742188 144.796875 178.398438 L 144.796875 197.601562 C 144.796875 200.257812 142.65625 202.398438 139.996094 202.398438 L 120.796875 202.398438 C 118.136719 202.398438 115.996094 200.257812 115.996094 197.601562 L 115.996094 178.398438 C 115.996094 175.742188 118.136719 173.601562 120.796875 173.601562 Z M 120.796875 173.601562 "/>
<path style=" stroke:none;fill-rule:nonzero;fill:rgb(0%,0%,0%);fill-opacity:1;" d="M 130.960938 186.15625 L 132.835938 186.15625 C 133.242188 186.15625 133.460938 186.15625 133.460938 185.75 C 133.460938 185.53125 133.242188 185.53125 132.898438 185.53125 L 131.148438 185.53125 C 131.867188 182.6875 131.960938 182.3125 131.960938 182.1875 C 131.960938 181.84375 131.710938 181.65625 131.367188 181.65625 C 131.304688 181.65625 130.742188 181.65625 130.585938 182.375 L 129.804688 185.53125 L 127.929688 185.53125 C 127.523438 185.53125 127.335938 185.53125 127.335938 185.90625 C 127.335938 186.15625 127.492188 186.15625 127.898438 186.15625 L 129.648438 186.15625 C 128.210938 191.8125 128.117188 192.15625 128.117188 192.5 C 128.117188 193.59375 128.867188 194.34375 129.960938 194.34375 C 131.992188 194.34375 133.117188 191.4375 133.117188 191.28125 C 133.117188 191.0625 132.960938 191.0625 132.898438 191.0625 C 132.710938 191.0625 132.679688 191.125 132.585938 191.34375 C 131.742188 193.4375 130.679688 193.90625 129.992188 193.90625 C 129.585938 193.90625 129.367188 193.65625 129.367188 193 C 129.367188 192.5 129.429688 192.375 129.492188 192.03125 Z M 130.960938 186.15625 "/>
<path style="fill:none;stroke-width:0.8;stroke-linecap:butt;stroke-linejoin:miter;stroke:rgb(100%,0%,0%);stroke-opacity:1;stroke-miterlimit:4;" d="M 130.234375 173.386719 L 154.398438 145.316406 "/>
<path style="fill-rule:evenodd;fill:rgb(100%,0%,0%);fill-opacity:1;stroke-width:0.606287;stroke-linecap:butt;stroke-linejoin:miter;stroke:rgb(100%,0%,0%);stroke-opacity:1;stroke-miterlimit:4;" d="M -32.813133 160.529092 C -32.81444 161.866154 -33.901277 162.954124 -35.240583 162.954748 C -36.577646 162.953442 -37.665615 161.866604 -37.664308 160.529542 C -37.664933 159.190236 -36.578096 158.102266 -35.241033 158.103573 C -33.901727 158.102949 -32.813758 159.189786 -32.813133 160.529092 Z M -32.813133 160.529092 " transform="matrix(0.86087,-1,1,0.86087,0,0)"/>
<path style="fill-rule:evenodd;fill:rgb(100%,0%,0%);fill-opacity:1;stroke-width:0.606287;stroke-linecap:butt;stroke-linejoin:miter;stroke:rgb(100%,0%,0%);stroke-opacity:1;stroke-miterlimit:4;" d="M 13.185911 -160.527136 L 15.611429 -162.955036 L 7.121615 -160.529222 L 15.611879 -158.103861 Z M 13.185911 -160.527136 " transform="matrix(-0.86087,1,-1,-0.86087,0,0)"/>
<path style="fill:none;stroke-width:0.8;stroke-linecap:butt;stroke-linejoin:miter;stroke:rgb(100%,0%,0%);stroke-opacity:1;stroke-miterlimit:4;" d="M 187.835938 173.386719 L 163.671875 145.316406 "/>
<path style="fill-rule:evenodd;fill:rgb(100%,0%,0%);fill-opacity:1;stroke-width:0.606287;stroke-linecap:butt;stroke-linejoin:miter;stroke:rgb(100%,0%,0%);stroke-opacity:1;stroke-miterlimit:4;" d="M -190.08017 22.154747 C -190.078863 23.491809 -191.166832 24.578647 -192.506138 24.578022 C -193.843201 24.579329 -194.930038 23.49136 -194.931345 22.154297 C -194.93072 20.814991 -193.842751 19.728154 -192.505688 19.726847 C -191.166382 19.727472 -190.079545 20.815441 -190.08017 22.154747 Z M -190.08017 22.154747 " transform="matrix(-0.86087,-1,1,-0.86087,0,0)"/>
<path style="fill-rule:evenodd;fill:rgb(100%,0%,0%);fill-opacity:1;stroke-width:0.606287;stroke-linecap:butt;stroke-linejoin:miter;stroke:rgb(100%,0%,0%);stroke-opacity:1;stroke-miterlimit:4;" d="M 170.451016 -22.154459 L 172.876984 -24.577734 L 164.388651 -22.154617 L 172.878466 -19.728803 Z M 170.451016 -22.154459 " transform="matrix(0.86087,1,-1,0.86087,0,0)"/>
<path style="fill:none;stroke-width:1.6;stroke-linecap:round;stroke-linejoin:round;stroke:rgb(0%,0%,0%);stroke-opacity:1;stroke-miterlimit:4;" d="M 63.195312 173.601562 L 82.398438 173.601562 C 85.054688 173.601562 87.195312 175.742188 87.195312 178.398438 L 87.195312 197.601562 C 87.195312 200.257812 85.054688 202.398438 82.398438 202.398438 L 63.195312 202.398438 C 60.539062 202.398438 58.398438 200.257812 58.398438 197.601562 L 58.398438 178.398438 C 58.398438 175.742188 60.539062 173.601562 63.195312 173.601562 Z M 63.195312 173.601562 "/>
<path style=" stroke:none;fill-rule:nonzero;fill:rgb(0%,0%,0%);fill-opacity:1;" d="M 72.15625 184.75 L 74.40625 184.75 C 73.75 187.6875 73.5625 188.5625 73.5625 189.90625 C 73.5625 190.1875 73.5625 190.71875 73.71875 191.40625 C 73.9375 192.28125 74.15625 192.40625 74.4375 192.40625 C 74.84375 192.40625 75.28125 192.0625 75.28125 191.65625 C 75.28125 191.53125 75.28125 191.5 75.15625 191.21875 C 74.5625 189.78125 74.5625 188.46875 74.5625 187.90625 C 74.5625 186.875 74.71875 185.78125 74.9375 184.75 L 77.1875 184.75 C 77.46875 184.75 78.1875 184.75 78.1875 184.0625 C 78.1875 183.59375 77.75 183.59375 77.375 183.59375 L 70.6875 183.59375 C 70.25 183.59375 69.5 183.59375 68.625 184.53125 C 67.9375 185.3125 67.40625 186.21875 67.40625 186.3125 C 67.40625 186.34375 67.40625 186.53125 67.65625 186.53125 C 67.8125 186.53125 67.84375 186.4375 67.96875 186.28125 C 68.9375 184.75 70.09375 184.75 70.5 184.75 L 71.625 184.75 C 71 187.15625 69.9375 189.5625 69.09375 191.375 C 68.9375 191.6875 68.9375 191.71875 68.9375 191.875 C 68.9375 192.25 69.25 192.40625 69.5 192.40625 C 70.09375 192.40625 70.25 191.84375 70.5 191.125 C 70.78125 190.1875 70.78125 190.15625 71.03125 189.15625 Z M 72.15625 184.75 "/>
<path style="fill:none;stroke-width:1.6;stroke-linecap:round;stroke-linejoin:round;stroke:rgb(0%,0%,0%);stroke-opacity:1;stroke-miterlimit:4;" d="M 5.597656 173.601562 L 24.796875 173.601562 C 27.457031 173.601562 29.597656 175.742188 29.597656 178.398438 L 29.597656 197.601562 C 29.597656 200.257812 27.457031 202.398438 24.796875 202.398438 L 5.597656 202.398438 C 2.9375 202.398438 0.796875 200.257812 0.796875 197.601562 L 0.796875 178.398438 C 0.796875 175.742188 2.9375 173.601562 5.597656 173.601562 Z M 5.597656 173.601562 "/>
<path style=" stroke:none;fill-rule:nonzero;fill:rgb(0%,0%,0%);fill-opacity:1;" d="M 15.757812 186.15625 L 17.632812 186.15625 C 18.039062 186.15625 18.257812 186.15625 18.257812 185.75 C 18.257812 185.53125 18.039062 185.53125 17.695312 185.53125 L 15.945312 185.53125 C 16.664062 182.6875 16.757812 182.3125 16.757812 182.1875 C 16.757812 181.84375 16.507812 181.65625 16.164062 181.65625 C 16.101562 181.65625 15.539062 181.65625 15.382812 182.375 L 14.601562 185.53125 L 12.726562 185.53125 C 12.320312 185.53125 12.132812 185.53125 12.132812 185.90625 C 12.132812 186.15625 12.289062 186.15625 12.695312 186.15625 L 14.445312 186.15625 C 13.007812 191.8125 12.914062 192.15625 12.914062 192.5 C 12.914062 193.59375 13.664062 194.34375 14.757812 194.34375 C 16.789062 194.34375 17.914062 191.4375 17.914062 191.28125 C 17.914062 191.0625 17.757812 191.0625 17.695312 191.0625 C 17.507812 191.0625 17.476562 191.125 17.382812 191.34375 C 16.539062 193.4375 15.476562 193.90625 14.789062 193.90625 C 14.382812 193.90625 14.164062 193.65625 14.164062 193 C 14.164062 192.5 14.226562 192.375 14.289062 192.03125 Z M 15.757812 186.15625 "/>
<path style="fill:none;stroke-width:0.8;stroke-linecap:butt;stroke-linejoin:miter;stroke:rgb(100%,0%,0%);stroke-opacity:1;stroke-miterlimit:4;" d="M 15.195312 173.601562 L 39.359375 145.53125 "/>
<path style="fill-rule:evenodd;fill:rgb(100%,0%,0%);fill-opacity:1;stroke-width:0.606287;stroke-linecap:butt;stroke-linejoin:miter;stroke:rgb(100%,0%,0%);stroke-opacity:1;stroke-miterlimit:4;" d="M -89.81657 94.562578 C -89.815945 95.901884 -90.902782 96.989853 -92.242088 96.990478 C -93.579151 96.989171 -94.66712 95.902334 -94.667745 94.563028 C -94.666438 93.225965 -93.579601 92.137996 -92.242538 92.139303 C -90.903232 92.138678 -89.817194 93.223272 -89.81657 94.562578 Z M -89.81657 94.562578 " transform="matrix(0.86087,-1,1,0.86087,0,0)"/>
<path style="fill-rule:evenodd;fill:rgb(100%,0%,0%);fill-opacity:1;stroke-width:0.606287;stroke-linecap:butt;stroke-linejoin:miter;stroke:rgb(100%,0%,0%);stroke-opacity:1;stroke-miterlimit:4;" d="M 70.187416 -94.562866 L 72.614866 -96.988522 L 64.125051 -94.562708 L 72.613384 -92.139591 Z M 70.187416 -94.562866 " transform="matrix(-0.86087,1,-1,-0.86087,0,0)"/>
<path style="fill:none;stroke-width:0.8;stroke-linecap:butt;stroke-linejoin:miter;stroke:rgb(100%,0%,0%);stroke-opacity:1;stroke-miterlimit:4;" d="M 72.796875 173.601562 L 48.632812 145.53125 "/>
<path style="fill-rule:evenodd;fill:rgb(100%,0%,0%);fill-opacity:1;stroke-width:0.606287;stroke-linecap:butt;stroke-linejoin:miter;stroke:rgb(100%,0%,0%);stroke-opacity:1;stroke-miterlimit:4;" d="M -133.323524 -44.024222 C -133.324149 -42.684916 -134.412118 -41.598079 -135.751424 -41.598703 C -137.088487 -41.597397 -138.175324 -42.685366 -138.174699 -44.024672 C -138.174075 -45.363978 -137.088037 -46.448572 -135.750974 -46.449879 C -134.411668 -46.449254 -133.324831 -45.361285 -133.323524 -44.024222 Z M -133.323524 -44.024222 " transform="matrix(-0.86087,-1,1,-0.86087,0,0)"/>
<path style="fill-rule:evenodd;fill:rgb(100%,0%,0%);fill-opacity:1;stroke-width:0.606287;stroke-linecap:butt;stroke-linejoin:miter;stroke:rgb(100%,0%,0%);stroke-opacity:1;stroke-miterlimit:4;" d="M 113.69437 44.02451 L 116.12227 41.598991 L 107.632006 44.024352 L 116.12182 46.450166 Z M 113.69437 44.02451 " transform="matrix(0.86087,1,-1,0.86087,0,0)"/>
<path style="fill:none;stroke-width:1.6;stroke-linecap:round;stroke-linejoin:round;stroke:rgb(0%,0%,0%);stroke-opacity:1;stroke-miterlimit:4;" d="M 34.398438 116 L 53.597656 116 C 56.257812 116 58.398438 118.140625 58.398438 120.800781 L 58.398438 140 C 58.398438 142.660156 56.257812 144.800781 53.597656 144.800781 L 34.398438 144.800781 C 31.738281 144.800781 29.597656 142.660156 29.597656 140 L 29.597656 120.800781 C 29.597656 118.140625 31.738281 116 34.398438 116 Z M 34.398438 116 "/>
<path style=" stroke:none;fill-rule:nonzero;fill:rgb(0%,0%,0%);fill-opacity:1;" d="M 44.402344 130.789062 L 49.964844 130.789062 C 50.246094 130.789062 50.621094 130.789062 50.621094 130.382812 C 50.621094 130.007812 50.246094 130.007812 49.964844 130.007812 L 44.402344 130.007812 L 44.402344 124.414062 C 44.402344 124.132812 44.402344 123.757812 43.996094 123.757812 C 43.589844 123.757812 43.589844 124.132812 43.589844 124.414062 L 43.589844 130.007812 L 38.027344 130.007812 C 37.746094 130.007812 37.371094 130.007812 37.371094 130.382812 C 37.371094 130.789062 37.746094 130.789062 38.027344 130.789062 L 43.589844 130.789062 L 43.589844 136.382812 C 43.589844 136.664062 43.589844 137.039062 43.996094 137.039062 C 44.402344 137.039062 44.402344 136.664062 44.402344 136.382812 Z M 44.402344 130.789062 "/>
<path style="fill:none;stroke-width:1.6;stroke-linecap:round;stroke-linejoin:round;stroke:rgb(0%,0%,0%);stroke-opacity:1;stroke-miterlimit:4;" d="M 91.996094 58.398438 L 111.195312 58.398438 C 113.855469 58.398438 115.996094 60.539062 115.996094 63.199219 L 115.996094 82.398438 C 115.996094 85.058594 113.855469 87.199219 111.195312 87.199219 L 91.996094 87.199219 C 89.335938 87.199219 87.195312 85.058594 87.195312 82.398438 L 87.195312 63.199219 C 87.195312 60.539062 89.335938 58.398438 91.996094 58.398438 Z M 91.996094 58.398438 "/>
<path style=" stroke:none;fill-rule:nonzero;fill:rgb(0%,0%,0%);fill-opacity:1;" d="M 105.378906 63.597656 C 105.472656 63.316406 105.472656 63.253906 105.472656 63.222656 C 105.472656 63.003906 105.316406 62.816406 105.097656 62.816406 C 104.941406 62.816406 104.816406 62.878906 104.753906 63.003906 L 97.816406 82.003906 C 97.722656 82.285156 97.722656 82.347656 97.722656 82.378906 C 97.722656 82.597656 97.910156 82.785156 98.128906 82.785156 C 98.378906 82.785156 98.441406 82.628906 98.566406 82.285156 Z M 105.378906 63.597656 "/>
<path style="fill:none;stroke-width:0.8;stroke-linecap:butt;stroke-linejoin:miter;stroke:rgb(100%,0%,0%);stroke-opacity:1;stroke-miterlimit:4;" d="M 43.996094 116 L 96.796875 87.199219 "/>
<path style="fill-rule:evenodd;fill:rgb(100%,0%,0%);fill-opacity:1;stroke-width:0.702316;stroke-linecap:butt;stroke-linejoin:miter;stroke:rgb(100%,0%,0%);stroke-opacity:1;stroke-miterlimit:4;" d="M -12.103539 107.898064 C -12.102171 109.449592 -13.362496 110.707453 -14.912382 110.705811 C -16.463909 110.707178 -17.721771 109.446853 -17.720128 107.896968 C -17.721496 106.34544 -16.46117 105.087579 -14.911285 105.089221 C -13.359758 105.087853 -12.104907 106.346537 -12.103539 107.898064 Z M -12.103539 107.898064 " transform="matrix(1,-0.545455,0.545455,1,0,0)"/>
<path style="fill-rule:evenodd;fill:rgb(100%,0%,0%);fill-opacity:1;stroke-width:0.702316;stroke-linecap:butt;stroke-linejoin:miter;stroke:rgb(100%,0%,0%);stroke-opacity:1;stroke-miterlimit:4;" d="M -30.920488 -107.896985 L -28.111645 -110.704731 L -37.944372 -107.896166 L -28.112741 -105.088142 Z M -30.920488 -107.896985 " transform="matrix(-1,0.545455,-0.545455,-1,0,0)"/>
<path style="fill:none;stroke-width:0.8;stroke-linecap:butt;stroke-linejoin:miter;stroke:rgb(100%,0%,0%);stroke-opacity:1;stroke-miterlimit:4;" d="M 159.195312 116 L 106.398438 87.199219 "/>
<path style="fill-rule:evenodd;fill:rgb(100%,0%,0%);fill-opacity:1;stroke-width:0.702316;stroke-linecap:butt;stroke-linejoin:miter;stroke:rgb(100%,0%,0%);stroke-opacity:1;stroke-miterlimit:4;" d="M -168.706236 -22.47834 C -168.704593 -20.928455 -169.962455 -19.668129 -171.513982 -19.669497 C -173.063867 -19.667855 -174.321182 -20.927358 -174.322825 -22.477244 C -174.321457 -24.028771 -173.063595 -25.289097 -171.515079 -25.286087 C -169.965193 -25.287729 -168.704868 -24.029868 -168.706236 -22.47834 Z M -168.706236 -22.47834 " transform="matrix(-1,-0.545455,0.545455,-1,0,0)"/>
<path style="fill-rule:evenodd;fill:rgb(100%,0%,0%);fill-opacity:1;stroke-width:0.702316;stroke-linecap:butt;stroke-linejoin:miter;stroke:rgb(100%,0%,0%);stroke-opacity:1;stroke-miterlimit:4;" d="M 125.682209 22.477261 L 128.489955 19.668418 L 118.658325 22.476442 L 128.488042 25.286649 Z M 125.682209 22.477261 " transform="matrix(1,0.545455,-0.545455,1,0,0)"/>
<path style="fill:none;stroke-width:1.6;stroke-linecap:round;stroke-linejoin:round;stroke:rgb(0%,0%,0%);stroke-opacity:1;stroke-miterlimit:4;" d="M 279.195312 116.382812 L 298.398438 116.382812 C 301.054688 116.382812 303.195312 118.523438 303.195312 121.183594 L 303.195312 140.382812 C 303.195312 143.042969 301.054688 145.183594 298.398438 145.183594 L 279.195312 145.183594 C 276.539062 145.183594 274.398438 143.042969 274.398438 140.382812 L 274.398438 121.183594 C 274.398438 118.523438 276.539062 116.382812 279.195312 116.382812 Z M 279.195312 116.382812 "/>
<path style=" stroke:none;fill-rule:nonzero;fill:rgb(0%,0%,0%);fill-opacity:1;" d="M 292.578125 121.582031 C 292.671875 121.300781 292.671875 121.238281 292.671875 121.207031 C 292.671875 120.988281 292.515625 120.800781 292.296875 120.800781 C 292.140625 120.800781 292.015625 120.863281 291.953125 120.988281 L 285.015625 139.988281 C 284.921875 140.269531 284.921875 140.332031 284.921875 140.363281 C 284.921875 140.582031 285.109375 140.769531 285.328125 140.769531 C 285.578125 140.769531 285.640625 140.613281 285.765625 140.269531 Z M 292.578125 121.582031 "/>
<g clip-path="url(#clip1)" clip-rule="nonzero">
<path style="fill:none;stroke-width:1.6;stroke-linecap:round;stroke-linejoin:round;stroke:rgb(0%,0%,0%);stroke-opacity:1;stroke-miterlimit:4;" d="M 279.195312 231.582031 L 298.398438 231.582031 C 301.054688 231.582031 303.195312 233.722656 303.195312 236.382812 L 303.195312 255.582031 C 303.195312 258.242188 301.054688 260.382812 298.398438 260.382812 L 279.195312 260.382812 C 276.539062 260.382812 274.398438 258.242188 274.398438 255.582031 L 274.398438 236.382812 C 274.398438 233.722656 276.539062 231.582031 279.195312 231.582031 Z M 279.195312 231.582031 "/>
</g>
<path style=" stroke:none;fill-rule:nonzero;fill:rgb(0%,0%,0%);fill-opacity:1;" d="M 288.15625 242.734375 L 290.40625 242.734375 C 289.75 245.671875 289.5625 246.546875 289.5625 247.890625 C 289.5625 248.171875 289.5625 248.703125 289.71875 249.390625 C 289.9375 250.265625 290.15625 250.390625 290.4375 250.390625 C 290.84375 250.390625 291.28125 250.046875 291.28125 249.640625 C 291.28125 249.515625 291.28125 249.484375 291.15625 249.203125 C 290.5625 247.765625 290.5625 246.453125 290.5625 245.890625 C 290.5625 244.859375 290.71875 243.765625 290.9375 242.734375 L 293.1875 242.734375 C 293.46875 242.734375 294.1875 242.734375 294.1875 242.046875 C 294.1875 241.578125 293.75 241.578125 293.375 241.578125 L 286.6875 241.578125 C 286.25 241.578125 285.5 241.578125 284.625 242.515625 C 283.9375 243.296875 283.40625 244.203125 283.40625 244.296875 C 283.40625 244.328125 283.40625 244.515625 283.65625 244.515625 C 283.8125 244.515625 283.84375 244.421875 283.96875 244.265625 C 284.9375 242.734375 286.09375 242.734375 286.5 242.734375 L 287.625 242.734375 C 287 245.140625 285.9375 247.546875 285.09375 249.359375 C 284.9375 249.671875 284.9375 249.703125 284.9375 249.859375 C 284.9375 250.234375 285.25 250.390625 285.5 250.390625 C 286.09375 250.390625 286.25 249.828125 286.5 249.109375 C 286.78125 248.171875 286.78125 248.140625 287.03125 247.140625 Z M 288.15625 242.734375 "/>
<g clip-path="url(#clip2)" clip-rule="nonzero">
<path style="fill:none;stroke-width:1.6;stroke-linecap:round;stroke-linejoin:round;stroke:rgb(0%,0%,0%);stroke-opacity:1;stroke-miterlimit:4;" d="M 221.597656 231.582031 L 240.796875 231.582031 C 243.457031 231.582031 245.597656 233.722656 245.597656 236.382812 L 245.597656 255.582031 C 245.597656 258.242188 243.457031 260.382812 240.796875 260.382812 L 221.597656 260.382812 C 218.9375 260.382812 216.796875 258.242188 216.796875 255.582031 L 216.796875 236.382812 C 216.796875 233.722656 218.9375 231.582031 221.597656 231.582031 Z M 221.597656 231.582031 "/>
</g>
<path style=" stroke:none;fill-rule:nonzero;fill:rgb(0%,0%,0%);fill-opacity:1;" d="M 231.757812 244.140625 L 233.632812 244.140625 C 234.039062 244.140625 234.257812 244.140625 234.257812 243.734375 C 234.257812 243.515625 234.039062 243.515625 233.695312 243.515625 L 231.945312 243.515625 C 232.664062 240.671875 232.757812 240.296875 232.757812 240.171875 C 232.757812 239.828125 232.507812 239.640625 232.164062 239.640625 C 232.101562 239.640625 231.539062 239.640625 231.382812 240.359375 L 230.601562 243.515625 L 228.726562 243.515625 C 228.320312 243.515625 228.132812 243.515625 228.132812 243.890625 C 228.132812 244.140625 228.289062 244.140625 228.695312 244.140625 L 230.445312 244.140625 C 229.007812 249.796875 228.914062 250.140625 228.914062 250.484375 C 228.914062 251.578125 229.664062 252.328125 230.757812 252.328125 C 232.789062 252.328125 233.914062 249.421875 233.914062 249.265625 C 233.914062 249.046875 233.757812 249.046875 233.695312 249.046875 C 233.507812 249.046875 233.476562 249.109375 233.382812 249.328125 C 232.539062 251.421875 231.476562 251.890625 230.789062 251.890625 C 230.382812 251.890625 230.164062 251.640625 230.164062 250.984375 C 230.164062 250.484375 230.226562 250.359375 230.289062 250.015625 Z M 231.757812 244.140625 "/>
<path style="fill:none;stroke-width:0.8;stroke-linecap:butt;stroke-linejoin:miter;stroke:rgb(100%,0%,0%);stroke-opacity:1;stroke-miterlimit:4;" d="M 231.195312 231.582031 L 255.359375 203.515625 "/>
<path style="fill-rule:evenodd;fill:rgb(100%,0%,0%);fill-opacity:1;stroke-width:0.606287;stroke-linecap:butt;stroke-linejoin:miter;stroke:rgb(100%,0%,0%);stroke-opacity:1;stroke-miterlimit:4;" d="M -16.320645 247.292142 C -16.320021 248.631448 -17.406858 249.719417 -18.743921 249.71811 C -20.083227 249.718735 -21.171196 248.631897 -21.171821 247.292591 C -21.170514 245.955529 -20.083676 244.86756 -18.74437 244.866935 C -17.407308 244.868242 -16.32127 245.952835 -16.320645 247.292142 Z M -16.320645 247.292142 " transform="matrix(0.86087,-1,1,0.86087,0,0)"/>
<path style="fill-rule:evenodd;fill:rgb(100%,0%,0%);fill-opacity:1;stroke-width:0.606287;stroke-linecap:butt;stroke-linejoin:miter;stroke:rgb(100%,0%,0%);stroke-opacity:1;stroke-miterlimit:4;" d="M -3.308509 -247.292429 L -0.883302 -249.716154 L -9.370873 -247.292272 L -0.884783 -244.867223 Z M -3.308509 -247.292429 " transform="matrix(-0.86087,1,-1,-0.86087,0,0)"/>
<path style="fill:none;stroke-width:0.8;stroke-linecap:butt;stroke-linejoin:miter;stroke:rgb(100%,0%,0%);stroke-opacity:1;stroke-miterlimit:4;" d="M 288.796875 231.582031 L 264.632812 203.515625 "/>
<path style="fill-rule:evenodd;fill:rgb(100%,0%,0%);fill-opacity:1;stroke-width:0.606287;stroke-linecap:butt;stroke-linejoin:miter;stroke:rgb(100%,0%,0%);stroke-opacity:1;stroke-miterlimit:4;" d="M -273.426157 51.365625 C -273.426781 52.704931 -274.514751 53.791768 -275.851813 53.793075 C -277.191119 53.79245 -278.277956 52.704481 -278.277332 51.365175 C -278.276707 50.025869 -277.190669 48.941275 -275.851363 48.9419 C -274.514301 48.940593 -273.427463 50.028562 -273.426157 51.365625 Z M -273.426157 51.365625 " transform="matrix(-0.86087,-1,1,-0.86087,0,0)"/>
<path style="fill-rule:evenodd;fill:rgb(100%,0%,0%);fill-opacity:1;stroke-width:0.606287;stroke-linecap:butt;stroke-linejoin:miter;stroke:rgb(100%,0%,0%);stroke-opacity:1;stroke-miterlimit:4;" d="M 253.797003 -51.365337 L 256.222659 -53.792787 L 247.734638 -51.365494 L 256.222209 -48.941612 Z M 253.797003 -51.365337 " transform="matrix(0.86087,1,-1,0.86087,0,0)"/>
<path style="fill:none;stroke-width:1.6;stroke-linecap:round;stroke-linejoin:round;stroke:rgb(0%,0%,0%);stroke-opacity:1;stroke-miterlimit:4;" d="M 250.398438 173.984375 L 269.597656 173.984375 C 272.257812 173.984375 274.398438 176.125 274.398438 178.785156 L 274.398438 197.984375 C 274.398438 200.644531 272.257812 202.785156 269.597656 202.785156 L 250.398438 202.785156 C 247.738281 202.785156 245.597656 200.644531 245.597656 197.984375 L 245.597656 178.785156 C 245.597656 176.125 247.738281 173.984375 250.398438 173.984375 Z M 250.398438 173.984375 "/>
<path style=" stroke:none;fill-rule:nonzero;fill:rgb(0%,0%,0%);fill-opacity:1;" d="M 260.402344 188.773438 L 265.964844 188.773438 C 266.246094 188.773438 266.621094 188.773438 266.621094 188.367188 C 266.621094 187.992188 266.246094 187.992188 265.964844 187.992188 L 260.402344 187.992188 L 260.402344 182.398438 C 260.402344 182.117188 260.402344 181.742188 259.996094 181.742188 C 259.589844 181.742188 259.589844 182.117188 259.589844 182.398438 L 259.589844 187.992188 L 254.027344 187.992188 C 253.746094 187.992188 253.371094 187.992188 253.371094 188.367188 C 253.371094 188.773438 253.746094 188.773438 254.027344 188.773438 L 259.589844 188.773438 L 259.589844 194.367188 C 259.589844 194.648438 259.589844 195.023438 259.996094 195.023438 C 260.402344 195.023438 260.402344 194.648438 260.402344 194.367188 Z M 260.402344 188.773438 "/>
<g clip-path="url(#clip3)" clip-rule="nonzero">
<path style="fill:none;stroke-width:1.6;stroke-linecap:round;stroke-linejoin:round;stroke:rgb(0%,0%,0%);stroke-opacity:1;stroke-miterlimit:4;" d="M 307.996094 173.984375 L 327.195312 173.984375 C 329.855469 173.984375 331.996094 176.125 331.996094 178.785156 L 331.996094 197.984375 C 331.996094 200.644531 329.855469 202.785156 327.195312 202.785156 L 307.996094 202.785156 C 305.335938 202.785156 303.195312 200.644531 303.195312 197.984375 L 303.195312 178.785156 C 303.195312 176.125 305.335938 173.984375 307.996094 173.984375 Z M 307.996094 173.984375 "/>
</g>
<path style=" stroke:none;fill-rule:nonzero;fill:rgb(0%,0%,0%);fill-opacity:1;" d="M 315.160156 193.492188 L 317.285156 191.429688 C 320.378906 188.679688 321.566406 187.617188 321.566406 185.617188 C 321.566406 183.335938 319.785156 181.742188 317.347656 181.742188 C 315.097656 181.742188 313.628906 183.585938 313.628906 185.367188 C 313.628906 186.460938 314.628906 186.460938 314.691406 186.460938 C 315.035156 186.460938 315.722656 186.242188 315.722656 185.398438 C 315.722656 184.898438 315.347656 184.367188 314.660156 184.367188 C 314.503906 184.367188 314.472656 184.367188 314.410156 184.398438 C 314.847656 183.085938 315.941406 182.367188 317.097656 182.367188 C 318.910156 182.367188 319.753906 183.992188 319.753906 185.617188 C 319.753906 187.210938 318.785156 188.773438 317.660156 190.023438 L 313.847656 194.273438 C 313.628906 194.492188 313.628906 194.554688 313.628906 195.023438 L 321.035156 195.023438 L 321.566406 191.554688 L 321.097656 191.554688 C 320.972656 192.148438 320.847656 193.023438 320.628906 193.335938 C 320.503906 193.492188 319.191406 193.492188 318.753906 193.492188 Z M 315.160156 193.492188 "/>
<path style="fill:none;stroke-width:0.8;stroke-linecap:butt;stroke-linejoin:miter;stroke:rgb(100%,0%,0%);stroke-opacity:1;stroke-miterlimit:4;" d="M 317.597656 173.984375 L 293.433594 145.914062 "/>
<path style="fill-rule:evenodd;fill:rgb(100%,0%,0%);fill-opacity:1;stroke-width:0.606287;stroke-linecap:butt;stroke-linejoin:miter;stroke:rgb(100%,0%,0%);stroke-opacity:1;stroke-miterlimit:4;" d="M -254.582961 96.387948 C -254.583586 97.727254 -255.669624 98.811847 -257.00893 98.811223 C -258.345992 98.812529 -259.434761 97.726804 -259.434136 96.387498 C -259.433512 95.048192 -258.347474 93.963598 -257.010411 93.962291 C -255.671105 93.962916 -254.582336 95.048641 -254.582961 96.387948 Z M -254.582961 96.387948 " transform="matrix(-0.86087,-1,1,-0.86087,0,0)"/>
<path style="fill-rule:evenodd;fill:rgb(100%,0%,0%);fill-opacity:1;stroke-width:0.606287;stroke-linecap:butt;stroke-linejoin:miter;stroke:rgb(100%,0%,0%);stroke-opacity:1;stroke-miterlimit:4;" d="M 234.953807 -96.38766 L 237.381707 -98.813178 L 228.891443 -96.387817 L 237.381257 -93.962003 Z M 234.953807 -96.38766 " transform="matrix(0.86087,1,-1,0.86087,0,0)"/>
<path style="fill:none;stroke-width:0.8;stroke-linecap:butt;stroke-linejoin:miter;stroke:rgb(100%,0%,0%);stroke-opacity:1;stroke-miterlimit:4;" d="M 259.996094 173.984375 L 284.160156 145.914062 "/>
<path style="fill-rule:evenodd;fill:rgb(100%,0%,0%);fill-opacity:1;stroke-width:0.606287;stroke-linecap:butt;stroke-linejoin:miter;stroke:rgb(100%,0%,0%);stroke-opacity:1;stroke-miterlimit:4;" d="M 31.00313 235.353304 C 31.003755 236.69261 29.914986 237.778336 28.57568 237.778961 C 27.238618 237.777654 26.15258 236.69306 26.151955 235.353754 C 26.15133 234.014448 27.240099 232.928722 28.577162 232.930029 C 29.916468 232.929404 31.002506 234.013998 31.00313 235.353304 Z M 31.00313 235.353304 " transform="matrix(0.86087,-1,1,0.86087,0,0)"/>
<path style="fill-rule:evenodd;fill:rgb(100%,0%,0%);fill-opacity:1;stroke-width:0.606287;stroke-linecap:butt;stroke-linejoin:miter;stroke:rgb(100%,0%,0%);stroke-opacity:1;stroke-miterlimit:4;" d="M -50.632284 -235.353592 L -48.204834 -237.779248 L -56.694648 -235.353434 L -48.204384 -232.928073 Z M -50.632284 -235.353592 " transform="matrix(-0.86087,1,-1,-0.86087,0,0)"/>
<path style="fill:none;stroke-width:1.6;stroke-linecap:round;stroke-linejoin:round;stroke:rgb(0%,0%,0%);stroke-opacity:1;stroke-miterlimit:4;" d="M 264.796875 58.785156 L 312.796875 58.785156 C 315.457031 58.785156 317.597656 60.925781 317.597656 63.582031 L 317.597656 82.785156 C 317.597656 85.441406 315.457031 87.582031 312.796875 87.582031 L 264.796875 87.582031 C 262.136719 87.582031 259.996094 85.441406 259.996094 82.785156 L 259.996094 63.582031 C 259.996094 60.925781 262.136719 58.785156 264.796875 58.785156 Z M 264.796875 58.785156 "/>
<path style=" stroke:none;fill-rule:nonzero;fill:rgb(0%,0%,0%);fill-opacity:1;" d="M 270.875 74.292969 C 271.3125 74.386719 272.9375 74.699219 272.9375 76.136719 C 272.9375 77.136719 272.25 77.949219 270.6875 77.949219 C 269 77.949219 268.28125 76.824219 267.90625 75.105469 C 267.84375 74.855469 267.84375 74.792969 267.625 74.792969 C 267.375 74.792969 267.375 74.917969 267.375 75.261719 L 267.375 77.917969 C 267.375 78.261719 267.375 78.386719 267.59375 78.386719 C 267.6875 78.386719 267.71875 78.355469 268.09375 77.980469 C 268.125 77.949219 268.125 77.917969 268.5 77.542969 C 269.375 78.355469 270.28125 78.386719 270.6875 78.386719 C 272.96875 78.386719 273.90625 77.042969 273.90625 75.605469 C 273.90625 74.574219 273.3125 73.949219 273.0625 73.730469 C 272.40625 73.074219 271.625 72.917969 270.78125 72.761719 C 269.65625 72.542969 268.34375 72.292969 268.34375 71.136719 C 268.34375 70.417969 268.84375 69.605469 270.5625 69.605469 C 272.75 69.605469 272.875 71.417969 272.90625 72.011719 C 272.90625 72.199219 273.09375 72.199219 273.125 72.199219 C 273.40625 72.199219 273.40625 72.105469 273.40625 71.730469 L 273.40625 69.699219 C 273.40625 69.386719 273.40625 69.230469 273.1875 69.230469 C 273.09375 69.230469 273.03125 69.230469 272.78125 69.480469 C 272.71875 69.542969 272.53125 69.730469 272.4375 69.792969 C 271.6875 69.230469 270.875 69.230469 270.5625 69.230469 C 268.125 69.230469 267.375 70.574219 267.375 71.699219 C 267.375 72.386719 267.6875 72.949219 268.21875 73.386719 C 268.875 73.886719 269.4375 74.011719 270.875 74.292969 Z M 270.875 74.292969 "/>
<path style=" stroke:none;fill-rule:nonzero;fill:rgb(0%,0%,0%);fill-opacity:1;" d="M 278.109375 69.355469 L 275.328125 69.574219 L 275.328125 70.199219 C 276.609375 70.199219 276.796875 70.324219 276.796875 71.292969 L 276.796875 76.667969 C 276.796875 77.542969 276.578125 77.542969 275.234375 77.542969 L 275.234375 78.167969 C 275.859375 78.136719 276.953125 78.105469 277.421875 78.105469 C 278.140625 78.105469 278.828125 78.136719 279.515625 78.167969 L 279.515625 77.542969 C 278.171875 77.542969 278.109375 77.449219 278.109375 76.667969 Z M 278.171875 65.886719 C 278.171875 65.261719 277.703125 64.824219 277.140625 64.824219 C 276.515625 64.824219 276.078125 65.355469 276.078125 65.886719 C 276.078125 66.417969 276.515625 66.949219 277.140625 66.949219 C 277.703125 66.949219 278.171875 66.511719 278.171875 65.886719 Z M 278.171875 65.886719 "/>
<path style=" stroke:none;fill-rule:nonzero;fill:rgb(0%,0%,0%);fill-opacity:1;" d="M 282.300781 71.324219 L 282.300781 76.667969 C 282.300781 77.542969 282.082031 77.542969 280.738281 77.542969 L 280.738281 78.167969 C 281.457031 78.136719 282.457031 78.105469 283.019531 78.105469 C 283.519531 78.105469 284.550781 78.136719 285.238281 78.167969 L 285.238281 77.542969 C 283.894531 77.542969 283.675781 77.542969 283.675781 76.667969 L 283.675781 72.980469 C 283.675781 70.917969 285.113281 69.792969 286.363281 69.792969 C 287.644531 69.792969 287.863281 70.855469 287.863281 72.011719 L 287.863281 76.667969 C 287.863281 77.542969 287.644531 77.542969 286.300781 77.542969 L 286.300781 78.167969 C 286.988281 78.136719 288.019531 78.105469 288.550781 78.105469 C 289.050781 78.105469 290.113281 78.136719 290.769531 78.167969 L 290.769531 77.542969 C 289.738281 77.542969 289.238281 77.542969 289.238281 76.949219 L 289.238281 73.136719 C 289.238281 71.417969 289.238281 70.824219 288.613281 70.105469 C 288.332031 69.761719 287.675781 69.355469 286.519531 69.355469 C 285.050781 69.355469 284.113281 70.199219 283.550781 71.449219 L 283.550781 69.355469 L 280.738281 69.574219 L 280.738281 70.199219 C 282.144531 70.199219 282.300781 70.324219 282.300781 71.324219 Z M 282.300781 71.324219 "/>
<path style=" stroke:none;fill-rule:nonzero;fill:rgb(0%,0%,0%);fill-opacity:1;" d="M 297.777344 82.949219 C 297.777344 82.886719 297.777344 82.855469 297.433594 82.511719 C 294.964844 80.011719 294.308594 76.230469 294.308594 73.167969 C 294.308594 69.699219 295.058594 66.230469 297.527344 63.761719 C 297.777344 63.511719 297.777344 63.480469 297.777344 63.417969 C 297.777344 63.261719 297.714844 63.199219 297.589844 63.199219 C 297.371094 63.199219 295.589844 64.574219 294.402344 67.105469 C 293.402344 69.292969 293.152344 71.511719 293.152344 73.167969 C 293.152344 74.730469 293.371094 77.136719 294.464844 79.417969 C 295.683594 81.855469 297.371094 83.167969 297.589844 83.167969 C 297.714844 83.167969 297.777344 83.105469 297.777344 82.949219 Z M 297.777344 82.949219 "/>
<path style=" stroke:none;fill-rule:nonzero;fill:rgb(0%,0%,0%);fill-opacity:1;" d="M 302.746094 73.167969 C 302.746094 72.605469 302.277344 72.136719 301.714844 72.136719 C 301.121094 72.136719 300.652344 72.605469 300.652344 73.167969 C 300.652344 73.761719 301.121094 74.230469 301.714844 74.230469 C 302.277344 74.230469 302.746094 73.761719 302.746094 73.167969 Z M 302.746094 73.167969 "/>
<path style=" stroke:none;fill-rule:nonzero;fill:rgb(0%,0%,0%);fill-opacity:1;" d="M 310.21875 73.167969 C 310.21875 71.636719 310 69.230469 308.90625 66.949219 C 307.71875 64.511719 306 63.199219 305.8125 63.199219 C 305.6875 63.199219 305.59375 63.292969 305.59375 63.417969 C 305.59375 63.480469 305.59375 63.511719 305.96875 63.886719 C 307.9375 65.855469 309.0625 69.011719 309.0625 73.167969 C 309.0625 76.605469 308.34375 80.105469 305.875 82.605469 C 305.59375 82.855469 305.59375 82.886719 305.59375 82.949219 C 305.59375 83.074219 305.6875 83.167969 305.8125 83.167969 C 306 83.167969 307.8125 81.792969 308.96875 79.261719 C 310 77.074219 310.21875 74.855469 310.21875 73.167969 Z M 310.21875 73.167969 "/>
<path style="fill:none;stroke-width:0.8;stroke-linecap:butt;stroke-linejoin:miter;stroke:rgb(100%,0%,0%);stroke-opacity:1;stroke-miterlimit:4;" d="M 288.796875 116.382812 L 288.796875 87.582031 "/>
<path style="fill-rule:evenodd;fill:rgb(100%,0%,0%);fill-opacity:1;stroke-width:0.8;stroke-linecap:butt;stroke-linejoin:miter;stroke:rgb(100%,0%,0%);stroke-opacity:1;stroke-miterlimit:4;" d="M -113.246094 288.796875 C -113.246094 290.5625 -114.679688 291.996094 -116.449219 291.996094 C -118.214844 291.996094 -119.648438 290.5625 -119.648438 288.796875 C -119.648438 287.03125 -118.214844 285.597656 -116.449219 285.597656 C -114.679688 285.597656 -113.246094 287.03125 -113.246094 288.796875 Z M -113.246094 288.796875 " transform="matrix(0,-1,1,0,0,0)"/>
<path style="fill-rule:evenodd;fill:rgb(100%,0%,0%);fill-opacity:1;stroke-width:0.8;stroke-linecap:butt;stroke-linejoin:miter;stroke:rgb(100%,0%,0%);stroke-opacity:1;stroke-miterlimit:4;" d="M 95.582031 -288.796875 L 98.785156 -291.996094 L 87.582031 -288.796875 L 98.785156 -285.597656 Z M 95.582031 -288.796875 " transform="matrix(0,1,-1,0,0,0)"/>
<path style="fill:none;stroke-width:0.8;stroke-linecap:butt;stroke-linejoin:miter;stroke:rgb(100%,0%,0%);stroke-opacity:1;stroke-miterlimit:4;" d="M 101.597656 58.398438 L 192.796875 29.601562 "/>
<path style="fill-rule:evenodd;fill:rgb(100%,0%,0%);fill-opacity:1;stroke-width:0.762866;stroke-linecap:butt;stroke-linejoin:miter;stroke:rgb(100%,0%,0%);stroke-opacity:1;stroke-miterlimit:4;" d="M 78.603124 82.279033 C 78.606303 83.963631 77.237837 85.328359 75.553239 85.331538 C 73.869763 85.331165 72.501483 83.961577 72.501856 82.278101 C 72.502229 80.594625 73.868265 79.225223 75.551741 79.225596 C 77.238769 79.227091 78.604619 80.592005 78.603124 82.279033 Z M 78.603124 82.279033 " transform="matrix(1,-0.315789,0.315789,1,0,0)"/>
<path style="fill-rule:evenodd;fill:rgb(100%,0%,0%);fill-opacity:1;stroke-width:0.762866;stroke-linecap:butt;stroke-linejoin:miter;stroke:rgb(100%,0%,0%);stroke-opacity:1;stroke-miterlimit:4;" d="M -159.185816 -82.276942 L -156.135931 -85.329447 L -166.813896 -82.279556 L -156.133311 -79.227057 Z M -159.185816 -82.276942 " transform="matrix(-1,0.315789,-0.315789,-1,0,0)"/>
<path style="fill:none;stroke-width:0.8;stroke-linecap:butt;stroke-linejoin:miter;stroke:rgb(100%,0%,0%);stroke-opacity:1;stroke-miterlimit:4;" d="M 288.796875 58.398438 L 202.398438 29.601562 "/>
<path style="fill-rule:evenodd;fill:rgb(100%,0%,0%);fill-opacity:1;stroke-width:0.758947;stroke-linecap:butt;stroke-linejoin:miter;stroke:rgb(100%,0%,0%);stroke-opacity:1;stroke-miterlimit:4;" d="M -274.461366 34.076874 C -274.461366 35.752656 -275.823086 37.116718 -277.498867 37.116717 C -279.174648 37.116717 -280.535195 35.753826 -280.535195 34.078044 C -280.535194 32.402263 -279.172303 31.041716 -277.496521 31.041717 C -275.82074 31.041717 -274.461365 32.401093 -274.461366 34.076874 Z M -274.461366 34.076874 " transform="matrix(-1,-0.333333,0.333333,-1,0,0)"/>
<path style="fill-rule:evenodd;fill:rgb(100%,0%,0%);fill-opacity:1;stroke-width:0.758947;stroke-linecap:butt;stroke-linejoin:miter;stroke:rgb(100%,0%,0%);stroke-opacity:1;stroke-miterlimit:4;" d="M 198.628155 -34.080413 L 201.663313 -37.115568 L 191.039092 -34.078071 L 201.663311 -31.045255 Z M 198.628155 -34.080413 " transform="matrix(1,0.333333,-0.333333,1,0,0)"/>
</g>
</svg>
