<?xml version="1.0" encoding="UTF-8"?>
<svg xmlns="http://www.w3.org/2000/svg" xmlns:xlink="http://www.w3.org/1999/xlink" width="342.399994pt" height="260.810364pt" viewBox="0 0 342.399994 260.810364" version="1.1">
<defs>
<clipPath id="clip1">
  <path d="M 216 230 L 266 230 L 266 260.808594 L 216 260.808594 Z M 216 230 "/>
</clipPath>
<clipPath id="clip2">
  <path d="M 283 230 L 314 230 L 314 260.808594 L 283 260.808594 Z M 283 230 "/>
</clipPath>
<clipPath id="clip3">
  <path d="M 312 173 L 342.398438 173 L 342.398438 204 L 312 204 Z M 312 173 "/>
</clipPath>
</defs>
<g id="surface1">
<path style="fill:none;stroke-width:1.6;stroke-linecap:round;stroke-linejoin:round;stroke:rgb(0%,0%,0%);stroke-opacity:1;stroke-miterlimit:4;" d="M 274.398438 58.785156 L 322.398438 58.785156 C 325.058594 58.785156 327.199219 60.925781 327.199219 63.582031 L 327.199219 82.785156 C 327.199219 85.441406 325.058594 87.582031 322.398438 87.582031 L 274.398438 87.582031 C 271.742188 87.582031 269.601562 85.441406 269.601562 82.785156 L 269.601562 63.582031 C 269.601562 60.925781 271.742188 58.785156 274.398438 58.785156 Z M 274.398438 58.785156 "/>
<path style=" stroke:none;fill-rule:nonzero;fill:rgb(0%,0%,0%);fill-opacity:1;" d="M 279.382812 66.898438 C 279.382812 66.398438 279.382812 66.367188 278.914062 66.367188 C 277.664062 67.648438 275.914062 67.648438 275.289062 67.648438 L 275.289062 68.273438 C 275.695312 68.273438 276.851562 68.273438 277.882812 67.742188 L 277.882812 78.085938 C 277.882812 78.804688 277.820312 79.023438 276.039062 79.023438 L 275.414062 79.023438 L 275.414062 79.648438 C 276.101562 79.585938 277.820312 79.585938 278.632812 79.585938 C 279.414062 79.585938 281.164062 79.585938 281.851562 79.648438 L 281.851562 79.023438 L 281.226562 79.023438 C 279.414062 79.023438 279.382812 78.804688 279.382812 78.085938 Z M 279.382812 66.898438 "/>
<path style=" stroke:none;fill-rule:nonzero;fill:rgb(0%,0%,0%);fill-opacity:1;" d="M 292.222656 65.460938 C 292.316406 65.179688 292.316406 65.117188 292.316406 65.085938 C 292.316406 64.867188 292.160156 64.679688 291.941406 64.679688 C 291.785156 64.679688 291.660156 64.742188 291.597656 64.867188 L 284.660156 83.867188 C 284.566406 84.148438 284.566406 84.210938 284.566406 84.242188 C 284.566406 84.460938 284.753906 84.648438 284.972656 84.648438 C 285.222656 84.648438 285.285156 84.492188 285.410156 84.148438 Z M 292.222656 65.460938 "/>
<path style=" stroke:none;fill-rule:nonzero;fill:rgb(0%,0%,0%);fill-opacity:1;" d="M 301.183594 80.195312 L 297.683594 72.445312 C 297.527344 72.132812 297.433594 72.132812 297.371094 72.132812 C 297.371094 72.132812 297.246094 72.132812 297.027344 72.289062 L 295.152344 73.726562 C 294.902344 73.945312 294.902344 73.976562 294.902344 74.039062 C 294.902344 74.164062 294.933594 74.257812 295.089844 74.257812 C 295.214844 74.257812 295.558594 73.976562 295.777344 73.820312 C 295.871094 73.726562 296.183594 73.507812 296.402344 73.351562 L 300.339844 81.976562 C 300.464844 82.289062 300.558594 82.289062 300.746094 82.289062 C 301.058594 82.289062 301.121094 82.195312 301.246094 81.914062 L 310.308594 63.164062 C 310.433594 62.882812 310.433594 62.820312 310.433594 62.757812 C 310.433594 62.570312 310.277344 62.351562 310.027344 62.351562 C 309.871094 62.351562 309.746094 62.476562 309.589844 62.789062 Z M 301.183594 80.195312 "/>
<path style="fill:none;stroke-width:2;stroke-linecap:butt;stroke-linejoin:miter;stroke:rgb(0%,0%,0%);stroke-opacity:1;stroke-miterlimit:10;" d="M 310.507812 -62.71875 L 320.507812 -62.71875 " transform="matrix(1,0,0,-1,0,0)"/>
<path style=" stroke:none;fill-rule:nonzero;fill:rgb(0%,0%,0%);fill-opacity:1;" d="M 312.570312 78.117188 L 314.695312 76.054688 C 317.789062 73.304688 318.976562 72.242188 318.976562 70.242188 C 318.976562 67.960938 317.195312 66.367188 314.757812 66.367188 C 312.507812 66.367188 311.039062 68.210938 311.039062 69.992188 C 311.039062 71.085938 312.039062 71.085938 312.101562 71.085938 C 312.445312 71.085938 313.132812 70.867188 313.132812 70.023438 C 313.132812 69.523438 312.757812 68.992188 312.070312 68.992188 C 311.914062 68.992188 311.882812 68.992188 311.820312 69.023438 C 312.257812 67.710938 313.351562 66.992188 314.507812 66.992188 C 316.320312 66.992188 317.164062 68.617188 317.164062 70.242188 C 317.164062 71.835938 316.195312 73.398438 315.070312 74.648438 L 311.257812 78.898438 C 311.039062 79.117188 311.039062 79.179688 311.039062 79.648438 L 318.445312 79.648438 L 318.976562 76.179688 L 318.507812 76.179688 C 318.382812 76.773438 318.257812 77.648438 318.039062 77.960938 C 317.914062 78.117188 316.601562 78.117188 316.164062 78.117188 Z M 312.570312 78.117188 "/>
<path style="fill-rule:nonzero;fill:rgb(79.998779%,79.998779%,79.998779%);fill-opacity:1;stroke-width:1.6;stroke-linecap:round;stroke-linejoin:round;stroke:rgb(79.998779%,79.998779%,79.998779%);stroke-opacity:1;stroke-miterlimit:4;" d="M 279.199219 116 L 317.601562 116 C 320.257812 116 322.398438 118.140625 322.398438 120.800781 L 322.398438 140 C 322.398438 142.660156 320.257812 144.800781 317.601562 144.800781 L 279.199219 144.800781 C 276.539062 144.800781 274.398438 142.660156 274.398438 140 L 274.398438 120.800781 C 274.398438 118.140625 276.539062 116 279.199219 116 Z M 279.199219 116 "/>
<path style=" stroke:none;fill-rule:nonzero;fill:rgb(79.998779%,79.998779%,79.998779%);fill-opacity:1;" d="M 283.074219 128.351562 C 284.699219 127.820312 285.855469 126.445312 285.855469 124.851562 C 285.855469 123.226562 284.105469 122.101562 282.199219 122.101562 C 280.199219 122.101562 278.667969 123.289062 278.667969 124.820312 C 278.667969 125.476562 279.105469 125.851562 279.699219 125.851562 C 280.292969 125.851562 280.699219 125.414062 280.699219 124.820312 C 280.699219 123.851562 279.761719 123.851562 279.480469 123.851562 C 280.074219 122.851562 281.386719 122.601562 282.105469 122.601562 C 282.949219 122.601562 284.042969 123.039062 284.042969 124.820312 C 284.042969 125.070312 283.980469 126.226562 283.480469 127.101562 C 282.886719 128.070312 282.199219 128.132812 281.699219 128.132812 C 281.542969 128.164062 281.074219 128.195312 280.917969 128.195312 C 280.761719 128.226562 280.636719 128.257812 280.636719 128.445312 C 280.636719 128.664062 280.761719 128.664062 281.105469 128.664062 L 281.980469 128.664062 C 283.605469 128.664062 284.355469 130.007812 284.355469 131.976562 C 284.355469 134.695312 282.980469 135.257812 282.105469 135.257812 C 281.230469 135.257812 279.730469 134.914062 279.042969 133.757812 C 279.730469 133.851562 280.355469 133.414062 280.355469 132.664062 C 280.355469 131.945312 279.824219 131.539062 279.261719 131.539062 C 278.761719 131.539062 278.136719 131.820312 278.136719 132.695312 C 278.136719 134.507812 279.980469 135.820312 282.167969 135.820312 C 284.605469 135.820312 286.417969 134.007812 286.417969 131.976562 C 286.417969 130.351562 285.136719 128.789062 283.074219 128.351562 Z M 283.074219 128.351562 "/>
<path style=" stroke:none;fill-rule:nonzero;fill:rgb(79.998779%,79.998779%,79.998779%);fill-opacity:1;" d="M 292.535156 127.945312 L 294.785156 127.945312 C 294.128906 130.882812 293.941406 131.757812 293.941406 133.101562 C 293.941406 133.382812 293.941406 133.914062 294.097656 134.601562 C 294.316406 135.476562 294.535156 135.601562 294.816406 135.601562 C 295.222656 135.601562 295.660156 135.257812 295.660156 134.851562 C 295.660156 134.726562 295.660156 134.695312 295.535156 134.414062 C 294.941406 132.976562 294.941406 131.664062 294.941406 131.101562 C 294.941406 130.070312 295.097656 128.976562 295.316406 127.945312 L 297.566406 127.945312 C 297.847656 127.945312 298.566406 127.945312 298.566406 127.257812 C 298.566406 126.789062 298.128906 126.789062 297.753906 126.789062 L 291.066406 126.789062 C 290.628906 126.789062 289.878906 126.789062 289.003906 127.726562 C 288.316406 128.507812 287.785156 129.414062 287.785156 129.507812 C 287.785156 129.539062 287.785156 129.726562 288.035156 129.726562 C 288.191406 129.726562 288.222656 129.632812 288.347656 129.476562 C 289.316406 127.945312 290.472656 127.945312 290.878906 127.945312 L 292.003906 127.945312 C 291.378906 130.351562 290.316406 132.757812 289.472656 134.570312 C 289.316406 134.882812 289.316406 134.914062 289.316406 135.070312 C 289.316406 135.445312 289.628906 135.601562 289.878906 135.601562 C 290.472656 135.601562 290.628906 135.039062 290.878906 134.320312 C 291.160156 133.382812 291.160156 133.351562 291.410156 132.351562 Z M 292.535156 127.945312 "/>
<path style=" stroke:none;fill-rule:nonzero;fill:rgb(79.998779%,79.998779%,79.998779%);fill-opacity:1;" d="M 308.078125 121.195312 C 308.171875 120.914062 308.171875 120.851562 308.171875 120.820312 C 308.171875 120.601562 308.015625 120.414062 307.796875 120.414062 C 307.640625 120.414062 307.515625 120.476562 307.453125 120.601562 L 300.515625 139.601562 C 300.421875 139.882812 300.421875 139.945312 300.421875 139.976562 C 300.421875 140.195312 300.609375 140.382812 300.828125 140.382812 C 301.078125 140.382812 301.140625 140.226562 301.265625 139.882812 Z M 308.078125 121.195312 "/>
<path style=" stroke:none;fill-rule:nonzero;fill:rgb(79.998779%,79.998779%,79.998779%);fill-opacity:1;" d="M 315.164062 132.101562 L 315.164062 133.820312 C 315.164062 134.539062 315.101562 134.757812 313.632812 134.757812 L 313.226562 134.757812 L 313.226562 135.382812 C 314.039062 135.320312 315.070312 135.320312 315.914062 135.320312 C 316.757812 135.320312 317.789062 135.320312 318.632812 135.382812 L 318.632812 134.757812 L 318.195312 134.757812 C 316.726562 134.757812 316.695312 134.539062 316.695312 133.820312 L 316.695312 132.101562 L 318.664062 132.101562 L 318.664062 131.476562 L 316.695312 131.476562 L 316.695312 122.414062 C 316.695312 122.007812 316.695312 121.882812 316.351562 121.882812 C 316.195312 121.882812 316.132812 121.882812 315.976562 122.132812 L 309.851562 131.476562 L 309.851562 132.101562 Z M 315.257812 131.476562 L 310.414062 131.476562 L 315.257812 124.039062 Z M 315.257812 131.476562 "/>
<path style="fill:none;stroke-width:1.6;stroke-linecap:round;stroke-linejoin:round;stroke:rgb(0%,0%,0%);stroke-opacity:1;stroke-miterlimit:4;" d="M 101.601562 58.398438 L 120.800781 58.398438 C 123.460938 58.398438 125.601562 60.539062 125.601562 63.199219 L 125.601562 82.398438 C 125.601562 85.058594 123.460938 87.199219 120.800781 87.199219 L 101.601562 87.199219 C 98.941406 87.199219 96.800781 85.058594 96.800781 82.398438 L 96.800781 63.199219 C 96.800781 60.539062 98.941406 58.398438 101.601562 58.398438 Z M 101.601562 58.398438 "/>
<path style=" stroke:none;fill-rule:nonzero;fill:rgb(0%,0%,0%);fill-opacity:1;" d="M 111.183594 74.628906 C 111.527344 74.628906 111.902344 74.628906 111.902344 74.222656 C 111.902344 73.847656 111.527344 73.847656 111.183594 73.847656 L 100.402344 73.847656 C 100.058594 73.847656 99.714844 73.847656 99.714844 74.222656 C 99.714844 74.628906 100.058594 74.628906 100.402344 74.628906 Z M 111.183594 74.628906 "/>
<path style=" stroke:none;fill-rule:nonzero;fill:rgb(0%,0%,0%);fill-opacity:1;" d="M 119.339844 72.191406 C 120.964844 71.660156 122.121094 70.285156 122.121094 68.691406 C 122.121094 67.066406 120.371094 65.941406 118.464844 65.941406 C 116.464844 65.941406 114.933594 67.128906 114.933594 68.660156 C 114.933594 69.316406 115.371094 69.691406 115.964844 69.691406 C 116.558594 69.691406 116.964844 69.253906 116.964844 68.660156 C 116.964844 67.691406 116.027344 67.691406 115.746094 67.691406 C 116.339844 66.691406 117.652344 66.441406 118.371094 66.441406 C 119.214844 66.441406 120.308594 66.878906 120.308594 68.660156 C 120.308594 68.910156 120.246094 70.066406 119.746094 70.941406 C 119.152344 71.910156 118.464844 71.972656 117.964844 71.972656 C 117.808594 72.003906 117.339844 72.035156 117.183594 72.035156 C 117.027344 72.066406 116.902344 72.097656 116.902344 72.285156 C 116.902344 72.503906 117.027344 72.503906 117.371094 72.503906 L 118.246094 72.503906 C 119.871094 72.503906 120.621094 73.847656 120.621094 75.816406 C 120.621094 78.535156 119.246094 79.097656 118.371094 79.097656 C 117.496094 79.097656 115.996094 78.753906 115.308594 77.597656 C 115.996094 77.691406 116.621094 77.253906 116.621094 76.503906 C 116.621094 75.785156 116.089844 75.378906 115.527344 75.378906 C 115.027344 75.378906 114.402344 75.660156 114.402344 76.535156 C 114.402344 78.347656 116.246094 79.660156 118.433594 79.660156 C 120.871094 79.660156 122.683594 77.847656 122.683594 75.816406 C 122.683594 74.191406 121.402344 72.628906 119.339844 72.191406 Z M 119.339844 72.191406 "/>
<path style="fill-rule:nonzero;fill:rgb(79.998779%,79.998779%,79.998779%);fill-opacity:1;stroke-width:1.6;stroke-linecap:round;stroke-linejoin:round;stroke:rgb(79.998779%,79.998779%,79.998779%);stroke-opacity:1;stroke-miterlimit:4;" d="M 144.800781 116 L 192.800781 116 C 195.460938 116 197.601562 118.140625 197.601562 120.800781 L 197.601562 140 C 197.601562 142.660156 195.460938 144.800781 192.800781 144.800781 L 144.800781 144.800781 C 142.140625 144.800781 140 142.660156 140 140 L 140 120.800781 C 140 118.140625 142.140625 116 144.800781 116 Z M 144.800781 116 "/>
<path style=" stroke:none;fill-rule:nonzero;fill:rgb(79.998779%,79.998779%,79.998779%);fill-opacity:1;" d="M 157.859375 130.789062 C 158.203125 130.789062 158.578125 130.789062 158.578125 130.382812 C 158.578125 130.007812 158.203125 130.007812 157.859375 130.007812 L 147.078125 130.007812 C 146.734375 130.007812 146.390625 130.007812 146.390625 130.382812 C 146.390625 130.789062 146.734375 130.789062 147.078125 130.789062 Z M 157.859375 130.789062 "/>
<path style=" stroke:none;fill-rule:nonzero;fill:rgb(79.998779%,79.998779%,79.998779%);fill-opacity:1;" d="M 165.515625 127.945312 L 167.765625 127.945312 C 167.109375 130.882812 166.921875 131.757812 166.921875 133.101562 C 166.921875 133.382812 166.921875 133.914062 167.078125 134.601562 C 167.296875 135.476562 167.515625 135.601562 167.796875 135.601562 C 168.203125 135.601562 168.640625 135.257812 168.640625 134.851562 C 168.640625 134.726562 168.640625 134.695312 168.515625 134.414062 C 167.921875 132.976562 167.921875 131.664062 167.921875 131.101562 C 167.921875 130.070312 168.078125 128.976562 168.296875 127.945312 L 170.546875 127.945312 C 170.828125 127.945312 171.546875 127.945312 171.546875 127.257812 C 171.546875 126.789062 171.109375 126.789062 170.734375 126.789062 L 164.046875 126.789062 C 163.609375 126.789062 162.859375 126.789062 161.984375 127.726562 C 161.296875 128.507812 160.765625 129.414062 160.765625 129.507812 C 160.765625 129.539062 160.765625 129.726562 161.015625 129.726562 C 161.171875 129.726562 161.203125 129.632812 161.328125 129.476562 C 162.296875 127.945312 163.453125 127.945312 163.859375 127.945312 L 164.984375 127.945312 C 164.359375 130.351562 163.296875 132.757812 162.453125 134.570312 C 162.296875 134.882812 162.296875 134.914062 162.296875 135.070312 C 162.296875 135.445312 162.609375 135.601562 162.859375 135.601562 C 163.453125 135.601562 163.609375 135.039062 163.859375 134.320312 C 164.140625 133.382812 164.140625 133.351562 164.390625 132.351562 Z M 165.515625 127.945312 "/>
<path style=" stroke:none;fill-rule:nonzero;fill:rgb(79.998779%,79.998779%,79.998779%);fill-opacity:1;" d="M 181.058594 121.195312 C 181.152344 120.914062 181.152344 120.851562 181.152344 120.820312 C 181.152344 120.601562 180.996094 120.414062 180.777344 120.414062 C 180.621094 120.414062 180.496094 120.476562 180.433594 120.601562 L 173.496094 139.601562 C 173.402344 139.882812 173.402344 139.945312 173.402344 139.976562 C 173.402344 140.195312 173.589844 140.382812 173.808594 140.382812 C 174.058594 140.382812 174.121094 140.226562 174.246094 139.882812 Z M 181.058594 121.195312 "/>
<path style=" stroke:none;fill-rule:nonzero;fill:rgb(79.998779%,79.998779%,79.998779%);fill-opacity:1;" d="M 184.800781 133.851562 L 186.925781 131.789062 C 190.019531 129.039062 191.207031 127.976562 191.207031 125.976562 C 191.207031 123.695312 189.425781 122.101562 186.988281 122.101562 C 184.738281 122.101562 183.269531 123.945312 183.269531 125.726562 C 183.269531 126.820312 184.269531 126.820312 184.332031 126.820312 C 184.675781 126.820312 185.363281 126.601562 185.363281 125.757812 C 185.363281 125.257812 184.988281 124.726562 184.300781 124.726562 C 184.144531 124.726562 184.113281 124.726562 184.050781 124.757812 C 184.488281 123.445312 185.582031 122.726562 186.738281 122.726562 C 188.550781 122.726562 189.394531 124.351562 189.394531 125.976562 C 189.394531 127.570312 188.425781 129.132812 187.300781 130.382812 L 183.488281 134.632812 C 183.269531 134.851562 183.269531 134.914062 183.269531 135.382812 L 190.675781 135.382812 L 191.207031 131.914062 L 190.738281 131.914062 C 190.613281 132.507812 190.488281 133.382812 190.269531 133.695312 C 190.144531 133.851562 188.832031 133.851562 188.394531 133.851562 Z M 184.800781 133.851562 "/>
<path style="fill-rule:nonzero;fill:rgb(79.998779%,79.998779%,79.998779%);fill-opacity:1;stroke-width:1.6;stroke-linecap:round;stroke-linejoin:round;stroke:rgb(79.998779%,79.998779%,79.998779%);stroke-opacity:1;stroke-miterlimit:4;" d="M 120.800781 173.601562 L 159.199219 173.601562 C 161.859375 173.601562 164 175.742188 164 178.398438 L 164 197.601562 C 164 200.257812 161.859375 202.398438 159.199219 202.398438 L 120.800781 202.398438 C 118.140625 202.398438 116 200.257812 116 197.601562 L 116 178.398438 C 116 175.742188 118.140625 173.601562 120.800781 173.601562 Z M 120.800781 173.601562 "/>
<path style=" stroke:none;fill-rule:nonzero;fill:rgb(79.998779%,79.998779%,79.998779%);fill-opacity:1;" d="M 129.527344 185.546875 L 131.777344 185.546875 C 131.121094 188.484375 130.933594 189.359375 130.933594 190.703125 C 130.933594 190.984375 130.933594 191.515625 131.089844 192.203125 C 131.308594 193.078125 131.527344 193.203125 131.808594 193.203125 C 132.214844 193.203125 132.652344 192.859375 132.652344 192.453125 C 132.652344 192.328125 132.652344 192.296875 132.527344 192.015625 C 131.933594 190.578125 131.933594 189.265625 131.933594 188.703125 C 131.933594 187.671875 132.089844 186.578125 132.308594 185.546875 L 134.558594 185.546875 C 134.839844 185.546875 135.558594 185.546875 135.558594 184.859375 C 135.558594 184.390625 135.121094 184.390625 134.746094 184.390625 L 128.058594 184.390625 C 127.621094 184.390625 126.871094 184.390625 125.996094 185.328125 C 125.308594 186.109375 124.777344 187.015625 124.777344 187.109375 C 124.777344 187.140625 124.777344 187.328125 125.027344 187.328125 C 125.183594 187.328125 125.214844 187.234375 125.339844 187.078125 C 126.308594 185.546875 127.464844 185.546875 127.871094 185.546875 L 128.996094 185.546875 C 128.371094 187.953125 127.308594 190.359375 126.464844 192.171875 C 126.308594 192.484375 126.308594 192.515625 126.308594 192.671875 C 126.308594 193.046875 126.621094 193.203125 126.871094 193.203125 C 127.464844 193.203125 127.621094 192.640625 127.871094 191.921875 C 128.152344 190.984375 128.152344 190.953125 128.402344 189.953125 Z M 129.527344 185.546875 "/>
<path style=" stroke:none;fill-rule:nonzero;fill:rgb(79.998779%,79.998779%,79.998779%);fill-opacity:1;" d="M 145.074219 178.796875 C 145.167969 178.515625 145.167969 178.453125 145.167969 178.421875 C 145.167969 178.203125 145.011719 178.015625 144.792969 178.015625 C 144.636719 178.015625 144.511719 178.078125 144.449219 178.203125 L 137.511719 197.203125 C 137.417969 197.484375 137.417969 197.546875 137.417969 197.578125 C 137.417969 197.796875 137.605469 197.984375 137.824219 197.984375 C 138.074219 197.984375 138.136719 197.828125 138.261719 197.484375 Z M 145.074219 178.796875 "/>
<path style=" stroke:none;fill-rule:nonzero;fill:rgb(79.998779%,79.998779%,79.998779%);fill-opacity:1;" d="M 148.816406 191.453125 L 150.941406 189.390625 C 154.035156 186.640625 155.222656 185.578125 155.222656 183.578125 C 155.222656 181.296875 153.441406 179.703125 151.003906 179.703125 C 148.753906 179.703125 147.285156 181.546875 147.285156 183.328125 C 147.285156 184.421875 148.285156 184.421875 148.347656 184.421875 C 148.691406 184.421875 149.378906 184.203125 149.378906 183.359375 C 149.378906 182.859375 149.003906 182.328125 148.316406 182.328125 C 148.160156 182.328125 148.128906 182.328125 148.066406 182.359375 C 148.503906 181.046875 149.597656 180.328125 150.753906 180.328125 C 152.566406 180.328125 153.410156 181.953125 153.410156 183.578125 C 153.410156 185.171875 152.441406 186.734375 151.316406 187.984375 L 147.503906 192.234375 C 147.285156 192.453125 147.285156 192.515625 147.285156 192.984375 L 154.691406 192.984375 L 155.222656 189.515625 L 154.753906 189.515625 C 154.628906 190.109375 154.503906 190.984375 154.285156 191.296875 C 154.160156 191.453125 152.847656 191.453125 152.410156 191.453125 Z M 148.816406 191.453125 "/>
<path style="fill-rule:nonzero;fill:rgb(79.998779%,79.998779%,79.998779%);fill-opacity:1;stroke-width:1.6;stroke-linecap:round;stroke-linejoin:round;stroke:rgb(79.998779%,79.998779%,79.998779%);stroke-opacity:1;stroke-miterlimit:4;" d="M 188 173.601562 L 207.199219 173.601562 C 209.859375 173.601562 212 175.742188 212 178.398438 L 212 197.601562 C 212 200.257812 209.859375 202.398438 207.199219 202.398438 L 188 202.398438 C 185.339844 202.398438 183.199219 200.257812 183.199219 197.601562 L 183.199219 178.398438 C 183.199219 175.742188 185.339844 173.601562 188 173.601562 Z M 188 173.601562 "/>
<path style=" stroke:none;fill-rule:nonzero;fill:rgb(79.998779%,79.998779%,79.998779%);fill-opacity:1;" d="M 196.960938 184.75 L 199.210938 184.75 C 198.554688 187.6875 198.367188 188.5625 198.367188 189.90625 C 198.367188 190.1875 198.367188 190.71875 198.523438 191.40625 C 198.742188 192.28125 198.960938 192.40625 199.242188 192.40625 C 199.648438 192.40625 200.085938 192.0625 200.085938 191.65625 C 200.085938 191.53125 200.085938 191.5 199.960938 191.21875 C 199.367188 189.78125 199.367188 188.46875 199.367188 187.90625 C 199.367188 186.875 199.523438 185.78125 199.742188 184.75 L 201.992188 184.75 C 202.273438 184.75 202.992188 184.75 202.992188 184.0625 C 202.992188 183.59375 202.554688 183.59375 202.179688 183.59375 L 195.492188 183.59375 C 195.054688 183.59375 194.304688 183.59375 193.429688 184.53125 C 192.742188 185.3125 192.210938 186.21875 192.210938 186.3125 C 192.210938 186.34375 192.210938 186.53125 192.460938 186.53125 C 192.617188 186.53125 192.648438 186.4375 192.773438 186.28125 C 193.742188 184.75 194.898438 184.75 195.304688 184.75 L 196.429688 184.75 C 195.804688 187.15625 194.742188 189.5625 193.898438 191.375 C 193.742188 191.6875 193.742188 191.71875 193.742188 191.875 C 193.742188 192.25 194.054688 192.40625 194.304688 192.40625 C 194.898438 192.40625 195.054688 191.84375 195.304688 191.125 C 195.585938 190.1875 195.585938 190.15625 195.835938 189.15625 Z M 196.960938 184.75 "/>
<path style="fill:none;stroke-width:0.8;stroke-linecap:butt;stroke-linejoin:miter;stroke:rgb(100%,0%,0%);stroke-opacity:1;stroke-miterlimit:4;" d="M 140 173.601562 L 164.164062 145.53125 "/>
<path style="fill-rule:evenodd;fill:rgb(100%,0%,0%);fill-opacity:1;stroke-width:0.606287;stroke-linecap:butt;stroke-linejoin:miter;stroke:rgb(100%,0%,0%);stroke-opacity:1;stroke-miterlimit:4;" d="M -28.108002 166.244211 C -28.109309 167.581273 -29.196146 168.669243 -30.535452 168.669867 C -31.872515 168.668561 -32.958553 167.583967 -32.959178 166.244661 C -32.959802 164.905355 -31.872965 163.817385 -30.535902 163.818692 C -29.196596 163.818068 -28.108627 164.904905 -28.108002 166.244211 Z M -28.108002 166.244211 " transform="matrix(0.86087,-1,1,0.86087,0,0)"/>
<path style="fill-rule:evenodd;fill:rgb(100%,0%,0%);fill-opacity:1;stroke-width:0.606287;stroke-linecap:butt;stroke-linejoin:miter;stroke:rgb(100%,0%,0%);stroke-opacity:1;stroke-miterlimit:4;" d="M 8.478848 -166.244499 L 10.906299 -168.670155 L 2.416484 -166.244341 L 10.906748 -163.81898 Z M 8.478848 -166.244499 " transform="matrix(-0.86087,1,-1,-0.86087,0,0)"/>
<path style="fill:none;stroke-width:0.8;stroke-linecap:butt;stroke-linejoin:miter;stroke:rgb(100%,0%,0%);stroke-opacity:1;stroke-miterlimit:4;" d="M 197.601562 173.601562 L 173.4375 145.53125 "/>
<path style="fill-rule:evenodd;fill:rgb(100%,0%,0%);fill-opacity:1;stroke-width:0.606287;stroke-linecap:butt;stroke-linejoin:miter;stroke:rgb(100%,0%,0%);stroke-opacity:1;stroke-miterlimit:4;" d="M -195.032092 27.657411 C -195.032716 28.996717 -196.118754 30.081311 -197.45806 30.080686 C -198.795123 30.081993 -199.88196 28.994023 -199.883267 27.656961 C -199.882642 26.317655 -198.794673 25.230818 -197.45761 25.229511 C -196.118304 25.230135 -195.031467 26.318105 -195.032092 27.657411 Z M -195.032092 27.657411 " transform="matrix(-0.86087,-1,1,-0.86087,0,0)"/>
<path style="fill-rule:evenodd;fill:rgb(100%,0%,0%);fill-opacity:1;stroke-width:0.606287;stroke-linecap:butt;stroke-linejoin:miter;stroke:rgb(100%,0%,0%);stroke-opacity:1;stroke-miterlimit:4;" d="M 175.402938 -27.657123 L 177.828906 -30.080398 L 169.340573 -27.657281 L 177.830388 -25.231467 Z M 175.402938 -27.657123 " transform="matrix(0.86087,1,-1,0.86087,0,0)"/>
<path style="fill-rule:nonzero;fill:rgb(79.998779%,79.998779%,79.998779%);fill-opacity:1;stroke-width:1.6;stroke-linecap:round;stroke-linejoin:round;stroke:rgb(79.998779%,79.998779%,79.998779%);stroke-opacity:1;stroke-miterlimit:4;" d="M 250.589844 173.601562 L 288.992188 173.601562 C 291.652344 173.601562 293.792969 175.742188 293.792969 178.398438 L 293.792969 197.601562 C 293.792969 200.257812 291.652344 202.398438 288.992188 202.398438 L 250.589844 202.398438 C 247.933594 202.398438 245.792969 200.257812 245.792969 197.601562 L 245.792969 178.398438 C 245.792969 175.742188 247.933594 173.601562 250.589844 173.601562 Z M 250.589844 173.601562 "/>
<path style=" stroke:none;fill-rule:nonzero;fill:rgb(79.998779%,79.998779%,79.998779%);fill-opacity:1;" d="M 254.683594 185.953125 C 256.308594 185.421875 257.464844 184.046875 257.464844 182.453125 C 257.464844 180.828125 255.714844 179.703125 253.808594 179.703125 C 251.808594 179.703125 250.277344 180.890625 250.277344 182.421875 C 250.277344 183.078125 250.714844 183.453125 251.308594 183.453125 C 251.902344 183.453125 252.308594 183.015625 252.308594 182.421875 C 252.308594 181.453125 251.371094 181.453125 251.089844 181.453125 C 251.683594 180.453125 252.996094 180.203125 253.714844 180.203125 C 254.558594 180.203125 255.652344 180.640625 255.652344 182.421875 C 255.652344 182.671875 255.589844 183.828125 255.089844 184.703125 C 254.496094 185.671875 253.808594 185.734375 253.308594 185.734375 C 253.152344 185.765625 252.683594 185.796875 252.527344 185.796875 C 252.371094 185.828125 252.246094 185.859375 252.246094 186.046875 C 252.246094 186.265625 252.371094 186.265625 252.714844 186.265625 L 253.589844 186.265625 C 255.214844 186.265625 255.964844 187.609375 255.964844 189.578125 C 255.964844 192.296875 254.589844 192.859375 253.714844 192.859375 C 252.839844 192.859375 251.339844 192.515625 250.652344 191.359375 C 251.339844 191.453125 251.964844 191.015625 251.964844 190.265625 C 251.964844 189.546875 251.433594 189.140625 250.871094 189.140625 C 250.371094 189.140625 249.746094 189.421875 249.746094 190.296875 C 249.746094 192.109375 251.589844 193.421875 253.777344 193.421875 C 256.214844 193.421875 258.027344 191.609375 258.027344 189.578125 C 258.027344 187.953125 256.746094 186.390625 254.683594 185.953125 Z M 254.683594 185.953125 "/>
<path style=" stroke:none;fill-rule:nonzero;fill:rgb(79.998779%,79.998779%,79.998779%);fill-opacity:1;" d="M 264.144531 185.546875 L 266.394531 185.546875 C 265.738281 188.484375 265.550781 189.359375 265.550781 190.703125 C 265.550781 190.984375 265.550781 191.515625 265.707031 192.203125 C 265.925781 193.078125 266.144531 193.203125 266.425781 193.203125 C 266.832031 193.203125 267.269531 192.859375 267.269531 192.453125 C 267.269531 192.328125 267.269531 192.296875 267.144531 192.015625 C 266.550781 190.578125 266.550781 189.265625 266.550781 188.703125 C 266.550781 187.671875 266.707031 186.578125 266.925781 185.546875 L 269.175781 185.546875 C 269.457031 185.546875 270.175781 185.546875 270.175781 184.859375 C 270.175781 184.390625 269.738281 184.390625 269.363281 184.390625 L 262.675781 184.390625 C 262.238281 184.390625 261.488281 184.390625 260.613281 185.328125 C 259.925781 186.109375 259.394531 187.015625 259.394531 187.109375 C 259.394531 187.140625 259.394531 187.328125 259.644531 187.328125 C 259.800781 187.328125 259.832031 187.234375 259.957031 187.078125 C 260.925781 185.546875 262.082031 185.546875 262.488281 185.546875 L 263.613281 185.546875 C 262.988281 187.953125 261.925781 190.359375 261.082031 192.171875 C 260.925781 192.484375 260.925781 192.515625 260.925781 192.671875 C 260.925781 193.046875 261.238281 193.203125 261.488281 193.203125 C 262.082031 193.203125 262.238281 192.640625 262.488281 191.921875 C 262.769531 190.984375 262.769531 190.953125 263.019531 189.953125 Z M 264.144531 185.546875 "/>
<path style=" stroke:none;fill-rule:nonzero;fill:rgb(79.998779%,79.998779%,79.998779%);fill-opacity:1;" d="M 279.6875 178.796875 C 279.78125 178.515625 279.78125 178.453125 279.78125 178.421875 C 279.78125 178.203125 279.625 178.015625 279.40625 178.015625 C 279.25 178.015625 279.125 178.078125 279.0625 178.203125 L 272.125 197.203125 C 272.03125 197.484375 272.03125 197.546875 272.03125 197.578125 C 272.03125 197.796875 272.21875 197.984375 272.4375 197.984375 C 272.6875 197.984375 272.75 197.828125 272.875 197.484375 Z M 279.6875 178.796875 "/>
<path style=" stroke:none;fill-rule:nonzero;fill:rgb(79.998779%,79.998779%,79.998779%);fill-opacity:1;" d="M 283.429688 191.453125 L 285.554688 189.390625 C 288.648438 186.640625 289.835938 185.578125 289.835938 183.578125 C 289.835938 181.296875 288.054688 179.703125 285.617188 179.703125 C 283.367188 179.703125 281.898438 181.546875 281.898438 183.328125 C 281.898438 184.421875 282.898438 184.421875 282.960938 184.421875 C 283.304688 184.421875 283.992188 184.203125 283.992188 183.359375 C 283.992188 182.859375 283.617188 182.328125 282.929688 182.328125 C 282.773438 182.328125 282.742188 182.328125 282.679688 182.359375 C 283.117188 181.046875 284.210938 180.328125 285.367188 180.328125 C 287.179688 180.328125 288.023438 181.953125 288.023438 183.578125 C 288.023438 185.171875 287.054688 186.734375 285.929688 187.984375 L 282.117188 192.234375 C 281.898438 192.453125 281.898438 192.515625 281.898438 192.984375 L 289.304688 192.984375 L 289.835938 189.515625 L 289.367188 189.515625 C 289.242188 190.109375 289.117188 190.984375 288.898438 191.296875 C 288.773438 191.453125 287.460938 191.453125 287.023438 191.453125 Z M 283.429688 191.453125 "/>
<path style=" stroke:none;fill-rule:nonzero;fill:rgb(79.998779%,79.998779%,79.998779%);fill-opacity:1;" d="M 221.601562 231.199219 L 260 231.199219 C 262.660156 231.199219 264.800781 233.339844 264.800781 236 L 264.800781 255.199219 C 264.800781 257.859375 262.660156 260 260 260 L 221.601562 260 C 218.941406 260 216.800781 257.859375 216.800781 255.199219 L 216.800781 236 C 216.800781 233.339844 218.941406 231.199219 221.601562 231.199219 Z M 221.601562 231.199219 "/>
<g clip-path="url(#clip1)" clip-rule="nonzero">
<path style="fill:none;stroke-width:1.6;stroke-linecap:round;stroke-linejoin:round;stroke:rgb(79.998779%,79.998779%,79.998779%);stroke-opacity:1;stroke-miterlimit:4;" d="M 221.601562 231.199219 L 260 231.199219 C 262.660156 231.199219 264.800781 233.339844 264.800781 236 L 264.800781 255.199219 C 264.800781 257.859375 262.660156 260 260 260 L 221.601562 260 C 218.941406 260 216.800781 257.859375 216.800781 255.199219 L 216.800781 236 C 216.800781 233.339844 218.941406 231.199219 221.601562 231.199219 Z M 221.601562 231.199219 "/>
</g>
<path style=" stroke:none;fill-rule:nonzero;fill:rgb(79.998779%,79.998779%,79.998779%);fill-opacity:1;" d="M 230.328125 243.148438 L 232.578125 243.148438 C 231.921875 246.085938 231.734375 246.960938 231.734375 248.304688 C 231.734375 248.585938 231.734375 249.117188 231.890625 249.804688 C 232.109375 250.679688 232.328125 250.804688 232.609375 250.804688 C 233.015625 250.804688 233.453125 250.460938 233.453125 250.054688 C 233.453125 249.929688 233.453125 249.898438 233.328125 249.617188 C 232.734375 248.179688 232.734375 246.867188 232.734375 246.304688 C 232.734375 245.273438 232.890625 244.179688 233.109375 243.148438 L 235.359375 243.148438 C 235.640625 243.148438 236.359375 243.148438 236.359375 242.460938 C 236.359375 241.992188 235.921875 241.992188 235.546875 241.992188 L 228.859375 241.992188 C 228.421875 241.992188 227.671875 241.992188 226.796875 242.929688 C 226.109375 243.710938 225.578125 244.617188 225.578125 244.710938 C 225.578125 244.742188 225.578125 244.929688 225.828125 244.929688 C 225.984375 244.929688 226.015625 244.835938 226.140625 244.679688 C 227.109375 243.148438 228.265625 243.148438 228.671875 243.148438 L 229.796875 243.148438 C 229.171875 245.554688 228.109375 247.960938 227.265625 249.773438 C 227.109375 250.085938 227.109375 250.117188 227.109375 250.273438 C 227.109375 250.648438 227.421875 250.804688 227.671875 250.804688 C 228.265625 250.804688 228.421875 250.242188 228.671875 249.523438 C 228.953125 248.585938 228.953125 248.554688 229.203125 247.554688 Z M 230.328125 243.148438 "/>
<path style=" stroke:none;fill-rule:nonzero;fill:rgb(79.998779%,79.998779%,79.998779%);fill-opacity:1;" d="M 245.871094 236.398438 C 245.964844 236.117188 245.964844 236.054688 245.964844 236.023438 C 245.964844 235.804688 245.808594 235.617188 245.589844 235.617188 C 245.433594 235.617188 245.308594 235.679688 245.246094 235.804688 L 238.308594 254.804688 C 238.214844 255.085938 238.214844 255.148438 238.214844 255.179688 C 238.214844 255.398438 238.402344 255.585938 238.621094 255.585938 C 238.871094 255.585938 238.933594 255.429688 239.058594 255.085938 Z M 245.871094 236.398438 "/>
<path style=" stroke:none;fill-rule:nonzero;fill:rgb(79.998779%,79.998779%,79.998779%);fill-opacity:1;" d="M 249.613281 249.054688 L 251.738281 246.992188 C 254.832031 244.242188 256.019531 243.179688 256.019531 241.179688 C 256.019531 238.898438 254.238281 237.304688 251.800781 237.304688 C 249.550781 237.304688 248.082031 239.148438 248.082031 240.929688 C 248.082031 242.023438 249.082031 242.023438 249.144531 242.023438 C 249.488281 242.023438 250.175781 241.804688 250.175781 240.960938 C 250.175781 240.460938 249.800781 239.929688 249.113281 239.929688 C 248.957031 239.929688 248.925781 239.929688 248.863281 239.960938 C 249.300781 238.648438 250.394531 237.929688 251.550781 237.929688 C 253.363281 237.929688 254.207031 239.554688 254.207031 241.179688 C 254.207031 242.773438 253.238281 244.335938 252.113281 245.585938 L 248.300781 249.835938 C 248.082031 250.054688 248.082031 250.117188 248.082031 250.585938 L 255.488281 250.585938 L 256.019531 247.117188 L 255.550781 247.117188 C 255.425781 247.710938 255.300781 248.585938 255.082031 248.898438 C 254.957031 249.054688 253.644531 249.054688 253.207031 249.054688 Z M 249.613281 249.054688 "/>
<path style=" stroke:none;fill-rule:nonzero;fill:rgb(79.998779%,79.998779%,79.998779%);fill-opacity:1;" d="M 288.800781 231.199219 L 308 231.199219 C 310.660156 231.199219 312.800781 233.339844 312.800781 236 L 312.800781 255.199219 C 312.800781 257.859375 310.660156 260 308 260 L 288.800781 260 C 286.140625 260 284 257.859375 284 255.199219 L 284 236 C 284 233.339844 286.140625 231.199219 288.800781 231.199219 Z M 288.800781 231.199219 "/>
<g clip-path="url(#clip2)" clip-rule="nonzero">
<path style="fill:none;stroke-width:1.6;stroke-linecap:round;stroke-linejoin:round;stroke:rgb(79.998779%,79.998779%,79.998779%);stroke-opacity:1;stroke-miterlimit:4;" d="M 288.800781 231.199219 L 308 231.199219 C 310.660156 231.199219 312.800781 233.339844 312.800781 236 L 312.800781 255.199219 C 312.800781 257.859375 310.660156 260 308 260 L 288.800781 260 C 286.140625 260 284 257.859375 284 255.199219 L 284 236 C 284 233.339844 286.140625 231.199219 288.800781 231.199219 Z M 288.800781 231.199219 "/>
</g>
<path style=" stroke:none;fill-rule:nonzero;fill:rgb(79.998779%,79.998779%,79.998779%);fill-opacity:1;" d="M 297.757812 242.351562 L 300.007812 242.351562 C 299.351562 245.289062 299.164062 246.164062 299.164062 247.507812 C 299.164062 247.789062 299.164062 248.320312 299.320312 249.007812 C 299.539062 249.882812 299.757812 250.007812 300.039062 250.007812 C 300.445312 250.007812 300.882812 249.664062 300.882812 249.257812 C 300.882812 249.132812 300.882812 249.101562 300.757812 248.820312 C 300.164062 247.382812 300.164062 246.070312 300.164062 245.507812 C 300.164062 244.476562 300.320312 243.382812 300.539062 242.351562 L 302.789062 242.351562 C 303.070312 242.351562 303.789062 242.351562 303.789062 241.664062 C 303.789062 241.195312 303.351562 241.195312 302.976562 241.195312 L 296.289062 241.195312 C 295.851562 241.195312 295.101562 241.195312 294.226562 242.132812 C 293.539062 242.914062 293.007812 243.820312 293.007812 243.914062 C 293.007812 243.945312 293.007812 244.132812 293.257812 244.132812 C 293.414062 244.132812 293.445312 244.039062 293.570312 243.882812 C 294.539062 242.351562 295.695312 242.351562 296.101562 242.351562 L 297.226562 242.351562 C 296.601562 244.757812 295.539062 247.164062 294.695312 248.976562 C 294.539062 249.289062 294.539062 249.320312 294.539062 249.476562 C 294.539062 249.851562 294.851562 250.007812 295.101562 250.007812 C 295.695312 250.007812 295.851562 249.445312 296.101562 248.726562 C 296.382812 247.789062 296.382812 247.757812 296.632812 246.757812 Z M 297.757812 242.351562 "/>
<path style="fill:none;stroke-width:0.8;stroke-linecap:butt;stroke-linejoin:miter;stroke:rgb(100%,0%,0%);stroke-opacity:1;stroke-miterlimit:4;" d="M 240.800781 231.199219 L 264.960938 203.132812 "/>
<path style="fill-rule:evenodd;fill:rgb(100%,0%,0%);fill-opacity:1;stroke-width:0.606287;stroke-linecap:butt;stroke-linejoin:miter;stroke:rgb(100%,0%,0%);stroke-opacity:1;stroke-miterlimit:4;" d="M -11.351438 252.619769 C -11.352745 253.956831 -12.437339 255.042869 -13.776645 255.043494 C -15.115951 255.044119 -16.20392 253.957281 -16.20037 252.618287 C -16.200995 251.278981 -15.116401 250.192943 -13.777095 250.192319 C -12.437789 250.191694 -11.352063 251.280463 -11.351438 252.619769 Z M -11.351438 252.619769 " transform="matrix(0.86087,-1,1,0.86087,0,0)"/>
<path style="fill-rule:evenodd;fill:rgb(100%,0%,0%);fill-opacity:1;stroke-width:0.606287;stroke-linecap:butt;stroke-linejoin:miter;stroke:rgb(100%,0%,0%);stroke-opacity:1;stroke-miterlimit:4;" d="M -8.275784 -252.617813 L -5.852509 -255.043782 L -14.338149 -252.617656 L -5.852059 -250.192607 Z M -8.275784 -252.617813 " transform="matrix(-0.86087,1,-1,-0.86087,0,0)"/>
<path style="fill:none;stroke-width:0.8;stroke-linecap:butt;stroke-linejoin:miter;stroke:rgb(100%,0%,0%);stroke-opacity:1;stroke-miterlimit:4;" d="M 298.398438 231.199219 L 274.238281 203.132812 "/>
<path style="fill-rule:evenodd;fill:rgb(100%,0%,0%);fill-opacity:1;stroke-width:0.606287;stroke-linecap:butt;stroke-linejoin:miter;stroke:rgb(100%,0%,0%);stroke-opacity:1;stroke-miterlimit:4;" d="M -277.955627 57.071809 C -277.95432 58.408871 -279.040046 59.49764 -280.379352 59.497015 C -281.718658 59.49639 -282.803251 58.410352 -282.804558 57.07329 C -282.806177 55.732053 -281.718208 54.645215 -280.378902 54.64584 C -279.039596 54.646465 -277.955002 55.732502 -277.955627 57.071809 Z M -277.955627 57.071809 " transform="matrix(-0.86087,-1,1,-0.86087,0,0)"/>
<path style="fill-rule:evenodd;fill:rgb(100%,0%,0%);fill-opacity:1;stroke-width:0.606287;stroke-linecap:butt;stroke-linejoin:miter;stroke:rgb(100%,0%,0%);stroke-opacity:1;stroke-miterlimit:4;" d="M 258.326473 -57.071521 L 260.750198 -59.496727 L 252.264108 -57.071678 L 260.749748 -54.645552 Z M 258.326473 -57.071521 " transform="matrix(0.86087,1,-1,0.86087,0,0)"/>
<path style="fill:none;stroke-width:1.6;stroke-linecap:round;stroke-linejoin:round;stroke:rgb(0%,0%,0%);stroke-opacity:1;stroke-miterlimit:4;" d="M 197.601562 0.800781 L 216.800781 0.800781 C 219.460938 0.800781 221.601562 2.941406 221.601562 5.601562 L 221.601562 24.800781 C 221.601562 27.460938 219.460938 29.601562 216.800781 29.601562 L 197.601562 29.601562 C 194.941406 29.601562 192.800781 27.460938 192.800781 24.800781 L 192.800781 5.601562 C 192.800781 2.941406 194.941406 0.800781 197.601562 0.800781 Z M 197.601562 0.800781 "/>
<path style=" stroke:none;fill-rule:nonzero;fill:rgb(0%,0%,0%);fill-opacity:1;" d="M 207.199219 14.652344 L 203.230469 10.683594 C 202.980469 10.433594 202.949219 10.402344 202.792969 10.402344 C 202.574219 10.402344 202.386719 10.558594 202.386719 10.808594 C 202.386719 10.933594 202.417969 10.964844 202.636719 11.183594 L 206.636719 15.183594 L 202.636719 19.214844 C 202.417969 19.433594 202.386719 19.464844 202.386719 19.589844 C 202.386719 19.839844 202.574219 19.996094 202.792969 19.996094 C 202.949219 19.996094 202.980469 19.964844 203.230469 19.714844 L 207.199219 15.746094 L 211.324219 19.871094 C 211.355469 19.902344 211.480469 19.996094 211.605469 19.996094 C 211.855469 19.996094 212.011719 19.839844 212.011719 19.589844 C 212.011719 19.558594 212.011719 19.496094 211.949219 19.371094 C 211.917969 19.339844 208.761719 16.214844 207.761719 15.183594 L 211.417969 11.558594 C 211.511719 11.433594 211.824219 11.183594 211.917969 11.058594 C 211.917969 11.027344 212.011719 10.933594 212.011719 10.808594 C 212.011719 10.558594 211.855469 10.402344 211.605469 10.402344 C 211.449219 10.402344 211.386719 10.464844 211.167969 10.683594 Z M 207.199219 14.652344 "/>
<path style="fill-rule:nonzero;fill:rgb(79.998779%,79.998779%,79.998779%);fill-opacity:1;stroke-width:1.6;stroke-linecap:round;stroke-linejoin:round;stroke:rgb(79.998779%,79.998779%,79.998779%);stroke-opacity:1;stroke-miterlimit:4;" d="M 34.589844 116 L 72.992188 116 C 75.652344 116 77.792969 118.140625 77.792969 120.800781 L 77.792969 140 C 77.792969 142.660156 75.652344 144.800781 72.992188 144.800781 L 34.589844 144.800781 C 31.933594 144.800781 29.792969 142.660156 29.792969 140 L 29.792969 120.800781 C 29.792969 118.140625 31.933594 116 34.589844 116 Z M 34.589844 116 "/>
<path style=" stroke:none;fill-rule:nonzero;fill:rgb(79.998779%,79.998779%,79.998779%);fill-opacity:1;" d="M 38.683594 128.351562 C 40.308594 127.820312 41.464844 126.445312 41.464844 124.851562 C 41.464844 123.226562 39.714844 122.101562 37.808594 122.101562 C 35.808594 122.101562 34.277344 123.289062 34.277344 124.820312 C 34.277344 125.476562 34.714844 125.851562 35.308594 125.851562 C 35.902344 125.851562 36.308594 125.414062 36.308594 124.820312 C 36.308594 123.851562 35.371094 123.851562 35.089844 123.851562 C 35.683594 122.851562 36.996094 122.601562 37.714844 122.601562 C 38.558594 122.601562 39.652344 123.039062 39.652344 124.820312 C 39.652344 125.070312 39.589844 126.226562 39.089844 127.101562 C 38.496094 128.070312 37.808594 128.132812 37.308594 128.132812 C 37.152344 128.164062 36.683594 128.195312 36.527344 128.195312 C 36.371094 128.226562 36.246094 128.257812 36.246094 128.445312 C 36.246094 128.664062 36.371094 128.664062 36.714844 128.664062 L 37.589844 128.664062 C 39.214844 128.664062 39.964844 130.007812 39.964844 131.976562 C 39.964844 134.695312 38.589844 135.257812 37.714844 135.257812 C 36.839844 135.257812 35.339844 134.914062 34.652344 133.757812 C 35.339844 133.851562 35.964844 133.414062 35.964844 132.664062 C 35.964844 131.945312 35.433594 131.539062 34.871094 131.539062 C 34.371094 131.539062 33.746094 131.820312 33.746094 132.695312 C 33.746094 134.507812 35.589844 135.820312 37.777344 135.820312 C 40.214844 135.820312 42.027344 134.007812 42.027344 131.976562 C 42.027344 130.351562 40.746094 128.789062 38.683594 128.351562 Z M 38.683594 128.351562 "/>
<path style=" stroke:none;fill-rule:nonzero;fill:rgb(79.998779%,79.998779%,79.998779%);fill-opacity:1;" d="M 48.144531 127.945312 L 50.394531 127.945312 C 49.738281 130.882812 49.550781 131.757812 49.550781 133.101562 C 49.550781 133.382812 49.550781 133.914062 49.707031 134.601562 C 49.925781 135.476562 50.144531 135.601562 50.425781 135.601562 C 50.832031 135.601562 51.269531 135.257812 51.269531 134.851562 C 51.269531 134.726562 51.269531 134.695312 51.144531 134.414062 C 50.550781 132.976562 50.550781 131.664062 50.550781 131.101562 C 50.550781 130.070312 50.707031 128.976562 50.925781 127.945312 L 53.175781 127.945312 C 53.457031 127.945312 54.175781 127.945312 54.175781 127.257812 C 54.175781 126.789062 53.738281 126.789062 53.363281 126.789062 L 46.675781 126.789062 C 46.238281 126.789062 45.488281 126.789062 44.613281 127.726562 C 43.925781 128.507812 43.394531 129.414062 43.394531 129.507812 C 43.394531 129.539062 43.394531 129.726562 43.644531 129.726562 C 43.800781 129.726562 43.832031 129.632812 43.957031 129.476562 C 44.925781 127.945312 46.082031 127.945312 46.488281 127.945312 L 47.613281 127.945312 C 46.988281 130.351562 45.925781 132.757812 45.082031 134.570312 C 44.925781 134.882812 44.925781 134.914062 44.925781 135.070312 C 44.925781 135.445312 45.238281 135.601562 45.488281 135.601562 C 46.082031 135.601562 46.238281 135.039062 46.488281 134.320312 C 46.769531 133.382812 46.769531 133.351562 47.019531 132.351562 Z M 48.144531 127.945312 "/>
<path style=" stroke:none;fill-rule:nonzero;fill:rgb(79.998779%,79.998779%,79.998779%);fill-opacity:1;" d="M 63.6875 121.195312 C 63.78125 120.914062 63.78125 120.851562 63.78125 120.820312 C 63.78125 120.601562 63.625 120.414062 63.40625 120.414062 C 63.25 120.414062 63.125 120.476562 63.0625 120.601562 L 56.125 139.601562 C 56.03125 139.882812 56.03125 139.945312 56.03125 139.976562 C 56.03125 140.195312 56.21875 140.382812 56.4375 140.382812 C 56.6875 140.382812 56.75 140.226562 56.875 139.882812 Z M 63.6875 121.195312 "/>
<path style=" stroke:none;fill-rule:nonzero;fill:rgb(79.998779%,79.998779%,79.998779%);fill-opacity:1;" d="M 67.429688 133.851562 L 69.554688 131.789062 C 72.648438 129.039062 73.835938 127.976562 73.835938 125.976562 C 73.835938 123.695312 72.054688 122.101562 69.617188 122.101562 C 67.367188 122.101562 65.898438 123.945312 65.898438 125.726562 C 65.898438 126.820312 66.898438 126.820312 66.960938 126.820312 C 67.304688 126.820312 67.992188 126.601562 67.992188 125.757812 C 67.992188 125.257812 67.617188 124.726562 66.929688 124.726562 C 66.773438 124.726562 66.742188 124.726562 66.679688 124.757812 C 67.117188 123.445312 68.210938 122.726562 69.367188 122.726562 C 71.179688 122.726562 72.023438 124.351562 72.023438 125.976562 C 72.023438 127.570312 71.054688 129.132812 69.929688 130.382812 L 66.117188 134.632812 C 65.898438 134.851562 65.898438 134.914062 65.898438 135.382812 L 73.304688 135.382812 L 73.835938 131.914062 L 73.367188 131.914062 C 73.242188 132.507812 73.117188 133.382812 72.898438 133.695312 C 72.773438 133.851562 71.460938 133.851562 71.023438 133.851562 Z M 67.429688 133.851562 "/>
<path style="fill-rule:nonzero;fill:rgb(79.998779%,79.998779%,79.998779%);fill-opacity:1;stroke-width:1.6;stroke-linecap:round;stroke-linejoin:round;stroke:rgb(79.998779%,79.998779%,79.998779%);stroke-opacity:1;stroke-miterlimit:4;" d="M 5.601562 173.601562 L 44 173.601562 C 46.660156 173.601562 48.800781 175.742188 48.800781 178.398438 L 48.800781 197.601562 C 48.800781 200.257812 46.660156 202.398438 44 202.398438 L 5.601562 202.398438 C 2.941406 202.398438 0.800781 200.257812 0.800781 197.601562 L 0.800781 178.398438 C 0.800781 175.742188 2.941406 173.601562 5.601562 173.601562 Z M 5.601562 173.601562 "/>
<path style=" stroke:none;fill-rule:nonzero;fill:rgb(79.998779%,79.998779%,79.998779%);fill-opacity:1;" d="M 14.328125 185.546875 L 16.578125 185.546875 C 15.921875 188.484375 15.734375 189.359375 15.734375 190.703125 C 15.734375 190.984375 15.734375 191.515625 15.890625 192.203125 C 16.109375 193.078125 16.328125 193.203125 16.609375 193.203125 C 17.015625 193.203125 17.453125 192.859375 17.453125 192.453125 C 17.453125 192.328125 17.453125 192.296875 17.328125 192.015625 C 16.734375 190.578125 16.734375 189.265625 16.734375 188.703125 C 16.734375 187.671875 16.890625 186.578125 17.109375 185.546875 L 19.359375 185.546875 C 19.640625 185.546875 20.359375 185.546875 20.359375 184.859375 C 20.359375 184.390625 19.921875 184.390625 19.546875 184.390625 L 12.859375 184.390625 C 12.421875 184.390625 11.671875 184.390625 10.796875 185.328125 C 10.109375 186.109375 9.578125 187.015625 9.578125 187.109375 C 9.578125 187.140625 9.578125 187.328125 9.828125 187.328125 C 9.984375 187.328125 10.015625 187.234375 10.140625 187.078125 C 11.109375 185.546875 12.265625 185.546875 12.671875 185.546875 L 13.796875 185.546875 C 13.171875 187.953125 12.109375 190.359375 11.265625 192.171875 C 11.109375 192.484375 11.109375 192.515625 11.109375 192.671875 C 11.109375 193.046875 11.421875 193.203125 11.671875 193.203125 C 12.265625 193.203125 12.421875 192.640625 12.671875 191.921875 C 12.953125 190.984375 12.953125 190.953125 13.203125 189.953125 Z M 14.328125 185.546875 "/>
<path style=" stroke:none;fill-rule:nonzero;fill:rgb(79.998779%,79.998779%,79.998779%);fill-opacity:1;" d="M 29.871094 178.796875 C 29.964844 178.515625 29.964844 178.453125 29.964844 178.421875 C 29.964844 178.203125 29.808594 178.015625 29.589844 178.015625 C 29.433594 178.015625 29.308594 178.078125 29.246094 178.203125 L 22.308594 197.203125 C 22.214844 197.484375 22.214844 197.546875 22.214844 197.578125 C 22.214844 197.796875 22.402344 197.984375 22.621094 197.984375 C 22.871094 197.984375 22.933594 197.828125 23.058594 197.484375 Z M 29.871094 178.796875 "/>
<path style=" stroke:none;fill-rule:nonzero;fill:rgb(79.998779%,79.998779%,79.998779%);fill-opacity:1;" d="M 33.613281 191.453125 L 35.738281 189.390625 C 38.832031 186.640625 40.019531 185.578125 40.019531 183.578125 C 40.019531 181.296875 38.238281 179.703125 35.800781 179.703125 C 33.550781 179.703125 32.082031 181.546875 32.082031 183.328125 C 32.082031 184.421875 33.082031 184.421875 33.144531 184.421875 C 33.488281 184.421875 34.175781 184.203125 34.175781 183.359375 C 34.175781 182.859375 33.800781 182.328125 33.113281 182.328125 C 32.957031 182.328125 32.925781 182.328125 32.863281 182.359375 C 33.300781 181.046875 34.394531 180.328125 35.550781 180.328125 C 37.363281 180.328125 38.207031 181.953125 38.207031 183.578125 C 38.207031 185.171875 37.238281 186.734375 36.113281 187.984375 L 32.300781 192.234375 C 32.082031 192.453125 32.082031 192.515625 32.082031 192.984375 L 39.488281 192.984375 L 40.019531 189.515625 L 39.550781 189.515625 C 39.425781 190.109375 39.300781 190.984375 39.082031 191.296875 C 38.957031 191.453125 37.644531 191.453125 37.207031 191.453125 Z M 33.613281 191.453125 "/>
<path style="fill-rule:nonzero;fill:rgb(79.998779%,79.998779%,79.998779%);fill-opacity:1;stroke-width:1.6;stroke-linecap:round;stroke-linejoin:round;stroke:rgb(79.998779%,79.998779%,79.998779%);stroke-opacity:1;stroke-miterlimit:4;" d="M 72.800781 173.601562 L 92 173.601562 C 94.660156 173.601562 96.800781 175.742188 96.800781 178.398438 L 96.800781 197.601562 C 96.800781 200.257812 94.660156 202.398438 92 202.398438 L 72.800781 202.398438 C 70.140625 202.398438 68 200.257812 68 197.601562 L 68 178.398438 C 68 175.742188 70.140625 173.601562 72.800781 173.601562 Z M 72.800781 173.601562 "/>
<path style=" stroke:none;fill-rule:nonzero;fill:rgb(79.998779%,79.998779%,79.998779%);fill-opacity:1;" d="M 81.757812 184.75 L 84.007812 184.75 C 83.351562 187.6875 83.164062 188.5625 83.164062 189.90625 C 83.164062 190.1875 83.164062 190.71875 83.320312 191.40625 C 83.539062 192.28125 83.757812 192.40625 84.039062 192.40625 C 84.445312 192.40625 84.882812 192.0625 84.882812 191.65625 C 84.882812 191.53125 84.882812 191.5 84.757812 191.21875 C 84.164062 189.78125 84.164062 188.46875 84.164062 187.90625 C 84.164062 186.875 84.320312 185.78125 84.539062 184.75 L 86.789062 184.75 C 87.070312 184.75 87.789062 184.75 87.789062 184.0625 C 87.789062 183.59375 87.351562 183.59375 86.976562 183.59375 L 80.289062 183.59375 C 79.851562 183.59375 79.101562 183.59375 78.226562 184.53125 C 77.539062 185.3125 77.007812 186.21875 77.007812 186.3125 C 77.007812 186.34375 77.007812 186.53125 77.257812 186.53125 C 77.414062 186.53125 77.445312 186.4375 77.570312 186.28125 C 78.539062 184.75 79.695312 184.75 80.101562 184.75 L 81.226562 184.75 C 80.601562 187.15625 79.539062 189.5625 78.695312 191.375 C 78.539062 191.6875 78.539062 191.71875 78.539062 191.875 C 78.539062 192.25 78.851562 192.40625 79.101562 192.40625 C 79.695312 192.40625 79.851562 191.84375 80.101562 191.125 C 80.382812 190.1875 80.382812 190.15625 80.632812 189.15625 Z M 81.757812 184.75 "/>
<path style="fill:none;stroke-width:0.8;stroke-linecap:butt;stroke-linejoin:miter;stroke:rgb(100%,0%,0%);stroke-opacity:1;stroke-miterlimit:4;" d="M 24.800781 173.601562 L 48.960938 145.53125 "/>
<path style="fill-rule:evenodd;fill:rgb(100%,0%,0%);fill-opacity:1;stroke-width:0.606287;stroke-linecap:butt;stroke-linejoin:miter;stroke:rgb(100%,0%,0%);stroke-opacity:1;stroke-miterlimit:4;" d="M -85.067231 100.079484 C -85.068538 101.416546 -86.155375 102.504515 -87.494681 102.50514 C -88.831744 102.503833 -89.919713 101.416996 -89.918406 100.079934 C -89.919031 98.740627 -88.832194 97.652658 -87.495131 97.653965 C -86.155825 97.65334 -85.067856 98.740178 -85.067231 100.079484 Z M -85.067231 100.079484 " transform="matrix(0.86087,-1,1,0.86087,0,0)"/>
<path style="fill-rule:evenodd;fill:rgb(100%,0%,0%);fill-opacity:1;stroke-width:0.606287;stroke-linecap:butt;stroke-linejoin:miter;stroke:rgb(100%,0%,0%);stroke-opacity:1;stroke-miterlimit:4;" d="M 65.440009 -100.077528 L 67.865527 -102.505428 L 59.377644 -100.07737 L 67.865977 -97.654253 Z M 65.440009 -100.077528 " transform="matrix(-0.86087,1,-1,-0.86087,0,0)"/>
<path style="fill:none;stroke-width:0.8;stroke-linecap:butt;stroke-linejoin:miter;stroke:rgb(100%,0%,0%);stroke-opacity:1;stroke-miterlimit:4;" d="M 82.398438 173.601562 L 58.238281 145.53125 "/>
<path style="fill-rule:evenodd;fill:rgb(100%,0%,0%);fill-opacity:1;stroke-width:0.606287;stroke-linecap:butt;stroke-linejoin:miter;stroke:rgb(100%,0%,0%);stroke-opacity:1;stroke-miterlimit:4;" d="M -138.072863 -38.507317 C -138.071556 -37.170254 -139.159525 -36.083417 -140.498831 -36.084041 C -141.835894 -36.082735 -142.922731 -37.170704 -142.924038 -38.507766 C -142.923413 -39.847072 -141.835444 -40.93391 -140.498381 -40.935217 C -139.159075 -40.934592 -138.072238 -39.846623 -138.072863 -38.507317 Z M -138.072863 -38.507317 " transform="matrix(-0.86087,-1,1,-0.86087,0,0)"/>
<path style="fill-rule:evenodd;fill:rgb(100%,0%,0%);fill-opacity:1;stroke-width:0.606287;stroke-linecap:butt;stroke-linejoin:miter;stroke:rgb(100%,0%,0%);stroke-opacity:1;stroke-miterlimit:4;" d="M 118.443709 38.507604 L 120.869677 36.084329 L 112.381344 38.507447 L 120.869227 40.935504 Z M 118.443709 38.507604 " transform="matrix(0.86087,1,-1,0.86087,0,0)"/>
<path style="fill:none;stroke-width:0.8;stroke-linecap:butt;stroke-linejoin:miter;stroke:rgb(100%,0%,0%);stroke-opacity:1;stroke-miterlimit:4;" d="M 53.601562 116 L 106.398438 87.199219 "/>
<path style="fill-rule:evenodd;fill:rgb(100%,0%,0%);fill-opacity:1;stroke-width:0.702316;stroke-linecap:butt;stroke-linejoin:miter;stroke:rgb(100%,0%,0%);stroke-opacity:1;stroke-miterlimit:4;" d="M -4.703611 111.934392 C -4.702243 113.485919 -5.962569 114.743781 -7.512454 114.742138 C -9.060971 114.745148 -10.318833 113.484822 -10.3202 111.933295 C -10.318558 110.38341 -9.061243 109.123906 -7.511357 109.125549 C -5.95983 109.124181 -4.701969 110.384507 -4.703611 111.934392 Z M -4.703611 111.934392 " transform="matrix(1,-0.545455,0.545455,1,0,0)"/>
<path style="fill-rule:evenodd;fill:rgb(100%,0%,0%);fill-opacity:1;stroke-width:0.702316;stroke-linecap:butt;stroke-linejoin:miter;stroke:rgb(100%,0%,0%);stroke-opacity:1;stroke-miterlimit:4;" d="M -38.320415 -111.933312 L -35.514583 -114.742701 L -45.344299 -111.932494 L -35.512669 -109.124469 Z M -38.320415 -111.933312 " transform="matrix(-1,0.545455,-0.545455,-1,0,0)"/>
<path style="fill:none;stroke-width:0.8;stroke-linecap:butt;stroke-linejoin:miter;stroke:rgb(100%,0%,0%);stroke-opacity:1;stroke-miterlimit:4;" d="M 168.800781 116 L 116 87.199219 "/>
<path style="fill-rule:evenodd;fill:rgb(100%,0%,0%);fill-opacity:1;stroke-width:0.702316;stroke-linecap:butt;stroke-linejoin:miter;stroke:rgb(100%,0%,0%);stroke-opacity:1;stroke-miterlimit:4;" d="M -176.106163 -18.442013 C -176.107531 -16.890485 -177.362382 -15.631802 -178.913909 -15.63317 C -180.463795 -15.631527 -181.72412 -16.889389 -181.722752 -18.440916 C -181.724395 -19.990801 -180.466533 -21.251127 -178.915006 -21.249759 C -177.365121 -21.251402 -176.104795 -19.99354 -176.106163 -18.442013 Z M -176.106163 -18.442013 " transform="matrix(-1,-0.545455,0.545455,-1,0,0)"/>
<path style="fill-rule:evenodd;fill:rgb(100%,0%,0%);fill-opacity:1;stroke-width:0.702316;stroke-linecap:butt;stroke-linejoin:miter;stroke:rgb(100%,0%,0%);stroke-opacity:1;stroke-miterlimit:4;" d="M 133.082137 18.440933 L 135.889883 15.63209 L 126.058253 18.440115 L 135.89098 21.248679 Z M 133.082137 18.440933 " transform="matrix(1,0.545455,-0.545455,1,0,0)"/>
<path style=" stroke:none;fill-rule:nonzero;fill:rgb(79.998779%,79.998779%,79.998779%);fill-opacity:1;" d="M 317.601562 173.984375 L 336.800781 173.984375 C 339.460938 173.984375 341.601562 176.125 341.601562 178.785156 L 341.601562 197.984375 C 341.601562 200.644531 339.460938 202.785156 336.800781 202.785156 L 317.601562 202.785156 C 314.941406 202.785156 312.800781 200.644531 312.800781 197.984375 L 312.800781 178.785156 C 312.800781 176.125 314.941406 173.984375 317.601562 173.984375 Z M 317.601562 173.984375 "/>
<g clip-path="url(#clip3)" clip-rule="nonzero">
<path style="fill:none;stroke-width:1.6;stroke-linecap:round;stroke-linejoin:round;stroke:rgb(79.998779%,79.998779%,79.998779%);stroke-opacity:1;stroke-miterlimit:4;" d="M 317.601562 173.984375 L 336.800781 173.984375 C 339.460938 173.984375 341.601562 176.125 341.601562 178.785156 L 341.601562 197.984375 C 341.601562 200.644531 339.460938 202.785156 336.800781 202.785156 L 317.601562 202.785156 C 314.941406 202.785156 312.800781 200.644531 312.800781 197.984375 L 312.800781 178.785156 C 312.800781 176.125 314.941406 173.984375 317.601562 173.984375 Z M 317.601562 173.984375 "/>
</g>
<path style=" stroke:none;fill-rule:nonzero;fill:rgb(79.998779%,79.998779%,79.998779%);fill-opacity:1;" d="M 324.761719 193.492188 L 326.886719 191.429688 C 329.980469 188.679688 331.167969 187.617188 331.167969 185.617188 C 331.167969 183.335938 329.386719 181.742188 326.949219 181.742188 C 324.699219 181.742188 323.230469 183.585938 323.230469 185.367188 C 323.230469 186.460938 324.230469 186.460938 324.292969 186.460938 C 324.636719 186.460938 325.324219 186.242188 325.324219 185.398438 C 325.324219 184.898438 324.949219 184.367188 324.261719 184.367188 C 324.105469 184.367188 324.074219 184.367188 324.011719 184.398438 C 324.449219 183.085938 325.542969 182.367188 326.699219 182.367188 C 328.511719 182.367188 329.355469 183.992188 329.355469 185.617188 C 329.355469 187.210938 328.386719 188.773438 327.261719 190.023438 L 323.449219 194.273438 C 323.230469 194.492188 323.230469 194.554688 323.230469 195.023438 L 330.636719 195.023438 L 331.167969 191.554688 L 330.699219 191.554688 C 330.574219 192.148438 330.449219 193.023438 330.230469 193.335938 C 330.105469 193.492188 328.792969 193.492188 328.355469 193.492188 Z M 324.761719 193.492188 "/>
<path style="fill:none;stroke-width:0.8;stroke-linecap:butt;stroke-linejoin:miter;stroke:rgb(100%,0%,0%);stroke-opacity:1;stroke-miterlimit:4;" d="M 327.199219 173.984375 L 303.039062 145.914062 "/>
<path style="fill-rule:evenodd;fill:rgb(100%,0%,0%);fill-opacity:1;stroke-width:0.606287;stroke-linecap:butt;stroke-linejoin:miter;stroke:rgb(100%,0%,0%);stroke-opacity:1;stroke-miterlimit:4;" d="M -259.330368 101.90261 C -259.330993 103.241916 -260.418962 104.328753 -261.758268 104.328128 C -263.095331 104.329435 -264.182168 103.241466 -264.181543 101.90216 C -264.18285 100.565097 -263.094881 99.47826 -261.757818 99.476953 C -260.418512 99.477578 -259.331675 100.565547 -259.330368 101.90261 Z M -259.330368 101.90261 " transform="matrix(-0.86087,-1,1,-0.86087,0,0)"/>
<path style="fill-rule:evenodd;fill:rgb(100%,0%,0%);fill-opacity:1;stroke-width:0.606287;stroke-linecap:butt;stroke-linejoin:miter;stroke:rgb(100%,0%,0%);stroke-opacity:1;stroke-miterlimit:4;" d="M 239.703146 -101.904565 L 242.129114 -104.327841 L 233.640781 -101.904723 L 242.128664 -99.476665 Z M 239.703146 -101.904565 " transform="matrix(0.86087,1,-1,0.86087,0,0)"/>
<path style="fill:none;stroke-width:0.8;stroke-linecap:butt;stroke-linejoin:miter;stroke:rgb(100%,0%,0%);stroke-opacity:1;stroke-miterlimit:4;" d="M 269.601562 173.984375 L 293.761719 145.914062 "/>
<path style="fill-rule:evenodd;fill:rgb(100%,0%,0%);fill-opacity:1;stroke-width:0.606287;stroke-linecap:butt;stroke-linejoin:miter;stroke:rgb(100%,0%,0%);stroke-opacity:1;stroke-miterlimit:4;" d="M 35.750537 240.867966 C 35.751162 242.207272 34.664325 243.295242 33.325019 243.295866 C 31.987956 243.294559 30.899987 242.207722 30.899362 240.868416 C 30.900669 239.531354 31.987506 238.443384 33.324569 238.444691 C 34.663875 238.444066 35.751844 239.530904 35.750537 240.867966 Z M 35.750537 240.867966 " transform="matrix(0.86087,-1,1,0.86087,0,0)"/>
<path style="fill-rule:evenodd;fill:rgb(100%,0%,0%);fill-opacity:1;stroke-width:0.606287;stroke-linecap:butt;stroke-linejoin:miter;stroke:rgb(100%,0%,0%);stroke-opacity:1;stroke-miterlimit:4;" d="M -55.379691 -240.868254 L -52.954173 -243.296154 L -61.442056 -240.868096 L -52.953723 -238.444979 Z M -55.379691 -240.868254 " transform="matrix(-0.86087,1,-1,-0.86087,0,0)"/>
<path style="fill:none;stroke-width:0.8;stroke-linecap:butt;stroke-linejoin:miter;stroke:rgb(100%,0%,0%);stroke-opacity:1;stroke-miterlimit:4;" d="M 298.398438 116.382812 L 298.398438 87.582031 "/>
<path style="fill-rule:evenodd;fill:rgb(100%,0%,0%);fill-opacity:1;stroke-width:0.8;stroke-linecap:butt;stroke-linejoin:miter;stroke:rgb(100%,0%,0%);stroke-opacity:1;stroke-miterlimit:4;" d="M -113.246094 298.398438 C -113.246094 300.167969 -114.679688 301.601562 -116.449219 301.601562 C -118.214844 301.601562 -119.648438 300.167969 -119.648438 298.398438 C -119.648438 296.632812 -118.214844 295.199219 -116.449219 295.199219 C -114.679688 295.199219 -113.246094 296.632812 -113.246094 298.398438 Z M -113.246094 298.398438 " transform="matrix(0,-1,1,0,0,0)"/>
<path style="fill-rule:evenodd;fill:rgb(100%,0%,0%);fill-opacity:1;stroke-width:0.8;stroke-linecap:butt;stroke-linejoin:miter;stroke:rgb(100%,0%,0%);stroke-opacity:1;stroke-miterlimit:4;" d="M 95.582031 -298.398438 L 98.785156 -301.601562 L 87.582031 -298.398438 L 98.785156 -295.199219 Z M 95.582031 -298.398438 " transform="matrix(0,1,-1,0,0,0)"/>
<path style="fill:none;stroke-width:0.8;stroke-linecap:butt;stroke-linejoin:miter;stroke:rgb(100%,0%,0%);stroke-opacity:1;stroke-miterlimit:4;" d="M 111.199219 58.398438 L 202.398438 29.601562 "/>
<path style="fill-rule:evenodd;fill:rgb(100%,0%,0%);fill-opacity:1;stroke-width:0.762866;stroke-linecap:butt;stroke-linejoin:miter;stroke:rgb(100%,0%,0%);stroke-opacity:1;stroke-miterlimit:4;" d="M 87.33757 85.037275 C 87.337197 86.720751 85.968731 88.08548 84.284133 88.088658 C 82.600657 88.088285 81.235929 86.719819 81.23275 85.035221 C 81.233123 83.351745 82.602711 81.983465 84.286187 81.983838 C 85.969663 81.984211 87.339065 83.350247 87.33757 85.037275 Z M 87.33757 85.037275 " transform="matrix(1,-0.315789,0.315789,1,0,0)"/>
<path style="fill-rule:evenodd;fill:rgb(100%,0%,0%);fill-opacity:1;stroke-width:0.762866;stroke-linecap:butt;stroke-linejoin:miter;stroke:rgb(100%,0%,0%);stroke-opacity:1;stroke-miterlimit:4;" d="M -167.91671 -85.034062 L -164.866825 -88.086567 L -175.544791 -85.036676 L -164.867757 -81.985299 Z M -167.91671 -85.034062 " transform="matrix(-1,0.315789,-0.315789,-1,0,0)"/>
<path style="fill:none;stroke-width:0.8;stroke-linecap:butt;stroke-linejoin:miter;stroke:rgb(100%,0%,0%);stroke-opacity:1;stroke-miterlimit:4;" d="M 298.398438 58.398438 L 212 29.601562 "/>
<path style="fill-rule:evenodd;fill:rgb(100%,0%,0%);fill-opacity:1;stroke-width:0.758947;stroke-linecap:butt;stroke-linejoin:miter;stroke:rgb(100%,0%,0%);stroke-opacity:1;stroke-miterlimit:4;" d="M -283.106289 36.958513 C -283.10629 38.634294 -284.464494 39.997184 -286.140275 39.997184 C -287.816056 39.997183 -289.176603 38.634292 -289.176603 36.958511 C -289.176602 35.282729 -287.817226 33.923355 -286.141445 33.923355 C -284.465664 33.923356 -283.106289 35.282731 -283.106289 36.958513 Z M -283.106289 36.958513 " transform="matrix(-1,-0.333333,0.333333,-1,0,0)"/>
<path style="fill-rule:evenodd;fill:rgb(100%,0%,0%);fill-opacity:1;stroke-width:0.758947;stroke-linecap:butt;stroke-linejoin:miter;stroke:rgb(100%,0%,0%);stroke-opacity:1;stroke-miterlimit:4;" d="M 207.269563 -36.960879 L 210.304721 -39.996035 L 199.6805 -36.958538 L 210.304719 -33.925722 Z M 207.269563 -36.960879 " transform="matrix(1,0.333333,-0.333333,1,0,0)"/>
</g>
</svg>
