<?xml version="1.0" encoding="UTF-8"?>
<svg xmlns="http://www.w3.org/2000/svg" xmlns:xlink="http://www.w3.org/1999/xlink" width="880.833618pt" height="411.445007pt" viewBox="0 0 880.833618 411.445007" version="1.1">
<defs>
<filter id="alpha" filterUnits="objectBoundingBox" x="0%" y="0%" width="100%" height="100%">
  <feColorMatrix type="matrix" in="SourceGraphic" values="0 0 0 0 1 0 0 0 0 1 0 0 0 0 1 0 0 0 1 0"/>
</filter>
<clipPath id="clip1">
  <rect width="13" height="31"/>
</clipPath>
<g id="surface8" clip-path="url(#clip1)">
<rect x="0" y="0" width="13" height="31" style="fill:rgb(0%,0%,0%);fill-opacity:0.97;stroke:none;"/>
</g>
<mask id="mask0">
  <g filter="url(#alpha)">
<use xlink:href="#surface8"/>
  </g>
</mask>
<clipPath id="clip2">
  <rect width="13" height="31"/>
</clipPath>
<g id="surface10" clip-path="url(#clip2)">
<path style="fill:none;stroke-width:1.6;stroke-linecap:round;stroke-linejoin:round;stroke:rgb(100%,0%,0%);stroke-opacity:1;stroke-miterlimit:4;" d="M 77.933594 333.507812 C 82.75 341.214844 85.671875 349.957031 86.464844 359.011719 " transform="matrix(1,0,0,1,-76,-331)"/>
<path style="fill-rule:evenodd;fill:rgb(100%,0%,0%);fill-opacity:1;stroke-width:0.339219;stroke-linecap:butt;stroke-linejoin:miter;stroke:rgb(100%,0%,0%);stroke-opacity:1;stroke-miterlimit:4;" d="M 276.505105 93.830249 L 277.860394 92.474003 L 273.110593 93.830218 L 277.861351 95.185539 Z M 276.505105 93.830249 " transform="matrix(0.624869,1,-1,0.624869,-76,-331)"/>
<path style="fill-rule:evenodd;fill:rgb(100%,0%,0%);fill-opacity:1;stroke-width:0.398478;stroke-linecap:butt;stroke-linejoin:miter;stroke:rgb(100%,0%,0%);stroke-opacity:1;stroke-miterlimit:4;" d="M -361.877747 54.636661 L -360.285413 53.045504 L -365.862041 54.635737 L -360.283052 56.23321 Z M -361.877747 54.636661 " transform="matrix(-0.0874887,-1,1,-0.0874887,-76,-331)"/>
</g>
<clipPath id="clip3">
  <path d="M 0 57 L 336 57 L 336 411.445312 L 0 411.445312 Z M 0 57 "/>
</clipPath>
<clipPath id="clip4">
  <rect width="12" height="31"/>
</clipPath>
<g id="surface14" clip-path="url(#clip4)">
<rect x="0" y="0" width="12" height="31" style="fill:rgb(0%,0%,0%);fill-opacity:0.97;stroke:none;"/>
</g>
<mask id="mask1">
  <g filter="url(#alpha)">
<use xlink:href="#surface14"/>
  </g>
</mask>
<clipPath id="clip5">
  <rect width="12" height="31"/>
</clipPath>
<g id="surface16" clip-path="url(#clip5)">
<path style="fill:none;stroke-width:1.6;stroke-linecap:round;stroke-linejoin:round;stroke:rgb(100%,0%,0%);stroke-opacity:1;stroke-miterlimit:4;" d="M 537.828125 277.4375 C 542.644531 285.148438 545.570312 293.886719 546.359375 302.941406 " transform="matrix(1,0,0,1,-536,-275)"/>
<path style="fill-rule:evenodd;fill:rgb(100%,0%,0%);fill-opacity:1;stroke-width:0.339219;stroke-linecap:butt;stroke-linejoin:miter;stroke:rgb(100%,0%,0%);stroke-opacity:1;stroke-miterlimit:4;" d="M 442.855314 -262.117193 L 444.212359 -263.476249 L 439.465367 -262.118278 L 444.211561 -260.761904 Z M 442.855314 -262.117193 " transform="matrix(0.624869,1,-1,0.624869,-536,-275)"/>
<path style="fill-rule:evenodd;fill:rgb(100%,0%,0%);fill-opacity:1;stroke-width:0.398478;stroke-linecap:butt;stroke-linejoin:miter;stroke:rgb(100%,0%,0%);stroke-opacity:1;stroke-miterlimit:4;" d="M -346.163631 515.909906 L -344.570958 514.314872 L -350.147925 515.908982 L -344.572473 517.50224 Z M -346.163631 515.909906 " transform="matrix(-0.0874887,-1,1,-0.0874887,-536,-275)"/>
</g>
<clipPath id="clip6">
  <rect width="13" height="32"/>
</clipPath>
<g id="surface20" clip-path="url(#clip6)">
<rect x="0" y="0" width="13" height="32" style="fill:rgb(0%,0%,0%);fill-opacity:0.97;stroke:none;"/>
</g>
<mask id="mask2">
  <g filter="url(#alpha)">
<use xlink:href="#surface20"/>
  </g>
</mask>
<clipPath id="clip7">
  <rect width="13" height="32"/>
</clipPath>
<g id="surface22" clip-path="url(#clip7)">
<path style="fill:none;stroke-width:1.6;stroke-linecap:round;stroke-linejoin:round;stroke:rgb(100%,0%,0%);stroke-opacity:1;stroke-miterlimit:4;" d="M 623.851562 363.207031 C 628.667969 370.917969 631.589844 379.65625 632.382812 388.710938 " transform="matrix(1,0,0,1,-622,-360)"/>
<path style="fill-rule:evenodd;fill:rgb(100%,0%,0%);fill-opacity:1;stroke-width:0.339219;stroke-linecap:butt;stroke-linejoin:miter;stroke:rgb(100%,0%,0%);stroke-opacity:1;stroke-miterlimit:4;" d="M 543.19821 -285.439465 L 544.555255 -286.798521 L 539.808264 -285.44055 L 544.557267 -284.08242 Z M 543.19821 -285.439465 " transform="matrix(0.624869,1,-1,0.624869,-622,-360)"/>
<path style="fill-rule:evenodd;fill:rgb(100%,0%,0%);fill-opacity:1;stroke-width:0.398478;stroke-linecap:butt;stroke-linejoin:miter;stroke:rgb(100%,0%,0%);stroke-opacity:1;stroke-miterlimit:4;" d="M -438.750216 593.829158 L -437.157883 592.238 L -442.738726 593.831771 L -437.159398 595.425368 Z M -438.750216 593.829158 " transform="matrix(-0.0874887,-1,1,-0.0874887,-622,-360)"/>
</g>
<clipPath id="clip8">
  <path d="M 868 301 L 880.832031 301 L 880.832031 309 L 868 309 Z M 868 301 "/>
</clipPath>
<clipPath id="clip9">
  <path d="M 871 290 L 880.832031 290 L 880.832031 300 L 871 300 Z M 871 290 "/>
</clipPath>
<clipPath id="clip10">
  <path d="M 871 280 L 880.832031 280 L 880.832031 291 L 871 291 Z M 871 280 "/>
</clipPath>
<clipPath id="clip11">
  <path d="M 866 267 L 880.832031 267 L 880.832031 276 L 866 276 Z M 866 267 "/>
</clipPath>
<clipPath id="clip12">
  <path d="M 715 398 L 723 398 L 723 411.445312 L 715 411.445312 Z M 715 398 "/>
</clipPath>
<clipPath id="clip13">
  <rect width="15" height="37"/>
</clipPath>
<g id="surface26" clip-path="url(#clip13)">
<rect x="0" y="0" width="15" height="37" style="fill:rgb(0%,0%,0%);fill-opacity:0.97;stroke:none;"/>
</g>
<mask id="mask3">
  <g filter="url(#alpha)">
<use xlink:href="#surface26"/>
  </g>
</mask>
<clipPath id="clip14">
  <rect width="15" height="37"/>
</clipPath>
<g id="surface28" clip-path="url(#clip14)">
<path style="fill:none;stroke-width:3.2;stroke-linecap:round;stroke-linejoin:round;stroke:rgb(0%,100%,0%);stroke-opacity:1;stroke-miterlimit:4;" d="M -824.816406 -50.335938 C -820 -42.625 -817.078125 -33.886719 -816.285156 -24.832031 " transform="matrix(-1,0,0,-1,-813,-19)"/>
<path style="fill-rule:evenodd;fill:rgb(0%,100%,0%);fill-opacity:1;stroke-width:0.678438;stroke-linecap:butt;stroke-linejoin:miter;stroke:rgb(0%,100%,0%);stroke-opacity:1;stroke-miterlimit:4;" d="M -403.613272 570.575828 L -400.899885 567.86509 L -410.399486 570.577521 L -400.899725 573.290971 Z M -403.613272 570.575828 " transform="matrix(-0.624869,-1,1,-0.624869,-813,-19)"/>
<path style="fill-rule:evenodd;fill:rgb(0%,100%,0%);fill-opacity:1;stroke-width:0.796956;stroke-linecap:butt;stroke-linejoin:miter;stroke:rgb(0%,100%,0%);stroke-opacity:1;stroke-miterlimit:4;" d="M 99.340646 -807.926004 L 102.529867 -811.115733 L 91.372058 -807.927852 L 102.530714 -804.740659 Z M 99.340646 -807.926004 " transform="matrix(0.0874887,1,-1,0.0874887,-813,-19)"/>
</g>
<clipPath id="clip15">
  <rect width="13" height="31"/>
</clipPath>
<g id="surface32" clip-path="url(#clip15)">
<rect x="0" y="0" width="13" height="31" style="fill:rgb(0%,0%,0%);fill-opacity:0.97;stroke:none;"/>
</g>
<mask id="mask4">
  <g filter="url(#alpha)">
<use xlink:href="#surface32"/>
  </g>
</mask>
<clipPath id="clip16">
  <rect width="13" height="31"/>
</clipPath>
<g id="surface29" clip-path="url(#clip16)">
<path style="fill:none;stroke-width:1.6;stroke-linecap:round;stroke-linejoin:round;stroke:rgb(100%,0%,0%);stroke-opacity:1;stroke-miterlimit:4;" d="M -824.816406 -50.335938 C -820 -42.625 -817.078125 -33.886719 -816.285156 -24.832031 " transform="matrix(-1,0,0,-1,-814,-22)"/>
<path style="fill-rule:evenodd;fill:rgb(100%,0%,0%);fill-opacity:1;stroke-width:0.339219;stroke-linecap:butt;stroke-linejoin:miter;stroke:rgb(100%,0%,0%);stroke-opacity:1;stroke-miterlimit:4;" d="M -405.242933 570.577035 L -403.883079 569.219734 L -408.63288 570.57595 L -403.883876 571.93408 Z M -405.242933 570.577035 " transform="matrix(-0.624869,-1,1,-0.624869,-814,-22)"/>
<path style="fill-rule:evenodd;fill:rgb(100%,0%,0%);fill-opacity:1;stroke-width:0.398478;stroke-linecap:butt;stroke-linejoin:miter;stroke:rgb(100%,0%,0%);stroke-opacity:1;stroke-miterlimit:4;" d="M 97.426878 -807.929374 L 99.023088 -809.520193 L 93.442245 -807.926422 L 99.021573 -806.332825 Z M 97.426878 -807.929374 " transform="matrix(0.0874887,1,-1,0.0874887,-814,-22)"/>
</g>
<clipPath id="clip17">
  <path d="M 475 6 L 880.832031 6 L 880.832031 322 L 475 322 Z M 475 6 "/>
</clipPath>
</defs>
<g id="surface1">
<path style=" stroke:none;fill-rule:nonzero;fill:rgb(0%,100%,0%);fill-opacity:1;" d="M 29.085938 364.03125 L 413.085938 76.03125 L 29.085938 76.03125 Z M 29.085938 364.03125 "/>
<path style="fill:none;stroke-width:0.8;stroke-linecap:butt;stroke-linejoin:miter;stroke:rgb(100%,0%,0%);stroke-opacity:1;stroke-miterlimit:4;" d="M 29.085938 200.832031 L 38.683594 200.832031 L 38.683594 191.230469 "/>
<path style="fill:none;stroke-width:0.8;stroke-linecap:butt;stroke-linejoin:miter;stroke:rgb(100%,0%,0%);stroke-opacity:1;stroke-miterlimit:4;" d="M 29.085938 85.632812 L 38.683594 85.632812 L 38.683594 76.03125 "/>
<path style=" stroke:none;fill-rule:nonzero;fill:rgb(0%,100%,100%);fill-opacity:1;" d="M 29.085938 364.03125 L 317.085938 148.03125 L 317.085938 364.03125 Z M 29.085938 364.03125 "/>
<path style="fill:none;stroke-width:0.8;stroke-linecap:butt;stroke-linejoin:miter;stroke:rgb(100%,0%,0%);stroke-opacity:1;stroke-miterlimit:4;" d="M 269.085938 364.03125 L 269.085938 354.429688 L 259.484375 354.429688 "/>
<path style="fill:none;stroke-width:0.8;stroke-linecap:butt;stroke-linejoin:miter;stroke:rgb(100%,0%,0%);stroke-opacity:1;stroke-miterlimit:4;" d="M 317.085938 354.429688 L 307.484375 354.429688 L 307.484375 364.03125 "/>
<use xlink:href="#surface10" transform="matrix(1,0,0,1,76,331)" mask="url(#mask0)"/>
<path style=" stroke:none;fill-rule:nonzero;fill:rgb(0%,0%,0%);fill-opacity:1;" d="M 77.382812 345.21875 C 77.382812 343.90625 77.039062 341.125 75.007812 341.125 C 72.226562 341.125 69.164062 346.75 69.164062 351.3125 C 69.164062 353.1875 69.726562 355.40625 71.539062 355.40625 C 74.351562 355.40625 77.382812 349.6875 77.382812 345.21875 Z M 71.257812 347.9375 C 71.601562 346.6875 72.007812 345.09375 72.820312 343.65625 C 73.351562 342.6875 74.070312 341.5625 74.976562 341.5625 C 75.945312 341.5625 76.070312 342.84375 76.070312 343.96875 C 76.070312 344.96875 75.914062 345.96875 75.445312 347.9375 Z M 75.257812 348.59375 C 75.039062 349.5 74.632812 351.1875 73.851562 352.625 C 73.164062 354 72.414062 354.96875 71.539062 354.96875 C 70.882812 354.96875 70.476562 354.375 70.476562 352.53125 C 70.476562 351.6875 70.601562 350.53125 71.101562 348.59375 Z M 75.257812 348.59375 "/>
<g clip-path="url(#clip3)" clip-rule="nonzero">
<path style="fill:none;stroke-width:3.2;stroke-linecap:butt;stroke-linejoin:miter;stroke:rgb(0%,0%,0%);stroke-opacity:1;stroke-dasharray:3.2,3.2;stroke-miterlimit:4;" d="M 0.160156 77.488281 C 86.488281 68.773438 172.140625 99.441406 233.316406 160.972656 C 294.492188 222.5 324.667969 308.328125 315.457031 394.605469 "/>
</g>
<path style="fill:none;stroke-width:2.4;stroke-linecap:butt;stroke-linejoin:miter;stroke:rgb(0%,0%,0%);stroke-opacity:1;stroke-miterlimit:4;" d="M 29.085938 364.03125 L 317.085938 364.03125 "/>
<path style="fill:none;stroke-width:0.8;stroke-linecap:butt;stroke-linejoin:miter;stroke:rgb(0%,0%,0%);stroke-opacity:1;stroke-miterlimit:4;" d="M 317.085938 364.03125 L 317.085938 52.03125 "/>
<path style="fill:none;stroke-width:0.8;stroke-linecap:butt;stroke-linejoin:miter;stroke:rgb(0%,0%,0%);stroke-opacity:1;stroke-miterlimit:4;" d="M 29.085938 364.03125 L 446.683594 52.03125 "/>
<path style="fill:none;stroke-width:2.4;stroke-linecap:butt;stroke-linejoin:miter;stroke:rgb(0%,0%,0%);stroke-opacity:1;stroke-miterlimit:4;" d="M 29.085938 364.03125 L 414.625 76.03125 "/>
<path style="fill:none;stroke-width:2.4;stroke-linecap:butt;stroke-linejoin:miter;stroke:rgb(0%,0%,0%);stroke-opacity:1;stroke-miterlimit:4;" d="M 317.085938 148.03125 L 317.085938 364.03125 "/>
<path style="fill:none;stroke-width:2.4;stroke-linecap:butt;stroke-linejoin:miter;stroke:rgb(0%,0%,0%);stroke-opacity:1;stroke-miterlimit:4;" d="M 29.390625 364.222656 L 29.390625 76.222656 "/>
<path style="fill:none;stroke-width:0.8;stroke-linecap:butt;stroke-linejoin:miter;stroke:rgb(0%,0%,0%);stroke-opacity:1;stroke-miterlimit:4;" d="M 28.015625 75.671875 L 446.683594 76.03125 "/>
<path style="fill:none;stroke-width:1.2;stroke-linecap:butt;stroke-linejoin:miter;stroke:rgb(100%,0%,0%);stroke-opacity:1;stroke-miterlimit:4;" d="M 33.882812 368.832031 L 163.484375 368.832031 "/>
<path style="fill-rule:evenodd;fill:rgb(100%,0%,0%);fill-opacity:1;stroke-width:0.3;stroke-linecap:butt;stroke-linejoin:miter;stroke:rgb(100%,0%,0%);stroke-opacity:1;stroke-miterlimit:4;" d="M 35.324219 368.832031 L 36.523438 367.632812 L 32.324219 368.832031 L 36.523438 370.03125 Z M 35.324219 368.832031 "/>
<path style="fill:none;stroke-width:1.2;stroke-linecap:butt;stroke-linejoin:miter;stroke:rgb(100%,0%,0%);stroke-opacity:1;stroke-miterlimit:4;" d="M 313.304688 368.839844 L 182.683594 368.832031 "/>
<path style="fill-rule:evenodd;fill:rgb(100%,0%,0%);fill-opacity:1;stroke-width:0.3;stroke-linecap:butt;stroke-linejoin:miter;stroke:rgb(100%,0%,0%);stroke-opacity:1;stroke-miterlimit:4;" d="M -311.884696 -368.821735 L -310.685546 -370.021024 L -314.884696 -368.821561 L -310.685407 -367.622586 Z M -311.884696 -368.821735 " transform="matrix(-1,-0.0000580614,0.0000580614,-1,0,0)"/>
<path style=" stroke:none;fill-rule:nonzero;fill:rgb(0%,0%,0%);fill-opacity:1;" d="M 173.964844 368.996094 C 173.964844 368.496094 173.964844 368.464844 173.496094 368.464844 C 172.246094 369.746094 170.496094 369.746094 169.871094 369.746094 L 169.871094 370.371094 C 170.277344 370.371094 171.433594 370.371094 172.464844 369.839844 L 172.464844 380.183594 C 172.464844 380.902344 172.402344 381.121094 170.621094 381.121094 L 169.996094 381.121094 L 169.996094 381.746094 C 170.683594 381.683594 172.402344 381.683594 173.214844 381.683594 C 173.996094 381.683594 175.746094 381.683594 176.433594 381.746094 L 176.433594 381.121094 L 175.808594 381.121094 C 173.996094 381.121094 173.964844 380.902344 173.964844 380.183594 Z M 173.964844 368.996094 "/>
<path style="fill:none;stroke-width:2.4;stroke-linecap:butt;stroke-linejoin:miter;stroke:rgb(0%,0%,0%);stroke-opacity:1;stroke-miterlimit:4;" d="M 415.328125 76.03125 L 29.085938 76.03125 "/>
<path style="fill:none;stroke-width:1.2;stroke-linecap:butt;stroke-linejoin:miter;stroke:rgb(100%,0%,0%);stroke-opacity:1;stroke-miterlimit:4;" d="M 24.285156 80.832031 L 24.285156 210.429688 "/>
<path style="fill-rule:evenodd;fill:rgb(100%,0%,0%);fill-opacity:1;stroke-width:0.3;stroke-linecap:butt;stroke-linejoin:miter;stroke:rgb(100%,0%,0%);stroke-opacity:1;stroke-miterlimit:4;" d="M 82.269531 -24.285156 L 83.472656 -25.484375 L 79.269531 -24.285156 L 83.472656 -23.085938 Z M 82.269531 -24.285156 " transform="matrix(0,1,-1,0,0,0)"/>
<path style="fill:none;stroke-width:1.2;stroke-linecap:butt;stroke-linejoin:miter;stroke:rgb(100%,0%,0%);stroke-opacity:1;stroke-miterlimit:4;" d="M 24.417969 360.292969 L 24.285156 229.632812 "/>
<path style="fill-rule:evenodd;fill:rgb(100%,0%,0%);fill-opacity:1;stroke-width:0.3;stroke-linecap:butt;stroke-linejoin:miter;stroke:rgb(100%,0%,0%);stroke-opacity:1;stroke-miterlimit:4;" d="M -358.880301 24.047375 L -357.679841 22.845489 L -361.880302 24.048183 L -357.678416 25.247834 Z M -358.880301 24.047375 " transform="matrix(-0.00103264,-1,1,-0.00103264,0,0)"/>
<path style=" stroke:none;fill-rule:nonzero;fill:rgb(0%,0%,0%);fill-opacity:1;" d="M 12.042969 219.328125 C 11.542969 219.328125 11.511719 219.328125 11.511719 219.796875 C 12.792969 221.046875 12.792969 222.796875 12.792969 223.421875 L 13.417969 223.421875 C 13.417969 223.015625 13.417969 221.859375 12.886719 220.828125 L 23.230469 220.828125 C 23.949219 220.828125 24.167969 220.890625 24.167969 222.671875 L 24.167969 223.296875 L 24.792969 223.296875 C 24.730469 222.609375 24.730469 220.890625 24.730469 220.078125 C 24.730469 219.296875 24.730469 217.546875 24.792969 216.859375 L 24.167969 216.859375 L 24.167969 217.484375 C 24.167969 219.296875 23.949219 219.328125 23.230469 219.328125 Z M 12.042969 219.328125 "/>
<path style=" stroke:none;fill-rule:nonzero;fill:rgb(0%,100%,0%);fill-opacity:1;" d="M 488.980469 307.960938 L 872.980469 19.960938 L 488.980469 19.960938 Z M 488.980469 307.960938 "/>
<path style="fill:none;stroke-width:0.8;stroke-linecap:butt;stroke-linejoin:miter;stroke:rgb(100%,0%,0%);stroke-opacity:1;stroke-miterlimit:4;" d="M 489.882812 29.09375 L 499.484375 29.09375 L 499.484375 19.492188 "/>
<use xlink:href="#surface16" transform="matrix(1,0,0,1,536,275)" mask="url(#mask1)"/>
<path style=" stroke:none;fill-rule:nonzero;fill:rgb(0%,0%,0%);fill-opacity:1;" d="M 537.28125 289.148438 C 537.28125 287.835938 536.9375 285.054688 534.90625 285.054688 C 532.125 285.054688 529.0625 290.679688 529.0625 295.242188 C 529.0625 297.117188 529.625 299.335938 531.4375 299.335938 C 534.25 299.335938 537.28125 293.617188 537.28125 289.148438 Z M 531.15625 291.867188 C 531.5 290.617188 531.90625 289.023438 532.71875 287.585938 C 533.25 286.617188 533.96875 285.492188 534.875 285.492188 C 535.84375 285.492188 535.96875 286.773438 535.96875 287.898438 C 535.96875 288.898438 535.8125 289.898438 535.34375 291.867188 Z M 535.15625 292.523438 C 534.9375 293.429688 534.53125 295.117188 533.75 296.554688 C 533.0625 297.929688 532.3125 298.898438 531.4375 298.898438 C 530.78125 298.898438 530.375 298.304688 530.375 296.460938 C 530.375 295.617188 530.5 294.460938 531 292.523438 Z M 535.15625 292.523438 "/>
<path style="fill:none;stroke-width:2.4;stroke-linecap:butt;stroke-linejoin:miter;stroke:rgb(0%,0%,0%);stroke-opacity:1;stroke-miterlimit:4;" d="M 489.152344 306.757812 L 575.554688 306.757812 "/>
<path style="fill:none;stroke-width:2.4;stroke-linecap:butt;stroke-linejoin:miter;stroke:rgb(0%,0%,0%);stroke-opacity:1;stroke-miterlimit:4;" d="M 489.285156 308.152344 L 489.285156 20.152344 "/>
<path style="fill:none;stroke-width:1.2;stroke-linecap:butt;stroke-linejoin:miter;stroke:rgb(100%,0%,0%);stroke-opacity:1;stroke-miterlimit:4;" d="M 872.980469 11.960938 L 709.78125 11.960938 "/>
<path style="fill-rule:evenodd;fill:rgb(100%,0%,0%);fill-opacity:1;stroke-width:0.3;stroke-linecap:butt;stroke-linejoin:miter;stroke:rgb(100%,0%,0%);stroke-opacity:1;stroke-miterlimit:4;" d="M -871.539062 -11.960938 L -870.339844 -13.160156 L -874.539062 -11.960938 L -870.339844 -10.761719 Z M -871.539062 -11.960938 " transform="matrix(-1,0,0,-1,0,0)"/>
<path style="fill:none;stroke-width:1.2;stroke-linecap:butt;stroke-linejoin:miter;stroke:rgb(100%,0%,0%);stroke-opacity:1;stroke-miterlimit:4;" d="M 493.78125 11.960938 L 656.980469 11.960938 "/>
<path style="fill-rule:evenodd;fill:rgb(100%,0%,0%);fill-opacity:1;stroke-width:0.3;stroke-linecap:butt;stroke-linejoin:miter;stroke:rgb(100%,0%,0%);stroke-opacity:1;stroke-miterlimit:4;" d="M 495.21875 11.960938 L 496.421875 10.761719 L 492.21875 11.960938 L 496.421875 13.160156 Z M 495.21875 11.960938 "/>
<path style=" stroke:none;fill-rule:nonzero;fill:rgb(0%,0%,0%);fill-opacity:1;" d="M 666.726562 9.71875 C 666.726562 6.46875 668.351562 5.625 669.414062 5.625 C 669.601562 5.625 670.851562 5.65625 671.539062 6.375 C 670.726562 6.4375 670.601562 7.03125 670.601562 7.28125 C 670.601562 7.8125 670.976562 8.1875 671.507812 8.1875 C 672.039062 8.1875 672.445312 7.875 672.445312 7.25 C 672.445312 5.90625 670.914062 5.125 669.382812 5.125 C 666.882812 5.125 665.070312 7.28125 665.070312 9.75 C 665.070312 12.3125 667.039062 14.28125 669.351562 14.28125 C 672.007812 14.28125 672.664062 11.875 672.664062 11.6875 C 672.664062 11.5 672.445312 11.5 672.382812 11.5 C 672.226562 11.5 672.164062 11.5625 672.132812 11.6875 C 671.570312 13.53125 670.257812 13.78125 669.539062 13.78125 C 668.476562 13.78125 666.726562 12.9375 666.726562 9.71875 Z M 666.726562 9.71875 "/>
<path style=" stroke:none;fill-rule:nonzero;fill:rgb(0%,0%,0%);fill-opacity:1;" d="M 682.609375 9.78125 C 682.609375 7.25 680.640625 5.125 678.234375 5.125 C 675.734375 5.125 673.796875 7.3125 673.796875 9.78125 C 673.796875 12.375 675.859375 14.28125 678.203125 14.28125 C 680.609375 14.28125 682.609375 12.3125 682.609375 9.78125 Z M 678.234375 13.78125 C 677.359375 13.78125 676.484375 13.375 675.953125 12.4375 C 675.453125 11.5625 675.453125 10.34375 675.453125 9.625 C 675.453125 8.84375 675.453125 7.78125 675.921875 6.90625 C 676.453125 6 677.390625 5.5625 678.203125 5.5625 C 679.078125 5.5625 679.921875 6 680.453125 6.875 C 680.984375 7.71875 680.984375 8.875 680.984375 9.625 C 680.984375 10.34375 680.984375 11.4375 680.546875 12.3125 C 680.078125 13.21875 679.203125 13.78125 678.234375 13.78125 Z M 678.234375 13.78125 "/>
<path style=" stroke:none;fill-rule:nonzero;fill:rgb(0%,0%,0%);fill-opacity:1;" d="M 686.636719 6.09375 L 689.511719 6.09375 L 689.511719 5.46875 L 686.636719 5.46875 L 686.636719 1.8125 L 686.136719 1.8125 C 686.136719 3.4375 685.542969 5.5625 683.574219 5.65625 L 683.574219 6.09375 L 685.261719 6.09375 L 685.261719 11.59375 C 685.261719 14.03125 687.136719 14.28125 687.855469 14.28125 C 689.261719 14.28125 689.824219 12.875 689.824219 11.59375 L 689.824219 10.46875 L 689.324219 10.46875 L 689.324219 11.5625 C 689.324219 13.03125 688.730469 13.78125 687.980469 13.78125 C 686.636719 13.78125 686.636719 11.96875 686.636719 11.625 Z M 686.636719 6.09375 "/>
<path style=" stroke:none;fill-rule:nonzero;fill:rgb(0%,0%,0%);fill-opacity:1;" d="M 703.332031 4.09375 C 703.332031 2.78125 702.988281 0 700.957031 0 C 698.175781 0 695.113281 5.625 695.113281 10.1875 C 695.113281 12.0625 695.675781 14.28125 697.488281 14.28125 C 700.300781 14.28125 703.332031 8.5625 703.332031 4.09375 Z M 697.207031 6.8125 C 697.550781 5.5625 697.957031 3.96875 698.769531 2.53125 C 699.300781 1.5625 700.019531 0.4375 700.925781 0.4375 C 701.894531 0.4375 702.019531 1.71875 702.019531 2.84375 C 702.019531 3.84375 701.863281 4.84375 701.394531 6.8125 Z M 701.207031 7.46875 C 700.988281 8.375 700.582031 10.0625 699.800781 11.5 C 699.113281 12.875 698.363281 13.84375 697.488281 13.84375 C 696.832031 13.84375 696.425781 13.25 696.425781 11.40625 C 696.425781 10.5625 696.550781 9.40625 697.050781 7.46875 Z M 701.207031 7.46875 "/>
<path style="fill:none;stroke-width:1.2;stroke-linecap:butt;stroke-linejoin:miter;stroke:rgb(100%,0%,0%);stroke-opacity:1;stroke-miterlimit:4;" d="M 484.179688 24.761719 L 484.179688 154.363281 "/>
<path style="fill-rule:evenodd;fill:rgb(100%,0%,0%);fill-opacity:1;stroke-width:0.3;stroke-linecap:butt;stroke-linejoin:miter;stroke:rgb(100%,0%,0%);stroke-opacity:1;stroke-miterlimit:4;" d="M 26.203125 -484.179688 L 27.402344 -485.378906 L 23.203125 -484.179688 L 27.402344 -482.980469 Z M 26.203125 -484.179688 " transform="matrix(0,1,-1,0,0,0)"/>
<path style="fill:none;stroke-width:1.2;stroke-linecap:butt;stroke-linejoin:miter;stroke:rgb(100%,0%,0%);stroke-opacity:1;stroke-miterlimit:4;" d="M 484.316406 304.222656 L 484.179688 173.5625 "/>
<path style="fill-rule:evenodd;fill:rgb(100%,0%,0%);fill-opacity:1;stroke-width:0.3;stroke-linecap:butt;stroke-linejoin:miter;stroke:rgb(100%,0%,0%);stroke-opacity:1;stroke-miterlimit:4;" d="M -303.284953 483.999316 L -302.084497 482.801337 L -306.284954 484.000124 L -302.083068 485.199776 Z M -303.284953 483.999316 " transform="matrix(-0.00103264,-1,1,-0.00103264,0,0)"/>
<path style=" stroke:none;fill-rule:nonzero;fill:rgb(0%,0%,0%);fill-opacity:1;" d="M 471.941406 163.257812 C 471.441406 163.257812 471.410156 163.257812 471.410156 163.726562 C 472.691406 164.976562 472.691406 166.726562 472.691406 167.351562 L 473.316406 167.351562 C 473.316406 166.945312 473.316406 165.789062 472.785156 164.757812 L 483.128906 164.757812 C 483.847656 164.757812 484.066406 164.820312 484.066406 166.601562 L 484.066406 167.226562 L 484.691406 167.226562 C 484.628906 166.539062 484.628906 164.820312 484.628906 164.007812 C 484.628906 163.226562 484.628906 161.476562 484.691406 160.789062 L 484.066406 160.789062 L 484.066406 161.414062 C 484.066406 163.226562 483.847656 163.257812 483.128906 163.257812 Z M 471.941406 163.257812 "/>
<path style="fill:none;stroke-width:3.2;stroke-linecap:butt;stroke-linejoin:miter;stroke:rgb(0%,0%,0%);stroke-opacity:1;stroke-dasharray:3.2,3.2;stroke-miterlimit:4;" d="M 488.855469 19.597656 C 579.46875 19.554688 664.816406 62.164062 719.246094 134.609375 "/>
<path style=" stroke:none;fill-rule:nonzero;fill:rgb(0%,100%,100%);fill-opacity:1;" d="M 575.003906 393.730469 L 863.003906 177.730469 L 863.003906 393.730469 Z M 575.003906 393.730469 "/>
<path style="fill:none;stroke-width:0.8;stroke-linecap:butt;stroke-linejoin:miter;stroke:rgb(100%,0%,0%);stroke-opacity:1;stroke-miterlimit:4;" d="M 862.984375 383.867188 L 853.386719 383.867188 L 853.386719 393.46875 "/>
<use xlink:href="#surface22" transform="matrix(1,0,0,1,622,360)" mask="url(#mask2)"/>
<path style=" stroke:none;fill-rule:nonzero;fill:rgb(0%,0%,0%);fill-opacity:1;" d="M 623.300781 374.921875 C 623.300781 373.609375 622.957031 370.828125 620.925781 370.828125 C 618.144531 370.828125 615.082031 376.453125 615.082031 381.015625 C 615.082031 382.890625 615.644531 385.109375 617.457031 385.109375 C 620.269531 385.109375 623.300781 379.390625 623.300781 374.921875 Z M 617.175781 377.640625 C 617.519531 376.390625 617.925781 374.796875 618.738281 373.359375 C 619.269531 372.390625 619.988281 371.265625 620.894531 371.265625 C 621.863281 371.265625 621.988281 372.546875 621.988281 373.671875 C 621.988281 374.671875 621.832031 375.671875 621.363281 377.640625 Z M 621.175781 378.296875 C 620.957031 379.203125 620.550781 380.890625 619.769531 382.328125 C 619.082031 383.703125 618.332031 384.671875 617.457031 384.671875 C 616.800781 384.671875 616.394531 384.078125 616.394531 382.234375 C 616.394531 381.390625 616.519531 380.234375 617.019531 378.296875 Z M 621.175781 378.296875 "/>
<path style="fill:none;stroke-width:2.4;stroke-linecap:butt;stroke-linejoin:miter;stroke:rgb(0%,0%,0%);stroke-opacity:1;stroke-miterlimit:4;" d="M 575.003906 393.730469 L 863.003906 393.730469 "/>
<path style="fill:none;stroke-width:2.4;stroke-linecap:butt;stroke-linejoin:miter;stroke:rgb(0%,0%,0%);stroke-opacity:1;stroke-miterlimit:4;" d="M 863.003906 177.730469 L 863.003906 393.730469 "/>
<path style="fill:none;stroke-width:1.2;stroke-linecap:butt;stroke-linejoin:miter;stroke:rgb(100%,0%,0%);stroke-opacity:1;stroke-miterlimit:4;" d="M 868.867188 182.027344 L 869.402344 264.132812 "/>
<path style="fill-rule:evenodd;fill:rgb(100%,0%,0%);fill-opacity:1;stroke-width:0.299994;stroke-linecap:butt;stroke-linejoin:miter;stroke:rgb(100%,0%,0%);stroke-opacity:1;stroke-miterlimit:4;" d="M 189.131381 -867.64064 L 190.330639 -868.84375 L 186.131381 -867.640688 L 190.330585 -866.441407 Z M 189.131381 -867.64064 " transform="matrix(0.00652647,1,-1,0.00652647,0,0)"/>
<path style="fill:none;stroke-width:1.2;stroke-linecap:butt;stroke-linejoin:miter;stroke:rgb(100%,0%,0%);stroke-opacity:1;stroke-miterlimit:4;" d="M 868.820312 389.539062 L 869.402344 312.132812 "/>
<path style="fill-rule:evenodd;fill:rgb(100%,0%,0%);fill-opacity:1;stroke-width:0.299992;stroke-linecap:butt;stroke-linejoin:miter;stroke:rgb(100%,0%,0%);stroke-opacity:1;stroke-miterlimit:4;" d="M -381.543652 871.700721 L -380.345647 870.500307 L -384.543659 871.699839 L -380.347145 872.898756 Z M -381.543652 871.700721 " transform="matrix(0.00751864,-1,1,0.00751864,0,0)"/>
<g clip-path="url(#clip8)" clip-rule="nonzero">
<path style=" stroke:none;fill-rule:nonzero;fill:rgb(0%,0%,0%);fill-opacity:1;" d="M 872.644531 304.96875 L 872.644531 302.09375 L 872.019531 302.09375 L 872.019531 304.96875 L 868.363281 304.96875 L 868.363281 305.46875 C 869.988281 305.46875 872.113281 306.0625 872.207031 308.03125 L 872.644531 308.03125 L 872.644531 306.34375 L 878.144531 306.34375 C 880.582031 306.34375 880.832031 304.46875 880.832031 303.75 C 880.832031 302.34375 879.425781 301.78125 878.144531 301.78125 L 877.019531 301.78125 L 877.019531 302.28125 L 878.113281 302.28125 C 879.582031 302.28125 880.332031 302.875 880.332031 303.625 C 880.332031 304.96875 878.519531 304.96875 878.175781 304.96875 Z M 872.644531 304.96875 "/>
</g>
<g clip-path="url(#clip9)" clip-rule="nonzero">
<path style=" stroke:none;fill-rule:nonzero;fill:rgb(0%,0%,0%);fill-opacity:1;" d="M 879.113281 294.035156 C 879.894531 293.941406 880.738281 293.410156 880.738281 292.472656 C 880.738281 292.035156 880.457031 290.816406 878.832031 290.816406 L 877.707031 290.816406 L 877.707031 291.316406 L 878.832031 291.316406 C 879.988281 291.316406 880.113281 291.816406 880.113281 292.035156 C 880.113281 292.691406 879.207031 292.785156 879.113281 292.785156 L 875.144531 292.785156 C 874.300781 292.785156 873.519531 292.785156 872.769531 293.503906 C 871.988281 294.285156 871.675781 295.285156 871.675781 296.222656 C 871.675781 297.878906 872.613281 299.253906 873.925781 299.253906 C 874.519531 299.253906 874.863281 298.847656 874.863281 298.316406 C 874.863281 297.753906 874.457031 297.410156 873.957031 297.410156 C 873.707031 297.410156 873.050781 297.503906 873.050781 298.441406 C 872.332031 297.878906 872.113281 296.910156 872.113281 296.285156 C 872.113281 295.285156 872.894531 294.160156 874.675781 294.160156 L 875.394531 294.160156 C 875.457031 295.191406 875.519531 296.566406 876.113281 297.816406 C 876.800781 299.316406 877.832031 299.816406 878.707031 299.816406 C 880.332031 299.816406 880.832031 297.878906 880.832031 296.628906 C 880.832031 295.316406 880.019531 294.410156 879.113281 294.035156 Z M 875.832031 294.160156 L 877.832031 294.160156 C 879.707031 294.160156 880.394531 295.597656 880.394531 296.503906 C 880.394531 297.472656 879.707031 298.285156 878.707031 298.285156 C 877.613281 298.285156 875.957031 297.441406 875.832031 294.160156 Z M 875.832031 294.160156 "/>
</g>
<g clip-path="url(#clip10)" clip-rule="nonzero">
<path style=" stroke:none;fill-rule:nonzero;fill:rgb(0%,0%,0%);fill-opacity:1;" d="M 873.769531 288.507812 L 879.113281 288.507812 C 879.988281 288.507812 879.988281 288.726562 879.988281 290.070312 L 880.613281 290.070312 C 880.582031 289.351562 880.550781 288.351562 880.550781 287.789062 C 880.550781 287.289062 880.582031 286.257812 880.613281 285.570312 L 879.988281 285.570312 C 879.988281 286.914062 879.988281 287.132812 879.113281 287.132812 L 875.425781 287.132812 C 873.363281 287.132812 872.238281 285.695312 872.238281 284.445312 C 872.238281 283.164062 873.300781 282.945312 874.457031 282.945312 L 879.113281 282.945312 C 879.988281 282.945312 879.988281 283.164062 879.988281 284.507812 L 880.613281 284.507812 C 880.582031 283.820312 880.550781 282.789062 880.550781 282.257812 C 880.550781 281.757812 880.582031 280.695312 880.613281 280.039062 L 879.988281 280.039062 C 879.988281 281.070312 879.988281 281.570312 879.394531 281.570312 L 875.582031 281.570312 C 873.863281 281.570312 873.269531 281.570312 872.550781 282.195312 C 872.207031 282.476562 871.800781 283.132812 871.800781 284.289062 C 871.800781 285.757812 872.644531 286.695312 873.894531 287.257812 L 871.800781 287.257812 L 872.019531 290.070312 L 872.644531 290.070312 C 872.644531 288.664062 872.769531 288.507812 873.769531 288.507812 Z M 873.769531 288.507812 "/>
</g>
<g clip-path="url(#clip11)" clip-rule="nonzero">
<path style=" stroke:none;fill-rule:nonzero;fill:rgb(0%,0%,0%);fill-opacity:1;" d="M 870.644531 267.242188 C 869.332031 267.242188 866.550781 267.585938 866.550781 269.617188 C 866.550781 272.398438 872.175781 275.460938 876.738281 275.460938 C 878.613281 275.460938 880.832031 274.898438 880.832031 273.085938 C 880.832031 270.273438 875.113281 267.242188 870.644531 267.242188 Z M 873.363281 273.367188 C 872.113281 273.023438 870.519531 272.617188 869.082031 271.804688 C 868.113281 271.273438 866.988281 270.554688 866.988281 269.648438 C 866.988281 268.679688 868.269531 268.554688 869.394531 268.554688 C 870.394531 268.554688 871.394531 268.710938 873.363281 269.179688 Z M 874.019531 269.367188 C 874.925781 269.585938 876.613281 269.992188 878.050781 270.773438 C 879.425781 271.460938 880.394531 272.210938 880.394531 273.085938 C 880.394531 273.742188 879.800781 274.148438 877.957031 274.148438 C 877.113281 274.148438 875.957031 274.023438 874.019531 273.523438 Z M 874.019531 269.367188 "/>
</g>
<path style="fill:none;stroke-width:1.2;stroke-linecap:butt;stroke-linejoin:miter;stroke:rgb(100%,0%,0%);stroke-opacity:1;stroke-miterlimit:4;" d="M 579.804688 398.53125 L 709.402344 398.53125 "/>
<path style="fill-rule:evenodd;fill:rgb(100%,0%,0%);fill-opacity:1;stroke-width:0.3;stroke-linecap:butt;stroke-linejoin:miter;stroke:rgb(100%,0%,0%);stroke-opacity:1;stroke-miterlimit:4;" d="M 581.242188 398.53125 L 582.441406 397.332031 L 578.242188 398.53125 L 582.441406 399.730469 Z M 581.242188 398.53125 "/>
<path style="fill:none;stroke-width:1.2;stroke-linecap:butt;stroke-linejoin:miter;stroke:rgb(100%,0%,0%);stroke-opacity:1;stroke-miterlimit:4;" d="M 859.222656 398.539062 L 728.601562 398.53125 "/>
<path style="fill-rule:evenodd;fill:rgb(100%,0%,0%);fill-opacity:1;stroke-width:0.3;stroke-linecap:butt;stroke-linejoin:miter;stroke:rgb(100%,0%,0%);stroke-opacity:1;stroke-miterlimit:4;" d="M -857.804387 -398.489257 L -856.605238 -399.688546 L -860.804387 -398.489083 L -856.605098 -397.290108 Z M -857.804387 -398.489257 " transform="matrix(-1,-0.0000580614,0.0000580614,-1,0,0)"/>
<g clip-path="url(#clip12)" clip-rule="nonzero">
<path style=" stroke:none;fill-rule:nonzero;fill:rgb(0%,0%,0%);fill-opacity:1;" d="M 719.882812 398.695312 C 719.882812 398.195312 719.882812 398.164062 719.414062 398.164062 C 718.164062 399.445312 716.414062 399.445312 715.789062 399.445312 L 715.789062 400.070312 C 716.195312 400.070312 717.351562 400.070312 718.382812 399.539062 L 718.382812 409.882812 C 718.382812 410.601562 718.320312 410.820312 716.539062 410.820312 L 715.914062 410.820312 L 715.914062 411.445312 C 716.601562 411.382812 718.320312 411.382812 719.132812 411.382812 C 719.914062 411.382812 721.664062 411.382812 722.351562 411.445312 L 722.351562 410.820312 L 721.726562 410.820312 C 719.914062 410.820312 719.882812 410.601562 719.882812 409.882812 Z M 719.882812 398.695312 "/>
</g>
<path style="fill:none;stroke-width:2.4;stroke-linecap:butt;stroke-linejoin:miter;stroke:rgb(0%,0%,0%);stroke-opacity:1;stroke-miterlimit:4;" d="M 575.085938 393.320312 L 863.085938 177.320312 "/>
<path style="fill:none;stroke-width:3.2;stroke-linecap:butt;stroke-linejoin:miter;stroke:rgb(0%,0%,0%);stroke-opacity:1;stroke-dasharray:3.2,3.2;stroke-miterlimit:4;" d="M 804.035156 221.367188 C 840.933594 270.769531 861.003906 330.710938 861.292969 392.371094 "/>
<path style="fill:none;stroke-width:0.961959;stroke-linecap:butt;stroke-linejoin:miter;stroke:rgb(100%,0%,0%);stroke-opacity:1;stroke-miterlimit:4;" d="M 462.573407 523.807868 L 347.947713 523.814038 " transform="matrix(1,-0.74575,0.74575,1,0,0)"/>
<path style="fill-rule:evenodd;fill:rgb(100%,0%,0%);fill-opacity:1;stroke-width:0.240478;stroke-linecap:butt;stroke-linejoin:miter;stroke:rgb(100%,0%,0%);stroke-opacity:1;stroke-miterlimit:4;" d="M -461.362775 -523.810551 L -460.40217 -524.773771 L -463.768195 -523.811665 L -460.399555 -522.849946 Z M -461.362775 -523.810551 " transform="matrix(-1,0.74585,-0.74585,-1,0,0)"/>
<path style="fill:none;stroke-width:0.961959;stroke-linecap:butt;stroke-linejoin:miter;stroke:rgb(100%,0%,0%);stroke-opacity:1;stroke-miterlimit:4;" d="M 185.526796 523.739421 L 305.620084 523.802896 " transform="matrix(1,-0.74575,0.74575,1,0,0)"/>
<path style="fill-rule:evenodd;fill:rgb(100%,0%,0%);fill-opacity:1;stroke-width:0.240586;stroke-linecap:butt;stroke-linejoin:miter;stroke:rgb(100%,0%,0%);stroke-opacity:1;stroke-miterlimit:4;" d="M 187.039462 523.848032 L 188.00243 522.885674 L 184.632964 523.848365 L 188.00182 524.811001 Z M 187.039462 523.848032 " transform="matrix(1,-0.744915,0.744915,1,0,0)"/>
<path style=" stroke:none;fill-rule:nonzero;fill:rgb(0%,0%,0%);fill-opacity:1;" d="M 704.453125 287.558594 C 704.859375 287.371094 706.347656 286.652344 707.207031 287.804688 C 707.804688 288.605469 707.742188 289.667969 706.488281 290.601562 C 705.132812 291.609375 703.886719 291.136719 702.558594 289.984375 C 702.359375 289.820312 702.320312 289.769531 702.144531 289.902344 C 701.945312 290.050781 702.019531 290.152344 702.226562 290.425781 L 703.8125 292.554688 C 704.019531 292.832031 704.09375 292.933594 704.269531 292.800781 C 704.34375 292.746094 704.351562 292.703125 704.425781 292.175781 C 704.433594 292.132812 704.414062 292.109375 704.492188 291.582031 C 705.679688 291.710938 706.421875 291.195312 706.75 290.953125 C 708.578125 289.589844 708.527344 287.953125 707.667969 286.800781 C 707.050781 285.972656 706.203125 285.824219 705.871094 285.800781 C 704.953125 285.667969 704.234375 286.007812 703.460938 286.386719 C 702.429688 286.882812 701.226562 287.46875 700.539062 286.539062 C 700.109375 285.964844 700.023438 285.015625 701.402344 283.988281 C 703.15625 282.679688 704.339844 284.058594 704.71875 284.515625 C 704.832031 284.664062 704.980469 284.554688 705.003906 284.535156 C 705.230469 284.367188 705.175781 284.292969 704.949219 283.992188 L 703.738281 282.363281 C 703.550781 282.113281 703.457031 281.988281 703.28125 282.117188 C 703.207031 282.171875 703.15625 282.210938 703.105469 282.5625 C 703.09375 282.648438 703.054688 282.910156 703.015625 283.015625 C 702.078125 283.015625 701.425781 283.5 701.175781 283.6875 C 699.222656 285.144531 699.425781 286.667969 700.097656 287.570312 C 700.507812 288.121094 701.09375 288.386719 701.78125 288.417969 C 702.605469 288.429688 703.132812 288.191406 704.453125 287.558594 Z M 704.453125 287.558594 "/>
<path style=" stroke:none;fill-rule:nonzero;fill:rgb(0%,0%,0%);fill-opacity:1;" d="M 708.507812 283.09375 C 706.835938 280.636719 707.890625 279.230469 708.441406 278.816406 C 710.070312 277.605469 711.851562 279.628906 712.316406 280.253906 Z M 708.769531 283.445312 L 713.230469 280.121094 C 713.582031 279.859375 713.632812 279.820312 713.371094 279.46875 C 712.195312 277.890625 710.160156 276.992188 708.179688 278.46875 C 706.324219 279.847656 706.078125 282.605469 707.574219 284.609375 C 709.160156 286.738281 711.996094 287.039062 713.828125 285.675781 C 715.78125 284.222656 715.183594 281.898438 714.957031 281.597656 C 714.84375 281.449219 714.683594 281.492188 714.582031 281.566406 C 714.457031 281.660156 714.480469 281.796875 714.550781 281.941406 C 715.230469 284.007812 713.777344 285.089844 713.628906 285.203125 C 712.828125 285.800781 711.84375 285.789062 711.019531 285.46875 C 709.984375 285.074219 709.199219 284.019531 708.769531 283.445312 Z M 708.769531 283.445312 "/>
<path style=" stroke:none;fill-rule:nonzero;fill:rgb(0%,0%,0%);fill-opacity:1;" d="M 716.121094 278.277344 C 714.175781 275.671875 714.976562 274.023438 715.828125 273.390625 C 715.980469 273.277344 717 272.554688 717.980469 272.71875 C 717.367188 273.257812 717.621094 273.808594 717.769531 274.007812 C 718.085938 274.433594 718.613281 274.511719 719.039062 274.191406 C 719.464844 273.875 719.601562 273.382812 719.230469 272.878906 C 718.425781 271.804688 716.730469 272.09375 715.503906 273.007812 C 713.5 274.5 713.335938 277.3125 714.8125 279.292969 C 716.34375 281.347656 719.097656 281.75 720.953125 280.367188 C 723.082031 278.78125 722.167969 276.457031 722.058594 276.308594 C 721.945312 276.15625 721.769531 276.289062 721.71875 276.324219 C 721.59375 276.417969 721.582031 276.507812 721.632812 276.625 C 722.28125 278.441406 721.378906 279.425781 720.804688 279.855469 C 719.949219 280.488281 718.042969 280.859375 716.121094 278.277344 Z M 716.121094 278.277344 "/>
<path style=" stroke:none;fill-rule:nonzero;fill:rgb(0%,0%,0%);fill-opacity:1;" d="M 727.910156 262.472656 C 727.125 261.421875 725.1875 259.398438 723.558594 260.609375 C 721.328125 262.273438 722.234375 268.613281 724.960938 272.273438 C 726.082031 273.773438 727.859375 275.21875 729.3125 274.132812 C 731.566406 272.453125 730.582031 266.058594 727.910156 262.472656 Z M 724.625 268.3125 C 724.152344 267.105469 723.527344 265.585938 723.316406 263.949219 C 723.164062 262.855469 723.070312 261.523438 723.796875 260.980469 C 724.574219 260.402344 725.4375 261.355469 726.109375 262.257812 C 726.707031 263.058594 727.179688 263.953125 727.980469 265.8125 Z M 728.222656 266.449219 C 728.589844 267.308594 729.273438 268.902344 729.503906 270.523438 C 729.773438 272.035156 729.753906 273.261719 729.050781 273.785156 C 728.523438 274.175781 727.84375 273.941406 726.742188 272.464844 C 726.238281 271.789062 725.648438 270.785156 724.890625 268.933594 Z M 728.222656 266.449219 "/>
<path style="fill:none;stroke-width:0.962342;stroke-linecap:butt;stroke-linejoin:miter;stroke:rgb(100%,0%,0%);stroke-opacity:1;stroke-miterlimit:4;" d="M 539.926124 428.170518 L 378.253779 428.171149 " transform="matrix(1,-0.74492,0.74492,1,0,0)"/>
<path style="fill-rule:evenodd;fill:rgb(100%,0%,0%);fill-opacity:1;stroke-width:0.240585;stroke-linecap:butt;stroke-linejoin:miter;stroke:rgb(100%,0%,0%);stroke-opacity:1;stroke-miterlimit:4;" d="M -538.773315 -428.171143 L -537.810346 -429.133495 L -541.177935 -428.17333 L -537.809091 -427.210686 Z M -538.773315 -428.171143 " transform="matrix(-1,0.74492,-0.74492,-1,0,0)"/>
<path style="fill:none;stroke-width:0.962342;stroke-linecap:butt;stroke-linejoin:miter;stroke:rgb(100%,0%,0%);stroke-opacity:1;stroke-miterlimit:4;" d="M 176.949338 428.223257 L 339.760547 428.172551 " transform="matrix(1,-0.74492,0.74492,1,0,0)"/>
<path style="fill-rule:evenodd;fill:rgb(100%,0%,0%);fill-opacity:1;stroke-width:0.240529;stroke-linecap:butt;stroke-linejoin:miter;stroke:rgb(100%,0%,0%);stroke-opacity:1;stroke-miterlimit:4;" d="M 177.924365 428.177916 L 178.887412 427.216096 L 175.520953 428.17935 L 178.888057 429.138452 Z M 177.924365 428.177916 " transform="matrix(1,-0.745413,0.745413,1,0,0)"/>
<path style=" stroke:none;fill-rule:nonzero;fill:rgb(0%,0%,0%);fill-opacity:1;" d="M 662.113281 167.835938 C 660.167969 165.230469 660.96875 163.582031 661.820312 162.945312 C 661.972656 162.835938 662.992188 162.113281 663.972656 162.277344 C 663.359375 162.8125 663.613281 163.363281 663.761719 163.566406 C 664.082031 163.992188 664.605469 164.066406 665.03125 163.75 C 665.457031 163.433594 665.597656 162.941406 665.222656 162.4375 C 664.421875 161.359375 662.726562 161.648438 661.496094 162.5625 C 659.492188 164.058594 659.328125 166.871094 660.800781 168.847656 C 662.332031 170.90625 665.085938 171.308594 666.941406 169.925781 C 669.070312 168.339844 668.160156 166.015625 668.050781 165.867188 C 667.9375 165.714844 667.761719 165.847656 667.710938 165.882812 C 667.585938 165.976562 667.574219 166.066406 667.621094 166.183594 C 668.273438 168 667.371094 168.984375 666.792969 169.414062 C 665.941406 170.046875 664.035156 170.417969 662.113281 167.835938 Z M 662.113281 167.835938 "/>
<path style=" stroke:none;fill-rule:nonzero;fill:rgb(0%,0%,0%);fill-opacity:1;" d="M 670.945312 161.839844 C 671.351562 161.652344 672.84375 160.933594 673.703125 162.085938 C 674.300781 162.886719 674.234375 163.949219 672.980469 164.882812 C 671.625 165.890625 670.378906 165.417969 669.050781 164.261719 C 668.851562 164.101562 668.8125 164.050781 668.636719 164.179688 C 668.4375 164.332031 668.511719 164.429688 668.71875 164.707031 L 670.304688 166.835938 C 670.511719 167.113281 670.585938 167.210938 670.761719 167.082031 C 670.835938 167.027344 670.839844 166.980469 670.917969 166.457031 C 670.925781 166.414062 670.90625 166.386719 670.984375 165.863281 C 672.171875 165.992188 672.914062 165.476562 673.242188 165.234375 C 675.070312 163.871094 675.019531 162.234375 674.160156 161.082031 C 673.542969 160.253906 672.695312 160.105469 672.363281 160.082031 C 671.445312 159.945312 670.726562 160.289062 669.957031 160.667969 C 668.921875 161.164062 667.722656 161.746094 667.03125 160.820312 C 666.601562 160.242188 666.515625 159.292969 667.894531 158.265625 C 669.648438 156.960938 670.832031 158.339844 671.210938 158.796875 C 671.324219 158.945312 671.472656 158.832031 671.5 158.816406 C 671.726562 158.648438 671.667969 158.570312 671.445312 158.269531 L 670.230469 156.640625 C 670.046875 156.390625 669.953125 156.265625 669.777344 156.398438 C 669.699219 156.453125 669.652344 156.492188 669.601562 156.839844 C 669.585938 156.925781 669.546875 157.191406 669.511719 157.296875 C 668.574219 157.292969 667.921875 157.777344 667.671875 157.964844 C 665.714844 159.421875 665.917969 160.945312 666.589844 161.847656 C 667 162.402344 667.585938 162.664062 668.273438 162.699219 C 669.097656 162.707031 669.625 162.472656 670.945312 161.839844 Z M 670.945312 161.839844 "/>
<path style=" stroke:none;fill-rule:nonzero;fill:rgb(0%,0%,0%);fill-opacity:1;" d="M 675.515625 157.851562 C 673.574219 155.246094 674.371094 153.597656 675.222656 152.960938 C 675.375 152.851562 676.394531 152.128906 677.375 152.292969 C 676.761719 152.828125 677.015625 153.378906 677.164062 153.582031 C 677.484375 154.007812 678.007812 154.082031 678.433594 153.765625 C 678.859375 153.449219 679 152.957031 678.625 152.453125 C 677.824219 151.375 676.128906 151.664062 674.902344 152.578125 C 672.894531 154.074219 672.730469 156.886719 674.203125 158.863281 C 675.734375 160.921875 678.492188 161.324219 680.34375 159.941406 C 682.476562 158.355469 681.5625 156.03125 681.453125 155.882812 C 681.339844 155.730469 681.164062 155.863281 681.113281 155.898438 C 680.988281 155.992188 680.976562 156.082031 681.027344 156.199219 C 681.675781 158.015625 680.773438 159 680.195312 159.429688 C 679.34375 160.0625 677.4375 160.433594 675.515625 157.851562 Z M 675.515625 157.851562 "/>
<path style=" stroke:none;fill-rule:nonzero;fill:rgb(0%,0%,0%);fill-opacity:1;" d="M 687.308594 142.050781 C 686.523438 140.996094 684.589844 138.972656 682.957031 140.1875 C 680.726562 141.847656 681.632812 148.1875 684.359375 151.847656 C 685.480469 153.351562 687.253906 154.792969 688.707031 153.710938 C 690.964844 152.03125 689.980469 145.632812 687.308594 142.050781 Z M 684.019531 147.890625 C 683.550781 146.683594 682.925781 145.160156 682.71875 143.523438 C 682.5625 142.429688 682.46875 141.097656 683.195312 140.554688 C 683.972656 139.976562 684.835938 140.929688 685.511719 141.832031 C 686.105469 142.632812 686.578125 143.53125 687.378906 145.386719 Z M 687.621094 146.027344 C 687.988281 146.882812 688.667969 148.480469 688.902344 150.097656 C 689.171875 151.613281 689.148438 152.835938 688.449219 153.359375 C 687.921875 153.753906 687.242188 153.519531 686.140625 152.039062 C 685.636719 151.363281 685.042969 150.363281 684.289062 148.507812 Z M 687.621094 146.027344 "/>
<path style="fill:none;stroke-width:3.2;stroke-linecap:butt;stroke-linejoin:miter;stroke:rgb(0%,0%,0%);stroke-opacity:1;stroke-dasharray:3.2,3.2;stroke-miterlimit:4;" d="M 29.085938 191.230469 L 259.484375 191.230469 L 259.484375 364.03125 "/>
<path style="fill:none;stroke-width:1.2;stroke-linecap:butt;stroke-linejoin:miter;stroke:rgb(100%,0%,0%);stroke-opacity:1;stroke-miterlimit:4;" d="M 255.042969 185.652344 L 168.644531 185.652344 "/>
<path style="fill-rule:evenodd;fill:rgb(100%,0%,0%);fill-opacity:1;stroke-width:0.3;stroke-linecap:butt;stroke-linejoin:miter;stroke:rgb(100%,0%,0%);stroke-opacity:1;stroke-miterlimit:4;" d="M -253.601562 -185.652344 L -252.402344 -186.851562 L -256.601562 -185.652344 L -252.402344 -184.449219 Z M -253.601562 -185.652344 " transform="matrix(-1,0,0,-1,0,0)"/>
<path style="fill:none;stroke-width:1.2;stroke-linecap:butt;stroke-linejoin:miter;stroke:rgb(100%,0%,0%);stroke-opacity:1;stroke-miterlimit:4;" d="M 34.242188 185.652344 L 120.644531 185.652344 "/>
<path style="fill-rule:evenodd;fill:rgb(100%,0%,0%);fill-opacity:1;stroke-width:0.3;stroke-linecap:butt;stroke-linejoin:miter;stroke:rgb(100%,0%,0%);stroke-opacity:1;stroke-miterlimit:4;" d="M 35.683594 185.652344 L 36.882812 184.449219 L 32.683594 185.652344 L 36.882812 186.851562 Z M 35.683594 185.652344 "/>
<path style=" stroke:none;fill-rule:nonzero;fill:rgb(0%,0%,0%);fill-opacity:1;" d="M 127.191406 183.269531 C 127.191406 180.019531 128.816406 179.175781 129.878906 179.175781 C 130.066406 179.175781 131.316406 179.207031 132.003906 179.925781 C 131.191406 179.988281 131.066406 180.582031 131.066406 180.832031 C 131.066406 181.363281 131.441406 181.738281 131.972656 181.738281 C 132.503906 181.738281 132.910156 181.425781 132.910156 180.800781 C 132.910156 179.457031 131.378906 178.675781 129.847656 178.675781 C 127.347656 178.675781 125.535156 180.832031 125.535156 183.300781 C 125.535156 185.863281 127.503906 187.832031 129.816406 187.832031 C 132.472656 187.832031 133.128906 185.425781 133.128906 185.238281 C 133.128906 185.050781 132.910156 185.050781 132.847656 185.050781 C 132.691406 185.050781 132.628906 185.113281 132.597656 185.238281 C 132.035156 187.082031 130.722656 187.332031 130.003906 187.332031 C 128.941406 187.332031 127.191406 186.488281 127.191406 183.269531 Z M 127.191406 183.269531 "/>
<path style=" stroke:none;fill-rule:nonzero;fill:rgb(0%,0%,0%);fill-opacity:1;" d="M 143.078125 183.332031 C 143.078125 180.800781 141.109375 178.675781 138.703125 178.675781 C 136.203125 178.675781 134.265625 180.863281 134.265625 183.332031 C 134.265625 185.925781 136.328125 187.832031 138.671875 187.832031 C 141.078125 187.832031 143.078125 185.863281 143.078125 183.332031 Z M 138.703125 187.332031 C 137.828125 187.332031 136.953125 186.925781 136.421875 185.988281 C 135.921875 185.113281 135.921875 183.894531 135.921875 183.175781 C 135.921875 182.394531 135.921875 181.332031 136.390625 180.457031 C 136.921875 179.550781 137.859375 179.113281 138.671875 179.113281 C 139.546875 179.113281 140.390625 179.550781 140.921875 180.425781 C 141.453125 181.269531 141.453125 182.425781 141.453125 183.175781 C 141.453125 183.894531 141.453125 184.988281 141.015625 185.863281 C 140.546875 186.769531 139.671875 187.332031 138.703125 187.332031 Z M 138.703125 187.332031 "/>
<path style=" stroke:none;fill-rule:nonzero;fill:rgb(0%,0%,0%);fill-opacity:1;" d="M 147.824219 183.738281 C 148.261719 183.832031 149.886719 184.144531 149.886719 185.582031 C 149.886719 186.582031 149.199219 187.394531 147.636719 187.394531 C 145.949219 187.394531 145.230469 186.269531 144.855469 184.550781 C 144.792969 184.300781 144.792969 184.238281 144.574219 184.238281 C 144.324219 184.238281 144.324219 184.363281 144.324219 184.707031 L 144.324219 187.363281 C 144.324219 187.707031 144.324219 187.832031 144.542969 187.832031 C 144.636719 187.832031 144.667969 187.800781 145.042969 187.425781 C 145.074219 187.394531 145.074219 187.363281 145.449219 186.988281 C 146.324219 187.800781 147.230469 187.832031 147.636719 187.832031 C 149.917969 187.832031 150.855469 186.488281 150.855469 185.050781 C 150.855469 184.019531 150.261719 183.394531 150.011719 183.175781 C 149.355469 182.519531 148.574219 182.363281 147.730469 182.207031 C 146.605469 181.988281 145.292969 181.738281 145.292969 180.582031 C 145.292969 179.863281 145.792969 179.050781 147.511719 179.050781 C 149.699219 179.050781 149.824219 180.863281 149.855469 181.457031 C 149.855469 181.644531 150.042969 181.644531 150.074219 181.644531 C 150.355469 181.644531 150.355469 181.550781 150.355469 181.175781 L 150.355469 179.144531 C 150.355469 178.832031 150.355469 178.675781 150.136719 178.675781 C 150.042969 178.675781 149.980469 178.675781 149.730469 178.925781 C 149.667969 178.988281 149.480469 179.175781 149.386719 179.238281 C 148.636719 178.675781 147.824219 178.675781 147.511719 178.675781 C 145.074219 178.675781 144.324219 180.019531 144.324219 181.144531 C 144.324219 181.832031 144.636719 182.394531 145.167969 182.832031 C 145.824219 183.332031 146.386719 183.457031 147.824219 183.738281 Z M 147.824219 183.738281 "/>
<path style=" stroke:none;fill-rule:nonzero;fill:rgb(0%,0%,0%);fill-opacity:1;" d="M 163.910156 177.644531 C 163.910156 176.332031 163.566406 173.550781 161.535156 173.550781 C 158.753906 173.550781 155.691406 179.175781 155.691406 183.738281 C 155.691406 185.613281 156.253906 187.832031 158.066406 187.832031 C 160.878906 187.832031 163.910156 182.113281 163.910156 177.644531 Z M 157.785156 180.363281 C 158.128906 179.113281 158.535156 177.519531 159.347656 176.082031 C 159.878906 175.113281 160.597656 173.988281 161.503906 173.988281 C 162.472656 173.988281 162.597656 175.269531 162.597656 176.394531 C 162.597656 177.394531 162.441406 178.394531 161.972656 180.363281 Z M 161.785156 181.019531 C 161.566406 181.925781 161.160156 183.613281 160.378906 185.050781 C 159.691406 186.425781 158.941406 187.394531 158.066406 187.394531 C 157.410156 187.394531 157.003906 186.800781 157.003906 184.957031 C 157.003906 184.113281 157.128906 182.957031 157.628906 181.019531 Z M 161.785156 181.019531 "/>
<path style="fill:none;stroke-width:1.2;stroke-linecap:butt;stroke-linejoin:miter;stroke:rgb(100%,0%,0%);stroke-opacity:1;stroke-miterlimit:4;" d="M 254.683594 200.832031 L 254.683594 258.429688 "/>
<path style="fill-rule:evenodd;fill:rgb(100%,0%,0%);fill-opacity:1;stroke-width:0.3;stroke-linecap:butt;stroke-linejoin:miter;stroke:rgb(100%,0%,0%);stroke-opacity:1;stroke-miterlimit:4;" d="M 202.269531 -254.683594 L 203.472656 -255.882812 L 199.269531 -254.683594 L 203.472656 -253.484375 Z M 202.269531 -254.683594 " transform="matrix(0,1,-1,0,0,0)"/>
<path style="fill:none;stroke-width:1.2;stroke-linecap:butt;stroke-linejoin:miter;stroke:rgb(100%,0%,0%);stroke-opacity:1;stroke-miterlimit:4;" d="M 254.683594 359.230469 L 254.683594 301.632812 "/>
<path style="fill-rule:evenodd;fill:rgb(100%,0%,0%);fill-opacity:1;stroke-width:0.3;stroke-linecap:butt;stroke-linejoin:miter;stroke:rgb(100%,0%,0%);stroke-opacity:1;stroke-miterlimit:4;" d="M -357.792969 254.683594 L -356.589844 253.484375 L -360.792969 254.683594 L -356.589844 255.882812 Z M -357.792969 254.683594 " transform="matrix(0,-1,1,0,0,0)"/>
<path style=" stroke:none;fill-rule:nonzero;fill:rgb(0%,0%,0%);fill-opacity:1;" d="M 252.421875 293.75 C 252.515625 293.3125 252.828125 291.6875 254.265625 291.6875 C 255.265625 291.6875 256.078125 292.375 256.078125 293.9375 C 256.078125 295.625 254.953125 296.34375 253.234375 296.71875 C 252.984375 296.78125 252.921875 296.78125 252.921875 297 C 252.921875 297.25 253.046875 297.25 253.390625 297.25 L 256.046875 297.25 C 256.390625 297.25 256.515625 297.25 256.515625 297.03125 C 256.515625 296.9375 256.484375 296.90625 256.109375 296.53125 C 256.078125 296.5 256.046875 296.5 255.671875 296.125 C 256.484375 295.25 256.515625 294.34375 256.515625 293.9375 C 256.515625 291.65625 255.171875 290.71875 253.734375 290.71875 C 252.703125 290.71875 252.078125 291.3125 251.859375 291.5625 C 251.203125 292.21875 251.046875 293 250.890625 293.84375 C 250.671875 294.96875 250.421875 296.28125 249.265625 296.28125 C 248.546875 296.28125 247.734375 295.78125 247.734375 294.0625 C 247.734375 291.875 249.546875 291.75 250.140625 291.71875 C 250.328125 291.71875 250.328125 291.53125 250.328125 291.5 C 250.328125 291.21875 250.234375 291.21875 249.859375 291.21875 L 247.828125 291.21875 C 247.515625 291.21875 247.359375 291.21875 247.359375 291.4375 C 247.359375 291.53125 247.359375 291.59375 247.609375 291.84375 C 247.671875 291.90625 247.859375 292.09375 247.921875 292.1875 C 247.359375 292.9375 247.359375 293.75 247.359375 294.0625 C 247.359375 296.5 248.703125 297.25 249.828125 297.25 C 250.515625 297.25 251.078125 296.9375 251.515625 296.40625 C 252.015625 295.75 252.140625 295.1875 252.421875 293.75 Z M 252.421875 293.75 "/>
<path style=" stroke:none;fill-rule:nonzero;fill:rgb(0%,0%,0%);fill-opacity:1;" d="M 247.484375 286.515625 L 247.703125 289.296875 L 248.328125 289.296875 C 248.328125 288.015625 248.453125 287.828125 249.421875 287.828125 L 254.796875 287.828125 C 255.671875 287.828125 255.671875 288.046875 255.671875 289.390625 L 256.296875 289.390625 C 256.265625 288.765625 256.234375 287.671875 256.234375 287.203125 C 256.234375 286.484375 256.265625 285.796875 256.296875 285.109375 L 255.671875 285.109375 C 255.671875 286.453125 255.578125 286.515625 254.796875 286.515625 Z M 244.015625 286.453125 C 243.390625 286.453125 242.953125 286.921875 242.953125 287.484375 C 242.953125 288.109375 243.484375 288.546875 244.015625 288.546875 C 244.546875 288.546875 245.078125 288.109375 245.078125 287.484375 C 245.078125 286.921875 244.640625 286.453125 244.015625 286.453125 Z M 244.015625 286.453125 "/>
<path style=" stroke:none;fill-rule:nonzero;fill:rgb(0%,0%,0%);fill-opacity:1;" d="M 249.453125 282.324219 L 254.796875 282.324219 C 255.671875 282.324219 255.671875 282.542969 255.671875 283.886719 L 256.296875 283.886719 C 256.265625 283.167969 256.234375 282.167969 256.234375 281.605469 C 256.234375 281.105469 256.265625 280.074219 256.296875 279.386719 L 255.671875 279.386719 C 255.671875 280.730469 255.671875 280.949219 254.796875 280.949219 L 251.109375 280.949219 C 249.046875 280.949219 247.921875 279.511719 247.921875 278.261719 C 247.921875 276.980469 248.984375 276.761719 250.140625 276.761719 L 254.796875 276.761719 C 255.671875 276.761719 255.671875 276.980469 255.671875 278.324219 L 256.296875 278.324219 C 256.265625 277.636719 256.234375 276.605469 256.234375 276.074219 C 256.234375 275.574219 256.265625 274.511719 256.296875 273.855469 L 255.671875 273.855469 C 255.671875 274.886719 255.671875 275.386719 255.078125 275.386719 L 251.265625 275.386719 C 249.546875 275.386719 248.953125 275.386719 248.234375 276.011719 C 247.890625 276.292969 247.484375 276.949219 247.484375 278.105469 C 247.484375 279.574219 248.328125 280.511719 249.578125 281.074219 L 247.484375 281.074219 L 247.703125 283.886719 L 248.328125 283.886719 C 248.328125 282.480469 248.453125 282.324219 249.453125 282.324219 Z M 249.453125 282.324219 "/>
<path style=" stroke:none;fill-rule:nonzero;fill:rgb(0%,0%,0%);fill-opacity:1;" d="M 246.328125 261.0625 C 245.015625 261.0625 242.234375 261.40625 242.234375 263.4375 C 242.234375 266.21875 247.859375 269.28125 252.421875 269.28125 C 254.296875 269.28125 256.515625 268.71875 256.515625 266.90625 C 256.515625 264.09375 250.796875 261.0625 246.328125 261.0625 Z M 249.046875 267.1875 C 247.796875 266.84375 246.203125 266.4375 244.765625 265.625 C 243.796875 265.09375 242.671875 264.375 242.671875 263.46875 C 242.671875 262.5 243.953125 262.375 245.078125 262.375 C 246.078125 262.375 247.078125 262.53125 249.046875 263 Z M 249.703125 263.1875 C 250.609375 263.40625 252.296875 263.8125 253.734375 264.59375 C 255.109375 265.28125 256.078125 266.03125 256.078125 266.90625 C 256.078125 267.5625 255.484375 267.96875 253.640625 267.96875 C 252.796875 267.96875 251.640625 267.84375 249.703125 267.34375 Z M 249.703125 263.1875 "/>
<path style="fill:none;stroke-width:0.8;stroke-linecap:butt;stroke-linejoin:miter;stroke:rgb(0%,0%,0%);stroke-opacity:1;stroke-miterlimit:4;" d="M 29.085938 47.230469 L 29.085938 364.03125 L 345.882812 364.03125 "/>
<use xlink:href="#surface28" transform="matrix(1,0,0,1,813,19)" mask="url(#mask3)"/>
<use xlink:href="#surface29" transform="matrix(1,0,0,1,814,22)" mask="url(#mask4)"/>
<path style=" stroke:none;fill-rule:nonzero;fill:rgb(0%,0%,0%);fill-opacity:1;" d="M 839.679688 29.949219 C 839.679688 28.636719 839.335938 25.855469 837.304688 25.855469 C 834.523438 25.855469 831.460938 31.480469 831.460938 36.042969 C 831.460938 37.917969 832.023438 40.136719 833.835938 40.136719 C 836.648438 40.136719 839.679688 34.417969 839.679688 29.949219 Z M 833.554688 32.667969 C 833.898438 31.417969 834.304688 29.824219 835.117188 28.386719 C 835.648438 27.417969 836.367188 26.292969 837.273438 26.292969 C 838.242188 26.292969 838.367188 27.574219 838.367188 28.699219 C 838.367188 29.699219 838.210938 30.699219 837.742188 32.667969 Z M 837.554688 33.324219 C 837.335938 34.230469 836.929688 35.917969 836.148438 37.355469 C 835.460938 38.730469 834.710938 39.699219 833.835938 39.699219 C 833.179688 39.699219 832.773438 39.105469 832.773438 37.261719 C 832.773438 36.417969 832.898438 35.261719 833.398438 33.324219 Z M 837.554688 33.324219 "/>
<path style="fill:none;stroke-width:2.4;stroke-linecap:butt;stroke-linejoin:miter;stroke:rgb(0%,0%,0%);stroke-opacity:1;stroke-miterlimit:4;" d="M 875.226562 19.960938 L 488.980469 19.960938 "/>
<g clip-path="url(#clip17)" clip-rule="nonzero">
<path style="fill:none;stroke-width:2.4;stroke-linecap:butt;stroke-linejoin:miter;stroke:rgb(0%,0%,0%);stroke-opacity:1;stroke-miterlimit:4;" d="M 488.980469 307.960938 L 874.519531 19.960938 "/>
</g>
</g>
</svg>
