<?xml version="1.0" encoding="UTF-8"?>
<svg xmlns="http://www.w3.org/2000/svg" xmlns:xlink="http://www.w3.org/1999/xlink" width="363.191315pt" height="315.679291pt" viewBox="0 0 363.191315 315.679291" version="1.1">
<defs>
<clipPath id="clip1">
  <path d="M 0 201 L 116 201 L 116 315.679688 L 0 315.679688 Z M 0 201 "/>
</clipPath>
<filter id="alpha" filterUnits="objectBoundingBox" x="0%" y="0%" width="100%" height="100%">
  <feColorMatrix type="matrix" in="SourceGraphic" values="0 0 0 0 1 0 0 0 0 1 0 0 0 0 1 0 0 0 1 0"/>
</filter>
<clipPath id="clip3">
  <path d="M 0 0 L 116 0 L 116 114.679688 L 0 114.679688 Z M 0 0 "/>
</clipPath>
<clipPath id="clip2">
  <rect width="116" height="115"/>
</clipPath>
<g id="surface8" clip-path="url(#clip2)">
<g clip-path="url(#clip3)" clip-rule="nonzero">
<rect x="0" y="0" width="116" height="115" style="fill:rgb(0%,0%,0%);fill-opacity:0.97;stroke:none;"/>
</g>
</g>
<mask id="mask0">
  <g filter="url(#alpha)">
<use xlink:href="#surface8"/>
  </g>
</mask>
<clipPath id="clip5">
  <path d="M 0 0 L 116 0 L 116 114.679688 L 0 114.679688 Z M 0 0 "/>
</clipPath>
<clipPath id="clip4">
  <rect width="116" height="115"/>
</clipPath>
<g id="surface5" clip-path="url(#clip4)">
<g clip-path="url(#clip5)" clip-rule="nonzero">
<path style="fill:none;stroke-width:1.6;stroke-linecap:round;stroke-linejoin:round;stroke:rgb(100%,0%,0%);stroke-opacity:1;stroke-miterlimit:4;" d="M 111.5 -255.363281 C 111 -225.273437 84.816406 -201.125 54.933594 -202.0625 C 24.300781 -203.023437 -0.25 -229.644531 0.839844 -260.1875 C 1.945312 -291.1875 28.90625 -316.015625 59.851562 -314.847656 C 91.128906 -313.664062 116.164062 -286.449219 114.949219 -255.214844 C 114.566406 -245.386719 111.628906 -235.710937 106.492188 -227.328125 " transform="matrix(1,0,0,-1,0,-201)"/>
</g>
<path style="fill-rule:evenodd;fill:rgb(100%,0%,0%);fill-opacity:1;stroke-width:0.399945;stroke-linecap:butt;stroke-linejoin:miter;stroke:rgb(100%,0%,0%);stroke-opacity:1;stroke-miterlimit:4;" d="M -255.230625 -107.218879 L -253.628375 -108.819777 L -259.230621 -107.218681 L -253.629792 -105.620535 Z M -255.230625 -107.218879 " transform="matrix(-0.0166511,-1,-1,0.0166511,0,-201)"/>
<path style="fill-rule:evenodd;fill:rgb(100%,0%,0%);fill-opacity:1;stroke-width:0.341065;stroke-linecap:butt;stroke-linejoin:miter;stroke:rgb(100%,0%,0%);stroke-opacity:1;stroke-miterlimit:4;" d="M 214.352847 -23.846899 L 215.715089 -25.212852 L 210.942558 -23.847115 L 215.71596 -22.482916 Z M 214.352847 -23.846899 " transform="matrix(0.612742,1,1,-0.612742,0,-201)"/>
</g>
<clipPath id="clip6">
  <path d="M 226 22 L 363.191406 22 L 363.191406 301 L 226 301 Z M 226 22 "/>
</clipPath>
<clipPath id="clip7">
  <path d="M 350 167 L 363.191406 167 L 363.191406 174 L 350 174 Z M 350 167 "/>
</clipPath>
<clipPath id="clip8">
  <path d="M 354 156 L 363.191406 156 L 363.191406 166 L 354 166 Z M 354 156 "/>
</clipPath>
<clipPath id="clip9">
  <path d="M 348 132 L 363.191406 132 L 363.191406 141 L 348 141 Z M 348 132 "/>
</clipPath>
</defs>
<g id="surface1">
<g clip-path="url(#clip1)" clip-rule="nonzero">
<use xlink:href="#surface5" transform="matrix(1,0,0,1,0,201)" mask="url(#mask0)"/>
</g>
<path style="fill:none;stroke-width:1.6;stroke-linecap:butt;stroke-linejoin:miter;stroke:rgb(100%,0%,0%);stroke-opacity:1;stroke-miterlimit:4;" d="M 307.046875 259.191406 L 307.046875 239.988281 L 287.84375 239.988281 "/>
<g clip-path="url(#clip6)" clip-rule="nonzero">
<path style="fill:none;stroke-width:3.2;stroke-linecap:butt;stroke-linejoin:miter;stroke:rgb(0%,0%,0%);stroke-opacity:1;stroke-dasharray:3.2,3.2;stroke-miterlimit:4;" d="M 244.433594 40.21875 C 314.554688 100.128906 351.746094 189.996094 344.460938 281.9375 "/>
</g>
<path style=" stroke:none;fill-rule:nonzero;fill:rgb(0%,0%,0%);fill-opacity:1;" d="M 152.472656 164.582031 C 152.164062 164.191406 152.144531 164.164062 151.773438 164.453125 C 151.582031 166.234375 150.203125 167.3125 149.710938 167.699219 L 150.097656 168.191406 C 150.417969 167.941406 151.328125 167.226562 151.8125 166.171875 L 158.191406 174.316406 C 158.632812 174.878906 158.71875 175.089844 157.316406 176.191406 L 156.824219 176.574219 L 157.210938 177.066406 C 157.714844 176.59375 159.066406 175.535156 159.707031 175.03125 C 160.320312 174.550781 161.699219 173.472656 162.277344 173.097656 L 161.890625 172.605469 L 161.398438 172.992188 C 159.972656 174.109375 159.8125 173.957031 159.371094 173.390625 Z M 152.472656 164.582031 "/>
<path style=" stroke:none;fill-rule:nonzero;fill:rgb(0%,0%,0%);fill-opacity:1;" d="M 170.730469 274.957031 C 170.730469 271.707031 172.355469 270.863281 173.417969 270.863281 C 173.605469 270.863281 174.855469 270.894531 175.542969 271.613281 C 174.730469 271.675781 174.605469 272.269531 174.605469 272.519531 C 174.605469 273.050781 174.980469 273.425781 175.511719 273.425781 C 176.042969 273.425781 176.449219 273.113281 176.449219 272.488281 C 176.449219 271.144531 174.917969 270.363281 173.386719 270.363281 C 170.886719 270.363281 169.074219 272.519531 169.074219 274.988281 C 169.074219 277.550781 171.042969 279.519531 173.355469 279.519531 C 176.011719 279.519531 176.667969 277.113281 176.667969 276.925781 C 176.667969 276.738281 176.449219 276.738281 176.386719 276.738281 C 176.230469 276.738281 176.167969 276.800781 176.136719 276.925781 C 175.574219 278.769531 174.261719 279.019531 173.542969 279.019531 C 172.480469 279.019531 170.730469 278.175781 170.730469 274.957031 Z M 170.730469 274.957031 "/>
<path style=" stroke:none;fill-rule:nonzero;fill:rgb(0%,0%,0%);fill-opacity:1;" d="M 186.617188 275.019531 C 186.617188 272.488281 184.648438 270.363281 182.242188 270.363281 C 179.742188 270.363281 177.804688 272.550781 177.804688 275.019531 C 177.804688 277.613281 179.867188 279.519531 182.210938 279.519531 C 184.617188 279.519531 186.617188 277.550781 186.617188 275.019531 Z M 182.242188 279.019531 C 181.367188 279.019531 180.492188 278.613281 179.960938 277.675781 C 179.460938 276.800781 179.460938 275.582031 179.460938 274.863281 C 179.460938 274.082031 179.460938 273.019531 179.929688 272.144531 C 180.460938 271.238281 181.398438 270.800781 182.210938 270.800781 C 183.085938 270.800781 183.929688 271.238281 184.460938 272.113281 C 184.992188 272.957031 184.992188 274.113281 184.992188 274.863281 C 184.992188 275.582031 184.992188 276.675781 184.554688 277.550781 C 184.085938 278.457031 183.210938 279.019531 182.242188 279.019531 Z M 182.242188 279.019531 "/>
<path style=" stroke:none;fill-rule:nonzero;fill:rgb(0%,0%,0%);fill-opacity:1;" d="M 191.359375 275.425781 C 191.796875 275.519531 193.421875 275.832031 193.421875 277.269531 C 193.421875 278.269531 192.734375 279.082031 191.171875 279.082031 C 189.484375 279.082031 188.765625 277.957031 188.390625 276.238281 C 188.328125 275.988281 188.328125 275.925781 188.109375 275.925781 C 187.859375 275.925781 187.859375 276.050781 187.859375 276.394531 L 187.859375 279.050781 C 187.859375 279.394531 187.859375 279.519531 188.078125 279.519531 C 188.171875 279.519531 188.203125 279.488281 188.578125 279.113281 C 188.609375 279.082031 188.609375 279.050781 188.984375 278.675781 C 189.859375 279.488281 190.765625 279.519531 191.171875 279.519531 C 193.453125 279.519531 194.390625 278.175781 194.390625 276.738281 C 194.390625 275.707031 193.796875 275.082031 193.546875 274.863281 C 192.890625 274.207031 192.109375 274.050781 191.265625 273.894531 C 190.140625 273.675781 188.828125 273.425781 188.828125 272.269531 C 188.828125 271.550781 189.328125 270.738281 191.046875 270.738281 C 193.234375 270.738281 193.359375 272.550781 193.390625 273.144531 C 193.390625 273.332031 193.578125 273.332031 193.609375 273.332031 C 193.890625 273.332031 193.890625 273.238281 193.890625 272.863281 L 193.890625 270.832031 C 193.890625 270.519531 193.890625 270.363281 193.671875 270.363281 C 193.578125 270.363281 193.515625 270.363281 193.265625 270.613281 C 193.203125 270.675781 193.015625 270.863281 192.921875 270.925781 C 192.171875 270.363281 191.359375 270.363281 191.046875 270.363281 C 188.609375 270.363281 187.859375 271.707031 187.859375 272.832031 C 187.859375 273.519531 188.171875 274.082031 188.703125 274.519531 C 189.359375 275.019531 189.921875 275.144531 191.359375 275.425781 Z M 191.359375 275.425781 "/>
<path style=" stroke:none;fill-rule:nonzero;fill:rgb(0%,0%,0%);fill-opacity:1;" d="M 207.445312 269.332031 C 207.445312 268.019531 207.101562 265.238281 205.070312 265.238281 C 202.289062 265.238281 199.226562 270.863281 199.226562 275.425781 C 199.226562 277.300781 199.789062 279.519531 201.601562 279.519531 C 204.414062 279.519531 207.445312 273.800781 207.445312 269.332031 Z M 201.320312 272.050781 C 201.664062 270.800781 202.070312 269.207031 202.882812 267.769531 C 203.414062 266.800781 204.132812 265.675781 205.039062 265.675781 C 206.007812 265.675781 206.132812 266.957031 206.132812 268.082031 C 206.132812 269.082031 205.976562 270.082031 205.507812 272.050781 Z M 205.320312 272.707031 C 205.101562 273.613281 204.695312 275.300781 203.914062 276.738281 C 203.226562 278.113281 202.476562 279.082031 201.601562 279.082031 C 200.945312 279.082031 200.539062 278.488281 200.539062 276.644531 C 200.539062 275.800781 200.664062 274.644531 201.164062 272.707031 Z M 205.320312 272.707031 "/>
<path style=" stroke:none;fill-rule:nonzero;fill:rgb(0%,0%,0%);fill-opacity:1;" d="M 280.007812 199.144531 C 280.101562 198.707031 280.414062 197.082031 281.851562 197.082031 C 282.851562 197.082031 283.664062 197.769531 283.664062 199.332031 C 283.664062 201.019531 282.539062 201.738281 280.820312 202.113281 C 280.570312 202.175781 280.507812 202.175781 280.507812 202.394531 C 280.507812 202.644531 280.632812 202.644531 280.976562 202.644531 L 283.632812 202.644531 C 283.976562 202.644531 284.101562 202.644531 284.101562 202.425781 C 284.101562 202.332031 284.070312 202.300781 283.695312 201.925781 C 283.664062 201.894531 283.632812 201.894531 283.257812 201.519531 C 284.070312 200.644531 284.101562 199.738281 284.101562 199.332031 C 284.101562 197.050781 282.757812 196.113281 281.320312 196.113281 C 280.289062 196.113281 279.664062 196.707031 279.445312 196.957031 C 278.789062 197.613281 278.632812 198.394531 278.476562 199.238281 C 278.257812 200.363281 278.007812 201.675781 276.851562 201.675781 C 276.132812 201.675781 275.320312 201.175781 275.320312 199.457031 C 275.320312 197.269531 277.132812 197.144531 277.726562 197.113281 C 277.914062 197.113281 277.914062 196.925781 277.914062 196.894531 C 277.914062 196.613281 277.820312 196.613281 277.445312 196.613281 L 275.414062 196.613281 C 275.101562 196.613281 274.945312 196.613281 274.945312 196.832031 C 274.945312 196.925781 274.945312 196.988281 275.195312 197.238281 C 275.257812 197.300781 275.445312 197.488281 275.507812 197.582031 C 274.945312 198.332031 274.945312 199.144531 274.945312 199.457031 C 274.945312 201.894531 276.289062 202.644531 277.414062 202.644531 C 278.101562 202.644531 278.664062 202.332031 279.101562 201.800781 C 279.601562 201.144531 279.726562 200.582031 280.007812 199.144531 Z M 280.007812 199.144531 "/>
<path style=" stroke:none;fill-rule:nonzero;fill:rgb(0%,0%,0%);fill-opacity:1;" d="M 275.070312 191.910156 L 275.289062 194.691406 L 275.914062 194.691406 C 275.914062 193.410156 276.039062 193.222656 277.007812 193.222656 L 282.382812 193.222656 C 283.257812 193.222656 283.257812 193.441406 283.257812 194.785156 L 283.882812 194.785156 C 283.851562 194.160156 283.820312 193.066406 283.820312 192.597656 C 283.820312 191.878906 283.851562 191.191406 283.882812 190.503906 L 283.257812 190.503906 C 283.257812 191.847656 283.164062 191.910156 282.382812 191.910156 Z M 271.601562 191.847656 C 270.976562 191.847656 270.539062 192.316406 270.539062 192.878906 C 270.539062 193.503906 271.070312 193.941406 271.601562 193.941406 C 272.132812 193.941406 272.664062 193.503906 272.664062 192.878906 C 272.664062 192.316406 272.226562 191.847656 271.601562 191.847656 Z M 271.601562 191.847656 "/>
<path style=" stroke:none;fill-rule:nonzero;fill:rgb(0%,0%,0%);fill-opacity:1;" d="M 277.039062 187.71875 L 282.382812 187.71875 C 283.257812 187.71875 283.257812 187.9375 283.257812 189.28125 L 283.882812 189.28125 C 283.851562 188.5625 283.820312 187.5625 283.820312 187 C 283.820312 186.5 283.851562 185.46875 283.882812 184.78125 L 283.257812 184.78125 C 283.257812 186.125 283.257812 186.34375 282.382812 186.34375 L 278.695312 186.34375 C 276.632812 186.34375 275.507812 184.90625 275.507812 183.65625 C 275.507812 182.375 276.570312 182.15625 277.726562 182.15625 L 282.382812 182.15625 C 283.257812 182.15625 283.257812 182.375 283.257812 183.71875 L 283.882812 183.71875 C 283.851562 183.03125 283.820312 182 283.820312 181.46875 C 283.820312 180.96875 283.851562 179.90625 283.882812 179.25 L 283.257812 179.25 C 283.257812 180.28125 283.257812 180.78125 282.664062 180.78125 L 278.851562 180.78125 C 277.132812 180.78125 276.539062 180.78125 275.820312 181.40625 C 275.476562 181.6875 275.070312 182.34375 275.070312 183.5 C 275.070312 184.96875 275.914062 185.90625 277.164062 186.46875 L 275.070312 186.46875 L 275.289062 189.28125 L 275.914062 189.28125 C 275.914062 187.875 276.039062 187.71875 277.039062 187.71875 Z M 277.039062 187.71875 "/>
<path style=" stroke:none;fill-rule:nonzero;fill:rgb(0%,0%,0%);fill-opacity:1;" d="M 273.914062 166.453125 C 272.601562 166.453125 269.820312 166.796875 269.820312 168.828125 C 269.820312 171.609375 275.445312 174.671875 280.007812 174.671875 C 281.882812 174.671875 284.101562 174.109375 284.101562 172.296875 C 284.101562 169.484375 278.382812 166.453125 273.914062 166.453125 Z M 276.632812 172.578125 C 275.382812 172.234375 273.789062 171.828125 272.351562 171.015625 C 271.382812 170.484375 270.257812 169.765625 270.257812 168.859375 C 270.257812 167.890625 271.539062 167.765625 272.664062 167.765625 C 273.664062 167.765625 274.664062 167.921875 276.632812 168.390625 Z M 277.289062 168.578125 C 278.195312 168.796875 279.882812 169.203125 281.320312 169.984375 C 282.695312 170.671875 283.664062 171.421875 283.664062 172.296875 C 283.664062 172.953125 283.070312 173.359375 281.226562 173.359375 C 280.382812 173.359375 279.226562 173.234375 277.289062 172.734375 Z M 277.289062 168.578125 "/>
<path style="fill:none;stroke-width:2.4;stroke-linecap:butt;stroke-linejoin:miter;stroke:rgb(0%,0%,0%);stroke-opacity:1;stroke-miterlimit:4;" d="M 57.359375 259.191406 L 345.359375 259.191406 "/>
<path style="fill:none;stroke-width:0.8;stroke-linecap:butt;stroke-linejoin:miter;stroke:rgb(0%,0%,0%);stroke-opacity:1;stroke-miterlimit:4;" d="M 345.359375 259.191406 L 345.359375 -0.0117188 "/>
<path style="fill:none;stroke-width:0.8;stroke-linecap:butt;stroke-linejoin:miter;stroke:rgb(0%,0%,0%);stroke-opacity:1;stroke-miterlimit:4;" d="M 57.359375 259.191406 L 345.359375 43.191406 "/>
<path style="fill:none;stroke-width:2.4;stroke-linecap:butt;stroke-linejoin:miter;stroke:rgb(0%,0%,0%);stroke-opacity:1;stroke-miterlimit:4;" d="M 57.359375 259.191406 L 287.761719 86.390625 "/>
<path style="fill:none;stroke-width:2.4;stroke-linecap:butt;stroke-linejoin:miter;stroke:rgb(0%,0%,0%);stroke-opacity:1;stroke-miterlimit:4;" d="M 287.761719 86.390625 L 287.761719 259.191406 "/>
<path style="fill:none;stroke-width:2.4;stroke-linecap:butt;stroke-linejoin:miter;stroke:rgb(0%,0%,0%);stroke-opacity:1;stroke-miterlimit:4;" d="M 345.359375 43.191406 L 345.359375 259.191406 "/>
<path style="fill:none;stroke-width:1.2;stroke-linecap:butt;stroke-linejoin:miter;stroke:rgb(100%,0%,0%);stroke-opacity:1;stroke-miterlimit:4;" d="M 62.160156 273.589844 L 162.960938 273.589844 "/>
<path style="fill-rule:evenodd;fill:rgb(100%,0%,0%);fill-opacity:1;stroke-width:0.3;stroke-linecap:butt;stroke-linejoin:miter;stroke:rgb(100%,0%,0%);stroke-opacity:1;stroke-miterlimit:4;" d="M 63.601562 273.589844 L 64.800781 272.390625 L 60.601562 273.589844 L 64.800781 274.789062 Z M 63.601562 273.589844 "/>
<path style="fill:none;stroke-width:1.2;stroke-linecap:butt;stroke-linejoin:miter;stroke:rgb(100%,0%,0%);stroke-opacity:1;stroke-miterlimit:4;" d="M 282.960938 273.589844 L 210.960938 273.589844 "/>
<path style="fill-rule:evenodd;fill:rgb(100%,0%,0%);fill-opacity:1;stroke-width:0.3;stroke-linecap:butt;stroke-linejoin:miter;stroke:rgb(100%,0%,0%);stroke-opacity:1;stroke-miterlimit:4;" d="M -281.519531 -273.589844 L -280.320312 -274.789062 L -284.519531 -273.589844 L -280.320312 -272.390625 Z M -281.519531 -273.589844 " transform="matrix(-1,0,0,-1,0,0)"/>
<path style="fill:none;stroke-width:1.2;stroke-linecap:butt;stroke-linejoin:miter;stroke:rgb(100%,0%,0%);stroke-opacity:1;stroke-miterlimit:4;" d="M 282.960938 254.390625 L 282.960938 206.390625 "/>
<path style="fill-rule:evenodd;fill:rgb(100%,0%,0%);fill-opacity:1;stroke-width:0.3;stroke-linecap:butt;stroke-linejoin:miter;stroke:rgb(100%,0%,0%);stroke-opacity:1;stroke-miterlimit:4;" d="M -252.949219 282.960938 L -251.75 281.761719 L -255.949219 282.960938 L -251.75 284.160156 Z M -252.949219 282.960938 " transform="matrix(0,-1,1,0,0,0)"/>
<path style="fill:none;stroke-width:1.2;stroke-linecap:butt;stroke-linejoin:miter;stroke:rgb(100%,0%,0%);stroke-opacity:1;stroke-miterlimit:4;" d="M 282.960938 95.988281 L 282.960938 163.191406 "/>
<path style="fill-rule:evenodd;fill:rgb(100%,0%,0%);fill-opacity:1;stroke-width:0.3;stroke-linecap:butt;stroke-linejoin:miter;stroke:rgb(100%,0%,0%);stroke-opacity:1;stroke-miterlimit:4;" d="M 97.429688 -282.960938 L 98.628906 -284.160156 L 94.429688 -282.960938 L 98.628906 -281.761719 Z M 97.429688 -282.960938 " transform="matrix(0,1,-1,0,0,0)"/>
<path style="fill:none;stroke-width:0.961034;stroke-linecap:butt;stroke-linejoin:miter;stroke:rgb(100%,0%,0%);stroke-opacity:1;stroke-miterlimit:4;" d="M -82.655126 188.108196 L 5.759481 188.107468 " transform="matrix(1,-0.747756,0.747756,1,0,0)"/>
<path style="fill-rule:evenodd;fill:rgb(100%,0%,0%);fill-opacity:1;stroke-width:0.240258;stroke-linecap:butt;stroke-linejoin:miter;stroke:rgb(100%,0%,0%);stroke-opacity:1;stroke-miterlimit:4;" d="M -81.503884 188.109669 L -80.542979 187.148504 L -83.904598 188.10749 L -80.542719 189.070574 Z M -81.503884 188.109669 " transform="matrix(1,-0.747756,0.747756,1,0,0)"/>
<path style="fill:none;stroke-width:0.961034;stroke-linecap:butt;stroke-linejoin:miter;stroke:rgb(100%,0%,0%);stroke-opacity:1;stroke-miterlimit:4;" d="M 140.30503 188.109241 L 28.824952 188.108718 " transform="matrix(1,-0.747756,0.747756,1,0,0)"/>
<path style="fill-rule:evenodd;fill:rgb(100%,0%,0%);fill-opacity:1;stroke-width:0.240258;stroke-linecap:butt;stroke-linejoin:miter;stroke:rgb(100%,0%,0%);stroke-opacity:1;stroke-miterlimit:4;" d="M -139.151915 -188.110273 L -138.19101 -189.071438 L -141.554502 -188.109947 L -138.190749 -187.149368 Z M -139.151915 -188.110273 " transform="matrix(-1,0.747756,-0.747756,-1,0,0)"/>
<path style="fill:none;stroke-width:1.2;stroke-linecap:butt;stroke-linejoin:miter;stroke:rgb(100%,0%,0%);stroke-opacity:1;stroke-miterlimit:4;" d="M 354.425781 47.488281 L 354.960938 129.589844 "/>
<path style="fill-rule:evenodd;fill:rgb(100%,0%,0%);fill-opacity:1;stroke-width:0.299994;stroke-linecap:butt;stroke-linejoin:miter;stroke:rgb(100%,0%,0%);stroke-opacity:1;stroke-miterlimit:4;" d="M 51.236831 -354.099193 L 52.43997 -355.298372 L 48.236831 -354.099242 L 52.439941 -352.899935 Z M 51.236831 -354.099193 " transform="matrix(0.00652656,1,-1,0.00652656,0,0)"/>
<path style="fill:none;stroke-width:1.2;stroke-linecap:butt;stroke-linejoin:miter;stroke:rgb(100%,0%,0%);stroke-opacity:1;stroke-miterlimit:4;" d="M 354.378906 254.996094 L 354.960938 177.589844 "/>
<path style="fill-rule:evenodd;fill:rgb(100%,0%,0%);fill-opacity:1;stroke-width:0.299992;stroke-linecap:butt;stroke-linejoin:miter;stroke:rgb(100%,0%,0%);stroke-opacity:1;stroke-miterlimit:4;" d="M -250.880098 356.276747 L -249.678185 355.076304 L -253.880105 356.275863 L -249.679685 357.474753 Z M -250.880098 356.276747 " transform="matrix(0.00751802,-1,1,0.00751802,0,0)"/>
<g clip-path="url(#clip7)" clip-rule="nonzero">
<path style=" stroke:none;fill-rule:nonzero;fill:rgb(0%,0%,0%);fill-opacity:1;" d="M 355.003906 170.429688 L 355.003906 167.554688 L 354.378906 167.554688 L 354.378906 170.429688 L 350.722656 170.429688 L 350.722656 170.929688 C 352.347656 170.929688 354.472656 171.523438 354.566406 173.492188 L 355.003906 173.492188 L 355.003906 171.804688 L 360.503906 171.804688 C 362.941406 171.804688 363.191406 169.929688 363.191406 169.210938 C 363.191406 167.804688 361.785156 167.242188 360.503906 167.242188 L 359.378906 167.242188 L 359.378906 167.742188 L 360.472656 167.742188 C 361.941406 167.742188 362.691406 168.335938 362.691406 169.085938 C 362.691406 170.429688 360.878906 170.429688 360.535156 170.429688 Z M 355.003906 170.429688 "/>
</g>
<g clip-path="url(#clip8)" clip-rule="nonzero">
<path style=" stroke:none;fill-rule:nonzero;fill:rgb(0%,0%,0%);fill-opacity:1;" d="M 361.472656 159.492188 C 362.253906 159.398438 363.097656 158.867188 363.097656 157.929688 C 363.097656 157.492188 362.816406 156.273438 361.191406 156.273438 L 360.066406 156.273438 L 360.066406 156.773438 L 361.191406 156.773438 C 362.347656 156.773438 362.472656 157.273438 362.472656 157.492188 C 362.472656 158.148438 361.566406 158.242188 361.472656 158.242188 L 357.503906 158.242188 C 356.660156 158.242188 355.878906 158.242188 355.128906 158.960938 C 354.347656 159.742188 354.035156 160.742188 354.035156 161.679688 C 354.035156 163.335938 354.972656 164.710938 356.285156 164.710938 C 356.878906 164.710938 357.222656 164.304688 357.222656 163.773438 C 357.222656 163.210938 356.816406 162.867188 356.316406 162.867188 C 356.066406 162.867188 355.410156 162.960938 355.410156 163.898438 C 354.691406 163.335938 354.472656 162.367188 354.472656 161.742188 C 354.472656 160.742188 355.253906 159.617188 357.035156 159.617188 L 357.753906 159.617188 C 357.816406 160.648438 357.878906 162.023438 358.472656 163.273438 C 359.160156 164.773438 360.191406 165.273438 361.066406 165.273438 C 362.691406 165.273438 363.191406 163.335938 363.191406 162.085938 C 363.191406 160.773438 362.378906 159.867188 361.472656 159.492188 Z M 358.191406 159.617188 L 360.191406 159.617188 C 362.066406 159.617188 362.753906 161.054688 362.753906 161.960938 C 362.753906 162.929688 362.066406 163.742188 361.066406 163.742188 C 359.972656 163.742188 358.316406 162.898438 358.191406 159.617188 Z M 358.191406 159.617188 "/>
</g>
<path style=" stroke:none;fill-rule:nonzero;fill:rgb(0%,0%,0%);fill-opacity:1;" d="M 356.128906 153.964844 L 361.472656 153.964844 C 362.347656 153.964844 362.347656 154.183594 362.347656 155.527344 L 362.972656 155.527344 C 362.941406 154.808594 362.910156 153.808594 362.910156 153.246094 C 362.910156 152.746094 362.941406 151.714844 362.972656 151.027344 L 362.347656 151.027344 C 362.347656 152.371094 362.347656 152.589844 361.472656 152.589844 L 357.785156 152.589844 C 355.722656 152.589844 354.597656 151.152344 354.597656 149.902344 C 354.597656 148.621094 355.660156 148.402344 356.816406 148.402344 L 361.472656 148.402344 C 362.347656 148.402344 362.347656 148.621094 362.347656 149.964844 L 362.972656 149.964844 C 362.941406 149.277344 362.910156 148.246094 362.910156 147.714844 C 362.910156 147.214844 362.941406 146.152344 362.972656 145.496094 L 362.347656 145.496094 C 362.347656 146.527344 362.347656 147.027344 361.753906 147.027344 L 357.941406 147.027344 C 356.222656 147.027344 355.628906 147.027344 354.910156 147.652344 C 354.566406 147.933594 354.160156 148.589844 354.160156 149.746094 C 354.160156 151.214844 355.003906 152.152344 356.253906 152.714844 L 354.160156 152.714844 L 354.378906 155.527344 L 355.003906 155.527344 C 355.003906 154.121094 355.128906 153.964844 356.128906 153.964844 Z M 356.128906 153.964844 "/>
<g clip-path="url(#clip9)" clip-rule="nonzero">
<path style=" stroke:none;fill-rule:nonzero;fill:rgb(0%,0%,0%);fill-opacity:1;" d="M 353.003906 132.699219 C 351.691406 132.699219 348.910156 133.042969 348.910156 135.074219 C 348.910156 137.855469 354.535156 140.917969 359.097656 140.917969 C 360.972656 140.917969 363.191406 140.355469 363.191406 138.542969 C 363.191406 135.730469 357.472656 132.699219 353.003906 132.699219 Z M 355.722656 138.824219 C 354.472656 138.480469 352.878906 138.074219 351.441406 137.261719 C 350.472656 136.730469 349.347656 136.011719 349.347656 135.105469 C 349.347656 134.136719 350.628906 134.011719 351.753906 134.011719 C 352.753906 134.011719 353.753906 134.167969 355.722656 134.636719 Z M 356.378906 134.824219 C 357.285156 135.042969 358.972656 135.449219 360.410156 136.230469 C 361.785156 136.917969 362.753906 137.667969 362.753906 138.542969 C 362.753906 139.199219 362.160156 139.605469 360.316406 139.605469 C 359.472656 139.605469 358.316406 139.480469 356.378906 138.980469 Z M 356.378906 134.824219 "/>
</g>
<path style=" stroke:none;fill-rule:nonzero;fill:rgb(0%,0%,0%);fill-opacity:1;" d="M 124.710938 233.539062 C 124.242188 232.3125 122.925781 229.839844 121.03125 230.5625 C 118.433594 231.558594 117.582031 237.90625 119.214844 242.167969 C 119.886719 243.917969 121.203125 245.789062 122.894531 245.140625 C 125.523438 244.136719 126.308594 237.710938 124.710938 233.539062 Z M 119.964844 238.265625 C 119.835938 236.976562 119.648438 235.34375 119.890625 233.710938 C 120.042969 232.617188 120.308594 231.308594 121.15625 230.984375 C 122.0625 230.636719 122.636719 231.789062 123.039062 232.839844 C 123.394531 233.773438 123.609375 234.765625 123.875 236.769531 Z M 123.933594 237.449219 C 124.054688 238.375 124.277344 240.097656 124.0625 241.71875 C 123.910156 243.246094 123.558594 244.421875 122.738281 244.734375 C 122.125 244.96875 121.535156 244.558594 120.875 242.835938 C 120.574219 242.046875 120.277344 240.925781 120.050781 238.9375 Z M 123.933594 237.449219 "/>
<path style=" stroke:none;fill-rule:nonzero;fill:rgb(0%,0%,0%);fill-opacity:1;" d="M 139.175781 233.757812 L 144.371094 231.769531 C 144.632812 231.667969 144.984375 231.53125 144.835938 231.152344 C 144.703125 230.804688 144.351562 230.9375 144.089844 231.039062 L 138.894531 233.027344 L 136.894531 227.804688 C 136.796875 227.539062 136.660156 227.191406 136.28125 227.335938 C 135.902344 227.480469 136.035156 227.832031 136.136719 228.09375 L 138.136719 233.316406 L 132.941406 235.304688 C 132.679688 235.40625 132.328125 235.539062 132.464844 235.890625 C 132.609375 236.269531 132.957031 236.136719 133.222656 236.035156 L 138.417969 234.046875 L 140.417969 239.269531 C 140.515625 239.535156 140.652344 239.882812 141.03125 239.738281 C 141.410156 239.59375 141.277344 239.242188 141.175781 238.980469 Z M 139.175781 233.757812 "/>
<path style=" stroke:none;fill-rule:nonzero;fill:rgb(0%,0%,0%);fill-opacity:1;" d="M 153.621094 231.503906 L 154.867188 228.820312 C 156.773438 225.144531 157.503906 223.726562 156.789062 221.859375 C 155.972656 219.730469 153.738281 218.878906 151.464844 219.75 C 149.363281 220.554688 148.648438 222.800781 149.285156 224.464844 C 149.675781 225.484375 150.609375 225.128906 150.667969 225.105469 C 150.992188 224.984375 151.554688 224.535156 151.253906 223.746094 C 151.074219 223.277344 150.535156 222.917969 149.890625 223.160156 C 149.746094 223.21875 149.714844 223.230469 149.667969 223.28125 C 149.609375 221.898438 150.375 220.835938 151.453125 220.421875 C 153.144531 219.773438 154.515625 220.992188 155.097656 222.507812 C 155.664062 223.996094 155.320312 225.800781 154.714844 227.371094 L 152.675781 232.703125 C 152.546875 232.988281 152.570312 233.042969 152.738281 233.484375 L 159.65625 230.835938 L 158.910156 227.40625 L 158.472656 227.574219 C 158.570312 228.171875 158.765625 229.035156 158.671875 229.402344 C 158.613281 229.59375 157.386719 230.0625 156.976562 230.21875 Z M 153.621094 231.503906 "/>
<path style=" stroke:none;fill-rule:nonzero;fill:rgb(0%,0%,0%);fill-opacity:1;" d="M 163.386719 221.441406 L 165.488281 220.636719 C 165.925781 223.617188 166.0625 224.5 166.542969 225.753906 C 166.644531 226.019531 166.832031 226.515625 167.226562 227.101562 C 167.742188 227.839844 167.992188 227.878906 168.253906 227.777344 C 168.632812 227.632812 168.917969 227.15625 168.773438 226.773438 C 168.730469 226.660156 168.71875 226.628906 168.5 226.410156 C 167.433594 225.28125 166.960938 224.054688 166.761719 223.53125 C 166.394531 222.566406 166.148438 221.488281 165.984375 220.449219 L 168.085938 219.644531 C 168.347656 219.542969 169.019531 219.285156 168.773438 218.644531 C 168.605469 218.207031 168.195312 218.363281 167.847656 218.496094 L 161.601562 220.886719 C 161.191406 221.042969 160.492188 221.3125 160.007812 222.5 C 159.648438 223.476562 159.476562 224.511719 159.507812 224.601562 C 159.519531 224.628906 159.585938 224.804688 159.820312 224.714844 C 159.964844 224.660156 159.960938 224.558594 160.023438 224.371094 C 160.378906 222.59375 161.460938 222.179688 161.839844 222.035156 L 162.890625 221.632812 C 163.167969 224.101562 163.035156 226.730469 162.894531 228.726562 C 162.859375 229.074219 162.871094 229.101562 162.925781 229.246094 C 163.0625 229.597656 163.410156 229.632812 163.640625 229.542969 C 164.195312 229.332031 164.140625 228.75 164.117188 227.988281 C 164.046875 227.011719 164.035156 226.984375 163.910156 225.960938 Z M 163.386719 221.441406 "/>
</g>
</svg>
