<?xml version="1.0" encoding="UTF-8"?>
<svg xmlns="http://www.w3.org/2000/svg" xmlns:xlink="http://www.w3.org/1999/xlink" width="728.350708pt" height="289.575012pt" viewBox="0 0 728.350708 289.575012" version="1.1">
<defs>
<filter id="alpha" filterUnits="objectBoundingBox" x="0%" y="0%" width="100%" height="100%">
  <feColorMatrix type="matrix" in="SourceGraphic" values="0 0 0 0 1 0 0 0 0 1 0 0 0 0 1 0 0 0 1 0"/>
</filter>
<clipPath id="clip1">
  <rect width="7" height="22"/>
</clipPath>
<g id="surface8" clip-path="url(#clip1)">
<rect x="0" y="0" width="7" height="22" style="fill:rgb(0%,0%,0%);fill-opacity:0.97;stroke:none;"/>
</g>
<mask id="mask0">
  <g filter="url(#alpha)">
<use xlink:href="#surface8"/>
  </g>
</mask>
<clipPath id="clip2">
  <rect width="7" height="22"/>
</clipPath>
<g id="surface10" clip-path="url(#clip2)">
<path style="fill:none;stroke-width:1.6;stroke-linecap:round;stroke-linejoin:round;stroke:rgb(100%,0%,0%);stroke-opacity:1;stroke-miterlimit:4;" d="M 101.425781 123.875 C 103.414062 128.96875 104.664062 134.324219 105.140625 139.769531 " transform="matrix(1,0,0,1,-100,-121)"/>
<path style="fill-rule:evenodd;fill:rgb(100%,0%,0%);fill-opacity:1;stroke-width:0.372701;stroke-linecap:butt;stroke-linejoin:miter;stroke:rgb(100%,0%,0%);stroke-opacity:1;stroke-miterlimit:4;" d="M 143.647177 -46.147706 L 145.137754 -47.637162 L 139.920298 -46.146894 L 145.140025 -44.655808 Z M 143.647177 -46.147706 " transform="matrix(0.389686,1,-1,0.389686,-100,-121)"/>
<path style="fill-rule:evenodd;fill:rgb(100%,0%,0%);fill-opacity:1;stroke-width:0.398478;stroke-linecap:butt;stroke-linejoin:miter;stroke:rgb(100%,0%,0%);stroke-opacity:1;stroke-miterlimit:4;" d="M -145.92246 92.20609 L -144.329787 90.611056 L -149.906754 92.205165 L -144.331302 93.798423 Z M -145.92246 92.20609 " transform="matrix(-0.0874887,-1,1,-0.0874887,-100,-121)"/>
</g>
<clipPath id="clip3">
  <path d="M 279 0 L 354 0 L 354 289.574219 L 279 289.574219 Z M 279 0 "/>
</clipPath>
<clipPath id="clip4">
  <rect width="7" height="23"/>
</clipPath>
<g id="surface14" clip-path="url(#clip4)">
<rect x="0" y="0" width="7" height="23" style="fill:rgb(0%,0%,0%);fill-opacity:0.97;stroke:none;"/>
</g>
<mask id="mask1">
  <g filter="url(#alpha)">
<use xlink:href="#surface14"/>
  </g>
</mask>
<clipPath id="clip5">
  <rect width="7" height="23"/>
</clipPath>
<g id="surface16" clip-path="url(#clip5)">
<path style="fill:none;stroke-width:1.6;stroke-linecap:round;stroke-linejoin:round;stroke:rgb(100%,0%,0%);stroke-opacity:1;stroke-miterlimit:4;" d="M 101.425781 -165.703125 C 103.472656 -160.453125 104.738281 -154.925781 105.179688 -149.308594 " transform="matrix(1,0,0,-1,-100,-146)"/>
<path style="fill-rule:evenodd;fill:rgb(100%,0%,0%);fill-opacity:1;stroke-width:0.372701;stroke-linecap:butt;stroke-linejoin:miter;stroke:rgb(100%,0%,0%);stroke-opacity:1;stroke-miterlimit:4;" d="M -107.754327 -144.115353 L -106.263751 -145.604809 L -111.481206 -144.11454 L -106.264871 -142.624776 Z M -107.754327 -144.115353 " transform="matrix(0.389686,-1,-1,-0.389686,-100,-146)"/>
<path style="fill-rule:evenodd;fill:rgb(100%,0%,0%);fill-opacity:1;stroke-width:0.398768;stroke-linecap:butt;stroke-linejoin:miter;stroke:rgb(100%,0%,0%);stroke-opacity:1;stroke-miterlimit:4;" d="M 142.079566 116.209715 L 143.673981 114.612503 L 138.091386 116.208435 L 143.672896 117.803824 Z M 142.079566 116.209715 " transform="matrix(-0.0786775,1,1,0.0786775,-100,-146)"/>
</g>
<clipPath id="clip6">
  <rect width="7" height="7"/>
</clipPath>
<g id="surface20" clip-path="url(#clip6)">
<rect x="0" y="0" width="7" height="7" style="fill:rgb(0%,0%,0%);fill-opacity:0.97;stroke:none;"/>
</g>
<mask id="mask2">
  <g filter="url(#alpha)">
<use xlink:href="#surface20"/>
  </g>
</mask>
<clipPath id="clip7">
  <rect width="7" height="7"/>
</clipPath>
<g id="surface22" clip-path="url(#clip7)">
<path style="fill-rule:nonzero;fill:rgb(0%,0%,0%);fill-opacity:1;stroke-width:0.8;stroke-linecap:butt;stroke-linejoin:round;stroke:rgb(0%,0%,0%);stroke-opacity:1;stroke-miterlimit:4;" d="M 309.640625 20.40625 C 309.640625 21.730469 308.5625 22.804688 307.238281 22.804688 C 305.914062 22.804688 304.839844 21.730469 304.839844 20.40625 C 304.839844 19.078125 305.914062 18.003906 307.238281 18.003906 C 308.5625 18.003906 309.640625 19.078125 309.640625 20.40625 Z M 309.640625 20.40625 " transform="matrix(1,0,0,1,-304,-17)"/>
</g>
<clipPath id="clip8">
  <rect width="7" height="6"/>
</clipPath>
<g id="surface26" clip-path="url(#clip8)">
<rect x="0" y="0" width="7" height="6" style="fill:rgb(0%,0%,0%);fill-opacity:0.97;stroke:none;"/>
</g>
<mask id="mask3">
  <g filter="url(#alpha)">
<use xlink:href="#surface26"/>
  </g>
</mask>
<clipPath id="clip9">
  <rect width="7" height="6"/>
</clipPath>
<g id="surface28" clip-path="url(#clip9)">
<path style="fill-rule:nonzero;fill:rgb(0%,0%,0%);fill-opacity:1;stroke-width:0.8;stroke-linecap:butt;stroke-linejoin:round;stroke:rgb(0%,0%,0%);stroke-opacity:1;stroke-miterlimit:4;" d="M 309.640625 270.003906 C 309.640625 271.328125 308.5625 272.40625 307.238281 272.40625 C 305.914062 272.40625 304.839844 271.328125 304.839844 270.003906 C 304.839844 268.679688 305.914062 267.605469 307.238281 267.605469 C 308.5625 267.605469 309.640625 268.679688 309.640625 270.003906 Z M 309.640625 270.003906 " transform="matrix(1,0,0,1,-304,-267)"/>
</g>
<clipPath id="clip10">
  <rect width="6" height="7"/>
</clipPath>
<g id="surface32" clip-path="url(#clip10)">
<rect x="0" y="0" width="6" height="7" style="fill:rgb(0%,0%,0%);fill-opacity:0.97;stroke:none;"/>
</g>
<mask id="mask4">
  <g filter="url(#alpha)">
<use xlink:href="#surface32"/>
  </g>
</mask>
<clipPath id="clip11">
  <rect width="6" height="7"/>
</clipPath>
<g id="surface34" clip-path="url(#clip11)">
<path style="fill-rule:nonzero;fill:rgb(0%,0%,0%);fill-opacity:1;stroke-width:0.8;stroke-linecap:butt;stroke-linejoin:round;stroke:rgb(0%,0%,0%);stroke-opacity:1;stroke-miterlimit:4;" d="M 50.4375 145.203125 C 50.4375 146.53125 49.363281 147.605469 48.039062 147.605469 C 46.714844 147.605469 45.640625 146.53125 45.640625 145.203125 C 45.640625 143.878906 46.714844 142.804688 48.039062 142.804688 C 49.363281 142.804688 50.4375 143.878906 50.4375 145.203125 Z M 50.4375 145.203125 " transform="matrix(1,0,0,1,-45,-142)"/>
</g>
<clipPath id="clip12">
  <rect width="6" height="7"/>
</clipPath>
<g id="surface38" clip-path="url(#clip12)">
<rect x="0" y="0" width="6" height="7" style="fill:rgb(0%,0%,0%);fill-opacity:0.97;stroke:none;"/>
</g>
<mask id="mask5">
  <g filter="url(#alpha)">
<use xlink:href="#surface38"/>
  </g>
</mask>
<clipPath id="clip13">
  <rect width="6" height="7"/>
</clipPath>
<g id="surface40" clip-path="url(#clip13)">
<path style="fill-rule:nonzero;fill:rgb(0%,0%,0%);fill-opacity:1;stroke-width:0.8;stroke-linecap:butt;stroke-linejoin:round;stroke:rgb(0%,0%,0%);stroke-opacity:1;stroke-miterlimit:4;" d="M 338.4375 145.203125 C 338.4375 146.53125 337.363281 147.605469 336.039062 147.605469 C 334.714844 147.605469 333.640625 146.53125 333.640625 145.203125 C 333.640625 143.878906 334.714844 142.804688 336.039062 142.804688 C 337.363281 142.804688 338.4375 143.878906 338.4375 145.203125 Z M 338.4375 145.203125 " transform="matrix(1,0,0,1,-333,-142)"/>
</g>
<clipPath id="clip14">
  <rect width="7" height="22"/>
</clipPath>
<g id="surface44" clip-path="url(#clip14)">
<rect x="0" y="0" width="7" height="22" style="fill:rgb(0%,0%,0%);fill-opacity:0.97;stroke:none;"/>
</g>
<mask id="mask6">
  <g filter="url(#alpha)">
<use xlink:href="#surface44"/>
  </g>
</mask>
<clipPath id="clip15">
  <rect width="7" height="22"/>
</clipPath>
<g id="surface46" clip-path="url(#clip15)">
<path style="fill:none;stroke-width:1.6;stroke-linecap:round;stroke-linejoin:round;stroke:rgb(100%,0%,0%);stroke-opacity:1;stroke-miterlimit:4;" d="M 504.628906 123.875 C 506.613281 128.96875 507.863281 134.324219 508.339844 139.769531 " transform="matrix(1,0,0,1,-503,-121)"/>
<path style="fill-rule:evenodd;fill:rgb(100%,0%,0%);fill-opacity:1;stroke-width:0.372701;stroke-linecap:butt;stroke-linejoin:miter;stroke:rgb(100%,0%,0%);stroke-opacity:1;stroke-miterlimit:4;" d="M 280.054161 -396.191033 L 281.544738 -397.680489 L 276.327282 -396.19022 L 281.547008 -394.699135 Z M 280.054161 -396.191033 " transform="matrix(0.389686,1,-1,0.389686,-503,-121)"/>
<path style="fill-rule:evenodd;fill:rgb(100%,0%,0%);fill-opacity:1;stroke-width:0.398478;stroke-linecap:butt;stroke-linejoin:miter;stroke:rgb(100%,0%,0%);stroke-opacity:1;stroke-miterlimit:4;" d="M -180.929879 492.342555 L -179.337206 490.747521 L -184.914173 492.341631 L -179.338721 493.934888 Z M -180.929879 492.342555 " transform="matrix(-0.0874887,-1,1,-0.0874887,-503,-121)"/>
</g>
<clipPath id="clip16">
  <path d="M 719 95 L 728.351562 95 L 728.351562 103 L 719 103 Z M 719 95 "/>
</clipPath>
<clipPath id="clip17">
  <path d="M 714 90 L 728.351562 90 L 728.351562 95 L 714 95 Z M 714 90 "/>
</clipPath>
<clipPath id="clip18">
  <path d="M 719 78 L 728.351562 78 L 728.351562 89 L 719 89 Z M 719 78 "/>
</clipPath>
<clipPath id="clip19">
  <path d="M 714 66 L 728.351562 66 L 728.351562 75 L 714 75 Z M 714 66 "/>
</clipPath>
<clipPath id="clip20">
  <rect width="55" height="36"/>
</clipPath>
<g id="surface50" clip-path="url(#clip20)">
<rect x="0" y="0" width="55" height="36" style="fill:rgb(0%,0%,0%);fill-opacity:0.97;stroke:none;"/>
</g>
<mask id="mask7">
  <g filter="url(#alpha)">
<use xlink:href="#surface50"/>
  </g>
</mask>
<clipPath id="clip21">
  <rect width="55" height="36"/>
</clipPath>
<g id="surface47" clip-path="url(#clip21)">
<path style="fill:none;stroke-width:1.6;stroke-linecap:round;stroke-linejoin:round;stroke:rgb(100%,0%,0%);stroke-opacity:1;stroke-miterlimit:4;" d="M 706.125 82.257813 C 685.25 80.90625 666.441406 69.183594 656.03125 51.039063 " transform="matrix(1,0,0,1,-654,-48)"/>
<path style="fill-rule:evenodd;fill:rgb(100%,0%,0%);fill-opacity:1;stroke-width:0.399164;stroke-linecap:butt;stroke-linejoin:miter;stroke:rgb(100%,0%,0%);stroke-opacity:1;stroke-miterlimit:4;" d="M -706.566757 -36.370835 L -704.966995 -37.966643 L -710.555004 -36.37032 L -704.967059 -34.771326 Z M -706.566757 -36.370835 " transform="matrix(-1,-0.0647722,0.0647722,-1,-654,-48)"/>
<path style="fill-rule:evenodd;fill:rgb(100%,0%,0%);fill-opacity:1;stroke-width:0.346964;stroke-linecap:butt;stroke-linejoin:miter;stroke:rgb(100%,0%,0%);stroke-opacity:1;stroke-miterlimit:4;" d="M 323.222082 -471.569995 L 324.611298 -472.956656 L 319.752331 -471.56825 L 324.611682 -470.179092 Z M 323.222082 -471.569995 " transform="matrix(0.573656,1,-1,0.573656,-654,-48)"/>
</g>
</defs>
<g id="surface1">
<path style="fill:none;stroke-width:1.6;stroke-linecap:butt;stroke-linejoin:miter;stroke:rgb(100%,0%,0%);stroke-opacity:1;stroke-miterlimit:4;" d="M 326.160156 144.789062 L 326.160156 125.589844 L 306.957031 125.589844 "/>
<use xlink:href="#surface10" transform="matrix(1,0,0,1,100,121)" mask="url(#mask0)"/>
<path style=" stroke:none;fill-rule:nonzero;fill:rgb(0%,0%,0%);fill-opacity:1;" d="M 97.898438 130.777344 C 97.898438 129.464844 97.554688 126.683594 95.523438 126.683594 C 92.742188 126.683594 89.679688 132.308594 89.679688 136.871094 C 89.679688 138.746094 90.242188 140.964844 92.054688 140.964844 C 94.867188 140.964844 97.898438 135.246094 97.898438 130.777344 Z M 91.773438 133.496094 C 92.117188 132.246094 92.523438 130.652344 93.335938 129.214844 C 93.867188 128.246094 94.585938 127.121094 95.492188 127.121094 C 96.460938 127.121094 96.585938 128.402344 96.585938 129.527344 C 96.585938 130.527344 96.429688 131.527344 95.960938 133.496094 Z M 95.773438 134.152344 C 95.554688 135.058594 95.148438 136.746094 94.367188 138.183594 C 93.679688 139.558594 92.929688 140.527344 92.054688 140.527344 C 91.398438 140.527344 90.992188 139.933594 90.992188 138.089844 C 90.992188 137.246094 91.117188 136.089844 91.617188 134.152344 Z M 95.773438 134.152344 "/>
<g clip-path="url(#clip3)" clip-rule="nonzero">
<path style="fill:none;stroke-width:3.2;stroke-linecap:butt;stroke-linejoin:miter;stroke:rgb(0%,0%,0%);stroke-opacity:1;stroke-dasharray:3.2,3.2;stroke-miterlimit:4;" d="M 297.171875 0.789062 C 348.621094 89.898438 348.621094 199.683594 297.171875 288.789062 "/>
</g>
<path style=" stroke:none;fill-rule:nonzero;fill:rgb(0%,0%,0%);fill-opacity:1;" d="M 298.65625 98.761719 C 298.75 98.324219 299.0625 96.699219 300.5 96.699219 C 301.5 96.699219 302.3125 97.386719 302.3125 98.949219 C 302.3125 100.636719 301.1875 101.355469 299.46875 101.730469 C 299.21875 101.792969 299.15625 101.792969 299.15625 102.011719 C 299.15625 102.261719 299.28125 102.261719 299.625 102.261719 L 302.28125 102.261719 C 302.625 102.261719 302.75 102.261719 302.75 102.042969 C 302.75 101.949219 302.71875 101.917969 302.34375 101.542969 C 302.3125 101.511719 302.28125 101.511719 301.90625 101.136719 C 302.71875 100.261719 302.75 99.355469 302.75 98.949219 C 302.75 96.667969 301.40625 95.730469 299.96875 95.730469 C 298.9375 95.730469 298.3125 96.324219 298.09375 96.574219 C 297.4375 97.230469 297.28125 98.011719 297.125 98.855469 C 296.90625 99.980469 296.65625 101.292969 295.5 101.292969 C 294.78125 101.292969 293.96875 100.792969 293.96875 99.074219 C 293.96875 96.886719 295.78125 96.761719 296.375 96.730469 C 296.5625 96.730469 296.5625 96.542969 296.5625 96.511719 C 296.5625 96.230469 296.46875 96.230469 296.09375 96.230469 L 294.0625 96.230469 C 293.75 96.230469 293.59375 96.230469 293.59375 96.449219 C 293.59375 96.542969 293.59375 96.605469 293.84375 96.855469 C 293.90625 96.917969 294.09375 97.105469 294.15625 97.199219 C 293.59375 97.949219 293.59375 98.761719 293.59375 99.074219 C 293.59375 101.511719 294.9375 102.261719 296.0625 102.261719 C 296.75 102.261719 297.3125 101.949219 297.75 101.417969 C 298.25 100.761719 298.375 100.199219 298.65625 98.761719 Z M 298.65625 98.761719 "/>
<path style=" stroke:none;fill-rule:nonzero;fill:rgb(0%,0%,0%);fill-opacity:1;" d="M 293.71875 91.527344 L 293.9375 94.308594 L 294.5625 94.308594 C 294.5625 93.027344 294.6875 92.839844 295.65625 92.839844 L 301.03125 92.839844 C 301.90625 92.839844 301.90625 93.058594 301.90625 94.402344 L 302.53125 94.402344 C 302.5 93.777344 302.46875 92.683594 302.46875 92.214844 C 302.46875 91.496094 302.5 90.808594 302.53125 90.121094 L 301.90625 90.121094 C 301.90625 91.464844 301.8125 91.527344 301.03125 91.527344 Z M 290.25 91.464844 C 289.625 91.464844 289.1875 91.933594 289.1875 92.496094 C 289.1875 93.121094 289.71875 93.558594 290.25 93.558594 C 290.78125 93.558594 291.3125 93.121094 291.3125 92.496094 C 291.3125 91.933594 290.875 91.464844 290.25 91.464844 Z M 290.25 91.464844 "/>
<path style=" stroke:none;fill-rule:nonzero;fill:rgb(0%,0%,0%);fill-opacity:1;" d="M 295.6875 87.335938 L 301.03125 87.335938 C 301.90625 87.335938 301.90625 87.554688 301.90625 88.898438 L 302.53125 88.898438 C 302.5 88.179688 302.46875 87.179688 302.46875 86.617188 C 302.46875 86.117188 302.5 85.085938 302.53125 84.398438 L 301.90625 84.398438 C 301.90625 85.742188 301.90625 85.960938 301.03125 85.960938 L 297.34375 85.960938 C 295.28125 85.960938 294.15625 84.523438 294.15625 83.273438 C 294.15625 81.992188 295.21875 81.773438 296.375 81.773438 L 301.03125 81.773438 C 301.90625 81.773438 301.90625 81.992188 301.90625 83.335938 L 302.53125 83.335938 C 302.5 82.648438 302.46875 81.617188 302.46875 81.085938 C 302.46875 80.585938 302.5 79.523438 302.53125 78.867188 L 301.90625 78.867188 C 301.90625 79.898438 301.90625 80.398438 301.3125 80.398438 L 297.5 80.398438 C 295.78125 80.398438 295.1875 80.398438 294.46875 81.023438 C 294.125 81.304688 293.71875 81.960938 293.71875 83.117188 C 293.71875 84.585938 294.5625 85.523438 295.8125 86.085938 L 293.71875 86.085938 L 293.9375 88.898438 L 294.5625 88.898438 C 294.5625 87.492188 294.6875 87.335938 295.6875 87.335938 Z M 295.6875 87.335938 "/>
<path style=" stroke:none;fill-rule:nonzero;fill:rgb(0%,0%,0%);fill-opacity:1;" d="M 292.5625 66.070312 C 291.25 66.070312 288.46875 66.414062 288.46875 68.445312 C 288.46875 71.226562 294.09375 74.289062 298.65625 74.289062 C 300.53125 74.289062 302.75 73.726562 302.75 71.914062 C 302.75 69.101562 297.03125 66.070312 292.5625 66.070312 Z M 295.28125 72.195312 C 294.03125 71.851562 292.4375 71.445312 291 70.632812 C 290.03125 70.101562 288.90625 69.382812 288.90625 68.476562 C 288.90625 67.507812 290.1875 67.382812 291.3125 67.382812 C 292.3125 67.382812 293.3125 67.539062 295.28125 68.007812 Z M 295.9375 68.195312 C 296.84375 68.414062 298.53125 68.820312 299.96875 69.601562 C 301.34375 70.289062 302.3125 71.039062 302.3125 71.914062 C 302.3125 72.570312 301.71875 72.976562 299.875 72.976562 C 299.03125 72.976562 297.875 72.851562 295.9375 72.351562 Z M 295.9375 68.195312 "/>
<path style="fill:none;stroke-width:2.4;stroke-linecap:butt;stroke-linejoin:miter;stroke:rgb(0%,0%,0%);stroke-opacity:1;stroke-miterlimit:4;" d="M 47.757812 144.789062 L 335.757812 144.789062 "/>
<path style="fill:none;stroke-width:2.4;stroke-linecap:butt;stroke-linejoin:miter;stroke:rgb(0%,0%,0%);stroke-opacity:1;stroke-miterlimit:4;" d="M 47.757812 144.789062 L 306.957031 19.988281 "/>
<path style="fill:none;stroke-width:2.4;stroke-linecap:butt;stroke-linejoin:miter;stroke:rgb(0%,0%,0%);stroke-opacity:1;stroke-miterlimit:4;" d="M 306.957031 19.988281 L 306.957031 269.589844 "/>
<path style="fill:none;stroke-width:1.2;stroke-linecap:butt;stroke-linejoin:miter;stroke:rgb(100%,0%,0%);stroke-opacity:1;stroke-miterlimit:4;" d="M 52.558594 184.789062 L 186.957031 184.789062 "/>
<path style="fill-rule:evenodd;fill:rgb(100%,0%,0%);fill-opacity:1;stroke-width:0.3;stroke-linecap:butt;stroke-linejoin:miter;stroke:rgb(100%,0%,0%);stroke-opacity:1;stroke-miterlimit:4;" d="M 54 184.789062 L 55.199219 183.589844 L 51 184.789062 L 55.199219 185.988281 Z M 54 184.789062 "/>
<path style=" stroke:none;fill-rule:nonzero;fill:rgb(0%,0%,0%);fill-opacity:1;" d="M 190.125 192.882812 C 190.125 189.632812 191.75 188.789062 192.8125 188.789062 C 193 188.789062 194.25 188.820312 194.9375 189.539062 C 194.125 189.601562 194 190.195312 194 190.445312 C 194 190.976562 194.375 191.351562 194.90625 191.351562 C 195.4375 191.351562 195.84375 191.039062 195.84375 190.414062 C 195.84375 189.070312 194.3125 188.289062 192.78125 188.289062 C 190.28125 188.289062 188.46875 190.445312 188.46875 192.914062 C 188.46875 195.476562 190.4375 197.445312 192.75 197.445312 C 195.40625 197.445312 196.0625 195.039062 196.0625 194.851562 C 196.0625 194.664062 195.84375 194.664062 195.78125 194.664062 C 195.625 194.664062 195.5625 194.726562 195.53125 194.851562 C 194.96875 196.695312 193.65625 196.945312 192.9375 196.945312 C 191.875 196.945312 190.125 196.101562 190.125 192.882812 Z M 190.125 192.882812 "/>
<path style=" stroke:none;fill-rule:nonzero;fill:rgb(0%,0%,0%);fill-opacity:1;" d="M 206.011719 192.945312 C 206.011719 190.414062 204.042969 188.289062 201.636719 188.289062 C 199.136719 188.289062 197.199219 190.476562 197.199219 192.945312 C 197.199219 195.539062 199.261719 197.445312 201.605469 197.445312 C 204.011719 197.445312 206.011719 195.476562 206.011719 192.945312 Z M 201.636719 196.945312 C 200.761719 196.945312 199.886719 196.539062 199.355469 195.601562 C 198.855469 194.726562 198.855469 193.507812 198.855469 192.789062 C 198.855469 192.007812 198.855469 190.945312 199.324219 190.070312 C 199.855469 189.164062 200.792969 188.726562 201.605469 188.726562 C 202.480469 188.726562 203.324219 189.164062 203.855469 190.039062 C 204.386719 190.882812 204.386719 192.039062 204.386719 192.789062 C 204.386719 193.507812 204.386719 194.601562 203.949219 195.476562 C 203.480469 196.382812 202.605469 196.945312 201.636719 196.945312 Z M 201.636719 196.945312 "/>
<path style=" stroke:none;fill-rule:nonzero;fill:rgb(0%,0%,0%);fill-opacity:1;" d="M 210.753906 193.351562 C 211.191406 193.445312 212.816406 193.757812 212.816406 195.195312 C 212.816406 196.195312 212.128906 197.007812 210.566406 197.007812 C 208.878906 197.007812 208.160156 195.882812 207.785156 194.164062 C 207.722656 193.914062 207.722656 193.851562 207.503906 193.851562 C 207.253906 193.851562 207.253906 193.976562 207.253906 194.320312 L 207.253906 196.976562 C 207.253906 197.320312 207.253906 197.445312 207.472656 197.445312 C 207.566406 197.445312 207.597656 197.414062 207.972656 197.039062 C 208.003906 197.007812 208.003906 196.976562 208.378906 196.601562 C 209.253906 197.414062 210.160156 197.445312 210.566406 197.445312 C 212.847656 197.445312 213.785156 196.101562 213.785156 194.664062 C 213.785156 193.632812 213.191406 193.007812 212.941406 192.789062 C 212.285156 192.132812 211.503906 191.976562 210.660156 191.820312 C 209.535156 191.601562 208.222656 191.351562 208.222656 190.195312 C 208.222656 189.476562 208.722656 188.664062 210.441406 188.664062 C 212.628906 188.664062 212.753906 190.476562 212.785156 191.070312 C 212.785156 191.257812 212.972656 191.257812 213.003906 191.257812 C 213.285156 191.257812 213.285156 191.164062 213.285156 190.789062 L 213.285156 188.757812 C 213.285156 188.445312 213.285156 188.289062 213.066406 188.289062 C 212.972656 188.289062 212.910156 188.289062 212.660156 188.539062 C 212.597656 188.601562 212.410156 188.789062 212.316406 188.851562 C 211.566406 188.289062 210.753906 188.289062 210.441406 188.289062 C 208.003906 188.289062 207.253906 189.632812 207.253906 190.757812 C 207.253906 191.445312 207.566406 192.007812 208.097656 192.445312 C 208.753906 192.945312 209.316406 193.070312 210.753906 193.351562 Z M 210.753906 193.351562 "/>
<path style=" stroke:none;fill-rule:nonzero;fill:rgb(0%,0%,0%);fill-opacity:1;" d="M 226.839844 187.257812 C 226.839844 185.945312 226.496094 183.164062 224.464844 183.164062 C 221.683594 183.164062 218.621094 188.789062 218.621094 193.351562 C 218.621094 195.226562 219.183594 197.445312 220.996094 197.445312 C 223.808594 197.445312 226.839844 191.726562 226.839844 187.257812 Z M 220.714844 189.976562 C 221.058594 188.726562 221.464844 187.132812 222.277344 185.695312 C 222.808594 184.726562 223.527344 183.601562 224.433594 183.601562 C 225.402344 183.601562 225.527344 184.882812 225.527344 186.007812 C 225.527344 187.007812 225.371094 188.007812 224.902344 189.976562 Z M 224.714844 190.632812 C 224.496094 191.539062 224.089844 193.226562 223.308594 194.664062 C 222.621094 196.039062 221.871094 197.007812 220.996094 197.007812 C 220.339844 197.007812 219.933594 196.414062 219.933594 194.570312 C 219.933594 193.726562 220.058594 192.570312 220.558594 190.632812 Z M 224.714844 190.632812 "/>
<path style="fill:none;stroke-width:1.2;stroke-linecap:butt;stroke-linejoin:miter;stroke:rgb(100%,0%,0%);stroke-opacity:1;stroke-miterlimit:4;" d="M 302.160156 184.789062 L 230.160156 184.789062 "/>
<path style="fill-rule:evenodd;fill:rgb(100%,0%,0%);fill-opacity:1;stroke-width:0.3;stroke-linecap:butt;stroke-linejoin:miter;stroke:rgb(100%,0%,0%);stroke-opacity:1;stroke-miterlimit:4;" d="M -300.71875 -184.789062 L -299.519531 -185.988281 L -303.71875 -184.789062 L -299.519531 -183.589844 Z M -300.71875 -184.789062 " transform="matrix(-1,0,0,-1,0,0)"/>
<path style="fill:none;stroke-width:1.2;stroke-linecap:butt;stroke-linejoin:miter;stroke:rgb(100%,0%,0%);stroke-opacity:1;stroke-miterlimit:4;" d="M 302.160156 139.988281 L 302.160156 106.390625 "/>
<path style="fill-rule:evenodd;fill:rgb(100%,0%,0%);fill-opacity:1;stroke-width:0.3;stroke-linecap:butt;stroke-linejoin:miter;stroke:rgb(100%,0%,0%);stroke-opacity:1;stroke-miterlimit:4;" d="M -138.550781 302.160156 L -137.351562 300.957031 L -141.550781 302.160156 L -137.351562 303.359375 Z M -138.550781 302.160156 " transform="matrix(0,-1,1,0,0,0)"/>
<path style="fill:none;stroke-width:1.2;stroke-linecap:butt;stroke-linejoin:miter;stroke:rgb(100%,0%,0%);stroke-opacity:1;stroke-miterlimit:4;" d="M 302.160156 29.589844 L 302.160156 63.191406 "/>
<path style="fill-rule:evenodd;fill:rgb(100%,0%,0%);fill-opacity:1;stroke-width:0.3;stroke-linecap:butt;stroke-linejoin:miter;stroke:rgb(100%,0%,0%);stroke-opacity:1;stroke-miterlimit:4;" d="M 31.03125 -302.160156 L 32.230469 -303.359375 L 28.03125 -302.160156 L 32.230469 -300.957031 Z M 31.03125 -302.160156 " transform="matrix(0,1,-1,0,0,0)"/>
<path style=" stroke:none;fill-rule:nonzero;fill:rgb(0%,0%,0%);fill-opacity:1;" d="M 158.453125 72.785156 C 158.226562 72.339844 158.210938 72.3125 157.792969 72.523438 C 157.261719 74.234375 155.703125 75.027344 155.144531 75.3125 L 155.429688 75.867188 C 155.792969 75.683594 156.820312 75.160156 157.5 74.214844 L 162.195312 83.433594 C 162.523438 84.074219 162.566406 84.296875 160.980469 85.105469 L 160.421875 85.390625 L 160.707031 85.945312 C 161.289062 85.578125 162.820312 84.796875 163.546875 84.429688 C 164.242188 84.074219 165.800781 83.28125 166.441406 83.023438 L 166.15625 82.464844 L 165.601562 82.75 C 163.984375 83.574219 163.859375 83.390625 163.53125 82.75 Z M 158.453125 72.785156 "/>
<path style="fill:none;stroke-width:1.081182;stroke-linecap:butt;stroke-linejoin:miter;stroke:rgb(100%,0%,0%);stroke-opacity:1;stroke-miterlimit:4;" d="M -14.028888 131.623604 L 85.440428 131.622427 " transform="matrix(1,-0.481528,0.481528,1,0,0)"/>
<path style="fill-rule:evenodd;fill:rgb(100%,0%,0%);fill-opacity:1;stroke-width:0.270296;stroke-linecap:butt;stroke-linejoin:miter;stroke:rgb(100%,0%,0%);stroke-opacity:1;stroke-miterlimit:4;" d="M -12.72864 131.62471 L -11.649149 130.542952 L -15.431433 131.624021 L -11.648409 132.707371 Z M -12.72864 131.62471 " transform="matrix(1,-0.481528,0.481528,1,0,0)"/>
<path style="fill:none;stroke-width:1.081182;stroke-linecap:butt;stroke-linejoin:miter;stroke:rgb(100%,0%,0%);stroke-opacity:1;stroke-miterlimit:4;" d="M 236.805768 131.626264 L 111.38844 131.624934 " transform="matrix(1,-0.481528,0.481528,1,0,0)"/>
<path style="fill-rule:evenodd;fill:rgb(100%,0%,0%);fill-opacity:1;stroke-width:0.270296;stroke-linecap:butt;stroke-linejoin:miter;stroke:rgb(100%,0%,0%);stroke-opacity:1;stroke-miterlimit:4;" d="M -235.510218 -131.623514 L -234.427556 -132.703745 L -238.213011 -131.624203 L -234.42846 -130.544024 Z M -235.510218 -131.623514 " transform="matrix(-1,0.481528,-0.481528,-1,0,0)"/>
<path style="fill:none;stroke-width:2.4;stroke-linecap:butt;stroke-linejoin:miter;stroke:rgb(0%,0%,0%);stroke-opacity:1;stroke-miterlimit:4;" d="M 47.757812 144.789062 L 306.957031 269.589844 "/>
<path style=" stroke:none;fill-rule:nonzero;fill:rgb(0%,0%,0%);fill-opacity:1;" d="M 90.761719 156.953125 C 91.105469 156.953125 91.480469 156.953125 91.480469 156.546875 C 91.480469 156.171875 91.105469 156.171875 90.761719 156.171875 L 79.980469 156.171875 C 79.636719 156.171875 79.292969 156.171875 79.292969 156.546875 C 79.292969 156.953125 79.636719 156.953125 79.980469 156.953125 Z M 90.761719 156.953125 "/>
<path style=" stroke:none;fill-rule:nonzero;fill:rgb(0%,0%,0%);fill-opacity:1;" d="M 102.195312 151.578125 C 102.195312 150.265625 101.851562 147.484375 99.820312 147.484375 C 97.039062 147.484375 93.976562 153.109375 93.976562 157.671875 C 93.976562 159.546875 94.539062 161.765625 96.351562 161.765625 C 99.164062 161.765625 102.195312 156.046875 102.195312 151.578125 Z M 96.070312 154.296875 C 96.414062 153.046875 96.820312 151.453125 97.632812 150.015625 C 98.164062 149.046875 98.882812 147.921875 99.789062 147.921875 C 100.757812 147.921875 100.882812 149.203125 100.882812 150.328125 C 100.882812 151.328125 100.726562 152.328125 100.257812 154.296875 Z M 100.070312 154.953125 C 99.851562 155.859375 99.445312 157.546875 98.664062 158.984375 C 97.976562 160.359375 97.226562 161.328125 96.351562 161.328125 C 95.695312 161.328125 95.289062 160.734375 95.289062 158.890625 C 95.289062 158.046875 95.414062 156.890625 95.914062 154.953125 Z M 100.070312 154.953125 "/>
<use xlink:href="#surface16" transform="matrix(1,0,0,1,100,146)" mask="url(#mask1)"/>
<path style="fill:none;stroke-width:0.8;stroke-linecap:butt;stroke-linejoin:miter;stroke:rgb(0%,0%,0%);stroke-opacity:1;stroke-dasharray:0.8,0.8;stroke-miterlimit:4;" d="M 47.757812 144.789062 L 47.757812 197.589844 "/>
<path style=" stroke:none;fill-rule:nonzero;fill:rgb(0%,0%,0%);fill-opacity:1;" d="M 320.914062 30.132812 C 320.914062 30.070312 320.914062 30.039062 320.570312 29.695312 C 318.101562 27.195312 317.445312 23.414062 317.445312 20.351562 C 317.445312 16.882812 318.195312 13.414062 320.664062 10.945312 C 320.914062 10.695312 320.914062 10.664062 320.914062 10.601562 C 320.914062 10.445312 320.851562 10.382812 320.726562 10.382812 C 320.507812 10.382812 318.726562 11.757812 317.539062 14.289062 C 316.539062 16.476562 316.289062 18.695312 316.289062 20.351562 C 316.289062 21.914062 316.507812 24.320312 317.601562 26.601562 C 318.820312 29.039062 320.507812 30.351562 320.726562 30.351562 C 320.851562 30.351562 320.914062 30.289062 320.914062 30.132812 Z M 320.914062 30.132812 "/>
<path style=" stroke:none;fill-rule:nonzero;fill:rgb(0%,0%,0%);fill-opacity:1;" d="M 324.414062 21.007812 C 324.414062 17.757812 326.039062 16.914062 327.101562 16.914062 C 327.289062 16.914062 328.539062 16.945312 329.226562 17.664062 C 328.414062 17.726562 328.289062 18.320312 328.289062 18.570312 C 328.289062 19.101562 328.664062 19.476562 329.195312 19.476562 C 329.726562 19.476562 330.132812 19.164062 330.132812 18.539062 C 330.132812 17.195312 328.601562 16.414062 327.070312 16.414062 C 324.570312 16.414062 322.757812 18.570312 322.757812 21.039062 C 322.757812 23.601562 324.726562 25.570312 327.039062 25.570312 C 329.695312 25.570312 330.351562 23.164062 330.351562 22.976562 C 330.351562 22.789062 330.132812 22.789062 330.070312 22.789062 C 329.914062 22.789062 329.851562 22.851562 329.820312 22.976562 C 329.257812 24.820312 327.945312 25.070312 327.226562 25.070312 C 326.164062 25.070312 324.414062 24.226562 324.414062 21.007812 Z M 324.414062 21.007812 "/>
<path style=" stroke:none;fill-rule:nonzero;fill:rgb(0%,0%,0%);fill-opacity:1;" d="M 340.300781 21.070312 C 340.300781 18.539062 338.332031 16.414062 335.925781 16.414062 C 333.425781 16.414062 331.488281 18.601562 331.488281 21.070312 C 331.488281 23.664062 333.550781 25.570312 335.894531 25.570312 C 338.300781 25.570312 340.300781 23.601562 340.300781 21.070312 Z M 335.925781 25.070312 C 335.050781 25.070312 334.175781 24.664062 333.644531 23.726562 C 333.144531 22.851562 333.144531 21.632812 333.144531 20.914062 C 333.144531 20.132812 333.144531 19.070312 333.613281 18.195312 C 334.144531 17.289062 335.082031 16.851562 335.894531 16.851562 C 336.769531 16.851562 337.613281 17.289062 338.144531 18.164062 C 338.675781 19.007812 338.675781 20.164062 338.675781 20.914062 C 338.675781 21.632812 338.675781 22.726562 338.238281 23.601562 C 337.769531 24.507812 336.894531 25.070312 335.925781 25.070312 Z M 335.925781 25.070312 "/>
<path style=" stroke:none;fill-rule:nonzero;fill:rgb(0%,0%,0%);fill-opacity:1;" d="M 345.042969 21.476562 C 345.480469 21.570312 347.105469 21.882812 347.105469 23.320312 C 347.105469 24.320312 346.417969 25.132812 344.855469 25.132812 C 343.167969 25.132812 342.449219 24.007812 342.074219 22.289062 C 342.011719 22.039062 342.011719 21.976562 341.792969 21.976562 C 341.542969 21.976562 341.542969 22.101562 341.542969 22.445312 L 341.542969 25.101562 C 341.542969 25.445312 341.542969 25.570312 341.761719 25.570312 C 341.855469 25.570312 341.886719 25.539062 342.261719 25.164062 C 342.292969 25.132812 342.292969 25.101562 342.667969 24.726562 C 343.542969 25.539062 344.449219 25.570312 344.855469 25.570312 C 347.136719 25.570312 348.074219 24.226562 348.074219 22.789062 C 348.074219 21.757812 347.480469 21.132812 347.230469 20.914062 C 346.574219 20.257812 345.792969 20.101562 344.949219 19.945312 C 343.824219 19.726562 342.511719 19.476562 342.511719 18.320312 C 342.511719 17.601562 343.011719 16.789062 344.730469 16.789062 C 346.917969 16.789062 347.042969 18.601562 347.074219 19.195312 C 347.074219 19.382812 347.261719 19.382812 347.292969 19.382812 C 347.574219 19.382812 347.574219 19.289062 347.574219 18.914062 L 347.574219 16.882812 C 347.574219 16.570312 347.574219 16.414062 347.355469 16.414062 C 347.261719 16.414062 347.199219 16.414062 346.949219 16.664062 C 346.886719 16.726562 346.699219 16.914062 346.605469 16.976562 C 345.855469 16.414062 345.042969 16.414062 344.730469 16.414062 C 342.292969 16.414062 341.542969 17.757812 341.542969 18.882812 C 341.542969 19.570312 341.855469 20.132812 342.386719 20.570312 C 343.042969 21.070312 343.605469 21.195312 345.042969 21.476562 Z M 345.042969 21.476562 "/>
<path style=" stroke:none;fill-rule:nonzero;fill:rgb(0%,0%,0%);fill-opacity:1;" d="M 361.132812 15.382812 C 361.132812 14.070312 360.789062 11.289062 358.757812 11.289062 C 355.976562 11.289062 352.914062 16.914062 352.914062 21.476562 C 352.914062 23.351562 353.476562 25.570312 355.289062 25.570312 C 358.101562 25.570312 361.132812 19.851562 361.132812 15.382812 Z M 355.007812 18.101562 C 355.351562 16.851562 355.757812 15.257812 356.570312 13.820312 C 357.101562 12.851562 357.820312 11.726562 358.726562 11.726562 C 359.695312 11.726562 359.820312 13.007812 359.820312 14.132812 C 359.820312 15.132812 359.664062 16.132812 359.195312 18.101562 Z M 359.007812 18.757812 C 358.789062 19.664062 358.382812 21.351562 357.601562 22.789062 C 356.914062 24.164062 356.164062 25.132812 355.289062 25.132812 C 354.632812 25.132812 354.226562 24.539062 354.226562 22.695312 C 354.226562 21.851562 354.351562 20.695312 354.851562 18.757812 Z M 359.007812 18.757812 "/>
<path style=" stroke:none;fill-rule:nonzero;fill:rgb(0%,0%,0%);fill-opacity:1;" d="M 366.042969 25.320312 C 366.042969 24.007812 365.542969 23.226562 364.761719 23.226562 C 364.105469 23.226562 363.699219 23.726562 363.699219 24.289062 C 363.699219 24.820312 364.105469 25.351562 364.761719 25.351562 C 364.980469 25.351562 365.261719 25.257812 365.449219 25.101562 C 365.511719 25.039062 365.542969 25.039062 365.542969 25.039062 C 365.574219 25.039062 365.574219 25.039062 365.574219 25.320312 C 365.574219 26.820312 364.886719 28.007812 364.230469 28.664062 C 364.011719 28.882812 364.011719 28.914062 364.011719 28.976562 C 364.011719 29.132812 364.105469 29.195312 364.199219 29.195312 C 364.417969 29.195312 366.042969 27.664062 366.042969 25.320312 Z M 366.042969 25.320312 "/>
<path style=" stroke:none;fill-rule:nonzero;fill:rgb(0%,0%,0%);fill-opacity:1;" d="M 374.988281 21.476562 C 375.425781 21.570312 377.050781 21.882812 377.050781 23.320312 C 377.050781 24.320312 376.363281 25.132812 374.800781 25.132812 C 373.113281 25.132812 372.394531 24.007812 372.019531 22.289062 C 371.957031 22.039062 371.957031 21.976562 371.738281 21.976562 C 371.488281 21.976562 371.488281 22.101562 371.488281 22.445312 L 371.488281 25.101562 C 371.488281 25.445312 371.488281 25.570312 371.707031 25.570312 C 371.800781 25.570312 371.832031 25.539062 372.207031 25.164062 C 372.238281 25.132812 372.238281 25.101562 372.613281 24.726562 C 373.488281 25.539062 374.394531 25.570312 374.800781 25.570312 C 377.082031 25.570312 378.019531 24.226562 378.019531 22.789062 C 378.019531 21.757812 377.425781 21.132812 377.175781 20.914062 C 376.519531 20.257812 375.738281 20.101562 374.894531 19.945312 C 373.769531 19.726562 372.457031 19.476562 372.457031 18.320312 C 372.457031 17.601562 372.957031 16.789062 374.675781 16.789062 C 376.863281 16.789062 376.988281 18.601562 377.019531 19.195312 C 377.019531 19.382812 377.207031 19.382812 377.238281 19.382812 C 377.519531 19.382812 377.519531 19.289062 377.519531 18.914062 L 377.519531 16.882812 C 377.519531 16.570312 377.519531 16.414062 377.300781 16.414062 C 377.207031 16.414062 377.144531 16.414062 376.894531 16.664062 C 376.832031 16.726562 376.644531 16.914062 376.550781 16.976562 C 375.800781 16.414062 374.988281 16.414062 374.675781 16.414062 C 372.238281 16.414062 371.488281 17.757812 371.488281 18.882812 C 371.488281 19.570312 371.800781 20.132812 372.332031 20.570312 C 372.988281 21.070312 373.550781 21.195312 374.988281 21.476562 Z M 374.988281 21.476562 "/>
<path style=" stroke:none;fill-rule:nonzero;fill:rgb(0%,0%,0%);fill-opacity:1;" d="M 382.222656 16.539062 L 379.441406 16.757812 L 379.441406 17.382812 C 380.722656 17.382812 380.910156 17.507812 380.910156 18.476562 L 380.910156 23.851562 C 380.910156 24.726562 380.691406 24.726562 379.347656 24.726562 L 379.347656 25.351562 C 379.972656 25.320312 381.066406 25.289062 381.535156 25.289062 C 382.253906 25.289062 382.941406 25.320312 383.628906 25.351562 L 383.628906 24.726562 C 382.285156 24.726562 382.222656 24.632812 382.222656 23.851562 Z M 382.285156 13.070312 C 382.285156 12.445312 381.816406 12.007812 381.253906 12.007812 C 380.628906 12.007812 380.191406 12.539062 380.191406 13.070312 C 380.191406 13.601562 380.628906 14.132812 381.253906 14.132812 C 381.816406 14.132812 382.285156 13.695312 382.285156 13.070312 Z M 382.285156 13.070312 "/>
<path style=" stroke:none;fill-rule:nonzero;fill:rgb(0%,0%,0%);fill-opacity:1;" d="M 386.414062 18.507812 L 386.414062 23.851562 C 386.414062 24.726562 386.195312 24.726562 384.851562 24.726562 L 384.851562 25.351562 C 385.570312 25.320312 386.570312 25.289062 387.132812 25.289062 C 387.632812 25.289062 388.664062 25.320312 389.351562 25.351562 L 389.351562 24.726562 C 388.007812 24.726562 387.789062 24.726562 387.789062 23.851562 L 387.789062 20.164062 C 387.789062 18.101562 389.226562 16.976562 390.476562 16.976562 C 391.757812 16.976562 391.976562 18.039062 391.976562 19.195312 L 391.976562 23.851562 C 391.976562 24.726562 391.757812 24.726562 390.414062 24.726562 L 390.414062 25.351562 C 391.101562 25.320312 392.132812 25.289062 392.664062 25.289062 C 393.164062 25.289062 394.226562 25.320312 394.882812 25.351562 L 394.882812 24.726562 C 393.851562 24.726562 393.351562 24.726562 393.351562 24.132812 L 393.351562 20.320312 C 393.351562 18.601562 393.351562 18.007812 392.726562 17.289062 C 392.445312 16.945312 391.789062 16.539062 390.632812 16.539062 C 389.164062 16.539062 388.226562 17.382812 387.664062 18.632812 L 387.664062 16.539062 L 384.851562 16.757812 L 384.851562 17.382812 C 386.257812 17.382812 386.414062 17.507812 386.414062 18.507812 Z M 386.414062 18.507812 "/>
<path style=" stroke:none;fill-rule:nonzero;fill:rgb(0%,0%,0%);fill-opacity:1;" d="M 407.679688 15.382812 C 407.679688 14.070312 407.335938 11.289062 405.304688 11.289062 C 402.523438 11.289062 399.460938 16.914062 399.460938 21.476562 C 399.460938 23.351562 400.023438 25.570312 401.835938 25.570312 C 404.648438 25.570312 407.679688 19.851562 407.679688 15.382812 Z M 401.554688 18.101562 C 401.898438 16.851562 402.304688 15.257812 403.117188 13.820312 C 403.648438 12.851562 404.367188 11.726562 405.273438 11.726562 C 406.242188 11.726562 406.367188 13.007812 406.367188 14.132812 C 406.367188 15.132812 406.210938 16.132812 405.742188 18.101562 Z M 405.554688 18.757812 C 405.335938 19.664062 404.929688 21.351562 404.148438 22.789062 C 403.460938 24.164062 402.710938 25.132812 401.835938 25.132812 C 401.179688 25.132812 400.773438 24.539062 400.773438 22.695312 C 400.773438 21.851562 400.898438 20.695312 401.398438 18.757812 Z M 405.554688 18.757812 "/>
<path style=" stroke:none;fill-rule:nonzero;fill:rgb(0%,0%,0%);fill-opacity:1;" d="M 414.273438 20.351562 C 414.273438 18.820312 414.054688 16.414062 412.960938 14.132812 C 411.773438 11.695312 410.054688 10.382812 409.867188 10.382812 C 409.742188 10.382812 409.648438 10.476562 409.648438 10.601562 C 409.648438 10.664062 409.648438 10.695312 410.023438 11.070312 C 411.992188 13.039062 413.117188 16.195312 413.117188 20.351562 C 413.117188 23.789062 412.398438 27.289062 409.929688 29.789062 C 409.648438 30.039062 409.648438 30.070312 409.648438 30.132812 C 409.648438 30.257812 409.742188 30.351562 409.867188 30.351562 C 410.054688 30.351562 411.867188 28.976562 413.023438 26.445312 C 414.054688 24.257812 414.273438 22.039062 414.273438 20.351562 Z M 414.273438 20.351562 "/>
<use xlink:href="#surface22" transform="matrix(1,0,0,1,304,17)" mask="url(#mask2)"/>
<use xlink:href="#surface28" transform="matrix(1,0,0,1,304,267)" mask="url(#mask3)"/>
<use xlink:href="#surface34" transform="matrix(1,0,0,1,45,142)" mask="url(#mask4)"/>
<use xlink:href="#surface40" transform="matrix(1,0,0,1,333,142)" mask="url(#mask5)"/>
<path style=" stroke:none;fill-rule:nonzero;fill:rgb(0%,0%,0%);fill-opacity:1;" d="M 321.53125 279.730469 C 321.53125 279.667969 321.53125 279.636719 321.1875 279.292969 C 318.71875 276.792969 318.0625 273.011719 318.0625 269.949219 C 318.0625 266.480469 318.8125 263.011719 321.28125 260.542969 C 321.53125 260.292969 321.53125 260.261719 321.53125 260.199219 C 321.53125 260.042969 321.46875 259.980469 321.34375 259.980469 C 321.125 259.980469 319.34375 261.355469 318.15625 263.886719 C 317.15625 266.074219 316.90625 268.292969 316.90625 269.949219 C 316.90625 271.511719 317.125 273.917969 318.21875 276.199219 C 319.4375 278.636719 321.125 279.949219 321.34375 279.949219 C 321.46875 279.949219 321.53125 279.886719 321.53125 279.730469 Z M 321.53125 279.730469 "/>
<path style=" stroke:none;fill-rule:nonzero;fill:rgb(0%,0%,0%);fill-opacity:1;" d="M 325.027344 270.605469 C 325.027344 267.355469 326.652344 266.511719 327.714844 266.511719 C 327.902344 266.511719 329.152344 266.542969 329.839844 267.261719 C 329.027344 267.324219 328.902344 267.917969 328.902344 268.167969 C 328.902344 268.699219 329.277344 269.074219 329.808594 269.074219 C 330.339844 269.074219 330.746094 268.761719 330.746094 268.136719 C 330.746094 266.792969 329.214844 266.011719 327.683594 266.011719 C 325.183594 266.011719 323.371094 268.167969 323.371094 270.636719 C 323.371094 273.199219 325.339844 275.167969 327.652344 275.167969 C 330.308594 275.167969 330.964844 272.761719 330.964844 272.574219 C 330.964844 272.386719 330.746094 272.386719 330.683594 272.386719 C 330.527344 272.386719 330.464844 272.449219 330.433594 272.574219 C 329.871094 274.417969 328.558594 274.667969 327.839844 274.667969 C 326.777344 274.667969 325.027344 273.824219 325.027344 270.605469 Z M 325.027344 270.605469 "/>
<path style=" stroke:none;fill-rule:nonzero;fill:rgb(0%,0%,0%);fill-opacity:1;" d="M 340.914062 270.667969 C 340.914062 268.136719 338.945312 266.011719 336.539062 266.011719 C 334.039062 266.011719 332.101562 268.199219 332.101562 270.667969 C 332.101562 273.261719 334.164062 275.167969 336.507812 275.167969 C 338.914062 275.167969 340.914062 273.199219 340.914062 270.667969 Z M 336.539062 274.667969 C 335.664062 274.667969 334.789062 274.261719 334.257812 273.324219 C 333.757812 272.449219 333.757812 271.230469 333.757812 270.511719 C 333.757812 269.730469 333.757812 268.667969 334.226562 267.792969 C 334.757812 266.886719 335.695312 266.449219 336.507812 266.449219 C 337.382812 266.449219 338.226562 266.886719 338.757812 267.761719 C 339.289062 268.605469 339.289062 269.761719 339.289062 270.511719 C 339.289062 271.230469 339.289062 272.324219 338.851562 273.199219 C 338.382812 274.105469 337.507812 274.667969 336.539062 274.667969 Z M 336.539062 274.667969 "/>
<path style=" stroke:none;fill-rule:nonzero;fill:rgb(0%,0%,0%);fill-opacity:1;" d="M 345.660156 271.074219 C 346.097656 271.167969 347.722656 271.480469 347.722656 272.917969 C 347.722656 273.917969 347.035156 274.730469 345.472656 274.730469 C 343.785156 274.730469 343.066406 273.605469 342.691406 271.886719 C 342.628906 271.636719 342.628906 271.574219 342.410156 271.574219 C 342.160156 271.574219 342.160156 271.699219 342.160156 272.042969 L 342.160156 274.699219 C 342.160156 275.042969 342.160156 275.167969 342.378906 275.167969 C 342.472656 275.167969 342.503906 275.136719 342.878906 274.761719 C 342.910156 274.730469 342.910156 274.699219 343.285156 274.324219 C 344.160156 275.136719 345.066406 275.167969 345.472656 275.167969 C 347.753906 275.167969 348.691406 273.824219 348.691406 272.386719 C 348.691406 271.355469 348.097656 270.730469 347.847656 270.511719 C 347.191406 269.855469 346.410156 269.699219 345.566406 269.542969 C 344.441406 269.324219 343.128906 269.074219 343.128906 267.917969 C 343.128906 267.199219 343.628906 266.386719 345.347656 266.386719 C 347.535156 266.386719 347.660156 268.199219 347.691406 268.792969 C 347.691406 268.980469 347.878906 268.980469 347.910156 268.980469 C 348.191406 268.980469 348.191406 268.886719 348.191406 268.511719 L 348.191406 266.480469 C 348.191406 266.167969 348.191406 266.011719 347.972656 266.011719 C 347.878906 266.011719 347.816406 266.011719 347.566406 266.261719 C 347.503906 266.324219 347.316406 266.511719 347.222656 266.574219 C 346.472656 266.011719 345.660156 266.011719 345.347656 266.011719 C 342.910156 266.011719 342.160156 267.355469 342.160156 268.480469 C 342.160156 269.167969 342.472656 269.730469 343.003906 270.167969 C 343.660156 270.667969 344.222656 270.792969 345.660156 271.074219 Z M 345.660156 271.074219 "/>
<path style=" stroke:none;fill-rule:nonzero;fill:rgb(0%,0%,0%);fill-opacity:1;" d="M 361.746094 264.980469 C 361.746094 263.667969 361.402344 260.886719 359.371094 260.886719 C 356.589844 260.886719 353.527344 266.511719 353.527344 271.074219 C 353.527344 272.949219 354.089844 275.167969 355.902344 275.167969 C 358.714844 275.167969 361.746094 269.449219 361.746094 264.980469 Z M 355.621094 267.699219 C 355.964844 266.449219 356.371094 264.855469 357.183594 263.417969 C 357.714844 262.449219 358.433594 261.324219 359.339844 261.324219 C 360.308594 261.324219 360.433594 262.605469 360.433594 263.730469 C 360.433594 264.730469 360.277344 265.730469 359.808594 267.699219 Z M 359.621094 268.355469 C 359.402344 269.261719 358.996094 270.949219 358.214844 272.386719 C 357.527344 273.761719 356.777344 274.730469 355.902344 274.730469 C 355.246094 274.730469 354.839844 274.136719 354.839844 272.292969 C 354.839844 271.449219 354.964844 270.292969 355.464844 268.355469 Z M 359.621094 268.355469 "/>
<path style=" stroke:none;fill-rule:nonzero;fill:rgb(0%,0%,0%);fill-opacity:1;" d="M 366.65625 274.917969 C 366.65625 273.605469 366.15625 272.824219 365.375 272.824219 C 364.71875 272.824219 364.3125 273.324219 364.3125 273.886719 C 364.3125 274.417969 364.71875 274.949219 365.375 274.949219 C 365.59375 274.949219 365.875 274.855469 366.0625 274.699219 C 366.125 274.636719 366.15625 274.636719 366.15625 274.636719 C 366.1875 274.636719 366.1875 274.636719 366.1875 274.917969 C 366.1875 276.417969 365.5 277.605469 364.84375 278.261719 C 364.625 278.480469 364.625 278.511719 364.625 278.574219 C 364.625 278.730469 364.71875 278.792969 364.8125 278.792969 C 365.03125 278.792969 366.65625 277.261719 366.65625 274.917969 Z M 366.65625 274.917969 "/>
<path style=" stroke:none;fill-rule:nonzero;fill:rgb(0%,0%,0%);fill-opacity:1;" d="M 384.570312 270.355469 C 384.914062 270.355469 385.289062 270.355469 385.289062 269.949219 C 385.289062 269.574219 384.914062 269.574219 384.570312 269.574219 L 373.789062 269.574219 C 373.445312 269.574219 373.101562 269.574219 373.101562 269.949219 C 373.101562 270.355469 373.445312 270.355469 373.789062 270.355469 Z M 384.570312 270.355469 "/>
<path style=" stroke:none;fill-rule:nonzero;fill:rgb(0%,0%,0%);fill-opacity:1;" d="M 394.421875 271.074219 C 394.859375 271.167969 396.484375 271.480469 396.484375 272.917969 C 396.484375 273.917969 395.796875 274.730469 394.234375 274.730469 C 392.546875 274.730469 391.828125 273.605469 391.453125 271.886719 C 391.390625 271.636719 391.390625 271.574219 391.171875 271.574219 C 390.921875 271.574219 390.921875 271.699219 390.921875 272.042969 L 390.921875 274.699219 C 390.921875 275.042969 390.921875 275.167969 391.140625 275.167969 C 391.234375 275.167969 391.265625 275.136719 391.640625 274.761719 C 391.671875 274.730469 391.671875 274.699219 392.046875 274.324219 C 392.921875 275.136719 393.828125 275.167969 394.234375 275.167969 C 396.515625 275.167969 397.453125 273.824219 397.453125 272.386719 C 397.453125 271.355469 396.859375 270.730469 396.609375 270.511719 C 395.953125 269.855469 395.171875 269.699219 394.328125 269.542969 C 393.203125 269.324219 391.890625 269.074219 391.890625 267.917969 C 391.890625 267.199219 392.390625 266.386719 394.109375 266.386719 C 396.296875 266.386719 396.421875 268.199219 396.453125 268.792969 C 396.453125 268.980469 396.640625 268.980469 396.671875 268.980469 C 396.953125 268.980469 396.953125 268.886719 396.953125 268.511719 L 396.953125 266.480469 C 396.953125 266.167969 396.953125 266.011719 396.734375 266.011719 C 396.640625 266.011719 396.578125 266.011719 396.328125 266.261719 C 396.265625 266.324219 396.078125 266.511719 395.984375 266.574219 C 395.234375 266.011719 394.421875 266.011719 394.109375 266.011719 C 391.671875 266.011719 390.921875 267.355469 390.921875 268.480469 C 390.921875 269.167969 391.234375 269.730469 391.765625 270.167969 C 392.421875 270.667969 392.984375 270.792969 394.421875 271.074219 Z M 394.421875 271.074219 "/>
<path style=" stroke:none;fill-rule:nonzero;fill:rgb(0%,0%,0%);fill-opacity:1;" d="M 401.65625 266.136719 L 398.875 266.355469 L 398.875 266.980469 C 400.15625 266.980469 400.34375 267.105469 400.34375 268.074219 L 400.34375 273.449219 C 400.34375 274.324219 400.125 274.324219 398.78125 274.324219 L 398.78125 274.949219 C 399.40625 274.917969 400.5 274.886719 400.96875 274.886719 C 401.6875 274.886719 402.375 274.917969 403.0625 274.949219 L 403.0625 274.324219 C 401.71875 274.324219 401.65625 274.230469 401.65625 273.449219 Z M 401.71875 262.667969 C 401.71875 262.042969 401.25 261.605469 400.6875 261.605469 C 400.0625 261.605469 399.625 262.136719 399.625 262.667969 C 399.625 263.199219 400.0625 263.730469 400.6875 263.730469 C 401.25 263.730469 401.71875 263.292969 401.71875 262.667969 Z M 401.71875 262.667969 "/>
<path style=" stroke:none;fill-rule:nonzero;fill:rgb(0%,0%,0%);fill-opacity:1;" d="M 405.847656 268.105469 L 405.847656 273.449219 C 405.847656 274.324219 405.628906 274.324219 404.285156 274.324219 L 404.285156 274.949219 C 405.003906 274.917969 406.003906 274.886719 406.566406 274.886719 C 407.066406 274.886719 408.097656 274.917969 408.785156 274.949219 L 408.785156 274.324219 C 407.441406 274.324219 407.222656 274.324219 407.222656 273.449219 L 407.222656 269.761719 C 407.222656 267.699219 408.660156 266.574219 409.910156 266.574219 C 411.191406 266.574219 411.410156 267.636719 411.410156 268.792969 L 411.410156 273.449219 C 411.410156 274.324219 411.191406 274.324219 409.847656 274.324219 L 409.847656 274.949219 C 410.535156 274.917969 411.566406 274.886719 412.097656 274.886719 C 412.597656 274.886719 413.660156 274.917969 414.316406 274.949219 L 414.316406 274.324219 C 413.285156 274.324219 412.785156 274.324219 412.785156 273.730469 L 412.785156 269.917969 C 412.785156 268.199219 412.785156 267.605469 412.160156 266.886719 C 411.878906 266.542969 411.222656 266.136719 410.066406 266.136719 C 408.597656 266.136719 407.660156 266.980469 407.097656 268.230469 L 407.097656 266.136719 L 404.285156 266.355469 L 404.285156 266.980469 C 405.691406 266.980469 405.847656 267.105469 405.847656 268.105469 Z M 405.847656 268.105469 "/>
<path style=" stroke:none;fill-rule:nonzero;fill:rgb(0%,0%,0%);fill-opacity:1;" d="M 427.113281 264.980469 C 427.113281 263.667969 426.769531 260.886719 424.738281 260.886719 C 421.957031 260.886719 418.894531 266.511719 418.894531 271.074219 C 418.894531 272.949219 419.457031 275.167969 421.269531 275.167969 C 424.082031 275.167969 427.113281 269.449219 427.113281 264.980469 Z M 420.988281 267.699219 C 421.332031 266.449219 421.738281 264.855469 422.550781 263.417969 C 423.082031 262.449219 423.800781 261.324219 424.707031 261.324219 C 425.675781 261.324219 425.800781 262.605469 425.800781 263.730469 C 425.800781 264.730469 425.644531 265.730469 425.175781 267.699219 Z M 424.988281 268.355469 C 424.769531 269.261719 424.363281 270.949219 423.582031 272.386719 C 422.894531 273.761719 422.144531 274.730469 421.269531 274.730469 C 420.613281 274.730469 420.207031 274.136719 420.207031 272.292969 C 420.207031 271.449219 420.332031 270.292969 420.832031 268.355469 Z M 424.988281 268.355469 "/>
<path style=" stroke:none;fill-rule:nonzero;fill:rgb(0%,0%,0%);fill-opacity:1;" d="M 433.707031 269.949219 C 433.707031 268.417969 433.488281 266.011719 432.394531 263.730469 C 431.207031 261.292969 429.488281 259.980469 429.300781 259.980469 C 429.175781 259.980469 429.082031 260.074219 429.082031 260.199219 C 429.082031 260.261719 429.082031 260.292969 429.457031 260.667969 C 431.425781 262.636719 432.550781 265.792969 432.550781 269.949219 C 432.550781 273.386719 431.832031 276.886719 429.363281 279.386719 C 429.082031 279.636719 429.082031 279.667969 429.082031 279.730469 C 429.082031 279.855469 429.175781 279.949219 429.300781 279.949219 C 429.488281 279.949219 431.300781 278.574219 432.457031 276.042969 C 433.488281 273.855469 433.707031 271.636719 433.707031 269.949219 Z M 433.707031 269.949219 "/>
<path style=" stroke:none;fill-rule:nonzero;fill:rgb(0%,0%,0%);fill-opacity:1;" d="M 350.226562 154.929688 C 350.226562 154.867188 350.226562 154.835938 349.882812 154.492188 C 347.414062 151.992188 346.757812 148.210938 346.757812 145.148438 C 346.757812 141.679688 347.507812 138.210938 349.976562 135.742188 C 350.226562 135.492188 350.226562 135.460938 350.226562 135.398438 C 350.226562 135.242188 350.164062 135.179688 350.039062 135.179688 C 349.820312 135.179688 348.039062 136.554688 346.851562 139.085938 C 345.851562 141.273438 345.601562 143.492188 345.601562 145.148438 C 345.601562 146.710938 345.820312 149.117188 346.914062 151.398438 C 348.132812 153.835938 349.820312 155.148438 350.039062 155.148438 C 350.164062 155.148438 350.226562 155.085938 350.226562 154.929688 Z M 350.226562 154.929688 "/>
<path style=" stroke:none;fill-rule:nonzero;fill:rgb(0%,0%,0%);fill-opacity:1;" d="M 357.253906 137.398438 C 357.253906 136.898438 357.253906 136.867188 356.785156 136.867188 C 355.535156 138.148438 353.785156 138.148438 353.160156 138.148438 L 353.160156 138.773438 C 353.566406 138.773438 354.722656 138.773438 355.753906 138.242188 L 355.753906 148.585938 C 355.753906 149.304688 355.691406 149.523438 353.910156 149.523438 L 353.285156 149.523438 L 353.285156 150.148438 C 353.972656 150.085938 355.691406 150.085938 356.503906 150.085938 C 357.285156 150.085938 359.035156 150.085938 359.722656 150.148438 L 359.722656 149.523438 L 359.097656 149.523438 C 357.285156 149.523438 357.253906 149.304688 357.253906 148.585938 Z M 357.253906 137.398438 "/>
<path style=" stroke:none;fill-rule:nonzero;fill:rgb(0%,0%,0%);fill-opacity:1;" d="M 365.40625 150.117188 C 365.40625 148.804688 364.90625 148.023438 364.125 148.023438 C 363.46875 148.023438 363.0625 148.523438 363.0625 149.085938 C 363.0625 149.617188 363.46875 150.148438 364.125 150.148438 C 364.34375 150.148438 364.625 150.054688 364.8125 149.898438 C 364.875 149.835938 364.90625 149.835938 364.90625 149.835938 C 364.9375 149.835938 364.9375 149.835938 364.9375 150.117188 C 364.9375 151.617188 364.25 152.804688 363.59375 153.460938 C 363.375 153.679688 363.375 153.710938 363.375 153.773438 C 363.375 153.929688 363.46875 153.992188 363.5625 153.992188 C 363.78125 153.992188 365.40625 152.460938 365.40625 150.117188 Z M 365.40625 150.117188 "/>
<path style=" stroke:none;fill-rule:nonzero;fill:rgb(0%,0%,0%);fill-opacity:1;" d="M 379.355469 143.773438 C 379.355469 142.179688 379.261719 140.585938 378.574219 139.117188 C 377.667969 137.179688 376.011719 136.867188 375.199219 136.867188 C 373.980469 136.867188 372.542969 137.398438 371.699219 139.242188 C 371.074219 140.617188 370.980469 142.179688 370.980469 143.773438 C 370.980469 145.273438 371.042969 147.054688 371.886719 148.585938 C 372.730469 150.179688 374.199219 150.585938 375.167969 150.585938 C 376.230469 150.585938 377.761719 150.179688 378.636719 148.273438 C 379.261719 146.898438 379.355469 145.335938 379.355469 143.773438 Z M 375.167969 150.148438 C 374.386719 150.148438 373.199219 149.648438 372.855469 147.742188 C 372.636719 146.554688 372.636719 144.710938 372.636719 143.523438 C 372.636719 142.242188 372.636719 140.929688 372.792969 139.867188 C 373.167969 137.492188 374.667969 137.304688 375.167969 137.304688 C 375.824219 137.304688 377.136719 137.679688 377.511719 139.648438 C 377.730469 140.773438 377.730469 142.273438 377.730469 143.523438 C 377.730469 145.023438 377.730469 146.367188 377.511719 147.648438 C 377.199219 149.554688 376.074219 150.148438 375.167969 150.148438 Z M 375.167969 150.148438 "/>
<path style=" stroke:none;fill-rule:nonzero;fill:rgb(0%,0%,0%);fill-opacity:1;" d="M 385.910156 145.148438 C 385.910156 143.617188 385.691406 141.210938 384.597656 138.929688 C 383.410156 136.492188 381.691406 135.179688 381.503906 135.179688 C 381.378906 135.179688 381.285156 135.273438 381.285156 135.398438 C 381.285156 135.460938 381.285156 135.492188 381.660156 135.867188 C 383.628906 137.835938 384.753906 140.992188 384.753906 145.148438 C 384.753906 148.585938 384.035156 152.085938 381.566406 154.585938 C 381.285156 154.835938 381.285156 154.867188 381.285156 154.929688 C 381.285156 155.054688 381.378906 155.148438 381.503906 155.148438 C 381.691406 155.148438 383.503906 153.773438 384.660156 151.242188 C 385.691406 149.054688 385.910156 146.835938 385.910156 145.148438 Z M 385.910156 145.148438 "/>
<path style=" stroke:none;fill-rule:nonzero;fill:rgb(0%,0%,0%);fill-opacity:1;" d="M 4.625 154.929688 C 4.625 154.867188 4.625 154.835938 4.28125 154.492188 C 1.8125 151.992188 1.15625 148.210938 1.15625 145.148438 C 1.15625 141.679688 1.90625 138.210938 4.375 135.742188 C 4.625 135.492188 4.625 135.460938 4.625 135.398438 C 4.625 135.242188 4.5625 135.179688 4.4375 135.179688 C 4.21875 135.179688 2.4375 136.554688 1.25 139.085938 C 0.25 141.273438 0 143.492188 0 145.148438 C 0 146.710938 0.21875 149.117188 1.3125 151.398438 C 2.53125 153.835938 4.21875 155.148438 4.4375 155.148438 C 4.5625 155.148438 4.625 155.085938 4.625 154.929688 Z M 4.625 154.929688 "/>
<path style=" stroke:none;fill-rule:nonzero;fill:rgb(0%,0%,0%);fill-opacity:1;" d="M 14.9375 143.773438 C 14.9375 142.179688 14.84375 140.585938 14.15625 139.117188 C 13.25 137.179688 11.59375 136.867188 10.78125 136.867188 C 9.5625 136.867188 8.125 137.398438 7.28125 139.242188 C 6.65625 140.617188 6.5625 142.179688 6.5625 143.773438 C 6.5625 145.273438 6.625 147.054688 7.46875 148.585938 C 8.3125 150.179688 9.78125 150.585938 10.75 150.585938 C 11.8125 150.585938 13.34375 150.179688 14.21875 148.273438 C 14.84375 146.898438 14.9375 145.335938 14.9375 143.773438 Z M 10.75 150.148438 C 9.96875 150.148438 8.78125 149.648438 8.4375 147.742188 C 8.21875 146.554688 8.21875 144.710938 8.21875 143.523438 C 8.21875 142.242188 8.21875 140.929688 8.375 139.867188 C 8.75 137.492188 10.25 137.304688 10.75 137.304688 C 11.40625 137.304688 12.71875 137.679688 13.09375 139.648438 C 13.3125 140.773438 13.3125 142.273438 13.3125 143.523438 C 13.3125 145.023438 13.3125 146.367188 13.09375 147.648438 C 12.78125 149.554688 11.65625 150.148438 10.75 150.148438 Z M 10.75 150.148438 "/>
<path style=" stroke:none;fill-rule:nonzero;fill:rgb(0%,0%,0%);fill-opacity:1;" d="M 19.804688 150.117188 C 19.804688 148.804688 19.304688 148.023438 18.523438 148.023438 C 17.867188 148.023438 17.460938 148.523438 17.460938 149.085938 C 17.460938 149.617188 17.867188 150.148438 18.523438 150.148438 C 18.742188 150.148438 19.023438 150.054688 19.210938 149.898438 C 19.273438 149.835938 19.304688 149.835938 19.304688 149.835938 C 19.335938 149.835938 19.335938 149.835938 19.335938 150.117188 C 19.335938 151.617188 18.648438 152.804688 17.992188 153.460938 C 17.773438 153.679688 17.773438 153.710938 17.773438 153.773438 C 17.773438 153.929688 17.867188 153.992188 17.960938 153.992188 C 18.179688 153.992188 19.804688 152.460938 19.804688 150.117188 Z M 19.804688 150.117188 "/>
<path style=" stroke:none;fill-rule:nonzero;fill:rgb(0%,0%,0%);fill-opacity:1;" d="M 33.753906 143.773438 C 33.753906 142.179688 33.660156 140.585938 32.972656 139.117188 C 32.066406 137.179688 30.410156 136.867188 29.597656 136.867188 C 28.378906 136.867188 26.941406 137.398438 26.097656 139.242188 C 25.472656 140.617188 25.378906 142.179688 25.378906 143.773438 C 25.378906 145.273438 25.441406 147.054688 26.285156 148.585938 C 27.128906 150.179688 28.597656 150.585938 29.566406 150.585938 C 30.628906 150.585938 32.160156 150.179688 33.035156 148.273438 C 33.660156 146.898438 33.753906 145.335938 33.753906 143.773438 Z M 29.566406 150.148438 C 28.785156 150.148438 27.597656 149.648438 27.253906 147.742188 C 27.035156 146.554688 27.035156 144.710938 27.035156 143.523438 C 27.035156 142.242188 27.035156 140.929688 27.191406 139.867188 C 27.566406 137.492188 29.066406 137.304688 29.566406 137.304688 C 30.222656 137.304688 31.535156 137.679688 31.910156 139.648438 C 32.128906 140.773438 32.128906 142.273438 32.128906 143.523438 C 32.128906 145.023438 32.128906 146.367188 31.910156 147.648438 C 31.597656 149.554688 30.472656 150.148438 29.566406 150.148438 Z M 29.566406 150.148438 "/>
<path style=" stroke:none;fill-rule:nonzero;fill:rgb(0%,0%,0%);fill-opacity:1;" d="M 40.3125 145.148438 C 40.3125 143.617188 40.09375 141.210938 39 138.929688 C 37.8125 136.492188 36.09375 135.179688 35.90625 135.179688 C 35.78125 135.179688 35.6875 135.273438 35.6875 135.398438 C 35.6875 135.460938 35.6875 135.492188 36.0625 135.867188 C 38.03125 137.835938 39.15625 140.992188 39.15625 145.148438 C 39.15625 148.585938 38.4375 152.085938 35.96875 154.585938 C 35.6875 154.835938 35.6875 154.867188 35.6875 154.929688 C 35.6875 155.054688 35.78125 155.148438 35.90625 155.148438 C 36.09375 155.148438 37.90625 153.773438 39.0625 151.242188 C 40.09375 149.054688 40.3125 146.835938 40.3125 145.148438 Z M 40.3125 145.148438 "/>
<path style="fill:none;stroke-width:1.6;stroke-linecap:butt;stroke-linejoin:miter;stroke:rgb(100%,0%,0%);stroke-opacity:1;stroke-miterlimit:4;" d="M 690.957031 144.789062 L 690.957031 125.589844 L 710.160156 125.589844 "/>
<use xlink:href="#surface46" transform="matrix(1,0,0,1,503,121)" mask="url(#mask6)"/>
<path style=" stroke:none;fill-rule:nonzero;fill:rgb(0%,0%,0%);fill-opacity:1;" d="M 501.097656 130.777344 C 501.097656 129.464844 500.753906 126.683594 498.722656 126.683594 C 495.941406 126.683594 492.878906 132.308594 492.878906 136.871094 C 492.878906 138.746094 493.441406 140.964844 495.253906 140.964844 C 498.066406 140.964844 501.097656 135.246094 501.097656 130.777344 Z M 494.972656 133.496094 C 495.316406 132.246094 495.722656 130.652344 496.535156 129.214844 C 497.066406 128.246094 497.785156 127.121094 498.691406 127.121094 C 499.660156 127.121094 499.785156 128.402344 499.785156 129.527344 C 499.785156 130.527344 499.628906 131.527344 499.160156 133.496094 Z M 498.972656 134.152344 C 498.753906 135.058594 498.347656 136.746094 497.566406 138.183594 C 496.878906 139.558594 496.128906 140.527344 495.253906 140.527344 C 494.597656 140.527344 494.191406 139.933594 494.191406 138.089844 C 494.191406 137.246094 494.316406 136.089844 494.816406 134.152344 Z M 498.972656 134.152344 "/>
<path style="fill:none;stroke-width:2.4;stroke-linecap:butt;stroke-linejoin:miter;stroke:rgb(0%,0%,0%);stroke-opacity:1;stroke-miterlimit:4;" d="M 710.160156 144.789062 L 450.957031 144.789062 L 710.160156 19.988281 Z M 710.160156 144.789062 "/>
<g clip-path="url(#clip16)" clip-rule="nonzero">
<path style=" stroke:none;fill-rule:nonzero;fill:rgb(0%,0%,0%);fill-opacity:1;" d="M 724.257812 98.761719 C 724.351562 98.324219 724.664062 96.699219 726.101562 96.699219 C 727.101562 96.699219 727.914062 97.386719 727.914062 98.949219 C 727.914062 100.636719 726.789062 101.355469 725.070312 101.730469 C 724.820312 101.792969 724.757812 101.792969 724.757812 102.011719 C 724.757812 102.261719 724.882812 102.261719 725.226562 102.261719 L 727.882812 102.261719 C 728.226562 102.261719 728.351562 102.261719 728.351562 102.042969 C 728.351562 101.949219 728.320312 101.917969 727.945312 101.542969 C 727.914062 101.511719 727.882812 101.511719 727.507812 101.136719 C 728.320312 100.261719 728.351562 99.355469 728.351562 98.949219 C 728.351562 96.667969 727.007812 95.730469 725.570312 95.730469 C 724.539062 95.730469 723.914062 96.324219 723.695312 96.574219 C 723.039062 97.230469 722.882812 98.011719 722.726562 98.855469 C 722.507812 99.980469 722.257812 101.292969 721.101562 101.292969 C 720.382812 101.292969 719.570312 100.792969 719.570312 99.074219 C 719.570312 96.886719 721.382812 96.761719 721.976562 96.730469 C 722.164062 96.730469 722.164062 96.542969 722.164062 96.511719 C 722.164062 96.230469 722.070312 96.230469 721.695312 96.230469 L 719.664062 96.230469 C 719.351562 96.230469 719.195312 96.230469 719.195312 96.449219 C 719.195312 96.542969 719.195312 96.605469 719.445312 96.855469 C 719.507812 96.917969 719.695312 97.105469 719.757812 97.199219 C 719.195312 97.949219 719.195312 98.761719 719.195312 99.074219 C 719.195312 101.511719 720.539062 102.261719 721.664062 102.261719 C 722.351562 102.261719 722.914062 101.949219 723.351562 101.417969 C 723.851562 100.761719 723.976562 100.199219 724.257812 98.761719 Z M 724.257812 98.761719 "/>
</g>
<g clip-path="url(#clip17)" clip-rule="nonzero">
<path style=" stroke:none;fill-rule:nonzero;fill:rgb(0%,0%,0%);fill-opacity:1;" d="M 719.320312 91.527344 L 719.539062 94.308594 L 720.164062 94.308594 C 720.164062 93.027344 720.289062 92.839844 721.257812 92.839844 L 726.632812 92.839844 C 727.507812 92.839844 727.507812 93.058594 727.507812 94.402344 L 728.132812 94.402344 C 728.101562 93.777344 728.070312 92.683594 728.070312 92.214844 C 728.070312 91.496094 728.101562 90.808594 728.132812 90.121094 L 727.507812 90.121094 C 727.507812 91.464844 727.414062 91.527344 726.632812 91.527344 Z M 715.851562 91.464844 C 715.226562 91.464844 714.789062 91.933594 714.789062 92.496094 C 714.789062 93.121094 715.320312 93.558594 715.851562 93.558594 C 716.382812 93.558594 716.914062 93.121094 716.914062 92.496094 C 716.914062 91.933594 716.476562 91.464844 715.851562 91.464844 Z M 715.851562 91.464844 "/>
</g>
<g clip-path="url(#clip18)" clip-rule="nonzero">
<path style=" stroke:none;fill-rule:nonzero;fill:rgb(0%,0%,0%);fill-opacity:1;" d="M 721.289062 87.335938 L 726.632812 87.335938 C 727.507812 87.335938 727.507812 87.554688 727.507812 88.898438 L 728.132812 88.898438 C 728.101562 88.179688 728.070312 87.179688 728.070312 86.617188 C 728.070312 86.117188 728.101562 85.085938 728.132812 84.398438 L 727.507812 84.398438 C 727.507812 85.742188 727.507812 85.960938 726.632812 85.960938 L 722.945312 85.960938 C 720.882812 85.960938 719.757812 84.523438 719.757812 83.273438 C 719.757812 81.992188 720.820312 81.773438 721.976562 81.773438 L 726.632812 81.773438 C 727.507812 81.773438 727.507812 81.992188 727.507812 83.335938 L 728.132812 83.335938 C 728.101562 82.648438 728.070312 81.617188 728.070312 81.085938 C 728.070312 80.585938 728.101562 79.523438 728.132812 78.867188 L 727.507812 78.867188 C 727.507812 79.898438 727.507812 80.398438 726.914062 80.398438 L 723.101562 80.398438 C 721.382812 80.398438 720.789062 80.398438 720.070312 81.023438 C 719.726562 81.304688 719.320312 81.960938 719.320312 83.117188 C 719.320312 84.585938 720.164062 85.523438 721.414062 86.085938 L 719.320312 86.085938 L 719.539062 88.898438 L 720.164062 88.898438 C 720.164062 87.492188 720.289062 87.335938 721.289062 87.335938 Z M 721.289062 87.335938 "/>
</g>
<g clip-path="url(#clip19)" clip-rule="nonzero">
<path style=" stroke:none;fill-rule:nonzero;fill:rgb(0%,0%,0%);fill-opacity:1;" d="M 718.164062 66.070312 C 716.851562 66.070312 714.070312 66.414062 714.070312 68.445312 C 714.070312 71.226562 719.695312 74.289062 724.257812 74.289062 C 726.132812 74.289062 728.351562 73.726562 728.351562 71.914062 C 728.351562 69.101562 722.632812 66.070312 718.164062 66.070312 Z M 720.882812 72.195312 C 719.632812 71.851562 718.039062 71.445312 716.601562 70.632812 C 715.632812 70.101562 714.507812 69.382812 714.507812 68.476562 C 714.507812 67.507812 715.789062 67.382812 716.914062 67.382812 C 717.914062 67.382812 718.914062 67.539062 720.882812 68.007812 Z M 721.539062 68.195312 C 722.445312 68.414062 724.132812 68.820312 725.570312 69.601562 C 726.945312 70.289062 727.914062 71.039062 727.914062 71.914062 C 727.914062 72.570312 727.320312 72.976562 725.476562 72.976562 C 724.632812 72.976562 723.476562 72.851562 721.539062 72.351562 Z M 721.539062 68.195312 "/>
</g>
<path style="fill:none;stroke-width:1.2;stroke-linecap:butt;stroke-linejoin:miter;stroke:rgb(100%,0%,0%);stroke-opacity:1;stroke-miterlimit:4;" d="M 714.957031 139.988281 L 714.957031 106.390625 "/>
<path style="fill-rule:evenodd;fill:rgb(100%,0%,0%);fill-opacity:1;stroke-width:0.3;stroke-linecap:butt;stroke-linejoin:miter;stroke:rgb(100%,0%,0%);stroke-opacity:1;stroke-miterlimit:4;" d="M -138.550781 714.957031 L -137.351562 713.757812 L -141.550781 714.957031 L -137.351562 716.160156 Z M -138.550781 714.957031 " transform="matrix(0,-1,1,0,0,0)"/>
<path style="fill:none;stroke-width:1.2;stroke-linecap:butt;stroke-linejoin:miter;stroke:rgb(100%,0%,0%);stroke-opacity:1;stroke-miterlimit:4;" d="M 714.957031 24.789062 L 714.957031 63.191406 "/>
<path style="fill-rule:evenodd;fill:rgb(100%,0%,0%);fill-opacity:1;stroke-width:0.3;stroke-linecap:butt;stroke-linejoin:miter;stroke:rgb(100%,0%,0%);stroke-opacity:1;stroke-miterlimit:4;" d="M 26.230469 -714.957031 L 27.429688 -716.160156 L 23.230469 -714.957031 L 27.429688 -713.757812 Z M 26.230469 -714.957031 " transform="matrix(0,1,-1,0,0,0)"/>
<path style=" stroke:none;fill-rule:nonzero;fill:rgb(0%,0%,0%);fill-opacity:1;" d="M 561.652344 72.785156 C 561.425781 72.339844 561.410156 72.3125 560.992188 72.523438 C 560.460938 74.234375 558.902344 75.027344 558.347656 75.3125 L 558.628906 75.867188 C 558.992188 75.683594 560.023438 75.160156 560.699219 74.214844 L 565.394531 83.433594 C 565.722656 84.074219 565.765625 84.296875 564.179688 85.105469 L 563.621094 85.390625 L 563.90625 85.945312 C 564.488281 85.578125 566.019531 84.796875 566.746094 84.429688 C 567.441406 84.074219 569 83.28125 569.640625 83.023438 L 569.359375 82.464844 L 568.800781 82.75 C 567.1875 83.574219 567.058594 83.390625 566.730469 82.75 Z M 561.652344 72.785156 "/>
<path style="fill:none;stroke-width:1.081182;stroke-linecap:butt;stroke-linejoin:miter;stroke:rgb(100%,0%,0%);stroke-opacity:1;stroke-miterlimit:4;" d="M 313.281122 289.232538 L 412.750438 289.231362 " transform="matrix(1,-0.481528,0.481528,1,0,0)"/>
<path style="fill-rule:evenodd;fill:rgb(100%,0%,0%);fill-opacity:1;stroke-width:0.270296;stroke-linecap:butt;stroke-linejoin:miter;stroke:rgb(100%,0%,0%);stroke-opacity:1;stroke-miterlimit:4;" d="M 314.578199 289.232117 L 315.65769 288.15036 L 311.875406 289.231428 L 315.65843 290.314779 Z M 314.578199 289.232117 " transform="matrix(1,-0.481528,0.481528,1,0,0)"/>
<path style="fill:none;stroke-width:1.081182;stroke-linecap:butt;stroke-linejoin:miter;stroke:rgb(100%,0%,0%);stroke-opacity:1;stroke-miterlimit:4;" d="M 564.112607 289.233672 L 438.695279 289.232342 " transform="matrix(1,-0.481528,0.481528,1,0,0)"/>
<path style="fill-rule:evenodd;fill:rgb(100%,0%,0%);fill-opacity:1;stroke-width:0.270296;stroke-linecap:butt;stroke-linejoin:miter;stroke:rgb(100%,0%,0%);stroke-opacity:1;stroke-miterlimit:4;" d="M -562.817057 -289.230922 L -561.737566 -290.312679 L -565.51985 -289.231611 L -561.735299 -288.151431 Z M -562.817057 -289.230922 " transform="matrix(-1,0.481528,-0.481528,-1,0,0)"/>
<path style="fill:none;stroke-width:1.2;stroke-linecap:butt;stroke-linejoin:miter;stroke:rgb(100%,0%,0%);stroke-opacity:1;stroke-miterlimit:4;" d="M 450.957031 149.589844 L 551.757812 149.589844 "/>
<path style="fill-rule:evenodd;fill:rgb(100%,0%,0%);fill-opacity:1;stroke-width:0.3;stroke-linecap:butt;stroke-linejoin:miter;stroke:rgb(100%,0%,0%);stroke-opacity:1;stroke-miterlimit:4;" d="M 452.398438 149.589844 L 453.597656 148.390625 L 449.398438 149.589844 L 453.597656 150.789062 Z M 452.398438 149.589844 "/>
<path style="fill:none;stroke-width:1.2;stroke-linecap:butt;stroke-linejoin:miter;stroke:rgb(100%,0%,0%);stroke-opacity:1;stroke-miterlimit:4;" d="M 705.359375 149.589844 L 599.757812 149.589844 "/>
<path style="fill-rule:evenodd;fill:rgb(100%,0%,0%);fill-opacity:1;stroke-width:0.3;stroke-linecap:butt;stroke-linejoin:miter;stroke:rgb(100%,0%,0%);stroke-opacity:1;stroke-miterlimit:4;" d="M -703.917969 -149.589844 L -702.71875 -150.789062 L -706.917969 -149.589844 L -702.71875 -148.390625 Z M -703.917969 -149.589844 " transform="matrix(-1,0,0,-1,0,0)"/>
<path style=" stroke:none;fill-rule:nonzero;fill:rgb(0%,0%,0%);fill-opacity:1;" d="M 557.574219 158.417969 C 557.574219 155.167969 559.199219 154.324219 560.261719 154.324219 C 560.449219 154.324219 561.699219 154.355469 562.386719 155.074219 C 561.574219 155.136719 561.449219 155.730469 561.449219 155.980469 C 561.449219 156.511719 561.824219 156.886719 562.355469 156.886719 C 562.886719 156.886719 563.292969 156.574219 563.292969 155.949219 C 563.292969 154.605469 561.761719 153.824219 560.230469 153.824219 C 557.730469 153.824219 555.917969 155.980469 555.917969 158.449219 C 555.917969 161.011719 557.886719 162.980469 560.199219 162.980469 C 562.855469 162.980469 563.511719 160.574219 563.511719 160.386719 C 563.511719 160.199219 563.292969 160.199219 563.230469 160.199219 C 563.074219 160.199219 563.011719 160.261719 562.980469 160.386719 C 562.417969 162.230469 561.105469 162.480469 560.386719 162.480469 C 559.324219 162.480469 557.574219 161.636719 557.574219 158.417969 Z M 557.574219 158.417969 "/>
<path style=" stroke:none;fill-rule:nonzero;fill:rgb(0%,0%,0%);fill-opacity:1;" d="M 573.460938 158.480469 C 573.460938 155.949219 571.492188 153.824219 569.085938 153.824219 C 566.585938 153.824219 564.648438 156.011719 564.648438 158.480469 C 564.648438 161.074219 566.710938 162.980469 569.054688 162.980469 C 571.460938 162.980469 573.460938 161.011719 573.460938 158.480469 Z M 569.085938 162.480469 C 568.210938 162.480469 567.335938 162.074219 566.804688 161.136719 C 566.304688 160.261719 566.304688 159.042969 566.304688 158.324219 C 566.304688 157.542969 566.304688 156.480469 566.773438 155.605469 C 567.304688 154.699219 568.242188 154.261719 569.054688 154.261719 C 569.929688 154.261719 570.773438 154.699219 571.304688 155.574219 C 571.835938 156.417969 571.835938 157.574219 571.835938 158.324219 C 571.835938 159.042969 571.835938 160.136719 571.398438 161.011719 C 570.929688 161.917969 570.054688 162.480469 569.085938 162.480469 Z M 569.085938 162.480469 "/>
<path style=" stroke:none;fill-rule:nonzero;fill:rgb(0%,0%,0%);fill-opacity:1;" d="M 578.207031 158.886719 C 578.644531 158.980469 580.269531 159.292969 580.269531 160.730469 C 580.269531 161.730469 579.582031 162.542969 578.019531 162.542969 C 576.332031 162.542969 575.613281 161.417969 575.238281 159.699219 C 575.175781 159.449219 575.175781 159.386719 574.957031 159.386719 C 574.707031 159.386719 574.707031 159.511719 574.707031 159.855469 L 574.707031 162.511719 C 574.707031 162.855469 574.707031 162.980469 574.925781 162.980469 C 575.019531 162.980469 575.050781 162.949219 575.425781 162.574219 C 575.457031 162.542969 575.457031 162.511719 575.832031 162.136719 C 576.707031 162.949219 577.613281 162.980469 578.019531 162.980469 C 580.300781 162.980469 581.238281 161.636719 581.238281 160.199219 C 581.238281 159.167969 580.644531 158.542969 580.394531 158.324219 C 579.738281 157.667969 578.957031 157.511719 578.113281 157.355469 C 576.988281 157.136719 575.675781 156.886719 575.675781 155.730469 C 575.675781 155.011719 576.175781 154.199219 577.894531 154.199219 C 580.082031 154.199219 580.207031 156.011719 580.238281 156.605469 C 580.238281 156.792969 580.425781 156.792969 580.457031 156.792969 C 580.738281 156.792969 580.738281 156.699219 580.738281 156.324219 L 580.738281 154.292969 C 580.738281 153.980469 580.738281 153.824219 580.519531 153.824219 C 580.425781 153.824219 580.363281 153.824219 580.113281 154.074219 C 580.050781 154.136719 579.863281 154.324219 579.769531 154.386719 C 579.019531 153.824219 578.207031 153.824219 577.894531 153.824219 C 575.457031 153.824219 574.707031 155.167969 574.707031 156.292969 C 574.707031 156.980469 575.019531 157.542969 575.550781 157.980469 C 576.207031 158.480469 576.769531 158.605469 578.207031 158.886719 Z M 578.207031 158.886719 "/>
<path style=" stroke:none;fill-rule:nonzero;fill:rgb(0%,0%,0%);fill-opacity:1;" d="M 594.292969 152.792969 C 594.292969 151.480469 593.949219 148.699219 591.917969 148.699219 C 589.136719 148.699219 586.074219 154.324219 586.074219 158.886719 C 586.074219 160.761719 586.636719 162.980469 588.449219 162.980469 C 591.261719 162.980469 594.292969 157.261719 594.292969 152.792969 Z M 588.167969 155.511719 C 588.511719 154.261719 588.917969 152.667969 589.730469 151.230469 C 590.261719 150.261719 590.980469 149.136719 591.886719 149.136719 C 592.855469 149.136719 592.980469 150.417969 592.980469 151.542969 C 592.980469 152.542969 592.824219 153.542969 592.355469 155.511719 Z M 592.167969 156.167969 C 591.949219 157.074219 591.542969 158.761719 590.761719 160.199219 C 590.074219 161.574219 589.324219 162.542969 588.449219 162.542969 C 587.792969 162.542969 587.386719 161.949219 587.386719 160.105469 C 587.386719 159.261719 587.511719 158.105469 588.011719 156.167969 Z M 592.167969 156.167969 "/>
<path style=" stroke:none;fill-rule:nonzero;fill:rgb(0%,0%,0%);fill-opacity:1;" d="M 671.90625 56.554688 L 673.089844 55.394531 C 673.523438 56.152344 674.171875 57.261719 674.960938 58.066406 C 675.355469 58.46875 675.683594 58.671875 675.925781 58.828125 C 676.585938 59.1875 676.738281 59.078125 676.894531 58.925781 C 677.140625 58.6875 677.167969 58.265625 676.929688 58.019531 C 676.863281 57.953125 676.796875 57.929688 676.664062 57.886719 C 676.089844 57.703125 675.367188 57.320312 674.558594 56.492188 C 674.382812 56.316406 673.988281 55.914062 673.421875 55.066406 L 674.671875 53.84375 C 674.851562 53.667969 674.941406 53.582031 674.988281 53.40625 C 675.011719 53.160156 674.882812 52.984375 674.839844 52.9375 C 674.554688 52.648438 674.308594 52.890625 674.128906 53.0625 L 670.378906 56.738281 C 669.976562 57.128906 669.773438 57.503906 669.742188 58.367188 C 669.691406 58.851562 669.839844 59.757812 669.925781 59.847656 C 670.035156 59.960938 670.167969 59.828125 670.214844 59.785156 C 670.324219 59.675781 670.304688 59.652344 670.28125 59.496094 C 670.097656 58.324219 670.722656 57.710938 670.945312 57.492188 L 671.546875 56.902344 C 672.304688 58.304688 672.929688 60.011719 673.230469 60.898438 C 673.269531 61.078125 673.402344 61.386719 673.378906 61.453125 C 673.421875 61.496094 673.441406 61.5625 673.507812 61.632812 C 673.660156 61.789062 673.925781 61.835938 674.171875 61.59375 C 674.550781 61.222656 674.226562 60.667969 673.597656 59.53125 Z M 671.90625 56.554688 "/>
<path style="fill:none;stroke-width:0.568769;stroke-linecap:butt;stroke-linejoin:miter;stroke:rgb(0%,0%,0%);stroke-opacity:1;stroke-miterlimit:10;" d="M 311.674019 -370.414561 L 318.684784 -370.415535 " transform="matrix(1,-0.979102,-0.979102,-1,0,0)"/>
<path style=" stroke:none;fill-rule:nonzero;fill:rgb(0%,0%,0%);fill-opacity:1;" d="M 686.5625 66.339844 L 686.226562 66.667969 C 686.421875 66.914062 686.878906 67.605469 686.832031 67.824219 C 686.832031 67.957031 686.074219 68.699219 685.917969 68.855469 L 684.085938 70.644531 C 684.238281 68.703125 684.3125 68.0625 684.433594 67.027344 C 684.601562 65.722656 684.679688 64.421875 683.761719 63.484375 C 682.582031 62.277344 680.8125 62.566406 679.539062 63.8125 C 678.3125 65.015625 678.316406 66.71875 679.210938 67.632812 C 679.691406 68.125 680.183594 67.777344 680.292969 67.667969 C 680.515625 67.449219 680.632812 66.984375 680.28125 66.628906 C 680.109375 66.449219 679.691406 66.160156 679.175781 66.660156 C 678.8125 65.664062 679.261719 64.785156 679.734375 64.324219 C 680.738281 63.339844 682.015625 63.621094 682.804688 64.421875 C 683.65625 65.292969 683.6875 66.574219 683.722656 67.238281 L 683.671875 71.96875 C 683.648438 72.167969 683.671875 72.1875 683.933594 72.457031 L 688.042969 68.433594 Z M 686.5625 66.339844 "/>
<path style=" stroke:none;fill-rule:nonzero;fill:rgb(0%,0%,0%);fill-opacity:1;" d="M 695.882812 44.714844 C 696.128906 44.472656 696.398438 44.210938 696.113281 43.921875 C 695.851562 43.652344 695.582031 43.914062 695.335938 44.15625 L 687.632812 51.699219 C 687.386719 51.9375 687.140625 52.179688 687.40625 52.445312 C 687.6875 52.738281 687.933594 52.496094 688.179688 52.253906 Z M 695.882812 44.714844 "/>
<path style=" stroke:none;fill-rule:nonzero;fill:rgb(0%,0%,0%);fill-opacity:1;" d="M 703.457031 29.773438 C 702.539062 28.835938 700.347656 27.089844 698.898438 28.511719 C 696.910156 30.457031 698.65625 36.617188 701.847656 39.878906 C 703.160156 41.21875 705.113281 42.410156 706.410156 41.140625 C 708.417969 39.175781 706.585938 32.96875 703.457031 29.773438 Z M 700.984375 36.003906 C 700.355469 34.867188 699.53125 33.445312 699.105469 31.851562 C 698.808594 30.785156 698.535156 29.480469 699.179688 28.84375 C 699.871094 28.167969 700.859375 28.996094 701.644531 29.800781 C 702.34375 30.515625 702.933594 31.339844 703.976562 33.074219 Z M 704.300781 33.671875 C 704.777344 34.472656 705.667969 35.964844 706.117188 37.535156 C 706.585938 39 706.730469 40.21875 706.105469 40.828125 C 705.632812 41.289062 704.929688 41.148438 703.640625 39.832031 C 703.050781 39.226562 702.328125 38.316406 701.332031 36.582031 Z M 704.300781 33.671875 "/>
<use xlink:href="#surface47" transform="matrix(1,0,0,1,654,48)" mask="url(#mask7)"/>
</g>
</svg>
