<?xml version="1.0" encoding="UTF-8" standalone="no"?>
<!-- Created with Inkscape (http://www.inkscape.org/) -->

<svg
   xmlns:ns0="http://www.iki.fi/pav/software/textext/"
   xmlns:dc="http://purl.org/dc/elements/1.1/"
   xmlns:cc="http://creativecommons.org/ns#"
   xmlns:rdf="http://www.w3.org/1999/02/22-rdf-syntax-ns#"
   xmlns:svg="http://www.w3.org/2000/svg"
   xmlns="http://www.w3.org/2000/svg"
   xmlns:xlink="http://www.w3.org/1999/xlink"
   xmlns:sodipodi="http://sodipodi.sourceforge.net/DTD/sodipodi-0.dtd"
   xmlns:inkscape="http://www.inkscape.org/namespaces/inkscape"
   width="744.09448819"
   height="1052.3622047"
   id="svg2"
   version="1.1"
   inkscape:version="0.91 r"
   sodipodi:docname="rolle_sketch2.svg">
  <sodipodi:namedview
     id="base"
     pagecolor="#ffffff"
     bordercolor="#666666"
     borderopacity="1.0"
     inkscape:pageopacity="0.0"
     inkscape:pageshadow="2"
     inkscape:zoom="1.9242567"
     inkscape:cx="142.60216"
     inkscape:cy="684"
     inkscape:document-units="px"
     inkscape:current-layer="layer1"
     showgrid="true"
     inkscape:window-width="1680"
     inkscape:window-height="1003"
     inkscape:window-x="-2"
     inkscape:window-y="-3"
     inkscape:window-maximized="1"
     inkscape:snap-bbox="true"
     inkscape:snap-grids="true"
     inkscape:snap-global="true"
     inkscape:object-paths="true"
     inkscape:snap-intersection-paths="true"
     inkscape:object-nodes="true"
     inkscape:snap-smooth-nodes="true">
    <inkscape:grid
       type="xygrid"
       id="grid4768"
       empspacing="6"
       spacingx="6"
       spacingy="6" />
  </sodipodi:namedview>
  <defs
     id="defs4">
    <inkscape:perspective
       sodipodi:type="inkscape:persp3d"
       inkscape:vp_x="0 : 526.18109 : 1"
       inkscape:vp_y="0 : 1000 : 0"
       inkscape:vp_z="744.09448 : 526.18109 : 1"
       inkscape:persp3d-origin="372.04724 : 350.78739 : 1"
       id="perspective10" />
    <inkscape:perspective
       id="perspective2826"
       inkscape:persp3d-origin="0.5 : 0.33333333 : 1"
       inkscape:vp_z="1 : 0.5 : 1"
       inkscape:vp_y="0 : 1000 : 0"
       inkscape:vp_x="0 : 0.5 : 1"
       sodipodi:type="inkscape:persp3d" />
    <inkscape:perspective
       id="perspective3624"
       inkscape:persp3d-origin="0.5 : 0.33333333 : 1"
       inkscape:vp_z="1 : 0.5 : 1"
       inkscape:vp_y="0 : 1000 : 0"
       inkscape:vp_x="0 : 0.5 : 1"
       sodipodi:type="inkscape:persp3d" />
    <inkscape:perspective
       id="perspective3648"
       inkscape:persp3d-origin="0.5 : 0.33333333 : 1"
       inkscape:vp_z="1 : 0.5 : 1"
       inkscape:vp_y="0 : 1000 : 0"
       inkscape:vp_x="0 : 0.5 : 1"
       sodipodi:type="inkscape:persp3d" />
    <inkscape:perspective
       id="perspective3685"
       inkscape:persp3d-origin="0.5 : 0.33333333 : 1"
       inkscape:vp_z="1 : 0.5 : 1"
       inkscape:vp_y="0 : 1000 : 0"
       inkscape:vp_x="0 : 0.5 : 1"
       sodipodi:type="inkscape:persp3d" />
    <inkscape:perspective
       id="perspective3745"
       inkscape:persp3d-origin="0.5 : 0.33333333 : 1"
       inkscape:vp_z="1 : 0.5 : 1"
       inkscape:vp_y="0 : 1000 : 0"
       inkscape:vp_x="0 : 0.5 : 1"
       sodipodi:type="inkscape:persp3d" />
    <inkscape:perspective
       id="perspective3767"
       inkscape:persp3d-origin="0.5 : 0.33333333 : 1"
       inkscape:vp_z="1 : 0.5 : 1"
       inkscape:vp_y="0 : 1000 : 0"
       inkscape:vp_x="0 : 0.5 : 1"
       sodipodi:type="inkscape:persp3d" />
    <inkscape:perspective
       id="perspective3767-6"
       inkscape:persp3d-origin="0.5 : 0.33333333 : 1"
       inkscape:vp_z="1 : 0.5 : 1"
       inkscape:vp_y="0 : 1000 : 0"
       inkscape:vp_x="0 : 0.5 : 1"
       sodipodi:type="inkscape:persp3d" />
    <inkscape:perspective
       id="perspective3767-4"
       inkscape:persp3d-origin="0.5 : 0.33333333 : 1"
       inkscape:vp_z="1 : 0.5 : 1"
       inkscape:vp_y="0 : 1000 : 0"
       inkscape:vp_x="0 : 0.5 : 1"
       sodipodi:type="inkscape:persp3d" />
    <inkscape:perspective
       id="perspective3831"
       inkscape:persp3d-origin="0.5 : 0.33333333 : 1"
       inkscape:vp_z="1 : 0.5 : 1"
       inkscape:vp_y="0 : 1000 : 0"
       inkscape:vp_x="0 : 0.5 : 1"
       sodipodi:type="inkscape:persp3d" />
    <inkscape:perspective
       id="perspective3831-7"
       inkscape:persp3d-origin="0.5 : 0.33333333 : 1"
       inkscape:vp_z="1 : 0.5 : 1"
       inkscape:vp_y="0 : 1000 : 0"
       inkscape:vp_x="0 : 0.5 : 1"
       sodipodi:type="inkscape:persp3d" />
    <inkscape:perspective
       id="perspective3831-2"
       inkscape:persp3d-origin="0.5 : 0.33333333 : 1"
       inkscape:vp_z="1 : 0.5 : 1"
       inkscape:vp_y="0 : 1000 : 0"
       inkscape:vp_x="0 : 0.5 : 1"
       sodipodi:type="inkscape:persp3d" />
    <inkscape:perspective
       id="perspective3831-6"
       inkscape:persp3d-origin="0.5 : 0.33333333 : 1"
       inkscape:vp_z="1 : 0.5 : 1"
       inkscape:vp_y="0 : 1000 : 0"
       inkscape:vp_x="0 : 0.5 : 1"
       sodipodi:type="inkscape:persp3d" />
    <inkscape:perspective
       id="perspective3907"
       inkscape:persp3d-origin="0.5 : 0.33333333 : 1"
       inkscape:vp_z="1 : 0.5 : 1"
       inkscape:vp_y="0 : 1000 : 0"
       inkscape:vp_x="0 : 0.5 : 1"
       sodipodi:type="inkscape:persp3d" />
    <inkscape:perspective
       id="perspective3907-1"
       inkscape:persp3d-origin="0.5 : 0.33333333 : 1"
       inkscape:vp_z="1 : 0.5 : 1"
       inkscape:vp_y="0 : 1000 : 0"
       inkscape:vp_x="0 : 0.5 : 1"
       sodipodi:type="inkscape:persp3d" />
    <inkscape:perspective
       id="perspective3907-7"
       inkscape:persp3d-origin="0.5 : 0.33333333 : 1"
       inkscape:vp_z="1 : 0.5 : 1"
       inkscape:vp_y="0 : 1000 : 0"
       inkscape:vp_x="0 : 0.5 : 1"
       sodipodi:type="inkscape:persp3d" />
    <inkscape:perspective
       id="perspective3968"
       inkscape:persp3d-origin="0.5 : 0.33333333 : 1"
       inkscape:vp_z="1 : 0.5 : 1"
       inkscape:vp_y="0 : 1000 : 0"
       inkscape:vp_x="0 : 0.5 : 1"
       sodipodi:type="inkscape:persp3d" />
    <inkscape:perspective
       id="perspective3968-2"
       inkscape:persp3d-origin="0.5 : 0.33333333 : 1"
       inkscape:vp_z="1 : 0.5 : 1"
       inkscape:vp_y="0 : 1000 : 0"
       inkscape:vp_x="0 : 0.5 : 1"
       sodipodi:type="inkscape:persp3d" />
    <inkscape:perspective
       id="perspective4016"
       inkscape:persp3d-origin="0.5 : 0.33333333 : 1"
       inkscape:vp_z="1 : 0.5 : 1"
       inkscape:vp_y="0 : 1000 : 0"
       inkscape:vp_x="0 : 0.5 : 1"
       sodipodi:type="inkscape:persp3d" />
    <inkscape:perspective
       id="perspective4016-5"
       inkscape:persp3d-origin="0.5 : 0.33333333 : 1"
       inkscape:vp_z="1 : 0.5 : 1"
       inkscape:vp_y="0 : 1000 : 0"
       inkscape:vp_x="0 : 0.5 : 1"
       sodipodi:type="inkscape:persp3d" />
    <inkscape:perspective
       id="perspective4016-9"
       inkscape:persp3d-origin="0.5 : 0.33333333 : 1"
       inkscape:vp_z="1 : 0.5 : 1"
       inkscape:vp_y="0 : 1000 : 0"
       inkscape:vp_x="0 : 0.5 : 1"
       sodipodi:type="inkscape:persp3d" />
    <inkscape:perspective
       id="perspective4016-3"
       inkscape:persp3d-origin="0.5 : 0.33333333 : 1"
       inkscape:vp_z="1 : 0.5 : 1"
       inkscape:vp_y="0 : 1000 : 0"
       inkscape:vp_x="0 : 0.5 : 1"
       sodipodi:type="inkscape:persp3d" />
  </defs>
  <metadata
     id="metadata7">
    <rdf:RDF>
      <cc:Work
         rdf:about="">
        <dc:format>image/svg+xml</dc:format>
        <dc:type
           rdf:resource="http://purl.org/dc/dcmitype/StillImage" />
        <dc:title></dc:title>
      </cc:Work>
    </rdf:RDF>
  </metadata>
  <g
     inkscape:label="Layer 1"
     inkscape:groupmode="layer"
     id="layer1">
    <path
       inkscape:connector-curvature="0"
       style="fill:none;stroke:#ff0000;stroke-width:1px;stroke-linecap:butt;stroke-linejoin:miter;stroke-opacity:1"
       d="m 324,332.36218 -360,0"
       id="path2816-7-9"
       sodipodi:nodetypes="cc" />
    <path
       inkscape:connector-curvature="0"
       style="fill:none;stroke:#ff0000;stroke-width:1px;stroke-linecap:butt;stroke-linejoin:miter;stroke-opacity:1"
       d="m 144,260.36218 0,144"
       id="path2816-2"
       sodipodi:nodetypes="cc" />
    <path
       sodipodi:nodetypes="cc"
       inkscape:connector-curvature="0"
       id="path6540"
       d="m 198,260.36218 -72,144"
       style="fill:none;fill-rule:evenodd;stroke:#0000ff;stroke-width:2;stroke-linecap:butt;stroke-linejoin:miter;stroke-opacity:1" />
    <g
       id="g6588"
       transform="matrix(1.5,0,0,1.5,-92.885382,107.17545)"
       ns0:preamble="/home/andrew/.config/inkscape/extensions/header.txt"
       ns0:text="$\\sin x$">
      <defs
         id="defs6590">
        <g
           id="g6592">
          <symbol
             id="textext-d71b7b0b-0"
             overflow="visible"
             style="overflow:visible">
            <path
               id="path6595"
               d=""
               style="stroke:none"
               inkscape:connector-curvature="0" />
          </symbol>
          <symbol
             id="textext-d71b7b0b-1"
             overflow="visible"
             style="overflow:visible">
            <path
               id="path6598"
               d="m 2.078125,-1.9375 c 0.21875,0.046875 1.03125,0.203125 1.03125,0.921875 0,0.5 -0.34375,0.90625 -1.125,0.90625 -0.84375,0 -1.203125,-0.5625 -1.390625,-1.421875 C 0.5625,-1.65625 0.5625,-1.6875 0.453125,-1.6875 c -0.125,0 -0.125,0.0625 -0.125,0.234375 l 0,1.328125 c 0,0.171875 0,0.234375 0.109375,0.234375 0.046875,0 0.0625,-0.015625 0.25,-0.203125 0.015625,-0.015625 0.015625,-0.03125 0.203125,-0.21875 0.4375,0.40625 0.890625,0.421875 1.09375,0.421875 1.140625,0 1.609375,-0.671875 1.609375,-1.390625 0,-0.515625 -0.296875,-0.828125 -0.421875,-0.9375 C 2.84375,-2.546875 2.453125,-2.625 2.03125,-2.703125 1.46875,-2.8125 0.8125,-2.9375 0.8125,-3.515625 c 0,-0.359375 0.25,-0.765625 1.109375,-0.765625 1.09375,0 1.15625,0.90625 1.171875,1.203125 0,0.09375 0.09375,0.09375 0.109375,0.09375 0.140625,0 0.140625,-0.046875 0.140625,-0.234375 l 0,-1.015625 c 0,-0.15625 0,-0.234375 -0.109375,-0.234375 -0.046875,0 -0.078125,0 -0.203125,0.125 -0.03125,0.03125 -0.125,0.125 -0.171875,0.15625 -0.375,-0.28125 -0.78125,-0.28125 -0.9375,-0.28125 -1.21875,0 -1.59375,0.671875 -1.59375,1.234375 0,0.34375 0.15625,0.625 0.421875,0.84375 0.328125,0.25 0.609375,0.3125 1.328125,0.453125 z m 0,0"
               style="stroke:none"
               inkscape:connector-curvature="0" />
          </symbol>
          <symbol
             id="textext-d71b7b0b-2"
             overflow="visible"
             style="overflow:visible">
            <path
               id="path6601"
               d="M 1.765625,-4.40625 0.375,-4.296875 l 0,0.3125 c 0.640625,0 0.734375,0.0625 0.734375,0.546875 l 0,2.6875 c 0,0.4375 -0.109375,0.4375 -0.78125,0.4375 l 0,0.3125 C 0.640625,-0.015625 1.1875,-0.03125 1.421875,-0.03125 1.78125,-0.03125 2.125,-0.015625 2.46875,0 l 0,-0.3125 c -0.671875,0 -0.703125,-0.046875 -0.703125,-0.4375 z m 0.03125,-1.734375 c 0,-0.3125 -0.234375,-0.53125 -0.515625,-0.53125 -0.3125,0 -0.53125,0.265625 -0.53125,0.53125 0,0.265625 0.21875,0.53125 0.53125,0.53125 0.28125,0 0.515625,-0.21875 0.515625,-0.53125 z m 0,0"
               style="stroke:none"
               inkscape:connector-curvature="0" />
          </symbol>
          <symbol
             id="textext-d71b7b0b-3"
             overflow="visible"
             style="overflow:visible">
            <path
               id="path6604"
               d="m 1.09375,-3.421875 0,2.671875 c 0,0.4375 -0.109375,0.4375 -0.78125,0.4375 l 0,0.3125 c 0.359375,-0.015625 0.859375,-0.03125 1.140625,-0.03125 0.25,0 0.765625,0.015625 1.109375,0.03125 l 0,-0.3125 c -0.671875,0 -0.78125,0 -0.78125,-0.4375 l 0,-1.84375 C 1.78125,-3.625 2.5,-4.1875 3.125,-4.1875 c 0.640625,0 0.75,0.53125 0.75,1.109375 l 0,2.328125 c 0,0.4375 -0.109375,0.4375 -0.78125,0.4375 l 0,0.3125 c 0.34375,-0.015625 0.859375,-0.03125 1.125,-0.03125 0.25,0 0.78125,0.015625 1.109375,0.03125 l 0,-0.3125 c -0.515625,0 -0.765625,0 -0.765625,-0.296875 l 0,-1.90625 c 0,-0.859375 0,-1.15625 -0.3125,-1.515625 -0.140625,-0.171875 -0.46875,-0.375 -1.046875,-0.375 C 2.46875,-4.40625 2,-3.984375 1.71875,-3.359375 l 0,-1.046875 -1.40625,0.109375 0,0.3125 c 0.703125,0 0.78125,0.0625 0.78125,0.5625 z m 0,0"
               style="stroke:none"
               inkscape:connector-curvature="0" />
          </symbol>
          <symbol
             id="textext-d71b7b0b-4"
             overflow="visible"
             style="overflow:visible">
            <path
               id="path6607"
               d=""
               style="stroke:none"
               inkscape:connector-curvature="0" />
          </symbol>
          <symbol
             id="textext-d71b7b0b-5"
             overflow="visible"
             style="overflow:visible">
            <path
               id="path6610"
               d="M 3.328125,-3.015625 C 3.390625,-3.265625 3.625,-4.1875 4.3125,-4.1875 c 0.046875,0 0.296875,0 0.5,0.125 C 4.53125,-4 4.34375,-3.765625 4.34375,-3.515625 c 0,0.15625 0.109375,0.34375 0.375,0.34375 0.21875,0 0.53125,-0.171875 0.53125,-0.578125 0,-0.515625 -0.578125,-0.65625 -0.921875,-0.65625 -0.578125,0 -0.921875,0.53125 -1.046875,0.75 -0.25,-0.65625 -0.78125,-0.75 -1.078125,-0.75 -1.03125,0 -1.609375,1.28125 -1.609375,1.53125 0,0.109375 0.109375,0.109375 0.125,0.109375 0.078125,0 0.109375,-0.03125 0.125,-0.109375 0.34375,-1.0625 1,-1.3125 1.34375,-1.3125 0.1875,0 0.53125,0.09375 0.53125,0.671875 0,0.3125 -0.171875,0.96875 -0.53125,2.375 -0.15625,0.609375 -0.515625,1.03125 -0.953125,1.03125 -0.0625,0 -0.28125,0 -0.5,-0.125 0.25,-0.0625 0.46875,-0.265625 0.46875,-0.546875 0,-0.265625 -0.21875,-0.34375 -0.359375,-0.34375 -0.3125,0 -0.546875,0.25 -0.546875,0.578125 0,0.453125 0.484375,0.65625 0.921875,0.65625 0.671875,0 1.03125,-0.703125 1.046875,-0.75 0.125,0.359375 0.484375,0.75 1.078125,0.75 1.03125,0 1.59375,-1.28125 1.59375,-1.53125 0,-0.109375 -0.078125,-0.109375 -0.109375,-0.109375 -0.09375,0 -0.109375,0.046875 -0.140625,0.109375 -0.328125,1.078125 -1,1.3125 -1.3125,1.3125 -0.390625,0 -0.546875,-0.3125 -0.546875,-0.65625 0,-0.21875 0.046875,-0.4375 0.15625,-0.875 z m 0,0"
               style="stroke:none"
               inkscape:connector-curvature="0" />
          </symbol>
        </g>
      </defs>
      <g
         id="textext-d71b7b0b-6">
        <g
           id="g6613"
           style="fill:#000000;fill-opacity:1">
          <use
             id="use6615"
             y="134.765"
             x="223.43201"
             xlink:href="#textext-d71b7b0b-1"
             width="100%"
             height="100%" />
          <use
             id="use6617"
             y="134.765"
             x="227.36125"
             xlink:href="#textext-d71b7b0b-2"
             width="100%"
             height="100%" />
          <use
             id="use6619"
             y="134.765"
             x="230.12886"
             xlink:href="#textext-d71b7b0b-3"
             width="100%"
             height="100%" />
        </g>
        <g
           id="g6621"
           style="fill:#000000;fill-opacity:1">
          <use
             id="use6623"
             y="134.765"
             x="237.32401"
             xlink:href="#textext-d71b7b0b-5"
             width="100%"
             height="100%" />
        </g>
      </g>
    </g>
    <g
       ns0:text="$2x-1$"
       ns0:preamble="/home/andrew/.config/inkscape/extensions/header.txt"
       transform="matrix(1.5,0,0,1.5,-132.92852,63.458392)"
       id="g6741">
      <defs
         id="defs6743">
        <g
           id="g6745">
          <symbol
             style="overflow:visible"
             overflow="visible"
             id="textext-aeff8a0e-0">
            <path
               inkscape:connector-curvature="0"
               style="stroke:none"
               d=""
               id="path6748" />
          </symbol>
          <symbol
             style="overflow:visible"
             overflow="visible"
             id="textext-aeff8a0e-1">
            <path
               inkscape:connector-curvature="0"
               style="stroke:none"
               d="m 1.265625,-0.765625 1.0625,-1.03125 c 1.546875,-1.375 2.140625,-1.90625 2.140625,-2.90625 0,-1.140625 -0.890625,-1.9375 -2.109375,-1.9375 -1.125,0 -1.859375,0.921875 -1.859375,1.8125 0,0.546875 0.5,0.546875 0.53125,0.546875 0.171875,0 0.515625,-0.109375 0.515625,-0.53125 0,-0.25 -0.1875,-0.515625 -0.53125,-0.515625 -0.078125,0 -0.09375,0 -0.125,0.015625 0.21875,-0.65625 0.765625,-1.015625 1.34375,-1.015625 0.90625,0 1.328125,0.8125 1.328125,1.625 C 3.5625,-3.90625 3.078125,-3.125 2.515625,-2.5 l -1.90625,2.125 C 0.5,-0.265625 0.5,-0.234375 0.5,0 l 3.703125,0 0.265625,-1.734375 -0.234375,0 C 4.171875,-1.4375 4.109375,-1 4,-0.84375 3.9375,-0.765625 3.28125,-0.765625 3.0625,-0.765625 Z m 0,0"
               id="path6751" />
          </symbol>
          <symbol
             style="overflow:visible"
             overflow="visible"
             id="textext-aeff8a0e-2">
            <path
               inkscape:connector-curvature="0"
               style="stroke:none"
               d="m 2.9375,-6.375 c 0,-0.25 0,-0.265625 -0.234375,-0.265625 C 2.078125,-6 1.203125,-6 0.890625,-6 l 0,0.3125 c 0.203125,0 0.78125,0 1.296875,-0.265625 l 0,5.171875 c 0,0.359375 -0.03125,0.46875 -0.921875,0.46875 l -0.3125,0 0,0.3125 c 0.34375,-0.03125 1.203125,-0.03125 1.609375,-0.03125 0.390625,0 1.265625,0 1.609375,0.03125 l 0,-0.3125 -0.3125,0 c -0.90625,0 -0.921875,-0.109375 -0.921875,-0.46875 z m 0,0"
               id="path6754" />
          </symbol>
          <symbol
             style="overflow:visible"
             overflow="visible"
             id="textext-aeff8a0e-3">
            <path
               inkscape:connector-curvature="0"
               style="stroke:none"
               d=""
               id="path6757" />
          </symbol>
          <symbol
             style="overflow:visible"
             overflow="visible"
             id="textext-aeff8a0e-4">
            <path
               inkscape:connector-curvature="0"
               style="stroke:none"
               d="M 3.328125,-3.015625 C 3.390625,-3.265625 3.625,-4.1875 4.3125,-4.1875 c 0.046875,0 0.296875,0 0.5,0.125 C 4.53125,-4 4.34375,-3.765625 4.34375,-3.515625 c 0,0.15625 0.109375,0.34375 0.375,0.34375 0.21875,0 0.53125,-0.171875 0.53125,-0.578125 0,-0.515625 -0.578125,-0.65625 -0.921875,-0.65625 -0.578125,0 -0.921875,0.53125 -1.046875,0.75 -0.25,-0.65625 -0.78125,-0.75 -1.078125,-0.75 -1.03125,0 -1.609375,1.28125 -1.609375,1.53125 0,0.109375 0.109375,0.109375 0.125,0.109375 0.078125,0 0.109375,-0.03125 0.125,-0.109375 0.34375,-1.0625 1,-1.3125 1.34375,-1.3125 0.1875,0 0.53125,0.09375 0.53125,0.671875 0,0.3125 -0.171875,0.96875 -0.53125,2.375 -0.15625,0.609375 -0.515625,1.03125 -0.953125,1.03125 -0.0625,0 -0.28125,0 -0.5,-0.125 0.25,-0.0625 0.46875,-0.265625 0.46875,-0.546875 0,-0.265625 -0.21875,-0.34375 -0.359375,-0.34375 -0.3125,0 -0.546875,0.25 -0.546875,0.578125 0,0.453125 0.484375,0.65625 0.921875,0.65625 0.671875,0 1.03125,-0.703125 1.046875,-0.75 0.125,0.359375 0.484375,0.75 1.078125,0.75 1.03125,0 1.59375,-1.28125 1.59375,-1.53125 0,-0.109375 -0.078125,-0.109375 -0.109375,-0.109375 -0.09375,0 -0.109375,0.046875 -0.140625,0.109375 -0.328125,1.078125 -1,1.3125 -1.3125,1.3125 -0.390625,0 -0.546875,-0.3125 -0.546875,-0.65625 0,-0.21875 0.046875,-0.4375 0.15625,-0.875 z m 0,0"
               id="path6760" />
          </symbol>
          <symbol
             style="overflow:visible"
             overflow="visible"
             id="textext-aeff8a0e-5">
            <path
               inkscape:connector-curvature="0"
               style="stroke:none"
               d=""
               id="path6763" />
          </symbol>
          <symbol
             style="overflow:visible"
             overflow="visible"
             id="textext-aeff8a0e-6">
            <path
               inkscape:connector-curvature="0"
               style="stroke:none"
               d="m 6.5625,-2.296875 c 0.171875,0 0.359375,0 0.359375,-0.203125 0,-0.1875 -0.1875,-0.1875 -0.359375,-0.1875 l -5.390625,0 c -0.171875,0 -0.34375,0 -0.34375,0.1875 0,0.203125 0.171875,0.203125 0.34375,0.203125 z m 0,0"
               id="path6766" />
          </symbol>
        </g>
      </defs>
      <g
         id="textext-aeff8a0e-7">
        <g
           style="fill:#000000;fill-opacity:1"
           id="g6769">
          <use
             height="100%"
             width="100%"
             xlink:href="#textext-aeff8a0e-1"
             x="223.43201"
             y="134.765"
             id="use6771" />
        </g>
        <g
           style="fill:#000000;fill-opacity:1"
           id="g6773">
          <use
             height="100%"
             width="100%"
             xlink:href="#textext-aeff8a0e-4"
             x="228.41299"
             y="134.765"
             id="use6775" />
        </g>
        <g
           style="fill:#000000;fill-opacity:1"
           id="g6777">
          <use
             height="100%"
             width="100%"
             xlink:href="#textext-aeff8a0e-6"
             x="236.321"
             y="134.765"
             id="use6779" />
        </g>
        <g
           style="fill:#000000;fill-opacity:1"
           id="g6781">
          <use
             height="100%"
             width="100%"
             xlink:href="#textext-aeff8a0e-2"
             x="246.284"
             y="134.765"
             id="use6783" />
        </g>
      </g>
    </g>
    <path
       id="path6945"
       title="sin(x)"
       d="m -34.27027,296.47821 c 0.12012,-0.0341 0.24024,-0.0676 0.36036,-0.10049 0.12012,-0.0329 0.24024,-0.0653 0.36036,-0.097 0.120121,-0.0318 0.240241,-0.0629 0.360361,-0.0935 0.12012,-0.0306 0.24024,-0.0606 0.36036,-0.0901 0.12012,-0.0294 0.24024,-0.0583 0.360361,-0.0866 0.12012,-0.0283 0.24024,-0.0559 0.36036,-0.0831 0.12012,-0.0271 0.24024,-0.0536 0.36036,-0.0795 0.12012,-0.0259 0.24024,-0.0513 0.360361,-0.076 0.12012,-0.0247 0.24024,-0.0489 0.36036,-0.0725 0.12012,-0.0236 0.24024,-0.0466 0.36036,-0.069 0.12012,-0.0224 0.240241,-0.0442 0.360361,-0.0654 0.12012,-0.0212 0.24024,-0.0418 0.36036,-0.0619 0.12012,-0.02 0.24024,-0.0394 0.36036,-0.0583 0.120121,-0.0188 0.240241,-0.0371 0.360361,-0.0547 0.12012,-0.0177 0.24024,-0.0347 0.36036,-0.0512 0.12012,-0.0165 0.24024,-0.0323 0.36036,-0.0476 0.120121,-0.0153 0.240241,-0.0299 0.360361,-0.044 0.12012,-0.0141 0.24024,-0.0275 0.36036,-0.0404 0.12012,-0.0129 0.24024,-0.0252 0.360361,-0.0368 0.12012,-0.0117 0.24024,-0.0228 0.36036,-0.0333 0.12012,-0.0105 0.24024,-0.0204 0.36036,-0.0297 0.12012,-0.009 0.240241,-0.018 0.360361,-0.0261 0.12012,-0.008 0.24024,-0.0156 0.36036,-0.0225 0.12012,-0.007 0.24024,-0.0132 0.36036,-0.0189 0.12012,-0.006 0.240241,-0.0108 0.360361,-0.0153 0.12012,-0.004 0.24024,-0.008 0.36036,-0.0117 0.12012,-0.003 0.24024,-0.006 0.36036,-0.008 0.120121,-0.002 0.240241,-0.004 0.360361,-0.004 0.12012,-8.8e-4 0.24024,-0.001 0.36036,-8.3e-4 0.12012,3.2e-4 0.24024,10e-4 0.360361,0.003 0.12012,0.002 0.24024,0.004 0.36036,0.006 0.12012,0.003 0.24024,0.006 0.36036,0.01 0.12012,0.004 0.240241,0.008 0.360361,0.0136 0.12012,0.005 0.24024,0.0109 0.36036,0.0172 0.12012,0.006 0.24024,0.0133 0.36036,0.0208 0.12012,0.008 0.240241,0.0157 0.360361,0.0244 0.12012,0.009 0.24024,0.0181 0.36036,0.028 0.12012,0.01 0.24024,0.0205 0.36036,0.0316 0.120121,0.0111 0.240241,0.0229 0.360361,0.0352 0.12012,0.0123 0.24024,0.0253 0.36036,0.0388 0.12012,0.0135 0.24024,0.0276 0.360361,0.0423 0.12012,0.0147 0.24024,0.03 0.36036,0.0459 0.12012,0.0159 0.24024,0.0324 0.36036,0.0495 0.12012,0.0171 0.24024,0.0348 0.360361,0.0531 0.12012,0.0183 0.24024,0.0372 0.36036,0.0566 0.12012,0.0195 0.24024,0.0395 0.36036,0.0602 0.12012,0.0207 0.240241,0.0419 0.360361,0.0638 0.12012,0.0218 0.24024,0.0443 0.36036,0.0673 0.12012,0.023 0.24024,0.0466 0.36036,0.0708 0.120121,0.0242 0.240241,0.049 0.360361,0.0744 0.12012,0.0254 0.24024,0.0513 0.36036,0.0779 0.12012,0.0266 0.24024,0.0537 0.36036,0.0814 0.120121,0.0277 0.240241,0.056 0.360361,0.0849 0.12012,0.0289 0.24024,0.0584 0.36036,0.0884 0.12012,0.0301 0.24024,0.0607 0.360361,0.0919 0.12012,0.0312 0.24024,0.063 0.36036,0.0954 0.12012,0.0324 0.24024,0.0653 0.36036,0.0989 0.12012,0.0335 0.240241,0.0677 0.360361,0.10234 0.12012,0.0347 0.24024,0.07 0.36036,0.10579 0.12012,0.0358 0.24024,0.0723 0.36036,0.10924 0.12012,0.037 0.240241,0.0745 0.360361,0.11267 0.12012,0.0381 0.24024,0.0768 0.36036,0.11609 0.12012,0.0393 0.24024,0.0791 0.36036,0.1195 0.120121,0.0404 0.240241,0.0814 0.360361,0.1229 0.12012,0.0415 0.24024,0.0836 0.36036,0.12628 0.12012,0.0427 0.24024,0.0859 0.360361,0.12966 0.12012,0.0438 0.24024,0.0881 0.36036,0.13301 0.12012,0.0449 0.2402401,0.0904 0.3603602,0.13636 0.1201202,0.046 0.2402403,0.0926 0.3603604,0.13969 0.1201201,0.0471 0.2402402,0.0948 0.3603604,0.14301 0.1201201,0.0482 0.2402402,0.097 0.3603603,0.14631 0.1201201,0.0493 0.2402403,0.0992 0.3603604,0.14961 0.1201201,0.0504 0.2402402,0.10137 0.3603603,0.15287 0.1201202,0.0515 0.2402403,0.10355 0.3603604,0.15614 0.1201201,0.0526 0.2402402,0.10571 0.3603604,0.15937 0.1201201,0.0537 0.2402402,0.10787 0.3603603,0.16261 0.1201201,0.0547 0.2402403,0.11001 0.3603604,0.16582 0.1201201,0.0558 0.2402402,0.11214 0.3603603,0.16901 0.1201202,0.0569 0.2402403,0.11426 0.3603604,0.17218 0.1201201,0.0579 0.2402402,0.11638 0.3603604,0.17535 0.1201201,0.059 0.2402402,0.11847 0.3603603,0.17849 0.1201201,0.06 0.2402403,0.12056 0.3603604,0.18162 0.1201201,0.0611 0.2402402,0.12263 0.3603603,0.18472 0.1201202,0.0621 0.2402403,0.12469 0.3603604,0.18781 0.1201201,0.0631 0.2402402,0.12674 0.3603604,0.19088 0.1201201,0.0641 0.2402402,0.12878 0.3603603,0.19392 0.1201201,0.0651 0.2402403,0.13081 0.3603604,0.19696 0.1201201,0.0662 0.2402402,0.13282 0.3603603,0.19997 0.1201202,0.0672 0.2402403,0.13481 0.3603604,0.20296 0.1201201,0.0682 0.2402402,0.1368 0.3603604,0.20593 0.1201201,0.0691 0.2402402,0.13877 0.3603603,0.20889 0.1201201,0.0701 0.2402403,0.14072 0.3603604,0.21181 0.1201201,0.0711 0.24024022,0.14266 0.36036034,0.21471 0.12012012,0.0721 0.24024024,0.14459 0.36036036,0.21761 0.12012012,0.073 0.24024024,0.1465 0.36036036,0.22046 0.12012012,0.074 0.24024024,0.14841 0.36036036,0.22331 0.12012012,0.0749 0.24024024,0.15029 0.36036036,0.22613 0.12012012,0.0759 0.24024024,0.15216 0.36036032,0.22893 0.1201202,0.0768 0.2402403,0.15401 0.3603604,0.2317 0.1201201,0.0777 0.2402402,0.15585 0.3603604,0.23445 0.1201201,0.0786 0.2402402,0.15767 0.3603603,0.23718 0.1201201,0.0795 0.2402403,0.15948 0.3603604,0.23989 0.1201201,0.0804 0.2402402,0.16126 0.3603603,0.24256 0.1201202,0.0813 0.2402403,0.16304 0.3603604,0.24522 0.1201201,0.0822 0.2402402,0.1648 0.3603604,0.24785 0.1201201,0.0831 0.2402402,0.16654 0.3603603,0.25046 0.1201201,0.0839 0.2402403,0.16826 0.3603604,0.25303 0.1201201,0.0848 0.2402402,0.16998 0.3603603,0.2556 0.1201202,0.0856 0.2402403,0.17166 0.3603604,0.25812 0.1201201,0.0865 0.2402402,0.17334 0.3603604,0.26063 0.1201201,0.0873 0.2402402,0.17499 0.3603603,0.2631 0.1201201,0.0881 0.2402403,0.17663 0.3603604,0.26556 0.1201201,0.0889 0.2402402,0.17825 0.3603604,0.26798 0.1201201,0.0897 0.2402402,0.17985 0.3603603,0.27038 0.1201201,0.0905 0.2402403,0.18144 0.3603604,0.27275 0.1201201,0.0913 0.2402402,0.18301 0.3603603,0.27509 0.1201202,0.0921 0.2402403,0.18456 0.3603604,0.27741 0.1201201,0.0929 0.2402402,0.18609 0.3603604,0.2797 0.1201201,0.0936 0.2402402,0.1876 0.3603603,0.28196 0.1201201,0.0944 0.2402403,0.18909 0.3603604,0.28419 0.1201201,0.0951 0.2402402,0.19057 0.3603603,0.2864 0.1201202,0.0958 0.2402403,0.19202 0.3603604,0.28857 0.1201201,0.0965 0.2402402,0.19345 0.3603603,0.29071 0.12012,0.0973 0.24024,0.19488 0.36036,0.29284 0.120121,0.098 0.240241,0.19627 0.360361,0.29492 0.12012,0.0987 0.24024,0.19764 0.36036,0.29698 0.12012,0.0993 0.24024,0.199 0.36036,0.299 0.120121,0.10001 0.240241,0.20034 0.360361,0.30101 0.12012,0.10066 0.24024,0.20166 0.36036,0.30297 0.12012,0.10132 0.24024,0.20296 0.360361,0.30491 0.12012,0.10196 0.24024,0.20423 0.36036,0.30682 0.12012,0.10259 0.24024,0.20549 0.36036,0.3087 0.12012,0.1032 0.240241,0.20672 0.360361,0.31054 0.12012,0.10381 0.24024,0.20793 0.36036,0.31235 0.12012,0.10442 0.24024,0.20913 0.36036,0.31414 0.12012,0.105 0.240241,0.2103 0.360361,0.31589 0.12012,0.10558 0.24024,0.21145 0.36036,0.31761 0.12012,0.10615 0.24024,0.21259 0.36036,0.3193 0.120121,0.10671 0.240241,0.21369 0.360361,0.32095 0.12012,0.10726 0.24024,0.21478 0.36036,0.32258 0.12012,0.10779 0.24024,0.21585 0.360361,0.32417 0.12012,0.10832 0.24024,0.21689 0.36036,0.32573 0.12012,0.10883 0.24024,0.21792 0.36036,0.32725 0.12012,0.10934 0.240241,0.21892 0.360361,0.32875 0.12012,0.10983 0.24024,0.2199 0.36036,0.33021 0.12012,0.11031 0.24024,0.22086 0.36036,0.33164 0.12012,0.11078 0.240241,0.22179 0.360361,0.33303 0.12012,0.11124 0.24024,0.22271 0.36036,0.3344 0.12012,0.11168 0.24024,0.22359 0.36036,0.33572 0.120121,0.11212 0.240241,0.22446 0.360361,0.33701 0.12012,0.11255 0.24024,0.22531 0.36036,0.33828 0.12012,0.11296 0.24024,0.22613 0.360361,0.3395 0.12012,0.11337 0.24024,0.22694 0.36036,0.3407 0.12012,0.11376 0.24024,0.22771 0.36036,0.34185 0.12012,0.11414 0.24024,0.22847 0.360361,0.34298 0.12012,0.1145 0.24024,0.22919 0.36036,0.34406 0.12012,0.11487 0.24024,0.22991 0.36036,0.34512 0.12012,0.11522 0.240241,0.2306 0.360361,0.34614 0.12012,0.11555 0.24024,0.23126 0.36036,0.34713 0.12012,0.11587 0.24024,0.2319 0.36036,0.34808 0.120121,0.11618 0.240241,0.23252 0.360361,0.349 0.12012,0.11648 0.24024,0.2331 0.36036,0.34987 0.12012,0.11677 0.24024,0.23368 0.36036,0.35073 0.120121,0.11704 0.240241,0.23422 0.360361,0.35153 0.12012,0.11731 0.24024,0.23475 0.36036,0.35231 0.12012,0.11756 0.24024,0.23525 0.360361,0.35305 0.12012,0.1178 0.24024,0.23572 0.36036,0.35375 0.12012,0.11803 0.24024,0.23618 0.36036,0.35443 0.12012,0.11825 0.240241,0.2366 0.360361,0.35506 0.12012,0.11845 0.24024,0.23701 0.36036,0.35565 0.12012,0.11865 0.24024,0.23739 0.36036,0.35622 0.12012,0.11883 0.240241,0.23775 0.360361,0.35675 0.12012,0.119 0.24024,0.23808 0.36036,0.35724 0.12012,0.11916 0.24024,0.23839 0.36036,0.3577 0.120121,0.1193 0.240241,0.23867 0.360361,0.35811 0.12012,0.11944 0.24024,0.23894 0.36036,0.3585 0.12012,0.11956 0.24024,0.23918 0.360361,0.35885 0.12012,0.11967 0.24024,0.23939 0.36036,0.35915 0.12012,0.11977 0.24024,0.23959 0.36036,0.35944 0.12012,0.11985 0.24024,0.23975 0.360361,0.35967 0.12012,0.11993 0.24024,0.23989 0.36036,0.35988 0.12012,0.11999 0.24024,0.24001 0.36036,0.36005 0.12012,0.12004 0.240241,0.2401 0.360361,0.36018 0.12012,0.12008 0.24024,0.24017 0.36036,0.36028 0.12012,0.1201 0.24024,0.24021 0.36036,0.36033 0.120121,0.12012 0.240241,0.24024 0.360361,0.36036 0.12012,0.12012 0.24024,0.24024 0.36036,0.36034 0.12012,0.12011 0.24024,0.24021 0.36036,0.3603 0.120121,0.12009 0.240241,0.24016 0.360361,0.36021 0.12012,0.12006 0.24024,0.24009 0.36036,0.3601 0.12012,0.12 0.24024,0.23998 0.360361,0.35993 0.12012,0.11995 0.24024,0.23987 0.36036,0.35974 0.12012,0.11988 0.24024,0.23972 0.36036,0.35952 0.12012,0.11979 0.240241,0.23954 0.360361,0.35925 0.12012,0.1197 0.24024,0.23935 0.36036,0.35894 0.12012,0.1196 0.24024,0.23914 0.36036,0.35861 0.12012,0.11948 0.240241,0.23889 0.360361,0.35824 0.12012,0.11935 0.24024,0.23863 0.36036,0.35783 0.12012,0.1192 0.24024,0.23833 0.36036,0.35738 0.120121,0.11905 0.240241,0.23802 0.360361,0.35691 0.12012,0.11888 0.24024,0.23768 0.36036,0.35638 0.12012,0.11871 0.24024,0.23732 0.360361,0.35584 0.12012,0.11852 0.24024,0.23693 0.36036,0.35525 0.12012,0.11831 0.24024,0.23652 0.36036,0.35462 0.12012,0.1181 0.24024,0.23609 0.360361,0.35397 0.12012,0.11787 0.24024,0.23563 0.36036,0.35327 0.12012,0.11764 0.24024,0.23515 0.36036,0.35254 0.12012,0.11739 0.240241,0.23465 0.360361,0.35178 0.12012,0.11713 0.24024,0.23412 0.36036,0.35098 0.12012,0.11685 0.24024,0.23357 0.36036,0.35014 0.120121,0.11657 0.240241,0.233 0.360361,0.34927 0.12012,0.11628 0.24024,0.2324 0.36036,0.34837 0.12012,0.11597 0.24024,0.23178 0.36036,0.34743 0.120121,0.11564 0.240241,0.23113 0.360361,0.34645 0.12012,0.11531 0.24024,0.23046 0.36036,0.34544 0.12012,0.11497 0.24024,0.22977 0.360361,0.34439 0.12012,0.11463 0.24024,0.22907 0.36036,0.34332 0.12012,0.11426 0.24024,0.22833 0.36036,0.34221 0.12012,0.11388 0.240241,0.22756 0.360361,0.34105 0.12012,0.11349 0.24024,0.22679 0.36036,0.33988 0.12012,0.11309 0.24024,0.22598 0.36036,0.33866 0.12012,0.11268 0.240241,0.22515 0.360361,0.33741 0.12012,0.11226 0.24024,0.2243 0.36036,0.33612 0.12012,0.11183 0.24024,0.22343 0.36036,0.33481 0.120121,0.11138 0.240241,0.22254 0.360361,0.33346 0.12012,0.11092 0.24024,0.22162 0.36036,0.33207 0.12012,0.11046 0.24024,0.22068 0.360361,0.33066 0.12012,0.10998 0.24024,0.21972 0.36036,0.32921 0.12012,0.10949 0.24024,0.21873 0.36036,0.32772 0.12012,0.10899 0.24024,0.21772 0.360361,0.3262 0.12012,0.10848 0.24024,0.2167 0.36036,0.32466 0.12012,0.10796 0.24024,0.21565 0.36036,0.32307 0.12012,0.10743 0.240241,0.21458 0.360361,0.32146 0.12012,0.10689 0.24024,0.21349 0.36036,0.31982 0.12012,0.10633 0.24024,0.21237 0.36036,0.31814 0.120121,0.10576 0.240241,0.21123 0.360361,0.31642 0.12012,0.10519 0.24024,0.21008 0.36036,0.31468 0.12012,0.10461 0.24024,0.20891 0.36036,0.31292 0.120121,0.104 0.240241,0.2077 0.360361,0.3111 0.12012,0.1034 0.24024,0.20649 0.36036,0.30927 0.12012,0.10278 0.24024,0.20525 0.360361,0.3074 0.12012,0.10216 0.24024,0.20399 0.36036,0.30551 0.12012,0.10151 0.24024,0.20271 0.36036,0.30358 0.12012,0.10086 0.240241,0.2014 0.360361,0.30161 0.12012,0.10021 0.24024,0.20009 0.36036,0.29963 0.12012,0.0996 0.24024,0.19875 0.36036,0.29761 0.12012,0.0989 0.240241,0.19739 0.360361,0.29556 0.12012,0.0982 0.24024,0.19601 0.36036,0.29349 0.12012,0.0975 0.24024,0.1946 0.36036,0.29137 0.120121,0.0968 0.240241,0.19319 0.360361,0.28924 0.12012,0.0961 0.24024,0.19175 0.36036,0.28707 0.12012,0.0953 0.24024,0.19029 0.360361,0.28488 0.12012,0.0946 0.24024,0.18881 0.36036,0.28265 0.12012,0.0939 0.24024,0.18732 0.36036,0.28041 0.12012,0.0931 0.240241,0.18579 0.360361,0.27812 0.12012,0.0923 0.24024,0.18426 0.36036,0.27581 0.12012,0.0916 0.24024,0.18272 0.36036,0.27348 0.12012,0.0908 0.240241,0.18114 0.360361,0.27112 0.12012,0.09 0.24024,0.17955 0.36036,0.26873 0.12012,0.0892 0.24024,0.17794 0.36036,0.26631 0.120121,0.0884 0.240241,0.17632 0.360361,0.26386 0.12012,0.0876 0.24024,0.17468 0.36036,0.2614 0.12012,0.0867 0.24024,0.17302 0.360361,0.2589 0.12012,0.0859 0.24024,0.17134 0.36036,0.25638 0.12012,0.085 0.24024,0.16965 0.36036,0.25383 0.12012,0.0842 0.24024,0.16794 0.360361,0.25126 0.12012,0.0833 0.24024,0.16621 0.36036,0.24866 0.12012,0.0824 0.24024,0.16446 0.36036,0.24604 0.12012,0.0816 0.240241,0.1627 0.360361,0.24339 0.12012,0.0807 0.24024,0.16092 0.36036,0.24071 0.12012,0.0798 0.24024,0.15913 0.36036,0.23802 0.120121,0.0789 0.240241,0.15733 0.360361,0.2353 0.12012,0.078 0.24024,0.1555 0.36036,0.23256 0.12012,0.0771 0.24024,0.15365 0.36036,0.22979 0.120121,0.0761 0.240241,0.1518 0.360361,0.227 0.12012,0.0752 0.24024,0.14993 0.36036,0.22418 0.12012,0.0743 0.24024,0.14804 0.360361,0.22135 0.12012,0.0733 0.24024,0.14614 0.36036,0.2185 0.12012,0.0723 0.24024,0.14422 0.36036,0.21561 0.12012,0.0714 0.240241,0.14229 0.360361,0.21271 0.12012,0.0704 0.24024,0.14035 0.36036,0.20979 0.12012,0.0694 0.24024,0.13839 0.36036,0.20685 0.12012,0.0685 0.240241,0.13642 0.360361,0.20388 0.12012,0.0675 0.24024,0.13443 0.36036,0.2009 0.12012,0.0665 0.24024,0.13243 0.36036,0.19789 0.120121,0.0655 0.240241,0.13042 0.360361,0.19487 0.12012,0.0644 0.24024,0.1284 0.36036,0.19183 0.12012,0.0634 0.24024,0.12635 0.360361,0.18876 0.12012,0.0624 0.24024,0.1243 0.36036,0.18568 0.12012,0.0614 0.24024,0.12224 0.36036,0.18258 0.12012,0.0603 0.24024,0.12016 0.360361,0.17946 0.12012,0.0593 0.24024,0.11807 0.36036,0.17632 0.12012,0.0582 0.24024,0.11598 0.36036,0.17317 0.12012,0.0572 0.240241,0.11386 0.360361,0.17 0.12012,0.0561 0.24024,0.11174 0.36036,0.16681 0.12012,0.0551 0.24024,0.1096 0.36036,0.1636 0.120121,0.054 0.240241,0.10746 0.360361,0.16038 0.12012,0.0529 0.24024,0.1053 0.36036,0.15714 0.12012,0.0518 0.24024,0.10314 0.36036,0.15389 0.120121,0.0507 0.240241,0.10096 0.360361,0.15061 0.12012,0.0497 0.24024,0.0988 0.36036,0.14734 0.12012,0.0486 0.24024,0.0966 0.360361,0.14403 0.12012,0.0475 0.24024,0.0944 0.36036,0.14072 0.12012,0.0464 0.24024,0.0922 0.36036,0.1374 0.12012,0.0452 0.240241,0.0899 0.360361,0.13405 0.12012,0.0441 0.24024,0.0877 0.36036,0.13069 0.12012,0.043 0.24024,0.0854 0.36036,0.12733 0.12012,0.0419 0.240241,0.0832 0.360361,0.12395 0.12012,0.0408 0.24024,0.0809 0.36036,0.12055 0.12012,0.0396 0.24024,0.0787 0.36036,0.11715 0.120121,0.0385 0.240241,0.0764 0.360361,0.11373 0.12012,0.0373 0.24024,0.0741 0.36036,0.1103 0.12012,0.0362 0.24024,0.0718 0.360361,0.10687 0.12012,0.0351 0.24024,0.0695 0.36036,0.10341 0.12012,0.0339 0.24024,0.0672 0.36036,0.1 0.12012,0.0327 0.24024,0.0649 0.360361,0.0965 0.12012,0.0316 0.24024,0.0626 0.36036,0.093 0.12012,0.0304 0.24024,0.0603 0.36036,0.0895 0.12012,0.0293 0.240241,0.0579 0.360361,0.086 0.12012,0.0281 0.24024,0.0556 0.36036,0.0825 0.12012,0.0269 0.24024,0.0532 0.36036,0.079 0.120121,0.0258 0.240241,0.0509 0.360361,0.0755 0.12012,0.0246 0.24024,0.0486 0.36036,0.0719 0.12012,0.0234 0.24024,0.0462 0.36036,0.0684 0.120121,0.0222 0.240241,0.0438 0.360361,0.0649 0.12012,0.021 0.24024,0.0415 0.36036,0.0613 0.12012,0.0198 0.24024,0.0391 0.360361,0.0577 0.12012,0.0187 0.24024,0.0367 0.36036,0.0542 0.12012,0.0175 0.24024,0.0343 0.36036,0.0506 0.12012,0.0163 0.240241,0.0319 0.360361,0.047 0.12012,0.0151 0.24024,0.0296 0.36036,0.0435 0.12012,0.0139 0.24024,0.0272 0.36036,0.0399 0.12012,0.0127 0.240241,0.0248 0.360361,0.0363 0.12012,0.0115 0.24024,0.0224 0.36036,0.0327 0.12012,0.0103 0.24024,0.02 0.36036,0.0291 0.120121,0.009 0.240241,0.0176 0.360361,0.0255 0.12012,0.008 0.24024,0.0152 0.36036,0.0219 0.12012,0.007 0.24024,0.0128 0.360361,0.0183 0.12012,0.005 0.24024,0.0104 0.36036,0.0147 0.12012,0.004 0.24024,0.008 0.36036,0.0111 0.12012,0.003 0.24024,0.006 0.360361,0.007 0.12012,0.002 0.24024,0.003 0.36036,0.004 0.12012,7e-4 0.24024,7.9e-4 0.36036,2.8e-4 0.12012,-5e-4 0.240241,-0.002 0.360361,-0.003 0.12012,-0.002 0.24024,-0.004 0.36036,-0.007 0.12012,-0.003 0.24024,-0.006 0.36036,-0.0105 0.120121,-0.004 0.240241,-0.009 0.360361,-0.0141 0.12012,-0.005 0.24024,-0.0112 0.36036,-0.0178 0.12012,-0.007 0.24024,-0.0136 0.36036,-0.0214 0.120121,-0.008 0.240241,-0.016 0.360361,-0.0249 0.12012,-0.009 0.24024,-0.0184 0.36036,-0.0285 0.12012,-0.0101 0.24024,-0.0208 0.360361,-0.0322 0.12012,-0.0113 0.24024,-0.0232 0.36036,-0.0357 0.12012,-0.0125 0.24024,-0.0256 0.36036,-0.0393 0.12012,-0.0137 0.240241,-0.028 0.360361,-0.0429 0.12012,-0.0149 0.24024,-0.0304 0.36036,-0.0465 0.12012,-0.0161 0.24024,-0.0328 0.36036,-0.0501 0.12012,-0.0173 0.240241,-0.0352 0.360361,-0.0536 0.12012,-0.0185 0.24024,-0.0375 0.36036,-0.0572 0.12012,-0.0197 0.24024,-0.0399 0.36036,-0.0607 0.120121,-0.0208 0.240241,-0.0423 0.360361,-0.0643 0.12012,-0.022 0.24024,-0.0446 0.36036,-0.0679 0.12012,-0.0232 0.24024,-0.047 0.360361,-0.0714 0.12012,-0.0244 0.24024,-0.0494 0.36036,-0.0749 0.12012,-0.0256 0.24024,-0.0517 0.36036,-0.0784 0.12012,-0.0267 0.240241,-0.0541 0.360361,-0.082 0.12012,-0.0279 0.24024,-0.0564 0.36036,-0.0855 0.12012,-0.0291 0.24024,-0.0587 0.36036,-0.089 0.12012,-0.0302 0.240241,-0.0611 0.360361,-0.0925 0.12012,-0.0314 0.24024,-0.0634 0.36036,-0.0959 0.12012,-0.0326 0.24024,-0.0657 0.36036,-0.0994 0.120121,-0.0337 0.240241,-0.068 0.360361,-0.10288 0.12012,-0.0349 0.240236,-0.0703 0.360356,-0.10633 0.12012,-0.036 0.24024,-0.0726 0.36036,-0.10977 0.12012,-0.0372 0.24024,-0.0749 0.36036,-0.1132 0.12012,-0.0383 0.24025,-0.0772 0.36037,-0.11662 0.12012,-0.0394 0.24024,-0.0795 0.36036,-0.12003 0.12012,-0.0406 0.24024,-0.0817 0.36036,-0.12342 0.12012,-0.0417 0.24024,-0.084 0.36036,-0.1268 0.12012,-0.0428 0.24024,-0.0862 0.36036,-0.13018 0.12012,-0.044 0.24024,-0.0885 0.36036,-0.13353 0.12012,-0.0451 0.24024,-0.0907 0.36036,-0.13688 0.12012,-0.0462 0.24024,-0.0929 0.36036,-0.1402 0.12012,-0.0473 0.24024,-0.0951 0.36036,-0.14353 0.12012,-0.0484 0.24024,-0.0973 0.36036,-0.14682 0.12012,-0.0495 0.24024,-0.0995 0.36036,-0.15011 0.12012,-0.0506 0.24024,-0.10171 0.36036,-0.15338 0.12012,-0.0517 0.24024,-0.10389 0.36036,-0.15664 0.12012,-0.0528 0.24024,-0.10605 0.36036,-0.15988 0.12012,-0.0538 0.24024,-0.1082 0.36036,-0.1631 0.12012,-0.0549 0.24024,-0.11034 0.36036,-0.16631 0.12012,-0.056 0.24024,-0.11248 0.36036,-0.16951 0.12012,-0.057 0.24024,-0.11459 0.36036,-0.17268 0.12012,-0.0581 0.24024,-0.1167 0.36036,-0.17583 0.12012,-0.0591 0.24024,-0.1188 0.36036,-0.17898 0.12012,-0.0602 0.24024,-0.12088 0.36036,-0.18209 0.12012,-0.0612 0.24024,-0.12296 0.36036,-0.18521 0.12012,-0.0622 0.24024,-0.12501 0.36036,-0.18828 0.12012,-0.0633 0.24024,-0.12706 0.36036,-0.19135 0.12012,-0.0643 0.24024,-0.1291 0.36036,-0.1944 0.12012,-0.0653 0.24024,-0.13112 0.36036,-0.19743 0.12012,-0.0663 0.24024,-0.13312 0.36036,-0.20043 0.12012,-0.0673 0.24024,-0.13512 0.36036,-0.20343 0.12013,-0.0683 0.24025,-0.1371 0.36037,-0.20638 0.12012,-0.0693 0.24024,-0.13907 0.36036,-0.20934 0.12012,-0.0703 0.24024,-0.14102 0.36036,-0.21226 0.12012,-0.0712 0.24024,-0.14296 0.36036,-0.21517 0.12012,-0.0722 0.24024,-0.14489 0.36036,-0.21805 0.12012,-0.0732 0.24024,-0.14679 0.36036,-0.22091 0.12012,-0.0741 0.24024,-0.14869 0.36036,-0.22374 0.12012,-0.0751 0.24024,-0.15058 0.36036,-0.22657 0.12012,-0.076 0.24024,-0.15244 0.36036,-0.22936 0.12012,-0.0769 0.24024,-0.15429 0.36036,-0.23213 0.12012,-0.0778 0.24024,-0.15612 0.36036,-0.23487 0.12012,-0.0788 0.24024,-0.15795 0.36036,-0.2376 0.12012,-0.0796 0.24024,-0.15976 0.36036,-0.2403 0.12012,-0.0805 0.24024,-0.16154 0.36036,-0.24298 0.12012,-0.0814 0.24024,-0.16331 0.36036,-0.24563 0.12012,-0.0823 0.24024,-0.16507 0.36036,-0.24825 0.12012,-0.0832 0.24024,-0.16681 0.36036,-0.25086 0.12012,-0.084 0.24024,-0.16853 0.36036,-0.25343 0.12012,-0.0849 0.24024,-0.17024 0.36036,-0.25599 0.12012,-0.0857 0.24024,-0.17192 0.36036,-0.25851 0.12012,-0.0866 0.24024,-0.1736 0.36036,-0.26101 0.12012,-0.0874 0.24024,-0.17525 0.36036,-0.26349 0.12012,-0.0882 0.24024,-0.17688 0.36036,-0.26593 0.12012,-0.0891 0.24024,-0.17851 0.36036,-0.26836 0.12012,-0.0899 0.24024,-0.1801 0.36036,-0.27075 0.12012,-0.0906 0.24024,-0.18168 0.36036,-0.27311 0.12012,-0.0914 0.24024,-0.18325 0.36036,-0.27546 0.12012,-0.0922 0.24024,-0.18479 0.36037,-0.27776 0.12012,-0.093 0.24024,-0.18633 0.36036,-0.28006 0.12012,-0.0937 0.24024,-0.18783 0.36036,-0.2823 0.12012,-0.0945 0.24024,-0.18932 0.36036,-0.28454 0.12012,-0.0952 0.24024,-0.19079 0.36036,-0.28673 0.12012,-0.0959 0.24024,-0.19225 0.36036,-0.28891 0.12012,-0.0967 0.24024,-0.19367 0.36036,-0.29104 0.12012,-0.0974 0.24024,-0.19509 0.36036,-0.29316 0.12012,-0.0981 0.24024,-0.19648 0.36036,-0.29524 0.12012,-0.0988 0.24024,-0.19786 0.36036,-0.2973 0.12012,-0.0994 0.24024,-0.19921 0.36036,-0.29931 0.12012,-0.10011 0.24024,-0.20055 0.36036,-0.30132 0.12012,-0.10076 0.24024,-0.20186 0.36036,-0.30327 0.12012,-0.10142 0.24024,-0.20316 0.36036,-0.30521 0.12012,-0.10205 0.24024,-0.20443 0.36036,-0.30711 0.12012,-0.10269 0.24024,-0.20568 0.36036,-0.30898 0.12012,-0.10331 0.24024,-0.20692 0.36036,-0.31083 0.12012,-0.10391 0.24024,-0.20812 0.36036,-0.31263 0.12012,-0.10451 0.24024,-0.20932 0.36036,-0.31441 0.12012,-0.1051 0.24024,-0.21049 0.36036,-0.31616 0.12012,-0.10567 0.24024,-0.21163 0.36036,-0.31787 0.12012,-0.10624 0.24024,-0.21276 0.36036,-0.31956 0.12012,-0.1068 0.24024,-0.21387 0.36036,-0.32121 0.12012,-0.10734 0.24024,-0.21495 0.36036,-0.32282 0.12012,-0.10788 0.24024,-0.21602 0.36036,-0.32442 0.12012,-0.1084 0.24024,-0.21705 0.36036,-0.32597 0.12012,-0.10891 0.24024,-0.21807 0.36036,-0.32748 0.12012,-0.10942 0.24024,-0.21908 0.36036,-0.32898 0.12012,-0.10991 0.24025,-0.22005 0.36037,-0.33044 0.12012,-0.11038 0.24024,-0.221 0.36036,-0.33185 0.12012,-0.11085 0.24024,-0.22194 0.36036,-0.33325 0.12012,-0.11131 0.24024,-0.22284 0.36036,-0.3346 0.12012,-0.11176 0.24024,-0.22373 0.36036,-0.33592 0.12012,-0.11219 0.24024,-0.2246 0.36036,-0.33722 0.12012,-0.11261 0.24024,-0.22544 0.36036,-0.33846 0.12012,-0.11303 0.24024,-0.22626 0.36036,-0.33969 0.12012,-0.11343 0.24024,-0.22706 0.36036,-0.34088 0.12012,-0.11382 0.24024,-0.22783 0.36036,-0.34203 0.12012,-0.1142 0.24024,-0.22858 0.36036,-0.34315 0.12012,-0.11456 0.24024,-0.22931 0.36036,-0.34423 0.12012,-0.11492 0.24024,-0.23002 0.36036,-0.34528 0.12012,-0.11527 0.24024,-0.2307 0.36036,-0.3463 0.12012,-0.11559 0.24024,-0.23136 0.36036,-0.34727 0.12012,-0.11592 0.24024,-0.232 0.36036,-0.34823 0.12012,-0.11623 0.24024,-0.23261 0.36036,-0.34913 0.12012,-0.11653 0.24024,-0.2332 0.36036,-0.35001 0.12012,-0.11681 0.24024,-0.23376 0.36036,-0.35085 0.12012,-0.11709 0.24024,-0.23431 0.36036,-0.35166 0.12012,-0.11735 0.24024,-0.23482 0.36036,-0.35242 0.12012,-0.1176 0.24024,-0.23533 0.36036,-0.35316 0.12012,-0.11784 0.24024,-0.2358 0.36036,-0.35387 0.12012,-0.11806 0.24024,-0.23624 0.36036,-0.35452 0.12012,-0.11828 0.24024,-0.23667 0.36036,-0.35515 0.12012,-0.11849 0.24024,-0.23707 0.36036,-0.35575 0.12012,-0.11868 0.24024,-0.23745 0.36036,-0.35631 0.12012,-0.11885 0.24024,-0.2378 0.36036,-0.35682 0.12012,-0.11903 0.24025,-0.23813 0.36037,-0.35731 0.12012,-0.11919 0.24024,-0.23844 0.36036,-0.35777 0.12012,-0.11932 0.24024,-0.23872 0.36036,-0.35817 0.12012,-0.11946 0.24024,-0.23898 0.36036,-0.35856 0.12012,-0.11958 0.24024,-0.23921 0.36036,-0.3589 0.12012,-0.11968 0.24024,-0.23942 0.36036,-0.3592 0.12012,-0.11978 0.24024,-0.23961 0.36036,-0.35947 0.12012,-0.11987 0.24024,-0.23977 0.36036,-0.35971 0.12012,-0.11994 0.24024,-0.23991 0.36036,-0.35991 0.12012,-0.12 0.24024,-0.24002 0.36036,-0.36007 0.12012,-0.12005 0.24024,-0.24011 0.36036,-0.3602 0.12012,-0.12008 0.24024,-0.24018 0.36036,-0.36028 0.12012,-0.12011 0.24024,-0.24023 0.36036,-0.36034 0.12012,-0.12012 0.24024,-0.24024 0.36036,-0.36036 0.12012,-0.12012 0.24024,-0.24024 0.36036,-0.36034 0.12012,-0.12011 0.24024,-0.24021 0.36036,-0.36029 0.12012,-0.12008 0.24024,-0.24015 0.36036,-0.3602 0.12012,-0.12004 0.24024,-0.24007 0.36036,-0.36007 0.12012,-0.12 0.24024,-0.23997 0.36036,-0.3599 0.12012,-0.11994 0.24024,-0.23985 0.36036,-0.35971 0.12012,-0.11987 0.24024,-0.2397 0.36036,-0.35948 0.12012,-0.11978 0.24024,-0.23952 0.36036,-0.3592 0.12012,-0.11969 0.24024,-0.23932 0.36036,-0.3589 0.12012,-0.11958 0.24024,-0.2391 0.36036,-0.35855 0.12012,-0.11946 0.24024,-0.23886 0.36036,-0.35818 0.12012,-0.11933 0.24024,-0.23858 0.36036,-0.35776 0.12012,-0.11918 0.24024,-0.23829 0.36036,-0.35732 0.12012,-0.11902 0.24024,-0.23796 0.36036,-0.35682 0.12013,-0.11886 0.24025,-0.23763 0.36037,-0.35631 0.12012,-0.11867 0.24024,-0.23726 0.36036,-0.35574 0.12012,-0.11849 0.24024,-0.23687 0.36036,-0.35516 0.12012,-0.11828 0.24024,-0.23646 0.36036,-0.35452 0.12012,-0.11807 0.24024,-0.23602 0.36036,-0.35386 0.12012,-0.11784 0.24024,-0.23556 0.36036,-0.35316 0.12012,-0.1176 0.24024,-0.23508 0.36036,-0.35243 0.12012,-0.11735 0.24024,-0.23457 0.36036,-0.35166 0.12012,-0.11708 0.24024,-0.23403 0.36036,-0.35085 0.12012,-0.11681 0.24024,-0.23348 0.36036,-0.35001 0.12012,-0.11652 0.24024,-0.2329 0.36036,-0.34913 0.12012,-0.11623 0.24024,-0.2323 0.36036,-0.34822 0.12012,-0.11592 0.24024,-0.23168 0.36036,-0.34728 0.12012,-0.1156 0.24024,-0.23103 0.36036,-0.3463 0.12012,-0.11526 0.24024,-0.23036 0.36036,-0.34528 0.12012,-0.11492 0.24024,-0.22967 0.36036,-0.34423 0.12012,-0.11457 0.24024,-0.22895 0.36036,-0.34315 0.12012,-0.1142 0.24024,-0.22821 0.36036,-0.34203 0.12012,-0.11382 0.24024,-0.22744 0.36036,-0.34087 0.12012,-0.11343 0.24024,-0.22667 0.36036,-0.33969 0.12012,-0.11303 0.24024,-0.22586 0.36036,-0.33847 0.12012,-0.11262 0.24024,-0.22502 0.36036,-0.33721 0.12012,-0.1122 0.24024,-0.22417 0.36036,-0.33593 0.12012,-0.11175 0.24024,-0.22329 0.36036,-0.3346 0.12012,-0.11131 0.24024,-0.22239 0.36036,-0.33325 0.12012,-0.11085 0.24024,-0.22147 0.36036,-0.33185 0.12012,-0.11039 0.24024,-0.22053 0.36036,-0.33044 0.12012,-0.1099 0.24024,-0.21956 0.36037,-0.32897 0.12012,-0.10942 0.24024,-0.21858 0.36036,-0.32749 0.12012,-0.10891 0.24024,-0.21757 0.36036,-0.32597 0.12012,-0.1084 0.24024,-0.21654 0.36036,-0.32441 0.12012,-0.10788 0.24024,-0.21549 0.36036,-0.32283 0.12012,-0.10734 0.24024,-0.21441 0.36036,-0.32121 0.12012,-0.10679 0.24024,-0.21331 0.36036,-0.31955 0.12012,-0.10624 0.24024,-0.2122 0.36036,-0.31788 0.12012,-0.10567 0.24024,-0.21106 0.36036,-0.31616 0.12012,-0.10509 0.24024,-0.2099 0.36036,-0.31441 0.12012,-0.10451 0.24024,-0.20872 0.36036,-0.31263 0.12012,-0.10391 0.24024,-0.20752 0.36036,-0.31082 0.12012,-0.10331 0.24024,-0.2063 0.36036,-0.30899 0.12012,-0.10268 0.24024,-0.20505 0.36036,-0.30711 0.12012,-0.10205 0.24024,-0.20379 0.36036,-0.30521 0.12012,-0.10141 0.24024,-0.20251 0.36036,-0.30327 0.12012,-0.10077 0.24024,-0.20121 0.36036,-0.30131 0.12012,-0.10011 0.24024,-0.19989 0.36036,-0.29932 0.12012,-0.0994 0.24024,-0.19854 0.36036,-0.2973 0.12012,-0.0987 0.24024,-0.19717 0.36036,-0.29524 0.12012,-0.0981 0.24024,-0.19579 0.36036,-0.29316 0.12012,-0.0974 0.24024,-0.19438 0.36036,-0.29104 0.12012,-0.0967 0.24024,-0.19297 0.36036,-0.28891 0.12012,-0.0959 0.24024,-0.19152 0.36036,-0.28673 0.12012,-0.0952 0.24024,-0.19006 0.36036,-0.28454 0.12012,-0.0945 0.24024,-0.18857 0.36036,-0.2823 0.12012,-0.0937 0.24024,-0.18708 0.36036,-0.28005 0.12012,-0.093 0.24024,-0.18556 0.36036,-0.27777 0.12012,-0.0922 0.24025,-0.18403 0.36037,-0.27546 0.12012,-0.0914 0.24024,-0.18246 0.36036,-0.27311 0.12012,-0.0907 0.24024,-0.1809 0.36036,-0.27075 0.12012,-0.0899 0.24024,-0.1793 0.36036,-0.26835 0.12012,-0.089 0.24024,-0.1777 0.36036,-0.26594 0.12012,-0.0882 0.24024,-0.17607 0.36036,-0.26348 0.12012,-0.0874 0.24024,-0.17443 0.36036,-0.26102 0.12012,-0.0866 0.24024,-0.17276 0.36036,-0.25851 0.12012,-0.0858 0.24024,-0.17108 0.36036,-0.25598 0.12012,-0.0849 0.24024,-0.16939 0.36036,-0.25344 0.12012,-0.0841 0.24024,-0.16767 0.36036,-0.25086 0.12012,-0.0832 0.24024,-0.16594 0.36036,-0.24825 0.12012,-0.0823 0.24024,-0.16419 0.36036,-0.24563 0.12012,-0.0814 0.24024,-0.16243 0.36036,-0.24297 0.12012,-0.0805 0.24024,-0.16065 0.36036,-0.24031 0.12012,-0.0797 0.24024,-0.15885 0.36036,-0.2376 0.12012,-0.0787 0.24024,-0.15704 0.36036,-0.23487 0.12012,-0.0778 0.24024,-0.15522 0.36036,-0.23213 0.12012,-0.0769 0.24024,-0.15337 0.36036,-0.22936 0.12012,-0.076 0.24024,-0.15151 0.36036,-0.22656 0.12012,-0.0751 0.24024,-0.14964 0.36036,-0.22375 0.12012,-0.0741 0.24024,-0.14775 0.36036,-0.22091 0.12012,-0.0732 0.24024,-0.14585 0.36036,-0.21805 0.12012,-0.0722 0.24024,-0.14393 0.36036,-0.21517 0.12012,-0.0712 0.24024,-0.14199 0.36036,-0.21226 0.12012,-0.0703 0.24024,-0.14004 0.36036,-0.20933 0.12012,-0.0693 0.24024,-0.13809 0.36036,-0.20639 0.12012,-0.0683 0.24024,-0.13611 0.36036,-0.20342 0.12012,-0.0673 0.24025,-0.13413 0.36037,-0.20044 0.12012,-0.0663 0.24024,-0.13212 0.36036,-0.19743 0.12012,-0.0653 0.24024,-0.1301 0.36036,-0.19439 0.12012,-0.0643 0.24024,-0.12808 0.36036,-0.19136 0.12012,-0.0633 0.24024,-0.12603 0.36036,-0.18828 0.12012,-0.0623 0.24024,-0.12399 0.36036,-0.1852 0.12012,-0.0612 0.24024,-0.12192 0.36036,-0.1821 0.12012,-0.0602 0.24024,-0.11984 0.36036,-0.17898 0.12012,-0.0591 0.24024,-0.11775 0.36036,-0.17583 0.12012,-0.0581 0.24024,-0.11565 0.36036,-0.17268 0.12012,-0.057 0.24024,-0.11353 0.36036,-0.1695 0.12012,-0.056 0.24024,-0.11141 0.36036,-0.16632 0.12012,-0.0549 0.24024,-0.10927 0.36036,-0.1631 0.12012,-0.0538 0.24024,-0.10712 0.36036,-0.15988 0.12012,-0.0528 0.24024,-0.10497 0.36036,-0.15664 0.12012,-0.0517 0.24024,-0.1028 0.36036,-0.15338 0.12012,-0.0506 0.24024,-0.10062 0.36036,-0.15011 0.12012,-0.0495 0.24024,-0.0984 0.36036,-0.14682 0.12012,-0.0484 0.24024,-0.0962 0.36036,-0.14352 0.12012,-0.0473 0.24024,-0.094 0.36036,-0.14021 0.12012,-0.0462 0.24024,-0.0918 0.36036,-0.13688 0.12012,-0.0451 0.24024,-0.0896 0.36036,-0.13353 0.12012,-0.0439 0.24024,-0.0873 0.36036,-0.13017 0.12012,-0.0428 0.24024,-0.0851 0.36036,-0.12681 0.12012,-0.0417 0.24024,-0.0829 0.36036,-0.12342 0.12012,-0.0406 0.24024,-0.0806 0.36036,-0.12003 0.12012,-0.0394 0.24024,-0.0783 0.36036,-0.11662 0.12012,-0.0383 0.24024,-0.076 0.36036,-0.1132 0.12013,-0.0372 0.24025,-0.0738 0.36037,-0.10977 0.12012,-0.036 0.24024,-0.0715 0.36036,-0.10633 0.12012,-0.0349 0.24024,-0.0692 0.36036,-0.10288 0.12012,-0.0337 0.24024,-0.0668 0.36036,-0.0994 0.12012,-0.0326 0.24024,-0.0645 0.36036,-0.096 0.12012,-0.0314 0.24024,-0.0622 0.36036,-0.0925 0.12012,-0.0302 0.24024,-0.0599 0.36036,-0.089 0.12012,-0.0291 0.24024,-0.0576 0.36036,-0.0855 0.12012,-0.0279 0.24024,-0.0552 0.36036,-0.082 0.12012,-0.0267 0.24024,-0.0529 0.36036,-0.0784 0.12012,-0.0256 0.24024,-0.0505 0.36036,-0.0749 0.12012,-0.0244 0.24024,-0.0482 0.36036,-0.0714 0.12012,-0.0232 0.24024,-0.0458 0.36036,-0.0679 0.12012,-0.022 0.24024,-0.0435 0.36036,-0.0643 0.12012,-0.0208 0.24024,-0.0411 0.36036,-0.0608 0.12012,-0.0197 0.24024,-0.0387 0.36036,-0.0572 0.12012,-0.0185 0.24024,-0.0364 0.36036,-0.0536 0.12012,-0.0173 0.24024,-0.034 0.36036,-0.0501 0.12012,-0.0161 0.24024,-0.0316 0.36036,-0.0465 0.12012,-0.0149 0.24024,-0.0292 0.36036,-0.0429 0.12012,-0.0137 0.24024,-0.0268 0.36036,-0.0393 0.12012,-0.0125 0.24024,-0.0244 0.36036,-0.0357 0.12012,-0.0113 0.24024,-0.022 0.36036,-0.0321 0.12012,-0.0101 0.24024,-0.0196 0.36036,-0.0285 0.12012,-0.009 0.24024,-0.0172 0.36036,-0.0249 0.12012,-0.008 0.24024,-0.0148 0.36036,-0.0214 0.12012,-0.007 0.24024,-0.0124 0.36036,-0.0177 0.12012,-0.005 0.24024,-0.01 0.36037,-0.0142 0.12012,-0.004 0.24024,-0.008 0.36036,-0.0105 0.12012,-0.003 0.24024,-0.005 0.36036,-0.007 0.12012,-0.002 0.24024,-0.003 0.36036,-0.003 0.12012,-5.1e-4 0.24024,-4.2e-4 0.36036,2.8e-4 0.12012,6.9e-4 0.24024,0.002 0.36036,0.004 0.12012,0.002 0.24024,0.004 0.36036,0.007 0.12012,0.003 0.24024,0.007 0.36036,0.0111 0.12012,0.004 0.24024,0.009 0.36036,0.0147 0.12012,0.006 0.24024,0.0116 0.36036,0.0183 0.12012,0.007 0.24024,0.014 0.36036,0.0219 0.12012,0.008 0.24024,0.0164 0.36036,0.0255 0.12012,0.009 0.24024,0.0188 0.36036,0.0291 0.12012,0.0103 0.24024,0.0212 0.36036,0.0327 0.12012,0.0115 0.24024,0.0236 0.36036,0.0363 0.12012,0.0127 0.24024,0.026 0.36036,0.0399 0.12012,0.0139 0.24024,0.0284 0.36036,0.0435 0.12012,0.0151 0.24024,0.0308 0.36036,0.047 0.12012,0.0163 0.24024,0.0332 0.36036,0.0506 0.12012,0.0175 0.24024,0.0355 0.36036,0.0542 0.12012,0.0186 0.24024,0.0379 0.36036,0.0577 0.12012,0.0198 0.24024,0.0403 0.36036,0.0613 0.12012,0.021 0.24024,0.0427 0.36036,0.0649 0.12012,0.0222 0.24024,0.045 0.36036,0.0684 0.12012,0.0234 0.24024,0.0474 0.36036,0.0719 0.12012,0.0246 0.24024,0.0497 0.36036,0.0755 0.12012,0.0257 0.24024,0.0521 0.36036,0.079 0.12012,0.0269 0.24024,0.0544 0.36036,0.0825 0.12012,0.0281 0.24025,0.0568 0.36037,0.086 0.12012,0.0293 0.24024,0.0591 0.36036,0.0895 0.12012,0.0304 0.24024,0.0614 0.36036,0.093 0.12012,0.0316 0.24024,0.0637 0.36036,0.0965 0.12012,0.0327 0.24024,0.0661 0.36036,0.1 0.12012,0.0339 0.24024,0.0684 0.36036,0.10341 0.12012,0.0351 0.24024,0.0707 0.36036,0.10687 0.12012,0.0362 0.24024,0.073 0.36036,0.1103 0.12012,0.0373 0.24024,0.0752 0.36036,0.11373 0.12012,0.0385 0.24024,0.0775 0.36036,0.11715 0.12012,0.0396 0.24024,0.0798 0.36036,0.12055 0.12012,0.0408 0.24024,0.0821 0.36036,0.12395 0.12012,0.0419 0.24024,0.0843 0.36036,0.12733 0.12012,0.043 0.24024,0.0866 0.36036,0.1307 0.12012,0.0441 0.24024,0.0888 0.36036,0.13405 0.12012,0.0452 0.24024,0.091 0.36036,0.13739 0.12012,0.0464 0.24024,0.0933 0.36036,0.14072 0.12012,0.0475 0.24024,0.0955 0.36036,0.14403 0.12012,0.0486 0.24024,0.0977 0.36036,0.14734 0.12012,0.0497 0.24024,0.0999 0.36036,0.15062 0.12012,0.0507 0.24024,0.10204 0.36036,0.15388 0.12012,0.0518 0.24024,0.10422 0.36036,0.15714 0.12012,0.0529 0.24024,0.10639 0.36036,0.16038 0.12012,0.054 0.24024,0.10854 0.36036,0.16361 0.12012,0.0551 0.24024,0.11067 0.36036,0.1668 0.12012,0.0561 0.24024,0.1128 0.36036,0.17 0.12012,0.0572 0.24024,0.11492 0.36036,0.17317 0.12012,0.0582 0.24024,0.11702 0.36036,0.17632 0.12012,0.0593 0.24025,0.11912 0.36037,0.17946 0.12012,0.0603 0.24024,0.1212 0.36036,0.18258 0.12012,0.0614 0.24024,0.12327 0.36036,0.18568 0.12012,0.0624 0.24024,0.12533 0.36036,0.18876 0.12012,0.0634 0.24024,0.12738 0.36036,0.19183 0.12012,0.0645 0.24024,0.12941 0.36036,0.19487 0.12012,0.0655 0.24024,0.13142 0.36036,0.19789 0.12012,0.0665 0.24024,0.13343 0.36036,0.2009 0.12012,0.0675 0.24024,0.13543 0.36036,0.20388 0.12012,0.0685 0.24024,0.13741 0.36036,0.20685 0.12012,0.0694 0.24024,0.13937 0.36036,0.20979 0.12012,0.0704 0.24024,0.14132 0.36036,0.21271 0.12012,0.0714 0.24024,0.14326 0.36036,0.21562 0.12012,0.0724 0.24024,0.14518 0.36036,0.21849 0.12012,0.0733 0.24024,0.14709 0.36036,0.22135 0.12012,0.0743 0.24024,0.14899 0.36036,0.22419 0.12012,0.0752 0.24024,0.15086 0.36036,0.22699 0.12012,0.0761 0.24024,0.15273 0.36036,0.22979 0.12012,0.0771 0.24024,0.15458 0.36036,0.23256 0.12012,0.078 0.24024,0.15641 0.36036,0.2353 0.12012,0.0789 0.24024,0.15823 0.36036,0.23802 0.12012,0.0798 0.24024,0.16003 0.36036,0.24072 0.12012,0.0807 0.24024,0.16181 0.36036,0.24338 0.12012,0.0816 0.24024,0.16359 0.36036,0.24604 0.12012,0.0824 0.24024,0.16534 0.36036,0.24866 0.12012,0.0833 0.24024,0.16708 0.36036,0.25126 0.12012,0.0842 0.24024,0.16879 0.36036,0.25383 0.12012,0.085 0.24024,0.1705 0.36036,0.25638 0.12013,0.0859 0.24025,0.17218 0.36037,0.2589 0.12012,0.0867 0.24024,0.17385 0.36036,0.2614 0.12012,0.0875 0.24024,0.1755 0.36036,0.26386 0.12012,0.0884 0.24024,0.17714 0.36036,0.26632 0.12012,0.0892 0.24024,0.17875 0.36036,0.26872 0.12012,0.09 0.24024,0.18035 0.36036,0.27112 0.12012,0.0908 0.24024,0.18193 0.36036,0.27348 0.12012,0.0915 0.24024,0.18349 0.36036,0.27581 0.12012,0.0923 0.24024,0.18504 0.36036,0.27813 0.12012,0.0931 0.24024,0.18655 0.36036,0.2804 0.12012,0.0938 0.24024,0.18806 0.36036,0.28265 0.12012,0.0946 0.24024,0.18955 0.36036,0.28488 0.12012,0.0953 0.24024,0.19102 0.36036,0.28707 0.12012,0.096 0.24024,0.19247 0.36036,0.28924 0.12012,0.0968 0.24024,0.1939 0.36036,0.29137 0.12012,0.0975 0.24024,0.19531 0.36036,0.29349 0.12012,0.0982 0.24024,0.1967 0.36036,0.29556 0.12012,0.0989 0.24024,0.19807 0.36036,0.29761 0.12012,0.0995 0.24024,0.19942 0.36036,0.29963 0.12012,0.10021 0.24024,0.20075 0.36036,0.30162 0.12012,0.10086 0.24024,0.20206 0.36036,0.30357 0.12012,0.10152 0.24024,0.20336 0.36036,0.30551 0.12012,0.10215 0.24024,0.20462 0.36036,0.3074 0.12012,0.10278 0.24024,0.20587 0.36036,0.30927 0.12012,0.1034 0.24024,0.2071 0.36036,0.31111 0.12012,0.104 0.24024,0.20831 0.36036,0.31291 0.12012,0.1046 0.24024,0.20949 0.36036,0.31468 0.12012,0.10519 0.24024,0.21067 0.36037,0.31643 0.12012,0.10576 0.24024,0.21181 0.36036,0.31813 0.12012,0.10633 0.24024,0.21294 0.36036,0.31982 0.12012,0.10688 0.24024,0.21403 0.36036,0.32146 0.12012,0.10742 0.24024,0.21512 0.36036,0.32307 0.12012,0.10796 0.24024,0.21618 0.36036,0.32466 0.12012,0.10848 0.24024,0.21721 0.36036,0.3262 0.12012,0.10899 0.24024,0.21824 0.36036,0.32773 0.12012,0.10949 0.24024,0.21922 0.36036,0.3292 0.12012,0.10998 0.24024,0.2202 0.36036,0.33066 0.12012,0.11046 0.24024,0.22115 0.36036,0.33207 0.12012,0.11093 0.24024,0.22208 0.36036,0.33346 0.12012,0.11138 0.24024,0.22298 0.36036,0.33481 0.12012,0.11182 0.24024,0.22387 0.36036,0.33612 0.12012,0.11226 0.24024,0.22473 0.36036,0.33741 0.12012,0.11268 0.24024,0.22557 0.36036,0.33866 0.12012,0.11309 0.24024,0.22639 0.36036,0.33988 0.12012,0.11349 0.24024,0.22718 0.36036,0.34106 0.12012,0.11387 0.24024,0.22794 0.36036,0.3422 0.12012,0.11426 0.24024,0.2287 0.36036,0.34332 0.12012,0.11462 0.24024,0.22942 0.36036,0.34439 0.12012,0.11498 0.24024,0.23013 0.36036,0.34545 0.12012,0.11531 0.24024,0.2308 0.36036,0.34645 0.12012,0.11565 0.24024,0.23146 0.36036,0.34742 0.12012,0.11597 0.24024,0.23209 0.36036,0.34837 0.12012,0.11627 0.24024,0.2327 0.36036,0.34927 0.12012,0.11657 0.24024,0.23329 0.36036,0.35014 0.12012,0.11686 0.24024,0.23385 0.36036,0.35098 0.12012,0.11713 0.24025,0.23439 0.36037,0.35178 0.12012,0.11739 0.24024,0.2349 0.36036,0.35254 0.12012,0.11764 0.24024,0.2354 0.36036,0.35327 0.12012,0.11788 0.24024,0.23587 0.36036,0.35397 0.12012,0.1181 0.24024,0.23631 0.36036,0.35462 0.12012,0.11832 0.24024,0.23674 0.36036,0.35525 0.12012,0.11852 0.24024,0.23713 0.36036,0.35584 0.12012,0.1187 0.24024,0.2375 0.36036,0.35639 0.12012,0.11888 0.24024,0.23785 0.36036,0.3569 0.12012,0.11905 0.24024,0.23818 0.36036,0.35738 0.12012,0.11921 0.24024,0.23849 0.36036,0.35783 0.12012,0.11935 0.24024,0.23876 0.36036,0.35824 0.12012,0.11948 0.24024,0.23901 0.36036,0.35861 0.12012,0.11959 0.24024,0.23925 0.36036,0.35895 0.12012,0.1197 0.24024,0.23945 0.36036,0.35925 0.12012,0.11979 0.24024,0.23963 0.36036,0.35951 0.12012,0.11988 0.24024,0.23979 0.36036,0.35974 0.12012,0.11995 0.24024,0.23993 0.36036,0.35994 0.12012,0.12 0.24024,0.24003 0.36036,0.36009 0.12012,0.12005 0.24024,0.24012 0.36036,0.36021 0.12012,0.12009 0.24024,0.24019 0.36036,0.3603 0.12012,0.12011 0.24024,0.24022 0.36036,0.36034 0.12012,0.12012 0.24024,0.24024 0.36036,0.36036 0.12012,0.12012 0.24024,0.24023 0.36036,0.36034 0.12012,0.1201 0.24024,0.24019 0.36036,0.36027 0.12012,0.12008 0.24024,0.24014 0.36036,0.36018 0.12012,0.12004 0.24024,0.24006 0.36036,0.36005 0.12012,0.11999 0.24024,0.23995 0.36036,0.35988 0.12012,0.11993 0.24025,0.23982 0.36037,0.35967 0.12012,0.11986 0.24024,0.23967 0.36036,0.35944 0.12012,0.11977 0.24024,0.23949 0.36036,0.35916 0.12012,0.11967 0.24024,0.23928 0.36036,0.35884 0.12012,0.11956 0.24024,0.23906 0.36036,0.3585 0.12012,0.11944 0.24024,0.23881 0.36036,0.35812 0.12012,0.1193 0.24024,0.23853 0.36036,0.35769 0.12012,0.11916 0.24024,0.23824 0.36036,0.35724 0.12012,0.119 0.24024,0.23792 0.36036,0.35675 0.12012,0.11883 0.24024,0.23757 0.36036,0.35622 0.12012,0.11865 0.24024,0.2372 0.36036,0.35566 0.12012,0.11845 0.24024,0.23681 0.36036,0.35505 0.12012,0.11825 0.24024,0.2364 0.36036,0.35443 0.12012,0.11803 0.24024,0.23595 0.36036,0.35375 0.12012,0.11781 0.24024,0.23549 0.36036,0.35305 0.12012,0.11757 0.24024,0.235 0.36036,0.35231 0.12012,0.11731 0.24024,0.23449 0.36036,0.35154 0.12012,0.11704 0.24024,0.23395 0.36036,0.35072 0.12012,0.11677 0.24024,0.2334 0.36036,0.34988 0.12012,0.11648 0.24024,0.23281 0.36036,0.34899 0.12012,0.11618 0.24024,0.23221 0.36036,0.34808 0.12012,0.11587 0.24024,0.23158 0.36036,0.34713 0.12012,0.11554 0.24024,0.23093 0.36036,0.34614 0.12012,0.11521 0.24024,0.23025 0.36036,0.34512 0.12012,0.11487 0.24024,0.22956 0.36036,0.34407 0.12012,0.11451 0.24024,0.22883 0.36036,0.34297 0.12012,0.11414 0.24024,0.2281 0.36036,0.34186 0.12012,0.11376 0.24024,0.22732 0.36036,0.34069 0.12013,0.11337 0.24025,0.22654 0.36037,0.3395 0.12012,0.11297 0.24024,0.22573 0.36036,0.33828 0.12012,0.11255 0.24024,0.22489 0.36036,0.33701 0.12012,0.11213 0.24024,0.22404 0.36036,0.33573 0.12012,0.11168 0.24024,0.22315 0.36036,0.33439 0.12012,0.11124 0.24024,0.22225 0.36036,0.33303 0.12012,0.11078 0.24024,0.22133 0.36036,0.33164 0.12012,0.11031 0.24024,0.22038 0.36036,0.33021 0.12012,0.10983 0.24024,0.21941 0.36036,0.32875 0.12012,0.10934 0.24024,0.21842 0.36036,0.32726 0.12012,0.10883 0.24024,0.21741 0.36036,0.32572 0.12012,0.10832 0.24024,0.21638 0.36036,0.32417 0.12012,0.1078 0.24024,0.21533 0.36036,0.32258 0.12012,0.10726 0.24024,0.21425 0.36036,0.32096 0.12012,0.10671 0.24024,0.21314 0.36036,0.31929 0.12012,0.10616 0.24024,0.21203 0.36036,0.31761 0.12012,0.10559 0.24024,0.21089 0.36036,0.31589 0.12012,0.10501 0.24024,0.20972 0.36036,0.31414 0.12012,0.10442 0.24024,0.20854 0.36036,0.31236 0.12012,0.10381 0.24024,0.20733 0.36036,0.31054 0.12012,0.1032 0.24024,0.2061 0.36036,0.30869 0.12012,0.10259 0.24024,0.20486 0.36036,0.30682 0.12012,0.10196 0.24024,0.2036 0.36036,0.30491 0.12012,0.10132 0.24024,0.20231 0.36036,0.30297 0.12012,0.10067 0.24024,0.20101 0.36036,0.30101 0.12012,0.1 0.24024,0.19967 0.36036,0.29901 0.12012,0.0993 0.24024,0.19832 0.36036,0.29698 0.12012,0.0986 0.24024,0.19696 0.36037,0.29492 0.12012,0.098 0.24024,0.19557 0.36036,0.29283 0.12012,0.0973 0.24024,0.19417 0.36036,0.29072 0.12012,0.0965 0.24024,0.19274 0.36036,0.28857 0.12012,0.0958 0.24024,0.19129 0.36036,0.28639 0.12012,0.0951 0.24024,0.18983 0.36036,0.28419 0.12012,0.0944 0.24024,0.18835 0.36036,0.28196 0.12012,0.0936 0.24024,0.18685 0.36036,0.2797 0.12012,0.0928 0.24024,0.18532 0.36036,0.27741 0.12012,0.0921 0.24024,0.18379 0.36036,0.27509 0.12012,0.0913 0.24024,0.18223 0.36036,0.27276 0.12012,0.0905 0.24024,0.18065 0.36036,0.27037 0.12012,0.0897 0.24024,0.17906 0.36036,0.26799 0.12012,0.0889 0.24024,0.17744 0.36036,0.26555 0.12012,0.0881 0.24024,0.17582 0.36036,0.26311 0.12012,0.0873 0.24024,0.17416 0.36036,0.26062 0.12012,0.0865 0.24024,0.17251 0.36036,0.25813 0.12012,0.0856 0.24024,0.17082 0.36036,0.25559 0.12012,0.0848 0.24024,0.16912 0.36036,0.25304 0.12012,0.0839 0.24024,0.1674 0.36036,0.25045 0.12012,0.0831 0.24024,0.16567 0.36036,0.24785 0.12012,0.0822 0.24024,0.16392 0.36036,0.24522 0.12012,0.0813 0.24024,0.16215 0.36036,0.24256 0.12012,0.0804 0.24024,0.16038 0.36036,0.23989 0.12012,0.0795 0.24024,0.15857 0.36036,0.23718 0.12012,0.0786 0.24024,0.15676 0.36036,0.23445 0.12012,0.0777 0.24024,0.15493 0.36036,0.2317 0.12012,0.0768 0.24024,0.15308 0.36036,0.22893 0.12012,0.0758 0.24025,0.15122 0.36037,0.22613 0.12012,0.0749 0.24024,0.14934 0.36036,0.22331 0.12012,0.074 0.24024,0.14745 0.36036,0.22047 0.12012,0.073 0.24024,0.14554 0.36036,0.2176 0.12012,0.072 0.24024,0.14363 0.36036,0.21472 0.12012,0.0711 0.24024,0.14169 0.36036,0.21181 0.12012,0.0701 0.24024,0.13974 0.36036,0.20888 0.12012,0.0691 0.24024,0.13778 0.36036,0.20593 0.12012,0.0682 0.24024,0.1358 0.36036,0.20296 0.12012,0.0672 0.24024,0.13381 0.36036,0.19997 0.12012,0.0661 0.24024,0.13181 0.36036,0.19696 0.12012,0.0652 0.24024,0.12979 0.36036,0.19393 0.12012,0.0641 0.24024,0.12776 0.36036,0.19087 0.12012,0.0631 0.24024,0.12572 0.36036,0.18781 0.12012,0.0621 0.24024,0.12367 0.36036,0.18472 0.12012,0.0611 0.24024,0.1216 0.36036,0.18162 0.12012,0.06 0.24024,0.11952 0.36036,0.17849 0.12012,0.059 0.24024,0.11742 0.36036,0.17535 0.12012,0.0579 0.24024,0.11532 0.36036,0.17219 0.12012,0.0569 0.24024,0.1132 0.36036,0.16901 0.12012,0.0558 0.24024,0.11107 0.36036,0.16581 0.12012,0.0547 0.24024,0.10894 0.36036,0.16261 0.12012,0.0537 0.24024,0.10679 0.36036,0.15938 0.12012,0.0526 0.24024,0.10463 0.36036,0.15613 0.12012,0.0515 0.24024,0.10246 0.36036,0.15288 0.12012,0.0504 0.24024,0.10028 0.36036,0.1496 0.12012,0.0493 0.24024,0.0981 0.36036,0.14631 0.12012,0.0482 0.24024,0.0959 0.36036,0.14301 0.12012,0.0471 0.24025,0.0937 0.36037,0.13969 0.12012,0.046 0.24024,0.0915 0.36036,0.13636 0.12012,0.0449 0.24024,0.0892 0.36036,0.13301 0.12012,0.0438 0.24024,0.087 0.36036,0.12966 0.12012,0.0426 0.24024,0.0847 0.36036,0.12628 0.12012,0.0415 0.24024,0.0825 0.36036,0.1229 0.12012,0.0404 0.24024,0.0802 0.36036,0.1195 0.12012,0.0393 0.24024,0.078 0.36036,0.11609 0.12012,0.0381 0.24024,0.0757 0.36036,0.11267 0.12012,0.037 0.24024,0.0734 0.36036,0.10924 0.12012,0.0358 0.24024,0.0711 0.36036,0.10579 0.12012,0.0347 0.24024,0.0688 0.36036,0.10235 0.12012,0.0335 0.24024,0.0665 0.36036,0.0989 0.12012,0.0324 0.24024,0.0642 0.36036,0.0954 0.12012,0.0312 0.24024,0.0619 0.36036,0.0919 0.12012,0.0301 0.24024,0.0595 0.36036,0.0884 0.12012,0.0289 0.24024,0.0572 0.36036,0.0849 0.12012,0.0277 0.24024,0.0549 0.36036,0.0814 0.12012,0.0265 0.24024,0.0525 0.36036,0.0779 0.12012,0.0254 0.24024,0.0502 0.36036,0.0744 0.12012,0.0242 0.24024,0.0478 0.36036,0.0708 0.12012,0.023 0.24024,0.0455 0.36036,0.0673 0.12012,0.0219 0.24024,0.0431 0.36036,0.0638 0.12012,0.0207 0.24024,0.0407 0.36036,0.0602 0.12012,0.0195 0.24024,0.0384 0.36036,0.0566 0.12012,0.0183 0.24024,0.036 0.36036,0.0531 0.12012,0.0171 0.24024,0.0336 0.36036,0.0495 0.12012,0.0159 0.24024,0.0312 0.36036,0.0459 0.12013,0.0147 0.24025,0.0288 0.36037,0.0423 0.12012,0.0135 0.24024,0.0264 0.36036,0.0388 0.12012,0.0123 0.24024,0.024 0.36036,0.0352 0.12012,0.0111 0.24024,0.0216 0.36036,0.0316 0.12012,0.01 0.24024,0.0193 0.36036,0.028 0.12012,0.009 0.24024,0.0169 0.36036,0.0244 0.12012,0.008 0.24024,0.0145 0.36036,0.0208 0.12012,0.006 0.24024,0.0121 0.36036,0.0172 0.12012,0.005 0.24024,0.01 0.36036,0.0136 0.12012,0.004 0.24024,0.007 0.36036,0.01 0.12012,0.003 0.24024,0.005 0.36036,0.006 0.12012,0.002 0.24024,0.002 0.36036,0.003 0.12012,3.2e-4 0.24024,4e-5 0.36036,-8.4e-4 0.12012,-8.8e-4 0.24024,-0.002 0.36036,-0.004 0.12012,-0.002 0.24024,-0.005 0.36036,-0.008 0.12012,-0.003 0.24024,-0.007 0.36036,-0.0117 0.12012,-0.004 0.24024,-0.01 0.36036,-0.0153 0.12012,-0.006 0.24024,-0.012 0.36036,-0.0189 0.12012,-0.007 0.24024,-0.0144 0.36036,-0.0225 0.12012,-0.008 0.24024,-0.0168 0.36036,-0.0261 0.12012,-0.009 0.24024,-0.0192 0.36036,-0.0297 0.12012,-0.0105 0.24024,-0.0216 0.36036,-0.0332 0.12012,-0.0117 0.24024,-0.024 0.36036,-0.0369 0.12012,-0.0129 0.24024,-0.0264 0.36036,-0.0404 0.12012,-0.0141 0.24024,-0.0288 0.36036,-0.044 0.12012,-0.0153 0.24024,-0.0311 0.36036,-0.0476 0.12012,-0.0165 0.24024,-0.0335 0.36036,-0.0512 0.12012,-0.0177 0.24024,-0.0359 0.36037,-0.0547 0.12012,-0.0188 0.24024,-0.0383 0.36036,-0.0583 0.12012,-0.02 0.24024,-0.0406 0.36036,-0.0618 0.12012,-0.0212 0.24024,-0.043 0.36036,-0.0654 0.12012,-0.0224 0.24024,-0.0454 0.36036,-0.0689 0.12012,-0.0236 0.24024,-0.0477 0.36036,-0.0725 0.12012,-0.0247 0.24024,-0.0501 0.36036,-0.076 0.12012,-0.0259 0.24024,-0.0524 0.36036,-0.0795 0.12012,-0.0271 0.24024,-0.0548 0.36036,-0.083 0.12012,-0.0283 0.24024,-0.0571 0.36036,-0.0866 0.12012,-0.0294 0.24024,-0.0595 0.36036,-0.0901 0.12012,-0.0306 0.24024,-0.0618 0.36036,-0.0935 0.12012,-0.0318 0.24024,-0.0641 0.36036,-0.097 0.12012,-0.0329 0.24024,-0.0664 0.36036,-0.10049"
       style="color:#000000;display:inline;overflow:visible;visibility:visible;opacity:1;fill:none;fill-opacity:1;fill-rule:nonzero;stroke:#000000;stroke-width:2;stroke-linecap:butt;stroke-linejoin:miter;stroke-miterlimit:4;stroke-dasharray:none;stroke-dashoffset:0;stroke-opacity:1;marker:none;enable-background:accumulate"
       inkscape:connector-curvature="0" />
  </g>
</svg>
