<?xml version="1.0" encoding="UTF-8"?>
<svg xmlns="http://www.w3.org/2000/svg" xmlns:xlink="http://www.w3.org/1999/xlink" width="135.914932pt" height="78.770576pt" viewBox="0 0 135.914932 78.770576" version="1.1">
<defs>
<clipPath id="clip1">
  <path d="M 106 73 L 113 73 L 113 78.769531 L 106 78.769531 Z M 106 73 "/>
</clipPath>
<clipPath id="clip2">
  <path d="M 135 0 L 135.914062 0 L 135.914062 12 L 135 12 Z M 135 0 "/>
</clipPath>
<clipPath id="clip3">
  <path d="M 0 3 L 125 3 L 125 78.769531 L 0 78.769531 Z M 0 3 "/>
</clipPath>
</defs>
<g id="surface1">
<path style="fill:none;stroke-width:0.8;stroke-linecap:round;stroke-linejoin:round;stroke:rgb(100%,0%,0%);stroke-opacity:1;stroke-miterlimit:4;" d="M 58.175781 7.484375 L 58.175781 74.683594 "/>
<path style="fill:none;stroke-width:0.8;stroke-linecap:round;stroke-linejoin:round;stroke:rgb(100%,0%,0%);stroke-opacity:1;stroke-miterlimit:4;" d="M 0.574219 69.886719 L 115.773438 69.886719 "/>
<path style=" stroke:none;fill-rule:nonzero;fill:rgb(0%,0%,0%);fill-opacity:1;" d="M 67.230469 3.945312 C 67.285156 3.777344 67.285156 3.757812 67.285156 3.664062 C 67.285156 3.457031 67.117188 3.34375 66.929688 3.34375 C 66.816406 3.34375 66.628906 3.417969 66.515625 3.589844 C 66.5 3.664062 66.386719 4.019531 66.347656 4.246094 C 66.253906 4.542969 66.179688 4.882812 66.105469 5.199219 L 65.5625 7.355469 C 65.523438 7.527344 65 8.371094 64.210938 8.371094 C 63.609375 8.371094 63.480469 7.84375 63.480469 7.394531 C 63.480469 6.851562 63.6875 6.101562 64.078125 5.050781 C 64.265625 4.5625 64.324219 4.433594 64.324219 4.1875 C 64.324219 3.664062 63.949219 3.214844 63.347656 3.214844 C 62.203125 3.214844 61.773438 4.957031 61.773438 5.050781 C 61.773438 5.183594 61.886719 5.183594 61.90625 5.183594 C 62.035156 5.183594 62.035156 5.144531 62.09375 4.957031 C 62.429688 3.832031 62.898438 3.476562 63.3125 3.476562 C 63.40625 3.476562 63.609375 3.476562 63.609375 3.851562 C 63.609375 4.152344 63.480469 4.46875 63.40625 4.695312 C 62.917969 5.96875 62.710938 6.644531 62.710938 7.207031 C 62.710938 8.277344 63.460938 8.632812 64.171875 8.632812 C 64.640625 8.632812 65.035156 8.425781 65.375 8.089844 C 65.222656 8.707031 65.074219 9.308594 64.605469 9.945312 C 64.285156 10.339844 63.835938 10.695312 63.292969 10.695312 C 63.125 10.695312 62.578125 10.65625 62.375 10.1875 C 62.5625 10.1875 62.730469 10.1875 62.878906 10.039062 C 63.011719 9.945312 63.125 9.777344 63.125 9.550781 C 63.125 9.175781 62.804688 9.136719 62.691406 9.136719 C 62.410156 9.136719 62.015625 9.324219 62.015625 9.90625 C 62.015625 10.507812 62.542969 10.957031 63.292969 10.957031 C 64.511719 10.957031 65.75 9.871094 66.085938 8.519531 Z M 67.230469 3.945312 "/>
<g clip-path="url(#clip1)" clip-rule="nonzero">
<path style=" stroke:none;fill-rule:nonzero;fill:rgb(0%,0%,0%);fill-opacity:1;" d="M 110.5 75.019531 C 110.578125 74.71875 110.859375 73.613281 111.683594 73.613281 C 111.738281 73.613281 112.039062 73.613281 112.28125 73.765625 C 111.945312 73.839844 111.71875 74.121094 111.71875 74.421875 C 111.71875 74.609375 111.851562 74.832031 112.171875 74.832031 C 112.433594 74.832031 112.808594 74.625 112.808594 74.140625 C 112.808594 73.519531 112.113281 73.351562 111.703125 73.351562 C 111.007812 73.351562 110.59375 73.988281 110.445312 74.25 C 110.144531 73.464844 109.507812 73.351562 109.152344 73.351562 C 107.914062 73.351562 107.21875 74.890625 107.21875 75.1875 C 107.21875 75.320312 107.351562 75.320312 107.371094 75.320312 C 107.464844 75.320312 107.5 75.28125 107.519531 75.1875 C 107.933594 73.914062 108.71875 73.613281 109.132812 73.613281 C 109.359375 73.613281 109.769531 73.726562 109.769531 74.421875 C 109.769531 74.796875 109.5625 75.582031 109.132812 77.269531 C 108.945312 78 108.515625 78.507812 107.988281 78.507812 C 107.914062 78.507812 107.652344 78.507812 107.390625 78.359375 C 107.6875 78.28125 107.953125 78.039062 107.953125 77.703125 C 107.953125 77.382812 107.6875 77.289062 107.519531 77.289062 C 107.144531 77.289062 106.863281 77.589844 106.863281 77.984375 C 106.863281 78.527344 107.445312 78.769531 107.96875 78.769531 C 108.777344 78.769531 109.207031 77.925781 109.226562 77.871094 C 109.375 78.300781 109.808594 78.769531 110.519531 78.769531 C 111.757812 78.769531 112.433594 77.234375 112.433594 76.933594 C 112.433594 76.800781 112.339844 76.800781 112.300781 76.800781 C 112.1875 76.800781 112.171875 76.859375 112.132812 76.933594 C 111.738281 78.226562 110.933594 78.507812 110.558594 78.507812 C 110.089844 78.507812 109.902344 78.132812 109.902344 77.71875 C 109.902344 77.457031 109.957031 77.195312 110.089844 76.671875 Z M 110.5 75.019531 "/>
</g>
<path style=" stroke:none;fill-rule:nonzero;fill:rgb(0%,0%,0%);fill-opacity:1;" d="M 107.449219 4.425781 C 107.503906 4.257812 107.503906 4.238281 107.503906 4.144531 C 107.503906 3.9375 107.335938 3.824219 107.148438 3.824219 C 107.035156 3.824219 106.847656 3.898438 106.738281 4.070312 C 106.71875 4.144531 106.605469 4.5 106.566406 4.726562 C 106.472656 5.023438 106.398438 5.363281 106.324219 5.679688 L 105.78125 7.835938 C 105.742188 8.007812 105.21875 8.851562 104.429688 8.851562 C 103.832031 8.851562 103.699219 8.324219 103.699219 7.875 C 103.699219 7.332031 103.90625 6.582031 104.300781 5.53125 C 104.488281 5.042969 104.542969 4.914062 104.542969 4.667969 C 104.542969 4.144531 104.167969 3.695312 103.566406 3.695312 C 102.425781 3.695312 101.992188 5.4375 101.992188 5.53125 C 101.992188 5.664062 102.105469 5.664062 102.125 5.664062 C 102.253906 5.664062 102.253906 5.625 102.3125 5.4375 C 102.648438 4.3125 103.117188 3.957031 103.53125 3.957031 C 103.625 3.957031 103.832031 3.957031 103.832031 4.332031 C 103.832031 4.632812 103.699219 4.949219 103.625 5.175781 C 103.136719 6.449219 102.929688 7.125 102.929688 7.6875 C 102.929688 8.757812 103.679688 9.113281 104.394531 9.113281 C 104.863281 9.113281 105.253906 8.90625 105.59375 8.570312 C 105.441406 9.1875 105.292969 9.789062 104.824219 10.425781 C 104.503906 10.820312 104.054688 11.175781 103.511719 11.175781 C 103.34375 11.175781 102.800781 11.136719 102.59375 10.667969 C 102.78125 10.667969 102.949219 10.667969 103.097656 10.519531 C 103.230469 10.425781 103.34375 10.257812 103.34375 10.03125 C 103.34375 9.65625 103.023438 9.617188 102.910156 9.617188 C 102.628906 9.617188 102.238281 9.804688 102.238281 10.386719 C 102.238281 10.988281 102.761719 11.4375 103.511719 11.4375 C 104.730469 11.4375 105.96875 10.351562 106.304688 9 Z M 107.449219 4.425781 "/>
<path style=" stroke:none;fill-rule:nonzero;fill:rgb(0%,0%,0%);fill-opacity:1;" d="M 119.460938 5.0625 C 119.648438 5.0625 119.871094 5.0625 119.871094 4.835938 C 119.871094 4.59375 119.648438 4.59375 119.480469 4.59375 L 112.316406 4.59375 C 112.148438 4.59375 111.921875 4.59375 111.921875 4.835938 C 111.921875 5.0625 112.148438 5.0625 112.316406 5.0625 Z M 119.480469 7.386719 C 119.648438 7.386719 119.871094 7.386719 119.871094 7.144531 C 119.871094 6.917969 119.648438 6.917969 119.460938 6.917969 L 112.316406 6.917969 C 112.148438 6.917969 111.921875 6.917969 111.921875 7.144531 C 111.921875 7.386719 112.148438 7.386719 112.316406 7.386719 Z M 119.480469 7.386719 "/>
<path style=" stroke:none;fill-rule:nonzero;fill:rgb(0%,0%,0%);fill-opacity:1;" d="M 125.761719 0.429688 C 125.761719 0.226562 125.761719 0 125.535156 0 C 125.292969 0 125.292969 0.226562 125.292969 0.429688 L 125.292969 11.550781 C 125.292969 11.757812 125.292969 11.980469 125.535156 11.980469 C 125.761719 11.980469 125.761719 11.757812 125.761719 11.550781 Z M 125.761719 0.429688 "/>
<path style=" stroke:none;fill-rule:nonzero;fill:rgb(0%,0%,0%);fill-opacity:1;" d="M 131.183594 5.363281 C 131.257812 5.0625 131.539062 3.957031 132.363281 3.957031 C 132.417969 3.957031 132.71875 3.957031 132.964844 4.105469 C 132.625 4.179688 132.402344 4.460938 132.402344 4.761719 C 132.402344 4.949219 132.53125 5.175781 132.851562 5.175781 C 133.113281 5.175781 133.488281 4.96875 133.488281 4.480469 C 133.488281 3.863281 132.792969 3.695312 132.382812 3.695312 C 131.6875 3.695312 131.277344 4.332031 131.125 4.59375 C 130.824219 3.804688 130.1875 3.695312 129.832031 3.695312 C 128.59375 3.695312 127.902344 5.230469 127.902344 5.53125 C 127.902344 5.664062 128.03125 5.664062 128.050781 5.664062 C 128.144531 5.664062 128.183594 5.625 128.199219 5.53125 C 128.613281 4.257812 129.402344 3.957031 129.8125 3.957031 C 130.039062 3.957031 130.449219 4.070312 130.449219 4.761719 C 130.449219 5.136719 130.246094 5.925781 129.8125 7.613281 C 129.625 8.34375 129.195312 8.851562 128.667969 8.851562 C 128.59375 8.851562 128.332031 8.851562 128.070312 8.699219 C 128.371094 8.625 128.632812 8.382812 128.632812 8.042969 C 128.632812 7.726562 128.371094 7.632812 128.199219 7.632812 C 127.824219 7.632812 127.542969 7.929688 127.542969 8.324219 C 127.542969 8.867188 128.125 9.113281 128.652344 9.113281 C 129.457031 9.113281 129.886719 8.269531 129.90625 8.210938 C 130.058594 8.644531 130.488281 9.113281 131.199219 9.113281 C 132.4375 9.113281 133.113281 7.574219 133.113281 7.273438 C 133.113281 7.144531 133.019531 7.144531 132.980469 7.144531 C 132.871094 7.144531 132.851562 7.199219 132.8125 7.273438 C 132.417969 8.570312 131.613281 8.851562 131.238281 8.851562 C 130.769531 8.851562 130.582031 8.476562 130.582031 8.0625 C 130.582031 7.800781 130.636719 7.539062 130.769531 7.011719 Z M 131.183594 5.363281 "/>
<g clip-path="url(#clip2)" clip-rule="nonzero">
<path style=" stroke:none;fill-rule:nonzero;fill:rgb(0%,0%,0%);fill-opacity:1;" d="M 135.914062 0.429688 C 135.914062 0.226562 135.914062 0 135.691406 0 C 135.445312 0 135.445312 0.226562 135.445312 0.429688 L 135.445312 11.550781 C 135.445312 11.757812 135.445312 11.980469 135.691406 11.980469 C 135.914062 11.980469 135.914062 11.757812 135.914062 11.550781 Z M 135.914062 0.429688 "/>
</g>
<g clip-path="url(#clip3)" clip-rule="nonzero">
<path style="fill:none;stroke-width:1.6;stroke-linecap:butt;stroke-linejoin:miter;stroke:rgb(0%,0%,0%);stroke-opacity:1;stroke-miterlimit:4;" d="M 0.574219 12.285156 L 58.175781 69.886719 L 115.773438 12.285156 "/>
</g>
</g>
</svg>
