<?xml version="1.0" encoding="UTF-8"?>
<svg xmlns="http://www.w3.org/2000/svg" xmlns:xlink="http://www.w3.org/1999/xlink" width="362.006561pt" height="142.211502pt" viewBox="0 0 362.006561 142.211502" version="1.1">
<defs>
<filter id="alpha" filterUnits="objectBoundingBox" x="0%" y="0%" width="100%" height="100%">
  <feColorMatrix type="matrix" in="SourceGraphic" values="0 0 0 0 1 0 0 0 0 1 0 0 0 0 1 0 0 0 1 0"/>
</filter>
<clipPath id="clip1">
  <rect width="5" height="58"/>
</clipPath>
<g id="surface8" clip-path="url(#clip1)">
<rect x="0" y="0" width="5" height="58" style="fill:rgb(0%,0%,0%);fill-opacity:0.97;stroke:none;"/>
</g>
<mask id="mask0">
  <g filter="url(#alpha)">
<use xlink:href="#surface8"/>
  </g>
</mask>
<clipPath id="clip2">
  <rect width="5" height="58"/>
</clipPath>
<g id="surface10" clip-path="url(#clip2)">
<path style="fill:none;stroke-width:1.6;stroke-linecap:round;stroke-linejoin:round;stroke:rgb(100%,0%,0%);stroke-opacity:1;stroke-miterlimit:4;" d="M 63.199219 63.191406 L 63.199219 115.988281 " transform="matrix(1,0,0,1,-61,-61)"/>
<path style="fill-rule:evenodd;fill:rgb(100%,0%,0%);fill-opacity:1;stroke-width:0.4;stroke-linecap:butt;stroke-linejoin:miter;stroke:rgb(100%,0%,0%);stroke-opacity:1;stroke-miterlimit:4;" d="M 64.757813 -63.199219 C 64.757813 -62.316406 64.039063 -61.601562 63.15625 -61.601562 C 62.273438 -61.601562 61.558594 -62.316406 61.558594 -63.199219 C 61.558594 -64.082031 62.273438 -64.800781 63.15625 -64.800781 C 64.039063 -64.800781 64.757813 -64.082031 64.757813 -63.199219 Z M 64.757813 -63.199219 " transform="matrix(0,1,-1,0,-61,-61)"/>
<path style="fill-rule:evenodd;fill:rgb(100%,0%,0%);fill-opacity:1;stroke-width:0.4;stroke-linecap:butt;stroke-linejoin:miter;stroke:rgb(100%,0%,0%);stroke-opacity:1;stroke-miterlimit:4;" d="M -114.070313 63.199219 L -112.46875 61.601562 L -118.070313 63.199219 L -112.46875 64.800781 Z M -114.070313 63.199219 " transform="matrix(0,-1,1,0,-61,-61)"/>
</g>
<clipPath id="clip3">
  <rect width="127" height="128"/>
</clipPath>
<g id="surface14" clip-path="url(#clip3)">
<rect x="0" y="0" width="127" height="128" style="fill:rgb(0%,0%,0%);fill-opacity:0.97;stroke:none;"/>
</g>
<mask id="mask1">
  <g filter="url(#alpha)">
<use xlink:href="#surface14"/>
  </g>
</mask>
<clipPath id="clip4">
  <rect width="127" height="128"/>
</clipPath>
<g id="surface16" clip-path="url(#clip4)">
<path style="fill:none;stroke-width:1.6;stroke-linecap:round;stroke-linejoin:round;stroke:rgb(100%,0%,0%);stroke-opacity:1;stroke-miterlimit:4;" d="M -63.199219 125.589844 C -97.664062 125.589844 -125.601562 97.652344 -125.601562 63.191406 C -125.601562 28.726563 -97.664062 0.789063 -63.199219 0.789063 C -28.738281 0.789063 -0.800781 28.726563 -0.800781 63.191406 C -0.800781 94.710938 -24.308594 121.28125 -55.59375 125.125 " transform="matrix(-1,0,0,1,0,-0.000000000000028422)"/>
<path style="fill-rule:evenodd;fill:rgb(100%,0%,0%);fill-opacity:1;stroke-width:0.4;stroke-linecap:butt;stroke-linejoin:miter;stroke:rgb(100%,0%,0%);stroke-opacity:1;stroke-miterlimit:4;" d="M 64.769535 -125.589842 C 64.769535 -124.70703 64.050785 -123.98828 63.167972 -123.98828 C 62.28516 -123.98828 61.56641 -124.70703 61.56641 -125.589842 C 61.56641 -126.472655 62.28516 -127.191405 63.167972 -127.191405 C 64.050785 -127.191405 64.769535 -126.472655 64.769535 -125.589842 Z M 64.769535 -125.589842 " transform="matrix(1,0.0000000267949,0.0000000267949,-1,0,-0.000000000000028422)"/>
<path style="fill-rule:evenodd;fill:rgb(100%,0%,0%);fill-opacity:1;stroke-width:0.397018;stroke-linecap:butt;stroke-linejoin:miter;stroke:rgb(100%,0%,0%);stroke-opacity:1;stroke-miterlimit:4;" d="M -68.000909 116.541133 L -66.411628 114.955023 L -71.969778 116.542097 L -66.410951 118.130888 Z M -68.000909 116.541133 " transform="matrix(-1,-0.122785,-0.122785,1,0,-0.000000000000028422)"/>
</g>
<clipPath id="clip5">
  <path d="M 57 130 L 69 130 L 69 142.210938 L 57 142.210938 Z M 57 130 "/>
</clipPath>
<clipPath id="clip6">
  <rect width="5" height="58"/>
</clipPath>
<g id="surface20" clip-path="url(#clip6)">
<rect x="0" y="0" width="5" height="58" style="fill:rgb(0%,0%,0%);fill-opacity:0.97;stroke:none;"/>
</g>
<mask id="mask2">
  <g filter="url(#alpha)">
<use xlink:href="#surface20"/>
  </g>
</mask>
<clipPath id="clip7">
  <rect width="5" height="58"/>
</clipPath>
<g id="surface22" clip-path="url(#clip7)">
<path style="fill:none;stroke-width:1.6;stroke-linecap:round;stroke-linejoin:round;stroke:rgb(100%,0%,0%);stroke-opacity:1;stroke-miterlimit:4;" d="M 173.601562 63.191406 L 173.601562 115.988281 " transform="matrix(1,0,0,1,-171,-61)"/>
<path style="fill-rule:evenodd;fill:rgb(100%,0%,0%);fill-opacity:1;stroke-width:0.4;stroke-linecap:butt;stroke-linejoin:miter;stroke:rgb(100%,0%,0%);stroke-opacity:1;stroke-miterlimit:4;" d="M 64.757813 -173.601562 C 64.757813 -172.71875 64.039063 -172 63.15625 -172 C 62.273438 -172 61.558594 -172.71875 61.558594 -173.601562 C 61.558594 -174.484375 62.273438 -175.199219 63.15625 -175.199219 C 64.039063 -175.199219 64.757813 -174.484375 64.757813 -173.601562 Z M 64.757813 -173.601562 " transform="matrix(0,1,-1,0,-171,-61)"/>
<path style="fill-rule:evenodd;fill:rgb(100%,0%,0%);fill-opacity:1;stroke-width:0.4;stroke-linecap:butt;stroke-linejoin:miter;stroke:rgb(100%,0%,0%);stroke-opacity:1;stroke-miterlimit:4;" d="M -114.070313 173.601562 L -112.46875 172 L -118.070313 173.601562 L -112.46875 175.199219 Z M -114.070313 173.601562 " transform="matrix(0,-1,1,0,-171,-61)"/>
</g>
<clipPath id="clip8">
  <rect width="183" height="5"/>
</clipPath>
<g id="surface26" clip-path="url(#clip8)">
<rect x="0" y="0" width="183" height="5" style="fill:rgb(0%,0%,0%);fill-opacity:0.97;stroke:none;"/>
</g>
<mask id="mask3">
  <g filter="url(#alpha)">
<use xlink:href="#surface26"/>
  </g>
</mask>
<clipPath id="clip9">
  <rect width="183" height="5"/>
</clipPath>
<g id="surface23" clip-path="url(#clip9)">
<path style="fill:none;stroke-width:1.6;stroke-linecap:round;stroke-linejoin:round;stroke:rgb(100%,0%,0%);stroke-opacity:1;stroke-miterlimit:4;" d="M 178.398438 125.589844 L 356 125.589844 " transform="matrix(1,0,0,1,-176,-123)"/>
<path style="fill-rule:evenodd;fill:rgb(100%,0%,0%);fill-opacity:1;stroke-width:0.4;stroke-linecap:butt;stroke-linejoin:miter;stroke:rgb(100%,0%,0%);stroke-opacity:1;stroke-miterlimit:4;" d="M 179.96875 125.589844 C 179.96875 126.472656 179.25 127.191406 178.367188 127.191406 C 177.484375 127.191406 176.769531 126.472656 176.769531 125.589844 C 176.769531 124.707031 177.484375 123.988281 178.367188 123.988281 C 179.25 123.988281 179.96875 124.707031 179.96875 125.589844 Z M 179.96875 125.589844 " transform="matrix(1,0,0,1,-176,-123)"/>
<path style="fill-rule:evenodd;fill:rgb(100%,0%,0%);fill-opacity:1;stroke-width:0.4;stroke-linecap:butt;stroke-linejoin:miter;stroke:rgb(100%,0%,0%);stroke-opacity:1;stroke-miterlimit:4;" d="M -354.078125 -125.589844 L -352.480469 -127.191406 L -358.078125 -125.589844 L -352.480469 -123.988281 Z M -354.078125 -125.589844 " transform="matrix(-1,0,0,-1,-176,-123)"/>
</g>
<clipPath id="clip10">
  <path d="M 259 130 L 271 130 L 271 142.210938 L 259 142.210938 Z M 259 130 "/>
</clipPath>
</defs>
<g id="surface1">
<path style="fill:none;stroke-width:2.4;stroke-linecap:butt;stroke-linejoin:miter;stroke:rgb(0%,0%,0%);stroke-opacity:1;stroke-miterlimit:4;" d="M 120.800781 63.191406 C 120.800781 95 95.011719 120.789062 63.199219 120.789062 C 31.386719 120.789062 5.601562 95 5.601562 63.191406 C 5.601562 31.378906 31.386719 5.589844 63.199219 5.589844 C 95.011719 5.589844 120.800781 31.378906 120.800781 63.191406 Z M 120.800781 63.191406 "/>
<use xlink:href="#surface10" transform="matrix(1,0,0,1,61,61)" mask="url(#mask0)"/>
<path style=" stroke:none;fill-rule:nonzero;fill:rgb(0%,0%,0%);fill-opacity:1;" d="M 68.300781 89.730469 C 68.25 89.980469 68.148438 90.355469 68.148438 90.433594 C 68.148438 90.707031 68.375 90.855469 68.625 90.855469 C 68.824219 90.855469 69.101562 90.730469 69.226562 90.40625 C 69.25 90.355469 69.773438 88.183594 69.851562 87.882812 C 69.976562 87.355469 70.273438 86.257812 70.351562 85.808594 C 70.425781 85.605469 70.875 84.855469 71.25 84.507812 C 71.375 84.40625 71.851562 83.980469 72.523438 83.980469 C 72.949219 83.980469 73.175781 84.183594 73.199219 84.183594 C 72.726562 84.257812 72.375 84.632812 72.375 85.058594 C 72.375 85.308594 72.550781 85.605469 72.976562 85.605469 C 73.398438 85.605469 73.851562 85.230469 73.851562 84.65625 C 73.851562 84.105469 73.351562 83.632812 72.523438 83.632812 C 71.5 83.632812 70.800781 84.40625 70.5 84.855469 C 70.351562 84.132812 69.773438 83.632812 69.023438 83.632812 C 68.300781 83.632812 68 84.257812 67.851562 84.53125 C 67.574219 85.082031 67.375 86.03125 67.375 86.082031 C 67.375 86.257812 67.523438 86.257812 67.550781 86.257812 C 67.726562 86.257812 67.726562 86.230469 67.824219 85.882812 C 68.101562 84.757812 68.425781 83.980469 69 83.980469 C 69.25 83.980469 69.476562 84.105469 69.476562 84.707031 C 69.476562 85.058594 69.425781 85.230469 69.226562 86.058594 Z M 68.300781 89.730469 "/>
<use xlink:href="#surface16" mask="url(#mask1)"/>
<g clip-path="url(#clip5)" clip-rule="nonzero">
<path style=" stroke:none;fill-rule:nonzero;fill:rgb(0%,0%,0%);fill-opacity:1;" d="M 68.863281 130.785156 C 68.863281 130.738281 68.835938 130.613281 68.6875 130.613281 C 68.636719 130.613281 68.613281 130.636719 68.4375 130.8125 L 67.335938 132.035156 C 67.1875 131.8125 66.460938 130.613281 64.6875 130.613281 C 61.113281 130.613281 57.539062 134.136719 57.539062 137.835938 C 57.539062 140.460938 59.414062 142.210938 61.863281 142.210938 C 63.238281 142.210938 64.460938 141.585938 65.3125 140.835938 C 66.789062 139.535156 67.0625 138.085938 67.0625 138.035156 C 67.0625 137.863281 66.886719 137.863281 66.863281 137.863281 C 66.761719 137.863281 66.6875 137.910156 66.664062 138.035156 C 66.511719 138.488281 66.136719 139.636719 65.039062 140.5625 C 63.9375 141.4375 62.9375 141.710938 62.113281 141.710938 C 60.6875 141.710938 58.988281 140.886719 58.988281 138.410156 C 58.988281 137.488281 59.3125 134.910156 60.914062 133.035156 C 61.886719 131.910156 63.386719 131.113281 64.8125 131.113281 C 66.4375 131.113281 67.386719 132.335938 67.386719 134.1875 C 67.386719 134.835938 67.335938 134.835938 67.335938 135.011719 C 67.335938 135.160156 67.511719 135.160156 67.5625 135.160156 C 67.761719 135.160156 67.761719 135.136719 67.863281 134.835938 Z M 68.863281 130.785156 "/>
</g>
<path style="fill:none;stroke-width:0.8;stroke-linecap:butt;stroke-linejoin:miter;stroke:rgb(100%,0%,0%);stroke-opacity:1;stroke-miterlimit:4;" d="M 188 120.789062 L 188 111.191406 L 178.398438 111.191406 "/>
<path style="fill:none;stroke-width:2.4;stroke-linecap:butt;stroke-linejoin:round;stroke:rgb(0%,0%,0%);stroke-opacity:1;stroke-miterlimit:4;" d="M 178.398438 120.789062 L 360.800781 120.789062 L 178.398438 63.191406 Z M 178.398438 120.789062 "/>
<use xlink:href="#surface22" transform="matrix(1,0,0,1,171,61)" mask="url(#mask2)"/>
<use xlink:href="#surface23" transform="matrix(1,0,0,1,176,123)" mask="url(#mask3)"/>
<path style=" stroke:none;fill-rule:nonzero;fill:rgb(0%,0%,0%);fill-opacity:1;" d="M 159.5 94.53125 C 159.449219 94.78125 159.351562 95.15625 159.351562 95.230469 C 159.351562 95.507812 159.574219 95.65625 159.824219 95.65625 C 160.023438 95.65625 160.300781 95.53125 160.425781 95.207031 C 160.449219 95.15625 160.976562 92.980469 161.050781 92.683594 C 161.175781 92.15625 161.476562 91.058594 161.550781 90.605469 C 161.625 90.40625 162.074219 89.65625 162.449219 89.308594 C 162.574219 89.207031 163.050781 88.78125 163.726562 88.78125 C 164.148438 88.78125 164.375 88.980469 164.398438 88.980469 C 163.925781 89.058594 163.574219 89.433594 163.574219 89.855469 C 163.574219 90.105469 163.75 90.40625 164.175781 90.40625 C 164.601562 90.40625 165.050781 90.03125 165.050781 89.457031 C 165.050781 88.90625 164.550781 88.433594 163.726562 88.433594 C 162.699219 88.433594 162 89.207031 161.699219 89.65625 C 161.550781 88.933594 160.976562 88.433594 160.226562 88.433594 C 159.5 88.433594 159.199219 89.058594 159.050781 89.332031 C 158.773438 89.882812 158.574219 90.832031 158.574219 90.882812 C 158.574219 91.058594 158.726562 91.058594 158.75 91.058594 C 158.925781 91.058594 158.925781 91.03125 159.023438 90.683594 C 159.300781 89.558594 159.625 88.78125 160.199219 88.78125 C 160.449219 88.78125 160.675781 88.90625 160.675781 89.507812 C 160.675781 89.855469 160.625 90.03125 160.425781 90.855469 Z M 159.5 94.53125 "/>
<g clip-path="url(#clip10)" clip-rule="nonzero">
<path style=" stroke:none;fill-rule:nonzero;fill:rgb(0%,0%,0%);fill-opacity:1;" d="M 270.460938 130.785156 C 270.460938 130.738281 270.4375 130.613281 270.289062 130.613281 C 270.238281 130.613281 270.210938 130.636719 270.039062 130.8125 L 268.9375 132.035156 C 268.789062 131.8125 268.0625 130.613281 266.289062 130.613281 C 262.710938 130.613281 259.136719 134.136719 259.136719 137.835938 C 259.136719 140.460938 261.011719 142.210938 263.460938 142.210938 C 264.835938 142.210938 266.0625 141.585938 266.914062 140.835938 C 268.386719 139.535156 268.664062 138.085938 268.664062 138.035156 C 268.664062 137.863281 268.488281 137.863281 268.460938 137.863281 C 268.363281 137.863281 268.289062 137.910156 268.261719 138.035156 C 268.113281 138.488281 267.738281 139.636719 266.636719 140.5625 C 265.539062 141.4375 264.539062 141.710938 263.710938 141.710938 C 262.289062 141.710938 260.585938 140.886719 260.585938 138.410156 C 260.585938 137.488281 260.914062 134.910156 262.511719 133.035156 C 263.488281 131.910156 264.988281 131.113281 266.414062 131.113281 C 268.039062 131.113281 268.988281 132.335938 268.988281 134.1875 C 268.988281 134.835938 268.9375 134.835938 268.9375 135.011719 C 268.9375 135.160156 269.113281 135.160156 269.164062 135.160156 C 269.363281 135.160156 269.363281 135.136719 269.460938 134.835938 Z M 270.460938 130.785156 "/>
</g>
</g>
</svg>
