<?xml version="1.0" encoding="UTF-8"?>
<svg xmlns="http://www.w3.org/2000/svg" xmlns:xlink="http://www.w3.org/1999/xlink" width="475.470337pt" height="164.517334pt" viewBox="0 0 475.470337 164.517334" version="1.1">
<defs>
<clipPath id="clip1">
  <path d="M 0 0 L 165 0 L 165 164.515625 L 0 164.515625 Z M 0 0 "/>
</clipPath>
<filter id="alpha" filterUnits="objectBoundingBox" x="0%" y="0%" width="100%" height="100%">
  <feColorMatrix type="matrix" in="SourceGraphic" values="0 0 0 0 1 0 0 0 0 1 0 0 0 0 1 0 0 0 1 0"/>
</filter>
<clipPath id="clip3">
  <path d="M 0 0 L 165 0 L 165 164.515625 L 0 164.515625 Z M 0 0 "/>
</clipPath>
<clipPath id="clip2">
  <rect width="165" height="165"/>
</clipPath>
<g id="surface8" clip-path="url(#clip2)">
<g clip-path="url(#clip3)" clip-rule="nonzero">
<rect x="0" y="0" width="165" height="165" style="fill:rgb(0%,0%,0%);fill-opacity:0.97;stroke:none;"/>
</g>
</g>
<mask id="mask0">
  <g filter="url(#alpha)">
<use xlink:href="#surface8"/>
  </g>
</mask>
<clipPath id="clip5">
  <path d="M 0 0 L 165 0 L 165 164.515625 L 0 164.515625 Z M 0 0 "/>
</clipPath>
<clipPath id="clip4">
  <rect width="165" height="165"/>
</clipPath>
<g id="surface10" clip-path="url(#clip4)">
<path style=" stroke:none;fill-rule:nonzero;fill:rgb(0%,50.195312%,50.195312%);fill-opacity:1;" d="M 82.261719 163.710938 L 0.804688 82.25 L 82.261719 0.792969 L 163.71875 82.25 Z M 82.261719 163.710938 "/>
<g clip-path="url(#clip5)" clip-rule="nonzero">
<path style="fill:none;stroke-width:1.131371;stroke-linecap:round;stroke-linejoin:round;stroke:rgb(0%,0%,0%);stroke-opacity:1;stroke-miterlimit:4;" d="M -40.724609 122.986328 L -40.722656 41.527344 L 40.734375 41.527344 L 40.734375 122.984375 Z M -40.724609 122.986328 " transform="matrix(1,-1,1,1,0,0)"/>
</g>
</g>
<clipPath id="clip6">
  <path d="M 81 0 L 83 0 L 83 164.515625 L 81 164.515625 Z M 81 0 "/>
</clipPath>
<clipPath id="clip7">
  <rect width="42" height="42"/>
</clipPath>
<g id="surface14" clip-path="url(#clip7)">
<rect x="0" y="0" width="42" height="42" style="fill:rgb(0%,0%,0%);fill-opacity:0.97;stroke:none;"/>
</g>
<mask id="mask1">
  <g filter="url(#alpha)">
<use xlink:href="#surface14"/>
  </g>
</mask>
<clipPath id="clip8">
  <rect width="42" height="42"/>
</clipPath>
<g id="surface16" clip-path="url(#clip8)">
<path style="fill:none;stroke-width:1.131371;stroke-linecap:round;stroke-linejoin:round;stroke:rgb(100%,0%,0%);stroke-opacity:1;stroke-miterlimit:4;" d="M 0.00585938 82.255859 L 0.00585938 119.591797 " transform="matrix(1,-1,1,1,-80,-80)"/>
<path style="fill-rule:evenodd;fill:rgb(100%,0%,0%);fill-opacity:1;stroke-width:0.282843;stroke-linecap:butt;stroke-linejoin:miter;stroke:rgb(100%,0%,0%);stroke-opacity:1;stroke-miterlimit:4;" d="M 83.365234 -0.00585938 C 83.365234 0.619141 82.857422 1.126953 82.234375 1.125 C 81.609375 1.125 81.103516 0.619141 81.103516 -0.00585938 C 81.101562 -0.628906 81.609375 -1.136719 82.234375 -1.136719 C 82.859375 -1.136719 83.365234 -0.630859 83.365234 -0.00585938 Z M 83.365234 -0.00585938 " transform="matrix(1,1,-1,1,-80,-80)"/>
<path style="fill-rule:evenodd;fill:rgb(100%,0%,0%);fill-opacity:1;stroke-width:0.282843;stroke-linecap:butt;stroke-linejoin:miter;stroke:rgb(100%,0%,0%);stroke-opacity:1;stroke-miterlimit:4;" d="M -118.234375 0.00390625 L -117.103516 -1.126953 L -121.0625 0.00390625 L -117.101562 1.136719 Z M -118.234375 0.00390625 " transform="matrix(-1,-1,1,-1,-80,-80)"/>
</g>
<clipPath id="clip9">
  <rect width="118" height="118"/>
</clipPath>
<g id="surface20" clip-path="url(#clip9)">
<rect x="0" y="0" width="118" height="118" style="fill:rgb(0%,0%,0%);fill-opacity:0.97;stroke:none;"/>
</g>
<mask id="mask2">
  <g filter="url(#alpha)">
<use xlink:href="#surface20"/>
  </g>
</mask>
<clipPath id="clip10">
  <rect width="118" height="118"/>
</clipPath>
<g id="surface22" clip-path="url(#clip10)">
<path style="fill-rule:nonzero;fill:rgb(0%,50.195312%,50.195312%);fill-opacity:1;stroke-width:1.6;stroke-linecap:round;stroke-linejoin:round;stroke:rgb(0%,0%,0%);stroke-opacity:1;stroke-miterlimit:4;" d="M 279.0625 139.851562 L 231.304688 139.953125 L 197.460938 106.25 L 197.363281 58.492188 L 231.0625 24.652344 L 278.820312 24.550781 L 312.660156 58.25 L 312.761719 106.011719 Z M 279.0625 139.851562 " transform="matrix(1,0,0,1,-196,-23)"/>
</g>
<clipPath id="clip11">
  <rect width="5" height="58"/>
</clipPath>
<g id="surface26" clip-path="url(#clip11)">
<rect x="0" y="0" width="5" height="58" style="fill:rgb(0%,0%,0%);fill-opacity:0.97;stroke:none;"/>
</g>
<mask id="mask3">
  <g filter="url(#alpha)">
<use xlink:href="#surface26"/>
  </g>
</mask>
<clipPath id="clip12">
  <rect width="5" height="58"/>
</clipPath>
<g id="surface28" clip-path="url(#clip12)">
<path style="fill:none;stroke-width:1.6;stroke-linecap:round;stroke-linejoin:round;stroke:rgb(100%,0%,0%);stroke-opacity:1;stroke-miterlimit:4;" d="M 255.0625 82.25 L 255.0625 135.050781 " transform="matrix(1,0,0,1,-253,-80)"/>
<path style="fill-rule:evenodd;fill:rgb(100%,0%,0%);fill-opacity:1;stroke-width:0.4;stroke-linecap:butt;stroke-linejoin:miter;stroke:rgb(100%,0%,0%);stroke-opacity:1;stroke-miterlimit:4;" d="M 83.820312 -255.0625 C 83.820312 -254.179688 83.101562 -253.460938 82.21875 -253.460938 C 81.335938 -253.460938 80.621094 -254.179688 80.621094 -255.0625 C 80.621094 -255.945312 81.335938 -256.660156 82.21875 -256.660156 C 83.101562 -256.660156 83.820312 -255.945312 83.820312 -255.0625 Z M 83.820312 -255.0625 " transform="matrix(0,1,-1,0,-253,-80)"/>
<path style="fill-rule:evenodd;fill:rgb(100%,0%,0%);fill-opacity:1;stroke-width:0.4;stroke-linecap:butt;stroke-linejoin:miter;stroke:rgb(100%,0%,0%);stroke-opacity:1;stroke-miterlimit:4;" d="M -133.132812 255.0625 L -131.53125 253.460938 L -137.132812 255.0625 L -131.53125 256.660156 Z M -133.132812 255.0625 " transform="matrix(0,-1,1,0,-253,-80)"/>
</g>
<clipPath id="clip13">
  <rect width="123" height="124"/>
</clipPath>
<g id="surface32" clip-path="url(#clip13)">
<rect x="0" y="0" width="123" height="124" style="fill:rgb(0%,0%,0%);fill-opacity:0.97;stroke:none;"/>
</g>
<mask id="mask4">
  <g filter="url(#alpha)">
<use xlink:href="#surface32"/>
  </g>
</mask>
<clipPath id="clip14">
  <rect width="123" height="124"/>
</clipPath>
<g id="surface34" clip-path="url(#clip14)">
<path style="fill-rule:nonzero;fill:rgb(0%,50.195312%,50.195312%);fill-opacity:1;stroke-width:1.552;stroke-linecap:round;stroke-linejoin:round;stroke:rgb(0%,0%,0%);stroke-opacity:1;stroke-miterlimit:4;" d="M 436.742188 138.125 L 413.589844 142.777344 L 390.414062 138.21875 L 370.75 125.140625 L 357.589844 105.53125 L 352.933594 82.378906 L 357.492188 59.207031 L 370.574219 39.542969 L 390.179688 26.378906 L 413.335938 21.722656 L 436.507812 26.28125 L 456.171875 39.363281 L 469.332031 58.972656 L 473.988281 82.125 L 469.429688 105.296875 L 456.351562 124.960938 Z M 436.742188 138.125 " transform="matrix(1,0,0,1,-352,-20)"/>
</g>
<clipPath id="clip15">
  <path d="M 346 15 L 475.46875 15 L 475.46875 149 L 346 149 Z M 346 15 "/>
</clipPath>
<clipPath id="clip16">
  <path d="M 348 77 L 475.46875 77 L 475.46875 87 L 348 87 Z M 348 77 "/>
</clipPath>
<clipPath id="clip17">
  <rect width="14" height="57"/>
</clipPath>
<g id="surface38" clip-path="url(#clip17)">
<rect x="0" y="0" width="14" height="57" style="fill:rgb(0%,0%,0%);fill-opacity:0.97;stroke:none;"/>
</g>
<mask id="mask5">
  <g filter="url(#alpha)">
<use xlink:href="#surface38"/>
  </g>
</mask>
<clipPath id="clip18">
  <rect width="14" height="57"/>
</clipPath>
<g id="surface35" clip-path="url(#clip18)">
<path style="fill:none;stroke-width:1.6;stroke-linecap:round;stroke-linejoin:round;stroke:rgb(100%,0%,0%);stroke-opacity:1;stroke-miterlimit:4;" d="M 413.460938 82.25 L 423.761719 134.035156 " transform="matrix(1,0,0,1,-411,-80)"/>
<path style="fill-rule:evenodd;fill:rgb(100%,0%,0%);fill-opacity:1;stroke-width:0.392314;stroke-linecap:butt;stroke-linejoin:miter;stroke:rgb(100%,0%,0%);stroke-opacity:1;stroke-miterlimit:4;" d="M 159.770869 -381.985122 C 159.77102 -381.121811 159.068484 -380.417804 158.201415 -380.418401 C 157.334346 -380.418997 156.634098 -381.120786 156.634694 -381.987854 C 156.630785 -382.851913 157.337079 -383.555172 158.20039 -383.555323 C 159.067459 -383.554727 159.771465 -382.852191 159.770869 -381.985122 Z M 159.770869 -381.985122 " transform="matrix(0.198913,1,-1,0.198913,-411,-80)"/>
<path style="fill-rule:evenodd;fill:rgb(100%,0%,0%);fill-opacity:1;stroke-width:0.392314;stroke-linecap:butt;stroke-linejoin:miter;stroke:rgb(100%,0%,0%);stroke-opacity:1;stroke-miterlimit:4;" d="M -208.134343 381.986092 L -206.568647 380.418623 L -212.060194 381.986439 L -206.567622 383.555546 Z M -208.134343 381.986092 " transform="matrix(-0.198913,-1,1,-0.198913,-411,-80)"/>
</g>
<clipPath id="clip19">
  <path d="M 470 23 L 475.46875 23 L 475.46875 32 L 470 32 Z M 470 23 "/>
</clipPath>
</defs>
<g id="surface1">
<g clip-path="url(#clip1)" clip-rule="nonzero">
<use xlink:href="#surface10" mask="url(#mask0)"/>
</g>
<path style="fill-rule:nonzero;fill:rgb(100%,100%,100%);fill-opacity:1;stroke-width:1.131371;stroke-linecap:butt;stroke-linejoin:miter;stroke:rgb(0%,0%,0%);stroke-opacity:1;stroke-miterlimit:4;" d="M 40.734375 82.257812 C 40.734375 104.75 22.498047 122.986328 0.00585938 122.986328 C -22.490234 122.986328 -40.724609 104.751953 -40.724609 82.255859 C -40.724609 59.763672 -22.488281 41.527344 0.00390625 41.527344 C 22.5 41.527344 40.734375 59.761719 40.734375 82.257812 Z M 40.734375 82.257812 " transform="matrix(1,-1,1,1,0,0)"/>
<path style="fill:none;stroke-width:0.565685;stroke-linecap:butt;stroke-linejoin:miter;stroke:rgb(0%,0%,0%);stroke-opacity:1;stroke-miterlimit:4;" d="M -40.722656 41.527344 L 40.734375 122.984375 " transform="matrix(1,-1,1,1,0,0)"/>
<g clip-path="url(#clip6)" clip-rule="nonzero">
<path style="fill:none;stroke-width:0.565685;stroke-linecap:butt;stroke-linejoin:miter;stroke:rgb(0%,0%,0%);stroke-opacity:1;stroke-miterlimit:4;" d="M 40.734375 41.527344 L -40.724609 122.986328 " transform="matrix(1,-1,1,1,0,0)"/>
</g>
<use xlink:href="#surface16" transform="matrix(1,0,0,1,80,80)" mask="url(#mask1)"/>
<path style=" stroke:none;fill-rule:nonzero;fill:rgb(0%,0%,0%);fill-opacity:1;" d="M 93.09375 47.855469 L 95.820312 47.855469 C 98.070312 47.855469 100.292969 46.207031 100.292969 44.429688 C 100.292969 43.179688 99.246094 42.007812 97.144531 42.007812 L 91.996094 42.007812 C 91.695312 42.007812 91.519531 42.007812 91.519531 42.304688 C 91.519531 42.507812 91.644531 42.507812 91.96875 42.507812 C 92.167969 42.507812 92.46875 42.53125 92.644531 42.53125 C 92.917969 42.582031 92.996094 42.605469 92.996094 42.804688 C 92.996094 42.855469 92.996094 42.90625 92.945312 43.105469 L 90.792969 51.65625 C 90.644531 52.28125 90.621094 52.40625 89.34375 52.40625 C 89.09375 52.40625 88.917969 52.40625 88.917969 52.707031 C 88.917969 52.90625 89.09375 52.90625 89.144531 52.90625 C 89.59375 52.90625 90.71875 52.855469 91.167969 52.855469 C 91.519531 52.855469 91.871094 52.882812 92.195312 52.882812 C 92.542969 52.882812 92.894531 52.90625 93.21875 52.90625 C 93.34375 52.90625 93.542969 52.90625 93.542969 52.582031 C 93.542969 52.40625 93.394531 52.40625 93.09375 52.40625 C 92.519531 52.40625 92.070312 52.40625 92.070312 52.132812 C 92.070312 52.03125 92.09375 51.957031 92.121094 51.855469 Z M 94.246094 43.105469 C 94.394531 42.554688 94.417969 42.507812 95.121094 42.507812 L 96.644531 42.507812 C 97.96875 42.507812 98.820312 42.929688 98.820312 44.03125 C 98.820312 44.65625 98.496094 46.03125 97.871094 46.605469 C 97.070312 47.332031 96.121094 47.457031 95.417969 47.457031 L 93.167969 47.457031 Z M 94.246094 43.105469 "/>
<path style=" stroke:none;fill-rule:nonzero;fill:rgb(0%,0%,0%);fill-opacity:1;" d="M 104.402344 53.472656 L 104.402344 53.070312 L 103.152344 53.070312 L 103.152344 48.097656 C 103.152344 47.871094 103.152344 47.773438 102.929688 47.773438 C 102.777344 47.773438 102.726562 47.773438 102.628906 47.945312 L 98.929688 53.070312 L 98.929688 53.472656 L 102.226562 53.472656 L 102.226562 54.371094 C 102.226562 54.773438 102.226562 54.898438 101.304688 54.898438 L 101.003906 54.898438 L 101.003906 55.296875 C 101.578125 55.273438 102.277344 55.246094 102.679688 55.246094 C 103.101562 55.246094 103.804688 55.273438 104.378906 55.296875 L 104.378906 54.898438 L 104.078125 54.898438 C 103.152344 54.898438 103.152344 54.773438 103.152344 54.371094 L 103.152344 53.472656 Z M 102.304688 48.996094 L 102.304688 53.070312 L 99.351562 53.070312 Z M 102.304688 48.996094 "/>
<use xlink:href="#surface22" transform="matrix(1,0,0,1,196,23)" mask="url(#mask2)"/>
<path style="fill-rule:nonzero;fill:rgb(100%,100%,100%);fill-opacity:1;stroke-width:1.6;stroke-linecap:butt;stroke-linejoin:miter;stroke:rgb(0%,0%,0%);stroke-opacity:1;stroke-miterlimit:4;" d="M 312.660156 82.25 C 312.660156 114.0625 286.875 139.851562 255.0625 139.851562 C 223.25 139.851562 197.460938 114.0625 197.460938 82.25 C 197.460938 50.441406 223.25 24.652344 255.0625 24.652344 C 286.875 24.652344 312.660156 50.441406 312.660156 82.25 Z M 312.660156 82.25 "/>
<path style="fill:none;stroke-width:0.8;stroke-linecap:butt;stroke-linejoin:miter;stroke:rgb(0%,0%,0%);stroke-opacity:1;stroke-miterlimit:4;" d="M 197.460938 58.25 L 312.660156 106.25 "/>
<path style="fill:none;stroke-width:0.8;stroke-linecap:butt;stroke-linejoin:miter;stroke:rgb(0%,0%,0%);stroke-opacity:1;stroke-miterlimit:4;" d="M 279.0625 24.652344 L 231.0625 139.851562 "/>
<path style="fill:none;stroke-width:0.8;stroke-linecap:butt;stroke-linejoin:miter;stroke:rgb(0%,0%,0%);stroke-opacity:1;stroke-miterlimit:4;" d="M 197.460938 106.25 L 312.660156 58.25 "/>
<path style="fill:none;stroke-width:0.8;stroke-linecap:butt;stroke-linejoin:miter;stroke:rgb(0%,0%,0%);stroke-opacity:1;stroke-miterlimit:4;" d="M 279.0625 139.851562 L 231.0625 24.652344 "/>
<use xlink:href="#surface28" transform="matrix(1,0,0,1,253,80)" mask="url(#mask3)"/>
<path style=" stroke:none;fill-rule:nonzero;fill:rgb(0%,0%,0%);fill-opacity:1;" d="M 251.496094 43.054688 L 254.21875 43.054688 C 256.46875 43.054688 258.695312 41.40625 258.695312 39.632812 C 258.695312 38.382812 257.644531 37.207031 255.542969 37.207031 L 250.394531 37.207031 C 250.09375 37.207031 249.917969 37.207031 249.917969 37.507812 C 249.917969 37.707031 250.042969 37.707031 250.371094 37.707031 C 250.570312 37.707031 250.871094 37.730469 251.042969 37.730469 C 251.320312 37.78125 251.394531 37.804688 251.394531 38.007812 C 251.394531 38.054688 251.394531 38.105469 251.34375 38.304688 L 249.195312 46.855469 C 249.042969 47.480469 249.019531 47.605469 247.746094 47.605469 C 247.496094 47.605469 247.320312 47.605469 247.320312 47.90625 C 247.320312 48.105469 247.496094 48.105469 247.542969 48.105469 C 247.996094 48.105469 249.121094 48.054688 249.570312 48.054688 C 249.917969 48.054688 250.269531 48.082031 250.59375 48.082031 C 250.945312 48.082031 251.292969 48.105469 251.621094 48.105469 C 251.746094 48.105469 251.945312 48.105469 251.945312 47.78125 C 251.945312 47.605469 251.792969 47.605469 251.496094 47.605469 C 250.917969 47.605469 250.46875 47.605469 250.46875 47.332031 C 250.46875 47.230469 250.496094 47.15625 250.519531 47.054688 Z M 252.644531 38.304688 C 252.792969 37.757812 252.820312 37.707031 253.519531 37.707031 L 255.042969 37.707031 C 256.371094 37.707031 257.21875 38.132812 257.21875 39.230469 C 257.21875 39.855469 256.894531 41.230469 256.269531 41.804688 C 255.46875 42.53125 254.519531 42.65625 253.820312 42.65625 L 251.570312 42.65625 Z M 252.644531 38.304688 "/>
<path style=" stroke:none;fill-rule:nonzero;fill:rgb(0%,0%,0%);fill-opacity:1;" d="M 260.851562 46.472656 C 261.726562 46.046875 262.277344 45.523438 262.277344 44.746094 C 262.277344 43.671875 261.152344 43.097656 260.078125 43.097656 C 258.851562 43.097656 257.851562 43.898438 257.851562 44.945312 C 257.851562 45.472656 258.101562 45.847656 258.304688 46.070312 C 258.503906 46.320312 258.578125 46.371094 259.226562 46.746094 C 258.601562 47.023438 257.503906 47.621094 257.503906 48.796875 C 257.503906 50.023438 258.777344 50.722656 260.054688 50.722656 C 261.476562 50.722656 262.628906 49.820312 262.628906 48.621094 C 262.628906 47.871094 262.203125 47.246094 261.554688 46.871094 C 261.402344 46.773438 261.027344 46.570312 260.851562 46.472656 Z M 259.054688 45.421875 C 258.753906 45.246094 258.453125 44.945312 258.453125 44.523438 C 258.453125 43.820312 259.253906 43.421875 260.054688 43.421875 C 260.929688 43.421875 261.703125 43.972656 261.703125 44.746094 C 261.703125 45.746094 260.527344 46.246094 260.527344 46.246094 C 260.503906 46.246094 260.476562 46.246094 260.402344 46.195312 Z M 259.578125 46.972656 L 261.128906 47.847656 C 261.402344 48.023438 261.953125 48.347656 261.953125 48.996094 C 261.953125 49.847656 261.027344 50.371094 260.078125 50.371094 C 259.054688 50.371094 258.179688 49.695312 258.179688 48.796875 C 258.179688 47.972656 258.777344 47.320312 259.578125 46.972656 Z M 259.578125 46.972656 "/>
<use xlink:href="#surface34" transform="matrix(1,0,0,1,352,20)" mask="url(#mask4)"/>
<path style=" stroke:none;fill-rule:nonzero;fill:rgb(100%,100%,100%);fill-opacity:1;" d="M 471.0625 82.25 C 471.0625 114.0625 445.273438 139.851562 413.460938 139.851562 C 381.648438 139.851562 355.863281 114.0625 355.863281 82.25 C 355.863281 50.441406 381.648438 24.652344 413.460938 24.652344 C 445.273438 24.652344 471.0625 50.441406 471.0625 82.25 Z M 471.0625 82.25 "/>
<g clip-path="url(#clip15)" clip-rule="nonzero">
<path style="fill:none;stroke-width:1.6;stroke-linecap:butt;stroke-linejoin:miter;stroke:rgb(0%,0%,0%);stroke-opacity:1;stroke-miterlimit:4;" d="M 471.0625 82.25 C 471.0625 114.0625 445.273438 139.851562 413.460938 139.851562 C 381.648438 139.851562 355.863281 114.0625 355.863281 82.25 C 355.863281 50.441406 381.648438 24.652344 413.460938 24.652344 C 445.273438 24.652344 471.0625 50.441406 471.0625 82.25 Z M 471.0625 82.25 "/>
</g>
<path style="fill:none;stroke-width:0.776;stroke-linecap:butt;stroke-linejoin:miter;stroke:rgb(0%,0%,0%);stroke-opacity:1;stroke-miterlimit:4;" d="M 357.589844 58.972656 L 469.332031 105.53125 "/>
<path style="fill:none;stroke-width:0.776;stroke-linecap:butt;stroke-linejoin:miter;stroke:rgb(0%,0%,0%);stroke-opacity:1;stroke-miterlimit:4;" d="M 436.742188 26.378906 L 390.179688 138.125 "/>
<path style="fill:none;stroke-width:0.776;stroke-linecap:butt;stroke-linejoin:miter;stroke:rgb(0%,0%,0%);stroke-opacity:1;stroke-miterlimit:4;" d="M 357.589844 105.53125 L 469.332031 58.972656 "/>
<path style="fill:none;stroke-width:0.776;stroke-linecap:butt;stroke-linejoin:miter;stroke:rgb(0%,0%,0%);stroke-opacity:1;stroke-miterlimit:4;" d="M 436.742188 138.125 L 390.179688 26.378906 "/>
<g clip-path="url(#clip16)" clip-rule="nonzero">
<path style="fill:none;stroke-width:0.716931;stroke-linecap:butt;stroke-linejoin:miter;stroke:rgb(0%,0%,0%);stroke-opacity:1;stroke-miterlimit:4;" d="M 272.211978 194.879012 L 375.448816 237.895062 " transform="matrix(1,-0.414214,0.414214,1,0,0)"/>
</g>
<path style="fill:none;stroke-width:0.716931;stroke-linecap:butt;stroke-linejoin:miter;stroke:rgb(0%,0%,0%);stroke-opacity:1;stroke-miterlimit:4;" d="M 345.34078 164.767642 L 302.32473 268.004479 " transform="matrix(1,-0.414214,0.414214,1,0,0)"/>
<path style="fill:none;stroke-width:0.716931;stroke-linecap:butt;stroke-linejoin:miter;stroke:rgb(0%,0%,0%);stroke-opacity:1;stroke-miterlimit:4;" d="M 272.210896 237.894189 L 375.449898 194.879885 " transform="matrix(1,-0.414214,0.414214,1,0,0)"/>
<path style="fill:none;stroke-width:0.716931;stroke-linecap:butt;stroke-linejoin:miter;stroke:rgb(0%,0%,0%);stroke-opacity:1;stroke-miterlimit:4;" d="M 345.339907 268.005562 L 302.324222 164.769894 " transform="matrix(1,-0.414214,0.414214,1,0,0)"/>
<use xlink:href="#surface35" transform="matrix(1,0,0,1,411,80)" mask="url(#mask5)"/>
<path style=" stroke:none;fill-rule:nonzero;fill:rgb(0%,0%,0%);fill-opacity:1;" d="M 457.980469 23.742188 L 460.707031 23.742188 C 462.957031 23.742188 465.183594 22.09375 465.183594 20.320312 C 465.183594 19.070312 464.132812 17.894531 462.03125 17.894531 L 456.882812 17.894531 C 456.582031 17.894531 456.40625 17.894531 456.40625 18.195312 C 456.40625 18.394531 456.53125 18.394531 456.855469 18.394531 C 457.058594 18.394531 457.355469 18.417969 457.53125 18.417969 C 457.808594 18.46875 457.882812 18.492188 457.882812 18.695312 C 457.882812 18.742188 457.882812 18.792969 457.832031 18.992188 L 455.683594 27.542969 C 455.53125 28.167969 455.507812 28.292969 454.230469 28.292969 C 453.980469 28.292969 453.808594 28.292969 453.808594 28.59375 C 453.808594 28.792969 453.980469 28.792969 454.03125 28.792969 C 454.480469 28.792969 455.605469 28.742188 456.058594 28.742188 C 456.40625 28.742188 456.757812 28.769531 457.082031 28.769531 C 457.433594 28.769531 457.78125 28.792969 458.105469 28.792969 C 458.230469 28.792969 458.433594 28.792969 458.433594 28.46875 C 458.433594 28.292969 458.28125 28.292969 457.980469 28.292969 C 457.40625 28.292969 456.957031 28.292969 456.957031 28.019531 C 456.957031 27.917969 456.980469 27.84375 457.007812 27.742188 Z M 459.132812 18.992188 C 459.28125 18.445312 459.308594 18.394531 460.007812 18.394531 L 461.53125 18.394531 C 462.855469 18.394531 463.707031 18.820312 463.707031 19.917969 C 463.707031 20.542969 463.382812 21.917969 462.757812 22.492188 C 461.957031 23.21875 461.007812 23.34375 460.308594 23.34375 L 458.058594 23.34375 Z M 459.132812 18.992188 "/>
<path style=" stroke:none;fill-rule:nonzero;fill:rgb(0%,0%,0%);fill-opacity:1;" d="M 467.117188 24.085938 C 467.117188 23.785156 467.117188 23.785156 466.789062 23.785156 C 466.066406 24.484375 465.066406 24.484375 464.617188 24.484375 L 464.617188 24.882812 C 464.867188 24.882812 465.617188 24.882812 466.214844 24.585938 L 466.214844 30.257812 C 466.214844 30.632812 466.214844 30.785156 465.117188 30.785156 L 464.691406 30.785156 L 464.691406 31.183594 C 464.890625 31.183594 466.265625 31.132812 466.664062 31.132812 C 467.015625 31.132812 468.414062 31.183594 468.664062 31.183594 L 468.664062 30.785156 L 468.242188 30.785156 C 467.117188 30.785156 467.117188 30.632812 467.117188 30.257812 Z M 467.117188 24.085938 "/>
<g clip-path="url(#clip19)" clip-rule="nonzero">
<path style=" stroke:none;fill-rule:nonzero;fill:rgb(0%,0%,0%);fill-opacity:1;" d="M 471.421875 27.535156 C 471.421875 26.632812 471.496094 25.808594 471.921875 25.109375 C 472.296875 24.507812 472.894531 24.109375 473.621094 24.109375 C 473.945312 24.109375 474.394531 24.183594 474.621094 24.484375 C 474.34375 24.507812 474.09375 24.710938 474.09375 25.035156 C 474.09375 25.308594 474.296875 25.558594 474.621094 25.558594 C 474.96875 25.558594 475.171875 25.335938 475.171875 25.007812 C 475.171875 24.359375 474.695312 23.785156 473.59375 23.785156 C 471.996094 23.785156 470.34375 25.257812 470.34375 27.660156 C 470.34375 30.535156 471.695312 31.410156 472.945312 31.410156 C 474.296875 31.410156 475.46875 30.359375 475.46875 28.910156 C 475.46875 27.484375 474.34375 26.433594 473.046875 26.433594 C 472.144531 26.433594 471.671875 27.035156 471.421875 27.535156 Z M 472.945312 31.058594 C 472.371094 31.058594 471.945312 30.734375 471.695312 30.234375 C 471.546875 29.910156 471.445312 29.335938 471.445312 28.683594 C 471.445312 27.585938 472.09375 26.757812 472.996094 26.757812 C 473.496094 26.757812 473.84375 26.960938 474.121094 27.359375 C 474.394531 27.785156 474.394531 28.257812 474.394531 28.910156 C 474.394531 29.535156 474.394531 30.007812 474.09375 30.460938 C 473.84375 30.835938 473.46875 31.058594 472.945312 31.058594 Z M 472.945312 31.058594 "/>
</g>
</g>
</svg>
