<?xml version="1.0" encoding="UTF-8"?>
<svg xmlns="http://www.w3.org/2000/svg" xmlns:xlink="http://www.w3.org/1999/xlink" width="803.552307pt" height="185.860016pt" viewBox="0 0 803.552307 185.860016" version="1.1">
<defs>
<clipPath id="clip1">
  <path d="M 188 2 L 380 2 L 380 185.859375 L 188 185.859375 Z M 188 2 "/>
</clipPath>
<clipPath id="clip2">
  <path d="M 196 62 L 371 62 L 371 185.859375 L 196 185.859375 Z M 196 62 "/>
</clipPath>
<filter id="alpha" filterUnits="objectBoundingBox" x="0%" y="0%" width="100%" height="100%">
  <feColorMatrix type="matrix" in="SourceGraphic" values="0 0 0 0 1 0 0 0 0 1 0 0 0 0 1 0 0 0 1 0"/>
</filter>
<clipPath id="clip3">
  <rect width="165" height="165"/>
</clipPath>
<g id="surface8" clip-path="url(#clip3)">
<rect x="0" y="0" width="165" height="165" style="fill:rgb(0%,0%,0%);fill-opacity:0.97;stroke:none;"/>
</g>
<mask id="mask0">
  <g filter="url(#alpha)">
<use xlink:href="#surface8"/>
  </g>
</mask>
<clipPath id="clip4">
  <rect width="165" height="165"/>
</clipPath>
<g id="surface10" clip-path="url(#clip4)">
<path style="fill-rule:nonzero;fill:rgb(0%,50.195312%,50.195312%);fill-opacity:1;stroke-width:1.131371;stroke-linecap:round;stroke-linejoin:round;stroke:rgb(0%,0%,0%);stroke-opacity:1;stroke-miterlimit:4;" d="M -48.447266 130.708984 L -48.447266 49.251953 L 33.009766 49.251953 L 33.009766 130.708984 Z M -48.447266 130.708984 " transform="matrix(1,-1,1,1,0,-15)"/>
</g>
<clipPath id="clip5">
  <rect width="43" height="43"/>
</clipPath>
<g id="surface14" clip-path="url(#clip5)">
<rect x="0" y="0" width="43" height="43" style="fill:rgb(0%,0%,0%);fill-opacity:0.97;stroke:none;"/>
</g>
<mask id="mask1">
  <g filter="url(#alpha)">
<use xlink:href="#surface14"/>
  </g>
</mask>
<clipPath id="clip6">
  <rect width="43" height="43"/>
</clipPath>
<g id="surface16" clip-path="url(#clip6)">
<path style="fill:none;stroke-width:1.6;stroke-linecap:round;stroke-linejoin:round;stroke:rgb(100%,0%,0%);stroke-opacity:1;stroke-miterlimit:4;" d="M 81.902344 97.847656 L 43.503906 136.25 " transform="matrix(1,0,0,1,-41,-96)"/>
<path style="fill-rule:evenodd;fill:rgb(100%,0%,0%);fill-opacity:1;stroke-width:0.282843;stroke-linecap:butt;stroke-linejoin:miter;stroke:rgb(100%,0%,0%);stroke-opacity:1;stroke-miterlimit:4;" d="M 9.082031 -89.875 C 9.082031 -89.25 8.576172 -88.744141 7.951172 -88.744141 C 7.326172 -88.744141 6.818359 -89.251953 6.820312 -89.875 C 6.820312 -90.5 7.326172 -91.005859 7.951172 -91.005859 C 8.574219 -91.007812 9.082031 -90.5 9.082031 -89.875 Z M 9.082031 -89.875 " transform="matrix(-1,1,-1,-1,-41,-96)"/>
<path style="fill-rule:evenodd;fill:rgb(100%,0%,0%);fill-opacity:1;stroke-width:0.282843;stroke-linecap:butt;stroke-linejoin:miter;stroke:rgb(100%,0%,0%);stroke-opacity:1;stroke-miterlimit:4;" d="M -45.015625 89.875 L -43.884766 88.744141 L -47.84375 89.875 L -43.884766 91.005859 Z M -45.015625 89.875 " transform="matrix(1,-1,1,1,-41,-96)"/>
</g>
<clipPath id="clip7">
  <path d="M 686 37 L 803.550781 37 L 803.550781 155 L 686 155 Z M 686 37 "/>
</clipPath>
<clipPath id="clip9">
  <path d="M 0 0 L 117.550781 0 L 117.550781 118 L 0 118 Z M 0 0 "/>
</clipPath>
<clipPath id="clip8">
  <rect width="118" height="118"/>
</clipPath>
<g id="surface20" clip-path="url(#clip8)">
<g clip-path="url(#clip9)" clip-rule="nonzero">
<rect x="0" y="0" width="118" height="118" style="fill:rgb(0%,0%,0%);fill-opacity:0.97;stroke:none;"/>
</g>
</g>
<mask id="mask2">
  <g filter="url(#alpha)">
<use xlink:href="#surface20"/>
  </g>
</mask>
<clipPath id="clip11">
  <path d="M 0 0 L 117.550781 0 L 117.550781 118 L 0 118 Z M 0 0 "/>
</clipPath>
<clipPath id="clip10">
  <rect width="118" height="118"/>
</clipPath>
<g id="surface22" clip-path="url(#clip10)">
<path style=" stroke:none;fill-rule:nonzero;fill:rgb(0%,50.195312%,50.195312%);fill-opacity:1;" d="M 116.75 82.554688 L 83.050781 116.398438 L 35.289062 116.496094 L 1.449219 82.796875 L 1.347656 35.039062 L 35.050781 1.199219 L 82.808594 1.097656 L 116.648438 34.796875 Z M 116.75 82.554688 "/>
<g clip-path="url(#clip11)" clip-rule="nonzero">
<path style="fill:none;stroke-width:1.131371;stroke-linecap:round;stroke-linejoin:round;stroke:rgb(0%,0%,0%);stroke-opacity:1;stroke-miterlimit:4;" d="M 341.597656 461.152344 L 307.826172 461.224609 L 283.896484 437.392578 L 283.826172 403.623047 L 307.654297 379.693359 L 341.425781 379.625 L 365.355469 403.453125 L 365.425781 437.222656 Z M 341.597656 461.152344 " transform="matrix(1,-1,1,1,-686,-37)"/>
</g>
</g>
<clipPath id="clip12">
  <path d="M 678 29 L 803.550781 29 L 803.550781 163 L 678 163 Z M 678 29 "/>
</clipPath>
<clipPath id="clip13">
  <path d="M 682 67 L 803.550781 67 L 803.550781 125 L 682 125 Z M 682 67 "/>
</clipPath>
<clipPath id="clip14">
  <path d="M 682 67 L 803.550781 67 L 803.550781 125 L 682 125 Z M 682 67 "/>
</clipPath>
<clipPath id="clip15">
  <rect width="42" height="43"/>
</clipPath>
<g id="surface26" clip-path="url(#clip15)">
<rect x="0" y="0" width="42" height="43" style="fill:rgb(0%,0%,0%);fill-opacity:0.97;stroke:none;"/>
</g>
<mask id="mask3">
  <g filter="url(#alpha)">
<use xlink:href="#surface26"/>
  </g>
</mask>
<clipPath id="clip16">
  <rect width="42" height="43"/>
</clipPath>
<g id="surface23" clip-path="url(#clip16)">
<path style="fill:none;stroke-width:1.131371;stroke-linecap:round;stroke-linejoin:round;stroke:rgb(100%,0%,0%);stroke-opacity:1;stroke-miterlimit:4;" d="M 324.626953 420.423828 L 287.291016 420.423828 " transform="matrix(1,-1,1,1,-705,-93)"/>
<path style="fill-rule:evenodd;fill:rgb(100%,0%,0%);fill-opacity:1;stroke-width:0.282843;stroke-linecap:butt;stroke-linejoin:miter;stroke:rgb(100%,0%,0%);stroke-opacity:1;stroke-miterlimit:4;" d="M -323.517578 -420.423828 C -323.517578 -419.798828 -324.023438 -419.292969 -324.648438 -419.292969 C -325.273438 -419.292969 -325.779297 -419.798828 -325.779297 -420.423828 C -325.779297 -421.048828 -325.273438 -421.554688 -324.648438 -421.554688 C -324.023438 -421.554688 -323.517578 -421.048828 -323.517578 -420.423828 Z M -323.517578 -420.423828 " transform="matrix(-1,1,-1,-1,-705,-93)"/>
<path style="fill-rule:evenodd;fill:rgb(100%,0%,0%);fill-opacity:1;stroke-width:0.282843;stroke-linecap:butt;stroke-linejoin:miter;stroke:rgb(100%,0%,0%);stroke-opacity:1;stroke-miterlimit:4;" d="M 288.648438 420.421875 L 289.779297 419.291016 L 285.820312 420.421875 L 289.78125 421.554688 Z M 288.648438 420.421875 " transform="matrix(1,-1,1,1,-705,-93)"/>
</g>
<clipPath id="clip17">
  <path d="M 390 2 L 582 2 L 582 185.859375 L 390 185.859375 Z M 390 2 "/>
</clipPath>
<clipPath id="clip18">
  <path d="M 399 62 L 573 62 L 573 185.859375 L 399 185.859375 Z M 399 62 "/>
</clipPath>
<clipPath id="clip19">
  <path d="M 430 58 L 491 58 L 491 185.859375 L 430 185.859375 Z M 430 58 "/>
</clipPath>
<clipPath id="clip20">
  <path d="M 481 58 L 541 58 L 541 185.859375 L 481 185.859375 Z M 481 58 "/>
</clipPath>
<clipPath id="clip21">
  <path d="M 485 11 L 487 11 L 487 185.859375 L 485 185.859375 Z M 485 11 "/>
</clipPath>
</defs>
<g id="surface1">
<path style=" stroke:none;fill-rule:nonzero;fill:rgb(0%,0%,0%);fill-opacity:1;" d="M 486.464844 1.023438 C 486.164062 0.425781 485.714844 0 484.992188 0 C 483.140625 0 481.164062 2.351562 481.164062 4.675781 C 481.164062 6.175781 482.039062 7.226562 483.265625 7.226562 C 483.589844 7.226562 484.390625 7.148438 485.339844 6.023438 C 485.464844 6.699219 486.039062 7.226562 486.789062 7.226562 C 487.367188 7.226562 487.714844 6.851562 487.992188 6.351562 C 488.242188 5.773438 488.464844 4.800781 488.464844 4.773438 C 488.464844 4.601562 488.316406 4.601562 488.265625 4.601562 C 488.117188 4.601562 488.089844 4.675781 488.039062 4.898438 C 487.765625 5.925781 487.492188 6.875 486.839844 6.875 C 486.390625 6.875 486.367188 6.449219 486.367188 6.148438 C 486.367188 5.800781 486.390625 5.648438 486.566406 4.949219 C 486.742188 4.300781 486.765625 4.125 486.914062 3.523438 L 487.492188 1.300781 C 487.589844 0.851562 487.589844 0.824219 487.589844 0.75 C 487.589844 0.476562 487.414062 0.324219 487.140625 0.324219 C 486.742188 0.324219 486.515625 0.675781 486.464844 1.023438 Z M 485.441406 5.148438 C 485.339844 5.449219 485.339844 5.476562 485.117188 5.75 C 484.414062 6.625 483.765625 6.875 483.316406 6.875 C 482.515625 6.875 482.289062 6 482.289062 5.375 C 482.289062 4.574219 482.789062 2.625 483.164062 1.875 C 483.664062 0.949219 484.367188 0.351562 485.015625 0.351562 C 486.039062 0.351562 486.265625 1.648438 486.265625 1.75 C 486.265625 1.851562 486.242188 1.949219 486.214844 2.023438 Z M 485.441406 5.148438 "/>
<path style=" stroke:none;fill-rule:nonzero;fill:rgb(0%,50.195312%,50.195312%);fill-opacity:1;" d="M 197.203125 98.050781 L 283.605469 11.652344 L 370.003906 98.050781 L 283.605469 184.453125 Z M 197.203125 98.050781 "/>
<g clip-path="url(#clip1)" clip-rule="nonzero">
<path style="fill:none;stroke-width:1.6;stroke-linecap:butt;stroke-linejoin:miter;stroke:rgb(0%,0%,0%);stroke-opacity:1;stroke-miterlimit:4;" d="M 197.203125 98.050781 L 283.605469 11.652344 L 370.003906 98.050781 L 283.605469 184.453125 Z M 197.203125 98.050781 "/>
</g>
<path style=" stroke:none;fill-rule:nonzero;fill:rgb(100%,100%,100%);fill-opacity:1;" d="M 197.714844 98.5625 C 245.148438 51.125 322.058594 51.125 369.496094 98.5625 L 283.605469 184.453125 Z M 197.714844 98.5625 "/>
<g clip-path="url(#clip2)" clip-rule="nonzero">
<path style="fill:none;stroke-width:1.6;stroke-linecap:round;stroke-linejoin:round;stroke:rgb(0%,0%,0%);stroke-opacity:1;stroke-miterlimit:4;" d="M 197.714844 98.5625 C 245.148438 51.125 322.058594 51.125 369.496094 98.5625 L 283.605469 184.453125 Z M 197.714844 98.5625 "/>
</g>
<path style="fill:none;stroke-width:0.8;stroke-linecap:butt;stroke-linejoin:miter;stroke:rgb(0%,0%,0%);stroke-opacity:1;stroke-miterlimit:4;" d="M 283.605469 11.652344 L 283.605469 184.453125 "/>
<use xlink:href="#surface10" transform="matrix(1,0,0,1,0,15)" mask="url(#mask0)"/>
<path style="fill-rule:nonzero;fill:rgb(100%,100%,100%);fill-opacity:1;stroke-width:1.131371;stroke-linecap:butt;stroke-linejoin:miter;stroke:rgb(0%,0%,0%);stroke-opacity:1;stroke-miterlimit:4;" d="M 33.011719 89.980469 C 33.009766 112.474609 14.775391 130.708984 -7.71875 130.710938 C -30.212891 130.708984 -48.447266 112.474609 -48.449219 89.980469 C -48.447266 67.486328 -30.212891 49.251953 -7.71875 49.25 C 14.775391 49.251953 33.009766 67.486328 33.011719 89.980469 Z M 33.011719 89.980469 " transform="matrix(1,-1,1,1,0,0)"/>
<path style="fill:none;stroke-width:0.8;stroke-linecap:butt;stroke-linejoin:miter;stroke:rgb(0%,0%,0%);stroke-opacity:1;stroke-miterlimit:4;" d="M 0.804688 97.699219 L 163.71875 97.699219 "/>
<path style="fill:none;stroke-width:0.8;stroke-linecap:butt;stroke-linejoin:miter;stroke:rgb(0%,0%,0%);stroke-opacity:1;stroke-miterlimit:4;" d="M 82.261719 16.242188 L 82.261719 179.15625 "/>
<use xlink:href="#surface16" transform="matrix(1,0,0,1,41,96)" mask="url(#mask1)"/>
<path style=" stroke:none;fill-rule:nonzero;fill:rgb(0%,0%,0%);fill-opacity:1;" d="M 48.824219 68.203125 L 51.546875 68.203125 C 53.796875 68.203125 56.023438 66.554688 56.023438 64.777344 C 56.023438 63.527344 54.972656 62.351562 52.871094 62.351562 L 47.722656 62.351562 C 47.421875 62.351562 47.246094 62.351562 47.246094 62.652344 C 47.246094 62.851562 47.371094 62.851562 47.699219 62.851562 C 47.898438 62.851562 48.199219 62.878906 48.371094 62.878906 C 48.648438 62.929688 48.722656 62.953125 48.722656 63.152344 C 48.722656 63.203125 48.722656 63.253906 48.671875 63.453125 L 46.523438 72.003906 C 46.371094 72.628906 46.347656 72.753906 45.074219 72.753906 C 44.824219 72.753906 44.648438 72.753906 44.648438 73.054688 C 44.648438 73.253906 44.824219 73.253906 44.871094 73.253906 C 45.324219 73.253906 46.449219 73.203125 46.898438 73.203125 C 47.246094 73.203125 47.597656 73.226562 47.921875 73.226562 C 48.273438 73.226562 48.621094 73.253906 48.949219 73.253906 C 49.074219 73.253906 49.273438 73.253906 49.273438 72.929688 C 49.273438 72.753906 49.121094 72.753906 48.824219 72.753906 C 48.246094 72.753906 47.796875 72.753906 47.796875 72.476562 C 47.796875 72.378906 47.824219 72.304688 47.847656 72.203125 Z M 49.972656 63.453125 C 50.121094 62.902344 50.148438 62.851562 50.847656 62.851562 L 52.371094 62.851562 C 53.699219 62.851562 54.546875 63.277344 54.546875 64.378906 C 54.546875 65.003906 54.222656 66.378906 53.597656 66.953125 C 52.796875 67.679688 51.847656 67.804688 51.148438 67.804688 L 48.898438 67.804688 Z M 49.972656 63.453125 "/>
<path style=" stroke:none;fill-rule:nonzero;fill:rgb(0%,0%,0%);fill-opacity:1;" d="M 55.582031 74.941406 C 55.554688 75.09375 55.480469 75.367188 55.480469 75.394531 C 55.480469 75.644531 55.679688 75.742188 55.855469 75.742188 C 56.054688 75.742188 56.230469 75.617188 56.304688 75.519531 C 56.355469 75.417969 56.429688 75.042969 56.507812 74.816406 C 56.554688 74.617188 56.679688 74.09375 56.730469 73.816406 C 56.804688 73.566406 56.882812 73.316406 56.929688 73.066406 C 57.054688 72.617188 57.082031 72.519531 57.40625 72.066406 C 57.707031 71.617188 58.230469 71.042969 59.082031 71.042969 C 59.707031 71.042969 59.730469 71.617188 59.730469 71.816406 C 59.730469 72.492188 59.257812 73.71875 59.082031 74.191406 C 58.957031 74.519531 58.90625 74.617188 58.90625 74.792969 C 58.90625 75.394531 59.382812 75.742188 59.957031 75.742188 C 61.082031 75.742188 61.554688 74.21875 61.554688 74.042969 C 61.554688 73.894531 61.429688 73.894531 61.382812 73.894531 C 61.230469 73.894531 61.230469 73.96875 61.179688 74.09375 C 60.929688 74.992188 60.429688 75.441406 60.007812 75.441406 C 59.757812 75.441406 59.707031 75.292969 59.707031 75.042969 C 59.707031 74.792969 59.78125 74.644531 59.980469 74.144531 C 60.105469 73.792969 60.554688 72.617188 60.554688 71.992188 C 60.554688 70.917969 59.707031 70.71875 59.105469 70.71875 C 58.179688 70.71875 57.554688 71.292969 57.230469 71.742188 C 57.15625 70.96875 56.507812 70.71875 56.03125 70.71875 C 55.554688 70.71875 55.304688 71.066406 55.15625 71.316406 C 54.90625 71.742188 54.757812 72.367188 54.757812 72.441406 C 54.757812 72.566406 54.90625 72.566406 54.957031 72.566406 C 55.105469 72.566406 55.105469 72.542969 55.179688 72.242188 C 55.355469 71.59375 55.582031 71.042969 56.007812 71.042969 C 56.304688 71.042969 56.382812 71.292969 56.382812 71.59375 C 56.382812 71.792969 56.28125 72.21875 56.179688 72.519531 C 56.105469 72.816406 56.007812 73.269531 55.957031 73.519531 Z M 55.582031 74.941406 "/>
<g clip-path="url(#clip7)" clip-rule="nonzero">
<use xlink:href="#surface22" transform="matrix(1,0,0,1,686,37)" mask="url(#mask2)"/>
</g>
<path style=" stroke:none;fill-rule:nonzero;fill:rgb(100%,100%,100%);fill-opacity:1;" d="M 785.777344 55.066406 C 808.273438 77.5625 808.273438 114.03125 785.777344 136.527344 C 763.285156 159.019531 726.8125 159.019531 704.320312 136.527344 C 681.824219 114.03125 681.824219 77.5625 704.320312 55.066406 C 726.8125 32.574219 763.285156 32.574219 785.777344 55.066406 Z M 785.777344 55.066406 "/>
<g clip-path="url(#clip12)" clip-rule="nonzero">
<path style="fill:none;stroke-width:1.131371;stroke-linecap:butt;stroke-linejoin:miter;stroke:rgb(0%,0%,0%);stroke-opacity:1;stroke-miterlimit:4;" d="M 365.355469 420.421875 C 365.355469 442.917969 347.121094 461.152344 324.625 461.152344 C 302.132812 461.152344 283.896484 442.916016 283.896484 420.423828 C 283.896484 397.927734 302.130859 379.693359 324.626953 379.693359 C 347.119141 379.693359 365.355469 397.929688 365.355469 420.421875 Z M 365.355469 420.421875 " transform="matrix(1,-1,1,1,0,0)"/>
</g>
<g clip-path="url(#clip13)" clip-rule="nonzero">
<path style="fill:none;stroke-width:0.565685;stroke-linecap:butt;stroke-linejoin:miter;stroke:rgb(0%,0%,0%);stroke-opacity:1;stroke-miterlimit:4;" d="M 283.896484 403.451172 L 365.355469 437.394531 " transform="matrix(1,-1,1,1,0,0)"/>
</g>
<path style="fill:none;stroke-width:0.565685;stroke-linecap:butt;stroke-linejoin:miter;stroke:rgb(0%,0%,0%);stroke-opacity:1;stroke-miterlimit:4;" d="M 341.595703 379.693359 L 307.65625 461.152344 " transform="matrix(1,-1,1,1,0,0)"/>
<path style="fill:none;stroke-width:0.565685;stroke-linecap:butt;stroke-linejoin:miter;stroke:rgb(0%,0%,0%);stroke-opacity:1;stroke-miterlimit:4;" d="M 283.896484 437.392578 L 365.355469 403.453125 " transform="matrix(1,-1,1,1,0,0)"/>
<g clip-path="url(#clip14)" clip-rule="nonzero">
<path style="fill:none;stroke-width:0.565685;stroke-linecap:butt;stroke-linejoin:miter;stroke:rgb(0%,0%,0%);stroke-opacity:1;stroke-miterlimit:4;" d="M 341.597656 461.152344 L 307.654297 379.693359 " transform="matrix(1,-1,1,1,0,0)"/>
</g>
<use xlink:href="#surface23" transform="matrix(1,0,0,1,705,93)" mask="url(#mask3)"/>
<path style=" stroke:none;fill-rule:nonzero;fill:rgb(0%,0%,0%);fill-opacity:1;" d="M 736.425781 50.152344 L 739.152344 50.152344 C 741.402344 50.152344 743.625 48.503906 743.625 46.726562 C 743.625 45.476562 742.578125 44.300781 740.476562 44.300781 L 735.328125 44.300781 C 735.027344 44.300781 734.851562 44.300781 734.851562 44.601562 C 734.851562 44.800781 734.976562 44.800781 735.300781 44.800781 C 735.5 44.800781 735.800781 44.828125 735.976562 44.828125 C 736.25 44.878906 736.328125 44.902344 736.328125 45.101562 C 736.328125 45.152344 736.328125 45.203125 736.277344 45.402344 L 734.125 53.953125 C 733.976562 54.578125 733.953125 54.703125 732.675781 54.703125 C 732.425781 54.703125 732.25 54.703125 732.25 55.003906 C 732.25 55.203125 732.425781 55.203125 732.476562 55.203125 C 732.925781 55.203125 734.050781 55.152344 734.5 55.152344 C 734.851562 55.152344 735.203125 55.175781 735.527344 55.175781 C 735.875 55.175781 736.226562 55.203125 736.550781 55.203125 C 736.675781 55.203125 736.875 55.203125 736.875 54.878906 C 736.875 54.703125 736.726562 54.703125 736.425781 54.703125 C 735.851562 54.703125 735.402344 54.703125 735.402344 54.425781 C 735.402344 54.328125 735.425781 54.253906 735.453125 54.152344 Z M 737.578125 45.402344 C 737.726562 44.851562 737.75 44.800781 738.453125 44.800781 L 739.976562 44.800781 C 741.300781 44.800781 742.152344 45.226562 742.152344 46.328125 C 742.152344 46.953125 741.828125 48.328125 741.203125 48.902344 C 740.402344 49.628906 739.453125 49.753906 738.75 49.753906 L 736.5 49.753906 Z M 737.578125 45.402344 "/>
<path style=" stroke:none;fill-rule:nonzero;fill:rgb(0%,0%,0%);fill-opacity:1;" d="M 747.460938 55.566406 L 747.085938 55.566406 C 747.058594 55.816406 746.933594 56.46875 746.785156 56.566406 C 746.710938 56.644531 745.859375 56.644531 745.683594 56.644531 L 743.636719 56.644531 C 744.808594 55.617188 745.210938 55.292969 745.859375 54.769531 C 746.683594 54.117188 747.460938 53.417969 747.460938 52.367188 C 747.460938 51.019531 746.285156 50.191406 744.859375 50.191406 C 743.484375 50.191406 742.535156 51.167969 742.535156 52.191406 C 742.535156 52.742188 743.011719 52.816406 743.136719 52.816406 C 743.386719 52.816406 743.710938 52.617188 743.710938 52.21875 C 743.710938 52.019531 743.636719 51.617188 743.058594 51.617188 C 743.410156 50.84375 744.160156 50.59375 744.683594 50.59375 C 745.808594 50.59375 746.386719 51.46875 746.386719 52.367188 C 746.386719 53.34375 745.683594 54.09375 745.335938 54.492188 L 742.660156 57.167969 C 742.535156 57.269531 742.535156 57.292969 742.535156 57.59375 L 747.136719 57.59375 Z M 747.460938 55.566406 "/>
<path style=" stroke:none;fill-rule:nonzero;fill:rgb(0%,0%,0%);fill-opacity:1;" d="M 749.539062 56.894531 C 749.515625 57.042969 749.4375 57.316406 749.4375 57.34375 C 749.4375 57.59375 749.640625 57.691406 749.8125 57.691406 C 750.015625 57.691406 750.1875 57.566406 750.265625 57.46875 C 750.3125 57.367188 750.390625 56.992188 750.464844 56.769531 C 750.515625 56.566406 750.640625 56.042969 750.6875 55.769531 C 750.765625 55.519531 750.839844 55.269531 750.890625 55.019531 C 751.015625 54.566406 751.039062 54.46875 751.363281 54.019531 C 751.664062 53.566406 752.1875 52.992188 753.039062 52.992188 C 753.664062 52.992188 753.6875 53.566406 753.6875 53.769531 C 753.6875 54.441406 753.214844 55.667969 753.039062 56.144531 C 752.914062 56.46875 752.863281 56.566406 752.863281 56.742188 C 752.863281 57.34375 753.339844 57.691406 753.914062 57.691406 C 755.039062 57.691406 755.515625 56.167969 755.515625 55.992188 C 755.515625 55.84375 755.390625 55.84375 755.339844 55.84375 C 755.1875 55.84375 755.1875 55.917969 755.140625 56.042969 C 754.890625 56.941406 754.390625 57.394531 753.964844 57.394531 C 753.714844 57.394531 753.664062 57.242188 753.664062 56.992188 C 753.664062 56.742188 753.738281 56.59375 753.9375 56.09375 C 754.0625 55.742188 754.515625 54.566406 754.515625 53.941406 C 754.515625 52.867188 753.664062 52.667969 753.0625 52.667969 C 752.140625 52.667969 751.515625 53.242188 751.1875 53.691406 C 751.113281 52.917969 750.464844 52.667969 749.988281 52.667969 C 749.515625 52.667969 749.265625 53.019531 749.113281 53.269531 C 748.863281 53.691406 748.714844 54.316406 748.714844 54.394531 C 748.714844 54.519531 748.863281 54.519531 748.914062 54.519531 C 749.0625 54.519531 749.0625 54.492188 749.140625 54.191406 C 749.3125 53.542969 749.539062 52.992188 749.964844 52.992188 C 750.265625 52.992188 750.339844 53.242188 750.339844 53.542969 C 750.339844 53.742188 750.238281 54.167969 750.140625 54.46875 C 750.0625 54.769531 749.964844 55.21875 749.914062 55.46875 Z M 749.539062 56.894531 "/>
<path style=" stroke:none;fill-rule:nonzero;fill:rgb(0%,100%,100%);fill-opacity:1;" d="M 399.320312 98.324219 L 485.71875 11.925781 L 572.121094 98.324219 L 485.71875 184.726562 Z M 399.320312 98.324219 "/>
<g clip-path="url(#clip17)" clip-rule="nonzero">
<path style="fill:none;stroke-width:1.6;stroke-linecap:butt;stroke-linejoin:miter;stroke:rgb(0%,0%,0%);stroke-opacity:1;stroke-miterlimit:4;" d="M 399.320312 98.324219 L 485.71875 11.925781 L 572.121094 98.324219 L 485.71875 184.726562 Z M 399.320312 98.324219 "/>
</g>
<path style=" stroke:none;fill-rule:nonzero;fill:rgb(100%,100%,100%);fill-opacity:1;" d="M 399.828125 98.832031 C 447.265625 51.398438 524.175781 51.398438 571.613281 98.832031 L 485.71875 184.726562 Z M 399.828125 98.832031 "/>
<g clip-path="url(#clip18)" clip-rule="nonzero">
<path style="fill:none;stroke-width:1.6;stroke-linecap:round;stroke-linejoin:round;stroke:rgb(0%,0%,0%);stroke-opacity:1;stroke-miterlimit:4;" d="M 399.828125 98.832031 C 447.265625 51.398438 524.175781 51.398438 571.613281 98.832031 L 485.71875 184.726562 Z M 399.828125 98.832031 "/>
</g>
<g clip-path="url(#clip19)" clip-rule="nonzero">
<path style="fill:none;stroke-width:0.8;stroke-linecap:butt;stroke-linejoin:miter;stroke:rgb(0%,0%,0%);stroke-opacity:1;stroke-miterlimit:4;" d="M 485.71875 184.726562 L 435.019531 62.628906 "/>
</g>
<g clip-path="url(#clip20)" clip-rule="nonzero">
<path style="fill:none;stroke-width:0.8;stroke-linecap:butt;stroke-linejoin:miter;stroke:rgb(0%,0%,0%);stroke-opacity:1;stroke-miterlimit:4;" d="M 485.71875 184.726562 L 536.417969 62.625 "/>
</g>
<path style="fill-rule:nonzero;fill:rgb(100%,0%,100%);fill-opacity:1;stroke-width:1.6;stroke-linecap:butt;stroke-linejoin:miter;stroke:rgb(0%,0%,0%);stroke-opacity:1;stroke-miterlimit:4;" d="M 485.71875 11.925781 L 435.019531 62.628906 L 536.417969 62.625 Z M 485.71875 11.925781 "/>
<path style="fill:none;stroke-width:0.8;stroke-linecap:butt;stroke-linejoin:miter;stroke:rgb(0%,0%,0%);stroke-opacity:1;stroke-dasharray:0.8,1.6;stroke-miterlimit:4;" d="M 399.828125 98.832031 L 485.71875 63.257812 L 572.121094 98.324219 "/>
<g clip-path="url(#clip21)" clip-rule="nonzero">
<path style="fill:none;stroke-width:0.8;stroke-linecap:butt;stroke-linejoin:miter;stroke:rgb(0%,0%,0%);stroke-opacity:1;stroke-miterlimit:4;" d="M 485.71875 11.925781 L 485.71875 184.726562 "/>
</g>
<path style="fill-rule:nonzero;fill:rgb(0%,0%,0%);fill-opacity:1;stroke-width:0.8;stroke-linecap:butt;stroke-linejoin:miter;stroke:rgb(100%,0%,0%);stroke-opacity:1;stroke-miterlimit:4;" d="M 487.964844 12.148438 C 487.964844 13.511719 486.859375 14.617188 485.496094 14.617188 C 484.132812 14.617188 483.027344 13.511719 483.027344 12.148438 C 483.027344 10.785156 484.132812 9.679688 485.496094 9.679688 C 486.859375 9.679688 487.964844 10.785156 487.964844 12.148438 Z M 487.964844 12.148438 "/>
<path style="fill-rule:nonzero;fill:rgb(0%,0%,0%);fill-opacity:1;stroke-width:0.8;stroke-linecap:butt;stroke-linejoin:miter;stroke:rgb(100%,0%,0%);stroke-opacity:1;stroke-miterlimit:4;" d="M 488.058594 62.40625 C 488.058594 63.769531 486.953125 64.875 485.589844 64.875 C 484.226562 64.875 483.121094 63.769531 483.121094 62.40625 C 483.121094 61.039062 484.226562 59.933594 485.589844 59.933594 C 486.953125 59.933594 488.058594 61.039062 488.058594 62.40625 Z M 488.058594 62.40625 "/>
<path style="fill-rule:nonzero;fill:rgb(0%,0%,0%);fill-opacity:1;stroke-width:0.8;stroke-linecap:butt;stroke-linejoin:miter;stroke:rgb(100%,0%,0%);stroke-opacity:1;stroke-miterlimit:4;" d="M 538.578125 62.40625 C 538.578125 63.769531 537.472656 64.875 536.109375 64.875 C 534.746094 64.875 533.640625 63.769531 533.640625 62.40625 C 533.640625 61.039062 534.746094 59.933594 536.109375 59.933594 C 537.472656 59.933594 538.578125 61.039062 538.578125 62.40625 Z M 538.578125 62.40625 "/>
<path style="fill-rule:nonzero;fill:rgb(0%,0%,0%);fill-opacity:1;stroke-width:0.8;stroke-linecap:butt;stroke-linejoin:miter;stroke:rgb(100%,0%,0%);stroke-opacity:1;stroke-miterlimit:4;" d="M 574.28125 98.105469 C 574.28125 99.46875 573.171875 100.574219 571.808594 100.574219 C 570.445312 100.574219 569.339844 99.46875 569.339844 98.105469 C 569.339844 96.742188 570.445312 95.636719 571.808594 95.636719 C 573.171875 95.636719 574.28125 96.742188 574.28125 98.105469 Z M 574.28125 98.105469 "/>
<path style=" stroke:none;fill-rule:nonzero;fill:rgb(0%,0%,0%);fill-opacity:1;" d="M 544.644531 53.503906 C 544.371094 53.503906 544.171875 53.503906 543.945312 53.707031 C 543.671875 53.957031 543.644531 54.230469 543.644531 54.332031 C 543.644531 54.730469 543.945312 54.90625 544.246094 54.90625 C 544.695312 54.90625 545.121094 54.503906 545.121094 53.878906 C 545.121094 53.105469 544.371094 52.503906 543.246094 52.503906 C 541.097656 52.503906 538.972656 54.78125 538.972656 57.03125 C 538.972656 58.480469 539.894531 59.730469 541.570312 59.730469 C 543.847656 59.730469 545.171875 58.03125 545.171875 57.855469 C 545.171875 57.753906 545.097656 57.628906 544.996094 57.628906 C 544.894531 57.628906 544.871094 57.679688 544.769531 57.804688 C 543.519531 59.378906 541.769531 59.378906 541.597656 59.378906 C 540.597656 59.378906 540.144531 58.605469 540.144531 57.628906 C 540.144531 56.980469 540.472656 55.429688 541.019531 54.457031 C 541.519531 53.53125 542.394531 52.855469 543.269531 52.855469 C 543.796875 52.855469 544.421875 53.054688 544.644531 53.503906 Z M 544.644531 53.503906 "/>
<path style=" stroke:none;fill-rule:nonzero;fill:rgb(0%,0%,0%);fill-opacity:1;" d="M 490.253906 67.769531 C 490.253906 67.769531 490.253906 67.59375 490.054688 67.59375 C 489.703125 67.59375 488.53125 67.71875 488.105469 67.769531 C 487.980469 67.769531 487.804688 67.792969 487.804688 68.070312 C 487.804688 68.269531 487.953125 68.269531 488.203125 68.269531 C 488.953125 68.269531 488.980469 68.367188 488.980469 68.542969 C 488.980469 68.644531 488.855469 69.195312 488.78125 69.519531 L 487.453125 74.71875 C 487.28125 75.519531 487.203125 75.792969 487.203125 76.34375 C 487.203125 77.84375 488.054688 78.84375 489.230469 78.84375 C 491.105469 78.84375 493.078125 76.46875 493.078125 74.167969 C 493.078125 72.71875 492.230469 71.617188 490.953125 71.617188 C 490.230469 71.617188 489.554688 72.09375 489.078125 72.570312 Z M 488.78125 73.792969 C 488.855469 73.445312 488.855469 73.417969 489.003906 73.242188 C 489.78125 72.21875 490.503906 71.96875 490.929688 71.96875 C 491.503906 71.96875 491.929688 72.445312 491.929688 73.46875 C 491.929688 74.417969 491.40625 76.242188 491.105469 76.84375 C 490.578125 77.917969 489.855469 78.492188 489.230469 78.492188 C 488.679688 78.492188 488.15625 78.070312 488.15625 76.894531 C 488.15625 76.570312 488.15625 76.269531 488.40625 75.269531 Z M 488.78125 73.792969 "/>
<path style=" stroke:none;fill-rule:nonzero;fill:rgb(0%,0%,0%);fill-opacity:1;" d="M 584.890625 92.398438 C 584.890625 92.398438 584.890625 92.222656 584.691406 92.222656 C 584.441406 92.222656 582.941406 92.375 582.664062 92.398438 C 582.539062 92.421875 582.441406 92.5 582.441406 92.699219 C 582.441406 92.898438 582.589844 92.898438 582.816406 92.898438 C 583.589844 92.898438 583.613281 93 583.613281 93.171875 L 583.566406 93.5 L 582.613281 97.273438 C 582.316406 96.671875 581.863281 96.25 581.140625 96.25 C 579.289062 96.25 577.316406 98.597656 577.316406 100.921875 C 577.316406 102.421875 578.191406 103.472656 579.414062 103.472656 C 579.738281 103.472656 580.539062 103.398438 581.488281 102.273438 C 581.613281 102.949219 582.191406 103.472656 582.941406 103.472656 C 583.515625 103.472656 583.863281 103.097656 584.140625 102.597656 C 584.390625 102.023438 584.613281 101.046875 584.613281 101.023438 C 584.613281 100.847656 584.464844 100.847656 584.414062 100.847656 C 584.265625 100.847656 584.238281 100.921875 584.191406 101.148438 C 583.914062 102.171875 583.640625 103.125 582.988281 103.125 C 582.539062 103.125 582.515625 102.699219 582.515625 102.398438 C 582.515625 102 582.539062 101.898438 582.589844 101.625 Z M 581.589844 101.398438 C 581.488281 101.699219 581.488281 101.722656 581.265625 102 C 580.566406 102.875 579.914062 103.125 579.464844 103.125 C 578.664062 103.125 578.441406 102.25 578.441406 101.625 C 578.441406 100.824219 578.941406 98.875 579.316406 98.125 C 579.816406 97.199219 580.515625 96.597656 581.164062 96.597656 C 582.191406 96.597656 582.414062 97.898438 582.414062 98 C 582.414062 98.097656 582.390625 98.199219 582.363281 98.273438 Z M 581.589844 101.398438 "/>
<path style=" stroke:none;fill-rule:nonzero;fill:rgb(100%,0%,100%);fill-opacity:1;" d="M 643.636719 40.007812 L 605.101562 78.648438 L 644.003906 113.394531 Z M 643.636719 40.007812 "/>
<path style=" stroke:none;fill-rule:nonzero;fill:rgb(0%,100%,100%);fill-opacity:1;" d="M 605.101562 78.648438 L 643.503906 165.046875 L 644.054688 113.183594 Z M 605.101562 78.648438 "/>
<path style="fill:none;stroke-width:0.8;stroke-linecap:butt;stroke-linejoin:miter;stroke:rgb(100%,0%,0%);stroke-opacity:1;stroke-miterlimit:4;" d="M 609.152344 75.03125 L 612.566406 78.402344 L 609.195312 81.820312 "/>
<path style="fill:none;stroke-width:0.8;stroke-linecap:butt;stroke-linejoin:miter;stroke:rgb(50.195312%,0%,0%);stroke-opacity:1;stroke-miterlimit:4;" d="M 643.503906 73.847656 L 638.703125 73.847656 L 638.703125 78.648438 "/>
<path style="fill-rule:nonzero;fill:rgb(0%,0%,0%);fill-opacity:1;stroke-width:0.569373;stroke-linecap:butt;stroke-linejoin:miter;stroke:rgb(100%,0%,0%);stroke-opacity:1;stroke-miterlimit:4;" d="M 347.586956 -262.686556 C 347.588467 -261.715391 346.800903 -260.930251 345.829739 -260.92874 C 344.860553 -260.929181 344.071481 -261.716771 344.071922 -262.685957 C 344.070411 -263.657122 344.859954 -264.444215 345.82914 -264.443773 C 346.800304 -264.445285 347.587398 -263.655742 347.586956 -262.686556 Z M 347.586956 -262.686556 " transform="matrix(1,0.987003,-0.987003,1,0,0)"/>
<path style="fill-rule:nonzero;fill:rgb(0%,0%,0%);fill-opacity:1;stroke-width:0.569373;stroke-linecap:butt;stroke-linejoin:miter;stroke:rgb(100%,0%,0%);stroke-opacity:1;stroke-miterlimit:4;" d="M 383.838651 -264.865525 C 383.836231 -263.894386 383.05062 -263.107267 382.079455 -263.105756 C 381.108316 -263.108176 380.321197 -263.893787 380.321664 -264.866905 C 380.322106 -265.836091 381.107717 -266.62321 382.080835 -266.622742 C 383.050021 -266.622301 383.83714 -265.83669 383.838651 -264.865525 Z M 383.838651 -264.865525 " transform="matrix(1,0.987003,-0.987003,1,0,0)"/>
<path style="fill-rule:nonzero;fill:rgb(0%,0%,0%);fill-opacity:1;stroke-width:0.569373;stroke-linecap:butt;stroke-linejoin:miter;stroke:rgb(100%,0%,0%);stroke-opacity:1;stroke-miterlimit:4;" d="M 347.841731 -301.336457 C 347.839311 -300.365318 347.0537 -299.578199 346.082535 -299.576688 C 345.111396 -299.579108 344.324277 -300.364719 344.324745 -301.337837 C 344.325186 -302.307023 345.110797 -303.094142 346.083915 -303.093675 C 347.053101 -303.093233 347.84022 -302.307622 347.841731 -301.336457 Z M 347.841731 -301.336457 " transform="matrix(1,0.987003,-0.987003,1,0,0)"/>
<path style="fill-rule:nonzero;fill:rgb(0%,0%,0%);fill-opacity:1;stroke-width:0.569373;stroke-linecap:butt;stroke-linejoin:miter;stroke:rgb(100%,0%,0%);stroke-opacity:1;stroke-miterlimit:4;" d="M 410.23483 -238.121758 C 410.234362 -237.14864 409.448751 -236.361521 408.475634 -236.361988 C 407.506448 -236.36243 406.719328 -237.148041 406.719796 -238.121159 C 406.720238 -239.090345 407.505849 -239.877464 408.477013 -239.878975 C 409.448152 -239.876555 410.235271 -239.090944 410.23483 -238.121758 Z M 410.23483 -238.121758 " transform="matrix(1,0.987003,-0.987003,1,0,0)"/>
<path style="fill:none;stroke-width:0.569373;stroke-linecap:butt;stroke-linejoin:miter;stroke:rgb(0%,0%,0%);stroke-opacity:1;stroke-miterlimit:4;" d="M 346.084214 -301.336158 L 345.829439 -262.686257 L 408.477313 -238.121458 C 408.477313 -238.121458 381.806924 -265.321142 382.028046 -265.16439 C 382.247214 -265.009616 346.084214 -301.336158 346.084214 -301.336158 Z M 346.084214 -301.336158 " transform="matrix(1,0.987003,-0.987003,1,0,0)"/>
<path style="fill:none;stroke-width:0.8;stroke-linecap:butt;stroke-linejoin:miter;stroke:rgb(0%,0%,0%);stroke-opacity:1;stroke-dasharray:0.8,1.6;stroke-miterlimit:4;" d="M 605.101562 78.648438 L 643.503906 112.25 "/>
<path style=" stroke:none;fill-rule:nonzero;fill:rgb(0%,0%,0%);fill-opacity:1;" d="M 643.886719 28.347656 C 643.585938 27.75 643.136719 27.324219 642.414062 27.324219 C 640.5625 27.324219 638.585938 29.675781 638.585938 32 C 638.585938 33.5 639.460938 34.550781 640.6875 34.550781 C 641.011719 34.550781 641.8125 34.472656 642.761719 33.347656 C 642.886719 34.023438 643.460938 34.550781 644.210938 34.550781 C 644.789062 34.550781 645.136719 34.175781 645.414062 33.675781 C 645.664062 33.097656 645.886719 32.125 645.886719 32.097656 C 645.886719 31.925781 645.738281 31.925781 645.6875 31.925781 C 645.539062 31.925781 645.511719 32 645.460938 32.222656 C 645.1875 33.25 644.914062 34.199219 644.261719 34.199219 C 643.8125 34.199219 643.789062 33.773438 643.789062 33.472656 C 643.789062 33.125 643.8125 32.972656 643.988281 32.273438 C 644.164062 31.625 644.1875 31.449219 644.335938 30.847656 L 644.914062 28.625 C 645.011719 28.175781 645.011719 28.148438 645.011719 28.074219 C 645.011719 27.800781 644.835938 27.648438 644.5625 27.648438 C 644.164062 27.648438 643.9375 28 643.886719 28.347656 Z M 642.863281 32.472656 C 642.761719 32.773438 642.761719 32.800781 642.539062 33.074219 C 641.835938 33.949219 641.1875 34.199219 640.738281 34.199219 C 639.9375 34.199219 639.710938 33.324219 639.710938 32.699219 C 639.710938 31.898438 640.210938 29.949219 640.585938 29.199219 C 641.085938 28.273438 641.789062 27.675781 642.4375 27.675781 C 643.460938 27.675781 643.6875 28.972656 643.6875 29.074219 C 643.6875 29.175781 643.664062 29.273438 643.636719 29.347656 Z M 642.863281 32.472656 "/>
<path style=" stroke:none;fill-rule:nonzero;fill:rgb(0%,0%,0%);fill-opacity:1;" d="M 598.976562 71.300781 C 598.976562 71.300781 598.976562 71.125 598.777344 71.125 C 598.425781 71.125 597.253906 71.25 596.828125 71.300781 C 596.703125 71.300781 596.527344 71.324219 596.527344 71.601562 C 596.527344 71.800781 596.675781 71.800781 596.925781 71.800781 C 597.675781 71.800781 597.703125 71.898438 597.703125 72.074219 C 597.703125 72.175781 597.578125 72.726562 597.503906 73.050781 L 596.175781 78.25 C 596.003906 79.050781 595.925781 79.324219 595.925781 79.875 C 595.925781 81.375 596.777344 82.375 597.953125 82.375 C 599.828125 82.375 601.800781 80 601.800781 77.699219 C 601.800781 76.25 600.953125 75.148438 599.675781 75.148438 C 598.953125 75.148438 598.277344 75.625 597.800781 76.101562 Z M 597.503906 77.324219 C 597.578125 76.976562 597.578125 76.949219 597.726562 76.773438 C 598.503906 75.75 599.226562 75.5 599.652344 75.5 C 600.226562 75.5 600.652344 75.976562 600.652344 77 C 600.652344 77.949219 600.128906 79.773438 599.828125 80.375 C 599.300781 81.449219 598.578125 82.023438 597.953125 82.023438 C 597.402344 82.023438 596.878906 81.601562 596.878906 80.425781 C 596.878906 80.101562 596.878906 79.800781 597.128906 78.800781 Z M 597.503906 77.324219 "/>
<path style=" stroke:none;fill-rule:nonzero;fill:rgb(0%,0%,0%);fill-opacity:1;" d="M 655.113281 110.734375 C 654.839844 110.734375 654.636719 110.734375 654.414062 110.933594 C 654.136719 111.183594 654.113281 111.457031 654.113281 111.558594 C 654.113281 111.957031 654.414062 112.132812 654.714844 112.132812 C 655.164062 112.132812 655.589844 111.734375 655.589844 111.109375 C 655.589844 110.332031 654.839844 109.734375 653.714844 109.734375 C 651.5625 109.734375 649.4375 112.007812 649.4375 114.257812 C 649.4375 115.707031 650.363281 116.957031 652.039062 116.957031 C 654.3125 116.957031 655.636719 115.257812 655.636719 115.082031 C 655.636719 114.984375 655.5625 114.859375 655.464844 114.859375 C 655.363281 114.859375 655.339844 114.910156 655.238281 115.035156 C 653.988281 116.609375 652.238281 116.609375 652.0625 116.609375 C 651.0625 116.609375 650.613281 115.832031 650.613281 114.859375 C 650.613281 114.207031 650.9375 112.660156 651.488281 111.683594 C 651.988281 110.757812 652.863281 110.082031 653.738281 110.082031 C 654.261719 110.082031 654.886719 110.285156 655.113281 110.734375 Z M 655.113281 110.734375 "/>
<path style=" stroke:none;fill-rule:nonzero;fill:rgb(0%,0%,0%);fill-opacity:1;" d="M 657.113281 157.234375 C 657.113281 157.234375 657.113281 157.058594 656.914062 157.058594 C 656.664062 157.058594 655.164062 157.207031 654.886719 157.234375 C 654.761719 157.257812 654.664062 157.332031 654.664062 157.53125 C 654.664062 157.734375 654.8125 157.734375 655.039062 157.734375 C 655.8125 157.734375 655.839844 157.832031 655.839844 158.007812 L 655.789062 158.332031 L 654.839844 162.109375 C 654.539062 161.507812 654.089844 161.082031 653.363281 161.082031 C 651.511719 161.082031 649.539062 163.433594 649.539062 165.757812 C 649.539062 167.257812 650.414062 168.308594 651.636719 168.308594 C 651.964844 168.308594 652.761719 168.234375 653.714844 167.109375 C 653.839844 167.78125 654.414062 168.308594 655.164062 168.308594 C 655.738281 168.308594 656.089844 167.933594 656.363281 167.433594 C 656.613281 166.859375 656.839844 165.882812 656.839844 165.859375 C 656.839844 165.683594 656.6875 165.683594 656.636719 165.683594 C 656.488281 165.683594 656.464844 165.757812 656.414062 165.984375 C 656.136719 167.007812 655.863281 167.957031 655.214844 167.957031 C 654.761719 167.957031 654.738281 167.53125 654.738281 167.234375 C 654.738281 166.832031 654.761719 166.734375 654.8125 166.457031 Z M 653.8125 166.234375 C 653.714844 166.53125 653.714844 166.558594 653.488281 166.832031 C 652.789062 167.707031 652.136719 167.957031 651.6875 167.957031 C 650.886719 167.957031 650.664062 167.082031 650.664062 166.457031 C 650.664062 165.65625 651.164062 163.707031 651.539062 162.957031 C 652.039062 162.03125 652.738281 161.433594 653.386719 161.433594 C 654.414062 161.433594 654.636719 162.734375 654.636719 162.832031 C 654.636719 162.933594 654.613281 163.03125 654.589844 163.109375 Z M 653.8125 166.234375 "/>
<path style=" stroke:none;fill-rule:nonzero;fill:rgb(0%,0%,0%);fill-opacity:1;" d="M 428.226562 56.410156 C 428.699219 56.410156 429.875 56.359375 430.675781 56.035156 C 431.800781 55.5625 431.875 54.609375 431.875 54.386719 C 431.875 53.6875 431.273438 53.035156 430.175781 53.035156 C 428.398438 53.035156 425.976562 54.585938 425.976562 57.386719 C 425.976562 59.011719 426.925781 60.261719 428.5 60.261719 C 430.773438 60.261719 432.101562 58.5625 432.101562 58.386719 C 432.101562 58.285156 432.023438 58.160156 431.925781 58.160156 C 431.824219 58.160156 431.800781 58.210938 431.699219 58.335938 C 430.449219 59.910156 428.699219 59.910156 428.523438 59.910156 C 427.273438 59.910156 427.125 58.5625 427.125 58.0625 C 427.125 57.859375 427.148438 57.386719 427.375 56.410156 Z M 427.476562 56.0625 C 428.101562 53.636719 429.75 53.386719 430.175781 53.386719 C 430.898438 53.386719 431.351562 53.859375 431.351562 54.386719 C 431.351562 56.0625 428.800781 56.0625 428.125 56.0625 Z M 427.476562 56.0625 "/>
<path style="fill-rule:nonzero;fill:rgb(0%,0%,0%);fill-opacity:1;stroke-width:0.8;stroke-linecap:butt;stroke-linejoin:miter;stroke:rgb(100%,0%,0%);stroke-opacity:1;stroke-miterlimit:4;" d="M 437.183594 62.53125 C 437.183594 63.898438 436.078125 65.003906 434.714844 65.003906 C 433.351562 65.003906 432.246094 63.898438 432.246094 62.53125 C 432.246094 61.167969 433.351562 60.0625 434.714844 60.0625 C 436.078125 60.0625 437.183594 61.167969 437.183594 62.53125 Z M 437.183594 62.53125 "/>
<path style="fill-rule:nonzero;fill:rgb(0%,0%,0%);fill-opacity:1;stroke-width:0.8;stroke-linecap:butt;stroke-linejoin:miter;stroke:rgb(100%,0%,0%);stroke-opacity:1;stroke-miterlimit:4;" d="M 401.171875 97.847656 C 401.171875 99.210938 400.066406 100.316406 398.703125 100.316406 C 397.339844 100.316406 396.234375 99.210938 396.234375 97.847656 C 396.234375 96.484375 397.339844 95.378906 398.703125 95.378906 C 400.066406 95.378906 401.171875 96.484375 401.171875 97.847656 Z M 401.171875 97.847656 "/>
<path style=" stroke:none;fill-rule:nonzero;fill:rgb(0%,0%,0%);fill-opacity:1;" d="M 391.085938 95.460938 L 392.460938 95.460938 C 392.785156 95.460938 392.933594 95.460938 392.933594 95.136719 C 392.933594 94.960938 392.785156 94.960938 392.511719 94.960938 L 391.183594 94.960938 L 391.511719 93.136719 C 391.585938 92.8125 391.808594 91.6875 391.910156 91.484375 C 392.035156 91.1875 392.308594 90.9375 392.660156 90.9375 C 392.710938 90.9375 393.136719 90.9375 393.433594 91.234375 C 392.734375 91.285156 392.558594 91.859375 392.558594 92.085938 C 392.558594 92.460938 392.859375 92.660156 393.160156 92.660156 C 393.585938 92.660156 394.035156 92.285156 394.035156 91.6875 C 394.035156 90.960938 393.308594 90.585938 392.660156 90.585938 C 392.109375 90.585938 391.109375 90.886719 390.636719 92.460938 C 390.535156 92.785156 390.484375 92.960938 390.109375 94.960938 L 389.011719 94.960938 C 388.683594 94.960938 388.511719 94.960938 388.511719 95.261719 C 388.511719 95.460938 388.660156 95.460938 388.960938 95.460938 L 390.011719 95.460938 L 388.835938 101.761719 C 388.535156 103.3125 388.261719 104.761719 387.433594 104.761719 C 387.359375 104.761719 386.984375 104.761719 386.660156 104.460938 C 387.410156 104.410156 387.558594 103.835938 387.558594 103.609375 C 387.558594 103.234375 387.261719 103.035156 386.960938 103.035156 C 386.535156 103.035156 386.085938 103.410156 386.085938 104.011719 C 386.085938 104.710938 386.785156 105.109375 387.433594 105.109375 C 388.308594 105.109375 388.960938 104.160156 389.234375 103.5625 C 389.761719 102.5625 390.109375 100.636719 390.136719 100.511719 Z M 391.085938 95.460938 "/>
<path style="fill:none;stroke-width:0.8;stroke-linecap:butt;stroke-linejoin:miter;stroke:rgb(0%,0%,0%);stroke-opacity:1;stroke-dasharray:0.8,1.6;stroke-miterlimit:4;" d="M 605.101562 78.648438 L 643.503906 78.648438 "/>
</g>
</svg>
