<?xml version="1.0" encoding="UTF-8"?>
<svg xmlns="http://www.w3.org/2000/svg" xmlns:xlink="http://www.w3.org/1999/xlink" width="636pt" height="117.599998pt" viewBox="0 0 636 117.599998" version="1.1">
<defs>
<filter id="alpha" filterUnits="objectBoundingBox" x="0%" y="0%" width="100%" height="100%">
  <feColorMatrix type="matrix" in="SourceGraphic" values="0 0 0 0 1 0 0 0 0 1 0 0 0 0 1 0 0 0 1 0"/>
</filter>
<clipPath id="clip1">
  <rect width="17" height="27"/>
</clipPath>
<g id="surface8" clip-path="url(#clip1)">
<rect x="0" y="0" width="17" height="27" style="fill:rgb(0%,0%,0%);fill-opacity:0.97;stroke:none;"/>
</g>
<mask id="mask0">
  <g filter="url(#alpha)">
<use xlink:href="#surface8"/>
  </g>
</mask>
<clipPath id="clip2">
  <rect width="17" height="27"/>
</clipPath>
<g id="surface10" clip-path="url(#clip2)">
<path style="fill:none;stroke-width:1.6;stroke-linecap:round;stroke-linejoin:round;stroke:rgb(100%,0%,0%);stroke-opacity:1;stroke-miterlimit:4;" d="M 166.898438 69.054688 C 173.378906 74.535156 177.542969 82.265625 178.558594 90.691406 " transform="matrix(1,0,0,1,-164,-67)"/>
<path style="fill-rule:evenodd;fill:rgb(100%,0%,0%);fill-opacity:1;stroke-width:0.30541;stroke-linecap:butt;stroke-linejoin:miter;stroke:rgb(100%,0%,0%);stroke-opacity:1;stroke-miterlimit:4;" d="M 132.81014 -42.035722 L 134.031652 -43.256358 L 129.756229 -42.034805 L 134.030775 -40.81421 Z M 132.81014 -42.035722 " transform="matrix(1,0.845784,-0.845784,1,-164,-67)"/>
<path style="fill-rule:evenodd;fill:rgb(100%,0%,0%);fill-opacity:1;stroke-width:0.397133;stroke-linecap:butt;stroke-linejoin:miter;stroke:rgb(100%,0%,0%);stroke-opacity:1;stroke-miterlimit:4;" d="M -108.676814 165.246045 L -107.087457 163.660021 L -112.649738 165.248269 L -107.090791 166.835401 Z M -108.676814 165.246045 " transform="matrix(-0.120376,-1,1,-0.120376,-164,-67)"/>
</g>
<clipPath id="clip3">
  <path d="M 338 0 L 456 0 L 456 117.601562 L 338 117.601562 Z M 338 0 "/>
</clipPath>
<clipPath id="clip5">
  <path d="M 0 0 L 118 0 L 118 117.601562 L 0 117.601562 Z M 0 0 "/>
</clipPath>
<clipPath id="clip4">
  <rect width="118" height="118"/>
</clipPath>
<g id="surface14" clip-path="url(#clip4)">
<g clip-path="url(#clip5)" clip-rule="nonzero">
<rect x="0" y="0" width="118" height="118" style="fill:rgb(0%,0%,0%);fill-opacity:0.97;stroke:none;"/>
</g>
</g>
<mask id="mask1">
  <g filter="url(#alpha)">
<use xlink:href="#surface14"/>
  </g>
</mask>
<clipPath id="clip7">
  <path d="M 0 0 L 118 0 L 118 117.601562 L 0 117.601562 Z M 0 0 "/>
</clipPath>
<clipPath id="clip6">
  <rect width="118" height="118"/>
</clipPath>
<g id="surface16" clip-path="url(#clip6)">
<g clip-path="url(#clip7)" clip-rule="nonzero">
<path style="fill:none;stroke-width:2.4;stroke-linecap:butt;stroke-linejoin:round;stroke:rgb(0%,0%,0%);stroke-opacity:1;stroke-miterlimit:4;" d="M 454.800781 58.789062 C 454.800781 90.601562 429.011719 116.390625 397.199219 116.390625 C 365.386719 116.390625 339.601562 90.601562 339.601562 58.789062 C 339.601562 26.976562 365.386719 1.191406 397.199219 1.191406 C 429.011719 1.191406 454.800781 26.976562 454.800781 58.789062 Z M 454.800781 58.789062 " transform="matrix(1,0,0,1,-338,0)"/>
</g>
</g>
<clipPath id="clip8">
  <rect width="38" height="48"/>
</clipPath>
<g id="surface20" clip-path="url(#clip8)">
<rect x="0" y="0" width="38" height="48" style="fill:rgb(0%,0%,0%);fill-opacity:0.97;stroke:none;"/>
</g>
<mask id="mask2">
  <g filter="url(#alpha)">
<use xlink:href="#surface20"/>
  </g>
</mask>
<clipPath id="clip9">
  <rect width="38" height="48"/>
</clipPath>
<g id="surface22" clip-path="url(#clip9)">
<path style="fill:none;stroke-width:1.6;stroke-linecap:round;stroke-linejoin:round;stroke:rgb(100%,0%,0%);stroke-opacity:1;stroke-miterlimit:4;" d="M 430.800781 15.589844 L 397.714844 59 " transform="matrix(1,0,0,1,-395,-13)"/>
<path style="fill-rule:evenodd;fill:rgb(100%,0%,0%);fill-opacity:1;stroke-width:0.318132;stroke-linecap:butt;stroke-linejoin:miter;stroke:rgb(100%,0%,0%);stroke-opacity:1;stroke-miterlimit:4;" d="M -196.304902 -280.019011 L -195.031617 -281.290253 L -199.488179 -280.018595 L -195.033661 -278.745726 Z M -196.304902 -280.019011 " transform="matrix(-0.76217,1,-1,-0.76217,-395,-13)"/>
<path style="fill-rule:evenodd;fill:rgb(100%,0%,0%);fill-opacity:1;stroke-width:0.318132;stroke-linecap:butt;stroke-linejoin:miter;stroke:rgb(100%,0%,0%);stroke-opacity:1;stroke-miterlimit:4;" d="M -153.174337 -280.016834 C -153.173866 -279.314068 -153.744856 -278.746064 -154.447622 -278.745593 C -155.147918 -278.747005 -155.718393 -279.316113 -155.718864 -280.018879 C -155.719335 -280.721645 -155.148344 -281.289649 -154.445578 -281.29012 C -153.742812 -281.290591 -153.174808 -280.7196 -153.174337 -280.016834 Z M -153.174337 -280.016834 " transform="matrix(-0.76217,1,-1,-0.76217,-395,-13)"/>
</g>
<clipPath id="clip10">
  <rect width="147" height="99"/>
</clipPath>
<g id="surface26" clip-path="url(#clip10)">
<rect x="0" y="0" width="147" height="99" style="fill:rgb(0%,0%,0%);fill-opacity:0.97;stroke:none;"/>
</g>
<mask id="mask3">
  <g filter="url(#alpha)">
<use xlink:href="#surface26"/>
  </g>
</mask>
<clipPath id="clip11">
  <rect width="147" height="99"/>
</clipPath>
<g id="surface28" clip-path="url(#clip11)">
<path style="fill:none;stroke-width:2.4;stroke-linecap:butt;stroke-linejoin:round;stroke:rgb(0%,0%,0%);stroke-opacity:1;stroke-miterlimit:4;" d="M 634.800781 58.789062 C 634.800781 85.300781 602.566406 106.789062 562.800781 106.789062 C 523.035156 106.789062 490.800781 85.300781 490.800781 58.789062 C 490.800781 32.28125 523.035156 10.789062 562.800781 10.789062 C 602.566406 10.789062 634.800781 32.28125 634.800781 58.789062 Z M 634.800781 58.789062 " transform="matrix(1,0,0,1,-489,-9)"/>
</g>
<clipPath id="clip12">
  <rect width="5" height="49"/>
</clipPath>
<g id="surface32" clip-path="url(#clip12)">
<rect x="0" y="0" width="5" height="49" style="fill:rgb(0%,0%,0%);fill-opacity:0.97;stroke:none;"/>
</g>
<mask id="mask4">
  <g filter="url(#alpha)">
<use xlink:href="#surface32"/>
  </g>
</mask>
<clipPath id="clip13">
  <rect width="5" height="49"/>
</clipPath>
<g id="surface34" clip-path="url(#clip13)">
<path style="fill:none;stroke-width:1.6;stroke-linecap:round;stroke-linejoin:round;stroke:rgb(100%,0%,0%);stroke-opacity:1;stroke-miterlimit:4;" d="M 562.800781 15.589844 L 562.800781 58.789062 " transform="matrix(1,0,0,1,-560,-12)"/>
<path style="fill-rule:evenodd;fill:rgb(100%,0%,0%);fill-opacity:1;stroke-width:0.4;stroke-linecap:butt;stroke-linejoin:miter;stroke:rgb(100%,0%,0%);stroke-opacity:1;stroke-miterlimit:4;" d="M 17.507812 -562.800781 L 19.109375 -564.398438 L 13.507812 -562.800781 L 19.109375 -561.199219 Z M 17.507812 -562.800781 " transform="matrix(0,1,-1,0,-560,-12)"/>
<path style="fill-rule:evenodd;fill:rgb(100%,0%,0%);fill-opacity:1;stroke-width:0.4;stroke-linecap:butt;stroke-linejoin:miter;stroke:rgb(100%,0%,0%);stroke-opacity:1;stroke-miterlimit:4;" d="M 60.359375 -562.800781 C 60.359375 -561.917969 59.640625 -561.199219 58.757812 -561.199219 C 57.875 -561.199219 57.15625 -561.917969 57.15625 -562.800781 C 57.15625 -563.683594 57.875 -564.398438 58.757812 -564.398438 C 59.640625 -564.398438 60.359375 -563.683594 60.359375 -562.800781 Z M 60.359375 -562.800781 " transform="matrix(0,1,-1,0,-560,-12)"/>
</g>
<clipPath id="clip14">
  <rect width="72" height="5"/>
</clipPath>
<g id="surface38" clip-path="url(#clip14)">
<rect x="0" y="0" width="72" height="5" style="fill:rgb(0%,0%,0%);fill-opacity:0.97;stroke:none;"/>
</g>
<mask id="mask5">
  <g filter="url(#alpha)">
<use xlink:href="#surface38"/>
  </g>
</mask>
<clipPath id="clip15">
  <rect width="72" height="5"/>
</clipPath>
<g id="surface35" clip-path="url(#clip15)">
<path style="fill:none;stroke-width:1.6;stroke-linecap:round;stroke-linejoin:round;stroke:rgb(100%,0%,0%);stroke-opacity:1;stroke-miterlimit:4;" d="M 630 58.789062 L 562.800781 58.789062 " transform="matrix(1,0,0,1,-561,-56)"/>
<path style="fill-rule:evenodd;fill:rgb(100%,0%,0%);fill-opacity:1;stroke-width:0.4;stroke-linecap:butt;stroke-linejoin:miter;stroke:rgb(100%,0%,0%);stroke-opacity:1;stroke-miterlimit:4;" d="M -628.078125 -58.789062 L -626.480469 -60.390625 L -632.078125 -58.789062 L -626.480469 -57.191406 Z M -628.078125 -58.789062 " transform="matrix(-1,0,0,-1,-561,-56)"/>
<path style="fill-rule:evenodd;fill:rgb(100%,0%,0%);fill-opacity:1;stroke-width:0.4;stroke-linecap:butt;stroke-linejoin:miter;stroke:rgb(100%,0%,0%);stroke-opacity:1;stroke-miterlimit:4;" d="M -561.230469 -58.789062 C -561.230469 -57.90625 -561.949219 -57.191406 -562.832031 -57.191406 C -563.714844 -57.191406 -564.433594 -57.90625 -564.433594 -58.789062 C -564.433594 -59.671875 -563.714844 -60.390625 -562.832031 -60.390625 C -561.949219 -60.390625 -561.230469 -59.671875 -561.230469 -58.789062 Z M -561.230469 -58.789062 " transform="matrix(-1,0,0,-1,-561,-56)"/>
</g>
</defs>
<g id="surface1">
<path style="fill:none;stroke-width:0.8;stroke-linecap:butt;stroke-linejoin:miter;stroke:rgb(100%,0%,0%);stroke-opacity:1;stroke-miterlimit:4;" d="M 212.398438 94.707031 L 212.398438 85.109375 L 202.800781 85.109375 "/>
<path style="fill:none;stroke-width:2.4;stroke-linecap:butt;stroke-linejoin:round;stroke:rgb(0%,0%,0%);stroke-opacity:1;stroke-miterlimit:4;" d="M 145.199219 94.707031 L 318 94.707031 L 202.800781 8.308594 Z M 145.199219 94.707031 "/>
<use xlink:href="#surface10" transform="matrix(1,0,0,1,164,67)" mask="url(#mask0)"/>
<path style=" stroke:none;fill-rule:nonzero;fill:rgb(0%,0%,0%);fill-opacity:1;" d="M 170.851562 39.320312 C 170.550781 38.71875 170.101562 38.296875 169.375 38.296875 C 167.523438 38.296875 165.550781 40.644531 165.550781 42.96875 C 165.550781 44.46875 166.425781 45.519531 167.648438 45.519531 C 167.976562 45.519531 168.773438 45.445312 169.726562 44.320312 C 169.851562 44.996094 170.425781 45.519531 171.175781 45.519531 C 171.75 45.519531 172.101562 45.144531 172.375 44.644531 C 172.625 44.070312 172.851562 43.09375 172.851562 43.070312 C 172.851562 42.894531 172.699219 42.894531 172.648438 42.894531 C 172.5 42.894531 172.476562 42.96875 172.425781 43.195312 C 172.148438 44.21875 171.875 45.171875 171.226562 45.171875 C 170.773438 45.171875 170.75 44.746094 170.75 44.445312 C 170.75 44.09375 170.773438 43.945312 170.949219 43.246094 C 171.125 42.59375 171.148438 42.421875 171.300781 41.820312 L 171.875 39.59375 C 171.976562 39.144531 171.976562 39.121094 171.976562 39.046875 C 171.976562 38.769531 171.800781 38.621094 171.523438 38.621094 C 171.125 38.621094 170.898438 38.96875 170.851562 39.320312 Z M 169.824219 43.445312 C 169.726562 43.746094 169.726562 43.769531 169.5 44.046875 C 168.800781 44.921875 168.148438 45.171875 167.699219 45.171875 C 166.898438 45.171875 166.675781 44.296875 166.675781 43.671875 C 166.675781 42.871094 167.175781 40.921875 167.550781 40.171875 C 168.050781 39.246094 168.75 38.644531 169.398438 38.644531 C 170.425781 38.644531 170.648438 39.945312 170.648438 40.046875 C 170.648438 40.144531 170.625 40.246094 170.601562 40.320312 Z M 169.824219 43.445312 "/>
<path style=" stroke:none;fill-rule:nonzero;fill:rgb(0%,0%,0%);fill-opacity:1;" d="M 231.710938 99.398438 C 231.710938 99.398438 231.710938 99.222656 231.511719 99.222656 C 231.164062 99.222656 229.988281 99.347656 229.5625 99.398438 C 229.4375 99.398438 229.261719 99.421875 229.261719 99.695312 C 229.261719 99.898438 229.414062 99.898438 229.664062 99.898438 C 230.414062 99.898438 230.4375 99.996094 230.4375 100.171875 C 230.4375 100.273438 230.3125 100.820312 230.238281 101.148438 L 228.914062 106.347656 C 228.738281 107.148438 228.664062 107.421875 228.664062 107.972656 C 228.664062 109.472656 229.511719 110.472656 230.6875 110.472656 C 232.5625 110.472656 234.539062 108.097656 234.539062 105.796875 C 234.539062 104.347656 233.6875 103.246094 232.414062 103.246094 C 231.6875 103.246094 231.011719 103.722656 230.539062 104.195312 Z M 230.238281 105.421875 C 230.3125 105.070312 230.3125 105.046875 230.460938 104.871094 C 231.238281 103.847656 231.960938 103.597656 232.386719 103.597656 C 232.960938 103.597656 233.386719 104.070312 233.386719 105.097656 C 233.386719 106.046875 232.863281 107.871094 232.5625 108.472656 C 232.039062 109.546875 231.3125 110.121094 230.6875 110.121094 C 230.136719 110.121094 229.613281 109.695312 229.613281 108.523438 C 229.613281 108.195312 229.613281 107.898438 229.863281 106.898438 Z M 230.238281 105.421875 "/>
<path style=" stroke:none;fill-rule:nonzero;fill:rgb(0%,0%,0%);fill-opacity:1;" d="M 166.878906 81.859375 C 166.878906 80.8125 166.601562 78.585938 164.976562 78.585938 C 162.753906 78.585938 160.304688 83.085938 160.304688 86.734375 C 160.304688 88.234375 160.753906 90.011719 162.203125 90.011719 C 164.453125 90.011719 166.878906 85.4375 166.878906 81.859375 Z M 161.976562 84.035156 C 162.253906 83.035156 162.578125 81.761719 163.226562 80.609375 C 163.652344 79.835938 164.226562 78.9375 164.953125 78.9375 C 165.726562 78.9375 165.828125 79.960938 165.828125 80.859375 C 165.828125 81.660156 165.703125 82.460938 165.328125 84.035156 Z M 165.179688 84.5625 C 165.003906 85.285156 164.679688 86.636719 164.054688 87.785156 C 163.503906 88.886719 162.902344 89.660156 162.203125 89.660156 C 161.679688 89.660156 161.351562 89.1875 161.351562 87.710938 C 161.351562 87.035156 161.453125 86.109375 161.851562 84.5625 Z M 165.179688 84.5625 "/>
<path style=" stroke:none;fill-rule:nonzero;fill:rgb(0%,0%,0%);fill-opacity:1;" d="M 212.1875 46.058594 C 212.1875 46.058594 212.1875 45.882812 211.988281 45.882812 C 211.613281 45.882812 210.460938 46.007812 210.039062 46.058594 C 209.914062 46.058594 209.738281 46.082031 209.738281 46.359375 C 209.738281 46.558594 209.886719 46.558594 210.113281 46.558594 C 210.886719 46.558594 210.914062 46.65625 210.914062 46.832031 L 210.863281 47.15625 L 208.5625 56.332031 C 208.488281 56.558594 208.488281 56.582031 208.488281 56.683594 C 208.488281 57.058594 208.8125 57.132812 208.960938 57.132812 C 209.210938 57.132812 209.460938 56.933594 209.539062 56.707031 L 209.835938 55.507812 L 210.1875 54.082031 C 210.289062 53.707031 210.386719 53.359375 210.460938 53.007812 C 210.488281 52.90625 210.636719 52.382812 210.636719 52.28125 C 210.6875 52.132812 211.1875 51.257812 211.738281 50.808594 C 212.085938 50.558594 212.5625 50.257812 213.261719 50.257812 C 213.9375 50.257812 214.113281 50.808594 214.113281 51.382812 C 214.113281 52.234375 213.511719 53.984375 213.136719 54.957031 C 213.011719 55.308594 212.914062 55.507812 212.914062 55.832031 C 212.914062 56.582031 213.488281 57.132812 214.238281 57.132812 C 215.738281 57.132812 216.3125 54.808594 216.3125 54.683594 C 216.3125 54.507812 216.1875 54.507812 216.136719 54.507812 C 215.960938 54.507812 215.960938 54.558594 215.886719 54.808594 C 215.664062 55.65625 215.136719 56.78125 214.261719 56.78125 C 213.988281 56.78125 213.886719 56.632812 213.886719 56.257812 C 213.886719 55.859375 214.011719 55.484375 214.164062 55.132812 C 214.414062 54.433594 215.136719 52.53125 215.136719 51.609375 C 215.136719 50.582031 214.511719 49.90625 213.3125 49.90625 C 212.3125 49.90625 211.539062 50.40625 210.9375 51.132812 Z M 212.1875 46.058594 "/>
<path style="fill:none;stroke-width:0.8;stroke-linecap:butt;stroke-linejoin:miter;stroke:rgb(0%,0%,0%);stroke-opacity:1;stroke-dasharray:0.8,1.6;stroke-miterlimit:4;" d="M 202.800781 8.308594 L 202.800781 94.707031 "/>
<g clip-path="url(#clip3)" clip-rule="nonzero">
<use xlink:href="#surface16" transform="matrix(1,0,0,1,338,0)" mask="url(#mask1)"/>
</g>
<path style=" stroke:none;fill-rule:nonzero;fill:rgb(0%,0%,0%);fill-opacity:1;" d="M 404.488281 32.476562 C 404.4375 32.726562 404.335938 33.101562 404.335938 33.175781 C 404.335938 33.453125 404.5625 33.601562 404.8125 33.601562 C 405.011719 33.601562 405.289062 33.476562 405.414062 33.152344 C 405.4375 33.101562 405.960938 30.925781 406.039062 30.628906 C 406.164062 30.101562 406.460938 29.003906 406.539062 28.550781 C 406.613281 28.351562 407.0625 27.601562 407.4375 27.253906 C 407.5625 27.152344 408.039062 26.726562 408.710938 26.726562 C 409.136719 26.726562 409.363281 26.925781 409.386719 26.925781 C 408.914062 27.003906 408.5625 27.378906 408.5625 27.800781 C 408.5625 28.050781 408.738281 28.351562 409.164062 28.351562 C 409.585938 28.351562 410.039062 27.976562 410.039062 27.402344 C 410.039062 26.851562 409.539062 26.378906 408.710938 26.378906 C 407.6875 26.378906 406.988281 27.152344 406.6875 27.601562 C 406.539062 26.878906 405.960938 26.378906 405.210938 26.378906 C 404.488281 26.378906 404.1875 27.003906 404.039062 27.277344 C 403.761719 27.828125 403.5625 28.777344 403.5625 28.828125 C 403.5625 29.003906 403.710938 29.003906 403.738281 29.003906 C 403.914062 29.003906 403.914062 28.976562 404.011719 28.628906 C 404.289062 27.503906 404.613281 26.726562 405.1875 26.726562 C 405.4375 26.726562 405.664062 26.851562 405.664062 27.453125 C 405.664062 27.800781 405.613281 27.976562 405.414062 28.800781 Z M 404.488281 32.476562 "/>
<use xlink:href="#surface22" transform="matrix(1,0,0,1,395,13)" mask="url(#mask2)"/>
<use xlink:href="#surface28" transform="matrix(1,0,0,1,489,9)" mask="url(#mask3)"/>
<path style=" stroke:none;fill-rule:nonzero;fill:rgb(0%,0%,0%);fill-opacity:1;" d="M 557.515625 32.203125 C 557.214844 31.601562 556.765625 31.175781 556.039062 31.175781 C 554.1875 31.175781 552.214844 33.527344 552.214844 35.851562 C 552.214844 37.351562 553.089844 38.402344 554.3125 38.402344 C 554.640625 38.402344 555.4375 38.328125 556.390625 37.203125 C 556.515625 37.878906 557.089844 38.402344 557.839844 38.402344 C 558.414062 38.402344 558.765625 38.027344 559.039062 37.527344 C 559.289062 36.953125 559.515625 35.976562 559.515625 35.953125 C 559.515625 35.777344 559.363281 35.777344 559.3125 35.777344 C 559.164062 35.777344 559.140625 35.851562 559.089844 36.078125 C 558.8125 37.101562 558.539062 38.050781 557.890625 38.050781 C 557.4375 38.050781 557.414062 37.628906 557.414062 37.328125 C 557.414062 36.976562 557.4375 36.828125 557.613281 36.128906 C 557.789062 35.476562 557.8125 35.300781 557.964844 34.703125 L 558.539062 32.476562 C 558.640625 32.027344 558.640625 32.003906 558.640625 31.925781 C 558.640625 31.652344 558.464844 31.503906 558.1875 31.503906 C 557.789062 31.503906 557.5625 31.851562 557.515625 32.203125 Z M 556.488281 36.328125 C 556.390625 36.628906 556.390625 36.652344 556.164062 36.925781 C 555.464844 37.800781 554.8125 38.050781 554.363281 38.050781 C 553.5625 38.050781 553.339844 37.175781 553.339844 36.550781 C 553.339844 35.753906 553.839844 33.800781 554.214844 33.050781 C 554.714844 32.128906 555.414062 31.527344 556.0625 31.527344 C 557.089844 31.527344 557.3125 32.828125 557.3125 32.925781 C 557.3125 33.027344 557.289062 33.128906 557.265625 33.203125 Z M 556.488281 36.328125 "/>
<path style=" stroke:none;fill-rule:nonzero;fill:rgb(0%,0%,0%);fill-opacity:1;" d="M 596.535156 62.226562 C 596.535156 62.226562 596.535156 62.054688 596.335938 62.054688 C 595.988281 62.054688 594.8125 62.179688 594.386719 62.226562 C 594.261719 62.226562 594.085938 62.253906 594.085938 62.527344 C 594.085938 62.726562 594.238281 62.726562 594.488281 62.726562 C 595.238281 62.726562 595.261719 62.828125 595.261719 63.003906 C 595.261719 63.101562 595.136719 63.652344 595.0625 63.976562 L 593.738281 69.179688 C 593.5625 69.976562 593.488281 70.253906 593.488281 70.804688 C 593.488281 72.304688 594.335938 73.304688 595.511719 73.304688 C 597.386719 73.304688 599.363281 70.929688 599.363281 68.628906 C 599.363281 67.179688 598.511719 66.078125 597.238281 66.078125 C 596.511719 66.078125 595.835938 66.554688 595.363281 67.027344 Z M 595.0625 68.253906 C 595.136719 67.902344 595.136719 67.878906 595.285156 67.703125 C 596.0625 66.679688 596.785156 66.429688 597.210938 66.429688 C 597.785156 66.429688 598.210938 66.902344 598.210938 67.929688 C 598.210938 68.878906 597.6875 70.703125 597.386719 71.304688 C 596.863281 72.378906 596.136719 72.953125 595.511719 72.953125 C 594.960938 72.953125 594.4375 72.527344 594.4375 71.351562 C 594.4375 71.027344 594.4375 70.726562 594.6875 69.726562 Z M 595.0625 68.253906 "/>
<use xlink:href="#surface34" transform="matrix(1,0,0,1,560,12)" mask="url(#mask4)"/>
<use xlink:href="#surface35" transform="matrix(1,0,0,1,561,56)" mask="url(#mask5)"/>
<path style="fill:none;stroke-width:2.4;stroke-linecap:butt;stroke-linejoin:round;stroke:rgb(0%,0%,0%);stroke-opacity:1;stroke-miterlimit:4;" d="M 1.199219 8.308594 L 116.398438 8.308594 L 116.398438 94.707031 L 1.199219 94.707031 Z M 1.199219 8.308594 "/>
<path style=" stroke:none;fill-rule:nonzero;fill:rgb(0%,0%,0%);fill-opacity:1;" d="M 58.914062 75.929688 C 58.914062 75.929688 58.914062 75.757812 58.710938 75.757812 C 58.363281 75.757812 57.1875 75.882812 56.761719 75.929688 C 56.636719 75.929688 56.460938 75.957031 56.460938 76.230469 C 56.460938 76.429688 56.613281 76.429688 56.863281 76.429688 C 57.613281 76.429688 57.636719 76.53125 57.636719 76.707031 C 57.636719 76.804688 57.511719 77.355469 57.4375 77.679688 L 56.113281 82.882812 C 55.9375 83.679688 55.863281 83.957031 55.863281 84.507812 C 55.863281 86.007812 56.710938 87.007812 57.886719 87.007812 C 59.761719 87.007812 61.738281 84.632812 61.738281 82.332031 C 61.738281 80.882812 60.886719 79.78125 59.613281 79.78125 C 58.886719 79.78125 58.210938 80.257812 57.738281 80.730469 Z M 57.4375 81.957031 C 57.511719 81.605469 57.511719 81.582031 57.664062 81.40625 C 58.4375 80.382812 59.164062 80.132812 59.585938 80.132812 C 60.164062 80.132812 60.585938 80.605469 60.585938 81.632812 C 60.585938 82.582031 60.0625 84.40625 59.761719 85.007812 C 59.238281 86.082031 58.511719 86.65625 57.886719 86.65625 C 57.335938 86.65625 56.8125 86.230469 56.8125 85.054688 C 56.8125 84.730469 56.8125 84.429688 57.0625 83.429688 Z M 57.4375 81.957031 "/>
<path style=" stroke:none;fill-rule:nonzero;fill:rgb(0%,0%,0%);fill-opacity:1;" d="M 12.722656 46.058594 C 12.722656 46.058594 12.722656 45.882812 12.523438 45.882812 C 12.148438 45.882812 11 46.007812 10.574219 46.058594 C 10.449219 46.058594 10.273438 46.082031 10.273438 46.359375 C 10.273438 46.558594 10.421875 46.558594 10.648438 46.558594 C 11.421875 46.558594 11.449219 46.65625 11.449219 46.832031 L 11.398438 47.15625 L 9.097656 56.332031 C 9.023438 56.558594 9.023438 56.582031 9.023438 56.683594 C 9.023438 57.058594 9.347656 57.132812 9.5 57.132812 C 9.75 57.132812 10 56.933594 10.074219 56.707031 L 10.375 55.507812 L 10.722656 54.082031 C 10.824219 53.707031 10.921875 53.359375 11 53.007812 C 11.023438 52.90625 11.171875 52.382812 11.171875 52.28125 C 11.222656 52.132812 11.722656 51.257812 12.273438 50.808594 C 12.625 50.558594 13.097656 50.257812 13.796875 50.257812 C 14.472656 50.257812 14.648438 50.808594 14.648438 51.382812 C 14.648438 52.234375 14.046875 53.984375 13.671875 54.957031 C 13.546875 55.308594 13.449219 55.507812 13.449219 55.832031 C 13.449219 56.582031 14.023438 57.132812 14.773438 57.132812 C 16.273438 57.132812 16.847656 54.808594 16.847656 54.683594 C 16.847656 54.507812 16.722656 54.507812 16.671875 54.507812 C 16.5 54.507812 16.5 54.558594 16.421875 54.808594 C 16.199219 55.65625 15.671875 56.78125 14.796875 56.78125 C 14.523438 56.78125 14.421875 56.632812 14.421875 56.257812 C 14.421875 55.859375 14.546875 55.484375 14.699219 55.132812 C 14.949219 54.433594 15.671875 52.53125 15.671875 51.609375 C 15.671875 50.582031 15.046875 49.90625 13.847656 49.90625 C 12.847656 49.90625 12.074219 50.40625 11.472656 51.132812 Z M 12.722656 46.058594 "/>
</g>
</svg>
