<?xml version="1.0" encoding="UTF-8"?>
<svg xmlns="http://www.w3.org/2000/svg" xmlns:xlink="http://www.w3.org/1999/xlink" width="208.990677pt" height="154.824997pt" viewBox="0 0 208.990677 154.824997" version="1.1">
<defs>
<clipPath id="clip1">
  <path d="M 103 143 L 110 143 L 110 154.824219 L 103 154.824219 Z M 103 143 "/>
</clipPath>
<clipPath id="clip2">
  <path d="M 202 71 L 208.992188 71 L 208.992188 83 L 202 83 Z M 202 71 "/>
</clipPath>
</defs>
<g id="surface1">
<path style="fill-rule:evenodd;fill:rgb(59.999084%,59.999084%,59.999084%);fill-opacity:1;stroke-width:0.8;stroke-linecap:butt;stroke-linejoin:miter;stroke:rgb(0%,0%,0%);stroke-opacity:1;stroke-miterlimit:4;" d="M 20.328125 19.574219 L 193.128906 19.574219 L 193.128906 134.773438 L 20.328125 134.773438 Z M 20.328125 19.574219 "/>
<path style="fill-rule:evenodd;fill:rgb(0%,0%,100%);fill-opacity:1;stroke-width:0.8;stroke-linecap:butt;stroke-linejoin:miter;stroke:rgb(0%,0%,0%);stroke-opacity:1;stroke-miterlimit:4;" d="M 20.328125 19.574219 L 58.730469 19.574219 L 58.730469 57.976562 L 20.328125 57.976562 Z M 20.328125 19.574219 "/>
<path style="fill-rule:evenodd;fill:rgb(0%,0%,100%);fill-opacity:1;stroke-width:0.8;stroke-linecap:butt;stroke-linejoin:miter;stroke:rgb(0%,0%,0%);stroke-opacity:1;stroke-miterlimit:4;" d="M 154.730469 19.574219 L 193.128906 19.574219 L 193.128906 57.976562 L 154.730469 57.976562 Z M 154.730469 19.574219 "/>
<path style="fill-rule:evenodd;fill:rgb(0%,0%,100%);fill-opacity:1;stroke-width:0.8;stroke-linecap:butt;stroke-linejoin:miter;stroke:rgb(0%,0%,0%);stroke-opacity:1;stroke-miterlimit:4;" d="M 20.328125 96.375 L 58.730469 96.375 L 58.730469 134.773438 L 20.328125 134.773438 Z M 20.328125 96.375 "/>
<path style="fill-rule:evenodd;fill:rgb(0%,0%,100%);fill-opacity:1;stroke-width:0.8;stroke-linecap:butt;stroke-linejoin:miter;stroke:rgb(0%,0%,0%);stroke-opacity:1;stroke-miterlimit:4;" d="M 154.730469 96.375 L 193.128906 96.375 L 193.128906 134.773438 L 154.730469 134.773438 Z M 154.730469 96.375 "/>
<path style="fill:none;stroke-width:0.8;stroke-linecap:butt;stroke-linejoin:miter;stroke:rgb(100%,0%,0%);stroke-opacity:1;stroke-miterlimit:4;" d="M 15.53125 91.574219 L 15.53125 62.773438 "/>
<path style="fill-rule:evenodd;fill:rgb(100%,0%,0%);fill-opacity:1;stroke-width:0.4;stroke-linecap:butt;stroke-linejoin:miter;stroke:rgb(100%,0%,0%);stroke-opacity:1;stroke-miterlimit:4;" d="M -88.375 15.53125 L -86.773438 13.929688 L -92.375 15.53125 L -86.773438 17.128906 Z M -88.375 15.53125 " transform="matrix(0,-1,1,0,0,0)"/>
<path style="fill-rule:evenodd;fill:rgb(100%,0%,0%);fill-opacity:1;stroke-width:0.4;stroke-linecap:butt;stroke-linejoin:miter;stroke:rgb(100%,0%,0%);stroke-opacity:1;stroke-miterlimit:4;" d="M 65.976562 -15.53125 L 67.574219 -17.128906 L 61.976562 -15.53125 L 67.574219 -13.929688 Z M 65.976562 -15.53125 " transform="matrix(0,1,-1,0,0,0)"/>
<path style="fill:none;stroke-width:0.8;stroke-linecap:butt;stroke-linejoin:miter;stroke:rgb(100%,0%,0%);stroke-opacity:1;stroke-miterlimit:4;" d="M 53.929688 139.574219 L 25.128906 139.574219 "/>
<path style="fill-rule:evenodd;fill:rgb(100%,0%,0%);fill-opacity:1;stroke-width:0.4;stroke-linecap:butt;stroke-linejoin:miter;stroke:rgb(100%,0%,0%);stroke-opacity:1;stroke-miterlimit:4;" d="M -50.730469 -139.574219 L -49.128906 -141.175781 L -54.730469 -139.574219 L -49.128906 -137.976562 Z M -50.730469 -139.574219 " transform="matrix(-1,0,0,-1,0,0)"/>
<path style="fill-rule:evenodd;fill:rgb(100%,0%,0%);fill-opacity:1;stroke-width:0.4;stroke-linecap:butt;stroke-linejoin:miter;stroke:rgb(100%,0%,0%);stroke-opacity:1;stroke-miterlimit:4;" d="M 28.328125 139.574219 L 29.929688 137.976562 L 24.328125 139.574219 L 29.929688 141.175781 Z M 28.328125 139.574219 "/>
<path style=" stroke:none;fill-rule:nonzero;fill:rgb(0%,0%,0%);fill-opacity:1;" d="M 40.417969 146.320312 C 40.515625 145.921875 40.890625 144.445312 41.992188 144.445312 C 42.066406 144.445312 42.46875 144.445312 42.792969 144.644531 C 42.34375 144.746094 42.042969 145.121094 42.042969 145.519531 C 42.042969 145.769531 42.21875 146.070312 42.640625 146.070312 C 42.992188 146.070312 43.492188 145.796875 43.492188 145.144531 C 43.492188 144.320312 42.566406 144.097656 42.015625 144.097656 C 41.09375 144.097656 40.542969 144.945312 40.34375 145.296875 C 39.941406 144.246094 39.09375 144.097656 38.617188 144.097656 C 36.96875 144.097656 36.042969 146.144531 36.042969 146.546875 C 36.042969 146.722656 36.21875 146.722656 36.242188 146.722656 C 36.367188 146.722656 36.417969 146.671875 36.441406 146.546875 C 36.992188 144.847656 38.042969 144.445312 38.59375 144.445312 C 38.890625 144.445312 39.441406 144.597656 39.441406 145.519531 C 39.441406 146.019531 39.167969 147.070312 38.59375 149.320312 C 38.34375 150.296875 37.765625 150.972656 37.066406 150.972656 C 36.96875 150.972656 36.617188 150.972656 36.265625 150.769531 C 36.667969 150.671875 37.015625 150.347656 37.015625 149.894531 C 37.015625 149.472656 36.667969 149.347656 36.441406 149.347656 C 35.941406 149.347656 35.566406 149.746094 35.566406 150.269531 C 35.566406 150.996094 36.34375 151.320312 37.042969 151.320312 C 38.117188 151.320312 38.691406 150.195312 38.71875 150.121094 C 38.917969 150.695312 39.492188 151.320312 40.441406 151.320312 C 42.09375 151.320312 42.992188 149.269531 42.992188 148.871094 C 42.992188 148.695312 42.867188 148.695312 42.816406 148.695312 C 42.667969 148.695312 42.640625 148.769531 42.59375 148.871094 C 42.066406 150.597656 40.992188 150.972656 40.492188 150.972656 C 39.867188 150.972656 39.617188 150.472656 39.617188 149.921875 C 39.617188 149.570312 39.691406 149.222656 39.867188 148.519531 Z M 40.417969 146.320312 "/>
<path style="fill:none;stroke-width:0.8;stroke-linecap:butt;stroke-linejoin:miter;stroke:rgb(100%,0%,0%);stroke-opacity:1;stroke-miterlimit:4;" d="M 188.328125 139.574219 L 159.53125 139.574219 "/>
<path style="fill-rule:evenodd;fill:rgb(100%,0%,0%);fill-opacity:1;stroke-width:0.4;stroke-linecap:butt;stroke-linejoin:miter;stroke:rgb(100%,0%,0%);stroke-opacity:1;stroke-miterlimit:4;" d="M -185.128906 -139.574219 L -183.53125 -141.175781 L -189.128906 -139.574219 L -183.53125 -137.976562 Z M -185.128906 -139.574219 " transform="matrix(-1,0,0,-1,0,0)"/>
<path style="fill-rule:evenodd;fill:rgb(100%,0%,0%);fill-opacity:1;stroke-width:0.4;stroke-linecap:butt;stroke-linejoin:miter;stroke:rgb(100%,0%,0%);stroke-opacity:1;stroke-miterlimit:4;" d="M 162.730469 139.574219 L 164.328125 137.976562 L 158.730469 139.574219 L 164.328125 141.175781 Z M 162.730469 139.574219 "/>
<path style=" stroke:none;fill-rule:nonzero;fill:rgb(0%,0%,0%);fill-opacity:1;" d="M 174.816406 146.320312 C 174.917969 145.921875 175.292969 144.445312 176.390625 144.445312 C 176.46875 144.445312 176.867188 144.445312 177.191406 144.644531 C 176.742188 144.746094 176.441406 145.121094 176.441406 145.519531 C 176.441406 145.769531 176.617188 146.070312 177.042969 146.070312 C 177.390625 146.070312 177.890625 145.796875 177.890625 145.144531 C 177.890625 144.320312 176.96875 144.097656 176.417969 144.097656 C 175.492188 144.097656 174.941406 144.945312 174.742188 145.296875 C 174.34375 144.246094 173.492188 144.097656 173.015625 144.097656 C 171.367188 144.097656 170.441406 146.144531 170.441406 146.546875 C 170.441406 146.722656 170.617188 146.722656 170.640625 146.722656 C 170.765625 146.722656 170.816406 146.671875 170.84375 146.546875 C 171.390625 144.847656 172.441406 144.445312 172.992188 144.445312 C 173.292969 144.445312 173.84375 144.597656 173.84375 145.519531 C 173.84375 146.019531 173.566406 147.070312 172.992188 149.320312 C 172.742188 150.296875 172.167969 150.972656 171.46875 150.972656 C 171.367188 150.972656 171.015625 150.972656 170.667969 150.769531 C 171.066406 150.671875 171.417969 150.347656 171.417969 149.894531 C 171.417969 149.472656 171.066406 149.347656 170.84375 149.347656 C 170.34375 149.347656 169.96875 149.746094 169.96875 150.269531 C 169.96875 150.996094 170.742188 151.320312 171.441406 151.320312 C 172.515625 151.320312 173.09375 150.195312 173.117188 150.121094 C 173.316406 150.695312 173.890625 151.320312 174.84375 151.320312 C 176.492188 151.320312 177.390625 149.269531 177.390625 148.871094 C 177.390625 148.695312 177.265625 148.695312 177.21875 148.695312 C 177.066406 148.695312 177.042969 148.769531 176.992188 148.871094 C 176.46875 150.597656 175.390625 150.972656 174.890625 150.972656 C 174.265625 150.972656 174.015625 150.472656 174.015625 149.921875 C 174.015625 149.570312 174.09375 149.222656 174.265625 148.519531 Z M 174.816406 146.320312 "/>
<path style="fill:none;stroke-width:0.8;stroke-linecap:butt;stroke-linejoin:miter;stroke:rgb(100%,0%,0%);stroke-opacity:1;stroke-miterlimit:4;" d="M 15.53125 129.976562 L 15.53125 101.175781 "/>
<path style="fill-rule:evenodd;fill:rgb(100%,0%,0%);fill-opacity:1;stroke-width:0.4;stroke-linecap:butt;stroke-linejoin:miter;stroke:rgb(100%,0%,0%);stroke-opacity:1;stroke-miterlimit:4;" d="M -126.773438 15.53125 L -125.175781 13.929688 L -130.773438 15.53125 L -125.175781 17.128906 Z M -126.773438 15.53125 " transform="matrix(0,-1,1,0,0,0)"/>
<path style="fill-rule:evenodd;fill:rgb(100%,0%,0%);fill-opacity:1;stroke-width:0.4;stroke-linecap:butt;stroke-linejoin:miter;stroke:rgb(100%,0%,0%);stroke-opacity:1;stroke-miterlimit:4;" d="M 104.375 -15.53125 L 105.976562 -17.128906 L 100.375 -15.53125 L 105.976562 -13.929688 Z M 104.375 -15.53125 " transform="matrix(0,1,-1,0,0,0)"/>
<path style=" stroke:none;fill-rule:nonzero;fill:rgb(0%,0%,0%);fill-opacity:1;" d="M 7.535156 114.1875 C 7.632812 113.789062 8.007812 112.3125 9.109375 112.3125 C 9.183594 112.3125 9.582031 112.3125 9.910156 112.511719 C 9.457031 112.613281 9.160156 112.988281 9.160156 113.386719 C 9.160156 113.636719 9.332031 113.9375 9.757812 113.9375 C 10.109375 113.9375 10.609375 113.664062 10.609375 113.011719 C 10.609375 112.1875 9.683594 111.960938 9.132812 111.960938 C 8.207031 111.960938 7.660156 112.8125 7.457031 113.164062 C 7.058594 112.113281 6.207031 111.960938 5.734375 111.960938 C 4.082031 111.960938 3.160156 114.011719 3.160156 114.414062 C 3.160156 114.585938 3.332031 114.585938 3.359375 114.585938 C 3.484375 114.585938 3.535156 114.539062 3.558594 114.414062 C 4.109375 112.710938 5.160156 112.3125 5.707031 112.3125 C 6.007812 112.3125 6.558594 112.460938 6.558594 113.386719 C 6.558594 113.886719 6.285156 114.9375 5.707031 117.1875 C 5.457031 118.164062 4.882812 118.835938 4.183594 118.835938 C 4.082031 118.835938 3.734375 118.835938 3.382812 118.636719 C 3.785156 118.539062 4.132812 118.210938 4.132812 117.761719 C 4.132812 117.335938 3.785156 117.210938 3.558594 117.210938 C 3.058594 117.210938 2.683594 117.613281 2.683594 118.136719 C 2.683594 118.863281 3.457031 119.1875 4.160156 119.1875 C 5.234375 119.1875 5.808594 118.0625 5.832031 117.988281 C 6.035156 118.5625 6.609375 119.1875 7.558594 119.1875 C 9.207031 119.1875 10.109375 117.136719 10.109375 116.738281 C 10.109375 116.5625 9.984375 116.5625 9.933594 116.5625 C 9.785156 116.5625 9.757812 116.636719 9.707031 116.738281 C 9.183594 118.460938 8.109375 118.835938 7.609375 118.835938 C 6.984375 118.835938 6.734375 118.335938 6.734375 117.789062 C 6.734375 117.4375 6.808594 117.085938 6.984375 116.386719 Z M 7.535156 114.1875 "/>
<path style="fill:none;stroke-width:0.8;stroke-linecap:butt;stroke-linejoin:miter;stroke:rgb(100%,0%,0%);stroke-opacity:1;stroke-miterlimit:4;" d="M 15.53125 53.175781 L 15.53125 24.375 "/>
<path style="fill-rule:evenodd;fill:rgb(100%,0%,0%);fill-opacity:1;stroke-width:0.4;stroke-linecap:butt;stroke-linejoin:miter;stroke:rgb(100%,0%,0%);stroke-opacity:1;stroke-miterlimit:4;" d="M -49.976562 15.53125 L -48.375 13.929688 L -53.976562 15.53125 L -48.375 17.128906 Z M -49.976562 15.53125 " transform="matrix(0,-1,1,0,0,0)"/>
<path style="fill-rule:evenodd;fill:rgb(100%,0%,0%);fill-opacity:1;stroke-width:0.4;stroke-linecap:butt;stroke-linejoin:miter;stroke:rgb(100%,0%,0%);stroke-opacity:1;stroke-miterlimit:4;" d="M 27.574219 -15.53125 L 29.175781 -17.128906 L 23.574219 -15.53125 L 29.175781 -13.929688 Z M 27.574219 -15.53125 " transform="matrix(0,1,-1,0,0,0)"/>
<path style=" stroke:none;fill-rule:nonzero;fill:rgb(0%,0%,0%);fill-opacity:1;" d="M 7.535156 37.386719 C 7.632812 36.988281 8.007812 35.511719 9.109375 35.511719 C 9.183594 35.511719 9.582031 35.511719 9.910156 35.710938 C 9.457031 35.8125 9.160156 36.1875 9.160156 36.585938 C 9.160156 36.835938 9.332031 37.136719 9.757812 37.136719 C 10.109375 37.136719 10.609375 36.863281 10.609375 36.210938 C 10.609375 35.386719 9.683594 35.164062 9.132812 35.164062 C 8.207031 35.164062 7.660156 36.011719 7.457031 36.363281 C 7.058594 35.3125 6.207031 35.164062 5.734375 35.164062 C 4.082031 35.164062 3.160156 37.210938 3.160156 37.613281 C 3.160156 37.789062 3.332031 37.789062 3.359375 37.789062 C 3.484375 37.789062 3.535156 37.738281 3.558594 37.613281 C 4.109375 35.914062 5.160156 35.511719 5.707031 35.511719 C 6.007812 35.511719 6.558594 35.664062 6.558594 36.585938 C 6.558594 37.085938 6.285156 38.136719 5.707031 40.386719 C 5.457031 41.363281 4.882812 42.039062 4.183594 42.039062 C 4.082031 42.039062 3.734375 42.039062 3.382812 41.835938 C 3.785156 41.738281 4.132812 41.414062 4.132812 40.960938 C 4.132812 40.539062 3.785156 40.414062 3.558594 40.414062 C 3.058594 40.414062 2.683594 40.8125 2.683594 41.335938 C 2.683594 42.0625 3.457031 42.386719 4.160156 42.386719 C 5.234375 42.386719 5.808594 41.261719 5.832031 41.1875 C 6.035156 41.761719 6.609375 42.386719 7.558594 42.386719 C 9.207031 42.386719 10.109375 40.335938 10.109375 39.9375 C 10.109375 39.761719 9.984375 39.761719 9.933594 39.761719 C 9.785156 39.761719 9.757812 39.835938 9.707031 39.9375 C 9.183594 41.664062 8.109375 42.039062 7.609375 42.039062 C 6.984375 42.039062 6.734375 41.539062 6.734375 40.988281 C 6.734375 40.636719 6.808594 40.289062 6.984375 39.585938 Z M 7.535156 37.386719 "/>
<path style=" stroke:none;fill-rule:nonzero;fill:rgb(0%,0%,0%);fill-opacity:1;" d="M 6.898438 75.210938 C 6.976562 74.863281 7.125 74.261719 7.125 74.164062 C 7.125 73.886719 6.898438 73.738281 6.675781 73.738281 C 6.476562 73.738281 6.199219 73.863281 6.074219 74.1875 C 6.023438 74.289062 5.273438 77.335938 5.175781 77.761719 C 5.050781 78.238281 5.023438 78.511719 5.023438 78.8125 C 5.023438 78.988281 5.023438 79.011719 5.050781 79.085938 C 4.675781 79.9375 4.199219 80.4375 3.574219 80.4375 C 2.300781 80.4375 2.300781 79.261719 2.300781 78.988281 C 2.300781 78.488281 2.375 77.863281 3.125 75.886719 C 3.300781 75.414062 3.398438 75.1875 3.398438 74.863281 C 3.398438 74.164062 2.875 73.5625 2.101562 73.5625 C 0.574219 73.5625 0 75.886719 0 76.011719 C 0 76.1875 0.148438 76.1875 0.175781 76.1875 C 0.351562 76.1875 0.351562 76.136719 0.425781 75.886719 C 0.875 74.414062 1.476562 73.914062 2.050781 73.914062 C 2.199219 73.914062 2.449219 73.9375 2.449219 74.4375 C 2.449219 74.835938 2.273438 75.289062 2.148438 75.5625 C 1.449219 77.4375 1.273438 78.164062 1.273438 78.789062 C 1.273438 80.238281 2.324219 80.789062 3.523438 80.789062 C 3.800781 80.789062 4.550781 80.789062 5.175781 79.664062 C 5.601562 80.6875 6.699219 80.789062 7.175781 80.789062 C 8.375 80.789062 9.074219 79.789062 9.5 78.835938 C 10.023438 77.585938 10.550781 75.4375 10.550781 74.6875 C 10.550781 73.8125 10.125 73.5625 9.851562 73.5625 C 9.449219 73.5625 9.050781 73.988281 9.050781 74.335938 C 9.050781 74.539062 9.148438 74.636719 9.273438 74.761719 C 9.449219 74.9375 9.851562 75.335938 9.851562 76.113281 C 9.851562 76.664062 9.398438 78.210938 8.976562 79.039062 C 8.574219 79.886719 8 80.4375 7.226562 80.4375 C 6.476562 80.4375 6.050781 79.960938 6.050781 79.039062 C 6.050781 78.613281 6.148438 78.113281 6.226562 77.886719 Z M 6.898438 75.210938 "/>
<path style="fill:none;stroke-width:0.8;stroke-linecap:butt;stroke-linejoin:miter;stroke:rgb(100%,0%,0%);stroke-opacity:1;stroke-miterlimit:4;" d="M 149.929688 139.574219 L 63.53125 139.574219 "/>
<path style="fill-rule:evenodd;fill:rgb(100%,0%,0%);fill-opacity:1;stroke-width:0.4;stroke-linecap:butt;stroke-linejoin:miter;stroke:rgb(100%,0%,0%);stroke-opacity:1;stroke-miterlimit:4;" d="M -146.730469 -139.574219 L -145.128906 -141.175781 L -150.730469 -139.574219 L -145.128906 -137.976562 Z M -146.730469 -139.574219 " transform="matrix(-1,0,0,-1,0,0)"/>
<path style="fill-rule:evenodd;fill:rgb(100%,0%,0%);fill-opacity:1;stroke-width:0.4;stroke-linecap:butt;stroke-linejoin:miter;stroke:rgb(100%,0%,0%);stroke-opacity:1;stroke-miterlimit:4;" d="M 66.730469 139.574219 L 68.328125 137.976562 L 62.730469 139.574219 L 68.328125 141.175781 Z M 66.730469 139.574219 "/>
<g clip-path="url(#clip1)" clip-rule="nonzero">
<path style=" stroke:none;fill-rule:nonzero;fill:rgb(0%,0%,0%);fill-opacity:1;" d="M 103.71875 153.050781 C 103.691406 153.101562 103.640625 153.148438 103.640625 153.199219 C 103.640625 153.273438 103.742188 153.425781 103.84375 153.425781 C 103.917969 153.425781 103.96875 153.375 104.417969 152.925781 C 104.542969 152.800781 104.867188 152.5 104.992188 152.375 C 105.140625 153.625 105.59375 154.824219 106.765625 154.824219 C 107.417969 154.824219 107.96875 154.449219 108.292969 154.199219 C 108.515625 154.050781 109.265625 153.425781 109.265625 153.273438 C 109.265625 153.226562 109.21875 153.074219 109.09375 153.074219 C 109.042969 153.074219 109.015625 153.101562 108.867188 153.226562 C 107.84375 154.226562 107.265625 154.476562 106.792969 154.476562 C 106.09375 154.476562 105.816406 153.625 105.816406 152.398438 C 105.816406 152.300781 105.867188 151.574219 105.917969 151.476562 C 105.941406 151.425781 105.941406 151.398438 106.265625 151.074219 C 107.542969 149.800781 109.816406 147.101562 109.816406 144.625 C 109.816406 144.351562 109.816406 143.375 108.867188 143.375 C 107.542969 143.375 106.367188 146 106.21875 146.375 C 105.441406 148.125 104.941406 149.976562 104.941406 151.875 Z M 105.992188 150.824219 C 106.015625 150.625 106.71875 147.101562 107.617188 145.226562 C 108.042969 144.375 108.390625 143.726562 108.890625 143.726562 C 109.441406 143.726562 109.441406 144.300781 109.441406 144.550781 C 109.441406 147.226562 106.742188 150.023438 105.992188 150.824219 Z M 105.992188 150.824219 "/>
</g>
<path style="fill:none;stroke-width:0.8;stroke-linecap:butt;stroke-linejoin:miter;stroke:rgb(100%,0%,0%);stroke-opacity:1;stroke-miterlimit:4;" d="M 188.328125 14.773438 L 25.128906 14.773438 "/>
<path style="fill-rule:evenodd;fill:rgb(100%,0%,0%);fill-opacity:1;stroke-width:0.4;stroke-linecap:butt;stroke-linejoin:miter;stroke:rgb(100%,0%,0%);stroke-opacity:1;stroke-miterlimit:4;" d="M -185.128906 -14.773438 L -183.53125 -16.375 L -189.128906 -14.773438 L -183.53125 -13.175781 Z M -185.128906 -14.773438 " transform="matrix(-1,0,0,-1,0,0)"/>
<path style="fill-rule:evenodd;fill:rgb(100%,0%,0%);fill-opacity:1;stroke-width:0.4;stroke-linecap:butt;stroke-linejoin:miter;stroke:rgb(100%,0%,0%);stroke-opacity:1;stroke-miterlimit:4;" d="M 28.328125 14.773438 L 29.929688 13.175781 L 24.328125 14.773438 L 29.929688 16.375 Z M 28.328125 14.773438 "/>
<path style=" stroke:none;fill-rule:nonzero;fill:rgb(0%,0%,0%);fill-opacity:1;" d="M 108.59375 5.550781 L 108.59375 6.074219 C 108.59375 9.800781 106.941406 10.523438 106.015625 10.523438 C 105.742188 10.523438 104.867188 10.5 104.441406 9.949219 C 105.140625 9.949219 105.265625 9.5 105.265625 9.226562 C 105.265625 8.726562 104.890625 8.5 104.542969 8.5 C 104.292969 8.5 103.816406 8.625 103.816406 9.25 C 103.816406 10.324219 104.667969 10.976562 106.015625 10.976562 C 108.09375 10.976562 110.042969 8.800781 110.042969 5.375 C 110.042969 1.074219 108.191406 0 106.765625 0 C 105.890625 0 105.117188 0.300781 104.441406 1 C 103.765625 1.726562 103.417969 2.398438 103.417969 3.601562 C 103.417969 5.574219 104.816406 7.148438 106.59375 7.148438 C 107.566406 7.148438 108.21875 6.476562 108.59375 5.550781 Z M 106.617188 6.773438 C 106.367188 6.773438 105.617188 6.773438 105.140625 5.773438 C 104.84375 5.175781 104.84375 4.398438 104.84375 3.601562 C 104.84375 2.75 104.84375 2 105.191406 1.398438 C 105.617188 0.601562 106.21875 0.398438 106.765625 0.398438 C 107.515625 0.398438 108.042969 0.949219 108.316406 1.648438 C 108.492188 2.175781 108.566406 3.175781 108.566406 3.898438 C 108.566406 5.226562 108.015625 6.773438 106.617188 6.773438 Z M 106.617188 6.773438 "/>
<path style="fill:none;stroke-width:0.8;stroke-linecap:butt;stroke-linejoin:miter;stroke:rgb(100%,0%,0%);stroke-opacity:1;stroke-miterlimit:4;" d="M 197.929688 129.976562 L 197.929688 24.375 "/>
<path style="fill-rule:evenodd;fill:rgb(100%,0%,0%);fill-opacity:1;stroke-width:0.4;stroke-linecap:butt;stroke-linejoin:miter;stroke:rgb(100%,0%,0%);stroke-opacity:1;stroke-miterlimit:4;" d="M -126.773438 197.929688 L -125.175781 196.328125 L -130.773438 197.929688 L -125.175781 199.53125 Z M -126.773438 197.929688 " transform="matrix(0,-1,1,0,0,0)"/>
<path style="fill-rule:evenodd;fill:rgb(100%,0%,0%);fill-opacity:1;stroke-width:0.4;stroke-linecap:butt;stroke-linejoin:miter;stroke:rgb(100%,0%,0%);stroke-opacity:1;stroke-miterlimit:4;" d="M 27.574219 -197.929688 L 29.175781 -199.53125 L 23.574219 -197.929688 L 29.175781 -196.328125 Z M 27.574219 -197.929688 " transform="matrix(0,1,-1,0,0,0)"/>
<g clip-path="url(#clip2)" clip-rule="nonzero">
<path style=" stroke:none;fill-rule:nonzero;fill:rgb(0%,0%,0%);fill-opacity:1;" d="M 203.789062 77.085938 L 203.789062 76.6875 C 203.789062 72.664062 205.765625 72.085938 206.589844 72.085938 C 206.964844 72.085938 207.640625 72.1875 207.992188 72.738281 C 207.742188 72.738281 207.117188 72.738281 207.117188 73.4375 C 207.117188 73.9375 207.492188 74.1875 207.839844 74.1875 C 208.089844 74.1875 208.589844 74.039062 208.589844 73.414062 C 208.589844 72.460938 207.890625 71.6875 206.566406 71.6875 C 204.515625 71.6875 202.367188 73.738281 202.367188 77.261719 C 202.367188 81.539062 204.214844 82.664062 205.691406 82.664062 C 207.464844 82.664062 208.992188 81.164062 208.992188 79.0625 C 208.992188 77.039062 207.566406 75.511719 205.789062 75.511719 C 204.714844 75.511719 204.117188 76.3125 203.789062 77.085938 Z M 205.691406 82.210938 C 204.691406 82.210938 204.214844 81.261719 204.117188 81.011719 C 203.816406 80.261719 203.816406 78.988281 203.816406 78.710938 C 203.816406 77.460938 204.339844 75.863281 205.765625 75.863281 C 206.039062 75.863281 206.765625 75.863281 207.265625 76.863281 C 207.539062 77.4375 207.539062 78.261719 207.539062 79.039062 C 207.539062 79.8125 207.539062 80.613281 207.265625 81.1875 C 206.789062 82.136719 206.066406 82.210938 205.691406 82.210938 Z M 205.691406 82.210938 "/>
</g>
</g>
</svg>
