<?xml version="1.0" encoding="UTF-8"?>
<svg xmlns="http://www.w3.org/2000/svg" xmlns:xlink="http://www.w3.org/1999/xlink" width="186.388535pt" height="69.055794pt" viewBox="0 0 186.388535 69.055794" version="1.1">
<defs>
<clipPath id="clip1">
  <path d="M 23 61 L 30 61 L 30 69.054688 L 23 69.054688 Z M 23 61 "/>
</clipPath>
<clipPath id="clip2">
  <path d="M 22 0 L 186.386719 0 L 186.386719 45 L 22 45 Z M 22 0 "/>
</clipPath>
<clipPath id="clip3">
  <path d="M 183 48 L 186.386719 48 L 186.386719 51 L 183 51 Z M 183 48 "/>
</clipPath>
<clipPath id="clip4">
  <path d="M 182 47 L 186.386719 47 L 186.386719 52 L 182 52 Z M 182 47 "/>
</clipPath>
</defs>
<g id="surface1">
<path style="fill:none;stroke-width:0.8;stroke-linecap:butt;stroke-linejoin:miter;stroke:rgb(100%,0%,0%);stroke-opacity:1;stroke-miterlimit:4;" d="M 23.902344 54.203125 L 23.902344 1.40625 "/>
<path style="fill-rule:evenodd;fill:rgb(100%,0%,0%);fill-opacity:1;stroke-width:0.2;stroke-linecap:butt;stroke-linejoin:miter;stroke:rgb(100%,0%,0%);stroke-opacity:1;stroke-miterlimit:4;" d="M -53.421875 23.902344 C -53.421875 24.34375 -53.78125 24.703125 -54.222656 24.703125 C -54.664062 24.703125 -55.019531 24.34375 -55.019531 23.902344 C -55.019531 23.460938 -54.664062 23.105469 -54.222656 23.105469 C -53.78125 23.105469 -53.421875 23.460938 -53.421875 23.902344 Z M -53.421875 23.902344 " transform="matrix(0.000000000000000061,-1,1,0.000000000000000061,0,0)"/>
<path style="fill-rule:evenodd;fill:rgb(100%,0%,0%);fill-opacity:1;stroke-width:0.2;stroke-linecap:butt;stroke-linejoin:miter;stroke:rgb(100%,0%,0%);stroke-opacity:1;stroke-miterlimit:4;" d="M 2.363281 -23.902344 L 3.164063 -24.703125 L 0.363281 -23.902344 L 3.164063 -23.105469 Z M 2.363281 -23.902344 " transform="matrix(0.000000000000000061,1,-1,0.000000000000000061,0,0)"/>
<path style=" stroke:none;fill-rule:nonzero;fill:rgb(0%,0%,0%);fill-opacity:1;" d="M 3.175781 64.125 C 3.175781 62.175781 4.152344 61.667969 4.789062 61.667969 C 4.902344 61.667969 5.652344 61.6875 6.066406 62.117188 C 5.578125 62.15625 5.503906 62.511719 5.503906 62.660156 C 5.503906 62.980469 5.726562 63.207031 6.046875 63.207031 C 6.363281 63.207031 6.609375 63.019531 6.609375 62.644531 C 6.609375 61.835938 5.691406 61.367188 4.769531 61.367188 C 3.269531 61.367188 2.183594 62.660156 2.183594 64.144531 C 2.183594 65.679688 3.363281 66.863281 4.753906 66.863281 C 6.347656 66.863281 6.738281 65.417969 6.738281 65.304688 C 6.738281 65.191406 6.609375 65.191406 6.570312 65.191406 C 6.476562 65.191406 6.441406 65.230469 6.421875 65.304688 C 6.082031 66.410156 5.296875 66.5625 4.863281 66.5625 C 4.226562 66.5625 3.175781 66.054688 3.175781 64.125 Z M 3.175781 64.125 "/>
<path style=" stroke:none;fill-rule:nonzero;fill:rgb(0%,0%,0%);fill-opacity:1;" d="M 11.058594 65.832031 C 11.113281 66.300781 11.433594 66.804688 11.996094 66.804688 C 12.257812 66.804688 12.988281 66.636719 12.988281 65.660156 L 12.988281 64.988281 L 12.691406 64.988281 L 12.691406 65.660156 C 12.691406 66.355469 12.390625 66.429688 12.257812 66.429688 C 11.863281 66.429688 11.808594 65.886719 11.808594 65.832031 L 11.808594 63.449219 C 11.808594 62.941406 11.808594 62.472656 11.378906 62.023438 C 10.910156 61.554688 10.308594 61.367188 9.746094 61.367188 C 8.753906 61.367188 7.925781 61.929688 7.925781 62.71875 C 7.925781 63.074219 8.171875 63.28125 8.488281 63.28125 C 8.828125 63.28125 9.035156 63.035156 9.035156 62.738281 C 9.035156 62.585938 8.976562 62.191406 8.414062 62.191406 C 8.753906 61.761719 9.332031 61.628906 9.707031 61.628906 C 10.308594 61.628906 10.984375 62.097656 10.984375 63.167969 L 10.984375 63.597656 C 10.363281 63.636719 9.539062 63.675781 8.789062 64.03125 C 7.890625 64.441406 7.589844 65.0625 7.589844 65.585938 C 7.589844 66.5625 8.753906 66.863281 9.503906 66.863281 C 10.289062 66.863281 10.832031 66.375 11.058594 65.832031 Z M 10.984375 63.863281 L 10.984375 65.0625 C 10.984375 66.1875 10.121094 66.597656 9.578125 66.597656 C 8.996094 66.597656 8.507812 66.1875 8.507812 65.585938 C 8.507812 64.929688 9.015625 63.9375 10.984375 63.863281 Z M 10.984375 63.863281 "/>
<path style=" stroke:none;fill-rule:nonzero;fill:rgb(0%,0%,0%);fill-opacity:1;" d="M 14.375 62.625 L 14.375 65.832031 C 14.375 66.355469 14.242188 66.355469 13.4375 66.355469 L 13.4375 66.730469 C 13.867188 66.710938 14.46875 66.691406 14.804688 66.691406 C 15.105469 66.691406 15.722656 66.710938 16.136719 66.730469 L 16.136719 66.355469 C 15.332031 66.355469 15.199219 66.355469 15.199219 65.832031 L 15.199219 63.617188 C 15.199219 62.378906 16.0625 61.707031 16.8125 61.707031 C 17.582031 61.707031 17.710938 62.34375 17.710938 63.035156 L 17.710938 65.832031 C 17.710938 66.355469 17.582031 66.355469 16.773438 66.355469 L 16.773438 66.730469 C 17.1875 66.710938 17.804688 66.691406 18.125 66.691406 C 18.425781 66.691406 19.0625 66.710938 19.457031 66.730469 L 19.457031 66.355469 C 18.667969 66.355469 18.535156 66.355469 18.535156 65.832031 L 18.535156 63.617188 C 18.535156 62.378906 19.378906 61.707031 20.148438 61.707031 C 20.898438 61.707031 21.03125 62.34375 21.03125 63.035156 L 21.03125 65.832031 C 21.03125 66.355469 20.898438 66.355469 20.09375 66.355469 L 20.09375 66.730469 C 20.503906 66.710938 21.125 66.691406 21.441406 66.691406 C 21.761719 66.691406 22.378906 66.710938 22.792969 66.730469 L 22.792969 66.355469 C 22.175781 66.355469 21.875 66.355469 21.855469 66 L 21.855469 63.710938 C 21.855469 62.679688 21.855469 62.324219 21.480469 61.894531 C 21.3125 61.6875 20.917969 61.441406 20.222656 61.441406 C 19.230469 61.441406 18.6875 62.15625 18.5 62.625 C 18.332031 61.574219 17.449219 61.441406 16.90625 61.441406 C 16.023438 61.441406 15.460938 61.949219 15.125 62.699219 L 15.125 61.441406 L 13.4375 61.574219 L 13.4375 61.949219 C 14.28125 61.949219 14.375 62.023438 14.375 62.625 Z M 14.375 62.625 "/>
<g clip-path="url(#clip1)" clip-rule="nonzero">
<path style=" stroke:none;fill-rule:nonzero;fill:rgb(0%,0%,0%);fill-opacity:1;" d="M 25.085938 62.230469 L 25.085938 61.441406 L 23.359375 61.574219 L 23.359375 61.949219 C 24.203125 61.949219 24.296875 62.023438 24.296875 62.550781 L 24.296875 68.136719 C 24.296875 68.679688 24.167969 68.679688 23.359375 68.679688 L 23.359375 69.054688 C 23.773438 69.035156 24.390625 69.019531 24.691406 69.019531 C 25.03125 69.019531 25.628906 69.035156 26.042969 69.054688 L 26.042969 68.679688 C 25.253906 68.679688 25.125 68.679688 25.125 68.136719 L 25.125 66.019531 C 25.179688 66.222656 25.6875 66.863281 26.585938 66.863281 C 28.011719 66.863281 29.25 65.679688 29.25 64.144531 C 29.25 62.625 28.105469 61.441406 26.753906 61.441406 C 25.816406 61.441406 25.3125 61.96875 25.085938 62.230469 Z M 25.125 65.363281 L 25.125 62.699219 C 25.460938 62.082031 26.042969 61.742188 26.660156 61.742188 C 27.542969 61.742188 28.253906 62.792969 28.253906 64.144531 C 28.253906 65.585938 27.429688 66.597656 26.546875 66.597656 C 26.0625 66.597656 25.609375 66.355469 25.292969 65.867188 C 25.125 65.625 25.125 65.605469 25.125 65.363281 Z M 25.125 65.363281 "/>
</g>
<path style=" stroke:none;fill-rule:nonzero;fill:rgb(0%,0%,0%);fill-opacity:1;" d="M 33.621094 61.949219 C 34.164062 61.949219 34.242188 62.097656 34.242188 62.585938 L 34.242188 65.832031 C 34.242188 66.355469 34.109375 66.355469 33.320312 66.355469 L 33.320312 66.730469 C 33.714844 66.710938 34.335938 66.691406 34.632812 66.691406 C 34.933594 66.691406 35.535156 66.710938 35.964844 66.730469 L 35.964844 66.355469 C 35.160156 66.355469 35.027344 66.355469 35.027344 65.832031 L 35.027344 61.425781 L 33.527344 61.535156 C 33.339844 61.554688 33.320312 61.554688 33.320312 61.554688 C 33.285156 61.574219 33.265625 61.574219 33.097656 61.574219 L 31.691406 61.574219 L 31.691406 60.222656 C 31.691406 59.042969 32.722656 58.554688 33.453125 58.554688 C 33.808594 58.554688 34.242188 58.6875 34.484375 58.949219 C 33.996094 58.988281 33.921875 59.304688 33.921875 59.511719 C 33.921875 59.90625 34.242188 60.054688 34.464844 60.054688 C 34.746094 60.054688 35.007812 59.867188 35.007812 59.511719 C 35.007812 58.800781 34.351562 58.292969 33.472656 58.292969 C 32.367188 58.292969 30.941406 58.910156 30.941406 60.207031 L 30.941406 61.574219 L 29.984375 61.574219 L 29.984375 61.949219 L 30.941406 61.949219 L 30.941406 65.832031 C 30.941406 66.355469 30.808594 66.355469 30.003906 66.355469 L 30.003906 66.730469 C 30.398438 66.710938 31.035156 66.691406 31.335938 66.691406 C 31.632812 66.691406 32.214844 66.710938 32.664062 66.730469 L 32.664062 66.355469 C 31.859375 66.355469 31.726562 66.355469 31.726562 65.832031 L 31.726562 61.949219 Z M 33.621094 61.949219 "/>
<path style=" stroke:none;fill-rule:nonzero;fill:rgb(0%,0%,0%);fill-opacity:1;" d="M 38.3125 62.753906 L 38.3125 61.441406 L 36.644531 61.574219 L 36.644531 61.949219 C 37.488281 61.949219 37.582031 62.023438 37.582031 62.625 L 37.582031 65.832031 C 37.582031 66.355469 37.453125 66.355469 36.644531 66.355469 L 36.644531 66.730469 C 37.113281 66.710938 37.675781 66.691406 38.015625 66.691406 C 38.484375 66.691406 39.046875 66.691406 39.53125 66.730469 L 39.53125 66.355469 L 39.269531 66.355469 C 38.390625 66.355469 38.371094 66.222656 38.371094 65.792969 L 38.371094 63.957031 C 38.371094 62.773438 38.875 61.707031 39.777344 61.707031 C 39.851562 61.707031 39.890625 61.707031 39.90625 61.722656 C 39.871094 61.722656 39.625 61.875 39.625 62.191406 C 39.625 62.511719 39.890625 62.699219 40.152344 62.699219 C 40.359375 62.699219 40.65625 62.550781 40.65625 62.175781 C 40.65625 61.800781 40.28125 61.441406 39.777344 61.441406 C 38.894531 61.441406 38.464844 62.25 38.3125 62.753906 Z M 38.3125 62.753906 "/>
<path style=" stroke:none;fill-rule:nonzero;fill:rgb(0%,0%,0%);fill-opacity:1;" d="M 42.320312 63.710938 C 42.398438 61.929688 43.410156 61.628906 43.820312 61.628906 C 45.039062 61.628906 45.171875 63.242188 45.171875 63.710938 Z M 42.320312 63.972656 L 45.660156 63.972656 C 45.921875 63.972656 45.960938 63.972656 45.960938 63.710938 C 45.960938 62.53125 45.304688 61.367188 43.820312 61.367188 C 42.433594 61.367188 41.328125 62.605469 41.328125 64.105469 C 41.328125 65.699219 42.585938 66.863281 43.953125 66.863281 C 45.414062 66.863281 45.960938 65.53125 45.960938 65.304688 C 45.960938 65.191406 45.867188 65.15625 45.789062 65.15625 C 45.695312 65.15625 45.660156 65.230469 45.640625 65.324219 C 45.226562 66.5625 44.140625 66.5625 44.027344 66.5625 C 43.429688 66.5625 42.960938 66.207031 42.679688 65.753906 C 42.320312 65.191406 42.320312 64.40625 42.320312 63.972656 Z M 42.320312 63.972656 "/>
<path style="fill-rule:nonzero;fill:rgb(31.37207%,17.64679%,8.627319%);fill-opacity:1;stroke-width:0.69282;stroke-linecap:round;stroke-linejoin:miter;stroke:rgb(0%,0%,0%);stroke-opacity:1;stroke-miterlimit:4;" d="M -43.466316 17.830504 L -26.837036 17.829856 L -26.834986 21.987289 L -43.464267 21.987937 Z M -43.466316 17.830504 " transform="matrix(-1,-0.57735,-0.57735,1,0,0)"/>
<path style="fill-rule:nonzero;fill:rgb(100%,0%,0%);fill-opacity:1;stroke-width:0.8;stroke-linecap:round;stroke-linejoin:miter;stroke:rgb(50.195312%,0%,0%);stroke-opacity:1;stroke-miterlimit:4;" d="M -23.65625 42.601562 L -29.890625 31.800781 L -36.128906 21.003906 L -11.183594 21.003906 L -17.421875 31.800781 Z M -23.65625 42.601562 " transform="matrix(-1,0,0,1,0,0)"/>
<path style="fill-rule:nonzero;fill:rgb(31.37207%,17.64679%,8.627319%);fill-opacity:1;stroke-width:0.69282;stroke-linecap:round;stroke-linejoin:miter;stroke:rgb(0%,0%,0%);stroke-opacity:1;stroke-miterlimit:4;" d="M -7.811842 38.942958 L 8.815747 38.94524 L 8.814867 43.100982 L -7.809792 43.100391 Z M -7.811842 38.942958 " transform="matrix(1,-0.57735,0.57735,1,0,0)"/>
<path style="fill:none;stroke-width:0.8;stroke-linecap:butt;stroke-linejoin:miter;stroke:rgb(0%,0%,0%);stroke-opacity:1;stroke-miterlimit:4;" d="M 136.984375 11.003906 L 136.984375 30.203125 "/>
<path style="fill:none;stroke-width:0.8;stroke-linecap:butt;stroke-linejoin:miter;stroke:rgb(0%,0%,0%);stroke-opacity:1;stroke-miterlimit:4;" d="M 146.582031 11.003906 L 141.785156 15.804688 L 132.183594 15.804688 L 127.382812 20.605469 "/>
<path style="fill:none;stroke-width:0.8;stroke-linecap:butt;stroke-linejoin:miter;stroke:rgb(0%,0%,0%);stroke-opacity:1;stroke-miterlimit:4;" d="M 146.582031 44.605469 L 141.785156 44.605469 L 136.984375 30.203125 L 132.183594 44.605469 L 127.382812 44.605469 "/>
<path style="fill-rule:nonzero;fill:rgb(91.371155%,77.645874%,68.626404%);fill-opacity:1;stroke-width:0.8;stroke-linecap:round;stroke-linejoin:miter;stroke:rgb(0%,0%,0%);stroke-opacity:1;stroke-miterlimit:4;" d="M -132.183594 6.203125 C -132.183594 8.855469 -134.332031 11.003906 -136.984375 11.003906 C -139.632812 11.003906 -141.785156 8.855469 -141.785156 6.203125 C -141.785156 3.554688 -139.632812 1.40625 -136.984375 1.40625 C -134.332031 1.40625 -132.183594 3.554688 -132.183594 6.203125 Z M -132.183594 6.203125 " transform="matrix(-1,0,0,1,0,0)"/>
<path style=" stroke:none;fill-rule:nonzero;fill:rgb(0%,0%,0%);fill-opacity:1;" d="M 3.75 4.367188 L 4.78125 4.367188 C 5.023438 4.367188 5.136719 4.367188 5.136719 4.125 C 5.136719 3.992188 5.023438 3.992188 4.820312 3.992188 L 3.824219 3.992188 L 4.070312 2.625 C 4.125 2.378906 4.292969 1.535156 4.367188 1.386719 C 4.460938 1.160156 4.667969 0.972656 4.929688 0.972656 C 4.96875 0.972656 5.289062 0.972656 5.511719 1.199219 C 4.988281 1.234375 4.855469 1.667969 4.855469 1.835938 C 4.855469 2.117188 5.082031 2.265625 5.304688 2.265625 C 5.625 2.265625 5.960938 1.984375 5.960938 1.535156 C 5.960938 0.992188 5.417969 0.710938 4.929688 0.710938 C 4.519531 0.710938 3.769531 0.9375 3.414062 2.117188 C 3.335938 2.359375 3.300781 2.492188 3.019531 3.992188 L 2.195312 3.992188 C 1.949219 3.992188 1.820312 3.992188 1.820312 4.21875 C 1.820312 4.367188 1.929688 4.367188 2.15625 4.367188 L 2.945312 4.367188 L 2.0625 9.09375 C 1.835938 10.253906 1.632812 11.34375 1.011719 11.34375 C 0.957031 11.34375 0.675781 11.34375 0.429688 11.117188 C 0.992188 11.078125 1.105469 10.648438 1.105469 10.480469 C 1.105469 10.199219 0.882812 10.046875 0.65625 10.046875 C 0.335938 10.046875 0 10.328125 0 10.78125 C 0 11.304688 0.523438 11.605469 1.011719 11.605469 C 1.667969 11.605469 2.15625 10.890625 2.363281 10.441406 C 2.757812 9.691406 3.019531 8.25 3.039062 8.15625 Z M 3.75 4.367188 "/>
<path style=" stroke:none;fill-rule:nonzero;fill:rgb(0%,0%,0%);fill-opacity:1;" d="M 10.457031 12.015625 C 10.457031 11.980469 10.457031 11.960938 10.253906 11.753906 C 8.769531 10.253906 8.378906 7.984375 8.378906 6.148438 C 8.378906 4.066406 8.828125 1.984375 10.308594 0.503906 C 10.457031 0.355469 10.457031 0.335938 10.457031 0.296875 C 10.457031 0.203125 10.421875 0.167969 10.347656 0.167969 C 10.214844 0.167969 9.144531 0.992188 8.433594 2.511719 C 7.832031 3.824219 7.683594 5.15625 7.683594 6.148438 C 7.683594 7.085938 7.816406 8.53125 8.472656 9.898438 C 9.203125 11.359375 10.214844 12.148438 10.347656 12.148438 C 10.421875 12.148438 10.457031 12.109375 10.457031 12.015625 Z M 10.457031 12.015625 "/>
<path style=" stroke:none;fill-rule:nonzero;fill:rgb(0%,0%,0%);fill-opacity:1;" d="M 15.144531 5.53125 C 15.21875 5.230469 15.5 4.125 16.328125 4.125 C 16.382812 4.125 16.683594 4.125 16.925781 4.273438 C 16.589844 4.347656 16.363281 4.628906 16.363281 4.929688 C 16.363281 5.117188 16.496094 5.34375 16.8125 5.34375 C 17.078125 5.34375 17.453125 5.136719 17.453125 4.648438 C 17.453125 4.03125 16.757812 3.859375 16.34375 3.859375 C 15.652344 3.859375 15.238281 4.5 15.089844 4.761719 C 14.789062 3.972656 14.152344 3.859375 13.796875 3.859375 C 12.558594 3.859375 11.863281 5.398438 11.863281 5.699219 C 11.863281 5.828125 11.996094 5.828125 12.015625 5.828125 C 12.109375 5.828125 12.144531 5.792969 12.164062 5.699219 C 12.578125 4.421875 13.363281 4.125 13.777344 4.125 C 14 4.125 14.414062 4.234375 14.414062 4.929688 C 14.414062 5.304688 14.207031 6.09375 13.777344 7.78125 C 13.589844 8.511719 13.15625 9.015625 12.632812 9.015625 C 12.558594 9.015625 12.296875 9.015625 12.03125 8.867188 C 12.332031 8.792969 12.59375 8.546875 12.59375 8.210938 C 12.59375 7.890625 12.332031 7.796875 12.164062 7.796875 C 11.789062 7.796875 11.507812 8.097656 11.507812 8.492188 C 11.507812 9.035156 12.089844 9.28125 12.613281 9.28125 C 13.421875 9.28125 13.851562 8.4375 13.871094 8.378906 C 14.019531 8.8125 14.453125 9.28125 15.164062 9.28125 C 16.402344 9.28125 17.078125 7.742188 17.078125 7.441406 C 17.078125 7.3125 16.984375 7.3125 16.945312 7.3125 C 16.832031 7.3125 16.8125 7.367188 16.777344 7.441406 C 16.382812 8.734375 15.578125 9.015625 15.203125 9.015625 C 14.734375 9.015625 14.546875 8.640625 14.546875 8.230469 C 14.546875 7.96875 14.601562 7.703125 14.734375 7.179688 Z M 15.144531 5.53125 "/>
<path style=" stroke:none;fill-rule:nonzero;fill:rgb(0%,0%,0%);fill-opacity:1;" d="M 21.433594 6.148438 C 21.433594 5.230469 21.304688 3.785156 20.648438 2.417969 C 19.933594 0.953125 18.902344 0.167969 18.789062 0.167969 C 18.714844 0.167969 18.660156 0.222656 18.660156 0.296875 C 18.660156 0.335938 18.660156 0.355469 18.882812 0.578125 C 20.066406 1.761719 20.742188 3.65625 20.742188 6.148438 C 20.742188 8.210938 20.308594 10.3125 18.828125 11.8125 C 18.660156 11.960938 18.660156 11.980469 18.660156 12.015625 C 18.660156 12.09375 18.714844 12.148438 18.789062 12.148438 C 18.902344 12.148438 19.992188 11.324219 20.683594 9.804688 C 21.304688 8.492188 21.433594 7.160156 21.433594 6.148438 Z M 21.433594 6.148438 "/>
<g clip-path="url(#clip2)" clip-rule="nonzero">
<path style="fill:none;stroke-width:0.8;stroke-linecap:butt;stroke-linejoin:miter;stroke:rgb(0%,0%,0%);stroke-opacity:1;stroke-miterlimit:4;" d="M 26.582031 1.40625 C 26.582031 1.40625 40.984375 20.605469 55.382812 30.203125 C 69.785156 39.804688 184.984375 39.804688 184.984375 39.804688 "/>
</g>
<path style="fill:none;stroke-width:0.8;stroke-linecap:butt;stroke-linejoin:miter;stroke:rgb(100%,0%,0%);stroke-opacity:1;stroke-miterlimit:4;" d="M 19.734375 49.40625 L 184.984375 49.40625 "/>
<path style="fill-rule:evenodd;fill:rgb(100%,0%,0%);fill-opacity:1;stroke-width:0.2;stroke-linecap:butt;stroke-linejoin:miter;stroke:rgb(100%,0%,0%);stroke-opacity:1;stroke-miterlimit:4;" d="M 20.519531 49.40625 C 20.519531 49.847656 20.160156 50.203125 19.71875 50.203125 C 19.277344 50.203125 18.917969 49.847656 18.917969 49.40625 C 18.917969 48.964844 19.277344 48.605469 19.71875 48.605469 C 20.160156 48.605469 20.519531 48.964844 20.519531 49.40625 Z M 20.519531 49.40625 "/>
<g clip-path="url(#clip3)" clip-rule="nonzero">
<path style=" stroke:none;fill-rule:evenodd;fill:rgb(100%,0%,0%);fill-opacity:1;" d="M 184.023438 49.40625 L 183.222656 50.203125 L 186.023438 49.40625 L 183.222656 48.605469 Z M 184.023438 49.40625 "/>
</g>
<g clip-path="url(#clip4)" clip-rule="nonzero">
<path style="fill:none;stroke-width:0.2;stroke-linecap:butt;stroke-linejoin:miter;stroke:rgb(100%,0%,0%);stroke-opacity:1;stroke-miterlimit:4;" d="M -184.023438 -49.40625 L -183.222656 -50.203125 L -186.023438 -49.40625 L -183.222656 -48.605469 Z M -184.023438 -49.40625 " transform="matrix(-1,0.000000000000000122,-0.000000000000000122,-1,0,0)"/>
</g>
<path style=" stroke:none;fill-rule:nonzero;fill:rgb(0%,0%,0%);fill-opacity:1;" d="M 181.226562 62.980469 C 181.300781 62.679688 181.582031 61.574219 182.40625 61.574219 C 182.464844 61.574219 182.765625 61.574219 183.007812 61.726562 C 182.671875 61.800781 182.445312 62.082031 182.445312 62.382812 C 182.445312 62.570312 182.578125 62.792969 182.894531 62.792969 C 183.15625 62.792969 183.53125 62.585938 183.53125 62.101562 C 183.53125 61.480469 182.839844 61.3125 182.425781 61.3125 C 181.734375 61.3125 181.320312 61.949219 181.171875 62.210938 C 180.871094 61.425781 180.234375 61.3125 179.875 61.3125 C 178.640625 61.3125 177.945312 62.851562 177.945312 63.148438 C 177.945312 63.28125 178.078125 63.28125 178.09375 63.28125 C 178.1875 63.28125 178.226562 63.242188 178.246094 63.148438 C 178.65625 61.875 179.445312 61.574219 179.859375 61.574219 C 180.082031 61.574219 180.496094 61.6875 180.496094 62.382812 C 180.496094 62.757812 180.289062 63.542969 179.859375 65.230469 C 179.671875 65.960938 179.238281 66.46875 178.714844 66.46875 C 178.640625 66.46875 178.375 66.46875 178.113281 66.320312 C 178.414062 66.242188 178.675781 66 178.675781 65.664062 C 178.675781 65.34375 178.414062 65.25 178.246094 65.25 C 177.871094 65.25 177.589844 65.550781 177.589844 65.945312 C 177.589844 66.488281 178.171875 66.730469 178.695312 66.730469 C 179.5 66.730469 179.933594 65.886719 179.953125 65.832031 C 180.101562 66.261719 180.53125 66.730469 181.246094 66.730469 C 182.484375 66.730469 183.15625 65.195312 183.15625 64.894531 C 183.15625 64.761719 183.0625 64.761719 183.027344 64.761719 C 182.914062 64.761719 182.894531 64.820312 182.859375 64.894531 C 182.464844 66.1875 181.65625 66.46875 181.28125 66.46875 C 180.8125 66.46875 180.625 66.09375 180.625 65.679688 C 180.625 65.417969 180.683594 65.15625 180.8125 64.632812 Z M 181.226562 62.980469 "/>
</g>
</svg>
