<?xml version="1.0" encoding="UTF-8"?>
<svg xmlns="http://www.w3.org/2000/svg" xmlns:xlink="http://www.w3.org/1999/xlink" width="371.109985pt" height="63.371792pt" viewBox="0 0 371.109985 63.371792" version="1.1">
<defs>
<clipPath id="clip1">
  <path d="M 21 55 L 28 55 L 28 63.371094 L 21 63.371094 Z M 21 55 "/>
</clipPath>
<clipPath id="clip2">
  <path d="M 185 55 L 192 55 L 192 63.371094 L 185 63.371094 Z M 185 55 "/>
</clipPath>
<clipPath id="clip3">
  <path d="M 366 46 L 371.109375 46 L 371.109375 51 L 366 51 Z M 366 46 "/>
</clipPath>
</defs>
<g id="surface1">
<path style=" stroke:none;fill-rule:nonzero;fill:rgb(0%,0%,0%);fill-opacity:1;" d="M 0.992188 58.308594 C 0.992188 56.359375 1.96875 55.851562 2.605469 55.851562 C 2.71875 55.851562 3.46875 55.871094 3.882812 56.304688 C 3.394531 56.339844 3.320312 56.695312 3.320312 56.847656 C 3.320312 57.164062 3.542969 57.390625 3.863281 57.390625 C 4.179688 57.390625 4.425781 57.203125 4.425781 56.828125 C 4.425781 56.023438 3.507812 55.554688 2.585938 55.554688 C 1.085938 55.554688 0 56.847656 0 58.328125 C 0 59.867188 1.179688 61.046875 2.570312 61.046875 C 4.164062 61.046875 4.554688 59.601562 4.554688 59.492188 C 4.554688 59.378906 4.425781 59.378906 4.386719 59.378906 C 4.292969 59.378906 4.257812 59.414062 4.238281 59.492188 C 3.898438 60.597656 3.113281 60.746094 2.679688 60.746094 C 2.042969 60.746094 0.992188 60.242188 0.992188 58.308594 Z M 0.992188 58.308594 "/>
<path style=" stroke:none;fill-rule:nonzero;fill:rgb(0%,0%,0%);fill-opacity:1;" d="M 8.875 60.015625 C 8.929688 60.484375 9.25 60.992188 9.8125 60.992188 C 10.074219 60.992188 10.804688 60.820312 10.804688 59.847656 L 10.804688 59.171875 L 10.507812 59.171875 L 10.507812 59.847656 C 10.507812 60.539062 10.207031 60.617188 10.074219 60.617188 C 9.679688 60.617188 9.625 60.070312 9.625 60.015625 L 9.625 57.632812 C 9.625 57.128906 9.625 56.660156 9.195312 56.210938 C 8.726562 55.742188 8.125 55.554688 7.5625 55.554688 C 6.570312 55.554688 5.742188 56.117188 5.742188 56.902344 C 5.742188 57.257812 5.988281 57.464844 6.304688 57.464844 C 6.644531 57.464844 6.851562 57.222656 6.851562 56.921875 C 6.851562 56.773438 6.792969 56.378906 6.230469 56.378906 C 6.570312 55.945312 7.148438 55.816406 7.523438 55.816406 C 8.125 55.816406 8.800781 56.285156 8.800781 57.351562 L 8.800781 57.785156 C 8.179688 57.820312 7.355469 57.859375 6.605469 58.214844 C 5.707031 58.628906 5.40625 59.246094 5.40625 59.773438 C 5.40625 60.746094 6.570312 61.046875 7.320312 61.046875 C 8.105469 61.046875 8.648438 60.558594 8.875 60.015625 Z M 8.800781 58.046875 L 8.800781 59.246094 C 8.800781 60.371094 7.9375 60.785156 7.394531 60.785156 C 6.8125 60.785156 6.324219 60.371094 6.324219 59.773438 C 6.324219 59.117188 6.832031 58.121094 8.800781 58.046875 Z M 8.800781 58.046875 "/>
<path style=" stroke:none;fill-rule:nonzero;fill:rgb(0%,0%,0%);fill-opacity:1;" d="M 12.191406 56.808594 L 12.191406 60.015625 C 12.191406 60.539062 12.058594 60.539062 11.253906 60.539062 L 11.253906 60.914062 C 11.683594 60.898438 12.285156 60.878906 12.621094 60.878906 C 12.921875 60.878906 13.539062 60.898438 13.953125 60.914062 L 13.953125 60.539062 C 13.148438 60.539062 13.015625 60.539062 13.015625 60.015625 L 13.015625 57.804688 C 13.015625 56.566406 13.878906 55.890625 14.628906 55.890625 C 15.398438 55.890625 15.527344 56.527344 15.527344 57.222656 L 15.527344 60.015625 C 15.527344 60.539062 15.398438 60.539062 14.589844 60.539062 L 14.589844 60.914062 C 15.003906 60.898438 15.621094 60.878906 15.941406 60.878906 C 16.242188 60.878906 16.878906 60.898438 17.273438 60.914062 L 17.273438 60.539062 C 16.484375 60.539062 16.351562 60.539062 16.351562 60.015625 L 16.351562 57.804688 C 16.351562 56.566406 17.195312 55.890625 17.964844 55.890625 C 18.714844 55.890625 18.847656 56.527344 18.847656 57.222656 L 18.847656 60.015625 C 18.847656 60.539062 18.714844 60.539062 17.910156 60.539062 L 17.910156 60.914062 C 18.320312 60.898438 18.941406 60.878906 19.257812 60.878906 C 19.578125 60.878906 20.195312 60.898438 20.609375 60.914062 L 20.609375 60.539062 C 19.992188 60.539062 19.691406 60.539062 19.671875 60.183594 L 19.671875 57.898438 C 19.671875 56.867188 19.671875 56.507812 19.296875 56.078125 C 19.128906 55.871094 18.734375 55.628906 18.039062 55.628906 C 17.046875 55.628906 16.503906 56.339844 16.316406 56.808594 C 16.148438 55.757812 15.265625 55.628906 14.722656 55.628906 C 13.839844 55.628906 13.277344 56.132812 12.941406 56.882812 L 12.941406 55.628906 L 11.253906 55.757812 L 11.253906 56.132812 C 12.097656 56.132812 12.191406 56.210938 12.191406 56.808594 Z M 12.191406 56.808594 "/>
<g clip-path="url(#clip1)" clip-rule="nonzero">
<path style=" stroke:none;fill-rule:nonzero;fill:rgb(0%,0%,0%);fill-opacity:1;" d="M 22.902344 56.414062 L 22.902344 55.628906 L 21.175781 55.757812 L 21.175781 56.132812 C 22.019531 56.132812 22.113281 56.210938 22.113281 56.734375 L 22.113281 62.320312 C 22.113281 62.867188 21.984375 62.867188 21.175781 62.867188 L 21.175781 63.242188 C 21.589844 63.222656 22.207031 63.203125 22.507812 63.203125 C 22.847656 63.203125 23.445312 63.222656 23.859375 63.242188 L 23.859375 62.867188 C 23.070312 62.867188 22.941406 62.867188 22.941406 62.320312 L 22.941406 60.203125 C 22.996094 60.410156 23.503906 61.046875 24.402344 61.046875 C 25.828125 61.046875 27.066406 59.867188 27.066406 58.328125 C 27.066406 56.808594 25.921875 55.628906 24.570312 55.628906 C 23.632812 55.628906 23.128906 56.152344 22.902344 56.414062 Z M 22.941406 59.546875 L 22.941406 56.882812 C 23.277344 56.265625 23.859375 55.929688 24.476562 55.929688 C 25.359375 55.929688 26.070312 56.976562 26.070312 58.328125 C 26.070312 59.773438 25.246094 60.785156 24.363281 60.785156 C 23.878906 60.785156 23.425781 60.539062 23.109375 60.054688 C 22.941406 59.808594 22.941406 59.789062 22.941406 59.546875 Z M 22.941406 59.546875 "/>
</g>
<path style=" stroke:none;fill-rule:nonzero;fill:rgb(0%,0%,0%);fill-opacity:1;" d="M 31.4375 56.132812 C 31.980469 56.132812 32.058594 56.285156 32.058594 56.773438 L 32.058594 60.015625 C 32.058594 60.539062 31.925781 60.539062 31.136719 60.539062 L 31.136719 60.914062 C 31.53125 60.898438 32.152344 60.878906 32.449219 60.878906 C 32.75 60.878906 33.351562 60.898438 33.78125 60.914062 L 33.78125 60.539062 C 32.976562 60.539062 32.84375 60.539062 32.84375 60.015625 L 32.84375 55.609375 L 31.34375 55.722656 C 31.15625 55.742188 31.136719 55.742188 31.136719 55.742188 C 31.101562 55.757812 31.082031 55.757812 30.914062 55.757812 L 29.507812 55.757812 L 29.507812 54.410156 C 29.507812 53.226562 30.539062 52.742188 31.269531 52.742188 C 31.625 52.742188 32.058594 52.871094 32.300781 53.132812 C 31.8125 53.171875 31.738281 53.492188 31.738281 53.695312 C 31.738281 54.089844 32.058594 54.242188 32.28125 54.242188 C 32.5625 54.242188 32.824219 54.054688 32.824219 53.695312 C 32.824219 52.984375 32.167969 52.476562 31.289062 52.476562 C 30.183594 52.476562 28.757812 53.097656 28.757812 54.390625 L 28.757812 55.757812 L 27.800781 55.757812 L 27.800781 56.132812 L 28.757812 56.132812 L 28.757812 60.015625 C 28.757812 60.539062 28.625 60.539062 27.820312 60.539062 L 27.820312 60.914062 C 28.214844 60.898438 28.851562 60.878906 29.152344 60.878906 C 29.449219 60.878906 30.03125 60.898438 30.480469 60.914062 L 30.480469 60.539062 C 29.675781 60.539062 29.542969 60.539062 29.542969 60.015625 L 29.542969 56.132812 Z M 31.4375 56.132812 "/>
<path style=" stroke:none;fill-rule:nonzero;fill:rgb(0%,0%,0%);fill-opacity:1;" d="M 36.132812 56.941406 L 36.132812 55.628906 L 34.460938 55.757812 L 34.460938 56.132812 C 35.304688 56.132812 35.398438 56.210938 35.398438 56.808594 L 35.398438 60.015625 C 35.398438 60.539062 35.269531 60.539062 34.460938 60.539062 L 34.460938 60.914062 C 34.929688 60.898438 35.492188 60.878906 35.832031 60.878906 C 36.300781 60.878906 36.863281 60.878906 37.351562 60.914062 L 37.351562 60.539062 L 37.085938 60.539062 C 36.207031 60.539062 36.1875 60.410156 36.1875 59.976562 L 36.1875 58.140625 C 36.1875 56.960938 36.695312 55.890625 37.59375 55.890625 C 37.667969 55.890625 37.707031 55.890625 37.726562 55.910156 C 37.6875 55.910156 37.445312 56.058594 37.445312 56.378906 C 37.445312 56.695312 37.707031 56.882812 37.96875 56.882812 C 38.175781 56.882812 38.476562 56.734375 38.476562 56.359375 C 38.476562 55.984375 38.101562 55.628906 37.59375 55.628906 C 36.710938 55.628906 36.28125 56.433594 36.132812 56.941406 Z M 36.132812 56.941406 "/>
<path style=" stroke:none;fill-rule:nonzero;fill:rgb(0%,0%,0%);fill-opacity:1;" d="M 40.140625 57.898438 C 40.214844 56.117188 41.226562 55.816406 41.640625 55.816406 C 42.859375 55.816406 42.988281 57.429688 42.988281 57.898438 Z M 40.140625 58.160156 L 43.476562 58.160156 C 43.738281 58.160156 43.777344 58.160156 43.777344 57.898438 C 43.777344 56.714844 43.121094 55.554688 41.640625 55.554688 C 40.25 55.554688 39.144531 56.789062 39.144531 58.289062 C 39.144531 59.882812 40.402344 61.046875 41.769531 61.046875 C 43.234375 61.046875 43.777344 59.714844 43.777344 59.492188 C 43.777344 59.378906 43.683594 59.339844 43.609375 59.339844 C 43.515625 59.339844 43.476562 59.414062 43.457031 59.507812 C 43.046875 60.746094 41.957031 60.746094 41.84375 60.746094 C 41.246094 60.746094 40.777344 60.390625 40.496094 59.941406 C 40.140625 59.378906 40.140625 58.589844 40.140625 58.160156 Z M 40.140625 58.160156 "/>
<path style="fill-rule:nonzero;fill:rgb(31.37207%,17.64679%,8.627319%);fill-opacity:1;stroke-width:0.69282;stroke-linecap:round;stroke-linejoin:miter;stroke:rgb(0%,0%,0%);stroke-opacity:1;stroke-miterlimit:4;" d="M -39.310043 14.413721 L -22.680763 14.413074 L -22.678714 18.570507 L -39.307994 18.571155 Z M -39.310043 14.413721 " transform="matrix(-1,-0.57735,-0.57735,1,0,0)"/>
<path style="fill-rule:nonzero;fill:rgb(100%,0%,0%);fill-opacity:1;stroke-width:0.8;stroke-linecap:round;stroke-linejoin:miter;stroke:rgb(50.195312%,0%,0%);stroke-opacity:1;stroke-miterlimit:4;" d="M -21.472656 36.789062 L -27.707031 25.988281 L -33.945312 15.1875 L -9 15.1875 L -15.238281 25.988281 Z M -21.472656 36.789062 " transform="matrix(-1,0,0,1,0,0)"/>
<path style="fill-rule:nonzero;fill:rgb(31.37207%,17.64679%,8.627319%);fill-opacity:1;stroke-width:0.69282;stroke-linecap:round;stroke-linejoin:miter;stroke:rgb(0%,0%,0%);stroke-opacity:1;stroke-miterlimit:4;" d="M -6.932652 33.638058 L 9.696628 33.637411 L 9.695748 37.793153 L -6.930602 37.795492 Z M -6.932652 33.638058 " transform="matrix(1,-0.57735,0.57735,1,0,0)"/>
<path style="fill:none;stroke-width:0.8;stroke-linecap:butt;stroke-linejoin:miter;stroke:rgb(0%,0%,0%);stroke-opacity:1;stroke-miterlimit:4;" d="M 194.507812 43.589844 L 194.507812 48.390625 L 21.707031 48.390625 L 21.707031 43.589844 "/>
<path style="fill-rule:evenodd;fill:rgb(0%,0%,0%);fill-opacity:1;stroke-width:0.2;stroke-linecap:butt;stroke-linejoin:miter;stroke:rgb(0%,0%,0%);stroke-opacity:1;stroke-miterlimit:4;" d="M 44.375 -194.507812 C 44.375 -194.066406 44.015625 -193.707031 43.574219 -193.707031 C 43.132813 -193.707031 42.773438 -194.066406 42.773438 -194.507812 C 42.773438 -194.949219 43.132813 -195.308594 43.574219 -195.308594 C 44.015625 -195.308594 44.375 -194.949219 44.375 -194.507812 Z M 44.375 -194.507812 " transform="matrix(0.000000000000000061,1,-1,0.000000000000000061,0,0)"/>
<path style="fill-rule:evenodd;fill:rgb(0%,0%,0%);fill-opacity:1;stroke-width:0.2;stroke-linecap:butt;stroke-linejoin:miter;stroke:rgb(0%,0%,0%);stroke-opacity:1;stroke-miterlimit:4;" d="M -42.804688 21.707031 C -42.804688 22.148438 -43.164062 22.507813 -43.605469 22.507813 C -44.046875 22.507813 -44.40625 22.148438 -44.40625 21.707031 C -44.40625 21.265625 -44.046875 20.90625 -43.605469 20.90625 C -43.164062 20.90625 -42.804688 21.265625 -42.804688 21.707031 Z M -42.804688 21.707031 " transform="matrix(0.000000000000000061,-1,1,0.000000000000000061,0,0)"/>
<path style="fill:none;stroke-width:0.8;stroke-linecap:butt;stroke-linejoin:miter;stroke:rgb(0%,0%,0%);stroke-opacity:1;stroke-miterlimit:4;" d="M 194.507812 9.988281 L 194.507812 29.191406 "/>
<path style="fill:none;stroke-width:0.8;stroke-linecap:butt;stroke-linejoin:miter;stroke:rgb(0%,0%,0%);stroke-opacity:1;stroke-miterlimit:4;" d="M 204.105469 9.988281 L 199.308594 14.789062 L 189.707031 14.789062 L 184.90625 19.589844 "/>
<path style="fill:none;stroke-width:0.8;stroke-linecap:butt;stroke-linejoin:miter;stroke:rgb(0%,0%,0%);stroke-opacity:1;stroke-miterlimit:4;" d="M 204.105469 43.589844 L 199.308594 43.589844 L 194.507812 29.191406 L 189.707031 43.589844 L 184.90625 43.589844 "/>
<path style="fill-rule:nonzero;fill:rgb(91.371155%,77.645874%,68.626404%);fill-opacity:1;stroke-width:0.8;stroke-linecap:round;stroke-linejoin:miter;stroke:rgb(0%,0%,0%);stroke-opacity:1;stroke-miterlimit:4;" d="M -189.707031 5.191406 C -189.707031 7.839844 -191.855469 9.988281 -194.507812 9.988281 C -197.160156 9.988281 -199.308594 7.839844 -199.308594 5.191406 C -199.308594 2.539062 -197.160156 0.390625 -194.507812 0.390625 C -191.855469 0.390625 -189.707031 2.539062 -189.707031 5.191406 Z M -189.707031 5.191406 " transform="matrix(-1,0,0,1,0,0)"/>
<g clip-path="url(#clip2)" clip-rule="nonzero">
<path style=" stroke:none;fill-rule:nonzero;fill:rgb(0%,0%,0%);fill-opacity:1;" d="M 190.027344 56.902344 C 190.328125 56.132812 190.945312 56.132812 191.132812 56.132812 L 191.132812 55.757812 C 190.851562 55.777344 190.515625 55.796875 190.234375 55.796875 C 190.027344 55.796875 189.464844 55.777344 189.203125 55.757812 L 189.203125 56.132812 C 189.578125 56.132812 189.765625 56.339844 189.765625 56.640625 C 189.765625 56.773438 189.746094 56.789062 189.691406 56.941406 L 188.472656 59.867188 L 187.160156 56.660156 C 187.101562 56.527344 187.082031 56.492188 187.082031 56.433594 C 187.082031 56.132812 187.515625 56.132812 187.757812 56.132812 L 187.757812 55.757812 C 187.441406 55.777344 186.652344 55.796875 186.445312 55.796875 C 186.128906 55.796875 185.640625 55.777344 185.285156 55.757812 L 185.285156 56.132812 C 185.863281 56.132812 186.089844 56.132812 186.257812 56.546875 L 188.058594 60.914062 C 187.984375 61.066406 187.816406 61.460938 187.757812 61.628906 C 187.496094 62.285156 187.160156 63.109375 186.390625 63.109375 C 186.332031 63.109375 186.050781 63.109375 185.828125 62.882812 C 186.203125 62.847656 186.296875 62.585938 186.296875 62.378906 C 186.296875 62.078125 186.070312 61.890625 185.789062 61.890625 C 185.546875 61.890625 185.285156 62.039062 185.285156 62.398438 C 185.285156 62.941406 185.789062 63.371094 186.390625 63.371094 C 187.140625 63.371094 187.628906 62.679688 187.910156 62.003906 Z M 190.027344 56.902344 "/>
</g>
<path style=" stroke:none;fill-rule:nonzero;fill:rgb(0%,0%,0%);fill-opacity:1;" d="M 196.660156 58.347656 C 196.660156 56.828125 195.476562 55.554688 194.035156 55.554688 C 192.535156 55.554688 191.371094 56.867188 191.371094 58.347656 C 191.371094 59.902344 192.609375 61.046875 194.015625 61.046875 C 195.457031 61.046875 196.660156 59.867188 196.660156 58.347656 Z M 194.035156 60.746094 C 193.507812 60.746094 192.984375 60.503906 192.664062 59.941406 C 192.363281 59.414062 192.363281 58.683594 192.363281 58.253906 C 192.363281 57.785156 192.363281 57.148438 192.644531 56.621094 C 192.964844 56.078125 193.527344 55.816406 194.015625 55.816406 C 194.539062 55.816406 195.046875 56.078125 195.363281 56.601562 C 195.683594 57.109375 195.683594 57.804688 195.683594 58.253906 C 195.683594 58.683594 195.683594 59.339844 195.421875 59.867188 C 195.140625 60.410156 194.613281 60.746094 194.035156 60.746094 Z M 194.035156 60.746094 "/>
<path style=" stroke:none;fill-rule:nonzero;fill:rgb(0%,0%,0%);fill-opacity:1;" d="M 201.679688 59.976562 L 201.679688 61.046875 L 203.40625 60.914062 L 203.40625 60.539062 C 202.578125 60.539062 202.484375 60.464844 202.484375 59.867188 L 202.484375 55.628906 L 200.722656 55.757812 L 200.722656 56.132812 C 201.546875 56.132812 201.660156 56.210938 201.660156 56.808594 L 201.660156 58.929688 C 201.660156 59.976562 201.078125 60.785156 200.199219 60.785156 C 199.203125 60.785156 199.148438 60.222656 199.148438 59.601562 L 199.148438 55.628906 L 197.386719 55.757812 L 197.386719 56.132812 C 198.324219 56.132812 198.324219 56.171875 198.324219 57.222656 L 198.324219 59.023438 C 198.324219 59.960938 198.324219 61.046875 200.140625 61.046875 C 200.816406 61.046875 201.34375 60.710938 201.679688 59.976562 Z M 201.679688 59.976562 "/>
<path style="fill:none;stroke-width:0.8;stroke-linecap:butt;stroke-linejoin:miter;stroke:rgb(100%,0%,0%);stroke-opacity:1;stroke-miterlimit:4;" d="M 250.582031 53.8125 L 250.582031 15.410156 "/>
<path style="fill-rule:evenodd;fill:rgb(100%,0%,0%);fill-opacity:1;stroke-width:0.2;stroke-linecap:butt;stroke-linejoin:miter;stroke:rgb(100%,0%,0%);stroke-opacity:1;stroke-miterlimit:4;" d="M -53.027344 250.582031 C -53.027344 251.023438 -53.386719 251.382812 -53.828125 251.382812 C -54.269531 251.382812 -54.628906 251.023438 -54.628906 250.582031 C -54.628906 250.140625 -54.269531 249.785156 -53.828125 249.785156 C -53.386719 249.785156 -53.027344 250.140625 -53.027344 250.582031 Z M -53.027344 250.582031 " transform="matrix(0.000000000000000061,-1,1,0.000000000000000061,0,0)"/>
<path style="fill-rule:evenodd;fill:rgb(100%,0%,0%);fill-opacity:1;stroke-width:0.2;stroke-linecap:butt;stroke-linejoin:miter;stroke:rgb(100%,0%,0%);stroke-opacity:1;stroke-miterlimit:4;" d="M 16.371094 -250.582031 L 17.171875 -251.382812 L 14.371094 -250.582031 L 17.171875 -249.785156 Z M 16.371094 -250.582031 " transform="matrix(0.000000000000000061,1,-1,0.000000000000000061,0,0)"/>
<path style="fill:none;stroke-width:0.8;stroke-linecap:butt;stroke-linejoin:miter;stroke:rgb(100%,0%,0%);stroke-opacity:1;stroke-miterlimit:4;" d="M 245.785156 48.789062 L 369.703125 48.789062 "/>
<path style="fill-rule:evenodd;fill:rgb(100%,0%,0%);fill-opacity:1;stroke-width:0.2;stroke-linecap:butt;stroke-linejoin:miter;stroke:rgb(100%,0%,0%);stroke-opacity:1;stroke-miterlimit:4;" d="M 246.566406 48.789062 C 246.566406 49.230469 246.210938 49.585938 245.765625 49.585938 C 245.324219 49.585938 244.96875 49.230469 244.96875 48.789062 C 244.96875 48.347656 245.324219 47.988281 245.765625 47.988281 C 246.210938 47.988281 246.566406 48.347656 246.566406 48.789062 Z M 246.566406 48.789062 "/>
<path style=" stroke:none;fill-rule:evenodd;fill:rgb(100%,0%,0%);fill-opacity:1;" d="M 368.746094 48.789062 L 367.945312 49.585938 L 370.746094 48.789062 L 367.945312 47.988281 Z M 368.746094 48.789062 "/>
<g clip-path="url(#clip3)" clip-rule="nonzero">
<path style="fill:none;stroke-width:0.2;stroke-linecap:butt;stroke-linejoin:miter;stroke:rgb(100%,0%,0%);stroke-opacity:1;stroke-miterlimit:4;" d="M -368.746094 -48.789063 L -367.945312 -49.585938 L -370.746094 -48.789063 L -367.945312 -47.988281 Z M -368.746094 -48.789063 " transform="matrix(-1,0.000000000000000122,-0.000000000000000122,-1,0,0)"/>
</g>
<path style=" stroke:none;fill-rule:nonzero;fill:rgb(0%,0%,0%);fill-opacity:1;" d="M 229.039062 20.675781 L 230.070312 20.675781 C 230.3125 20.675781 230.425781 20.675781 230.425781 20.429688 C 230.425781 20.300781 230.3125 20.300781 230.109375 20.300781 L 229.113281 20.300781 L 229.359375 18.929688 C 229.414062 18.6875 229.582031 17.84375 229.65625 17.691406 C 229.75 17.46875 229.957031 17.28125 230.21875 17.28125 C 230.257812 17.28125 230.578125 17.28125 230.800781 17.503906 C 230.277344 17.542969 230.144531 17.972656 230.144531 18.144531 C 230.144531 18.425781 230.371094 18.574219 230.59375 18.574219 C 230.914062 18.574219 231.25 18.292969 231.25 17.84375 C 231.25 17.300781 230.707031 17.019531 230.21875 17.019531 C 229.808594 17.019531 229.058594 17.242188 228.703125 18.425781 C 228.625 18.667969 228.589844 18.800781 228.308594 20.300781 L 227.484375 20.300781 C 227.238281 20.300781 227.109375 20.300781 227.109375 20.523438 C 227.109375 20.675781 227.21875 20.675781 227.445312 20.675781 L 228.234375 20.675781 L 227.351562 25.398438 C 227.125 26.5625 226.921875 27.648438 226.300781 27.648438 C 226.246094 27.648438 225.964844 27.648438 225.71875 27.425781 C 226.28125 27.386719 226.394531 26.957031 226.394531 26.785156 C 226.394531 26.503906 226.171875 26.355469 225.945312 26.355469 C 225.625 26.355469 225.289062 26.636719 225.289062 27.085938 C 225.289062 27.613281 225.8125 27.910156 226.300781 27.910156 C 226.957031 27.910156 227.445312 27.199219 227.652344 26.75 C 228.046875 26 228.308594 24.554688 228.328125 24.460938 Z M 229.039062 20.675781 "/>
<path style=" stroke:none;fill-rule:nonzero;fill:rgb(0%,0%,0%);fill-opacity:1;" d="M 235.746094 28.324219 C 235.746094 28.285156 235.746094 28.269531 235.542969 28.0625 C 234.058594 26.5625 233.667969 24.292969 233.667969 22.457031 C 233.667969 20.375 234.117188 18.292969 235.597656 16.8125 C 235.746094 16.660156 235.746094 16.644531 235.746094 16.605469 C 235.746094 16.511719 235.710938 16.472656 235.636719 16.472656 C 235.503906 16.472656 234.433594 17.300781 233.722656 18.816406 C 233.121094 20.128906 232.972656 21.460938 232.972656 22.457031 C 232.972656 23.394531 233.105469 24.835938 233.761719 26.207031 C 234.492188 27.667969 235.503906 28.457031 235.636719 28.457031 C 235.710938 28.457031 235.746094 28.417969 235.746094 28.324219 Z M 235.746094 28.324219 "/>
<path style=" stroke:none;fill-rule:nonzero;fill:rgb(0%,0%,0%);fill-opacity:1;" d="M 240.433594 21.835938 C 240.507812 21.535156 240.789062 20.429688 241.617188 20.429688 C 241.671875 20.429688 241.972656 20.429688 242.214844 20.582031 C 241.878906 20.65625 241.652344 20.9375 241.652344 21.238281 C 241.652344 21.425781 241.785156 21.648438 242.101562 21.648438 C 242.367188 21.648438 242.742188 21.441406 242.742188 20.957031 C 242.742188 20.335938 242.046875 20.167969 241.632812 20.167969 C 240.941406 20.167969 240.527344 20.804688 240.378906 21.066406 C 240.078125 20.28125 239.441406 20.167969 239.085938 20.167969 C 237.847656 20.167969 237.152344 21.707031 237.152344 22.003906 C 237.152344 22.136719 237.285156 22.136719 237.304688 22.136719 C 237.398438 22.136719 237.433594 22.097656 237.453125 22.003906 C 237.867188 20.730469 238.652344 20.429688 239.066406 20.429688 C 239.289062 20.429688 239.703125 20.542969 239.703125 21.238281 C 239.703125 21.613281 239.496094 22.398438 239.066406 24.085938 C 238.878906 24.816406 238.445312 25.324219 237.921875 25.324219 C 237.847656 25.324219 237.585938 25.324219 237.320312 25.175781 C 237.621094 25.097656 237.882812 24.855469 237.882812 24.519531 C 237.882812 24.199219 237.621094 24.105469 237.453125 24.105469 C 237.078125 24.105469 236.796875 24.40625 236.796875 24.800781 C 236.796875 25.34375 237.378906 25.585938 237.902344 25.585938 C 238.710938 25.585938 239.140625 24.742188 239.160156 24.6875 C 239.308594 25.117188 239.742188 25.585938 240.453125 25.585938 C 241.691406 25.585938 242.367188 24.050781 242.367188 23.75 C 242.367188 23.617188 242.273438 23.617188 242.234375 23.617188 C 242.121094 23.617188 242.101562 23.675781 242.066406 23.75 C 241.671875 25.042969 240.867188 25.324219 240.492188 25.324219 C 240.023438 25.324219 239.835938 24.949219 239.835938 24.535156 C 239.835938 24.273438 239.890625 24.011719 240.023438 23.488281 Z M 240.433594 21.835938 "/>
<path style=" stroke:none;fill-rule:nonzero;fill:rgb(0%,0%,0%);fill-opacity:1;" d="M 246.722656 22.457031 C 246.722656 21.535156 246.59375 20.09375 245.9375 18.722656 C 245.222656 17.261719 244.191406 16.472656 244.078125 16.472656 C 244.003906 16.472656 243.949219 16.53125 243.949219 16.605469 C 243.949219 16.644531 243.949219 16.660156 244.171875 16.886719 C 245.355469 18.066406 246.03125 19.960938 246.03125 22.457031 C 246.03125 24.519531 245.597656 26.617188 244.117188 28.117188 C 243.949219 28.269531 243.949219 28.285156 243.949219 28.324219 C 243.949219 28.398438 244.003906 28.457031 244.078125 28.457031 C 244.191406 28.457031 245.28125 27.628906 245.972656 26.113281 C 246.59375 24.800781 246.722656 23.46875 246.722656 22.457031 Z M 246.722656 22.457031 "/>
<path style=" stroke:none;fill-rule:nonzero;fill:rgb(0%,0%,0%);fill-opacity:1;" d="M 364.328125 54.589844 C 364.402344 54.289062 364.683594 53.183594 365.507812 53.183594 C 365.5625 53.183594 365.863281 53.183594 366.109375 53.332031 C 365.769531 53.40625 365.546875 53.6875 365.546875 53.988281 C 365.546875 54.175781 365.675781 54.402344 365.996094 54.402344 C 366.257812 54.402344 366.632812 54.195312 366.632812 53.707031 C 366.632812 53.089844 365.9375 52.917969 365.527344 52.917969 C 364.832031 52.917969 364.421875 53.558594 364.269531 53.820312 C 363.96875 53.03125 363.332031 52.917969 362.976562 52.917969 C 361.738281 52.917969 361.046875 54.457031 361.046875 54.757812 C 361.046875 54.886719 361.175781 54.886719 361.195312 54.886719 C 361.289062 54.886719 361.328125 54.851562 361.34375 54.757812 C 361.757812 53.480469 362.546875 53.183594 362.957031 53.183594 C 363.183594 53.183594 363.59375 53.292969 363.59375 53.988281 C 363.59375 54.363281 363.390625 55.152344 362.957031 56.839844 C 362.769531 57.570312 362.339844 58.074219 361.8125 58.074219 C 361.738281 58.074219 361.476562 58.074219 361.214844 57.925781 C 361.515625 57.851562 361.777344 57.605469 361.777344 57.269531 C 361.777344 56.949219 361.515625 56.855469 361.34375 56.855469 C 360.96875 56.855469 360.6875 57.15625 360.6875 57.550781 C 360.6875 58.09375 361.269531 58.339844 361.796875 58.339844 C 362.601562 58.339844 363.03125 57.496094 363.050781 57.4375 C 363.203125 57.871094 363.632812 58.339844 364.34375 58.339844 C 365.582031 58.339844 366.257812 56.800781 366.257812 56.5 C 366.257812 56.371094 366.164062 56.371094 366.125 56.371094 C 366.015625 56.371094 365.996094 56.425781 365.957031 56.5 C 365.5625 57.792969 364.757812 58.074219 364.382812 58.074219 C 363.914062 58.074219 363.726562 57.699219 363.726562 57.289062 C 363.726562 57.027344 363.78125 56.761719 363.914062 56.238281 Z M 364.328125 54.589844 "/>
<path style="fill:none;stroke-width:0.8;stroke-linecap:butt;stroke-linejoin:miter;stroke:rgb(0%,0%,0%);stroke-opacity:1;stroke-miterlimit:4;" d="M 258.730469 19.128906 C 258.730469 19.128906 267.367188 28.230469 283.304688 33.78125 C 299.242188 39.332031 355.304688 43.382812 355.304688 43.382812 "/>
<path style=" stroke:none;fill-rule:nonzero;fill:rgb(0%,0%,0%);fill-opacity:1;" d="M 104.839844 38.429688 C 104.914062 38.128906 105.195312 37.023438 106.019531 37.023438 C 106.078125 37.023438 106.378906 37.023438 106.621094 37.171875 C 106.285156 37.246094 106.058594 37.527344 106.058594 37.828125 C 106.058594 38.015625 106.191406 38.242188 106.507812 38.242188 C 106.769531 38.242188 107.144531 38.035156 107.144531 37.546875 C 107.144531 36.929688 106.453125 36.761719 106.039062 36.761719 C 105.347656 36.761719 104.933594 37.398438 104.785156 37.660156 C 104.484375 36.871094 103.847656 36.761719 103.488281 36.761719 C 102.253906 36.761719 101.558594 38.296875 101.558594 38.597656 C 101.558594 38.730469 101.691406 38.730469 101.707031 38.730469 C 101.800781 38.730469 101.839844 38.691406 101.859375 38.597656 C 102.269531 37.324219 103.058594 37.023438 103.472656 37.023438 C 103.695312 37.023438 104.109375 37.136719 104.109375 37.828125 C 104.109375 38.203125 103.902344 38.992188 103.472656 40.679688 C 103.285156 41.410156 102.851562 41.917969 102.328125 41.917969 C 102.253906 41.917969 101.988281 41.917969 101.726562 41.765625 C 102.027344 41.691406 102.289062 41.449219 102.289062 41.109375 C 102.289062 40.792969 102.027344 40.699219 101.859375 40.699219 C 101.484375 40.699219 101.203125 40.996094 101.203125 41.390625 C 101.203125 41.933594 101.785156 42.179688 102.308594 42.179688 C 103.113281 42.179688 103.546875 41.335938 103.566406 41.277344 C 103.714844 41.710938 104.144531 42.179688 104.859375 42.179688 C 106.097656 42.179688 106.769531 40.640625 106.769531 40.339844 C 106.769531 40.210938 106.675781 40.210938 106.640625 40.210938 C 106.527344 40.210938 106.507812 40.265625 106.472656 40.339844 C 106.078125 41.636719 105.269531 41.917969 104.894531 41.917969 C 104.425781 41.917969 104.238281 41.542969 104.238281 41.128906 C 104.238281 40.867188 104.296875 40.605469 104.425781 40.078125 Z M 104.839844 38.429688 "/>
<path style=" stroke:none;fill-rule:nonzero;fill:rgb(0%,0%,0%);fill-opacity:1;" d="M 111.636719 44.917969 C 111.636719 44.878906 111.636719 44.859375 111.429688 44.652344 C 109.949219 43.152344 109.554688 40.886719 109.554688 39.046875 C 109.554688 36.964844 110.003906 34.886719 111.484375 33.402344 C 111.636719 33.253906 111.636719 33.234375 111.636719 33.199219 C 111.636719 33.105469 111.597656 33.066406 111.523438 33.066406 C 111.390625 33.066406 110.324219 33.890625 109.609375 35.410156 C 109.011719 36.722656 108.859375 38.054688 108.859375 39.046875 C 108.859375 39.984375 108.992188 41.429688 109.648438 42.796875 C 110.378906 44.261719 111.390625 45.046875 111.523438 45.046875 C 111.597656 45.046875 111.636719 45.011719 111.636719 44.917969 Z M 111.636719 44.917969 "/>
<path style=" stroke:none;fill-rule:nonzero;fill:rgb(0%,0%,0%);fill-opacity:1;" d="M 114.785156 37.265625 L 115.910156 37.265625 C 116.152344 37.265625 116.285156 37.265625 116.285156 37.023438 C 116.285156 36.890625 116.152344 36.890625 115.945312 36.890625 L 114.898438 36.890625 C 115.328125 35.183594 115.382812 34.960938 115.382812 34.886719 C 115.382812 34.679688 115.234375 34.566406 115.027344 34.566406 C 114.992188 34.566406 114.652344 34.566406 114.558594 34.996094 L 114.089844 36.890625 L 112.964844 36.890625 C 112.722656 36.890625 112.609375 36.890625 112.609375 37.117188 C 112.609375 37.265625 112.703125 37.265625 112.945312 37.265625 L 113.996094 37.265625 C 113.132812 40.660156 113.078125 40.867188 113.078125 41.074219 C 113.078125 41.730469 113.527344 42.179688 114.183594 42.179688 C 115.402344 42.179688 116.078125 40.433594 116.078125 40.339844 C 116.078125 40.210938 115.984375 40.210938 115.945312 40.210938 C 115.835938 40.210938 115.816406 40.246094 115.757812 40.378906 C 115.253906 41.636719 114.617188 41.917969 114.203125 41.917969 C 113.960938 41.917969 113.828125 41.765625 113.828125 41.371094 C 113.828125 41.074219 113.867188 40.996094 113.902344 40.792969 Z M 114.785156 37.265625 "/>
<path style=" stroke:none;fill-rule:nonzero;fill:rgb(0%,0%,0%);fill-opacity:1;" d="M 120.09375 39.046875 C 120.09375 38.128906 119.964844 36.683594 119.308594 35.316406 C 118.59375 33.855469 117.5625 33.066406 117.453125 33.066406 C 117.375 33.066406 117.320312 33.121094 117.320312 33.199219 C 117.320312 33.234375 117.320312 33.253906 117.546875 33.480469 C 118.726562 34.660156 119.402344 36.554688 119.402344 39.046875 C 119.402344 41.109375 118.96875 43.210938 117.488281 44.710938 C 117.320312 44.859375 117.320312 44.878906 117.320312 44.917969 C 117.320312 44.992188 117.375 45.046875 117.453125 45.046875 C 117.5625 45.046875 118.652344 44.222656 119.34375 42.703125 C 119.964844 41.390625 120.09375 40.058594 120.09375 39.046875 Z M 120.09375 39.046875 "/>
</g>
</svg>
