<?xml version="1.0" encoding="UTF-8"?>
<svg xmlns="http://www.w3.org/2000/svg" xmlns:xlink="http://www.w3.org/1999/xlink" width="608.022949pt" height="204.822968pt" viewBox="0 0 608.022949 204.822968" version="1.1">
<defs>
<clipPath id="clip1">
  <path d="M 460 0 L 608.023438 0 L 608.023438 204.824219 L 460 204.824219 Z M 460 0 "/>
</clipPath>
<clipPath id="clip2">
  <path d="M 460 86 L 551 86 L 551 204.824219 L 460 204.824219 Z M 460 86 "/>
</clipPath>
<clipPath id="clip3">
  <path d="M 490 0 L 608.023438 0 L 608.023438 204.824219 L 490 204.824219 Z M 490 0 "/>
</clipPath>
</defs>
<g id="surface1">
<path style="fill:none;stroke-width:3.2;stroke-linecap:round;stroke-linejoin:round;stroke:rgb(0%,0%,0%);stroke-opacity:1;stroke-miterlimit:4;" d="M 260.824219 1.601562 L 404.824219 1.601562 L 404.824219 174.398438 "/>
<path style="fill:none;stroke-width:3.2;stroke-linecap:round;stroke-linejoin:round;stroke:rgb(0%,0%,0%);stroke-opacity:1;stroke-miterlimit:4;" d="M 260.824219 88 L 347.222656 88 L 347.222656 174.398438 "/>
<path style="fill:none;stroke-width:0.8;stroke-linecap:butt;stroke-linejoin:miter;stroke:rgb(100%,0%,0%);stroke-opacity:1;stroke-miterlimit:4;" d="M 256.023438 6.398438 L 256.023438 83.199219 "/>
<path style="fill-rule:evenodd;fill:rgb(100%,0%,0%);fill-opacity:1;stroke-width:0.4;stroke-linecap:butt;stroke-linejoin:miter;stroke:rgb(100%,0%,0%);stroke-opacity:1;stroke-miterlimit:4;" d="M 9.601562 -256.023438 L 11.199219 -257.621094 L 5.601562 -256.023438 L 11.199219 -254.421875 Z M 9.601562 -256.023438 " transform="matrix(0,1,-1,0,0,0)"/>
<path style="fill-rule:evenodd;fill:rgb(100%,0%,0%);fill-opacity:1;stroke-width:0.4;stroke-linecap:butt;stroke-linejoin:miter;stroke:rgb(100%,0%,0%);stroke-opacity:1;stroke-miterlimit:4;" d="M -80 256.023438 L -78.398438 254.421875 L -84 256.023438 L -78.398438 257.621094 Z M -80 256.023438 " transform="matrix(0,-1,1,0,0,0)"/>
<path style="fill:none;stroke-width:0.8;stroke-linecap:butt;stroke-linejoin:miter;stroke:rgb(100%,0%,0%);stroke-opacity:1;stroke-miterlimit:4;" d="M 400.023438 179.199219 L 352.023438 179.199219 "/>
<path style="fill-rule:evenodd;fill:rgb(100%,0%,0%);fill-opacity:1;stroke-width:0.4;stroke-linecap:butt;stroke-linejoin:miter;stroke:rgb(100%,0%,0%);stroke-opacity:1;stroke-miterlimit:4;" d="M -396.824219 -179.199219 L -395.222656 -180.800781 L -400.824219 -179.199219 L -395.222656 -177.601562 Z M -396.824219 -179.199219 " transform="matrix(-1,0,0,-1,0,0)"/>
<path style="fill-rule:evenodd;fill:rgb(100%,0%,0%);fill-opacity:1;stroke-width:0.4;stroke-linecap:butt;stroke-linejoin:miter;stroke:rgb(100%,0%,0%);stroke-opacity:1;stroke-miterlimit:4;" d="M 355.222656 179.199219 L 356.824219 177.601562 L 351.222656 179.199219 L 356.824219 180.800781 Z M 355.222656 179.199219 "/>
<path style=" stroke:none;fill-rule:nonzero;fill:rgb(0%,0%,0%);fill-opacity:1;" d="M 235.972656 44.3125 C 237.273438 43.886719 238.199219 42.789062 238.199219 41.511719 C 238.199219 40.210938 236.796875 39.3125 235.273438 39.3125 C 233.671875 39.3125 232.449219 40.261719 232.449219 41.488281 C 232.449219 42.011719 232.796875 42.3125 233.273438 42.3125 C 233.746094 42.3125 234.074219 41.960938 234.074219 41.488281 C 234.074219 40.710938 233.324219 40.710938 233.097656 40.710938 C 233.574219 39.914062 234.621094 39.710938 235.199219 39.710938 C 235.871094 39.710938 236.746094 40.0625 236.746094 41.488281 C 236.746094 41.6875 236.699219 42.613281 236.296875 43.3125 C 235.824219 44.085938 235.273438 44.136719 234.871094 44.136719 C 234.746094 44.164062 234.371094 44.1875 234.246094 44.1875 C 234.121094 44.210938 234.023438 44.238281 234.023438 44.386719 C 234.023438 44.5625 234.121094 44.5625 234.398438 44.5625 L 235.097656 44.5625 C 236.398438 44.5625 236.996094 45.636719 236.996094 47.210938 C 236.996094 49.386719 235.898438 49.835938 235.199219 49.835938 C 234.496094 49.835938 233.296875 49.5625 232.746094 48.636719 C 233.296875 48.710938 233.796875 48.363281 233.796875 47.761719 C 233.796875 47.1875 233.371094 46.863281 232.921875 46.863281 C 232.523438 46.863281 232.023438 47.085938 232.023438 47.789062 C 232.023438 49.238281 233.496094 50.289062 235.246094 50.289062 C 237.199219 50.289062 238.648438 48.835938 238.648438 47.210938 C 238.648438 45.914062 237.621094 44.664062 235.972656 44.3125 Z M 235.972656 44.3125 "/>
<path style=" stroke:none;fill-rule:nonzero;fill:rgb(0%,0%,0%);fill-opacity:1;" d="M 240.71875 48.988281 C 240.667969 49.238281 240.566406 49.613281 240.566406 49.6875 C 240.566406 49.960938 240.792969 50.113281 241.042969 50.113281 C 241.242188 50.113281 241.515625 49.988281 241.640625 49.664062 C 241.640625 49.636719 241.84375 48.886719 241.941406 48.488281 L 242.292969 47.0625 C 242.367188 46.6875 242.46875 46.335938 242.566406 45.988281 C 242.617188 45.710938 242.742188 45.238281 242.765625 45.1875 C 242.992188 44.6875 243.84375 43.238281 245.367188 43.238281 C 246.09375 43.238281 246.21875 43.835938 246.21875 44.363281 C 246.21875 44.761719 246.117188 45.210938 245.992188 45.6875 L 245.542969 47.539062 L 245.21875 48.738281 C 245.167969 49.0625 245.015625 49.613281 245.015625 49.6875 C 245.015625 49.960938 245.242188 50.113281 245.46875 50.113281 C 245.96875 50.113281 246.066406 49.710938 246.191406 49.210938 C 246.417969 48.3125 247.015625 45.988281 247.140625 45.363281 C 247.191406 45.164062 248.042969 43.238281 249.792969 43.238281 C 250.46875 43.238281 250.640625 43.789062 250.640625 44.363281 C 250.640625 45.261719 249.96875 47.085938 249.640625 47.9375 C 249.515625 48.3125 249.441406 48.488281 249.441406 48.8125 C 249.441406 49.5625 249.992188 50.113281 250.742188 50.113281 C 252.242188 50.113281 252.84375 47.789062 252.84375 47.664062 C 252.84375 47.488281 252.691406 47.488281 252.640625 47.488281 C 252.492188 47.488281 252.492188 47.539062 252.417969 47.789062 C 252.167969 48.636719 251.667969 49.761719 250.792969 49.761719 C 250.515625 49.761719 250.390625 49.613281 250.390625 49.238281 C 250.390625 48.835938 250.542969 48.460938 250.691406 48.113281 C 250.992188 47.261719 251.667969 45.511719 251.667969 44.585938 C 251.667969 43.5625 251.015625 42.886719 249.816406 42.886719 C 248.640625 42.886719 247.816406 43.585938 247.21875 44.4375 C 247.21875 44.238281 247.167969 43.6875 246.71875 43.3125 C 246.316406 42.960938 245.816406 42.886719 245.417969 42.886719 C 243.96875 42.886719 243.191406 43.914062 242.917969 44.289062 C 242.84375 43.363281 242.167969 42.886719 241.441406 42.886719 C 240.71875 42.886719 240.417969 43.511719 240.265625 43.789062 C 239.992188 44.363281 239.792969 45.289062 239.792969 45.335938 C 239.792969 45.511719 239.941406 45.511719 239.96875 45.511719 C 240.140625 45.511719 240.140625 45.488281 240.242188 45.136719 C 240.515625 44.011719 240.84375 43.238281 241.417969 43.238281 C 241.667969 43.238281 241.890625 43.363281 241.890625 43.960938 C 241.890625 44.3125 241.84375 44.488281 241.640625 45.3125 Z M 240.71875 48.988281 "/>
<path style=" stroke:none;fill-rule:nonzero;fill:rgb(0%,0%,0%);fill-opacity:1;" d="M 366.902344 192.710938 L 368.601562 191.0625 C 371.074219 188.863281 372.027344 188.011719 372.027344 186.414062 C 372.027344 184.585938 370.601562 183.3125 368.652344 183.3125 C 366.851562 183.3125 365.675781 184.789062 365.675781 186.210938 C 365.675781 187.085938 366.476562 187.085938 366.527344 187.085938 C 366.800781 187.085938 367.351562 186.914062 367.351562 186.238281 C 367.351562 185.835938 367.050781 185.414062 366.5 185.414062 C 366.375 185.414062 366.351562 185.414062 366.300781 185.4375 C 366.652344 184.386719 367.527344 183.8125 368.449219 183.8125 C 369.902344 183.8125 370.574219 185.113281 370.574219 186.414062 C 370.574219 187.6875 369.800781 188.9375 368.902344 189.9375 L 365.851562 193.335938 C 365.675781 193.511719 365.675781 193.5625 365.675781 193.9375 L 371.601562 193.9375 L 372.027344 191.164062 L 371.652344 191.164062 C 371.550781 191.636719 371.449219 192.335938 371.277344 192.585938 C 371.175781 192.710938 370.125 192.710938 369.777344 192.710938 Z M 366.902344 192.710938 "/>
<path style=" stroke:none;fill-rule:nonzero;fill:rgb(0%,0%,0%);fill-opacity:1;" d="M 374.246094 192.988281 C 374.195312 193.238281 374.09375 193.613281 374.09375 193.6875 C 374.09375 193.960938 374.320312 194.113281 374.570312 194.113281 C 374.769531 194.113281 375.046875 193.988281 375.171875 193.664062 C 375.171875 193.636719 375.371094 192.886719 375.46875 192.488281 L 375.820312 191.0625 C 375.894531 190.6875 375.996094 190.335938 376.09375 189.988281 C 376.144531 189.710938 376.269531 189.238281 376.296875 189.1875 C 376.519531 188.6875 377.371094 187.238281 378.894531 187.238281 C 379.621094 187.238281 379.746094 187.835938 379.746094 188.363281 C 379.746094 188.761719 379.644531 189.210938 379.519531 189.6875 L 379.070312 191.539062 L 378.746094 192.738281 C 378.695312 193.0625 378.546875 193.613281 378.546875 193.6875 C 378.546875 193.960938 378.769531 194.113281 378.996094 194.113281 C 379.496094 194.113281 379.59375 193.710938 379.71875 193.210938 C 379.945312 192.3125 380.546875 189.988281 380.671875 189.363281 C 380.71875 189.164062 381.570312 187.238281 383.320312 187.238281 C 383.996094 187.238281 384.171875 187.789062 384.171875 188.363281 C 384.171875 189.261719 383.496094 191.085938 383.171875 191.9375 C 383.046875 192.3125 382.96875 192.488281 382.96875 192.8125 C 382.96875 193.5625 383.519531 194.113281 384.269531 194.113281 C 385.769531 194.113281 386.371094 191.789062 386.371094 191.664062 C 386.371094 191.488281 386.21875 191.488281 386.171875 191.488281 C 386.019531 191.488281 386.019531 191.539062 385.945312 191.789062 C 385.695312 192.636719 385.195312 193.761719 384.320312 193.761719 C 384.046875 193.761719 383.921875 193.613281 383.921875 193.238281 C 383.921875 192.835938 384.070312 192.460938 384.21875 192.113281 C 384.519531 191.261719 385.195312 189.511719 385.195312 188.585938 C 385.195312 187.5625 384.546875 186.886719 383.34375 186.886719 C 382.171875 186.886719 381.34375 187.585938 380.746094 188.4375 C 380.746094 188.238281 380.695312 187.6875 380.246094 187.3125 C 379.84375 186.960938 379.34375 186.886719 378.945312 186.886719 C 377.496094 186.886719 376.71875 187.914062 376.445312 188.289062 C 376.371094 187.363281 375.695312 186.886719 374.96875 186.886719 C 374.246094 186.886719 373.945312 187.511719 373.796875 187.789062 C 373.519531 188.363281 373.320312 189.289062 373.320312 189.335938 C 373.320312 189.511719 373.46875 189.511719 373.496094 189.511719 C 373.671875 189.511719 373.671875 189.488281 373.769531 189.136719 C 374.046875 188.011719 374.371094 187.238281 374.945312 187.238281 C 375.195312 187.238281 375.421875 187.363281 375.421875 187.960938 C 375.421875 188.3125 375.371094 188.488281 375.171875 189.3125 Z M 374.246094 192.988281 "/>
<path style=" stroke:none;fill-rule:nonzero;fill:rgb(0%,0%,0%);fill-opacity:1;" d="M 332.824219 75.050781 C 332.824219 74 332.546875 71.773438 330.921875 71.773438 C 328.699219 71.773438 326.246094 76.273438 326.246094 79.925781 C 326.246094 81.425781 326.699219 83.199219 328.148438 83.199219 C 330.398438 83.199219 332.824219 78.625 332.824219 75.050781 Z M 327.921875 77.226562 C 328.199219 76.226562 328.523438 74.949219 329.171875 73.800781 C 329.597656 73.023438 330.171875 72.125 330.898438 72.125 C 331.671875 72.125 331.773438 73.148438 331.773438 74.050781 C 331.773438 74.851562 331.648438 75.648438 331.273438 77.226562 Z M 331.121094 77.75 C 330.949219 78.476562 330.621094 79.824219 329.996094 80.976562 C 329.449219 82.074219 328.847656 82.851562 328.148438 82.851562 C 327.621094 82.851562 327.296875 82.375 327.296875 80.898438 C 327.296875 80.226562 327.398438 79.300781 327.796875 77.75 Z M 331.121094 77.75 "/>
<path style="fill:none;stroke-width:0.8;stroke-linecap:butt;stroke-linejoin:miter;stroke:rgb(0%,0%,0%);stroke-opacity:1;stroke-dasharray:0.8,0.8;stroke-miterlimit:4;" d="M 289.621094 6.398438 L 289.621094 83.199219 "/>
<path style="fill:none;stroke-width:0.8;stroke-linecap:butt;stroke-linejoin:miter;stroke:rgb(0%,0%,0%);stroke-opacity:1;stroke-dasharray:0.8,0.8;stroke-miterlimit:4;" d="M 395.21875 159.199219 L 352.019531 159.601562 "/>
<path style=" stroke:none;fill-rule:nonzero;fill:rgb(0%,0%,0%);fill-opacity:1;" d="M 387.398438 148.648438 C 387.398438 147.601562 387.121094 145.375 385.496094 145.375 C 383.273438 145.375 380.824219 149.875 380.824219 153.523438 C 380.824219 155.023438 381.273438 156.800781 382.722656 156.800781 C 384.972656 156.800781 387.398438 152.226562 387.398438 148.648438 Z M 382.496094 150.824219 C 382.773438 149.824219 383.097656 148.550781 383.746094 147.398438 C 384.171875 146.625 384.746094 145.726562 385.472656 145.726562 C 386.246094 145.726562 386.347656 146.75 386.347656 147.648438 C 386.347656 148.449219 386.222656 149.25 385.847656 150.824219 Z M 385.699219 151.351562 C 385.523438 152.074219 385.199219 153.425781 384.574219 154.574219 C 384.023438 155.675781 383.421875 156.449219 382.722656 156.449219 C 382.199219 156.449219 381.871094 155.976562 381.871094 154.5 C 381.871094 153.824219 381.972656 152.898438 382.371094 151.351562 Z M 385.699219 151.351562 "/>
<path style="fill:none;stroke-width:0.641652;stroke-linecap:butt;stroke-linejoin:miter;stroke:rgb(100%,0%,0%);stroke-opacity:1;stroke-miterlimit:4;" d="M 145.266634 -187.690208 L 222.266544 -187.690087 " transform="matrix(0.744625,1,-1,0.744625,0,0)"/>
<path style="fill-rule:evenodd;fill:rgb(100%,0%,0%);fill-opacity:1;stroke-width:0.320826;stroke-linecap:butt;stroke-linejoin:miter;stroke:rgb(100%,0%,0%);stroke-opacity:1;stroke-miterlimit:4;" d="M 147.837015 -187.6903 L 149.117775 -188.974895 L 144.62623 -187.690506 L 149.119739 -186.407027 Z M 147.837015 -187.6903 " transform="matrix(0.744625,1,-1,0.744625,0,0)"/>
<path style="fill-rule:evenodd;fill:rgb(100%,0%,0%);fill-opacity:1;stroke-width:0.320826;stroke-linecap:butt;stroke-linejoin:miter;stroke:rgb(100%,0%,0%);stroke-opacity:1;stroke-miterlimit:4;" d="M 223.524788 -187.690667 C 223.523477 -186.980706 222.948963 -186.408503 222.241515 -186.407943 C 221.534066 -186.407383 220.95748 -186.981255 220.95692 -187.688704 C 220.958231 -188.398665 221.532103 -188.975252 222.242064 -188.97394 C 222.949512 -188.974501 223.524228 -188.398115 223.524788 -187.690667 Z M 223.524788 -187.690667 " transform="matrix(0.744625,1,-1,0.744625,0,0)"/>
<path style="fill:none;stroke-width:0.641652;stroke-linecap:butt;stroke-linejoin:miter;stroke:rgb(100%,0%,0%);stroke-opacity:1;stroke-miterlimit:4;" d="M 287.715403 -187.689605 L 222.266544 -187.690087 " transform="matrix(0.744625,1,-1,0.744625,0,0)"/>
<path style="fill-rule:evenodd;fill:rgb(100%,0%,0%);fill-opacity:1;stroke-width:0.320826;stroke-linecap:butt;stroke-linejoin:miter;stroke:rgb(100%,0%,0%);stroke-opacity:1;stroke-miterlimit:4;" d="M -285.149406 187.690155 L -283.866133 186.407431 L -288.355807 187.689307 L -283.866682 188.973428 Z M -285.149406 187.690155 " transform="matrix(-0.744625,-1,1,-0.744625,0,0)"/>
<path style="fill-rule:evenodd;fill:rgb(100%,0%,0%);fill-opacity:1;stroke-width:0.320826;stroke-linecap:butt;stroke-linejoin:miter;stroke:rgb(100%,0%,0%);stroke-opacity:1;stroke-miterlimit:4;" d="M -221.0083 187.689507 C -221.009611 188.399469 -221.584124 188.971671 -222.291573 188.972231 C -222.999021 188.972791 -223.575608 188.398919 -223.576168 187.691471 C -223.574857 186.98151 -223.000985 186.404923 -222.291023 186.406234 C -221.583575 186.405674 -221.00886 186.982059 -221.0083 187.689507 Z M -221.0083 187.689507 " transform="matrix(-0.744625,-1,1,-0.744625,0,0)"/>
<path style="fill:none;stroke-width:0.799987;stroke-linecap:butt;stroke-linejoin:miter;stroke:rgb(0%,0%,0%);stroke-opacity:1;stroke-dasharray:0.799987,0.799987;stroke-miterlimit:4;" d="M 348.842415 87.376532 L 356.578187 81.686542 " transform="matrix(1,-0.00573764,0.00573764,1,0,0)"/>
<path style="fill:none;stroke-width:3.199947;stroke-linecap:butt;stroke-linejoin:miter;stroke:rgb(100%,0%,0%);stroke-opacity:1;stroke-miterlimit:4;" d="M 289.109037 6.186147 L 400.044691 156.967187 " transform="matrix(1,-0.00573764,0.00573764,1,0,0)"/>
<path style=" stroke:none;fill-rule:nonzero;fill:rgb(0%,0%,0%);fill-opacity:1;" d="M 376.097656 108.035156 C 376.074219 108.085938 376.023438 108.136719 376.023438 108.183594 C 376.023438 108.261719 376.121094 108.410156 376.222656 108.410156 C 376.296875 108.410156 376.347656 108.359375 376.796875 107.910156 C 376.921875 107.785156 377.246094 107.484375 377.371094 107.359375 C 377.523438 108.609375 377.972656 109.808594 379.148438 109.808594 C 379.796875 109.808594 380.347656 109.433594 380.671875 109.183594 C 380.898438 109.035156 381.648438 108.410156 381.648438 108.261719 C 381.648438 108.210938 381.597656 108.058594 381.472656 108.058594 C 381.421875 108.058594 381.398438 108.085938 381.246094 108.210938 C 380.222656 109.210938 379.648438 109.460938 379.171875 109.460938 C 378.472656 109.460938 378.199219 108.609375 378.199219 107.386719 C 378.199219 107.285156 378.246094 106.558594 378.296875 106.460938 C 378.324219 106.410156 378.324219 106.386719 378.648438 106.058594 C 379.921875 104.785156 382.199219 102.085938 382.199219 99.609375 C 382.199219 99.335938 382.199219 98.359375 381.246094 98.359375 C 379.921875 98.359375 378.746094 100.984375 378.597656 101.359375 C 377.824219 103.109375 377.324219 104.960938 377.324219 106.859375 Z M 378.371094 105.808594 C 378.398438 105.609375 379.097656 102.085938 379.996094 100.210938 C 380.421875 99.359375 380.773438 98.710938 381.273438 98.710938 C 381.824219 98.710938 381.824219 99.285156 381.824219 99.535156 C 381.824219 102.210938 379.121094 105.011719 378.371094 105.808594 Z M 378.371094 105.808594 "/>
<path style=" stroke:none;fill-rule:nonzero;fill:rgb(0%,0%,0%);fill-opacity:1;" d="M 388.113281 109.976562 L 387.738281 109.976562 C 387.714844 110.226562 387.589844 110.875 387.4375 110.976562 C 387.363281 111.050781 386.515625 111.050781 386.339844 111.050781 L 384.289062 111.050781 C 385.464844 110.023438 385.863281 109.699219 386.515625 109.175781 C 387.339844 108.523438 388.113281 107.824219 388.113281 106.773438 C 388.113281 105.425781 386.9375 104.601562 385.515625 104.601562 C 384.140625 104.601562 383.1875 105.574219 383.1875 106.601562 C 383.1875 107.148438 383.664062 107.226562 383.789062 107.226562 C 384.039062 107.226562 384.363281 107.023438 384.363281 106.625 C 384.363281 106.425781 384.289062 106.023438 383.714844 106.023438 C 384.0625 105.25 384.8125 105 385.339844 105 C 386.464844 105 387.039062 105.875 387.039062 106.773438 C 387.039062 107.75 386.339844 108.5 385.988281 108.898438 L 383.3125 111.574219 C 383.1875 111.675781 383.1875 111.699219 383.1875 112 L 387.789062 112 Z M 388.113281 109.976562 "/>
<path style=" stroke:none;fill-rule:nonzero;fill:rgb(0%,0%,0%);fill-opacity:1;" d="M 376.097656 108.035156 C 376.074219 108.085938 376.023438 108.136719 376.023438 108.183594 C 376.023438 108.261719 376.121094 108.410156 376.222656 108.410156 C 376.296875 108.410156 376.347656 108.359375 376.796875 107.910156 C 376.921875 107.785156 377.246094 107.484375 377.371094 107.359375 C 377.523438 108.609375 377.972656 109.808594 379.148438 109.808594 C 379.796875 109.808594 380.347656 109.433594 380.671875 109.183594 C 380.898438 109.035156 381.648438 108.410156 381.648438 108.261719 C 381.648438 108.210938 381.597656 108.058594 381.472656 108.058594 C 381.421875 108.058594 381.398438 108.085938 381.246094 108.210938 C 380.222656 109.210938 379.648438 109.460938 379.171875 109.460938 C 378.472656 109.460938 378.199219 108.609375 378.199219 107.386719 C 378.199219 107.285156 378.246094 106.558594 378.296875 106.460938 C 378.324219 106.410156 378.324219 106.386719 378.648438 106.058594 C 379.921875 104.785156 382.199219 102.085938 382.199219 99.609375 C 382.199219 99.335938 382.199219 98.359375 381.246094 98.359375 C 379.921875 98.359375 378.746094 100.984375 378.597656 101.359375 C 377.824219 103.109375 377.324219 104.960938 377.324219 106.859375 Z M 378.371094 105.808594 C 378.398438 105.609375 379.097656 102.085938 379.996094 100.210938 C 380.421875 99.359375 380.773438 98.710938 381.273438 98.710938 C 381.824219 98.710938 381.824219 99.285156 381.824219 99.535156 C 381.824219 102.210938 379.121094 105.011719 378.371094 105.808594 Z M 378.371094 105.808594 "/>
<path style=" stroke:none;fill-rule:nonzero;fill:rgb(0%,0%,0%);fill-opacity:1;" d="M 388.113281 109.976562 L 387.738281 109.976562 C 387.714844 110.226562 387.589844 110.875 387.4375 110.976562 C 387.363281 111.050781 386.515625 111.050781 386.339844 111.050781 L 384.289062 111.050781 C 385.464844 110.023438 385.863281 109.699219 386.515625 109.175781 C 387.339844 108.523438 388.113281 107.824219 388.113281 106.773438 C 388.113281 105.425781 386.9375 104.601562 385.515625 104.601562 C 384.140625 104.601562 383.1875 105.574219 383.1875 106.601562 C 383.1875 107.148438 383.664062 107.226562 383.789062 107.226562 C 384.039062 107.226562 384.363281 107.023438 384.363281 106.625 C 384.363281 106.425781 384.289062 106.023438 383.714844 106.023438 C 384.0625 105.25 384.8125 105 385.339844 105 C 386.464844 105 387.039062 105.875 387.039062 106.773438 C 387.039062 107.75 386.339844 108.5 385.988281 108.898438 L 383.3125 111.574219 C 383.1875 111.675781 383.1875 111.699219 383.1875 112 L 387.789062 112 Z M 388.113281 109.976562 "/>
<path style=" stroke:none;fill-rule:nonzero;fill:rgb(0%,0%,0%);fill-opacity:1;" d="M 324.898438 39.234375 C 324.871094 39.285156 324.824219 39.335938 324.824219 39.386719 C 324.824219 39.460938 324.921875 39.609375 325.023438 39.609375 C 325.097656 39.609375 325.148438 39.558594 325.597656 39.109375 C 325.722656 38.984375 326.046875 38.683594 326.171875 38.558594 C 326.324219 39.808594 326.773438 41.011719 327.949219 41.011719 C 328.597656 41.011719 329.148438 40.636719 329.472656 40.386719 C 329.699219 40.234375 330.449219 39.609375 330.449219 39.460938 C 330.449219 39.410156 330.398438 39.261719 330.273438 39.261719 C 330.222656 39.261719 330.199219 39.285156 330.046875 39.410156 C 329.023438 40.410156 328.449219 40.660156 327.972656 40.660156 C 327.273438 40.660156 326.996094 39.808594 326.996094 38.585938 C 326.996094 38.484375 327.046875 37.761719 327.097656 37.660156 C 327.121094 37.609375 327.121094 37.585938 327.449219 37.261719 C 328.722656 35.984375 330.996094 33.285156 330.996094 30.808594 C 330.996094 30.535156 330.996094 29.558594 330.046875 29.558594 C 328.722656 29.558594 327.546875 32.183594 327.398438 32.558594 C 326.621094 34.308594 326.121094 36.160156 326.121094 38.058594 Z M 327.171875 37.011719 C 327.199219 36.808594 327.898438 33.285156 328.796875 31.410156 C 329.222656 30.558594 329.574219 29.910156 330.074219 29.910156 C 330.621094 29.910156 330.621094 30.484375 330.621094 30.734375 C 330.621094 33.410156 327.921875 36.210938 327.171875 37.011719 Z M 327.171875 37.011719 "/>
<path style=" stroke:none;fill-rule:nonzero;fill:rgb(0%,0%,0%);fill-opacity:1;" d="M 335.015625 36.101562 C 335.015625 35.800781 335.015625 35.800781 334.6875 35.800781 C 333.964844 36.5 332.964844 36.5 332.515625 36.5 L 332.515625 36.898438 C 332.765625 36.898438 333.515625 36.898438 334.113281 36.601562 L 334.113281 42.273438 C 334.113281 42.648438 334.113281 42.800781 333.015625 42.800781 L 332.589844 42.800781 L 332.589844 43.199219 C 332.789062 43.199219 334.164062 43.148438 334.5625 43.148438 C 334.914062 43.148438 336.3125 43.199219 336.5625 43.199219 L 336.5625 42.800781 L 336.140625 42.800781 C 335.015625 42.800781 335.015625 42.648438 335.015625 42.273438 Z M 335.015625 36.101562 "/>
<g clip-path="url(#clip1)" clip-rule="nonzero">
<path style="fill:none;stroke-width:3.2;stroke-linecap:round;stroke-linejoin:round;stroke:rgb(0%,0%,0%);stroke-opacity:1;stroke-miterlimit:4;" d="M 462.421875 1.601562 L 606.421875 1.601562 L 606.421875 203.199219 "/>
</g>
<g clip-path="url(#clip2)" clip-rule="nonzero">
<path style="fill:none;stroke-width:3.2;stroke-linecap:round;stroke-linejoin:round;stroke:rgb(0%,0%,0%);stroke-opacity:1;stroke-miterlimit:4;" d="M 462.421875 88 L 548.824219 88 L 548.824219 203.199219 "/>
</g>
<path style="fill:none;stroke-width:3.2;stroke-linecap:round;stroke-linejoin:round;stroke:rgb(0%,0%,0%);stroke-opacity:1;stroke-miterlimit:4;" d="M 1.621094 1.601562 L 203.222656 1.601562 L 203.222656 174.398438 "/>
<path style="fill:none;stroke-width:3.2;stroke-linecap:round;stroke-linejoin:round;stroke:rgb(0%,0%,0%);stroke-opacity:1;stroke-miterlimit:4;" d="M 1.621094 88 L 145.621094 88 L 145.621094 174.398438 "/>
<path style="fill:none;stroke-width:2.895717;stroke-linecap:butt;stroke-linejoin:miter;stroke:rgb(100%,0%,0%);stroke-opacity:1;stroke-miterlimit:4;" d="M 4.721185 7.021258 L 120.11692 173.294411 " transform="matrix(1,-0.470322,0.470322,1,0,0)"/>
<g clip-path="url(#clip3)" clip-rule="nonzero">
<path style="fill:none;stroke-width:3.133132;stroke-linecap:butt;stroke-linejoin:miter;stroke:rgb(100%,0%,0%);stroke-opacity:1;stroke-miterlimit:4;" d="M 488.418279 -98.246235 L 617.383504 62.40493 " transform="matrix(1,0.207702,-0.207702,1,0,0)"/>
</g>
</g>
</svg>
