<?xml version="1.0" encoding="UTF-8"?>
<svg xmlns="http://www.w3.org/2000/svg" xmlns:xlink="http://www.w3.org/1999/xlink" width="231.199997pt" height="101.599998pt" viewBox="0 0 231.199997 101.599998" version="1.1">
<defs>
<clipPath id="clip1">
  <path d="M 0 0 L 73 0 L 73 101.601562 L 0 101.601562 Z M 0 0 "/>
</clipPath>
<clipPath id="clip2">
  <path d="M 115 0 L 231.199219 0 L 231.199219 101.601562 L 115 101.601562 Z M 115 0 "/>
</clipPath>
</defs>
<g id="surface1">
<path style=" stroke:none;fill-rule:nonzero;fill:rgb(0%,0%,0%);fill-opacity:1;" d="M 33.597656 10.390625 L 33.597656 11.34375 C 33.222656 11.167969 32.867188 11.039062 32.535156 10.953125 C 32.199219 10.863281 31.875 10.8125 31.566406 10.8125 C 31.035156 10.8125 30.621094 10.917969 30.332031 11.125 C 30.039062 11.335938 29.894531 11.632812 29.894531 12.015625 C 29.894531 12.339844 29.988281 12.585938 30.175781 12.75 C 30.371094 12.917969 30.742188 13.050781 31.285156 13.140625 L 31.878906 13.265625 C 32.605469 13.414062 33.148438 13.664062 33.503906 14.015625 C 33.855469 14.359375 34.035156 14.832031 34.035156 15.421875 C 34.035156 16.132812 33.792969 16.667969 33.316406 17.03125 C 32.847656 17.398438 32.152344 17.578125 31.238281 17.578125 C 30.894531 17.578125 30.523438 17.535156 30.128906 17.453125 C 29.742188 17.382812 29.339844 17.265625 28.925781 17.109375 L 28.925781 16.09375 C 29.328125 16.324219 29.722656 16.496094 30.097656 16.609375 C 30.480469 16.726562 30.863281 16.78125 31.238281 16.78125 C 31.796875 16.78125 32.230469 16.671875 32.535156 16.453125 C 32.84375 16.226562 33.003906 15.90625 33.003906 15.5 C 33.003906 15.148438 32.890625 14.871094 32.675781 14.671875 C 32.457031 14.464844 32.089844 14.308594 31.582031 14.203125 L 30.988281 14.09375 C 30.246094 13.949219 29.710938 13.71875 29.378906 13.40625 C 29.054688 13.097656 28.894531 12.65625 28.894531 12.09375 C 28.894531 11.449219 29.117188 10.945312 29.566406 10.578125 C 30.023438 10.207031 30.652344 10.015625 31.457031 10.015625 C 31.796875 10.015625 32.148438 10.050781 32.503906 10.109375 C 32.855469 10.171875 33.222656 10.269531 33.597656 10.390625 Z M 35.175781 15.28125 L 35.175781 11.96875 L 36.082031 11.96875 L 36.082031 15.25 C 36.082031 15.761719 36.179688 16.148438 36.378906 16.40625 C 36.585938 16.667969 36.886719 16.796875 37.285156 16.796875 C 37.773438 16.796875 38.160156 16.648438 38.441406 16.34375 C 38.71875 16.035156 38.863281 15.605469 38.863281 15.0625 L 38.863281 11.96875 L 39.769531 11.96875 L 39.769531 17.4375 L 38.863281 17.4375 L 38.863281 16.59375 C 38.644531 16.929688 38.386719 17.179688 38.097656 17.34375 C 37.816406 17.496094 37.480469 17.578125 37.097656 17.578125 C 36.472656 17.578125 35.992188 17.386719 35.660156 17 C 35.335938 16.605469 35.175781 16.03125 35.175781 15.28125 Z M 37.441406 11.84375 Z M 45.910156 14.140625 L 45.910156 17.4375 L 45.019531 17.4375 L 45.019531 14.171875 C 45.019531 13.652344 44.914062 13.265625 44.707031 13.015625 C 44.507812 12.757812 44.203125 12.625 43.800781 12.625 C 43.320312 12.625 42.9375 12.785156 42.660156 13.09375 C 42.378906 13.398438 42.238281 13.816406 42.238281 14.34375 L 42.238281 17.4375 L 41.332031 17.4375 L 41.332031 11.96875 L 42.238281 11.96875 L 42.238281 12.8125 C 42.453125 12.492188 42.710938 12.25 43.003906 12.09375 C 43.292969 11.929688 43.628906 11.84375 44.003906 11.84375 C 44.625 11.84375 45.101562 12.039062 45.425781 12.421875 C 45.746094 12.808594 45.910156 13.382812 45.910156 14.140625 Z M 51.066406 12.796875 L 51.066406 9.84375 L 51.957031 9.84375 L 51.957031 17.4375 L 51.066406 17.4375 L 51.066406 16.609375 C 50.878906 16.945312 50.636719 17.191406 50.347656 17.34375 C 50.054688 17.496094 49.703125 17.578125 49.300781 17.578125 C 48.644531 17.578125 48.105469 17.320312 47.691406 16.796875 C 47.273438 16.269531 47.066406 15.570312 47.066406 14.703125 C 47.066406 13.851562 47.273438 13.164062 47.691406 12.640625 C 48.105469 12.113281 48.644531 11.84375 49.300781 11.84375 C 49.703125 11.84375 50.054688 11.925781 50.347656 12.078125 C 50.636719 12.234375 50.878906 12.476562 51.066406 12.796875 Z M 48.003906 14.703125 C 48.003906 15.371094 48.136719 15.894531 48.410156 16.265625 C 48.679688 16.640625 49.054688 16.828125 49.535156 16.828125 C 50 16.828125 50.371094 16.640625 50.644531 16.265625 C 50.921875 15.894531 51.066406 15.371094 51.066406 14.703125 C 51.066406 14.050781 50.921875 13.53125 50.644531 13.15625 C 50.371094 12.785156 50 12.59375 49.535156 12.59375 C 49.054688 12.59375 48.679688 12.785156 48.410156 13.15625 C 48.136719 13.53125 48.003906 14.050781 48.003906 14.703125 Z M 56.035156 14.6875 C 55.316406 14.6875 54.8125 14.773438 54.535156 14.9375 C 54.253906 15.105469 54.113281 15.386719 54.113281 15.78125 C 54.113281 16.105469 54.214844 16.363281 54.425781 16.546875 C 54.632812 16.734375 54.917969 16.828125 55.285156 16.828125 C 55.78125 16.828125 56.183594 16.652344 56.488281 16.296875 C 56.789062 15.945312 56.941406 15.476562 56.941406 14.890625 L 56.941406 14.6875 Z M 57.832031 14.3125 L 57.832031 17.4375 L 56.941406 17.4375 L 56.941406 16.609375 C 56.730469 16.945312 56.46875 17.191406 56.160156 17.34375 C 55.855469 17.496094 55.484375 17.578125 55.050781 17.578125 C 54.488281 17.578125 54.039062 17.421875 53.707031 17.109375 C 53.371094 16.800781 53.207031 16.375 53.207031 15.84375 C 53.207031 15.230469 53.414062 14.765625 53.832031 14.453125 C 54.246094 14.144531 54.863281 13.984375 55.675781 13.984375 L 56.941406 13.984375 L 56.941406 13.890625 C 56.941406 13.488281 56.796875 13.167969 56.519531 12.9375 C 56.246094 12.710938 55.867188 12.59375 55.378906 12.59375 C 55.066406 12.59375 54.757812 12.636719 54.457031 12.71875 C 54.164062 12.792969 53.882812 12.902344 53.613281 13.046875 L 53.613281 12.21875 C 53.945312 12.097656 54.261719 12 54.566406 11.9375 C 54.875 11.878906 55.179688 11.84375 55.472656 11.84375 C 56.261719 11.84375 56.851562 12.050781 57.238281 12.453125 C 57.632812 12.859375 57.832031 13.480469 57.832031 14.3125 Z M 61.71875 17.953125 C 61.46875 18.597656 61.214844 19.019531 60.96875 19.21875 C 60.726562 19.414062 60.410156 19.515625 60.015625 19.515625 L 59.296875 19.515625 L 59.296875 18.765625 L 59.8125 18.765625 C 60.058594 18.765625 60.253906 18.707031 60.390625 18.59375 C 60.523438 18.476562 60.675781 18.199219 60.84375 17.765625 L 61.015625 17.34375 L 58.796875 11.96875 L 59.75 11.96875 L 61.453125 16.25 L 63.171875 11.96875 L 64.125 11.96875 Z M 61.71875 17.953125 "/>
<path style=" stroke:none;fill-rule:nonzero;fill:rgb(0%,0%,0%);fill-opacity:1;" d="M 27.253906 22.140625 L 28.722656 22.140625 L 30.582031 27.109375 L 32.457031 22.140625 L 33.925781 22.140625 L 33.925781 29.4375 L 32.957031 29.4375 L 32.957031 23.03125 L 31.082031 28.03125 L 30.082031 28.03125 L 28.207031 23.03125 L 28.207031 29.4375 L 27.253906 29.4375 Z M 37.617188 24.59375 C 37.136719 24.59375 36.753906 24.785156 36.476562 25.15625 C 36.195312 25.53125 36.054688 26.050781 36.054688 26.703125 C 36.054688 27.359375 36.1875 27.878906 36.460938 28.25 C 36.738281 28.625 37.125 28.8125 37.617188 28.8125 C 38.09375 28.8125 38.476562 28.625 38.757812 28.25 C 39.035156 27.878906 39.179688 27.359375 39.179688 26.703125 C 39.179688 26.058594 39.035156 25.546875 38.757812 25.171875 C 38.476562 24.789062 38.09375 24.59375 37.617188 24.59375 Z M 37.617188 23.84375 C 38.394531 23.84375 39.011719 24.101562 39.460938 24.609375 C 39.90625 25.109375 40.132812 25.808594 40.132812 26.703125 C 40.132812 27.601562 39.90625 28.304688 39.460938 28.8125 C 39.011719 29.324219 38.394531 29.578125 37.617188 29.578125 C 36.835938 29.578125 36.21875 29.324219 35.773438 28.8125 C 35.324219 28.304688 35.101562 27.601562 35.101562 26.703125 C 35.101562 25.808594 35.324219 25.109375 35.773438 24.609375 C 36.21875 24.101562 36.835938 23.84375 37.617188 23.84375 Z M 45.910156 26.140625 L 45.910156 29.4375 L 45.019531 29.4375 L 45.019531 26.171875 C 45.019531 25.652344 44.914062 25.265625 44.707031 25.015625 C 44.507812 24.757812 44.203125 24.625 43.800781 24.625 C 43.320312 24.625 42.9375 24.785156 42.660156 25.09375 C 42.378906 25.398438 42.238281 25.816406 42.238281 26.34375 L 42.238281 29.4375 L 41.332031 29.4375 L 41.332031 23.96875 L 42.238281 23.96875 L 42.238281 24.8125 C 42.453125 24.492188 42.710938 24.25 43.003906 24.09375 C 43.292969 23.929688 43.628906 23.84375 44.003906 23.84375 C 44.625 23.84375 45.101562 24.039062 45.425781 24.421875 C 45.746094 24.808594 45.910156 25.382812 45.910156 26.140625 Z M 51.066406 24.796875 L 51.066406 21.84375 L 51.957031 21.84375 L 51.957031 29.4375 L 51.066406 29.4375 L 51.066406 28.609375 C 50.878906 28.945312 50.636719 29.191406 50.347656 29.34375 C 50.054688 29.496094 49.703125 29.578125 49.300781 29.578125 C 48.644531 29.578125 48.105469 29.320312 47.691406 28.796875 C 47.273438 28.269531 47.066406 27.570312 47.066406 26.703125 C 47.066406 25.851562 47.273438 25.164062 47.691406 24.640625 C 48.105469 24.113281 48.644531 23.84375 49.300781 23.84375 C 49.703125 23.84375 50.054688 23.925781 50.347656 24.078125 C 50.636719 24.234375 50.878906 24.476562 51.066406 24.796875 Z M 48.003906 26.703125 C 48.003906 27.371094 48.136719 27.894531 48.410156 28.265625 C 48.679688 28.640625 49.054688 28.828125 49.535156 28.828125 C 50 28.828125 50.371094 28.640625 50.644531 28.265625 C 50.921875 27.894531 51.066406 27.371094 51.066406 26.703125 C 51.066406 26.050781 50.921875 25.53125 50.644531 25.15625 C 50.371094 24.785156 50 24.59375 49.535156 24.59375 C 49.054688 24.59375 48.679688 24.785156 48.410156 25.15625 C 48.136719 25.53125 48.003906 26.050781 48.003906 26.703125 Z M 56.035156 26.6875 C 55.316406 26.6875 54.8125 26.773438 54.535156 26.9375 C 54.253906 27.105469 54.113281 27.386719 54.113281 27.78125 C 54.113281 28.105469 54.214844 28.363281 54.425781 28.546875 C 54.632812 28.734375 54.917969 28.828125 55.285156 28.828125 C 55.78125 28.828125 56.183594 28.652344 56.488281 28.296875 C 56.789062 27.945312 56.941406 27.476562 56.941406 26.890625 L 56.941406 26.6875 Z M 57.832031 26.3125 L 57.832031 29.4375 L 56.941406 29.4375 L 56.941406 28.609375 C 56.730469 28.945312 56.46875 29.191406 56.160156 29.34375 C 55.855469 29.496094 55.484375 29.578125 55.050781 29.578125 C 54.488281 29.578125 54.039062 29.421875 53.707031 29.109375 C 53.371094 28.800781 53.207031 28.375 53.207031 27.84375 C 53.207031 27.230469 53.414062 26.765625 53.832031 26.453125 C 54.246094 26.144531 54.863281 25.984375 55.675781 25.984375 L 56.941406 25.984375 L 56.941406 25.890625 C 56.941406 25.488281 56.796875 25.167969 56.519531 24.9375 C 56.246094 24.710938 55.867188 24.59375 55.378906 24.59375 C 55.066406 24.59375 54.757812 24.636719 54.457031 24.71875 C 54.164062 24.792969 53.882812 24.902344 53.613281 25.046875 L 53.613281 24.21875 C 53.945312 24.097656 54.261719 24 54.566406 23.9375 C 54.875 23.878906 55.179688 23.84375 55.472656 23.84375 C 56.261719 23.84375 56.851562 24.050781 57.238281 24.453125 C 57.632812 24.859375 57.832031 25.480469 57.832031 26.3125 Z M 61.71875 29.953125 C 61.46875 30.597656 61.214844 31.019531 60.96875 31.21875 C 60.726562 31.414062 60.410156 31.515625 60.015625 31.515625 L 59.296875 31.515625 L 59.296875 30.765625 L 59.8125 30.765625 C 60.058594 30.765625 60.253906 30.707031 60.390625 30.59375 C 60.523438 30.476562 60.675781 30.199219 60.84375 29.765625 L 61.015625 29.34375 L 58.796875 23.96875 L 59.75 23.96875 L 61.453125 28.25 L 63.171875 23.96875 L 64.125 23.96875 Z M 61.71875 29.953125 "/>
<path style=" stroke:none;fill-rule:nonzero;fill:rgb(0%,0%,0%);fill-opacity:1;" d="M 25.074219 34.140625 L 31.246094 34.140625 L 31.246094 34.984375 L 28.652344 34.984375 L 28.652344 41.4375 L 27.667969 41.4375 L 27.667969 34.984375 L 25.074219 34.984375 Z M 30.355469 39.28125 L 30.355469 35.96875 L 31.261719 35.96875 L 31.261719 39.25 C 31.261719 39.761719 31.359375 40.148438 31.558594 40.40625 C 31.765625 40.667969 32.066406 40.796875 32.464844 40.796875 C 32.953125 40.796875 33.339844 40.648438 33.621094 40.34375 C 33.898438 40.035156 34.042969 39.605469 34.042969 39.0625 L 34.042969 35.96875 L 34.949219 35.96875 L 34.949219 41.4375 L 34.042969 41.4375 L 34.042969 40.59375 C 33.824219 40.929688 33.566406 41.179688 33.277344 41.34375 C 32.996094 41.496094 32.660156 41.578125 32.277344 41.578125 C 31.652344 41.578125 31.171875 41.386719 30.839844 41 C 30.515625 40.605469 30.355469 40.03125 30.355469 39.28125 Z M 32.621094 35.84375 Z M 41.230469 38.484375 L 41.230469 38.921875 L 37.089844 38.921875 C 37.128906 39.539062 37.316406 40.007812 37.652344 40.328125 C 37.984375 40.652344 38.449219 40.8125 39.042969 40.8125 C 39.382812 40.8125 39.71875 40.773438 40.042969 40.6875 C 40.375 40.605469 40.699219 40.480469 41.011719 40.3125 L 41.011719 41.15625 C 40.6875 41.292969 40.351562 41.398438 40.011719 41.46875 C 39.675781 41.539062 39.335938 41.578125 38.996094 41.578125 C 38.121094 41.578125 37.425781 41.328125 36.917969 40.828125 C 36.40625 40.320312 36.152344 39.625 36.152344 38.75 C 36.152344 37.855469 36.390625 37.148438 36.871094 36.625 C 37.359375 36.105469 38.015625 35.84375 38.839844 35.84375 C 39.578125 35.84375 40.160156 36.082031 40.589844 36.546875 C 41.015625 37.015625 41.230469 37.664062 41.230469 38.484375 Z M 40.324219 38.21875 C 40.324219 37.730469 40.1875 37.339844 39.917969 37.046875 C 39.644531 36.746094 39.289062 36.59375 38.855469 36.59375 C 38.34375 36.59375 37.9375 36.742188 37.636719 37.03125 C 37.34375 37.3125 37.171875 37.710938 37.121094 38.21875 Z M 45.933594 36.125 L 45.933594 36.984375 C 45.683594 36.851562 45.421875 36.75 45.152344 36.6875 C 44.878906 36.628906 44.59375 36.59375 44.292969 36.59375 C 43.855469 36.59375 43.519531 36.664062 43.292969 36.796875 C 43.074219 36.933594 42.964844 37.136719 42.964844 37.40625 C 42.964844 37.617188 43.042969 37.785156 43.199219 37.90625 C 43.351562 38.023438 43.675781 38.132812 44.167969 38.234375 L 44.464844 38.3125 C 45.109375 38.449219 45.5625 38.644531 45.824219 38.890625 C 46.09375 39.140625 46.230469 39.488281 46.230469 39.921875 C 46.230469 40.433594 46.023438 40.839844 45.621094 41.140625 C 45.222656 41.433594 44.675781 41.578125 43.980469 41.578125 C 43.675781 41.578125 43.363281 41.542969 43.042969 41.484375 C 42.730469 41.433594 42.398438 41.351562 42.058594 41.234375 L 42.058594 40.3125 C 42.390625 40.480469 42.714844 40.613281 43.027344 40.703125 C 43.347656 40.789062 43.671875 40.828125 43.996094 40.828125 C 44.410156 40.828125 44.734375 40.757812 44.964844 40.609375 C 45.191406 40.464844 45.308594 40.261719 45.308594 40 C 45.308594 39.753906 45.222656 39.5625 45.058594 39.4375 C 44.902344 39.304688 44.539062 39.179688 43.980469 39.0625 L 43.667969 38.984375 C 43.113281 38.871094 42.710938 38.695312 42.464844 38.453125 C 42.214844 38.207031 42.089844 37.871094 42.089844 37.453125 C 42.089844 36.933594 42.269531 36.539062 42.636719 36.265625 C 43 35.988281 43.519531 35.84375 44.199219 35.84375 C 44.519531 35.84375 44.828125 35.871094 45.121094 35.921875 C 45.421875 35.964844 45.691406 36.035156 45.933594 36.125 Z M 51.066406 36.796875 L 51.066406 33.84375 L 51.957031 33.84375 L 51.957031 41.4375 L 51.066406 41.4375 L 51.066406 40.609375 C 50.878906 40.945312 50.636719 41.191406 50.347656 41.34375 C 50.054688 41.496094 49.703125 41.578125 49.300781 41.578125 C 48.644531 41.578125 48.105469 41.320312 47.691406 40.796875 C 47.273438 40.269531 47.066406 39.570312 47.066406 38.703125 C 47.066406 37.851562 47.273438 37.164062 47.691406 36.640625 C 48.105469 36.113281 48.644531 35.84375 49.300781 35.84375 C 49.703125 35.84375 50.054688 35.925781 50.347656 36.078125 C 50.636719 36.234375 50.878906 36.476562 51.066406 36.796875 Z M 48.003906 38.703125 C 48.003906 39.371094 48.136719 39.894531 48.410156 40.265625 C 48.679688 40.640625 49.054688 40.828125 49.535156 40.828125 C 50 40.828125 50.371094 40.640625 50.644531 40.265625 C 50.921875 39.894531 51.066406 39.371094 51.066406 38.703125 C 51.066406 38.050781 50.921875 37.53125 50.644531 37.15625 C 50.371094 36.785156 50 36.59375 49.535156 36.59375 C 49.054688 36.59375 48.679688 36.785156 48.410156 37.15625 C 48.136719 37.53125 48.003906 38.050781 48.003906 38.703125 Z M 56.035156 38.6875 C 55.316406 38.6875 54.8125 38.773438 54.535156 38.9375 C 54.253906 39.105469 54.113281 39.386719 54.113281 39.78125 C 54.113281 40.105469 54.214844 40.363281 54.425781 40.546875 C 54.632812 40.734375 54.917969 40.828125 55.285156 40.828125 C 55.78125 40.828125 56.183594 40.652344 56.488281 40.296875 C 56.789062 39.945312 56.941406 39.476562 56.941406 38.890625 L 56.941406 38.6875 Z M 57.832031 38.3125 L 57.832031 41.4375 L 56.941406 41.4375 L 56.941406 40.609375 C 56.730469 40.945312 56.46875 41.191406 56.160156 41.34375 C 55.855469 41.496094 55.484375 41.578125 55.050781 41.578125 C 54.488281 41.578125 54.039062 41.421875 53.707031 41.109375 C 53.371094 40.800781 53.207031 40.375 53.207031 39.84375 C 53.207031 39.230469 53.414062 38.765625 53.832031 38.453125 C 54.246094 38.144531 54.863281 37.984375 55.675781 37.984375 L 56.941406 37.984375 L 56.941406 37.890625 C 56.941406 37.488281 56.796875 37.167969 56.519531 36.9375 C 56.246094 36.710938 55.867188 36.59375 55.378906 36.59375 C 55.066406 36.59375 54.757812 36.636719 54.457031 36.71875 C 54.164062 36.792969 53.882812 36.902344 53.613281 37.046875 L 53.613281 36.21875 C 53.945312 36.097656 54.261719 36 54.566406 35.9375 C 54.875 35.878906 55.179688 35.84375 55.472656 35.84375 C 56.261719 35.84375 56.851562 36.050781 57.238281 36.453125 C 57.632812 36.859375 57.832031 37.480469 57.832031 38.3125 Z M 61.71875 41.953125 C 61.46875 42.597656 61.214844 43.019531 60.96875 43.21875 C 60.726562 43.414062 60.410156 43.515625 60.015625 43.515625 L 59.296875 43.515625 L 59.296875 42.765625 L 59.8125 42.765625 C 60.058594 42.765625 60.253906 42.707031 60.390625 42.59375 C 60.523438 42.476562 60.675781 42.199219 60.84375 41.765625 L 61.015625 41.34375 L 58.796875 35.96875 L 59.75 35.96875 L 61.453125 40.25 L 63.171875 35.96875 L 64.125 35.96875 Z M 61.71875 41.953125 "/>
<path style=" stroke:none;fill-rule:nonzero;fill:rgb(0%,0%,0%);fill-opacity:1;" d="M 8.914062 46.140625 L 9.914062 46.140625 L 11.445312 52.3125 L 12.976562 46.140625 L 14.085938 46.140625 L 15.617188 52.3125 L 17.148438 46.140625 L 18.148438 46.140625 L 16.320312 53.4375 L 15.070312 53.4375 L 13.539062 47.109375 L 11.992188 53.4375 L 10.742188 53.4375 Z M 23.136719 50.484375 L 23.136719 50.921875 L 18.996094 50.921875 C 19.035156 51.539062 19.222656 52.007812 19.558594 52.328125 C 19.890625 52.652344 20.355469 52.8125 20.949219 52.8125 C 21.289062 52.8125 21.625 52.773438 21.949219 52.6875 C 22.28125 52.605469 22.605469 52.480469 22.917969 52.3125 L 22.917969 53.15625 C 22.59375 53.292969 22.257812 53.398438 21.917969 53.46875 C 21.582031 53.539062 21.242188 53.578125 20.902344 53.578125 C 20.027344 53.578125 19.332031 53.328125 18.824219 52.828125 C 18.3125 52.320312 18.058594 51.625 18.058594 50.75 C 18.058594 49.855469 18.296875 49.148438 18.777344 48.625 C 19.265625 48.105469 19.921875 47.84375 20.746094 47.84375 C 21.484375 47.84375 22.066406 48.082031 22.496094 48.546875 C 22.921875 49.015625 23.136719 49.664062 23.136719 50.484375 Z M 22.230469 50.21875 C 22.230469 49.730469 22.09375 49.339844 21.824219 49.046875 C 21.550781 48.746094 21.195312 48.59375 20.761719 48.59375 C 20.25 48.59375 19.84375 48.742188 19.542969 49.03125 C 19.25 49.3125 19.078125 49.710938 19.027344 50.21875 Z M 27.964844 48.796875 L 27.964844 45.84375 L 28.855469 45.84375 L 28.855469 53.4375 L 27.964844 53.4375 L 27.964844 52.609375 C 27.777344 52.945312 27.535156 53.191406 27.246094 53.34375 C 26.953125 53.496094 26.601562 53.578125 26.199219 53.578125 C 25.542969 53.578125 25.003906 53.320312 24.589844 52.796875 C 24.171875 52.269531 23.964844 51.570312 23.964844 50.703125 C 23.964844 49.851562 24.171875 49.164062 24.589844 48.640625 C 25.003906 48.113281 25.542969 47.84375 26.199219 47.84375 C 26.601562 47.84375 26.953125 47.925781 27.246094 48.078125 C 27.535156 48.234375 27.777344 48.476562 27.964844 48.796875 Z M 24.902344 50.703125 C 24.902344 51.371094 25.035156 51.894531 25.308594 52.265625 C 25.578125 52.640625 25.953125 52.828125 26.433594 52.828125 C 26.898438 52.828125 27.269531 52.640625 27.542969 52.265625 C 27.820312 51.894531 27.964844 51.371094 27.964844 50.703125 C 27.964844 50.050781 27.820312 49.53125 27.542969 49.15625 C 27.269531 48.785156 26.898438 48.59375 26.433594 48.59375 C 25.953125 48.59375 25.578125 48.785156 25.308594 49.15625 C 25.035156 49.53125 24.902344 50.050781 24.902344 50.703125 Z M 34.996094 50.140625 L 34.996094 53.4375 L 34.105469 53.4375 L 34.105469 50.171875 C 34.105469 49.652344 34 49.265625 33.792969 49.015625 C 33.59375 48.757812 33.289062 48.625 32.886719 48.625 C 32.40625 48.625 32.023438 48.785156 31.746094 49.09375 C 31.464844 49.398438 31.324219 49.816406 31.324219 50.34375 L 31.324219 53.4375 L 30.417969 53.4375 L 30.417969 47.96875 L 31.324219 47.96875 L 31.324219 48.8125 C 31.539062 48.492188 31.796875 48.25 32.089844 48.09375 C 32.378906 47.929688 32.714844 47.84375 33.089844 47.84375 C 33.710938 47.84375 34.1875 48.039062 34.511719 48.421875 C 34.832031 48.808594 34.996094 49.382812 34.996094 50.140625 Z M 41.230469 50.484375 L 41.230469 50.921875 L 37.089844 50.921875 C 37.128906 51.539062 37.316406 52.007812 37.652344 52.328125 C 37.984375 52.652344 38.449219 52.8125 39.042969 52.8125 C 39.382812 52.8125 39.71875 52.773438 40.042969 52.6875 C 40.375 52.605469 40.699219 52.480469 41.011719 52.3125 L 41.011719 53.15625 C 40.6875 53.292969 40.351562 53.398438 40.011719 53.46875 C 39.675781 53.539062 39.335938 53.578125 38.996094 53.578125 C 38.121094 53.578125 37.425781 53.328125 36.917969 52.828125 C 36.40625 52.320312 36.152344 51.625 36.152344 50.75 C 36.152344 49.855469 36.390625 49.148438 36.871094 48.625 C 37.359375 48.105469 38.015625 47.84375 38.839844 47.84375 C 39.578125 47.84375 40.160156 48.082031 40.589844 48.546875 C 41.015625 49.015625 41.230469 49.664062 41.230469 50.484375 Z M 40.324219 50.21875 C 40.324219 49.730469 40.1875 49.339844 39.917969 49.046875 C 39.644531 48.746094 39.289062 48.59375 38.855469 48.59375 C 38.34375 48.59375 37.9375 48.742188 37.636719 49.03125 C 37.34375 49.3125 37.171875 49.710938 37.121094 50.21875 Z M 45.933594 48.125 L 45.933594 48.984375 C 45.683594 48.851562 45.421875 48.75 45.152344 48.6875 C 44.878906 48.628906 44.59375 48.59375 44.292969 48.59375 C 43.855469 48.59375 43.519531 48.664062 43.292969 48.796875 C 43.074219 48.933594 42.964844 49.136719 42.964844 49.40625 C 42.964844 49.617188 43.042969 49.785156 43.199219 49.90625 C 43.351562 50.023438 43.675781 50.132812 44.167969 50.234375 L 44.464844 50.3125 C 45.109375 50.449219 45.5625 50.644531 45.824219 50.890625 C 46.09375 51.140625 46.230469 51.488281 46.230469 51.921875 C 46.230469 52.433594 46.023438 52.839844 45.621094 53.140625 C 45.222656 53.433594 44.675781 53.578125 43.980469 53.578125 C 43.675781 53.578125 43.363281 53.542969 43.042969 53.484375 C 42.730469 53.433594 42.398438 53.351562 42.058594 53.234375 L 42.058594 52.3125 C 42.390625 52.480469 42.714844 52.613281 43.027344 52.703125 C 43.347656 52.789062 43.671875 52.828125 43.996094 52.828125 C 44.410156 52.828125 44.734375 52.757812 44.964844 52.609375 C 45.191406 52.464844 45.308594 52.261719 45.308594 52 C 45.308594 51.753906 45.222656 51.5625 45.058594 51.4375 C 44.902344 51.304688 44.539062 51.179688 43.980469 51.0625 L 43.667969 50.984375 C 43.113281 50.871094 42.710938 50.695312 42.464844 50.453125 C 42.214844 50.207031 42.089844 49.871094 42.089844 49.453125 C 42.089844 48.933594 42.269531 48.539062 42.636719 48.265625 C 43 47.988281 43.519531 47.84375 44.199219 47.84375 C 44.519531 47.84375 44.828125 47.871094 45.121094 47.921875 C 45.421875 47.964844 45.691406 48.035156 45.933594 48.125 Z M 51.066406 48.796875 L 51.066406 45.84375 L 51.957031 45.84375 L 51.957031 53.4375 L 51.066406 53.4375 L 51.066406 52.609375 C 50.878906 52.945312 50.636719 53.191406 50.347656 53.34375 C 50.054688 53.496094 49.703125 53.578125 49.300781 53.578125 C 48.644531 53.578125 48.105469 53.320312 47.691406 52.796875 C 47.273438 52.269531 47.066406 51.570312 47.066406 50.703125 C 47.066406 49.851562 47.273438 49.164062 47.691406 48.640625 C 48.105469 48.113281 48.644531 47.84375 49.300781 47.84375 C 49.703125 47.84375 50.054688 47.925781 50.347656 48.078125 C 50.636719 48.234375 50.878906 48.476562 51.066406 48.796875 Z M 48.003906 50.703125 C 48.003906 51.371094 48.136719 51.894531 48.410156 52.265625 C 48.679688 52.640625 49.054688 52.828125 49.535156 52.828125 C 50 52.828125 50.371094 52.640625 50.644531 52.265625 C 50.921875 51.894531 51.066406 51.371094 51.066406 50.703125 C 51.066406 50.050781 50.921875 49.53125 50.644531 49.15625 C 50.371094 48.785156 50 48.59375 49.535156 48.59375 C 49.054688 48.59375 48.679688 48.785156 48.410156 49.15625 C 48.136719 49.53125 48.003906 50.050781 48.003906 50.703125 Z M 56.035156 50.6875 C 55.316406 50.6875 54.8125 50.773438 54.535156 50.9375 C 54.253906 51.105469 54.113281 51.386719 54.113281 51.78125 C 54.113281 52.105469 54.214844 52.363281 54.425781 52.546875 C 54.632812 52.734375 54.917969 52.828125 55.285156 52.828125 C 55.78125 52.828125 56.183594 52.652344 56.488281 52.296875 C 56.789062 51.945312 56.941406 51.476562 56.941406 50.890625 L 56.941406 50.6875 Z M 57.832031 50.3125 L 57.832031 53.4375 L 56.941406 53.4375 L 56.941406 52.609375 C 56.730469 52.945312 56.46875 53.191406 56.160156 53.34375 C 55.855469 53.496094 55.484375 53.578125 55.050781 53.578125 C 54.488281 53.578125 54.039062 53.421875 53.707031 53.109375 C 53.371094 52.800781 53.207031 52.375 53.207031 51.84375 C 53.207031 51.230469 53.414062 50.765625 53.832031 50.453125 C 54.246094 50.144531 54.863281 49.984375 55.675781 49.984375 L 56.941406 49.984375 L 56.941406 49.890625 C 56.941406 49.488281 56.796875 49.167969 56.519531 48.9375 C 56.246094 48.710938 55.867188 48.59375 55.378906 48.59375 C 55.066406 48.59375 54.757812 48.636719 54.457031 48.71875 C 54.164062 48.792969 53.882812 48.902344 53.613281 49.046875 L 53.613281 48.21875 C 53.945312 48.097656 54.261719 48 54.566406 47.9375 C 54.875 47.878906 55.179688 47.84375 55.472656 47.84375 C 56.261719 47.84375 56.851562 48.050781 57.238281 48.453125 C 57.632812 48.859375 57.832031 49.480469 57.832031 50.3125 Z M 61.71875 53.953125 C 61.46875 54.597656 61.214844 55.019531 60.96875 55.21875 C 60.726562 55.414062 60.410156 55.515625 60.015625 55.515625 L 59.296875 55.515625 L 59.296875 54.765625 L 59.8125 54.765625 C 60.058594 54.765625 60.253906 54.707031 60.390625 54.59375 C 60.523438 54.476562 60.675781 54.199219 60.84375 53.765625 L 61.015625 53.34375 L 58.796875 47.96875 L 59.75 47.96875 L 61.453125 52.25 L 63.171875 47.96875 L 64.125 47.96875 Z M 61.71875 53.953125 "/>
<path style=" stroke:none;fill-rule:nonzero;fill:rgb(0%,0%,0%);fill-opacity:1;" d="M 19.46875 58.140625 L 25.640625 58.140625 L 25.640625 58.984375 L 23.046875 58.984375 L 23.046875 65.4375 L 22.0625 65.4375 L 22.0625 58.984375 L 19.46875 58.984375 Z M 30.851562 62.140625 L 30.851562 65.4375 L 29.960938 65.4375 L 29.960938 62.171875 C 29.960938 61.652344 29.855469 61.265625 29.648438 61.015625 C 29.449219 60.757812 29.144531 60.625 28.742188 60.625 C 28.261719 60.625 27.878906 60.785156 27.601562 61.09375 C 27.320312 61.398438 27.179688 61.816406 27.179688 62.34375 L 27.179688 65.4375 L 26.273438 65.4375 L 26.273438 57.84375 L 27.179688 57.84375 L 27.179688 60.8125 C 27.394531 60.492188 27.652344 60.25 27.945312 60.09375 C 28.234375 59.929688 28.570312 59.84375 28.945312 59.84375 C 29.566406 59.84375 30.042969 60.039062 30.367188 60.421875 C 30.6875 60.808594 30.851562 61.382812 30.851562 62.140625 Z M 32.304688 63.28125 L 32.304688 59.96875 L 33.210938 59.96875 L 33.210938 63.25 C 33.210938 63.761719 33.308594 64.148438 33.507812 64.40625 C 33.714844 64.667969 34.015625 64.796875 34.414062 64.796875 C 34.902344 64.796875 35.289062 64.648438 35.570312 64.34375 C 35.847656 64.035156 35.992188 63.605469 35.992188 63.0625 L 35.992188 59.96875 L 36.898438 59.96875 L 36.898438 65.4375 L 35.992188 65.4375 L 35.992188 64.59375 C 35.773438 64.929688 35.515625 65.179688 35.226562 65.34375 C 34.945312 65.496094 34.609375 65.578125 34.226562 65.578125 C 33.601562 65.578125 33.121094 65.386719 32.789062 65 C 32.464844 64.605469 32.304688 64.03125 32.304688 63.28125 Z M 34.570312 59.84375 Z M 41.664062 60.8125 C 41.558594 60.753906 41.449219 60.710938 41.335938 60.6875 C 41.21875 60.660156 41.089844 60.640625 40.945312 60.640625 C 40.433594 60.640625 40.042969 60.808594 39.773438 61.140625 C 39.5 61.464844 39.367188 61.941406 39.367188 62.5625 L 39.367188 65.4375 L 38.460938 65.4375 L 38.460938 59.96875 L 39.367188 59.96875 L 39.367188 60.8125 C 39.550781 60.480469 39.796875 60.234375 40.101562 60.078125 C 40.402344 59.925781 40.773438 59.84375 41.210938 59.84375 C 41.269531 59.84375 41.339844 59.851562 41.414062 59.859375 C 41.484375 59.859375 41.570312 59.871094 41.664062 59.890625 Z M 45.933594 60.125 L 45.933594 60.984375 C 45.683594 60.851562 45.421875 60.75 45.152344 60.6875 C 44.878906 60.628906 44.59375 60.59375 44.292969 60.59375 C 43.855469 60.59375 43.519531 60.664062 43.292969 60.796875 C 43.074219 60.933594 42.964844 61.136719 42.964844 61.40625 C 42.964844 61.617188 43.042969 61.785156 43.199219 61.90625 C 43.351562 62.023438 43.675781 62.132812 44.167969 62.234375 L 44.464844 62.3125 C 45.109375 62.449219 45.5625 62.644531 45.824219 62.890625 C 46.09375 63.140625 46.230469 63.488281 46.230469 63.921875 C 46.230469 64.433594 46.023438 64.839844 45.621094 65.140625 C 45.222656 65.433594 44.675781 65.578125 43.980469 65.578125 C 43.675781 65.578125 43.363281 65.542969 43.042969 65.484375 C 42.730469 65.433594 42.398438 65.351562 42.058594 65.234375 L 42.058594 64.3125 C 42.390625 64.480469 42.714844 64.613281 43.027344 64.703125 C 43.347656 64.789062 43.671875 64.828125 43.996094 64.828125 C 44.410156 64.828125 44.734375 64.757812 44.964844 64.609375 C 45.191406 64.464844 45.308594 64.261719 45.308594 64 C 45.308594 63.753906 45.222656 63.5625 45.058594 63.4375 C 44.902344 63.304688 44.539062 63.179688 43.980469 63.0625 L 43.667969 62.984375 C 43.113281 62.871094 42.710938 62.695312 42.464844 62.453125 C 42.214844 62.207031 42.089844 61.871094 42.089844 61.453125 C 42.089844 60.933594 42.269531 60.539062 42.636719 60.265625 C 43 59.988281 43.519531 59.84375 44.199219 59.84375 C 44.519531 59.84375 44.828125 59.871094 45.121094 59.921875 C 45.421875 59.964844 45.691406 60.035156 45.933594 60.125 Z M 51.066406 60.796875 L 51.066406 57.84375 L 51.957031 57.84375 L 51.957031 65.4375 L 51.066406 65.4375 L 51.066406 64.609375 C 50.878906 64.945312 50.636719 65.191406 50.347656 65.34375 C 50.054688 65.496094 49.703125 65.578125 49.300781 65.578125 C 48.644531 65.578125 48.105469 65.320312 47.691406 64.796875 C 47.273438 64.269531 47.066406 63.570312 47.066406 62.703125 C 47.066406 61.851562 47.273438 61.164062 47.691406 60.640625 C 48.105469 60.113281 48.644531 59.84375 49.300781 59.84375 C 49.703125 59.84375 50.054688 59.925781 50.347656 60.078125 C 50.636719 60.234375 50.878906 60.476562 51.066406 60.796875 Z M 48.003906 62.703125 C 48.003906 63.371094 48.136719 63.894531 48.410156 64.265625 C 48.679688 64.640625 49.054688 64.828125 49.535156 64.828125 C 50 64.828125 50.371094 64.640625 50.644531 64.265625 C 50.921875 63.894531 51.066406 63.371094 51.066406 62.703125 C 51.066406 62.050781 50.921875 61.53125 50.644531 61.15625 C 50.371094 60.785156 50 60.59375 49.535156 60.59375 C 49.054688 60.59375 48.679688 60.785156 48.410156 61.15625 C 48.136719 61.53125 48.003906 62.050781 48.003906 62.703125 Z M 56.035156 62.6875 C 55.316406 62.6875 54.8125 62.773438 54.535156 62.9375 C 54.253906 63.105469 54.113281 63.386719 54.113281 63.78125 C 54.113281 64.105469 54.214844 64.363281 54.425781 64.546875 C 54.632812 64.734375 54.917969 64.828125 55.285156 64.828125 C 55.78125 64.828125 56.183594 64.652344 56.488281 64.296875 C 56.789062 63.945312 56.941406 63.476562 56.941406 62.890625 L 56.941406 62.6875 Z M 57.832031 62.3125 L 57.832031 65.4375 L 56.941406 65.4375 L 56.941406 64.609375 C 56.730469 64.945312 56.46875 65.191406 56.160156 65.34375 C 55.855469 65.496094 55.484375 65.578125 55.050781 65.578125 C 54.488281 65.578125 54.039062 65.421875 53.707031 65.109375 C 53.371094 64.800781 53.207031 64.375 53.207031 63.84375 C 53.207031 63.230469 53.414062 62.765625 53.832031 62.453125 C 54.246094 62.144531 54.863281 61.984375 55.675781 61.984375 L 56.941406 61.984375 L 56.941406 61.890625 C 56.941406 61.488281 56.796875 61.167969 56.519531 60.9375 C 56.246094 60.710938 55.867188 60.59375 55.378906 60.59375 C 55.066406 60.59375 54.757812 60.636719 54.457031 60.71875 C 54.164062 60.792969 53.882812 60.902344 53.613281 61.046875 L 53.613281 60.21875 C 53.945312 60.097656 54.261719 60 54.566406 59.9375 C 54.875 59.878906 55.179688 59.84375 55.472656 59.84375 C 56.261719 59.84375 56.851562 60.050781 57.238281 60.453125 C 57.632812 60.859375 57.832031 61.480469 57.832031 62.3125 Z M 61.71875 65.953125 C 61.46875 66.597656 61.214844 67.019531 60.96875 67.21875 C 60.726562 67.414062 60.410156 67.515625 60.015625 67.515625 L 59.296875 67.515625 L 59.296875 66.765625 L 59.8125 66.765625 C 60.058594 66.765625 60.253906 66.707031 60.390625 66.59375 C 60.523438 66.476562 60.675781 66.199219 60.84375 65.765625 L 61.015625 65.34375 L 58.796875 59.96875 L 59.75 59.96875 L 61.453125 64.25 L 63.171875 59.96875 L 64.125 59.96875 Z M 61.71875 65.953125 "/>
<path style=" stroke:none;fill-rule:nonzero;fill:rgb(0%,0%,0%);fill-opacity:1;" d="M 36.046875 70.140625 L 40.234375 70.140625 L 40.234375 70.984375 L 37.03125 70.984375 L 37.03125 73.125 L 39.921875 73.125 L 39.921875 73.953125 L 37.03125 73.953125 L 37.03125 77.4375 L 36.046875 77.4375 Z M 44.007812 72.8125 C 43.902344 72.753906 43.792969 72.710938 43.679688 72.6875 C 43.5625 72.660156 43.433594 72.640625 43.289062 72.640625 C 42.777344 72.640625 42.386719 72.808594 42.117188 73.140625 C 41.84375 73.464844 41.710938 73.941406 41.710938 74.5625 L 41.710938 77.4375 L 40.804688 77.4375 L 40.804688 71.96875 L 41.710938 71.96875 L 41.710938 72.8125 C 41.894531 72.480469 42.140625 72.234375 42.445312 72.078125 C 42.746094 71.925781 43.117188 71.84375 43.554688 71.84375 C 43.613281 71.84375 43.683594 71.851562 43.757812 71.859375 C 43.828125 71.859375 43.914062 71.871094 44.007812 71.890625 Z M 44.792969 71.96875 L 45.699219 71.96875 L 45.699219 77.4375 L 44.792969 77.4375 Z M 44.792969 69.84375 L 45.699219 69.84375 L 45.699219 70.984375 L 44.792969 70.984375 Z M 51.066406 72.796875 L 51.066406 69.84375 L 51.957031 69.84375 L 51.957031 77.4375 L 51.066406 77.4375 L 51.066406 76.609375 C 50.878906 76.945312 50.636719 77.191406 50.347656 77.34375 C 50.054688 77.496094 49.703125 77.578125 49.300781 77.578125 C 48.644531 77.578125 48.105469 77.320312 47.691406 76.796875 C 47.273438 76.269531 47.066406 75.570312 47.066406 74.703125 C 47.066406 73.851562 47.273438 73.164062 47.691406 72.640625 C 48.105469 72.113281 48.644531 71.84375 49.300781 71.84375 C 49.703125 71.84375 50.054688 71.925781 50.347656 72.078125 C 50.636719 72.234375 50.878906 72.476562 51.066406 72.796875 Z M 48.003906 74.703125 C 48.003906 75.371094 48.136719 75.894531 48.410156 76.265625 C 48.679688 76.640625 49.054688 76.828125 49.535156 76.828125 C 50 76.828125 50.371094 76.640625 50.644531 76.265625 C 50.921875 75.894531 51.066406 75.371094 51.066406 74.703125 C 51.066406 74.050781 50.921875 73.53125 50.644531 73.15625 C 50.371094 72.785156 50 72.59375 49.535156 72.59375 C 49.054688 72.59375 48.679688 72.785156 48.410156 73.15625 C 48.136719 73.53125 48.003906 74.050781 48.003906 74.703125 Z M 56.035156 74.6875 C 55.316406 74.6875 54.8125 74.773438 54.535156 74.9375 C 54.253906 75.105469 54.113281 75.386719 54.113281 75.78125 C 54.113281 76.105469 54.214844 76.363281 54.425781 76.546875 C 54.632812 76.734375 54.917969 76.828125 55.285156 76.828125 C 55.78125 76.828125 56.183594 76.652344 56.488281 76.296875 C 56.789062 75.945312 56.941406 75.476562 56.941406 74.890625 L 56.941406 74.6875 Z M 57.832031 74.3125 L 57.832031 77.4375 L 56.941406 77.4375 L 56.941406 76.609375 C 56.730469 76.945312 56.46875 77.191406 56.160156 77.34375 C 55.855469 77.496094 55.484375 77.578125 55.050781 77.578125 C 54.488281 77.578125 54.039062 77.421875 53.707031 77.109375 C 53.371094 76.800781 53.207031 76.375 53.207031 75.84375 C 53.207031 75.230469 53.414062 74.765625 53.832031 74.453125 C 54.246094 74.144531 54.863281 73.984375 55.675781 73.984375 L 56.941406 73.984375 L 56.941406 73.890625 C 56.941406 73.488281 56.796875 73.167969 56.519531 72.9375 C 56.246094 72.710938 55.867188 72.59375 55.378906 72.59375 C 55.066406 72.59375 54.757812 72.636719 54.457031 72.71875 C 54.164062 72.792969 53.882812 72.902344 53.613281 73.046875 L 53.613281 72.21875 C 53.945312 72.097656 54.261719 72 54.566406 71.9375 C 54.875 71.878906 55.179688 71.84375 55.472656 71.84375 C 56.261719 71.84375 56.851562 72.050781 57.238281 72.453125 C 57.632812 72.859375 57.832031 73.480469 57.832031 74.3125 Z M 61.71875 77.953125 C 61.46875 78.597656 61.214844 79.019531 60.96875 79.21875 C 60.726562 79.414062 60.410156 79.515625 60.015625 79.515625 L 59.296875 79.515625 L 59.296875 78.765625 L 59.8125 78.765625 C 60.058594 78.765625 60.253906 78.707031 60.390625 78.59375 C 60.523438 78.476562 60.675781 78.199219 60.84375 77.765625 L 61.015625 77.34375 L 58.796875 71.96875 L 59.75 71.96875 L 61.453125 76.25 L 63.171875 71.96875 L 64.125 71.96875 Z M 61.71875 77.953125 "/>
<path style=" stroke:none;fill-rule:nonzero;fill:rgb(0%,0%,0%);fill-opacity:1;" d="M 26.246094 82.390625 L 26.246094 83.34375 C 25.871094 83.167969 25.515625 83.039062 25.183594 82.953125 C 24.847656 82.863281 24.523438 82.8125 24.214844 82.8125 C 23.683594 82.8125 23.269531 82.917969 22.980469 83.125 C 22.6875 83.335938 22.542969 83.632812 22.542969 84.015625 C 22.542969 84.339844 22.636719 84.585938 22.824219 84.75 C 23.019531 84.917969 23.390625 85.050781 23.933594 85.140625 L 24.527344 85.265625 C 25.253906 85.414062 25.796875 85.664062 26.152344 86.015625 C 26.503906 86.359375 26.683594 86.832031 26.683594 87.421875 C 26.683594 88.132812 26.441406 88.667969 25.964844 89.03125 C 25.496094 89.398438 24.800781 89.578125 23.886719 89.578125 C 23.542969 89.578125 23.171875 89.535156 22.777344 89.453125 C 22.390625 89.382812 21.988281 89.265625 21.574219 89.109375 L 21.574219 88.09375 C 21.976562 88.324219 22.371094 88.496094 22.746094 88.609375 C 23.128906 88.726562 23.511719 88.78125 23.886719 88.78125 C 24.445312 88.78125 24.878906 88.671875 25.183594 88.453125 C 25.492188 88.226562 25.652344 87.90625 25.652344 87.5 C 25.652344 87.148438 25.539062 86.871094 25.324219 86.671875 C 25.105469 86.464844 24.738281 86.308594 24.230469 86.203125 L 23.636719 86.09375 C 22.894531 85.949219 22.359375 85.71875 22.027344 85.40625 C 21.703125 85.097656 21.542969 84.65625 21.542969 84.09375 C 21.542969 83.449219 21.765625 82.945312 22.214844 82.578125 C 22.671875 82.207031 23.300781 82.015625 24.105469 82.015625 C 24.445312 82.015625 24.796875 82.050781 25.152344 82.109375 C 25.503906 82.171875 25.871094 82.269531 26.246094 82.390625 Z M 30.402344 86.6875 C 29.683594 86.6875 29.179688 86.773438 28.902344 86.9375 C 28.621094 87.105469 28.480469 87.386719 28.480469 87.78125 C 28.480469 88.105469 28.582031 88.363281 28.792969 88.546875 C 29 88.734375 29.285156 88.828125 29.652344 88.828125 C 30.148438 88.828125 30.550781 88.652344 30.855469 88.296875 C 31.15625 87.945312 31.308594 87.476562 31.308594 86.890625 L 31.308594 86.6875 Z M 32.199219 86.3125 L 32.199219 89.4375 L 31.308594 89.4375 L 31.308594 88.609375 C 31.097656 88.945312 30.835938 89.191406 30.527344 89.34375 C 30.222656 89.496094 29.851562 89.578125 29.417969 89.578125 C 28.855469 89.578125 28.40625 89.421875 28.074219 89.109375 C 27.738281 88.800781 27.574219 88.375 27.574219 87.84375 C 27.574219 87.230469 27.78125 86.765625 28.199219 86.453125 C 28.613281 86.144531 29.230469 85.984375 30.042969 85.984375 L 31.308594 85.984375 L 31.308594 85.890625 C 31.308594 85.488281 31.164062 85.167969 30.886719 84.9375 C 30.613281 84.710938 30.234375 84.59375 29.746094 84.59375 C 29.433594 84.59375 29.125 84.636719 28.824219 84.71875 C 28.53125 84.792969 28.25 84.902344 27.980469 85.046875 L 27.980469 84.21875 C 28.3125 84.097656 28.628906 84 28.933594 83.9375 C 29.242188 83.878906 29.546875 83.84375 29.839844 83.84375 C 30.628906 83.84375 31.21875 84.050781 31.605469 84.453125 C 32 84.859375 32.199219 85.480469 32.199219 86.3125 Z M 34.695312 82.421875 L 34.695312 83.96875 L 36.554688 83.96875 L 36.554688 84.671875 L 34.695312 84.671875 L 34.695312 87.640625 C 34.695312 88.078125 34.757812 88.367188 34.882812 88.5 C 35.003906 88.625 35.257812 88.6875 35.632812 88.6875 L 36.554688 88.6875 L 36.554688 89.4375 L 35.632812 89.4375 C 34.933594 89.4375 34.449219 89.308594 34.179688 89.046875 C 33.917969 88.789062 33.789062 88.320312 33.789062 87.640625 L 33.789062 84.671875 L 33.132812 84.671875 L 33.132812 83.96875 L 33.789062 83.96875 L 33.789062 82.421875 Z M 37.480469 87.28125 L 37.480469 83.96875 L 38.386719 83.96875 L 38.386719 87.25 C 38.386719 87.761719 38.484375 88.148438 38.683594 88.40625 C 38.890625 88.667969 39.191406 88.796875 39.589844 88.796875 C 40.078125 88.796875 40.464844 88.648438 40.746094 88.34375 C 41.023438 88.035156 41.167969 87.605469 41.167969 87.0625 L 41.167969 83.96875 L 42.074219 83.96875 L 42.074219 89.4375 L 41.167969 89.4375 L 41.167969 88.59375 C 40.949219 88.929688 40.691406 89.179688 40.402344 89.34375 C 40.121094 89.496094 39.785156 89.578125 39.402344 89.578125 C 38.777344 89.578125 38.296875 89.386719 37.964844 89 C 37.640625 88.605469 37.480469 88.03125 37.480469 87.28125 Z M 39.746094 83.84375 Z M 46.839844 84.8125 C 46.734375 84.753906 46.625 84.710938 46.511719 84.6875 C 46.394531 84.660156 46.265625 84.640625 46.121094 84.640625 C 45.609375 84.640625 45.21875 84.808594 44.949219 85.140625 C 44.675781 85.464844 44.542969 85.941406 44.542969 86.5625 L 44.542969 89.4375 L 43.636719 89.4375 L 43.636719 83.96875 L 44.542969 83.96875 L 44.542969 84.8125 C 44.726562 84.480469 44.972656 84.234375 45.277344 84.078125 C 45.578125 83.925781 45.949219 83.84375 46.386719 83.84375 C 46.445312 83.84375 46.515625 83.851562 46.589844 83.859375 C 46.660156 83.859375 46.746094 83.871094 46.839844 83.890625 Z M 51.066406 84.796875 L 51.066406 81.84375 L 51.957031 81.84375 L 51.957031 89.4375 L 51.066406 89.4375 L 51.066406 88.609375 C 50.878906 88.945312 50.636719 89.191406 50.347656 89.34375 C 50.054688 89.496094 49.703125 89.578125 49.300781 89.578125 C 48.644531 89.578125 48.105469 89.320312 47.691406 88.796875 C 47.273438 88.269531 47.066406 87.570312 47.066406 86.703125 C 47.066406 85.851562 47.273438 85.164062 47.691406 84.640625 C 48.105469 84.113281 48.644531 83.84375 49.300781 83.84375 C 49.703125 83.84375 50.054688 83.925781 50.347656 84.078125 C 50.636719 84.234375 50.878906 84.476562 51.066406 84.796875 Z M 48.003906 86.703125 C 48.003906 87.371094 48.136719 87.894531 48.410156 88.265625 C 48.679688 88.640625 49.054688 88.828125 49.535156 88.828125 C 50 88.828125 50.371094 88.640625 50.644531 88.265625 C 50.921875 87.894531 51.066406 87.371094 51.066406 86.703125 C 51.066406 86.050781 50.921875 85.53125 50.644531 85.15625 C 50.371094 84.785156 50 84.59375 49.535156 84.59375 C 49.054688 84.59375 48.679688 84.785156 48.410156 85.15625 C 48.136719 85.53125 48.003906 86.050781 48.003906 86.703125 Z M 56.035156 86.6875 C 55.316406 86.6875 54.8125 86.773438 54.535156 86.9375 C 54.253906 87.105469 54.113281 87.386719 54.113281 87.78125 C 54.113281 88.105469 54.214844 88.363281 54.425781 88.546875 C 54.632812 88.734375 54.917969 88.828125 55.285156 88.828125 C 55.78125 88.828125 56.183594 88.652344 56.488281 88.296875 C 56.789062 87.945312 56.941406 87.476562 56.941406 86.890625 L 56.941406 86.6875 Z M 57.832031 86.3125 L 57.832031 89.4375 L 56.941406 89.4375 L 56.941406 88.609375 C 56.730469 88.945312 56.46875 89.191406 56.160156 89.34375 C 55.855469 89.496094 55.484375 89.578125 55.050781 89.578125 C 54.488281 89.578125 54.039062 89.421875 53.707031 89.109375 C 53.371094 88.800781 53.207031 88.375 53.207031 87.84375 C 53.207031 87.230469 53.414062 86.765625 53.832031 86.453125 C 54.246094 86.144531 54.863281 85.984375 55.675781 85.984375 L 56.941406 85.984375 L 56.941406 85.890625 C 56.941406 85.488281 56.796875 85.167969 56.519531 84.9375 C 56.246094 84.710938 55.867188 84.59375 55.378906 84.59375 C 55.066406 84.59375 54.757812 84.636719 54.457031 84.71875 C 54.164062 84.792969 53.882812 84.902344 53.613281 85.046875 L 53.613281 84.21875 C 53.945312 84.097656 54.261719 84 54.566406 83.9375 C 54.875 83.878906 55.179688 83.84375 55.472656 83.84375 C 56.261719 83.84375 56.851562 84.050781 57.238281 84.453125 C 57.632812 84.859375 57.832031 85.480469 57.832031 86.3125 Z M 61.71875 89.953125 C 61.46875 90.597656 61.214844 91.019531 60.96875 91.21875 C 60.726562 91.414062 60.410156 91.515625 60.015625 91.515625 L 59.296875 91.515625 L 59.296875 90.765625 L 59.8125 90.765625 C 60.058594 90.765625 60.253906 90.707031 60.390625 90.59375 C 60.523438 90.476562 60.675781 90.199219 60.84375 89.765625 L 61.015625 89.34375 L 58.796875 83.96875 L 59.75 83.96875 L 61.453125 88.25 L 63.171875 83.96875 L 64.125 83.96875 Z M 61.71875 89.953125 "/>
<g clip-path="url(#clip1)" clip-rule="nonzero">
<path style="fill:none;stroke-width:0.8;stroke-linecap:round;stroke-linejoin:round;stroke:rgb(0%,0%,0%);stroke-opacity:1;stroke-miterlimit:4;" d="M 19.601562 0.390625 L 53.199219 0.390625 C 63.835938 0.390625 72.398438 8.953125 72.398438 19.589844 L 72.398438 81.988281 C 72.398438 92.625 63.835938 101.191406 53.199219 101.191406 L 19.601562 101.191406 C 8.964844 101.191406 0.398438 92.625 0.398438 81.988281 L 0.398438 19.589844 C 0.398438 8.953125 8.964844 0.390625 19.601562 0.390625 Z M 19.601562 0.390625 "/>
</g>
<g clip-path="url(#clip2)" clip-rule="nonzero">
<path style="fill:none;stroke-width:0.8;stroke-linecap:round;stroke-linejoin:round;stroke:rgb(0%,0%,0%);stroke-opacity:1;stroke-miterlimit:4;" d="M 134.800781 0.390625 L 211.601562 0.390625 C 222.238281 0.390625 230.800781 8.953125 230.800781 19.589844 L 230.800781 81.988281 C 230.800781 92.625 222.238281 101.191406 211.601562 101.191406 L 134.800781 101.191406 C 124.164062 101.191406 115.601562 92.625 115.601562 81.988281 L 115.601562 19.589844 C 115.601562 8.953125 124.164062 0.390625 134.800781 0.390625 Z M 134.800781 0.390625 "/>
</g>
<path style=" stroke:none;fill-rule:nonzero;fill:rgb(0%,0%,0%);fill-opacity:1;" d="M 143.023438 7.238281 C 142.304688 7.238281 141.800781 7.324219 141.523438 7.488281 C 141.242188 7.65625 141.101562 7.9375 141.101562 8.332031 C 141.101562 8.65625 141.203125 8.914062 141.414062 9.097656 C 141.621094 9.285156 141.90625 9.378906 142.273438 9.378906 C 142.769531 9.378906 143.171875 9.203125 143.476562 8.847656 C 143.777344 8.496094 143.929688 8.027344 143.929688 7.441406 L 143.929688 7.238281 Z M 144.820312 6.863281 L 144.820312 9.988281 L 143.929688 9.988281 L 143.929688 9.160156 C 143.71875 9.496094 143.457031 9.742188 143.148438 9.894531 C 142.84375 10.046875 142.472656 10.128906 142.039062 10.128906 C 141.476562 10.128906 141.027344 9.972656 140.695312 9.660156 C 140.359375 9.351562 140.195312 8.925781 140.195312 8.394531 C 140.195312 7.78125 140.402344 7.316406 140.820312 7.003906 C 141.234375 6.695312 141.851562 6.535156 142.664062 6.535156 L 143.929688 6.535156 L 143.929688 6.441406 C 143.929688 6.039062 143.785156 5.71875 143.507812 5.488281 C 143.234375 5.261719 142.855469 5.144531 142.367188 5.144531 C 142.054688 5.144531 141.746094 5.1875 141.445312 5.269531 C 141.152344 5.34375 140.871094 5.453125 140.601562 5.597656 L 140.601562 4.769531 C 140.933594 4.648438 141.25 4.550781 141.554688 4.488281 C 141.863281 4.429688 142.167969 4.394531 142.460938 4.394531 C 143.25 4.394531 143.839844 4.601562 144.226562 5.003906 C 144.621094 5.410156 144.820312 6.03125 144.820312 6.863281 Z M 144.820312 6.863281 "/>
<path style=" stroke:none;fill-rule:nonzero;fill:rgb(0%,0%,0%);fill-opacity:1;" d="M 176.148438 11.960938 C 176.148438 11.308594 176.003906 10.789062 175.726562 10.414062 C 175.453125 10.042969 175.082031 9.851562 174.617188 9.851562 C 174.136719 9.851562 173.761719 10.042969 173.492188 10.414062 C 173.21875 10.789062 173.085938 11.308594 173.085938 11.960938 C 173.085938 12.628906 173.21875 13.152344 173.492188 13.523438 C 173.761719 13.898438 174.136719 14.085938 174.617188 14.085938 C 175.082031 14.085938 175.453125 13.898438 175.726562 13.523438 C 176.003906 13.152344 176.148438 12.628906 176.148438 11.960938 Z M 173.085938 10.054688 C 173.269531 9.734375 173.507812 9.492188 173.789062 9.335938 C 174.078125 9.183594 174.429688 9.101562 174.835938 9.101562 C 175.5 9.101562 176.039062 9.371094 176.445312 9.898438 C 176.859375 10.421875 177.070312 11.109375 177.070312 11.960938 C 177.070312 12.828125 176.859375 13.527344 176.445312 14.054688 C 176.039062 14.578125 175.5 14.835938 174.835938 14.835938 C 174.429688 14.835938 174.078125 14.753906 173.789062 14.601562 C 173.507812 14.449219 173.269531 14.203125 173.085938 13.867188 L 173.085938 14.695312 L 172.179688 14.695312 L 172.179688 7.101562 L 173.085938 7.101562 Z M 173.085938 10.054688 "/>
<path style=" stroke:none;fill-rule:nonzero;fill:rgb(0%,0%,0%);fill-opacity:1;" d="M 221.273438 43.125 L 221.273438 43.96875 C 221.023438 43.835938 220.765625 43.730469 220.507812 43.65625 C 220.257812 43.585938 220 43.546875 219.742188 43.546875 C 219.15625 43.546875 218.703125 43.738281 218.382812 44.109375 C 218.058594 44.476562 217.898438 44.992188 217.898438 45.65625 C 217.898438 46.324219 218.058594 46.847656 218.382812 47.21875 C 218.703125 47.585938 219.15625 47.765625 219.742188 47.765625 C 220 47.765625 220.257812 47.734375 220.507812 47.671875 C 220.765625 47.601562 221.023438 47.492188 221.273438 47.34375 L 221.273438 48.1875 C 221.023438 48.304688 220.761719 48.386719 220.492188 48.4375 C 220.230469 48.496094 219.949219 48.53125 219.648438 48.53125 C 218.8125 48.53125 218.152344 48.277344 217.664062 47.765625 C 217.183594 47.246094 216.945312 46.542969 216.945312 45.65625 C 216.945312 44.773438 217.1875 44.074219 217.679688 43.5625 C 218.167969 43.054688 218.839844 42.796875 219.695312 42.796875 C 219.972656 42.796875 220.246094 42.824219 220.507812 42.875 C 220.765625 42.929688 221.023438 43.011719 221.273438 43.125 Z M 221.273438 43.125 "/>
<path style=" stroke:none;fill-rule:nonzero;fill:rgb(0%,0%,0%);fill-opacity:1;" d="M 182.546875 77.347656 L 182.546875 74.394531 L 183.4375 74.394531 L 183.4375 81.988281 L 182.546875 81.988281 L 182.546875 81.160156 C 182.359375 81.496094 182.117188 81.742188 181.828125 81.894531 C 181.535156 82.046875 181.183594 82.128906 180.78125 82.128906 C 180.125 82.128906 179.585938 81.871094 179.171875 81.347656 C 178.753906 80.820312 178.546875 80.121094 178.546875 79.253906 C 178.546875 78.402344 178.753906 77.714844 179.171875 77.191406 C 179.585938 76.664062 180.125 76.394531 180.78125 76.394531 C 181.183594 76.394531 181.535156 76.476562 181.828125 76.628906 C 182.117188 76.785156 182.359375 77.027344 182.546875 77.347656 Z M 179.484375 79.253906 C 179.484375 79.921875 179.617188 80.445312 179.890625 80.816406 C 180.160156 81.191406 180.535156 81.378906 181.015625 81.378906 C 181.480469 81.378906 181.851562 81.191406 182.125 80.816406 C 182.402344 80.445312 182.546875 79.921875 182.546875 79.253906 C 182.546875 78.601562 182.402344 78.082031 182.125 77.707031 C 181.851562 77.335938 181.480469 77.144531 181.015625 77.144531 C 180.535156 77.144531 180.160156 77.335938 179.890625 77.707031 C 179.617188 78.082031 179.484375 78.601562 179.484375 79.253906 Z M 179.484375 79.253906 "/>
<path style=" stroke:none;fill-rule:nonzero;fill:rgb(0%,0%,0%);fill-opacity:1;" d="M 181.476562 42.140625 L 181.476562 42.578125 L 177.335938 42.578125 C 177.375 43.195312 177.5625 43.664062 177.898438 43.984375 C 178.230469 44.308594 178.695312 44.46875 179.289062 44.46875 C 179.628906 44.46875 179.964844 44.429688 180.289062 44.34375 C 180.621094 44.261719 180.945312 44.136719 181.257812 43.96875 L 181.257812 44.8125 C 180.933594 44.949219 180.597656 45.054688 180.257812 45.125 C 179.921875 45.195312 179.582031 45.234375 179.242188 45.234375 C 178.367188 45.234375 177.671875 44.984375 177.164062 44.484375 C 176.652344 43.976562 176.398438 43.28125 176.398438 42.40625 C 176.398438 41.511719 176.636719 40.804688 177.117188 40.28125 C 177.605469 39.761719 178.261719 39.5 179.085938 39.5 C 179.824219 39.5 180.40625 39.738281 180.835938 40.203125 C 181.261719 40.671875 181.476562 41.320312 181.476562 42.140625 Z M 180.570312 41.875 C 180.570312 41.386719 180.433594 40.996094 180.164062 40.703125 C 179.890625 40.402344 179.535156 40.25 179.101562 40.25 C 178.589844 40.25 178.183594 40.398438 177.882812 40.6875 C 177.589844 40.96875 177.417969 41.367188 177.367188 41.875 Z M 180.570312 41.875 "/>
<path style=" stroke:none;fill-rule:nonzero;fill:rgb(0%,0%,0%);fill-opacity:1;" d="M 133.71875 31.195312 L 133.71875 31.945312 L 132.859375 31.945312 C 132.535156 31.945312 132.308594 32.015625 132.1875 32.148438 C 132.0625 32.273438 132 32.503906 132 32.835938 L 132 33.320312 L 133.46875 33.320312 L 133.46875 34.023438 L 132 34.023438 L 132 38.789062 L 131.09375 38.789062 L 131.09375 34.023438 L 130.234375 34.023438 L 130.234375 33.320312 L 131.09375 33.320312 L 131.09375 32.945312 C 131.09375 32.332031 131.234375 31.890625 131.515625 31.617188 C 131.792969 31.339844 132.242188 31.195312 132.859375 31.195312 Z M 133.71875 31.195312 "/>
<path style=" stroke:none;fill-rule:nonzero;fill:rgb(0%,0%,0%);fill-opacity:1;" d="M 197.722656 44.121094 C 197.722656 43.46875 197.585938 42.960938 197.316406 42.605469 C 197.042969 42.253906 196.667969 42.074219 196.191406 42.074219 C 195.699219 42.074219 195.320312 42.253906 195.050781 42.605469 C 194.789062 42.960938 194.660156 43.46875 194.660156 44.121094 C 194.660156 44.769531 194.789062 45.273438 195.050781 45.636719 C 195.320312 45.992188 195.699219 46.167969 196.191406 46.167969 C 196.667969 46.167969 197.042969 45.992188 197.316406 45.636719 C 197.585938 45.273438 197.722656 44.769531 197.722656 44.121094 Z M 198.613281 46.246094 C 198.613281 47.171875 198.402344 47.859375 197.988281 48.308594 C 197.582031 48.765625 196.949219 48.996094 196.097656 48.996094 C 195.785156 48.996094 195.484375 48.96875 195.207031 48.917969 C 194.925781 48.875 194.652344 48.804688 194.394531 48.714844 L 194.394531 47.839844 C 194.652344 47.984375 194.910156 48.089844 195.160156 48.152344 C 195.417969 48.222656 195.683594 48.261719 195.957031 48.261719 C 196.539062 48.261719 196.976562 48.101562 197.269531 47.792969 C 197.570312 47.488281 197.722656 47.023438 197.722656 46.402344 L 197.722656 45.949219 C 197.535156 46.273438 197.292969 46.519531 197.003906 46.683594 C 196.710938 46.839844 196.359375 46.917969 195.957031 46.917969 C 195.289062 46.917969 194.746094 46.664062 194.332031 46.152344 C 193.925781 45.644531 193.722656 44.964844 193.722656 44.121094 C 193.722656 43.28125 193.925781 42.601562 194.332031 42.089844 C 194.746094 41.582031 195.289062 41.324219 195.957031 41.324219 C 196.359375 41.324219 196.710938 41.40625 197.003906 41.558594 C 197.292969 41.714844 197.535156 41.957031 197.722656 42.277344 L 197.722656 41.449219 L 198.613281 41.449219 Z M 198.613281 46.246094 "/>
<path style=" stroke:none;fill-rule:nonzero;fill:rgb(0%,0%,0%);fill-opacity:1;" d="M 206.234375 78.570312 L 206.234375 81.867188 L 205.34375 81.867188 L 205.34375 78.601562 C 205.34375 78.082031 205.238281 77.695312 205.03125 77.445312 C 204.832031 77.1875 204.527344 77.054688 204.125 77.054688 C 203.644531 77.054688 203.261719 77.214844 202.984375 77.523438 C 202.703125 77.828125 202.5625 78.246094 202.5625 78.773438 L 202.5625 81.867188 L 201.65625 81.867188 L 201.65625 74.273438 L 202.5625 74.273438 L 202.5625 77.242188 C 202.777344 76.921875 203.035156 76.679688 203.328125 76.523438 C 203.617188 76.359375 203.953125 76.273438 204.328125 76.273438 C 204.949219 76.273438 205.425781 76.46875 205.75 76.851562 C 206.070312 77.238281 206.234375 77.8125 206.234375 78.570312 Z M 206.234375 78.570312 "/>
<path style=" stroke:none;fill-rule:nonzero;fill:rgb(0%,0%,0%);fill-opacity:1;" d="M 192.289062 57.25 L 193.195312 57.25 L 193.195312 62.71875 L 192.289062 62.71875 Z M 192.289062 55.125 L 193.195312 55.125 L 193.195312 56.265625 L 192.289062 56.265625 Z M 192.289062 55.125 "/>
<path style=" stroke:none;fill-rule:nonzero;fill:rgb(0%,0%,0%);fill-opacity:1;" d="M 145.335938 38.121094 L 146.242188 38.121094 L 146.242188 43.683594 C 146.242188 44.378906 146.105469 44.886719 145.835938 45.199219 C 145.574219 45.507812 145.144531 45.667969 144.554688 45.667969 L 144.210938 45.667969 L 144.210938 44.902344 L 144.460938 44.902344 C 144.800781 44.902344 145.03125 44.820312 145.148438 44.667969 C 145.269531 44.511719 145.335938 44.179688 145.335938 43.683594 Z M 145.335938 35.996094 L 146.242188 35.996094 L 146.242188 37.136719 L 145.335938 37.136719 Z M 145.335938 35.996094 "/>
<path style=" stroke:none;fill-rule:nonzero;fill:rgb(0%,0%,0%);fill-opacity:1;" d="M 160.929688 72.449219 L 161.835938 72.449219 L 161.835938 76.933594 L 164.523438 74.574219 L 165.664062 74.574219 L 162.757812 77.136719 L 165.789062 80.042969 L 164.617188 80.042969 L 161.835938 77.371094 L 161.835938 80.042969 L 160.929688 80.042969 Z M 160.929688 72.449219 "/>
<path style=" stroke:none;fill-rule:nonzero;fill:rgb(0%,0%,0%);fill-opacity:1;" d="M 162.789062 46.300781 L 163.695312 46.300781 L 163.695312 53.894531 L 162.789062 53.894531 Z M 162.789062 46.300781 "/>
<path style=" stroke:none;fill-rule:nonzero;fill:rgb(0%,0%,0%);fill-opacity:1;" d="M 130.402344 19.96875 C 130.617188 19.566406 130.886719 19.265625 131.199219 19.078125 C 131.507812 18.894531 131.878906 18.796875 132.308594 18.796875 C 132.878906 18.796875 133.316406 18.996094 133.621094 19.390625 C 133.929688 19.789062 134.089844 20.355469 134.089844 21.09375 L 134.089844 24.390625 L 133.183594 24.390625 L 133.183594 21.125 C 133.183594 20.597656 133.085938 20.203125 132.902344 19.953125 C 132.722656 19.707031 132.441406 19.578125 132.058594 19.578125 C 131.589844 19.578125 131.21875 19.738281 130.949219 20.046875 C 130.6875 20.351562 130.558594 20.769531 130.558594 21.296875 L 130.558594 24.390625 L 129.652344 24.390625 L 129.652344 21.125 C 129.652344 20.597656 129.554688 20.203125 129.371094 19.953125 C 129.183594 19.707031 128.894531 19.578125 128.511719 19.578125 C 128.050781 19.578125 127.6875 19.738281 127.417969 20.046875 C 127.144531 20.351562 127.011719 20.769531 127.011719 21.296875 L 127.011719 24.390625 L 126.105469 24.390625 L 126.105469 18.921875 L 127.011719 18.921875 L 127.011719 19.765625 C 127.21875 19.433594 127.464844 19.1875 127.746094 19.03125 C 128.035156 18.878906 128.375 18.796875 128.761719 18.796875 C 129.164062 18.796875 129.503906 18.898438 129.777344 19.09375 C 130.054688 19.292969 130.265625 19.585938 130.402344 19.96875 Z M 130.402344 19.96875 "/>
<path style=" stroke:none;fill-rule:nonzero;fill:rgb(0%,0%,0%);fill-opacity:1;" d="M 183.484375 25.894531 L 183.484375 29.191406 L 182.59375 29.191406 L 182.59375 25.925781 C 182.59375 25.40625 182.488281 25.019531 182.28125 24.769531 C 182.082031 24.511719 181.777344 24.378906 181.375 24.378906 C 180.894531 24.378906 180.511719 24.539062 180.234375 24.847656 C 179.953125 25.152344 179.8125 25.570312 179.8125 26.097656 L 179.8125 29.191406 L 178.90625 29.191406 L 178.90625 23.722656 L 179.8125 23.722656 L 179.8125 24.566406 C 180.027344 24.246094 180.285156 24.003906 180.578125 23.847656 C 180.867188 23.683594 181.203125 23.597656 181.578125 23.597656 C 182.199219 23.597656 182.675781 23.792969 183 24.175781 C 183.320312 24.5625 183.484375 25.136719 183.484375 25.894531 Z M 183.484375 25.894531 "/>
<path style=" stroke:none;fill-rule:nonzero;fill:rgb(0%,0%,0%);fill-opacity:1;" d="M 195.460938 19.546875 C 194.980469 19.546875 194.597656 19.738281 194.320312 20.109375 C 194.039062 20.484375 193.898438 21.003906 193.898438 21.65625 C 193.898438 22.3125 194.03125 22.832031 194.304688 23.203125 C 194.582031 23.578125 194.96875 23.765625 195.460938 23.765625 C 195.9375 23.765625 196.320312 23.578125 196.601562 23.203125 C 196.878906 22.832031 197.023438 22.3125 197.023438 21.65625 C 197.023438 21.011719 196.878906 20.5 196.601562 20.125 C 196.320312 19.742188 195.9375 19.546875 195.460938 19.546875 Z M 195.460938 18.796875 C 196.238281 18.796875 196.855469 19.054688 197.304688 19.5625 C 197.75 20.0625 197.976562 20.761719 197.976562 21.65625 C 197.976562 22.554688 197.75 23.257812 197.304688 23.765625 C 196.855469 24.277344 196.238281 24.53125 195.460938 24.53125 C 194.679688 24.53125 194.0625 24.277344 193.617188 23.765625 C 193.167969 23.257812 192.945312 22.554688 192.945312 21.65625 C 192.945312 20.761719 193.167969 20.0625 193.617188 19.5625 C 194.0625 19.054688 194.679688 18.796875 195.460938 18.796875 Z M 195.460938 18.796875 "/>
<path style=" stroke:none;fill-rule:nonzero;fill:rgb(0%,0%,0%);fill-opacity:1;" d="M 208.613281 61.960938 L 208.613281 64.867188 L 207.707031 64.867188 L 207.707031 57.320312 L 208.613281 57.320312 L 208.613281 58.148438 C 208.796875 57.828125 209.035156 57.585938 209.316406 57.429688 C 209.605469 57.277344 209.957031 57.195312 210.363281 57.195312 C 211.027344 57.195312 211.566406 57.464844 211.972656 57.992188 C 212.386719 58.515625 212.597656 59.203125 212.597656 60.054688 C 212.597656 60.921875 212.386719 61.621094 211.972656 62.148438 C 211.566406 62.671875 211.027344 62.929688 210.363281 62.929688 C 209.957031 62.929688 209.605469 62.847656 209.316406 62.695312 C 209.035156 62.542969 208.796875 62.296875 208.613281 61.960938 Z M 211.675781 60.054688 C 211.675781 59.402344 211.53125 58.882812 211.253906 58.507812 C 210.980469 58.136719 210.609375 57.945312 210.144531 57.945312 C 209.664062 57.945312 209.289062 58.136719 209.019531 58.507812 C 208.746094 58.882812 208.613281 59.402344 208.613281 60.054688 C 208.613281 60.722656 208.746094 61.246094 209.019531 61.617188 C 209.289062 61.992188 209.664062 62.179688 210.144531 62.179688 C 210.609375 62.179688 210.980469 61.992188 211.253906 61.617188 C 211.53125 61.246094 211.675781 60.722656 211.675781 60.054688 Z M 211.675781 60.054688 "/>
<path style=" stroke:none;fill-rule:nonzero;fill:rgb(0%,0%,0%);fill-opacity:1;" d="M 174.683594 60.054688 C 174.683594 60.722656 174.816406 61.246094 175.089844 61.617188 C 175.359375 61.992188 175.734375 62.179688 176.214844 62.179688 C 176.679688 62.179688 177.050781 61.992188 177.324219 61.617188 C 177.601562 61.246094 177.746094 60.722656 177.746094 60.054688 C 177.746094 59.402344 177.601562 58.882812 177.324219 58.507812 C 177.050781 58.136719 176.679688 57.945312 176.214844 57.945312 C 175.734375 57.945312 175.359375 58.136719 175.089844 58.507812 C 174.816406 58.882812 174.683594 59.402344 174.683594 60.054688 Z M 177.746094 61.960938 C 177.558594 62.296875 177.316406 62.542969 177.027344 62.695312 C 176.734375 62.847656 176.382812 62.929688 175.980469 62.929688 C 175.324219 62.929688 174.785156 62.671875 174.371094 62.148438 C 173.953125 61.621094 173.746094 60.921875 173.746094 60.054688 C 173.746094 59.203125 173.953125 58.515625 174.371094 57.992188 C 174.785156 57.464844 175.324219 57.195312 175.980469 57.195312 C 176.382812 57.195312 176.734375 57.277344 177.027344 57.429688 C 177.316406 57.585938 177.558594 57.828125 177.746094 58.148438 L 177.746094 57.320312 L 178.636719 57.320312 L 178.636719 64.867188 L 177.746094 64.867188 Z M 177.746094 61.960938 "/>
<path style=" stroke:none;fill-rule:nonzero;fill:rgb(0%,0%,0%);fill-opacity:1;" d="M 136.628906 70.175781 L 136.628906 71.722656 L 138.488281 71.722656 L 138.488281 72.425781 L 136.628906 72.425781 L 136.628906 75.394531 C 136.628906 75.832031 136.691406 76.121094 136.816406 76.253906 C 136.9375 76.378906 137.191406 76.441406 137.566406 76.441406 L 138.488281 76.441406 L 138.488281 77.191406 L 137.566406 77.191406 C 136.867188 77.191406 136.382812 77.0625 136.113281 76.800781 C 135.851562 76.542969 135.722656 76.074219 135.722656 75.394531 L 135.722656 72.425781 L 135.066406 72.425781 L 135.066406 71.722656 L 135.722656 71.722656 L 135.722656 70.175781 Z M 136.628906 70.175781 "/>
<path style=" stroke:none;fill-rule:nonzero;fill:rgb(0%,0%,0%);fill-opacity:1;" d="M 215.710938 29.363281 C 215.605469 29.304688 215.496094 29.261719 215.382812 29.238281 C 215.265625 29.210938 215.136719 29.191406 214.992188 29.191406 C 214.480469 29.191406 214.089844 29.359375 213.820312 29.691406 C 213.546875 30.015625 213.414062 30.492188 213.414062 31.113281 L 213.414062 33.988281 L 212.507812 33.988281 L 212.507812 28.519531 L 213.414062 28.519531 L 213.414062 29.363281 C 213.597656 29.03125 213.84375 28.785156 214.148438 28.628906 C 214.449219 28.476562 214.820312 28.394531 215.257812 28.394531 C 215.316406 28.394531 215.386719 28.402344 215.460938 28.410156 C 215.53125 28.410156 215.617188 28.421875 215.710938 28.441406 Z M 215.710938 29.363281 "/>
<path style=" stroke:none;fill-rule:nonzero;fill:rgb(0%,0%,0%);fill-opacity:1;" d="M 134.421875 52.675781 L 134.421875 53.535156 C 134.171875 53.402344 133.910156 53.300781 133.640625 53.238281 C 133.367188 53.179688 133.082031 53.144531 132.78125 53.144531 C 132.34375 53.144531 132.007812 53.214844 131.78125 53.347656 C 131.5625 53.484375 131.453125 53.6875 131.453125 53.957031 C 131.453125 54.167969 131.53125 54.335938 131.6875 54.457031 C 131.839844 54.574219 132.164062 54.683594 132.65625 54.785156 L 132.953125 54.863281 C 133.597656 55 134.050781 55.195312 134.3125 55.441406 C 134.582031 55.691406 134.71875 56.039062 134.71875 56.472656 C 134.71875 56.984375 134.511719 57.390625 134.109375 57.691406 C 133.710938 57.984375 133.164062 58.128906 132.46875 58.128906 C 132.164062 58.128906 131.851562 58.09375 131.53125 58.035156 C 131.21875 57.984375 130.886719 57.902344 130.546875 57.785156 L 130.546875 56.863281 C 130.878906 57.03125 131.203125 57.164062 131.515625 57.253906 C 131.835938 57.339844 132.160156 57.378906 132.484375 57.378906 C 132.898438 57.378906 133.222656 57.308594 133.453125 57.160156 C 133.679688 57.015625 133.796875 56.8125 133.796875 56.550781 C 133.796875 56.304688 133.710938 56.113281 133.546875 55.988281 C 133.390625 55.855469 133.027344 55.730469 132.46875 55.613281 L 132.15625 55.535156 C 131.601562 55.421875 131.199219 55.246094 130.953125 55.003906 C 130.703125 54.757812 130.578125 54.421875 130.578125 54.003906 C 130.578125 53.484375 130.757812 53.089844 131.125 52.816406 C 131.488281 52.539062 132.007812 52.394531 132.6875 52.394531 C 133.007812 52.394531 133.316406 52.421875 133.609375 52.472656 C 133.910156 52.515625 134.179688 52.585938 134.421875 52.675781 Z M 134.421875 52.675781 "/>
<path style=" stroke:none;fill-rule:nonzero;fill:rgb(0%,0%,0%);fill-opacity:1;" d="M 150.042969 22.234375 L 150.042969 18.921875 L 150.949219 18.921875 L 150.949219 22.203125 C 150.949219 22.714844 151.046875 23.101562 151.246094 23.359375 C 151.453125 23.621094 151.753906 23.75 152.152344 23.75 C 152.640625 23.75 153.027344 23.601562 153.308594 23.296875 C 153.585938 22.988281 153.730469 22.558594 153.730469 22.015625 L 153.730469 18.921875 L 154.636719 18.921875 L 154.636719 24.390625 L 153.730469 24.390625 L 153.730469 23.546875 C 153.511719 23.882812 153.253906 24.132812 152.964844 24.296875 C 152.683594 24.449219 152.347656 24.53125 151.964844 24.53125 C 151.339844 24.53125 150.859375 24.339844 150.527344 23.953125 C 150.203125 23.558594 150.042969 22.984375 150.042969 22.234375 Z M 152.308594 18.796875 Z M 152.308594 18.796875 "/>
<path style=" stroke:none;fill-rule:nonzero;fill:rgb(0%,0%,0%);fill-opacity:1;" d="M 159.097656 86.121094 L 160.050781 86.121094 L 161.753906 90.714844 L 163.472656 86.121094 L 164.425781 86.121094 L 162.363281 91.589844 L 161.144531 91.589844 Z M 159.097656 86.121094 "/>
<path style=" stroke:none;fill-rule:nonzero;fill:rgb(0%,0%,0%);fill-opacity:1;" d="M 135.222656 86.121094 L 136.113281 86.121094 L 137.238281 90.386719 L 138.363281 86.121094 L 139.425781 86.121094 L 140.550781 90.386719 L 141.660156 86.121094 L 142.566406 86.121094 L 141.128906 91.589844 L 140.066406 91.589844 L 138.894531 87.105469 L 137.707031 91.589844 L 136.644531 91.589844 Z M 135.222656 86.121094 "/>
<path style=" stroke:none;fill-rule:nonzero;fill:rgb(0%,0%,0%);fill-opacity:1;" d="M 202.683594 4.519531 L 200.714844 7.175781 L 202.792969 9.988281 L 201.730469 9.988281 L 200.136719 7.832031 L 198.542969 9.988281 L 197.480469 9.988281 L 199.605469 7.128906 L 197.667969 4.519531 L 198.730469 4.519531 L 200.183594 6.472656 L 201.621094 4.519531 Z M 202.683594 4.519531 "/>
<path style=" stroke:none;fill-rule:nonzero;fill:rgb(0%,0%,0%);fill-opacity:1;" d="M 195.617188 96.90625 C 195.367188 97.550781 195.113281 97.972656 194.867188 98.171875 C 194.625 98.367188 194.308594 98.46875 193.914062 98.46875 L 193.195312 98.46875 L 193.195312 97.71875 L 193.710938 97.71875 C 193.957031 97.71875 194.152344 97.660156 194.289062 97.546875 C 194.421875 97.429688 194.574219 97.152344 194.742188 96.71875 L 194.914062 96.296875 L 192.695312 90.921875 L 193.648438 90.921875 L 195.351562 95.203125 L 197.070312 90.921875 L 198.023438 90.921875 Z M 195.617188 96.90625 "/>
<path style=" stroke:none;fill-rule:nonzero;fill:rgb(0%,0%,0%);fill-opacity:1;" d="M 216.945312 71.722656 L 221.210938 71.722656 L 221.210938 72.535156 L 217.835938 76.472656 L 221.210938 76.472656 L 221.210938 77.191406 L 216.835938 77.191406 L 216.835938 76.363281 L 220.210938 72.441406 L 216.945312 72.441406 Z M 216.945312 71.722656 "/>
<path style="fill:none;stroke-width:1.6;stroke-linecap:butt;stroke-linejoin:miter;stroke:rgb(100%,100%,100%);stroke-opacity:1;stroke-miterlimit:4;" d="M 65.597656 87.597656 L 127.453125 58.890625 "/>
<path style="fill:none;stroke-width:0.8;stroke-linecap:butt;stroke-linejoin:miter;stroke:rgb(100%,0%,0%);stroke-opacity:1;stroke-miterlimit:4;" d="M 65.535156 87.703125 L 127.390625 58.996094 "/>
<path style="fill-rule:evenodd;fill:rgb(100%,0%,0%);fill-opacity:1;stroke-width:0.181416;stroke-linecap:butt;stroke-linejoin:miter;stroke:rgb(100%,0%,0%);stroke-opacity:1;stroke-miterlimit:4;" d="M 21.145456 97.18415 C 21.1461 97.586793 20.820989 97.908573 20.421561 97.910709 C 20.018918 97.911353 19.693923 97.58475 19.695002 97.186813 C 19.694358 96.784171 20.020961 96.459176 20.418898 96.460254 C 20.82154 96.45961 21.146535 96.786213 21.145456 97.18415 Z M 21.145456 97.18415 " transform="matrix(1,-0.464074,0.464074,1,0,0)"/>
<path style="fill-rule:evenodd;fill:rgb(100%,0%,0%);fill-opacity:1;stroke-width:0.362833;stroke-linecap:butt;stroke-linejoin:miter;stroke:rgb(100%,0%,0%);stroke-opacity:1;stroke-miterlimit:4;" d="M -79.387132 -97.185254 L -77.936126 -98.63688 L -83.015852 -97.185655 L -77.935506 -95.734248 Z M -79.387132 -97.185254 " transform="matrix(-1,0.464074,-0.464074,-1,0,0)"/>
<path style="fill:none;stroke-width:1.6;stroke-linecap:butt;stroke-linejoin:miter;stroke:rgb(100%,100%,100%);stroke-opacity:1;stroke-miterlimit:4;" d="M 66.832031 63.097656 L 130.785156 73.5 "/>
<path style="fill:none;stroke-width:0.8;stroke-linecap:butt;stroke-linejoin:miter;stroke:rgb(100%,0%,0%);stroke-opacity:1;stroke-miterlimit:4;" d="M 66.671875 62.929688 L 130.53125 73.515625 "/>
<path style="fill-rule:evenodd;fill:rgb(100%,0%,0%);fill-opacity:1;stroke-width:0.197309;stroke-linecap:butt;stroke-linejoin:miter;stroke:rgb(100%,0%,0%);stroke-opacity:1;stroke-miterlimit:4;" d="M 75.813682 50.493992 C 75.812016 50.931768 75.46008 51.283064 75.022934 51.285199 C 74.588959 51.282903 74.233862 50.931597 74.231727 50.494451 C 74.233393 50.056675 74.585329 49.70538 75.022475 49.703244 C 75.460251 49.70491 75.811546 50.056846 75.813682 50.493992 Z M 75.813682 50.493992 " transform="matrix(1,0.16573,-0.16573,1,0,0)"/>
<path style="fill-rule:evenodd;fill:rgb(100%,0%,0%);fill-opacity:1;stroke-width:0.394617;stroke-linecap:butt;stroke-linejoin:miter;stroke:rgb(100%,0%,0%);stroke-opacity:1;stroke-miterlimit:4;" d="M -135.743603 -50.4954 L -134.161476 -52.074012 L -139.688671 -50.493928 L -134.161819 -48.917706 Z M -135.743603 -50.4954 " transform="matrix(-1,-0.16573,0.16573,-1,0,0)"/>
<path style="fill:none;stroke-width:1.6;stroke-linecap:butt;stroke-linejoin:miter;stroke:rgb(100%,100%,100%);stroke-opacity:1;stroke-miterlimit:4;" d="M 64.871094 -15.054688 L 127.960938 -53.75 " transform="matrix(1,0,0,-1,0,0)"/>
<path style="fill:none;stroke-width:0.8;stroke-linecap:butt;stroke-linejoin:miter;stroke:rgb(100%,0%,0%);stroke-opacity:1;stroke-miterlimit:4;" d="M 64.808594 -14.949219 L 128.011719 -53.644531 " transform="matrix(1,0,0,-1,0,0)"/>
<path style="fill-rule:evenodd;fill:rgb(100%,0%,0%);fill-opacity:1;stroke-width:0.170572;stroke-linecap:butt;stroke-linejoin:miter;stroke:rgb(100%,0%,0%);stroke-opacity:1;stroke-miterlimit:4;" d="M 54.4656 17.985391 C 54.466246 18.360786 54.16183 18.666606 53.783594 18.665512 C 53.408199 18.666157 53.102379 18.361742 53.101734 17.986347 C 53.102828 17.60811 53.407243 17.302291 53.78548 17.303385 C 54.160875 17.30274 54.466694 17.607155 54.4656 17.985391 Z M 54.4656 17.985391 " transform="matrix(1,0.612217,0.612217,-1,0,0)"/>
<path style="fill-rule:evenodd;fill:rgb(100%,0%,0%);fill-opacity:1;stroke-width:0.341145;stroke-linecap:butt;stroke-linejoin:miter;stroke:rgb(100%,0%,0%);stroke-opacity:1;stroke-miterlimit:4;" d="M -114.270214 -17.985511 L -112.907303 -19.350333 L -117.6813 -17.983993 L -112.907132 -16.619759 Z M -114.270214 -17.985511 " transform="matrix(-1,-0.612217,-0.612217,1,0,0)"/>
<path style="fill:none;stroke-width:1.6;stroke-linecap:butt;stroke-linejoin:miter;stroke:rgb(100%,100%,100%);stroke-opacity:1;stroke-miterlimit:4;" d="M 65.527344 -26.378906 L 123.804688 -21.21875 " transform="matrix(1,0,0,-1,0,0)"/>
<path style="fill:none;stroke-width:0.8;stroke-linecap:butt;stroke-linejoin:miter;stroke:rgb(100%,0%,0%);stroke-opacity:1;stroke-miterlimit:4;" d="M 65.734375 -26.363281 L 124.167969 -21.125 " transform="matrix(1,0,0,-1,0,0)"/>
<path style="fill-rule:evenodd;fill:rgb(100%,0%,0%);fill-opacity:1;stroke-width:0.199201;stroke-linecap:butt;stroke-linejoin:miter;stroke:rgb(100%,0%,0%);stroke-opacity:1;stroke-miterlimit:4;" d="M 63.64745 -31.998065 C 63.647602 -31.560579 63.292795 -31.204557 62.851434 -31.204057 C 62.413947 -31.203905 62.05405 -31.558364 62.053551 -31.999726 C 62.057274 -32.43756 62.411733 -32.797457 62.853094 -32.797956 C 63.290928 -32.794233 63.64695 -32.439427 63.64745 -31.998065 Z M 63.64745 -31.998065 " transform="matrix(1,-0.0896359,-0.0896359,-1,0,0)"/>
<path style="fill-rule:evenodd;fill:rgb(100%,0%,0%);fill-opacity:1;stroke-width:0.398403;stroke-linecap:butt;stroke-linejoin:miter;stroke:rgb(100%,0%,0%);stroke-opacity:1;stroke-miterlimit:4;" d="M -118.112018 32.00114 L -116.516806 30.405026 L -122.096591 31.998925 L -116.520127 33.592824 Z M -118.112018 32.00114 " transform="matrix(-1,0.0896359,0.0896359,1,0,0)"/>
<path style="fill:none;stroke-width:1.6;stroke-linecap:butt;stroke-linejoin:miter;stroke:rgb(100%,100%,100%);stroke-opacity:1;stroke-miterlimit:4;" d="M 66.539062 74.011719 L 126.753906 36.597656 "/>
<path style="fill:none;stroke-width:0.8;stroke-linecap:butt;stroke-linejoin:miter;stroke:rgb(100%,0%,0%);stroke-opacity:1;stroke-miterlimit:4;" d="M 66.476562 74.117188 L 128.433594 35.46875 "/>
<path style="fill-rule:evenodd;fill:rgb(100%,0%,0%);fill-opacity:1;stroke-width:0.169695;stroke-linecap:butt;stroke-linejoin:miter;stroke:rgb(100%,0%,0%);stroke-opacity:1;stroke-miterlimit:4;" d="M 15.239521 83.208716 C 15.241614 83.581115 14.937295 83.88739 14.562083 83.887729 C 14.186872 83.888067 13.885163 83.58269 13.884824 83.207479 C 13.884486 82.832267 14.187051 82.528804 14.562262 82.528465 C 14.937473 82.528127 15.241995 82.835258 15.239521 83.208716 Z M 15.239521 83.208716 " transform="matrix(1,-0.623746,0.623746,1,0,0)"/>
<path style="fill-rule:evenodd;fill:rgb(100%,0%,0%);fill-opacity:1;stroke-width:0.33939;stroke-linecap:butt;stroke-linejoin:miter;stroke:rgb(100%,0%,0%);stroke-opacity:1;stroke-miterlimit:4;" d="M -73.818181 -83.207858 L -72.460493 -84.56413 L -77.212651 -83.207957 L -72.461909 -81.85017 Z M -73.818181 -83.207858 " transform="matrix(-1,0.623746,-0.623746,-1,0,0)"/>
<path style="fill:none;stroke-width:1.6;stroke-linecap:butt;stroke-linejoin:miter;stroke:rgb(100%,100%,100%);stroke-opacity:1;stroke-miterlimit:4;" d="M 66.535156 -51.691406 L 130.753906 -85.976562 " transform="matrix(1,0,0,-1,0,0)"/>
<path style="fill:none;stroke-width:0.8;stroke-linecap:butt;stroke-linejoin:miter;stroke:rgb(100%,0%,0%);stroke-opacity:1;stroke-miterlimit:4;" d="M 66.472656 -51.585938 L 132.441406 -86.898438 " transform="matrix(1,0,0,-1,0,0)"/>
<path style="fill-rule:evenodd;fill:rgb(100%,0%,0%);fill-opacity:1;stroke-width:0.176328;stroke-linecap:butt;stroke-linejoin:miter;stroke:rgb(100%,0%,0%);stroke-opacity:1;stroke-miterlimit:4;" d="M 73.823502 -12.441156 C 73.824937 -12.049763 73.508027 -11.735022 73.116634 -11.733588 C 72.729902 -11.733564 72.412125 -12.0521 72.412102 -12.438831 C 72.413703 -12.828599 72.727577 -13.144965 73.11897 -13.146399 C 73.508738 -13.144798 73.823479 -12.827887 73.823502 -12.441156 Z M 73.823502 -12.441156 " transform="matrix(1,0.535275,0.535275,-1,0,0)"/>
<path style="fill-rule:evenodd;fill:rgb(100%,0%,0%);fill-opacity:1;stroke-width:0.352656;stroke-linecap:butt;stroke-linejoin:miter;stroke:rgb(100%,0%,0%);stroke-opacity:1;stroke-miterlimit:4;" d="M -136.279701 12.439602 L -134.869215 11.030537 L -139.806471 12.438529 L -134.870637 13.850088 Z M -136.279701 12.439602 " transform="matrix(-1,-0.535275,-0.535275,1,0,0)"/>
<path style="fill:none;stroke-width:1.6;stroke-linecap:butt;stroke-linejoin:miter;stroke:rgb(100%,100%,100%);stroke-opacity:1;stroke-miterlimit:4;" d="M 66.578125 -38.992188 L 130.792969 -71.710938 " transform="matrix(1,0,0,-1,0,0)"/>
<path style="fill:none;stroke-width:0.8;stroke-linecap:butt;stroke-linejoin:miter;stroke:rgb(100%,0%,0%);stroke-opacity:1;stroke-miterlimit:4;" d="M 66.511719 -38.886719 L 130.824219 -71.710938 " transform="matrix(1,0,0,-1,0,0)"/>
<path style="fill-rule:evenodd;fill:rgb(100%,0%,0%);fill-opacity:1;stroke-width:0.17814;stroke-linecap:butt;stroke-linejoin:miter;stroke:rgb(100%,0%,0%);stroke-opacity:1;stroke-miterlimit:4;" d="M 69.210775 -3.918323 C 69.213756 -3.526177 68.893669 -3.205168 68.500005 -3.206867 C 68.106342 -3.208567 67.788432 -3.527072 67.785451 -3.919219 C 67.787151 -4.312882 68.105656 -4.630792 68.500901 -4.632192 C 68.891466 -4.632073 69.212475 -4.311987 69.210775 -3.918323 Z M 69.210775 -3.918323 " transform="matrix(1,0.510381,0.510381,-1,0,0)"/>
<path style="fill-rule:evenodd;fill:rgb(100%,0%,0%);fill-opacity:1;stroke-width:0.356279;stroke-linecap:butt;stroke-linejoin:miter;stroke:rgb(100%,0%,0%);stroke-opacity:1;stroke-miterlimit:4;" d="M -129.972531 3.918396 L -128.546311 2.493968 L -133.535873 3.920046 L -128.548103 5.344616 Z M -129.972531 3.918396 " transform="matrix(-1,-0.510381,-0.510381,1,0,0)"/>
</g>
</svg>
