<?xml version="1.0" encoding="UTF-8"?>
<svg xmlns="http://www.w3.org/2000/svg" xmlns:xlink="http://www.w3.org/1999/xlink" width="375.365692pt" height="68.849152pt" viewBox="0 0 375.365692 68.849152" version="1.1">
<defs>
<clipPath id="clip1">
  <path d="M 317 50 L 375.367188 50 L 375.367188 52 L 317 52 Z M 317 50 "/>
</clipPath>
<clipPath id="clip2">
  <path d="M 216 60 L 221 60 L 221 68.847656 L 216 68.847656 Z M 216 60 "/>
</clipPath>
<clipPath id="clip3">
  <path d="M 221 60 L 227 60 L 227 68.847656 L 221 68.847656 Z M 221 60 "/>
</clipPath>
<clipPath id="clip4">
  <path d="M 231 63 L 237 63 L 237 68.847656 L 231 68.847656 Z M 231 63 "/>
</clipPath>
<clipPath id="clip5">
  <path d="M 236 63 L 247 63 L 247 68.847656 L 236 68.847656 Z M 236 63 "/>
</clipPath>
<clipPath id="clip6">
  <path d="M 274 60 L 278 60 L 278 68.847656 L 274 68.847656 Z M 274 60 "/>
</clipPath>
<clipPath id="clip7">
  <path d="M 279 60 L 285 60 L 285 68.847656 L 279 68.847656 Z M 279 60 "/>
</clipPath>
<clipPath id="clip8">
  <path d="M 289 63 L 294 63 L 294 68.847656 L 289 68.847656 Z M 289 63 "/>
</clipPath>
<clipPath id="clip9">
  <path d="M 294 63 L 304 63 L 304 68.847656 L 294 68.847656 Z M 294 63 "/>
</clipPath>
<clipPath id="clip10">
  <path d="M 331 60 L 336 60 L 336 68.847656 L 331 68.847656 Z M 331 60 "/>
</clipPath>
<clipPath id="clip11">
  <path d="M 337 60 L 342 60 L 342 68.847656 L 337 68.847656 Z M 337 60 "/>
</clipPath>
<clipPath id="clip12">
  <path d="M 346 63 L 352 63 L 352 68.847656 L 346 68.847656 Z M 346 63 "/>
</clipPath>
<clipPath id="clip13">
  <path d="M 352 63 L 362 63 L 362 68.847656 L 352 68.847656 Z M 352 63 "/>
</clipPath>
</defs>
<g id="surface1">
<path style="fill-rule:evenodd;fill:rgb(0%,0%,100%);fill-opacity:0.784946;stroke-width:0.8;stroke-linecap:butt;stroke-linejoin:miter;stroke:rgb(0%,0%,0%);stroke-opacity:1;stroke-miterlimit:4;" d="M 0.964844 34.425781 L 29.765625 63.222656 L 58.566406 63.222656 L 87.367188 34.425781 Z M 0.964844 34.425781 "/>
<path style="fill:none;stroke-width:0.8;stroke-linecap:butt;stroke-linejoin:miter;stroke:rgb(0%,0%,0%);stroke-opacity:1;stroke-miterlimit:4;" d="M 0.964844 34.425781 L 87.367188 5.625 L 173.765625 5.625 L 87.367188 34.425781 "/>
<path style="fill:none;stroke-width:0.8;stroke-linecap:butt;stroke-linejoin:miter;stroke:rgb(0%,0%,0%);stroke-opacity:1;stroke-miterlimit:4;" d="M 58.566406 63.222656 L 144.964844 34.425781 "/>
<path style="fill:none;stroke-width:0.8;stroke-linecap:butt;stroke-linejoin:miter;stroke:rgb(0%,0%,0%);stroke-opacity:1;stroke-dasharray:0.8,0.8;stroke-miterlimit:4;" d="M 29.765625 63.222656 L 116.164062 34.425781 "/>
<path style="fill:none;stroke-width:0.8;stroke-linecap:butt;stroke-linejoin:miter;stroke:rgb(0%,0%,0%);stroke-opacity:1;stroke-dasharray:0.8,0.8;stroke-miterlimit:4;" d="M 87.367188 5.625 L 116.164062 34.425781 L 144.964844 34.425781 "/>
<path style="fill:none;stroke-width:0.8;stroke-linecap:butt;stroke-linejoin:miter;stroke:rgb(0%,0%,0%);stroke-opacity:1;stroke-miterlimit:4;" d="M 173.765625 5.625 L 144.964844 34.425781 "/>
<path style="fill-rule:evenodd;fill:rgb(59.999084%,59.999084%,59.999084%);fill-opacity:0.784314;stroke-width:0.8;stroke-linecap:butt;stroke-linejoin:miter;stroke:rgb(0%,0%,0%);stroke-opacity:1;stroke-miterlimit:4;" d="M 58.566406 63.222656 L 144.964844 34.425781 L 173.765625 5.625 L 87.367188 34.425781 L 58.566406 63.222656 "/>
<path style="fill-rule:evenodd;fill:rgb(0%,54.901123%,100%);fill-opacity:0.501961;stroke-width:0.8;stroke-linecap:butt;stroke-linejoin:miter;stroke:rgb(0%,0%,0%);stroke-opacity:1;stroke-miterlimit:4;" d="M 0.964844 34.425781 L 87.367188 5.625 L 173.765625 5.625 L 87.367188 34.425781 Z M 0.964844 34.425781 "/>
<path style="fill:none;stroke-width:1.6;stroke-linecap:round;stroke-linejoin:round;stroke:rgb(0%,0%,0%);stroke-opacity:1;stroke-miterlimit:4;" d="M 260.164062 50.757812 L 317.765625 50.757812 "/>
<path style="fill:none;stroke-width:1.6;stroke-linecap:round;stroke-linejoin:round;stroke:rgb(0%,0%,0%);stroke-opacity:1;stroke-miterlimit:4;" d="M 231.367188 0.851562 L 260.050781 50.800781 "/>
<path style="fill:none;stroke-width:1.6;stroke-linecap:round;stroke-linejoin:round;stroke:rgb(0%,0%,0%);stroke-opacity:1;stroke-miterlimit:4;" d="M 346.449219 0.808594 L 317.765625 50.757812 "/>
<path style="fill:none;stroke-width:0.8;stroke-linecap:butt;stroke-linejoin:miter;stroke:rgb(0%,0%,0%);stroke-opacity:1;stroke-dasharray:0.8,0.8;stroke-miterlimit:4;" d="M 202.566406 50.757812 L 260.164062 50.757812 "/>
<g clip-path="url(#clip1)" clip-rule="nonzero">
<path style="fill:none;stroke-width:0.8;stroke-linecap:butt;stroke-linejoin:miter;stroke:rgb(0%,0%,0%);stroke-opacity:1;stroke-dasharray:0.8,0.8;stroke-miterlimit:4;" d="M 317.765625 50.757812 L 375.367188 50.757812 "/>
</g>
<path style="fill:none;stroke-width:0.8;stroke-linecap:butt;stroke-linejoin:miter;stroke:rgb(100%,0%,0%);stroke-opacity:1;stroke-miterlimit:4;" d="M 255.367188 55.558594 L 207.367188 55.558594 "/>
<path style="fill-rule:evenodd;fill:rgb(100%,0%,0%);fill-opacity:1;stroke-width:0.4;stroke-linecap:butt;stroke-linejoin:miter;stroke:rgb(100%,0%,0%);stroke-opacity:1;stroke-miterlimit:4;" d="M -252.164062 -55.558594 L -250.566406 -57.160156 L -256.164062 -55.558594 L -250.566406 -53.960938 Z M -252.164062 -55.558594 " transform="matrix(-1,0,0,-1,0,0)"/>
<path style="fill-rule:evenodd;fill:rgb(100%,0%,0%);fill-opacity:1;stroke-width:0.4;stroke-linecap:butt;stroke-linejoin:miter;stroke:rgb(100%,0%,0%);stroke-opacity:1;stroke-miterlimit:4;" d="M 210.566406 55.558594 L 212.164062 53.960938 L 206.566406 55.558594 L 212.164062 57.160156 Z M 210.566406 55.558594 "/>
<g clip-path="url(#clip2)" clip-rule="nonzero">
<path style=" stroke:none;fill-rule:nonzero;fill:rgb(0%,0%,0%);fill-opacity:1;" d="M 218.867188 60.9375 C 218.867188 60.636719 218.867188 60.617188 218.585938 60.617188 C 217.835938 61.386719 216.785156 61.386719 216.410156 61.386719 L 216.410156 61.761719 C 216.652344 61.761719 217.347656 61.761719 217.964844 61.441406 L 217.964844 67.648438 C 217.964844 68.082031 217.929688 68.210938 216.859375 68.210938 L 216.484375 68.210938 L 216.484375 68.585938 C 216.898438 68.550781 217.929688 68.550781 218.417969 68.550781 C 218.886719 68.550781 219.933594 68.550781 220.347656 68.585938 L 220.347656 68.210938 L 219.972656 68.210938 C 218.886719 68.210938 218.867188 68.082031 218.867188 67.648438 Z M 218.867188 60.9375 "/>
</g>
<g clip-path="url(#clip3)" clip-rule="nonzero">
<path style=" stroke:none;fill-rule:nonzero;fill:rgb(0%,0%,0%);fill-opacity:1;" d="M 226.679688 66.1875 C 226.679688 64.761719 225.707031 63.5625 224.414062 63.5625 C 223.851562 63.5625 223.324219 63.75 222.894531 64.179688 L 222.894531 61.835938 C 223.136719 61.910156 223.53125 61.988281 223.90625 61.988281 C 225.386719 61.988281 226.230469 60.898438 226.230469 60.75 C 226.230469 60.675781 226.195312 60.617188 226.101562 60.617188 C 226.101562 60.617188 226.0625 60.617188 226.007812 60.65625 C 225.761719 60.769531 225.179688 61.011719 224.375 61.011719 C 223.90625 61.011719 223.34375 60.917969 222.78125 60.675781 C 222.6875 60.636719 222.667969 60.636719 222.648438 60.636719 C 222.519531 60.636719 222.519531 60.730469 222.519531 60.917969 L 222.519531 64.460938 C 222.519531 64.667969 222.519531 64.761719 222.6875 64.761719 C 222.78125 64.761719 222.800781 64.742188 222.855469 64.667969 C 222.988281 64.480469 223.417969 63.824219 224.394531 63.824219 C 225.011719 63.824219 225.3125 64.367188 225.40625 64.59375 C 225.59375 65.042969 225.632812 65.492188 225.632812 66.09375 C 225.632812 66.523438 225.632812 67.238281 225.332031 67.742188 C 225.050781 68.210938 224.601562 68.511719 224.054688 68.511719 C 223.195312 68.511719 222.5 67.875 222.292969 67.179688 C 222.332031 67.179688 222.367188 67.199219 222.5 67.199219 C 222.894531 67.199219 223.101562 66.898438 223.101562 66.617188 C 223.101562 66.316406 222.894531 66.019531 222.5 66.019531 C 222.332031 66.019531 221.917969 66.113281 221.917969 66.65625 C 221.917969 67.6875 222.742188 68.847656 224.074219 68.847656 C 225.460938 68.847656 226.679688 67.707031 226.679688 66.1875 Z M 226.679688 66.1875 "/>
</g>
<g clip-path="url(#clip4)" clip-rule="nonzero">
<path style=" stroke:none;fill-rule:nonzero;fill:rgb(0%,0%,0%);fill-opacity:1;" d="M 232.683594 65.980469 C 232.683594 64.03125 233.660156 63.523438 234.296875 63.523438 C 234.410156 63.523438 235.160156 63.542969 235.570312 63.972656 C 235.082031 64.011719 235.007812 64.367188 235.007812 64.519531 C 235.007812 64.835938 235.234375 65.0625 235.550781 65.0625 C 235.871094 65.0625 236.113281 64.875 236.113281 64.5 C 236.113281 63.691406 235.195312 63.222656 234.277344 63.222656 C 232.777344 63.222656 231.691406 64.519531 231.691406 66 C 231.691406 67.535156 232.871094 68.71875 234.257812 68.71875 C 235.851562 68.71875 236.246094 67.273438 236.246094 67.160156 C 236.246094 67.050781 236.113281 67.050781 236.078125 67.050781 C 235.984375 67.050781 235.945312 67.085938 235.925781 67.160156 C 235.589844 68.269531 234.800781 68.417969 234.371094 68.417969 C 233.734375 68.417969 232.683594 67.910156 232.683594 65.980469 Z M 232.683594 65.980469 "/>
</g>
<g clip-path="url(#clip5)" clip-rule="nonzero">
<path style=" stroke:none;fill-rule:nonzero;fill:rgb(0%,0%,0%);fill-opacity:1;" d="M 237.902344 64.480469 L 237.902344 67.6875 C 237.902344 68.210938 237.769531 68.210938 236.964844 68.210938 L 236.964844 68.585938 C 237.394531 68.566406 237.996094 68.550781 238.332031 68.550781 C 238.632812 68.550781 239.253906 68.566406 239.664062 68.585938 L 239.664062 68.210938 C 238.859375 68.210938 238.726562 68.210938 238.726562 67.6875 L 238.726562 65.472656 C 238.726562 64.238281 239.589844 63.5625 240.339844 63.5625 C 241.109375 63.5625 241.238281 64.199219 241.238281 64.894531 L 241.238281 67.6875 C 241.238281 68.210938 241.109375 68.210938 240.300781 68.210938 L 240.300781 68.585938 C 240.714844 68.566406 241.332031 68.550781 241.652344 68.550781 C 241.953125 68.550781 242.589844 68.566406 242.984375 68.585938 L 242.984375 68.210938 C 242.195312 68.210938 242.066406 68.210938 242.066406 67.6875 L 242.066406 65.472656 C 242.066406 64.238281 242.910156 63.5625 243.675781 63.5625 C 244.425781 63.5625 244.558594 64.199219 244.558594 64.894531 L 244.558594 67.6875 C 244.558594 68.210938 244.425781 68.210938 243.621094 68.210938 L 243.621094 68.585938 C 244.035156 68.566406 244.652344 68.550781 244.972656 68.550781 C 245.289062 68.550781 245.910156 68.566406 246.320312 68.585938 L 246.320312 68.210938 C 245.703125 68.210938 245.402344 68.210938 245.382812 67.855469 L 245.382812 65.566406 C 245.382812 64.535156 245.382812 64.179688 245.007812 63.75 C 244.839844 63.542969 244.445312 63.300781 243.753906 63.300781 C 242.757812 63.300781 242.214844 64.011719 242.027344 64.480469 C 241.859375 63.429688 240.976562 63.300781 240.433594 63.300781 C 239.550781 63.300781 238.988281 63.804688 238.652344 64.554688 L 238.652344 63.300781 L 236.964844 63.429688 L 236.964844 63.804688 C 237.808594 63.804688 237.902344 63.878906 237.902344 64.480469 Z M 237.902344 64.480469 "/>
</g>
<path style="fill:none;stroke-width:0.8;stroke-linecap:butt;stroke-linejoin:miter;stroke:rgb(100%,0%,0%);stroke-opacity:1;stroke-miterlimit:4;" d="M 312.964844 55.558594 L 264.964844 55.558594 "/>
<path style="fill-rule:evenodd;fill:rgb(100%,0%,0%);fill-opacity:1;stroke-width:0.4;stroke-linecap:butt;stroke-linejoin:miter;stroke:rgb(100%,0%,0%);stroke-opacity:1;stroke-miterlimit:4;" d="M -309.765625 -55.558594 L -308.164062 -57.160156 L -313.765625 -55.558594 L -308.164062 -53.960938 Z M -309.765625 -55.558594 " transform="matrix(-1,0,0,-1,0,0)"/>
<path style="fill-rule:evenodd;fill:rgb(100%,0%,0%);fill-opacity:1;stroke-width:0.4;stroke-linecap:butt;stroke-linejoin:miter;stroke:rgb(100%,0%,0%);stroke-opacity:1;stroke-miterlimit:4;" d="M 268.164062 55.558594 L 269.765625 53.960938 L 264.164062 55.558594 L 269.765625 57.160156 Z M 268.164062 55.558594 "/>
<g clip-path="url(#clip6)" clip-rule="nonzero">
<path style=" stroke:none;fill-rule:nonzero;fill:rgb(0%,0%,0%);fill-opacity:1;" d="M 276.464844 60.9375 C 276.464844 60.636719 276.464844 60.617188 276.183594 60.617188 C 275.433594 61.386719 274.386719 61.386719 274.011719 61.386719 L 274.011719 61.761719 C 274.253906 61.761719 274.949219 61.761719 275.566406 61.441406 L 275.566406 67.648438 C 275.566406 68.082031 275.527344 68.210938 274.460938 68.210938 L 274.085938 68.210938 L 274.085938 68.585938 C 274.496094 68.550781 275.527344 68.550781 276.015625 68.550781 C 276.484375 68.550781 277.535156 68.550781 277.949219 68.585938 L 277.949219 68.210938 L 277.574219 68.210938 C 276.484375 68.210938 276.464844 68.082031 276.464844 67.648438 Z M 276.464844 60.9375 "/>
</g>
<g clip-path="url(#clip7)" clip-rule="nonzero">
<path style=" stroke:none;fill-rule:nonzero;fill:rgb(0%,0%,0%);fill-opacity:1;" d="M 284.28125 66.1875 C 284.28125 64.761719 283.304688 63.5625 282.011719 63.5625 C 281.449219 63.5625 280.925781 63.75 280.492188 64.179688 L 280.492188 61.835938 C 280.738281 61.910156 281.132812 61.988281 281.507812 61.988281 C 282.988281 61.988281 283.832031 60.898438 283.832031 60.75 C 283.832031 60.675781 283.792969 60.617188 283.699219 60.617188 C 283.699219 60.617188 283.664062 60.617188 283.605469 60.65625 C 283.363281 60.769531 282.78125 61.011719 281.976562 61.011719 C 281.507812 61.011719 280.945312 60.917969 280.382812 60.675781 C 280.289062 60.636719 280.269531 60.636719 280.25 60.636719 C 280.117188 60.636719 280.117188 60.730469 280.117188 60.917969 L 280.117188 64.460938 C 280.117188 64.667969 280.117188 64.761719 280.289062 64.761719 C 280.382812 64.761719 280.398438 64.742188 280.457031 64.667969 C 280.585938 64.480469 281.019531 63.824219 281.992188 63.824219 C 282.613281 63.824219 282.914062 64.367188 283.007812 64.59375 C 283.195312 65.042969 283.230469 65.492188 283.230469 66.09375 C 283.230469 66.523438 283.230469 67.238281 282.929688 67.742188 C 282.648438 68.210938 282.199219 68.511719 281.65625 68.511719 C 280.792969 68.511719 280.101562 67.875 279.894531 67.179688 C 279.929688 67.179688 279.96875 67.199219 280.101562 67.199219 C 280.492188 67.199219 280.699219 66.898438 280.699219 66.617188 C 280.699219 66.316406 280.492188 66.019531 280.101562 66.019531 C 279.929688 66.019531 279.519531 66.113281 279.519531 66.65625 C 279.519531 67.6875 280.34375 68.847656 281.675781 68.847656 C 283.0625 68.847656 284.28125 67.707031 284.28125 66.1875 Z M 284.28125 66.1875 "/>
</g>
<g clip-path="url(#clip8)" clip-rule="nonzero">
<path style=" stroke:none;fill-rule:nonzero;fill:rgb(0%,0%,0%);fill-opacity:1;" d="M 290.285156 65.980469 C 290.285156 64.03125 291.257812 63.523438 291.894531 63.523438 C 292.007812 63.523438 292.757812 63.542969 293.171875 63.972656 C 292.683594 64.011719 292.609375 64.367188 292.609375 64.519531 C 292.609375 64.835938 292.832031 65.0625 293.152344 65.0625 C 293.472656 65.0625 293.714844 64.875 293.714844 64.5 C 293.714844 63.691406 292.796875 63.222656 291.878906 63.222656 C 290.378906 63.222656 289.289062 64.519531 289.289062 66 C 289.289062 67.535156 290.472656 68.71875 291.859375 68.71875 C 293.453125 68.71875 293.847656 67.273438 293.847656 67.160156 C 293.847656 67.050781 293.714844 67.050781 293.675781 67.050781 C 293.582031 67.050781 293.546875 67.085938 293.527344 67.160156 C 293.191406 68.269531 292.402344 68.417969 291.972656 68.417969 C 291.332031 68.417969 290.285156 67.910156 290.285156 65.980469 Z M 290.285156 65.980469 "/>
</g>
<g clip-path="url(#clip9)" clip-rule="nonzero">
<path style=" stroke:none;fill-rule:nonzero;fill:rgb(0%,0%,0%);fill-opacity:1;" d="M 295.503906 64.480469 L 295.503906 67.6875 C 295.503906 68.210938 295.371094 68.210938 294.566406 68.210938 L 294.566406 68.585938 C 294.996094 68.566406 295.597656 68.550781 295.933594 68.550781 C 296.234375 68.550781 296.851562 68.566406 297.265625 68.585938 L 297.265625 68.210938 C 296.457031 68.210938 296.328125 68.210938 296.328125 67.6875 L 296.328125 65.472656 C 296.328125 64.238281 297.191406 63.5625 297.941406 63.5625 C 298.707031 63.5625 298.839844 64.199219 298.839844 64.894531 L 298.839844 67.6875 C 298.839844 68.210938 298.707031 68.210938 297.902344 68.210938 L 297.902344 68.585938 C 298.316406 68.566406 298.933594 68.550781 299.253906 68.550781 C 299.550781 68.550781 300.191406 68.566406 300.582031 68.585938 L 300.582031 68.210938 C 299.796875 68.210938 299.664062 68.210938 299.664062 67.6875 L 299.664062 65.472656 C 299.664062 64.238281 300.507812 63.5625 301.277344 63.5625 C 302.027344 63.5625 302.160156 64.199219 302.160156 64.894531 L 302.160156 67.6875 C 302.160156 68.210938 302.027344 68.210938 301.222656 68.210938 L 301.222656 68.585938 C 301.632812 68.566406 302.253906 68.550781 302.570312 68.550781 C 302.890625 68.550781 303.507812 68.566406 303.921875 68.585938 L 303.921875 68.210938 C 303.300781 68.210938 303.003906 68.210938 302.984375 67.855469 L 302.984375 65.566406 C 302.984375 64.535156 302.984375 64.179688 302.609375 63.75 C 302.441406 63.542969 302.046875 63.300781 301.351562 63.300781 C 300.359375 63.300781 299.816406 64.011719 299.628906 64.480469 C 299.457031 63.429688 298.578125 63.300781 298.035156 63.300781 C 297.152344 63.300781 296.589844 63.804688 296.253906 64.554688 L 296.253906 63.300781 L 294.566406 63.429688 L 294.566406 63.804688 C 295.410156 63.804688 295.503906 63.878906 295.503906 64.480469 Z M 295.503906 64.480469 "/>
</g>
<path style="fill:none;stroke-width:0.8;stroke-linecap:butt;stroke-linejoin:miter;stroke:rgb(100%,0%,0%);stroke-opacity:1;stroke-miterlimit:4;" d="M 370.566406 55.558594 L 322.566406 55.558594 "/>
<path style="fill-rule:evenodd;fill:rgb(100%,0%,0%);fill-opacity:1;stroke-width:0.4;stroke-linecap:butt;stroke-linejoin:miter;stroke:rgb(100%,0%,0%);stroke-opacity:1;stroke-miterlimit:4;" d="M -367.367188 -55.558594 L -365.765625 -57.160156 L -371.367188 -55.558594 L -365.765625 -53.960938 Z M -367.367188 -55.558594 " transform="matrix(-1,0,0,-1,0,0)"/>
<path style="fill-rule:evenodd;fill:rgb(100%,0%,0%);fill-opacity:1;stroke-width:0.4;stroke-linecap:butt;stroke-linejoin:miter;stroke:rgb(100%,0%,0%);stroke-opacity:1;stroke-miterlimit:4;" d="M 325.765625 55.558594 L 327.367188 53.960938 L 321.765625 55.558594 L 327.367188 57.160156 Z M 325.765625 55.558594 "/>
<g clip-path="url(#clip10)" clip-rule="nonzero">
<path style=" stroke:none;fill-rule:nonzero;fill:rgb(0%,0%,0%);fill-opacity:1;" d="M 334.066406 60.9375 C 334.066406 60.636719 334.066406 60.617188 333.785156 60.617188 C 333.035156 61.386719 331.984375 61.386719 331.609375 61.386719 L 331.609375 61.761719 C 331.855469 61.761719 332.546875 61.761719 333.167969 61.441406 L 333.167969 67.648438 C 333.167969 68.082031 333.128906 68.210938 332.058594 68.210938 L 331.683594 68.210938 L 331.683594 68.585938 C 332.097656 68.550781 333.128906 68.550781 333.617188 68.550781 C 334.085938 68.550781 335.136719 68.550781 335.546875 68.585938 L 335.546875 68.210938 L 335.171875 68.210938 C 334.085938 68.210938 334.066406 68.082031 334.066406 67.648438 Z M 334.066406 60.9375 "/>
</g>
<g clip-path="url(#clip11)" clip-rule="nonzero">
<path style=" stroke:none;fill-rule:nonzero;fill:rgb(0%,0%,0%);fill-opacity:1;" d="M 341.882812 66.1875 C 341.882812 64.761719 340.90625 63.5625 339.613281 63.5625 C 339.050781 63.5625 338.523438 63.75 338.09375 64.179688 L 338.09375 61.835938 C 338.335938 61.910156 338.730469 61.988281 339.105469 61.988281 C 340.585938 61.988281 341.429688 60.898438 341.429688 60.75 C 341.429688 60.675781 341.394531 60.617188 341.300781 60.617188 C 341.300781 60.617188 341.261719 60.617188 341.207031 60.65625 C 340.960938 60.769531 340.382812 61.011719 339.574219 61.011719 C 339.105469 61.011719 338.542969 60.917969 337.980469 60.675781 C 337.886719 60.636719 337.867188 60.636719 337.851562 60.636719 C 337.71875 60.636719 337.71875 60.730469 337.71875 60.917969 L 337.71875 64.460938 C 337.71875 64.667969 337.71875 64.761719 337.886719 64.761719 C 337.980469 64.761719 338 64.742188 338.054688 64.667969 C 338.1875 64.480469 338.617188 63.824219 339.59375 63.824219 C 340.210938 63.824219 340.511719 64.367188 340.605469 64.59375 C 340.792969 65.042969 340.832031 65.492188 340.832031 66.09375 C 340.832031 66.523438 340.832031 67.238281 340.53125 67.742188 C 340.25 68.210938 339.800781 68.511719 339.257812 68.511719 C 338.394531 68.511719 337.699219 67.875 337.492188 67.179688 C 337.53125 67.179688 337.570312 67.199219 337.699219 67.199219 C 338.09375 67.199219 338.300781 66.898438 338.300781 66.617188 C 338.300781 66.316406 338.09375 66.019531 337.699219 66.019531 C 337.53125 66.019531 337.117188 66.113281 337.117188 66.65625 C 337.117188 67.6875 337.945312 68.847656 339.273438 68.847656 C 340.664062 68.847656 341.882812 67.707031 341.882812 66.1875 Z M 341.882812 66.1875 "/>
</g>
<g clip-path="url(#clip12)" clip-rule="nonzero">
<path style=" stroke:none;fill-rule:nonzero;fill:rgb(0%,0%,0%);fill-opacity:1;" d="M 347.882812 65.980469 C 347.882812 64.03125 348.859375 63.523438 349.496094 63.523438 C 349.609375 63.523438 350.359375 63.542969 350.769531 63.972656 C 350.285156 64.011719 350.207031 64.367188 350.207031 64.519531 C 350.207031 64.835938 350.433594 65.0625 350.753906 65.0625 C 351.070312 65.0625 351.316406 64.875 351.316406 64.5 C 351.316406 63.691406 350.394531 63.222656 349.476562 63.222656 C 347.976562 63.222656 346.890625 64.519531 346.890625 66 C 346.890625 67.535156 348.070312 68.71875 349.457031 68.71875 C 351.050781 68.71875 351.445312 67.273438 351.445312 67.160156 C 351.445312 67.050781 351.316406 67.050781 351.277344 67.050781 C 351.183594 67.050781 351.144531 67.085938 351.128906 67.160156 C 350.789062 68.269531 350.003906 68.417969 349.570312 68.417969 C 348.933594 68.417969 347.882812 67.910156 347.882812 65.980469 Z M 347.882812 65.980469 "/>
</g>
<g clip-path="url(#clip13)" clip-rule="nonzero">
<path style=" stroke:none;fill-rule:nonzero;fill:rgb(0%,0%,0%);fill-opacity:1;" d="M 353.101562 64.480469 L 353.101562 67.6875 C 353.101562 68.210938 352.972656 68.210938 352.164062 68.210938 L 352.164062 68.585938 C 352.597656 68.566406 353.195312 68.550781 353.535156 68.550781 C 353.832031 68.550781 354.453125 68.566406 354.863281 68.585938 L 354.863281 68.210938 C 354.058594 68.210938 353.925781 68.210938 353.925781 67.6875 L 353.925781 65.472656 C 353.925781 64.238281 354.789062 63.5625 355.539062 63.5625 C 356.308594 63.5625 356.441406 64.199219 356.441406 64.894531 L 356.441406 67.6875 C 356.441406 68.210938 356.308594 68.210938 355.503906 68.210938 L 355.503906 68.585938 C 355.914062 68.566406 356.535156 68.550781 356.851562 68.550781 C 357.152344 68.550781 357.789062 68.566406 358.183594 68.585938 L 358.183594 68.210938 C 357.394531 68.210938 357.265625 68.210938 357.265625 67.6875 L 357.265625 65.472656 C 357.265625 64.238281 358.109375 63.5625 358.878906 63.5625 C 359.628906 63.5625 359.757812 64.199219 359.757812 64.894531 L 359.757812 67.6875 C 359.757812 68.210938 359.628906 68.210938 358.820312 68.210938 L 358.820312 68.585938 C 359.234375 68.566406 359.851562 68.550781 360.171875 68.550781 C 360.488281 68.550781 361.109375 68.566406 361.519531 68.585938 L 361.519531 68.210938 C 360.902344 68.210938 360.601562 68.210938 360.582031 67.855469 L 360.582031 65.566406 C 360.582031 64.535156 360.582031 64.179688 360.207031 63.75 C 360.039062 63.542969 359.644531 63.300781 358.953125 63.300781 C 357.957031 63.300781 357.414062 64.011719 357.226562 64.480469 C 357.058594 63.429688 356.175781 63.300781 355.632812 63.300781 C 354.753906 63.300781 354.191406 63.804688 353.851562 64.554688 L 353.851562 63.300781 L 352.164062 63.429688 L 352.164062 63.804688 C 353.007812 63.804688 353.101562 63.878906 353.101562 64.480469 Z M 353.101562 64.480469 "/>
</g>
<path style="fill:none;stroke-width:0.8;stroke-linecap:round;stroke-linejoin:round;stroke:rgb(100%,0%,0%);stroke-opacity:1;stroke-miterlimit:4;" d="M 331.984375 31.421875 C 338.019531 35.863281 341.640625 42.871094 341.761719 50.363281 "/>
<path style="fill-rule:evenodd;fill:rgb(100%,0%,0%);fill-opacity:1;stroke-width:0.322259;stroke-linecap:butt;stroke-linejoin:miter;stroke:rgb(100%,0%,0%);stroke-opacity:1;stroke-miterlimit:4;" d="M 233.055937 -138.046883 L 234.342137 -139.336382 L 229.832584 -138.04783 L 234.3429 -136.758819 Z M 233.055937 -138.046883 " transform="matrix(1,0.735305,-0.735305,1,0,0)"/>
<path style="fill:none;stroke-width:0.8;stroke-linecap:round;stroke-linejoin:round;stroke:rgb(100%,0%,0%);stroke-opacity:1;stroke-miterlimit:4;" d="M -245.945312 31.820312 C -239.90625 36.257812 -236.289062 43.265625 -236.164062 50.757812 " transform="matrix(-1,0,0,1,0,0)"/>
<path style="fill-rule:evenodd;fill:rgb(100%,0%,0%);fill-opacity:1;stroke-width:0.322259;stroke-linecap:butt;stroke-linejoin:miter;stroke:rgb(100%,0%,0%);stroke-opacity:1;stroke-miterlimit:4;" d="M -141.870748 138.033114 L -140.580149 136.744286 L -145.092236 138.034703 L -140.58192 139.323714 Z M -141.870748 138.033114 " transform="matrix(-1,0.735305,0.735305,1,0,0)"/>
<path style=" stroke:none;fill-rule:nonzero;fill:rgb(0%,0%,0%);fill-opacity:1;" d="M 333.789062 41.347656 C 333.789062 40.558594 333.585938 38.890625 332.367188 38.890625 C 330.695312 38.890625 328.859375 42.265625 328.859375 45.003906 C 328.859375 46.128906 329.195312 47.457031 330.285156 47.457031 C 331.972656 47.457031 333.789062 44.027344 333.789062 41.347656 Z M 330.117188 42.976562 C 330.320312 42.226562 330.566406 41.269531 331.054688 40.410156 C 331.371094 39.828125 331.804688 39.152344 332.347656 39.152344 C 332.929688 39.152344 333.003906 39.921875 333.003906 40.597656 C 333.003906 41.195312 332.910156 41.796875 332.628906 42.976562 Z M 332.515625 43.371094 C 332.382812 43.914062 332.140625 44.925781 331.671875 45.789062 C 331.257812 46.613281 330.808594 47.195312 330.285156 47.195312 C 329.890625 47.195312 329.648438 46.839844 329.648438 45.734375 C 329.648438 45.226562 329.722656 44.535156 330.023438 43.371094 Z M 332.515625 43.371094 "/>
<path style=" stroke:none;fill-rule:nonzero;fill:rgb(0%,0%,0%);fill-opacity:1;" d="M 247.390625 41.347656 C 247.390625 40.558594 247.183594 38.890625 245.964844 38.890625 C 244.296875 38.890625 242.460938 42.265625 242.460938 45.003906 C 242.460938 46.128906 242.796875 47.457031 243.882812 47.457031 C 245.570312 47.457031 247.390625 44.027344 247.390625 41.347656 Z M 243.714844 42.976562 C 243.921875 42.226562 244.164062 41.269531 244.652344 40.410156 C 244.972656 39.828125 245.402344 39.152344 245.945312 39.152344 C 246.527344 39.152344 246.601562 39.921875 246.601562 40.597656 C 246.601562 41.195312 246.507812 41.796875 246.226562 42.976562 Z M 246.117188 43.371094 C 245.984375 43.914062 245.742188 44.925781 245.273438 45.789062 C 244.859375 46.613281 244.410156 47.195312 243.882812 47.195312 C 243.492188 47.195312 243.246094 46.839844 243.246094 45.734375 C 243.246094 45.226562 243.320312 44.535156 243.621094 43.371094 Z M 246.117188 43.371094 "/>
<path style=" stroke:none;fill-rule:nonzero;fill:rgb(0%,0%,0%);fill-opacity:1;" d="M 220.476562 20.273438 C 220.476562 20.273438 220.476562 20.140625 220.328125 20.140625 C 220.046875 20.140625 219.183594 20.234375 218.867188 20.273438 C 218.773438 20.273438 218.640625 20.289062 218.640625 20.496094 C 218.640625 20.648438 218.753906 20.648438 218.921875 20.648438 C 219.503906 20.648438 219.523438 20.722656 219.523438 20.851562 L 219.484375 21.097656 L 217.757812 27.976562 C 217.703125 28.148438 217.703125 28.164062 217.703125 28.242188 C 217.703125 28.523438 217.945312 28.578125 218.058594 28.578125 C 218.246094 28.578125 218.433594 28.429688 218.492188 28.257812 L 218.714844 27.359375 L 218.976562 26.289062 C 219.054688 26.007812 219.128906 25.746094 219.183594 25.484375 C 219.203125 25.410156 219.316406 25.015625 219.316406 24.941406 C 219.351562 24.828125 219.726562 24.171875 220.140625 23.835938 C 220.402344 23.648438 220.757812 23.421875 221.285156 23.421875 C 221.789062 23.421875 221.921875 23.835938 221.921875 24.265625 C 221.921875 24.902344 221.472656 26.214844 221.191406 26.945312 C 221.097656 27.210938 221.023438 27.359375 221.023438 27.601562 C 221.023438 28.164062 221.453125 28.578125 222.015625 28.578125 C 223.140625 28.578125 223.570312 26.835938 223.570312 26.742188 C 223.570312 26.609375 223.476562 26.609375 223.441406 26.609375 C 223.308594 26.609375 223.308594 26.648438 223.253906 26.835938 C 223.085938 27.472656 222.691406 28.316406 222.035156 28.316406 C 221.828125 28.316406 221.753906 28.203125 221.753906 27.921875 C 221.753906 27.621094 221.847656 27.339844 221.960938 27.078125 C 222.148438 26.554688 222.691406 25.128906 222.691406 24.433594 C 222.691406 23.664062 222.222656 23.160156 221.320312 23.160156 C 220.570312 23.160156 219.992188 23.535156 219.539062 24.078125 Z M 220.476562 20.273438 "/>
<path style="fill:none;stroke-width:0.8;stroke-linecap:butt;stroke-linejoin:miter;stroke:rgb(100%,0%,0%);stroke-opacity:1;stroke-miterlimit:4;" d="M 226.566406 45.960938 L 226.566406 2.757812 "/>
<path style="fill-rule:evenodd;fill:rgb(100%,0%,0%);fill-opacity:1;stroke-width:0.4;stroke-linecap:butt;stroke-linejoin:miter;stroke:rgb(100%,0%,0%);stroke-opacity:1;stroke-miterlimit:4;" d="M -42.757812 226.566406 L -41.160156 224.964844 L -46.757812 226.566406 L -41.160156 228.164062 Z M -42.757812 226.566406 " transform="matrix(0,-1,1,0,0,0)"/>
<path style="fill-rule:evenodd;fill:rgb(100%,0%,0%);fill-opacity:1;stroke-width:0.4;stroke-linecap:butt;stroke-linejoin:miter;stroke:rgb(100%,0%,0%);stroke-opacity:1;stroke-miterlimit:4;" d="M 5.960938 -226.566406 L 7.558594 -228.164062 L 1.960938 -226.566406 L 7.558594 -224.964844 Z M 5.960938 -226.566406 " transform="matrix(0,1,-1,0,0,0)"/>
<path style="fill:none;stroke-width:0.8;stroke-linecap:butt;stroke-linejoin:miter;stroke:rgb(0%,0%,0%);stroke-opacity:1;stroke-dasharray:0.8,0.8;stroke-miterlimit:4;" d="M 260.164062 50.757812 L 260.164062 2.757812 "/>
<path style="fill:none;stroke-width:0.8;stroke-linecap:butt;stroke-linejoin:miter;stroke:rgb(0%,0%,0%);stroke-opacity:1;stroke-dasharray:0.8,0.8;stroke-miterlimit:4;" d="M 317.765625 50.757812 L 317.765625 2.757812 "/>
</g>
</svg>
