<?xml version="1.0" encoding="UTF-8"?>
<svg xmlns="http://www.w3.org/2000/svg" xmlns:xlink="http://www.w3.org/1999/xlink" width="203.301071pt" height="173.633957pt" viewBox="0 0 203.301071 173.633957" version="1.1">
<defs>
<clipPath id="clip1">
  <path d="M 86 0 L 88 0 L 88 173.632812 L 86 173.632812 Z M 86 0 "/>
</clipPath>
<filter id="alpha" filterUnits="objectBoundingBox" x="0%" y="0%" width="100%" height="100%">
  <feColorMatrix type="matrix" in="SourceGraphic" values="0 0 0 0 1 0 0 0 0 1 0 0 0 0 1 0 0 0 1 0"/>
</filter>
<clipPath id="clip2">
  <rect width="7" height="6"/>
</clipPath>
<g id="surface8" clip-path="url(#clip2)">
<rect x="0" y="0" width="7" height="6" style="fill:rgb(0%,0%,0%);fill-opacity:0.97;stroke:none;"/>
</g>
<mask id="mask0">
  <g filter="url(#alpha)">
<use xlink:href="#surface8"/>
  </g>
</mask>
<clipPath id="clip3">
  <rect width="7" height="6"/>
</clipPath>
<g id="surface10" clip-path="url(#clip3)">
<path style="fill-rule:nonzero;fill:rgb(0%,0%,100%);fill-opacity:1;stroke-width:0.8;stroke-linecap:butt;stroke-linejoin:round;stroke:rgb(100%,100%,100%);stroke-opacity:1;stroke-miterlimit:4;" d="M 50.800781 86.84375 C 50.800781 88.171875 49.722656 89.246094 48.398438 89.246094 C 47.074219 89.246094 46 88.171875 46 86.84375 C 46 85.519531 47.074219 84.445313 48.398438 84.445313 C 49.722656 84.445313 50.800781 85.519531 50.800781 86.84375 Z M 50.800781 86.84375 " transform="matrix(1,0,0,1,-45,-84)"/>
</g>
<clipPath id="clip4">
  <rect width="7" height="6"/>
</clipPath>
<g id="surface14" clip-path="url(#clip4)">
<rect x="0" y="0" width="7" height="6" style="fill:rgb(0%,0%,0%);fill-opacity:0.97;stroke:none;"/>
</g>
<mask id="mask1">
  <g filter="url(#alpha)">
<use xlink:href="#surface14"/>
  </g>
</mask>
<clipPath id="clip5">
  <rect width="7" height="6"/>
</clipPath>
<g id="surface11" clip-path="url(#clip5)">
<path style="fill-rule:nonzero;fill:rgb(0%,0%,100%);fill-opacity:1;stroke-width:0.8;stroke-linecap:butt;stroke-linejoin:round;stroke:rgb(100%,100%,100%);stroke-opacity:1;stroke-miterlimit:4;" d="M 127.710938 86.8125 C 127.710938 88.136719 126.636719 89.210938 125.3125 89.210938 C 123.984375 89.210938 122.910156 88.136719 122.910156 86.8125 C 122.910156 85.484375 123.984375 84.410156 125.3125 84.410156 C 126.636719 84.410156 127.710938 85.484375 127.710938 86.8125 Z M 127.710938 86.8125 " transform="matrix(1,0,0,1,-122,-84)"/>
</g>
<clipPath id="clip6">
  <path d="M 198 21 L 203.300781 21 L 203.300781 30 L 198 30 Z M 198 21 "/>
</clipPath>
</defs>
<g id="surface1">
<path style="fill:none;stroke-width:0.8;stroke-linecap:round;stroke-linejoin:round;stroke:rgb(100%,0%,0%);stroke-opacity:1;stroke-miterlimit:4;" d="M 0.46875 86.816406 L 173.265625 86.816406 "/>
<path style=" stroke:none;fill-rule:nonzero;fill:rgb(0%,0%,0%);fill-opacity:1;" d="M 97.59375 4.703125 C 97.648438 4.535156 97.648438 4.515625 97.648438 4.421875 C 97.648438 4.214844 97.480469 4.105469 97.292969 4.105469 C 97.179688 4.105469 96.992188 4.179688 96.878906 4.347656 C 96.859375 4.421875 96.75 4.777344 96.710938 5.003906 C 96.617188 5.304688 96.542969 5.640625 96.46875 5.960938 L 95.921875 8.117188 C 95.886719 8.285156 95.359375 9.128906 94.574219 9.128906 C 93.972656 9.128906 93.84375 8.605469 93.84375 8.152344 C 93.84375 7.609375 94.046875 6.859375 94.441406 5.808594 C 94.628906 5.324219 94.6875 5.191406 94.6875 4.949219 C 94.6875 4.421875 94.3125 3.972656 93.710938 3.972656 C 92.566406 3.972656 92.136719 5.714844 92.136719 5.808594 C 92.136719 5.941406 92.25 5.941406 92.265625 5.941406 C 92.398438 5.941406 92.398438 5.902344 92.453125 5.714844 C 92.792969 4.589844 93.261719 4.234375 93.671875 4.234375 C 93.765625 4.234375 93.972656 4.234375 93.972656 4.609375 C 93.972656 4.910156 93.84375 5.230469 93.765625 5.453125 C 93.28125 6.730469 93.074219 7.402344 93.074219 7.964844 C 93.074219 9.035156 93.824219 9.390625 94.535156 9.390625 C 95.003906 9.390625 95.398438 9.183594 95.734375 8.847656 C 95.585938 9.464844 95.4375 10.066406 94.96875 10.703125 C 94.648438 11.097656 94.199219 11.453125 93.65625 11.453125 C 93.484375 11.453125 92.941406 11.417969 92.734375 10.949219 C 92.921875 10.949219 93.09375 10.949219 93.242188 10.796875 C 93.375 10.703125 93.484375 10.535156 93.484375 10.308594 C 93.484375 9.933594 93.167969 9.898438 93.054688 9.898438 C 92.773438 9.898438 92.378906 10.085938 92.378906 10.667969 C 92.378906 11.265625 92.90625 11.714844 93.65625 11.714844 C 94.875 11.714844 96.109375 10.628906 96.449219 9.277344 Z M 97.59375 4.703125 "/>
<path style=" stroke:none;fill-rule:nonzero;fill:rgb(0%,0%,0%);fill-opacity:1;" d="M 167.679688 92.960938 C 167.753906 92.660156 168.035156 91.554688 168.863281 91.554688 C 168.917969 91.554688 169.21875 91.554688 169.460938 91.703125 C 169.125 91.78125 168.898438 92.0625 168.898438 92.359375 C 168.898438 92.546875 169.03125 92.773438 169.347656 92.773438 C 169.613281 92.773438 169.988281 92.566406 169.988281 92.078125 C 169.988281 91.460938 169.292969 91.292969 168.878906 91.292969 C 168.1875 91.292969 167.773438 91.929688 167.625 92.191406 C 167.324219 91.40625 166.6875 91.292969 166.332031 91.292969 C 165.09375 91.292969 164.398438 92.828125 164.398438 93.128906 C 164.398438 93.261719 164.53125 93.261719 164.550781 93.261719 C 164.644531 93.261719 164.679688 93.222656 164.699219 93.128906 C 165.113281 91.855469 165.898438 91.554688 166.3125 91.554688 C 166.535156 91.554688 166.949219 91.667969 166.949219 92.359375 C 166.949219 92.734375 166.742188 93.523438 166.3125 95.210938 C 166.125 95.941406 165.691406 96.449219 165.167969 96.449219 C 165.09375 96.449219 164.832031 96.449219 164.566406 96.296875 C 164.867188 96.222656 165.128906 95.980469 165.128906 95.640625 C 165.128906 95.324219 164.867188 95.230469 164.699219 95.230469 C 164.324219 95.230469 164.042969 95.53125 164.042969 95.921875 C 164.042969 96.46875 164.625 96.710938 165.148438 96.710938 C 165.957031 96.710938 166.386719 95.867188 166.40625 95.8125 C 166.554688 96.242188 166.988281 96.710938 167.699219 96.710938 C 168.9375 96.710938 169.613281 95.171875 169.613281 94.875 C 169.613281 94.742188 169.519531 94.742188 169.480469 94.742188 C 169.367188 94.742188 169.347656 94.796875 169.3125 94.875 C 168.917969 96.167969 168.113281 96.449219 167.738281 96.449219 C 167.269531 96.449219 167.082031 96.074219 167.082031 95.660156 C 167.082031 95.398438 167.136719 95.136719 167.269531 94.609375 Z M 167.679688 92.960938 "/>
<path style="fill:none;stroke-width:0.8;stroke-linecap:round;stroke-linejoin:round;stroke:rgb(100%,0%,0%);stroke-opacity:1;stroke-miterlimit:4;" d="M 0.46875 86.816406 L 173.265625 86.816406 "/>
<g clip-path="url(#clip1)" clip-rule="nonzero">
<path style="fill:none;stroke-width:0.8;stroke-linecap:round;stroke-linejoin:round;stroke:rgb(100%,0%,0%);stroke-opacity:1;stroke-miterlimit:4;" d="M 86.867188 0.417969 L 86.867188 173.21875 "/>
</g>
<path style="fill:none;stroke-width:1.141807;stroke-linecap:butt;stroke-linejoin:round;stroke:rgb(0%,0%,0%);stroke-opacity:1;stroke-miterlimit:4;" d="M 52.219877 87.639713 C 52.218627 98.990049 29.212962 108.192062 0.83716 108.192879 C -27.540631 108.191743 -50.543393 98.990356 -50.544132 87.638068 C -50.544835 76.289722 -27.53917 67.087709 0.836632 67.086892 C 29.214424 67.088028 52.217185 76.289415 52.219877 87.639713 Z M 52.219877 87.639713 " transform="matrix(1,-0.981634,0.981634,1,0,0)"/>
<path style="fill:none;stroke-width:0.8;stroke-linecap:butt;stroke-linejoin:miter;stroke:rgb(0%,0%,100%);stroke-opacity:1;stroke-miterlimit:4;" d="M 106.066406 115.347656 L 144.46875 57.746094 "/>
<path style="fill:none;stroke-width:0.8;stroke-linecap:butt;stroke-linejoin:miter;stroke:rgb(0%,0%,100%);stroke-opacity:1;stroke-miterlimit:4;" d="M 29.617188 115.617188 L 68.019531 58.019531 "/>
<use xlink:href="#surface10" transform="matrix(1,0,0,1,45,84)" mask="url(#mask0)"/>
<use xlink:href="#surface11" transform="matrix(1,0,0,1,122,84)" mask="url(#mask1)"/>
<path style=" stroke:none;fill-rule:nonzero;fill:rgb(0%,0%,0%);fill-opacity:1;" d="M 119.679688 25.761719 C 119.753906 25.460938 120.035156 24.355469 120.863281 24.355469 C 120.917969 24.355469 121.21875 24.355469 121.460938 24.503906 C 121.125 24.578125 120.898438 24.859375 120.898438 25.160156 C 120.898438 25.347656 121.03125 25.574219 121.347656 25.574219 C 121.613281 25.574219 121.988281 25.367188 121.988281 24.878906 C 121.988281 24.261719 121.292969 24.09375 120.878906 24.09375 C 120.1875 24.09375 119.773438 24.730469 119.625 24.992188 C 119.324219 24.203125 118.6875 24.09375 118.332031 24.09375 C 117.09375 24.09375 116.398438 25.628906 116.398438 25.929688 C 116.398438 26.0625 116.53125 26.0625 116.550781 26.0625 C 116.644531 26.0625 116.679688 26.023438 116.699219 25.929688 C 117.113281 24.65625 117.898438 24.355469 118.3125 24.355469 C 118.535156 24.355469 118.949219 24.46875 118.949219 25.160156 C 118.949219 25.535156 118.742188 26.324219 118.3125 28.011719 C 118.125 28.742188 117.691406 29.25 117.167969 29.25 C 117.09375 29.25 116.832031 29.25 116.566406 29.097656 C 116.867188 29.023438 117.128906 28.78125 117.128906 28.441406 C 117.128906 28.125 116.867188 28.03125 116.699219 28.03125 C 116.324219 28.03125 116.042969 28.328125 116.042969 28.722656 C 116.042969 29.265625 116.625 29.511719 117.148438 29.511719 C 117.957031 29.511719 118.386719 28.667969 118.40625 28.609375 C 118.554688 29.042969 118.988281 29.511719 119.699219 29.511719 C 120.9375 29.511719 121.613281 27.972656 121.613281 27.671875 C 121.613281 27.542969 121.519531 27.542969 121.480469 27.542969 C 121.367188 27.542969 121.347656 27.597656 121.3125 27.671875 C 120.917969 28.96875 120.113281 29.25 119.738281 29.25 C 119.269531 29.25 119.082031 28.875 119.082031 28.460938 C 119.082031 28.199219 119.136719 27.9375 119.269531 27.410156 Z M 119.679688 25.761719 "/>
<path style=" stroke:none;fill-rule:nonzero;fill:rgb(0%,0%,0%);fill-opacity:1;" d="M 126.738281 23.523438 L 126.457031 23.523438 C 126.4375 23.710938 126.34375 24.195312 126.230469 24.273438 C 126.175781 24.328125 125.539062 24.328125 125.40625 24.328125 L 123.871094 24.328125 C 124.75 23.558594 125.050781 23.316406 125.539062 22.921875 C 126.15625 22.433594 126.738281 21.910156 126.738281 21.121094 C 126.738281 20.109375 125.855469 19.492188 124.789062 19.492188 C 123.757812 19.492188 123.042969 20.222656 123.042969 20.992188 C 123.042969 21.402344 123.402344 21.460938 123.496094 21.460938 C 123.683594 21.460938 123.925781 21.308594 123.925781 21.007812 C 123.925781 20.859375 123.871094 20.558594 123.4375 20.558594 C 123.699219 19.976562 124.261719 19.789062 124.65625 19.789062 C 125.5 19.789062 125.933594 20.445312 125.933594 21.121094 C 125.933594 21.851562 125.40625 22.414062 125.144531 22.714844 L 123.136719 24.722656 C 123.042969 24.796875 123.042969 24.816406 123.042969 25.039062 L 126.496094 25.039062 Z M 126.738281 23.523438 "/>
<path style=" stroke:none;fill-rule:nonzero;fill:rgb(0%,0%,0%);fill-opacity:1;" d="M 138.414062 26.625 C 138.621094 26.625 138.84375 26.625 138.84375 26.378906 C 138.84375 26.15625 138.621094 26.15625 138.414062 26.15625 L 131.945312 26.15625 C 131.738281 26.15625 131.53125 26.15625 131.53125 26.378906 C 131.53125 26.625 131.738281 26.625 131.945312 26.625 Z M 138.414062 26.625 "/>
<path style=" stroke:none;fill-rule:nonzero;fill:rgb(0%,0%,0%);fill-opacity:1;" d="M 146.488281 25.761719 C 146.5625 25.460938 146.84375 24.355469 147.667969 24.355469 C 147.726562 24.355469 148.027344 24.355469 148.269531 24.503906 C 147.933594 24.578125 147.707031 24.859375 147.707031 25.160156 C 147.707031 25.347656 147.839844 25.574219 148.15625 25.574219 C 148.417969 25.574219 148.792969 25.367188 148.792969 24.878906 C 148.792969 24.261719 148.101562 24.09375 147.6875 24.09375 C 146.996094 24.09375 146.582031 24.730469 146.433594 24.992188 C 146.132812 24.203125 145.496094 24.09375 145.136719 24.09375 C 143.902344 24.09375 143.207031 25.628906 143.207031 25.929688 C 143.207031 26.0625 143.339844 26.0625 143.355469 26.0625 C 143.449219 26.0625 143.488281 26.023438 143.507812 25.929688 C 143.917969 24.65625 144.707031 24.355469 145.121094 24.355469 C 145.34375 24.355469 145.757812 24.46875 145.757812 25.160156 C 145.757812 25.535156 145.550781 26.324219 145.121094 28.011719 C 144.933594 28.742188 144.5 29.25 143.976562 29.25 C 143.902344 29.25 143.636719 29.25 143.375 29.097656 C 143.675781 29.023438 143.9375 28.78125 143.9375 28.441406 C 143.9375 28.125 143.675781 28.03125 143.507812 28.03125 C 143.132812 28.03125 142.851562 28.328125 142.851562 28.722656 C 142.851562 29.265625 143.433594 29.511719 143.957031 29.511719 C 144.761719 29.511719 145.195312 28.667969 145.214844 28.609375 C 145.363281 29.042969 145.792969 29.511719 146.507812 29.511719 C 147.746094 29.511719 148.417969 27.972656 148.417969 27.671875 C 148.417969 27.542969 148.324219 27.542969 148.289062 27.542969 C 148.175781 27.542969 148.15625 27.597656 148.121094 27.671875 C 147.726562 28.96875 146.917969 29.25 146.542969 29.25 C 146.074219 29.25 145.886719 28.875 145.886719 28.460938 C 145.886719 28.199219 145.945312 27.9375 146.074219 27.410156 Z M 146.488281 25.761719 "/>
<path style=" stroke:none;fill-rule:nonzero;fill:rgb(0%,0%,0%);fill-opacity:1;" d="M 155.140625 24.824219 C 155.195312 24.65625 155.195312 24.636719 155.195312 24.542969 C 155.195312 24.335938 155.027344 24.222656 154.839844 24.222656 C 154.726562 24.222656 154.539062 24.296875 154.425781 24.46875 C 154.410156 24.542969 154.296875 24.898438 154.257812 25.125 C 154.164062 25.421875 154.089844 25.761719 154.015625 26.078125 L 153.472656 28.234375 C 153.433594 28.40625 152.910156 29.25 152.121094 29.25 C 151.519531 29.25 151.390625 28.722656 151.390625 28.273438 C 151.390625 27.730469 151.597656 26.980469 151.988281 25.929688 C 152.175781 25.441406 152.234375 25.3125 152.234375 25.066406 C 152.234375 24.542969 151.859375 24.09375 151.257812 24.09375 C 150.113281 24.09375 149.683594 25.835938 149.683594 25.929688 C 149.683594 26.0625 149.796875 26.0625 149.816406 26.0625 C 149.945312 26.0625 149.945312 26.023438 150.003906 25.835938 C 150.339844 24.710938 150.808594 24.355469 151.222656 24.355469 C 151.316406 24.355469 151.519531 24.355469 151.519531 24.730469 C 151.519531 25.03125 151.390625 25.347656 151.316406 25.574219 C 150.828125 26.847656 150.621094 27.523438 150.621094 28.085938 C 150.621094 29.15625 151.371094 29.511719 152.082031 29.511719 C 152.550781 29.511719 152.945312 29.304688 153.285156 28.96875 C 153.132812 29.585938 152.984375 30.1875 152.515625 30.824219 C 152.195312 31.21875 151.746094 31.574219 151.203125 31.574219 C 151.035156 31.574219 150.488281 31.535156 150.285156 31.066406 C 150.472656 31.066406 150.640625 31.066406 150.789062 30.917969 C 150.921875 30.824219 151.035156 30.65625 151.035156 30.429688 C 151.035156 30.054688 150.714844 30.015625 150.601562 30.015625 C 150.320312 30.015625 149.925781 30.203125 149.925781 30.785156 C 149.925781 31.386719 150.453125 31.835938 151.203125 31.835938 C 152.421875 31.835938 153.660156 30.75 153.996094 29.398438 Z M 155.140625 24.824219 "/>
<path style=" stroke:none;fill-rule:nonzero;fill:rgb(0%,0%,0%);fill-opacity:1;" d="M 163.167969 26.625 L 166.507812 26.625 C 166.675781 26.625 166.898438 26.625 166.898438 26.378906 C 166.898438 26.15625 166.675781 26.15625 166.507812 26.15625 L 163.167969 26.15625 L 163.167969 22.796875 C 163.167969 22.628906 163.167969 22.40625 162.925781 22.40625 C 162.679688 22.40625 162.679688 22.628906 162.679688 22.796875 L 162.679688 26.15625 L 159.34375 26.15625 C 159.175781 26.15625 158.949219 26.15625 158.949219 26.378906 C 158.949219 26.625 159.175781 26.625 159.34375 26.625 L 162.679688 26.625 L 162.679688 29.980469 C 162.679688 30.148438 162.679688 30.375 162.925781 30.375 C 163.167969 30.375 163.167969 30.148438 163.167969 29.980469 Z M 163.167969 26.625 "/>
<path style=" stroke:none;fill-rule:nonzero;fill:rgb(0%,0%,0%);fill-opacity:1;" d="M 176.042969 24.824219 C 176.097656 24.65625 176.097656 24.636719 176.097656 24.542969 C 176.097656 24.335938 175.929688 24.222656 175.742188 24.222656 C 175.628906 24.222656 175.441406 24.296875 175.328125 24.46875 C 175.308594 24.542969 175.199219 24.898438 175.160156 25.125 C 175.066406 25.421875 174.992188 25.761719 174.917969 26.078125 L 174.371094 28.234375 C 174.335938 28.40625 173.808594 29.25 173.023438 29.25 C 172.421875 29.25 172.292969 28.722656 172.292969 28.273438 C 172.292969 27.730469 172.496094 26.980469 172.890625 25.929688 C 173.078125 25.441406 173.136719 25.3125 173.136719 25.066406 C 173.136719 24.542969 172.761719 24.09375 172.160156 24.09375 C 171.015625 24.09375 170.585938 25.835938 170.585938 25.929688 C 170.585938 26.0625 170.699219 26.0625 170.714844 26.0625 C 170.847656 26.0625 170.847656 26.023438 170.902344 25.835938 C 171.242188 24.710938 171.710938 24.355469 172.121094 24.355469 C 172.214844 24.355469 172.421875 24.355469 172.421875 24.730469 C 172.421875 25.03125 172.292969 25.347656 172.214844 25.574219 C 171.730469 26.847656 171.523438 27.523438 171.523438 28.085938 C 171.523438 29.15625 172.273438 29.511719 172.984375 29.511719 C 173.453125 29.511719 173.847656 29.304688 174.183594 28.96875 C 174.035156 29.585938 173.886719 30.1875 173.417969 30.824219 C 173.097656 31.21875 172.648438 31.574219 172.105469 31.574219 C 171.933594 31.574219 171.390625 31.535156 171.183594 31.066406 C 171.371094 31.066406 171.542969 31.066406 171.691406 30.917969 C 171.824219 30.824219 171.933594 30.65625 171.933594 30.429688 C 171.933594 30.054688 171.617188 30.015625 171.503906 30.015625 C 171.222656 30.015625 170.828125 30.203125 170.828125 30.785156 C 170.828125 31.386719 171.355469 31.835938 172.105469 31.835938 C 173.324219 31.835938 174.558594 30.75 174.898438 29.398438 Z M 176.042969 24.824219 "/>
<path style=" stroke:none;fill-rule:nonzero;fill:rgb(0%,0%,0%);fill-opacity:1;" d="M 180.738281 23.523438 L 180.457031 23.523438 C 180.4375 23.710938 180.34375 24.195312 180.230469 24.273438 C 180.175781 24.328125 179.539062 24.328125 179.40625 24.328125 L 177.871094 24.328125 C 178.75 23.558594 179.050781 23.316406 179.539062 22.921875 C 180.15625 22.433594 180.738281 21.910156 180.738281 21.121094 C 180.738281 20.109375 179.855469 19.492188 178.789062 19.492188 C 177.757812 19.492188 177.042969 20.222656 177.042969 20.992188 C 177.042969 21.402344 177.402344 21.460938 177.496094 21.460938 C 177.683594 21.460938 177.925781 21.308594 177.925781 21.007812 C 177.925781 20.859375 177.871094 20.558594 177.4375 20.558594 C 177.699219 19.976562 178.261719 19.789062 178.65625 19.789062 C 179.5 19.789062 179.933594 20.445312 179.933594 21.121094 C 179.933594 21.851562 179.40625 22.414062 179.144531 22.714844 L 177.136719 24.722656 C 177.042969 24.796875 177.042969 24.816406 177.042969 25.039062 L 180.496094 25.039062 Z M 180.738281 23.523438 "/>
<path style=" stroke:none;fill-rule:nonzero;fill:rgb(0%,0%,0%);fill-opacity:1;" d="M 193.417969 25.460938 C 193.605469 25.460938 193.828125 25.460938 193.828125 25.234375 C 193.828125 24.992188 193.605469 24.992188 193.433594 24.992188 L 186.273438 24.992188 C 186.105469 24.992188 185.878906 24.992188 185.878906 25.234375 C 185.878906 25.460938 186.105469 25.460938 186.273438 25.460938 Z M 193.433594 27.785156 C 193.605469 27.785156 193.828125 27.785156 193.828125 27.542969 C 193.828125 27.316406 193.605469 27.316406 193.417969 27.316406 L 186.273438 27.316406 C 186.105469 27.316406 185.878906 27.316406 185.878906 27.542969 C 185.878906 27.785156 186.105469 27.785156 186.273438 27.785156 Z M 193.433594 27.785156 "/>
<g clip-path="url(#clip6)" clip-rule="nonzero">
<path style=" stroke:none;fill-rule:nonzero;fill:rgb(0%,0%,0%);fill-opacity:1;" d="M 201.292969 25.160156 C 202.269531 24.84375 202.964844 24.015625 202.964844 23.0625 C 202.964844 22.085938 201.914062 21.410156 200.769531 21.410156 C 199.570312 21.410156 198.652344 22.125 198.652344 23.042969 C 198.652344 23.4375 198.914062 23.660156 199.269531 23.660156 C 199.625 23.660156 199.871094 23.398438 199.871094 23.042969 C 199.871094 22.460938 199.308594 22.460938 199.136719 22.460938 C 199.496094 21.859375 200.28125 21.710938 200.714844 21.710938 C 201.21875 21.710938 201.875 21.972656 201.875 23.042969 C 201.875 23.191406 201.839844 23.886719 201.539062 24.410156 C 201.183594 24.992188 200.769531 25.03125 200.46875 25.03125 C 200.375 25.046875 200.09375 25.066406 200 25.066406 C 199.90625 25.085938 199.832031 25.105469 199.832031 25.21875 C 199.832031 25.347656 199.90625 25.347656 200.113281 25.347656 L 200.636719 25.347656 C 201.613281 25.347656 202.0625 26.15625 202.0625 27.335938 C 202.0625 28.96875 201.238281 29.304688 200.714844 29.304688 C 200.1875 29.304688 199.289062 29.097656 198.875 28.40625 C 199.289062 28.460938 199.664062 28.199219 199.664062 27.75 C 199.664062 27.316406 199.34375 27.074219 199.007812 27.074219 C 198.707031 27.074219 198.332031 27.242188 198.332031 27.765625 C 198.332031 28.855469 199.4375 29.640625 200.75 29.640625 C 202.214844 29.640625 203.300781 28.554688 203.300781 27.335938 C 203.300781 26.359375 202.53125 25.421875 201.292969 25.160156 Z M 201.292969 25.160156 "/>
</g>
</g>
</svg>
