<?xml version="1.0" encoding="UTF-8"?>
<svg xmlns="http://www.w3.org/2000/svg" xmlns:xlink="http://www.w3.org/1999/xlink" width="192.968033pt" height="116.314209pt" viewBox="0 0 192.968033 116.314209" version="1.1">
<defs>
<clipPath id="clip1">
  <path d="M 25 88 L 164 88 L 164 116.3125 L 25 116.3125 Z M 25 88 "/>
</clipPath>
<clipPath id="clip2">
  <path d="M 181 33 L 192.96875 33 L 192.96875 44 L 181 44 Z M 181 33 "/>
</clipPath>
</defs>
<g id="surface1">
<path style="fill:none;stroke-width:0.8;stroke-linecap:butt;stroke-linejoin:miter;stroke:rgb(100%,0%,0%);stroke-opacity:1;stroke-miterlimit:4;" d="M 27.5 18.640625 C 27.5 18.640625 59.707031 -1.214844 93.46875 0.507812 C 127.230469 2.230469 153.261719 27.125 153.261719 27.125 "/>
<path style="fill-rule:evenodd;fill:rgb(100%,0%,0%);fill-opacity:1;stroke-width:0.340504;stroke-linecap:butt;stroke-linejoin:miter;stroke:rgb(100%,0%,0%);stroke-opacity:1;stroke-miterlimit:4;" d="M 12.937357 25.791381 C 12.934608 26.543593 12.327887 27.153967 11.57393 27.154049 C 10.824548 27.153045 10.213089 26.541748 10.211262 25.790622 C 10.212266 25.041241 10.823563 24.429781 11.574689 24.427954 C 12.326901 24.430703 12.93553 25.040255 12.937357 25.791381 Z M 12.937357 25.791381 " transform="matrix(1,-0.61643,0.61643,1,0,0)"/>
<path style="fill-rule:evenodd;fill:rgb(100%,0%,0%);fill-opacity:1;stroke-width:0.289084;stroke-linecap:butt;stroke-linejoin:miter;stroke:rgb(100%,0%,0%);stroke-opacity:1;stroke-miterlimit:4;" d="M -91.286635 62.386633 L -90.130687 61.230377 L -94.177868 62.385998 L -90.132419 63.544533 Z M -91.286635 62.386633 " transform="matrix(-1,-0.956336,0.956336,-1,0,0)"/>
<path style=" stroke:none;fill-rule:nonzero;fill:rgb(0%,0%,0%);fill-opacity:1;" d="M 90.882812 9.097656 L 92.257812 9.097656 C 92.582031 9.097656 92.734375 9.097656 92.734375 8.773438 C 92.734375 8.597656 92.582031 8.597656 92.308594 8.597656 L 90.984375 8.597656 L 91.308594 6.773438 C 91.382812 6.449219 91.609375 5.324219 91.707031 5.121094 C 91.832031 4.824219 92.109375 4.574219 92.457031 4.574219 C 92.507812 4.574219 92.933594 4.574219 93.234375 4.871094 C 92.53125 4.921875 92.359375 5.496094 92.359375 5.722656 C 92.359375 6.097656 92.65625 6.296875 92.957031 6.296875 C 93.382812 6.296875 93.832031 5.921875 93.832031 5.324219 C 93.832031 4.597656 93.109375 4.222656 92.457031 4.222656 C 91.90625 4.222656 90.90625 4.523438 90.433594 6.097656 C 90.332031 6.421875 90.28125 6.597656 89.90625 8.597656 L 88.808594 8.597656 C 88.484375 8.597656 88.308594 8.597656 88.308594 8.898438 C 88.308594 9.097656 88.457031 9.097656 88.757812 9.097656 L 89.808594 9.097656 L 88.632812 15.398438 C 88.332031 16.949219 88.058594 18.398438 87.234375 18.398438 C 87.15625 18.398438 86.78125 18.398438 86.457031 18.097656 C 87.207031 18.046875 87.359375 17.472656 87.359375 17.246094 C 87.359375 16.871094 87.058594 16.671875 86.757812 16.671875 C 86.332031 16.671875 85.882812 17.046875 85.882812 17.648438 C 85.882812 18.347656 86.582031 18.746094 87.234375 18.746094 C 88.109375 18.746094 88.757812 17.796875 89.03125 17.199219 C 89.558594 16.199219 89.90625 14.273438 89.933594 14.148438 Z M 90.882812 9.097656 "/>
<g clip-path="url(#clip1)" clip-rule="nonzero">
<path style="fill:none;stroke-width:0.8;stroke-linecap:butt;stroke-linejoin:miter;stroke:rgb(100%,0%,0%);stroke-opacity:1;stroke-miterlimit:4;" d="M 158.910156 93.070312 C 158.910156 93.070312 134.035156 117.550781 100.273438 115.832031 C 66.511719 114.109375 30.0625 99.242188 30.0625 99.242188 "/>
</g>
<path style="fill-rule:evenodd;fill:rgb(100%,0%,0%);fill-opacity:1;stroke-width:0.285093;stroke-linecap:butt;stroke-linejoin:miter;stroke:rgb(100%,0%,0%);stroke-opacity:1;stroke-miterlimit:4;" d="M -33.078927 -126.722595 C -33.079816 -126.094564 -33.58958 -125.584529 -34.219564 -125.583434 C -34.847595 -125.584323 -35.359614 -126.096039 -35.358725 -126.72407 C -35.35982 -127.354054 -34.850056 -127.864089 -34.218088 -127.863232 C -33.588104 -127.864327 -33.078069 -127.354563 -33.078927 -126.722595 Z M -33.078927 -126.722595 " transform="matrix(-1,0.98415,-0.98415,-1,0,0)"/>
<path style="fill-rule:evenodd;fill:rgb(100%,0%,0%);fill-opacity:1;stroke-width:0.370377;stroke-linecap:butt;stroke-linejoin:miter;stroke:rgb(100%,0%,0%);stroke-opacity:1;stroke-miterlimit:4;" d="M 63.440092 74.573655 L 64.922521 73.09401 L 59.737875 74.57588 L 64.923086 76.054718 Z M 63.440092 74.573655 " transform="matrix(1,0.407874,-0.407874,1,0,0)"/>
<path style=" stroke:none;fill-rule:nonzero;fill:rgb(0%,0%,0%);fill-opacity:1;" d="M 87.972656 102.445312 L 89.347656 102.445312 C 89.671875 102.445312 89.824219 102.445312 89.824219 102.117188 C 89.824219 101.945312 89.671875 101.945312 89.398438 101.945312 L 88.074219 101.945312 L 88.398438 100.117188 C 88.472656 99.792969 88.699219 98.667969 88.796875 98.46875 C 88.921875 98.167969 89.199219 97.917969 89.546875 97.917969 C 89.597656 97.917969 90.023438 97.917969 90.324219 98.21875 C 89.625 98.269531 89.449219 98.84375 89.449219 99.070312 C 89.449219 99.445312 89.75 99.644531 90.046875 99.644531 C 90.472656 99.644531 90.921875 99.269531 90.921875 98.667969 C 90.921875 97.945312 90.199219 97.570312 89.546875 97.570312 C 89 97.570312 88 97.867188 87.523438 99.445312 C 87.421875 99.769531 87.375 99.945312 87 101.945312 L 85.898438 101.945312 C 85.574219 101.945312 85.398438 101.945312 85.398438 102.242188 C 85.398438 102.445312 85.546875 102.445312 85.847656 102.445312 L 86.898438 102.445312 L 85.722656 108.742188 C 85.421875 110.292969 85.148438 111.742188 84.324219 111.742188 C 84.25 111.742188 83.875 111.742188 83.546875 111.445312 C 84.296875 111.394531 84.449219 110.820312 84.449219 110.59375 C 84.449219 110.21875 84.148438 110.019531 83.847656 110.019531 C 83.421875 110.019531 82.972656 110.394531 82.972656 110.992188 C 82.972656 111.695312 83.671875 112.09375 84.324219 112.09375 C 85.199219 112.09375 85.847656 111.144531 86.125 110.542969 C 86.648438 109.542969 87 107.617188 87.023438 107.492188 Z M 87.972656 102.445312 "/>
<path style=" stroke:none;fill-rule:nonzero;fill:rgb(0%,0%,0%);fill-opacity:1;" d="M 99.945312 100.507812 C 100.117188 100.507812 100.394531 100.507812 100.394531 100.257812 C 100.394531 99.957031 100.117188 99.957031 99.945312 99.957031 L 93.292969 99.957031 C 93.117188 99.957031 92.84375 99.957031 92.84375 100.234375 C 92.84375 100.507812 93.09375 100.507812 93.292969 100.507812 Z M 99.945312 100.507812 "/>
<path style=" stroke:none;fill-rule:nonzero;fill:rgb(0%,0%,0%);fill-opacity:1;" d="M 105.332031 95.933594 C 105.332031 95.632812 105.332031 95.632812 105.007812 95.632812 C 104.28125 96.332031 103.28125 96.332031 102.832031 96.332031 L 102.832031 96.734375 C 103.082031 96.734375 103.832031 96.734375 104.433594 96.433594 L 104.433594 102.109375 C 104.433594 102.484375 104.433594 102.632812 103.332031 102.632812 L 102.90625 102.632812 L 102.90625 103.035156 C 103.105469 103.035156 104.480469 102.984375 104.882812 102.984375 C 105.230469 102.984375 106.632812 103.035156 106.882812 103.035156 L 106.882812 102.632812 L 106.457031 102.632812 C 105.332031 102.632812 105.332031 102.484375 105.332031 102.109375 Z M 105.332031 95.933594 "/>
<path style="fill-rule:nonzero;fill:rgb(70.195007%,70.195007%,70.195007%);fill-opacity:1;stroke-width:0.8;stroke-linecap:round;stroke-linejoin:round;stroke:rgb(0%,0%,0%);stroke-opacity:1;stroke-miterlimit:4;" d="M 41.773438 -61.351562 C 41.773438 -45.128906 34.175781 -31.980469 24.800781 -31.980469 C 15.425781 -31.980469 7.824219 -45.128906 7.824219 -61.351562 C 7.824219 -77.570312 15.425781 -90.71875 24.800781 -90.71875 C 34.175781 -90.71875 41.773438 -77.570312 41.773438 -61.351562 Z M 41.773438 -61.351562 " transform="matrix(1,0,0,-1,0,0)"/>
<path style=" stroke:none;fill-rule:nonzero;fill:rgb(0%,0%,0%);fill-opacity:1;" d="M 2.300781 37.605469 C 1.675781 38.65625 1.050781 38.882812 0.351562 38.929688 C 0.148438 38.957031 0 38.957031 0 39.257812 C 0 39.355469 0.101562 39.429688 0.226562 39.429688 C 0.648438 39.429688 1.148438 39.382812 1.574219 39.382812 C 2.125 39.382812 2.675781 39.429688 3.175781 39.429688 C 3.273438 39.429688 3.476562 39.429688 3.476562 39.132812 C 3.476562 38.957031 3.351562 38.929688 3.226562 38.929688 C 2.875 38.90625 2.476562 38.78125 2.476562 38.382812 C 2.476562 38.179688 2.574219 38.007812 2.699219 37.78125 L 3.925781 35.757812 L 7.925781 35.757812 C 7.949219 36.082031 8.175781 38.257812 8.175781 38.40625 C 8.175781 38.882812 7.351562 38.929688 7.023438 38.929688 C 6.800781 38.929688 6.648438 38.929688 6.648438 39.257812 C 6.648438 39.429688 6.824219 39.429688 6.875 39.429688 C 7.523438 39.429688 8.199219 39.382812 8.851562 39.382812 C 9.25 39.382812 10.273438 39.429688 10.675781 39.429688 C 10.75 39.429688 10.949219 39.429688 10.949219 39.105469 C 10.949219 38.929688 10.800781 38.929688 10.574219 38.929688 C 9.601562 38.929688 9.601562 38.832031 9.550781 38.355469 L 8.574219 28.40625 C 8.550781 28.082031 8.550781 28.007812 8.273438 28.007812 C 8.023438 28.007812 7.949219 28.132812 7.851562 28.28125 Z M 4.226562 35.257812 L 7.351562 29.980469 L 7.875 35.257812 Z M 4.226562 35.257812 "/>
<path style="fill-rule:nonzero;fill:rgb(70.195007%,70.195007%,70.195007%);fill-opacity:1;stroke-width:0.8;stroke-linecap:round;stroke-linejoin:round;stroke:rgb(0%,0%,0%);stroke-opacity:1;stroke-miterlimit:4;" d="M 183.894531 -60.59375 C 183.894531 -46.765625 172.683594 -35.558594 158.855469 -35.558594 C 145.03125 -35.558594 133.820312 -46.765625 133.820312 -60.59375 C 133.820312 -74.421875 145.03125 -85.632812 158.855469 -85.632812 C 172.683594 -85.632812 183.894531 -74.421875 183.894531 -60.59375 Z M 183.894531 -60.59375 " transform="matrix(1,0,0,-1,0,0)"/>
<g clip-path="url(#clip2)" clip-rule="nonzero">
<path style=" stroke:none;fill-rule:nonzero;fill:rgb(0%,0%,0%);fill-opacity:1;" d="M 183.46875 42.746094 C 183.316406 43.371094 183.269531 43.496094 182.019531 43.496094 C 181.742188 43.496094 181.59375 43.496094 181.59375 43.820312 C 181.59375 43.996094 181.742188 43.996094 182.019531 43.996094 L 187.71875 43.996094 C 190.242188 43.996094 192.117188 42.121094 192.117188 40.546875 C 192.117188 39.394531 191.191406 38.46875 189.644531 38.296875 C 191.292969 37.996094 192.96875 36.820312 192.96875 35.296875 C 192.96875 34.121094 191.917969 33.09375 190.019531 33.09375 L 184.644531 33.09375 C 184.34375 33.09375 184.191406 33.09375 184.191406 33.421875 C 184.191406 33.59375 184.34375 33.59375 184.644531 33.59375 C 184.667969 33.59375 184.96875 33.59375 185.242188 33.621094 C 185.519531 33.671875 185.667969 33.671875 185.667969 33.894531 C 185.667969 33.945312 185.644531 33.996094 185.617188 34.195312 Z M 185.867188 38.144531 L 186.867188 34.195312 C 187.019531 33.644531 187.042969 33.59375 187.71875 33.59375 L 189.792969 33.59375 C 191.191406 33.59375 191.519531 34.546875 191.519531 35.246094 C 191.519531 36.644531 190.144531 38.144531 188.21875 38.144531 Z M 185.167969 43.496094 L 184.816406 43.496094 C 184.644531 43.46875 184.59375 43.445312 184.59375 43.320312 C 184.59375 43.269531 184.59375 43.246094 184.691406 42.96875 L 185.792969 38.519531 L 188.792969 38.519531 C 190.316406 38.519531 190.644531 39.695312 190.644531 40.371094 C 190.644531 41.945312 189.21875 43.496094 187.316406 43.496094 Z M 185.167969 43.496094 "/>
</g>
<path style=" stroke:none;fill-rule:nonzero;fill:rgb(0%,0%,0%);fill-opacity:1;" d="M 25.585938 50.492188 C 25.6875 50.09375 26.0625 48.617188 27.164062 48.617188 C 27.238281 48.617188 27.636719 48.617188 27.960938 48.816406 C 27.511719 48.917969 27.210938 49.292969 27.210938 49.691406 C 27.210938 49.941406 27.386719 50.242188 27.8125 50.242188 C 28.164062 50.242188 28.664062 49.96875 28.664062 49.316406 C 28.664062 48.492188 27.738281 48.265625 27.1875 48.265625 C 26.261719 48.265625 25.710938 49.117188 25.511719 49.46875 C 25.113281 48.417969 24.261719 48.265625 23.789062 48.265625 C 22.136719 48.265625 21.210938 50.316406 21.210938 50.71875 C 21.210938 50.890625 21.386719 50.890625 21.414062 50.890625 C 21.539062 50.890625 21.585938 50.84375 21.613281 50.71875 C 22.164062 49.015625 23.210938 48.617188 23.761719 48.617188 C 24.0625 48.617188 24.613281 48.765625 24.613281 49.691406 C 24.613281 50.191406 24.335938 51.242188 23.761719 53.492188 C 23.511719 54.46875 22.9375 55.140625 22.238281 55.140625 C 22.136719 55.140625 21.789062 55.140625 21.4375 54.941406 C 21.835938 54.84375 22.1875 54.515625 22.1875 54.066406 C 22.1875 53.640625 21.835938 53.515625 21.613281 53.515625 C 21.113281 53.515625 20.738281 53.917969 20.738281 54.441406 C 20.738281 55.167969 21.511719 55.492188 22.210938 55.492188 C 23.289062 55.492188 23.863281 54.367188 23.886719 54.292969 C 24.085938 54.867188 24.664062 55.492188 25.613281 55.492188 C 27.261719 55.492188 28.164062 53.441406 28.164062 53.042969 C 28.164062 52.867188 28.039062 52.867188 27.988281 52.867188 C 27.835938 52.867188 27.8125 52.941406 27.761719 53.042969 C 27.238281 54.765625 26.164062 55.140625 25.664062 55.140625 C 25.039062 55.140625 24.789062 54.640625 24.789062 54.09375 C 24.789062 53.742188 24.863281 53.390625 25.039062 52.691406 Z M 25.585938 50.492188 "/>
<path style=" stroke:none;fill-rule:nonzero;fill:rgb(0%,0%,0%);fill-opacity:1;" d="M 161.511719 56.289062 C 161.585938 56.066406 161.585938 56.039062 161.585938 55.914062 C 161.585938 55.640625 161.363281 55.488281 161.113281 55.488281 C 160.960938 55.488281 160.710938 55.589844 160.5625 55.816406 C 160.535156 55.914062 160.386719 56.390625 160.335938 56.691406 C 160.210938 57.089844 160.113281 57.539062 160.011719 57.964844 L 159.285156 60.839844 C 159.238281 61.066406 158.535156 62.191406 157.488281 62.191406 C 156.6875 62.191406 156.511719 61.488281 156.511719 60.890625 C 156.511719 60.164062 156.785156 59.164062 157.3125 57.765625 C 157.5625 57.113281 157.636719 56.941406 157.636719 56.613281 C 157.636719 55.914062 157.136719 55.316406 156.335938 55.316406 C 154.8125 55.316406 154.238281 57.640625 154.238281 57.765625 C 154.238281 57.941406 154.386719 57.941406 154.410156 57.941406 C 154.585938 57.941406 154.585938 57.890625 154.660156 57.640625 C 155.113281 56.140625 155.738281 55.664062 156.285156 55.664062 C 156.410156 55.664062 156.6875 55.664062 156.6875 56.164062 C 156.6875 56.566406 156.511719 56.988281 156.410156 57.289062 C 155.761719 58.988281 155.488281 59.890625 155.488281 60.640625 C 155.488281 62.066406 156.488281 62.539062 157.4375 62.539062 C 158.0625 62.539062 158.585938 62.265625 159.035156 61.816406 C 158.835938 62.640625 158.636719 63.441406 158.011719 64.289062 C 157.585938 64.816406 156.988281 65.289062 156.261719 65.289062 C 156.035156 65.289062 155.3125 65.238281 155.035156 64.613281 C 155.285156 64.613281 155.511719 64.613281 155.710938 64.414062 C 155.886719 64.289062 156.035156 64.066406 156.035156 63.765625 C 156.035156 63.265625 155.613281 63.214844 155.460938 63.214844 C 155.085938 63.214844 154.5625 63.464844 154.5625 64.238281 C 154.5625 65.039062 155.261719 65.640625 156.261719 65.640625 C 157.886719 65.640625 159.535156 64.191406 159.988281 62.390625 Z M 161.511719 56.289062 "/>
<path style="fill:none;stroke-width:1.6;stroke-linecap:butt;stroke-linejoin:miter;stroke:rgb(0%,0%,0%);stroke-opacity:1;stroke-miterlimit:4;" d="M 33.128906 53.335938 C 33.128906 53.792969 32.757812 54.164062 32.300781 54.164062 C 31.839844 54.164062 31.46875 53.792969 31.46875 53.335938 C 31.46875 52.878906 31.839844 52.507812 32.300781 52.507812 C 32.757812 52.507812 33.128906 52.878906 33.128906 53.335938 Z M 33.128906 53.335938 "/>
<path style="fill:none;stroke-width:1.6;stroke-linecap:butt;stroke-linejoin:miter;stroke:rgb(0%,0%,0%);stroke-opacity:1;stroke-miterlimit:4;" d="M 149.007812 56.652344 C 149.007812 57.109375 148.636719 57.480469 148.179688 57.480469 C 147.71875 57.480469 147.347656 57.109375 147.347656 56.652344 C 147.347656 56.195312 147.71875 55.824219 148.179688 55.824219 C 148.636719 55.824219 149.007812 56.195312 149.007812 56.652344 Z M 149.007812 56.652344 "/>
<path style="fill:none;stroke-width:0.8;stroke-linecap:butt;stroke-linejoin:miter;stroke:rgb(0%,0%,0%);stroke-opacity:1;stroke-dasharray:0.8,0.8;stroke-miterlimit:4;" d="M 32.714844 53.335938 C 32.714844 53.335938 52.054688 29.046875 88.890625 29.289062 C 125.726562 29.53125 145.484375 53.75 145.484375 53.75 "/>
<path style="fill-rule:evenodd;fill:rgb(0%,0%,0%);fill-opacity:1;stroke-width:0.309951;stroke-linecap:butt;stroke-linejoin:miter;stroke:rgb(0%,0%,0%);stroke-opacity:1;stroke-miterlimit:4;" d="M -101.05247 61.026677 L -99.814364 59.786671 L -104.152672 61.02501 L -99.812464 62.264784 Z M -101.05247 61.026677 " transform="matrix(-0.815757,-1,1,-0.815757,0,0)"/>
<path style="fill:none;stroke-width:0.8;stroke-linecap:butt;stroke-linejoin:miter;stroke:rgb(0%,0%,0%);stroke-opacity:1;stroke-dasharray:0.8,0.8;stroke-miterlimit:4;" d="M 147.734375 57.113281 C 147.734375 57.113281 128.394531 81.402344 91.558594 81.160156 C 54.722656 80.914062 34.964844 56.695312 34.964844 56.695312 "/>
<path style="fill-rule:evenodd;fill:rgb(0%,0%,0%);fill-opacity:1;stroke-width:0.309951;stroke-linecap:butt;stroke-linejoin:miter;stroke:rgb(0%,0%,0%);stroke-opacity:1;stroke-miterlimit:4;" d="M 53.648396 6.775774 L 54.888848 5.537681 L 50.55054 6.776019 L 54.890748 8.015793 Z M 53.648396 6.775774 " transform="matrix(0.815757,1,-1,0.815757,0,0)"/>
</g>
</svg>
