<?xml version="1.0" encoding="UTF-8"?>
<svg xmlns="http://www.w3.org/2000/svg" xmlns:xlink="http://www.w3.org/1999/xlink" width="333.651337pt" height="95.337395pt" viewBox="0 0 333.651337 95.337395" version="1.1">
<defs>
<clipPath id="clip1">
  <path d="M 130 89 L 134 89 L 134 95.335938 L 130 95.335938 Z M 130 89 "/>
</clipPath>
<clipPath id="clip2">
  <path d="M 184 86 L 333.652344 86 L 333.652344 88 L 184 88 Z M 184 86 "/>
</clipPath>
<clipPath id="clip3">
  <path d="M 303 89 L 307 89 L 307 95.335938 L 303 95.335938 Z M 303 89 "/>
</clipPath>
</defs>
<g id="surface1">
<path style="fill:none;stroke-width:0.8;stroke-linecap:butt;stroke-linejoin:miter;stroke:rgb(0%,0%,100%);stroke-opacity:1;stroke-dasharray:0.8,1.6;stroke-miterlimit:4;" d="M 16.828125 38.816406 L 142.664062 38.816406 "/>
<path style="fill:none;stroke-width:0.8;stroke-linecap:butt;stroke-linejoin:miter;stroke:rgb(100%,0%,0%);stroke-opacity:1;stroke-miterlimit:4;" d="M 16.785156 0.710938 L 16.785156 91.910156 "/>
<path style="fill:none;stroke-width:0.8;stroke-linecap:butt;stroke-linejoin:miter;stroke:rgb(100%,0%,0%);stroke-opacity:1;stroke-miterlimit:4;" d="M 11.984375 87.109375 L 160.785156 87.109375 "/>
<path style="fill:none;stroke-width:0.8;stroke-linecap:butt;stroke-linejoin:miter;stroke:rgb(0%,0%,100%);stroke-opacity:1;stroke-dasharray:0.8,1.6;stroke-miterlimit:4;" d="M 16.828125 19.613281 L 132.027344 19.613281 L 131.984375 87.109375 "/>
<path style="fill:none;stroke-width:0.8;stroke-linecap:butt;stroke-linejoin:miter;stroke:rgb(0%,0%,100%);stroke-opacity:1;stroke-dasharray:0.8,1.6;stroke-miterlimit:4;" d="M 16.785156 65.875 L 31.183594 65.875 L 31.152344 87.109375 "/>
<path style="fill:none;stroke-width:1.6;stroke-linecap:butt;stroke-linejoin:miter;stroke:rgb(0%,0%,0%);stroke-opacity:1;stroke-miterlimit:4;" d="M 21.585938 82.308594 C 21.585938 82.308594 32.9375 56.855469 45.585938 53.507812 C 58.234375 50.164062 79.226562 72.414062 83.984375 67.910156 C 88.746094 63.402344 98.425781 43.613281 98.425781 43.613281 M 98.425781 34.015625 C 98.425781 34.015625 103.226562 5.214844 112.785156 5.507812 C 122.34375 5.804688 151.183594 39.109375 151.183594 39.109375 "/>
<path style=" stroke:none;fill-rule:nonzero;fill:rgb(0%,0%,0%);fill-opacity:1;" d="M 32.253906 90.582031 C 32.101562 90.285156 31.878906 90.070312 31.515625 90.070312 C 30.589844 90.070312 29.601562 91.246094 29.601562 92.410156 C 29.601562 93.160156 30.039062 93.683594 30.652344 93.683594 C 30.816406 93.683594 31.214844 93.644531 31.691406 93.082031 C 31.753906 93.421875 32.039062 93.683594 32.414062 93.683594 C 32.703125 93.683594 32.878906 93.496094 33.015625 93.246094 C 33.140625 92.957031 33.253906 92.472656 33.253906 92.457031 C 33.253906 92.371094 33.175781 92.371094 33.152344 92.371094 C 33.078125 92.371094 33.066406 92.410156 33.039062 92.519531 C 32.902344 93.035156 32.765625 93.507812 32.441406 93.507812 C 32.214844 93.507812 32.203125 93.296875 32.203125 93.144531 C 32.203125 92.972656 32.214844 92.894531 32.300781 92.546875 C 32.390625 92.222656 32.402344 92.132812 32.476562 91.832031 L 32.765625 90.722656 C 32.816406 90.496094 32.816406 90.484375 32.816406 90.445312 C 32.816406 90.308594 32.726562 90.234375 32.589844 90.234375 C 32.390625 90.234375 32.277344 90.410156 32.253906 90.582031 Z M 31.738281 92.644531 C 31.691406 92.796875 31.691406 92.808594 31.578125 92.945312 C 31.226562 93.382812 30.902344 93.507812 30.675781 93.507812 C 30.277344 93.507812 30.164062 93.070312 30.164062 92.757812 C 30.164062 92.359375 30.414062 91.382812 30.601562 91.007812 C 30.851562 90.546875 31.203125 90.246094 31.527344 90.246094 C 32.039062 90.246094 32.152344 90.894531 32.152344 90.945312 C 32.152344 90.996094 32.140625 91.046875 32.128906 91.082031 Z M 31.738281 92.644531 "/>
<g clip-path="url(#clip1)" clip-rule="nonzero">
<path style=" stroke:none;fill-rule:nonzero;fill:rgb(0%,0%,0%);fill-opacity:1;" d="M 131.976562 89.800781 C 131.976562 89.800781 131.976562 89.710938 131.878906 89.710938 C 131.703125 89.710938 131.113281 89.773438 130.902344 89.800781 C 130.839844 89.800781 130.753906 89.8125 130.753906 89.949219 C 130.753906 90.050781 130.828125 90.050781 130.953125 90.050781 C 131.328125 90.050781 131.339844 90.101562 131.339844 90.1875 C 131.339844 90.238281 131.277344 90.511719 131.238281 90.675781 L 130.578125 93.273438 C 130.488281 93.675781 130.453125 93.8125 130.453125 94.085938 C 130.453125 94.835938 130.878906 95.335938 131.464844 95.335938 C 132.402344 95.335938 133.390625 94.148438 133.390625 93 C 133.390625 92.273438 132.964844 91.726562 132.328125 91.726562 C 131.964844 91.726562 131.628906 91.960938 131.390625 92.199219 Z M 131.238281 92.8125 C 131.277344 92.636719 131.277344 92.625 131.351562 92.539062 C 131.738281 92.023438 132.101562 91.898438 132.316406 91.898438 C 132.601562 91.898438 132.816406 92.136719 132.816406 92.648438 C 132.816406 93.125 132.550781 94.039062 132.402344 94.335938 C 132.140625 94.875 131.777344 95.164062 131.464844 95.164062 C 131.191406 95.164062 130.925781 94.949219 130.925781 94.363281 C 130.925781 94.199219 130.925781 94.050781 131.050781 93.550781 Z M 131.238281 92.8125 "/>
</g>
<path style=" stroke:none;fill-rule:nonzero;fill:rgb(0%,0%,0%);fill-opacity:1;" d="M 2.5 64.414062 L 3.1875 64.414062 C 3.351562 64.414062 3.425781 64.414062 3.425781 64.253906 C 3.425781 64.164062 3.351562 64.164062 3.210938 64.164062 L 2.550781 64.164062 L 2.710938 63.253906 C 2.75 63.089844 2.863281 62.527344 2.914062 62.429688 C 2.976562 62.277344 3.113281 62.152344 3.289062 62.152344 C 3.3125 62.152344 3.523438 62.152344 3.675781 62.304688 C 3.324219 62.328125 3.238281 62.617188 3.238281 62.726562 C 3.238281 62.914062 3.386719 63.015625 3.539062 63.015625 C 3.75 63.015625 3.976562 62.828125 3.976562 62.527344 C 3.976562 62.164062 3.613281 61.976562 3.289062 61.976562 C 3.011719 61.976562 2.511719 62.128906 2.273438 62.914062 C 2.226562 63.078125 2.199219 63.164062 2.011719 64.164062 L 1.460938 64.164062 C 1.300781 64.164062 1.210938 64.164062 1.210938 64.316406 C 1.210938 64.414062 1.289062 64.414062 1.4375 64.414062 L 1.960938 64.414062 L 1.375 67.566406 C 1.226562 68.339844 1.085938 69.066406 0.675781 69.066406 C 0.636719 69.066406 0.449219 69.066406 0.289062 68.914062 C 0.664062 68.890625 0.738281 68.601562 0.738281 68.492188 C 0.738281 68.304688 0.585938 68.203125 0.4375 68.203125 C 0.226562 68.203125 0 68.390625 0 68.691406 C 0 69.039062 0.351562 69.242188 0.675781 69.242188 C 1.113281 69.242188 1.4375 68.765625 1.574219 68.464844 C 1.835938 67.964844 2.011719 67.003906 2.023438 66.941406 Z M 2.5 64.414062 "/>
<path style=" stroke:none;fill-rule:nonzero;fill:rgb(0%,0%,0%);fill-opacity:1;" d="M 6.972656 69.515625 C 6.972656 69.492188 6.972656 69.476562 6.835938 69.339844 C 5.847656 68.339844 5.585938 66.828125 5.585938 65.601562 C 5.585938 64.214844 5.886719 62.828125 6.871094 61.839844 C 6.972656 61.742188 6.972656 61.726562 6.972656 61.703125 C 6.972656 61.640625 6.949219 61.617188 6.898438 61.617188 C 6.808594 61.617188 6.097656 62.164062 5.621094 63.179688 C 5.222656 64.054688 5.121094 64.941406 5.121094 65.601562 C 5.121094 66.226562 5.210938 67.191406 5.648438 68.101562 C 6.136719 69.078125 6.808594 69.601562 6.898438 69.601562 C 6.949219 69.601562 6.972656 69.578125 6.972656 69.515625 Z M 6.972656 69.515625 "/>
<path style=" stroke:none;fill-rule:nonzero;fill:rgb(0%,0%,0%);fill-opacity:1;" d="M 10.410156 64.589844 C 10.257812 64.289062 10.035156 64.078125 9.671875 64.078125 C 8.746094 64.078125 7.757812 65.253906 7.757812 66.414062 C 7.757812 67.164062 8.195312 67.691406 8.808594 67.691406 C 8.972656 67.691406 9.371094 67.652344 9.847656 67.089844 C 9.910156 67.429688 10.195312 67.691406 10.570312 67.691406 C 10.859375 67.691406 11.035156 67.503906 11.171875 67.253906 C 11.296875 66.964844 11.410156 66.476562 11.410156 66.464844 C 11.410156 66.378906 11.335938 66.378906 11.308594 66.378906 C 11.234375 66.378906 11.222656 66.414062 11.195312 66.527344 C 11.058594 67.039062 10.921875 67.515625 10.597656 67.515625 C 10.371094 67.515625 10.359375 67.304688 10.359375 67.152344 C 10.359375 66.976562 10.371094 66.902344 10.460938 66.554688 C 10.546875 66.226562 10.558594 66.140625 10.632812 65.839844 L 10.921875 64.726562 C 10.972656 64.503906 10.972656 64.492188 10.972656 64.453125 C 10.972656 64.316406 10.882812 64.242188 10.746094 64.242188 C 10.546875 64.242188 10.433594 64.414062 10.410156 64.589844 Z M 9.898438 66.652344 C 9.847656 66.804688 9.847656 66.816406 9.734375 66.953125 C 9.382812 67.390625 9.058594 67.515625 8.835938 67.515625 C 8.433594 67.515625 8.320312 67.078125 8.320312 66.765625 C 8.320312 66.367188 8.570312 65.390625 8.757812 65.015625 C 9.007812 64.554688 9.359375 64.253906 9.683594 64.253906 C 10.195312 64.253906 10.308594 64.902344 10.308594 64.953125 C 10.308594 65.003906 10.296875 65.054688 10.285156 65.089844 Z M 9.898438 66.652344 "/>
<path style=" stroke:none;fill-rule:nonzero;fill:rgb(0%,0%,0%);fill-opacity:1;" d="M 13.949219 65.601562 C 13.949219 64.992188 13.859375 64.027344 13.421875 63.117188 C 12.949219 62.140625 12.261719 61.617188 12.183594 61.617188 C 12.136719 61.617188 12.097656 61.652344 12.097656 61.703125 C 12.097656 61.726562 12.097656 61.742188 12.246094 61.890625 C 13.035156 62.679688 13.484375 63.941406 13.484375 65.601562 C 13.484375 66.976562 13.199219 68.378906 12.210938 69.378906 C 12.097656 69.476562 12.097656 69.492188 12.097656 69.515625 C 12.097656 69.566406 12.136719 69.601562 12.183594 69.601562 C 12.261719 69.601562 12.984375 69.054688 13.449219 68.039062 C 13.859375 67.164062 13.949219 66.277344 13.949219 65.601562 Z M 13.949219 65.601562 "/>
<path style=" stroke:none;fill-rule:nonzero;fill:rgb(0%,0%,0%);fill-opacity:1;" d="M 3.492188 18.261719 L 4.179688 18.261719 C 4.34375 18.261719 4.417969 18.261719 4.417969 18.101562 C 4.417969 18.011719 4.34375 18.011719 4.203125 18.011719 L 3.542969 18.011719 L 3.703125 17.101562 C 3.742188 16.9375 3.855469 16.375 3.90625 16.277344 C 3.96875 16.125 4.105469 16 4.28125 16 C 4.304688 16 4.515625 16 4.667969 16.152344 C 4.316406 16.175781 4.230469 16.464844 4.230469 16.574219 C 4.230469 16.761719 4.378906 16.863281 4.53125 16.863281 C 4.742188 16.863281 4.96875 16.675781 4.96875 16.375 C 4.96875 16.011719 4.605469 15.824219 4.28125 15.824219 C 4.003906 15.824219 3.503906 15.976562 3.265625 16.761719 C 3.21875 16.925781 3.191406 17.011719 3.003906 18.011719 L 2.453125 18.011719 C 2.292969 18.011719 2.203125 18.011719 2.203125 18.164062 C 2.203125 18.261719 2.28125 18.261719 2.429688 18.261719 L 2.953125 18.261719 L 2.367188 21.414062 C 2.21875 22.1875 2.078125 22.914062 1.667969 22.914062 C 1.628906 22.914062 1.441406 22.914062 1.28125 22.761719 C 1.65625 22.738281 1.730469 22.449219 1.730469 22.339844 C 1.730469 22.152344 1.578125 22.050781 1.429688 22.050781 C 1.21875 22.050781 0.992188 22.238281 0.992188 22.539062 C 0.992188 22.886719 1.34375 23.089844 1.667969 23.089844 C 2.105469 23.089844 2.429688 22.613281 2.566406 22.3125 C 2.828125 21.8125 3.003906 20.851562 3.015625 20.789062 Z M 3.492188 18.261719 "/>
<path style=" stroke:none;fill-rule:nonzero;fill:rgb(0%,0%,0%);fill-opacity:1;" d="M 7.964844 23.363281 C 7.964844 23.339844 7.964844 23.324219 7.828125 23.1875 C 6.839844 22.1875 6.578125 20.675781 6.578125 19.449219 C 6.578125 18.0625 6.878906 16.675781 7.863281 15.6875 C 7.964844 15.589844 7.964844 15.574219 7.964844 15.550781 C 7.964844 15.488281 7.941406 15.464844 7.890625 15.464844 C 7.800781 15.464844 7.089844 16.011719 6.613281 17.027344 C 6.214844 17.902344 6.113281 18.789062 6.113281 19.449219 C 6.113281 20.074219 6.203125 21.039062 6.640625 21.949219 C 7.128906 22.925781 7.800781 23.449219 7.890625 23.449219 C 7.941406 23.449219 7.964844 23.425781 7.964844 23.363281 Z M 7.964844 23.363281 "/>
<path style=" stroke:none;fill-rule:nonzero;fill:rgb(0%,0%,0%);fill-opacity:1;" d="M 10.328125 16 C 10.328125 16 10.328125 15.914062 10.226562 15.914062 C 10.050781 15.914062 9.464844 15.976562 9.25 16 C 9.1875 16 9.101562 16.011719 9.101562 16.152344 C 9.101562 16.25 9.175781 16.25 9.300781 16.25 C 9.675781 16.25 9.6875 16.300781 9.6875 16.386719 C 9.6875 16.4375 9.625 16.714844 9.589844 16.875 L 8.925781 19.476562 C 8.839844 19.875 8.800781 20.011719 8.800781 20.289062 C 8.800781 21.039062 9.226562 21.539062 9.8125 21.539062 C 10.75 21.539062 11.738281 20.351562 11.738281 19.199219 C 11.738281 18.476562 11.3125 17.925781 10.675781 17.925781 C 10.3125 17.925781 9.976562 18.164062 9.738281 18.402344 Z M 9.589844 19.011719 C 9.625 18.839844 9.625 18.824219 9.703125 18.738281 C 10.089844 18.226562 10.453125 18.101562 10.664062 18.101562 C 10.953125 18.101562 11.164062 18.339844 11.164062 18.851562 C 11.164062 19.324219 10.902344 20.238281 10.75 20.539062 C 10.488281 21.074219 10.125 21.363281 9.8125 21.363281 C 9.539062 21.363281 9.277344 21.152344 9.277344 20.5625 C 9.277344 20.402344 9.277344 20.25 9.402344 19.75 Z M 9.589844 19.011719 "/>
<path style=" stroke:none;fill-rule:nonzero;fill:rgb(0%,0%,0%);fill-opacity:1;" d="M 14.148438 19.449219 C 14.148438 18.839844 14.058594 17.875 13.621094 16.964844 C 13.148438 15.988281 12.460938 15.464844 12.386719 15.464844 C 12.335938 15.464844 12.296875 15.5 12.296875 15.550781 C 12.296875 15.574219 12.296875 15.589844 12.449219 15.738281 C 13.234375 16.527344 13.683594 17.789062 13.683594 19.449219 C 13.683594 20.824219 13.398438 22.226562 12.410156 23.226562 C 12.296875 23.324219 12.296875 23.339844 12.296875 23.363281 C 12.296875 23.414062 12.335938 23.449219 12.386719 23.449219 C 12.460938 23.449219 13.183594 22.902344 13.648438 21.886719 C 14.058594 21.011719 14.148438 20.125 14.148438 19.449219 Z M 14.148438 19.449219 "/>
<path style=" stroke:none;fill-rule:nonzero;fill:rgb(0%,0%,0%);fill-opacity:1;" d="M 13.457031 37.019531 L 13.570312 36.90625 C 13.804688 36.671875 14.070312 36.394531 14.605469 36.359375 C 14.695312 36.34375 14.769531 36.34375 14.769531 36.207031 C 14.769531 36.144531 14.730469 36.109375 14.667969 36.109375 C 14.457031 36.109375 14.230469 36.132812 14.019531 36.132812 C 13.742188 36.132812 13.46875 36.109375 13.21875 36.109375 C 13.167969 36.109375 13.070312 36.109375 13.070312 36.257812 C 13.070312 36.34375 13.144531 36.359375 13.179688 36.359375 C 13.242188 36.359375 13.46875 36.371094 13.46875 36.546875 C 13.46875 36.683594 13.28125 36.882812 13.257812 36.921875 L 11.40625 39.058594 L 10.53125 36.683594 C 10.480469 36.570312 10.480469 36.558594 10.480469 36.546875 C 10.480469 36.359375 10.867188 36.359375 10.957031 36.359375 C 11.054688 36.359375 11.144531 36.359375 11.144531 36.195312 C 11.144531 36.109375 11.042969 36.109375 11.019531 36.109375 C 10.792969 36.109375 10.242188 36.132812 10.019531 36.132812 C 9.820312 36.132812 9.320312 36.109375 9.117188 36.109375 C 9.082031 36.109375 8.96875 36.109375 8.96875 36.269531 C 8.96875 36.359375 9.054688 36.359375 9.15625 36.359375 C 9.632812 36.359375 9.667969 36.433594 9.742188 36.632812 L 10.71875 39.257812 C 10.730469 39.28125 10.757812 39.371094 10.757812 39.382812 C 10.757812 39.40625 10.429688 40.695312 10.394531 40.84375 C 10.292969 41.28125 10.28125 41.308594 9.644531 41.308594 C 9.492188 41.308594 9.429688 41.308594 9.429688 41.46875 C 9.429688 41.558594 9.519531 41.558594 9.542969 41.558594 C 9.757812 41.558594 10.320312 41.53125 10.542969 41.53125 C 10.769531 41.53125 11.34375 41.558594 11.570312 41.558594 C 11.617188 41.558594 11.71875 41.558594 11.71875 41.394531 C 11.71875 41.308594 11.644531 41.308594 11.492188 41.308594 C 11.480469 41.308594 11.332031 41.308594 11.195312 41.296875 C 11.019531 41.28125 10.96875 41.257812 10.96875 41.171875 C 10.96875 41.109375 11.042969 40.832031 11.082031 40.671875 L 11.367188 39.546875 C 11.40625 39.382812 11.417969 39.371094 11.480469 39.296875 Z M 13.457031 37.019531 "/>
<path style="fill-rule:nonzero;fill:rgb(0%,0%,0%);fill-opacity:1;stroke-width:0.8;stroke-linecap:round;stroke-linejoin:bevel;stroke:rgb(0%,0%,0%);stroke-opacity:1;stroke-miterlimit:4;" d="M 100.191406 34.015625 C 100.191406 34.988281 99.402344 35.78125 98.425781 35.78125 C 97.449219 35.78125 96.660156 34.988281 96.660156 34.015625 C 96.660156 33.039062 97.449219 32.25 98.425781 32.25 C 99.402344 32.25 100.191406 33.039062 100.191406 34.015625 Z M 100.191406 34.015625 "/>
<path style="fill-rule:nonzero;fill:rgb(100%,100%,100%);fill-opacity:1;stroke-width:0.8;stroke-linecap:round;stroke-linejoin:bevel;stroke:rgb(0%,0%,0%);stroke-opacity:1;stroke-miterlimit:4;" d="M 100.179688 43.609375 C 100.179688 44.582031 99.386719 45.375 98.414062 45.375 C 97.4375 45.375 96.644531 44.582031 96.644531 43.609375 C 96.644531 42.632812 97.4375 41.839844 98.414062 41.839844 C 99.386719 41.839844 100.179688 42.632812 100.179688 43.609375 Z M 100.179688 43.609375 "/>
<path style="fill:none;stroke-width:0.8;stroke-linecap:butt;stroke-linejoin:miter;stroke:rgb(0%,0%,100%);stroke-opacity:1;stroke-dasharray:0.8,1.6;stroke-miterlimit:4;" d="M 190.1875 48.449219 L 316.027344 48.449219 "/>
<path style="fill:none;stroke-width:0.8;stroke-linecap:butt;stroke-linejoin:miter;stroke:rgb(100%,0%,0%);stroke-opacity:1;stroke-miterlimit:4;" d="M 189.640625 0.445312 L 189.640625 91.644531 "/>
<g clip-path="url(#clip2)" clip-rule="nonzero">
<path style="fill:none;stroke-width:0.8;stroke-linecap:butt;stroke-linejoin:miter;stroke:rgb(100%,0%,0%);stroke-opacity:1;stroke-miterlimit:4;" d="M 184.84375 86.84375 L 333.640625 86.84375 "/>
</g>
<path style="fill:none;stroke-width:0.8;stroke-linecap:butt;stroke-linejoin:miter;stroke:rgb(0%,0%,100%);stroke-opacity:1;stroke-dasharray:0.8,1.6;stroke-miterlimit:4;" d="M 189.640625 10.015625 L 304.84375 10.015625 L 304.84375 86.84375 "/>
<path style="fill:none;stroke-width:0.8;stroke-linecap:butt;stroke-linejoin:miter;stroke:rgb(0%,0%,100%);stroke-opacity:1;stroke-dasharray:0.8,1.6;stroke-miterlimit:4;" d="M 189.625 67.613281 L 204.027344 67.613281 L 204.011719 86.84375 "/>
<path style="fill:none;stroke-width:1.6;stroke-linecap:butt;stroke-linejoin:miter;stroke:rgb(0%,0%,0%);stroke-opacity:1;stroke-miterlimit:4;" d="M 309.625 0.414062 C 309.625 0.414062 284.042969 41.609375 266.425781 43.613281 C 248.8125 45.621094 240.675781 18.878906 228.027344 19.613281 C 215.378906 20.351562 204.027344 38.816406 204.027344 38.816406 "/>
<path style=" stroke:none;fill-rule:nonzero;fill:rgb(0%,0%,0%);fill-opacity:1;" d="M 205.109375 90.320312 C 204.960938 90.019531 204.734375 89.808594 204.371094 89.808594 C 203.445312 89.808594 202.460938 90.984375 202.460938 92.144531 C 202.460938 92.894531 202.898438 93.421875 203.507812 93.421875 C 203.671875 93.421875 204.070312 93.382812 204.546875 92.820312 C 204.609375 93.15625 204.898438 93.421875 205.273438 93.421875 C 205.558594 93.421875 205.734375 93.234375 205.871094 92.984375 C 205.996094 92.695312 206.109375 92.207031 206.109375 92.195312 C 206.109375 92.109375 206.035156 92.109375 206.007812 92.109375 C 205.933594 92.109375 205.921875 92.144531 205.898438 92.257812 C 205.757812 92.769531 205.621094 93.246094 205.296875 93.246094 C 205.070312 93.246094 205.058594 93.03125 205.058594 92.882812 C 205.058594 92.707031 205.070312 92.632812 205.160156 92.28125 C 205.246094 91.957031 205.257812 91.871094 205.335938 91.570312 L 205.621094 90.457031 C 205.671875 90.234375 205.671875 90.21875 205.671875 90.183594 C 205.671875 90.046875 205.585938 89.96875 205.445312 89.96875 C 205.246094 89.96875 205.132812 90.144531 205.109375 90.320312 Z M 204.597656 92.382812 C 204.546875 92.53125 204.546875 92.546875 204.433594 92.683594 C 204.085938 93.121094 203.757812 93.246094 203.535156 93.246094 C 203.132812 93.246094 203.023438 92.808594 203.023438 92.496094 C 203.023438 92.09375 203.273438 91.121094 203.460938 90.746094 C 203.710938 90.28125 204.058594 89.984375 204.382812 89.984375 C 204.898438 89.984375 205.007812 90.632812 205.007812 90.683594 C 205.007812 90.734375 204.996094 90.78125 204.984375 90.820312 Z M 204.597656 92.382812 "/>
<g clip-path="url(#clip3)" clip-rule="nonzero">
<path style=" stroke:none;fill-rule:nonzero;fill:rgb(0%,0%,0%);fill-opacity:1;" d="M 304.835938 89.535156 C 304.835938 89.535156 304.835938 89.449219 304.734375 89.449219 C 304.558594 89.449219 303.972656 89.511719 303.757812 89.535156 C 303.695312 89.535156 303.609375 89.550781 303.609375 89.6875 C 303.609375 89.785156 303.683594 89.785156 303.808594 89.785156 C 304.183594 89.785156 304.195312 89.835938 304.195312 89.925781 C 304.195312 89.972656 304.132812 90.25 304.097656 90.410156 L 303.433594 93.011719 C 303.347656 93.410156 303.308594 93.550781 303.308594 93.824219 C 303.308594 94.574219 303.734375 95.074219 304.320312 95.074219 C 305.257812 95.074219 306.246094 93.886719 306.246094 92.738281 C 306.246094 92.011719 305.820312 91.460938 305.183594 91.460938 C 304.820312 91.460938 304.484375 91.699219 304.246094 91.9375 Z M 304.097656 92.550781 C 304.132812 92.375 304.132812 92.363281 304.210938 92.273438 C 304.597656 91.761719 304.960938 91.636719 305.171875 91.636719 C 305.460938 91.636719 305.671875 91.875 305.671875 92.386719 C 305.671875 92.863281 305.410156 93.773438 305.257812 94.074219 C 304.996094 94.613281 304.632812 94.898438 304.320312 94.898438 C 304.046875 94.898438 303.785156 94.6875 303.785156 94.097656 C 303.785156 93.9375 303.785156 93.785156 303.910156 93.285156 Z M 304.097656 92.550781 "/>
</g>
<path style=" stroke:none;fill-rule:nonzero;fill:rgb(0%,0%,0%);fill-opacity:1;" d="M 175.355469 64.152344 L 176.042969 64.152344 C 176.207031 64.152344 176.28125 64.152344 176.28125 63.988281 C 176.28125 63.902344 176.207031 63.902344 176.070312 63.902344 L 175.40625 63.902344 L 175.570312 62.988281 C 175.605469 62.828125 175.71875 62.265625 175.769531 62.164062 C 175.832031 62.015625 175.96875 61.890625 176.144531 61.890625 C 176.167969 61.890625 176.382812 61.890625 176.53125 62.039062 C 176.183594 62.066406 176.09375 62.351562 176.09375 62.464844 C 176.09375 62.652344 176.246094 62.753906 176.394531 62.753906 C 176.605469 62.753906 176.832031 62.566406 176.832031 62.265625 C 176.832031 61.902344 176.46875 61.714844 176.144531 61.714844 C 175.871094 61.714844 175.371094 61.863281 175.132812 62.652344 C 175.082031 62.816406 175.058594 62.902344 174.871094 63.902344 L 174.320312 63.902344 C 174.15625 63.902344 174.070312 63.902344 174.070312 64.050781 C 174.070312 64.152344 174.144531 64.152344 174.292969 64.152344 L 174.820312 64.152344 L 174.230469 67.300781 C 174.082031 68.078125 173.945312 68.800781 173.53125 68.800781 C 173.496094 68.800781 173.308594 68.800781 173.144531 68.652344 C 173.519531 68.628906 173.59375 68.339844 173.59375 68.226562 C 173.59375 68.039062 173.445312 67.941406 173.292969 67.941406 C 173.082031 67.941406 172.855469 68.128906 172.855469 68.425781 C 172.855469 68.777344 173.207031 68.976562 173.53125 68.976562 C 173.96875 68.976562 174.292969 68.503906 174.433594 68.203125 C 174.695312 67.703125 174.871094 66.738281 174.882812 66.675781 Z M 175.355469 64.152344 "/>
<path style=" stroke:none;fill-rule:nonzero;fill:rgb(0%,0%,0%);fill-opacity:1;" d="M 179.828125 69.253906 C 179.828125 69.226562 179.828125 69.214844 179.691406 69.078125 C 178.703125 68.078125 178.441406 66.566406 178.441406 65.339844 C 178.441406 63.953125 178.742188 62.566406 179.730469 61.578125 C 179.828125 61.476562 179.828125 61.464844 179.828125 61.441406 C 179.828125 61.378906 179.804688 61.351562 179.753906 61.351562 C 179.667969 61.351562 178.953125 61.902344 178.480469 62.914062 C 178.078125 63.789062 177.980469 64.675781 177.980469 65.339844 C 177.980469 65.964844 178.066406 66.925781 178.503906 67.839844 C 178.992188 68.816406 179.667969 69.339844 179.753906 69.339844 C 179.804688 69.339844 179.828125 69.316406 179.828125 69.253906 Z M 179.828125 69.253906 "/>
<path style=" stroke:none;fill-rule:nonzero;fill:rgb(0%,0%,0%);fill-opacity:1;" d="M 183.265625 64.328125 C 183.117188 64.027344 182.890625 63.816406 182.527344 63.816406 C 181.601562 63.816406 180.617188 64.988281 180.617188 66.152344 C 180.617188 66.902344 181.054688 67.425781 181.664062 67.425781 C 181.828125 67.425781 182.226562 67.390625 182.703125 66.828125 C 182.765625 67.164062 183.054688 67.425781 183.429688 67.425781 C 183.714844 67.425781 183.890625 67.238281 184.027344 66.988281 C 184.152344 66.703125 184.265625 66.214844 184.265625 66.203125 C 184.265625 66.113281 184.191406 66.113281 184.164062 66.113281 C 184.089844 66.113281 184.078125 66.152344 184.054688 66.265625 C 183.914062 66.777344 183.777344 67.253906 183.453125 67.253906 C 183.226562 67.253906 183.214844 67.039062 183.214844 66.890625 C 183.214844 66.714844 183.226562 66.640625 183.316406 66.289062 C 183.402344 65.964844 183.414062 65.878906 183.492188 65.578125 L 183.777344 64.464844 C 183.828125 64.238281 183.828125 64.226562 183.828125 64.191406 C 183.828125 64.050781 183.742188 63.976562 183.601562 63.976562 C 183.402344 63.976562 183.289062 64.152344 183.265625 64.328125 Z M 182.753906 66.390625 C 182.703125 66.539062 182.703125 66.550781 182.589844 66.691406 C 182.242188 67.128906 181.914062 67.253906 181.691406 67.253906 C 181.289062 67.253906 181.179688 66.816406 181.179688 66.503906 C 181.179688 66.101562 181.429688 65.128906 181.617188 64.753906 C 181.867188 64.289062 182.214844 63.988281 182.539062 63.988281 C 183.054688 63.988281 183.164062 64.640625 183.164062 64.691406 C 183.164062 64.738281 183.152344 64.789062 183.140625 64.828125 Z M 182.753906 66.390625 "/>
<path style=" stroke:none;fill-rule:nonzero;fill:rgb(0%,0%,0%);fill-opacity:1;" d="M 186.804688 65.339844 C 186.804688 64.726562 186.71875 63.765625 186.28125 62.851562 C 185.804688 61.878906 185.117188 61.351562 185.042969 61.351562 C 184.992188 61.351562 184.953125 61.390625 184.953125 61.441406 C 184.953125 61.464844 184.953125 61.476562 185.105469 61.628906 C 185.890625 62.414062 186.34375 63.675781 186.34375 65.339844 C 186.34375 66.714844 186.054688 68.113281 185.066406 69.113281 C 184.953125 69.214844 184.953125 69.226562 184.953125 69.253906 C 184.953125 69.300781 184.992188 69.339844 185.042969 69.339844 C 185.117188 69.339844 185.84375 68.789062 186.304688 67.777344 C 186.71875 66.902344 186.804688 66.015625 186.804688 65.339844 Z M 186.804688 65.339844 "/>
<path style=" stroke:none;fill-rule:nonzero;fill:rgb(0%,0%,0%);fill-opacity:1;" d="M 176.222656 11.296875 L 176.910156 11.296875 C 177.074219 11.296875 177.148438 11.296875 177.148438 11.136719 C 177.148438 11.046875 177.074219 11.046875 176.9375 11.046875 L 176.273438 11.046875 L 176.4375 10.136719 C 176.472656 9.972656 176.585938 9.410156 176.636719 9.3125 C 176.699219 9.160156 176.835938 9.035156 177.011719 9.035156 C 177.035156 9.035156 177.25 9.035156 177.398438 9.1875 C 177.050781 9.210938 176.960938 9.5 176.960938 9.609375 C 176.960938 9.796875 177.113281 9.898438 177.261719 9.898438 C 177.472656 9.898438 177.699219 9.710938 177.699219 9.410156 C 177.699219 9.046875 177.335938 8.859375 177.011719 8.859375 C 176.738281 8.859375 176.238281 9.011719 176 9.796875 C 175.949219 9.960938 175.925781 10.046875 175.738281 11.046875 L 175.1875 11.046875 C 175.023438 11.046875 174.9375 11.046875 174.9375 11.199219 C 174.9375 11.296875 175.011719 11.296875 175.160156 11.296875 L 175.6875 11.296875 L 175.097656 14.449219 C 174.949219 15.222656 174.8125 15.949219 174.398438 15.949219 C 174.363281 15.949219 174.175781 15.949219 174.011719 15.796875 C 174.386719 15.773438 174.460938 15.484375 174.460938 15.375 C 174.460938 15.1875 174.3125 15.085938 174.160156 15.085938 C 173.949219 15.085938 173.722656 15.273438 173.722656 15.574219 C 173.722656 15.921875 174.074219 16.125 174.398438 16.125 C 174.835938 16.125 175.160156 15.648438 175.300781 15.347656 C 175.5625 14.847656 175.738281 13.886719 175.75 13.824219 Z M 176.222656 11.296875 "/>
<path style=" stroke:none;fill-rule:nonzero;fill:rgb(0%,0%,0%);fill-opacity:1;" d="M 180.695312 16.398438 C 180.695312 16.375 180.695312 16.359375 180.558594 16.222656 C 179.570312 15.222656 179.308594 13.710938 179.308594 12.484375 C 179.308594 11.097656 179.609375 9.710938 180.597656 8.722656 C 180.695312 8.625 180.695312 8.609375 180.695312 8.585938 C 180.695312 8.523438 180.671875 8.5 180.621094 8.5 C 180.535156 8.5 179.820312 9.046875 179.347656 10.0625 C 178.945312 10.9375 178.847656 11.824219 178.847656 12.484375 C 178.847656 13.109375 178.933594 14.074219 179.371094 14.984375 C 179.859375 15.960938 180.535156 16.484375 180.621094 16.484375 C 180.671875 16.484375 180.695312 16.460938 180.695312 16.398438 Z M 180.695312 16.398438 "/>
<path style=" stroke:none;fill-rule:nonzero;fill:rgb(0%,0%,0%);fill-opacity:1;" d="M 183.058594 9.035156 C 183.058594 9.035156 183.058594 8.949219 182.957031 8.949219 C 182.785156 8.949219 182.195312 9.011719 181.984375 9.035156 C 181.921875 9.035156 181.832031 9.046875 181.832031 9.1875 C 181.832031 9.285156 181.910156 9.285156 182.035156 9.285156 C 182.410156 9.285156 182.421875 9.335938 182.421875 9.421875 C 182.421875 9.472656 182.359375 9.75 182.320312 9.910156 L 181.660156 12.511719 C 181.570312 12.910156 181.535156 13.046875 181.535156 13.324219 C 181.535156 14.074219 181.957031 14.574219 182.546875 14.574219 C 183.484375 14.574219 184.472656 13.386719 184.472656 12.234375 C 184.472656 11.511719 184.046875 10.960938 183.410156 10.960938 C 183.046875 10.960938 182.707031 11.199219 182.472656 11.4375 Z M 182.320312 12.046875 C 182.359375 11.875 182.359375 11.859375 182.433594 11.773438 C 182.820312 11.261719 183.183594 11.136719 183.394531 11.136719 C 183.683594 11.136719 183.894531 11.375 183.894531 11.886719 C 183.894531 12.359375 183.632812 13.273438 183.484375 13.574219 C 183.222656 14.109375 182.859375 14.398438 182.546875 14.398438 C 182.269531 14.398438 182.007812 14.1875 182.007812 13.597656 C 182.007812 13.4375 182.007812 13.285156 182.132812 12.785156 Z M 182.320312 12.046875 "/>
<path style=" stroke:none;fill-rule:nonzero;fill:rgb(0%,0%,0%);fill-opacity:1;" d="M 186.878906 12.484375 C 186.878906 11.875 186.792969 10.910156 186.355469 10 C 185.878906 9.023438 185.191406 8.5 185.117188 8.5 C 185.066406 8.5 185.027344 8.535156 185.027344 8.585938 C 185.027344 8.609375 185.027344 8.625 185.179688 8.773438 C 185.964844 9.5625 186.417969 10.824219 186.417969 12.484375 C 186.417969 13.859375 186.128906 15.261719 185.140625 16.261719 C 185.027344 16.359375 185.027344 16.375 185.027344 16.398438 C 185.027344 16.449219 185.066406 16.484375 185.117188 16.484375 C 185.191406 16.484375 185.917969 15.9375 186.378906 14.921875 C 186.792969 14.046875 186.878906 13.160156 186.878906 12.484375 Z M 186.878906 12.484375 "/>
<path style=" stroke:none;fill-rule:nonzero;fill:rgb(0%,0%,0%);fill-opacity:1;" d="M 185.992188 46.445312 L 186.105469 46.332031 C 186.34375 46.09375 186.605469 45.820312 187.144531 45.78125 C 187.230469 45.769531 187.304688 45.769531 187.304688 45.632812 C 187.304688 45.570312 187.269531 45.53125 187.207031 45.53125 C 186.992188 45.53125 186.769531 45.554688 186.554688 45.554688 C 186.28125 45.554688 186.007812 45.53125 185.757812 45.53125 C 185.707031 45.53125 185.605469 45.53125 185.605469 45.679688 C 185.605469 45.769531 185.679688 45.78125 185.71875 45.78125 C 185.78125 45.78125 186.007812 45.792969 186.007812 45.96875 C 186.007812 46.105469 185.820312 46.304688 185.792969 46.34375 L 183.945312 48.480469 L 183.070312 46.105469 C 183.019531 45.992188 183.019531 45.980469 183.019531 45.96875 C 183.019531 45.78125 183.40625 45.78125 183.492188 45.78125 C 183.59375 45.78125 183.679688 45.78125 183.679688 45.617188 C 183.679688 45.53125 183.582031 45.53125 183.554688 45.53125 C 183.332031 45.53125 182.78125 45.554688 182.554688 45.554688 C 182.355469 45.554688 181.855469 45.53125 181.65625 45.53125 C 181.617188 45.53125 181.507812 45.53125 181.507812 45.695312 C 181.507812 45.78125 181.59375 45.78125 181.695312 45.78125 C 182.167969 45.78125 182.207031 45.855469 182.28125 46.054688 L 183.257812 48.679688 C 183.269531 48.707031 183.292969 48.792969 183.292969 48.804688 C 183.292969 48.832031 182.96875 50.117188 182.929688 50.269531 C 182.832031 50.707031 182.820312 50.730469 182.179688 50.730469 C 182.03125 50.730469 181.96875 50.730469 181.96875 50.894531 C 181.96875 50.980469 182.054688 50.980469 182.082031 50.980469 C 182.292969 50.980469 182.855469 50.957031 183.082031 50.957031 C 183.304688 50.957031 183.882812 50.980469 184.105469 50.980469 C 184.15625 50.980469 184.257812 50.980469 184.257812 50.820312 C 184.257812 50.730469 184.179688 50.730469 184.03125 50.730469 C 184.019531 50.730469 183.867188 50.730469 183.730469 50.71875 C 183.554688 50.707031 183.507812 50.679688 183.507812 50.59375 C 183.507812 50.53125 183.582031 50.257812 183.617188 50.09375 L 183.90625 48.96875 C 183.945312 48.804688 183.957031 48.792969 184.019531 48.71875 Z M 185.992188 46.445312 "/>
<path style="fill-rule:nonzero;fill:rgb(100%,100%,100%);fill-opacity:1;stroke-width:0.8;stroke-linecap:round;stroke-linejoin:bevel;stroke:rgb(0%,0%,0%);stroke-opacity:1;stroke-miterlimit:4;" d="M 205.808594 38.832031 C 205.808594 39.804688 205.019531 40.597656 204.042969 40.597656 C 203.066406 40.597656 202.277344 39.804688 202.277344 38.832031 C 202.277344 37.855469 203.066406 37.066406 204.042969 37.066406 C 205.019531 37.066406 205.808594 37.855469 205.808594 38.832031 Z M 205.808594 38.832031 "/>
<path style="fill-rule:nonzero;fill:rgb(0%,0%,0%);fill-opacity:1;stroke-width:0.8;stroke-linecap:round;stroke-linejoin:bevel;stroke:rgb(0%,0%,0%);stroke-opacity:1;stroke-miterlimit:4;" d="M 205.859375 67.601562 C 205.859375 68.578125 205.070312 69.367188 204.09375 69.367188 C 203.117188 69.367188 202.328125 68.578125 202.328125 67.601562 C 202.328125 66.628906 203.117188 65.835938 204.09375 65.835938 C 205.070312 65.835938 205.859375 66.628906 205.859375 67.601562 Z M 205.859375 67.601562 "/>
<path style="fill:none;stroke-width:1.6;stroke-linecap:butt;stroke-linejoin:miter;stroke:rgb(0%,0%,0%);stroke-opacity:1;stroke-miterlimit:4;" d="M 180.027344 77.214844 C 180.027344 77.214844 184.511719 82.84375 189.625 82.015625 C 194.742188 81.183594 204.027344 67.613281 204.027344 67.613281 "/>
</g>
</svg>
