<?xml version="1.0" encoding="UTF-8"?>
<svg xmlns="http://www.w3.org/2000/svg" xmlns:xlink="http://www.w3.org/1999/xlink" width="506.463165pt" height="96.074997pt" viewBox="0 0 506.463165 96.074997" version="1.1">
<defs>
<clipPath id="clip1">
  <path d="M 16 0 L 18 0 L 18 96.074219 L 16 96.074219 Z M 16 0 "/>
</clipPath>
<clipPath id="clip2">
  <path d="M 189 0 L 191 0 L 191 96.074219 L 189 96.074219 Z M 189 0 "/>
</clipPath>
<clipPath id="clip3">
  <path d="M 362 0 L 363 0 L 363 96.074219 L 362 96.074219 Z M 362 0 "/>
</clipPath>
<clipPath id="clip4">
  <path d="M 352 43 L 506.464844 43 L 506.464844 53 L 352 53 Z M 352 43 "/>
</clipPath>
<clipPath id="clip5">
  <path d="M 360 0 L 506.464844 0 L 506.464844 96 L 360 96 Z M 360 0 "/>
</clipPath>
</defs>
<g id="surface1">
<g clip-path="url(#clip1)" clip-rule="nonzero">
<path style="fill:none;stroke-width:0.8;stroke-linecap:butt;stroke-linejoin:miter;stroke:rgb(100%,0%,0%);stroke-opacity:1;stroke-miterlimit:4;" d="M 16.828125 0.0664062 L 16.828125 96.066406 "/>
</g>
<path style="fill:none;stroke-width:0.8;stroke-linecap:butt;stroke-linejoin:miter;stroke:rgb(100%,0%,0%);stroke-opacity:1;stroke-miterlimit:4;" d="M 12.027344 48.097656 L 160.828125 48.066406 "/>
<path style="fill:none;stroke-width:0.8;stroke-linecap:butt;stroke-linejoin:miter;stroke:rgb(0%,0%,100%);stroke-opacity:1;stroke-dasharray:0.8,1.6;stroke-miterlimit:4;" d="M 132.027344 14.464844 L 132.027344 48.066406 "/>
<path style="fill:none;stroke-width:0.8;stroke-linecap:butt;stroke-linejoin:miter;stroke:rgb(0%,0%,100%);stroke-opacity:1;stroke-dasharray:0.8,1.6;stroke-miterlimit:4;" d="M 45.703125 48.382812 L 45.625 57.664062 "/>
<path style="fill:none;stroke-width:1.6;stroke-linecap:butt;stroke-linejoin:miter;stroke:rgb(0%,0%,0%);stroke-opacity:1;stroke-miterlimit:4;" d="M 24.171875 86.5 C 24.171875 86.5 35.523438 61.046875 48.171875 57.699219 C 60.820312 54.355469 69.65625 79.050781 86.570312 72.101562 C 103.488281 65.148438 95.851562 13.855469 115.371094 9.699219 C 134.894531 5.542969 153.773438 43.300781 153.773438 43.300781 "/>
<path style=" stroke:none;fill-rule:nonzero;fill:rgb(0%,0%,0%);fill-opacity:1;" d="M 46.46875 41.484375 C 46.320312 41.183594 46.09375 40.972656 45.730469 40.972656 C 44.808594 40.972656 43.820312 42.148438 43.820312 43.308594 C 43.820312 44.058594 44.257812 44.585938 44.871094 44.585938 C 45.03125 44.585938 45.433594 44.546875 45.90625 43.984375 C 45.96875 44.320312 46.257812 44.585938 46.632812 44.585938 C 46.917969 44.585938 47.09375 44.398438 47.230469 44.148438 C 47.355469 43.859375 47.46875 43.371094 47.46875 43.359375 C 47.46875 43.273438 47.394531 43.273438 47.371094 43.273438 C 47.292969 43.273438 47.28125 43.308594 47.257812 43.421875 C 47.121094 43.933594 46.980469 44.410156 46.65625 44.410156 C 46.433594 44.410156 46.417969 44.195312 46.417969 44.046875 C 46.417969 43.871094 46.433594 43.796875 46.519531 43.445312 C 46.605469 43.121094 46.621094 43.035156 46.695312 42.734375 L 46.980469 41.621094 C 47.03125 41.398438 47.03125 41.382812 47.03125 41.347656 C 47.03125 41.210938 46.945312 41.132812 46.808594 41.132812 C 46.605469 41.132812 46.496094 41.308594 46.46875 41.484375 Z M 45.957031 43.546875 C 45.90625 43.695312 45.90625 43.710938 45.792969 43.847656 C 45.445312 44.285156 45.121094 44.410156 44.894531 44.410156 C 44.496094 44.410156 44.382812 43.972656 44.382812 43.660156 C 44.382812 43.257812 44.632812 42.285156 44.820312 41.910156 C 45.070312 41.445312 45.417969 41.148438 45.746094 41.148438 C 46.257812 41.148438 46.371094 41.796875 46.371094 41.847656 C 46.371094 41.898438 46.355469 41.945312 46.34375 41.984375 Z M 45.957031 43.546875 "/>
<path style=" stroke:none;fill-rule:nonzero;fill:rgb(0%,0%,0%);fill-opacity:1;" d="M 131.976562 52.082031 C 131.976562 52.082031 131.976562 51.996094 131.878906 51.996094 C 131.703125 51.996094 131.113281 52.058594 130.902344 52.082031 C 130.839844 52.082031 130.753906 52.09375 130.753906 52.234375 C 130.753906 52.332031 130.828125 52.332031 130.953125 52.332031 C 131.328125 52.332031 131.339844 52.382812 131.339844 52.46875 C 131.339844 52.519531 131.277344 52.796875 131.238281 52.957031 L 130.578125 55.558594 C 130.488281 55.957031 130.453125 56.09375 130.453125 56.371094 C 130.453125 57.121094 130.878906 57.621094 131.464844 57.621094 C 132.402344 57.621094 133.390625 56.433594 133.390625 55.28125 C 133.390625 54.558594 132.964844 54.007812 132.328125 54.007812 C 131.964844 54.007812 131.628906 54.246094 131.390625 54.484375 Z M 131.238281 55.09375 C 131.277344 54.921875 131.277344 54.90625 131.351562 54.820312 C 131.738281 54.308594 132.101562 54.183594 132.316406 54.183594 C 132.601562 54.183594 132.816406 54.421875 132.816406 54.933594 C 132.816406 55.40625 132.550781 56.320312 132.402344 56.621094 C 132.140625 57.15625 131.777344 57.445312 131.464844 57.445312 C 131.191406 57.445312 130.925781 57.234375 130.925781 56.644531 C 130.925781 56.484375 130.925781 56.332031 131.050781 55.832031 Z M 131.238281 55.09375 "/>
<path style=" stroke:none;fill-rule:nonzero;fill:rgb(0%,0%,0%);fill-opacity:1;" d="M 2.5 68.867188 L 3.1875 68.867188 C 3.351562 68.867188 3.425781 68.867188 3.425781 68.703125 C 3.425781 68.617188 3.351562 68.617188 3.210938 68.617188 L 2.550781 68.617188 L 2.710938 67.703125 C 2.75 67.539062 2.863281 66.976562 2.914062 66.878906 C 2.976562 66.726562 3.113281 66.601562 3.289062 66.601562 C 3.3125 66.601562 3.523438 66.601562 3.675781 66.753906 C 3.324219 66.777344 3.238281 67.066406 3.238281 67.179688 C 3.238281 67.367188 3.386719 67.464844 3.539062 67.464844 C 3.75 67.464844 3.976562 67.277344 3.976562 66.976562 C 3.976562 66.617188 3.613281 66.429688 3.289062 66.429688 C 3.011719 66.429688 2.511719 66.578125 2.273438 67.367188 C 2.226562 67.527344 2.199219 67.617188 2.011719 68.617188 L 1.460938 68.617188 C 1.300781 68.617188 1.210938 68.617188 1.210938 68.765625 C 1.210938 68.867188 1.289062 68.867188 1.4375 68.867188 L 1.960938 68.867188 L 1.375 72.015625 C 1.226562 72.789062 1.085938 73.515625 0.675781 73.515625 C 0.636719 73.515625 0.449219 73.515625 0.289062 73.367188 C 0.664062 73.339844 0.738281 73.054688 0.738281 72.941406 C 0.738281 72.753906 0.585938 72.652344 0.4375 72.652344 C 0.226562 72.652344 0 72.839844 0 73.140625 C 0 73.492188 0.351562 73.691406 0.675781 73.691406 C 1.113281 73.691406 1.4375 73.214844 1.574219 72.914062 C 1.835938 72.414062 2.011719 71.453125 2.023438 71.390625 Z M 2.5 68.867188 "/>
<path style=" stroke:none;fill-rule:nonzero;fill:rgb(0%,0%,0%);fill-opacity:1;" d="M 6.972656 73.964844 C 6.972656 73.941406 6.972656 73.929688 6.835938 73.789062 C 5.847656 72.789062 5.585938 71.277344 5.585938 70.054688 C 5.585938 68.664062 5.886719 67.277344 6.871094 66.289062 C 6.972656 66.191406 6.972656 66.179688 6.972656 66.152344 C 6.972656 66.089844 6.949219 66.066406 6.898438 66.066406 C 6.808594 66.066406 6.097656 66.617188 5.621094 67.628906 C 5.222656 68.503906 5.121094 69.390625 5.121094 70.054688 C 5.121094 70.679688 5.210938 71.640625 5.648438 72.554688 C 6.136719 73.527344 6.808594 74.054688 6.898438 74.054688 C 6.949219 74.054688 6.972656 74.027344 6.972656 73.964844 Z M 6.972656 73.964844 "/>
<path style=" stroke:none;fill-rule:nonzero;fill:rgb(0%,0%,0%);fill-opacity:1;" d="M 10.410156 69.039062 C 10.257812 68.742188 10.035156 68.527344 9.671875 68.527344 C 8.746094 68.527344 7.757812 69.703125 7.757812 70.867188 C 7.757812 71.617188 8.195312 72.140625 8.808594 72.140625 C 8.972656 72.140625 9.371094 72.101562 9.847656 71.539062 C 9.910156 71.878906 10.195312 72.140625 10.570312 72.140625 C 10.859375 72.140625 11.035156 71.953125 11.171875 71.703125 C 11.296875 71.414062 11.410156 70.929688 11.410156 70.914062 C 11.410156 70.828125 11.335938 70.828125 11.308594 70.828125 C 11.234375 70.828125 11.222656 70.867188 11.195312 70.976562 C 11.058594 71.492188 10.921875 71.964844 10.597656 71.964844 C 10.371094 71.964844 10.359375 71.753906 10.359375 71.601562 C 10.359375 71.429688 10.371094 71.351562 10.460938 71.003906 C 10.546875 70.679688 10.558594 70.589844 10.632812 70.289062 L 10.921875 69.179688 C 10.972656 68.953125 10.972656 68.941406 10.972656 68.902344 C 10.972656 68.765625 10.882812 68.691406 10.746094 68.691406 C 10.546875 68.691406 10.433594 68.867188 10.410156 69.039062 Z M 9.898438 71.101562 C 9.847656 71.253906 9.847656 71.265625 9.734375 71.402344 C 9.382812 71.839844 9.058594 71.964844 8.835938 71.964844 C 8.433594 71.964844 8.320312 71.527344 8.320312 71.214844 C 8.320312 70.816406 8.570312 69.839844 8.757812 69.464844 C 9.007812 69.003906 9.359375 68.703125 9.683594 68.703125 C 10.195312 68.703125 10.308594 69.351562 10.308594 69.402344 C 10.308594 69.453125 10.296875 69.503906 10.285156 69.539062 Z M 9.898438 71.101562 "/>
<path style=" stroke:none;fill-rule:nonzero;fill:rgb(0%,0%,0%);fill-opacity:1;" d="M 13.949219 70.054688 C 13.949219 69.441406 13.859375 68.476562 13.421875 67.566406 C 12.949219 66.589844 12.261719 66.066406 12.183594 66.066406 C 12.136719 66.066406 12.097656 66.101562 12.097656 66.152344 C 12.097656 66.179688 12.097656 66.191406 12.246094 66.339844 C 13.035156 67.128906 13.484375 68.390625 13.484375 70.054688 C 13.484375 71.429688 13.199219 72.828125 12.210938 73.828125 C 12.097656 73.929688 12.097656 73.941406 12.097656 73.964844 C 12.097656 74.015625 12.136719 74.054688 12.183594 74.054688 C 12.261719 74.054688 12.984375 73.503906 13.449219 72.492188 C 13.859375 71.617188 13.949219 70.726562 13.949219 70.054688 Z M 13.949219 70.054688 "/>
<path style=" stroke:none;fill-rule:nonzero;fill:rgb(0%,0%,0%);fill-opacity:1;" d="M 3.492188 22.714844 L 4.179688 22.714844 C 4.34375 22.714844 4.417969 22.714844 4.417969 22.550781 C 4.417969 22.464844 4.34375 22.464844 4.203125 22.464844 L 3.542969 22.464844 L 3.703125 21.550781 C 3.742188 21.386719 3.855469 20.824219 3.90625 20.726562 C 3.96875 20.574219 4.105469 20.449219 4.28125 20.449219 C 4.304688 20.449219 4.515625 20.449219 4.667969 20.601562 C 4.316406 20.625 4.230469 20.914062 4.230469 21.027344 C 4.230469 21.214844 4.378906 21.3125 4.53125 21.3125 C 4.742188 21.3125 4.96875 21.125 4.96875 20.824219 C 4.96875 20.464844 4.605469 20.277344 4.28125 20.277344 C 4.003906 20.277344 3.503906 20.425781 3.265625 21.214844 C 3.21875 21.375 3.191406 21.464844 3.003906 22.464844 L 2.453125 22.464844 C 2.292969 22.464844 2.203125 22.464844 2.203125 22.613281 C 2.203125 22.714844 2.28125 22.714844 2.429688 22.714844 L 2.953125 22.714844 L 2.367188 25.863281 C 2.21875 26.636719 2.078125 27.363281 1.667969 27.363281 C 1.628906 27.363281 1.441406 27.363281 1.28125 27.214844 C 1.65625 27.1875 1.730469 26.902344 1.730469 26.789062 C 1.730469 26.601562 1.578125 26.5 1.429688 26.5 C 1.21875 26.5 0.992188 26.6875 0.992188 26.988281 C 0.992188 27.339844 1.34375 27.539062 1.667969 27.539062 C 2.105469 27.539062 2.429688 27.0625 2.566406 26.761719 C 2.828125 26.261719 3.003906 25.300781 3.015625 25.238281 Z M 3.492188 22.714844 "/>
<path style=" stroke:none;fill-rule:nonzero;fill:rgb(0%,0%,0%);fill-opacity:1;" d="M 7.964844 27.8125 C 7.964844 27.789062 7.964844 27.777344 7.828125 27.636719 C 6.839844 26.636719 6.578125 25.125 6.578125 23.902344 C 6.578125 22.511719 6.878906 21.125 7.863281 20.136719 C 7.964844 20.039062 7.964844 20.027344 7.964844 20 C 7.964844 19.9375 7.941406 19.914062 7.890625 19.914062 C 7.800781 19.914062 7.089844 20.464844 6.613281 21.476562 C 6.214844 22.351562 6.113281 23.238281 6.113281 23.902344 C 6.113281 24.527344 6.203125 25.488281 6.640625 26.402344 C 7.128906 27.375 7.800781 27.902344 7.890625 27.902344 C 7.941406 27.902344 7.964844 27.875 7.964844 27.8125 Z M 7.964844 27.8125 "/>
<path style=" stroke:none;fill-rule:nonzero;fill:rgb(0%,0%,0%);fill-opacity:1;" d="M 10.328125 20.449219 C 10.328125 20.449219 10.328125 20.363281 10.226562 20.363281 C 10.050781 20.363281 9.464844 20.425781 9.25 20.449219 C 9.1875 20.449219 9.101562 20.464844 9.101562 20.601562 C 9.101562 20.699219 9.175781 20.699219 9.300781 20.699219 C 9.675781 20.699219 9.6875 20.75 9.6875 20.839844 C 9.6875 20.886719 9.625 21.164062 9.589844 21.324219 L 8.925781 23.925781 C 8.839844 24.324219 8.800781 24.464844 8.800781 24.738281 C 8.800781 25.488281 9.226562 25.988281 9.8125 25.988281 C 10.75 25.988281 11.738281 24.800781 11.738281 23.652344 C 11.738281 22.925781 11.3125 22.375 10.675781 22.375 C 10.3125 22.375 9.976562 22.613281 9.738281 22.851562 Z M 9.589844 23.464844 C 9.625 23.289062 9.625 23.277344 9.703125 23.1875 C 10.089844 22.675781 10.453125 22.550781 10.664062 22.550781 C 10.953125 22.550781 11.164062 22.789062 11.164062 23.300781 C 11.164062 23.777344 10.902344 24.6875 10.75 24.988281 C 10.488281 25.527344 10.125 25.8125 9.8125 25.8125 C 9.539062 25.8125 9.277344 25.601562 9.277344 25.011719 C 9.277344 24.851562 9.277344 24.699219 9.402344 24.199219 Z M 9.589844 23.464844 "/>
<path style=" stroke:none;fill-rule:nonzero;fill:rgb(0%,0%,0%);fill-opacity:1;" d="M 14.148438 23.902344 C 14.148438 23.289062 14.058594 22.324219 13.621094 21.414062 C 13.148438 20.4375 12.460938 19.914062 12.386719 19.914062 C 12.335938 19.914062 12.296875 19.949219 12.296875 20 C 12.296875 20.027344 12.296875 20.039062 12.449219 20.1875 C 13.234375 20.976562 13.683594 22.238281 13.683594 23.902344 C 13.683594 25.277344 13.398438 26.675781 12.410156 27.675781 C 12.296875 27.777344 12.296875 27.789062 12.296875 27.8125 C 12.296875 27.863281 12.335938 27.902344 12.386719 27.902344 C 12.460938 27.902344 13.183594 27.351562 13.648438 26.339844 C 14.058594 25.464844 14.148438 24.574219 14.148438 23.902344 Z M 14.148438 23.902344 "/>
<path style="fill:none;stroke-width:0.8;stroke-linecap:butt;stroke-linejoin:miter;stroke:rgb(0%,0%,100%);stroke-opacity:1;stroke-dasharray:0.8,1.6;stroke-miterlimit:4;" d="M 261.777344 48.277344 L 261.625 72.066406 "/>
<g clip-path="url(#clip2)" clip-rule="nonzero">
<path style="fill:none;stroke-width:0.8;stroke-linecap:butt;stroke-linejoin:miter;stroke:rgb(100%,0%,0%);stroke-opacity:1;stroke-miterlimit:4;" d="M 189.625 0.0664062 L 189.625 96.066406 "/>
</g>
<path style="fill:none;stroke-width:0.8;stroke-linecap:butt;stroke-linejoin:miter;stroke:rgb(100%,0%,0%);stroke-opacity:1;stroke-miterlimit:4;" d="M 184.273438 48.136719 L 333.625 48.066406 "/>
<path style="fill:none;stroke-width:0.8;stroke-linecap:butt;stroke-linejoin:miter;stroke:rgb(0%,0%,100%);stroke-opacity:1;stroke-dasharray:0.8,1.6;stroke-miterlimit:4;" d="M 304.902344 14.359375 L 304.902344 47.960938 "/>
<path style="fill:none;stroke-width:0.8;stroke-linecap:butt;stroke-linejoin:miter;stroke:rgb(0%,0%,100%);stroke-opacity:1;stroke-dasharray:0.8,1.6;stroke-miterlimit:4;" d="M 218.578125 48.277344 L 218.503906 57.558594 "/>
<path style="fill:none;stroke-width:1.6;stroke-linecap:butt;stroke-linejoin:miter;stroke:rgb(0%,0%,0%);stroke-opacity:1;stroke-miterlimit:4;" d="M 197.046875 86.394531 C 197.046875 86.394531 208.398438 60.941406 221.046875 57.597656 C 233.695312 54.25 242.53125 78.945312 259.449219 71.996094 C 276.367188 65.046875 268.726562 13.753906 288.246094 9.597656 C 307.769531 5.441406 326.648438 43.195312 326.648438 43.195312 "/>
<path style=" stroke:none;fill-rule:nonzero;fill:rgb(0%,0%,0%);fill-opacity:1;" d="M 219.34375 41.378906 C 219.195312 41.078125 218.96875 40.867188 218.609375 40.867188 C 217.683594 40.867188 216.695312 42.042969 216.695312 43.203125 C 216.695312 43.953125 217.132812 44.480469 217.746094 44.480469 C 217.90625 44.480469 218.308594 44.441406 218.78125 43.878906 C 218.84375 44.21875 219.132812 44.480469 219.507812 44.480469 C 219.796875 44.480469 219.96875 44.292969 220.109375 44.042969 C 220.234375 43.753906 220.34375 43.265625 220.34375 43.253906 C 220.34375 43.167969 220.269531 43.167969 220.246094 43.167969 C 220.171875 43.167969 220.15625 43.203125 220.132812 43.316406 C 219.996094 43.828125 219.859375 44.304688 219.53125 44.304688 C 219.308594 44.304688 219.296875 44.09375 219.296875 43.941406 C 219.296875 43.765625 219.308594 43.691406 219.394531 43.34375 C 219.484375 43.015625 219.496094 42.929688 219.570312 42.628906 L 219.859375 41.515625 C 219.90625 41.292969 219.90625 41.28125 219.90625 41.242188 C 219.90625 41.105469 219.820312 41.03125 219.683594 41.03125 C 219.484375 41.03125 219.371094 41.203125 219.34375 41.378906 Z M 218.832031 43.441406 C 218.78125 43.59375 218.78125 43.605469 218.671875 43.742188 C 218.320312 44.179688 217.996094 44.304688 217.769531 44.304688 C 217.371094 44.304688 217.257812 43.867188 217.257812 43.554688 C 217.257812 43.15625 217.507812 42.179688 217.695312 41.804688 C 217.945312 41.34375 218.296875 41.042969 218.621094 41.042969 C 219.132812 41.042969 219.246094 41.691406 219.246094 41.742188 C 219.246094 41.792969 219.234375 41.84375 219.21875 41.878906 Z M 218.832031 43.441406 "/>
<path style=" stroke:none;fill-rule:nonzero;fill:rgb(0%,0%,0%);fill-opacity:1;" d="M 304.851562 51.980469 C 304.851562 51.980469 304.851562 51.890625 304.753906 51.890625 C 304.578125 51.890625 303.992188 51.953125 303.777344 51.980469 C 303.714844 51.980469 303.628906 51.992188 303.628906 52.128906 C 303.628906 52.230469 303.703125 52.230469 303.828125 52.230469 C 304.203125 52.230469 304.214844 52.277344 304.214844 52.367188 C 304.214844 52.417969 304.152344 52.691406 304.117188 52.855469 L 303.453125 55.453125 C 303.367188 55.855469 303.328125 55.992188 303.328125 56.265625 C 303.328125 57.015625 303.753906 57.515625 304.339844 57.515625 C 305.277344 57.515625 306.265625 56.328125 306.265625 55.179688 C 306.265625 54.453125 305.839844 53.902344 305.203125 53.902344 C 304.839844 53.902344 304.503906 54.140625 304.265625 54.378906 Z M 304.117188 54.992188 C 304.152344 54.816406 304.152344 54.804688 304.226562 54.714844 C 304.617188 54.203125 304.976562 54.078125 305.191406 54.078125 C 305.476562 54.078125 305.691406 54.316406 305.691406 54.828125 C 305.691406 55.304688 305.429688 56.214844 305.277344 56.515625 C 305.015625 57.054688 304.652344 57.339844 304.339844 57.339844 C 304.066406 57.339844 303.804688 57.128906 303.804688 56.542969 C 303.804688 56.378906 303.804688 56.230469 303.929688 55.730469 Z M 304.117188 54.992188 "/>
<path style=" stroke:none;fill-rule:nonzero;fill:rgb(0%,0%,0%);fill-opacity:1;" d="M 175.375 68.761719 L 176.0625 68.761719 C 176.226562 68.761719 176.300781 68.761719 176.300781 68.597656 C 176.300781 68.511719 176.226562 68.511719 176.089844 68.511719 L 175.425781 68.511719 L 175.589844 67.597656 C 175.625 67.4375 175.738281 66.875 175.789062 66.773438 C 175.851562 66.625 175.988281 66.5 176.164062 66.5 C 176.1875 66.5 176.402344 66.5 176.550781 66.648438 C 176.199219 66.671875 176.113281 66.960938 176.113281 67.074219 C 176.113281 67.261719 176.261719 67.359375 176.414062 67.359375 C 176.625 67.359375 176.851562 67.171875 176.851562 66.875 C 176.851562 66.511719 176.488281 66.324219 176.164062 66.324219 C 175.886719 66.324219 175.386719 66.472656 175.152344 67.261719 C 175.101562 67.421875 175.074219 67.511719 174.886719 68.511719 L 174.339844 68.511719 C 174.175781 68.511719 174.089844 68.511719 174.089844 68.660156 C 174.089844 68.761719 174.164062 68.761719 174.3125 68.761719 L 174.839844 68.761719 L 174.25 71.910156 C 174.101562 72.6875 173.964844 73.410156 173.550781 73.410156 C 173.511719 73.410156 173.324219 73.410156 173.164062 73.261719 C 173.539062 73.234375 173.613281 72.949219 173.613281 72.835938 C 173.613281 72.648438 173.464844 72.546875 173.3125 72.546875 C 173.101562 72.546875 172.875 72.734375 172.875 73.035156 C 172.875 73.386719 173.226562 73.585938 173.550781 73.585938 C 173.988281 73.585938 174.3125 73.109375 174.449219 72.8125 C 174.714844 72.3125 174.886719 71.347656 174.902344 71.285156 Z M 175.375 68.761719 "/>
<path style=" stroke:none;fill-rule:nonzero;fill:rgb(0%,0%,0%);fill-opacity:1;" d="M 179.847656 73.859375 C 179.847656 73.835938 179.847656 73.824219 179.710938 73.6875 C 178.722656 72.6875 178.460938 71.171875 178.460938 69.949219 C 178.460938 68.5625 178.761719 67.171875 179.75 66.1875 C 179.847656 66.085938 179.847656 66.074219 179.847656 66.046875 C 179.847656 65.984375 179.824219 65.960938 179.773438 65.960938 C 179.6875 65.960938 178.972656 66.511719 178.5 67.523438 C 178.097656 68.398438 178 69.285156 178 69.949219 C 178 70.574219 178.085938 71.535156 178.523438 72.449219 C 179.011719 73.421875 179.6875 73.949219 179.773438 73.949219 C 179.824219 73.949219 179.847656 73.921875 179.847656 73.859375 Z M 179.847656 73.859375 "/>
<path style=" stroke:none;fill-rule:nonzero;fill:rgb(0%,0%,0%);fill-opacity:1;" d="M 183.285156 68.9375 C 183.136719 68.636719 182.910156 68.421875 182.546875 68.421875 C 181.621094 68.421875 180.636719 69.597656 180.636719 70.761719 C 180.636719 71.511719 181.074219 72.035156 181.683594 72.035156 C 181.847656 72.035156 182.246094 72 182.722656 71.4375 C 182.785156 71.773438 183.074219 72.035156 183.449219 72.035156 C 183.734375 72.035156 183.910156 71.847656 184.046875 71.597656 C 184.171875 71.3125 184.285156 70.824219 184.285156 70.8125 C 184.285156 70.722656 184.210938 70.722656 184.183594 70.722656 C 184.109375 70.722656 184.097656 70.761719 184.074219 70.875 C 183.933594 71.386719 183.796875 71.859375 183.472656 71.859375 C 183.246094 71.859375 183.234375 71.648438 183.234375 71.5 C 183.234375 71.324219 183.246094 71.25 183.335938 70.898438 C 183.421875 70.574219 183.433594 70.484375 183.511719 70.1875 L 183.796875 69.074219 C 183.847656 68.847656 183.847656 68.835938 183.847656 68.796875 C 183.847656 68.660156 183.761719 68.585938 183.621094 68.585938 C 183.421875 68.585938 183.308594 68.761719 183.285156 68.9375 Z M 182.773438 71 C 182.722656 71.148438 182.722656 71.160156 182.609375 71.296875 C 182.261719 71.734375 181.933594 71.859375 181.710938 71.859375 C 181.308594 71.859375 181.199219 71.421875 181.199219 71.109375 C 181.199219 70.710938 181.449219 69.734375 181.636719 69.359375 C 181.886719 68.898438 182.234375 68.597656 182.558594 68.597656 C 183.074219 68.597656 183.183594 69.25 183.183594 69.296875 C 183.183594 69.347656 183.171875 69.398438 183.160156 69.4375 Z M 182.773438 71 "/>
<path style=" stroke:none;fill-rule:nonzero;fill:rgb(0%,0%,0%);fill-opacity:1;" d="M 186.824219 69.949219 C 186.824219 69.335938 186.734375 68.375 186.296875 67.460938 C 185.824219 66.484375 185.136719 65.960938 185.0625 65.960938 C 185.011719 65.960938 184.972656 66 184.972656 66.046875 C 184.972656 66.074219 184.972656 66.085938 185.125 66.234375 C 185.910156 67.023438 186.359375 68.285156 186.359375 69.949219 C 186.359375 71.324219 186.074219 72.722656 185.085938 73.722656 C 184.972656 73.824219 184.972656 73.835938 184.972656 73.859375 C 184.972656 73.910156 185.011719 73.949219 185.0625 73.949219 C 185.136719 73.949219 185.859375 73.398438 186.324219 72.386719 C 186.734375 71.511719 186.824219 70.625 186.824219 69.949219 Z M 186.824219 69.949219 "/>
<path style=" stroke:none;fill-rule:nonzero;fill:rgb(0%,0%,0%);fill-opacity:1;" d="M 176.367188 22.609375 L 177.054688 22.609375 C 177.21875 22.609375 177.292969 22.609375 177.292969 22.445312 C 177.292969 22.359375 177.21875 22.359375 177.082031 22.359375 L 176.417969 22.359375 L 176.582031 21.445312 C 176.617188 21.285156 176.730469 20.722656 176.78125 20.621094 C 176.84375 20.472656 176.980469 20.347656 177.15625 20.347656 C 177.179688 20.347656 177.394531 20.347656 177.542969 20.496094 C 177.191406 20.519531 177.105469 20.808594 177.105469 20.921875 C 177.105469 21.109375 177.253906 21.207031 177.40625 21.207031 C 177.617188 21.207031 177.84375 21.019531 177.84375 20.722656 C 177.84375 20.359375 177.480469 20.171875 177.15625 20.171875 C 176.878906 20.171875 176.378906 20.320312 176.144531 21.109375 C 176.09375 21.269531 176.066406 21.359375 175.878906 22.359375 L 175.332031 22.359375 C 175.167969 22.359375 175.082031 22.359375 175.082031 22.507812 C 175.082031 22.609375 175.15625 22.609375 175.304688 22.609375 L 175.832031 22.609375 L 175.242188 25.757812 C 175.09375 26.535156 174.957031 27.257812 174.542969 27.257812 C 174.503906 27.257812 174.316406 27.257812 174.15625 27.109375 C 174.53125 27.082031 174.605469 26.796875 174.605469 26.683594 C 174.605469 26.496094 174.457031 26.394531 174.304688 26.394531 C 174.09375 26.394531 173.867188 26.582031 173.867188 26.882812 C 173.867188 27.234375 174.21875 27.433594 174.542969 27.433594 C 174.980469 27.433594 175.304688 26.957031 175.441406 26.660156 C 175.707031 26.160156 175.878906 25.195312 175.894531 25.132812 Z M 176.367188 22.609375 "/>
<path style=" stroke:none;fill-rule:nonzero;fill:rgb(0%,0%,0%);fill-opacity:1;" d="M 180.839844 27.707031 C 180.839844 27.683594 180.839844 27.671875 180.703125 27.535156 C 179.714844 26.535156 179.453125 25.019531 179.453125 23.796875 C 179.453125 22.410156 179.753906 21.019531 180.742188 20.035156 C 180.839844 19.933594 180.839844 19.921875 180.839844 19.894531 C 180.839844 19.832031 180.816406 19.808594 180.765625 19.808594 C 180.679688 19.808594 179.964844 20.359375 179.492188 21.371094 C 179.089844 22.246094 178.992188 23.132812 178.992188 23.796875 C 178.992188 24.421875 179.078125 25.382812 179.515625 26.296875 C 180.003906 27.269531 180.679688 27.796875 180.765625 27.796875 C 180.816406 27.796875 180.839844 27.769531 180.839844 27.707031 Z M 180.839844 27.707031 "/>
<path style=" stroke:none;fill-rule:nonzero;fill:rgb(0%,0%,0%);fill-opacity:1;" d="M 183.203125 20.347656 C 183.203125 20.347656 183.203125 20.257812 183.101562 20.257812 C 182.925781 20.257812 182.339844 20.320312 182.128906 20.347656 C 182.066406 20.347656 181.976562 20.359375 181.976562 20.496094 C 181.976562 20.597656 182.050781 20.597656 182.175781 20.597656 C 182.550781 20.597656 182.566406 20.644531 182.566406 20.734375 C 182.566406 20.785156 182.503906 21.058594 182.464844 21.222656 L 181.800781 23.820312 C 181.714844 24.222656 181.675781 24.359375 181.675781 24.632812 C 181.675781 25.382812 182.101562 25.882812 182.691406 25.882812 C 183.628906 25.882812 184.613281 24.695312 184.613281 23.546875 C 184.613281 22.820312 184.191406 22.269531 183.550781 22.269531 C 183.191406 22.269531 182.851562 22.507812 182.613281 22.746094 Z M 182.464844 23.359375 C 182.503906 23.183594 182.503906 23.171875 182.578125 23.082031 C 182.964844 22.570312 183.328125 22.445312 183.539062 22.445312 C 183.828125 22.445312 184.039062 22.683594 184.039062 23.195312 C 184.039062 23.671875 183.777344 24.582031 183.628906 24.882812 C 183.363281 25.421875 183.003906 25.707031 182.691406 25.707031 C 182.414062 25.707031 182.152344 25.496094 182.152344 24.910156 C 182.152344 24.746094 182.152344 24.597656 182.277344 24.097656 Z M 182.464844 23.359375 "/>
<path style=" stroke:none;fill-rule:nonzero;fill:rgb(0%,0%,0%);fill-opacity:1;" d="M 187.023438 23.796875 C 187.023438 23.183594 186.9375 22.222656 186.5 21.308594 C 186.023438 20.332031 185.335938 19.808594 185.261719 19.808594 C 185.210938 19.808594 185.171875 19.847656 185.171875 19.894531 C 185.171875 19.921875 185.171875 19.933594 185.324219 20.082031 C 186.109375 20.871094 186.5625 22.132812 186.5625 23.796875 C 186.5625 25.171875 186.273438 26.570312 185.285156 27.570312 C 185.171875 27.671875 185.171875 27.683594 185.171875 27.707031 C 185.171875 27.757812 185.210938 27.796875 185.261719 27.796875 C 185.335938 27.796875 186.0625 27.246094 186.523438 26.234375 C 186.9375 25.359375 187.023438 24.472656 187.023438 23.796875 Z M 187.023438 23.796875 "/>
<path style=" stroke:none;fill-rule:nonzero;fill:rgb(0%,0%,0%);fill-opacity:1;" d="M 262.546875 41.378906 C 262.394531 41.078125 262.171875 40.867188 261.808594 40.867188 C 260.882812 40.867188 259.894531 42.042969 259.894531 43.203125 C 259.894531 43.953125 260.332031 44.480469 260.945312 44.480469 C 261.109375 44.480469 261.507812 44.441406 261.984375 43.878906 C 262.046875 44.21875 262.332031 44.480469 262.707031 44.480469 C 262.996094 44.480469 263.171875 44.292969 263.308594 44.042969 C 263.433594 43.753906 263.546875 43.265625 263.546875 43.253906 C 263.546875 43.167969 263.46875 43.167969 263.445312 43.167969 C 263.371094 43.167969 263.359375 43.203125 263.332031 43.316406 C 263.195312 43.828125 263.058594 44.304688 262.734375 44.304688 C 262.507812 44.304688 262.496094 44.09375 262.496094 43.941406 C 262.496094 43.765625 262.507812 43.691406 262.59375 43.34375 C 262.683594 43.015625 262.695312 42.929688 262.769531 42.628906 L 263.058594 41.515625 C 263.109375 41.292969 263.109375 41.28125 263.109375 41.242188 C 263.109375 41.105469 263.019531 41.03125 262.882812 41.03125 C 262.683594 41.03125 262.570312 41.203125 262.546875 41.378906 Z M 262.03125 43.441406 C 261.984375 43.59375 261.984375 43.605469 261.871094 43.742188 C 261.519531 44.179688 261.195312 44.304688 260.96875 44.304688 C 260.570312 44.304688 260.457031 43.867188 260.457031 43.554688 C 260.457031 43.15625 260.707031 42.179688 260.894531 41.804688 C 261.144531 41.34375 261.496094 41.042969 261.820312 41.042969 C 262.332031 41.042969 262.445312 41.691406 262.445312 41.742188 C 262.445312 41.792969 262.433594 41.84375 262.421875 41.878906 Z M 262.03125 43.441406 "/>
<path style=" stroke:none;fill-rule:nonzero;fill:rgb(0%,0%,0%);fill-opacity:1;" d="M 265.394531 38.863281 C 265.445312 38.773438 265.445312 38.722656 265.445312 38.6875 C 265.445312 38.511719 265.296875 38.386719 265.121094 38.386719 C 264.90625 38.386719 264.84375 38.5625 264.820312 38.648438 L 264.082031 41.0625 C 264.070312 41.074219 264.046875 41.136719 264.046875 41.148438 C 264.046875 41.210938 264.21875 41.273438 264.269531 41.273438 C 264.308594 41.273438 264.308594 41.261719 264.34375 41.175781 Z M 265.394531 38.863281 "/>
<path style="fill:none;stroke-width:0.8;stroke-linecap:butt;stroke-linejoin:miter;stroke:rgb(0%,0%,100%);stroke-opacity:1;stroke-dasharray:0.8,1.6;stroke-miterlimit:4;" d="M 434.613281 48.214844 L 434.464844 72.003906 "/>
<g clip-path="url(#clip3)" clip-rule="nonzero">
<path style="fill:none;stroke-width:0.8;stroke-linecap:butt;stroke-linejoin:miter;stroke:rgb(100%,0%,0%);stroke-opacity:1;stroke-miterlimit:4;" d="M 362.464844 0.00390625 L 362.464844 96.003906 "/>
</g>
<g clip-path="url(#clip4)" clip-rule="nonzero">
<path style="fill:none;stroke-width:0.8;stroke-linecap:butt;stroke-linejoin:miter;stroke:rgb(100%,0%,0%);stroke-opacity:1;stroke-miterlimit:4;" d="M 357.109375 48.074219 L 506.464844 48.003906 "/>
</g>
<path style="fill:none;stroke-width:0.8;stroke-linecap:butt;stroke-linejoin:miter;stroke:rgb(0%,0%,100%);stroke-opacity:1;stroke-dasharray:0.8,1.6;stroke-miterlimit:4;" d="M 477.738281 14.296875 L 477.738281 47.898438 "/>
<path style="fill:none;stroke-width:0.8;stroke-linecap:butt;stroke-linejoin:miter;stroke:rgb(0%,0%,100%);stroke-opacity:1;stroke-dasharray:0.8,1.6;stroke-miterlimit:4;" d="M 391.414062 48.214844 L 391.339844 57.5 "/>
<g clip-path="url(#clip5)" clip-rule="nonzero">
<path style="fill:none;stroke-width:1.6;stroke-linecap:butt;stroke-linejoin:miter;stroke:rgb(0%,0%,0%);stroke-opacity:1;stroke-miterlimit:4;" d="M 369.886719 86.332031 C 369.886719 86.332031 381.238281 60.878906 393.886719 57.535156 C 406.53125 54.1875 415.367188 78.882812 432.285156 71.933594 C 449.203125 64.984375 441.5625 13.691406 461.085938 9.535156 C 480.605469 5.378906 499.484375 43.132812 499.484375 43.132812 "/>
</g>
<path style=" stroke:none;fill-rule:nonzero;fill:rgb(0%,0%,0%);fill-opacity:1;" d="M 392.183594 41.316406 C 392.03125 41.019531 391.808594 40.804688 391.445312 40.804688 C 390.519531 40.804688 389.53125 41.980469 389.53125 43.144531 C 389.53125 43.894531 389.96875 44.417969 390.582031 44.417969 C 390.746094 44.417969 391.144531 44.378906 391.621094 43.816406 C 391.683594 44.15625 391.96875 44.417969 392.34375 44.417969 C 392.632812 44.417969 392.808594 44.230469 392.945312 43.980469 C 393.070312 43.691406 393.183594 43.207031 393.183594 43.191406 C 393.183594 43.105469 393.105469 43.105469 393.082031 43.105469 C 393.007812 43.105469 392.996094 43.144531 392.96875 43.253906 C 392.832031 43.769531 392.695312 44.242188 392.371094 44.242188 C 392.144531 44.242188 392.132812 44.03125 392.132812 43.878906 C 392.132812 43.707031 392.144531 43.628906 392.230469 43.28125 C 392.320312 42.957031 392.332031 42.867188 392.40625 42.566406 L 392.695312 41.457031 C 392.746094 41.230469 392.746094 41.21875 392.746094 41.179688 C 392.746094 41.042969 392.65625 40.96875 392.519531 40.96875 C 392.320312 40.96875 392.207031 41.144531 392.183594 41.316406 Z M 391.667969 43.378906 C 391.621094 43.53125 391.621094 43.542969 391.507812 43.679688 C 391.15625 44.117188 390.832031 44.242188 390.605469 44.242188 C 390.207031 44.242188 390.09375 43.804688 390.09375 43.492188 C 390.09375 43.09375 390.34375 42.117188 390.53125 41.742188 C 390.78125 41.28125 391.132812 40.980469 391.457031 40.980469 C 391.96875 40.980469 392.082031 41.628906 392.082031 41.679688 C 392.082031 41.730469 392.070312 41.78125 392.058594 41.816406 Z M 391.667969 43.378906 "/>
<path style=" stroke:none;fill-rule:nonzero;fill:rgb(0%,0%,0%);fill-opacity:1;" d="M 477.691406 51.917969 C 477.691406 51.917969 477.691406 51.828125 477.589844 51.828125 C 477.414062 51.828125 476.828125 51.890625 476.613281 51.917969 C 476.550781 51.917969 476.464844 51.929688 476.464844 52.066406 C 476.464844 52.167969 476.539062 52.167969 476.664062 52.167969 C 477.039062 52.167969 477.050781 52.214844 477.050781 52.304688 C 477.050781 52.355469 476.988281 52.628906 476.953125 52.792969 L 476.289062 55.390625 C 476.203125 55.792969 476.164062 55.929688 476.164062 56.203125 C 476.164062 56.953125 476.589844 57.453125 477.175781 57.453125 C 478.113281 57.453125 479.101562 56.265625 479.101562 55.117188 C 479.101562 54.390625 478.675781 53.839844 478.039062 53.839844 C 477.675781 53.839844 477.339844 54.078125 477.101562 54.316406 Z M 476.953125 54.929688 C 476.988281 54.753906 476.988281 54.742188 477.066406 54.652344 C 477.453125 54.140625 477.816406 54.015625 478.027344 54.015625 C 478.316406 54.015625 478.527344 54.253906 478.527344 54.765625 C 478.527344 55.242188 478.265625 56.152344 478.113281 56.453125 C 477.851562 56.992188 477.488281 57.277344 477.175781 57.277344 C 476.902344 57.277344 476.640625 57.066406 476.640625 56.480469 C 476.640625 56.316406 476.640625 56.167969 476.765625 55.667969 Z M 476.953125 54.929688 "/>
<path style=" stroke:none;fill-rule:nonzero;fill:rgb(0%,0%,0%);fill-opacity:1;" d="M 348.210938 68.699219 L 348.898438 68.699219 C 349.0625 68.699219 349.136719 68.699219 349.136719 68.535156 C 349.136719 68.449219 349.0625 68.449219 348.925781 68.449219 L 348.261719 68.449219 L 348.425781 67.535156 C 348.460938 67.375 348.574219 66.8125 348.625 66.710938 C 348.6875 66.5625 348.824219 66.4375 349 66.4375 C 349.023438 66.4375 349.238281 66.4375 349.386719 66.585938 C 349.039062 66.613281 348.949219 66.898438 348.949219 67.011719 C 348.949219 67.199219 349.101562 67.300781 349.25 67.300781 C 349.460938 67.300781 349.6875 67.113281 349.6875 66.8125 C 349.6875 66.449219 349.324219 66.261719 349 66.261719 C 348.726562 66.261719 348.226562 66.410156 347.988281 67.199219 C 347.9375 67.363281 347.914062 67.449219 347.726562 68.449219 L 347.175781 68.449219 C 347.011719 68.449219 346.925781 68.449219 346.925781 68.597656 C 346.925781 68.699219 347 68.699219 347.148438 68.699219 L 347.675781 68.699219 L 347.085938 71.847656 C 346.9375 72.625 346.800781 73.347656 346.386719 73.347656 C 346.351562 73.347656 346.164062 73.347656 346 73.199219 C 346.375 73.175781 346.449219 72.886719 346.449219 72.773438 C 346.449219 72.585938 346.300781 72.488281 346.148438 72.488281 C 345.9375 72.488281 345.710938 72.675781 345.710938 72.972656 C 345.710938 73.324219 346.0625 73.523438 346.386719 73.523438 C 346.824219 73.523438 347.148438 73.050781 347.289062 72.75 C 347.550781 72.25 347.726562 71.285156 347.738281 71.222656 Z M 348.210938 68.699219 "/>
<path style=" stroke:none;fill-rule:nonzero;fill:rgb(0%,0%,0%);fill-opacity:1;" d="M 352.683594 73.800781 C 352.683594 73.773438 352.683594 73.761719 352.546875 73.625 C 351.558594 72.625 351.296875 71.113281 351.296875 69.886719 C 351.296875 68.5 351.597656 67.113281 352.585938 66.125 C 352.683594 66.023438 352.683594 66.011719 352.683594 65.988281 C 352.683594 65.925781 352.660156 65.898438 352.609375 65.898438 C 352.523438 65.898438 351.808594 66.449219 351.335938 67.460938 C 350.933594 68.335938 350.835938 69.222656 350.835938 69.886719 C 350.835938 70.511719 350.921875 71.472656 351.359375 72.386719 C 351.847656 73.363281 352.523438 73.886719 352.609375 73.886719 C 352.660156 73.886719 352.683594 73.863281 352.683594 73.800781 Z M 352.683594 73.800781 "/>
<path style=" stroke:none;fill-rule:nonzero;fill:rgb(0%,0%,0%);fill-opacity:1;" d="M 356.121094 68.875 C 355.972656 68.574219 355.746094 68.363281 355.382812 68.363281 C 354.460938 68.363281 353.472656 69.535156 353.472656 70.699219 C 353.472656 71.449219 353.910156 71.972656 354.523438 71.972656 C 354.683594 71.972656 355.085938 71.9375 355.558594 71.375 C 355.621094 71.710938 355.910156 71.972656 356.285156 71.972656 C 356.570312 71.972656 356.746094 71.785156 356.882812 71.535156 C 357.007812 71.25 357.121094 70.761719 357.121094 70.75 C 357.121094 70.660156 357.046875 70.660156 357.023438 70.660156 C 356.945312 70.660156 356.933594 70.699219 356.910156 70.8125 C 356.773438 71.324219 356.632812 71.800781 356.308594 71.800781 C 356.085938 71.800781 356.070312 71.585938 356.070312 71.4375 C 356.070312 71.261719 356.085938 71.1875 356.171875 70.835938 C 356.257812 70.511719 356.273438 70.425781 356.347656 70.125 L 356.632812 69.011719 C 356.683594 68.785156 356.683594 68.773438 356.683594 68.738281 C 356.683594 68.597656 356.597656 68.523438 356.460938 68.523438 C 356.257812 68.523438 356.148438 68.699219 356.121094 68.875 Z M 355.609375 70.9375 C 355.558594 71.085938 355.558594 71.097656 355.445312 71.238281 C 355.097656 71.675781 354.773438 71.800781 354.546875 71.800781 C 354.148438 71.800781 354.035156 71.363281 354.035156 71.050781 C 354.035156 70.648438 354.285156 69.675781 354.472656 69.300781 C 354.722656 68.835938 355.070312 68.535156 355.398438 68.535156 C 355.910156 68.535156 356.023438 69.1875 356.023438 69.238281 C 356.023438 69.285156 356.007812 69.335938 355.996094 69.375 Z M 355.609375 70.9375 "/>
<path style=" stroke:none;fill-rule:nonzero;fill:rgb(0%,0%,0%);fill-opacity:1;" d="M 359.660156 69.886719 C 359.660156 69.273438 359.574219 68.3125 359.136719 67.398438 C 358.660156 66.425781 357.972656 65.898438 357.898438 65.898438 C 357.847656 65.898438 357.808594 65.9375 357.808594 65.988281 C 357.808594 66.011719 357.808594 66.023438 357.960938 66.175781 C 358.746094 66.960938 359.199219 68.222656 359.199219 69.886719 C 359.199219 71.261719 358.910156 72.660156 357.921875 73.660156 C 357.808594 73.761719 357.808594 73.773438 357.808594 73.800781 C 357.808594 73.847656 357.847656 73.886719 357.898438 73.886719 C 357.972656 73.886719 358.699219 73.335938 359.160156 72.324219 C 359.574219 71.449219 359.660156 70.5625 359.660156 69.886719 Z M 359.660156 69.886719 "/>
<path style=" stroke:none;fill-rule:nonzero;fill:rgb(0%,0%,0%);fill-opacity:1;" d="M 349.203125 22.546875 L 349.890625 22.546875 C 350.054688 22.546875 350.128906 22.546875 350.128906 22.382812 C 350.128906 22.296875 350.054688 22.296875 349.917969 22.296875 L 349.253906 22.296875 L 349.417969 21.382812 C 349.453125 21.222656 349.566406 20.660156 349.617188 20.558594 C 349.679688 20.410156 349.816406 20.285156 349.992188 20.285156 C 350.015625 20.285156 350.230469 20.285156 350.378906 20.433594 C 350.03125 20.460938 349.941406 20.746094 349.941406 20.859375 C 349.941406 21.046875 350.09375 21.148438 350.242188 21.148438 C 350.453125 21.148438 350.679688 20.960938 350.679688 20.660156 C 350.679688 20.296875 350.316406 20.109375 349.992188 20.109375 C 349.71875 20.109375 349.21875 20.257812 348.980469 21.046875 C 348.929688 21.210938 348.90625 21.296875 348.71875 22.296875 L 348.167969 22.296875 C 348.003906 22.296875 347.917969 22.296875 347.917969 22.445312 C 347.917969 22.546875 347.992188 22.546875 348.140625 22.546875 L 348.667969 22.546875 L 348.078125 25.695312 C 347.929688 26.472656 347.792969 27.195312 347.378906 27.195312 C 347.34375 27.195312 347.15625 27.195312 346.992188 27.046875 C 347.367188 27.023438 347.441406 26.734375 347.441406 26.621094 C 347.441406 26.433594 347.292969 26.335938 347.140625 26.335938 C 346.929688 26.335938 346.703125 26.523438 346.703125 26.820312 C 346.703125 27.171875 347.054688 27.371094 347.378906 27.371094 C 347.816406 27.371094 348.140625 26.898438 348.28125 26.597656 C 348.542969 26.097656 348.71875 25.132812 348.730469 25.070312 Z M 349.203125 22.546875 "/>
<path style=" stroke:none;fill-rule:nonzero;fill:rgb(0%,0%,0%);fill-opacity:1;" d="M 353.675781 27.648438 C 353.675781 27.621094 353.675781 27.609375 353.539062 27.472656 C 352.550781 26.472656 352.289062 24.960938 352.289062 23.734375 C 352.289062 22.347656 352.589844 20.960938 353.578125 19.972656 C 353.675781 19.871094 353.675781 19.859375 353.675781 19.835938 C 353.675781 19.773438 353.652344 19.746094 353.601562 19.746094 C 353.515625 19.746094 352.800781 20.296875 352.328125 21.308594 C 351.925781 22.183594 351.828125 23.070312 351.828125 23.734375 C 351.828125 24.359375 351.914062 25.320312 352.351562 26.234375 C 352.839844 27.210938 353.515625 27.734375 353.601562 27.734375 C 353.652344 27.734375 353.675781 27.710938 353.675781 27.648438 Z M 353.675781 27.648438 "/>
<path style=" stroke:none;fill-rule:nonzero;fill:rgb(0%,0%,0%);fill-opacity:1;" d="M 356.039062 20.285156 C 356.039062 20.285156 356.039062 20.195312 355.9375 20.195312 C 355.765625 20.195312 355.175781 20.257812 354.964844 20.285156 C 354.902344 20.285156 354.8125 20.296875 354.8125 20.433594 C 354.8125 20.535156 354.890625 20.535156 355.015625 20.535156 C 355.390625 20.535156 355.402344 20.585938 355.402344 20.671875 C 355.402344 20.722656 355.339844 20.996094 355.300781 21.160156 L 354.640625 23.757812 C 354.550781 24.160156 354.515625 24.296875 354.515625 24.570312 C 354.515625 25.320312 354.9375 25.820312 355.527344 25.820312 C 356.464844 25.820312 357.453125 24.632812 357.453125 23.484375 C 357.453125 22.757812 357.027344 22.210938 356.390625 22.210938 C 356.027344 22.210938 355.6875 22.445312 355.453125 22.683594 Z M 355.300781 23.296875 C 355.339844 23.121094 355.339844 23.109375 355.414062 23.023438 C 355.800781 22.507812 356.164062 22.382812 356.375 22.382812 C 356.664062 22.382812 356.875 22.621094 356.875 23.132812 C 356.875 23.609375 356.613281 24.523438 356.464844 24.820312 C 356.203125 25.359375 355.839844 25.648438 355.527344 25.648438 C 355.25 25.648438 354.988281 25.433594 354.988281 24.847656 C 354.988281 24.683594 354.988281 24.535156 355.113281 24.035156 Z M 355.300781 23.296875 "/>
<path style=" stroke:none;fill-rule:nonzero;fill:rgb(0%,0%,0%);fill-opacity:1;" d="M 359.859375 23.734375 C 359.859375 23.121094 359.773438 22.160156 359.335938 21.246094 C 358.859375 20.273438 358.171875 19.746094 358.097656 19.746094 C 358.046875 19.746094 358.011719 19.785156 358.011719 19.835938 C 358.011719 19.859375 358.011719 19.871094 358.160156 20.023438 C 358.949219 20.808594 359.398438 22.070312 359.398438 23.734375 C 359.398438 25.109375 359.109375 26.507812 358.121094 27.507812 C 358.011719 27.609375 358.011719 27.621094 358.011719 27.648438 C 358.011719 27.695312 358.046875 27.734375 358.097656 27.734375 C 358.171875 27.734375 358.898438 27.183594 359.359375 26.171875 C 359.773438 25.296875 359.859375 24.410156 359.859375 23.734375 Z M 359.859375 23.734375 "/>
<path style=" stroke:none;fill-rule:nonzero;fill:rgb(0%,0%,0%);fill-opacity:1;" d="M 435.382812 41.316406 C 435.230469 41.019531 435.007812 40.804688 434.644531 40.804688 C 433.71875 40.804688 432.730469 41.980469 432.730469 43.144531 C 432.730469 43.894531 433.167969 44.417969 433.78125 44.417969 C 433.945312 44.417969 434.34375 44.378906 434.820312 43.816406 C 434.882812 44.15625 435.167969 44.417969 435.542969 44.417969 C 435.832031 44.417969 436.007812 44.230469 436.144531 43.980469 C 436.269531 43.691406 436.382812 43.207031 436.382812 43.191406 C 436.382812 43.105469 436.308594 43.105469 436.28125 43.105469 C 436.207031 43.105469 436.195312 43.144531 436.167969 43.253906 C 436.03125 43.769531 435.894531 44.242188 435.570312 44.242188 C 435.34375 44.242188 435.332031 44.03125 435.332031 43.878906 C 435.332031 43.707031 435.34375 43.628906 435.433594 43.28125 C 435.519531 42.957031 435.53125 42.867188 435.605469 42.566406 L 435.894531 41.457031 C 435.945312 41.230469 435.945312 41.21875 435.945312 41.179688 C 435.945312 41.042969 435.855469 40.96875 435.71875 40.96875 C 435.519531 40.96875 435.40625 41.144531 435.382812 41.316406 Z M 434.871094 43.378906 C 434.820312 43.53125 434.820312 43.542969 434.707031 43.679688 C 434.355469 44.117188 434.03125 44.242188 433.808594 44.242188 C 433.40625 44.242188 433.292969 43.804688 433.292969 43.492188 C 433.292969 43.09375 433.542969 42.117188 433.730469 41.742188 C 433.980469 41.28125 434.332031 40.980469 434.65625 40.980469 C 435.167969 40.980469 435.28125 41.628906 435.28125 41.679688 C 435.28125 41.730469 435.269531 41.78125 435.257812 41.816406 Z M 434.871094 43.378906 "/>
<path style=" stroke:none;fill-rule:nonzero;fill:rgb(0%,0%,0%);fill-opacity:1;" d="M 438.230469 38.800781 C 438.28125 38.710938 438.28125 38.664062 438.28125 38.625 C 438.28125 38.449219 438.132812 38.324219 437.957031 38.324219 C 437.746094 38.324219 437.683594 38.5 437.65625 38.585938 L 436.917969 41 C 436.90625 41.011719 436.882812 41.074219 436.882812 41.085938 C 436.882812 41.148438 437.058594 41.210938 437.105469 41.210938 C 437.144531 41.210938 437.144531 41.199219 437.183594 41.113281 Z M 438.230469 38.800781 "/>
<path style="fill:none;stroke-width:0.8;stroke-linecap:butt;stroke-linejoin:miter;stroke:rgb(0%,0%,100%);stroke-opacity:1;stroke-dasharray:0.8,1.6;stroke-miterlimit:4;" d="M 456.011719 12.4375 L 456.011719 47.59375 "/>
<path style=" stroke:none;fill-rule:nonzero;fill:rgb(0%,0%,0%);fill-opacity:1;" d="M 455.511719 51.695312 C 455.511719 51.695312 455.511719 51.605469 455.414062 51.605469 C 455.238281 51.605469 454.648438 51.667969 454.4375 51.695312 C 454.375 51.695312 454.289062 51.707031 454.289062 51.84375 C 454.289062 51.945312 454.363281 51.945312 454.488281 51.945312 C 454.863281 51.945312 454.875 51.996094 454.875 52.082031 C 454.875 52.132812 454.8125 52.40625 454.773438 52.570312 L 454.113281 55.167969 C 454.023438 55.570312 453.988281 55.707031 453.988281 55.980469 C 453.988281 56.730469 454.414062 57.230469 455 57.230469 C 455.9375 57.230469 456.925781 56.042969 456.925781 54.894531 C 456.925781 54.167969 456.5 53.621094 455.863281 53.621094 C 455.5 53.621094 455.164062 53.855469 454.925781 54.09375 Z M 454.773438 54.707031 C 454.8125 54.53125 454.8125 54.519531 454.886719 54.433594 C 455.273438 53.917969 455.636719 53.792969 455.851562 53.792969 C 456.136719 53.792969 456.351562 54.03125 456.351562 54.542969 C 456.351562 55.019531 456.085938 55.933594 455.9375 56.230469 C 455.675781 56.769531 455.3125 57.058594 455 57.058594 C 454.726562 57.058594 454.460938 56.84375 454.460938 56.257812 C 454.460938 56.09375 454.460938 55.945312 454.585938 55.445312 Z M 454.773438 54.707031 "/>
<path style=" stroke:none;fill-rule:nonzero;fill:rgb(0%,0%,0%);fill-opacity:1;" d="M 458.644531 51.613281 C 458.695312 51.527344 458.695312 51.476562 458.695312 51.4375 C 458.695312 51.265625 458.546875 51.140625 458.371094 51.140625 C 458.15625 51.140625 458.09375 51.3125 458.070312 51.402344 L 457.332031 53.8125 C 457.320312 53.828125 457.296875 53.890625 457.296875 53.902344 C 457.296875 53.964844 457.46875 54.027344 457.519531 54.027344 C 457.558594 54.027344 457.558594 54.015625 457.59375 53.925781 Z M 458.644531 51.613281 "/>
</g>
</svg>
