<?xml version="1.0" encoding="UTF-8"?>
<svg xmlns="http://www.w3.org/2000/svg" xmlns:xlink="http://www.w3.org/1999/xlink" width="347.629913pt" height="223.347015pt" viewBox="0 0 347.629913 223.347015" version="1.1">
<defs>
<clipPath id="clip1">
  <path d="M 46 179 L 66 179 L 66 190 L 46 190 Z M 46 179 "/>
</clipPath>
<clipPath id="clip2">
  <path d="M 65.867188 184.226562 C 65.867188 186.875 61.566406 189.027344 56.265625 189.027344 C 50.964844 189.027344 46.664062 186.875 46.664062 184.226562 C 46.664062 181.574219 50.964844 179.425781 56.265625 179.425781 C 61.566406 179.425781 65.867188 181.574219 65.867188 184.226562 Z M 65.867188 184.226562 "/>
</clipPath>
<linearGradient id="linear0" gradientUnits="userSpaceOnUse" x1="117.000626" y1="935.361556" x2="98.998126" y2="953.364056" gradientTransform="matrix(0.8,0,0,0.8,-30.134212,-571.263956)">
<stop offset="0" style="stop-color:rgb(0%,0%,100%);stop-opacity:1;"/>
<stop offset="0.125" style="stop-color:rgb(0%,0%,100%);stop-opacity:1;"/>
<stop offset="0.15625" style="stop-color:rgb(0%,0%,100%);stop-opacity:1;"/>
<stop offset="0.164063" style="stop-color:rgb(0%,0%,100%);stop-opacity:1;"/>
<stop offset="0.167969" style="stop-color:rgb(0.389099%,0.389099%,100%);stop-opacity:1;"/>
<stop offset="0.171875" style="stop-color:rgb(0.778198%,0.778198%,100%);stop-opacity:1;"/>
<stop offset="0.175781" style="stop-color:rgb(1.364136%,1.364136%,100%);stop-opacity:1;"/>
<stop offset="0.179688" style="stop-color:rgb(1.951599%,1.951599%,100%);stop-opacity:1;"/>
<stop offset="0.183594" style="stop-color:rgb(2.537537%,2.537537%,100%);stop-opacity:1;"/>
<stop offset="0.1875" style="stop-color:rgb(3.123474%,3.123474%,100%);stop-opacity:1;"/>
<stop offset="0.191406" style="stop-color:rgb(3.709412%,3.709412%,100%);stop-opacity:1;"/>
<stop offset="0.195312" style="stop-color:rgb(4.295349%,4.295349%,100%);stop-opacity:1;"/>
<stop offset="0.199219" style="stop-color:rgb(4.881287%,4.881287%,100%);stop-opacity:1;"/>
<stop offset="0.203125" style="stop-color:rgb(5.467224%,5.467224%,100%);stop-opacity:1;"/>
<stop offset="0.207031" style="stop-color:rgb(6.053162%,6.053162%,100%);stop-opacity:1;"/>
<stop offset="0.210938" style="stop-color:rgb(6.639099%,6.639099%,100%);stop-opacity:1;"/>
<stop offset="0.214844" style="stop-color:rgb(7.225037%,7.225037%,100%);stop-opacity:1;"/>
<stop offset="0.21875" style="stop-color:rgb(7.810974%,7.810974%,100%);stop-opacity:1;"/>
<stop offset="0.222656" style="stop-color:rgb(8.396912%,8.396912%,100%);stop-opacity:1;"/>
<stop offset="0.226563" style="stop-color:rgb(8.982849%,8.982849%,100%);stop-opacity:1;"/>
<stop offset="0.230469" style="stop-color:rgb(9.568787%,9.568787%,100%);stop-opacity:1;"/>
<stop offset="0.234375" style="stop-color:rgb(10.154724%,10.154724%,100%);stop-opacity:1;"/>
<stop offset="0.238281" style="stop-color:rgb(10.740662%,10.740662%,100%);stop-opacity:1;"/>
<stop offset="0.242188" style="stop-color:rgb(11.326599%,11.326599%,100%);stop-opacity:1;"/>
<stop offset="0.246094" style="stop-color:rgb(11.912537%,11.912537%,100%);stop-opacity:1;"/>
<stop offset="0.25" style="stop-color:rgb(12.498474%,12.498474%,100%);stop-opacity:1;"/>
<stop offset="0.253906" style="stop-color:rgb(13.084412%,13.084412%,100%);stop-opacity:1;"/>
<stop offset="0.257812" style="stop-color:rgb(13.671875%,13.671875%,100%);stop-opacity:1;"/>
<stop offset="0.261719" style="stop-color:rgb(14.257812%,14.257812%,100%);stop-opacity:1;"/>
<stop offset="0.265625" style="stop-color:rgb(14.84375%,14.84375%,100%);stop-opacity:1;"/>
<stop offset="0.269531" style="stop-color:rgb(15.429688%,15.429688%,100%);stop-opacity:1;"/>
<stop offset="0.273438" style="stop-color:rgb(16.015625%,16.015625%,100%);stop-opacity:1;"/>
<stop offset="0.277344" style="stop-color:rgb(16.601562%,16.601562%,100%);stop-opacity:1;"/>
<stop offset="0.28125" style="stop-color:rgb(17.1875%,17.1875%,100%);stop-opacity:1;"/>
<stop offset="0.285156" style="stop-color:rgb(17.773438%,17.773438%,100%);stop-opacity:1;"/>
<stop offset="0.289062" style="stop-color:rgb(18.359375%,18.359375%,100%);stop-opacity:1;"/>
<stop offset="0.292969" style="stop-color:rgb(18.945312%,18.945312%,100%);stop-opacity:1;"/>
<stop offset="0.296875" style="stop-color:rgb(19.53125%,19.53125%,100%);stop-opacity:1;"/>
<stop offset="0.300781" style="stop-color:rgb(20.117188%,20.117188%,100%);stop-opacity:1;"/>
<stop offset="0.304688" style="stop-color:rgb(20.703125%,20.703125%,100%);stop-opacity:1;"/>
<stop offset="0.308594" style="stop-color:rgb(21.289062%,21.289062%,100%);stop-opacity:1;"/>
<stop offset="0.3125" style="stop-color:rgb(21.875%,21.875%,100%);stop-opacity:1;"/>
<stop offset="0.316406" style="stop-color:rgb(22.460938%,22.460938%,100%);stop-opacity:1;"/>
<stop offset="0.320313" style="stop-color:rgb(23.046875%,23.046875%,100%);stop-opacity:1;"/>
<stop offset="0.324219" style="stop-color:rgb(23.632812%,23.632812%,100%);stop-opacity:1;"/>
<stop offset="0.328125" style="stop-color:rgb(24.220276%,24.220276%,100%);stop-opacity:1;"/>
<stop offset="0.332031" style="stop-color:rgb(24.806213%,24.806213%,100%);stop-opacity:1;"/>
<stop offset="0.335938" style="stop-color:rgb(25.392151%,25.392151%,100%);stop-opacity:1;"/>
<stop offset="0.339844" style="stop-color:rgb(25.978088%,25.978088%,100%);stop-opacity:1;"/>
<stop offset="0.34375" style="stop-color:rgb(26.564026%,26.564026%,100%);stop-opacity:1;"/>
<stop offset="0.347656" style="stop-color:rgb(27.149963%,27.149963%,100%);stop-opacity:1;"/>
<stop offset="0.351563" style="stop-color:rgb(27.735901%,27.735901%,100%);stop-opacity:1;"/>
<stop offset="0.355469" style="stop-color:rgb(28.321838%,28.321838%,100%);stop-opacity:1;"/>
<stop offset="0.359375" style="stop-color:rgb(28.907776%,28.907776%,100%);stop-opacity:1;"/>
<stop offset="0.363281" style="stop-color:rgb(29.493713%,29.493713%,100%);stop-opacity:1;"/>
<stop offset="0.367188" style="stop-color:rgb(30.079651%,30.079651%,100%);stop-opacity:1;"/>
<stop offset="0.371094" style="stop-color:rgb(30.665588%,30.665588%,100%);stop-opacity:1;"/>
<stop offset="0.375" style="stop-color:rgb(31.251526%,31.251526%,100%);stop-opacity:1;"/>
<stop offset="0.378906" style="stop-color:rgb(31.837463%,31.837463%,100%);stop-opacity:1;"/>
<stop offset="0.382812" style="stop-color:rgb(32.423401%,32.423401%,100%);stop-opacity:1;"/>
<stop offset="0.386719" style="stop-color:rgb(33.009338%,33.009338%,100%);stop-opacity:1;"/>
<stop offset="0.390625" style="stop-color:rgb(33.595276%,33.595276%,100%);stop-opacity:1;"/>
<stop offset="0.394531" style="stop-color:rgb(34.181213%,34.181213%,100%);stop-opacity:1;"/>
<stop offset="0.398438" style="stop-color:rgb(34.768677%,34.768677%,100%);stop-opacity:1;"/>
<stop offset="0.402344" style="stop-color:rgb(35.354614%,35.354614%,100%);stop-opacity:1;"/>
<stop offset="0.40625" style="stop-color:rgb(35.940552%,35.940552%,100%);stop-opacity:1;"/>
<stop offset="0.410156" style="stop-color:rgb(36.526489%,36.526489%,100%);stop-opacity:1;"/>
<stop offset="0.414063" style="stop-color:rgb(37.112427%,37.112427%,100%);stop-opacity:1;"/>
<stop offset="0.417969" style="stop-color:rgb(37.698364%,37.698364%,100%);stop-opacity:1;"/>
<stop offset="0.421875" style="stop-color:rgb(38.284302%,38.284302%,100%);stop-opacity:1;"/>
<stop offset="0.425781" style="stop-color:rgb(38.870239%,38.870239%,100%);stop-opacity:1;"/>
<stop offset="0.429688" style="stop-color:rgb(39.456177%,39.456177%,100%);stop-opacity:1;"/>
<stop offset="0.433594" style="stop-color:rgb(40.042114%,40.042114%,100%);stop-opacity:1;"/>
<stop offset="0.4375" style="stop-color:rgb(40.628052%,40.628052%,100%);stop-opacity:1;"/>
<stop offset="0.441406" style="stop-color:rgb(41.213989%,41.213989%,100%);stop-opacity:1;"/>
<stop offset="0.445313" style="stop-color:rgb(41.799927%,41.799927%,100%);stop-opacity:1;"/>
<stop offset="0.449219" style="stop-color:rgb(42.385864%,42.385864%,100%);stop-opacity:1;"/>
<stop offset="0.453125" style="stop-color:rgb(42.971802%,42.971802%,100%);stop-opacity:1;"/>
<stop offset="0.457031" style="stop-color:rgb(43.557739%,43.557739%,100%);stop-opacity:1;"/>
<stop offset="0.460938" style="stop-color:rgb(44.143677%,44.143677%,100%);stop-opacity:1;"/>
<stop offset="0.464844" style="stop-color:rgb(44.729614%,44.729614%,100%);stop-opacity:1;"/>
<stop offset="0.46875" style="stop-color:rgb(45.315552%,45.315552%,100%);stop-opacity:1;"/>
<stop offset="0.472656" style="stop-color:rgb(45.901489%,45.901489%,100%);stop-opacity:1;"/>
<stop offset="0.476563" style="stop-color:rgb(46.488953%,46.488953%,100%);stop-opacity:1;"/>
<stop offset="0.480469" style="stop-color:rgb(47.07489%,47.07489%,100%);stop-opacity:1;"/>
<stop offset="0.484375" style="stop-color:rgb(47.660828%,47.660828%,100%);stop-opacity:1;"/>
<stop offset="0.488281" style="stop-color:rgb(48.246765%,48.246765%,100%);stop-opacity:1;"/>
<stop offset="0.492188" style="stop-color:rgb(48.832703%,48.832703%,100%);stop-opacity:1;"/>
<stop offset="0.496094" style="stop-color:rgb(49.41864%,49.41864%,100%);stop-opacity:1;"/>
<stop offset="0.5" style="stop-color:rgb(50.004578%,50.004578%,100%);stop-opacity:1;"/>
<stop offset="0.503906" style="stop-color:rgb(50.590515%,50.590515%,100%);stop-opacity:1;"/>
<stop offset="0.507813" style="stop-color:rgb(51.176453%,51.176453%,100%);stop-opacity:1;"/>
<stop offset="0.511719" style="stop-color:rgb(51.76239%,51.76239%,100%);stop-opacity:1;"/>
<stop offset="0.515625" style="stop-color:rgb(52.348328%,52.348328%,100%);stop-opacity:1;"/>
<stop offset="0.519531" style="stop-color:rgb(52.934265%,52.934265%,100%);stop-opacity:1;"/>
<stop offset="0.523438" style="stop-color:rgb(53.520203%,53.520203%,100%);stop-opacity:1;"/>
<stop offset="0.527344" style="stop-color:rgb(54.10614%,54.10614%,100%);stop-opacity:1;"/>
<stop offset="0.53125" style="stop-color:rgb(54.692078%,54.692078%,100%);stop-opacity:1;"/>
<stop offset="0.535156" style="stop-color:rgb(55.278015%,55.278015%,100%);stop-opacity:1;"/>
<stop offset="0.539062" style="stop-color:rgb(55.863953%,55.863953%,100%);stop-opacity:1;"/>
<stop offset="0.542969" style="stop-color:rgb(56.44989%,56.44989%,100%);stop-opacity:1;"/>
<stop offset="0.546875" style="stop-color:rgb(57.037354%,57.037354%,100%);stop-opacity:1;"/>
<stop offset="0.550781" style="stop-color:rgb(57.623291%,57.623291%,100%);stop-opacity:1;"/>
<stop offset="0.554688" style="stop-color:rgb(58.209229%,58.209229%,100%);stop-opacity:1;"/>
<stop offset="0.558594" style="stop-color:rgb(58.795166%,58.795166%,100%);stop-opacity:1;"/>
<stop offset="0.5625" style="stop-color:rgb(59.381104%,59.381104%,100%);stop-opacity:1;"/>
<stop offset="0.566406" style="stop-color:rgb(59.967041%,59.967041%,100%);stop-opacity:1;"/>
<stop offset="0.570312" style="stop-color:rgb(60.552979%,60.552979%,100%);stop-opacity:1;"/>
<stop offset="0.574219" style="stop-color:rgb(61.138916%,61.138916%,100%);stop-opacity:1;"/>
<stop offset="0.578125" style="stop-color:rgb(61.724854%,61.724854%,100%);stop-opacity:1;"/>
<stop offset="0.582031" style="stop-color:rgb(62.310791%,62.310791%,100%);stop-opacity:1;"/>
<stop offset="0.585938" style="stop-color:rgb(62.896729%,62.896729%,100%);stop-opacity:1;"/>
<stop offset="0.589844" style="stop-color:rgb(63.482666%,63.482666%,100%);stop-opacity:1;"/>
<stop offset="0.59375" style="stop-color:rgb(64.068604%,64.068604%,100%);stop-opacity:1;"/>
<stop offset="0.597656" style="stop-color:rgb(64.654541%,64.654541%,100%);stop-opacity:1;"/>
<stop offset="0.601563" style="stop-color:rgb(65.240479%,65.240479%,100%);stop-opacity:1;"/>
<stop offset="0.605469" style="stop-color:rgb(65.826416%,65.826416%,100%);stop-opacity:1;"/>
<stop offset="0.609375" style="stop-color:rgb(66.412354%,66.412354%,100%);stop-opacity:1;"/>
<stop offset="0.613281" style="stop-color:rgb(66.998291%,66.998291%,100%);stop-opacity:1;"/>
<stop offset="0.617188" style="stop-color:rgb(67.585754%,67.585754%,100%);stop-opacity:1;"/>
<stop offset="0.621094" style="stop-color:rgb(68.171692%,68.171692%,100%);stop-opacity:1;"/>
<stop offset="0.625" style="stop-color:rgb(68.757629%,68.757629%,100%);stop-opacity:1;"/>
<stop offset="0.628906" style="stop-color:rgb(69.343567%,69.343567%,100%);stop-opacity:1;"/>
<stop offset="0.632812" style="stop-color:rgb(69.929504%,69.929504%,100%);stop-opacity:1;"/>
<stop offset="0.636719" style="stop-color:rgb(70.515442%,70.515442%,100%);stop-opacity:1;"/>
<stop offset="0.640625" style="stop-color:rgb(71.101379%,71.101379%,100%);stop-opacity:1;"/>
<stop offset="0.644531" style="stop-color:rgb(71.687317%,71.687317%,100%);stop-opacity:1;"/>
<stop offset="0.648438" style="stop-color:rgb(72.273254%,72.273254%,100%);stop-opacity:1;"/>
<stop offset="0.652344" style="stop-color:rgb(72.859192%,72.859192%,100%);stop-opacity:1;"/>
<stop offset="0.65625" style="stop-color:rgb(73.445129%,73.445129%,100%);stop-opacity:1;"/>
<stop offset="0.660156" style="stop-color:rgb(74.031067%,74.031067%,100%);stop-opacity:1;"/>
<stop offset="0.664062" style="stop-color:rgb(74.617004%,74.617004%,100%);stop-opacity:1;"/>
<stop offset="0.667969" style="stop-color:rgb(75.202942%,75.202942%,100%);stop-opacity:1;"/>
<stop offset="0.671875" style="stop-color:rgb(75.788879%,75.788879%,100%);stop-opacity:1;"/>
<stop offset="0.675781" style="stop-color:rgb(76.374817%,76.374817%,100%);stop-opacity:1;"/>
<stop offset="0.679688" style="stop-color:rgb(76.960754%,76.960754%,100%);stop-opacity:1;"/>
<stop offset="0.683594" style="stop-color:rgb(77.546692%,77.546692%,100%);stop-opacity:1;"/>
<stop offset="0.6875" style="stop-color:rgb(78.132629%,78.132629%,100%);stop-opacity:1;"/>
<stop offset="0.691406" style="stop-color:rgb(78.718567%,78.718567%,100%);stop-opacity:1;"/>
<stop offset="0.695313" style="stop-color:rgb(79.30603%,79.30603%,100%);stop-opacity:1;"/>
<stop offset="0.699219" style="stop-color:rgb(79.891968%,79.891968%,100%);stop-opacity:1;"/>
<stop offset="0.703125" style="stop-color:rgb(80.477905%,80.477905%,100%);stop-opacity:1;"/>
<stop offset="0.707031" style="stop-color:rgb(81.063843%,81.063843%,100%);stop-opacity:1;"/>
<stop offset="0.710938" style="stop-color:rgb(81.64978%,81.64978%,100%);stop-opacity:1;"/>
<stop offset="0.714844" style="stop-color:rgb(82.235718%,82.235718%,100%);stop-opacity:1;"/>
<stop offset="0.71875" style="stop-color:rgb(82.821655%,82.821655%,100%);stop-opacity:1;"/>
<stop offset="0.722656" style="stop-color:rgb(83.407593%,83.407593%,100%);stop-opacity:1;"/>
<stop offset="0.726562" style="stop-color:rgb(83.99353%,83.99353%,100%);stop-opacity:1;"/>
<stop offset="0.730469" style="stop-color:rgb(84.579468%,84.579468%,100%);stop-opacity:1;"/>
<stop offset="0.734375" style="stop-color:rgb(85.165405%,85.165405%,100%);stop-opacity:1;"/>
<stop offset="0.738281" style="stop-color:rgb(85.751343%,85.751343%,100%);stop-opacity:1;"/>
<stop offset="0.742188" style="stop-color:rgb(86.33728%,86.33728%,100%);stop-opacity:1;"/>
<stop offset="0.746094" style="stop-color:rgb(86.923218%,86.923218%,100%);stop-opacity:1;"/>
<stop offset="0.75" style="stop-color:rgb(87.509155%,87.509155%,100%);stop-opacity:1;"/>
<stop offset="0.753906" style="stop-color:rgb(88.095093%,88.095093%,100%);stop-opacity:1;"/>
<stop offset="0.757812" style="stop-color:rgb(88.68103%,88.68103%,100%);stop-opacity:1;"/>
<stop offset="0.761719" style="stop-color:rgb(89.266968%,89.266968%,100%);stop-opacity:1;"/>
<stop offset="0.765625" style="stop-color:rgb(89.854431%,89.854431%,100%);stop-opacity:1;"/>
<stop offset="0.769531" style="stop-color:rgb(90.440369%,90.440369%,100%);stop-opacity:1;"/>
<stop offset="0.773438" style="stop-color:rgb(91.026306%,91.026306%,100%);stop-opacity:1;"/>
<stop offset="0.777344" style="stop-color:rgb(91.612244%,91.612244%,100%);stop-opacity:1;"/>
<stop offset="0.78125" style="stop-color:rgb(92.198181%,92.198181%,100%);stop-opacity:1;"/>
<stop offset="0.785156" style="stop-color:rgb(92.784119%,92.784119%,100%);stop-opacity:1;"/>
<stop offset="0.789063" style="stop-color:rgb(93.370056%,93.370056%,100%);stop-opacity:1;"/>
<stop offset="0.792969" style="stop-color:rgb(93.955994%,93.955994%,100%);stop-opacity:1;"/>
<stop offset="0.796875" style="stop-color:rgb(94.541931%,94.541931%,100%);stop-opacity:1;"/>
<stop offset="0.800781" style="stop-color:rgb(95.127869%,95.127869%,100%);stop-opacity:1;"/>
<stop offset="0.804688" style="stop-color:rgb(95.713806%,95.713806%,100%);stop-opacity:1;"/>
<stop offset="0.808594" style="stop-color:rgb(96.299744%,96.299744%,100%);stop-opacity:1;"/>
<stop offset="0.8125" style="stop-color:rgb(96.885681%,96.885681%,100%);stop-opacity:1;"/>
<stop offset="0.816406" style="stop-color:rgb(97.471619%,97.471619%,100%);stop-opacity:1;"/>
<stop offset="0.820312" style="stop-color:rgb(98.057556%,98.057556%,100%);stop-opacity:1;"/>
<stop offset="0.824219" style="stop-color:rgb(98.643494%,98.643494%,100%);stop-opacity:1;"/>
<stop offset="0.828125" style="stop-color:rgb(99.229431%,99.229431%,100%);stop-opacity:1;"/>
<stop offset="0.832031" style="stop-color:rgb(99.613953%,99.613953%,100%);stop-opacity:1;"/>
<stop offset="0.835938" style="stop-color:rgb(100%,100%,100%);stop-opacity:1;"/>
<stop offset="0.84375" style="stop-color:rgb(100%,100%,100%);stop-opacity:1;"/>
<stop offset="0.875" style="stop-color:rgb(100%,100%,100%);stop-opacity:1;"/>
<stop offset="1" style="stop-color:rgb(100%,100%,100%);stop-opacity:1;"/>
</linearGradient>
<clipPath id="clip3">
  <path d="M 160 216 L 169 216 L 169 223.347656 L 160 223.347656 Z M 160 216 "/>
</clipPath>
<clipPath id="clip4">
  <path d="M 339 147 L 347.628906 147 L 347.628906 159 L 339 159 Z M 339 147 "/>
</clipPath>
<clipPath id="clip5">
  <path d="M 339 56 L 347.628906 56 L 347.628906 68 L 339 68 Z M 339 56 "/>
</clipPath>
</defs>
<g id="surface1">
<path style="fill:none;stroke-width:0.8;stroke-linecap:butt;stroke-linejoin:miter;stroke:rgb(0%,0%,0%);stroke-opacity:1;stroke-dasharray:0.8,0.8;stroke-miterlimit:4;" d="M 56.265625 184.226562 L 56.265625 213.027344 "/>
<path style="fill-rule:evenodd;fill:rgb(50.195312%,0%,0%);fill-opacity:1;stroke-width:0.8;stroke-linecap:round;stroke-linejoin:round;stroke:rgb(0%,0%,0%);stroke-opacity:1;stroke-miterlimit:4;" d="M 29.246094 203.425781 L 337.6875 203.425781 C 338.671875 203.425781 339.464844 204.21875 339.464844 205.203125 L 339.464844 206.445312 C 339.464844 207.433594 338.671875 208.226562 337.6875 208.226562 L 29.246094 208.226562 C 28.257812 208.226562 27.464844 207.433594 27.464844 206.445312 L 27.464844 205.203125 C 27.464844 204.21875 28.257812 203.425781 29.246094 203.425781 Z M 29.246094 203.425781 "/>
<path style=" stroke:none;fill-rule:nonzero;fill:rgb(38.822937%,39.215088%,39.99939%);fill-opacity:1;" d="M 272.792969 121.972656 L 299.238281 121.621094 L 298.339844 108.828125 C 298.339844 108.828125 297.953125 108.488281 296.429688 109.773438 C 294.910156 111.0625 296.253906 108.839844 296.253906 108.839844 C 296.253906 108.839844 295.652344 106.136719 295.574219 105.941406 C 295.496094 105.746094 295.027344 106.097656 295.027344 106.292969 C 295.027344 106.488281 295.066406 105.277344 294.949219 105.160156 C 294.832031 105.042969 294.441406 104.1875 293.933594 105.472656 C 293.425781 106.761719 292.453125 118.226562 292.453125 118.226562 C 292.453125 118.226562 292.492188 120.609375 292.296875 120.765625 C 292.101562 120.917969 289.957031 118.929688 289.957031 118.578125 C 289.957031 118.230469 292.53125 106.488281 292.375 106.058594 C 292.21875 105.628906 289.292969 108.4375 288.472656 108.320312 C 287.65625 108.203125 288.667969 117.449219 288.511719 117.527344 C 288.355469 117.605469 286.875 118.96875 286.484375 119.164062 C 286.09375 119.359375 287.265625 110.582031 287.265625 109.921875 C 287.265625 109.257812 284.730469 113.15625 284.535156 114.367188 C 284.339844 115.574219 284.027344 114.6875 283.675781 114.210938 C 283.496094 113.964844 284.339844 110.777344 284.261719 110.660156 C 284.183594 110.542969 282.855469 111.128906 282.699219 111.363281 C 282.542969 111.597656 281.296875 118.070312 280.320312 118.8125 C 279.347656 119.554688 280.164062 114.757812 279.851562 114.601562 C 279.542969 114.445312 278.097656 115.847656 278.097656 115.847656 C 278.097656 115.847656 278.371094 120.644531 278.058594 120.996094 C 277.746094 121.347656 277.238281 121.230469 277.042969 121.074219 C 276.851562 120.917969 278.058594 118.34375 277.980469 118.035156 C 277.902344 117.722656 277.863281 117.332031 277.667969 117.566406 C 277.472656 117.800781 277.824219 116.628906 277.628906 116.511719 C 277.433594 116.394531 277.003906 116.628906 277.003906 116.628906 C 277.003906 116.628906 275.5625 120.21875 275.25 120.527344 C 274.941406 120.839844 273.03125 121.074219 272.796875 121.972656 Z M 272.792969 121.972656 "/>
<path style=" stroke:none;fill-rule:nonzero;fill:rgb(38.822937%,39.215088%,39.99939%);fill-opacity:1;" d="M 270.21875 22.703125 C 270.296875 22.390625 270.53125 21.882812 270.726562 21.84375 C 270.921875 21.804688 270.570312 20.558594 270.570312 20.558594 C 270.570312 20.558594 273.808594 20.089844 274.082031 21.027344 C 274.355469 21.960938 274.042969 21.960938 274.042969 22.039062 C 274.042969 22.117188 275.640625 23.953125 275.09375 28.28125 C 274.546875 32.609375 276.695312 39.515625 276.304688 42.167969 C 275.914062 44.820312 275.679688 45.210938 275.289062 46.691406 C 274.898438 48.171875 274.238281 40.761719 273.769531 40.292969 C 273.300781 39.828125 273.066406 38.109375 273.535156 37.992188 C 274.003906 37.875 274.394531 36.824219 274.625 36.628906 C 274.859375 36.433594 273.769531 31.089844 273.691406 30.855469 C 273.691406 30.855469 273.105469 32.296875 272.519531 31.441406 C 271.933594 30.582031 272.832031 29.175781 272.753906 28.867188 C 272.675781 28.554688 272.636719 26.5625 272.792969 26.371094 C 272.949219 26.175781 272.988281 25.121094 272.871094 25.082031 C 272.753906 25.042969 272.011719 25.277344 271.625 25.316406 C 271.234375 25.355469 270.804688 24.261719 271.117188 24.261719 C 271.429688 24.261719 270.765625 23.328125 270.726562 23.09375 C 270.6875 22.859375 270.21875 22.703125 270.21875 22.703125 Z M 270.21875 22.703125 "/>
<path style=" stroke:none;fill-rule:nonzero;fill:rgb(38.822937%,39.215088%,39.99939%);fill-opacity:1;" d="M 272.128906 43.804688 C 272.367188 43.828125 272.480469 48.097656 272.480469 48.097656 C 272.480469 48.097656 272.871094 49.96875 273.105469 50.320312 C 273.339844 50.671875 272.792969 51.414062 272.050781 51.488281 C 271.3125 51.566406 270.960938 51.449219 270.960938 51.449219 C 270.882812 51.410156 270.726562 53.519531 270.6875 53.636719 C 270.648438 53.753906 269.164062 52.621094 269.203125 51.140625 C 269.242188 49.65625 270.921875 43.683594 272.128906 43.804688 Z M 272.128906 43.804688 "/>
<path style=" stroke:none;fill-rule:nonzero;fill:rgb(38.822937%,39.215088%,39.99939%);fill-opacity:1;" d="M 295.667969 69.636719 C 295.546875 69.515625 299.0625 64.574219 299.0625 64.574219 L 299.765625 64.75 L 299.882812 63.640625 L 306.726562 66.503906 L 305.964844 67.121094 L 306.433594 67.675781 L 305.382812 69.078125 C 305.382812 69.078125 306.902344 70.570312 306.757812 71.421875 C 306.609375 72.269531 302.28125 76.714844 301.871094 76.804688 C 301.460938 76.890625 299.238281 81.046875 299.238281 81.046875 L 297.570312 80.8125 C 297.570312 80.8125 296.691406 75.488281 295.992188 74.871094 C 295.289062 74.257812 295.40625 73.761719 295.550781 73.148438 C 295.699219 72.527344 295.757812 69.722656 295.671875 69.632812 Z M 295.667969 69.636719 "/>
<path style=" stroke:none;fill-rule:nonzero;fill:rgb(38.822937%,39.215088%,39.99939%);fill-opacity:1;" d="M 289.253906 57.652344 C 289.097656 57.808594 282.542969 73.175781 282.308594 73.878906 C 282.074219 74.582031 280.671875 80.585938 278.410156 84.253906 C 276.148438 87.921875 275.757812 89.871094 275.679688 91.195312 C 275.601562 92.523438 276.148438 94.394531 276.070312 95.175781 C 275.992188 95.957031 273.808594 98.609375 273.730469 100.089844 C 273.652344 101.570312 273.960938 101.648438 273.960938 101.648438 C 273.960938 101.648438 276.769531 100.011719 277.863281 99.230469 C 278.957031 98.453125 283.871094 90.417969 284.261719 86.828125 C 284.648438 83.238281 286.367188 78.246094 286.601562 77.699219 C 286.835938 77.15625 289.175781 67.792969 289.097656 66.855469 C 289.019531 65.921875 289.410156 58.589844 289.410156 58.589844 Z M 289.253906 57.652344 "/>
<path style=" stroke:none;fill-rule:nonzero;fill:rgb(38.822937%,39.215088%,39.99939%);fill-opacity:1;" d="M 273.882812 102.683594 C 273.882812 102.683594 284.855469 95.3125 286.324219 90.785156 L 287.179688 89.609375 C 287.332031 89.296875 284.636719 99.058594 283.3125 100.542969 C 281.992188 102.03125 281.371094 103.125 281.140625 104.0625 C 280.910156 105 279.285156 109.296875 278.667969 110.859375 C 278.046875 112.421875 277.507812 114.136719 277.355469 115.074219 C 277.203125 116.011719 273.074219 118.441406 272.527344 117.742188 C 271.976562 117.042969 272.210938 116.183594 272.210938 116.183594 C 272.210938 116.183594 271.039062 115.71875 272.125 114.390625 C 273.214844 113.058594 272.078125 112.910156 272.089844 112.582031 C 272.109375 112.082031 272.019531 105.34375 273.882812 102.683594 Z M 273.882812 102.683594 "/>
<path style=" stroke:none;fill-rule:nonzero;fill:rgb(38.822937%,39.215088%,39.99939%);fill-opacity:1;" d="M 290.167969 86.398438 C 290.167969 86.398438 289.933594 105.296875 289.46875 106.410156 C 289 107.519531 284.496094 108.105469 282.621094 110.035156 C 280.75 111.96875 280.105469 113.195312 279.054688 114.015625 C 278 114.835938 277.53125 115.886719 277.648438 115.59375 C 277.765625 115.300781 281.6875 105.179688 284.4375 101.609375 C 287.1875 98.042969 286.542969 94.589844 287.128906 93.304688 C 287.714844 92.015625 289.351562 87.042969 290.171875 86.398438 Z M 290.167969 86.398438 "/>
<path style=" stroke:none;fill-rule:nonzero;fill:rgb(38.822937%,39.215088%,39.99939%);fill-opacity:1;" d="M 291.457031 75.808594 C 291.457031 75.984375 291.164062 101.550781 291.164062 102.019531 C 291.164062 102.488281 298.417969 98.15625 299.003906 97.339844 C 299.589844 96.519531 296.019531 80.546875 295.667969 78.148438 C 295.316406 75.75 294.441406 71.070312 294.089844 70.660156 C 293.738281 70.25 293.5625 73.992188 292.917969 74.167969 C 292.277344 74.347656 291.457031 75.808594 291.457031 75.808594 Z M 291.457031 75.808594 "/>
<path style=" stroke:none;fill-rule:nonzero;fill:rgb(38.822937%,39.215088%,39.99939%);fill-opacity:1;" d="M 289.992188 57.496094 C 289.992188 57.496094 294.265625 61.589844 295.085938 66.621094 C 295.902344 71.65625 295.132812 68.367188 295.027344 68.554688 C 294.839844 68.875 294.207031 66.621094 293.269531 67.382812 C 292.335938 68.144531 291.925781 68.261719 291.925781 68.496094 C 291.925781 68.730469 291.808594 63.40625 291.808594 63.40625 Z M 289.992188 57.496094 "/>
<path style=" stroke:none;fill-rule:nonzero;fill:rgb(38.822937%,39.215088%,39.99939%);fill-opacity:1;" d="M 271.214844 54.511719 C 271.214844 54.511719 275.484375 52.582031 275.953125 52.054688 C 276.421875 51.527344 271.972656 57.261719 271.332031 57.203125 C 270.6875 57.144531 270.101562 56.96875 270.277344 56.738281 C 270.453125 56.503906 270.511719 55.449219 270.6875 55.390625 C 270.863281 55.332031 271.214844 54.515625 271.214844 54.515625 Z M 271.214844 54.511719 "/>
<path style=" stroke:none;fill-rule:nonzero;fill:rgb(38.822937%,39.215088%,39.99939%);fill-opacity:1;" d="M 286.953125 56.324219 C 286.894531 56.5 281.976562 61.824219 279.988281 63.113281 C 278 64.398438 275.542969 67.734375 274.898438 69.019531 C 274.253906 70.308594 272.324219 73.351562 272.03125 74.230469 C 271.738281 75.105469 271.5625 76.101562 271.679688 76.863281 C 271.796875 77.621094 272.105469 78.179688 272.324219 78.382812 C 272.578125 78.617188 273.535156 78.773438 273.828125 78.65625 C 274.117188 78.539062 274.605469 78.265625 274.605469 78.265625 C 274.605469 78.265625 276.539062 68.085938 277.0625 67.96875 C 277.589844 67.851562 277.53125 69.664062 276.886719 71.011719 C 276.246094 72.355469 276.363281 72.589844 276.304688 72.824219 C 276.246094 73.058594 276.421875 73.292969 276.421875 73.292969 C 276.421875 73.292969 284.085938 61.648438 284.496094 60.65625 C 284.90625 59.65625 286.953125 56.320312 286.953125 56.320312 Z M 286.953125 56.324219 "/>
<path style=" stroke:none;fill-rule:nonzero;fill:rgb(38.822937%,39.215088%,39.99939%);fill-opacity:1;" d="M 283.441406 67.382812 C 283.265625 67.558594 273.027344 83.179688 272.910156 84.878906 C 272.792969 86.574219 273.261719 86.691406 273.554688 86.925781 C 273.847656 87.160156 274.839844 86.925781 275.015625 86.808594 C 275.191406 86.691406 275.894531 84.703125 275.894531 84.703125 Z M 283.441406 67.382812 "/>
<path style=" stroke:none;fill-rule:nonzero;fill:rgb(38.822937%,39.215088%,39.99939%);fill-opacity:1;" d="M 275.777344 61.828125 C 275.542969 62.355469 272.324219 64.519531 272.5 64.984375 C 272.675781 65.453125 272.792969 65.921875 273.027344 65.921875 C 273.261719 65.921875 273.378906 65.980469 273.4375 66.214844 C 273.496094 66.449219 273.4375 66.507812 273.554688 66.859375 C 273.671875 67.210938 274.023438 68.027344 274.023438 68.027344 Z M 275.777344 61.828125 "/>
<path style=" stroke:none;fill-rule:nonzero;fill:rgb(38.822937%,39.215088%,39.99939%);fill-opacity:1;" d="M 288.511719 47.21875 C 288.648438 47.199219 289.527344 47.238281 289.332031 46.828125 C 289.164062 46.472656 288.847656 45.273438 288.929688 44.652344 L 294.949219 44.429688 C 294.949219 44.429688 290.652344 43.582031 289.1875 43.304688 C 289.1875 43.054688 289.167969 42.804688 289.136719 42.574219 L 294.519531 40.414062 C 294.519531 40.414062 289.894531 41.171875 288.707031 41.351562 C 288.488281 40.933594 288.257812 40.585938 288.257812 40.585938 C 288.203125 40.535156 288.144531 40.484375 288.089844 40.4375 L 292.023438 36.316406 C 292.023438 36.316406 288 39.113281 287.0625 39.742188 C 286.546875 39.472656 286.027344 39.3125 285.523438 39.242188 L 285.664062 33.78125 C 285.664062 33.878906 284.519531 37.96875 284.167969 39.226562 C 283.453125 39.3125 282.8125 39.527344 282.292969 39.757812 L 278.488281 35.847656 L 281.144531 40.394531 C 281.039062 40.464844 280.984375 40.507812 280.984375 40.507812 C 280.65625 40.742188 280.375 40.984375 280.132812 41.226562 L 275.5625 41.152344 L 275.640625 41.777344 L 279.179688 42.542969 C 279.050781 42.816406 278.957031 43.085938 278.894531 43.347656 L 277.394531 43.53125 L 277.40625 43.574219 C 277.050781 42.988281 276.734375 42.636719 276.734375 42.636719 C 276.734375 42.636719 277.003906 44.15625 276.773438 45.714844 C 276.539062 47.277344 272.519531 52.035156 272.519531 52.035156 C 272.519531 52.035156 272.324219 52.464844 273.730469 52.308594 C 275.132812 52.152344 277.589844 50.554688 278.292969 47.863281 C 278.632812 46.5625 278.28125 45.300781 277.824219 44.34375 L 278.792969 44.496094 C 278.847656 45.640625 279.347656 46.457031 279.347656 46.457031 C 279.347656 46.378906 280.632812 44.9375 281.003906 45.035156 C 281.375 45.132812 283.265625 44.175781 283.363281 44.273438 C 283.460938 44.371094 284.261719 45.015625 284.261719 45.015625 C 284.261719 45.015625 285.039062 45.386719 285.039062 45.464844 C 285.039062 45.542969 285.078125 47.414062 284.980469 47.433594 C 284.882812 47.453125 284.59375 47.53125 284.59375 47.53125 C 284.59375 47.53125 284.457031 48.503906 284.320312 48.46875 C 284.183594 48.429688 284.144531 48.699219 284.066406 48.777344 C 283.988281 48.855469 284.746094 49.421875 284.746094 49.421875 C 284.746094 49.421875 285 50.203125 284.746094 50.222656 C 284.496094 50.242188 284.339844 51.277344 284.515625 51.46875 C 284.691406 51.664062 285.019531 51.664062 285.117188 51.644531 C 285.214844 51.625 285.488281 51.859375 286.289062 51.507812 C 287.089844 51.160156 288.316406 47.609375 288.316406 47.609375 C 288.316406 47.609375 288.375 47.238281 288.507812 47.21875 Z M 289.410156 54.238281 C 289.429688 54.183594 288.726562 51.546875 288.824219 51.488281 C 288.921875 51.433594 289.175781 51.257812 289.351562 50.847656 C 289.527344 50.4375 288.980469 49.539062 288.980469 49.5 C 288.980469 49.460938 288.550781 47.882812 288.550781 47.882812 C 288.550781 47.980469 286.875 51.664062 286.875 51.664062 C 286.875 51.664062 286.953125 53.460938 286.992188 53.636719 C 287.03125 53.8125 287.695312 53.695312 287.695312 53.773438 C 287.695312 53.851562 287.773438 55.175781 287.8125 55.175781 C 287.851562 55.175781 288.023438 55.390625 288.257812 55.195312 C 288.492188 55 289.585938 55.078125 289.585938 55.078125 C 289.585938 55.078125 289.390625 54.300781 289.410156 54.246094 Z M 272.5 60.949219 C 271.738281 61.359375 271.855469 61.417969 271.972656 61.59375 C 272.089844 61.769531 272.207031 62.117188 272.207031 62.117188 C 272.207031 62.117188 271.914062 61.828125 271.738281 62.703125 C 271.5625 63.582031 271.507812 63.816406 271.679688 63.875 C 271.855469 63.933594 275.484375 61.769531 276.070312 60.304688 C 276.65625 58.84375 278.761719 53.050781 278.761719 53.050781 C 278.703125 53.28125 273.261719 60.539062 272.5 60.949219 Z M 276.65625 53.984375 L 278.644531 49.128906 C 278.585938 49.363281 275.601562 52.875 275.25 54.628906 C 274.898438 56.382812 274.546875 56.734375 274.3125 57.144531 C 274.082031 57.554688 276.65625 53.984375 276.65625 53.984375 Z M 284.261719 54.6875 C 284.027344 54.628906 283.558594 54.222656 283.03125 53.753906 C 282.503906 53.285156 281.042969 51.238281 281.042969 51.238281 C 280.632812 50.183594 279.171875 49.1875 279.523438 49.65625 C 279.871094 50.125 279.230469 55.859375 279.113281 56.210938 C 278.996094 56.5625 276.597656 63.464844 276.773438 63.230469 C 276.949219 62.996094 277.472656 62.527344 278.234375 62.0625 C 278.996094 61.59375 278.644531 60.832031 278.761719 59.722656 C 278.878906 58.609375 279.113281 58.785156 279.523438 57.847656 C 279.929688 56.914062 280.867188 56.855469 281.570312 56.621094 C 282.273438 56.386719 283.792969 56.035156 284.027344 55.976562 C 284.261719 55.914062 284.496094 54.746094 284.261719 54.6875 Z M 284.261719 54.6875 "/>
<path style=" stroke:none;fill-rule:nonzero;fill:rgb(38.822937%,39.215088%,39.99939%);fill-opacity:1;" d="M 269.75 19.992188 C 269.75 19.992188 272.53125 18.675781 274.59375 19.949219 C 276.65625 21.222656 275.910156 20.257812 276.859375 18.777344 C 276.859375 18.777344 276.714844 17.972656 274.546875 17.609375 C 272.382812 17.242188 270.65625 17.59375 270.65625 17.59375 C 270.65625 17.59375 268.785156 17.960938 268.1875 18.660156 C 267.585938 19.363281 269.75 19.992188 269.75 19.992188 Z M 269.75 19.992188 "/>
<path style=" stroke:none;fill-rule:nonzero;fill:rgb(38.822937%,39.215088%,39.99939%);fill-opacity:1;" d="M 268.726562 17.785156 C 268.726562 17.785156 271.886719 15.734375 276.246094 17.636719 C 280.605469 19.539062 276.304688 16.421875 276.582031 16.320312 C 276.859375 16.21875 272.617188 14.582031 268.609375 16.203125 C 268.609375 16.203125 269.179688 16.921875 268.726562 17.785156 Z M 268.726562 17.785156 "/>
<path style=" stroke:none;fill-rule:nonzero;fill:rgb(83.135986%,33.332825%,0%);fill-opacity:1;" d="M 271.148438 14.015625 C 271.152344 14.019531 271.464844 14.175781 271.542969 14.226562 C 272.203125 14.714844 274.191406 14.019531 274.191406 14.019531 C 274.191406 14.019531 276.890625 12.527344 276.488281 9.019531 C 276.085938 5.507812 276.519531 10.082031 275.34375 11.058594 C 275.230469 10.554688 275.082031 10.136719 274.789062 9.550781 C 274.648438 9.273438 274.527344 9.042969 274.421875 8.832031 C 274.453125 8.796875 274.484375 8.765625 274.511719 8.734375 C 275.035156 8.210938 277.617188 5.992188 275.097656 0 C 275.097656 0 275.460938 4.238281 274.550781 4.960938 C 273.644531 5.6875 269.648438 7.382812 269.769531 10.773438 C 269.890625 14.160156 270.417969 13.527344 271.15625 14.019531 "/>
<path style="fill-rule:evenodd;fill:rgb(70.195007%,70.195007%,70.195007%);fill-opacity:1;stroke-width:0.8;stroke-linecap:round;stroke-linejoin:round;stroke:rgb(83.135986%,33.332825%,0%);stroke-opacity:1;stroke-miterlimit:4;" d="M 257.867188 160.226562 L 315.300781 160.226562 L 315.300781 184.226562 L 257.867188 184.226562 Z M 257.867188 160.226562 "/>
<path style="fill-rule:evenodd;fill:rgb(70.195007%,70.195007%,70.195007%);fill-opacity:1;stroke-width:0.8;stroke-linecap:round;stroke-linejoin:round;stroke:rgb(83.135986%,33.332825%,0%);stroke-opacity:1;stroke-miterlimit:4;" d="M 262.664062 136.226562 L 310.664062 136.226562 L 310.664062 160.226562 L 262.664062 160.226562 Z M 262.664062 136.226562 "/>
<path style="fill-rule:evenodd;fill:rgb(70.195007%,70.195007%,70.195007%);fill-opacity:1;stroke-width:0.8;stroke-linecap:round;stroke-linejoin:round;stroke:rgb(83.135986%,33.332825%,0%);stroke-opacity:1;stroke-miterlimit:4;" d="M 257.867188 131.425781 L 315.464844 131.425781 L 315.464844 136.226562 L 257.867188 136.226562 Z M 257.867188 131.425781 "/>
<path style="fill-rule:evenodd;fill:rgb(70.195007%,70.195007%,70.195007%);fill-opacity:1;stroke-width:0.8;stroke-linecap:round;stroke-linejoin:round;stroke:rgb(83.135986%,33.332825%,0%);stroke-opacity:1;stroke-miterlimit:4;" d="M 267.464844 141.027344 L 277.066406 141.027344 L 277.066406 155.425781 L 267.464844 155.425781 Z M 267.464844 141.027344 "/>
<path style="fill-rule:evenodd;fill:rgb(70.195007%,70.195007%,70.195007%);fill-opacity:1;stroke-width:0.8;stroke-linecap:round;stroke-linejoin:round;stroke:rgb(83.135986%,33.332825%,0%);stroke-opacity:1;stroke-miterlimit:4;" d="M 281.867188 141.027344 L 291.464844 141.027344 L 291.464844 155.425781 L 281.867188 155.425781 Z M 281.867188 141.027344 "/>
<path style="fill-rule:evenodd;fill:rgb(70.195007%,70.195007%,70.195007%);fill-opacity:1;stroke-width:0.8;stroke-linecap:round;stroke-linejoin:round;stroke:rgb(83.135986%,33.332825%,0%);stroke-opacity:1;stroke-miterlimit:4;" d="M 296.265625 141.027344 L 305.867188 141.027344 L 305.867188 155.425781 L 296.265625 155.425781 Z M 296.265625 141.027344 "/>
<path style="fill-rule:evenodd;fill:rgb(70.195007%,70.195007%,70.195007%);fill-opacity:1;stroke-width:0.8;stroke-linecap:round;stroke-linejoin:round;stroke:rgb(83.135986%,33.332825%,0%);stroke-opacity:1;stroke-miterlimit:4;" d="M 281.867188 174.625 L 291.464844 174.625 L 291.464844 184.226562 L 281.867188 184.226562 Z M 281.867188 174.625 "/>
<path style="fill-rule:evenodd;fill:rgb(70.195007%,70.195007%,70.195007%);fill-opacity:1;stroke-width:0.8;stroke-linecap:round;stroke-linejoin:round;stroke:rgb(83.135986%,33.332825%,0%);stroke-opacity:1;stroke-miterlimit:4;" d="M 267.464844 121.824219 L 305.867188 121.824219 L 305.867188 126.625 L 267.464844 126.625 Z M 267.464844 121.824219 "/>
<path style="fill-rule:evenodd;fill:rgb(70.195007%,70.195007%,70.195007%);fill-opacity:1;stroke-width:0.8;stroke-linecap:round;stroke-linejoin:round;stroke:rgb(83.135986%,33.332825%,0%);stroke-opacity:1;stroke-miterlimit:4;" d="M 262.664062 126.625 L 310.664062 126.625 L 310.664062 131.425781 L 262.664062 131.425781 Z M 262.664062 126.625 "/>
<path style="fill-rule:evenodd;fill:rgb(70.195007%,70.195007%,70.195007%);fill-opacity:1;stroke-width:0.8;stroke-linecap:round;stroke-linejoin:round;stroke:rgb(83.135986%,33.332825%,0%);stroke-opacity:1;stroke-miterlimit:4;" d="M 243.464844 184.226562 L 329.867188 184.226562 L 329.867188 193.824219 L 243.464844 193.824219 Z M 243.464844 184.226562 "/>
<path style="fill-rule:evenodd;fill:rgb(70.195007%,70.195007%,70.195007%);fill-opacity:1;stroke-width:0.8;stroke-linecap:round;stroke-linejoin:round;stroke:rgb(83.135986%,33.332825%,0%);stroke-opacity:1;stroke-miterlimit:4;" d="M 233.867188 193.824219 L 339.464844 193.824219 L 339.464844 203.425781 L 233.867188 203.425781 Z M 233.867188 193.824219 "/>
<path style="fill:none;stroke-width:0.8;stroke-linecap:butt;stroke-linejoin:miter;stroke:rgb(0%,0%,0%);stroke-opacity:1;stroke-dasharray:0.8,0.8;stroke-miterlimit:4;" d="M 272.265625 1.824219 L 56.265625 184.226562 "/>
<path style="fill:none;stroke-width:0.8;stroke-linecap:butt;stroke-linejoin:miter;stroke:rgb(0%,0%,0%);stroke-opacity:1;stroke-dasharray:0.8,0.8;stroke-miterlimit:4;" d="M 272.265625 121.824219 L 56.265625 184.226562 "/>
<path style="fill:none;stroke-width:0.8;stroke-linecap:butt;stroke-linejoin:miter;stroke:rgb(0%,0%,0%);stroke-opacity:1;stroke-dasharray:0.8,0.8;stroke-miterlimit:4;" d="M 334.664062 184.226562 L 37.066406 184.226562 "/>
<path style="fill:none;stroke-width:0.8;stroke-linecap:butt;stroke-linejoin:miter;stroke:rgb(0%,0%,0%);stroke-opacity:1;stroke-dasharray:0.8,0.8;stroke-miterlimit:4;" d="M 272.265625 1.824219 L 272.265625 213.027344 "/>
<g clip-path="url(#clip1)" clip-rule="nonzero">
<g clip-path="url(#clip2)" clip-rule="evenodd">
<path style=" stroke:none;fill-rule:nonzero;fill:url(#linear0);" d="M 46.664062 179.425781 L 46.664062 189.027344 L 65.867188 189.027344 L 65.867188 179.425781 Z M 46.664062 179.425781 "/>
</g>
</g>
<path style="fill:none;stroke-width:2.4;stroke-linecap:round;stroke-linejoin:round;stroke:rgb(100%,100%,100%);stroke-opacity:1;stroke-miterlimit:4;" d="M 65.867188 184.226562 C 65.867188 186.875 61.566406 189.027344 56.265625 189.027344 C 50.964844 189.027344 46.664062 186.875 46.664062 184.226562 C 46.664062 181.574219 50.964844 179.425781 56.265625 179.425781 C 61.566406 179.425781 65.867188 181.574219 65.867188 184.226562 Z M 65.867188 184.226562 "/>
<path style="fill:none;stroke-width:0.8;stroke-linecap:round;stroke-linejoin:round;stroke:rgb(0%,0%,0%);stroke-opacity:1;stroke-miterlimit:4;" d="M 65.867188 184.226562 C 65.867188 186.875 61.566406 189.027344 56.265625 189.027344 C 50.964844 189.027344 46.664062 186.875 46.664062 184.226562 C 46.664062 181.574219 50.964844 179.425781 56.265625 179.425781 C 61.566406 179.425781 65.867188 181.574219 65.867188 184.226562 Z M 65.867188 184.226562 "/>
<path style="fill-rule:evenodd;fill:rgb(0%,0%,0%);fill-opacity:1;stroke-width:0.8;stroke-linecap:round;stroke-linejoin:round;stroke:rgb(0%,0%,0%);stroke-opacity:1;stroke-miterlimit:4;" d="M 58.664062 184.226562 C 58.664062 185.550781 57.589844 186.625 56.265625 186.625 C 54.941406 186.625 53.867188 185.550781 53.867188 184.226562 C 53.867188 182.898438 54.941406 181.824219 56.265625 181.824219 C 57.589844 181.824219 58.664062 182.898438 58.664062 184.226562 Z M 58.664062 184.226562 "/>
<path style="fill:none;stroke-width:0.8;stroke-linecap:butt;stroke-linejoin:miter;stroke:rgb(0%,0%,0%);stroke-opacity:1;stroke-dasharray:0.8,0.8;stroke-miterlimit:4;" d="M 272.265625 121.824219 L 334.664062 121.824219 "/>
<path style="fill:none;stroke-width:0.8;stroke-linecap:butt;stroke-linejoin:miter;stroke:rgb(0%,0%,0%);stroke-opacity:1;stroke-dasharray:0.8,0.8;stroke-miterlimit:4;" d="M 272.265625 1.824219 L 334.664062 1.824219 "/>
<g clip-path="url(#clip3)" clip-rule="nonzero">
<path style=" stroke:none;fill-rule:nonzero;fill:rgb(0%,0%,0%);fill-opacity:1;" d="M 165.152344 218.347656 C 165.253906 217.945312 165.628906 216.472656 166.726562 216.472656 C 166.804688 216.472656 167.203125 216.472656 167.527344 216.671875 C 167.078125 216.773438 166.777344 217.148438 166.777344 217.546875 C 166.777344 217.796875 166.953125 218.097656 167.378906 218.097656 C 167.726562 218.097656 168.226562 217.820312 168.226562 217.171875 C 168.226562 216.347656 167.304688 216.121094 166.753906 216.121094 C 165.828125 216.121094 165.277344 216.972656 165.078125 217.320312 C 164.679688 216.273438 163.828125 216.121094 163.351562 216.121094 C 161.703125 216.121094 160.777344 218.171875 160.777344 218.570312 C 160.777344 218.746094 160.953125 218.746094 160.976562 218.746094 C 161.101562 218.746094 161.152344 218.695312 161.179688 218.570312 C 161.726562 216.871094 162.777344 216.472656 163.328125 216.472656 C 163.628906 216.472656 164.179688 216.621094 164.179688 217.546875 C 164.179688 218.046875 163.902344 219.097656 163.328125 221.347656 C 163.078125 222.320312 162.503906 222.996094 161.804688 222.996094 C 161.703125 222.996094 161.351562 222.996094 161.003906 222.796875 C 161.402344 222.695312 161.753906 222.371094 161.753906 221.921875 C 161.753906 221.496094 161.402344 221.371094 161.179688 221.371094 C 160.679688 221.371094 160.304688 221.773438 160.304688 222.296875 C 160.304688 223.023438 161.078125 223.347656 161.777344 223.347656 C 162.851562 223.347656 163.429688 222.222656 163.453125 222.148438 C 163.652344 222.722656 164.226562 223.347656 165.179688 223.347656 C 166.828125 223.347656 167.726562 221.296875 167.726562 220.898438 C 167.726562 220.722656 167.601562 220.722656 167.554688 220.722656 C 167.402344 220.722656 167.378906 220.796875 167.328125 220.898438 C 166.804688 222.621094 165.726562 222.996094 165.226562 222.996094 C 164.601562 222.996094 164.351562 222.496094 164.351562 221.945312 C 164.351562 221.597656 164.429688 221.246094 164.601562 220.546875 Z M 165.152344 218.347656 "/>
</g>
<path style=" stroke:none;fill-rule:nonzero;fill:rgb(0%,0%,0%);fill-opacity:1;" d="M 3.273438 188.695312 C 3.273438 188.296875 3.273438 188.273438 2.898438 188.273438 C 1.898438 189.296875 0.5 189.296875 0 189.296875 L 0 189.796875 C 0.324219 189.796875 1.25 189.796875 2.074219 189.371094 L 2.074219 197.648438 C 2.074219 198.222656 2.023438 198.398438 0.601562 198.398438 L 0.101562 198.398438 L 0.101562 198.898438 C 0.648438 198.847656 2.023438 198.847656 2.675781 198.847656 C 3.300781 198.847656 4.699219 198.847656 5.25 198.898438 L 5.25 198.398438 L 4.75 198.398438 C 3.300781 198.398438 3.273438 198.222656 3.273438 197.648438 Z M 3.273438 188.695312 "/>
<path style=" stroke:none;fill-rule:nonzero;fill:rgb(0%,0%,0%);fill-opacity:1;" d="M 9.59375 198.046875 C 9.59375 197.597656 9.21875 197.195312 8.769531 197.195312 C 8.292969 197.195312 7.917969 197.597656 7.917969 198.046875 C 7.917969 198.523438 8.292969 198.898438 8.769531 198.898438 C 9.21875 198.898438 9.59375 198.523438 9.59375 198.046875 Z M 9.59375 198.046875 "/>
<path style=" stroke:none;fill-rule:nonzero;fill:rgb(0%,0%,0%);fill-opacity:1;" d="M 18.125 195.695312 C 18.125 193.796875 16.824219 192.195312 15.097656 192.195312 C 14.347656 192.195312 13.648438 192.445312 13.074219 193.023438 L 13.074219 189.898438 C 13.398438 189.996094 13.921875 190.097656 14.421875 190.097656 C 16.398438 190.097656 17.523438 188.648438 17.523438 188.445312 C 17.523438 188.347656 17.472656 188.273438 17.347656 188.273438 C 17.347656 188.273438 17.296875 188.273438 17.222656 188.320312 C 16.898438 188.472656 16.125 188.796875 15.046875 188.796875 C 14.421875 188.796875 13.671875 188.671875 12.921875 188.347656 C 12.796875 188.296875 12.773438 188.296875 12.75 188.296875 C 12.574219 188.296875 12.574219 188.421875 12.574219 188.671875 L 12.574219 193.398438 C 12.574219 193.671875 12.574219 193.796875 12.796875 193.796875 C 12.921875 193.796875 12.949219 193.773438 13.023438 193.671875 C 13.199219 193.421875 13.773438 192.546875 15.074219 192.546875 C 15.898438 192.546875 16.296875 193.273438 16.421875 193.570312 C 16.671875 194.171875 16.722656 194.773438 16.722656 195.570312 C 16.722656 196.148438 16.722656 197.097656 16.324219 197.773438 C 15.949219 198.398438 15.347656 198.796875 14.625 198.796875 C 13.472656 198.796875 12.546875 197.945312 12.273438 197.023438 C 12.324219 197.023438 12.375 197.046875 12.546875 197.046875 C 13.074219 197.046875 13.347656 196.648438 13.347656 196.273438 C 13.347656 195.871094 13.074219 195.472656 12.546875 195.472656 C 12.324219 195.472656 11.773438 195.597656 11.773438 196.320312 C 11.773438 197.695312 12.875 199.246094 14.648438 199.246094 C 16.5 199.246094 18.125 197.722656 18.125 195.695312 Z M 18.125 195.695312 "/>
<path style=" stroke:none;fill-rule:nonzero;fill:rgb(0%,0%,0%);fill-opacity:1;" d="M 20.34375 197.945312 C 20.292969 198.195312 20.191406 198.570312 20.191406 198.648438 C 20.191406 198.921875 20.417969 199.070312 20.667969 199.070312 C 20.867188 199.070312 21.144531 198.945312 21.269531 198.621094 C 21.269531 198.597656 21.46875 197.847656 21.566406 197.445312 L 21.917969 196.023438 C 21.992188 195.648438 22.09375 195.296875 22.191406 194.945312 C 22.242188 194.671875 22.367188 194.195312 22.394531 194.148438 C 22.617188 193.648438 23.46875 192.195312 24.992188 192.195312 C 25.71875 192.195312 25.84375 192.796875 25.84375 193.320312 C 25.84375 193.722656 25.742188 194.171875 25.617188 194.648438 L 25.167969 196.496094 L 24.84375 197.695312 C 24.792969 198.023438 24.644531 198.570312 24.644531 198.648438 C 24.644531 198.921875 24.867188 199.070312 25.09375 199.070312 C 25.59375 199.070312 25.691406 198.671875 25.816406 198.171875 C 26.042969 197.273438 26.644531 194.945312 26.769531 194.320312 C 26.816406 194.121094 27.667969 192.195312 29.417969 192.195312 C 30.09375 192.195312 30.269531 192.746094 30.269531 193.320312 C 30.269531 194.222656 29.59375 196.046875 29.269531 196.898438 C 29.144531 197.273438 29.066406 197.445312 29.066406 197.773438 C 29.066406 198.523438 29.617188 199.070312 30.367188 199.070312 C 31.867188 199.070312 32.46875 196.746094 32.46875 196.621094 C 32.46875 196.445312 32.316406 196.445312 32.269531 196.445312 C 32.117188 196.445312 32.117188 196.496094 32.042969 196.746094 C 31.792969 197.597656 31.292969 198.722656 30.417969 198.722656 C 30.144531 198.722656 30.019531 198.570312 30.019531 198.195312 C 30.019531 197.796875 30.167969 197.421875 30.316406 197.070312 C 30.617188 196.222656 31.292969 194.472656 31.292969 193.546875 C 31.292969 192.523438 30.644531 191.847656 29.441406 191.847656 C 28.269531 191.847656 27.441406 192.546875 26.84375 193.398438 C 26.84375 193.195312 26.792969 192.648438 26.34375 192.273438 C 25.941406 191.921875 25.441406 191.847656 25.042969 191.847656 C 23.59375 191.847656 22.816406 192.871094 22.542969 193.246094 C 22.46875 192.320312 21.792969 191.847656 21.066406 191.847656 C 20.34375 191.847656 20.042969 192.472656 19.894531 192.746094 C 19.617188 193.320312 19.417969 194.246094 19.417969 194.296875 C 19.417969 194.472656 19.566406 194.472656 19.59375 194.472656 C 19.769531 194.472656 19.769531 194.445312 19.867188 194.097656 C 20.144531 192.972656 20.46875 192.195312 21.042969 192.195312 C 21.292969 192.195312 21.519531 192.320312 21.519531 192.921875 C 21.519531 193.273438 21.46875 193.445312 21.269531 194.273438 Z M 20.34375 197.945312 "/>
<path style="fill:none;stroke-width:0.8;stroke-linecap:butt;stroke-linejoin:miter;stroke:rgb(100%,0%,0%);stroke-opacity:1;stroke-miterlimit:4;" d="M 37.066406 189.027344 L 37.066406 203.425781 "/>
<path style="fill-rule:evenodd;fill:rgb(100%,0%,0%);fill-opacity:1;stroke-width:0.4;stroke-linecap:butt;stroke-linejoin:miter;stroke:rgb(100%,0%,0%);stroke-opacity:1;stroke-miterlimit:4;" d="M 192.226562 -37.066406 L 193.824219 -38.664062 L 188.226562 -37.066406 L 193.824219 -35.464844 Z M 192.226562 -37.066406 " transform="matrix(0,1,-1,0,0,0)"/>
<path style="fill-rule:evenodd;fill:rgb(100%,0%,0%);fill-opacity:1;stroke-width:0.4;stroke-linecap:butt;stroke-linejoin:miter;stroke:rgb(100%,0%,0%);stroke-opacity:1;stroke-miterlimit:4;" d="M 204.992188 -37.066406 C 204.992188 -36.183594 204.277344 -35.464844 203.394531 -35.464844 C 202.511719 -35.464844 201.792969 -36.183594 201.792969 -37.066406 C 201.792969 -37.949219 202.511719 -38.664062 203.394531 -38.664062 C 204.277344 -38.664062 204.992188 -37.949219 204.992188 -37.066406 Z M 204.992188 -37.066406 " transform="matrix(0,1,-1,0,0,0)"/>
<path style="fill:none;stroke-width:0.8;stroke-linecap:butt;stroke-linejoin:miter;stroke:rgb(100%,0%,0%);stroke-opacity:1;stroke-miterlimit:4;" d="M 334.664062 126.625 L 334.664062 179.425781 "/>
<path style="fill-rule:evenodd;fill:rgb(100%,0%,0%);fill-opacity:1;stroke-width:0.4;stroke-linecap:butt;stroke-linejoin:miter;stroke:rgb(100%,0%,0%);stroke-opacity:1;stroke-miterlimit:4;" d="M 129.824219 -334.664062 L 131.425781 -336.265625 L 125.824219 -334.664062 L 131.425781 -333.066406 Z M 129.824219 -334.664062 " transform="matrix(0,1,-1,0,0,0)"/>
<path style="fill-rule:evenodd;fill:rgb(100%,0%,0%);fill-opacity:1;stroke-width:0.4;stroke-linecap:butt;stroke-linejoin:miter;stroke:rgb(100%,0%,0%);stroke-opacity:1;stroke-miterlimit:4;" d="M -176.226562 334.664062 L -174.625 333.066406 L -180.226562 334.664062 L -174.625 336.265625 Z M -176.226562 334.664062 " transform="matrix(0,-1,1,0,0,0)"/>
<g clip-path="url(#clip4)" clip-rule="nonzero">
<path style=" stroke:none;fill-rule:nonzero;fill:rgb(0%,0%,0%);fill-opacity:1;" d="M 340.53125 156.949219 C 340.40625 157.5 340.355469 157.601562 339.65625 157.601562 C 339.480469 157.601562 339.304688 157.601562 339.304688 157.902344 C 339.304688 158.027344 339.378906 158.101562 339.503906 158.101562 C 339.929688 158.101562 340.40625 158.050781 340.828125 158.050781 C 341.378906 158.050781 341.90625 158.101562 342.429688 158.101562 C 342.503906 158.101562 342.703125 158.101562 342.703125 157.777344 C 342.703125 157.601562 342.554688 157.601562 342.328125 157.601562 C 341.53125 157.601562 341.53125 157.5 341.53125 157.351562 C 341.53125 157.152344 342.203125 154.550781 342.304688 154.152344 C 342.503906 154.625 342.953125 155.175781 343.78125 155.175781 C 345.628906 155.175781 347.628906 152.851562 347.628906 150.5 C 347.628906 149 346.703125 147.949219 345.503906 147.949219 C 344.703125 147.949219 343.929688 148.527344 343.40625 149.152344 C 343.253906 148.277344 342.554688 147.949219 341.980469 147.949219 C 341.230469 147.949219 340.929688 148.574219 340.804688 148.851562 C 340.503906 149.402344 340.304688 150.351562 340.304688 150.402344 C 340.304688 150.574219 340.453125 150.574219 340.480469 150.574219 C 340.65625 150.574219 340.65625 150.550781 340.753906 150.199219 C 341.03125 149.074219 341.355469 148.300781 341.929688 148.300781 C 342.203125 148.300781 342.429688 148.425781 342.429688 149.027344 C 342.429688 149.402344 342.378906 149.574219 342.304688 149.851562 Z M 343.328125 150.027344 C 343.429688 149.601562 343.878906 149.152344 344.15625 148.902344 C 344.730469 148.425781 345.179688 148.300781 345.453125 148.300781 C 346.078125 148.300781 346.480469 148.851562 346.480469 149.800781 C 346.480469 150.75 345.953125 152.574219 345.65625 153.175781 C 345.105469 154.300781 344.355469 154.824219 343.753906 154.824219 C 342.703125 154.824219 342.503906 153.5 342.503906 153.402344 C 342.503906 153.375 342.503906 153.351562 342.554688 153.152344 Z M 343.328125 150.027344 "/>
</g>
<path style="fill:none;stroke-width:0.8;stroke-linecap:butt;stroke-linejoin:miter;stroke:rgb(100%,0%,0%);stroke-opacity:1;stroke-miterlimit:4;" d="M 334.664062 6.625 L 334.664062 117.027344 "/>
<path style="fill-rule:evenodd;fill:rgb(100%,0%,0%);fill-opacity:1;stroke-width:0.4;stroke-linecap:butt;stroke-linejoin:miter;stroke:rgb(100%,0%,0%);stroke-opacity:1;stroke-miterlimit:4;" d="M 9.824219 -334.664062 L 11.425781 -336.265625 L 5.824219 -334.664062 L 11.425781 -333.066406 Z M 9.824219 -334.664062 " transform="matrix(0,1,-1,0,0,0)"/>
<path style="fill-rule:evenodd;fill:rgb(100%,0%,0%);fill-opacity:1;stroke-width:0.4;stroke-linecap:butt;stroke-linejoin:miter;stroke:rgb(100%,0%,0%);stroke-opacity:1;stroke-miterlimit:4;" d="M -113.824219 334.664062 L -112.226562 333.066406 L -117.824219 334.664062 L -112.226562 336.265625 Z M -113.824219 334.664062 " transform="matrix(0,-1,1,0,0,0)"/>
<g clip-path="url(#clip5)" clip-rule="nonzero">
<path style=" stroke:none;fill-rule:nonzero;fill:rgb(0%,0%,0%);fill-opacity:1;" d="M 343.003906 56.375 C 343.003906 56.375 343.003906 56.199219 342.804688 56.199219 C 342.429688 56.199219 341.28125 56.324219 340.855469 56.375 C 340.730469 56.375 340.554688 56.402344 340.554688 56.675781 C 340.554688 56.875 340.703125 56.875 340.929688 56.875 C 341.703125 56.875 341.730469 56.976562 341.730469 57.152344 L 341.679688 57.476562 L 339.378906 66.652344 C 339.304688 66.875 339.304688 66.902344 339.304688 67 C 339.304688 67.375 339.628906 67.449219 339.78125 67.449219 C 340.03125 67.449219 340.28125 67.25 340.355469 67.027344 L 340.65625 65.824219 L 341.003906 64.402344 C 341.105469 64.027344 341.203125 63.675781 341.28125 63.324219 C 341.304688 63.226562 341.453125 62.699219 341.453125 62.601562 C 341.503906 62.449219 342.003906 61.574219 342.554688 61.125 C 342.90625 60.875 343.378906 60.574219 344.078125 60.574219 C 344.753906 60.574219 344.929688 61.125 344.929688 61.699219 C 344.929688 62.550781 344.328125 64.300781 343.953125 65.277344 C 343.828125 65.625 343.730469 65.824219 343.730469 66.152344 C 343.730469 66.902344 344.304688 67.449219 345.054688 67.449219 C 346.554688 67.449219 347.128906 65.125 347.128906 65 C 347.128906 64.824219 347.003906 64.824219 346.953125 64.824219 C 346.78125 64.824219 346.78125 64.875 346.703125 65.125 C 346.480469 65.976562 345.953125 67.101562 345.078125 67.101562 C 344.804688 67.101562 344.703125 66.949219 344.703125 66.574219 C 344.703125 66.175781 344.828125 65.800781 344.980469 65.449219 C 345.230469 64.75 345.953125 62.851562 345.953125 61.925781 C 345.953125 60.902344 345.328125 60.226562 344.128906 60.226562 C 343.128906 60.226562 342.355469 60.726562 341.753906 61.449219 Z M 343.003906 56.375 "/>
</g>
<path style="fill:none;stroke-width:0.8;stroke-linecap:butt;stroke-linejoin:miter;stroke:rgb(100%,0%,0%);stroke-opacity:1;stroke-miterlimit:4;" d="M 267.464844 213.027344 L 61.066406 213.027344 "/>
<path style="fill-rule:evenodd;fill:rgb(100%,0%,0%);fill-opacity:1;stroke-width:0.4;stroke-linecap:butt;stroke-linejoin:miter;stroke:rgb(100%,0%,0%);stroke-opacity:1;stroke-miterlimit:4;" d="M -264.265625 -213.027344 L -262.664062 -214.625 L -268.265625 -213.027344 L -262.664062 -211.425781 Z M -264.265625 -213.027344 " transform="matrix(-1,0,0,-1,0,0)"/>
<path style="fill-rule:evenodd;fill:rgb(100%,0%,0%);fill-opacity:1;stroke-width:0.4;stroke-linecap:butt;stroke-linejoin:miter;stroke:rgb(100%,0%,0%);stroke-opacity:1;stroke-miterlimit:4;" d="M 64.265625 213.027344 L 65.867188 211.425781 L 60.265625 213.027344 L 65.867188 214.625 Z M 64.265625 213.027344 "/>
<path style="fill:none;stroke-width:0.4;stroke-linecap:round;stroke-linejoin:round;stroke:rgb(100%,0%,0%);stroke-opacity:1;stroke-miterlimit:4;" d="M 94.175781 154.78125 C 97.929688 159.617188 100.726562 165.125 102.410156 171.011719 "/>
<path style="fill-rule:evenodd;fill:rgb(100%,0%,0%);fill-opacity:1;stroke-width:0.157954;stroke-linecap:butt;stroke-linejoin:miter;stroke:rgb(100%,0%,0%);stroke-opacity:1;stroke-miterlimit:4;" d="M 143.429929 16.244485 L 144.060754 15.613347 L 141.848958 16.243121 L 144.061068 16.87531 Z M 143.429929 16.244485 " transform="matrix(0.776691,1,-1,0.776691,0,0)"/>
<path style="fill-rule:evenodd;fill:rgb(100%,0%,0%);fill-opacity:1;stroke-width:0.192271;stroke-linecap:butt;stroke-linejoin:miter;stroke:rgb(100%,0%,0%);stroke-opacity:1;stroke-miterlimit:4;" d="M 185.908375 -49.38456 C 185.908631 -48.962611 185.563328 -48.616186 185.13777 -48.616964 C 184.715822 -48.616708 184.369397 -48.962011 184.370175 -49.387569 C 184.369918 -49.809518 184.715221 -50.155942 185.13717 -50.156199 C 185.562728 -50.155421 185.909153 -49.810118 185.908375 -49.38456 Z M 185.908375 -49.38456 " transform="matrix(0.28638,1,-1,0.28638,0,0)"/>
<path style=" stroke:none;fill-rule:nonzero;fill:rgb(0%,0%,0%);fill-opacity:1;" d="M 95.082031 163.089844 C 95.082031 162.039062 94.808594 159.8125 93.183594 159.8125 C 90.957031 159.8125 88.507812 164.3125 88.507812 167.964844 C 88.507812 169.464844 88.957031 171.238281 90.40625 171.238281 C 92.65625 171.238281 95.082031 166.664062 95.082031 163.089844 Z M 90.183594 165.261719 C 90.457031 164.261719 90.78125 162.988281 91.433594 161.839844 C 91.855469 161.0625 92.433594 160.164062 93.15625 160.164062 C 93.933594 160.164062 94.03125 161.1875 94.03125 162.089844 C 94.03125 162.886719 93.90625 163.6875 93.53125 165.261719 Z M 93.382812 165.789062 C 93.207031 166.511719 92.882812 167.863281 92.257812 169.011719 C 91.707031 170.113281 91.105469 170.886719 90.40625 170.886719 C 89.882812 170.886719 89.558594 170.414062 89.558594 168.9375 C 89.558594 168.261719 89.65625 167.339844 90.058594 165.789062 Z M 93.382812 165.789062 "/>
<path style="fill:none;stroke-width:0.4;stroke-linecap:round;stroke-linejoin:round;stroke:rgb(100%,0%,0%);stroke-opacity:1;stroke-miterlimit:4;" d="M 112.101562 170.074219 C 113.273438 174.699219 113.867188 179.453125 113.867188 184.226562 "/>
<path style="fill-rule:evenodd;fill:rgb(100%,0%,0%);fill-opacity:1;stroke-width:0.193869;stroke-linecap:butt;stroke-linejoin:miter;stroke:rgb(100%,0%,0%);stroke-opacity:1;stroke-miterlimit:4;" d="M 188.056525 -64.823243 L 188.831412 -65.59948 L 186.115101 -64.823172 L 188.832762 -64.048356 Z M 188.056525 -64.823243 " transform="matrix(0.253482,1,-1,0.253482,0,0)"/>
<path style="fill-rule:evenodd;fill:rgb(100%,0%,0%);fill-opacity:1;stroke-width:0.2;stroke-linecap:butt;stroke-linejoin:miter;stroke:rgb(100%,0%,0%);stroke-opacity:1;stroke-miterlimit:4;" d="M 185.011719 -113.867188 C 185.011719 -113.425781 184.652344 -113.066406 184.210938 -113.066406 C 183.769531 -113.066406 183.410156 -113.425781 183.410156 -113.867188 C 183.410156 -114.308594 183.769531 -114.664062 184.210938 -114.664062 C 184.652344 -114.664062 185.011719 -114.308594 185.011719 -113.867188 Z M 185.011719 -113.867188 " transform="matrix(0,1,-1,0,0,0)"/>
<path style=" stroke:none;fill-rule:nonzero;fill:rgb(0%,0%,0%);fill-opacity:1;" d="M 118.429688 180.714844 C 118.378906 180.9375 118.351562 180.964844 118.351562 181.039062 C 118.351562 181.386719 118.652344 181.488281 118.828125 181.488281 C 118.902344 181.488281 119.253906 181.4375 119.402344 181.0625 C 119.453125 180.9375 119.527344 180.414062 119.976562 178.164062 C 120.101562 178.164062 120.226562 178.1875 120.503906 178.1875 C 123.152344 178.1875 125.601562 175.6875 125.601562 173.164062 C 125.601562 171.914062 124.976562 170.964844 123.777344 170.964844 C 121.476562 170.964844 120.503906 174.0625 119.554688 177.164062 C 117.828125 176.839844 116.929688 175.964844 116.929688 174.8125 C 116.929688 174.363281 117.304688 172.613281 118.253906 171.511719 C 118.402344 171.363281 118.402344 171.339844 118.402344 171.289062 C 118.402344 171.238281 118.351562 171.136719 118.203125 171.136719 C 117.753906 171.136719 116.527344 173.464844 116.527344 174.988281 C 116.527344 176.488281 117.578125 177.636719 119.277344 178.039062 Z M 120.652344 177.261719 C 120.503906 177.261719 120.476562 177.261719 120.351562 177.238281 C 120.152344 177.238281 120.152344 177.238281 120.152344 177.1875 C 120.152344 177.164062 120.429688 175.6875 120.453125 175.464844 C 120.953125 173.414062 122.203125 171.886719 123.628906 171.886719 C 124.726562 171.886719 125.152344 172.738281 125.152344 173.511719 C 125.152344 175.3125 123.101562 177.261719 120.652344 177.261719 Z M 120.652344 177.261719 "/>
</g>
</svg>
