<?xml version="1.0" encoding="UTF-8"?>
<svg xmlns="http://www.w3.org/2000/svg" xmlns:xlink="http://www.w3.org/1999/xlink" width="155.534958pt" height="119.805695pt" viewBox="0 0 155.534958 119.805695" version="1.1">
<defs>
<clipPath id="clip1">
  <path d="M 14 0 L 16 0 L 16 119.804688 L 14 119.804688 Z M 14 0 "/>
</clipPath>
<clipPath id="clip2">
  <path d="M 152 6 L 155.535156 6 L 155.535156 19 L 152 19 Z M 152 6 "/>
</clipPath>
</defs>
<g id="surface1">
<path style="fill:none;stroke-width:0.4;stroke-linecap:butt;stroke-linejoin:miter;stroke:rgb(0%,0%,0%);stroke-opacity:1;stroke-dasharray:0.4,0.4;stroke-miterlimit:4;" d="M 14.828125 60.851562 L 60.167969 60.851562 L 60.167969 101.46875 L 14.925781 101.46875 "/>
<path style="fill:none;stroke-width:0.4;stroke-linecap:butt;stroke-linejoin:miter;stroke:rgb(0%,0%,0%);stroke-opacity:1;stroke-dasharray:0.4,0.4;stroke-miterlimit:4;" d="M 60.257812 60.566406 L 60.074219 35.703125 L 14.835938 35.703125 "/>
<path style="fill:none;stroke-width:1.6;stroke-linecap:butt;stroke-linejoin:miter;stroke:rgb(0%,0%,0%);stroke-opacity:1;stroke-miterlimit:4;" d="M 14.574219 82.976562 L 59.550781 61.058594 "/>
<g clip-path="url(#clip1)" clip-rule="nonzero">
<path style="fill:none;stroke-width:0.8;stroke-linecap:round;stroke-linejoin:round;stroke:rgb(100%,0%,0%);stroke-opacity:1;stroke-miterlimit:4;" d="M 14.714844 0.417969 L 14.714844 119.410156 "/>
</g>
<path style="fill:none;stroke-width:0.8;stroke-linecap:round;stroke-linejoin:round;stroke:rgb(100%,0%,0%);stroke-opacity:1;stroke-miterlimit:4;" d="M 2.089844 83.167969 L 116.429688 83.167969 "/>
<path style=" stroke:none;fill-rule:nonzero;fill:rgb(0%,0%,0%);fill-opacity:1;" d="M 23.617188 1.308594 C 23.671875 1.140625 23.671875 1.121094 23.671875 1.027344 C 23.671875 0.824219 23.503906 0.710938 23.316406 0.710938 C 23.203125 0.710938 23.015625 0.785156 22.902344 0.953125 C 22.886719 1.027344 22.773438 1.386719 22.734375 1.609375 C 22.640625 1.910156 22.566406 2.246094 22.492188 2.566406 L 21.949219 4.722656 C 21.910156 4.890625 21.386719 5.734375 20.597656 5.734375 C 19.996094 5.734375 19.867188 5.210938 19.867188 4.761719 C 19.867188 4.214844 20.074219 3.464844 20.464844 2.417969 C 20.652344 1.929688 20.710938 1.796875 20.710938 1.554688 C 20.710938 1.027344 20.335938 0.578125 19.734375 0.578125 C 18.589844 0.578125 18.160156 2.324219 18.160156 2.417969 C 18.160156 2.546875 18.273438 2.546875 18.292969 2.546875 C 18.421875 2.546875 18.421875 2.511719 18.480469 2.324219 C 18.816406 1.199219 19.285156 0.839844 19.699219 0.839844 C 19.792969 0.839844 19.996094 0.839844 19.996094 1.214844 C 19.996094 1.515625 19.867188 1.835938 19.792969 2.058594 C 19.304688 3.335938 19.097656 4.011719 19.097656 4.574219 C 19.097656 5.640625 19.847656 5.996094 20.558594 5.996094 C 21.027344 5.996094 21.421875 5.792969 21.761719 5.453125 C 21.609375 6.074219 21.460938 6.671875 20.992188 7.308594 C 20.671875 7.703125 20.222656 8.058594 19.679688 8.058594 C 19.511719 8.058594 18.964844 8.023438 18.761719 7.554688 C 18.949219 7.554688 19.117188 7.554688 19.265625 7.402344 C 19.398438 7.308594 19.511719 7.140625 19.511719 6.917969 C 19.511719 6.542969 19.191406 6.503906 19.078125 6.503906 C 18.796875 6.503906 18.402344 6.691406 18.402344 7.273438 C 18.402344 7.871094 18.929688 8.324219 19.679688 8.324219 C 20.898438 8.324219 22.136719 7.234375 22.472656 5.886719 Z M 23.617188 1.308594 "/>
<path style=" stroke:none;fill-rule:nonzero;fill:rgb(0%,0%,0%);fill-opacity:1;" d="M 116.675781 88.414062 C 116.75 88.113281 117.03125 87.007812 117.855469 87.007812 C 117.910156 87.007812 118.210938 87.007812 118.457031 87.15625 C 118.117188 87.230469 117.894531 87.511719 117.894531 87.8125 C 117.894531 88 118.023438 88.226562 118.34375 88.226562 C 118.605469 88.226562 118.980469 88.019531 118.980469 87.53125 C 118.980469 86.914062 118.285156 86.746094 117.875 86.746094 C 117.179688 86.746094 116.769531 87.382812 116.617188 87.644531 C 116.316406 86.855469 115.679688 86.746094 115.324219 86.746094 C 114.085938 86.746094 113.394531 88.28125 113.394531 88.582031 C 113.394531 88.714844 113.523438 88.714844 113.542969 88.714844 C 113.636719 88.714844 113.675781 88.675781 113.691406 88.582031 C 114.105469 87.308594 114.894531 87.007812 115.304688 87.007812 C 115.53125 87.007812 115.941406 87.121094 115.941406 87.8125 C 115.941406 88.1875 115.738281 88.976562 115.304688 90.664062 C 115.117188 91.394531 114.6875 91.902344 114.160156 91.902344 C 114.085938 91.902344 113.824219 91.902344 113.5625 91.75 C 113.863281 91.675781 114.125 91.433594 114.125 91.09375 C 114.125 90.777344 113.863281 90.683594 113.691406 90.683594 C 113.316406 90.683594 113.035156 90.980469 113.035156 91.375 C 113.035156 91.917969 113.617188 92.164062 114.144531 92.164062 C 114.949219 92.164062 115.378906 91.320312 115.398438 91.261719 C 115.550781 91.695312 115.980469 92.164062 116.691406 92.164062 C 117.929688 92.164062 118.605469 90.625 118.605469 90.324219 C 118.605469 90.195312 118.511719 90.195312 118.472656 90.195312 C 118.363281 90.195312 118.34375 90.25 118.304688 90.324219 C 117.910156 91.621094 117.105469 91.902344 116.730469 91.902344 C 116.261719 91.902344 116.074219 91.527344 116.074219 91.113281 C 116.074219 90.851562 116.128906 90.589844 116.261719 90.0625 Z M 116.675781 88.414062 "/>
<path style="fill-rule:nonzero;fill:rgb(100%,100%,100%);fill-opacity:1;stroke-width:0.8;stroke-linecap:round;stroke-linejoin:round;stroke:rgb(0%,0%,0%);stroke-opacity:1;stroke-miterlimit:4;" d="M -58.605469 -60.964844 C -58.605469 -60.046875 -59.351562 -59.300781 -60.269531 -59.300781 C -61.191406 -59.300781 -61.9375 -60.046875 -61.9375 -60.964844 C -61.9375 -61.886719 -61.191406 -62.632812 -60.269531 -62.632812 C -59.351562 -62.632812 -58.605469 -61.886719 -58.605469 -60.964844 Z M -58.605469 -60.964844 " transform="matrix(-1,0,0,-1,0,0)"/>
<path style=" stroke:none;fill-rule:nonzero;fill:rgb(0%,0%,0%);fill-opacity:1;" d="M 117.042969 11.351562 C 117.101562 11.183594 117.101562 11.164062 117.101562 11.070312 C 117.101562 10.863281 116.933594 10.753906 116.746094 10.753906 C 116.632812 10.753906 116.445312 10.828125 116.332031 10.996094 C 116.3125 11.070312 116.199219 11.425781 116.164062 11.652344 C 116.070312 11.953125 115.996094 12.289062 115.917969 12.609375 L 115.375 14.765625 C 115.339844 14.933594 114.8125 15.777344 114.027344 15.777344 C 113.425781 15.777344 113.292969 15.253906 113.292969 14.800781 C 113.292969 14.257812 113.5 13.507812 113.894531 12.457031 C 114.082031 11.972656 114.136719 11.839844 114.136719 11.597656 C 114.136719 11.070312 113.761719 10.621094 113.164062 10.621094 C 112.019531 10.621094 111.589844 12.363281 111.589844 12.457031 C 111.589844 12.589844 111.699219 12.589844 111.71875 12.589844 C 111.851562 12.589844 111.851562 12.550781 111.90625 12.363281 C 112.246094 11.238281 112.714844 10.882812 113.125 10.882812 C 113.21875 10.882812 113.425781 10.882812 113.425781 11.257812 C 113.425781 11.558594 113.292969 11.878906 113.21875 12.101562 C 112.730469 13.378906 112.527344 14.050781 112.527344 14.613281 C 112.527344 15.683594 113.277344 16.039062 113.988281 16.039062 C 114.457031 16.039062 114.851562 15.832031 115.1875 15.496094 C 115.039062 16.113281 114.886719 16.714844 114.417969 17.351562 C 114.101562 17.746094 113.652344 18.101562 113.105469 18.101562 C 112.9375 18.101562 112.394531 18.066406 112.1875 17.597656 C 112.375 17.597656 112.542969 17.597656 112.695312 17.445312 C 112.824219 17.351562 112.9375 17.183594 112.9375 16.957031 C 112.9375 16.582031 112.621094 16.546875 112.507812 16.546875 C 112.226562 16.546875 111.832031 16.734375 111.832031 17.316406 C 111.832031 17.914062 112.355469 18.363281 113.105469 18.363281 C 114.324219 18.363281 115.5625 17.277344 115.902344 15.925781 Z M 117.042969 11.351562 "/>
<path style=" stroke:none;fill-rule:nonzero;fill:rgb(0%,0%,0%);fill-opacity:1;" d="M 129.054688 11.988281 C 129.242188 11.988281 129.46875 11.988281 129.46875 11.765625 C 129.46875 11.519531 129.242188 11.519531 129.074219 11.519531 L 121.910156 11.519531 C 121.742188 11.519531 121.519531 11.519531 121.519531 11.765625 C 121.519531 11.988281 121.742188 11.988281 121.910156 11.988281 Z M 129.074219 14.316406 C 129.242188 14.316406 129.46875 14.316406 129.46875 14.070312 C 129.46875 13.847656 129.242188 13.847656 129.054688 13.847656 L 121.910156 13.847656 C 121.742188 13.847656 121.519531 13.847656 121.519531 14.070312 C 121.519531 14.316406 121.742188 14.316406 121.910156 14.316406 Z M 129.074219 14.316406 "/>
<path style=" stroke:none;fill-rule:nonzero;fill:rgb(0%,0%,0%);fill-opacity:1;" d="M 137.851562 11.128906 L 138.882812 11.128906 C 139.125 11.128906 139.238281 11.128906 139.238281 10.882812 C 139.238281 10.753906 139.125 10.753906 138.917969 10.753906 L 137.925781 10.753906 L 138.167969 9.382812 C 138.226562 9.140625 138.394531 8.296875 138.46875 8.144531 C 138.5625 7.921875 138.769531 7.734375 139.03125 7.734375 C 139.070312 7.734375 139.386719 7.734375 139.613281 7.957031 C 139.085938 7.996094 138.957031 8.425781 138.957031 8.597656 C 138.957031 8.878906 139.179688 9.027344 139.40625 9.027344 C 139.726562 9.027344 140.0625 8.746094 140.0625 8.296875 C 140.0625 7.753906 139.519531 7.472656 139.03125 7.472656 C 138.617188 7.472656 137.867188 7.695312 137.511719 8.878906 C 137.4375 9.121094 137.398438 9.253906 137.117188 10.753906 L 136.292969 10.753906 C 136.050781 10.753906 135.917969 10.753906 135.917969 10.976562 C 135.917969 11.128906 136.03125 11.128906 136.257812 11.128906 L 137.042969 11.128906 L 136.164062 15.851562 C 135.9375 17.015625 135.730469 18.101562 135.113281 18.101562 C 135.054688 18.101562 134.773438 18.101562 134.53125 17.878906 C 135.09375 17.839844 135.207031 17.410156 135.207031 17.238281 C 135.207031 16.957031 134.980469 16.808594 134.757812 16.808594 C 134.4375 16.808594 134.101562 17.089844 134.101562 17.539062 C 134.101562 18.066406 134.625 18.363281 135.113281 18.363281 C 135.769531 18.363281 136.257812 17.652344 136.460938 17.203125 C 136.855469 16.453125 137.117188 15.007812 137.136719 14.914062 Z M 137.851562 11.128906 "/>
<path style=" stroke:none;fill-rule:nonzero;fill:rgb(0%,0%,0%);fill-opacity:1;" d="M 144.558594 18.777344 C 144.558594 18.738281 144.558594 18.722656 144.351562 18.515625 C 142.871094 17.015625 142.476562 14.746094 142.476562 12.910156 C 142.476562 10.828125 142.925781 8.746094 144.410156 7.265625 C 144.558594 7.113281 144.558594 7.097656 144.558594 7.058594 C 144.558594 6.964844 144.519531 6.925781 144.445312 6.925781 C 144.316406 6.925781 143.246094 7.753906 142.535156 9.269531 C 141.933594 10.582031 141.785156 11.914062 141.785156 12.910156 C 141.785156 13.847656 141.914062 15.289062 142.570312 16.660156 C 143.300781 18.121094 144.316406 18.910156 144.445312 18.910156 C 144.519531 18.910156 144.558594 18.871094 144.558594 18.777344 Z M 144.558594 18.777344 "/>
<path style=" stroke:none;fill-rule:nonzero;fill:rgb(0%,0%,0%);fill-opacity:1;" d="M 149.246094 12.289062 C 149.320312 11.988281 149.601562 10.882812 150.425781 10.882812 C 150.484375 10.882812 150.785156 10.882812 151.027344 11.035156 C 150.691406 11.109375 150.464844 11.390625 150.464844 11.691406 C 150.464844 11.878906 150.597656 12.101562 150.914062 12.101562 C 151.175781 12.101562 151.550781 11.894531 151.550781 11.410156 C 151.550781 10.789062 150.859375 10.621094 150.445312 10.621094 C 149.753906 10.621094 149.339844 11.257812 149.191406 11.519531 C 148.890625 10.734375 148.253906 10.621094 147.894531 10.621094 C 146.660156 10.621094 145.964844 12.160156 145.964844 12.457031 C 145.964844 12.589844 146.097656 12.589844 146.113281 12.589844 C 146.207031 12.589844 146.246094 12.550781 146.265625 12.457031 C 146.675781 11.183594 147.464844 10.882812 147.878906 10.882812 C 148.101562 10.882812 148.515625 10.996094 148.515625 11.691406 C 148.515625 12.066406 148.308594 12.851562 147.878906 14.539062 C 147.691406 15.269531 147.257812 15.777344 146.734375 15.777344 C 146.660156 15.777344 146.394531 15.777344 146.132812 15.628906 C 146.433594 15.550781 146.695312 15.308594 146.695312 14.972656 C 146.695312 14.652344 146.433594 14.558594 146.265625 14.558594 C 145.890625 14.558594 145.609375 14.859375 145.609375 15.253906 C 145.609375 15.796875 146.191406 16.039062 146.714844 16.039062 C 147.519531 16.039062 147.953125 15.195312 147.972656 15.140625 C 148.121094 15.570312 148.550781 16.039062 149.265625 16.039062 C 150.503906 16.039062 151.175781 14.503906 151.175781 14.203125 C 151.175781 14.070312 151.082031 14.070312 151.046875 14.070312 C 150.933594 14.070312 150.914062 14.128906 150.878906 14.203125 C 150.484375 15.496094 149.675781 15.777344 149.300781 15.777344 C 148.832031 15.777344 148.644531 15.402344 148.644531 14.988281 C 148.644531 14.726562 148.703125 14.464844 148.832031 13.941406 Z M 149.246094 12.289062 "/>
<g clip-path="url(#clip2)" clip-rule="nonzero">
<path style=" stroke:none;fill-rule:nonzero;fill:rgb(0%,0%,0%);fill-opacity:1;" d="M 155.535156 12.910156 C 155.535156 11.988281 155.402344 10.546875 154.746094 9.175781 C 154.035156 7.714844 153.003906 6.925781 152.890625 6.925781 C 152.816406 6.925781 152.761719 6.984375 152.761719 7.058594 C 152.761719 7.097656 152.761719 7.113281 152.984375 7.339844 C 154.167969 8.519531 154.839844 10.414062 154.839844 12.910156 C 154.839844 14.972656 154.410156 17.070312 152.929688 18.570312 C 152.761719 18.722656 152.761719 18.738281 152.761719 18.777344 C 152.761719 18.851562 152.816406 18.910156 152.890625 18.910156 C 153.003906 18.910156 154.089844 18.082031 154.785156 16.566406 C 155.402344 15.253906 155.535156 13.921875 155.535156 12.910156 Z M 155.535156 12.910156 "/>
</g>
<path style="fill-rule:nonzero;fill:rgb(0%,0%,0%);fill-opacity:1;stroke-width:0.8;stroke-linecap:round;stroke-linejoin:round;stroke:rgb(0%,0%,0%);stroke-opacity:1;stroke-miterlimit:4;" d="M -58.597656 -101.402344 C -58.597656 -100.484375 -59.34375 -99.738281 -60.265625 -99.738281 C -61.183594 -99.738281 -61.929688 -100.484375 -61.929688 -101.402344 C -61.929688 -102.324219 -61.183594 -103.070312 -60.265625 -103.070312 C -59.34375 -103.070312 -58.597656 -102.324219 -58.597656 -101.402344 Z M -58.597656 -101.402344 " transform="matrix(-1,0,0,-1,0,0)"/>
<path style=" stroke:none;fill-rule:nonzero;fill:rgb(100%,100%,100%);fill-opacity:1;" d="M 56.140625 85.390625 L 63.90625 85.390625 L 63.90625 96.605469 L 56.140625 96.605469 Z M 56.140625 85.390625 "/>
<path style=" stroke:none;fill-rule:nonzero;fill:rgb(0%,0%,0%);fill-opacity:1;" d="M 58.613281 93.519531 L 59.886719 92.285156 C 61.742188 90.632812 62.457031 89.996094 62.457031 88.796875 C 62.457031 87.425781 61.386719 86.472656 59.925781 86.472656 C 58.574219 86.472656 57.691406 87.578125 57.691406 88.644531 C 57.691406 89.300781 58.292969 89.300781 58.332031 89.300781 C 58.535156 89.300781 58.949219 89.171875 58.949219 88.664062 C 58.949219 88.363281 58.722656 88.046875 58.3125 88.046875 C 58.21875 88.046875 58.199219 88.046875 58.160156 88.066406 C 58.425781 87.277344 59.082031 86.847656 59.773438 86.847656 C 60.863281 86.847656 61.367188 87.820312 61.367188 88.796875 C 61.367188 89.753906 60.785156 90.691406 60.113281 91.441406 L 57.824219 93.988281 C 57.691406 94.121094 57.691406 94.160156 57.691406 94.441406 L 62.136719 94.441406 L 62.457031 92.359375 L 62.175781 92.359375 C 62.097656 92.714844 62.023438 93.238281 61.894531 93.425781 C 61.816406 93.519531 61.03125 93.519531 60.769531 93.519531 Z M 58.613281 93.519531 "/>
<path style=" stroke:none;fill-rule:nonzero;fill:rgb(0%,0%,0%);fill-opacity:1;" d="M 13.066406 36.800781 C 13.066406 35.375 12.09375 34.175781 10.796875 34.175781 C 10.234375 34.175781 9.710938 34.363281 9.28125 34.796875 L 9.28125 32.453125 C 9.523438 32.527344 9.917969 32.601562 10.292969 32.601562 C 11.773438 32.601562 12.617188 31.515625 12.617188 31.363281 C 12.617188 31.289062 12.578125 31.234375 12.484375 31.234375 C 12.484375 31.234375 12.449219 31.234375 12.390625 31.269531 C 12.148438 31.382812 11.566406 31.625 10.761719 31.625 C 10.292969 31.625 9.730469 31.53125 9.167969 31.289062 C 9.074219 31.25 9.054688 31.25 9.035156 31.25 C 8.90625 31.25 8.90625 31.34375 8.90625 31.53125 L 8.90625 35.078125 C 8.90625 35.28125 8.90625 35.375 9.074219 35.375 C 9.167969 35.375 9.1875 35.359375 9.242188 35.28125 C 9.375 35.09375 9.804688 34.4375 10.78125 34.4375 C 11.398438 34.4375 11.699219 34.984375 11.792969 35.207031 C 11.980469 35.65625 12.015625 36.109375 12.015625 36.707031 C 12.015625 37.140625 12.015625 37.851562 11.71875 38.359375 C 11.4375 38.828125 10.984375 39.125 10.441406 39.125 C 9.578125 39.125 8.886719 38.488281 8.679688 37.796875 C 8.71875 37.796875 8.753906 37.8125 8.886719 37.8125 C 9.28125 37.8125 9.484375 37.515625 9.484375 37.234375 C 9.484375 36.933594 9.28125 36.632812 8.886719 36.632812 C 8.71875 36.632812 8.304688 36.726562 8.304688 37.269531 C 8.304688 38.300781 9.128906 39.464844 10.460938 39.464844 C 11.847656 39.464844 13.066406 38.320312 13.066406 36.800781 Z M 13.066406 36.800781 "/>
<path style=" stroke:none;fill-rule:nonzero;fill:rgb(0%,0%,0%);fill-opacity:1;" d="M 6.882812 102.460938 C 7.085938 102.460938 7.3125 102.460938 7.3125 102.214844 C 7.3125 101.992188 7.085938 101.992188 6.882812 101.992188 L 0.414062 101.992188 C 0.207031 101.992188 0 101.992188 0 102.214844 C 0 102.460938 0.207031 102.460938 0.414062 102.460938 Z M 6.882812 102.460938 "/>
<path style=" stroke:none;fill-rule:nonzero;fill:rgb(0%,0%,0%);fill-opacity:1;" d="M 11.828125 97.566406 C 11.828125 97.265625 11.828125 97.246094 11.546875 97.246094 C 10.796875 98.015625 9.75 98.015625 9.375 98.015625 L 9.375 98.390625 C 9.617188 98.390625 10.3125 98.390625 10.929688 98.070312 L 10.929688 104.277344 C 10.929688 104.710938 10.890625 104.839844 9.824219 104.839844 L 9.449219 104.839844 L 9.449219 105.214844 C 9.859375 105.179688 10.890625 105.179688 11.378906 105.179688 C 11.847656 105.179688 12.898438 105.179688 13.3125 105.214844 L 13.3125 104.839844 L 12.9375 104.839844 C 11.847656 104.839844 11.828125 104.710938 11.828125 104.277344 Z M 11.828125 97.566406 "/>
<path style=" stroke:none;fill-rule:nonzero;fill:rgb(0%,0%,0%);fill-opacity:1;" d="M 8.945312 61.582031 L 10.21875 60.34375 C 12.074219 58.695312 12.789062 58.054688 12.789062 56.855469 C 12.789062 55.488281 11.71875 54.53125 10.257812 54.53125 C 8.90625 54.53125 8.027344 55.636719 8.027344 56.707031 C 8.027344 57.363281 8.625 57.363281 8.664062 57.363281 C 8.871094 57.363281 9.28125 57.230469 9.28125 56.726562 C 9.28125 56.425781 9.058594 56.105469 8.644531 56.105469 C 8.550781 56.105469 8.53125 56.105469 8.496094 56.125 C 8.757812 55.335938 9.414062 54.90625 10.105469 54.90625 C 11.195312 54.90625 11.699219 55.882812 11.699219 56.855469 C 11.699219 57.8125 11.121094 58.75 10.445312 59.5 L 8.15625 62.050781 C 8.027344 62.179688 8.027344 62.21875 8.027344 62.5 L 12.46875 62.5 L 12.789062 60.417969 L 12.507812 60.417969 C 12.433594 60.773438 12.355469 61.300781 12.226562 61.488281 C 12.152344 61.582031 11.363281 61.582031 11.101562 61.582031 Z M 8.945312 61.582031 "/>
<path style="fill:none;stroke-width:1.6;stroke-linecap:butt;stroke-linejoin:miter;stroke:rgb(0%,0%,0%);stroke-opacity:1;stroke-miterlimit:4;" d="M 59.863281 35.859375 L 104.839844 13.945312 "/>
<path style="fill-rule:nonzero;fill:rgb(100%,100%,100%);fill-opacity:1;stroke-width:0.8;stroke-linecap:round;stroke-linejoin:round;stroke:rgb(0%,0%,0%);stroke-opacity:1;stroke-miterlimit:4;" d="M -58.40625 -35.777344 C -58.40625 -34.859375 -59.152344 -34.113281 -60.070312 -34.113281 C -60.992188 -34.113281 -61.738281 -34.859375 -61.738281 -35.777344 C -61.738281 -36.699219 -60.992188 -37.445312 -60.070312 -37.445312 C -59.152344 -37.445312 -58.40625 -36.699219 -58.40625 -35.777344 Z M -58.40625 -35.777344 " transform="matrix(-1,0,0,-1,0,0)"/>
</g>
</svg>
