<?xml version="1.0" encoding="UTF-8"?>
<svg xmlns="http://www.w3.org/2000/svg" xmlns:xlink="http://www.w3.org/1999/xlink" width="213.644012pt" height="119.272705pt" viewBox="0 0 213.644012 119.272705" version="1.1">
<defs>
<clipPath id="clip1">
  <path d="M 6 110 L 15 110 L 15 119.273438 L 6 119.273438 Z M 6 110 "/>
</clipPath>
<clipPath id="clip2">
  <path d="M 205 70 L 213.644531 70 L 213.644531 79 L 205 79 Z M 205 70 "/>
</clipPath>
<clipPath id="clip3">
  <path d="M 30 7 L 193 7 L 193 119.273438 L 30 119.273438 Z M 30 7 "/>
</clipPath>
<clipPath id="clip4">
  <path d="M 176 106 L 191 106 L 191 119.273438 L 176 119.273438 Z M 176 106 "/>
</clipPath>
</defs>
<g id="surface1">
<path style="fill:none;stroke-width:0.8;stroke-linecap:butt;stroke-linejoin:miter;stroke:rgb(100%,0%,0%);stroke-opacity:1;stroke-miterlimit:4;" d="M 10.515625 117.746094 L 10.515625 2.542969 "/>
<path style=" stroke:none;fill-rule:evenodd;fill:rgb(100%,0%,0%);fill-opacity:1;" d="M 10.515625 114.542969 L 8.914062 112.945312 L 10.515625 118.542969 L 12.117188 112.945312 Z M 10.515625 114.542969 "/>
<g clip-path="url(#clip1)" clip-rule="nonzero">
<path style="fill:none;stroke-width:0.4;stroke-linecap:butt;stroke-linejoin:miter;stroke:rgb(100%,0%,0%);stroke-opacity:1;stroke-miterlimit:4;" d="M -114.542969 10.515625 L -112.945312 8.914062 L -118.542969 10.515625 L -112.945312 12.117188 Z M -114.542969 10.515625 " transform="matrix(0,-1,1,0,0,0)"/>
</g>
<path style="fill-rule:evenodd;fill:rgb(100%,0%,0%);fill-opacity:1;stroke-width:0.4;stroke-linecap:butt;stroke-linejoin:miter;stroke:rgb(100%,0%,0%);stroke-opacity:1;stroke-miterlimit:4;" d="M 5.746094 -10.515625 L 7.34375 -12.117188 L 1.746094 -10.515625 L 7.34375 -8.914062 Z M 5.746094 -10.515625 " transform="matrix(0,1,-1,0,0,0)"/>
<path style="fill:none;stroke-width:0.8;stroke-linecap:butt;stroke-linejoin:miter;stroke:rgb(100%,0%,0%);stroke-opacity:1;stroke-miterlimit:4;" d="M 0.914062 74.542969 L 212.117188 74.542969 "/>
<path style="fill-rule:evenodd;fill:rgb(100%,0%,0%);fill-opacity:1;stroke-width:0.2;stroke-linecap:butt;stroke-linejoin:miter;stroke:rgb(100%,0%,0%);stroke-opacity:1;stroke-miterlimit:4;" d="M 1.699213 74.542969 C 1.699213 74.984375 1.339838 75.34375 0.898432 75.34375 C 0.457026 75.34375 0.101557 74.984375 0.101557 74.542969 C 0.101557 74.101563 0.457026 73.746094 0.898432 73.746094 C 1.339838 73.746094 1.699213 74.101563 1.699213 74.542969 Z M 1.699213 74.542969 " transform="matrix(1,-0.0000000757576,0.0000000757576,1,0,0)"/>
<path style=" stroke:none;fill-rule:evenodd;fill:rgb(100%,0%,0%);fill-opacity:1;" d="M 208.914062 74.542969 L 207.316406 76.144531 L 212.914062 74.542969 L 207.316406 72.945312 Z M 208.914062 74.542969 "/>
<g clip-path="url(#clip2)" clip-rule="nonzero">
<path style="fill:none;stroke-width:0.4;stroke-linecap:butt;stroke-linejoin:miter;stroke:rgb(100%,0%,0%);stroke-opacity:1;stroke-miterlimit:4;" d="M -208.914057 -74.542985 L -207.3164 -76.144547 L -212.914057 -74.542985 L -207.316401 -72.945328 Z M -208.914057 -74.542985 " transform="matrix(-1,0.0000000757576,-0.0000000757576,-1,0,0)"/>
</g>
<g clip-path="url(#clip3)" clip-rule="nonzero">
<path style="fill:none;stroke-width:1.6;stroke-linecap:butt;stroke-linejoin:miter;stroke:rgb(100%,100%,100%);stroke-opacity:1;stroke-miterlimit:4;" d="M 39.714844 45.746094 C 39.714844 45.746094 48.914062 60.144531 58.515625 60.144531 C 68.117188 60.144531 77.714844 16.945312 92.117188 16.945312 C 106.515625 16.945312 101.714844 98.542969 116.117188 98.542969 C 130.515625 98.542969 130.515625 69.746094 144.914062 69.746094 C 159.316406 69.746094 183.316406 112.945312 183.316406 112.945312 "/>
</g>
<path style="fill:none;stroke-width:0.8;stroke-linecap:butt;stroke-linejoin:miter;stroke:rgb(0%,0%,0%);stroke-opacity:1;stroke-dasharray:0.8,1.6;stroke-miterlimit:4;" d="M 39.316406 48.144531 L 39.316406 74.542969 "/>
<path style="fill:none;stroke-width:0.8;stroke-linecap:butt;stroke-linejoin:miter;stroke:rgb(0%,0%,0%);stroke-opacity:1;stroke-dasharray:0.8,1.6;stroke-miterlimit:4;" d="M 183.316406 74.542969 L 183.316406 112.945312 "/>
<path style="fill:none;stroke-width:0.8;stroke-linecap:butt;stroke-linejoin:miter;stroke:rgb(0%,0%,0%);stroke-opacity:1;stroke-miterlimit:4;" d="M 39.714844 45.746094 C 39.714844 45.746094 48.914062 60.144531 58.515625 60.144531 C 68.117188 60.144531 77.714844 16.945312 92.117188 16.945312 C 106.515625 16.945312 101.714844 98.542969 116.117188 98.542969 C 130.515625 98.542969 130.515625 69.746094 144.914062 69.746094 C 159.316406 69.746094 183.316406 112.945312 183.316406 112.945312 "/>
<path style="fill-rule:nonzero;fill:rgb(0%,50.195312%,50.195312%);fill-opacity:1;stroke-width:0.8;stroke-linecap:butt;stroke-linejoin:miter;stroke:rgb(100%,100%,100%);stroke-opacity:1;stroke-miterlimit:4;" d="M 41.714844 45.746094 C 41.714844 47.070312 40.640625 48.144531 39.316406 48.144531 C 37.992188 48.144531 36.914062 47.070312 36.914062 45.746094 C 36.914062 44.417969 37.992188 43.34375 39.316406 43.34375 C 40.640625 43.34375 41.714844 44.417969 41.714844 45.746094 Z M 41.714844 45.746094 "/>
<path style=" stroke:none;fill-rule:nonzero;fill:rgb(0%,0%,100%);fill-opacity:1;" d="M 185.714844 112.945312 C 185.714844 114.269531 184.640625 115.34375 183.316406 115.34375 C 181.992188 115.34375 180.914062 114.269531 180.914062 112.945312 C 180.914062 111.621094 181.992188 110.542969 183.316406 110.542969 C 184.640625 110.542969 185.714844 111.621094 185.714844 112.945312 Z M 185.714844 112.945312 "/>
<g clip-path="url(#clip4)" clip-rule="nonzero">
<path style="fill:none;stroke-width:0.8;stroke-linecap:butt;stroke-linejoin:miter;stroke:rgb(100%,100%,100%);stroke-opacity:1;stroke-miterlimit:4;" d="M 185.714844 112.945312 C 185.714844 114.269531 184.640625 115.34375 183.316406 115.34375 C 181.992188 115.34375 180.914062 114.269531 180.914062 112.945312 C 180.914062 111.621094 181.992188 110.542969 183.316406 110.542969 C 184.640625 110.542969 185.714844 111.621094 185.714844 112.945312 Z M 185.714844 112.945312 "/>
</g>
<path style="fill-rule:nonzero;fill:rgb(0%,0%,100%);fill-opacity:1;stroke-width:0.8;stroke-linecap:butt;stroke-linejoin:miter;stroke:rgb(100%,100%,100%);stroke-opacity:1;stroke-miterlimit:4;" d="M 118.515625 98.542969 C 118.515625 99.871094 117.441406 100.945312 116.117188 100.945312 C 114.789062 100.945312 113.714844 99.871094 113.714844 98.542969 C 113.714844 97.21875 114.789062 96.144531 116.117188 96.144531 C 117.441406 96.144531 118.515625 97.21875 118.515625 98.542969 Z M 118.515625 98.542969 "/>
<path style="fill-rule:nonzero;fill:rgb(0%,50.195312%,50.195312%);fill-opacity:1;stroke-width:0.8;stroke-linecap:butt;stroke-linejoin:miter;stroke:rgb(100%,100%,100%);stroke-opacity:1;stroke-miterlimit:4;" d="M 147.316406 69.746094 C 147.316406 71.070312 146.242188 72.144531 144.914062 72.144531 C 143.589844 72.144531 142.515625 71.070312 142.515625 69.746094 C 142.515625 68.417969 143.589844 67.34375 144.914062 67.34375 C 146.242188 67.34375 147.316406 68.417969 147.316406 69.746094 Z M 147.316406 69.746094 "/>
<path style="fill-rule:nonzero;fill:rgb(0%,50.195312%,50.195312%);fill-opacity:1;stroke-width:0.8;stroke-linecap:butt;stroke-linejoin:miter;stroke:rgb(100%,100%,100%);stroke-opacity:1;stroke-miterlimit:4;" d="M 94.515625 16.945312 C 94.515625 18.269531 93.441406 19.34375 92.117188 19.34375 C 90.789062 19.34375 89.714844 18.269531 89.714844 16.945312 C 89.714844 15.621094 90.789062 14.542969 92.117188 14.542969 C 93.441406 14.542969 94.515625 15.621094 94.515625 16.945312 Z M 94.515625 16.945312 "/>
<path style="fill-rule:nonzero;fill:rgb(0%,0%,100%);fill-opacity:1;stroke-width:0.8;stroke-linecap:butt;stroke-linejoin:miter;stroke:rgb(100%,100%,100%);stroke-opacity:1;stroke-miterlimit:4;" d="M 60.914062 60.144531 C 60.914062 61.46875 59.839844 62.542969 58.515625 62.542969 C 57.191406 62.542969 56.117188 61.46875 56.117188 60.144531 C 56.117188 58.820312 57.191406 57.746094 58.515625 57.746094 C 59.839844 57.746094 60.914062 58.820312 60.914062 60.144531 Z M 60.914062 60.144531 "/>
<path style=" stroke:none;fill-rule:nonzero;fill:rgb(0%,0%,0%);fill-opacity:1;" d="M 40.554688 79.246094 C 40.328125 78.792969 39.992188 78.476562 39.445312 78.476562 C 38.058594 78.476562 36.578125 80.238281 36.578125 81.980469 C 36.578125 83.105469 37.234375 83.894531 38.152344 83.894531 C 38.398438 83.894531 38.996094 83.839844 39.710938 82.996094 C 39.804688 83.5 40.234375 83.894531 40.796875 83.894531 C 41.226562 83.894531 41.492188 83.613281 41.695312 83.238281 C 41.882812 82.808594 42.054688 82.074219 42.054688 82.058594 C 42.054688 81.925781 41.941406 81.925781 41.902344 81.925781 C 41.789062 81.925781 41.773438 81.980469 41.734375 82.152344 C 41.527344 82.917969 41.320312 83.632812 40.835938 83.632812 C 40.496094 83.632812 40.476562 83.3125 40.476562 83.089844 C 40.476562 82.824219 40.496094 82.714844 40.628906 82.1875 C 40.757812 81.699219 40.777344 81.570312 40.890625 81.121094 L 41.320312 79.449219 C 41.398438 79.113281 41.398438 79.09375 41.398438 79.039062 C 41.398438 78.832031 41.265625 78.71875 41.058594 78.71875 C 40.757812 78.71875 40.589844 78.980469 40.554688 79.246094 Z M 39.785156 82.339844 C 39.710938 82.5625 39.710938 82.582031 39.539062 82.789062 C 39.015625 83.445312 38.527344 83.632812 38.191406 83.632812 C 37.589844 83.632812 37.421875 82.976562 37.421875 82.507812 C 37.421875 81.90625 37.796875 80.445312 38.078125 79.882812 C 38.453125 79.1875 38.976562 78.738281 39.464844 78.738281 C 40.234375 78.738281 40.402344 79.714844 40.402344 79.789062 C 40.402344 79.863281 40.382812 79.9375 40.367188 79.996094 Z M 39.785156 82.339844 "/>
<path style=" stroke:none;fill-rule:nonzero;fill:rgb(0%,0%,0%);fill-opacity:1;" d="M 183.480469 62.246094 C 183.480469 62.246094 183.480469 62.113281 183.328125 62.113281 C 183.066406 62.113281 182.183594 62.207031 181.867188 62.246094 C 181.773438 62.246094 181.640625 62.265625 181.640625 62.46875 C 181.640625 62.621094 181.753906 62.621094 181.941406 62.621094 C 182.503906 62.621094 182.523438 62.695312 182.523438 62.828125 C 182.523438 62.902344 182.429688 63.3125 182.371094 63.558594 L 181.378906 67.457031 C 181.246094 68.058594 181.191406 68.265625 181.191406 68.675781 C 181.191406 69.800781 181.828125 70.550781 182.710938 70.550781 C 184.117188 70.550781 185.597656 68.769531 185.597656 67.046875 C 185.597656 65.957031 184.960938 65.132812 184.003906 65.132812 C 183.460938 65.132812 182.953125 65.488281 182.597656 65.84375 Z M 182.371094 66.765625 C 182.429688 66.5 182.429688 66.484375 182.542969 66.351562 C 183.121094 65.582031 183.667969 65.394531 183.984375 65.394531 C 184.417969 65.394531 184.734375 65.75 184.734375 66.519531 C 184.734375 67.234375 184.339844 68.601562 184.117188 69.050781 C 183.722656 69.859375 183.179688 70.289062 182.710938 70.289062 C 182.296875 70.289062 181.902344 69.96875 181.902344 69.089844 C 181.902344 68.84375 181.902344 68.621094 182.089844 67.871094 Z M 182.371094 66.765625 "/>
<path style=" stroke:none;fill-rule:nonzero;fill:rgb(0%,0%,0%);fill-opacity:1;" d="M 104.519531 3.898438 L 104.519531 7.105469 C 104.519531 7.632812 104.390625 7.632812 103.582031 7.632812 L 103.582031 8.007812 C 104.015625 7.988281 104.613281 7.96875 104.953125 7.96875 C 105.253906 7.96875 105.871094 7.988281 106.285156 8.007812 L 106.285156 7.632812 C 105.476562 7.632812 105.347656 7.632812 105.347656 7.105469 L 105.347656 4.894531 C 105.347656 3.65625 106.207031 2.980469 106.957031 2.980469 C 107.726562 2.980469 107.859375 3.617188 107.859375 4.3125 L 107.859375 7.105469 C 107.859375 7.632812 107.726562 7.632812 106.921875 7.632812 L 106.921875 8.007812 C 107.332031 7.988281 107.953125 7.96875 108.269531 7.96875 C 108.570312 7.96875 109.207031 7.988281 109.601562 8.007812 L 109.601562 7.632812 C 108.816406 7.632812 108.683594 7.632812 108.683594 7.105469 L 108.683594 4.894531 C 108.683594 3.65625 109.527344 2.980469 110.296875 2.980469 C 111.046875 2.980469 111.175781 3.617188 111.175781 4.3125 L 111.175781 7.105469 C 111.175781 7.632812 111.046875 7.632812 110.238281 7.632812 L 110.238281 8.007812 C 110.652344 7.988281 111.269531 7.96875 111.589844 7.96875 C 111.910156 7.96875 112.527344 7.988281 112.941406 8.007812 L 112.941406 7.632812 C 112.320312 7.632812 112.019531 7.632812 112.003906 7.273438 L 112.003906 4.988281 C 112.003906 3.957031 112.003906 3.601562 111.628906 3.167969 C 111.457031 2.960938 111.066406 2.71875 110.371094 2.71875 C 109.378906 2.71875 108.832031 3.429688 108.644531 3.898438 C 108.476562 2.851562 107.597656 2.71875 107.050781 2.71875 C 106.171875 2.71875 105.609375 3.226562 105.269531 3.976562 L 105.269531 2.71875 L 103.582031 2.851562 L 103.582031 3.226562 C 104.425781 3.226562 104.519531 3.300781 104.519531 3.898438 Z M 104.519531 3.898438 "/>
<path style=" stroke:none;fill-rule:nonzero;fill:rgb(0%,0%,0%);fill-opacity:1;" d="M 117.144531 7.105469 C 117.203125 7.574219 117.519531 8.082031 118.082031 8.082031 C 118.347656 8.082031 119.078125 7.914062 119.078125 6.9375 L 119.078125 6.261719 L 118.777344 6.261719 L 118.777344 6.9375 C 118.777344 7.632812 118.476562 7.707031 118.347656 7.707031 C 117.953125 7.707031 117.894531 7.164062 117.894531 7.105469 L 117.894531 4.726562 C 117.894531 4.21875 117.894531 3.75 117.464844 3.300781 C 116.996094 2.832031 116.394531 2.644531 115.832031 2.644531 C 114.839844 2.644531 114.015625 3.207031 114.015625 3.992188 C 114.015625 4.351562 114.257812 4.554688 114.578125 4.554688 C 114.914062 4.554688 115.121094 4.3125 115.121094 4.011719 C 115.121094 3.863281 115.066406 3.46875 114.503906 3.46875 C 114.839844 3.039062 115.421875 2.90625 115.796875 2.90625 C 116.394531 2.90625 117.070312 3.375 117.070312 4.445312 L 117.070312 4.875 C 116.453125 4.914062 115.628906 4.949219 114.878906 5.304688 C 113.976562 5.71875 113.675781 6.335938 113.675781 6.863281 C 113.675781 7.835938 114.839844 8.136719 115.589844 8.136719 C 116.378906 8.136719 116.921875 7.648438 117.144531 7.105469 Z M 117.070312 5.136719 L 117.070312 6.335938 C 117.070312 7.460938 116.207031 7.875 115.664062 7.875 C 115.082031 7.875 114.597656 7.460938 114.597656 6.863281 C 114.597656 6.207031 115.101562 5.210938 117.070312 5.136719 Z M 117.070312 5.136719 "/>
<path style=" stroke:none;fill-rule:nonzero;fill:rgb(0%,0%,0%);fill-opacity:1;" d="M 122.578125 5.195312 C 122.9375 4.742188 123.386719 4.164062 123.6875 3.84375 C 124.0625 3.414062 124.546875 3.226562 125.109375 3.226562 L 125.109375 2.851562 C 124.792969 2.867188 124.4375 2.886719 124.117188 2.886719 C 123.761719 2.886719 123.125 2.867188 122.972656 2.851562 L 122.972656 3.226562 C 123.234375 3.242188 123.328125 3.394531 123.328125 3.601562 C 123.328125 3.789062 123.199219 3.9375 123.140625 4.011719 L 122.410156 4.949219 L 121.472656 3.730469 C 121.359375 3.617188 121.359375 3.601562 121.359375 3.523438 C 121.359375 3.335938 121.546875 3.226562 121.773438 3.226562 L 121.773438 2.851562 C 121.472656 2.867188 120.6875 2.886719 120.480469 2.886719 C 120.234375 2.886719 119.671875 2.867188 119.355469 2.851562 L 119.355469 3.226562 C 120.199219 3.226562 120.199219 3.226562 120.761719 3.957031 L 121.941406 5.492188 L 120.816406 6.917969 C 120.253906 7.613281 119.542969 7.632812 119.296875 7.632812 L 119.296875 8.007812 C 119.597656 7.988281 119.972656 7.96875 120.292969 7.96875 C 120.628906 7.96875 121.136719 7.988281 121.417969 8.007812 L 121.417969 7.632812 C 121.15625 7.59375 121.078125 7.445312 121.078125 7.257812 C 121.078125 6.992188 121.417969 6.601562 122.148438 5.738281 L 123.066406 6.9375 C 123.160156 7.070312 123.3125 7.257812 123.3125 7.332031 C 123.3125 7.445312 123.199219 7.632812 122.878906 7.632812 L 122.878906 8.007812 C 123.234375 7.988281 123.910156 7.96875 124.171875 7.96875 C 124.492188 7.96875 124.960938 7.988281 125.316406 8.007812 L 125.316406 7.632812 C 124.679688 7.632812 124.453125 7.613281 124.191406 7.257812 Z M 122.578125 5.195312 "/>
<path style=" stroke:none;fill-rule:nonzero;fill:rgb(0%,0%,0%);fill-opacity:1;" d="M 127.578125 2.71875 L 125.910156 2.851562 L 125.910156 3.226562 C 126.675781 3.226562 126.789062 3.300781 126.789062 3.882812 L 126.789062 7.105469 C 126.789062 7.632812 126.660156 7.632812 125.851562 7.632812 L 125.851562 8.007812 C 126.226562 7.988281 126.882812 7.96875 127.164062 7.96875 C 127.597656 7.96875 128.007812 7.988281 128.421875 8.007812 L 128.421875 7.632812 C 127.613281 7.632812 127.578125 7.574219 127.578125 7.105469 Z M 127.613281 0.636719 C 127.613281 0.261719 127.332031 0 126.996094 0 C 126.621094 0 126.359375 0.320312 126.359375 0.636719 C 126.359375 0.957031 126.621094 1.273438 126.996094 1.273438 C 127.332031 1.273438 127.613281 1.011719 127.613281 0.636719 Z M 127.613281 0.636719 "/>
<path style=" stroke:none;fill-rule:nonzero;fill:rgb(0%,0%,0%);fill-opacity:1;" d="M 130.09375 3.898438 L 130.09375 7.105469 C 130.09375 7.632812 129.960938 7.632812 129.15625 7.632812 L 129.15625 8.007812 C 129.585938 7.988281 130.1875 7.96875 130.523438 7.96875 C 130.824219 7.96875 131.441406 7.988281 131.855469 8.007812 L 131.855469 7.632812 C 131.046875 7.632812 130.917969 7.632812 130.917969 7.105469 L 130.917969 4.894531 C 130.917969 3.65625 131.78125 2.980469 132.53125 2.980469 C 133.296875 2.980469 133.429688 3.617188 133.429688 4.3125 L 133.429688 7.105469 C 133.429688 7.632812 133.296875 7.632812 132.492188 7.632812 L 132.492188 8.007812 C 132.90625 7.988281 133.523438 7.96875 133.84375 7.96875 C 134.140625 7.96875 134.78125 7.988281 135.171875 8.007812 L 135.171875 7.632812 C 134.386719 7.632812 134.253906 7.632812 134.253906 7.105469 L 134.253906 4.894531 C 134.253906 3.65625 135.097656 2.980469 135.867188 2.980469 C 136.617188 2.980469 136.75 3.617188 136.75 4.3125 L 136.75 7.105469 C 136.75 7.632812 136.617188 7.632812 135.8125 7.632812 L 135.8125 8.007812 C 136.222656 7.988281 136.84375 7.96875 137.160156 7.96875 C 137.480469 7.96875 138.097656 7.988281 138.511719 8.007812 L 138.511719 7.632812 C 137.890625 7.632812 137.59375 7.632812 137.574219 7.273438 L 137.574219 4.988281 C 137.574219 3.957031 137.574219 3.601562 137.199219 3.167969 C 137.03125 2.960938 136.636719 2.71875 135.941406 2.71875 C 134.949219 2.71875 134.40625 3.429688 134.21875 3.898438 C 134.046875 2.851562 133.167969 2.71875 132.625 2.71875 C 131.742188 2.71875 131.179688 3.226562 130.84375 3.976562 L 130.84375 2.71875 L 129.15625 2.851562 L 129.15625 3.226562 C 130 3.226562 130.09375 3.300781 130.09375 3.898438 Z M 130.09375 3.898438 "/>
<path style=" stroke:none;fill-rule:nonzero;fill:rgb(0%,0%,0%);fill-opacity:1;" d="M 142.71875 7.105469 C 142.773438 7.574219 143.09375 8.082031 143.65625 8.082031 C 143.917969 8.082031 144.648438 7.914062 144.648438 6.9375 L 144.648438 6.261719 L 144.347656 6.261719 L 144.347656 6.9375 C 144.347656 7.632812 144.046875 7.707031 143.917969 7.707031 C 143.523438 7.707031 143.46875 7.164062 143.46875 7.105469 L 143.46875 4.726562 C 143.46875 4.21875 143.46875 3.75 143.035156 3.300781 C 142.566406 2.832031 141.96875 2.644531 141.40625 2.644531 C 140.410156 2.644531 139.585938 3.207031 139.585938 3.992188 C 139.585938 4.351562 139.828125 4.554688 140.148438 4.554688 C 140.484375 4.554688 140.691406 4.3125 140.691406 4.011719 C 140.691406 3.863281 140.636719 3.46875 140.074219 3.46875 C 140.410156 3.039062 140.992188 2.90625 141.367188 2.90625 C 141.96875 2.90625 142.640625 3.375 142.640625 4.445312 L 142.640625 4.875 C 142.023438 4.914062 141.199219 4.949219 140.449219 5.304688 C 139.546875 5.71875 139.25 6.335938 139.25 6.863281 C 139.25 7.835938 140.410156 8.136719 141.160156 8.136719 C 141.949219 8.136719 142.492188 7.648438 142.71875 7.105469 Z M 142.640625 5.136719 L 142.640625 6.335938 C 142.640625 7.460938 141.78125 7.875 141.234375 7.875 C 140.65625 7.875 140.167969 7.460938 140.167969 6.863281 C 140.167969 6.207031 140.671875 5.210938 142.640625 5.136719 Z M 142.640625 5.136719 "/>
<path style=" stroke:none;fill-rule:nonzero;fill:rgb(0%,0%,0%);fill-opacity:1;" d="M 60.882812 107.976562 L 60.882812 111.183594 C 60.882812 111.707031 60.753906 111.707031 59.945312 111.707031 L 59.945312 112.082031 C 60.378906 112.0625 60.976562 112.042969 61.316406 112.042969 C 61.613281 112.042969 62.234375 112.0625 62.644531 112.082031 L 62.644531 111.707031 C 61.839844 111.707031 61.707031 111.707031 61.707031 111.183594 L 61.707031 108.96875 C 61.707031 107.730469 62.570312 107.058594 63.320312 107.058594 C 64.089844 107.058594 64.222656 107.695312 64.222656 108.386719 L 64.222656 111.183594 C 64.222656 111.707031 64.089844 111.707031 63.285156 111.707031 L 63.285156 112.082031 C 63.695312 112.0625 64.316406 112.042969 64.632812 112.042969 C 64.933594 112.042969 65.570312 112.0625 65.964844 112.082031 L 65.964844 111.707031 C 65.175781 111.707031 65.046875 111.707031 65.046875 111.183594 L 65.046875 108.96875 C 65.046875 107.730469 65.890625 107.058594 66.660156 107.058594 C 67.410156 107.058594 67.539062 107.695312 67.539062 108.386719 L 67.539062 111.183594 C 67.539062 111.707031 67.410156 111.707031 66.601562 111.707031 L 66.601562 112.082031 C 67.015625 112.0625 67.632812 112.042969 67.953125 112.042969 C 68.269531 112.042969 68.890625 112.0625 69.300781 112.082031 L 69.300781 111.707031 C 68.683594 111.707031 68.382812 111.707031 68.363281 111.351562 L 68.363281 109.0625 C 68.363281 108.03125 68.363281 107.675781 67.988281 107.246094 C 67.820312 107.039062 67.425781 106.792969 66.734375 106.792969 C 65.738281 106.792969 65.195312 107.507812 65.007812 107.976562 C 64.839844 106.925781 63.957031 106.792969 63.414062 106.792969 C 62.535156 106.792969 61.972656 107.300781 61.632812 108.050781 L 61.632812 106.792969 L 59.945312 106.925781 L 59.945312 107.300781 C 60.789062 107.300781 60.882812 107.375 60.882812 107.976562 Z M 60.882812 107.976562 "/>
<path style=" stroke:none;fill-rule:nonzero;fill:rgb(0%,0%,0%);fill-opacity:1;" d="M 71.652344 106.792969 L 69.984375 106.925781 L 69.984375 107.300781 C 70.75 107.300781 70.863281 107.375 70.863281 107.957031 L 70.863281 111.183594 C 70.863281 111.707031 70.734375 111.707031 69.925781 111.707031 L 69.925781 112.082031 C 70.300781 112.0625 70.957031 112.042969 71.238281 112.042969 C 71.671875 112.042969 72.082031 112.0625 72.496094 112.082031 L 72.496094 111.707031 C 71.6875 111.707031 71.652344 111.652344 71.652344 111.183594 Z M 71.6875 104.714844 C 71.6875 104.339844 71.40625 104.074219 71.070312 104.074219 C 70.695312 104.074219 70.433594 104.394531 70.433594 104.714844 C 70.433594 105.03125 70.695312 105.351562 71.070312 105.351562 C 71.40625 105.351562 71.6875 105.089844 71.6875 104.714844 Z M 71.6875 104.714844 "/>
<path style=" stroke:none;fill-rule:nonzero;fill:rgb(0%,0%,0%);fill-opacity:1;" d="M 74.167969 107.976562 L 74.167969 111.183594 C 74.167969 111.707031 74.035156 111.707031 73.230469 111.707031 L 73.230469 112.082031 C 73.660156 112.0625 74.261719 112.042969 74.597656 112.042969 C 74.898438 112.042969 75.515625 112.0625 75.929688 112.082031 L 75.929688 111.707031 C 75.121094 111.707031 74.992188 111.707031 74.992188 111.183594 L 74.992188 108.96875 C 74.992188 107.730469 75.855469 107.058594 76.605469 107.058594 C 77.371094 107.058594 77.503906 107.695312 77.503906 108.386719 L 77.503906 111.183594 C 77.503906 111.707031 77.371094 111.707031 76.566406 111.707031 L 76.566406 112.082031 C 76.980469 112.0625 77.597656 112.042969 77.917969 112.042969 C 78.214844 112.042969 78.855469 112.0625 79.246094 112.082031 L 79.246094 111.707031 C 78.628906 111.707031 78.328125 111.707031 78.328125 111.351562 L 78.328125 109.0625 C 78.328125 108.03125 78.328125 107.675781 77.953125 107.246094 C 77.785156 107.039062 77.390625 106.792969 76.699219 106.792969 C 75.816406 106.792969 75.253906 107.300781 74.917969 108.050781 L 74.917969 106.792969 L 73.230469 106.925781 L 73.230469 107.300781 C 74.074219 107.300781 74.167969 107.375 74.167969 107.976562 Z M 74.167969 107.976562 "/>
<path style=" stroke:none;fill-rule:nonzero;fill:rgb(0%,0%,0%);fill-opacity:1;" d="M 81.617188 106.792969 L 79.945312 106.925781 L 79.945312 107.300781 C 80.714844 107.300781 80.828125 107.375 80.828125 107.957031 L 80.828125 111.183594 C 80.828125 111.707031 80.695312 111.707031 79.890625 111.707031 L 79.890625 112.082031 C 80.265625 112.0625 80.921875 112.042969 81.203125 112.042969 C 81.632812 112.042969 82.046875 112.0625 82.460938 112.082031 L 82.460938 111.707031 C 81.652344 111.707031 81.617188 111.652344 81.617188 111.183594 Z M 81.652344 104.714844 C 81.652344 104.339844 81.371094 104.074219 81.035156 104.074219 C 80.660156 104.074219 80.398438 104.394531 80.398438 104.714844 C 80.398438 105.03125 80.660156 105.351562 81.035156 105.351562 C 81.371094 105.351562 81.652344 105.089844 81.652344 104.714844 Z M 81.652344 104.714844 "/>
<path style=" stroke:none;fill-rule:nonzero;fill:rgb(0%,0%,0%);fill-opacity:1;" d="M 84.128906 107.976562 L 84.128906 111.183594 C 84.128906 111.707031 84 111.707031 83.191406 111.707031 L 83.191406 112.082031 C 83.625 112.0625 84.222656 112.042969 84.5625 112.042969 C 84.863281 112.042969 85.480469 112.0625 85.894531 112.082031 L 85.894531 111.707031 C 85.085938 111.707031 84.957031 111.707031 84.957031 111.183594 L 84.957031 108.96875 C 84.957031 107.730469 85.816406 107.058594 86.566406 107.058594 C 87.335938 107.058594 87.46875 107.695312 87.46875 108.386719 L 87.46875 111.183594 C 87.46875 111.707031 87.335938 111.707031 86.53125 111.707031 L 86.53125 112.082031 C 86.941406 112.0625 87.5625 112.042969 87.878906 112.042969 C 88.179688 112.042969 88.816406 112.0625 89.210938 112.082031 L 89.210938 111.707031 C 88.425781 111.707031 88.292969 111.707031 88.292969 111.183594 L 88.292969 108.96875 C 88.292969 107.730469 89.136719 107.058594 89.90625 107.058594 C 90.65625 107.058594 90.785156 107.695312 90.785156 108.386719 L 90.785156 111.183594 C 90.785156 111.707031 90.65625 111.707031 89.847656 111.707031 L 89.847656 112.082031 C 90.261719 112.0625 90.878906 112.042969 91.199219 112.042969 C 91.519531 112.042969 92.136719 112.0625 92.550781 112.082031 L 92.550781 111.707031 C 91.929688 111.707031 91.628906 111.707031 91.613281 111.351562 L 91.613281 109.0625 C 91.613281 108.03125 91.613281 107.675781 91.238281 107.246094 C 91.066406 107.039062 90.675781 106.792969 89.980469 106.792969 C 88.988281 106.792969 88.441406 107.507812 88.253906 107.976562 C 88.085938 106.925781 87.207031 106.792969 86.660156 106.792969 C 85.78125 106.792969 85.21875 107.300781 84.878906 108.050781 L 84.878906 106.792969 L 83.191406 106.925781 L 83.191406 107.300781 C 84.035156 107.300781 84.128906 107.375 84.128906 107.976562 Z M 84.128906 107.976562 "/>
<path style=" stroke:none;fill-rule:nonzero;fill:rgb(0%,0%,0%);fill-opacity:1;" d="M 96.753906 111.183594 C 96.8125 111.652344 97.128906 112.15625 97.691406 112.15625 C 97.953125 112.15625 98.6875 111.988281 98.6875 111.011719 L 98.6875 110.339844 L 98.386719 110.339844 L 98.386719 111.011719 C 98.386719 111.707031 98.085938 111.78125 97.953125 111.78125 C 97.5625 111.78125 97.503906 111.238281 97.503906 111.183594 L 97.503906 108.800781 C 97.503906 108.292969 97.503906 107.824219 97.074219 107.375 C 96.605469 106.90625 96.003906 106.71875 95.441406 106.71875 C 94.449219 106.71875 93.625 107.28125 93.625 108.070312 C 93.625 108.425781 93.867188 108.632812 94.1875 108.632812 C 94.523438 108.632812 94.730469 108.386719 94.730469 108.089844 C 94.730469 107.9375 94.671875 107.542969 94.109375 107.542969 C 94.449219 107.113281 95.03125 106.980469 95.40625 106.980469 C 96.003906 106.980469 96.679688 107.449219 96.679688 108.519531 L 96.679688 108.949219 C 96.0625 108.988281 95.234375 109.027344 94.484375 109.382812 C 93.585938 109.792969 93.285156 110.414062 93.285156 110.9375 C 93.285156 111.914062 94.449219 112.214844 95.199219 112.214844 C 95.984375 112.214844 96.53125 111.726562 96.753906 111.183594 Z M 96.679688 109.214844 L 96.679688 110.414062 C 96.679688 111.539062 95.816406 111.949219 95.273438 111.949219 C 94.691406 111.949219 94.203125 111.539062 94.203125 110.9375 C 94.203125 110.28125 94.710938 109.289062 96.679688 109.214844 Z M 96.679688 109.214844 "/>
<path style="fill:none;stroke-width:0.4;stroke-linecap:butt;stroke-linejoin:miter;stroke:rgb(100%,0%,0%);stroke-opacity:1;stroke-miterlimit:4;" d="M 101.714844 7.34375 L 96.914062 7.34375 L 92.117188 12.144531 "/>
<path style="fill-rule:evenodd;fill:rgb(100%,0%,0%);fill-opacity:1;stroke-width:0.1;stroke-linecap:butt;stroke-linejoin:miter;stroke:rgb(100%,0%,0%);stroke-opacity:1;stroke-miterlimit:4;" d="M -101.324219 -7.34375 C -101.324219 -7.125 -101.503906 -6.945312 -101.722656 -6.945312 C -101.945312 -6.945312 -102.125 -7.125 -102.125 -7.34375 C -102.125 -7.566406 -101.945312 -7.746094 -101.722656 -7.746094 C -101.503906 -7.746094 -101.324219 -7.566406 -101.324219 -7.34375 Z M -101.324219 -7.34375 " transform="matrix(-1,0,0,-1,0,0)"/>
<path style="fill-rule:evenodd;fill:rgb(100%,0%,0%);fill-opacity:1;stroke-width:0.141421;stroke-linecap:butt;stroke-linejoin:miter;stroke:rgb(100%,0%,0%);stroke-opacity:1;stroke-miterlimit:4;" d="M 41.117188 52.128906 L 41.681641 51.564453 L 39.703125 52.128906 L 41.683594 52.695312 Z M 41.117188 52.128906 " transform="matrix(1,-1,1,1,0,0)"/>
<path style="fill:none;stroke-width:0.4;stroke-linecap:butt;stroke-linejoin:miter;stroke:rgb(100%,0%,0%);stroke-opacity:1;stroke-miterlimit:4;" d="M 101.714844 2.542969 L 48.914062 2.542969 L 39.316406 12.144531 L 39.316406 40.945312 "/>
<path style="fill-rule:evenodd;fill:rgb(100%,0%,0%);fill-opacity:1;stroke-width:0.1;stroke-linecap:butt;stroke-linejoin:miter;stroke:rgb(100%,0%,0%);stroke-opacity:1;stroke-miterlimit:4;" d="M -101.324219 -2.542969 C -101.324219 -2.324219 -101.503906 -2.144531 -101.722656 -2.144531 C -101.945312 -2.144531 -102.125 -2.324219 -102.125 -2.542969 C -102.125 -2.765625 -101.945312 -2.945312 -101.722656 -2.945312 C -101.503906 -2.945312 -101.324219 -2.765625 -101.324219 -2.542969 Z M -101.324219 -2.542969 " transform="matrix(-1,0,0,-1,0,0)"/>
<path style="fill-rule:evenodd;fill:rgb(100%,0%,0%);fill-opacity:1;stroke-width:0.2;stroke-linecap:butt;stroke-linejoin:miter;stroke:rgb(100%,0%,0%);stroke-opacity:1;stroke-miterlimit:4;" d="M -39.34375 39.316406 L -38.542969 38.515625 L -41.34375 39.316406 L -38.542969 40.117188 Z M -39.34375 39.316406 " transform="matrix(0,-1,1,0,0,0)"/>
<path style="fill:none;stroke-width:0.4;stroke-linecap:butt;stroke-linejoin:miter;stroke:rgb(100%,0%,0%);stroke-opacity:1;stroke-miterlimit:4;" d="M 125.714844 12.144531 L 125.714844 50.542969 L 140.117188 64.945312 "/>
<path style="fill-rule:evenodd;fill:rgb(100%,0%,0%);fill-opacity:1;stroke-width:0.1;stroke-linecap:butt;stroke-linejoin:miter;stroke:rgb(100%,0%,0%);stroke-opacity:1;stroke-miterlimit:4;" d="M 12.535156 -125.714844 C 12.535156 -125.496094 12.359375 -125.316406 12.136719 -125.316406 C 11.914062 -125.316406 11.738281 -125.496094 11.738281 -125.714844 C 11.738281 -125.9375 11.914062 -126.117188 12.136719 -126.117188 C 12.359375 -126.117188 12.535156 -125.9375 12.535156 -125.714844 Z M 12.535156 -125.714844 " transform="matrix(0,1,-1,0,0,0)"/>
<path style="fill-rule:evenodd;fill:rgb(100%,0%,0%);fill-opacity:1;stroke-width:0.141421;stroke-linecap:butt;stroke-linejoin:miter;stroke:rgb(100%,0%,0%);stroke-opacity:1;stroke-miterlimit:4;" d="M -101.398438 37.585938 L -100.832031 37.019531 L -102.8125 37.585938 L -100.833984 38.150391 Z M -101.398438 37.585938 " transform="matrix(-1,-1,1,-1,0,0)"/>
<path style="fill:none;stroke-width:0.4;stroke-linecap:butt;stroke-linejoin:miter;stroke:rgb(100%,0%,0%);stroke-opacity:1;stroke-miterlimit:4;" d="M 101.714844 108.144531 L 106.515625 108.144531 L 111.316406 103.34375 "/>
<path style="fill-rule:evenodd;fill:rgb(100%,0%,0%);fill-opacity:1;stroke-width:0.1;stroke-linecap:butt;stroke-linejoin:miter;stroke:rgb(100%,0%,0%);stroke-opacity:1;stroke-miterlimit:4;" d="M 102.109375 108.144531 C 102.109375 108.367188 101.929688 108.542969 101.707031 108.542969 C 101.488281 108.542969 101.308594 108.367188 101.308594 108.144531 C 101.308594 107.925781 101.488281 107.746094 101.707031 107.746094 C 101.929688 107.746094 102.109375 107.925781 102.109375 108.144531 Z M 102.109375 108.144531 "/>
<path style="fill-rule:evenodd;fill:rgb(100%,0%,0%);fill-opacity:1;stroke-width:0.141421;stroke-linecap:butt;stroke-linejoin:miter;stroke:rgb(100%,0%,0%);stroke-opacity:1;stroke-miterlimit:4;" d="M -2.853516 -107.330078 L -2.287109 -107.896484 L -4.267578 -107.330078 L -2.289062 -106.765625 Z M -2.853516 -107.330078 " transform="matrix(-1,1,-1,-1,0,0)"/>
<path style="fill:none;stroke-width:0.4;stroke-linecap:butt;stroke-linejoin:miter;stroke:rgb(100%,0%,0%);stroke-opacity:1;stroke-miterlimit:4;" d="M 101.675781 112.496094 L 178.515625 112.945312 "/>
<path style="fill-rule:evenodd;fill:rgb(100%,0%,0%);fill-opacity:1;stroke-width:0.0999983;stroke-linecap:butt;stroke-linejoin:miter;stroke:rgb(100%,0%,0%);stroke-opacity:1;stroke-miterlimit:4;" d="M 102.721664 111.894553 C 102.722968 112.117201 102.544316 112.294029 102.321667 112.295332 C 102.102925 112.296613 101.922191 112.117984 101.920887 111.895336 C 101.923513 111.67657 102.102142 111.495837 102.320884 111.494556 C 102.543556 111.497158 102.720383 111.67581 102.721664 111.894553 Z M 102.721664 111.894553 " transform="matrix(1,0.00585603,-0.00585603,1,0,0)"/>
<path style="fill-rule:evenodd;fill:rgb(100%,0%,0%);fill-opacity:1;stroke-width:0.199997;stroke-linecap:butt;stroke-linejoin:miter;stroke:rgb(100%,0%,0%);stroke-opacity:1;stroke-miterlimit:4;" d="M -177.573222 -111.89372 L -176.773228 -112.695279 L -179.569316 -111.893749 L -176.771662 -111.093726 Z M -177.573222 -111.89372 " transform="matrix(-1,-0.00585603,0.00585603,-1,0,0)"/>
<path style="fill:none;stroke-width:0.4;stroke-linecap:butt;stroke-linejoin:miter;stroke:rgb(100%,0%,0%);stroke-opacity:1;stroke-miterlimit:4;" d="M 68.117188 103.34375 L 68.117188 69.746094 L 63.316406 64.945312 "/>
<path style="fill-rule:evenodd;fill:rgb(100%,0%,0%);fill-opacity:1;stroke-width:0.1;stroke-linecap:butt;stroke-linejoin:miter;stroke:rgb(100%,0%,0%);stroke-opacity:1;stroke-miterlimit:4;" d="M -102.953125 68.117188 C -102.953125 68.335938 -103.132812 68.515625 -103.351562 68.515625 C -103.574219 68.515625 -103.753906 68.335938 -103.753906 68.117188 C -103.753906 67.894531 -103.574219 67.714844 -103.351562 67.714844 C -103.132812 67.714844 -102.953125 67.894531 -102.953125 68.117188 Z M -102.953125 68.117188 " transform="matrix(0,-1,1,0,0,0)"/>
<path style="fill-rule:evenodd;fill:rgb(100%,0%,0%);fill-opacity:1;stroke-width:0.141421;stroke-linecap:butt;stroke-linejoin:miter;stroke:rgb(100%,0%,0%);stroke-opacity:1;stroke-miterlimit:4;" d="M 65.261719 0.8125 L 65.826172 0.248047 L 63.845703 0.814453 L 65.828125 1.378906 Z M 65.261719 0.8125 " transform="matrix(1,1,-1,1,0,0)"/>
</g>
</svg>
