<?xml version="1.0" encoding="UTF-8"?>
<svg xmlns="http://www.w3.org/2000/svg" xmlns:xlink="http://www.w3.org/1999/xlink" width="213.644012pt" height="136.143753pt" viewBox="0 0 213.644012 136.143753" version="1.1">
<defs>
<clipPath id="clip1">
  <path d="M 205 78 L 213.644531 78 L 213.644531 87 L 205 87 Z M 205 78 "/>
</clipPath>
<clipPath id="clip2">
  <path d="M 82 128 L 88 128 L 88 136.144531 L 82 136.144531 Z M 82 128 "/>
</clipPath>
</defs>
<g id="surface1">
<path style="fill:none;stroke-width:0.8;stroke-linecap:butt;stroke-linejoin:miter;stroke:rgb(100%,0%,0%);stroke-opacity:1;stroke-miterlimit:4;" d="M 10.515625 125.960938 L 10.515625 10.761719 "/>
<path style="fill-rule:evenodd;fill:rgb(100%,0%,0%);fill-opacity:1;stroke-width:0.4;stroke-linecap:butt;stroke-linejoin:miter;stroke:rgb(100%,0%,0%);stroke-opacity:1;stroke-miterlimit:4;" d="M -122.761719 10.515625 L -121.164062 8.914062 L -126.761719 10.515625 L -121.164062 12.117188 Z M -122.761719 10.515625 " transform="matrix(0,-1,1,0,0,0)"/>
<path style="fill-rule:evenodd;fill:rgb(100%,0%,0%);fill-opacity:1;stroke-width:0.4;stroke-linecap:butt;stroke-linejoin:miter;stroke:rgb(100%,0%,0%);stroke-opacity:1;stroke-miterlimit:4;" d="M 13.960938 -10.515625 L 15.5625 -12.117188 L 9.960938 -10.515625 L 15.5625 -8.914062 Z M 13.960938 -10.515625 " transform="matrix(0,1,-1,0,0,0)"/>
<path style="fill:none;stroke-width:0.8;stroke-linecap:butt;stroke-linejoin:miter;stroke:rgb(100%,0%,0%);stroke-opacity:1;stroke-miterlimit:4;" d="M 0.914062 82.761719 L 212.117188 82.761719 "/>
<path style="fill-rule:evenodd;fill:rgb(100%,0%,0%);fill-opacity:1;stroke-width:0.2;stroke-linecap:butt;stroke-linejoin:miter;stroke:rgb(100%,0%,0%);stroke-opacity:1;stroke-miterlimit:4;" d="M 1.699212 82.761719 C 1.699212 83.203125 1.339837 83.5625 0.898431 83.5625 C 0.457025 83.5625 0.101556 83.203125 0.101556 82.761719 C 0.101556 82.320313 0.457025 81.960938 0.898431 81.960938 C 1.339838 81.960938 1.699213 82.320313 1.699212 82.761719 Z M 1.699212 82.761719 " transform="matrix(1,-0.0000000757576,0.0000000757576,1,0,0)"/>
<path style=" stroke:none;fill-rule:evenodd;fill:rgb(100%,0%,0%);fill-opacity:1;" d="M 208.914062 82.761719 L 207.316406 84.363281 L 212.914062 82.761719 L 207.316406 81.164062 Z M 208.914062 82.761719 "/>
<g clip-path="url(#clip1)" clip-rule="nonzero">
<path style="fill:none;stroke-width:0.4;stroke-linecap:butt;stroke-linejoin:miter;stroke:rgb(100%,0%,0%);stroke-opacity:1;stroke-miterlimit:4;" d="M -208.914056 -82.761735 L -207.3164 -84.363297 L -212.914056 -82.761735 L -207.3164 -81.164078 Z M -208.914056 -82.761735 " transform="matrix(-1,0.0000000757576,-0.0000000757576,-1,0,0)"/>
</g>
<path style="fill:none;stroke-width:1.6;stroke-linecap:butt;stroke-linejoin:miter;stroke:rgb(100%,100%,100%);stroke-opacity:1;stroke-miterlimit:4;" d="M 39.714844 53.960938 C 39.714844 53.960938 48.914062 68.363281 58.515625 68.363281 C 68.117188 68.363281 77.714844 25.164062 92.117188 25.164062 C 106.515625 25.164062 101.714844 106.761719 116.117188 106.761719 C 130.515625 106.761719 130.515625 77.960938 144.914062 77.960938 C 159.316406 77.960938 183.316406 121.164062 183.316406 121.164062 "/>
<path style="fill:none;stroke-width:0.8;stroke-linecap:butt;stroke-linejoin:miter;stroke:rgb(0%,0%,0%);stroke-opacity:1;stroke-dasharray:0.8,1.6;stroke-miterlimit:4;" d="M 39.316406 56.363281 L 39.316406 82.761719 "/>
<path style="fill:none;stroke-width:0.8;stroke-linecap:butt;stroke-linejoin:miter;stroke:rgb(0%,0%,0%);stroke-opacity:1;stroke-dasharray:0.8,1.6;stroke-miterlimit:4;" d="M 183.316406 82.761719 L 183.316406 121.164062 "/>
<path style="fill:none;stroke-width:0.8;stroke-linecap:butt;stroke-linejoin:miter;stroke:rgb(0%,0%,0%);stroke-opacity:1;stroke-miterlimit:4;" d="M 39.714844 53.960938 C 39.714844 53.960938 48.914062 68.363281 58.515625 68.363281 C 68.117188 68.363281 77.714844 25.164062 92.117188 25.164062 C 106.515625 25.164062 101.714844 106.761719 116.117188 106.761719 C 130.515625 106.761719 130.515625 77.960938 144.914062 77.960938 C 159.316406 77.960938 183.316406 121.164062 183.316406 121.164062 "/>
<path style="fill-rule:nonzero;fill:rgb(0%,50.195312%,50.195312%);fill-opacity:1;stroke-width:0.8;stroke-linecap:butt;stroke-linejoin:miter;stroke:rgb(100%,100%,100%);stroke-opacity:1;stroke-miterlimit:4;" d="M 41.714844 53.960938 C 41.714844 55.289062 40.640625 56.363281 39.316406 56.363281 C 37.992188 56.363281 36.914062 55.289062 36.914062 53.960938 C 36.914062 52.636719 37.992188 51.5625 39.316406 51.5625 C 40.640625 51.5625 41.714844 52.636719 41.714844 53.960938 Z M 41.714844 53.960938 "/>
<path style="fill-rule:nonzero;fill:rgb(0%,0%,100%);fill-opacity:1;stroke-width:0.8;stroke-linecap:butt;stroke-linejoin:miter;stroke:rgb(100%,100%,100%);stroke-opacity:1;stroke-miterlimit:4;" d="M 185.714844 121.164062 C 185.714844 122.488281 184.640625 123.5625 183.316406 123.5625 C 181.992188 123.5625 180.914062 122.488281 180.914062 121.164062 C 180.914062 119.835938 181.992188 118.761719 183.316406 118.761719 C 184.640625 118.761719 185.714844 119.835938 185.714844 121.164062 Z M 185.714844 121.164062 "/>
<path style="fill-rule:nonzero;fill:rgb(0%,0%,100%);fill-opacity:1;stroke-width:0.8;stroke-linecap:butt;stroke-linejoin:miter;stroke:rgb(100%,100%,100%);stroke-opacity:1;stroke-miterlimit:4;" d="M 118.515625 106.761719 C 118.515625 108.089844 117.441406 109.164062 116.117188 109.164062 C 114.789062 109.164062 113.714844 108.089844 113.714844 106.761719 C 113.714844 105.4375 114.789062 104.363281 116.117188 104.363281 C 117.441406 104.363281 118.515625 105.4375 118.515625 106.761719 Z M 118.515625 106.761719 "/>
<path style="fill-rule:nonzero;fill:rgb(0%,50.195312%,50.195312%);fill-opacity:1;stroke-width:0.8;stroke-linecap:butt;stroke-linejoin:miter;stroke:rgb(100%,100%,100%);stroke-opacity:1;stroke-miterlimit:4;" d="M 147.316406 77.960938 C 147.316406 79.289062 146.242188 80.363281 144.914062 80.363281 C 143.589844 80.363281 142.515625 79.289062 142.515625 77.960938 C 142.515625 76.636719 143.589844 75.5625 144.914062 75.5625 C 146.242188 75.5625 147.316406 76.636719 147.316406 77.960938 Z M 147.316406 77.960938 "/>
<path style="fill-rule:nonzero;fill:rgb(0%,50.195312%,50.195312%);fill-opacity:1;stroke-width:0.8;stroke-linecap:butt;stroke-linejoin:miter;stroke:rgb(100%,100%,100%);stroke-opacity:1;stroke-miterlimit:4;" d="M 94.515625 25.164062 C 94.515625 26.488281 93.441406 27.5625 92.117188 27.5625 C 90.789062 27.5625 89.714844 26.488281 89.714844 25.164062 C 89.714844 23.835938 90.789062 22.761719 92.117188 22.761719 C 93.441406 22.761719 94.515625 23.835938 94.515625 25.164062 Z M 94.515625 25.164062 "/>
<path style="fill-rule:nonzero;fill:rgb(0%,0%,100%);fill-opacity:1;stroke-width:0.8;stroke-linecap:butt;stroke-linejoin:miter;stroke:rgb(100%,100%,100%);stroke-opacity:1;stroke-miterlimit:4;" d="M 60.914062 68.363281 C 60.914062 69.6875 59.839844 70.761719 58.515625 70.761719 C 57.191406 70.761719 56.117188 69.6875 56.117188 68.363281 C 56.117188 67.035156 57.191406 65.960938 58.515625 65.960938 C 59.839844 65.960938 60.914062 67.035156 60.914062 68.363281 Z M 60.914062 68.363281 "/>
<path style=" stroke:none;fill-rule:nonzero;fill:rgb(0%,0%,0%);fill-opacity:1;" d="M 40.554688 87.460938 C 40.328125 87.011719 39.992188 86.691406 39.445312 86.691406 C 38.058594 86.691406 36.578125 88.457031 36.578125 90.199219 C 36.578125 91.324219 37.234375 92.113281 38.152344 92.113281 C 38.398438 92.113281 38.996094 92.054688 39.710938 91.210938 C 39.804688 91.71875 40.234375 92.113281 40.796875 92.113281 C 41.226562 92.113281 41.492188 91.832031 41.695312 91.457031 C 41.882812 91.023438 42.054688 90.292969 42.054688 90.273438 C 42.054688 90.144531 41.941406 90.144531 41.902344 90.144531 C 41.789062 90.144531 41.773438 90.199219 41.734375 90.367188 C 41.527344 91.136719 41.320312 91.847656 40.835938 91.847656 C 40.496094 91.847656 40.476562 91.53125 40.476562 91.304688 C 40.476562 91.042969 40.496094 90.929688 40.628906 90.40625 C 40.757812 89.917969 40.777344 89.785156 40.890625 89.335938 L 41.320312 87.667969 C 41.398438 87.332031 41.398438 87.3125 41.398438 87.253906 C 41.398438 87.050781 41.265625 86.9375 41.058594 86.9375 C 40.757812 86.9375 40.589844 87.199219 40.554688 87.460938 Z M 39.785156 90.554688 C 39.710938 90.78125 39.710938 90.800781 39.539062 91.003906 C 39.015625 91.660156 38.527344 91.847656 38.191406 91.847656 C 37.589844 91.847656 37.421875 91.191406 37.421875 90.722656 C 37.421875 90.125 37.796875 88.660156 38.078125 88.097656 C 38.453125 87.40625 38.976562 86.957031 39.464844 86.957031 C 40.234375 86.957031 40.402344 87.929688 40.402344 88.003906 C 40.402344 88.082031 40.382812 88.15625 40.367188 88.210938 Z M 39.785156 90.554688 "/>
<path style=" stroke:none;fill-rule:nonzero;fill:rgb(0%,0%,0%);fill-opacity:1;" d="M 183.480469 70.464844 C 183.480469 70.464844 183.480469 70.332031 183.328125 70.332031 C 183.066406 70.332031 182.183594 70.425781 181.867188 70.464844 C 181.773438 70.464844 181.640625 70.480469 181.640625 70.6875 C 181.640625 70.839844 181.753906 70.839844 181.941406 70.839844 C 182.503906 70.839844 182.523438 70.914062 182.523438 71.042969 C 182.523438 71.121094 182.429688 71.53125 182.371094 71.777344 L 181.378906 75.675781 C 181.246094 76.277344 181.191406 76.480469 181.191406 76.894531 C 181.191406 78.019531 181.828125 78.769531 182.710938 78.769531 C 184.117188 78.769531 185.597656 76.988281 185.597656 75.261719 C 185.597656 74.175781 184.960938 73.351562 184.003906 73.351562 C 183.460938 73.351562 182.953125 73.707031 182.597656 74.0625 Z M 182.371094 74.980469 C 182.429688 74.71875 182.429688 74.699219 182.542969 74.570312 C 183.121094 73.800781 183.667969 73.613281 183.984375 73.613281 C 184.417969 73.613281 184.734375 73.96875 184.734375 74.738281 C 184.734375 75.449219 184.339844 76.820312 184.117188 77.269531 C 183.722656 78.074219 183.179688 78.507812 182.710938 78.507812 C 182.296875 78.507812 181.902344 78.1875 181.902344 77.308594 C 181.902344 77.0625 181.902344 76.839844 182.089844 76.089844 Z M 182.371094 74.980469 "/>
<path style="fill:none;stroke-width:0.4;stroke-linecap:butt;stroke-linejoin:miter;stroke:rgb(100%,0%,0%);stroke-opacity:1;stroke-miterlimit:4;" d="M 130.515625 15.5625 L 101.714844 15.5625 L 96.914062 20.363281 "/>
<path style="fill-rule:evenodd;fill:rgb(100%,0%,0%);fill-opacity:1;stroke-width:0.1;stroke-linecap:butt;stroke-linejoin:miter;stroke:rgb(100%,0%,0%);stroke-opacity:1;stroke-miterlimit:4;" d="M -130.125 -15.5625 C -130.125 -15.339844 -130.304688 -15.164062 -130.523438 -15.164062 C -130.746094 -15.164062 -130.925781 -15.339844 -130.925781 -15.5625 C -130.925781 -15.785156 -130.746094 -15.960938 -130.523438 -15.960938 C -130.304688 -15.960938 -130.125 -15.785156 -130.125 -15.5625 Z M -130.125 -15.5625 " transform="matrix(-1,0,0,-1,0,0)"/>
<path style="fill-rule:evenodd;fill:rgb(100%,0%,0%);fill-opacity:1;stroke-width:0.141421;stroke-linecap:butt;stroke-linejoin:miter;stroke:rgb(100%,0%,0%);stroke-opacity:1;stroke-miterlimit:4;" d="M 39.408203 58.638672 L 39.972656 58.074219 L 37.994141 58.638672 L 39.974609 59.205078 Z M 39.408203 58.638672 " transform="matrix(1,-1,1,1,0,0)"/>
<path style="fill:none;stroke-width:0.4;stroke-linecap:butt;stroke-linejoin:miter;stroke:rgb(100%,0%,0%);stroke-opacity:1;stroke-miterlimit:4;" d="M 130.515625 20.363281 L 130.515625 63.5625 L 140.117188 73.164062 "/>
<path style="fill-rule:evenodd;fill:rgb(100%,0%,0%);fill-opacity:1;stroke-width:0.1;stroke-linecap:butt;stroke-linejoin:miter;stroke:rgb(100%,0%,0%);stroke-opacity:1;stroke-miterlimit:4;" d="M 20.753906 -130.515625 C 20.753906 -130.296875 20.574219 -130.117188 20.355469 -130.117188 C 20.132812 -130.117188 19.953125 -130.296875 19.953125 -130.515625 C 19.953125 -130.738281 20.132812 -130.914062 20.355469 -130.914062 C 20.574219 -130.914062 20.753906 -130.738281 20.753906 -130.515625 Z M 20.753906 -130.515625 " transform="matrix(0,1,-1,0,0,0)"/>
<path style="fill-rule:evenodd;fill:rgb(100%,0%,0%);fill-opacity:1;stroke-width:0.141421;stroke-linecap:butt;stroke-linejoin:miter;stroke:rgb(100%,0%,0%);stroke-opacity:1;stroke-miterlimit:4;" d="M -105.507812 33.476562 L -104.941406 32.910156 L -106.921875 33.476562 L -104.941406 34.042969 Z M -105.507812 33.476562 " transform="matrix(-1,-1,1,-1,0,0)"/>
<path style="fill:none;stroke-width:0.4;stroke-linecap:butt;stroke-linejoin:miter;stroke:rgb(100%,0%,0%);stroke-opacity:1;stroke-miterlimit:4;" d="M 101.714844 116.363281 L 106.515625 116.363281 L 111.316406 111.5625 "/>
<path style="fill-rule:evenodd;fill:rgb(100%,0%,0%);fill-opacity:1;stroke-width:0.1;stroke-linecap:butt;stroke-linejoin:miter;stroke:rgb(100%,0%,0%);stroke-opacity:1;stroke-miterlimit:4;" d="M 102.109375 116.363281 C 102.109375 116.582031 101.929688 116.761719 101.707031 116.761719 C 101.488281 116.761719 101.308594 116.582031 101.308594 116.363281 C 101.308594 116.140625 101.488281 115.960938 101.707031 115.960938 C 101.929688 115.960938 102.109375 116.140625 102.109375 116.363281 Z M 102.109375 116.363281 "/>
<path style="fill-rule:evenodd;fill:rgb(100%,0%,0%);fill-opacity:1;stroke-width:0.141421;stroke-linecap:butt;stroke-linejoin:miter;stroke:rgb(100%,0%,0%);stroke-opacity:1;stroke-miterlimit:4;" d="M 1.255859 -111.439453 L 1.820312 -112.003906 L -0.158203 -111.439453 L 1.820312 -110.875 Z M 1.255859 -111.439453 " transform="matrix(-1,1,-1,-1,0,0)"/>
<path style="fill:none;stroke-width:0.4;stroke-linecap:butt;stroke-linejoin:miter;stroke:rgb(100%,0%,0%);stroke-opacity:1;stroke-miterlimit:4;" d="M 68.117188 106.761719 L 68.117188 77.960938 L 63.316406 73.164062 "/>
<path style="fill-rule:evenodd;fill:rgb(100%,0%,0%);fill-opacity:1;stroke-width:0.1;stroke-linecap:butt;stroke-linejoin:miter;stroke:rgb(100%,0%,0%);stroke-opacity:1;stroke-miterlimit:4;" d="M -106.371094 68.117188 C -106.371094 68.335938 -106.550781 68.515625 -106.769531 68.515625 C -106.992188 68.515625 -107.171875 68.335938 -107.171875 68.117188 C -107.171875 67.894531 -106.992188 67.714844 -106.769531 67.714844 C -106.550781 67.714844 -106.371094 67.894531 -106.371094 68.117188 Z M -106.371094 68.117188 " transform="matrix(0,-1,1,0,0,0)"/>
<path style="fill-rule:evenodd;fill:rgb(100%,0%,0%);fill-opacity:1;stroke-width:0.141421;stroke-linecap:butt;stroke-linejoin:miter;stroke:rgb(100%,0%,0%);stroke-opacity:1;stroke-miterlimit:4;" d="M 69.371094 4.921875 L 69.935547 4.357422 L 67.955078 4.923828 L 69.9375 5.488281 Z M 69.371094 4.921875 " transform="matrix(1,1,-1,1,0,0)"/>
<path style=" stroke:none;fill-rule:nonzero;fill:rgb(0%,0%,0%);fill-opacity:1;" d="M 32.898438 110.585938 L 31.171875 110.71875 L 31.171875 111.09375 C 32.015625 111.09375 32.109375 111.167969 32.109375 111.769531 L 32.109375 117.992188 C 32.109375 118.519531 31.980469 118.519531 31.171875 118.519531 L 31.171875 118.894531 C 31.566406 118.875 32.203125 118.855469 32.503906 118.855469 C 32.804688 118.855469 33.386719 118.875 33.835938 118.894531 L 33.835938 118.519531 C 33.03125 118.519531 32.898438 118.519531 32.898438 117.992188 Z M 32.898438 110.585938 "/>
<path style=" stroke:none;fill-rule:nonzero;fill:rgb(0%,0%,0%);fill-opacity:1;" d="M 39.726562 116.324219 C 39.726562 114.804688 38.542969 113.53125 37.101562 113.53125 C 35.601562 113.53125 34.4375 114.84375 34.4375 116.324219 C 34.4375 117.878906 35.675781 119.023438 37.082031 119.023438 C 38.527344 119.023438 39.726562 117.84375 39.726562 116.324219 Z M 37.101562 118.722656 C 36.574219 118.722656 36.050781 118.480469 35.730469 117.917969 C 35.433594 117.394531 35.433594 116.660156 35.433594 116.230469 C 35.433594 115.761719 35.433594 115.125 35.714844 114.597656 C 36.03125 114.054688 36.59375 113.792969 37.082031 113.792969 C 37.605469 113.792969 38.113281 114.054688 38.433594 114.582031 C 38.75 115.085938 38.75 115.78125 38.75 116.230469 C 38.75 116.660156 38.75 117.316406 38.488281 117.84375 C 38.207031 118.386719 37.683594 118.722656 37.101562 118.722656 Z M 37.101562 118.722656 "/>
<path style=" stroke:none;fill-rule:nonzero;fill:rgb(0%,0%,0%);fill-opacity:1;" d="M 41.820312 116.285156 C 41.820312 114.335938 42.792969 113.832031 43.429688 113.832031 C 43.542969 113.832031 44.292969 113.847656 44.707031 114.28125 C 44.21875 114.316406 44.144531 114.675781 44.144531 114.824219 C 44.144531 115.144531 44.367188 115.367188 44.6875 115.367188 C 45.007812 115.367188 45.25 115.179688 45.25 114.804688 C 45.25 114 44.332031 113.53125 43.414062 113.53125 C 41.914062 113.53125 40.824219 114.824219 40.824219 116.304688 C 40.824219 117.84375 42.007812 119.023438 43.394531 119.023438 C 44.988281 119.023438 45.382812 117.582031 45.382812 117.46875 C 45.382812 117.355469 45.25 117.355469 45.210938 117.355469 C 45.117188 117.355469 45.082031 117.394531 45.0625 117.46875 C 44.726562 118.574219 43.9375 118.722656 43.507812 118.722656 C 42.867188 118.722656 41.820312 118.21875 41.820312 116.285156 Z M 41.820312 116.285156 "/>
<path style=" stroke:none;fill-rule:nonzero;fill:rgb(0%,0%,0%);fill-opacity:1;" d="M 49.699219 117.992188 C 49.757812 118.460938 50.074219 118.96875 50.636719 118.96875 C 50.902344 118.96875 51.632812 118.800781 51.632812 117.824219 L 51.632812 117.148438 L 51.332031 117.148438 L 51.332031 117.824219 C 51.332031 118.519531 51.03125 118.59375 50.902344 118.59375 C 50.507812 118.59375 50.449219 118.050781 50.449219 117.992188 L 50.449219 115.613281 C 50.449219 115.105469 50.449219 114.636719 50.019531 114.1875 C 49.550781 113.71875 48.949219 113.53125 48.386719 113.53125 C 47.394531 113.53125 46.570312 114.09375 46.570312 114.878906 C 46.570312 115.238281 46.8125 115.441406 47.132812 115.441406 C 47.46875 115.441406 47.675781 115.199219 47.675781 114.898438 C 47.675781 114.75 47.621094 114.355469 47.058594 114.355469 C 47.394531 113.925781 47.976562 113.792969 48.351562 113.792969 C 48.949219 113.792969 49.625 114.261719 49.625 115.332031 L 49.625 115.761719 C 49.007812 115.800781 48.183594 115.835938 47.433594 116.191406 C 46.53125 116.605469 46.230469 117.222656 46.230469 117.75 C 46.230469 118.722656 47.394531 119.023438 48.144531 119.023438 C 48.933594 119.023438 49.476562 118.535156 49.699219 117.992188 Z M 49.625 116.023438 L 49.625 117.222656 C 49.625 118.347656 48.761719 118.761719 48.21875 118.761719 C 47.636719 118.761719 47.152344 118.347656 47.152344 117.75 C 47.152344 117.09375 47.65625 116.097656 49.625 116.023438 Z M 49.625 116.023438 "/>
<path style=" stroke:none;fill-rule:nonzero;fill:rgb(0%,0%,0%);fill-opacity:1;" d="M 53.820312 110.585938 L 52.097656 110.71875 L 52.097656 111.09375 C 52.941406 111.09375 53.035156 111.167969 53.035156 111.769531 L 53.035156 117.992188 C 53.035156 118.519531 52.902344 118.519531 52.097656 118.519531 L 52.097656 118.894531 C 52.492188 118.875 53.128906 118.855469 53.429688 118.855469 C 53.726562 118.855469 54.308594 118.875 54.757812 118.894531 L 54.757812 118.519531 C 53.953125 118.519531 53.820312 118.519531 53.820312 117.992188 Z M 53.820312 110.585938 "/>
<path style=" stroke:none;fill-rule:nonzero;fill:rgb(0%,0%,0%);fill-opacity:1;" d="M 60.316406 114.785156 L 60.316406 117.992188 C 60.316406 118.519531 60.1875 118.519531 59.378906 118.519531 L 59.378906 118.894531 C 59.8125 118.875 60.410156 118.855469 60.75 118.855469 C 61.050781 118.855469 61.667969 118.875 62.082031 118.894531 L 62.082031 118.519531 C 61.273438 118.519531 61.144531 118.519531 61.144531 117.992188 L 61.144531 115.78125 C 61.144531 114.542969 62.003906 113.867188 62.753906 113.867188 C 63.523438 113.867188 63.65625 114.503906 63.65625 115.199219 L 63.65625 117.992188 C 63.65625 118.519531 63.523438 118.519531 62.71875 118.519531 L 62.71875 118.894531 C 63.128906 118.875 63.75 118.855469 64.066406 118.855469 C 64.367188 118.855469 65.003906 118.875 65.398438 118.894531 L 65.398438 118.519531 C 64.613281 118.519531 64.480469 118.519531 64.480469 117.992188 L 64.480469 115.78125 C 64.480469 114.542969 65.324219 113.867188 66.09375 113.867188 C 66.84375 113.867188 66.972656 114.503906 66.972656 115.199219 L 66.972656 117.992188 C 66.972656 118.519531 66.84375 118.519531 66.035156 118.519531 L 66.035156 118.894531 C 66.449219 118.875 67.066406 118.855469 67.386719 118.855469 C 67.707031 118.855469 68.324219 118.875 68.738281 118.894531 L 68.738281 118.519531 C 68.117188 118.519531 67.816406 118.519531 67.800781 118.160156 L 67.800781 115.875 C 67.800781 114.84375 67.800781 114.488281 67.425781 114.054688 C 67.253906 113.847656 66.863281 113.605469 66.167969 113.605469 C 65.175781 113.605469 64.628906 114.316406 64.441406 114.785156 C 64.273438 113.738281 63.394531 113.605469 62.847656 113.605469 C 61.96875 113.605469 61.40625 114.113281 61.066406 114.863281 L 61.066406 113.605469 L 59.378906 113.738281 L 59.378906 114.113281 C 60.222656 114.113281 60.316406 114.1875 60.316406 114.785156 Z M 60.316406 114.785156 "/>
<path style=" stroke:none;fill-rule:nonzero;fill:rgb(0%,0%,0%);fill-opacity:1;" d="M 71.085938 113.605469 L 69.417969 113.738281 L 69.417969 114.113281 C 70.1875 114.113281 70.300781 114.1875 70.300781 114.769531 L 70.300781 117.992188 C 70.300781 118.519531 70.167969 118.519531 69.363281 118.519531 L 69.363281 118.894531 C 69.738281 118.875 70.394531 118.855469 70.675781 118.855469 C 71.105469 118.855469 71.519531 118.875 71.929688 118.894531 L 71.929688 118.519531 C 71.125 118.519531 71.085938 118.460938 71.085938 117.992188 Z M 71.125 111.523438 C 71.125 111.148438 70.84375 110.886719 70.503906 110.886719 C 70.128906 110.886719 69.867188 111.207031 69.867188 111.523438 C 69.867188 111.84375 70.128906 112.160156 70.503906 112.160156 C 70.84375 112.160156 71.125 111.898438 71.125 111.523438 Z M 71.125 111.523438 "/>
<path style=" stroke:none;fill-rule:nonzero;fill:rgb(0%,0%,0%);fill-opacity:1;" d="M 73.601562 114.785156 L 73.601562 117.992188 C 73.601562 118.519531 73.46875 118.519531 72.664062 118.519531 L 72.664062 118.894531 C 73.09375 118.875 73.695312 118.855469 74.03125 118.855469 C 74.332031 118.855469 74.953125 118.875 75.363281 118.894531 L 75.363281 118.519531 C 74.558594 118.519531 74.425781 118.519531 74.425781 117.992188 L 74.425781 115.78125 C 74.425781 114.542969 75.289062 113.867188 76.039062 113.867188 C 76.808594 113.867188 76.9375 114.503906 76.9375 115.199219 L 76.9375 117.992188 C 76.9375 118.519531 76.808594 118.519531 76 118.519531 L 76 118.894531 C 76.414062 118.875 77.03125 118.855469 77.351562 118.855469 C 77.652344 118.855469 78.289062 118.875 78.683594 118.894531 L 78.683594 118.519531 C 78.0625 118.519531 77.765625 118.519531 77.765625 118.160156 L 77.765625 115.875 C 77.765625 114.84375 77.765625 114.488281 77.390625 114.054688 C 77.21875 113.847656 76.828125 113.605469 76.132812 113.605469 C 75.25 113.605469 74.6875 114.113281 74.351562 114.863281 L 74.351562 113.605469 L 72.664062 113.738281 L 72.664062 114.113281 C 73.507812 114.113281 73.601562 114.1875 73.601562 114.785156 Z M 73.601562 114.785156 "/>
<path style=" stroke:none;fill-rule:nonzero;fill:rgb(0%,0%,0%);fill-opacity:1;" d="M 81.050781 113.605469 L 79.382812 113.738281 L 79.382812 114.113281 C 80.148438 114.113281 80.261719 114.1875 80.261719 114.769531 L 80.261719 117.992188 C 80.261719 118.519531 80.132812 118.519531 79.324219 118.519531 L 79.324219 118.894531 C 79.699219 118.875 80.355469 118.855469 80.636719 118.855469 C 81.070312 118.855469 81.480469 118.875 81.894531 118.894531 L 81.894531 118.519531 C 81.085938 118.519531 81.050781 118.460938 81.050781 117.992188 Z M 81.085938 111.523438 C 81.085938 111.148438 80.804688 110.886719 80.46875 110.886719 C 80.09375 110.886719 79.832031 111.207031 79.832031 111.523438 C 79.832031 111.84375 80.09375 112.160156 80.46875 112.160156 C 80.804688 112.160156 81.085938 111.898438 81.085938 111.523438 Z M 81.085938 111.523438 "/>
<path style=" stroke:none;fill-rule:nonzero;fill:rgb(0%,0%,0%);fill-opacity:1;" d="M 83.566406 114.785156 L 83.566406 117.992188 C 83.566406 118.519531 83.433594 118.519531 82.628906 118.519531 L 82.628906 118.894531 C 83.058594 118.875 83.660156 118.855469 83.996094 118.855469 C 84.296875 118.855469 84.914062 118.875 85.328125 118.894531 L 85.328125 118.519531 C 84.519531 118.519531 84.390625 118.519531 84.390625 117.992188 L 84.390625 115.78125 C 84.390625 114.542969 85.253906 113.867188 86.003906 113.867188 C 86.769531 113.867188 86.902344 114.503906 86.902344 115.199219 L 86.902344 117.992188 C 86.902344 118.519531 86.769531 118.519531 85.964844 118.519531 L 85.964844 118.894531 C 86.378906 118.875 86.996094 118.855469 87.316406 118.855469 C 87.613281 118.855469 88.253906 118.875 88.644531 118.894531 L 88.644531 118.519531 C 87.859375 118.519531 87.726562 118.519531 87.726562 117.992188 L 87.726562 115.78125 C 87.726562 114.542969 88.570312 113.867188 89.339844 113.867188 C 90.089844 113.867188 90.222656 114.503906 90.222656 115.199219 L 90.222656 117.992188 C 90.222656 118.519531 90.089844 118.519531 89.285156 118.519531 L 89.285156 118.894531 C 89.695312 118.875 90.316406 118.855469 90.632812 118.855469 C 90.953125 118.855469 91.570312 118.875 91.984375 118.894531 L 91.984375 118.519531 C 91.363281 118.519531 91.066406 118.519531 91.046875 118.160156 L 91.046875 115.875 C 91.046875 114.84375 91.046875 114.488281 90.671875 114.054688 C 90.503906 113.847656 90.109375 113.605469 89.414062 113.605469 C 88.421875 113.605469 87.878906 114.316406 87.691406 114.785156 C 87.519531 113.738281 86.640625 113.605469 86.097656 113.605469 C 85.214844 113.605469 84.652344 114.113281 84.316406 114.863281 L 84.316406 113.605469 L 82.628906 113.738281 L 82.628906 114.113281 C 83.472656 114.113281 83.566406 114.1875 83.566406 114.785156 Z M 83.566406 114.785156 "/>
<path style=" stroke:none;fill-rule:nonzero;fill:rgb(0%,0%,0%);fill-opacity:1;" d="M 96.1875 117.992188 C 96.246094 118.460938 96.5625 118.96875 97.125 118.96875 C 97.390625 118.96875 98.121094 118.800781 98.121094 117.824219 L 98.121094 117.148438 L 97.820312 117.148438 L 97.820312 117.824219 C 97.820312 118.519531 97.519531 118.59375 97.390625 118.59375 C 96.996094 118.59375 96.9375 118.050781 96.9375 117.992188 L 96.9375 115.613281 C 96.9375 115.105469 96.9375 114.636719 96.507812 114.1875 C 96.039062 113.71875 95.4375 113.53125 94.875 113.53125 C 93.882812 113.53125 93.058594 114.09375 93.058594 114.878906 C 93.058594 115.238281 93.300781 115.441406 93.621094 115.441406 C 93.957031 115.441406 94.164062 115.199219 94.164062 114.898438 C 94.164062 114.75 94.109375 114.355469 93.546875 114.355469 C 93.882812 113.925781 94.464844 113.792969 94.839844 113.792969 C 95.4375 113.792969 96.113281 114.261719 96.113281 115.332031 L 96.113281 115.761719 C 95.496094 115.800781 94.671875 115.835938 93.921875 116.191406 C 93.019531 116.605469 92.71875 117.222656 92.71875 117.75 C 92.71875 118.722656 93.882812 119.023438 94.632812 119.023438 C 95.421875 119.023438 95.964844 118.535156 96.1875 117.992188 Z M 96.113281 116.023438 L 96.113281 117.222656 C 96.113281 118.347656 95.25 118.761719 94.707031 118.761719 C 94.125 118.761719 93.640625 118.347656 93.640625 117.75 C 93.640625 117.09375 94.144531 116.097656 96.113281 116.023438 Z M 96.113281 116.023438 "/>
<g clip-path="url(#clip2)" clip-rule="nonzero">
<path style=" stroke:none;fill-rule:nonzero;fill:rgb(0%,0%,0%);fill-opacity:1;" d="M 84.386719 131.625 C 83.335938 131.625 83.335938 130.425781 83.335938 130.164062 C 83.335938 129.84375 83.355469 129.449219 83.523438 129.148438 C 83.617188 129.019531 83.898438 128.679688 84.386719 128.679688 C 85.417969 128.679688 85.417969 129.863281 85.417969 130.144531 C 85.417969 130.460938 85.417969 130.855469 85.230469 131.15625 C 85.136719 131.289062 84.855469 131.625 84.386719 131.625 Z M 83 132.09375 C 83 132.054688 83 131.773438 83.1875 131.53125 C 83.65625 131.867188 84.160156 131.90625 84.386719 131.90625 C 85.492188 131.90625 86.316406 131.082031 86.316406 130.164062 C 86.316406 129.710938 86.128906 129.28125 85.832031 129 C 86.261719 128.585938 86.691406 128.53125 86.898438 128.53125 C 86.9375 128.53125 86.992188 128.53125 87.03125 128.550781 C 86.898438 128.585938 86.824219 128.71875 86.824219 128.867188 C 86.824219 129.074219 86.992188 129.207031 87.179688 129.207031 C 87.292969 129.207031 87.519531 129.132812 87.519531 128.851562 C 87.519531 128.644531 87.386719 128.269531 86.917969 128.269531 C 86.675781 128.269531 86.148438 128.34375 85.644531 128.832031 C 85.136719 128.4375 84.648438 128.398438 84.386719 128.398438 C 83.261719 128.398438 82.4375 129.226562 82.4375 130.144531 C 82.4375 130.667969 82.699219 131.117188 83 131.382812 C 82.847656 131.550781 82.625 131.945312 82.625 132.375 C 82.625 132.75 82.792969 133.199219 83.167969 133.445312 C 82.4375 133.632812 82.0625 134.15625 82.0625 134.625 C 82.0625 135.488281 83.242188 136.144531 84.707031 136.144531 C 86.113281 136.144531 87.347656 135.542969 87.347656 134.605469 C 87.347656 134.195312 87.199219 133.574219 86.582031 133.238281 C 85.941406 132.917969 85.25 132.917969 84.519531 132.917969 C 84.21875 132.917969 83.710938 132.917969 83.617188 132.898438 C 83.242188 132.84375 83 132.488281 83 132.09375 Z M 84.722656 135.882812 C 83.503906 135.882812 82.679688 135.261719 82.679688 134.625 C 82.679688 134.082031 83.128906 133.632812 83.65625 133.613281 L 84.367188 133.613281 C 85.398438 133.613281 86.730469 133.613281 86.730469 134.625 C 86.730469 135.28125 85.886719 135.882812 84.722656 135.882812 Z M 84.722656 135.882812 "/>
</g>
<path style=" stroke:none;fill-rule:nonzero;fill:rgb(0%,0%,0%);fill-opacity:1;" d="M 89.820312 125.382812 L 88.09375 125.511719 L 88.09375 125.886719 C 88.9375 125.886719 89.03125 125.960938 89.03125 126.5625 L 89.03125 132.789062 C 89.03125 133.3125 88.902344 133.3125 88.09375 133.3125 L 88.09375 133.6875 C 88.488281 133.667969 89.125 133.648438 89.425781 133.648438 C 89.726562 133.648438 90.308594 133.667969 90.757812 133.6875 L 90.757812 133.3125 C 89.953125 133.3125 89.820312 133.3125 89.820312 132.789062 Z M 89.820312 125.382812 "/>
<path style=" stroke:none;fill-rule:nonzero;fill:rgb(0%,0%,0%);fill-opacity:1;" d="M 96.648438 131.117188 C 96.648438 129.601562 95.464844 128.324219 94.023438 128.324219 C 92.523438 128.324219 91.359375 129.636719 91.359375 131.117188 C 91.359375 132.675781 92.597656 133.820312 94.003906 133.820312 C 95.449219 133.820312 96.648438 132.636719 96.648438 131.117188 Z M 94.023438 133.519531 C 93.496094 133.519531 92.972656 133.273438 92.652344 132.710938 C 92.355469 132.1875 92.355469 131.457031 92.355469 131.023438 C 92.355469 130.554688 92.355469 129.917969 92.636719 129.394531 C 92.953125 128.851562 93.515625 128.585938 94.003906 128.585938 C 94.527344 128.585938 95.035156 128.851562 95.355469 129.375 C 95.671875 129.882812 95.671875 130.574219 95.671875 131.023438 C 95.671875 131.457031 95.671875 132.113281 95.410156 132.636719 C 95.128906 133.179688 94.605469 133.519531 94.023438 133.519531 Z M 94.023438 133.519531 "/>
<path style=" stroke:none;fill-rule:nonzero;fill:rgb(0%,0%,0%);fill-opacity:1;" d="M 99.0625 129.167969 L 99.0625 125.382812 L 97.339844 125.511719 L 97.339844 125.886719 C 98.183594 125.886719 98.277344 125.960938 98.277344 126.5625 L 98.277344 133.6875 L 98.574219 133.6875 C 98.574219 133.667969 98.667969 133.5 99.007812 132.9375 C 99.175781 133.21875 99.683594 133.820312 100.5625 133.820312 C 101.988281 133.820312 103.226562 132.636719 103.226562 131.101562 C 103.226562 129.582031 102.0625 128.398438 100.695312 128.398438 C 99.757812 128.398438 99.25 128.960938 99.0625 129.167969 Z M 99.101562 132.320312 L 99.101562 129.863281 C 99.101562 129.636719 99.101562 129.617188 99.230469 129.429688 C 99.699219 128.757812 100.355469 128.664062 100.636719 128.664062 C 101.183594 128.664062 101.613281 128.980469 101.894531 129.429688 C 102.214844 129.917969 102.230469 130.59375 102.230469 131.101562 C 102.230469 131.53125 102.214844 132.242188 101.875 132.789062 C 101.613281 133.164062 101.164062 133.554688 100.527344 133.554688 C 99.980469 133.554688 99.550781 133.273438 99.269531 132.824219 C 99.101562 132.582031 99.101562 132.542969 99.101562 132.320312 Z M 99.101562 132.320312 "/>
<path style=" stroke:none;fill-rule:nonzero;fill:rgb(0%,0%,0%);fill-opacity:1;" d="M 107.617188 132.789062 C 107.675781 133.257812 107.992188 133.761719 108.554688 133.761719 C 108.816406 133.761719 109.550781 133.59375 109.550781 132.617188 L 109.550781 131.945312 L 109.25 131.945312 L 109.25 132.617188 C 109.25 133.3125 108.949219 133.386719 108.816406 133.386719 C 108.425781 133.386719 108.367188 132.84375 108.367188 132.789062 L 108.367188 130.40625 C 108.367188 129.898438 108.367188 129.429688 107.9375 128.980469 C 107.46875 128.511719 106.867188 128.324219 106.304688 128.324219 C 105.3125 128.324219 104.488281 128.886719 104.488281 129.675781 C 104.488281 130.03125 104.730469 130.238281 105.050781 130.238281 C 105.386719 130.238281 105.59375 129.992188 105.59375 129.695312 C 105.59375 129.542969 105.535156 129.148438 104.972656 129.148438 C 105.3125 128.71875 105.894531 128.585938 106.269531 128.585938 C 106.867188 128.585938 107.542969 129.054688 107.542969 130.125 L 107.542969 130.554688 C 106.925781 130.59375 106.097656 130.632812 105.347656 130.988281 C 104.449219 131.398438 104.148438 132.019531 104.148438 132.542969 C 104.148438 133.519531 105.3125 133.820312 106.0625 133.820312 C 106.847656 133.820312 107.394531 133.332031 107.617188 132.789062 Z M 107.542969 130.820312 L 107.542969 132.019531 C 107.542969 133.144531 106.679688 133.554688 106.136719 133.554688 C 105.554688 133.554688 105.066406 133.144531 105.066406 132.542969 C 105.066406 131.886719 105.574219 130.894531 107.542969 130.820312 Z M 107.542969 130.820312 "/>
<path style=" stroke:none;fill-rule:nonzero;fill:rgb(0%,0%,0%);fill-opacity:1;" d="M 111.738281 125.382812 L 110.015625 125.511719 L 110.015625 125.886719 C 110.859375 125.886719 110.953125 125.960938 110.953125 126.5625 L 110.953125 132.789062 C 110.953125 133.3125 110.820312 133.3125 110.015625 133.3125 L 110.015625 133.6875 C 110.40625 133.667969 111.046875 133.648438 111.34375 133.648438 C 111.644531 133.648438 112.226562 133.667969 112.675781 133.6875 L 112.675781 133.3125 C 111.871094 133.3125 111.738281 133.3125 111.738281 132.789062 Z M 111.738281 125.382812 "/>
<path style=" stroke:none;fill-rule:nonzero;fill:rgb(0%,0%,0%);fill-opacity:1;" d="M 118.234375 129.582031 L 118.234375 132.789062 C 118.234375 133.3125 118.105469 133.3125 117.296875 133.3125 L 117.296875 133.6875 C 117.730469 133.667969 118.328125 133.648438 118.667969 133.648438 C 118.964844 133.648438 119.585938 133.667969 119.996094 133.6875 L 119.996094 133.3125 C 119.191406 133.3125 119.058594 133.3125 119.058594 132.789062 L 119.058594 130.574219 C 119.058594 129.335938 119.921875 128.664062 120.671875 128.664062 C 121.441406 128.664062 121.574219 129.300781 121.574219 129.992188 L 121.574219 132.789062 C 121.574219 133.3125 121.441406 133.3125 120.636719 133.3125 L 120.636719 133.6875 C 121.046875 133.667969 121.667969 133.648438 121.984375 133.648438 C 122.285156 133.648438 122.921875 133.667969 123.316406 133.6875 L 123.316406 133.3125 C 122.527344 133.3125 122.398438 133.3125 122.398438 132.789062 L 122.398438 130.574219 C 122.398438 129.335938 123.242188 128.664062 124.011719 128.664062 C 124.761719 128.664062 124.890625 129.300781 124.890625 129.992188 L 124.890625 132.789062 C 124.890625 133.3125 124.761719 133.3125 123.953125 133.3125 L 123.953125 133.6875 C 124.367188 133.667969 124.984375 133.648438 125.304688 133.648438 C 125.621094 133.648438 126.242188 133.667969 126.652344 133.6875 L 126.652344 133.3125 C 126.035156 133.3125 125.734375 133.3125 125.714844 132.957031 L 125.714844 130.667969 C 125.714844 129.636719 125.714844 129.28125 125.339844 128.851562 C 125.171875 128.644531 124.777344 128.398438 124.085938 128.398438 C 123.089844 128.398438 122.546875 129.113281 122.359375 129.582031 C 122.191406 128.53125 121.308594 128.398438 120.765625 128.398438 C 119.886719 128.398438 119.324219 128.90625 118.984375 129.65625 L 118.984375 128.398438 L 117.296875 128.53125 L 117.296875 128.90625 C 118.140625 128.90625 118.234375 128.980469 118.234375 129.582031 Z M 118.234375 129.582031 "/>
<path style=" stroke:none;fill-rule:nonzero;fill:rgb(0%,0%,0%);fill-opacity:1;" d="M 129.003906 128.398438 L 127.335938 128.53125 L 127.335938 128.90625 C 128.101562 128.90625 128.214844 128.980469 128.214844 129.5625 L 128.214844 132.789062 C 128.214844 133.3125 128.085938 133.3125 127.277344 133.3125 L 127.277344 133.6875 C 127.652344 133.667969 128.308594 133.648438 128.589844 133.648438 C 129.023438 133.648438 129.433594 133.667969 129.847656 133.6875 L 129.847656 133.3125 C 129.039062 133.3125 129.003906 133.257812 129.003906 132.789062 Z M 129.039062 126.320312 C 129.039062 125.945312 128.757812 125.679688 128.421875 125.679688 C 128.046875 125.679688 127.785156 126 127.785156 126.320312 C 127.785156 126.636719 128.046875 126.957031 128.421875 126.957031 C 128.757812 126.957031 129.039062 126.695312 129.039062 126.320312 Z M 129.039062 126.320312 "/>
<path style=" stroke:none;fill-rule:nonzero;fill:rgb(0%,0%,0%);fill-opacity:1;" d="M 131.519531 129.582031 L 131.519531 132.789062 C 131.519531 133.3125 131.386719 133.3125 130.582031 133.3125 L 130.582031 133.6875 C 131.011719 133.667969 131.613281 133.648438 131.949219 133.648438 C 132.25 133.648438 132.867188 133.667969 133.28125 133.6875 L 133.28125 133.3125 C 132.476562 133.3125 132.34375 133.3125 132.34375 132.789062 L 132.34375 130.574219 C 132.34375 129.335938 133.207031 128.664062 133.957031 128.664062 C 134.726562 128.664062 134.855469 129.300781 134.855469 129.992188 L 134.855469 132.789062 C 134.855469 133.3125 134.726562 133.3125 133.917969 133.3125 L 133.917969 133.6875 C 134.332031 133.667969 134.949219 133.648438 135.269531 133.648438 C 135.570312 133.648438 136.207031 133.667969 136.601562 133.6875 L 136.601562 133.3125 C 135.980469 133.3125 135.679688 133.3125 135.679688 132.957031 L 135.679688 130.667969 C 135.679688 129.636719 135.679688 129.28125 135.304688 128.851562 C 135.136719 128.644531 134.742188 128.398438 134.050781 128.398438 C 133.167969 128.398438 132.605469 128.90625 132.269531 129.65625 L 132.269531 128.398438 L 130.582031 128.53125 L 130.582031 128.90625 C 131.425781 128.90625 131.519531 128.980469 131.519531 129.582031 Z M 131.519531 129.582031 "/>
<path style=" stroke:none;fill-rule:nonzero;fill:rgb(0%,0%,0%);fill-opacity:1;" d="M 138.96875 128.398438 L 137.296875 128.53125 L 137.296875 128.90625 C 138.066406 128.90625 138.179688 128.980469 138.179688 129.5625 L 138.179688 132.789062 C 138.179688 133.3125 138.046875 133.3125 137.242188 133.3125 L 137.242188 133.6875 C 137.617188 133.667969 138.273438 133.648438 138.554688 133.648438 C 138.984375 133.648438 139.398438 133.667969 139.8125 133.6875 L 139.8125 133.3125 C 139.003906 133.3125 138.96875 133.257812 138.96875 132.789062 Z M 139.003906 126.320312 C 139.003906 125.945312 138.722656 125.679688 138.386719 125.679688 C 138.011719 125.679688 137.75 126 137.75 126.320312 C 137.75 126.636719 138.011719 126.957031 138.386719 126.957031 C 138.722656 126.957031 139.003906 126.695312 139.003906 126.320312 Z M 139.003906 126.320312 "/>
<path style=" stroke:none;fill-rule:nonzero;fill:rgb(0%,0%,0%);fill-opacity:1;" d="M 141.480469 129.582031 L 141.480469 132.789062 C 141.480469 133.3125 141.351562 133.3125 140.542969 133.3125 L 140.542969 133.6875 C 140.976562 133.667969 141.574219 133.648438 141.914062 133.648438 C 142.214844 133.648438 142.832031 133.667969 143.246094 133.6875 L 143.246094 133.3125 C 142.4375 133.3125 142.308594 133.3125 142.308594 132.789062 L 142.308594 130.574219 C 142.308594 129.335938 143.167969 128.664062 143.917969 128.664062 C 144.6875 128.664062 144.820312 129.300781 144.820312 129.992188 L 144.820312 132.789062 C 144.820312 133.3125 144.6875 133.3125 143.882812 133.3125 L 143.882812 133.6875 C 144.292969 133.667969 144.914062 133.648438 145.230469 133.648438 C 145.53125 133.648438 146.167969 133.667969 146.5625 133.6875 L 146.5625 133.3125 C 145.777344 133.3125 145.644531 133.3125 145.644531 132.789062 L 145.644531 130.574219 C 145.644531 129.335938 146.488281 128.664062 147.257812 128.664062 C 148.007812 128.664062 148.136719 129.300781 148.136719 129.992188 L 148.136719 132.789062 C 148.136719 133.3125 148.007812 133.3125 147.199219 133.3125 L 147.199219 133.6875 C 147.613281 133.667969 148.230469 133.648438 148.550781 133.648438 C 148.871094 133.648438 149.488281 133.667969 149.902344 133.6875 L 149.902344 133.3125 C 149.28125 133.3125 148.980469 133.3125 148.964844 132.957031 L 148.964844 130.667969 C 148.964844 129.636719 148.964844 129.28125 148.589844 128.851562 C 148.417969 128.644531 148.027344 128.398438 147.332031 128.398438 C 146.339844 128.398438 145.792969 129.113281 145.605469 129.582031 C 145.4375 128.53125 144.558594 128.398438 144.011719 128.398438 C 143.132812 128.398438 142.570312 128.90625 142.230469 129.65625 L 142.230469 128.398438 L 140.542969 128.53125 L 140.542969 128.90625 C 141.386719 128.90625 141.480469 128.980469 141.480469 129.582031 Z M 141.480469 129.582031 "/>
<path style=" stroke:none;fill-rule:nonzero;fill:rgb(0%,0%,0%);fill-opacity:1;" d="M 154.464844 132.75 L 154.464844 133.820312 L 156.191406 133.6875 L 156.191406 133.3125 C 155.367188 133.3125 155.273438 133.238281 155.273438 132.636719 L 155.273438 128.398438 L 153.507812 128.53125 L 153.507812 128.90625 C 154.335938 128.90625 154.445312 128.980469 154.445312 129.582031 L 154.445312 131.699219 C 154.445312 132.75 153.867188 133.554688 152.984375 133.554688 C 151.992188 133.554688 151.933594 132.992188 151.933594 132.375 L 151.933594 128.398438 L 150.171875 128.53125 L 150.171875 128.90625 C 151.109375 128.90625 151.109375 128.945312 151.109375 129.992188 L 151.109375 131.792969 C 151.109375 132.730469 151.109375 133.820312 152.929688 133.820312 C 153.601562 133.820312 154.128906 133.480469 154.464844 132.75 Z M 154.464844 132.75 "/>
<path style=" stroke:none;fill-rule:nonzero;fill:rgb(0%,0%,0%);fill-opacity:1;" d="M 157.75 129.582031 L 157.75 132.789062 C 157.75 133.3125 157.621094 133.3125 156.8125 133.3125 L 156.8125 133.6875 C 157.246094 133.667969 157.84375 133.648438 158.183594 133.648438 C 158.484375 133.648438 159.101562 133.667969 159.515625 133.6875 L 159.515625 133.3125 C 158.707031 133.3125 158.578125 133.3125 158.578125 132.789062 L 158.578125 130.574219 C 158.578125 129.335938 159.4375 128.664062 160.1875 128.664062 C 160.957031 128.664062 161.089844 129.300781 161.089844 129.992188 L 161.089844 132.789062 C 161.089844 133.3125 160.957031 133.3125 160.152344 133.3125 L 160.152344 133.6875 C 160.5625 133.667969 161.183594 133.648438 161.5 133.648438 C 161.800781 133.648438 162.4375 133.667969 162.832031 133.6875 L 162.832031 133.3125 C 162.046875 133.3125 161.914062 133.3125 161.914062 132.789062 L 161.914062 130.574219 C 161.914062 129.335938 162.757812 128.664062 163.527344 128.664062 C 164.277344 128.664062 164.40625 129.300781 164.40625 129.992188 L 164.40625 132.789062 C 164.40625 133.3125 164.277344 133.3125 163.46875 133.3125 L 163.46875 133.6875 C 163.882812 133.667969 164.5 133.648438 164.820312 133.648438 C 165.140625 133.648438 165.757812 133.667969 166.171875 133.6875 L 166.171875 133.3125 C 165.550781 133.3125 165.25 133.3125 165.234375 132.957031 L 165.234375 130.667969 C 165.234375 129.636719 165.234375 129.28125 164.859375 128.851562 C 164.6875 128.644531 164.296875 128.398438 163.601562 128.398438 C 162.609375 128.398438 162.0625 129.113281 161.875 129.582031 C 161.707031 128.53125 160.828125 128.398438 160.28125 128.398438 C 159.402344 128.398438 158.839844 128.90625 158.5 129.65625 L 158.5 128.398438 L 156.8125 128.53125 L 156.8125 128.90625 C 157.65625 128.90625 157.75 128.980469 157.75 129.582031 Z M 157.75 129.582031 "/>
<path style="fill:none;stroke-width:0.4;stroke-linecap:butt;stroke-linejoin:miter;stroke:rgb(100%,0%,0%);stroke-opacity:1;stroke-miterlimit:4;" d="M 168.914062 130.761719 L 173.714844 130.761719 L 178.515625 125.960938 "/>
<path style="fill-rule:evenodd;fill:rgb(100%,0%,0%);fill-opacity:1;stroke-width:0.1;stroke-linecap:butt;stroke-linejoin:miter;stroke:rgb(100%,0%,0%);stroke-opacity:1;stroke-miterlimit:4;" d="M 169.308594 130.761719 C 169.308594 130.984375 169.128906 131.164062 168.90625 131.164062 C 168.6875 131.164062 168.507812 130.984375 168.507812 130.761719 C 168.507812 130.542969 168.6875 130.363281 168.90625 130.363281 C 169.128906 130.363281 169.308594 130.542969 169.308594 130.761719 Z M 169.308594 130.761719 "/>
<path style="fill-rule:evenodd;fill:rgb(100%,0%,0%);fill-opacity:1;stroke-width:0.141421;stroke-linecap:butt;stroke-linejoin:miter;stroke:rgb(100%,0%,0%);stroke-opacity:1;stroke-miterlimit:4;" d="M -25.144531 -152.238281 L -24.578125 -152.804688 L -26.560547 -152.240234 L -24.580078 -151.673828 Z M -25.144531 -152.238281 " transform="matrix(-1,1,-1,-1,0,0)"/>
<path style=" stroke:none;fill-rule:nonzero;fill:rgb(0%,0%,0%);fill-opacity:1;" d="M 134.40625 12.945312 L 132.679688 13.074219 L 132.679688 13.449219 C 133.523438 13.449219 133.617188 13.523438 133.617188 14.125 L 133.617188 20.351562 C 133.617188 20.875 133.488281 20.875 132.679688 20.875 L 132.679688 21.25 C 133.074219 21.230469 133.710938 21.210938 134.011719 21.210938 C 134.3125 21.210938 134.894531 21.230469 135.34375 21.25 L 135.34375 20.875 C 134.535156 20.875 134.40625 20.875 134.40625 20.351562 Z M 134.40625 12.945312 "/>
<path style=" stroke:none;fill-rule:nonzero;fill:rgb(0%,0%,0%);fill-opacity:1;" d="M 141.234375 18.679688 C 141.234375 17.164062 140.050781 15.886719 138.609375 15.886719 C 137.109375 15.886719 135.945312 17.199219 135.945312 18.679688 C 135.945312 20.238281 137.183594 21.382812 138.589844 21.382812 C 140.03125 21.382812 141.234375 20.199219 141.234375 18.679688 Z M 138.609375 21.082031 C 138.082031 21.082031 137.558594 20.835938 137.238281 20.273438 C 136.9375 19.75 136.9375 19.019531 136.9375 18.585938 C 136.9375 18.117188 136.9375 17.480469 137.21875 16.957031 C 137.539062 16.414062 138.101562 16.148438 138.589844 16.148438 C 139.113281 16.148438 139.621094 16.414062 139.9375 16.9375 C 140.257812 17.445312 140.257812 18.136719 140.257812 18.585938 C 140.257812 19.019531 140.257812 19.675781 139.996094 20.199219 C 139.714844 20.742188 139.1875 21.082031 138.609375 21.082031 Z M 138.609375 21.082031 "/>
<path style=" stroke:none;fill-rule:nonzero;fill:rgb(0%,0%,0%);fill-opacity:1;" d="M 143.324219 18.644531 C 143.324219 16.695312 144.300781 16.1875 144.9375 16.1875 C 145.050781 16.1875 145.800781 16.207031 146.214844 16.636719 C 145.726562 16.675781 145.652344 17.03125 145.652344 17.179688 C 145.652344 17.5 145.875 17.726562 146.195312 17.726562 C 146.511719 17.726562 146.757812 17.539062 146.757812 17.164062 C 146.757812 16.355469 145.839844 15.886719 144.917969 15.886719 C 143.417969 15.886719 142.332031 17.179688 142.332031 18.664062 C 142.332031 20.199219 143.511719 21.382812 144.902344 21.382812 C 146.496094 21.382812 146.886719 19.9375 146.886719 19.824219 C 146.886719 19.710938 146.757812 19.710938 146.71875 19.710938 C 146.625 19.710938 146.589844 19.75 146.570312 19.824219 C 146.230469 20.929688 145.445312 21.082031 145.011719 21.082031 C 144.375 21.082031 143.324219 20.574219 143.324219 18.644531 Z M 143.324219 18.644531 "/>
<path style=" stroke:none;fill-rule:nonzero;fill:rgb(0%,0%,0%);fill-opacity:1;" d="M 151.207031 20.351562 C 151.265625 20.820312 151.582031 21.324219 152.144531 21.324219 C 152.40625 21.324219 153.140625 21.15625 153.140625 20.179688 L 153.140625 19.507812 L 152.839844 19.507812 L 152.839844 20.179688 C 152.839844 20.875 152.539062 20.949219 152.40625 20.949219 C 152.015625 20.949219 151.957031 20.40625 151.957031 20.351562 L 151.957031 17.96875 C 151.957031 17.460938 151.957031 16.992188 151.527344 16.542969 C 151.058594 16.074219 150.457031 15.886719 149.894531 15.886719 C 148.902344 15.886719 148.078125 16.449219 148.078125 17.238281 C 148.078125 17.59375 148.320312 17.800781 148.640625 17.800781 C 148.976562 17.800781 149.183594 17.554688 149.183594 17.257812 C 149.183594 17.105469 149.125 16.710938 148.5625 16.710938 C 148.902344 16.28125 149.484375 16.148438 149.859375 16.148438 C 150.457031 16.148438 151.132812 16.617188 151.132812 17.6875 L 151.132812 18.117188 C 150.515625 18.15625 149.6875 18.195312 148.9375 18.550781 C 148.039062 18.960938 147.738281 19.582031 147.738281 20.105469 C 147.738281 21.082031 148.902344 21.382812 149.652344 21.382812 C 150.4375 21.382812 150.984375 20.894531 151.207031 20.351562 Z M 151.132812 18.382812 L 151.132812 19.582031 C 151.132812 20.707031 150.269531 21.117188 149.726562 21.117188 C 149.144531 21.117188 148.65625 20.707031 148.65625 20.105469 C 148.65625 19.449219 149.164062 18.457031 151.132812 18.382812 Z M 151.132812 18.382812 "/>
<path style=" stroke:none;fill-rule:nonzero;fill:rgb(0%,0%,0%);fill-opacity:1;" d="M 155.328125 12.945312 L 153.605469 13.074219 L 153.605469 13.449219 C 154.449219 13.449219 154.542969 13.523438 154.542969 14.125 L 154.542969 20.351562 C 154.542969 20.875 154.410156 20.875 153.605469 20.875 L 153.605469 21.25 C 153.996094 21.230469 154.636719 21.210938 154.933594 21.210938 C 155.234375 21.210938 155.816406 21.230469 156.265625 21.25 L 156.265625 20.875 C 155.460938 20.875 155.328125 20.875 155.328125 20.351562 Z M 155.328125 12.945312 "/>
<path style=" stroke:none;fill-rule:nonzero;fill:rgb(0%,0%,0%);fill-opacity:1;" d="M 161.824219 17.144531 L 161.824219 20.351562 C 161.824219 20.875 161.695312 20.875 160.886719 20.875 L 160.886719 21.25 C 161.320312 21.230469 161.917969 21.210938 162.257812 21.210938 C 162.554688 21.210938 163.175781 21.230469 163.585938 21.25 L 163.585938 20.875 C 162.78125 20.875 162.648438 20.875 162.648438 20.351562 L 162.648438 18.136719 C 162.648438 16.898438 163.511719 16.226562 164.261719 16.226562 C 165.03125 16.226562 165.164062 16.863281 165.164062 17.554688 L 165.164062 20.351562 C 165.164062 20.875 165.03125 20.875 164.226562 20.875 L 164.226562 21.25 C 164.636719 21.230469 165.257812 21.210938 165.574219 21.210938 C 165.875 21.210938 166.511719 21.230469 166.90625 21.25 L 166.90625 20.875 C 166.117188 20.875 165.988281 20.875 165.988281 20.351562 L 165.988281 18.136719 C 165.988281 16.898438 166.832031 16.226562 167.601562 16.226562 C 168.351562 16.226562 168.480469 16.863281 168.480469 17.554688 L 168.480469 20.351562 C 168.480469 20.875 168.351562 20.875 167.542969 20.875 L 167.542969 21.25 C 167.957031 21.230469 168.574219 21.210938 168.894531 21.210938 C 169.210938 21.210938 169.832031 21.230469 170.242188 21.25 L 170.242188 20.875 C 169.625 20.875 169.324219 20.875 169.304688 20.519531 L 169.304688 18.230469 C 169.304688 17.199219 169.304688 16.84375 168.929688 16.414062 C 168.761719 16.207031 168.367188 15.960938 167.675781 15.960938 C 166.679688 15.960938 166.136719 16.675781 165.949219 17.144531 C 165.78125 16.09375 164.898438 15.960938 164.355469 15.960938 C 163.476562 15.960938 162.914062 16.46875 162.574219 17.21875 L 162.574219 15.960938 L 160.886719 16.09375 L 160.886719 16.46875 C 161.730469 16.46875 161.824219 16.542969 161.824219 17.144531 Z M 161.824219 17.144531 "/>
<path style=" stroke:none;fill-rule:nonzero;fill:rgb(0%,0%,0%);fill-opacity:1;" d="M 174.449219 20.351562 C 174.507812 20.820312 174.824219 21.324219 175.386719 21.324219 C 175.648438 21.324219 176.382812 21.15625 176.382812 20.179688 L 176.382812 19.507812 L 176.082031 19.507812 L 176.082031 20.179688 C 176.082031 20.875 175.78125 20.949219 175.648438 20.949219 C 175.257812 20.949219 175.199219 20.40625 175.199219 20.351562 L 175.199219 17.96875 C 175.199219 17.460938 175.199219 16.992188 174.769531 16.542969 C 174.300781 16.074219 173.699219 15.886719 173.136719 15.886719 C 172.144531 15.886719 171.320312 16.449219 171.320312 17.238281 C 171.320312 17.59375 171.5625 17.800781 171.882812 17.800781 C 172.21875 17.800781 172.425781 17.554688 172.425781 17.257812 C 172.425781 17.105469 172.367188 16.710938 171.804688 16.710938 C 172.144531 16.28125 172.726562 16.148438 173.101562 16.148438 C 173.699219 16.148438 174.375 16.617188 174.375 17.6875 L 174.375 18.117188 C 173.757812 18.15625 172.929688 18.195312 172.179688 18.550781 C 171.28125 18.960938 170.980469 19.582031 170.980469 20.105469 C 170.980469 21.082031 172.144531 21.382812 172.894531 21.382812 C 173.679688 21.382812 174.226562 20.894531 174.449219 20.351562 Z M 174.375 18.382812 L 174.375 19.582031 C 174.375 20.707031 173.511719 21.117188 172.96875 21.117188 C 172.386719 21.117188 171.898438 20.707031 171.898438 20.105469 C 171.898438 19.449219 172.40625 18.457031 174.375 18.382812 Z M 174.375 18.382812 "/>
<path style=" stroke:none;fill-rule:nonzero;fill:rgb(0%,0%,0%);fill-opacity:1;" d="M 179.882812 18.4375 C 180.238281 17.988281 180.691406 17.40625 180.988281 17.085938 C 181.363281 16.65625 181.851562 16.46875 182.414062 16.46875 L 182.414062 16.09375 C 182.097656 16.113281 181.738281 16.132812 181.421875 16.132812 C 181.066406 16.132812 180.425781 16.113281 180.277344 16.09375 L 180.277344 16.46875 C 180.539062 16.488281 180.632812 16.636719 180.632812 16.84375 C 180.632812 17.03125 180.503906 17.179688 180.445312 17.257812 L 179.714844 18.195312 L 178.777344 16.976562 C 178.664062 16.863281 178.664062 16.84375 178.664062 16.769531 C 178.664062 16.582031 178.851562 16.46875 179.078125 16.46875 L 179.078125 16.09375 C 178.777344 16.113281 177.988281 16.132812 177.785156 16.132812 C 177.539062 16.132812 176.976562 16.113281 176.660156 16.09375 L 176.660156 16.46875 C 177.503906 16.46875 177.503906 16.46875 178.066406 17.199219 L 179.246094 18.738281 L 178.121094 20.164062 C 177.558594 20.855469 176.847656 20.875 176.601562 20.875 L 176.601562 21.25 C 176.902344 21.230469 177.277344 21.210938 177.597656 21.210938 C 177.933594 21.210938 178.441406 21.230469 178.722656 21.25 L 178.722656 20.875 C 178.457031 20.835938 178.382812 20.6875 178.382812 20.5 C 178.382812 20.238281 178.722656 19.84375 179.453125 18.980469 L 180.371094 20.179688 C 180.464844 20.3125 180.613281 20.5 180.613281 20.574219 C 180.613281 20.6875 180.503906 20.875 180.183594 20.875 L 180.183594 21.25 C 180.539062 21.230469 181.214844 21.210938 181.476562 21.210938 C 181.796875 21.210938 182.265625 21.230469 182.621094 21.25 L 182.621094 20.875 C 181.984375 20.875 181.757812 20.855469 181.496094 20.5 Z M 179.882812 18.4375 "/>
<path style=" stroke:none;fill-rule:nonzero;fill:rgb(0%,0%,0%);fill-opacity:1;" d="M 184.882812 15.960938 L 183.210938 16.09375 L 183.210938 16.46875 C 183.980469 16.46875 184.09375 16.542969 184.09375 17.125 L 184.09375 20.351562 C 184.09375 20.875 183.960938 20.875 183.15625 20.875 L 183.15625 21.25 C 183.53125 21.230469 184.1875 21.210938 184.46875 21.210938 C 184.898438 21.210938 185.3125 21.230469 185.726562 21.25 L 185.726562 20.875 C 184.917969 20.875 184.882812 20.820312 184.882812 20.351562 Z M 184.917969 13.882812 C 184.917969 13.507812 184.636719 13.242188 184.300781 13.242188 C 183.925781 13.242188 183.664062 13.5625 183.664062 13.882812 C 183.664062 14.199219 183.925781 14.519531 184.300781 14.519531 C 184.636719 14.519531 184.917969 14.257812 184.917969 13.882812 Z M 184.917969 13.882812 "/>
<path style=" stroke:none;fill-rule:nonzero;fill:rgb(0%,0%,0%);fill-opacity:1;" d="M 187.394531 17.144531 L 187.394531 20.351562 C 187.394531 20.875 187.265625 20.875 186.457031 20.875 L 186.457031 21.25 C 186.890625 21.230469 187.488281 21.210938 187.828125 21.210938 C 188.128906 21.210938 188.746094 21.230469 189.160156 21.25 L 189.160156 20.875 C 188.351562 20.875 188.222656 20.875 188.222656 20.351562 L 188.222656 18.136719 C 188.222656 16.898438 189.082031 16.226562 189.832031 16.226562 C 190.601562 16.226562 190.734375 16.863281 190.734375 17.554688 L 190.734375 20.351562 C 190.734375 20.875 190.601562 20.875 189.796875 20.875 L 189.796875 21.25 C 190.207031 21.230469 190.828125 21.210938 191.144531 21.210938 C 191.445312 21.210938 192.082031 21.230469 192.476562 21.25 L 192.476562 20.875 C 191.691406 20.875 191.558594 20.875 191.558594 20.351562 L 191.558594 18.136719 C 191.558594 16.898438 192.402344 16.226562 193.171875 16.226562 C 193.921875 16.226562 194.050781 16.863281 194.050781 17.554688 L 194.050781 20.351562 C 194.050781 20.875 193.921875 20.875 193.113281 20.875 L 193.113281 21.25 C 193.527344 21.230469 194.144531 21.210938 194.464844 21.210938 C 194.785156 21.210938 195.402344 21.230469 195.816406 21.25 L 195.816406 20.875 C 195.195312 20.875 194.894531 20.875 194.878906 20.519531 L 194.878906 18.230469 C 194.878906 17.199219 194.878906 16.84375 194.503906 16.414062 C 194.332031 16.207031 193.941406 15.960938 193.246094 15.960938 C 192.253906 15.960938 191.707031 16.675781 191.519531 17.144531 C 191.351562 16.09375 190.472656 15.960938 189.925781 15.960938 C 189.046875 15.960938 188.484375 16.46875 188.144531 17.21875 L 188.144531 15.960938 L 186.457031 16.09375 L 186.457031 16.46875 C 187.300781 16.46875 187.394531 16.542969 187.394531 17.144531 Z M 187.394531 17.144531 "/>
<path style=" stroke:none;fill-rule:nonzero;fill:rgb(0%,0%,0%);fill-opacity:1;" d="M 200.019531 20.351562 C 200.078125 20.820312 200.394531 21.324219 200.957031 21.324219 C 201.21875 21.324219 201.953125 21.15625 201.953125 20.179688 L 201.953125 19.507812 L 201.652344 19.507812 L 201.652344 20.179688 C 201.652344 20.875 201.351562 20.949219 201.21875 20.949219 C 200.828125 20.949219 200.769531 20.40625 200.769531 20.351562 L 200.769531 17.96875 C 200.769531 17.460938 200.769531 16.992188 200.339844 16.542969 C 199.871094 16.074219 199.269531 15.886719 198.707031 15.886719 C 197.714844 15.886719 196.890625 16.449219 196.890625 17.238281 C 196.890625 17.59375 197.132812 17.800781 197.453125 17.800781 C 197.789062 17.800781 197.996094 17.554688 197.996094 17.257812 C 197.996094 17.105469 197.9375 16.710938 197.375 16.710938 C 197.714844 16.28125 198.296875 16.148438 198.671875 16.148438 C 199.269531 16.148438 199.945312 16.617188 199.945312 17.6875 L 199.945312 18.117188 C 199.328125 18.15625 198.5 18.195312 197.75 18.550781 C 196.851562 18.960938 196.550781 19.582031 196.550781 20.105469 C 196.550781 21.082031 197.714844 21.382812 198.464844 21.382812 C 199.25 21.382812 199.796875 20.894531 200.019531 20.351562 Z M 199.945312 18.382812 L 199.945312 19.582031 C 199.945312 20.707031 199.082031 21.117188 198.539062 21.117188 C 197.957031 21.117188 197.46875 20.707031 197.46875 20.105469 C 197.46875 19.449219 197.976562 18.457031 199.945312 18.382812 Z M 199.945312 18.382812 "/>
<path style=" stroke:none;fill-rule:nonzero;fill:rgb(0%,0%,0%);fill-opacity:1;" d="M 41.625 6.242188 C 40.574219 6.242188 40.574219 5.042969 40.574219 4.78125 C 40.574219 4.460938 40.59375 4.070312 40.761719 3.769531 C 40.855469 3.636719 41.136719 3.300781 41.625 3.300781 C 42.65625 3.300781 42.65625 4.480469 42.65625 4.761719 C 42.65625 5.082031 42.65625 5.476562 42.46875 5.773438 C 42.375 5.90625 42.09375 6.242188 41.625 6.242188 Z M 40.238281 6.710938 C 40.238281 6.675781 40.238281 6.394531 40.425781 6.148438 C 40.894531 6.488281 41.398438 6.523438 41.625 6.523438 C 42.730469 6.523438 43.554688 5.699219 43.554688 4.78125 C 43.554688 4.332031 43.367188 3.898438 43.070312 3.617188 C 43.5 3.207031 43.929688 3.148438 44.136719 3.148438 C 44.175781 3.148438 44.230469 3.148438 44.269531 3.167969 C 44.136719 3.207031 44.0625 3.335938 44.0625 3.488281 C 44.0625 3.695312 44.230469 3.824219 44.417969 3.824219 C 44.53125 3.824219 44.757812 3.75 44.757812 3.46875 C 44.757812 3.261719 44.625 2.886719 44.15625 2.886719 C 43.914062 2.886719 43.386719 2.960938 42.882812 3.449219 C 42.375 3.054688 41.886719 3.019531 41.625 3.019531 C 40.5 3.019531 39.675781 3.84375 39.675781 4.761719 C 39.675781 5.289062 39.9375 5.738281 40.238281 6 C 40.085938 6.167969 39.863281 6.5625 39.863281 6.992188 C 39.863281 7.367188 40.03125 7.820312 40.40625 8.0625 C 39.675781 8.25 39.300781 8.773438 39.300781 9.242188 C 39.300781 10.105469 40.480469 10.761719 41.945312 10.761719 C 43.351562 10.761719 44.585938 10.164062 44.585938 9.226562 C 44.585938 8.8125 44.4375 8.195312 43.820312 7.855469 C 43.179688 7.539062 42.488281 7.539062 41.757812 7.539062 C 41.457031 7.539062 40.949219 7.539062 40.855469 7.519531 C 40.480469 7.460938 40.238281 7.105469 40.238281 6.710938 Z M 41.960938 10.5 C 40.742188 10.5 39.917969 9.882812 39.917969 9.242188 C 39.917969 8.699219 40.367188 8.25 40.894531 8.230469 L 41.605469 8.230469 C 42.636719 8.230469 43.96875 8.230469 43.96875 9.242188 C 43.96875 9.898438 43.125 10.5 41.960938 10.5 Z M 41.960938 10.5 "/>
<path style=" stroke:none;fill-rule:nonzero;fill:rgb(0%,0%,0%);fill-opacity:1;" d="M 47.058594 0 L 45.332031 0.132812 L 45.332031 0.507812 C 46.175781 0.507812 46.269531 0.582031 46.269531 1.179688 L 46.269531 7.40625 C 46.269531 7.929688 46.140625 7.929688 45.332031 7.929688 L 45.332031 8.304688 C 45.726562 8.289062 46.363281 8.269531 46.664062 8.269531 C 46.964844 8.269531 47.546875 8.289062 47.996094 8.304688 L 47.996094 7.929688 C 47.191406 7.929688 47.058594 7.929688 47.058594 7.40625 Z M 47.058594 0 "/>
<path style=" stroke:none;fill-rule:nonzero;fill:rgb(0%,0%,0%);fill-opacity:1;" d="M 53.886719 5.738281 C 53.886719 4.21875 52.703125 2.945312 51.261719 2.945312 C 49.761719 2.945312 48.597656 4.257812 48.597656 5.738281 C 48.597656 7.292969 49.835938 8.4375 51.242188 8.4375 C 52.6875 8.4375 53.886719 7.257812 53.886719 5.738281 Z M 51.261719 8.136719 C 50.734375 8.136719 50.210938 7.894531 49.890625 7.332031 C 49.59375 6.804688 49.59375 6.074219 49.59375 5.644531 C 49.59375 5.175781 49.59375 4.539062 49.875 4.011719 C 50.191406 3.46875 50.753906 3.207031 51.242188 3.207031 C 51.765625 3.207031 52.273438 3.46875 52.59375 3.992188 C 52.910156 4.5 52.910156 5.195312 52.910156 5.644531 C 52.910156 6.074219 52.910156 6.730469 52.648438 7.257812 C 52.367188 7.800781 51.84375 8.136719 51.261719 8.136719 Z M 51.261719 8.136719 "/>
<path style=" stroke:none;fill-rule:nonzero;fill:rgb(0%,0%,0%);fill-opacity:1;" d="M 56.300781 3.789062 L 56.300781 0 L 54.574219 0.132812 L 54.574219 0.507812 C 55.417969 0.507812 55.511719 0.582031 55.511719 1.179688 L 55.511719 8.304688 L 55.8125 8.304688 C 55.8125 8.289062 55.90625 8.117188 56.246094 7.554688 C 56.414062 7.835938 56.917969 8.4375 57.800781 8.4375 C 59.226562 8.4375 60.464844 7.257812 60.464844 5.71875 C 60.464844 4.199219 59.300781 3.019531 57.933594 3.019531 C 56.996094 3.019531 56.488281 3.582031 56.300781 3.789062 Z M 56.339844 6.9375 L 56.339844 4.480469 C 56.339844 4.257812 56.339844 4.238281 56.46875 4.050781 C 56.9375 3.375 57.59375 3.28125 57.875 3.28125 C 58.417969 3.28125 58.851562 3.601562 59.132812 4.050781 C 59.449219 4.539062 59.46875 5.210938 59.46875 5.71875 C 59.46875 6.148438 59.449219 6.863281 59.113281 7.40625 C 58.851562 7.78125 58.402344 8.175781 57.761719 8.175781 C 57.21875 8.175781 56.789062 7.894531 56.507812 7.445312 C 56.339844 7.199219 56.339844 7.164062 56.339844 6.9375 Z M 56.339844 6.9375 "/>
<path style=" stroke:none;fill-rule:nonzero;fill:rgb(0%,0%,0%);fill-opacity:1;" d="M 64.855469 7.40625 C 64.910156 7.875 65.230469 8.382812 65.792969 8.382812 C 66.054688 8.382812 66.785156 8.210938 66.785156 7.238281 L 66.785156 6.5625 L 66.488281 6.5625 L 66.488281 7.238281 C 66.488281 7.929688 66.1875 8.007812 66.054688 8.007812 C 65.660156 8.007812 65.605469 7.460938 65.605469 7.40625 L 65.605469 5.023438 C 65.605469 4.519531 65.605469 4.050781 65.175781 3.601562 C 64.707031 3.132812 64.105469 2.945312 63.542969 2.945312 C 62.550781 2.945312 61.722656 3.507812 61.722656 4.292969 C 61.722656 4.648438 61.96875 4.855469 62.285156 4.855469 C 62.625 4.855469 62.832031 4.613281 62.832031 4.3125 C 62.832031 4.164062 62.773438 3.769531 62.210938 3.769531 C 62.550781 3.335938 63.128906 3.207031 63.503906 3.207031 C 64.105469 3.207031 64.78125 3.675781 64.78125 4.742188 L 64.78125 5.175781 C 64.160156 5.210938 63.335938 5.25 62.585938 5.605469 C 61.6875 6.019531 61.386719 6.636719 61.386719 7.164062 C 61.386719 8.136719 62.550781 8.4375 63.300781 8.4375 C 64.085938 8.4375 64.628906 7.949219 64.855469 7.40625 Z M 64.78125 5.4375 L 64.78125 6.636719 C 64.78125 7.761719 63.917969 8.175781 63.375 8.175781 C 62.792969 8.175781 62.304688 7.761719 62.304688 7.164062 C 62.304688 6.507812 62.8125 5.511719 64.78125 5.4375 Z M 64.78125 5.4375 "/>
<path style=" stroke:none;fill-rule:nonzero;fill:rgb(0%,0%,0%);fill-opacity:1;" d="M 68.976562 0 L 67.253906 0.132812 L 67.253906 0.507812 C 68.097656 0.507812 68.191406 0.582031 68.191406 1.179688 L 68.191406 7.40625 C 68.191406 7.929688 68.058594 7.929688 67.253906 7.929688 L 67.253906 8.304688 C 67.644531 8.289062 68.285156 8.269531 68.582031 8.269531 C 68.882812 8.269531 69.464844 8.289062 69.914062 8.304688 L 69.914062 7.929688 C 69.109375 7.929688 68.976562 7.929688 68.976562 7.40625 Z M 68.976562 0 "/>
<path style=" stroke:none;fill-rule:nonzero;fill:rgb(0%,0%,0%);fill-opacity:1;" d="M 75.472656 4.199219 L 75.472656 7.40625 C 75.472656 7.929688 75.339844 7.929688 74.535156 7.929688 L 74.535156 8.304688 C 74.964844 8.289062 75.566406 8.269531 75.902344 8.269531 C 76.203125 8.269531 76.824219 8.289062 77.234375 8.304688 L 77.234375 7.929688 C 76.429688 7.929688 76.296875 7.929688 76.296875 7.40625 L 76.296875 5.195312 C 76.296875 3.957031 77.160156 3.28125 77.910156 3.28125 C 78.679688 3.28125 78.808594 3.917969 78.808594 4.613281 L 78.808594 7.40625 C 78.808594 7.929688 78.679688 7.929688 77.871094 7.929688 L 77.871094 8.304688 C 78.285156 8.289062 78.902344 8.269531 79.222656 8.269531 C 79.523438 8.269531 80.160156 8.289062 80.554688 8.304688 L 80.554688 7.929688 C 79.765625 7.929688 79.636719 7.929688 79.636719 7.40625 L 79.636719 5.195312 C 79.636719 3.957031 80.480469 3.28125 81.246094 3.28125 C 81.996094 3.28125 82.128906 3.917969 82.128906 4.613281 L 82.128906 7.40625 C 82.128906 7.929688 81.996094 7.929688 81.191406 7.929688 L 81.191406 8.304688 C 81.605469 8.289062 82.222656 8.269531 82.542969 8.269531 C 82.859375 8.269531 83.480469 8.289062 83.890625 8.304688 L 83.890625 7.929688 C 83.273438 7.929688 82.972656 7.929688 82.953125 7.574219 L 82.953125 5.289062 C 82.953125 4.257812 82.953125 3.898438 82.578125 3.46875 C 82.410156 3.261719 82.015625 3.019531 81.324219 3.019531 C 80.328125 3.019531 79.785156 3.730469 79.597656 4.199219 C 79.429688 3.148438 78.546875 3.019531 78.003906 3.019531 C 77.121094 3.019531 76.558594 3.523438 76.222656 4.273438 L 76.222656 3.019531 L 74.535156 3.148438 L 74.535156 3.523438 C 75.378906 3.523438 75.472656 3.601562 75.472656 4.199219 Z M 75.472656 4.199219 "/>
<path style=" stroke:none;fill-rule:nonzero;fill:rgb(0%,0%,0%);fill-opacity:1;" d="M 88.097656 7.40625 C 88.152344 7.875 88.472656 8.382812 89.035156 8.382812 C 89.296875 8.382812 90.027344 8.210938 90.027344 7.238281 L 90.027344 6.5625 L 89.730469 6.5625 L 89.730469 7.238281 C 89.730469 7.929688 89.429688 8.007812 89.296875 8.007812 C 88.902344 8.007812 88.847656 7.460938 88.847656 7.40625 L 88.847656 5.023438 C 88.847656 4.519531 88.847656 4.050781 88.417969 3.601562 C 87.949219 3.132812 87.347656 2.945312 86.785156 2.945312 C 85.792969 2.945312 84.964844 3.507812 84.964844 4.292969 C 84.964844 4.648438 85.210938 4.855469 85.527344 4.855469 C 85.867188 4.855469 86.074219 4.613281 86.074219 4.3125 C 86.074219 4.164062 86.015625 3.769531 85.453125 3.769531 C 85.792969 3.335938 86.371094 3.207031 86.746094 3.207031 C 87.347656 3.207031 88.023438 3.675781 88.023438 4.742188 L 88.023438 5.175781 C 87.402344 5.210938 86.578125 5.25 85.828125 5.605469 C 84.929688 6.019531 84.628906 6.636719 84.628906 7.164062 C 84.628906 8.136719 85.792969 8.4375 86.542969 8.4375 C 87.328125 8.4375 87.871094 7.949219 88.097656 7.40625 Z M 88.023438 5.4375 L 88.023438 6.636719 C 88.023438 7.761719 87.160156 8.175781 86.617188 8.175781 C 86.035156 8.175781 85.546875 7.761719 85.546875 7.164062 C 85.546875 6.507812 86.054688 5.511719 88.023438 5.4375 Z M 88.023438 5.4375 "/>
<path style=" stroke:none;fill-rule:nonzero;fill:rgb(0%,0%,0%);fill-opacity:1;" d="M 93.53125 5.492188 C 93.886719 5.042969 94.335938 4.460938 94.636719 4.144531 C 95.011719 3.710938 95.5 3.523438 96.0625 3.523438 L 96.0625 3.148438 C 95.742188 3.167969 95.386719 3.1875 95.070312 3.1875 C 94.710938 3.1875 94.074219 3.167969 93.925781 3.148438 L 93.925781 3.523438 C 94.1875 3.542969 94.28125 3.695312 94.28125 3.898438 C 94.28125 4.085938 94.148438 4.238281 94.09375 4.3125 L 93.363281 5.25 L 92.425781 4.03125 C 92.3125 3.917969 92.3125 3.898438 92.3125 3.824219 C 92.3125 3.636719 92.5 3.523438 92.726562 3.523438 L 92.726562 3.148438 C 92.425781 3.167969 91.636719 3.1875 91.429688 3.1875 C 91.1875 3.1875 90.625 3.167969 90.304688 3.148438 L 90.304688 3.523438 C 91.148438 3.523438 91.148438 3.523438 91.710938 4.257812 L 92.894531 5.792969 L 91.769531 7.21875 C 91.207031 7.914062 90.492188 7.929688 90.25 7.929688 L 90.25 8.304688 C 90.550781 8.289062 90.925781 8.269531 91.242188 8.269531 C 91.582031 8.269531 92.085938 8.289062 92.367188 8.304688 L 92.367188 7.929688 C 92.105469 7.894531 92.03125 7.742188 92.03125 7.554688 C 92.03125 7.292969 92.367188 6.898438 93.101562 6.039062 L 94.019531 7.238281 C 94.113281 7.367188 94.261719 7.554688 94.261719 7.632812 C 94.261719 7.742188 94.148438 7.929688 93.832031 7.929688 L 93.832031 8.304688 C 94.1875 8.289062 94.863281 8.269531 95.125 8.269531 C 95.445312 8.269531 95.914062 8.289062 96.269531 8.304688 L 96.269531 7.929688 C 95.632812 7.929688 95.40625 7.914062 95.144531 7.554688 Z M 93.53125 5.492188 "/>
<path style=" stroke:none;fill-rule:nonzero;fill:rgb(0%,0%,0%);fill-opacity:1;" d="M 98.527344 3.019531 L 96.859375 3.148438 L 96.859375 3.523438 C 97.628906 3.523438 97.742188 3.601562 97.742188 4.179688 L 97.742188 7.40625 C 97.742188 7.929688 97.609375 7.929688 96.804688 7.929688 L 96.804688 8.304688 C 97.179688 8.289062 97.835938 8.269531 98.117188 8.269531 C 98.546875 8.269531 98.960938 8.289062 99.371094 8.304688 L 99.371094 7.929688 C 98.566406 7.929688 98.527344 7.875 98.527344 7.40625 Z M 98.566406 0.9375 C 98.566406 0.5625 98.285156 0.300781 97.949219 0.300781 C 97.574219 0.300781 97.308594 0.617188 97.308594 0.9375 C 97.308594 1.257812 97.574219 1.574219 97.949219 1.574219 C 98.285156 1.574219 98.566406 1.3125 98.566406 0.9375 Z M 98.566406 0.9375 "/>
<path style=" stroke:none;fill-rule:nonzero;fill:rgb(0%,0%,0%);fill-opacity:1;" d="M 101.042969 4.199219 L 101.042969 7.40625 C 101.042969 7.929688 100.914062 7.929688 100.105469 7.929688 L 100.105469 8.304688 C 100.539062 8.289062 101.136719 8.269531 101.476562 8.269531 C 101.773438 8.269531 102.394531 8.289062 102.804688 8.304688 L 102.804688 7.929688 C 102 7.929688 101.867188 7.929688 101.867188 7.40625 L 101.867188 5.195312 C 101.867188 3.957031 102.730469 3.28125 103.480469 3.28125 C 104.25 3.28125 104.382812 3.917969 104.382812 4.613281 L 104.382812 7.40625 C 104.382812 7.929688 104.25 7.929688 103.445312 7.929688 L 103.445312 8.304688 C 103.855469 8.289062 104.476562 8.269531 104.792969 8.269531 C 105.09375 8.269531 105.730469 8.289062 106.125 8.304688 L 106.125 7.929688 C 105.335938 7.929688 105.207031 7.929688 105.207031 7.40625 L 105.207031 5.195312 C 105.207031 3.957031 106.050781 3.28125 106.820312 3.28125 C 107.570312 3.28125 107.699219 3.917969 107.699219 4.613281 L 107.699219 7.40625 C 107.699219 7.929688 107.570312 7.929688 106.761719 7.929688 L 106.761719 8.304688 C 107.175781 8.289062 107.792969 8.269531 108.113281 8.269531 C 108.429688 8.269531 109.050781 8.289062 109.460938 8.304688 L 109.460938 7.929688 C 108.84375 7.929688 108.542969 7.929688 108.523438 7.574219 L 108.523438 5.289062 C 108.523438 4.257812 108.523438 3.898438 108.148438 3.46875 C 107.980469 3.261719 107.585938 3.019531 106.894531 3.019531 C 105.898438 3.019531 105.355469 3.730469 105.167969 4.199219 C 105 3.148438 104.117188 3.019531 103.574219 3.019531 C 102.695312 3.019531 102.132812 3.523438 101.792969 4.273438 L 101.792969 3.019531 L 100.105469 3.148438 L 100.105469 3.523438 C 100.949219 3.523438 101.042969 3.601562 101.042969 4.199219 Z M 101.042969 4.199219 "/>
<path style=" stroke:none;fill-rule:nonzero;fill:rgb(0%,0%,0%);fill-opacity:1;" d="M 114.039062 7.367188 L 114.039062 8.4375 L 115.765625 8.304688 L 115.765625 7.929688 C 114.941406 7.929688 114.847656 7.855469 114.847656 7.257812 L 114.847656 3.019531 L 113.082031 3.148438 L 113.082031 3.523438 C 113.910156 3.523438 114.019531 3.601562 114.019531 4.199219 L 114.019531 6.320312 C 114.019531 7.367188 113.441406 8.175781 112.558594 8.175781 C 111.566406 8.175781 111.507812 7.613281 111.507812 6.992188 L 111.507812 3.019531 L 109.746094 3.148438 L 109.746094 3.523438 C 110.683594 3.523438 110.683594 3.5625 110.683594 4.613281 L 110.683594 6.414062 C 110.683594 7.351562 110.683594 8.4375 112.503906 8.4375 C 113.175781 8.4375 113.703125 8.101562 114.039062 7.367188 Z M 114.039062 7.367188 "/>
<path style=" stroke:none;fill-rule:nonzero;fill:rgb(0%,0%,0%);fill-opacity:1;" d="M 117.3125 4.199219 L 117.3125 7.40625 C 117.3125 7.929688 117.183594 7.929688 116.375 7.929688 L 116.375 8.304688 C 116.808594 8.289062 117.40625 8.269531 117.746094 8.269531 C 118.042969 8.269531 118.664062 8.289062 119.074219 8.304688 L 119.074219 7.929688 C 118.269531 7.929688 118.136719 7.929688 118.136719 7.40625 L 118.136719 5.195312 C 118.136719 3.957031 119 3.28125 119.75 3.28125 C 120.519531 3.28125 120.652344 3.917969 120.652344 4.613281 L 120.652344 7.40625 C 120.652344 7.929688 120.519531 7.929688 119.714844 7.929688 L 119.714844 8.304688 C 120.125 8.289062 120.746094 8.269531 121.0625 8.269531 C 121.363281 8.269531 122 8.289062 122.394531 8.304688 L 122.394531 7.929688 C 121.605469 7.929688 121.476562 7.929688 121.476562 7.40625 L 121.476562 5.195312 C 121.476562 3.957031 122.320312 3.28125 123.089844 3.28125 C 123.839844 3.28125 123.96875 3.917969 123.96875 4.613281 L 123.96875 7.40625 C 123.96875 7.929688 123.839844 7.929688 123.03125 7.929688 L 123.03125 8.304688 C 123.445312 8.289062 124.0625 8.269531 124.382812 8.269531 C 124.699219 8.269531 125.320312 8.289062 125.730469 8.304688 L 125.730469 7.929688 C 125.113281 7.929688 124.8125 7.929688 124.792969 7.574219 L 124.792969 5.289062 C 124.792969 4.257812 124.792969 3.898438 124.417969 3.46875 C 124.25 3.261719 123.855469 3.019531 123.164062 3.019531 C 122.167969 3.019531 121.625 3.730469 121.4375 4.199219 C 121.269531 3.148438 120.386719 3.019531 119.84375 3.019531 C 118.964844 3.019531 118.402344 3.523438 118.0625 4.273438 L 118.0625 3.019531 L 116.375 3.148438 L 116.375 3.523438 C 117.21875 3.523438 117.3125 3.601562 117.3125 4.199219 Z M 117.3125 4.199219 "/>
<path style="fill:none;stroke-width:0.4;stroke-linecap:butt;stroke-linejoin:miter;stroke:rgb(100%,0%,0%);stroke-opacity:1;stroke-miterlimit:4;" d="M 82.515625 10.761719 L 82.515625 15.5625 L 87.316406 20.363281 "/>
<path style="fill-rule:evenodd;fill:rgb(100%,0%,0%);fill-opacity:1;stroke-width:0.1;stroke-linecap:butt;stroke-linejoin:miter;stroke:rgb(100%,0%,0%);stroke-opacity:1;stroke-miterlimit:4;" d="M 11.15625 -82.515625 C 11.15625 -82.296875 10.976562 -82.117188 10.753906 -82.117188 C 10.535156 -82.117188 10.355469 -82.296875 10.355469 -82.515625 C 10.355469 -82.738281 10.535156 -82.914062 10.753906 -82.914062 C 10.976562 -82.914062 11.15625 -82.738281 11.15625 -82.515625 Z M 11.15625 -82.515625 " transform="matrix(0,1,-1,0,0,0)"/>
<path style="fill-rule:evenodd;fill:rgb(100%,0%,0%);fill-opacity:1;stroke-width:0.141421;stroke-linecap:butt;stroke-linejoin:miter;stroke:rgb(100%,0%,0%);stroke-opacity:1;stroke-miterlimit:4;" d="M -52.707031 33.476562 L -52.142578 32.912109 L -54.121094 33.476562 L -52.142578 34.041016 Z M -52.707031 33.476562 " transform="matrix(-1,-1,1,-1,0,0)"/>
</g>
</svg>
