<?xml version="1.0" encoding="UTF-8"?>
<svg xmlns="http://www.w3.org/2000/svg" xmlns:xlink="http://www.w3.org/1999/xlink" width="132.720917pt" height="111.233955pt" viewBox="0 0 132.720917 111.233955" version="1.1">
<defs>
<clipPath id="clip1">
  <path d="M 57 0 L 59 0 L 59 111.234375 L 57 111.234375 Z M 57 0 "/>
</clipPath>
<clipPath id="clip2">
  <path d="M 105 4 L 132.722656 4 L 132.722656 5 L 105 5 Z M 105 4 "/>
</clipPath>
<clipPath id="clip3">
  <path d="M 97 12 L 132.722656 12 L 132.722656 14 L 97 14 Z M 97 12 "/>
</clipPath>
</defs>
<g id="surface1">
<g clip-path="url(#clip1)" clip-rule="nonzero">
<path style="fill:none;stroke-width:0.8;stroke-linecap:round;stroke-linejoin:round;stroke:rgb(100%,0%,0%);stroke-opacity:1;stroke-miterlimit:4;" d="M 58.066406 0.417969 L 58.066406 110.816406 "/>
</g>
<path style="fill:none;stroke-width:0.8;stroke-linecap:round;stroke-linejoin:round;stroke:rgb(100%,0%,0%);stroke-opacity:1;stroke-miterlimit:4;" d="M 0.46875 62.816406 L 125.265625 62.816406 "/>
<path style=" stroke:none;fill-rule:nonzero;fill:rgb(0%,0%,0%);fill-opacity:1;" d="M 54.089844 4.28125 C 54.148438 4.113281 54.148438 4.09375 54.148438 4 C 54.148438 3.796875 53.980469 3.683594 53.792969 3.683594 C 53.679688 3.683594 53.492188 3.757812 53.378906 3.925781 C 53.359375 4 53.246094 4.359375 53.210938 4.582031 C 53.117188 4.882812 53.042969 5.21875 52.964844 5.539062 L 52.421875 7.695312 C 52.386719 7.863281 51.859375 8.707031 51.074219 8.707031 C 50.472656 8.707031 50.339844 8.183594 50.339844 7.734375 C 50.339844 7.1875 50.546875 6.4375 50.941406 5.390625 C 51.128906 4.902344 51.183594 4.769531 51.183594 4.527344 C 51.183594 4 50.808594 3.550781 50.210938 3.550781 C 49.066406 3.550781 48.636719 5.296875 48.636719 5.390625 C 48.636719 5.519531 48.746094 5.519531 48.765625 5.519531 C 48.898438 5.519531 48.898438 5.484375 48.953125 5.296875 C 49.292969 4.171875 49.761719 3.8125 50.171875 3.8125 C 50.265625 3.8125 50.472656 3.8125 50.472656 4.1875 C 50.472656 4.488281 50.339844 4.808594 50.265625 5.03125 C 49.777344 6.308594 49.574219 6.984375 49.574219 7.546875 C 49.574219 8.613281 50.324219 8.96875 51.035156 8.96875 C 51.503906 8.96875 51.898438 8.765625 52.234375 8.425781 C 52.085938 9.046875 51.933594 9.644531 51.464844 10.28125 C 51.148438 10.675781 50.699219 11.03125 50.152344 11.03125 C 49.984375 11.03125 49.441406 10.996094 49.234375 10.527344 C 49.421875 10.527344 49.589844 10.527344 49.742188 10.375 C 49.871094 10.28125 49.984375 10.113281 49.984375 9.890625 C 49.984375 9.515625 49.667969 9.476562 49.554688 9.476562 C 49.273438 9.476562 48.878906 9.664062 48.878906 10.246094 C 48.878906 10.84375 49.402344 11.296875 50.152344 11.296875 C 51.371094 11.296875 52.609375 10.207031 52.949219 8.859375 Z M 54.089844 4.28125 "/>
<path style=" stroke:none;fill-rule:nonzero;fill:rgb(0%,0%,0%);fill-opacity:1;" d="M 119.550781 68.292969 C 119.625 67.992188 119.90625 66.886719 120.730469 66.886719 C 120.789062 66.886719 121.085938 66.886719 121.332031 67.035156 C 120.992188 67.113281 120.769531 67.394531 120.769531 67.691406 C 120.769531 67.878906 120.898438 68.105469 121.21875 68.105469 C 121.480469 68.105469 121.855469 67.898438 121.855469 67.410156 C 121.855469 66.792969 121.164062 66.625 120.75 66.625 C 120.054688 66.625 119.644531 67.261719 119.492188 67.523438 C 119.195312 66.738281 118.554688 66.625 118.199219 66.625 C 116.960938 66.625 116.269531 68.160156 116.269531 68.460938 C 116.269531 68.59375 116.398438 68.59375 116.417969 68.59375 C 116.511719 68.59375 116.550781 68.554688 116.570312 68.460938 C 116.980469 67.1875 117.769531 66.886719 118.179688 66.886719 C 118.40625 66.886719 118.820312 67 118.820312 67.691406 C 118.820312 68.066406 118.613281 68.855469 118.179688 70.542969 C 117.992188 71.273438 117.5625 71.78125 117.039062 71.78125 C 116.960938 71.78125 116.699219 71.78125 116.4375 71.628906 C 116.738281 71.554688 117 71.3125 117 70.972656 C 117 70.65625 116.738281 70.5625 116.570312 70.5625 C 116.195312 70.5625 115.914062 70.863281 115.914062 71.253906 C 115.914062 71.800781 116.492188 72.042969 117.019531 72.042969 C 117.824219 72.042969 118.257812 71.199219 118.273438 71.144531 C 118.425781 71.574219 118.855469 72.042969 119.570312 72.042969 C 120.804688 72.042969 121.480469 70.503906 121.480469 70.207031 C 121.480469 70.074219 121.386719 70.074219 121.351562 70.074219 C 121.238281 70.074219 121.21875 70.128906 121.179688 70.207031 C 120.789062 71.5 119.980469 71.78125 119.605469 71.78125 C 119.136719 71.78125 118.949219 71.40625 118.949219 70.992188 C 118.949219 70.730469 119.007812 70.46875 119.136719 69.941406 Z M 119.550781 68.292969 "/>
<path style="fill:none;stroke-width:1.2;stroke-linecap:round;stroke-linejoin:bevel;stroke:rgb(0%,0%,0%);stroke-opacity:1;stroke-miterlimit:4;" d="M 5.265625 74.628906 L 5.382812 74.628906 L 5.496094 74.625 L 5.960938 74.625 L 6.074219 74.621094 L 6.535156 74.621094 L 6.652344 74.617188 L 7.113281 74.617188 L 7.226562 74.613281 L 7.457031 74.613281 C 7.496094 74.613281 7.535156 74.613281 7.574219 74.613281 L 7.6875 74.613281 C 7.726562 74.613281 7.765625 74.609375 7.804688 74.609375 C 7.84375 74.609375 7.882812 74.609375 7.917969 74.609375 C 7.957031 74.609375 7.996094 74.609375 8.035156 74.609375 C 8.074219 74.609375 8.113281 74.609375 8.148438 74.609375 C 8.1875 74.609375 8.226562 74.609375 8.265625 74.609375 C 8.304688 74.605469 8.34375 74.605469 8.382812 74.605469 C 8.417969 74.605469 8.457031 74.605469 8.496094 74.605469 C 8.535156 74.605469 8.574219 74.605469 8.613281 74.605469 C 8.648438 74.605469 8.6875 74.605469 8.726562 74.605469 C 8.765625 74.605469 8.804688 74.605469 8.84375 74.605469 C 8.878906 74.601562 8.917969 74.601562 8.957031 74.601562 C 8.996094 74.601562 9.035156 74.601562 9.074219 74.601562 C 9.109375 74.601562 9.148438 74.601562 9.1875 74.601562 C 9.226562 74.601562 9.265625 74.601562 9.304688 74.601562 C 9.339844 74.601562 9.378906 74.601562 9.417969 74.597656 C 9.457031 74.597656 9.496094 74.597656 9.535156 74.597656 C 9.574219 74.597656 9.609375 74.597656 9.648438 74.597656 C 9.6875 74.597656 9.726562 74.597656 9.765625 74.597656 C 9.804688 74.597656 9.839844 74.597656 9.878906 74.597656 C 9.917969 74.597656 9.957031 74.597656 9.996094 74.59375 C 10.035156 74.59375 10.070312 74.59375 10.109375 74.59375 C 10.148438 74.59375 10.1875 74.59375 10.226562 74.59375 C 10.265625 74.59375 10.304688 74.59375 10.339844 74.59375 C 10.378906 74.59375 10.417969 74.59375 10.457031 74.59375 C 10.496094 74.59375 10.535156 74.59375 10.570312 74.589844 C 10.609375 74.589844 10.648438 74.589844 10.6875 74.589844 C 10.726562 74.589844 10.765625 74.589844 10.800781 74.589844 C 10.839844 74.589844 10.878906 74.589844 10.917969 74.589844 C 10.957031 74.589844 10.996094 74.589844 11.03125 74.589844 C 11.070312 74.589844 11.109375 74.585938 11.148438 74.585938 C 11.1875 74.585938 11.226562 74.585938 11.265625 74.585938 C 11.300781 74.585938 11.339844 74.585938 11.378906 74.585938 C 11.417969 74.585938 11.457031 74.585938 11.496094 74.585938 C 11.53125 74.585938 11.570312 74.585938 11.609375 74.585938 C 11.648438 74.585938 11.6875 74.582031 11.726562 74.582031 C 11.761719 74.582031 11.800781 74.582031 11.839844 74.582031 C 11.878906 74.582031 11.917969 74.582031 11.957031 74.582031 C 11.992188 74.582031 12.03125 74.582031 12.070312 74.582031 C 12.109375 74.582031 12.148438 74.582031 12.1875 74.582031 C 12.226562 74.582031 12.261719 74.578125 12.300781 74.578125 C 12.339844 74.578125 12.378906 74.578125 12.417969 74.578125 C 12.457031 74.578125 12.492188 74.578125 12.53125 74.578125 C 12.570312 74.578125 12.609375 74.578125 12.648438 74.578125 C 12.6875 74.578125 12.722656 74.578125 12.761719 74.578125 C 12.800781 74.574219 12.839844 74.574219 12.878906 74.574219 C 12.917969 74.574219 12.953125 74.574219 12.992188 74.574219 C 13.03125 74.574219 13.070312 74.574219 13.109375 74.574219 C 13.148438 74.574219 13.1875 74.574219 13.222656 74.574219 C 13.261719 74.574219 13.300781 74.574219 13.339844 74.574219 C 13.378906 74.570312 13.417969 74.570312 13.453125 74.570312 C 13.492188 74.570312 13.53125 74.570312 13.570312 74.570312 C 13.609375 74.570312 13.648438 74.570312 13.683594 74.570312 C 13.722656 74.570312 13.761719 74.570312 13.800781 74.570312 C 13.839844 74.570312 13.878906 74.570312 13.914062 74.570312 C 13.953125 74.566406 13.992188 74.566406 14.03125 74.566406 C 14.070312 74.566406 14.109375 74.566406 14.148438 74.566406 C 14.183594 74.566406 14.222656 74.566406 14.261719 74.566406 C 14.300781 74.566406 14.339844 74.566406 14.378906 74.566406 C 14.414062 74.566406 14.453125 74.566406 14.492188 74.5625 C 14.53125 74.5625 14.570312 74.5625 14.609375 74.5625 C 14.644531 74.5625 14.683594 74.5625 14.722656 74.5625 C 14.761719 74.5625 14.800781 74.5625 14.839844 74.5625 C 14.878906 74.5625 14.914062 74.5625 14.953125 74.5625 C 14.992188 74.5625 15.03125 74.5625 15.070312 74.558594 C 15.109375 74.558594 15.144531 74.558594 15.183594 74.558594 C 15.222656 74.558594 15.261719 74.558594 15.300781 74.558594 C 15.339844 74.558594 15.375 74.558594 15.414062 74.558594 C 15.453125 74.558594 15.492188 74.558594 15.53125 74.558594 C 15.570312 74.558594 15.605469 74.554688 15.644531 74.554688 C 15.683594 74.554688 15.722656 74.554688 15.761719 74.554688 C 15.800781 74.554688 15.839844 74.554688 15.875 74.554688 C 15.914062 74.554688 15.953125 74.554688 15.992188 74.554688 C 16.03125 74.554688 16.070312 74.554688 16.105469 74.554688 C 16.144531 74.554688 16.183594 74.550781 16.222656 74.550781 C 16.261719 74.550781 16.300781 74.550781 16.335938 74.550781 C 16.375 74.550781 16.414062 74.550781 16.453125 74.550781 C 16.492188 74.550781 16.53125 74.550781 16.566406 74.550781 C 16.605469 74.550781 16.644531 74.550781 16.683594 74.550781 C 16.722656 74.550781 16.761719 74.546875 16.800781 74.546875 C 16.835938 74.546875 16.875 74.546875 16.914062 74.546875 C 16.953125 74.546875 16.992188 74.546875 17.03125 74.546875 C 17.066406 74.546875 17.105469 74.546875 17.144531 74.546875 C 17.183594 74.546875 17.222656 74.546875 17.261719 74.546875 C 17.296875 74.542969 17.335938 74.542969 17.375 74.542969 C 17.414062 74.542969 17.453125 74.542969 17.492188 74.542969 C 17.527344 74.542969 17.566406 74.542969 17.605469 74.542969 C 17.644531 74.542969 17.683594 74.542969 17.722656 74.542969 C 17.761719 74.542969 17.796875 74.542969 17.835938 74.542969 C 17.875 74.539062 17.914062 74.539062 17.953125 74.539062 C 17.992188 74.539062 18.027344 74.539062 18.066406 74.539062 C 18.105469 74.539062 18.144531 74.539062 18.183594 74.539062 C 18.222656 74.539062 18.257812 74.539062 18.296875 74.539062 C 18.335938 74.539062 18.375 74.539062 18.414062 74.539062 C 18.453125 74.535156 18.488281 74.535156 18.527344 74.535156 C 18.566406 74.535156 18.605469 74.535156 18.644531 74.535156 C 18.683594 74.535156 18.722656 74.535156 18.757812 74.535156 C 18.796875 74.535156 18.835938 74.535156 18.875 74.535156 C 18.914062 74.535156 18.953125 74.535156 18.988281 74.53125 C 19.027344 74.53125 19.066406 74.53125 19.105469 74.53125 C 19.144531 74.53125 19.183594 74.53125 19.21875 74.53125 C 19.257812 74.53125 19.296875 74.53125 19.335938 74.53125 C 19.375 74.53125 19.414062 74.53125 19.449219 74.53125 C 19.488281 74.53125 19.527344 74.53125 19.566406 74.527344 C 19.605469 74.527344 19.644531 74.527344 19.683594 74.527344 C 19.71875 74.527344 19.757812 74.527344 19.796875 74.527344 C 19.835938 74.527344 19.875 74.527344 19.914062 74.527344 C 19.949219 74.527344 19.988281 74.527344 20.027344 74.527344 C 20.066406 74.527344 20.105469 74.523438 20.144531 74.523438 C 20.179688 74.523438 20.21875 74.523438 20.257812 74.523438 C 20.296875 74.523438 20.335938 74.523438 20.375 74.523438 C 20.410156 74.523438 20.449219 74.523438 20.488281 74.523438 C 20.527344 74.523438 20.566406 74.523438 20.605469 74.523438 C 20.644531 74.523438 20.679688 74.519531 20.71875 74.519531 C 20.757812 74.519531 20.796875 74.519531 20.835938 74.519531 C 20.875 74.519531 20.910156 74.519531 20.949219 74.519531 C 20.988281 74.519531 21.027344 74.519531 21.066406 74.519531 C 21.105469 74.519531 21.140625 74.519531 21.179688 74.519531 C 21.21875 74.519531 21.257812 74.515625 21.296875 74.515625 C 21.335938 74.515625 21.375 74.515625 21.410156 74.515625 C 21.449219 74.515625 21.488281 74.515625 21.527344 74.515625 C 21.566406 74.515625 21.605469 74.515625 21.640625 74.515625 C 21.679688 74.515625 21.71875 74.515625 21.757812 74.515625 C 21.796875 74.511719 21.835938 74.511719 21.871094 74.511719 C 21.910156 74.511719 21.949219 74.511719 21.988281 74.511719 C 22.027344 74.511719 22.066406 74.511719 22.101562 74.511719 C 22.140625 74.511719 22.179688 74.511719 22.21875 74.511719 C 22.257812 74.511719 22.296875 74.511719 22.335938 74.511719 C 22.371094 74.507812 22.410156 74.507812 22.449219 74.507812 C 22.488281 74.507812 22.527344 74.507812 22.566406 74.507812 C 22.601562 74.507812 22.640625 74.507812 22.679688 74.507812 C 22.71875 74.507812 22.757812 74.507812 22.796875 74.507812 C 22.832031 74.507812 22.871094 74.507812 22.910156 74.507812 C 22.949219 74.503906 22.988281 74.503906 23.027344 74.503906 C 23.0625 74.503906 23.101562 74.503906 23.140625 74.503906 C 23.179688 74.503906 23.21875 74.503906 23.257812 74.503906 C 23.296875 74.503906 23.332031 74.503906 23.371094 74.503906 C 23.410156 74.503906 23.449219 74.503906 23.488281 74.503906 C 23.527344 74.5 23.5625 74.5 23.601562 74.5 C 23.640625 74.5 23.679688 74.5 23.71875 74.5 C 23.757812 74.5 23.792969 74.5 23.832031 74.5 C 23.871094 74.5 23.910156 74.5 23.949219 74.5 C 23.988281 74.5 24.023438 74.5 24.0625 74.496094 C 24.101562 74.496094 24.140625 74.496094 24.179688 74.496094 C 24.21875 74.496094 24.257812 74.496094 24.292969 74.496094 C 24.332031 74.496094 24.371094 74.496094 24.410156 74.496094 C 24.449219 74.496094 24.488281 74.496094 24.523438 74.496094 C 24.5625 74.496094 24.601562 74.492188 24.640625 74.492188 C 24.679688 74.492188 24.71875 74.492188 24.753906 74.492188 C 24.792969 74.492188 24.832031 74.492188 24.871094 74.492188 C 24.910156 74.492188 24.949219 74.492188 24.984375 74.492188 C 25.023438 74.492188 25.0625 74.492188 25.101562 74.492188 C 25.140625 74.492188 25.179688 74.488281 25.21875 74.488281 C 25.253906 74.488281 25.292969 74.488281 25.332031 74.488281 C 25.371094 74.488281 25.410156 74.488281 25.449219 74.488281 C 25.484375 74.488281 25.523438 74.488281 25.5625 74.488281 C 25.601562 74.488281 25.640625 74.488281 25.679688 74.488281 C 25.714844 74.488281 25.753906 74.484375 25.792969 74.484375 C 25.832031 74.484375 25.871094 74.484375 25.910156 74.484375 C 25.949219 74.484375 25.984375 74.484375 26.023438 74.484375 C 26.0625 74.484375 26.101562 74.484375 26.140625 74.484375 C 26.179688 74.484375 26.214844 74.484375 26.253906 74.484375 C 26.292969 74.484375 26.332031 74.480469 26.371094 74.480469 C 26.410156 74.480469 26.445312 74.480469 26.484375 74.480469 C 26.523438 74.480469 26.5625 74.480469 26.601562 74.480469 C 26.640625 74.480469 26.675781 74.480469 26.714844 74.480469 C 26.753906 74.480469 26.792969 74.480469 26.832031 74.480469 C 26.871094 74.476562 26.90625 74.476562 26.945312 74.476562 C 26.984375 74.476562 27.023438 74.476562 27.0625 74.476562 C 27.101562 74.476562 27.140625 74.476562 27.175781 74.476562 C 27.214844 74.476562 27.253906 74.476562 27.292969 74.476562 C 27.332031 74.476562 27.371094 74.476562 27.40625 74.476562 C 27.445312 74.472656 27.484375 74.472656 27.523438 74.472656 C 27.5625 74.472656 27.601562 74.472656 27.636719 74.472656 C 27.675781 74.472656 27.714844 74.472656 27.753906 74.472656 C 27.792969 74.472656 27.832031 74.472656 27.871094 74.472656 C 27.90625 74.472656 27.945312 74.472656 27.984375 74.472656 C 28.023438 74.46875 28.0625 74.46875 28.101562 74.46875 C 28.136719 74.46875 28.175781 74.46875 28.214844 74.46875 C 28.253906 74.46875 28.292969 74.46875 28.332031 74.46875 C 28.367188 74.46875 28.40625 74.46875 28.445312 74.46875 C 28.484375 74.46875 28.523438 74.46875 28.5625 74.46875 C 28.597656 74.464844 28.636719 74.464844 28.675781 74.464844 C 28.714844 74.464844 28.753906 74.464844 28.792969 74.464844 C 28.832031 74.464844 28.867188 74.464844 28.90625 74.464844 C 28.945312 74.464844 28.984375 74.464844 29.023438 74.464844 C 29.0625 74.464844 29.097656 74.464844 29.136719 74.460938 C 29.175781 74.460938 29.214844 74.460938 29.253906 74.460938 C 29.292969 74.460938 29.328125 74.460938 29.367188 74.460938 C 29.40625 74.460938 29.445312 74.460938 29.484375 74.460938 C 29.523438 74.460938 29.558594 74.460938 29.597656 74.460938 C 29.636719 74.460938 29.675781 74.457031 29.714844 74.457031 C 29.753906 74.457031 29.792969 74.457031 29.828125 74.457031 C 29.867188 74.457031 29.90625 74.457031 29.945312 74.457031 C 29.984375 74.457031 30.023438 74.457031 30.058594 74.457031 C 30.097656 74.457031 30.136719 74.457031 30.175781 74.457031 C 30.214844 74.457031 30.253906 74.453125 30.289062 74.453125 C 30.328125 74.453125 30.367188 74.453125 30.40625 74.453125 C 30.445312 74.453125 30.484375 74.453125 30.519531 74.453125 C 30.558594 74.453125 30.597656 74.453125 30.636719 74.453125 C 30.675781 74.453125 30.714844 74.453125 30.753906 74.453125 C 30.789062 74.453125 30.828125 74.449219 30.867188 74.449219 C 30.90625 74.449219 30.945312 74.449219 30.984375 74.449219 C 31.019531 74.449219 31.058594 74.449219 31.097656 74.449219 C 31.136719 74.449219 31.175781 74.449219 31.214844 74.449219 C 31.25 74.449219 31.289062 74.449219 31.328125 74.449219 C 31.367188 74.449219 31.40625 74.445312 31.445312 74.445312 C 31.480469 74.445312 31.519531 74.445312 31.558594 74.445312 C 31.597656 74.445312 31.636719 74.445312 31.675781 74.445312 C 31.714844 74.445312 31.75 74.445312 31.789062 74.445312 C 31.828125 74.445312 31.867188 74.445312 31.90625 74.445312 C 31.945312 74.441406 31.980469 74.441406 32.019531 74.441406 C 32.058594 74.441406 32.097656 74.441406 32.136719 74.441406 C 32.175781 74.441406 32.210938 74.441406 32.25 74.441406 C 32.289062 74.441406 32.328125 74.441406 32.367188 74.441406 C 32.40625 74.441406 32.441406 74.441406 32.480469 74.441406 C 32.519531 74.4375 32.558594 74.4375 32.597656 74.4375 C 32.636719 74.4375 32.675781 74.4375 32.710938 74.4375 C 32.75 74.4375 32.789062 74.4375 32.828125 74.4375 C 32.867188 74.4375 32.90625 74.4375 32.941406 74.4375 C 32.980469 74.4375 33.019531 74.4375 33.058594 74.4375 C 33.097656 74.433594 33.136719 74.433594 33.171875 74.433594 C 33.210938 74.433594 33.25 74.433594 33.289062 74.433594 C 33.328125 74.433594 33.367188 74.433594 33.402344 74.433594 C 33.441406 74.433594 33.480469 74.433594 33.519531 74.433594 L 33.636719 74.429688 L 34.210938 74.429688 L 34.328125 74.425781 L 34.789062 74.425781 L 34.902344 74.421875 L 35.480469 74.421875 L 35.59375 74.417969 L 36.289062 74.417969 L 36.402344 74.414062 L 37.441406 74.414062 L 37.554688 74.410156 L 38.015625 74.410156 C 38.054688 74.410156 38.09375 74.410156 38.132812 74.410156 L 39.054688 74.410156 C 39.09375 74.410156 39.132812 74.410156 39.171875 74.410156 C 39.207031 74.410156 39.246094 74.410156 39.285156 74.410156 C 39.324219 74.410156 39.363281 74.410156 39.402344 74.410156 C 39.4375 74.410156 39.476562 74.410156 39.515625 74.410156 C 39.554688 74.410156 39.59375 74.410156 39.632812 74.410156 L 39.863281 74.410156 C 39.902344 74.410156 39.9375 74.410156 39.976562 74.410156 L 40.09375 74.410156 L 40.207031 74.414062 L 40.324219 74.414062 C 40.363281 74.414062 40.398438 74.414062 40.4375 74.414062 L 40.554688 74.414062 C 40.59375 74.414062 40.628906 74.414062 40.667969 74.414062 C 40.707031 74.414062 40.746094 74.414062 40.785156 74.414062 C 40.824219 74.414062 40.863281 74.414062 40.898438 74.414062 C 40.9375 74.414062 40.976562 74.414062 41.015625 74.417969 C 41.054688 74.417969 41.09375 74.417969 41.128906 74.417969 C 41.167969 74.417969 41.207031 74.417969 41.246094 74.417969 L 41.359375 74.417969 C 41.398438 74.417969 41.4375 74.417969 41.476562 74.417969 C 41.515625 74.417969 41.554688 74.417969 41.589844 74.421875 C 41.628906 74.421875 41.667969 74.421875 41.707031 74.421875 C 41.746094 74.421875 41.785156 74.421875 41.824219 74.421875 C 41.859375 74.421875 41.898438 74.421875 41.9375 74.421875 C 41.976562 74.421875 42.015625 74.421875 42.054688 74.421875 C 42.089844 74.421875 42.128906 74.425781 42.167969 74.425781 C 42.207031 74.425781 42.246094 74.425781 42.285156 74.425781 C 42.320312 74.425781 42.359375 74.425781 42.398438 74.425781 C 42.4375 74.425781 42.476562 74.429688 42.515625 74.429688 C 42.550781 74.429688 42.589844 74.429688 42.628906 74.429688 C 42.667969 74.429688 42.707031 74.429688 42.746094 74.433594 C 42.785156 74.433594 42.820312 74.433594 42.859375 74.433594 C 42.898438 74.433594 42.9375 74.433594 42.976562 74.433594 C 43.015625 74.4375 43.050781 74.4375 43.089844 74.4375 C 43.128906 74.4375 43.167969 74.4375 43.207031 74.4375 C 43.246094 74.4375 43.28125 74.441406 43.320312 74.441406 C 43.359375 74.441406 43.398438 74.441406 43.4375 74.441406 C 43.476562 74.441406 43.511719 74.441406 43.550781 74.445312 C 43.589844 74.445312 43.628906 74.445312 43.667969 74.445312 C 43.707031 74.445312 43.746094 74.449219 43.78125 74.449219 C 43.820312 74.449219 43.859375 74.449219 43.898438 74.453125 C 43.9375 74.453125 43.976562 74.453125 44.011719 74.453125 L 44.128906 74.457031 L 44.242188 74.457031 L 44.359375 74.460938 L 44.472656 74.464844 C 44.511719 74.464844 44.550781 74.464844 44.589844 74.464844 C 44.628906 74.46875 44.667969 74.46875 44.707031 74.46875 C 44.742188 74.46875 44.78125 74.472656 44.820312 74.472656 C 44.859375 74.472656 44.898438 74.476562 44.9375 74.476562 C 44.972656 74.476562 45.011719 74.476562 45.050781 74.480469 C 45.089844 74.480469 45.128906 74.480469 45.167969 74.484375 C 45.203125 74.484375 45.242188 74.484375 45.28125 74.484375 C 45.320312 74.488281 45.359375 74.488281 45.398438 74.488281 C 45.433594 74.492188 45.472656 74.492188 45.511719 74.492188 C 45.550781 74.496094 45.589844 74.496094 45.628906 74.496094 C 45.667969 74.5 45.703125 74.5 45.742188 74.5 C 45.78125 74.503906 45.820312 74.503906 45.859375 74.503906 C 45.898438 74.507812 45.933594 74.507812 45.972656 74.507812 L 46.089844 74.515625 L 46.203125 74.519531 L 46.320312 74.523438 L 46.433594 74.527344 L 46.550781 74.535156 L 46.664062 74.539062 C 46.703125 74.539062 46.742188 74.542969 46.78125 74.542969 C 46.820312 74.546875 46.859375 74.546875 46.894531 74.550781 C 46.933594 74.550781 46.972656 74.554688 47.011719 74.554688 C 47.050781 74.558594 47.089844 74.558594 47.125 74.5625 C 47.164062 74.5625 47.203125 74.566406 47.242188 74.566406 C 47.28125 74.570312 47.320312 74.570312 47.359375 74.574219 C 47.394531 74.574219 47.433594 74.578125 47.472656 74.578125 C 47.511719 74.582031 47.550781 74.585938 47.589844 74.585938 L 47.703125 74.59375 L 47.820312 74.601562 L 47.933594 74.609375 L 48.050781 74.617188 C 48.085938 74.617188 48.125 74.621094 48.164062 74.625 C 48.203125 74.625 48.242188 74.628906 48.28125 74.632812 C 48.320312 74.632812 48.355469 74.636719 48.394531 74.640625 C 48.433594 74.640625 48.472656 74.644531 48.511719 74.648438 C 48.550781 74.652344 48.585938 74.652344 48.625 74.65625 C 48.664062 74.660156 48.703125 74.664062 48.742188 74.664062 C 48.78125 74.667969 48.816406 74.671875 48.855469 74.675781 L 48.972656 74.683594 C 49.011719 74.6875 49.046875 74.691406 49.085938 74.695312 C 49.125 74.699219 49.164062 74.699219 49.203125 74.703125 C 49.242188 74.707031 49.28125 74.710938 49.316406 74.714844 C 49.355469 74.71875 49.394531 74.722656 49.433594 74.726562 C 49.472656 74.730469 49.511719 74.734375 49.546875 74.738281 C 49.585938 74.742188 49.625 74.746094 49.664062 74.75 C 49.703125 74.753906 49.742188 74.757812 49.777344 74.761719 C 49.816406 74.765625 49.855469 74.769531 49.894531 74.773438 C 49.933594 74.777344 49.972656 74.78125 50.007812 74.785156 C 50.046875 74.789062 50.085938 74.792969 50.125 74.796875 C 50.164062 74.800781 50.203125 74.804688 50.242188 74.8125 C 50.277344 74.816406 50.316406 74.820312 50.355469 74.824219 C 50.394531 74.828125 50.433594 74.835938 50.472656 74.839844 C 50.507812 74.84375 50.546875 74.847656 50.585938 74.851562 C 50.625 74.859375 50.664062 74.863281 50.703125 74.867188 C 50.738281 74.875 50.777344 74.878906 50.816406 74.882812 C 50.855469 74.890625 50.894531 74.894531 50.933594 74.898438 C 50.96875 74.90625 51.007812 74.910156 51.046875 74.917969 C 51.085938 74.921875 51.125 74.925781 51.164062 74.933594 C 51.203125 74.9375 51.238281 74.945312 51.277344 74.949219 C 51.316406 74.957031 51.355469 74.960938 51.394531 74.96875 C 51.433594 74.976562 51.46875 74.980469 51.507812 74.988281 C 51.546875 74.992188 51.585938 75 51.625 75.007812 C 51.664062 75.011719 51.699219 75.019531 51.738281 75.027344 C 51.777344 75.03125 51.816406 75.039062 51.855469 75.046875 C 51.894531 75.054688 51.929688 75.058594 51.96875 75.066406 C 52.007812 75.074219 52.046875 75.082031 52.085938 75.089844 C 52.125 75.09375 52.164062 75.101562 52.199219 75.109375 C 52.238281 75.117188 52.277344 75.125 52.316406 75.132812 C 52.355469 75.140625 52.394531 75.148438 52.429688 75.15625 C 52.46875 75.164062 52.507812 75.171875 52.546875 75.179688 C 52.585938 75.1875 52.625 75.199219 52.660156 75.207031 C 52.699219 75.214844 52.738281 75.222656 52.777344 75.230469 C 52.816406 75.242188 52.855469 75.25 52.890625 75.257812 C 52.929688 75.269531 52.96875 75.277344 53.007812 75.285156 C 53.046875 75.296875 53.085938 75.304688 53.125 75.316406 C 53.160156 75.324219 53.199219 75.335938 53.238281 75.34375 C 53.277344 75.355469 53.316406 75.363281 53.355469 75.375 C 53.390625 75.382812 53.429688 75.394531 53.46875 75.40625 C 53.507812 75.414062 53.546875 75.425781 53.585938 75.4375 C 53.621094 75.449219 53.660156 75.460938 53.699219 75.46875 C 53.738281 75.480469 53.777344 75.492188 53.816406 75.503906 C 53.855469 75.515625 53.890625 75.527344 53.929688 75.539062 C 53.96875 75.550781 54.007812 75.5625 54.046875 75.578125 C 54.085938 75.589844 54.121094 75.601562 54.160156 75.613281 C 54.199219 75.628906 54.238281 75.640625 54.277344 75.652344 C 54.316406 75.667969 54.351562 75.679688 54.390625 75.691406 C 54.429688 75.707031 54.46875 75.722656 54.507812 75.734375 C 54.546875 75.75 54.582031 75.761719 54.621094 75.777344 C 54.660156 75.792969 54.699219 75.808594 54.738281 75.820312 C 54.777344 75.835938 54.816406 75.851562 54.851562 75.867188 C 54.890625 75.882812 54.929688 75.898438 54.96875 75.914062 C 55.007812 75.929688 55.046875 75.945312 55.082031 75.964844 C 55.121094 75.980469 55.160156 75.996094 55.199219 76.015625 C 55.238281 76.03125 55.277344 76.046875 55.3125 76.066406 C 55.351562 76.082031 55.390625 76.101562 55.429688 76.121094 C 55.46875 76.136719 55.507812 76.15625 55.542969 76.175781 C 55.582031 76.195312 55.621094 76.214844 55.660156 76.234375 C 55.699219 76.253906 55.738281 76.273438 55.777344 76.292969 C 55.8125 76.3125 55.851562 76.332031 55.890625 76.355469 C 55.929688 76.375 55.96875 76.394531 56.007812 76.417969 C 56.042969 76.4375 56.082031 76.460938 56.121094 76.484375 C 56.160156 76.503906 56.199219 76.527344 56.238281 76.550781 C 56.273438 76.574219 56.3125 76.597656 56.351562 76.621094 C 56.390625 76.644531 56.429688 76.667969 56.46875 76.695312 C 56.503906 76.71875 56.542969 76.746094 56.582031 76.769531 C 56.621094 76.796875 56.660156 76.820312 56.699219 76.847656 C 56.738281 76.875 56.773438 76.902344 56.8125 76.929688 C 56.851562 76.957031 56.890625 76.984375 56.929688 77.011719 C 56.96875 77.042969 57.003906 77.070312 57.042969 77.101562 C 57.082031 77.128906 57.121094 77.160156 57.160156 77.191406 C 57.199219 77.21875 57.234375 77.25 57.273438 77.285156 C 57.3125 77.316406 57.351562 77.347656 57.390625 77.378906 C 57.429688 77.414062 57.464844 77.445312 57.503906 77.480469 C 57.542969 77.515625 57.582031 77.550781 57.621094 77.585938 C 57.660156 77.621094 57.699219 77.65625 57.734375 77.691406 C 57.773438 77.730469 57.8125 77.765625 57.851562 77.804688 C 57.890625 77.84375 57.929688 77.878906 57.964844 77.921875 C 58.003906 77.960938 58.042969 78 58.082031 78.039062 C 58.121094 78.082031 58.160156 78.125 58.195312 78.164062 C 58.234375 78.207031 58.273438 78.25 58.3125 78.296875 C 58.351562 78.339844 58.390625 78.386719 58.425781 78.429688 C 58.464844 78.476562 58.503906 78.523438 58.542969 78.570312 C 58.582031 78.617188 58.621094 78.667969 58.660156 78.71875 C 58.695312 78.765625 58.734375 78.816406 58.773438 78.867188 C 58.8125 78.921875 58.851562 78.972656 58.890625 79.027344 C 58.925781 79.078125 58.964844 79.132812 59.003906 79.191406 C 59.042969 79.246094 59.082031 79.304688 59.121094 79.359375 C 59.15625 79.417969 59.195312 79.476562 59.234375 79.539062 C 59.273438 79.597656 59.3125 79.660156 59.351562 79.722656 C 59.386719 79.785156 59.425781 79.851562 59.464844 79.917969 C 59.503906 79.980469 59.542969 80.050781 59.582031 80.117188 C 59.621094 80.1875 59.65625 80.253906 59.695312 80.328125 C 59.734375 80.398438 59.773438 80.46875 59.8125 80.546875 C 59.851562 80.621094 59.886719 80.695312 59.925781 80.773438 C 59.964844 80.851562 60.003906 80.929688 60.042969 81.011719 C 60.082031 81.089844 60.117188 81.175781 60.15625 81.257812 C 60.195312 81.34375 60.234375 81.429688 60.273438 81.519531 C 60.3125 81.605469 60.351562 81.695312 60.386719 81.789062 C 60.425781 81.882812 60.464844 81.976562 60.503906 82.074219 C 60.542969 82.167969 60.582031 82.269531 60.617188 82.371094 C 60.65625 82.472656 60.695312 82.574219 60.734375 82.679688 C 60.773438 82.785156 60.8125 82.894531 60.847656 83.007812 C 60.886719 83.117188 60.925781 83.230469 60.964844 83.347656 C 61.003906 83.464844 61.042969 83.582031 61.078125 83.703125 C 61.117188 83.828125 61.15625 83.953125 61.195312 84.082031 C 61.234375 84.207031 61.273438 84.339844 61.3125 84.476562 C 61.347656 84.609375 61.386719 84.746094 61.425781 84.890625 C 61.464844 85.03125 61.503906 85.175781 61.542969 85.324219 C 61.578125 85.472656 61.617188 85.628906 61.65625 85.785156 C 61.695312 85.941406 61.734375 86.101562 61.773438 86.265625 C 61.808594 86.433594 61.847656 86.601562 61.886719 86.777344 C 61.925781 86.953125 61.964844 87.132812 62.003906 87.316406 C 62.039062 87.5 62.078125 87.691406 62.117188 87.882812 C 62.15625 88.078125 62.195312 88.28125 62.234375 88.484375 C 62.273438 88.691406 62.308594 88.90625 62.347656 89.125 C 62.386719 89.339844 62.425781 89.566406 62.464844 89.796875 C 62.503906 90.03125 62.539062 90.269531 62.578125 90.515625 C 62.617188 90.761719 62.65625 91.015625 62.695312 91.277344 C 62.734375 91.539062 62.769531 91.808594 62.808594 92.089844 C 62.847656 92.367188 62.886719 92.65625 62.925781 92.953125 C 62.964844 93.253906 63 93.558594 63.039062 93.878906 C 63.078125 94.195312 63.117188 94.527344 63.15625 94.867188 C 63.195312 95.207031 63.234375 95.558594 63.269531 95.925781 C 63.308594 96.292969 63.347656 96.671875 63.386719 97.0625 C 63.425781 97.457031 63.464844 97.863281 63.5 98.289062 C 63.539062 98.710938 63.578125 99.152344 63.617188 99.609375 C 63.65625 100.066406 63.695312 100.542969 63.730469 101.039062 C 63.769531 101.53125 63.808594 102.046875 63.847656 102.585938 C 63.886719 103.125 63.925781 103.6875 63.960938 104.273438 C 64 104.859375 64.039062 105.46875 64.078125 106.109375 C 64.117188 106.75 64.15625 107.421875 64.195312 108.125 M 69.035156 7.277344 C 69.074219 8.105469 69.113281 8.894531 69.152344 9.644531 C 69.191406 10.394531 69.230469 11.109375 69.265625 11.792969 C 69.304688 12.476562 69.34375 13.128906 69.382812 13.753906 C 69.421875 14.378906 69.460938 14.976562 69.496094 15.550781 C 69.535156 16.125 69.574219 16.671875 69.613281 17.199219 C 69.652344 17.730469 69.691406 18.234375 69.730469 18.722656 C 69.765625 19.210938 69.804688 19.675781 69.84375 20.128906 C 69.882812 20.578125 69.921875 21.015625 69.960938 21.433594 C 69.996094 21.851562 70.035156 22.253906 70.074219 22.644531 C 70.113281 23.035156 70.152344 23.410156 70.191406 23.773438 C 70.226562 24.136719 70.265625 24.488281 70.304688 24.828125 C 70.34375 25.171875 70.382812 25.5 70.421875 25.816406 C 70.457031 26.136719 70.496094 26.445312 70.535156 26.742188 C 70.574219 27.042969 70.613281 27.332031 70.652344 27.613281 C 70.691406 27.894531 70.726562 28.167969 70.765625 28.433594 C 70.804688 28.695312 70.84375 28.953125 70.882812 29.203125 C 70.921875 29.453125 70.957031 29.695312 70.996094 29.933594 C 71.035156 30.167969 71.074219 30.398438 71.113281 30.621094 C 71.152344 30.84375 71.1875 31.0625 71.226562 31.273438 C 71.265625 31.484375 71.304688 31.691406 71.34375 31.890625 C 71.382812 32.089844 71.417969 32.285156 71.457031 32.476562 C 71.496094 32.667969 71.535156 32.851562 71.574219 33.035156 C 71.613281 33.214844 71.652344 33.390625 71.6875 33.566406 C 71.726562 33.738281 71.765625 33.90625 71.804688 34.070312 C 71.84375 34.234375 71.882812 34.394531 71.917969 34.550781 C 71.957031 34.707031 71.996094 34.863281 72.035156 35.011719 C 72.074219 35.160156 72.113281 35.308594 72.148438 35.449219 C 72.1875 35.59375 72.226562 35.734375 72.265625 35.871094 C 72.304688 36.007812 72.34375 36.140625 72.382812 36.273438 C 72.417969 36.402344 72.457031 36.53125 72.496094 36.65625 C 72.535156 36.78125 72.574219 36.90625 72.613281 37.023438 C 72.648438 37.144531 72.6875 37.261719 72.726562 37.378906 C 72.765625 37.496094 72.804688 37.605469 72.84375 37.71875 C 72.878906 37.828125 72.917969 37.9375 72.957031 38.042969 C 72.996094 38.152344 73.035156 38.253906 73.074219 38.359375 C 73.109375 38.460938 73.148438 38.5625 73.1875 38.660156 C 73.226562 38.757812 73.265625 38.855469 73.304688 38.949219 C 73.339844 39.042969 73.378906 39.136719 73.417969 39.230469 C 73.457031 39.320312 73.496094 39.410156 73.535156 39.5 C 73.574219 39.585938 73.609375 39.671875 73.648438 39.757812 C 73.6875 39.84375 73.726562 39.925781 73.765625 40.007812 C 73.804688 40.089844 73.839844 40.171875 73.878906 40.25 C 73.917969 40.328125 73.957031 40.40625 73.996094 40.484375 C 74.035156 40.558594 74.070312 40.636719 74.109375 40.710938 C 74.148438 40.785156 74.1875 40.855469 74.226562 40.925781 C 74.265625 41 74.304688 41.070312 74.339844 41.136719 C 74.378906 41.207031 74.417969 41.277344 74.457031 41.34375 C 74.496094 41.410156 74.535156 41.476562 74.570312 41.539062 C 74.609375 41.605469 74.648438 41.667969 74.6875 41.730469 C 74.726562 41.792969 74.765625 41.855469 74.800781 41.917969 C 74.839844 41.976562 74.878906 42.039062 74.917969 42.097656 C 74.957031 42.15625 74.996094 42.214844 75.03125 42.273438 C 75.070312 42.328125 75.109375 42.386719 75.148438 42.441406 C 75.1875 42.496094 75.226562 42.550781 75.265625 42.605469 C 75.300781 42.660156 75.339844 42.710938 75.378906 42.765625 C 75.417969 42.816406 75.457031 42.867188 75.496094 42.917969 C 75.53125 42.96875 75.570312 43.019531 75.609375 43.070312 C 75.648438 43.117188 75.6875 43.167969 75.726562 43.214844 C 75.761719 43.265625 75.800781 43.3125 75.839844 43.359375 C 75.878906 43.40625 75.917969 43.449219 75.957031 43.496094 C 75.992188 43.542969 76.03125 43.585938 76.070312 43.628906 C 76.109375 43.675781 76.148438 43.71875 76.1875 43.761719 C 76.226562 43.804688 76.261719 43.847656 76.300781 43.886719 C 76.339844 43.929688 76.378906 43.972656 76.417969 44.011719 C 76.457031 44.054688 76.492188 44.09375 76.53125 44.132812 C 76.570312 44.171875 76.609375 44.210938 76.648438 44.25 C 76.6875 44.289062 76.722656 44.328125 76.761719 44.367188 C 76.800781 44.402344 76.839844 44.441406 76.878906 44.476562 C 76.917969 44.515625 76.953125 44.550781 76.992188 44.585938 C 77.03125 44.621094 77.070312 44.65625 77.109375 44.691406 C 77.148438 44.726562 77.1875 44.761719 77.222656 44.796875 C 77.261719 44.832031 77.300781 44.863281 77.339844 44.898438 C 77.378906 44.929688 77.417969 44.964844 77.453125 44.996094 C 77.492188 45.027344 77.53125 45.0625 77.570312 45.09375 C 77.609375 45.125 77.648438 45.15625 77.683594 45.1875 C 77.722656 45.21875 77.761719 45.25 77.800781 45.277344 C 77.839844 45.308594 77.878906 45.339844 77.914062 45.367188 C 77.953125 45.398438 77.992188 45.425781 78.03125 45.457031 C 78.070312 45.484375 78.109375 45.515625 78.148438 45.542969 C 78.183594 45.570312 78.222656 45.597656 78.261719 45.625 C 78.300781 45.652344 78.339844 45.679688 78.378906 45.707031 C 78.414062 45.734375 78.453125 45.761719 78.492188 45.789062 C 78.53125 45.816406 78.570312 45.839844 78.609375 45.867188 C 78.644531 45.894531 78.683594 45.917969 78.722656 45.945312 C 78.761719 45.96875 78.800781 45.996094 78.839844 46.019531 C 78.875 46.042969 78.914062 46.070312 78.953125 46.09375 C 78.992188 46.117188 79.03125 46.140625 79.070312 46.164062 C 79.109375 46.1875 79.144531 46.210938 79.183594 46.234375 C 79.222656 46.257812 79.261719 46.28125 79.300781 46.304688 C 79.339844 46.328125 79.375 46.351562 79.414062 46.371094 C 79.453125 46.394531 79.492188 46.417969 79.53125 46.4375 C 79.570312 46.460938 79.605469 46.480469 79.644531 46.503906 C 79.683594 46.523438 79.722656 46.546875 79.761719 46.566406 C 79.800781 46.585938 79.839844 46.609375 79.875 46.628906 C 79.914062 46.648438 79.953125 46.671875 79.992188 46.691406 C 80.03125 46.710938 80.070312 46.730469 80.105469 46.75 C 80.144531 46.769531 80.183594 46.789062 80.222656 46.808594 C 80.261719 46.828125 80.300781 46.847656 80.335938 46.867188 C 80.375 46.886719 80.414062 46.90625 80.453125 46.921875 C 80.492188 46.941406 80.53125 46.960938 80.566406 46.980469 C 80.605469 46.996094 80.644531 47.015625 80.683594 47.035156 C 80.722656 47.050781 80.761719 47.070312 80.800781 47.085938 C 80.835938 47.105469 80.875 47.121094 80.914062 47.140625 C 80.953125 47.15625 80.992188 47.171875 81.03125 47.191406 C 81.066406 47.207031 81.105469 47.226562 81.144531 47.242188 C 81.183594 47.257812 81.222656 47.273438 81.261719 47.289062 C 81.296875 47.308594 81.335938 47.324219 81.375 47.339844 C 81.414062 47.355469 81.453125 47.371094 81.492188 47.386719 C 81.527344 47.402344 81.566406 47.417969 81.605469 47.433594 C 81.644531 47.449219 81.683594 47.464844 81.722656 47.480469 C 81.761719 47.496094 81.796875 47.511719 81.835938 47.527344 C 81.875 47.542969 81.914062 47.554688 81.953125 47.570312 C 81.992188 47.585938 82.027344 47.601562 82.066406 47.613281 C 82.105469 47.628906 82.144531 47.644531 82.183594 47.65625 C 82.222656 47.671875 82.257812 47.6875 82.296875 47.699219 C 82.335938 47.714844 82.375 47.726562 82.414062 47.742188 C 82.453125 47.757812 82.488281 47.769531 82.527344 47.785156 C 82.566406 47.796875 82.605469 47.808594 82.644531 47.824219 C 82.683594 47.835938 82.722656 47.851562 82.757812 47.863281 C 82.796875 47.875 82.835938 47.890625 82.875 47.902344 C 82.914062 47.914062 82.953125 47.929688 82.988281 47.941406 C 83.027344 47.953125 83.066406 47.964844 83.105469 47.976562 C 83.144531 47.992188 83.183594 48.003906 83.21875 48.015625 C 83.257812 48.027344 83.296875 48.039062 83.335938 48.050781 C 83.375 48.0625 83.414062 48.078125 83.449219 48.089844 C 83.488281 48.101562 83.527344 48.113281 83.566406 48.125 C 83.605469 48.136719 83.644531 48.148438 83.683594 48.160156 C 83.71875 48.171875 83.757812 48.179688 83.796875 48.191406 C 83.835938 48.203125 83.875 48.214844 83.914062 48.226562 C 83.949219 48.238281 83.988281 48.25 84.027344 48.261719 C 84.066406 48.269531 84.105469 48.28125 84.144531 48.292969 C 84.179688 48.304688 84.21875 48.3125 84.257812 48.324219 C 84.296875 48.335938 84.335938 48.347656 84.375 48.355469 C 84.410156 48.367188 84.449219 48.378906 84.488281 48.386719 C 84.527344 48.398438 84.566406 48.410156 84.605469 48.417969 C 84.644531 48.429688 84.679688 48.4375 84.71875 48.449219 C 84.757812 48.460938 84.796875 48.46875 84.835938 48.480469 C 84.875 48.488281 84.910156 48.5 84.949219 48.507812 C 84.988281 48.519531 85.027344 48.527344 85.066406 48.539062 C 85.105469 48.546875 85.140625 48.558594 85.179688 48.566406 C 85.21875 48.578125 85.257812 48.585938 85.296875 48.59375 C 85.335938 48.605469 85.375 48.613281 85.410156 48.625 C 85.449219 48.632812 85.488281 48.640625 85.527344 48.652344 C 85.566406 48.660156 85.605469 48.667969 85.640625 48.675781 C 85.679688 48.6875 85.71875 48.695312 85.757812 48.703125 C 85.796875 48.714844 85.835938 48.722656 85.871094 48.730469 C 85.910156 48.738281 85.949219 48.75 85.988281 48.757812 C 86.027344 48.765625 86.066406 48.773438 86.101562 48.78125 C 86.140625 48.789062 86.179688 48.800781 86.21875 48.808594 C 86.257812 48.816406 86.296875 48.824219 86.335938 48.832031 C 86.371094 48.839844 86.410156 48.847656 86.449219 48.855469 C 86.488281 48.867188 86.527344 48.875 86.566406 48.882812 C 86.601562 48.890625 86.640625 48.898438 86.679688 48.90625 C 86.71875 48.914062 86.757812 48.921875 86.796875 48.929688 C 86.832031 48.9375 86.871094 48.945312 86.910156 48.953125 C 86.949219 48.960938 86.988281 48.96875 87.027344 48.976562 C 87.0625 48.984375 87.101562 48.992188 87.140625 49 C 87.179688 49.007812 87.21875 49.011719 87.257812 49.019531 C 87.296875 49.027344 87.332031 49.035156 87.371094 49.042969 C 87.410156 49.050781 87.449219 49.058594 87.488281 49.066406 C 87.527344 49.070312 87.5625 49.078125 87.601562 49.085938 C 87.640625 49.09375 87.679688 49.101562 87.71875 49.109375 C 87.757812 49.113281 87.792969 49.121094 87.832031 49.128906 C 87.871094 49.136719 87.910156 49.144531 87.949219 49.148438 C 87.988281 49.15625 88.023438 49.164062 88.0625 49.171875 C 88.101562 49.175781 88.140625 49.183594 88.179688 49.191406 C 88.21875 49.195312 88.257812 49.203125 88.292969 49.210938 C 88.332031 49.21875 88.371094 49.222656 88.410156 49.230469 C 88.449219 49.238281 88.488281 49.242188 88.523438 49.25 C 88.5625 49.257812 88.601562 49.261719 88.640625 49.269531 C 88.679688 49.277344 88.71875 49.28125 88.753906 49.289062 C 88.792969 49.292969 88.832031 49.300781 88.871094 49.308594 C 88.910156 49.3125 88.949219 49.320312 88.984375 49.324219 C 89.023438 49.332031 89.0625 49.339844 89.101562 49.34375 C 89.140625 49.351562 89.179688 49.355469 89.21875 49.363281 C 89.253906 49.367188 89.292969 49.375 89.332031 49.378906 C 89.371094 49.386719 89.410156 49.390625 89.449219 49.398438 C 89.484375 49.402344 89.523438 49.410156 89.5625 49.414062 C 89.601562 49.421875 89.640625 49.425781 89.679688 49.433594 C 89.714844 49.4375 89.753906 49.445312 89.792969 49.449219 C 89.832031 49.457031 89.871094 49.460938 89.910156 49.46875 C 89.945312 49.472656 89.984375 49.476562 90.023438 49.484375 C 90.0625 49.488281 90.101562 49.496094 90.140625 49.5 C 90.179688 49.503906 90.214844 49.511719 90.253906 49.515625 C 90.292969 49.523438 90.332031 49.527344 90.371094 49.53125 C 90.410156 49.539062 90.445312 49.542969 90.484375 49.550781 C 90.523438 49.554688 90.5625 49.558594 90.601562 49.566406 C 90.640625 49.570312 90.675781 49.574219 90.714844 49.582031 C 90.753906 49.585938 90.792969 49.589844 90.832031 49.597656 C 90.871094 49.601562 90.90625 49.605469 90.945312 49.609375 C 90.984375 49.617188 91.023438 49.621094 91.0625 49.625 C 91.101562 49.632812 91.140625 49.636719 91.175781 49.640625 C 91.214844 49.644531 91.253906 49.652344 91.292969 49.65625 C 91.332031 49.660156 91.371094 49.664062 91.40625 49.671875 C 91.445312 49.675781 91.484375 49.679688 91.523438 49.683594 C 91.5625 49.691406 91.601562 49.695312 91.636719 49.699219 C 91.675781 49.703125 91.714844 49.710938 91.753906 49.714844 C 91.792969 49.71875 91.832031 49.722656 91.871094 49.726562 C 91.90625 49.734375 91.945312 49.738281 91.984375 49.742188 C 92.023438 49.746094 92.0625 49.75 92.101562 49.753906 C 92.136719 49.761719 92.175781 49.765625 92.214844 49.769531 C 92.253906 49.773438 92.292969 49.777344 92.332031 49.78125 C 92.367188 49.789062 92.40625 49.792969 92.445312 49.796875 C 92.484375 49.800781 92.523438 49.804688 92.5625 49.808594 C 92.597656 49.8125 92.636719 49.816406 92.675781 49.820312 C 92.714844 49.824219 92.753906 49.832031 92.792969 49.835938 C 92.832031 49.839844 92.867188 49.84375 92.90625 49.847656 C 92.945312 49.851562 92.984375 49.855469 93.023438 49.859375 C 93.0625 49.863281 93.097656 49.867188 93.136719 49.875 C 93.175781 49.878906 93.214844 49.882812 93.253906 49.886719 C 93.292969 49.890625 93.328125 49.894531 93.367188 49.898438 C 93.40625 49.902344 93.445312 49.90625 93.484375 49.910156 C 93.523438 49.914062 93.558594 49.917969 93.597656 49.921875 C 93.636719 49.925781 93.675781 49.929688 93.714844 49.933594 C 93.753906 49.9375 93.792969 49.941406 93.828125 49.945312 C 93.867188 49.949219 93.90625 49.953125 93.945312 49.957031 C 93.984375 49.960938 94.023438 49.964844 94.058594 49.96875 C 94.097656 49.972656 94.136719 49.976562 94.175781 49.980469 C 94.214844 49.984375 94.253906 49.988281 94.289062 49.992188 C 94.328125 49.996094 94.367188 50 94.40625 50.003906 C 94.445312 50.007812 94.484375 50.011719 94.519531 50.015625 C 94.558594 50.019531 94.597656 50.023438 94.636719 50.023438 C 94.675781 50.03125 94.714844 50.03125 94.753906 50.035156 C 94.789062 50.039062 94.828125 50.042969 94.867188 50.046875 C 94.90625 50.050781 94.945312 50.054688 94.984375 50.058594 C 95.019531 50.0625 95.058594 50.066406 95.097656 50.070312 C 95.136719 50.070312 95.175781 50.074219 95.214844 50.078125 C 95.25 50.082031 95.289062 50.085938 95.328125 50.089844 C 95.367188 50.09375 95.40625 50.097656 95.445312 50.101562 C 95.480469 50.101562 95.519531 50.105469 95.558594 50.109375 C 95.597656 50.113281 95.636719 50.117188 95.675781 50.121094 C 95.714844 50.125 95.75 50.125 95.789062 50.128906 C 95.828125 50.132812 95.867188 50.136719 95.90625 50.140625 C 95.945312 50.144531 95.980469 50.148438 96.019531 50.148438 C 96.058594 50.152344 96.097656 50.15625 96.136719 50.160156 C 96.175781 50.164062 96.210938 50.167969 96.25 50.167969 L 96.367188 50.179688 C 96.40625 50.183594 96.441406 50.183594 96.480469 50.1875 C 96.519531 50.191406 96.558594 50.195312 96.597656 50.199219 C 96.636719 50.203125 96.675781 50.203125 96.710938 50.207031 C 96.75 50.210938 96.789062 50.214844 96.828125 50.214844 C 96.867188 50.21875 96.90625 50.222656 96.941406 50.226562 C 96.980469 50.230469 97.019531 50.230469 97.058594 50.234375 C 97.097656 50.238281 97.136719 50.242188 97.171875 50.242188 C 97.210938 50.246094 97.25 50.25 97.289062 50.253906 C 97.328125 50.257812 97.367188 50.257812 97.402344 50.261719 C 97.441406 50.265625 97.480469 50.265625 97.519531 50.269531 C 97.558594 50.273438 97.597656 50.277344 97.636719 50.28125 C 97.671875 50.28125 97.710938 50.285156 97.75 50.289062 C 97.789062 50.292969 97.828125 50.292969 97.867188 50.296875 C 97.902344 50.300781 97.941406 50.300781 97.980469 50.304688 C 98.019531 50.308594 98.058594 50.3125 98.097656 50.3125 C 98.132812 50.316406 98.171875 50.320312 98.210938 50.320312 C 98.25 50.324219 98.289062 50.328125 98.328125 50.332031 C 98.363281 50.332031 98.402344 50.335938 98.441406 50.339844 C 98.480469 50.339844 98.519531 50.34375 98.558594 50.347656 C 98.597656 50.347656 98.632812 50.351562 98.671875 50.355469 C 98.710938 50.355469 98.75 50.359375 98.789062 50.363281 C 98.828125 50.363281 98.863281 50.367188 98.902344 50.371094 C 98.941406 50.375 98.980469 50.375 99.019531 50.378906 C 99.058594 50.382812 99.09375 50.382812 99.132812 50.386719 C 99.171875 50.390625 99.210938 50.390625 99.25 50.394531 C 99.289062 50.398438 99.328125 50.398438 99.363281 50.402344 C 99.402344 50.40625 99.441406 50.40625 99.480469 50.410156 C 99.519531 50.414062 99.558594 50.414062 99.59375 50.417969 L 99.710938 50.425781 L 99.824219 50.433594 L 99.941406 50.441406 L 100.054688 50.449219 L 100.171875 50.453125 L 100.289062 50.460938 L 100.402344 50.46875 L 100.519531 50.476562 L 100.632812 50.484375 L 100.75 50.492188 L 100.863281 50.496094 L 100.980469 50.503906 L 101.09375 50.511719 C 101.132812 50.515625 101.171875 50.515625 101.210938 50.519531 C 101.25 50.519531 101.285156 50.523438 101.324219 50.523438 C 101.363281 50.527344 101.402344 50.53125 101.441406 50.53125 C 101.480469 50.535156 101.515625 50.535156 101.554688 50.539062 C 101.59375 50.539062 101.632812 50.542969 101.671875 50.542969 C 101.710938 50.546875 101.746094 50.546875 101.785156 50.550781 C 101.824219 50.554688 101.863281 50.554688 101.902344 50.558594 C 101.941406 50.558594 101.976562 50.5625 102.015625 50.5625 C 102.054688 50.566406 102.09375 50.566406 102.132812 50.570312 C 102.171875 50.570312 102.210938 50.574219 102.246094 50.578125 C 102.285156 50.578125 102.324219 50.582031 102.363281 50.582031 C 102.402344 50.585938 102.441406 50.585938 102.476562 50.589844 C 102.515625 50.589844 102.554688 50.59375 102.59375 50.59375 C 102.632812 50.597656 102.671875 50.597656 102.707031 50.601562 C 102.746094 50.605469 102.785156 50.605469 102.824219 50.609375 C 102.863281 50.609375 102.902344 50.613281 102.9375 50.613281 C 102.976562 50.617188 103.015625 50.617188 103.054688 50.621094 C 103.09375 50.621094 103.132812 50.625 103.171875 50.625 C 103.207031 50.628906 103.246094 50.628906 103.285156 50.632812 C 103.324219 50.632812 103.363281 50.636719 103.402344 50.636719 C 103.4375 50.640625 103.476562 50.640625 103.515625 50.644531 C 103.554688 50.644531 103.59375 50.648438 103.632812 50.648438 C 103.667969 50.652344 103.707031 50.652344 103.746094 50.65625 C 103.785156 50.65625 103.824219 50.660156 103.863281 50.660156 C 103.898438 50.660156 103.9375 50.664062 103.976562 50.664062 C 104.015625 50.667969 104.054688 50.667969 104.09375 50.671875 C 104.132812 50.671875 104.167969 50.675781 104.207031 50.675781 C 104.246094 50.679688 104.285156 50.679688 104.324219 50.683594 C 104.363281 50.683594 104.398438 50.6875 104.4375 50.6875 C 104.476562 50.691406 104.515625 50.691406 104.554688 50.695312 C 104.59375 50.695312 104.628906 50.699219 104.667969 50.699219 C 104.707031 50.699219 104.746094 50.703125 104.785156 50.703125 C 104.824219 50.707031 104.863281 50.707031 104.898438 50.710938 C 104.9375 50.710938 104.976562 50.714844 105.015625 50.714844 C 105.054688 50.71875 105.09375 50.71875 105.128906 50.722656 C 105.167969 50.722656 105.207031 50.726562 105.246094 50.726562 C 105.285156 50.730469 105.324219 50.730469 105.359375 50.734375 L 105.476562 50.738281 L 105.589844 50.742188 L 105.707031 50.746094 L 105.824219 50.753906 L 105.9375 50.757812 L 106.054688 50.761719 L 106.167969 50.765625 L 106.285156 50.769531 L 106.398438 50.777344 L 106.515625 50.78125 L 106.628906 50.785156 L 106.746094 50.789062 L 106.859375 50.796875 L 106.976562 50.800781 L 107.089844 50.804688 L 107.207031 50.808594 L 107.320312 50.816406 L 107.4375 50.820312 L 107.550781 50.824219 L 107.667969 50.828125 L 107.78125 50.832031 L 107.898438 50.839844 L 108.011719 50.84375 L 108.128906 50.847656 L 108.242188 50.851562 L 108.359375 50.859375 C 108.398438 50.859375 108.4375 50.859375 108.472656 50.863281 C 108.511719 50.863281 108.550781 50.863281 108.589844 50.867188 C 108.628906 50.867188 108.667969 50.867188 108.707031 50.871094 C 108.742188 50.871094 108.78125 50.875 108.820312 50.875 C 108.859375 50.875 108.898438 50.878906 108.9375 50.878906 C 108.972656 50.878906 109.011719 50.882812 109.050781 50.882812 C 109.089844 50.882812 109.128906 50.886719 109.167969 50.886719 C 109.203125 50.886719 109.242188 50.890625 109.28125 50.890625 C 109.320312 50.890625 109.359375 50.890625 109.398438 50.894531 C 109.4375 50.894531 109.472656 50.894531 109.511719 50.898438 C 109.550781 50.898438 109.589844 50.898438 109.628906 50.902344 C 109.667969 50.902344 109.703125 50.902344 109.742188 50.90625 C 109.78125 50.90625 109.820312 50.910156 109.859375 50.910156 C 109.898438 50.910156 109.933594 50.914062 109.972656 50.914062 C 110.011719 50.914062 110.050781 50.917969 110.089844 50.917969 C 110.128906 50.917969 110.164062 50.921875 110.203125 50.921875 C 110.242188 50.921875 110.28125 50.925781 110.320312 50.925781 C 110.359375 50.925781 110.398438 50.929688 110.433594 50.929688 C 110.472656 50.929688 110.511719 50.933594 110.550781 50.933594 C 110.589844 50.933594 110.628906 50.9375 110.664062 50.9375 C 110.703125 50.9375 110.742188 50.941406 110.78125 50.941406 C 110.820312 50.945312 110.859375 50.945312 110.894531 50.945312 C 110.933594 50.949219 110.972656 50.949219 111.011719 50.949219 C 111.050781 50.953125 111.089844 50.953125 111.125 50.953125 C 111.164062 50.957031 111.203125 50.957031 111.242188 50.957031 C 111.28125 50.960938 111.320312 50.960938 111.359375 50.960938 C 111.394531 50.964844 111.433594 50.964844 111.472656 50.964844 C 111.511719 50.96875 111.550781 50.96875 111.589844 50.96875 C 111.625 50.972656 111.664062 50.972656 111.703125 50.972656 C 111.742188 50.976562 111.78125 50.976562 111.820312 50.976562 C 111.855469 50.980469 111.894531 50.980469 111.933594 50.980469 C 111.972656 50.984375 112.011719 50.984375 112.050781 50.984375 C 112.085938 50.988281 112.125 50.988281 112.164062 50.988281 C 112.203125 50.992188 112.242188 50.992188 112.28125 50.992188 C 112.320312 50.996094 112.355469 50.996094 112.394531 50.996094 C 112.433594 50.996094 112.472656 51 112.511719 51 C 112.550781 51 112.585938 51 112.625 51.003906 C 112.664062 51.003906 112.703125 51.003906 112.742188 51.003906 C 112.78125 51.007812 112.816406 51.007812 112.855469 51.007812 C 112.894531 51.011719 112.933594 51.011719 112.972656 51.011719 C 113.011719 51.011719 113.046875 51.015625 113.085938 51.015625 C 113.125 51.015625 113.164062 51.019531 113.203125 51.019531 C 113.242188 51.019531 113.28125 51.019531 113.316406 51.023438 C 113.355469 51.023438 113.394531 51.023438 113.433594 51.023438 C 113.472656 51.027344 113.511719 51.027344 113.546875 51.027344 C 113.585938 51.027344 113.625 51.03125 113.664062 51.03125 C 113.703125 51.03125 113.742188 51.035156 113.777344 51.035156 C 113.816406 51.035156 113.855469 51.035156 113.894531 51.039062 C 113.933594 51.039062 113.972656 51.039062 114.007812 51.042969 C 114.046875 51.042969 114.085938 51.042969 114.125 51.042969 C 114.164062 51.046875 114.203125 51.046875 114.242188 51.046875 C 114.277344 51.046875 114.316406 51.050781 114.355469 51.050781 C 114.394531 51.050781 114.433594 51.054688 114.472656 51.054688 C 114.507812 51.054688 114.546875 51.054688 114.585938 51.058594 C 114.625 51.058594 114.664062 51.058594 114.703125 51.058594 C 114.738281 51.0625 114.777344 51.0625 114.816406 51.0625 C 114.855469 51.0625 114.894531 51.066406 114.933594 51.066406 C 114.96875 51.066406 115.007812 51.070312 115.046875 51.070312 C 115.085938 51.070312 115.125 51.070312 115.164062 51.074219 C 115.203125 51.074219 115.238281 51.074219 115.277344 51.078125 C 115.316406 51.078125 115.355469 51.078125 115.394531 51.078125 C 115.433594 51.082031 115.46875 51.082031 115.507812 51.082031 C 115.546875 51.082031 115.585938 51.085938 115.625 51.085938 C 115.664062 51.085938 115.699219 51.089844 115.738281 51.089844 C 115.777344 51.089844 115.816406 51.089844 115.855469 51.09375 C 115.894531 51.09375 115.929688 51.09375 115.96875 51.09375 C 116.007812 51.097656 116.046875 51.097656 116.085938 51.097656 C 116.125 51.097656 116.164062 51.101562 116.199219 51.101562 C 116.238281 51.101562 116.277344 51.101562 116.316406 51.105469 C 116.355469 51.105469 116.394531 51.105469 116.429688 51.109375 C 116.46875 51.109375 116.507812 51.109375 116.546875 51.113281 C 116.585938 51.113281 116.625 51.113281 116.660156 51.113281 C 116.699219 51.117188 116.738281 51.117188 116.777344 51.117188 C 116.816406 51.117188 116.855469 51.121094 116.890625 51.121094 C 116.929688 51.121094 116.96875 51.121094 117.007812 51.125 C 117.046875 51.125 117.085938 51.125 117.125 51.128906 C 117.160156 51.128906 117.199219 51.128906 117.238281 51.128906 C 117.277344 51.132812 117.316406 51.132812 117.355469 51.132812 C 117.390625 51.132812 117.429688 51.136719 117.46875 51.136719 C 117.507812 51.136719 117.546875 51.136719 117.585938 51.140625 L 117.699219 51.144531 L 117.816406 51.144531 L 117.929688 51.148438 L 118.046875 51.148438 L 118.160156 51.152344 L 118.277344 51.15625 L 118.390625 51.15625 L 118.507812 51.160156 L 118.621094 51.160156 L 118.738281 51.164062 L 118.851562 51.167969 L 118.96875 51.167969 L 119.082031 51.171875 L 119.199219 51.175781 L 119.3125 51.175781 L 119.429688 51.179688 L 119.542969 51.179688 L 119.777344 51.1875 L 119.890625 51.1875 L 120.007812 51.191406 L 120.121094 51.191406 L 120.238281 51.195312 L 120.351562 51.199219 L 120.46875 51.199219 "/>
<path style=" stroke:none;fill-rule:nonzero;fill:rgb(0%,0%,0%);fill-opacity:1;" d="M 80.050781 11.628906 C 80.109375 11.460938 80.109375 11.441406 80.109375 11.347656 C 80.109375 11.140625 79.9375 11.027344 79.75 11.027344 C 79.640625 11.027344 79.453125 11.105469 79.339844 11.273438 C 79.320312 11.347656 79.207031 11.703125 79.171875 11.929688 C 79.078125 12.230469 79 12.566406 78.925781 12.886719 L 78.382812 15.042969 C 78.34375 15.210938 77.820312 16.054688 77.03125 16.054688 C 76.433594 16.054688 76.300781 15.527344 76.300781 15.078125 C 76.300781 14.535156 76.507812 13.785156 76.902344 12.734375 C 77.089844 12.246094 77.144531 12.117188 77.144531 11.871094 C 77.144531 11.347656 76.769531 10.898438 76.171875 10.898438 C 75.027344 10.898438 74.59375 12.640625 74.59375 12.734375 C 74.59375 12.867188 74.707031 12.867188 74.726562 12.867188 C 74.859375 12.867188 74.859375 12.828125 74.914062 12.640625 C 75.25 11.515625 75.71875 11.160156 76.132812 11.160156 C 76.226562 11.160156 76.433594 11.160156 76.433594 11.535156 C 76.433594 11.835938 76.300781 12.152344 76.226562 12.378906 C 75.738281 13.652344 75.53125 14.328125 75.53125 14.890625 C 75.53125 15.960938 76.28125 16.316406 76.996094 16.316406 C 77.464844 16.316406 77.859375 16.109375 78.195312 15.773438 C 78.046875 16.390625 77.894531 16.992188 77.425781 17.628906 C 77.109375 18.023438 76.65625 18.378906 76.113281 18.378906 C 75.945312 18.378906 75.402344 18.339844 75.195312 17.871094 C 75.382812 17.871094 75.550781 17.871094 75.703125 17.722656 C 75.832031 17.628906 75.945312 17.460938 75.945312 17.234375 C 75.945312 16.859375 75.625 16.824219 75.515625 16.824219 C 75.234375 16.824219 74.839844 17.011719 74.839844 17.589844 C 74.839844 18.191406 75.363281 18.640625 76.113281 18.640625 C 77.332031 18.640625 78.570312 17.554688 78.90625 16.203125 Z M 80.050781 11.628906 "/>
<path style=" stroke:none;fill-rule:nonzero;fill:rgb(0%,0%,0%);fill-opacity:1;" d="M 92.0625 12.265625 C 92.25 12.265625 92.476562 12.265625 92.476562 12.042969 C 92.476562 11.796875 92.25 11.796875 92.082031 11.796875 L 84.917969 11.796875 C 84.75 11.796875 84.523438 11.796875 84.523438 12.042969 C 84.523438 12.265625 84.75 12.265625 84.917969 12.265625 Z M 92.082031 14.589844 C 92.25 14.589844 92.476562 14.589844 92.476562 14.347656 C 92.476562 14.121094 92.25 14.121094 92.0625 14.121094 L 84.917969 14.121094 C 84.75 14.121094 84.523438 14.121094 84.523438 14.347656 C 84.523438 14.589844 84.75 14.589844 84.917969 14.589844 Z M 92.082031 14.589844 "/>
<path style=" stroke:none;fill-rule:nonzero;fill:rgb(0%,0%,0%);fill-opacity:1;" d="M 101.617188 11.566406 L 99.96875 8.304688 C 99.929688 8.230469 99.910156 8.171875 99.835938 8.171875 C 99.796875 8.171875 99.78125 8.171875 99.703125 8.230469 L 98.804688 8.828125 C 98.691406 8.902344 98.691406 8.941406 98.691406 8.980469 C 98.691406 9.015625 98.730469 9.089844 98.804688 9.089844 C 98.84375 9.089844 98.859375 9.089844 98.972656 9.015625 C 99.066406 8.941406 99.292969 8.773438 99.40625 8.714844 L 101.242188 12.335938 C 101.296875 12.449219 101.316406 12.464844 101.429688 12.464844 C 101.503906 12.464844 101.597656 12.464844 101.671875 12.316406 L 105.875 4.480469 C 105.949219 4.367188 105.949219 4.367188 105.949219 4.308594 C 105.949219 4.179688 105.835938 4.105469 105.742188 4.105469 C 105.628906 4.105469 105.574219 4.179688 105.535156 4.292969 Z M 101.617188 11.566406 "/>
<g clip-path="url(#clip2)" clip-rule="nonzero">
<path style="fill:none;stroke-width:0.4068;stroke-linecap:butt;stroke-linejoin:miter;stroke:rgb(0%,0%,0%);stroke-opacity:1;stroke-miterlimit:10;" d="M 105.761719 -4.3125 L 132.714844 -4.3125 " transform="matrix(1,0,0,-1,0,0)"/>
</g>
<path style=" stroke:none;fill-rule:nonzero;fill:rgb(0%,0%,0%);fill-opacity:1;" d="M 110.183594 10.007812 L 110.183594 9.707031 L 109.246094 9.707031 L 109.246094 5.976562 C 109.246094 5.808594 109.246094 5.730469 109.078125 5.730469 C 108.964844 5.730469 108.925781 5.730469 108.851562 5.863281 L 106.078125 9.707031 L 106.078125 10.007812 L 108.550781 10.007812 L 108.550781 10.683594 C 108.550781 10.980469 108.550781 11.074219 107.859375 11.074219 L 107.632812 11.074219 L 107.632812 11.375 C 108.066406 11.355469 108.589844 11.339844 108.890625 11.339844 C 109.207031 11.339844 109.734375 11.355469 110.164062 11.375 L 110.164062 11.074219 L 109.941406 11.074219 C 109.246094 11.074219 109.246094 10.980469 109.246094 10.683594 L 109.246094 10.007812 Z M 108.609375 6.652344 L 108.609375 9.707031 L 106.394531 9.707031 Z M 108.609375 6.652344 "/>
<path style=" stroke:none;fill-rule:nonzero;fill:rgb(0%,0%,0%);fill-opacity:1;" d="M 112.605469 10.496094 C 112.53125 10.777344 112.25 11.226562 111.816406 11.226562 C 111.796875 11.226562 111.535156 11.226562 111.367188 11.113281 C 111.703125 11 111.742188 10.699219 111.742188 10.644531 C 111.742188 10.457031 111.59375 10.34375 111.40625 10.34375 C 111.160156 10.34375 110.917969 10.53125 110.917969 10.851562 C 110.917969 11.261719 111.386719 11.449219 111.796875 11.449219 C 112.191406 11.449219 112.53125 11.226562 112.734375 10.871094 C 112.941406 11.300781 113.390625 11.449219 113.730469 11.449219 C 114.703125 11.449219 115.210938 10.417969 115.210938 10.175781 C 115.210938 10.0625 115.097656 10.0625 115.078125 10.0625 C 114.949219 10.0625 114.949219 10.121094 114.910156 10.214844 C 114.742188 10.792969 114.234375 11.226562 113.765625 11.226562 C 113.429688 11.226562 113.261719 11 113.261719 10.683594 C 113.261719 10.457031 113.46875 9.707031 113.691406 8.769531 C 113.859375 8.132812 114.234375 7.925781 114.515625 7.925781 C 114.535156 7.925781 114.78125 7.925781 114.96875 8.039062 C 114.703125 8.113281 114.59375 8.355469 114.59375 8.507812 C 114.59375 8.675781 114.742188 8.808594 114.929688 8.808594 C 115.117188 8.808594 115.398438 8.65625 115.398438 8.300781 C 115.398438 7.832031 114.855469 7.683594 114.535156 7.683594 C 114.105469 7.683594 113.765625 7.964844 113.597656 8.28125 C 113.449219 7.945312 113.054688 7.683594 112.585938 7.683594 C 111.648438 7.683594 111.125 8.714844 111.125 8.976562 C 111.125 9.070312 111.234375 9.070312 111.253906 9.070312 C 111.367188 9.070312 111.367188 9.050781 111.421875 8.9375 C 111.628906 8.28125 112.15625 7.925781 112.566406 7.925781 C 112.847656 7.925781 113.074219 8.074219 113.074219 8.46875 C 113.074219 8.636719 112.960938 9.050781 112.886719 9.351562 Z M 112.605469 10.496094 "/>
<path style=" stroke:none;fill-rule:nonzero;fill:rgb(0%,0%,0%);fill-opacity:1;" d="M 119.46875 7.820312 L 119.207031 7.820312 C 119.207031 7.933594 119.132812 8.308594 119.039062 8.367188 C 119 8.402344 118.496094 8.402344 118.402344 8.402344 L 117.238281 8.402344 C 117.632812 8.121094 118.0625 7.785156 118.421875 7.539062 C 118.964844 7.164062 119.46875 6.828125 119.46875 6.191406 C 119.46875 5.421875 118.738281 5.007812 117.894531 5.007812 C 117.089844 5.007812 116.488281 5.460938 116.488281 6.058594 C 116.488281 6.359375 116.75 6.414062 116.84375 6.414062 C 116.996094 6.414062 117.183594 6.304688 117.183594 6.058594 C 117.183594 5.851562 117.03125 5.722656 116.84375 5.722656 C 117.015625 5.441406 117.371094 5.273438 117.765625 5.273438 C 118.34375 5.273438 118.832031 5.609375 118.832031 6.191406 C 118.832031 6.695312 118.476562 7.089844 118.027344 7.464844 L 116.5625 8.703125 C 116.507812 8.757812 116.488281 8.757812 116.488281 8.796875 L 116.488281 8.984375 L 119.265625 8.984375 Z M 119.46875 7.820312 "/>
<path style=" stroke:none;fill-rule:nonzero;fill:rgb(0%,0%,0%);fill-opacity:1;" d="M 124.472656 9.480469 L 127.042969 9.480469 C 127.15625 9.480469 127.34375 9.480469 127.34375 9.292969 C 127.34375 9.070312 127.15625 9.070312 127.042969 9.070312 L 124.472656 9.070312 L 124.472656 6.5 C 124.472656 6.40625 124.472656 6.199219 124.285156 6.199219 C 124.078125 6.199219 124.078125 6.386719 124.078125 6.5 L 124.078125 9.070312 L 121.511719 9.070312 C 121.398438 9.070312 121.191406 9.070312 121.191406 9.277344 C 121.191406 9.480469 121.378906 9.480469 121.511719 9.480469 L 124.078125 9.480469 L 124.078125 12.050781 C 124.078125 12.164062 124.078125 12.371094 124.265625 12.371094 C 124.472656 12.371094 124.472656 12.164062 124.472656 12.050781 Z M 124.472656 9.480469 "/>
<path style=" stroke:none;fill-rule:nonzero;fill:rgb(0%,0%,0%);fill-opacity:1;" d="M 130.742188 6.050781 C 130.742188 5.824219 130.742188 5.824219 130.5 5.824219 C 129.957031 6.351562 129.207031 6.351562 128.867188 6.351562 L 128.867188 6.652344 C 129.054688 6.652344 129.617188 6.652344 130.070312 6.425781 L 130.070312 10.683594 C 130.070312 10.964844 130.070312 11.074219 129.242188 11.074219 L 128.925781 11.074219 L 128.925781 11.375 C 129.074219 11.375 130.105469 11.339844 130.40625 11.339844 C 130.667969 11.339844 131.71875 11.375 131.90625 11.375 L 131.90625 11.074219 L 131.585938 11.074219 C 130.742188 11.074219 130.742188 10.964844 130.742188 10.683594 Z M 130.742188 6.050781 "/>
<g clip-path="url(#clip3)" clip-rule="nonzero">
<path style="fill:none;stroke-width:0.4776;stroke-linecap:butt;stroke-linejoin:miter;stroke:rgb(0%,0%,0%);stroke-opacity:1;stroke-miterlimit:10;" d="M 97.902344 -13.195312 L 132.714844 -13.195312 " transform="matrix(1,0,0,-1,0,0)"/>
</g>
<path style=" stroke:none;fill-rule:nonzero;fill:rgb(0%,0%,0%);fill-opacity:1;" d="M 105.390625 15.640625 C 105.824219 15.75 106.066406 15.75 106.199219 15.75 C 107.304688 15.75 107.960938 15 107.960938 14.871094 C 107.960938 14.777344 107.902344 14.757812 107.867188 14.757812 C 107.847656 14.757812 107.828125 14.757812 107.792969 14.777344 C 107.585938 14.851562 107.152344 15.019531 106.535156 15.019531 C 106.292969 15.019531 105.859375 15 105.316406 14.796875 C 105.222656 14.757812 105.203125 14.757812 105.203125 14.757812 C 105.089844 14.757812 105.089844 14.851562 105.089844 14.984375 L 105.089844 17.4375 C 105.089844 17.589844 105.089844 17.683594 105.222656 17.683594 C 105.296875 17.683594 105.316406 17.683594 105.390625 17.570312 C 105.746094 17.121094 106.273438 17.046875 106.554688 17.046875 C 107.058594 17.046875 107.285156 17.4375 107.324219 17.515625 C 107.472656 17.796875 107.527344 18.113281 107.527344 18.601562 C 107.527344 18.84375 107.527344 19.332031 107.265625 19.707031 C 107.058594 20.007812 106.703125 20.214844 106.292969 20.214844 C 105.746094 20.214844 105.183594 19.914062 104.980469 19.351562 C 105.296875 19.371094 105.464844 19.164062 105.464844 18.9375 C 105.464844 18.582031 105.148438 18.527344 105.035156 18.527344 C 105.035156 18.527344 104.621094 18.527344 104.621094 18.976562 C 104.621094 19.726562 105.316406 20.476562 106.308594 20.476562 C 107.378906 20.476562 108.316406 19.6875 108.316406 18.621094 C 108.316406 17.683594 107.605469 16.820312 106.574219 16.820312 C 106.199219 16.820312 105.765625 16.894531 105.390625 17.214844 Z M 105.390625 15.640625 "/>
<path style=" stroke:none;fill-rule:nonzero;fill:rgb(0%,0%,0%);fill-opacity:1;" d="M 110.945312 19.425781 C 110.867188 19.707031 110.585938 20.15625 110.15625 20.15625 C 110.136719 20.15625 109.875 20.15625 109.707031 20.046875 C 110.042969 19.933594 110.082031 19.632812 110.082031 19.578125 C 110.082031 19.390625 109.929688 19.277344 109.742188 19.277344 C 109.5 19.277344 109.257812 19.464844 109.257812 19.78125 C 109.257812 20.195312 109.726562 20.382812 110.136719 20.382812 C 110.53125 20.382812 110.867188 20.15625 111.074219 19.800781 C 111.28125 20.234375 111.730469 20.382812 112.070312 20.382812 C 113.042969 20.382812 113.550781 19.351562 113.550781 19.109375 C 113.550781 18.996094 113.4375 18.996094 113.417969 18.996094 C 113.289062 18.996094 113.289062 19.050781 113.25 19.144531 C 113.082031 19.726562 112.574219 20.15625 112.105469 20.15625 C 111.769531 20.15625 111.601562 19.933594 111.601562 19.613281 C 111.601562 19.390625 111.804688 18.640625 112.03125 17.703125 C 112.199219 17.0625 112.574219 16.859375 112.855469 16.859375 C 112.875 16.859375 113.117188 16.859375 113.304688 16.96875 C 113.042969 17.046875 112.929688 17.289062 112.929688 17.4375 C 112.929688 17.609375 113.082031 17.738281 113.269531 17.738281 C 113.457031 17.738281 113.738281 17.589844 113.738281 17.234375 C 113.738281 16.765625 113.195312 16.613281 112.875 16.613281 C 112.445312 16.613281 112.105469 16.894531 111.9375 17.214844 C 111.789062 16.875 111.394531 16.613281 110.925781 16.613281 C 109.988281 16.613281 109.460938 17.644531 109.460938 17.90625 C 109.460938 18 109.574219 18 109.59375 18 C 109.707031 18 109.707031 17.984375 109.761719 17.871094 C 109.96875 17.214844 110.492188 16.859375 110.90625 16.859375 C 111.1875 16.859375 111.414062 17.007812 111.414062 17.402344 C 111.414062 17.570312 111.300781 17.984375 111.226562 18.28125 Z M 110.945312 19.425781 "/>
<path style=" stroke:none;fill-rule:nonzero;fill:rgb(0%,0%,0%);fill-opacity:1;" d="M 120.507812 18.414062 C 120.640625 18.414062 120.847656 18.414062 120.847656 18.226562 C 120.847656 18 120.640625 18 120.507812 18 L 115.523438 18 C 115.390625 18 115.183594 18 115.183594 18.207031 C 115.183594 18.414062 115.371094 18.414062 115.523438 18.414062 Z M 120.507812 18.414062 "/>
<path style=" stroke:none;fill-rule:nonzero;fill:rgb(0%,0%,0%);fill-opacity:1;" d="M 124.550781 14.984375 C 124.550781 14.757812 124.550781 14.757812 124.308594 14.757812 C 123.761719 15.28125 123.011719 15.28125 122.675781 15.28125 L 122.675781 15.582031 C 122.863281 15.582031 123.425781 15.582031 123.875 15.359375 L 123.875 19.613281 C 123.875 19.894531 123.875 20.007812 123.050781 20.007812 L 122.730469 20.007812 L 122.730469 20.308594 C 122.882812 20.308594 123.914062 20.269531 124.214844 20.269531 C 124.476562 20.269531 125.527344 20.308594 125.714844 20.308594 L 125.714844 20.007812 L 125.394531 20.007812 C 124.550781 20.007812 124.550781 19.894531 124.550781 19.613281 Z M 124.550781 14.984375 "/>
</g>
</svg>
