<?xml version="1.0" encoding="UTF-8"?>
<svg xmlns="http://www.w3.org/2000/svg" xmlns:xlink="http://www.w3.org/1999/xlink" width="153.912491pt" height="97.083954pt" viewBox="0 0 153.912491 97.083954" version="1.1">
<defs>
<clipPath id="clip1">
  <path d="M 12 0 L 14 0 L 14 97.082031 L 12 97.082031 Z M 12 0 "/>
</clipPath>
<clipPath id="clip2">
  <path d="M 151 6 L 153.914062 6 L 153.914062 19 L 151 19 Z M 151 6 "/>
</clipPath>
</defs>
<g id="surface1">
<path style="fill:none;stroke-width:0.4;stroke-linecap:butt;stroke-linejoin:miter;stroke:rgb(0%,0%,0%);stroke-opacity:1;stroke-dasharray:0.4,0.4;stroke-miterlimit:4;" d="M 58.632812 49.417969 L 58.453125 27.398438 L 13.214844 27.398438 "/>
<path style="fill:none;stroke-width:0.4;stroke-linecap:butt;stroke-linejoin:miter;stroke:rgb(0%,0%,0%);stroke-opacity:1;stroke-dasharray:0.4,0.4;stroke-miterlimit:4;" d="M 58.671875 83.140625 L 58.671875 49.644531 L 13.433594 49.644531 "/>
<path style="fill:none;stroke-width:1.6;stroke-linecap:butt;stroke-linejoin:miter;stroke:rgb(0%,0%,0%);stroke-opacity:1;stroke-miterlimit:4;" d="M 12.949219 82.980469 L 107.128906 14.644531 "/>
<g clip-path="url(#clip1)" clip-rule="nonzero">
<path style="fill:none;stroke-width:0.8;stroke-linecap:round;stroke-linejoin:round;stroke:rgb(100%,0%,0%);stroke-opacity:1;stroke-miterlimit:4;" d="M 13.09375 0.417969 L 13.09375 96.667969 "/>
</g>
<path style="fill:none;stroke-width:0.8;stroke-linecap:round;stroke-linejoin:round;stroke:rgb(100%,0%,0%);stroke-opacity:1;stroke-miterlimit:4;" d="M 0.46875 83.167969 L 114.804688 83.167969 "/>
<path style=" stroke:none;fill-rule:nonzero;fill:rgb(0%,0%,0%);fill-opacity:1;" d="M 21.996094 1.3125 C 22.050781 1.144531 22.050781 1.125 22.050781 1.03125 C 22.050781 0.824219 21.882812 0.710938 21.695312 0.710938 C 21.582031 0.710938 21.394531 0.785156 21.28125 0.957031 C 21.261719 1.03125 21.152344 1.386719 21.113281 1.613281 C 21.019531 1.910156 20.945312 2.25 20.871094 2.566406 L 20.324219 4.722656 C 20.289062 4.894531 19.761719 5.738281 18.976562 5.738281 C 18.375 5.738281 18.246094 5.210938 18.246094 4.761719 C 18.246094 4.21875 18.449219 3.46875 18.84375 2.417969 C 19.03125 1.929688 19.089844 1.800781 19.089844 1.554688 C 19.089844 1.03125 18.714844 0.582031 18.113281 0.582031 C 16.96875 0.582031 16.539062 2.324219 16.539062 2.417969 C 16.539062 2.550781 16.652344 2.550781 16.667969 2.550781 C 16.800781 2.550781 16.800781 2.511719 16.855469 2.324219 C 17.195312 1.199219 17.664062 0.84375 18.074219 0.84375 C 18.167969 0.84375 18.375 0.84375 18.375 1.21875 C 18.375 1.519531 18.246094 1.835938 18.167969 2.0625 C 17.683594 3.335938 17.476562 4.011719 17.476562 4.574219 C 17.476562 5.644531 18.226562 6 18.9375 6 C 19.40625 6 19.800781 5.792969 20.136719 5.457031 C 19.988281 6.074219 19.839844 6.675781 19.371094 7.3125 C 19.050781 7.707031 18.601562 8.0625 18.058594 8.0625 C 17.886719 8.0625 17.34375 8.023438 17.136719 7.554688 C 17.324219 7.554688 17.496094 7.554688 17.644531 7.40625 C 17.777344 7.3125 17.886719 7.144531 17.886719 6.917969 C 17.886719 6.542969 17.570312 6.503906 17.457031 6.503906 C 17.175781 6.503906 16.78125 6.691406 16.78125 7.273438 C 16.78125 7.875 17.308594 8.324219 18.058594 8.324219 C 19.277344 8.324219 20.511719 7.238281 20.851562 5.886719 Z M 21.996094 1.3125 "/>
<path style=" stroke:none;fill-rule:nonzero;fill:rgb(0%,0%,0%);fill-opacity:1;" d="M 115.050781 88.414062 C 115.125 88.113281 115.40625 87.007812 116.234375 87.007812 C 116.289062 87.007812 116.589844 87.007812 116.832031 87.160156 C 116.496094 87.234375 116.269531 87.515625 116.269531 87.816406 C 116.269531 88.003906 116.402344 88.226562 116.71875 88.226562 C 116.984375 88.226562 117.359375 88.019531 117.359375 87.535156 C 117.359375 86.914062 116.664062 86.746094 116.25 86.746094 C 115.558594 86.746094 115.144531 87.382812 114.996094 87.644531 C 114.695312 86.859375 114.058594 86.746094 113.703125 86.746094 C 112.464844 86.746094 111.769531 88.285156 111.769531 88.582031 C 111.769531 88.714844 111.902344 88.714844 111.921875 88.714844 C 112.015625 88.714844 112.050781 88.675781 112.070312 88.582031 C 112.484375 87.308594 113.269531 87.007812 113.683594 87.007812 C 113.90625 87.007812 114.320312 87.121094 114.320312 87.816406 C 114.320312 88.191406 114.113281 88.976562 113.683594 90.664062 C 113.496094 91.394531 113.0625 91.902344 112.539062 91.902344 C 112.464844 91.902344 112.203125 91.902344 111.9375 91.753906 C 112.238281 91.675781 112.5 91.433594 112.5 91.097656 C 112.5 90.777344 112.238281 90.683594 112.070312 90.683594 C 111.695312 90.683594 111.414062 90.984375 111.414062 91.378906 C 111.414062 91.921875 111.996094 92.164062 112.519531 92.164062 C 113.328125 92.164062 113.757812 91.320312 113.777344 91.265625 C 113.925781 91.695312 114.359375 92.164062 115.070312 92.164062 C 116.308594 92.164062 116.984375 90.628906 116.984375 90.328125 C 116.984375 90.195312 116.890625 90.195312 116.851562 90.195312 C 116.738281 90.195312 116.71875 90.253906 116.683594 90.328125 C 116.289062 91.621094 115.484375 91.902344 115.109375 91.902344 C 114.640625 91.902344 114.453125 91.527344 114.453125 91.113281 C 114.453125 90.851562 114.507812 90.589844 114.640625 90.066406 Z M 115.050781 88.414062 "/>
<path style="fill-rule:nonzero;fill:rgb(100%,100%,100%);fill-opacity:1;stroke-width:0.8;stroke-linecap:round;stroke-linejoin:round;stroke:rgb(0%,0%,0%);stroke-opacity:1;stroke-miterlimit:4;" d="M -56.984375 -49.597656 C -56.984375 -48.675781 -57.726562 -47.929688 -58.648438 -47.929688 C -59.566406 -47.929688 -60.3125 -48.675781 -60.3125 -49.597656 C -60.3125 -50.515625 -59.566406 -51.261719 -58.648438 -51.261719 C -57.726562 -51.261719 -56.984375 -50.515625 -56.984375 -49.597656 Z M -56.984375 -49.597656 " transform="matrix(-1,0,0,-1,0,0)"/>
<path style=" stroke:none;fill-rule:nonzero;fill:rgb(0%,0%,0%);fill-opacity:1;" d="M 115.421875 11.355469 C 115.476562 11.183594 115.476562 11.167969 115.476562 11.074219 C 115.476562 10.867188 115.308594 10.753906 115.121094 10.753906 C 115.007812 10.753906 114.820312 10.828125 114.710938 10.996094 C 114.691406 11.074219 114.578125 11.429688 114.539062 11.652344 C 114.445312 11.953125 114.371094 12.292969 114.296875 12.609375 L 113.753906 14.765625 C 113.714844 14.933594 113.191406 15.777344 112.402344 15.777344 C 111.804688 15.777344 111.671875 15.253906 111.671875 14.804688 C 111.671875 14.261719 111.878906 13.511719 112.273438 12.460938 C 112.460938 11.972656 112.515625 11.839844 112.515625 11.597656 C 112.515625 11.074219 112.140625 10.621094 111.539062 10.621094 C 110.398438 10.621094 109.964844 12.367188 109.964844 12.460938 C 109.964844 12.589844 110.078125 12.589844 110.097656 12.589844 C 110.226562 12.589844 110.226562 12.554688 110.285156 12.367188 C 110.621094 11.242188 111.089844 10.886719 111.503906 10.886719 C 111.597656 10.886719 111.804688 10.886719 111.804688 11.261719 C 111.804688 11.558594 111.671875 11.878906 111.597656 12.105469 C 111.109375 13.378906 110.902344 14.054688 110.902344 14.617188 C 110.902344 15.683594 111.652344 16.042969 112.367188 16.042969 C 112.835938 16.042969 113.226562 15.835938 113.566406 15.496094 C 113.414062 16.117188 113.265625 16.714844 112.796875 17.355469 C 112.476562 17.746094 112.027344 18.105469 111.484375 18.105469 C 111.316406 18.105469 110.773438 18.066406 110.566406 17.597656 C 110.753906 17.597656 110.921875 17.597656 111.070312 17.449219 C 111.203125 17.355469 111.316406 17.183594 111.316406 16.960938 C 111.316406 16.585938 110.996094 16.546875 110.882812 16.546875 C 110.601562 16.546875 110.210938 16.734375 110.210938 17.316406 C 110.210938 17.917969 110.734375 18.367188 111.484375 18.367188 C 112.703125 18.367188 113.941406 17.277344 114.277344 15.929688 Z M 115.421875 11.355469 "/>
<path style=" stroke:none;fill-rule:nonzero;fill:rgb(0%,0%,0%);fill-opacity:1;" d="M 127.433594 11.992188 C 127.621094 11.992188 127.84375 11.992188 127.84375 11.765625 C 127.84375 11.523438 127.621094 11.523438 127.453125 11.523438 L 120.289062 11.523438 C 120.121094 11.523438 119.894531 11.523438 119.894531 11.765625 C 119.894531 11.992188 120.121094 11.992188 120.289062 11.992188 Z M 127.453125 14.316406 C 127.621094 14.316406 127.84375 14.316406 127.84375 14.074219 C 127.84375 13.847656 127.621094 13.847656 127.433594 13.847656 L 120.289062 13.847656 C 120.121094 13.847656 119.894531 13.847656 119.894531 14.074219 C 119.894531 14.316406 120.121094 14.316406 120.289062 14.316406 Z M 127.453125 14.316406 "/>
<path style=" stroke:none;fill-rule:nonzero;fill:rgb(0%,0%,0%);fill-opacity:1;" d="M 136.226562 11.128906 L 137.257812 11.128906 C 137.503906 11.128906 137.613281 11.128906 137.613281 10.886719 C 137.613281 10.753906 137.503906 10.753906 137.296875 10.753906 L 136.300781 10.753906 L 136.546875 9.386719 C 136.601562 9.140625 136.769531 8.296875 136.847656 8.148438 C 136.941406 7.921875 137.144531 7.734375 137.410156 7.734375 C 137.445312 7.734375 137.765625 7.734375 137.988281 7.960938 C 137.464844 7.996094 137.332031 8.429688 137.332031 8.597656 C 137.332031 8.878906 137.558594 9.027344 137.785156 9.027344 C 138.101562 9.027344 138.441406 8.746094 138.441406 8.296875 C 138.441406 7.753906 137.894531 7.472656 137.410156 7.472656 C 136.996094 7.472656 136.246094 7.699219 135.890625 8.878906 C 135.816406 9.121094 135.777344 9.253906 135.496094 10.753906 L 134.671875 10.753906 C 134.425781 10.753906 134.296875 10.753906 134.296875 10.980469 C 134.296875 11.128906 134.410156 11.128906 134.632812 11.128906 L 135.421875 11.128906 L 134.539062 15.855469 C 134.316406 17.015625 134.109375 18.105469 133.488281 18.105469 C 133.433594 18.105469 133.152344 18.105469 132.910156 17.878906 C 133.472656 17.839844 133.582031 17.410156 133.582031 17.242188 C 133.582031 16.960938 133.359375 16.808594 133.132812 16.808594 C 132.816406 16.808594 132.476562 17.089844 132.476562 17.542969 C 132.476562 18.066406 133.003906 18.367188 133.488281 18.367188 C 134.144531 18.367188 134.632812 17.652344 134.839844 17.203125 C 135.234375 16.453125 135.496094 15.011719 135.515625 14.917969 Z M 136.226562 11.128906 "/>
<path style=" stroke:none;fill-rule:nonzero;fill:rgb(0%,0%,0%);fill-opacity:1;" d="M 142.9375 18.777344 C 142.9375 18.742188 142.9375 18.722656 142.730469 18.515625 C 141.25 17.015625 140.855469 14.746094 140.855469 12.910156 C 140.855469 10.828125 141.304688 8.746094 142.785156 7.265625 C 142.9375 7.117188 142.9375 7.097656 142.9375 7.058594 C 142.9375 6.964844 142.898438 6.929688 142.824219 6.929688 C 142.691406 6.929688 141.625 7.753906 140.910156 9.273438 C 140.3125 10.585938 140.160156 11.917969 140.160156 12.910156 C 140.160156 13.847656 140.292969 15.292969 140.949219 16.660156 C 141.679688 18.121094 142.691406 18.910156 142.824219 18.910156 C 142.898438 18.910156 142.9375 18.871094 142.9375 18.777344 Z M 142.9375 18.777344 "/>
<path style=" stroke:none;fill-rule:nonzero;fill:rgb(0%,0%,0%);fill-opacity:1;" d="M 147.625 12.292969 C 147.699219 11.992188 147.980469 10.886719 148.804688 10.886719 C 148.859375 10.886719 149.160156 10.886719 149.40625 11.035156 C 149.066406 11.109375 148.84375 11.390625 148.84375 11.691406 C 148.84375 11.878906 148.972656 12.105469 149.292969 12.105469 C 149.554688 12.105469 149.929688 11.898438 149.929688 11.410156 C 149.929688 10.792969 149.234375 10.621094 148.824219 10.621094 C 148.128906 10.621094 147.71875 11.261719 147.566406 11.523438 C 147.265625 10.734375 146.628906 10.621094 146.273438 10.621094 C 145.035156 10.621094 144.34375 12.160156 144.34375 12.460938 C 144.34375 12.589844 144.472656 12.589844 144.492188 12.589844 C 144.585938 12.589844 144.625 12.554688 144.640625 12.460938 C 145.054688 11.183594 145.84375 10.886719 146.253906 10.886719 C 146.480469 10.886719 146.890625 10.996094 146.890625 11.691406 C 146.890625 12.066406 146.6875 12.855469 146.253906 14.542969 C 146.066406 15.273438 145.636719 15.777344 145.109375 15.777344 C 145.035156 15.777344 144.773438 15.777344 144.511719 15.628906 C 144.8125 15.554688 145.074219 15.308594 145.074219 14.972656 C 145.074219 14.652344 144.8125 14.558594 144.640625 14.558594 C 144.265625 14.558594 143.984375 14.859375 143.984375 15.253906 C 143.984375 15.796875 144.566406 16.042969 145.09375 16.042969 C 145.898438 16.042969 146.328125 15.199219 146.347656 15.140625 C 146.5 15.574219 146.929688 16.042969 147.640625 16.042969 C 148.878906 16.042969 149.554688 14.503906 149.554688 14.203125 C 149.554688 14.074219 149.460938 14.074219 149.421875 14.074219 C 149.3125 14.074219 149.292969 14.128906 149.253906 14.203125 C 148.859375 15.496094 148.054688 15.777344 147.679688 15.777344 C 147.210938 15.777344 147.023438 15.402344 147.023438 14.992188 C 147.023438 14.730469 147.078125 14.464844 147.210938 13.941406 Z M 147.625 12.292969 "/>
<g clip-path="url(#clip2)" clip-rule="nonzero">
<path style=" stroke:none;fill-rule:nonzero;fill:rgb(0%,0%,0%);fill-opacity:1;" d="M 153.914062 12.910156 C 153.914062 11.992188 153.78125 10.546875 153.125 9.179688 C 152.414062 7.714844 151.382812 6.929688 151.269531 6.929688 C 151.195312 6.929688 151.136719 6.984375 151.136719 7.058594 C 151.136719 7.097656 151.136719 7.117188 151.363281 7.339844 C 152.542969 8.523438 153.21875 10.417969 153.21875 12.910156 C 153.21875 14.972656 152.789062 17.074219 151.304688 18.574219 C 151.136719 18.722656 151.136719 18.742188 151.136719 18.777344 C 151.136719 18.855469 151.195312 18.910156 151.269531 18.910156 C 151.382812 18.910156 152.46875 18.085938 153.164062 16.566406 C 153.78125 15.253906 153.914062 13.921875 153.914062 12.910156 Z M 153.914062 12.910156 "/>
</g>
<path style=" stroke:none;fill-rule:nonzero;fill:rgb(0%,0%,0%);fill-opacity:1;" d="M 59.609375 90.222656 C 60.585938 89.902344 61.277344 89.078125 61.277344 88.121094 C 61.277344 87.148438 60.230469 86.472656 59.085938 86.472656 C 57.886719 86.472656 56.964844 87.183594 56.964844 88.105469 C 56.964844 88.496094 57.230469 88.722656 57.585938 88.722656 C 57.941406 88.722656 58.183594 88.460938 58.183594 88.105469 C 58.183594 87.523438 57.621094 87.523438 57.453125 87.523438 C 57.808594 86.921875 58.597656 86.773438 59.027344 86.773438 C 59.535156 86.773438 60.191406 87.035156 60.191406 88.105469 C 60.191406 88.253906 60.152344 88.949219 59.855469 89.472656 C 59.496094 90.054688 59.085938 90.089844 58.785156 90.089844 C 58.691406 90.109375 58.410156 90.128906 58.316406 90.128906 C 58.222656 90.148438 58.148438 90.167969 58.148438 90.277344 C 58.148438 90.410156 58.222656 90.410156 58.429688 90.410156 L 58.953125 90.410156 C 59.929688 90.410156 60.378906 91.214844 60.378906 92.398438 C 60.378906 94.027344 59.554688 94.367188 59.027344 94.367188 C 58.503906 94.367188 57.605469 94.160156 57.191406 93.464844 C 57.605469 93.523438 57.980469 93.261719 57.980469 92.808594 C 57.980469 92.378906 57.660156 92.136719 57.324219 92.136719 C 57.023438 92.136719 56.648438 92.304688 56.648438 92.828125 C 56.648438 93.917969 57.753906 94.703125 59.066406 94.703125 C 60.527344 94.703125 61.617188 93.617188 61.617188 92.398438 C 61.617188 91.421875 60.847656 90.484375 59.609375 90.222656 Z M 59.609375 90.222656 "/>
<path style=" stroke:none;fill-rule:nonzero;fill:rgb(0%,0%,0%);fill-opacity:1;" d="M 7.65625 50.308594 L 7.65625 50.007812 C 7.65625 46.988281 9.136719 46.558594 9.757812 46.558594 C 10.039062 46.558594 10.542969 46.632812 10.808594 47.046875 C 10.621094 47.046875 10.152344 47.046875 10.152344 47.570312 C 10.152344 47.945312 10.433594 48.132812 10.695312 48.132812 C 10.882812 48.132812 11.257812 48.019531 11.257812 47.550781 C 11.257812 46.839844 10.730469 46.257812 9.738281 46.257812 C 8.199219 46.257812 6.589844 47.796875 6.589844 50.4375 C 6.589844 53.644531 7.976562 54.488281 9.082031 54.488281 C 10.414062 54.488281 11.558594 53.363281 11.558594 51.789062 C 11.558594 50.269531 10.488281 49.125 9.15625 49.125 C 8.351562 49.125 7.902344 49.726562 7.65625 50.308594 Z M 9.082031 54.152344 C 8.332031 54.152344 7.976562 53.4375 7.902344 53.25 C 7.675781 52.6875 7.675781 51.734375 7.675781 51.527344 C 7.675781 50.589844 8.070312 49.390625 9.136719 49.390625 C 9.34375 49.390625 9.886719 49.390625 10.261719 50.140625 C 10.46875 50.570312 10.46875 51.1875 10.46875 51.769531 C 10.46875 52.351562 10.46875 52.953125 10.261719 53.382812 C 9.90625 54.09375 9.363281 54.152344 9.082031 54.152344 Z M 9.082031 54.152344 "/>
<path style=" stroke:none;fill-rule:nonzero;fill:rgb(0%,0%,0%);fill-opacity:1;" d="M 9.660156 28.316406 L 9.660156 28.710938 C 9.660156 31.503906 8.425781 32.046875 7.730469 32.046875 C 7.523438 32.046875 6.867188 32.027344 6.550781 31.617188 C 7.074219 31.617188 7.167969 31.277344 7.167969 31.070312 C 7.167969 30.695312 6.886719 30.527344 6.625 30.527344 C 6.4375 30.527344 6.082031 30.621094 6.082031 31.089844 C 6.082031 31.898438 6.71875 32.382812 7.730469 32.382812 C 9.285156 32.382812 10.75 30.753906 10.75 28.183594 C 10.75 24.960938 9.363281 24.152344 8.292969 24.152344 C 7.636719 24.152344 7.054688 24.378906 6.550781 24.902344 C 6.042969 25.445312 5.78125 25.953125 5.78125 26.851562 C 5.78125 28.335938 6.832031 29.515625 8.160156 29.515625 C 8.894531 29.515625 9.378906 29.007812 9.660156 28.316406 Z M 8.179688 29.234375 C 7.992188 29.234375 7.429688 29.234375 7.074219 28.484375 C 6.847656 28.035156 6.847656 27.453125 6.847656 26.851562 C 6.847656 26.214844 6.847656 25.652344 7.113281 25.203125 C 7.429688 24.601562 7.878906 24.453125 8.292969 24.453125 C 8.855469 24.453125 9.25 24.867188 9.457031 25.390625 C 9.585938 25.785156 9.644531 26.535156 9.644531 27.078125 C 9.644531 28.070312 9.230469 29.234375 8.179688 29.234375 Z M 8.179688 29.234375 "/>
<path style="fill-rule:nonzero;fill:rgb(0%,0%,0%);fill-opacity:1;stroke-width:0.8;stroke-linecap:round;stroke-linejoin:round;stroke:rgb(0%,0%,0%);stroke-opacity:1;stroke-miterlimit:4;" d="M -56.976562 -27.234375 C -56.976562 -26.316406 -57.722656 -25.570312 -58.640625 -25.570312 C -59.5625 -25.570312 -60.308594 -26.316406 -60.308594 -27.234375 C -60.308594 -28.15625 -59.5625 -28.902344 -58.640625 -28.902344 C -57.722656 -28.902344 -56.976562 -28.15625 -56.976562 -27.234375 Z M -56.976562 -27.234375 " transform="matrix(-1,0,0,-1,0,0)"/>
</g>
</svg>
