<?xml version="1.0" encoding="UTF-8"?>
<svg xmlns="http://www.w3.org/2000/svg" xmlns:xlink="http://www.w3.org/1999/xlink" width="615.780151pt" height="226.863434pt" viewBox="0 0 615.780151 226.863434" version="1.1">
<defs>
<clipPath id="clip1">
  <path d="M 523 0 L 615.78125 0 L 615.78125 121 L 523 121 Z M 523 0 "/>
</clipPath>
<clipPath id="clip2">
  <path d="M 411 0 L 615.78125 0 L 615.78125 204 L 411 204 Z M 411 0 "/>
</clipPath>
<clipPath id="clip3">
  <path d="M 337 213 L 352 213 L 352 226.863281 L 337 226.863281 Z M 337 213 "/>
</clipPath>
</defs>
<g id="surface1">
<path style="fill:none;stroke-width:1.6;stroke-linecap:butt;stroke-linejoin:miter;stroke:rgb(100%,0%,0%);stroke-opacity:1;stroke-miterlimit:4;" d="M 109.199219 149.496094 L 109.199219 139.898438 L 118.800781 139.898438 "/>
<path style="fill:none;stroke-width:2.4;stroke-linecap:butt;stroke-linejoin:miter;stroke:rgb(0%,0%,0%);stroke-opacity:1;stroke-miterlimit:4;" d="M 3.601562 149.496094 L 118.800781 149.496094 L 118.800781 63.097656 Z M 3.601562 149.496094 "/>
<path style=" stroke:none;fill-rule:nonzero;fill:rgb(0%,0%,0%);fill-opacity:1;" d="M 63.28125 161.179688 C 62.90625 160.429688 62.34375 159.898438 61.4375 159.898438 C 59.125 159.898438 56.65625 162.835938 56.65625 165.742188 C 56.65625 167.617188 57.75 168.929688 59.28125 168.929688 C 59.6875 168.929688 60.6875 168.835938 61.875 167.429688 C 62.03125 168.273438 62.75 168.929688 63.6875 168.929688 C 64.40625 168.929688 64.84375 168.460938 65.1875 167.835938 C 65.5 167.117188 65.78125 165.898438 65.78125 165.867188 C 65.78125 165.648438 65.59375 165.648438 65.53125 165.648438 C 65.34375 165.648438 65.3125 165.742188 65.25 166.023438 C 64.90625 167.304688 64.5625 168.492188 63.75 168.492188 C 63.1875 168.492188 63.15625 167.960938 63.15625 167.585938 C 63.15625 167.148438 63.1875 166.960938 63.40625 166.085938 C 63.625 165.273438 63.65625 165.054688 63.84375 164.304688 L 64.5625 161.523438 C 64.6875 160.960938 64.6875 160.929688 64.6875 160.835938 C 64.6875 160.492188 64.46875 160.304688 64.125 160.304688 C 63.625 160.304688 63.34375 160.742188 63.28125 161.179688 Z M 62 166.335938 C 61.875 166.710938 61.875 166.742188 61.59375 167.085938 C 60.71875 168.179688 59.90625 168.492188 59.34375 168.492188 C 58.34375 168.492188 58.0625 167.398438 58.0625 166.617188 C 58.0625 165.617188 58.6875 163.179688 59.15625 162.242188 C 59.78125 161.085938 60.65625 160.335938 61.46875 160.335938 C 62.75 160.335938 63.03125 161.960938 63.03125 162.085938 C 63.03125 162.210938 63 162.335938 62.96875 162.429688 Z M 62 166.335938 "/>
<path style=" stroke:none;fill-rule:nonzero;fill:rgb(0%,0%,0%);fill-opacity:1;" d="M 129.355469 99.945312 C 129.355469 99.945312 129.355469 99.726562 129.105469 99.726562 C 128.667969 99.726562 127.199219 99.882812 126.667969 99.945312 C 126.511719 99.945312 126.292969 99.976562 126.292969 100.320312 C 126.292969 100.570312 126.480469 100.570312 126.792969 100.570312 C 127.730469 100.570312 127.761719 100.695312 127.761719 100.914062 C 127.761719 101.039062 127.605469 101.726562 127.511719 102.132812 L 125.855469 108.632812 C 125.636719 109.632812 125.542969 109.976562 125.542969 110.664062 C 125.542969 112.539062 126.605469 113.789062 128.074219 113.789062 C 130.417969 113.789062 132.886719 110.820312 132.886719 107.945312 C 132.886719 106.132812 131.824219 104.757812 130.230469 104.757812 C 129.324219 104.757812 128.480469 105.351562 127.886719 105.945312 Z M 127.511719 107.476562 C 127.605469 107.039062 127.605469 107.007812 127.792969 106.789062 C 128.761719 105.507812 129.667969 105.195312 130.199219 105.195312 C 130.917969 105.195312 131.449219 105.789062 131.449219 107.070312 C 131.449219 108.257812 130.792969 110.539062 130.417969 111.289062 C 129.761719 112.632812 128.855469 113.351562 128.074219 113.351562 C 127.386719 113.351562 126.730469 112.820312 126.730469 111.351562 C 126.730469 110.945312 126.730469 110.570312 127.042969 109.320312 Z M 127.511719 107.476562 "/>
<path style=" stroke:none;fill-rule:nonzero;fill:rgb(0%,0%,0%);fill-opacity:1;" d="M 54.734375 93.34375 C 54.390625 93.34375 54.140625 93.34375 53.859375 93.59375 C 53.515625 93.90625 53.484375 94.25 53.484375 94.375 C 53.484375 94.875 53.859375 95.09375 54.234375 95.09375 C 54.796875 95.09375 55.328125 94.59375 55.328125 93.8125 C 55.328125 92.84375 54.390625 92.09375 52.984375 92.09375 C 50.296875 92.09375 47.640625 94.9375 47.640625 97.75 C 47.640625 99.5625 48.796875 101.125 50.890625 101.125 C 53.734375 101.125 55.390625 99 55.390625 98.78125 C 55.390625 98.65625 55.296875 98.5 55.171875 98.5 C 55.046875 98.5 55.015625 98.5625 54.890625 98.71875 C 53.328125 100.6875 51.140625 100.6875 50.921875 100.6875 C 49.671875 100.6875 49.109375 99.71875 49.109375 98.5 C 49.109375 97.6875 49.515625 95.75 50.203125 94.53125 C 50.828125 93.375 51.921875 92.53125 53.015625 92.53125 C 53.671875 92.53125 54.453125 92.78125 54.734375 93.34375 Z M 54.734375 93.34375 "/>
<path style="fill-rule:nonzero;fill:rgb(100%,39.99939%,0%);fill-opacity:1;stroke-width:0.8;stroke-linecap:round;stroke-linejoin:round;stroke:rgb(0%,0%,0%);stroke-opacity:1;stroke-miterlimit:4;" d="M 268.980469 202.792969 L 384.179688 202.792969 L 384.179688 116.390625 Z M 268.980469 202.792969 "/>
<path style="fill-rule:nonzero;fill:rgb(100%,0%,100%);fill-opacity:1;stroke-width:0.8;stroke-linecap:round;stroke-linejoin:round;stroke:rgb(0%,0%,0%);stroke-opacity:1;stroke-miterlimit:4;" d="M 384.179688 116.390625 L 268.980469 116.390625 L 268.980469 202.792969 Z M 384.179688 116.390625 "/>
<path style="fill-rule:nonzero;fill:rgb(0%,100%,0%);fill-opacity:1;stroke-width:0.8;stroke-linecap:round;stroke-linejoin:round;stroke:rgb(0%,0%,0%);stroke-opacity:1;stroke-miterlimit:4;" d="M 182.582031 1.191406 L 182.582031 116.390625 L 268.980469 116.390625 Z M 182.582031 1.191406 "/>
<path style="fill-rule:nonzero;fill:rgb(0%,100%,100%);fill-opacity:1;stroke-width:0.8;stroke-linecap:round;stroke-linejoin:round;stroke:rgb(0%,0%,0%);stroke-opacity:1;stroke-miterlimit:4;" d="M 268.980469 116.390625 L 268.980469 1.191406 L 182.582031 1.191406 Z M 268.980469 116.390625 "/>
<path style="fill:none;stroke-width:2.4;stroke-linecap:round;stroke-linejoin:round;stroke:rgb(0%,0%,0%);stroke-opacity:1;stroke-miterlimit:4;" d="M 182.582031 1.191406 L 384.179688 1.191406 L 384.179688 202.792969 L 182.582031 202.792969 Z M 182.582031 1.191406 "/>
<path style="fill-rule:nonzero;fill:rgb(100%,39.99939%,0%);fill-opacity:1;stroke-width:0.8;stroke-linecap:round;stroke-linejoin:round;stroke:rgb(0%,0%,0%);stroke-opacity:1;stroke-miterlimit:4;" d="M 499.378906 202.792969 L 614.582031 202.792969 L 614.582031 116.390625 Z M 499.378906 202.792969 "/>
<path style="fill-rule:nonzero;fill:rgb(100%,0%,100%);fill-opacity:1;stroke-width:0.8;stroke-linecap:butt;stroke-linejoin:miter;stroke:rgb(0%,0%,0%);stroke-opacity:1;stroke-miterlimit:4;" d="M 528.179688 1.191406 L 412.980469 1.191406 L 412.980469 87.589844 Z M 528.179688 1.191406 "/>
<path style="fill-rule:nonzero;fill:rgb(0%,100%,0%);fill-opacity:1;stroke-width:0.8;stroke-linecap:butt;stroke-linejoin:miter;stroke:rgb(0%,0%,0%);stroke-opacity:1;stroke-miterlimit:4;" d="M 412.980469 87.589844 L 412.980469 202.792969 L 499.378906 202.792969 Z M 412.980469 87.589844 "/>
<path style=" stroke:none;fill-rule:nonzero;fill:rgb(0%,100%,100%);fill-opacity:1;" d="M 614.582031 116.390625 L 614.582031 1.191406 L 528.179688 1.191406 Z M 614.582031 116.390625 "/>
<g clip-path="url(#clip1)" clip-rule="nonzero">
<path style="fill:none;stroke-width:0.8;stroke-linecap:butt;stroke-linejoin:miter;stroke:rgb(0%,0%,0%);stroke-opacity:1;stroke-miterlimit:4;" d="M 614.582031 116.390625 L 614.582031 1.191406 L 528.179688 1.191406 Z M 614.582031 116.390625 "/>
</g>
<g clip-path="url(#clip2)" clip-rule="nonzero">
<path style="fill:none;stroke-width:2.4;stroke-linecap:round;stroke-linejoin:round;stroke:rgb(0%,0%,0%);stroke-opacity:1;stroke-miterlimit:4;" d="M 412.980469 1.191406 L 614.582031 1.191406 L 614.582031 202.792969 L 412.980469 202.792969 Z M 412.980469 1.191406 "/>
</g>
<path style=" stroke:none;fill-rule:nonzero;fill:rgb(0%,0%,0%);fill-opacity:1;" d="M 228.527344 123.367188 C 228.152344 122.617188 227.589844 122.085938 226.683594 122.085938 C 224.371094 122.085938 221.902344 125.023438 221.902344 127.929688 C 221.902344 129.804688 222.996094 131.117188 224.527344 131.117188 C 224.933594 131.117188 225.933594 131.023438 227.121094 129.617188 C 227.277344 130.460938 227.996094 131.117188 228.933594 131.117188 C 229.652344 131.117188 230.089844 130.648438 230.433594 130.023438 C 230.746094 129.304688 231.027344 128.085938 231.027344 128.054688 C 231.027344 127.835938 230.839844 127.835938 230.777344 127.835938 C 230.589844 127.835938 230.558594 127.929688 230.496094 128.210938 C 230.152344 129.492188 229.808594 130.679688 228.996094 130.679688 C 228.433594 130.679688 228.402344 130.148438 228.402344 129.773438 C 228.402344 129.335938 228.433594 129.148438 228.652344 128.273438 C 228.871094 127.460938 228.902344 127.242188 229.089844 126.492188 L 229.808594 123.710938 C 229.933594 123.148438 229.933594 123.117188 229.933594 123.023438 C 229.933594 122.679688 229.714844 122.492188 229.371094 122.492188 C 228.871094 122.492188 228.589844 122.929688 228.527344 123.367188 Z M 227.246094 128.523438 C 227.121094 128.898438 227.121094 128.929688 226.839844 129.273438 C 225.964844 130.367188 225.152344 130.679688 224.589844 130.679688 C 223.589844 130.679688 223.308594 129.585938 223.308594 128.804688 C 223.308594 127.804688 223.933594 125.367188 224.402344 124.429688 C 225.027344 123.273438 225.902344 122.523438 226.714844 122.523438 C 227.996094 122.523438 228.277344 124.148438 228.277344 124.273438 C 228.277344 124.398438 228.246094 124.523438 228.214844 124.617188 Z M 227.246094 128.523438 "/>
<path style=" stroke:none;fill-rule:nonzero;fill:rgb(0%,0%,0%);fill-opacity:1;" d="M 260.789062 156.074219 C 260.414062 155.324219 259.851562 154.792969 258.945312 154.792969 C 256.632812 154.792969 254.164062 157.730469 254.164062 160.636719 C 254.164062 162.511719 255.257812 163.824219 256.789062 163.824219 C 257.195312 163.824219 258.195312 163.730469 259.382812 162.324219 C 259.539062 163.167969 260.257812 163.824219 261.195312 163.824219 C 261.914062 163.824219 262.351562 163.355469 262.695312 162.730469 C 263.007812 162.011719 263.289062 160.792969 263.289062 160.761719 C 263.289062 160.542969 263.101562 160.542969 263.039062 160.542969 C 262.851562 160.542969 262.820312 160.636719 262.757812 160.917969 C 262.414062 162.199219 262.070312 163.386719 261.257812 163.386719 C 260.695312 163.386719 260.664062 162.855469 260.664062 162.480469 C 260.664062 162.042969 260.695312 161.855469 260.914062 160.980469 C 261.132812 160.167969 261.164062 159.949219 261.351562 159.199219 L 262.070312 156.417969 C 262.195312 155.855469 262.195312 155.824219 262.195312 155.730469 C 262.195312 155.386719 261.976562 155.199219 261.632812 155.199219 C 261.132812 155.199219 260.851562 155.636719 260.789062 156.074219 Z M 259.507812 161.230469 C 259.382812 161.605469 259.382812 161.636719 259.101562 161.980469 C 258.226562 163.074219 257.414062 163.386719 256.851562 163.386719 C 255.851562 163.386719 255.570312 162.292969 255.570312 161.511719 C 255.570312 160.511719 256.195312 158.074219 256.664062 157.136719 C 257.289062 155.980469 258.164062 155.230469 258.976562 155.230469 C 260.257812 155.230469 260.539062 156.855469 260.539062 156.980469 C 260.539062 157.105469 260.507812 157.230469 260.476562 157.324219 Z M 259.507812 161.230469 "/>
<path style=" stroke:none;fill-rule:nonzero;fill:rgb(0%,0%,0%);fill-opacity:1;" d="M 326.75 96.421875 C 326.75 96.421875 326.75 96.203125 326.5 96.203125 C 326.0625 96.203125 324.59375 96.359375 324.0625 96.421875 C 323.90625 96.421875 323.6875 96.453125 323.6875 96.796875 C 323.6875 97.046875 323.875 97.046875 324.1875 97.046875 C 325.125 97.046875 325.15625 97.171875 325.15625 97.390625 C 325.15625 97.515625 325 98.203125 324.90625 98.609375 L 323.25 105.109375 C 323.03125 106.109375 322.9375 106.453125 322.9375 107.140625 C 322.9375 109.015625 324 110.265625 325.46875 110.265625 C 327.8125 110.265625 330.28125 107.296875 330.28125 104.421875 C 330.28125 102.609375 329.21875 101.234375 327.625 101.234375 C 326.71875 101.234375 325.875 101.828125 325.28125 102.421875 Z M 324.90625 103.953125 C 325 103.515625 325 103.484375 325.1875 103.265625 C 326.15625 101.984375 327.0625 101.671875 327.59375 101.671875 C 328.3125 101.671875 328.84375 102.265625 328.84375 103.546875 C 328.84375 104.734375 328.1875 107.015625 327.8125 107.765625 C 327.15625 109.109375 326.25 109.828125 325.46875 109.828125 C 324.78125 109.828125 324.125 109.296875 324.125 107.828125 C 324.125 107.421875 324.125 107.046875 324.4375 105.796875 Z M 324.90625 103.953125 "/>
<path style=" stroke:none;fill-rule:nonzero;fill:rgb(0%,0%,0%);fill-opacity:1;" d="M 279.199219 51.4375 C 279.199219 51.4375 279.199219 51.21875 278.949219 51.21875 C 278.511719 51.21875 277.042969 51.375 276.511719 51.4375 C 276.355469 51.4375 276.136719 51.46875 276.136719 51.8125 C 276.136719 52.0625 276.324219 52.0625 276.636719 52.0625 C 277.574219 52.0625 277.605469 52.1875 277.605469 52.40625 C 277.605469 52.53125 277.449219 53.21875 277.355469 53.625 L 275.699219 60.125 C 275.480469 61.125 275.386719 61.46875 275.386719 62.15625 C 275.386719 64.03125 276.449219 65.28125 277.917969 65.28125 C 280.261719 65.28125 282.730469 62.3125 282.730469 59.4375 C 282.730469 57.625 281.667969 56.25 280.074219 56.25 C 279.167969 56.25 278.324219 56.84375 277.730469 57.4375 Z M 277.355469 58.96875 C 277.449219 58.53125 277.449219 58.5 277.636719 58.28125 C 278.605469 57 279.511719 56.6875 280.042969 56.6875 C 280.761719 56.6875 281.292969 57.28125 281.292969 58.5625 C 281.292969 59.75 280.636719 62.03125 280.261719 62.78125 C 279.605469 64.125 278.699219 64.84375 277.917969 64.84375 C 277.230469 64.84375 276.574219 64.3125 276.574219 62.84375 C 276.574219 62.4375 276.574219 62.0625 276.886719 60.8125 Z M 277.355469 58.96875 "/>
<path style=" stroke:none;fill-rule:nonzero;fill:rgb(0%,0%,0%);fill-opacity:1;" d="M 483.089844 50.527344 C 482.746094 50.527344 482.496094 50.527344 482.214844 50.777344 C 481.871094 51.089844 481.839844 51.433594 481.839844 51.558594 C 481.839844 52.058594 482.214844 52.277344 482.589844 52.277344 C 483.152344 52.277344 483.683594 51.777344 483.683594 50.996094 C 483.683594 50.027344 482.746094 49.277344 481.339844 49.277344 C 478.652344 49.277344 475.996094 52.121094 475.996094 54.933594 C 475.996094 56.746094 477.152344 58.308594 479.246094 58.308594 C 482.089844 58.308594 483.746094 56.183594 483.746094 55.964844 C 483.746094 55.839844 483.652344 55.683594 483.527344 55.683594 C 483.402344 55.683594 483.371094 55.746094 483.246094 55.902344 C 481.683594 57.871094 479.496094 57.871094 479.277344 57.871094 C 478.027344 57.871094 477.464844 56.902344 477.464844 55.683594 C 477.464844 54.871094 477.871094 52.933594 478.558594 51.714844 C 479.183594 50.558594 480.277344 49.714844 481.371094 49.714844 C 482.027344 49.714844 482.808594 49.964844 483.089844 50.527344 Z M 483.089844 50.527344 "/>
<path style=" stroke:none;fill-rule:nonzero;fill:rgb(0%,0%,0%);fill-opacity:1;" d="M 467.539062 133.28125 C 467.195312 133.28125 466.945312 133.28125 466.664062 133.53125 C 466.320312 133.84375 466.289062 134.1875 466.289062 134.3125 C 466.289062 134.8125 466.664062 135.03125 467.039062 135.03125 C 467.601562 135.03125 468.132812 134.53125 468.132812 133.75 C 468.132812 132.78125 467.195312 132.03125 465.789062 132.03125 C 463.101562 132.03125 460.445312 134.875 460.445312 137.6875 C 460.445312 139.5 461.601562 141.0625 463.695312 141.0625 C 466.539062 141.0625 468.195312 138.9375 468.195312 138.71875 C 468.195312 138.59375 468.101562 138.4375 467.976562 138.4375 C 467.851562 138.4375 467.820312 138.5 467.695312 138.65625 C 466.132812 140.625 463.945312 140.625 463.726562 140.625 C 462.476562 140.625 461.914062 139.65625 461.914062 138.4375 C 461.914062 137.625 462.320312 135.6875 463.007812 134.46875 C 463.632812 133.3125 464.726562 132.46875 465.820312 132.46875 C 466.476562 132.46875 467.257812 132.71875 467.539062 133.28125 Z M 467.539062 133.28125 "/>
<path style=" stroke:none;fill-rule:nonzero;fill:rgb(0%,0%,0%);fill-opacity:1;" d="M 552.339844 147.679688 C 551.996094 147.679688 551.746094 147.679688 551.464844 147.929688 C 551.121094 148.242188 551.089844 148.585938 551.089844 148.710938 C 551.089844 149.210938 551.464844 149.429688 551.839844 149.429688 C 552.402344 149.429688 552.933594 148.929688 552.933594 148.148438 C 552.933594 147.179688 551.996094 146.429688 550.589844 146.429688 C 547.902344 146.429688 545.246094 149.273438 545.246094 152.085938 C 545.246094 153.898438 546.402344 155.460938 548.496094 155.460938 C 551.339844 155.460938 552.996094 153.335938 552.996094 153.117188 C 552.996094 152.992188 552.902344 152.835938 552.777344 152.835938 C 552.652344 152.835938 552.621094 152.898438 552.496094 153.054688 C 550.933594 155.023438 548.746094 155.023438 548.527344 155.023438 C 547.277344 155.023438 546.714844 154.054688 546.714844 152.835938 C 546.714844 152.023438 547.121094 150.085938 547.808594 148.867188 C 548.433594 147.710938 549.527344 146.867188 550.621094 146.867188 C 551.277344 146.867188 552.058594 147.117188 552.339844 147.679688 Z M 552.339844 147.679688 "/>
<path style=" stroke:none;fill-rule:nonzero;fill:rgb(0%,0%,0%);fill-opacity:1;" d="M 566.738281 62.882812 C 566.394531 62.882812 566.144531 62.882812 565.863281 63.132812 C 565.519531 63.445312 565.488281 63.789062 565.488281 63.914062 C 565.488281 64.414062 565.863281 64.632812 566.238281 64.632812 C 566.800781 64.632812 567.332031 64.132812 567.332031 63.351562 C 567.332031 62.382812 566.394531 61.632812 564.988281 61.632812 C 562.300781 61.632812 559.644531 64.476562 559.644531 67.289062 C 559.644531 69.101562 560.800781 70.664062 562.894531 70.664062 C 565.738281 70.664062 567.394531 68.539062 567.394531 68.320312 C 567.394531 68.195312 567.300781 68.039062 567.175781 68.039062 C 567.050781 68.039062 567.019531 68.101562 566.894531 68.257812 C 565.332031 70.226562 563.144531 70.226562 562.925781 70.226562 C 561.675781 70.226562 561.113281 69.257812 561.113281 68.039062 C 561.113281 67.226562 561.519531 65.289062 562.207031 64.070312 C 562.832031 62.914062 563.925781 62.070312 565.019531 62.070312 C 565.675781 62.070312 566.457031 62.320312 566.738281 62.882812 Z M 566.738281 62.882812 "/>
<path style=" stroke:none;fill-rule:nonzero;fill:rgb(0%,0%,0%);fill-opacity:1;" d="M 205.566406 218.519531 C 205.910156 217.519531 206.535156 217.238281 207.253906 217.238281 L 207.253906 216.613281 C 206.785156 216.644531 206.222656 216.675781 205.785156 216.675781 C 205.191406 216.675781 204.316406 216.644531 203.941406 216.613281 L 203.941406 217.238281 C 204.660156 217.238281 205.097656 217.613281 205.097656 218.175781 C 205.097656 218.300781 205.097656 218.363281 204.972656 218.613281 L 203.160156 223.707031 L 201.191406 218.144531 C 201.128906 217.894531 201.097656 217.863281 201.097656 217.769531 C 201.097656 217.238281 201.878906 217.238281 202.285156 217.238281 L 202.285156 216.613281 C 201.691406 216.644531 200.691406 216.675781 200.191406 216.675781 C 199.597656 216.675781 199.035156 216.644531 198.441406 216.613281 L 198.441406 217.238281 C 199.160156 217.238281 199.472656 217.269531 199.691406 217.519531 C 199.785156 217.644531 200.003906 218.238281 200.128906 218.613281 L 198.441406 223.457031 L 196.535156 218.144531 C 196.441406 217.894531 196.441406 217.863281 196.441406 217.769531 C 196.441406 217.238281 197.222656 217.238281 197.597656 217.238281 L 197.597656 216.613281 C 197.003906 216.644531 195.878906 216.675781 195.441406 216.675781 C 195.347656 216.675781 194.285156 216.644531 193.566406 216.613281 L 193.566406 217.238281 C 194.566406 217.238281 194.816406 217.300781 195.066406 217.925781 L 197.566406 224.988281 C 197.660156 225.269531 197.722656 225.425781 197.972656 225.425781 C 198.253906 225.425781 198.285156 225.300781 198.378906 225.019531 L 200.410156 219.394531 L 202.441406 225.050781 C 202.503906 225.269531 202.566406 225.425781 202.847656 225.425781 C 203.097656 225.425781 203.160156 225.238281 203.222656 225.050781 Z M 205.566406 218.519531 "/>
<path style=" stroke:none;fill-rule:nonzero;fill:rgb(0%,0%,0%);fill-opacity:1;" d="M 209.800781 223.707031 C 209.800781 224.582031 209.582031 224.582031 208.238281 224.582031 L 208.238281 225.207031 C 208.957031 225.175781 209.957031 225.144531 210.519531 225.144531 C 211.019531 225.144531 212.050781 225.175781 212.738281 225.207031 L 212.738281 224.582031 C 211.394531 224.582031 211.175781 224.582031 211.175781 223.707031 L 211.175781 220.019531 C 211.175781 217.957031 212.613281 216.832031 213.863281 216.832031 C 215.144531 216.832031 215.363281 217.894531 215.363281 219.050781 L 215.363281 223.707031 C 215.363281 224.582031 215.144531 224.582031 213.800781 224.582031 L 213.800781 225.207031 C 214.488281 225.175781 215.519531 225.144531 216.050781 225.144531 C 216.550781 225.144531 217.613281 225.175781 218.269531 225.207031 L 218.269531 224.582031 C 217.238281 224.582031 216.738281 224.582031 216.738281 223.988281 L 216.738281 220.175781 C 216.738281 218.457031 216.738281 217.863281 216.113281 217.144531 C 215.832031 216.800781 215.175781 216.394531 214.019531 216.394531 C 212.332031 216.394531 211.457031 217.582031 211.113281 218.363281 L 211.113281 211.363281 L 208.238281 211.582031 L 208.238281 212.207031 C 209.644531 212.207031 209.800781 212.332031 209.800781 213.332031 Z M 209.800781 223.707031 "/>
<path style=" stroke:none;fill-rule:nonzero;fill:rgb(0%,0%,0%);fill-opacity:1;" d="M 222.214844 216.394531 L 219.433594 216.613281 L 219.433594 217.238281 C 220.714844 217.238281 220.902344 217.363281 220.902344 218.332031 L 220.902344 223.707031 C 220.902344 224.582031 220.683594 224.582031 219.339844 224.582031 L 219.339844 225.207031 C 219.964844 225.175781 221.058594 225.144531 221.527344 225.144531 C 222.246094 225.144531 222.933594 225.175781 223.621094 225.207031 L 223.621094 224.582031 C 222.277344 224.582031 222.214844 224.488281 222.214844 223.707031 Z M 222.277344 212.925781 C 222.277344 212.300781 221.808594 211.863281 221.246094 211.863281 C 220.621094 211.863281 220.183594 212.394531 220.183594 212.925781 C 220.183594 213.457031 220.621094 213.988281 221.246094 213.988281 C 221.808594 213.988281 222.277344 213.550781 222.277344 212.925781 Z M 222.277344 212.925781 "/>
<path style=" stroke:none;fill-rule:nonzero;fill:rgb(0%,0%,0%);fill-opacity:1;" d="M 227.65625 217.238281 L 230.53125 217.238281 L 230.53125 216.613281 L 227.65625 216.613281 L 227.65625 212.957031 L 227.15625 212.957031 C 227.15625 214.582031 226.5625 216.707031 224.59375 216.800781 L 224.59375 217.238281 L 226.28125 217.238281 L 226.28125 222.738281 C 226.28125 225.175781 228.15625 225.425781 228.875 225.425781 C 230.28125 225.425781 230.84375 224.019531 230.84375 222.738281 L 230.84375 221.613281 L 230.34375 221.613281 L 230.34375 222.707031 C 230.34375 224.175781 229.75 224.925781 229 224.925781 C 227.65625 224.925781 227.65625 223.113281 227.65625 222.769531 Z M 227.65625 217.238281 "/>
<path style=" stroke:none;fill-rule:nonzero;fill:rgb(0%,0%,0%);fill-opacity:1;" d="M 234.1875 220.175781 C 234.3125 217.207031 236 216.707031 236.6875 216.707031 C 238.71875 216.707031 238.9375 219.394531 238.9375 220.175781 Z M 234.1875 220.613281 L 239.75 220.613281 C 240.1875 220.613281 240.25 220.613281 240.25 220.175781 C 240.25 218.207031 239.15625 216.269531 236.6875 216.269531 C 234.375 216.269531 232.53125 218.332031 232.53125 220.832031 C 232.53125 223.488281 234.625 225.425781 236.90625 225.425781 C 239.34375 225.425781 240.25 223.207031 240.25 222.832031 C 240.25 222.644531 240.09375 222.582031 239.96875 222.582031 C 239.8125 222.582031 239.75 222.707031 239.71875 222.863281 C 239.03125 224.925781 237.21875 224.925781 237.03125 224.925781 C 236.03125 224.925781 235.25 224.332031 234.78125 223.582031 C 234.1875 222.644531 234.1875 221.332031 234.1875 220.613281 Z M 234.1875 220.613281 "/>
<path style=" stroke:none;fill-rule:nonzero;fill:rgb(0%,0%,0%);fill-opacity:1;" d="M 254.082031 223.707031 C 254.175781 224.488281 254.707031 225.332031 255.644531 225.332031 C 256.082031 225.332031 257.300781 225.050781 257.300781 223.425781 L 257.300781 222.300781 L 256.800781 222.300781 L 256.800781 223.425781 C 256.800781 224.582031 256.300781 224.707031 256.082031 224.707031 C 255.425781 224.707031 255.332031 223.800781 255.332031 223.707031 L 255.332031 219.738281 C 255.332031 218.894531 255.332031 218.113281 254.613281 217.363281 C 253.832031 216.582031 252.832031 216.269531 251.894531 216.269531 C 250.238281 216.269531 248.863281 217.207031 248.863281 218.519531 C 248.863281 219.113281 249.269531 219.457031 249.800781 219.457031 C 250.363281 219.457031 250.707031 219.050781 250.707031 218.550781 C 250.707031 218.300781 250.613281 217.644531 249.675781 217.644531 C 250.238281 216.925781 251.207031 216.707031 251.832031 216.707031 C 252.832031 216.707031 253.957031 217.488281 253.957031 219.269531 L 253.957031 219.988281 C 252.925781 220.050781 251.550781 220.113281 250.300781 220.707031 C 248.800781 221.394531 248.300781 222.425781 248.300781 223.300781 C 248.300781 224.925781 250.238281 225.425781 251.488281 225.425781 C 252.800781 225.425781 253.707031 224.613281 254.082031 223.707031 Z M 253.957031 220.425781 L 253.957031 222.425781 C 253.957031 224.300781 252.519531 224.988281 251.613281 224.988281 C 250.644531 224.988281 249.832031 224.300781 249.832031 223.300781 C 249.832031 222.207031 250.675781 220.550781 253.957031 220.425781 Z M 253.957031 220.425781 "/>
<path style=" stroke:none;fill-rule:nonzero;fill:rgb(0%,0%,0%);fill-opacity:1;" d="M 260.765625 218.582031 L 260.765625 216.394531 L 257.984375 216.613281 L 257.984375 217.238281 C 259.390625 217.238281 259.546875 217.363281 259.546875 218.363281 L 259.546875 223.707031 C 259.546875 224.582031 259.328125 224.582031 257.984375 224.582031 L 257.984375 225.207031 C 258.765625 225.175781 259.703125 225.144531 260.265625 225.144531 C 261.046875 225.144531 261.984375 225.144531 262.796875 225.207031 L 262.796875 224.582031 L 262.359375 224.582031 C 260.890625 224.582031 260.859375 224.363281 260.859375 223.644531 L 260.859375 220.582031 C 260.859375 218.613281 261.703125 216.832031 263.203125 216.832031 C 263.328125 216.832031 263.390625 216.832031 263.421875 216.863281 C 263.359375 216.863281 262.953125 217.113281 262.953125 217.644531 C 262.953125 218.175781 263.390625 218.488281 263.828125 218.488281 C 264.171875 218.488281 264.671875 218.238281 264.671875 217.613281 C 264.671875 216.988281 264.046875 216.394531 263.203125 216.394531 C 261.734375 216.394531 261.015625 217.738281 260.765625 218.582031 Z M 260.765625 218.582031 "/>
<path style=" stroke:none;fill-rule:nonzero;fill:rgb(0%,0%,0%);fill-opacity:1;" d="M 267.445312 220.175781 C 267.570312 217.207031 269.257812 216.707031 269.945312 216.707031 C 271.976562 216.707031 272.195312 219.394531 272.195312 220.175781 Z M 267.445312 220.613281 L 273.007812 220.613281 C 273.445312 220.613281 273.507812 220.613281 273.507812 220.175781 C 273.507812 218.207031 272.414062 216.269531 269.945312 216.269531 C 267.632812 216.269531 265.789062 218.332031 265.789062 220.832031 C 265.789062 223.488281 267.882812 225.425781 270.164062 225.425781 C 272.601562 225.425781 273.507812 223.207031 273.507812 222.832031 C 273.507812 222.644531 273.351562 222.582031 273.226562 222.582031 C 273.070312 222.582031 273.007812 222.707031 272.976562 222.863281 C 272.289062 224.925781 270.476562 224.925781 270.289062 224.925781 C 269.289062 224.925781 268.507812 224.332031 268.039062 223.582031 C 267.445312 222.644531 267.445312 221.332031 267.445312 220.613281 Z M 267.445312 220.613281 "/>
<path style=" stroke:none;fill-rule:nonzero;fill:rgb(0%,0%,0%);fill-opacity:1;" d="M 280.703125 223.707031 C 280.796875 224.488281 281.328125 225.332031 282.265625 225.332031 C 282.703125 225.332031 283.921875 225.050781 283.921875 223.425781 L 283.921875 222.300781 L 283.421875 222.300781 L 283.421875 223.425781 C 283.421875 224.582031 282.921875 224.707031 282.703125 224.707031 C 282.046875 224.707031 281.953125 223.800781 281.953125 223.707031 L 281.953125 219.738281 C 281.953125 218.894531 281.953125 218.113281 281.234375 217.363281 C 280.453125 216.582031 279.453125 216.269531 278.515625 216.269531 C 276.859375 216.269531 275.484375 217.207031 275.484375 218.519531 C 275.484375 219.113281 275.890625 219.457031 276.421875 219.457031 C 276.984375 219.457031 277.328125 219.050781 277.328125 218.550781 C 277.328125 218.300781 277.234375 217.644531 276.296875 217.644531 C 276.859375 216.925781 277.828125 216.707031 278.453125 216.707031 C 279.453125 216.707031 280.578125 217.488281 280.578125 219.269531 L 280.578125 219.988281 C 279.546875 220.050781 278.171875 220.113281 276.921875 220.707031 C 275.421875 221.394531 274.921875 222.425781 274.921875 223.300781 C 274.921875 224.925781 276.859375 225.425781 278.109375 225.425781 C 279.421875 225.425781 280.328125 224.613281 280.703125 223.707031 Z M 280.578125 220.425781 L 280.578125 222.425781 C 280.578125 224.300781 279.140625 224.988281 278.234375 224.988281 C 277.265625 224.988281 276.453125 224.300781 276.453125 223.300781 C 276.453125 222.207031 277.296875 220.550781 280.578125 220.425781 Z M 280.578125 220.425781 "/>
<path style=" stroke:none;fill-rule:nonzero;fill:rgb(0%,0%,0%);fill-opacity:1;" d="M 304.386719 218.675781 C 304.699219 218.675781 305.074219 218.675781 305.074219 218.300781 C 305.074219 217.894531 304.699219 217.894531 304.417969 217.894531 L 292.480469 217.894531 C 292.199219 217.894531 291.824219 217.894531 291.824219 218.300781 C 291.824219 218.675781 292.199219 218.675781 292.480469 218.675781 Z M 304.417969 222.550781 C 304.699219 222.550781 305.074219 222.550781 305.074219 222.144531 C 305.074219 221.769531 304.699219 221.769531 304.386719 221.769531 L 292.480469 221.769531 C 292.199219 221.769531 291.824219 221.769531 291.824219 222.144531 C 291.824219 222.550781 292.199219 222.550781 292.480469 222.550781 Z M 304.417969 222.550781 "/>
<path style=" stroke:none;fill-rule:nonzero;fill:rgb(0%,0%,0%);fill-opacity:1;" d="M 320.269531 217.675781 C 319.894531 216.925781 319.332031 216.394531 318.425781 216.394531 C 316.113281 216.394531 313.644531 219.332031 313.644531 222.238281 C 313.644531 224.113281 314.738281 225.425781 316.269531 225.425781 C 316.675781 225.425781 317.675781 225.332031 318.863281 223.925781 C 319.019531 224.769531 319.738281 225.425781 320.675781 225.425781 C 321.394531 225.425781 321.832031 224.957031 322.175781 224.332031 C 322.488281 223.613281 322.769531 222.394531 322.769531 222.363281 C 322.769531 222.144531 322.582031 222.144531 322.519531 222.144531 C 322.332031 222.144531 322.300781 222.238281 322.238281 222.519531 C 321.894531 223.800781 321.550781 224.988281 320.738281 224.988281 C 320.175781 224.988281 320.144531 224.457031 320.144531 224.082031 C 320.144531 223.644531 320.175781 223.457031 320.394531 222.582031 C 320.613281 221.769531 320.644531 221.550781 320.832031 220.800781 L 321.550781 218.019531 C 321.675781 217.457031 321.675781 217.425781 321.675781 217.332031 C 321.675781 216.988281 321.457031 216.800781 321.113281 216.800781 C 320.613281 216.800781 320.332031 217.238281 320.269531 217.675781 Z M 318.988281 222.832031 C 318.863281 223.207031 318.863281 223.238281 318.582031 223.582031 C 317.707031 224.675781 316.894531 224.988281 316.332031 224.988281 C 315.332031 224.988281 315.050781 223.894531 315.050781 223.113281 C 315.050781 222.113281 315.675781 219.675781 316.144531 218.738281 C 316.769531 217.582031 317.644531 216.832031 318.457031 216.832031 C 319.738281 216.832031 320.019531 218.457031 320.019531 218.582031 C 320.019531 218.707031 319.988281 218.832031 319.957031 218.925781 Z M 318.988281 222.832031 "/>
<path style=" stroke:none;fill-rule:nonzero;fill:rgb(0%,0%,0%);fill-opacity:1;" d="M 330.394531 215.445312 L 329.925781 215.445312 C 329.894531 215.757812 329.738281 216.570312 329.550781 216.695312 C 329.457031 216.789062 328.394531 216.789062 328.175781 216.789062 L 325.613281 216.789062 C 327.082031 215.507812 327.582031 215.101562 328.394531 214.445312 C 329.425781 213.632812 330.394531 212.757812 330.394531 211.445312 C 330.394531 209.757812 328.925781 208.726562 327.144531 208.726562 C 325.425781 208.726562 324.238281 209.945312 324.238281 211.226562 C 324.238281 211.914062 324.832031 212.007812 324.988281 212.007812 C 325.300781 212.007812 325.707031 211.757812 325.707031 211.257812 C 325.707031 211.007812 325.613281 210.507812 324.894531 210.507812 C 325.332031 209.539062 326.269531 209.226562 326.925781 209.226562 C 328.332031 209.226562 329.050781 210.320312 329.050781 211.445312 C 329.050781 212.664062 328.175781 213.601562 327.738281 214.101562 L 324.394531 217.445312 C 324.238281 217.570312 324.238281 217.601562 324.238281 217.976562 L 329.988281 217.976562 Z M 330.394531 215.445312 "/>
<g clip-path="url(#clip3)" clip-rule="nonzero">
<path style=" stroke:none;fill-rule:nonzero;fill:rgb(0%,0%,0%);fill-opacity:1;" d="M 344.886719 220.613281 L 350.449219 220.613281 C 350.730469 220.613281 351.105469 220.613281 351.105469 220.207031 C 351.105469 219.832031 350.730469 219.832031 350.449219 219.832031 L 344.886719 219.832031 L 344.886719 214.238281 C 344.886719 213.957031 344.886719 213.582031 344.480469 213.582031 C 344.074219 213.582031 344.074219 213.957031 344.074219 214.238281 L 344.074219 219.832031 L 338.511719 219.832031 C 338.230469 219.832031 337.855469 219.832031 337.855469 220.207031 C 337.855469 220.613281 338.230469 220.613281 338.511719 220.613281 L 344.074219 220.613281 L 344.074219 226.207031 C 344.074219 226.488281 344.074219 226.863281 344.480469 226.863281 C 344.886719 226.863281 344.886719 226.488281 344.886719 226.207031 Z M 344.886719 220.613281 "/>
</g>
<path style=" stroke:none;fill-rule:nonzero;fill:rgb(0%,0%,0%);fill-opacity:1;" d="M 361.40625 211.582031 C 361.40625 211.582031 361.40625 211.363281 361.15625 211.363281 C 360.71875 211.363281 359.25 211.519531 358.71875 211.582031 C 358.5625 211.582031 358.34375 211.613281 358.34375 211.957031 C 358.34375 212.207031 358.53125 212.207031 358.84375 212.207031 C 359.78125 212.207031 359.8125 212.332031 359.8125 212.550781 C 359.8125 212.675781 359.65625 213.363281 359.5625 213.769531 L 357.90625 220.269531 C 357.6875 221.269531 357.59375 221.613281 357.59375 222.300781 C 357.59375 224.175781 358.65625 225.425781 360.125 225.425781 C 362.46875 225.425781 364.9375 222.457031 364.9375 219.582031 C 364.9375 217.769531 363.875 216.394531 362.28125 216.394531 C 361.375 216.394531 360.53125 216.988281 359.9375 217.582031 Z M 359.5625 219.113281 C 359.65625 218.675781 359.65625 218.644531 359.84375 218.425781 C 360.8125 217.144531 361.71875 216.832031 362.25 216.832031 C 362.96875 216.832031 363.5 217.425781 363.5 218.707031 C 363.5 219.894531 362.84375 222.175781 362.46875 222.925781 C 361.8125 224.269531 360.90625 224.988281 360.125 224.988281 C 359.4375 224.988281 358.78125 224.457031 358.78125 222.988281 C 358.78125 222.582031 358.78125 222.207031 359.09375 220.957031 Z M 359.5625 219.113281 "/>
<path style=" stroke:none;fill-rule:nonzero;fill:rgb(0%,0%,0%);fill-opacity:1;" d="M 372.238281 215.445312 L 371.769531 215.445312 C 371.738281 215.757812 371.582031 216.570312 371.394531 216.695312 C 371.300781 216.789062 370.238281 216.789062 370.019531 216.789062 L 367.457031 216.789062 C 368.925781 215.507812 369.425781 215.101562 370.238281 214.445312 C 371.269531 213.632812 372.238281 212.757812 372.238281 211.445312 C 372.238281 209.757812 370.769531 208.726562 368.988281 208.726562 C 367.269531 208.726562 366.082031 209.945312 366.082031 211.226562 C 366.082031 211.914062 366.675781 212.007812 366.832031 212.007812 C 367.144531 212.007812 367.550781 211.757812 367.550781 211.257812 C 367.550781 211.007812 367.457031 210.507812 366.738281 210.507812 C 367.175781 209.539062 368.113281 209.226562 368.769531 209.226562 C 370.175781 209.226562 370.894531 210.320312 370.894531 211.445312 C 370.894531 212.664062 370.019531 213.601562 369.582031 214.101562 L 366.238281 217.445312 C 366.082031 217.570312 366.082031 217.601562 366.082031 217.976562 L 371.832031 217.976562 Z M 372.238281 215.445312 "/>
<path style=" stroke:none;fill-rule:nonzero;fill:rgb(0%,0%,0%);fill-opacity:1;" d="M 458.367188 218.519531 C 458.710938 217.519531 459.335938 217.238281 460.054688 217.238281 L 460.054688 216.613281 C 459.585938 216.644531 459.023438 216.675781 458.585938 216.675781 C 457.992188 216.675781 457.117188 216.644531 456.742188 216.613281 L 456.742188 217.238281 C 457.460938 217.238281 457.898438 217.613281 457.898438 218.175781 C 457.898438 218.300781 457.898438 218.363281 457.773438 218.613281 L 455.960938 223.707031 L 453.992188 218.144531 C 453.929688 217.894531 453.898438 217.863281 453.898438 217.769531 C 453.898438 217.238281 454.679688 217.238281 455.085938 217.238281 L 455.085938 216.613281 C 454.492188 216.644531 453.492188 216.675781 452.992188 216.675781 C 452.398438 216.675781 451.835938 216.644531 451.242188 216.613281 L 451.242188 217.238281 C 451.960938 217.238281 452.273438 217.269531 452.492188 217.519531 C 452.585938 217.644531 452.804688 218.238281 452.929688 218.613281 L 451.242188 223.457031 L 449.335938 218.144531 C 449.242188 217.894531 449.242188 217.863281 449.242188 217.769531 C 449.242188 217.238281 450.023438 217.238281 450.398438 217.238281 L 450.398438 216.613281 C 449.804688 216.644531 448.679688 216.675781 448.242188 216.675781 C 448.148438 216.675781 447.085938 216.644531 446.367188 216.613281 L 446.367188 217.238281 C 447.367188 217.238281 447.617188 217.300781 447.867188 217.925781 L 450.367188 224.988281 C 450.460938 225.269531 450.523438 225.425781 450.773438 225.425781 C 451.054688 225.425781 451.085938 225.300781 451.179688 225.019531 L 453.210938 219.394531 L 455.242188 225.050781 C 455.304688 225.269531 455.367188 225.425781 455.648438 225.425781 C 455.898438 225.425781 455.960938 225.238281 456.023438 225.050781 Z M 458.367188 218.519531 "/>
<path style=" stroke:none;fill-rule:nonzero;fill:rgb(0%,0%,0%);fill-opacity:1;" d="M 462.601562 223.707031 C 462.601562 224.582031 462.382812 224.582031 461.039062 224.582031 L 461.039062 225.207031 C 461.757812 225.175781 462.757812 225.144531 463.320312 225.144531 C 463.820312 225.144531 464.851562 225.175781 465.539062 225.207031 L 465.539062 224.582031 C 464.195312 224.582031 463.976562 224.582031 463.976562 223.707031 L 463.976562 220.019531 C 463.976562 217.957031 465.414062 216.832031 466.664062 216.832031 C 467.945312 216.832031 468.164062 217.894531 468.164062 219.050781 L 468.164062 223.707031 C 468.164062 224.582031 467.945312 224.582031 466.601562 224.582031 L 466.601562 225.207031 C 467.289062 225.175781 468.320312 225.144531 468.851562 225.144531 C 469.351562 225.144531 470.414062 225.175781 471.070312 225.207031 L 471.070312 224.582031 C 470.039062 224.582031 469.539062 224.582031 469.539062 223.988281 L 469.539062 220.175781 C 469.539062 218.457031 469.539062 217.863281 468.914062 217.144531 C 468.632812 216.800781 467.976562 216.394531 466.820312 216.394531 C 465.132812 216.394531 464.257812 217.582031 463.914062 218.363281 L 463.914062 211.363281 L 461.039062 211.582031 L 461.039062 212.207031 C 462.445312 212.207031 462.601562 212.332031 462.601562 213.332031 Z M 462.601562 223.707031 "/>
<path style=" stroke:none;fill-rule:nonzero;fill:rgb(0%,0%,0%);fill-opacity:1;" d="M 475.015625 216.394531 L 472.234375 216.613281 L 472.234375 217.238281 C 473.515625 217.238281 473.703125 217.363281 473.703125 218.332031 L 473.703125 223.707031 C 473.703125 224.582031 473.484375 224.582031 472.140625 224.582031 L 472.140625 225.207031 C 472.765625 225.175781 473.859375 225.144531 474.328125 225.144531 C 475.046875 225.144531 475.734375 225.175781 476.421875 225.207031 L 476.421875 224.582031 C 475.078125 224.582031 475.015625 224.488281 475.015625 223.707031 Z M 475.078125 212.925781 C 475.078125 212.300781 474.609375 211.863281 474.046875 211.863281 C 473.421875 211.863281 472.984375 212.394531 472.984375 212.925781 C 472.984375 213.457031 473.421875 213.988281 474.046875 213.988281 C 474.609375 213.988281 475.078125 213.550781 475.078125 212.925781 Z M 475.078125 212.925781 "/>
<path style=" stroke:none;fill-rule:nonzero;fill:rgb(0%,0%,0%);fill-opacity:1;" d="M 480.457031 217.238281 L 483.332031 217.238281 L 483.332031 216.613281 L 480.457031 216.613281 L 480.457031 212.957031 L 479.957031 212.957031 C 479.957031 214.582031 479.363281 216.707031 477.394531 216.800781 L 477.394531 217.238281 L 479.082031 217.238281 L 479.082031 222.738281 C 479.082031 225.175781 480.957031 225.425781 481.675781 225.425781 C 483.082031 225.425781 483.644531 224.019531 483.644531 222.738281 L 483.644531 221.613281 L 483.144531 221.613281 L 483.144531 222.707031 C 483.144531 224.175781 482.550781 224.925781 481.800781 224.925781 C 480.457031 224.925781 480.457031 223.113281 480.457031 222.769531 Z M 480.457031 217.238281 "/>
<path style=" stroke:none;fill-rule:nonzero;fill:rgb(0%,0%,0%);fill-opacity:1;" d="M 486.988281 220.175781 C 487.113281 217.207031 488.800781 216.707031 489.488281 216.707031 C 491.519531 216.707031 491.738281 219.394531 491.738281 220.175781 Z M 486.988281 220.613281 L 492.550781 220.613281 C 492.988281 220.613281 493.050781 220.613281 493.050781 220.175781 C 493.050781 218.207031 491.957031 216.269531 489.488281 216.269531 C 487.175781 216.269531 485.332031 218.332031 485.332031 220.832031 C 485.332031 223.488281 487.425781 225.425781 489.707031 225.425781 C 492.144531 225.425781 493.050781 223.207031 493.050781 222.832031 C 493.050781 222.644531 492.894531 222.582031 492.769531 222.582031 C 492.613281 222.582031 492.550781 222.707031 492.519531 222.863281 C 491.832031 224.925781 490.019531 224.925781 489.832031 224.925781 C 488.832031 224.925781 488.050781 224.332031 487.582031 223.582031 C 486.988281 222.644531 486.988281 221.332031 486.988281 220.613281 Z M 486.988281 220.613281 "/>
<path style=" stroke:none;fill-rule:nonzero;fill:rgb(0%,0%,0%);fill-opacity:1;" d="M 506.882812 223.707031 C 506.976562 224.488281 507.507812 225.332031 508.445312 225.332031 C 508.882812 225.332031 510.101562 225.050781 510.101562 223.425781 L 510.101562 222.300781 L 509.601562 222.300781 L 509.601562 223.425781 C 509.601562 224.582031 509.101562 224.707031 508.882812 224.707031 C 508.226562 224.707031 508.132812 223.800781 508.132812 223.707031 L 508.132812 219.738281 C 508.132812 218.894531 508.132812 218.113281 507.414062 217.363281 C 506.632812 216.582031 505.632812 216.269531 504.695312 216.269531 C 503.039062 216.269531 501.664062 217.207031 501.664062 218.519531 C 501.664062 219.113281 502.070312 219.457031 502.601562 219.457031 C 503.164062 219.457031 503.507812 219.050781 503.507812 218.550781 C 503.507812 218.300781 503.414062 217.644531 502.476562 217.644531 C 503.039062 216.925781 504.007812 216.707031 504.632812 216.707031 C 505.632812 216.707031 506.757812 217.488281 506.757812 219.269531 L 506.757812 219.988281 C 505.726562 220.050781 504.351562 220.113281 503.101562 220.707031 C 501.601562 221.394531 501.101562 222.425781 501.101562 223.300781 C 501.101562 224.925781 503.039062 225.425781 504.289062 225.425781 C 505.601562 225.425781 506.507812 224.613281 506.882812 223.707031 Z M 506.757812 220.425781 L 506.757812 222.425781 C 506.757812 224.300781 505.320312 224.988281 504.414062 224.988281 C 503.445312 224.988281 502.632812 224.300781 502.632812 223.300781 C 502.632812 222.207031 503.476562 220.550781 506.757812 220.425781 Z M 506.757812 220.425781 "/>
<path style=" stroke:none;fill-rule:nonzero;fill:rgb(0%,0%,0%);fill-opacity:1;" d="M 513.5625 218.582031 L 513.5625 216.394531 L 510.78125 216.613281 L 510.78125 217.238281 C 512.1875 217.238281 512.34375 217.363281 512.34375 218.363281 L 512.34375 223.707031 C 512.34375 224.582031 512.125 224.582031 510.78125 224.582031 L 510.78125 225.207031 C 511.5625 225.175781 512.5 225.144531 513.0625 225.144531 C 513.84375 225.144531 514.78125 225.144531 515.59375 225.207031 L 515.59375 224.582031 L 515.15625 224.582031 C 513.6875 224.582031 513.65625 224.363281 513.65625 223.644531 L 513.65625 220.582031 C 513.65625 218.613281 514.5 216.832031 516 216.832031 C 516.125 216.832031 516.1875 216.832031 516.21875 216.863281 C 516.15625 216.863281 515.75 217.113281 515.75 217.644531 C 515.75 218.175781 516.1875 218.488281 516.625 218.488281 C 516.96875 218.488281 517.46875 218.238281 517.46875 217.613281 C 517.46875 216.988281 516.84375 216.394531 516 216.394531 C 514.53125 216.394531 513.8125 217.738281 513.5625 218.582031 Z M 513.5625 218.582031 "/>
<path style=" stroke:none;fill-rule:nonzero;fill:rgb(0%,0%,0%);fill-opacity:1;" d="M 520.242188 220.175781 C 520.367188 217.207031 522.054688 216.707031 522.742188 216.707031 C 524.773438 216.707031 524.992188 219.394531 524.992188 220.175781 Z M 520.242188 220.613281 L 525.804688 220.613281 C 526.242188 220.613281 526.304688 220.613281 526.304688 220.175781 C 526.304688 218.207031 525.210938 216.269531 522.742188 216.269531 C 520.429688 216.269531 518.585938 218.332031 518.585938 220.832031 C 518.585938 223.488281 520.679688 225.425781 522.960938 225.425781 C 525.398438 225.425781 526.304688 223.207031 526.304688 222.832031 C 526.304688 222.644531 526.148438 222.582031 526.023438 222.582031 C 525.867188 222.582031 525.804688 222.707031 525.773438 222.863281 C 525.085938 224.925781 523.273438 224.925781 523.085938 224.925781 C 522.085938 224.925781 521.304688 224.332031 520.835938 223.582031 C 520.242188 222.644531 520.242188 221.332031 520.242188 220.613281 Z M 520.242188 220.613281 "/>
<path style=" stroke:none;fill-rule:nonzero;fill:rgb(0%,0%,0%);fill-opacity:1;" d="M 533.503906 223.707031 C 533.597656 224.488281 534.128906 225.332031 535.066406 225.332031 C 535.503906 225.332031 536.722656 225.050781 536.722656 223.425781 L 536.722656 222.300781 L 536.222656 222.300781 L 536.222656 223.425781 C 536.222656 224.582031 535.722656 224.707031 535.503906 224.707031 C 534.847656 224.707031 534.753906 223.800781 534.753906 223.707031 L 534.753906 219.738281 C 534.753906 218.894531 534.753906 218.113281 534.035156 217.363281 C 533.253906 216.582031 532.253906 216.269531 531.316406 216.269531 C 529.660156 216.269531 528.285156 217.207031 528.285156 218.519531 C 528.285156 219.113281 528.691406 219.457031 529.222656 219.457031 C 529.785156 219.457031 530.128906 219.050781 530.128906 218.550781 C 530.128906 218.300781 530.035156 217.644531 529.097656 217.644531 C 529.660156 216.925781 530.628906 216.707031 531.253906 216.707031 C 532.253906 216.707031 533.378906 217.488281 533.378906 219.269531 L 533.378906 219.988281 C 532.347656 220.050781 530.972656 220.113281 529.722656 220.707031 C 528.222656 221.394531 527.722656 222.425781 527.722656 223.300781 C 527.722656 224.925781 529.660156 225.425781 530.910156 225.425781 C 532.222656 225.425781 533.128906 224.613281 533.503906 223.707031 Z M 533.378906 220.425781 L 533.378906 222.425781 C 533.378906 224.300781 531.941406 224.988281 531.035156 224.988281 C 530.066406 224.988281 529.253906 224.300781 529.253906 223.300781 C 529.253906 222.207031 530.097656 220.550781 533.378906 220.425781 Z M 533.378906 220.425781 "/>
<path style=" stroke:none;fill-rule:nonzero;fill:rgb(0%,0%,0%);fill-opacity:1;" d="M 557.183594 218.675781 C 557.496094 218.675781 557.871094 218.675781 557.871094 218.300781 C 557.871094 217.894531 557.496094 217.894531 557.214844 217.894531 L 545.277344 217.894531 C 544.996094 217.894531 544.621094 217.894531 544.621094 218.300781 C 544.621094 218.675781 544.996094 218.675781 545.277344 218.675781 Z M 557.214844 222.550781 C 557.496094 222.550781 557.871094 222.550781 557.871094 222.144531 C 557.871094 221.769531 557.496094 221.769531 557.183594 221.769531 L 545.277344 221.769531 C 544.996094 221.769531 544.621094 221.769531 544.621094 222.144531 C 544.621094 222.550781 544.996094 222.550781 545.277344 222.550781 Z M 557.214844 222.550781 "/>
<path style=" stroke:none;fill-rule:nonzero;fill:rgb(0%,0%,0%);fill-opacity:1;" d="M 573.539062 217.644531 C 573.195312 217.644531 572.945312 217.644531 572.664062 217.894531 C 572.320312 218.207031 572.289062 218.550781 572.289062 218.675781 C 572.289062 219.175781 572.664062 219.394531 573.039062 219.394531 C 573.601562 219.394531 574.132812 218.894531 574.132812 218.113281 C 574.132812 217.144531 573.195312 216.394531 571.789062 216.394531 C 569.101562 216.394531 566.445312 219.238281 566.445312 222.050781 C 566.445312 223.863281 567.601562 225.425781 569.695312 225.425781 C 572.539062 225.425781 574.195312 223.300781 574.195312 223.082031 C 574.195312 222.957031 574.101562 222.800781 573.976562 222.800781 C 573.851562 222.800781 573.820312 222.863281 573.695312 223.019531 C 572.132812 224.988281 569.945312 224.988281 569.726562 224.988281 C 568.476562 224.988281 567.914062 224.019531 567.914062 222.800781 C 567.914062 221.988281 568.320312 220.050781 569.007812 218.832031 C 569.632812 217.675781 570.726562 216.832031 571.820312 216.832031 C 572.476562 216.832031 573.257812 217.082031 573.539062 217.644531 Z M 573.539062 217.644531 "/>
<path style=" stroke:none;fill-rule:nonzero;fill:rgb(0%,0%,0%);fill-opacity:1;" d="M 581.285156 215.445312 L 580.816406 215.445312 C 580.785156 215.757812 580.628906 216.570312 580.441406 216.695312 C 580.347656 216.789062 579.285156 216.789062 579.066406 216.789062 L 576.503906 216.789062 C 577.972656 215.507812 578.472656 215.101562 579.285156 214.445312 C 580.316406 213.632812 581.285156 212.757812 581.285156 211.445312 C 581.285156 209.757812 579.816406 208.726562 578.035156 208.726562 C 576.316406 208.726562 575.128906 209.945312 575.128906 211.226562 C 575.128906 211.914062 575.722656 212.007812 575.878906 212.007812 C 576.191406 212.007812 576.597656 211.757812 576.597656 211.257812 C 576.597656 211.007812 576.503906 210.507812 575.785156 210.507812 C 576.222656 209.539062 577.160156 209.226562 577.816406 209.226562 C 579.222656 209.226562 579.941406 210.320312 579.941406 211.445312 C 579.941406 212.664062 579.066406 213.601562 578.628906 214.101562 L 575.285156 217.445312 C 575.128906 217.570312 575.128906 217.601562 575.128906 217.976562 L 580.878906 217.976562 Z M 581.285156 215.445312 "/>
</g>
</svg>
