<?xml version="1.0" encoding="UTF-8"?>
<svg xmlns="http://www.w3.org/2000/svg" xmlns:xlink="http://www.w3.org/1999/xlink" width="386.502045pt" height="177.500809pt" viewBox="0 0 386.502045 177.500809" version="1.1">
<defs>
<clipPath id="clip1">
  <path d="M 0 0 L 183 0 L 183 177.5 L 0 177.5 Z M 0 0 "/>
</clipPath>
<clipPath id="clip2">
  <path d="M 0 0 L 179 0 L 179 177.5 L 0 177.5 Z M 0 0 "/>
</clipPath>
<clipPath id="clip3">
  <path d="M 193 0 L 385 0 L 385 177.5 L 193 177.5 Z M 193 0 "/>
</clipPath>
<clipPath id="clip4">
  <path d="M 197 0 L 380 0 L 380 177.5 L 197 177.5 Z M 197 0 "/>
</clipPath>
<clipPath id="clip5">
  <path d="M 304 0 L 386.503906 0 L 386.503906 104 L 304 104 Z M 304 0 "/>
</clipPath>
<clipPath id="clip6">
  <path d="M 366 36 L 386.503906 36 L 386.503906 94 L 366 94 Z M 366 36 "/>
</clipPath>
<clipPath id="clip7">
  <path d="M 382 84 L 386.503906 84 L 386.503906 90 L 382 90 Z M 382 84 "/>
</clipPath>
<clipPath id="clip8">
  <path d="M 380 81 L 386.503906 81 L 386.503906 93 L 380 93 Z M 380 81 "/>
</clipPath>
</defs>
<g id="surface1">
<path style=" stroke:none;fill-rule:nonzero;fill:rgb(59.999084%,59.999084%,59.999084%);fill-opacity:1;" d="M 318.351562 9.113281 C 352.484375 21.535156 375.199219 53.976562 375.199219 90.300781 L 288.800781 90.300781 Z M 318.351562 9.113281 "/>
<g clip-path="url(#clip1)" clip-rule="nonzero">
<path style="fill:none;stroke-width:1.6;stroke-linecap:butt;stroke-linejoin:miter;stroke:rgb(0%,0%,0%);stroke-opacity:1;stroke-miterlimit:4;" d="M 173.601562 90.300781 C 173.601562 138.019531 134.917969 176.699219 87.199219 176.699219 C 39.484375 176.699219 0.800781 138.019531 0.800781 90.300781 C 0.800781 42.582031 39.484375 3.902344 87.199219 3.902344 C 134.917969 3.902344 173.601562 42.582031 173.601562 90.300781 Z M 173.601562 90.300781 "/>
</g>
<path style=" stroke:none;fill-rule:nonzero;fill:rgb(0%,0%,0%);fill-opacity:1;" d="M 134.972656 93.585938 C 134.972656 93.285156 134.972656 93.265625 134.691406 93.265625 C 133.941406 94.035156 132.890625 94.035156 132.515625 94.035156 L 132.515625 94.410156 C 132.761719 94.410156 133.453125 94.410156 134.074219 94.09375 L 134.074219 100.296875 C 134.074219 100.730469 134.035156 100.859375 132.96875 100.859375 L 132.59375 100.859375 L 132.59375 101.234375 C 133.003906 101.199219 134.035156 101.199219 134.523438 101.199219 C 134.992188 101.199219 136.042969 101.199219 136.453125 101.234375 L 136.453125 100.859375 L 136.078125 100.859375 C 134.992188 100.859375 134.972656 100.730469 134.972656 100.296875 Z M 134.972656 93.585938 "/>
<path style="fill:none;stroke-width:0.8;stroke-linecap:butt;stroke-linejoin:miter;stroke:rgb(100%,0%,0%);stroke-opacity:1;stroke-miterlimit:4;" d="M -116.25 87.496094 C -115.179688 77.570312 -109.050781 68.90625 -100.046875 64.597656 " transform="matrix(-1,0,0,1,0,0)"/>
<path style="fill-rule:evenodd;fill:rgb(100%,0%,0%);fill-opacity:1;stroke-width:0.397706;stroke-linecap:butt;stroke-linejoin:miter;stroke:rgb(100%,0%,0%);stroke-opacity:1;stroke-miterlimit:4;" d="M -95.672149 -105.616136 L -94.081344 -107.205206 L -99.648923 -105.618098 L -94.08308 -104.025332 Z M -95.672149 -105.616136 " transform="matrix(-0.107556,-1,-1,0.107556,0,0)"/>
<path style="fill-rule:evenodd;fill:rgb(100%,0%,0%);fill-opacity:1;stroke-width:0.360803;stroke-linecap:butt;stroke-linejoin:miter;stroke:rgb(100%,0%,0%);stroke-opacity:1;stroke-miterlimit:4;" d="M 109.440956 -13.596151 L 110.886416 -15.041047 L 105.831951 -13.596923 L 110.884195 -12.155391 Z M 109.440956 -13.596151 " transform="matrix(1,0.478618,0.478618,-1,0,0)"/>
<path style=" stroke:none;fill-rule:nonzero;fill:rgb(0%,0%,0%);fill-opacity:1;" d="M 89.585938 90.308594 C 89.585938 91.632812 88.511719 92.707031 87.1875 92.707031 C 85.863281 92.707031 84.789062 91.632812 84.789062 90.308594 C 84.789062 88.980469 85.863281 87.90625 87.1875 87.90625 C 88.511719 87.90625 89.585938 88.980469 89.585938 90.308594 Z M 89.585938 90.308594 "/>
<path style=" stroke:none;fill-rule:nonzero;fill:rgb(0%,0%,0%);fill-opacity:1;" d="M 91.425781 98.425781 C 91.425781 96.492188 90.152344 95.199219 88.371094 95.199219 C 85.800781 95.199219 83.15625 97.917969 83.15625 100.710938 C 83.15625 102.699219 84.507812 103.898438 86.234375 103.898438 C 88.765625 103.898438 91.425781 101.273438 91.425781 98.425781 Z M 86.289062 103.582031 C 85.109375 103.582031 84.28125 102.625 84.28125 101.050781 C 84.28125 100.503906 84.453125 98.761719 85.371094 97.375 C 86.195312 96.117188 87.359375 95.5 88.3125 95.5 C 89.289062 95.5 90.359375 96.175781 90.359375 97.957031 C 90.359375 98.816406 90.039062 100.675781 88.859375 102.15625 C 88.277344 102.886719 87.300781 103.582031 86.289062 103.582031 Z M 86.289062 103.582031 "/>
<g clip-path="url(#clip2)" clip-rule="nonzero">
<path style="fill:none;stroke-width:0.8;stroke-linecap:butt;stroke-linejoin:miter;stroke:rgb(0%,0%,0%);stroke-opacity:1;stroke-miterlimit:4;" d="M 173.601562 90.300781 C 173.601562 128.007812 149.144531 161.363281 113.179688 172.703125 C 77.21875 184.042969 38.054688 170.746094 16.425781 139.859375 C -5.203125 108.96875 -4.300781 67.621094 18.652344 37.703125 C 41.609375 7.789062 81.316406 -3.785156 116.75 9.113281 L 87.199219 90.300781 Z M 173.601562 90.300781 "/>
</g>
<path style="fill:none;stroke-width:2.4;stroke-linecap:butt;stroke-linejoin:miter;stroke:rgb(100%,0%,0%);stroke-opacity:1;stroke-miterlimit:4;" d="M 116.75 9.113281 C 150.882812 21.535156 173.601562 53.976562 173.601562 90.300781 "/>
<path style=" stroke:none;fill-rule:nonzero;fill:rgb(0%,0%,0%);fill-opacity:1;" d="M 104.769531 77.238281 C 104.769531 76.449219 104.5625 74.78125 103.34375 74.78125 C 101.675781 74.78125 99.835938 78.15625 99.835938 80.894531 C 99.835938 82.019531 100.175781 83.347656 101.261719 83.347656 C 102.949219 83.347656 104.769531 79.917969 104.769531 77.238281 Z M 101.09375 78.867188 C 101.300781 78.117188 101.542969 77.160156 102.03125 76.300781 C 102.347656 75.71875 102.78125 75.042969 103.324219 75.042969 C 103.90625 75.042969 103.980469 75.8125 103.980469 76.488281 C 103.980469 77.085938 103.886719 77.6875 103.605469 78.867188 Z M 103.492188 79.261719 C 103.363281 79.804688 103.117188 80.816406 102.648438 81.679688 C 102.238281 82.503906 101.785156 83.085938 101.261719 83.085938 C 100.867188 83.085938 100.625 82.730469 100.625 81.625 C 100.625 81.117188 100.699219 80.425781 101 79.261719 Z M 103.492188 79.261719 "/>
<g clip-path="url(#clip3)" clip-rule="nonzero">
<path style="fill:none;stroke-width:1.6;stroke-linecap:butt;stroke-linejoin:miter;stroke:rgb(0%,0%,0%);stroke-opacity:1;stroke-miterlimit:4;" d="M 375.199219 90.300781 C 375.199219 138.019531 336.515625 176.699219 288.800781 176.699219 C 241.082031 176.699219 202.398438 138.019531 202.398438 90.300781 C 202.398438 42.582031 241.082031 3.902344 288.800781 3.902344 C 336.515625 3.902344 375.199219 42.582031 375.199219 90.300781 Z M 375.199219 90.300781 "/>
</g>
<path style="fill:none;stroke-width:0.8;stroke-linecap:butt;stroke-linejoin:miter;stroke:rgb(100%,0%,0%);stroke-opacity:1;stroke-miterlimit:4;" d="M -317.847656 87.496094 C -316.78125 77.570312 -310.652344 68.90625 -301.648438 64.597656 " transform="matrix(-1,0,0,1,0,0)"/>
<path style="fill-rule:evenodd;fill:rgb(100%,0%,0%);fill-opacity:1;stroke-width:0.397706;stroke-linecap:butt;stroke-linejoin:miter;stroke:rgb(100%,0%,0%);stroke-opacity:1;stroke-miterlimit:4;" d="M -117.107635 -304.912184 L -115.51683 -306.501253 L -121.083993 -304.910284 L -115.518565 -303.321379 Z M -117.107635 -304.912184 " transform="matrix(-0.107556,-1,-1,0.107556,0,0)"/>
<path style="fill-rule:evenodd;fill:rgb(100%,0%,0%);fill-opacity:1;stroke-width:0.360803;stroke-linecap:butt;stroke-linejoin:miter;stroke:rgb(100%,0%,0%);stroke-opacity:1;stroke-miterlimit:4;" d="M 273.467994 64.910142 L 274.910275 63.463725 L 269.858989 64.909369 L 274.911233 66.350902 Z M 273.467994 64.910142 " transform="matrix(1,0.478618,0.478618,-1,0,0)"/>
<path style=" stroke:none;fill-rule:nonzero;fill:rgb(0%,0%,0%);fill-opacity:1;" d="M 291.1875 90.308594 C 291.1875 91.632812 290.113281 92.707031 288.789062 92.707031 C 287.460938 92.707031 286.386719 91.632812 286.386719 90.308594 C 286.386719 88.980469 287.460938 87.90625 288.789062 87.90625 C 290.113281 87.90625 291.1875 88.980469 291.1875 90.308594 Z M 291.1875 90.308594 "/>
<path style=" stroke:none;fill-rule:nonzero;fill:rgb(0%,0%,0%);fill-opacity:1;" d="M 293.027344 98.425781 C 293.027344 96.492188 291.75 95.199219 289.96875 95.199219 C 287.402344 95.199219 284.757812 97.917969 284.757812 100.710938 C 284.757812 102.699219 286.109375 103.898438 287.832031 103.898438 C 290.363281 103.898438 293.027344 101.273438 293.027344 98.425781 Z M 287.890625 103.582031 C 286.707031 103.582031 285.882812 102.625 285.882812 101.050781 C 285.882812 100.503906 286.050781 98.761719 286.96875 97.375 C 287.796875 96.117188 288.957031 95.5 289.914062 95.5 C 290.890625 95.5 291.957031 96.175781 291.957031 97.957031 C 291.957031 98.816406 291.640625 100.675781 290.457031 102.15625 C 289.875 102.886719 288.902344 103.582031 287.890625 103.582031 Z M 287.890625 103.582031 "/>
<g clip-path="url(#clip4)" clip-rule="nonzero">
<path style="fill:none;stroke-width:0.8;stroke-linecap:butt;stroke-linejoin:miter;stroke:rgb(0%,0%,0%);stroke-opacity:1;stroke-miterlimit:4;" d="M 375.199219 90.300781 C 375.199219 128.007812 350.746094 161.363281 314.78125 172.703125 C 278.816406 184.042969 239.652344 170.746094 218.023438 139.859375 C 196.394531 108.96875 197.296875 67.621094 220.253906 37.703125 C 243.210938 7.789062 282.914062 -3.785156 318.351562 9.113281 L 288.800781 90.300781 Z M 375.199219 90.300781 "/>
</g>
<g clip-path="url(#clip5)" clip-rule="nonzero">
<path style="fill:none;stroke-width:2.4;stroke-linecap:butt;stroke-linejoin:miter;stroke:rgb(100%,0%,0%);stroke-opacity:1;stroke-miterlimit:4;" d="M 318.351562 9.113281 C 352.484375 21.535156 375.199219 53.976562 375.199219 90.300781 "/>
</g>
<path style=" stroke:none;fill-rule:nonzero;fill:rgb(0%,0%,0%);fill-opacity:1;" d="M 306.367188 77.238281 C 306.367188 76.449219 306.160156 74.78125 304.941406 74.78125 C 303.273438 74.78125 301.4375 78.15625 301.4375 80.894531 C 301.4375 82.019531 301.773438 83.347656 302.863281 83.347656 C 304.550781 83.347656 306.367188 79.917969 306.367188 77.238281 Z M 302.691406 78.867188 C 302.898438 78.117188 303.144531 77.160156 303.628906 76.300781 C 303.949219 75.71875 304.378906 75.042969 304.925781 75.042969 C 305.503906 75.042969 305.582031 75.8125 305.582031 76.488281 C 305.582031 77.085938 305.488281 77.6875 305.207031 78.867188 Z M 305.09375 79.261719 C 304.960938 79.804688 304.71875 80.816406 304.25 81.679688 C 303.835938 82.503906 303.386719 83.085938 302.863281 83.085938 C 302.46875 83.085938 302.222656 82.730469 302.222656 81.625 C 302.222656 81.117188 302.300781 80.425781 302.597656 79.261719 Z M 305.09375 79.261719 "/>
<path style=" stroke:none;fill-rule:nonzero;fill:rgb(0%,0%,0%);fill-opacity:1;" d="M 334.097656 100.523438 C 334.0625 100.710938 333.984375 100.992188 333.984375 101.046875 C 333.984375 101.253906 334.15625 101.367188 334.34375 101.367188 C 334.492188 101.367188 334.699219 101.273438 334.792969 101.03125 C 334.8125 100.992188 335.203125 99.359375 335.261719 99.136719 C 335.355469 98.742188 335.578125 97.917969 335.636719 97.578125 C 335.691406 97.429688 336.03125 96.867188 336.3125 96.605469 C 336.40625 96.53125 336.761719 96.210938 337.265625 96.210938 C 337.585938 96.210938 337.753906 96.359375 337.773438 96.359375 C 337.417969 96.417969 337.15625 96.699219 337.15625 97.015625 C 337.15625 97.203125 337.285156 97.429688 337.605469 97.429688 C 337.921875 97.429688 338.261719 97.148438 338.261719 96.71875 C 338.261719 96.304688 337.886719 95.949219 337.265625 95.949219 C 336.5 95.949219 335.972656 96.53125 335.75 96.867188 C 335.636719 96.324219 335.203125 95.949219 334.640625 95.949219 C 334.097656 95.949219 333.875 96.417969 333.761719 96.625 C 333.554688 97.035156 333.40625 97.75 333.40625 97.785156 C 333.40625 97.917969 333.515625 97.917969 333.535156 97.917969 C 333.667969 97.917969 333.667969 97.898438 333.742188 97.636719 C 333.949219 96.792969 334.191406 96.210938 334.625 96.210938 C 334.8125 96.210938 334.980469 96.304688 334.980469 96.753906 C 334.980469 97.015625 334.941406 97.148438 334.792969 97.765625 Z M 334.097656 100.523438 "/>
<path style=" stroke:none;fill-rule:nonzero;fill:rgb(0%,0%,0%);fill-opacity:1;" d="M 330.386719 56.667969 C 329.917969 57.453125 329.449219 57.625 328.921875 57.660156 C 328.773438 57.679688 328.660156 57.679688 328.660156 57.90625 C 328.660156 57.980469 328.734375 58.035156 328.828125 58.035156 C 329.148438 58.035156 329.523438 58 329.84375 58 C 330.253906 58 330.667969 58.035156 331.042969 58.035156 C 331.117188 58.035156 331.265625 58.035156 331.265625 57.8125 C 331.265625 57.679688 331.171875 57.660156 331.078125 57.660156 C 330.816406 57.640625 330.515625 57.546875 330.515625 57.25 C 330.515625 57.097656 330.59375 56.96875 330.6875 56.796875 L 331.605469 55.28125 L 334.605469 55.28125 C 334.625 55.523438 334.792969 57.15625 334.792969 57.265625 C 334.792969 57.625 334.171875 57.660156 333.929688 57.660156 C 333.761719 57.660156 333.648438 57.660156 333.648438 57.90625 C 333.648438 58.035156 333.78125 58.035156 333.816406 58.035156 C 334.304688 58.035156 334.8125 58 335.296875 58 C 335.597656 58 336.367188 58.035156 336.667969 58.035156 C 336.722656 58.035156 336.875 58.035156 336.875 57.792969 C 336.875 57.660156 336.761719 57.660156 336.59375 57.660156 C 335.859375 57.660156 335.859375 57.585938 335.824219 57.230469 L 335.09375 49.765625 C 335.074219 49.523438 335.074219 49.46875 334.867188 49.46875 C 334.679688 49.46875 334.625 49.5625 334.546875 49.671875 Z M 331.828125 54.90625 L 334.171875 50.949219 L 334.566406 54.90625 Z M 331.828125 54.90625 "/>
<path style=" stroke:none;fill-rule:nonzero;fill:rgb(0%,0%,0%);fill-opacity:1;" d="M 341.171875 60.90625 C 341.171875 60.867188 341.171875 60.847656 340.964844 60.640625 C 339.484375 59.140625 339.089844 56.875 339.089844 55.035156 C 339.089844 52.953125 339.539062 50.875 341.019531 49.390625 C 341.171875 49.242188 341.171875 49.222656 341.171875 49.1875 C 341.171875 49.09375 341.132812 49.054688 341.058594 49.054688 C 340.925781 49.054688 339.859375 49.878906 339.144531 51.398438 C 338.546875 52.710938 338.394531 54.042969 338.394531 55.035156 C 338.394531 55.972656 338.527344 57.417969 339.183594 58.785156 C 339.914062 60.25 340.925781 61.035156 341.058594 61.035156 C 341.132812 61.035156 341.171875 61 341.171875 60.90625 Z M 341.171875 60.90625 "/>
<path style=" stroke:none;fill-rule:nonzero;fill:rgb(0%,0%,0%);fill-opacity:1;" d="M 347.300781 52.054688 C 347.300781 51.265625 347.09375 49.597656 345.875 49.597656 C 344.207031 49.597656 342.371094 52.972656 342.371094 55.710938 C 342.371094 56.835938 342.707031 58.167969 343.792969 58.167969 C 345.480469 58.167969 347.300781 54.734375 347.300781 52.054688 Z M 343.625 53.6875 C 343.832031 52.9375 344.074219 51.980469 344.5625 51.117188 C 344.882812 50.535156 345.3125 49.859375 345.855469 49.859375 C 346.4375 49.859375 346.511719 50.628906 346.511719 51.304688 C 346.511719 51.90625 346.417969 52.503906 346.136719 53.6875 Z M 346.027344 54.078125 C 345.894531 54.625 345.652344 55.636719 345.183594 56.5 C 344.769531 57.324219 344.320312 57.90625 343.792969 57.90625 C 343.402344 57.90625 343.15625 57.546875 343.15625 56.441406 C 343.15625 55.9375 343.230469 55.242188 343.53125 54.078125 Z M 346.027344 54.078125 "/>
<path style=" stroke:none;fill-rule:nonzero;fill:rgb(0%,0%,0%);fill-opacity:1;" d="M 351.257812 55.035156 C 351.257812 54.117188 351.128906 52.671875 350.472656 51.304688 C 349.757812 49.84375 348.726562 49.054688 348.613281 49.054688 C 348.539062 49.054688 348.484375 49.109375 348.484375 49.1875 C 348.484375 49.222656 348.484375 49.242188 348.707031 49.46875 C 349.890625 50.648438 350.566406 52.542969 350.566406 55.035156 C 350.566406 57.097656 350.132812 59.199219 348.652344 60.699219 C 348.484375 60.847656 348.484375 60.867188 348.484375 60.90625 C 348.484375 60.980469 348.539062 61.035156 348.613281 61.035156 C 348.726562 61.035156 349.816406 60.210938 350.507812 58.691406 C 351.128906 57.378906 351.257812 56.046875 351.257812 55.035156 Z M 351.257812 55.035156 "/>
<path style=" stroke:none;fill-rule:nonzero;fill:rgb(0%,0%,0%);fill-opacity:1;" d="M 362.289062 27.9375 C 362.382812 27.507812 362.421875 27.375 363.546875 27.375 C 363.902344 27.375 363.996094 27.375 363.996094 27.148438 C 363.996094 27 363.863281 27 363.808594 27 C 363.414062 27 362.4375 27.039062 362.046875 27.039062 C 361.6875 27.039062 360.808594 27 360.453125 27 C 360.375 27 360.226562 27 360.226562 27.242188 C 360.226562 27.375 360.339844 27.375 360.5625 27.375 C 360.582031 27.375 360.808594 27.375 361.015625 27.394531 C 361.21875 27.429688 361.332031 27.429688 361.332031 27.601562 C 361.332031 27.636719 361.332031 27.675781 361.296875 27.824219 L 359.683594 34.238281 C 359.570312 34.707031 359.550781 34.800781 358.59375 34.800781 C 358.390625 34.800781 358.277344 34.800781 358.277344 35.042969 C 358.277344 35.175781 358.390625 35.175781 358.59375 35.175781 L 364.144531 35.175781 C 364.425781 35.175781 364.425781 35.175781 364.5 34.96875 L 365.457031 32.382812 C 365.496094 32.25 365.496094 32.230469 365.496094 32.210938 C 365.496094 32.175781 365.457031 32.082031 365.363281 32.082031 C 365.25 32.082031 365.234375 32.15625 365.15625 32.34375 C 364.746094 33.429688 364.21875 34.800781 362.15625 34.800781 L 360.769531 34.800781 C 360.640625 34.78125 360.601562 34.761719 360.601562 34.667969 C 360.601562 34.632812 360.601562 34.613281 360.65625 34.40625 Z M 362.289062 27.9375 "/>
<path style=" stroke:none;fill-rule:nonzero;fill:rgb(0%,0%,0%);fill-opacity:1;" d="M 369.898438 38.042969 C 369.898438 38.007812 369.898438 37.988281 369.695312 37.78125 C 368.210938 36.28125 367.820312 34.011719 367.820312 32.175781 C 367.820312 30.09375 368.269531 28.011719 369.75 26.53125 C 369.898438 26.382812 369.898438 26.363281 369.898438 26.324219 C 369.898438 26.230469 369.863281 26.195312 369.789062 26.195312 C 369.65625 26.195312 368.585938 27.019531 367.875 28.539062 C 367.273438 29.851562 367.125 31.179688 367.125 32.175781 C 367.125 33.113281 367.257812 34.554688 367.914062 35.925781 C 368.644531 37.386719 369.65625 38.175781 369.789062 38.175781 C 369.863281 38.175781 369.898438 38.136719 369.898438 38.042969 Z M 369.898438 38.042969 "/>
<path style=" stroke:none;fill-rule:nonzero;fill:rgb(0%,0%,0%);fill-opacity:1;" d="M 376.03125 29.195312 C 376.03125 28.40625 375.824219 26.738281 374.605469 26.738281 C 372.9375 26.738281 371.101562 30.113281 371.101562 32.851562 C 371.101562 33.976562 371.4375 35.304688 372.523438 35.304688 C 374.210938 35.304688 376.03125 31.875 376.03125 29.195312 Z M 372.355469 30.824219 C 372.5625 30.074219 372.804688 29.117188 373.292969 28.257812 C 373.613281 27.675781 374.042969 27 374.585938 27 C 375.167969 27 375.242188 27.769531 375.242188 28.445312 C 375.242188 29.042969 375.148438 29.644531 374.867188 30.824219 Z M 374.757812 31.21875 C 374.625 31.761719 374.382812 32.773438 373.914062 33.636719 C 373.5 34.460938 373.050781 35.042969 372.523438 35.042969 C 372.132812 35.042969 371.886719 34.6875 371.886719 33.582031 C 371.886719 33.074219 371.960938 32.382812 372.261719 31.21875 Z M 374.757812 31.21875 "/>
<path style=" stroke:none;fill-rule:nonzero;fill:rgb(0%,0%,0%);fill-opacity:1;" d="M 379.988281 32.175781 C 379.988281 31.257812 379.855469 29.8125 379.199219 28.445312 C 378.488281 26.980469 377.457031 26.195312 377.34375 26.195312 C 377.269531 26.195312 377.210938 26.25 377.210938 26.324219 C 377.210938 26.363281 377.210938 26.382812 377.4375 26.605469 C 378.617188 27.789062 379.292969 29.679688 379.292969 32.175781 C 379.292969 34.238281 378.863281 36.335938 377.382812 37.835938 C 377.210938 37.988281 377.210938 38.007812 377.210938 38.042969 C 377.210938 38.117188 377.269531 38.175781 377.34375 38.175781 C 377.457031 38.175781 378.542969 37.351562 379.238281 35.832031 C 379.855469 34.519531 379.988281 33.1875 379.988281 32.175781 Z M 379.988281 32.175781 "/>
<g clip-path="url(#clip6)" clip-rule="nonzero">
<path style="fill:none;stroke-width:0.8;stroke-linecap:butt;stroke-linejoin:miter;stroke:rgb(100%,0%,0%);stroke-opacity:1;stroke-miterlimit:4;" d="M 371.191406 41.394531 C 379.726562 55.828125 384.34375 72.25 384.574219 89.027344 "/>
</g>
<g clip-path="url(#clip7)" clip-rule="nonzero">
<path style=" stroke:none;fill-rule:evenodd;fill:rgb(100%,0%,0%);fill-opacity:1;" d="M 384.53125 85.828125 L 382.90625 84.25 L 384.585938 89.828125 L 386.105469 84.203125 Z M 384.53125 85.828125 "/>
</g>
<g clip-path="url(#clip8)" clip-rule="nonzero">
<path style="fill:none;stroke-width:0.399962;stroke-linecap:butt;stroke-linejoin:miter;stroke:rgb(100%,0%,0%);stroke-opacity:1;stroke-miterlimit:4;" d="M -91.121276 383.272829 L -89.521014 381.669929 L -95.121268 383.272275 L -89.518322 384.869185 Z M -91.121276 383.272829 " transform="matrix(-0.0138104,-1,1,-0.0138104,0,0)"/>
</g>
<path style="fill:none;stroke-width:0.8;stroke-linecap:butt;stroke-linejoin:miter;stroke:rgb(100%,0%,0%);stroke-opacity:1;stroke-miterlimit:4;" d="M 323.972656 0.554688 C 336.910156 5.589844 348.601562 13.382812 358.238281 23.386719 "/>
<path style="fill-rule:evenodd;fill:rgb(100%,0%,0%);fill-opacity:1;stroke-width:0.372745;stroke-linecap:butt;stroke-linejoin:miter;stroke:rgb(100%,0%,0%);stroke-opacity:1;stroke-miterlimit:4;" d="M 284.494798 -109.051214 L 285.988263 -110.542841 L 280.768808 -109.049745 L 285.988496 -107.562463 Z M 284.494798 -109.051214 " transform="matrix(1,0.389343,-0.389343,1,0,0)"/>
<path style="fill:none;stroke-width:0.8;stroke-linecap:butt;stroke-linejoin:miter;stroke:rgb(100%,0%,0%);stroke-opacity:1;stroke-miterlimit:4;" d="M 165.695312 35.339844 C 176.691406 51.101562 182.707031 69.800781 182.972656 89.027344 "/>
<path style="fill-rule:evenodd;fill:rgb(100%,0%,0%);fill-opacity:1;stroke-width:0.399962;stroke-linecap:butt;stroke-linejoin:miter;stroke:rgb(100%,0%,0%);stroke-opacity:1;stroke-miterlimit:4;" d="M -88.337609 181.70971 L -86.737401 180.110716 L -92.337601 181.709156 L -86.734709 183.309971 Z M -88.337609 181.70971 " transform="matrix(-0.0138104,-1,1,-0.0138104,0,0)"/>
<path style="fill:none;stroke-width:0.8;stroke-linecap:butt;stroke-linejoin:miter;stroke:rgb(100%,0%,0%);stroke-opacity:1;stroke-miterlimit:4;" d="M 122.375 0.554688 C 136.515625 6.058594 149.152344 14.847656 159.242188 26.199219 "/>
<path style="fill-rule:evenodd;fill:rgb(100%,0%,0%);fill-opacity:1;stroke-width:0.372745;stroke-linecap:butt;stroke-linejoin:miter;stroke:rgb(100%,0%,0%);stroke-opacity:1;stroke-miterlimit:4;" d="M 109.43422 -40.892604 L 110.924292 -42.382909 L 105.708229 -40.891134 L 110.924525 -39.402531 Z M 109.43422 -40.892604 " transform="matrix(1,0.389343,-0.389343,1,0,0)"/>
<path style=" stroke:none;fill-rule:nonzero;fill:rgb(0%,0%,0%);fill-opacity:1;" d="M 165.492188 29.195312 C 165.492188 28.40625 165.285156 26.738281 164.066406 26.738281 C 162.398438 26.738281 160.558594 30.113281 160.558594 32.851562 C 160.558594 33.976562 160.898438 35.304688 161.984375 35.304688 C 163.671875 35.304688 165.492188 31.875 165.492188 29.195312 Z M 161.816406 30.824219 C 162.023438 30.074219 162.265625 29.117188 162.753906 28.257812 C 163.070312 27.675781 163.503906 27 164.046875 27 C 164.628906 27 164.703125 27.769531 164.703125 28.445312 C 164.703125 29.042969 164.609375 29.644531 164.328125 30.824219 Z M 164.214844 31.21875 C 164.085938 31.761719 163.839844 32.773438 163.371094 33.636719 C 162.960938 34.460938 162.507812 35.042969 161.984375 35.042969 C 161.589844 35.042969 161.347656 34.6875 161.347656 33.582031 C 161.347656 33.074219 161.421875 32.382812 161.722656 31.21875 Z M 164.214844 31.21875 "/>
</g>
</svg>
