<?xml version="1.0" encoding="UTF-8"?>
<svg xmlns="http://www.w3.org/2000/svg" xmlns:xlink="http://www.w3.org/1999/xlink" width="173.462006pt" height="112.309982pt" viewBox="0 0 173.462006 112.309982" version="1.1">
<defs>
<clipPath id="clip1">
  <path d="M 57 15 L 59 15 L 59 112.308594 L 57 112.308594 Z M 57 15 "/>
</clipPath>
<clipPath id="clip2">
  <path d="M 134 14 L 173.460938 14 L 173.460938 16 L 134 16 Z M 134 14 "/>
</clipPath>
</defs>
<g id="surface1">
<path style="fill:none;stroke-width:0.4;stroke-linecap:butt;stroke-linejoin:miter;stroke:rgb(0%,0%,0%);stroke-opacity:1;stroke-dasharray:0.4,0.4;stroke-miterlimit:4;" d="M 88.78125 97.75 L 88.78125 67.941406 L 57.679688 67.941406 "/>
<g clip-path="url(#clip1)" clip-rule="nonzero">
<path style="fill:none;stroke-width:0.8;stroke-linecap:round;stroke-linejoin:round;stroke:rgb(100%,0%,0%);stroke-opacity:1;stroke-miterlimit:4;" d="M 57.636719 15.644531 L 57.636719 111.894531 "/>
</g>
<path style="fill:none;stroke-width:0.8;stroke-linecap:round;stroke-linejoin:round;stroke:rgb(100%,0%,0%);stroke-opacity:1;stroke-miterlimit:4;" d="M 0.46875 98.394531 L 114.804688 98.394531 "/>
<path style=" stroke:none;fill-rule:nonzero;fill:rgb(0%,0%,0%);fill-opacity:1;" d="M 66.542969 14.695312 C 66.601562 14.527344 66.601562 14.507812 66.601562 14.414062 C 66.601562 14.207031 66.433594 14.09375 66.246094 14.09375 C 66.132812 14.09375 65.945312 14.167969 65.832031 14.339844 C 65.8125 14.414062 65.699219 14.769531 65.664062 14.996094 C 65.570312 15.292969 65.496094 15.632812 65.417969 15.949219 L 64.875 18.105469 C 64.839844 18.277344 64.3125 19.121094 63.527344 19.121094 C 62.925781 19.121094 62.792969 18.59375 62.792969 18.144531 C 62.792969 17.601562 63 16.851562 63.394531 15.800781 C 63.582031 15.3125 63.636719 15.183594 63.636719 14.9375 C 63.636719 14.414062 63.261719 13.964844 62.664062 13.964844 C 61.519531 13.964844 61.089844 15.707031 61.089844 15.800781 C 61.089844 15.933594 61.199219 15.933594 61.21875 15.933594 C 61.351562 15.933594 61.351562 15.894531 61.40625 15.707031 C 61.746094 14.582031 62.214844 14.226562 62.625 14.226562 C 62.71875 14.226562 62.925781 14.226562 62.925781 14.601562 C 62.925781 14.902344 62.792969 15.21875 62.71875 15.445312 C 62.230469 16.71875 62.027344 17.394531 62.027344 17.957031 C 62.027344 19.027344 62.777344 19.382812 63.488281 19.382812 C 63.957031 19.382812 64.351562 19.175781 64.6875 18.839844 C 64.539062 19.457031 64.386719 20.058594 63.917969 20.695312 C 63.601562 21.089844 63.152344 21.445312 62.605469 21.445312 C 62.4375 21.445312 61.894531 21.40625 61.6875 20.9375 C 61.875 20.9375 62.042969 20.9375 62.195312 20.789062 C 62.324219 20.695312 62.4375 20.527344 62.4375 20.300781 C 62.4375 19.925781 62.121094 19.886719 62.007812 19.886719 C 61.726562 19.886719 61.332031 20.074219 61.332031 20.65625 C 61.332031 21.257812 61.855469 21.707031 62.605469 21.707031 C 63.824219 21.707031 65.0625 20.621094 65.402344 19.269531 Z M 66.542969 14.695312 "/>
<path style=" stroke:none;fill-rule:nonzero;fill:rgb(0%,0%,0%);fill-opacity:1;" d="M 114.128906 103.332031 C 114.203125 103.035156 114.484375 101.925781 115.3125 101.925781 C 115.367188 101.925781 115.667969 101.925781 115.910156 102.078125 C 115.574219 102.152344 115.347656 102.433594 115.347656 102.734375 C 115.347656 102.921875 115.480469 103.144531 115.796875 103.144531 C 116.0625 103.144531 116.4375 102.941406 116.4375 102.453125 C 116.4375 101.832031 115.742188 101.664062 115.328125 101.664062 C 114.636719 101.664062 114.222656 102.300781 114.074219 102.566406 C 113.773438 101.777344 113.136719 101.664062 112.78125 101.664062 C 111.542969 101.664062 110.847656 103.203125 110.847656 103.503906 C 110.847656 103.632812 110.980469 103.632812 111 103.632812 C 111.09375 103.632812 111.128906 103.597656 111.148438 103.503906 C 111.5625 102.226562 112.347656 101.925781 112.761719 101.925781 C 112.984375 101.925781 113.398438 102.039062 113.398438 102.734375 C 113.398438 103.109375 113.191406 103.894531 112.761719 105.582031 C 112.574219 106.316406 112.140625 106.820312 111.617188 106.820312 C 111.542969 106.820312 111.28125 106.820312 111.015625 106.671875 C 111.316406 106.597656 111.578125 106.351562 111.578125 106.015625 C 111.578125 105.695312 111.316406 105.601562 111.148438 105.601562 C 110.773438 105.601562 110.492188 105.902344 110.492188 106.296875 C 110.492188 106.839844 111.074219 107.082031 111.597656 107.082031 C 112.40625 107.082031 112.835938 106.238281 112.855469 106.183594 C 113.003906 106.613281 113.4375 107.082031 114.148438 107.082031 C 115.386719 107.082031 116.0625 105.546875 116.0625 105.246094 C 116.0625 105.113281 115.96875 105.113281 115.929688 105.113281 C 115.816406 105.113281 115.796875 105.171875 115.761719 105.246094 C 115.367188 106.539062 114.5625 106.820312 114.1875 106.820312 C 113.71875 106.820312 113.53125 106.445312 113.53125 106.035156 C 113.53125 105.769531 113.585938 105.507812 113.71875 104.984375 Z M 114.128906 103.332031 "/>
<path style="fill:none;stroke-width:1.2;stroke-linecap:round;stroke-linejoin:bevel;stroke:rgb(0%,0%,0%);stroke-opacity:1;stroke-miterlimit:4;" d="M 6.328125 15.65625 C 6.359375 15.765625 6.394531 15.875 6.429688 15.984375 C 6.464844 16.09375 6.5 16.203125 6.53125 16.3125 C 6.566406 16.421875 6.601562 16.53125 6.636719 16.640625 C 6.667969 16.75 6.703125 16.859375 6.738281 16.96875 C 6.773438 17.078125 6.804688 17.1875 6.839844 17.296875 C 6.875 17.40625 6.910156 17.511719 6.941406 17.621094 C 6.976562 17.730469 7.011719 17.839844 7.046875 17.945312 C 7.082031 18.054688 7.113281 18.164062 7.148438 18.273438 C 7.183594 18.378906 7.21875 18.488281 7.25 18.597656 C 7.285156 18.703125 7.320312 18.8125 7.355469 18.917969 C 7.386719 19.027344 7.421875 19.132812 7.457031 19.242188 C 7.492188 19.347656 7.527344 19.457031 7.558594 19.5625 C 7.59375 19.671875 7.628906 19.777344 7.664062 19.886719 C 7.695312 19.992188 7.730469 20.097656 7.765625 20.207031 C 7.800781 20.3125 7.832031 20.417969 7.867188 20.527344 C 7.902344 20.632812 7.9375 20.738281 7.96875 20.847656 C 8.003906 20.953125 8.039062 21.058594 8.074219 21.164062 C 8.109375 21.269531 8.140625 21.375 8.175781 21.484375 C 8.210938 21.589844 8.246094 21.695312 8.277344 21.800781 C 8.3125 21.90625 8.347656 22.011719 8.382812 22.117188 C 8.414062 22.222656 8.449219 22.328125 8.484375 22.433594 C 8.519531 22.539062 8.550781 22.644531 8.585938 22.75 C 8.621094 22.855469 8.65625 22.957031 8.691406 23.0625 C 8.722656 23.167969 8.757812 23.273438 8.792969 23.378906 C 8.828125 23.484375 8.859375 23.585938 8.894531 23.691406 C 8.929688 23.796875 8.964844 23.898438 8.996094 24.003906 C 9.03125 24.109375 9.066406 24.210938 9.101562 24.316406 C 9.132812 24.421875 9.167969 24.523438 9.203125 24.628906 C 9.238281 24.730469 9.273438 24.835938 9.304688 24.9375 C 9.339844 25.042969 9.375 25.144531 9.410156 25.25 C 9.441406 25.351562 9.476562 25.457031 9.511719 25.558594 C 9.546875 25.660156 9.578125 25.765625 9.613281 25.867188 C 9.648438 25.96875 9.683594 26.074219 9.71875 26.175781 C 9.75 26.277344 9.785156 26.382812 9.820312 26.484375 C 9.855469 26.585938 9.886719 26.6875 9.921875 26.789062 C 9.957031 26.890625 9.992188 26.996094 10.023438 27.097656 C 10.058594 27.199219 10.09375 27.300781 10.128906 27.402344 C 10.160156 27.503906 10.195312 27.605469 10.230469 27.707031 C 10.265625 27.808594 10.300781 27.910156 10.332031 28.011719 C 10.367188 28.113281 10.402344 28.214844 10.4375 28.316406 C 10.46875 28.417969 10.503906 28.515625 10.539062 28.617188 C 10.574219 28.71875 10.605469 28.820312 10.640625 28.921875 C 10.675781 29.019531 10.710938 29.121094 10.742188 29.222656 C 10.777344 29.324219 10.8125 29.421875 10.847656 29.523438 C 10.882812 29.625 10.914062 29.722656 10.949219 29.824219 C 10.984375 29.921875 11.019531 30.023438 11.050781 30.121094 C 11.085938 30.222656 11.121094 30.324219 11.15625 30.421875 C 11.1875 30.523438 11.222656 30.621094 11.257812 30.71875 C 11.292969 30.820312 11.324219 30.917969 11.359375 31.019531 C 11.394531 31.117188 11.429688 31.214844 11.464844 31.316406 C 11.496094 31.414062 11.53125 31.511719 11.566406 31.613281 C 11.601562 31.710938 11.632812 31.808594 11.667969 31.90625 C 11.703125 32.003906 11.738281 32.105469 11.769531 32.203125 C 11.804688 32.300781 11.839844 32.398438 11.875 32.496094 C 11.910156 32.59375 11.941406 32.691406 11.976562 32.789062 C 12.011719 32.886719 12.046875 32.984375 12.078125 33.082031 C 12.113281 33.179688 12.148438 33.277344 12.183594 33.375 C 12.214844 33.472656 12.25 33.570312 12.285156 33.667969 C 12.320312 33.765625 12.351562 33.863281 12.386719 33.957031 C 12.421875 34.054688 12.457031 34.152344 12.492188 34.25 C 12.523438 34.34375 12.558594 34.441406 12.59375 34.539062 C 12.628906 34.636719 12.660156 34.730469 12.695312 34.828125 C 12.730469 34.925781 12.765625 35.019531 12.796875 35.117188 C 12.832031 35.210938 12.867188 35.308594 12.902344 35.402344 C 12.933594 35.5 12.96875 35.59375 13.003906 35.691406 C 13.039062 35.785156 13.074219 35.882812 13.105469 35.976562 C 13.140625 36.074219 13.175781 36.167969 13.210938 36.261719 C 13.242188 36.359375 13.277344 36.453125 13.3125 36.546875 C 13.347656 36.644531 13.378906 36.738281 13.414062 36.832031 C 13.449219 36.929688 13.484375 37.023438 13.515625 37.117188 C 13.550781 37.210938 13.585938 37.304688 13.621094 37.398438 C 13.65625 37.496094 13.6875 37.589844 13.722656 37.683594 C 13.757812 37.777344 13.792969 37.871094 13.824219 37.964844 C 13.859375 38.058594 13.894531 38.152344 13.929688 38.246094 C 13.960938 38.339844 13.996094 38.433594 14.03125 38.527344 C 14.066406 38.621094 14.101562 38.710938 14.132812 38.804688 C 14.167969 38.898438 14.203125 38.992188 14.238281 39.085938 C 14.269531 39.179688 14.304688 39.269531 14.339844 39.363281 C 14.375 39.457031 14.40625 39.550781 14.441406 39.640625 C 14.476562 39.734375 14.511719 39.828125 14.542969 39.917969 C 14.578125 40.011719 14.613281 40.101562 14.648438 40.195312 C 14.683594 40.289062 14.714844 40.378906 14.75 40.472656 C 14.785156 40.5625 14.820312 40.65625 14.851562 40.746094 C 14.886719 40.839844 14.921875 40.929688 14.957031 41.019531 C 14.988281 41.113281 15.023438 41.203125 15.058594 41.296875 C 15.09375 41.386719 15.125 41.476562 15.160156 41.566406 C 15.195312 41.660156 15.230469 41.75 15.265625 41.839844 C 15.296875 41.929688 15.332031 42.023438 15.367188 42.113281 C 15.402344 42.203125 15.433594 42.292969 15.46875 42.382812 C 15.503906 42.472656 15.539062 42.566406 15.570312 42.65625 C 15.605469 42.746094 15.640625 42.835938 15.675781 42.925781 C 15.707031 43.015625 15.742188 43.105469 15.777344 43.195312 C 15.8125 43.285156 15.847656 43.375 15.878906 43.460938 C 15.914062 43.550781 15.949219 43.640625 15.984375 43.730469 C 16.015625 43.820312 16.050781 43.910156 16.085938 43.996094 C 16.121094 44.085938 16.152344 44.175781 16.1875 44.265625 C 16.222656 44.351562 16.257812 44.441406 16.292969 44.53125 C 16.324219 44.617188 16.359375 44.707031 16.394531 44.796875 C 16.429688 44.882812 16.460938 44.972656 16.496094 45.0625 C 16.53125 45.148438 16.566406 45.238281 16.597656 45.324219 C 16.632812 45.414062 16.667969 45.5 16.703125 45.589844 C 16.734375 45.675781 16.769531 45.761719 16.804688 45.851562 C 16.839844 45.9375 16.875 46.027344 16.90625 46.113281 C 16.941406 46.199219 16.976562 46.285156 17.011719 46.375 C 17.042969 46.460938 17.078125 46.546875 17.113281 46.636719 C 17.148438 46.722656 17.179688 46.808594 17.214844 46.894531 C 17.25 46.980469 17.285156 47.066406 17.316406 47.152344 C 17.351562 47.242188 17.386719 47.328125 17.421875 47.414062 C 17.457031 47.5 17.488281 47.585938 17.523438 47.671875 C 17.558594 47.757812 17.59375 47.84375 17.625 47.929688 C 17.660156 48.015625 17.695312 48.101562 17.730469 48.183594 C 17.761719 48.269531 17.796875 48.355469 17.832031 48.441406 C 17.867188 48.527344 17.898438 48.613281 17.933594 48.695312 C 17.96875 48.78125 18.003906 48.867188 18.039062 48.953125 C 18.070312 49.035156 18.105469 49.121094 18.140625 49.207031 C 18.175781 49.289062 18.207031 49.375 18.242188 49.460938 C 18.277344 49.542969 18.3125 49.628906 18.34375 49.710938 C 18.378906 49.796875 18.414062 49.878906 18.449219 49.964844 C 18.484375 50.046875 18.515625 50.132812 18.550781 50.214844 C 18.585938 50.300781 18.621094 50.382812 18.652344 50.464844 C 18.6875 50.550781 18.722656 50.632812 18.757812 50.714844 C 18.789062 50.800781 18.824219 50.882812 18.859375 50.964844 C 18.894531 51.050781 18.925781 51.132812 18.960938 51.214844 C 18.996094 51.296875 19.03125 51.378906 19.066406 51.464844 C 19.097656 51.546875 19.132812 51.628906 19.167969 51.710938 C 19.203125 51.792969 19.234375 51.875 19.269531 51.957031 C 19.304688 52.039062 19.339844 52.121094 19.371094 52.203125 C 19.40625 52.285156 19.441406 52.367188 19.476562 52.449219 C 19.507812 52.53125 19.542969 52.613281 19.578125 52.695312 C 19.613281 52.777344 19.648438 52.855469 19.679688 52.9375 C 19.714844 53.019531 19.75 53.101562 19.785156 53.183594 C 19.816406 53.261719 19.851562 53.34375 19.886719 53.425781 C 19.921875 53.503906 19.953125 53.585938 19.988281 53.667969 C 20.023438 53.746094 20.058594 53.828125 20.089844 53.910156 C 20.125 53.988281 20.160156 54.070312 20.195312 54.148438 C 20.230469 54.230469 20.261719 54.308594 20.296875 54.390625 C 20.332031 54.46875 20.367188 54.550781 20.398438 54.628906 C 20.433594 54.710938 20.46875 54.789062 20.503906 54.867188 C 20.535156 54.949219 20.570312 55.027344 20.605469 55.105469 C 20.640625 55.1875 20.675781 55.265625 20.707031 55.34375 C 20.742188 55.421875 20.777344 55.503906 20.8125 55.582031 C 20.84375 55.660156 20.878906 55.738281 20.914062 55.816406 C 20.949219 55.894531 20.980469 55.976562 21.015625 56.054688 C 21.050781 56.132812 21.085938 56.210938 21.117188 56.289062 C 21.152344 56.367188 21.1875 56.445312 21.222656 56.523438 C 21.257812 56.601562 21.289062 56.679688 21.324219 56.757812 C 21.359375 56.832031 21.394531 56.910156 21.425781 56.988281 C 21.460938 57.066406 21.496094 57.144531 21.53125 57.222656 C 21.5625 57.296875 21.597656 57.375 21.632812 57.453125 C 21.667969 57.53125 21.699219 57.605469 21.734375 57.683594 C 21.769531 57.761719 21.804688 57.835938 21.839844 57.914062 C 21.871094 57.992188 21.90625 58.066406 21.941406 58.144531 C 21.976562 58.21875 22.007812 58.296875 22.042969 58.375 C 22.078125 58.449219 22.113281 58.527344 22.144531 58.601562 C 22.179688 58.675781 22.214844 58.753906 22.25 58.828125 C 22.28125 58.90625 22.316406 58.980469 22.351562 59.054688 C 22.386719 59.132812 22.421875 59.207031 22.453125 59.28125 C 22.488281 59.359375 22.523438 59.433594 22.558594 59.507812 C 22.589844 59.582031 22.625 59.660156 22.660156 59.734375 C 22.695312 59.808594 22.726562 59.882812 22.761719 59.957031 C 22.796875 60.03125 22.832031 60.105469 22.867188 60.183594 C 22.898438 60.257812 22.933594 60.332031 22.96875 60.40625 C 23.003906 60.480469 23.035156 60.554688 23.070312 60.628906 C 23.105469 60.703125 23.140625 60.773438 23.171875 60.847656 C 23.207031 60.921875 23.242188 60.996094 23.277344 61.070312 C 23.308594 61.144531 23.34375 61.21875 23.378906 61.289062 C 23.414062 61.363281 23.449219 61.4375 23.480469 61.511719 C 23.515625 61.582031 23.550781 61.65625 23.585938 61.730469 C 23.617188 61.800781 23.652344 61.875 23.6875 61.949219 C 23.722656 62.019531 23.753906 62.09375 23.789062 62.164062 C 23.824219 62.238281 23.859375 62.3125 23.890625 62.382812 C 23.925781 62.457031 23.960938 62.527344 23.996094 62.597656 C 24.03125 62.671875 24.0625 62.742188 24.097656 62.816406 C 24.132812 62.886719 24.167969 62.957031 24.199219 63.03125 C 24.234375 63.101562 24.269531 63.171875 24.304688 63.246094 C 24.335938 63.316406 24.371094 63.386719 24.40625 63.457031 C 24.441406 63.53125 24.472656 63.601562 24.507812 63.671875 C 24.542969 63.742188 24.578125 63.8125 24.613281 63.882812 C 24.644531 63.957031 24.679688 64.027344 24.714844 64.097656 C 24.75 64.167969 24.78125 64.238281 24.816406 64.308594 C 24.851562 64.378906 24.886719 64.449219 24.917969 64.519531 C 24.953125 64.589844 24.988281 64.660156 25.023438 64.726562 C 25.058594 64.796875 25.089844 64.867188 25.125 64.9375 C 25.160156 65.007812 25.195312 65.078125 25.226562 65.144531 C 25.261719 65.214844 25.296875 65.285156 25.332031 65.355469 C 25.363281 65.421875 25.398438 65.492188 25.433594 65.5625 C 25.46875 65.628906 25.5 65.699219 25.535156 65.769531 C 25.570312 65.835938 25.605469 65.90625 25.640625 65.972656 C 25.671875 66.042969 25.707031 66.109375 25.742188 66.179688 C 25.777344 66.246094 25.808594 66.316406 25.84375 66.382812 C 25.878906 66.453125 25.914062 66.519531 25.945312 66.585938 C 25.980469 66.65625 26.015625 66.722656 26.050781 66.789062 C 26.082031 66.859375 26.117188 66.925781 26.152344 66.992188 C 26.1875 67.0625 26.222656 67.128906 26.253906 67.195312 C 26.289062 67.261719 26.324219 67.328125 26.359375 67.398438 C 26.390625 67.464844 26.425781 67.53125 26.460938 67.597656 C 26.496094 67.664062 26.527344 67.730469 26.5625 67.796875 C 26.597656 67.863281 26.632812 67.929688 26.667969 67.996094 C 26.699219 68.0625 26.734375 68.128906 26.769531 68.195312 C 26.804688 68.261719 26.835938 68.328125 26.871094 68.394531 C 26.90625 68.460938 26.941406 68.523438 26.972656 68.589844 C 27.007812 68.65625 27.042969 68.722656 27.078125 68.789062 C 27.109375 68.851562 27.144531 68.917969 27.179688 68.984375 C 27.214844 69.046875 27.25 69.113281 27.28125 69.179688 C 27.316406 69.242188 27.351562 69.308594 27.386719 69.375 C 27.417969 69.4375 27.453125 69.503906 27.488281 69.566406 C 27.523438 69.632812 27.554688 69.695312 27.589844 69.761719 C 27.625 69.824219 27.660156 69.890625 27.691406 69.953125 C 27.726562 70.019531 27.761719 70.082031 27.796875 70.144531 C 27.832031 70.210938 27.863281 70.273438 27.898438 70.335938 C 27.933594 70.402344 27.96875 70.464844 28 70.527344 C 28.035156 70.589844 28.070312 70.65625 28.105469 70.71875 C 28.136719 70.78125 28.171875 70.84375 28.207031 70.90625 C 28.242188 70.96875 28.273438 71.035156 28.308594 71.097656 C 28.34375 71.160156 28.378906 71.222656 28.414062 71.285156 C 28.445312 71.347656 28.480469 71.410156 28.515625 71.472656 C 28.550781 71.535156 28.582031 71.597656 28.617188 71.660156 C 28.652344 71.722656 28.6875 71.78125 28.71875 71.84375 C 28.753906 71.90625 28.789062 71.96875 28.824219 72.03125 C 28.859375 72.09375 28.890625 72.152344 28.925781 72.214844 C 28.960938 72.277344 28.996094 72.339844 29.027344 72.398438 C 29.0625 72.460938 29.097656 72.523438 29.132812 72.582031 C 29.164062 72.644531 29.199219 72.703125 29.234375 72.765625 C 29.269531 72.828125 29.300781 72.886719 29.335938 72.949219 C 29.371094 73.007812 29.40625 73.070312 29.441406 73.128906 C 29.472656 73.191406 29.507812 73.25 29.542969 73.308594 C 29.578125 73.371094 29.609375 73.429688 29.644531 73.492188 C 29.679688 73.550781 29.714844 73.609375 29.746094 73.667969 C 29.78125 73.730469 29.816406 73.789062 29.851562 73.847656 C 29.882812 73.910156 29.917969 73.96875 29.953125 74.027344 C 29.988281 74.085938 30.023438 74.144531 30.054688 74.203125 C 30.089844 74.261719 30.125 74.324219 30.160156 74.382812 C 30.191406 74.441406 30.226562 74.5 30.261719 74.558594 C 30.296875 74.617188 30.328125 74.675781 30.363281 74.734375 C 30.398438 74.792969 30.433594 74.851562 30.464844 74.90625 C 30.5 74.964844 30.535156 75.023438 30.570312 75.082031 C 30.605469 75.140625 30.636719 75.199219 30.671875 75.257812 C 30.707031 75.3125 30.742188 75.371094 30.773438 75.429688 C 30.808594 75.488281 30.84375 75.542969 30.878906 75.601562 C 30.910156 75.660156 30.945312 75.714844 30.980469 75.773438 C 31.015625 75.828125 31.050781 75.886719 31.082031 75.945312 C 31.117188 76 31.152344 76.058594 31.1875 76.113281 C 31.21875 76.171875 31.253906 76.226562 31.289062 76.285156 C 31.324219 76.339844 31.355469 76.394531 31.390625 76.453125 C 31.425781 76.507812 31.460938 76.566406 31.492188 76.621094 C 31.527344 76.675781 31.5625 76.734375 31.597656 76.789062 C 31.632812 76.84375 31.664062 76.898438 31.699219 76.957031 C 31.734375 77.011719 31.769531 77.066406 31.800781 77.121094 C 31.835938 77.175781 31.871094 77.234375 31.90625 77.289062 C 31.9375 77.34375 31.972656 77.398438 32.007812 77.453125 C 32.042969 77.507812 32.074219 77.5625 32.109375 77.617188 C 32.144531 77.671875 32.179688 77.726562 32.214844 77.78125 C 32.246094 77.835938 32.28125 77.890625 32.316406 77.945312 C 32.351562 77.996094 32.382812 78.050781 32.417969 78.105469 C 32.453125 78.160156 32.488281 78.214844 32.519531 78.269531 C 32.554688 78.320312 32.589844 78.375 32.625 78.429688 C 32.65625 78.484375 32.691406 78.535156 32.726562 78.589844 C 32.761719 78.644531 32.796875 78.695312 32.828125 78.75 C 32.863281 78.800781 32.898438 78.855469 32.933594 78.90625 C 32.964844 78.960938 33 79.015625 33.035156 79.066406 C 33.070312 79.121094 33.101562 79.171875 33.136719 79.222656 C 33.171875 79.277344 33.207031 79.328125 33.242188 79.382812 C 33.273438 79.433594 33.308594 79.484375 33.34375 79.539062 C 33.378906 79.589844 33.410156 79.640625 33.445312 79.695312 C 33.480469 79.746094 33.515625 79.796875 33.546875 79.847656 C 33.582031 79.898438 33.617188 79.953125 33.652344 80.003906 C 33.683594 80.054688 33.71875 80.105469 33.753906 80.15625 C 33.789062 80.207031 33.824219 80.257812 33.855469 80.308594 C 33.890625 80.359375 33.925781 80.410156 33.960938 80.460938 C 33.992188 80.511719 34.027344 80.5625 34.0625 80.613281 C 34.097656 80.664062 34.128906 80.714844 34.164062 80.765625 C 34.199219 80.816406 34.234375 80.867188 34.265625 80.914062 C 34.300781 80.964844 34.335938 81.015625 34.371094 81.066406 C 34.40625 81.117188 34.4375 81.164062 34.472656 81.214844 C 34.507812 81.265625 34.542969 81.3125 34.574219 81.363281 C 34.609375 81.414062 34.644531 81.460938 34.679688 81.511719 C 34.710938 81.558594 34.746094 81.609375 34.78125 81.660156 C 34.816406 81.707031 34.847656 81.757812 34.882812 81.804688 C 34.917969 81.855469 34.953125 81.902344 34.988281 81.949219 C 35.019531 82 35.054688 82.046875 35.089844 82.097656 C 35.125 82.144531 35.15625 82.191406 35.191406 82.242188 C 35.226562 82.289062 35.261719 82.335938 35.292969 82.382812 C 35.328125 82.433594 35.363281 82.480469 35.398438 82.527344 C 35.433594 82.574219 35.464844 82.621094 35.5 82.671875 C 35.535156 82.71875 35.570312 82.765625 35.601562 82.8125 C 35.636719 82.859375 35.671875 82.90625 35.707031 82.953125 C 35.738281 83 35.773438 83.046875 35.808594 83.09375 C 35.84375 83.140625 35.875 83.1875 35.910156 83.234375 C 35.945312 83.28125 35.980469 83.328125 36.015625 83.375 C 36.046875 83.417969 36.082031 83.464844 36.117188 83.511719 C 36.152344 83.558594 36.183594 83.605469 36.21875 83.648438 C 36.253906 83.695312 36.289062 83.742188 36.320312 83.789062 C 36.355469 83.832031 36.390625 83.878906 36.425781 83.921875 C 36.457031 83.96875 36.492188 84.015625 36.527344 84.058594 C 36.5625 84.105469 36.597656 84.148438 36.628906 84.195312 C 36.664062 84.238281 36.699219 84.285156 36.734375 84.328125 C 36.765625 84.375 36.800781 84.417969 36.835938 84.464844 C 36.871094 84.507812 36.902344 84.550781 36.9375 84.597656 C 36.972656 84.640625 37.007812 84.6875 37.039062 84.730469 C 37.074219 84.773438 37.109375 84.816406 37.144531 84.863281 C 37.179688 84.90625 37.210938 84.949219 37.246094 84.992188 C 37.28125 85.035156 37.316406 85.082031 37.347656 85.125 C 37.382812 85.167969 37.417969 85.210938 37.453125 85.253906 C 37.484375 85.296875 37.519531 85.339844 37.554688 85.382812 C 37.589844 85.425781 37.625 85.46875 37.65625 85.511719 C 37.691406 85.554688 37.726562 85.597656 37.761719 85.640625 C 37.792969 85.683594 37.828125 85.726562 37.863281 85.765625 C 37.898438 85.808594 37.929688 85.851562 37.964844 85.894531 C 38 85.9375 38.035156 85.976562 38.066406 86.019531 C 38.101562 86.0625 38.136719 86.105469 38.171875 86.144531 C 38.207031 86.1875 38.238281 86.230469 38.273438 86.269531 C 38.308594 86.3125 38.34375 86.351562 38.375 86.394531 C 38.410156 86.4375 38.445312 86.476562 38.480469 86.519531 C 38.511719 86.558594 38.546875 86.601562 38.582031 86.640625 C 38.617188 86.679688 38.648438 86.722656 38.683594 86.761719 C 38.71875 86.804688 38.753906 86.84375 38.789062 86.882812 C 38.820312 86.925781 38.855469 86.964844 38.890625 87.003906 C 38.925781 87.046875 38.957031 87.085938 38.992188 87.125 C 39.027344 87.164062 39.0625 87.203125 39.09375 87.246094 C 39.128906 87.285156 39.164062 87.324219 39.199219 87.363281 C 39.230469 87.402344 39.265625 87.441406 39.300781 87.480469 C 39.335938 87.519531 39.371094 87.558594 39.402344 87.597656 C 39.4375 87.636719 39.472656 87.675781 39.507812 87.714844 C 39.539062 87.753906 39.574219 87.792969 39.609375 87.832031 C 39.644531 87.871094 39.675781 87.910156 39.710938 87.949219 C 39.746094 87.984375 39.78125 88.023438 39.816406 88.0625 C 39.847656 88.101562 39.882812 88.136719 39.917969 88.175781 C 39.953125 88.214844 39.984375 88.253906 40.019531 88.289062 C 40.054688 88.328125 40.089844 88.367188 40.121094 88.402344 C 40.15625 88.441406 40.191406 88.476562 40.226562 88.515625 C 40.257812 88.550781 40.292969 88.589844 40.328125 88.625 C 40.363281 88.664062 40.398438 88.699219 40.429688 88.738281 C 40.464844 88.773438 40.5 88.8125 40.535156 88.847656 C 40.566406 88.882812 40.601562 88.921875 40.636719 88.957031 C 40.671875 88.992188 40.703125 89.03125 40.738281 89.066406 C 40.773438 89.101562 40.808594 89.136719 40.839844 89.175781 C 40.875 89.210938 40.910156 89.246094 40.945312 89.28125 C 40.980469 89.316406 41.011719 89.355469 41.046875 89.390625 C 41.082031 89.425781 41.117188 89.460938 41.148438 89.496094 C 41.183594 89.53125 41.21875 89.566406 41.253906 89.601562 C 41.285156 89.636719 41.320312 89.671875 41.355469 89.707031 C 41.390625 89.742188 41.421875 89.777344 41.457031 89.808594 C 41.492188 89.84375 41.527344 89.878906 41.5625 89.914062 C 41.59375 89.949219 41.628906 89.984375 41.664062 90.015625 C 41.699219 90.050781 41.730469 90.085938 41.765625 90.117188 C 41.800781 90.152344 41.835938 90.1875 41.867188 90.21875 C 41.902344 90.253906 41.9375 90.289062 41.972656 90.320312 C 42.007812 90.355469 42.039062 90.386719 42.074219 90.421875 C 42.109375 90.457031 42.144531 90.488281 42.175781 90.523438 C 42.210938 90.554688 42.246094 90.585938 42.28125 90.621094 C 42.3125 90.652344 42.347656 90.6875 42.382812 90.71875 C 42.417969 90.75 42.449219 90.785156 42.484375 90.816406 C 42.519531 90.847656 42.554688 90.882812 42.589844 90.914062 C 42.621094 90.945312 42.65625 90.976562 42.691406 91.011719 C 42.726562 91.042969 42.757812 91.074219 42.792969 91.105469 C 42.828125 91.136719 42.863281 91.167969 42.894531 91.199219 C 42.929688 91.234375 42.964844 91.265625 43 91.296875 C 43.03125 91.328125 43.066406 91.359375 43.101562 91.390625 C 43.136719 91.421875 43.171875 91.449219 43.203125 91.480469 C 43.238281 91.511719 43.273438 91.542969 43.308594 91.574219 C 43.339844 91.605469 43.375 91.636719 43.410156 91.667969 C 43.445312 91.695312 43.476562 91.726562 43.511719 91.757812 C 43.546875 91.789062 43.582031 91.816406 43.613281 91.847656 C 43.648438 91.878906 43.683594 91.90625 43.71875 91.9375 C 43.753906 91.96875 43.785156 91.996094 43.820312 92.027344 C 43.855469 92.054688 43.890625 92.085938 43.921875 92.113281 C 43.957031 92.144531 43.992188 92.171875 44.027344 92.203125 C 44.058594 92.230469 44.09375 92.261719 44.128906 92.289062 C 44.164062 92.320312 44.199219 92.347656 44.230469 92.375 C 44.265625 92.40625 44.300781 92.433594 44.335938 92.460938 C 44.367188 92.492188 44.402344 92.519531 44.4375 92.546875 C 44.472656 92.574219 44.503906 92.605469 44.539062 92.632812 C 44.574219 92.660156 44.609375 92.6875 44.640625 92.714844 C 44.675781 92.742188 44.710938 92.769531 44.746094 92.800781 C 44.78125 92.828125 44.8125 92.855469 44.847656 92.882812 C 44.882812 92.910156 44.917969 92.9375 44.949219 92.964844 C 44.984375 92.992188 45.019531 93.015625 45.054688 93.042969 C 45.085938 93.070312 45.121094 93.097656 45.15625 93.125 C 45.191406 93.152344 45.222656 93.179688 45.257812 93.203125 C 45.292969 93.230469 45.328125 93.257812 45.363281 93.285156 C 45.394531 93.308594 45.429688 93.335938 45.464844 93.363281 C 45.5 93.386719 45.53125 93.414062 45.566406 93.441406 C 45.601562 93.464844 45.636719 93.492188 45.667969 93.519531 C 45.703125 93.542969 45.738281 93.570312 45.773438 93.59375 C 45.804688 93.621094 45.839844 93.644531 45.875 93.671875 C 45.910156 93.695312 45.945312 93.71875 45.976562 93.746094 C 46.011719 93.769531 46.046875 93.796875 46.082031 93.820312 C 46.113281 93.84375 46.148438 93.871094 46.183594 93.894531 C 46.21875 93.917969 46.25 93.941406 46.285156 93.96875 C 46.320312 93.992188 46.355469 94.015625 46.390625 94.039062 C 46.421875 94.0625 46.457031 94.085938 46.492188 94.113281 C 46.527344 94.136719 46.558594 94.160156 46.59375 94.183594 C 46.628906 94.207031 46.664062 94.230469 46.695312 94.253906 C 46.730469 94.277344 46.765625 94.300781 46.800781 94.324219 C 46.832031 94.347656 46.867188 94.371094 46.902344 94.394531 C 46.9375 94.414062 46.972656 94.4375 47.003906 94.460938 C 47.039062 94.484375 47.074219 94.507812 47.109375 94.53125 C 47.140625 94.550781 47.175781 94.574219 47.210938 94.597656 C 47.246094 94.621094 47.277344 94.640625 47.3125 94.664062 C 47.347656 94.683594 47.382812 94.707031 47.414062 94.730469 C 47.449219 94.75 47.484375 94.773438 47.519531 94.792969 C 47.554688 94.816406 47.585938 94.839844 47.621094 94.859375 C 47.65625 94.882812 47.691406 94.902344 47.722656 94.921875 C 47.757812 94.945312 47.792969 94.964844 47.828125 94.988281 C 47.859375 95.007812 47.894531 95.027344 47.929688 95.050781 C 47.964844 95.070312 47.996094 95.089844 48.03125 95.113281 C 48.066406 95.132812 48.101562 95.152344 48.136719 95.171875 C 48.167969 95.195312 48.203125 95.214844 48.238281 95.234375 C 48.273438 95.253906 48.304688 95.273438 48.339844 95.292969 C 48.375 95.3125 48.410156 95.332031 48.441406 95.351562 C 48.476562 95.371094 48.511719 95.394531 48.546875 95.410156 C 48.582031 95.429688 48.613281 95.449219 48.648438 95.46875 C 48.683594 95.488281 48.71875 95.507812 48.75 95.527344 C 48.785156 95.546875 48.820312 95.566406 48.855469 95.585938 C 48.886719 95.601562 48.921875 95.621094 48.957031 95.640625 C 48.992188 95.660156 49.023438 95.675781 49.058594 95.695312 C 49.09375 95.714844 49.128906 95.734375 49.164062 95.75 C 49.195312 95.769531 49.230469 95.785156 49.265625 95.804688 C 49.300781 95.824219 49.332031 95.839844 49.367188 95.859375 C 49.402344 95.875 49.4375 95.894531 49.46875 95.910156 C 49.503906 95.929688 49.539062 95.945312 49.574219 95.964844 C 49.605469 95.980469 49.640625 95.996094 49.675781 96.015625 C 49.710938 96.03125 49.746094 96.046875 49.777344 96.066406 C 49.8125 96.082031 49.847656 96.097656 49.882812 96.117188 C 49.914062 96.132812 49.949219 96.148438 49.984375 96.164062 C 50.019531 96.179688 50.050781 96.199219 50.085938 96.214844 C 50.121094 96.230469 50.15625 96.246094 50.1875 96.261719 C 50.222656 96.277344 50.257812 96.292969 50.292969 96.308594 C 50.328125 96.324219 50.359375 96.339844 50.394531 96.355469 C 50.429688 96.371094 50.464844 96.386719 50.496094 96.402344 C 50.53125 96.417969 50.566406 96.433594 50.601562 96.449219 C 50.632812 96.464844 50.667969 96.476562 50.703125 96.492188 C 50.738281 96.507812 50.773438 96.523438 50.804688 96.539062 C 50.839844 96.550781 50.875 96.566406 50.910156 96.582031 C 50.941406 96.59375 50.976562 96.609375 51.011719 96.625 C 51.046875 96.636719 51.078125 96.652344 51.113281 96.667969 C 51.148438 96.679688 51.183594 96.695312 51.214844 96.707031 C 51.25 96.722656 51.285156 96.734375 51.320312 96.75 C 51.355469 96.761719 51.386719 96.777344 51.421875 96.789062 C 51.457031 96.800781 51.492188 96.816406 51.523438 96.828125 C 51.558594 96.839844 51.59375 96.855469 51.628906 96.867188 C 51.660156 96.878906 51.695312 96.894531 51.730469 96.90625 C 51.765625 96.917969 51.796875 96.929688 51.832031 96.945312 C 51.867188 96.957031 51.902344 96.96875 51.9375 96.980469 C 51.96875 96.992188 52.003906 97.003906 52.039062 97.015625 C 52.074219 97.027344 52.105469 97.039062 52.140625 97.050781 C 52.175781 97.0625 52.210938 97.074219 52.242188 97.085938 C 52.277344 97.097656 52.3125 97.109375 52.347656 97.121094 C 52.378906 97.132812 52.414062 97.144531 52.449219 97.15625 C 52.484375 97.167969 52.519531 97.175781 52.550781 97.1875 C 52.585938 97.199219 52.621094 97.210938 52.65625 97.21875 C 52.6875 97.230469 52.722656 97.242188 52.757812 97.253906 C 52.792969 97.261719 52.824219 97.273438 52.859375 97.285156 C 52.894531 97.292969 52.929688 97.304688 52.964844 97.3125 C 52.996094 97.324219 53.03125 97.332031 53.066406 97.34375 C 53.101562 97.351562 53.132812 97.363281 53.167969 97.371094 C 53.203125 97.382812 53.238281 97.390625 53.269531 97.402344 C 53.304688 97.410156 53.339844 97.417969 53.375 97.429688 C 53.40625 97.4375 53.441406 97.445312 53.476562 97.457031 C 53.511719 97.464844 53.546875 97.472656 53.578125 97.480469 C 53.613281 97.492188 53.648438 97.5 53.683594 97.507812 C 53.714844 97.515625 53.75 97.523438 53.785156 97.53125 C 53.820312 97.539062 53.851562 97.550781 53.886719 97.558594 C 53.921875 97.566406 53.957031 97.574219 53.988281 97.582031 C 54.023438 97.589844 54.058594 97.597656 54.09375 97.605469 C 54.128906 97.609375 54.160156 97.617188 54.195312 97.625 C 54.230469 97.632812 54.265625 97.640625 54.296875 97.648438 C 54.332031 97.65625 54.367188 97.664062 54.402344 97.667969 C 54.433594 97.675781 54.46875 97.683594 54.503906 97.691406 C 54.539062 97.695312 54.570312 97.703125 54.605469 97.710938 C 54.640625 97.714844 54.675781 97.722656 54.710938 97.730469 C 54.742188 97.734375 54.777344 97.742188 54.8125 97.746094 C 54.847656 97.753906 54.878906 97.757812 54.914062 97.765625 C 54.949219 97.769531 54.984375 97.777344 55.015625 97.78125 C 55.050781 97.789062 55.085938 97.792969 55.121094 97.796875 C 55.15625 97.804688 55.1875 97.808594 55.222656 97.816406 C 55.257812 97.820312 55.292969 97.824219 55.324219 97.828125 C 55.359375 97.835938 55.394531 97.839844 55.429688 97.84375 C 55.460938 97.847656 55.496094 97.855469 55.53125 97.859375 C 55.566406 97.863281 55.597656 97.867188 55.632812 97.871094 C 55.667969 97.875 55.703125 97.878906 55.738281 97.882812 C 55.769531 97.886719 55.804688 97.890625 55.839844 97.894531 C 55.875 97.898438 55.90625 97.902344 55.941406 97.90625 C 55.976562 97.910156 56.011719 97.914062 56.042969 97.917969 C 56.078125 97.921875 56.113281 97.925781 56.148438 97.925781 C 56.179688 97.929688 56.214844 97.933594 56.25 97.9375 C 56.285156 97.941406 56.320312 97.941406 56.351562 97.945312 C 56.386719 97.949219 56.421875 97.949219 56.457031 97.953125 L 56.558594 97.960938 C 56.59375 97.960938 56.625 97.964844 56.660156 97.96875 C 56.695312 97.96875 56.730469 97.972656 56.765625 97.972656 C 56.796875 97.972656 56.832031 97.976562 56.867188 97.976562 L 56.96875 97.984375 C 57.003906 97.984375 57.039062 97.984375 57.070312 97.988281 C 57.105469 97.988281 57.140625 97.988281 57.175781 97.988281 L 57.277344 97.992188 C 57.3125 97.992188 57.347656 97.992188 57.378906 97.992188 C 57.414062 97.996094 57.449219 97.996094 57.484375 97.996094 C 57.515625 97.996094 57.550781 97.996094 57.585938 97.996094 C 57.621094 97.996094 57.652344 97.996094 57.6875 97.996094 C 57.722656 97.996094 57.757812 97.996094 57.789062 97.996094 C 57.824219 97.996094 57.859375 97.996094 57.894531 97.992188 C 57.929688 97.992188 57.960938 97.992188 57.996094 97.992188 C 58.03125 97.992188 58.066406 97.992188 58.097656 97.988281 C 58.132812 97.988281 58.167969 97.988281 58.203125 97.988281 C 58.234375 97.984375 58.269531 97.984375 58.304688 97.984375 L 58.40625 97.976562 C 58.441406 97.976562 58.476562 97.976562 58.511719 97.972656 C 58.542969 97.972656 58.578125 97.96875 58.613281 97.96875 C 58.648438 97.964844 58.679688 97.960938 58.714844 97.960938 L 58.816406 97.953125 C 58.851562 97.949219 58.886719 97.949219 58.921875 97.945312 C 58.957031 97.941406 58.988281 97.941406 59.023438 97.9375 C 59.058594 97.933594 59.09375 97.929688 59.125 97.925781 C 59.160156 97.925781 59.195312 97.921875 59.230469 97.917969 C 59.261719 97.914062 59.296875 97.910156 59.332031 97.90625 C 59.367188 97.902344 59.398438 97.898438 59.433594 97.894531 C 59.46875 97.890625 59.503906 97.886719 59.539062 97.882812 C 59.570312 97.878906 59.605469 97.875 59.640625 97.871094 C 59.675781 97.867188 59.707031 97.863281 59.742188 97.859375 C 59.777344 97.851562 59.8125 97.847656 59.84375 97.84375 C 59.878906 97.839844 59.914062 97.835938 59.949219 97.828125 C 59.980469 97.824219 60.015625 97.820312 60.050781 97.816406 C 60.085938 97.808594 60.121094 97.804688 60.152344 97.796875 C 60.1875 97.792969 60.222656 97.789062 60.257812 97.78125 C 60.289062 97.777344 60.324219 97.769531 60.359375 97.765625 C 60.394531 97.757812 60.425781 97.753906 60.460938 97.746094 C 60.496094 97.742188 60.53125 97.734375 60.5625 97.730469 C 60.597656 97.722656 60.632812 97.714844 60.667969 97.710938 C 60.703125 97.703125 60.734375 97.695312 60.769531 97.691406 C 60.804688 97.683594 60.839844 97.675781 60.871094 97.667969 C 60.90625 97.664062 60.941406 97.65625 60.976562 97.648438 C 61.007812 97.640625 61.042969 97.632812 61.078125 97.625 C 61.113281 97.621094 61.148438 97.613281 61.179688 97.605469 C 61.214844 97.597656 61.25 97.589844 61.285156 97.582031 C 61.316406 97.574219 61.351562 97.566406 61.386719 97.558594 C 61.421875 97.550781 61.453125 97.539062 61.488281 97.53125 C 61.523438 97.523438 61.558594 97.515625 61.589844 97.507812 C 61.625 97.5 61.660156 97.492188 61.695312 97.480469 C 61.730469 97.472656 61.761719 97.464844 61.796875 97.457031 C 61.832031 97.445312 61.867188 97.4375 61.898438 97.429688 C 61.933594 97.417969 61.96875 97.410156 62.003906 97.402344 C 62.035156 97.390625 62.070312 97.382812 62.105469 97.371094 C 62.140625 97.363281 62.171875 97.351562 62.207031 97.34375 C 62.242188 97.332031 62.277344 97.324219 62.3125 97.3125 C 62.34375 97.304688 62.378906 97.292969 62.414062 97.285156 C 62.449219 97.273438 62.480469 97.261719 62.515625 97.253906 C 62.550781 97.242188 62.585938 97.230469 62.617188 97.21875 C 62.652344 97.210938 62.6875 97.199219 62.722656 97.1875 C 62.753906 97.175781 62.789062 97.167969 62.824219 97.15625 C 62.859375 97.144531 62.894531 97.132812 62.925781 97.121094 C 62.960938 97.109375 62.996094 97.097656 63.03125 97.085938 C 63.0625 97.074219 63.097656 97.0625 63.132812 97.050781 C 63.167969 97.039062 63.199219 97.027344 63.234375 97.015625 C 63.269531 97.003906 63.304688 96.992188 63.339844 96.980469 C 63.371094 96.96875 63.40625 96.957031 63.441406 96.945312 C 63.476562 96.929688 63.507812 96.917969 63.542969 96.90625 C 63.578125 96.894531 63.613281 96.878906 63.644531 96.867188 C 63.679688 96.855469 63.714844 96.839844 63.75 96.828125 C 63.78125 96.816406 63.816406 96.800781 63.851562 96.789062 C 63.886719 96.777344 63.921875 96.761719 63.953125 96.75 C 63.988281 96.734375 64.023438 96.722656 64.058594 96.707031 C 64.089844 96.695312 64.125 96.679688 64.160156 96.667969 C 64.195312 96.652344 64.226562 96.636719 64.261719 96.625 C 64.296875 96.609375 64.332031 96.59375 64.363281 96.582031 C 64.398438 96.566406 64.433594 96.550781 64.46875 96.539062 C 64.503906 96.523438 64.535156 96.507812 64.570312 96.492188 C 64.605469 96.476562 64.640625 96.464844 64.671875 96.449219 C 64.707031 96.433594 64.742188 96.417969 64.777344 96.402344 C 64.808594 96.386719 64.84375 96.371094 64.878906 96.355469 C 64.914062 96.339844 64.945312 96.324219 64.980469 96.308594 C 65.015625 96.292969 65.050781 96.277344 65.085938 96.261719 C 65.117188 96.246094 65.152344 96.230469 65.1875 96.214844 C 65.222656 96.199219 65.253906 96.179688 65.289062 96.164062 C 65.324219 96.148438 65.359375 96.132812 65.390625 96.117188 C 65.425781 96.097656 65.460938 96.082031 65.496094 96.066406 C 65.53125 96.046875 65.5625 96.03125 65.597656 96.015625 C 65.632812 95.996094 65.667969 95.980469 65.699219 95.964844 C 65.734375 95.945312 65.769531 95.929688 65.804688 95.910156 C 65.835938 95.894531 65.871094 95.875 65.90625 95.859375 C 65.941406 95.839844 65.972656 95.824219 66.007812 95.804688 C 66.042969 95.785156 66.078125 95.769531 66.113281 95.75 C 66.144531 95.734375 66.179688 95.714844 66.214844 95.695312 C 66.25 95.675781 66.28125 95.660156 66.316406 95.640625 C 66.351562 95.621094 66.386719 95.601562 66.417969 95.585938 C 66.453125 95.566406 66.488281 95.546875 66.523438 95.527344 C 66.554688 95.507812 66.589844 95.488281 66.625 95.46875 C 66.660156 95.449219 66.695312 95.429688 66.726562 95.410156 C 66.761719 95.394531 66.796875 95.371094 66.832031 95.351562 C 66.863281 95.332031 66.898438 95.3125 66.933594 95.292969 C 66.96875 95.273438 67 95.253906 67.035156 95.234375 C 67.070312 95.214844 67.105469 95.195312 67.136719 95.171875 C 67.171875 95.152344 67.207031 95.132812 67.242188 95.113281 C 67.277344 95.089844 67.308594 95.070312 67.34375 95.050781 C 67.378906 95.027344 67.414062 95.007812 67.445312 94.988281 C 67.480469 94.964844 67.515625 94.945312 67.550781 94.921875 C 67.582031 94.902344 67.617188 94.882812 67.652344 94.859375 C 67.6875 94.839844 67.722656 94.816406 67.753906 94.792969 C 67.789062 94.773438 67.824219 94.75 67.859375 94.730469 C 67.890625 94.707031 67.925781 94.683594 67.960938 94.664062 C 67.996094 94.640625 68.027344 94.621094 68.0625 94.597656 C 68.097656 94.574219 68.132812 94.550781 68.164062 94.53125 C 68.199219 94.507812 68.234375 94.484375 68.269531 94.460938 C 68.304688 94.4375 68.335938 94.414062 68.371094 94.394531 C 68.40625 94.371094 68.441406 94.347656 68.472656 94.324219 C 68.507812 94.300781 68.542969 94.277344 68.578125 94.253906 C 68.609375 94.230469 68.644531 94.207031 68.679688 94.183594 C 68.714844 94.160156 68.746094 94.136719 68.78125 94.113281 C 68.816406 94.085938 68.851562 94.0625 68.886719 94.039062 C 68.917969 94.015625 68.953125 93.992188 68.988281 93.96875 C 69.023438 93.941406 69.054688 93.917969 69.089844 93.894531 C 69.125 93.871094 69.160156 93.84375 69.191406 93.820312 C 69.226562 93.796875 69.261719 93.769531 69.296875 93.746094 C 69.328125 93.71875 69.363281 93.695312 69.398438 93.671875 C 69.433594 93.644531 69.46875 93.621094 69.5 93.59375 C 69.535156 93.570312 69.570312 93.542969 69.605469 93.519531 C 69.636719 93.492188 69.671875 93.464844 69.707031 93.441406 C 69.742188 93.414062 69.773438 93.386719 69.808594 93.363281 C 69.84375 93.335938 69.878906 93.308594 69.914062 93.285156 C 69.945312 93.257812 69.980469 93.230469 70.015625 93.203125 C 70.050781 93.179688 70.082031 93.152344 70.117188 93.125 C 70.152344 93.097656 70.1875 93.070312 70.21875 93.042969 C 70.253906 93.015625 70.289062 92.992188 70.324219 92.964844 C 70.355469 92.9375 70.390625 92.910156 70.425781 92.882812 C 70.460938 92.855469 70.496094 92.828125 70.527344 92.800781 C 70.5625 92.769531 70.597656 92.742188 70.632812 92.714844 C 70.664062 92.6875 70.699219 92.660156 70.734375 92.632812 C 70.769531 92.605469 70.800781 92.574219 70.835938 92.546875 C 70.871094 92.519531 70.90625 92.492188 70.9375 92.460938 C 70.972656 92.433594 71.007812 92.40625 71.042969 92.375 C 71.078125 92.347656 71.109375 92.320312 71.144531 92.289062 C 71.179688 92.261719 71.214844 92.230469 71.246094 92.203125 C 71.28125 92.171875 71.316406 92.144531 71.351562 92.113281 C 71.382812 92.085938 71.417969 92.054688 71.453125 92.027344 C 71.488281 91.996094 71.519531 91.96875 71.554688 91.9375 C 71.589844 91.90625 71.625 91.878906 71.660156 91.847656 C 71.691406 91.816406 71.726562 91.789062 71.761719 91.757812 C 71.796875 91.726562 71.828125 91.695312 71.863281 91.667969 C 71.898438 91.636719 71.933594 91.605469 71.964844 91.574219 C 72 91.542969 72.035156 91.511719 72.070312 91.480469 C 72.105469 91.449219 72.136719 91.421875 72.171875 91.390625 C 72.207031 91.359375 72.242188 91.328125 72.273438 91.296875 C 72.308594 91.265625 72.34375 91.234375 72.378906 91.199219 C 72.410156 91.167969 72.445312 91.136719 72.480469 91.105469 C 72.515625 91.074219 72.546875 91.042969 72.582031 91.011719 C 72.617188 90.976562 72.652344 90.945312 72.6875 90.914062 C 72.71875 90.882812 72.753906 90.847656 72.789062 90.816406 C 72.824219 90.785156 72.855469 90.75 72.890625 90.71875 C 72.925781 90.6875 72.960938 90.652344 72.992188 90.621094 C 73.027344 90.585938 73.0625 90.554688 73.097656 90.523438 C 73.128906 90.488281 73.164062 90.457031 73.199219 90.421875 C 73.234375 90.386719 73.269531 90.355469 73.300781 90.320312 C 73.335938 90.289062 73.371094 90.253906 73.40625 90.21875 C 73.4375 90.1875 73.472656 90.152344 73.507812 90.117188 C 73.542969 90.085938 73.574219 90.050781 73.609375 90.015625 C 73.644531 89.984375 73.679688 89.949219 73.710938 89.914062 C 73.746094 89.878906 73.78125 89.84375 73.816406 89.808594 C 73.851562 89.777344 73.882812 89.742188 73.917969 89.707031 C 73.953125 89.671875 73.988281 89.636719 74.019531 89.601562 C 74.054688 89.566406 74.089844 89.53125 74.125 89.496094 C 74.15625 89.460938 74.191406 89.425781 74.226562 89.390625 C 74.261719 89.351562 74.296875 89.316406 74.328125 89.28125 C 74.363281 89.246094 74.398438 89.210938 74.433594 89.175781 C 74.464844 89.136719 74.5 89.101562 74.535156 89.066406 C 74.570312 89.03125 74.601562 88.992188 74.636719 88.957031 C 74.671875 88.921875 74.707031 88.882812 74.738281 88.847656 C 74.773438 88.8125 74.808594 88.773438 74.84375 88.738281 C 74.878906 88.699219 74.910156 88.664062 74.945312 88.625 C 74.980469 88.589844 75.015625 88.550781 75.046875 88.515625 C 75.082031 88.476562 75.117188 88.441406 75.152344 88.402344 C 75.183594 88.367188 75.21875 88.328125 75.253906 88.289062 C 75.289062 88.253906 75.320312 88.214844 75.355469 88.175781 C 75.390625 88.136719 75.425781 88.101562 75.460938 88.0625 C 75.492188 88.023438 75.527344 87.984375 75.5625 87.949219 C 75.597656 87.910156 75.628906 87.871094 75.664062 87.832031 C 75.699219 87.792969 75.734375 87.753906 75.765625 87.714844 C 75.800781 87.675781 75.835938 87.636719 75.871094 87.597656 C 75.90625 87.558594 75.9375 87.519531 75.972656 87.480469 C 76.007812 87.441406 76.042969 87.402344 76.074219 87.363281 C 76.109375 87.324219 76.144531 87.285156 76.179688 87.246094 C 76.210938 87.203125 76.246094 87.164062 76.28125 87.125 C 76.316406 87.085938 76.347656 87.046875 76.382812 87.003906 C 76.417969 86.964844 76.453125 86.925781 76.488281 86.882812 C 76.519531 86.84375 76.554688 86.804688 76.589844 86.761719 C 76.625 86.722656 76.65625 86.679688 76.691406 86.640625 C 76.726562 86.601562 76.761719 86.558594 76.792969 86.519531 C 76.828125 86.476562 76.863281 86.4375 76.898438 86.394531 C 76.929688 86.351562 76.964844 86.3125 77 86.269531 C 77.035156 86.230469 77.070312 86.1875 77.101562 86.144531 C 77.136719 86.105469 77.171875 86.0625 77.207031 86.019531 C 77.238281 85.976562 77.273438 85.9375 77.308594 85.894531 C 77.34375 85.851562 77.375 85.808594 77.410156 85.765625 C 77.445312 85.726562 77.480469 85.683594 77.511719 85.640625 C 77.546875 85.597656 77.582031 85.554688 77.617188 85.511719 C 77.652344 85.46875 77.683594 85.425781 77.71875 85.382812 C 77.753906 85.339844 77.789062 85.296875 77.820312 85.253906 C 77.855469 85.210938 77.890625 85.167969 77.925781 85.125 C 77.957031 85.082031 77.992188 85.035156 78.027344 84.992188 C 78.0625 84.949219 78.097656 84.90625 78.128906 84.863281 C 78.164062 84.816406 78.199219 84.773438 78.234375 84.730469 C 78.265625 84.6875 78.300781 84.640625 78.335938 84.597656 C 78.371094 84.550781 78.402344 84.507812 78.4375 84.464844 C 78.472656 84.417969 78.507812 84.375 78.539062 84.328125 C 78.574219 84.285156 78.609375 84.238281 78.644531 84.195312 C 78.679688 84.148438 78.710938 84.105469 78.746094 84.058594 C 78.78125 84.015625 78.816406 83.96875 78.847656 83.921875 C 78.882812 83.878906 78.917969 83.832031 78.953125 83.789062 C 78.984375 83.742188 79.019531 83.695312 79.054688 83.648438 C 79.089844 83.605469 79.121094 83.558594 79.15625 83.511719 C 79.191406 83.464844 79.226562 83.417969 79.261719 83.375 C 79.292969 83.328125 79.328125 83.28125 79.363281 83.234375 C 79.398438 83.1875 79.429688 83.140625 79.464844 83.09375 C 79.5 83.046875 79.535156 83 79.566406 82.953125 C 79.601562 82.90625 79.636719 82.859375 79.671875 82.8125 C 79.703125 82.765625 79.738281 82.71875 79.773438 82.671875 C 79.808594 82.621094 79.84375 82.574219 79.875 82.527344 C 79.910156 82.480469 79.945312 82.433594 79.980469 82.382812 C 80.011719 82.335938 80.046875 82.289062 80.082031 82.242188 C 80.117188 82.191406 80.148438 82.144531 80.183594 82.097656 C 80.21875 82.046875 80.253906 82 80.289062 81.949219 C 80.320312 81.902344 80.355469 81.855469 80.390625 81.804688 C 80.425781 81.757812 80.457031 81.707031 80.492188 81.660156 C 80.527344 81.609375 80.5625 81.558594 80.59375 81.511719 C 80.628906 81.460938 80.664062 81.414062 80.699219 81.363281 C 80.730469 81.3125 80.765625 81.265625 80.800781 81.214844 C 80.835938 81.164062 80.871094 81.117188 80.902344 81.066406 C 80.9375 81.015625 80.972656 80.964844 81.007812 80.914062 C 81.039062 80.867188 81.074219 80.816406 81.109375 80.765625 C 81.144531 80.714844 81.175781 80.664062 81.210938 80.613281 C 81.246094 80.5625 81.28125 80.511719 81.3125 80.460938 C 81.347656 80.410156 81.382812 80.359375 81.417969 80.308594 C 81.453125 80.257812 81.484375 80.207031 81.519531 80.15625 C 81.554688 80.105469 81.589844 80.054688 81.621094 80.003906 C 81.65625 79.953125 81.691406 79.898438 81.726562 79.847656 C 81.757812 79.796875 81.792969 79.746094 81.828125 79.695312 C 81.863281 79.640625 81.894531 79.589844 81.929688 79.539062 C 81.964844 79.484375 82 79.433594 82.035156 79.382812 C 82.066406 79.328125 82.101562 79.277344 82.136719 79.222656 C 82.171875 79.171875 82.203125 79.121094 82.238281 79.066406 C 82.273438 79.015625 82.308594 78.960938 82.339844 78.90625 C 82.375 78.855469 82.410156 78.800781 82.445312 78.75 C 82.480469 78.695312 82.511719 78.644531 82.546875 78.589844 C 82.582031 78.535156 82.617188 78.484375 82.648438 78.429688 C 82.683594 78.375 82.71875 78.320312 82.753906 78.269531 C 82.785156 78.214844 82.820312 78.160156 82.855469 78.105469 C 82.890625 78.050781 82.921875 77.996094 82.957031 77.945312 C 82.992188 77.890625 83.027344 77.835938 83.0625 77.78125 C 83.09375 77.726562 83.128906 77.671875 83.164062 77.617188 C 83.199219 77.5625 83.230469 77.507812 83.265625 77.453125 C 83.300781 77.398438 83.335938 77.34375 83.367188 77.289062 C 83.402344 77.234375 83.4375 77.175781 83.472656 77.121094 C 83.503906 77.066406 83.539062 77.011719 83.574219 76.957031 C 83.609375 76.898438 83.644531 76.84375 83.675781 76.789062 C 83.710938 76.734375 83.746094 76.675781 83.78125 76.621094 C 83.8125 76.566406 83.847656 76.507812 83.882812 76.453125 C 83.917969 76.394531 83.949219 76.339844 83.984375 76.285156 C 84.019531 76.226562 84.054688 76.171875 84.085938 76.113281 C 84.121094 76.058594 84.15625 76 84.191406 75.945312 C 84.226562 75.886719 84.257812 75.828125 84.292969 75.773438 C 84.328125 75.714844 84.363281 75.660156 84.394531 75.601562 C 84.429688 75.542969 84.464844 75.488281 84.5 75.429688 C 84.53125 75.371094 84.566406 75.3125 84.601562 75.257812 C 84.636719 75.199219 84.671875 75.140625 84.703125 75.082031 C 84.738281 75.023438 84.773438 74.964844 84.808594 74.90625 C 84.839844 74.851562 84.875 74.792969 84.910156 74.734375 C 84.945312 74.675781 84.976562 74.617188 85.011719 74.558594 C 85.046875 74.5 85.082031 74.441406 85.113281 74.382812 C 85.148438 74.324219 85.183594 74.261719 85.21875 74.203125 C 85.253906 74.144531 85.285156 74.085938 85.320312 74.027344 C 85.355469 73.96875 85.390625 73.910156 85.421875 73.847656 C 85.457031 73.789062 85.492188 73.730469 85.527344 73.667969 C 85.558594 73.609375 85.59375 73.550781 85.628906 73.492188 C 85.664062 73.429688 85.695312 73.371094 85.730469 73.308594 C 85.765625 73.25 85.800781 73.191406 85.835938 73.128906 C 85.867188 73.070312 85.902344 73.007812 85.9375 72.949219 C 85.972656 72.886719 86.003906 72.828125 86.039062 72.765625 C 86.074219 72.703125 86.109375 72.644531 86.140625 72.582031 C 86.175781 72.523438 86.210938 72.460938 86.246094 72.398438 C 86.277344 72.339844 86.3125 72.277344 86.347656 72.214844 C 86.382812 72.152344 86.417969 72.09375 86.449219 72.03125 C 86.484375 71.96875 86.519531 71.90625 86.554688 71.84375 C 86.585938 71.78125 86.621094 71.722656 86.65625 71.660156 C 86.691406 71.597656 86.722656 71.535156 86.757812 71.472656 C 86.792969 71.410156 86.828125 71.347656 86.863281 71.285156 C 86.894531 71.222656 86.929688 71.160156 86.964844 71.097656 C 87 71.035156 87.03125 70.96875 87.066406 70.90625 C 87.101562 70.84375 87.136719 70.78125 87.167969 70.71875 C 87.203125 70.65625 87.238281 70.589844 87.273438 70.527344 C 87.304688 70.464844 87.339844 70.402344 87.375 70.335938 C 87.410156 70.273438 87.445312 70.210938 87.476562 70.144531 C 87.511719 70.082031 87.546875 70.019531 87.582031 69.953125 C 87.613281 69.890625 87.648438 69.824219 87.683594 69.761719 C 87.71875 69.695312 87.75 69.632812 87.785156 69.566406 C 87.820312 69.503906 87.855469 69.4375 87.886719 69.375 C 87.921875 69.308594 87.957031 69.242188 87.992188 69.179688 C 88.027344 69.113281 88.058594 69.046875 88.09375 68.984375 C 88.128906 68.917969 88.164062 68.851562 88.195312 68.789062 C 88.230469 68.722656 88.265625 68.65625 88.300781 68.589844 C 88.332031 68.523438 88.367188 68.460938 88.402344 68.394531 C 88.4375 68.328125 88.46875 68.261719 88.503906 68.195312 C 88.539062 68.128906 88.574219 68.0625 88.609375 67.996094 C 88.640625 67.929688 88.675781 67.863281 88.710938 67.796875 C 88.746094 67.730469 88.777344 67.664062 88.8125 67.597656 C 88.847656 67.53125 88.882812 67.464844 88.914062 67.398438 C 88.949219 67.328125 88.984375 67.261719 89.019531 67.195312 C 89.054688 67.128906 89.085938 67.0625 89.121094 66.992188 C 89.15625 66.925781 89.191406 66.859375 89.222656 66.789062 C 89.257812 66.722656 89.292969 66.65625 89.328125 66.585938 C 89.359375 66.519531 89.394531 66.453125 89.429688 66.382812 C 89.464844 66.316406 89.496094 66.246094 89.53125 66.179688 C 89.566406 66.109375 89.601562 66.042969 89.636719 65.972656 C 89.667969 65.90625 89.703125 65.835938 89.738281 65.769531 C 89.773438 65.699219 89.804688 65.628906 89.839844 65.5625 C 89.875 65.492188 89.910156 65.421875 89.941406 65.355469 C 89.976562 65.285156 90.011719 65.214844 90.046875 65.144531 C 90.078125 65.078125 90.113281 65.007812 90.148438 64.9375 C 90.183594 64.867188 90.21875 64.796875 90.25 64.726562 C 90.285156 64.660156 90.320312 64.589844 90.355469 64.519531 C 90.386719 64.449219 90.421875 64.378906 90.457031 64.308594 C 90.492188 64.238281 90.523438 64.167969 90.558594 64.097656 C 90.59375 64.027344 90.628906 63.957031 90.660156 63.882812 C 90.695312 63.8125 90.730469 63.742188 90.765625 63.671875 C 90.800781 63.601562 90.832031 63.53125 90.867188 63.457031 C 90.902344 63.386719 90.9375 63.316406 90.96875 63.246094 C 91.003906 63.171875 91.039062 63.101562 91.074219 63.03125 C 91.105469 62.957031 91.140625 62.886719 91.175781 62.816406 C 91.210938 62.742188 91.246094 62.671875 91.277344 62.597656 C 91.3125 62.527344 91.347656 62.457031 91.382812 62.382812 C 91.414062 62.3125 91.449219 62.238281 91.484375 62.164062 C 91.519531 62.09375 91.550781 62.019531 91.585938 61.949219 C 91.621094 61.875 91.65625 61.800781 91.6875 61.730469 C 91.722656 61.65625 91.757812 61.582031 91.792969 61.511719 C 91.828125 61.4375 91.859375 61.363281 91.894531 61.289062 C 91.929688 61.21875 91.964844 61.144531 91.996094 61.070312 C 92.03125 60.996094 92.066406 60.921875 92.101562 60.847656 C 92.132812 60.773438 92.167969 60.703125 92.203125 60.628906 C 92.238281 60.554688 92.269531 60.480469 92.304688 60.40625 C 92.339844 60.332031 92.375 60.257812 92.410156 60.183594 C 92.441406 60.105469 92.476562 60.03125 92.511719 59.957031 C 92.546875 59.882812 92.578125 59.808594 92.613281 59.734375 C 92.648438 59.660156 92.683594 59.582031 92.714844 59.507812 C 92.75 59.433594 92.785156 59.359375 92.820312 59.28125 C 92.851562 59.207031 92.886719 59.132812 92.921875 59.054688 C 92.957031 58.980469 92.992188 58.90625 93.023438 58.828125 C 93.058594 58.753906 93.09375 58.675781 93.128906 58.601562 C 93.160156 58.527344 93.195312 58.449219 93.230469 58.375 C 93.265625 58.296875 93.296875 58.21875 93.332031 58.144531 C 93.367188 58.066406 93.402344 57.992188 93.4375 57.914062 C 93.46875 57.835938 93.503906 57.761719 93.539062 57.683594 C 93.574219 57.605469 93.605469 57.53125 93.640625 57.453125 C 93.675781 57.375 93.710938 57.296875 93.742188 57.222656 C 93.777344 57.144531 93.8125 57.066406 93.847656 56.988281 C 93.878906 56.910156 93.914062 56.832031 93.949219 56.757812 C 93.984375 56.679688 94.019531 56.601562 94.050781 56.523438 C 94.085938 56.445312 94.121094 56.367188 94.15625 56.289062 C 94.1875 56.210938 94.222656 56.132812 94.257812 56.054688 C 94.292969 55.976562 94.324219 55.894531 94.359375 55.816406 C 94.394531 55.738281 94.429688 55.660156 94.460938 55.582031 C 94.496094 55.503906 94.53125 55.421875 94.566406 55.34375 C 94.601562 55.265625 94.632812 55.1875 94.667969 55.105469 C 94.703125 55.027344 94.738281 54.949219 94.769531 54.867188 C 94.804688 54.789062 94.839844 54.710938 94.875 54.628906 C 94.90625 54.550781 94.941406 54.46875 94.976562 54.390625 C 95.011719 54.308594 95.042969 54.230469 95.078125 54.148438 C 95.113281 54.070312 95.148438 53.988281 95.183594 53.910156 C 95.214844 53.828125 95.25 53.746094 95.285156 53.667969 C 95.320312 53.585938 95.351562 53.503906 95.386719 53.425781 C 95.421875 53.34375 95.457031 53.261719 95.488281 53.183594 C 95.523438 53.101562 95.558594 53.019531 95.59375 52.9375 C 95.628906 52.855469 95.660156 52.777344 95.695312 52.695312 C 95.730469 52.613281 95.765625 52.53125 95.796875 52.449219 C 95.832031 52.367188 95.867188 52.285156 95.902344 52.203125 C 95.933594 52.121094 95.96875 52.039062 96.003906 51.957031 C 96.039062 51.875 96.070312 51.792969 96.105469 51.710938 C 96.140625 51.628906 96.175781 51.546875 96.210938 51.464844 C 96.242188 51.378906 96.277344 51.296875 96.3125 51.214844 C 96.347656 51.132812 96.378906 51.050781 96.414062 50.964844 C 96.449219 50.882812 96.484375 50.800781 96.515625 50.714844 C 96.550781 50.632812 96.585938 50.550781 96.621094 50.464844 C 96.652344 50.382812 96.6875 50.300781 96.722656 50.214844 C 96.757812 50.132812 96.792969 50.046875 96.824219 49.964844 C 96.859375 49.878906 96.894531 49.796875 96.929688 49.710938 C 96.960938 49.628906 96.996094 49.542969 97.03125 49.460938 C 97.066406 49.375 97.097656 49.289062 97.132812 49.207031 C 97.167969 49.121094 97.203125 49.035156 97.234375 48.953125 C 97.269531 48.867188 97.304688 48.78125 97.339844 48.695312 C 97.375 48.613281 97.40625 48.527344 97.441406 48.441406 C 97.476562 48.355469 97.511719 48.269531 97.542969 48.183594 C 97.578125 48.101562 97.613281 48.015625 97.648438 47.929688 C 97.679688 47.84375 97.714844 47.757812 97.75 47.671875 C 97.785156 47.585938 97.820312 47.5 97.851562 47.414062 C 97.886719 47.328125 97.921875 47.242188 97.957031 47.152344 C 97.988281 47.066406 98.023438 46.980469 98.058594 46.894531 C 98.09375 46.808594 98.125 46.722656 98.160156 46.636719 C 98.195312 46.546875 98.230469 46.460938 98.261719 46.375 C 98.296875 46.285156 98.332031 46.199219 98.367188 46.113281 C 98.402344 46.027344 98.433594 45.9375 98.46875 45.851562 C 98.503906 45.761719 98.539062 45.675781 98.570312 45.589844 C 98.605469 45.5 98.640625 45.414062 98.675781 45.324219 C 98.707031 45.238281 98.742188 45.148438 98.777344 45.0625 C 98.8125 44.972656 98.84375 44.882812 98.878906 44.796875 C 98.914062 44.707031 98.949219 44.617188 98.984375 44.53125 C 99.015625 44.441406 99.050781 44.351562 99.085938 44.265625 C 99.121094 44.175781 99.152344 44.085938 99.1875 43.996094 C 99.222656 43.910156 99.257812 43.820312 99.289062 43.730469 C 99.324219 43.640625 99.359375 43.550781 99.394531 43.460938 C 99.425781 43.375 99.460938 43.285156 99.496094 43.195312 C 99.53125 43.105469 99.566406 43.015625 99.597656 42.925781 C 99.632812 42.835938 99.667969 42.746094 99.703125 42.65625 C 99.734375 42.566406 99.769531 42.472656 99.804688 42.382812 C 99.839844 42.292969 99.871094 42.203125 99.90625 42.113281 C 99.941406 42.023438 99.976562 41.929688 100.011719 41.839844 C 100.042969 41.75 100.078125 41.660156 100.113281 41.566406 C 100.148438 41.476562 100.179688 41.386719 100.214844 41.296875 C 100.25 41.203125 100.285156 41.113281 100.316406 41.019531 C 100.351562 40.929688 100.386719 40.839844 100.421875 40.746094 C 100.453125 40.65625 100.488281 40.5625 100.523438 40.472656 C 100.558594 40.378906 100.59375 40.289062 100.625 40.195312 C 100.660156 40.101562 100.695312 40.011719 100.730469 39.917969 C 100.761719 39.828125 100.796875 39.734375 100.832031 39.640625 C 100.867188 39.550781 100.898438 39.457031 100.933594 39.363281 C 100.96875 39.269531 101.003906 39.179688 101.035156 39.085938 C 101.070312 38.992188 101.105469 38.898438 101.140625 38.804688 C 101.175781 38.710938 101.207031 38.621094 101.242188 38.527344 C 101.277344 38.433594 101.3125 38.339844 101.34375 38.246094 C 101.378906 38.152344 101.414062 38.058594 101.449219 37.964844 C 101.480469 37.871094 101.515625 37.777344 101.550781 37.683594 C 101.585938 37.589844 101.617188 37.496094 101.652344 37.398438 C 101.6875 37.304688 101.722656 37.210938 101.757812 37.117188 C 101.789062 37.023438 101.824219 36.929688 101.859375 36.832031 C 101.894531 36.738281 101.925781 36.644531 101.960938 36.546875 C 101.996094 36.453125 102.03125 36.359375 102.0625 36.261719 C 102.097656 36.167969 102.132812 36.074219 102.167969 35.976562 C 102.203125 35.882812 102.234375 35.785156 102.269531 35.691406 C 102.304688 35.59375 102.339844 35.5 102.371094 35.402344 C 102.40625 35.308594 102.441406 35.210938 102.476562 35.117188 C 102.507812 35.019531 102.542969 34.925781 102.578125 34.828125 C 102.613281 34.730469 102.644531 34.636719 102.679688 34.539062 C 102.714844 34.441406 102.75 34.34375 102.785156 34.25 C 102.816406 34.152344 102.851562 34.054688 102.886719 33.957031 C 102.921875 33.863281 102.953125 33.765625 102.988281 33.667969 C 103.023438 33.570312 103.058594 33.472656 103.089844 33.375 C 103.125 33.277344 103.160156 33.179688 103.195312 33.082031 C 103.226562 32.984375 103.261719 32.886719 103.296875 32.789062 C 103.332031 32.691406 103.367188 32.59375 103.398438 32.496094 C 103.433594 32.398438 103.46875 32.300781 103.503906 32.203125 C 103.535156 32.105469 103.570312 32.003906 103.605469 31.90625 C 103.640625 31.808594 103.671875 31.710938 103.707031 31.613281 C 103.742188 31.511719 103.777344 31.414062 103.808594 31.316406 C 103.84375 31.214844 103.878906 31.117188 103.914062 31.019531 C 103.949219 30.917969 103.980469 30.820312 104.015625 30.71875 C 104.050781 30.621094 104.085938 30.523438 104.117188 30.421875 C 104.152344 30.324219 104.1875 30.222656 104.222656 30.121094 C 104.253906 30.023438 104.289062 29.921875 104.324219 29.824219 C 104.359375 29.722656 104.394531 29.625 104.425781 29.523438 C 104.460938 29.421875 104.496094 29.324219 104.53125 29.222656 C 104.5625 29.121094 104.597656 29.019531 104.632812 28.921875 C 104.667969 28.820312 104.699219 28.71875 104.734375 28.617188 C 104.769531 28.515625 104.804688 28.417969 104.835938 28.316406 C 104.871094 28.214844 104.90625 28.113281 104.941406 28.011719 C 104.976562 27.910156 105.007812 27.808594 105.042969 27.707031 C 105.078125 27.605469 105.113281 27.503906 105.144531 27.402344 C 105.179688 27.300781 105.214844 27.199219 105.25 27.097656 C 105.28125 26.996094 105.316406 26.890625 105.351562 26.789062 C 105.386719 26.6875 105.417969 26.585938 105.453125 26.484375 C 105.488281 26.382812 105.523438 26.277344 105.558594 26.175781 C 105.589844 26.074219 105.625 25.96875 105.660156 25.867188 C 105.695312 25.765625 105.726562 25.660156 105.761719 25.558594 C 105.796875 25.457031 105.832031 25.351562 105.863281 25.25 C 105.898438 25.144531 105.933594 25.042969 105.96875 24.9375 C 106.003906 24.835938 106.035156 24.730469 106.070312 24.628906 C 106.105469 24.523438 106.140625 24.421875 106.171875 24.316406 C 106.207031 24.210938 106.242188 24.109375 106.277344 24.003906 C 106.308594 23.898438 106.34375 23.796875 106.378906 23.691406 C 106.414062 23.585938 106.445312 23.484375 106.480469 23.378906 C 106.515625 23.273438 106.550781 23.167969 106.585938 23.0625 C 106.617188 22.957031 106.652344 22.855469 106.6875 22.75 C 106.722656 22.644531 106.753906 22.539062 106.789062 22.433594 C 106.824219 22.328125 106.859375 22.222656 106.890625 22.117188 C 106.925781 22.011719 106.960938 21.90625 106.996094 21.800781 C 107.027344 21.695312 107.0625 21.589844 107.097656 21.484375 C 107.132812 21.375 107.167969 21.269531 107.199219 21.164062 C 107.234375 21.058594 107.269531 20.953125 107.304688 20.847656 C 107.335938 20.738281 107.371094 20.632812 107.40625 20.527344 C 107.441406 20.417969 107.472656 20.3125 107.507812 20.207031 C 107.542969 20.097656 107.578125 19.992188 107.609375 19.886719 C 107.644531 19.777344 107.679688 19.671875 107.714844 19.5625 C 107.75 19.457031 107.78125 19.347656 107.816406 19.242188 C 107.851562 19.132812 107.886719 19.027344 107.917969 18.917969 C 107.953125 18.8125 107.988281 18.703125 108.023438 18.597656 C 108.054688 18.488281 108.089844 18.378906 108.125 18.273438 C 108.160156 18.164062 108.195312 18.054688 108.226562 17.945312 C 108.261719 17.839844 108.296875 17.730469 108.332031 17.621094 C 108.363281 17.511719 108.398438 17.40625 108.433594 17.296875 C 108.46875 17.1875 108.5 17.078125 108.535156 16.96875 C 108.570312 16.859375 108.605469 16.75 108.636719 16.640625 C 108.671875 16.53125 108.707031 16.421875 108.742188 16.3125 C 108.777344 16.203125 108.808594 16.09375 108.84375 15.984375 C 108.878906 15.875 108.914062 15.765625 108.945312 15.65625 "/>
<path style="fill-rule:nonzero;fill:rgb(100%,100%,100%);fill-opacity:1;stroke-width:0.8;stroke-linecap:round;stroke-linejoin:round;stroke:rgb(0%,0%,0%);stroke-opacity:1;stroke-miterlimit:4;" d="M -87.105469 -67.917969 C -87.105469 -67 -87.851562 -66.253906 -88.773438 -66.253906 C -89.691406 -66.253906 -90.4375 -67 -90.4375 -67.917969 C -90.4375 -68.839844 -89.691406 -69.582031 -88.773438 -69.582031 C -87.851562 -69.582031 -87.105469 -68.839844 -87.105469 -67.917969 Z M -87.105469 -67.917969 " transform="matrix(-1,0,0,-1,0,0)"/>
<path style=" stroke:none;fill-rule:nonzero;fill:rgb(0%,0%,0%);fill-opacity:1;" d="M 89.25 100.40625 C 89.25 100.105469 89.25 100.085938 88.96875 100.085938 C 88.21875 100.855469 87.171875 100.855469 86.796875 100.855469 L 86.796875 101.230469 C 87.039062 101.230469 87.734375 101.230469 88.351562 100.910156 L 88.351562 107.117188 C 88.351562 107.546875 88.3125 107.679688 87.246094 107.679688 L 86.871094 107.679688 L 86.871094 108.054688 C 87.28125 108.015625 88.3125 108.015625 88.800781 108.015625 C 89.269531 108.015625 90.320312 108.015625 90.734375 108.054688 L 90.734375 107.679688 L 90.359375 107.679688 C 89.269531 107.679688 89.25 107.546875 89.25 107.117188 Z M 89.25 100.40625 "/>
<path style=" stroke:none;fill-rule:nonzero;fill:rgb(0%,0%,0%);fill-opacity:1;" d="M 54.417969 64.320312 C 54.417969 64.019531 54.417969 64 54.136719 64 C 53.386719 64.769531 52.335938 64.769531 51.960938 64.769531 L 51.960938 65.144531 C 52.203125 65.144531 52.898438 65.144531 53.515625 64.828125 L 53.515625 71.03125 C 53.515625 71.464844 53.480469 71.59375 52.410156 71.59375 L 52.035156 71.59375 L 52.035156 71.96875 C 52.449219 71.933594 53.480469 71.933594 53.964844 71.933594 C 54.433594 71.933594 55.484375 71.933594 55.898438 71.96875 L 55.898438 71.59375 L 55.523438 71.59375 C 54.433594 71.59375 54.417969 71.464844 54.417969 71.03125 Z M 54.417969 64.320312 "/>
<path style=" stroke:none;fill-rule:nonzero;fill:rgb(0%,0%,0%);fill-opacity:1;" d="M 116.609375 13.417969 C 116.664062 13.25 116.664062 13.230469 116.664062 13.136719 C 116.664062 12.933594 116.496094 12.820312 116.308594 12.820312 C 116.195312 12.820312 116.007812 12.894531 115.898438 13.0625 C 115.878906 13.136719 115.765625 13.496094 115.726562 13.71875 C 115.632812 14.019531 115.558594 14.355469 115.484375 14.675781 L 114.941406 16.832031 C 114.902344 17 114.378906 17.84375 113.589844 17.84375 C 112.992188 17.84375 112.859375 17.320312 112.859375 16.871094 C 112.859375 16.324219 113.066406 15.574219 113.460938 14.527344 C 113.648438 14.039062 113.703125 13.90625 113.703125 13.664062 C 113.703125 13.136719 113.328125 12.6875 112.726562 12.6875 C 111.585938 12.6875 111.152344 14.433594 111.152344 14.527344 C 111.152344 14.65625 111.265625 14.65625 111.285156 14.65625 C 111.414062 14.65625 111.414062 14.621094 111.472656 14.433594 C 111.808594 13.308594 112.277344 12.949219 112.691406 12.949219 C 112.785156 12.949219 112.992188 12.949219 112.992188 13.324219 C 112.992188 13.625 112.859375 13.945312 112.785156 14.167969 C 112.296875 15.445312 112.089844 16.121094 112.089844 16.683594 C 112.089844 17.75 112.839844 18.105469 113.554688 18.105469 C 114.023438 18.105469 114.414062 17.902344 114.753906 17.5625 C 114.601562 18.183594 114.453125 18.78125 113.984375 19.417969 C 113.664062 19.8125 113.214844 20.167969 112.671875 20.167969 C 112.503906 20.167969 111.960938 20.132812 111.753906 19.664062 C 111.941406 19.664062 112.109375 19.664062 112.257812 19.511719 C 112.390625 19.417969 112.503906 19.25 112.503906 19.027344 C 112.503906 18.652344 112.183594 18.613281 112.070312 18.613281 C 111.789062 18.613281 111.398438 18.800781 111.398438 19.382812 C 111.398438 19.980469 111.921875 20.433594 112.671875 20.433594 C 113.890625 20.433594 115.128906 19.34375 115.464844 17.996094 Z M 116.609375 13.417969 "/>
<path style=" stroke:none;fill-rule:nonzero;fill:rgb(0%,0%,0%);fill-opacity:1;" d="M 128.621094 14.058594 C 128.808594 14.058594 129.03125 14.058594 129.03125 13.832031 C 129.03125 13.589844 128.808594 13.589844 128.640625 13.589844 L 121.476562 13.589844 C 121.308594 13.589844 121.082031 13.589844 121.082031 13.832031 C 121.082031 14.058594 121.308594 14.058594 121.476562 14.058594 Z M 128.640625 16.382812 C 128.808594 16.382812 129.03125 16.382812 129.03125 16.136719 C 129.03125 15.914062 128.808594 15.914062 128.621094 15.914062 L 121.476562 15.914062 C 121.308594 15.914062 121.082031 15.914062 121.082031 16.136719 C 121.082031 16.382812 121.308594 16.382812 121.476562 16.382812 Z M 128.640625 16.382812 "/>
<path style=" stroke:none;fill-rule:nonzero;fill:rgb(0%,0%,0%);fill-opacity:1;" d="M 138.457031 6.269531 C 138.53125 5.96875 138.8125 4.863281 139.636719 4.863281 C 139.691406 4.863281 139.992188 4.863281 140.238281 5.015625 C 139.898438 5.089844 139.675781 5.371094 139.675781 5.671875 C 139.675781 5.859375 139.804688 6.082031 140.125 6.082031 C 140.386719 6.082031 140.761719 5.875 140.761719 5.390625 C 140.761719 4.769531 140.066406 4.601562 139.65625 4.601562 C 138.960938 4.601562 138.550781 5.238281 138.398438 5.5 C 138.097656 4.714844 137.460938 4.601562 137.105469 4.601562 C 135.867188 4.601562 135.175781 6.140625 135.175781 6.4375 C 135.175781 6.570312 135.304688 6.570312 135.324219 6.570312 C 135.417969 6.570312 135.457031 6.53125 135.472656 6.4375 C 135.886719 5.164062 136.675781 4.863281 137.085938 4.863281 C 137.3125 4.863281 137.722656 4.976562 137.722656 5.671875 C 137.722656 6.046875 137.519531 6.832031 137.085938 8.519531 C 136.898438 9.25 136.46875 9.757812 135.941406 9.757812 C 135.867188 9.757812 135.605469 9.757812 135.34375 9.609375 C 135.644531 9.53125 135.90625 9.289062 135.90625 8.953125 C 135.90625 8.632812 135.644531 8.539062 135.472656 8.539062 C 135.097656 8.539062 134.816406 8.839844 134.816406 9.234375 C 134.816406 9.777344 135.398438 10.019531 135.925781 10.019531 C 136.730469 10.019531 137.160156 9.175781 137.179688 9.121094 C 137.332031 9.550781 137.761719 10.019531 138.472656 10.019531 C 139.710938 10.019531 140.386719 8.484375 140.386719 8.183594 C 140.386719 8.050781 140.292969 8.050781 140.253906 8.050781 C 140.144531 8.050781 140.125 8.109375 140.085938 8.183594 C 139.691406 9.476562 138.886719 9.757812 138.511719 9.757812 C 138.042969 9.757812 137.855469 9.382812 137.855469 8.96875 C 137.855469 8.707031 137.910156 8.445312 138.042969 7.921875 Z M 138.457031 6.269531 "/>
<path style=" stroke:none;fill-rule:nonzero;fill:rgb(0%,0%,0%);fill-opacity:1;" d="M 143.582031 2.757812 C 144.238281 2.757812 144.707031 3.207031 144.707031 4.105469 C 144.707031 5.136719 144.089844 5.457031 143.621094 5.457031 C 143.28125 5.457031 142.53125 5.363281 142.195312 4.855469 C 142.589844 4.855469 142.683594 4.574219 142.683594 4.386719 C 142.683594 4.125 142.476562 3.9375 142.214844 3.9375 C 141.988281 3.9375 141.746094 4.085938 141.746094 4.425781 C 141.746094 5.210938 142.605469 5.71875 143.621094 5.71875 C 144.78125 5.71875 145.589844 4.929688 145.589844 4.105469 C 145.589844 3.449219 145.0625 2.792969 144.144531 2.605469 C 145.007812 2.289062 145.324219 1.667969 145.324219 1.144531 C 145.324219 0.488281 144.574219 0 143.636719 0 C 142.71875 0 142.007812 0.449219 142.007812 1.125 C 142.007812 1.40625 142.195312 1.554688 142.4375 1.554688 C 142.699219 1.554688 142.871094 1.367188 142.871094 1.144531 C 142.871094 0.898438 142.699219 0.710938 142.4375 0.695312 C 142.738281 0.335938 143.300781 0.242188 143.621094 0.242188 C 143.996094 0.242188 144.519531 0.429688 144.519531 1.144531 C 144.519531 1.5 144.40625 1.894531 144.183594 2.136719 C 143.917969 2.457031 143.675781 2.476562 143.261719 2.511719 C 143.058594 2.53125 143.039062 2.53125 143 2.53125 C 142.980469 2.53125 142.90625 2.550781 142.90625 2.644531 C 142.90625 2.757812 142.980469 2.757812 143.132812 2.757812 Z M 143.582031 2.757812 "/>
<path style=" stroke:none;fill-rule:nonzero;fill:rgb(0%,0%,0%);fill-opacity:1;" d="M 157.1875 7.132812 C 157.394531 7.132812 157.621094 7.132812 157.621094 6.890625 C 157.621094 6.664062 157.394531 6.664062 157.1875 6.664062 L 150.71875 6.664062 C 150.515625 6.664062 150.308594 6.664062 150.308594 6.890625 C 150.308594 7.132812 150.515625 7.132812 150.71875 7.132812 Z M 157.1875 7.132812 "/>
<path style=" stroke:none;fill-rule:nonzero;fill:rgb(0%,0%,0%);fill-opacity:1;" d="M 165.265625 6.269531 C 165.339844 5.96875 165.621094 4.863281 166.445312 4.863281 C 166.5 4.863281 166.800781 4.863281 167.046875 5.015625 C 166.707031 5.089844 166.484375 5.371094 166.484375 5.671875 C 166.484375 5.859375 166.613281 6.082031 166.933594 6.082031 C 167.195312 6.082031 167.570312 5.875 167.570312 5.390625 C 167.570312 4.769531 166.875 4.601562 166.464844 4.601562 C 165.769531 4.601562 165.359375 5.238281 165.207031 5.5 C 164.90625 4.714844 164.269531 4.601562 163.914062 4.601562 C 162.675781 4.601562 161.984375 6.140625 161.984375 6.4375 C 161.984375 6.570312 162.113281 6.570312 162.132812 6.570312 C 162.226562 6.570312 162.265625 6.53125 162.28125 6.4375 C 162.695312 5.164062 163.484375 4.863281 163.894531 4.863281 C 164.121094 4.863281 164.53125 4.976562 164.53125 5.671875 C 164.53125 6.046875 164.328125 6.832031 163.894531 8.519531 C 163.707031 9.25 163.277344 9.757812 162.75 9.757812 C 162.675781 9.757812 162.414062 9.757812 162.152344 9.609375 C 162.453125 9.53125 162.714844 9.289062 162.714844 8.953125 C 162.714844 8.632812 162.453125 8.539062 162.28125 8.539062 C 161.90625 8.539062 161.625 8.839844 161.625 9.234375 C 161.625 9.777344 162.207031 10.019531 162.734375 10.019531 C 163.539062 10.019531 163.96875 9.175781 163.988281 9.121094 C 164.140625 9.550781 164.570312 10.019531 165.28125 10.019531 C 166.519531 10.019531 167.195312 8.484375 167.195312 8.183594 C 167.195312 8.050781 167.101562 8.050781 167.0625 8.050781 C 166.953125 8.050781 166.933594 8.109375 166.894531 8.183594 C 166.5 9.476562 165.695312 9.757812 165.320312 9.757812 C 164.851562 9.757812 164.664062 9.382812 164.664062 8.96875 C 164.664062 8.707031 164.71875 8.445312 164.851562 7.921875 Z M 165.265625 6.269531 "/>
<path style=" stroke:none;fill-rule:nonzero;fill:rgb(0%,0%,0%);fill-opacity:1;" d="M 172.320312 4.03125 L 172.039062 4.03125 C 172.023438 4.21875 171.929688 4.707031 171.816406 4.78125 C 171.757812 4.835938 171.121094 4.835938 170.992188 4.835938 L 169.453125 4.835938 C 170.335938 4.070312 170.632812 3.824219 171.121094 3.429688 C 171.742188 2.945312 172.320312 2.417969 172.320312 1.632812 C 172.320312 0.617188 171.441406 0 170.371094 0 C 169.339844 0 168.628906 0.730469 168.628906 1.5 C 168.628906 1.914062 168.984375 1.96875 169.078125 1.96875 C 169.265625 1.96875 169.507812 1.820312 169.507812 1.519531 C 169.507812 1.367188 169.453125 1.070312 169.023438 1.070312 C 169.285156 0.488281 169.847656 0.300781 170.242188 0.300781 C 171.085938 0.300781 171.515625 0.957031 171.515625 1.632812 C 171.515625 2.363281 170.992188 2.925781 170.726562 3.226562 L 168.722656 5.230469 C 168.628906 5.304688 168.628906 5.324219 168.628906 5.550781 L 172.078125 5.550781 Z M 172.320312 4.03125 "/>
<g clip-path="url(#clip2)" clip-rule="nonzero">
<path style="fill:none;stroke-width:0.4776;stroke-linecap:butt;stroke-linejoin:miter;stroke:rgb(0%,0%,0%);stroke-opacity:1;stroke-miterlimit:10;" d="M 134.460938 -14.988281 L 173.464844 -14.988281 " transform="matrix(1,0,0,-1,0,0)"/>
</g>
<path style=" stroke:none;fill-rule:nonzero;fill:rgb(0%,0%,0%);fill-opacity:1;" d="M 144.246094 22.558594 C 144.320312 22.257812 144.601562 21.152344 145.429688 21.152344 C 145.484375 21.152344 145.785156 21.152344 146.027344 21.300781 C 145.691406 21.375 145.464844 21.65625 145.464844 21.957031 C 145.464844 22.144531 145.597656 22.371094 145.914062 22.371094 C 146.179688 22.371094 146.554688 22.164062 146.554688 21.675781 C 146.554688 21.058594 145.859375 20.890625 145.445312 20.890625 C 144.753906 20.890625 144.339844 21.527344 144.191406 21.789062 C 143.890625 21 143.253906 20.890625 142.898438 20.890625 C 141.660156 20.890625 140.964844 22.425781 140.964844 22.726562 C 140.964844 22.859375 141.097656 22.859375 141.117188 22.859375 C 141.210938 22.859375 141.246094 22.820312 141.265625 22.726562 C 141.679688 21.453125 142.464844 21.152344 142.878906 21.152344 C 143.101562 21.152344 143.515625 21.265625 143.515625 21.957031 C 143.515625 22.332031 143.308594 23.121094 142.878906 24.808594 C 142.691406 25.539062 142.257812 26.046875 141.734375 26.046875 C 141.660156 26.046875 141.398438 26.046875 141.132812 25.894531 C 141.433594 25.820312 141.695312 25.578125 141.695312 25.238281 C 141.695312 24.921875 141.433594 24.828125 141.265625 24.828125 C 140.890625 24.828125 140.609375 25.125 140.609375 25.519531 C 140.609375 26.0625 141.191406 26.308594 141.714844 26.308594 C 142.523438 26.308594 142.953125 25.464844 142.972656 25.40625 C 143.121094 25.839844 143.554688 26.308594 144.265625 26.308594 C 145.503906 26.308594 146.179688 24.769531 146.179688 24.46875 C 146.179688 24.339844 146.085938 24.339844 146.046875 24.339844 C 145.933594 24.339844 145.914062 24.394531 145.878906 24.46875 C 145.484375 25.765625 144.679688 26.046875 144.304688 26.046875 C 143.835938 26.046875 143.648438 25.671875 143.648438 25.257812 C 143.648438 24.996094 143.703125 24.734375 143.835938 24.207031 Z M 144.246094 22.558594 "/>
<path style=" stroke:none;fill-rule:nonzero;fill:rgb(0%,0%,0%);fill-opacity:1;" d="M 157.617188 23.421875 C 157.824219 23.421875 158.046875 23.421875 158.046875 23.175781 C 158.046875 22.953125 157.824219 22.953125 157.617188 22.953125 L 151.148438 22.953125 C 150.941406 22.953125 150.734375 22.953125 150.734375 23.175781 C 150.734375 23.421875 150.941406 23.421875 151.148438 23.421875 Z M 157.617188 23.421875 "/>
<path style=" stroke:none;fill-rule:nonzero;fill:rgb(0%,0%,0%);fill-opacity:1;" d="M 165.222656 18.527344 C 165.222656 18.226562 165.222656 18.207031 164.941406 18.207031 C 164.191406 18.976562 163.140625 18.976562 162.765625 18.976562 L 162.765625 19.351562 C 163.007812 19.351562 163.703125 19.351562 164.320312 19.03125 L 164.320312 25.238281 C 164.320312 25.671875 164.285156 25.800781 163.214844 25.800781 L 162.839844 25.800781 L 162.839844 26.175781 C 163.253906 26.140625 164.285156 26.140625 164.773438 26.140625 C 165.242188 26.140625 166.289062 26.140625 166.703125 26.175781 L 166.703125 25.800781 L 166.328125 25.800781 C 165.242188 25.800781 165.222656 25.671875 165.222656 25.238281 Z M 165.222656 18.527344 "/>
</g>
</svg>
