<?xml version="1.0" encoding="UTF-8"?>
<svg xmlns="http://www.w3.org/2000/svg" xmlns:xlink="http://www.w3.org/1999/xlink" width="260.063171pt" height="202.168243pt" viewBox="0 0 260.063171 202.168243" version="1.1">
<defs>
<filter id="alpha" filterUnits="objectBoundingBox" x="0%" y="0%" width="100%" height="100%">
  <feColorMatrix type="matrix" in="SourceGraphic" values="0 0 0 0 1 0 0 0 0 1 0 0 0 0 1 0 0 0 1 0"/>
</filter>
<clipPath id="clip1">
  <rect width="12" height="31"/>
</clipPath>
<g id="surface8" clip-path="url(#clip1)">
<rect x="0" y="0" width="12" height="31" style="fill:rgb(0%,0%,0%);fill-opacity:0.97;stroke:none;"/>
</g>
<mask id="mask0">
  <g filter="url(#alpha)">
<use xlink:href="#surface8"/>
  </g>
</mask>
<clipPath id="clip2">
  <rect width="12" height="31"/>
</clipPath>
<g id="surface5" clip-path="url(#clip2)">
<path style="fill:none;stroke-width:1.6;stroke-linecap:round;stroke-linejoin:round;stroke:rgb(100%,0%,0%);stroke-opacity:1;stroke-miterlimit:4;" d="M 53.648438 145.464844 C 58.464844 153.175781 61.386719 161.914062 62.179688 170.96875 " transform="matrix(1,0,0,1,-52,-143)"/>
<path style="fill-rule:evenodd;fill:rgb(100%,0%,0%);fill-opacity:1;stroke-width:0.339219;stroke-linecap:butt;stroke-linejoin:miter;stroke:rgb(100%,0%,0%);stroke-opacity:1;stroke-miterlimit:4;" d="M 130.353597 26.789859 L 131.713451 25.432559 L 126.96365 26.788774 L 131.712653 28.146904 Z M 130.353597 26.789859 " transform="matrix(0.624869,1,-1,0.624869,-52,-143)"/>
<path style="fill-rule:evenodd;fill:rgb(100%,0%,0%);fill-opacity:1;stroke-width:0.398478;stroke-linecap:butt;stroke-linejoin:miter;stroke:rgb(100%,0%,0%);stroke-opacity:1;stroke-miterlimit:4;" d="M -173.158516 46.862305 L -171.562306 45.271487 L -177.143149 46.865257 L -171.563821 48.458854 Z M -173.158516 46.862305 " transform="matrix(-0.0874887,-1,1,-0.0874887,-52,-143)"/>
</g>
<clipPath id="clip3">
  <path d="M 104 184 L 110 184 L 110 202.167969 L 104 202.167969 Z M 104 184 "/>
</clipPath>
<clipPath id="clip4">
  <path d="M 247 105 L 260.0625 105 L 260.0625 116 L 247 116 Z M 247 105 "/>
</clipPath>
<clipPath id="clip5">
  <path d="M 247 94 L 260.0625 94 L 260.0625 105 L 247 105 Z M 247 94 "/>
</clipPath>
</defs>
<g id="surface1">
<path style="fill:none;stroke-width:1.6;stroke-linecap:butt;stroke-linejoin:miter;stroke:rgb(100%,0%,0%);stroke-opacity:1;stroke-miterlimit:4;" d="M 216 175.988281 L 216 156.789062 L 235.199219 156.789062 "/>
<path style="fill:none;stroke-width:3.2;stroke-linecap:butt;stroke-linejoin:miter;stroke:rgb(0%,0%,0%);stroke-opacity:1;stroke-miterlimit:4;" d="M 4.800781 175.988281 L 235.199219 175.988281 L 235.199219 3.191406 Z M 4.800781 175.988281 "/>
<use xlink:href="#surface5" transform="matrix(1,0,0,1,52,143)" mask="url(#mask0)"/>
<path style=" stroke:none;fill-rule:nonzero;fill:rgb(0%,0%,0%);fill-opacity:1;" d="M 53.097656 157.179688 C 53.097656 155.867188 52.753906 153.085938 50.722656 153.085938 C 47.941406 153.085938 44.878906 158.710938 44.878906 163.273438 C 44.878906 165.148438 45.441406 167.367188 47.253906 167.367188 C 50.066406 167.367188 53.097656 161.648438 53.097656 157.179688 Z M 46.972656 159.898438 C 47.316406 158.648438 47.722656 157.054688 48.535156 155.617188 C 49.066406 154.648438 49.785156 153.523438 50.691406 153.523438 C 51.660156 153.523438 51.785156 154.804688 51.785156 155.929688 C 51.785156 156.929688 51.628906 157.929688 51.160156 159.898438 Z M 50.972656 160.554688 C 50.753906 161.460938 50.347656 163.148438 49.566406 164.585938 C 48.878906 165.960938 48.128906 166.929688 47.253906 166.929688 C 46.597656 166.929688 46.191406 166.335938 46.191406 164.492188 C 46.191406 163.648438 46.316406 162.492188 46.816406 160.554688 Z M 50.972656 160.554688 "/>
<path style=" stroke:none;fill-rule:nonzero;fill:rgb(0%,0%,0%);fill-opacity:1;" d="M 90.457031 196.574219 C 90.550781 197.355469 91.082031 198.199219 92.019531 198.199219 C 92.457031 198.199219 93.675781 197.917969 93.675781 196.292969 L 93.675781 195.167969 L 93.175781 195.167969 L 93.175781 196.292969 C 93.175781 197.449219 92.675781 197.574219 92.457031 197.574219 C 91.800781 197.574219 91.707031 196.667969 91.707031 196.574219 L 91.707031 192.605469 C 91.707031 191.761719 91.707031 190.980469 90.988281 190.230469 C 90.207031 189.449219 89.207031 189.136719 88.269531 189.136719 C 86.613281 189.136719 85.238281 190.074219 85.238281 191.386719 C 85.238281 191.980469 85.644531 192.324219 86.175781 192.324219 C 86.738281 192.324219 87.082031 191.917969 87.082031 191.417969 C 87.082031 191.167969 86.988281 190.511719 86.050781 190.511719 C 86.613281 189.792969 87.582031 189.574219 88.207031 189.574219 C 89.207031 189.574219 90.332031 190.355469 90.332031 192.136719 L 90.332031 192.855469 C 89.300781 192.917969 87.925781 192.980469 86.675781 193.574219 C 85.175781 194.261719 84.675781 195.292969 84.675781 196.167969 C 84.675781 197.792969 86.613281 198.292969 87.863281 198.292969 C 89.175781 198.292969 90.082031 197.480469 90.457031 196.574219 Z M 90.332031 193.292969 L 90.332031 195.292969 C 90.332031 197.167969 88.894531 197.855469 87.988281 197.855469 C 87.019531 197.855469 86.207031 197.167969 86.207031 196.167969 C 86.207031 195.074219 87.050781 193.417969 90.332031 193.292969 Z M 90.332031 193.292969 "/>
<path style=" stroke:none;fill-rule:nonzero;fill:rgb(0%,0%,0%);fill-opacity:1;" d="M 101.359375 196.980469 L 101.359375 198.292969 L 104.296875 198.074219 L 104.296875 197.449219 C 102.921875 197.449219 102.734375 197.324219 102.734375 196.324219 L 102.734375 184.230469 L 99.890625 184.449219 L 99.890625 185.074219 C 101.265625 185.074219 101.421875 185.199219 101.421875 186.199219 L 101.421875 190.511719 C 100.859375 189.792969 99.984375 189.261719 98.921875 189.261719 C 96.578125 189.261719 94.484375 191.230469 94.484375 193.792969 C 94.484375 196.324219 96.421875 198.292969 98.703125 198.292969 C 99.984375 198.292969 100.859375 197.605469 101.359375 196.980469 Z M 101.359375 191.636719 L 101.359375 195.730469 C 101.359375 196.074219 101.359375 196.105469 101.140625 196.449219 C 100.546875 197.417969 99.671875 197.855469 98.796875 197.855469 C 97.890625 197.855469 97.171875 197.324219 96.703125 196.574219 C 96.203125 195.761719 96.140625 194.636719 96.140625 193.792969 C 96.140625 193.074219 96.171875 191.886719 96.734375 190.980469 C 97.171875 190.355469 97.921875 189.699219 99.015625 189.699219 C 99.703125 189.699219 100.546875 190.011719 101.140625 190.886719 C 101.359375 191.230469 101.359375 191.261719 101.359375 191.636719 Z M 101.359375 191.636719 "/>
<g clip-path="url(#clip3)" clip-rule="nonzero">
<path style=" stroke:none;fill-rule:nonzero;fill:rgb(0%,0%,0%);fill-opacity:1;" d="M 109.054688 189.261719 L 106.023438 189.480469 L 106.023438 190.105469 C 107.554688 190.105469 107.742188 190.230469 107.742188 191.230469 L 107.742188 199.105469 C 107.742188 200.011719 107.554688 201.730469 106.273438 201.730469 C 106.179688 201.730469 105.710938 201.730469 105.210938 201.449219 C 105.492188 201.386719 105.898438 201.105469 105.898438 200.574219 C 105.898438 200.042969 105.554688 199.636719 104.992188 199.636719 C 104.429688 199.636719 104.054688 200.042969 104.054688 200.574219 C 104.054688 201.605469 105.179688 202.167969 106.335938 202.167969 C 107.804688 202.167969 109.054688 200.886719 109.054688 199.074219 Z M 109.054688 185.792969 C 109.054688 185.199219 108.585938 184.730469 107.992188 184.730469 C 107.429688 184.730469 106.929688 185.199219 106.929688 185.792969 C 106.929688 186.355469 107.429688 186.855469 107.992188 186.855469 C 108.585938 186.855469 109.054688 186.355469 109.054688 185.792969 Z M 109.054688 185.792969 "/>
</g>
<path style=" stroke:none;fill-rule:nonzero;fill:rgb(0%,0%,0%);fill-opacity:1;" d="M 117.582031 196.574219 C 117.675781 197.355469 118.207031 198.199219 119.144531 198.199219 C 119.582031 198.199219 120.800781 197.917969 120.800781 196.292969 L 120.800781 195.167969 L 120.300781 195.167969 L 120.300781 196.292969 C 120.300781 197.449219 119.800781 197.574219 119.582031 197.574219 C 118.925781 197.574219 118.832031 196.667969 118.832031 196.574219 L 118.832031 192.605469 C 118.832031 191.761719 118.832031 190.980469 118.113281 190.230469 C 117.332031 189.449219 116.332031 189.136719 115.394531 189.136719 C 113.738281 189.136719 112.363281 190.074219 112.363281 191.386719 C 112.363281 191.980469 112.769531 192.324219 113.300781 192.324219 C 113.863281 192.324219 114.207031 191.917969 114.207031 191.417969 C 114.207031 191.167969 114.113281 190.511719 113.175781 190.511719 C 113.738281 189.792969 114.707031 189.574219 115.332031 189.574219 C 116.332031 189.574219 117.457031 190.355469 117.457031 192.136719 L 117.457031 192.855469 C 116.425781 192.917969 115.050781 192.980469 113.800781 193.574219 C 112.300781 194.261719 111.800781 195.292969 111.800781 196.167969 C 111.800781 197.792969 113.738281 198.292969 114.988281 198.292969 C 116.300781 198.292969 117.207031 197.480469 117.582031 196.574219 Z M 117.457031 193.292969 L 117.457031 195.292969 C 117.457031 197.167969 116.019531 197.855469 115.113281 197.855469 C 114.144531 197.855469 113.332031 197.167969 113.332031 196.167969 C 113.332031 195.074219 114.175781 193.417969 117.457031 193.292969 Z M 117.457031 193.292969 "/>
<path style=" stroke:none;fill-rule:nonzero;fill:rgb(0%,0%,0%);fill-opacity:1;" d="M 123.261719 193.730469 C 123.261719 190.480469 124.886719 189.636719 125.949219 189.636719 C 126.136719 189.636719 127.386719 189.667969 128.074219 190.386719 C 127.261719 190.449219 127.136719 191.042969 127.136719 191.292969 C 127.136719 191.824219 127.511719 192.199219 128.042969 192.199219 C 128.574219 192.199219 128.980469 191.886719 128.980469 191.261719 C 128.980469 189.917969 127.449219 189.136719 125.917969 189.136719 C 123.417969 189.136719 121.605469 191.292969 121.605469 193.761719 C 121.605469 196.324219 123.574219 198.292969 125.886719 198.292969 C 128.542969 198.292969 129.199219 195.886719 129.199219 195.699219 C 129.199219 195.511719 128.980469 195.511719 128.917969 195.511719 C 128.761719 195.511719 128.699219 195.574219 128.667969 195.699219 C 128.105469 197.542969 126.792969 197.792969 126.074219 197.792969 C 125.011719 197.792969 123.261719 196.949219 123.261719 193.730469 Z M 123.261719 193.730469 "/>
<path style=" stroke:none;fill-rule:nonzero;fill:rgb(0%,0%,0%);fill-opacity:1;" d="M 131.992188 193.042969 C 132.117188 190.074219 133.804688 189.574219 134.492188 189.574219 C 136.523438 189.574219 136.742188 192.261719 136.742188 193.042969 Z M 131.992188 193.480469 L 137.554688 193.480469 C 137.992188 193.480469 138.054688 193.480469 138.054688 193.042969 C 138.054688 191.074219 136.960938 189.136719 134.492188 189.136719 C 132.179688 189.136719 130.335938 191.199219 130.335938 193.699219 C 130.335938 196.355469 132.429688 198.292969 134.710938 198.292969 C 137.148438 198.292969 138.054688 196.074219 138.054688 195.699219 C 138.054688 195.511719 137.898438 195.449219 137.773438 195.449219 C 137.617188 195.449219 137.554688 195.574219 137.523438 195.730469 C 136.835938 197.792969 135.023438 197.792969 134.835938 197.792969 C 133.835938 197.792969 133.054688 197.199219 132.585938 196.449219 C 131.992188 195.511719 131.992188 194.199219 131.992188 193.480469 Z M 131.992188 193.480469 "/>
<path style=" stroke:none;fill-rule:nonzero;fill:rgb(0%,0%,0%);fill-opacity:1;" d="M 140.816406 191.230469 L 140.816406 196.574219 C 140.816406 197.449219 140.597656 197.449219 139.253906 197.449219 L 139.253906 198.074219 C 139.972656 198.042969 140.972656 198.011719 141.535156 198.011719 C 142.035156 198.011719 143.066406 198.042969 143.753906 198.074219 L 143.753906 197.449219 C 142.410156 197.449219 142.191406 197.449219 142.191406 196.574219 L 142.191406 192.886719 C 142.191406 190.824219 143.628906 189.699219 144.878906 189.699219 C 146.160156 189.699219 146.378906 190.761719 146.378906 191.917969 L 146.378906 196.574219 C 146.378906 197.449219 146.160156 197.449219 144.816406 197.449219 L 144.816406 198.074219 C 145.503906 198.042969 146.535156 198.011719 147.066406 198.011719 C 147.566406 198.011719 148.628906 198.042969 149.285156 198.074219 L 149.285156 197.449219 C 148.253906 197.449219 147.753906 197.449219 147.753906 196.855469 L 147.753906 193.042969 C 147.753906 191.324219 147.753906 190.730469 147.128906 190.011719 C 146.847656 189.667969 146.191406 189.261719 145.035156 189.261719 C 143.566406 189.261719 142.628906 190.105469 142.066406 191.355469 L 142.066406 189.261719 L 139.253906 189.480469 L 139.253906 190.105469 C 140.660156 190.105469 140.816406 190.230469 140.816406 191.230469 Z M 140.816406 191.230469 "/>
<path style=" stroke:none;fill-rule:nonzero;fill:rgb(0%,0%,0%);fill-opacity:1;" d="M 152.578125 190.105469 L 155.453125 190.105469 L 155.453125 189.480469 L 152.578125 189.480469 L 152.578125 185.824219 L 152.078125 185.824219 C 152.078125 187.449219 151.484375 189.574219 149.515625 189.667969 L 149.515625 190.105469 L 151.203125 190.105469 L 151.203125 195.605469 C 151.203125 198.042969 153.078125 198.292969 153.796875 198.292969 C 155.203125 198.292969 155.765625 196.886719 155.765625 195.605469 L 155.765625 194.480469 L 155.265625 194.480469 L 155.265625 195.574219 C 155.265625 197.042969 154.671875 197.792969 153.921875 197.792969 C 152.578125 197.792969 152.578125 195.980469 152.578125 195.636719 Z M 152.578125 190.105469 "/>
<path style=" stroke:none;fill-rule:nonzero;fill:rgb(0%,0%,0%);fill-opacity:1;" d="M 76.34375 105.550781 C 76.882812 106.238281 76.710938 106.375 75.65625 107.203125 L 76.039062 107.695312 C 76.585938 107.226562 77.355469 106.585938 77.796875 106.238281 C 78.191406 105.929688 79.023438 105.320312 79.582031 104.917969 L 79.195312 104.425781 C 78.140625 105.257812 77.964844 105.390625 77.425781 104.703125 L 75.152344 101.800781 C 73.878906 100.175781 74.320312 98.402344 75.300781 97.632812 C 76.3125 96.84375 77.136719 97.542969 77.851562 98.453125 L 80.722656 102.121094 C 81.261719 102.808594 81.089844 102.941406 80.03125 103.773438 L 80.417969 104.265625 C 80.941406 103.816406 81.734375 103.15625 82.152344 102.828125 C 82.542969 102.519531 83.398438 101.886719 83.9375 101.507812 L 83.550781 101.015625 C 82.738281 101.652344 82.34375 101.960938 81.980469 101.492188 L 79.628906 98.492188 C 78.566406 97.140625 78.203125 96.671875 77.265625 96.492188 C 76.832031 96.394531 76.066406 96.480469 75.15625 97.191406 C 73.828125 98.234375 73.871094 99.707031 74.082031 100.535156 L 69.765625 95.023438 L 67.636719 96.96875 L 68.023438 97.460938 C 69.128906 96.59375 69.328125 96.597656 69.945312 97.382812 Z M 76.34375 105.550781 "/>
<path style=" stroke:none;fill-rule:nonzero;fill:rgb(0%,0%,0%);fill-opacity:1;" d="M 86.21875 91.226562 C 85.820312 89.90625 86.632812 89.273438 86.878906 89.078125 L 86.492188 88.585938 C 86.144531 88.902344 85.71875 89.273438 85.351562 89.5625 C 85.082031 89.773438 84.324219 90.328125 83.960938 90.574219 L 84.34375 91.066406 C 84.835938 90.679688 85.292969 90.757812 85.601562 91.152344 C 85.738281 91.324219 85.734375 91.367188 85.8125 91.621094 L 87.21875 96.710938 L 82.203125 93.855469 C 81.996094 93.738281 81.929688 93.710938 81.875 93.636719 C 81.566406 93.242188 82.128906 92.800781 82.449219 92.546875 L 82.066406 92.054688 C 81.667969 92.410156 80.652344 93.242188 80.382812 93.453125 C 79.964844 93.78125 79.304688 94.257812 78.816406 94.601562 L 79.203125 95.09375 C 79.964844 94.496094 80.261719 94.265625 80.90625 94.632812 L 87.757812 98.511719 C 87.816406 98.785156 87.996094 99.476562 88.097656 99.757812 C 88.425781 100.886719 88.832031 102.316406 87.824219 103.105469 C 87.75 103.164062 87.382812 103.453125 86.855469 103.390625 C 87.308594 102.953125 87.160156 102.515625 86.949219 102.242188 C 86.640625 101.851562 86.152344 101.835938 85.785156 102.125 C 85.464844 102.375 85.273438 102.839844 85.640625 103.308594 C 86.199219 104.023438 87.308594 104.066406 88.09375 103.449219 C 89.078125 102.679688 89.003906 101.269531 88.679688 100.09375 Z M 86.21875 91.226562 "/>
<path style=" stroke:none;fill-rule:nonzero;fill:rgb(0%,0%,0%);fill-opacity:1;" d="M 90.179688 87.085938 L 89.371094 86.054688 L 87.242188 88 L 87.628906 88.492188 C 88.738281 87.625 88.9375 87.625 89.476562 88.316406 L 95.21875 95.644531 C 95.777344 96.359375 95.605469 96.492188 94.546875 97.320312 L 94.933594 97.8125 C 95.457031 97.367188 96.25 96.703125 96.640625 96.398438 C 97.085938 96.050781 97.890625 95.457031 98.453125 95.058594 L 98.066406 94.566406 C 97.03125 95.375 96.859375 95.511719 96.300781 94.796875 L 94.125 92.015625 C 94.410156 92.230469 95.730469 92.546875 96.910156 91.621094 C 98.78125 90.15625 99.1875 87.335938 97.609375 85.316406 C 96.046875 83.324219 93.332031 82.949219 91.5625 84.339844 C 90.332031 85.300781 90.207031 86.511719 90.179688 87.085938 Z M 93.449219 91.15625 L 90.710938 87.664062 C 90.519531 86.503906 90.933594 85.464844 91.746094 84.828125 C 92.902344 83.921875 94.917969 84.566406 96.304688 86.339844 C 97.789062 88.234375 97.746094 90.410156 96.589844 91.316406 C 95.953125 91.816406 95.109375 91.960938 94.191406 91.648438 C 93.71875 91.5 93.699219 91.476562 93.449219 91.15625 Z M 93.449219 91.15625 "/>
<path style=" stroke:none;fill-rule:nonzero;fill:rgb(0%,0%,0%);fill-opacity:1;" d="M 105.992188 78.789062 C 104.433594 76.792969 101.574219 76.335938 99.679688 77.820312 C 97.710938 79.363281 97.535156 82.277344 99.058594 84.222656 C 100.65625 86.265625 103.457031 86.492188 105.300781 85.046875 C 107.195312 83.5625 107.554688 80.78125 105.992188 78.789062 Z M 105.015625 84.632812 C 104.328125 85.171875 103.390625 85.394531 102.394531 84.984375 C 101.460938 84.601562 100.707031 83.644531 100.265625 83.078125 C 99.78125 82.460938 99.128906 81.625 98.957031 80.648438 C 98.816406 79.609375 99.285156 78.683594 99.921875 78.183594 C 100.613281 77.644531 101.546875 77.46875 102.503906 77.828125 C 103.441406 78.164062 104.15625 79.074219 104.617188 79.667969 C 105.0625 80.230469 105.738281 81.09375 105.929688 82.050781 C 106.121094 83.054688 105.78125 84.035156 105.015625 84.632812 Z M 105.015625 84.632812 "/>
<path style=" stroke:none;fill-rule:nonzero;fill:rgb(0%,0%,0%);fill-opacity:1;" d="M 106.886719 73.402344 L 109.152344 71.628906 L 108.765625 71.136719 L 106.503906 72.910156 L 104.246094 70.03125 L 103.855469 70.339844 C 104.855469 71.621094 105.699219 73.660156 104.207031 74.945312 L 104.476562 75.289062 L 105.804688 74.25 L 109.199219 78.578125 C 110.703125 80.5 112.332031 79.539062 112.898438 79.09375 C 114.003906 78.226562 113.578125 76.773438 112.789062 75.765625 L 112.09375 74.878906 L 111.703125 75.1875 L 112.375 76.050781 C 113.28125 77.207031 113.277344 78.164062 112.6875 78.625 C 111.628906 79.453125 110.511719 78.027344 110.300781 77.757812 Z M 106.886719 73.402344 "/>
<path style=" stroke:none;fill-rule:nonzero;fill:rgb(0%,0%,0%);fill-opacity:1;" d="M 113.839844 71.6875 C 112.109375 69.273438 113.128906 67.839844 113.667969 67.414062 C 115.269531 66.160156 117.097656 68.140625 117.578125 68.757812 Z M 114.109375 72.03125 L 118.488281 68.601562 C 118.832031 68.332031 118.882812 68.292969 118.613281 67.949219 C 117.398438 66.398438 115.34375 65.546875 113.398438 67.070312 C 111.578125 68.496094 111.398438 71.257812 112.941406 73.226562 C 114.578125 75.316406 117.421875 75.550781 119.21875 74.144531 C 121.136719 72.640625 120.480469 70.335938 120.25 70.039062 C 120.136719 69.890625 119.972656 69.9375 119.875 70.015625 C 119.753906 70.113281 119.78125 70.25 119.851562 70.390625 C 120.582031 72.4375 119.15625 73.554688 119.007812 73.671875 C 118.222656 74.289062 117.238281 74.304688 116.410156 74.003906 C 115.363281 73.628906 114.554688 72.597656 114.109375 72.03125 Z M 114.109375 72.03125 "/>
<path style=" stroke:none;fill-rule:nonzero;fill:rgb(0%,0%,0%);fill-opacity:1;" d="M 119.667969 64.820312 L 122.964844 69.023438 C 123.503906 69.714844 123.332031 69.847656 122.273438 70.675781 L 122.660156 71.167969 C 123.207031 70.703125 123.972656 70.058594 124.417969 69.714844 C 124.808594 69.40625 125.640625 68.792969 126.199219 68.394531 L 125.816406 67.902344 C 124.757812 68.730469 124.585938 68.867188 124.046875 68.175781 L 121.773438 65.273438 C 120.5 63.652344 120.9375 61.878906 121.921875 61.109375 C 122.929688 60.316406 123.757812 61.019531 124.46875 61.929688 L 127.34375 65.59375 C 127.882812 66.28125 127.710938 66.417969 126.652344 67.246094 L 127.039062 67.738281 C 127.558594 67.289062 128.351562 66.628906 128.769531 66.300781 C 129.164062 65.992188 130.019531 65.363281 130.554688 64.984375 L 130.167969 64.492188 C 129.359375 65.125 128.964844 65.433594 128.597656 64.96875 L 126.246094 61.964844 C 125.1875 60.613281 124.820312 60.144531 123.886719 59.964844 C 123.453125 59.867188 122.683594 59.953125 121.773438 60.667969 C 120.617188 61.574219 120.402344 62.816406 120.730469 64.144531 L 119.4375 62.496094 L 117.359375 64.40625 L 117.746094 64.898438 C 118.851562 64.027344 119.050781 64.03125 119.667969 64.820312 Z M 119.667969 64.820312 "/>
<path style=" stroke:none;fill-rule:nonzero;fill:rgb(0%,0%,0%);fill-opacity:1;" d="M 135.605469 59.042969 L 136.703125 60.445312 L 138.832031 58.5 L 138.445312 58.007812 C 137.363281 58.855469 137.164062 58.851562 136.546875 58.066406 L 132.191406 52.507812 L 130.011719 54.492188 L 130.398438 54.984375 C 131.480469 54.132812 131.707031 54.117188 132.320312 54.90625 L 134.5 57.683594 C 135.578125 59.0625 135.644531 60.71875 134.488281 61.621094 C 133.183594 62.644531 132.535156 61.964844 131.898438 61.152344 L 127.8125 55.9375 L 125.632812 57.921875 L 126.019531 58.414062 C 127.25 57.449219 127.289062 57.5 128.367188 58.875 L 130.21875 61.238281 C 131.179688 62.46875 132.300781 63.894531 134.683594 62.023438 C 135.570312 61.332031 135.914062 60.347656 135.605469 59.042969 Z M 135.605469 59.042969 "/>
<path style=" stroke:none;fill-rule:nonzero;fill:rgb(0%,0%,0%);fill-opacity:1;" d="M 140.039062 52.628906 C 140.441406 52.433594 141.914062 51.679688 142.800781 52.808594 C 143.414062 53.597656 143.375 54.660156 142.144531 55.625 C 140.816406 56.664062 139.558594 56.222656 138.203125 55.101562 C 138 54.941406 137.960938 54.894531 137.789062 55.027344 C 137.589844 55.183594 137.667969 55.28125 137.878906 55.550781 L 139.519531 57.640625 C 139.730469 57.914062 139.808594 58.011719 139.980469 57.875 C 140.054688 57.820312 140.058594 57.773438 140.125 57.25 C 140.128906 57.203125 140.109375 57.179688 140.171875 56.652344 C 141.363281 56.753906 142.09375 56.21875 142.414062 55.96875 C 144.210938 54.5625 144.121094 52.925781 143.234375 51.792969 C 142.597656 50.980469 141.746094 50.855469 141.414062 50.839844 C 140.492188 50.726562 139.78125 51.085938 139.019531 51.484375 C 138 52.003906 136.8125 52.617188 136.097656 51.707031 C 135.65625 51.140625 135.546875 50.191406 136.902344 49.132812 C 138.625 47.785156 139.839844 49.132812 140.230469 49.582031 C 140.347656 49.730469 140.492188 49.613281 140.519531 49.59375 C 140.738281 49.421875 140.679688 49.347656 140.449219 49.050781 L 139.199219 47.453125 C 139.003906 47.207031 138.910156 47.085938 138.734375 47.21875 C 138.664062 47.277344 138.613281 47.316406 138.570312 47.667969 C 138.558594 47.753906 138.527344 48.015625 138.492188 48.125 C 137.554688 48.144531 136.914062 48.644531 136.671875 48.835938 C 134.75 50.339844 134.988281 51.863281 135.683594 52.746094 C 136.109375 53.289062 136.699219 53.539062 137.386719 53.554688 C 138.214844 53.542969 138.734375 53.296875 140.039062 52.628906 Z M 140.039062 52.628906 "/>
<path style=" stroke:none;fill-rule:nonzero;fill:rgb(0%,0%,0%);fill-opacity:1;" d="M 143.984375 48.066406 C 142.253906 45.65625 143.273438 44.21875 143.816406 43.796875 C 145.414062 42.542969 147.242188 44.523438 147.726562 45.140625 Z M 144.253906 48.414062 L 148.632812 44.980469 C 148.980469 44.710938 149.027344 44.671875 148.757812 44.328125 C 147.542969 42.78125 145.488281 41.929688 143.542969 43.453125 C 141.722656 44.878906 141.546875 47.636719 143.085938 49.605469 C 144.726562 51.699219 147.566406 51.929688 149.363281 50.523438 C 151.28125 49.019531 150.628906 46.714844 150.394531 46.421875 C 150.28125 46.273438 150.121094 46.320312 150.019531 46.398438 C 149.898438 46.492188 149.925781 46.628906 149.996094 46.773438 C 150.726562 48.820312 149.300781 49.9375 149.152344 50.054688 C 148.367188 50.671875 147.386719 50.683594 146.554688 50.382812 C 145.507812 50.011719 144.699219 48.976562 144.253906 48.414062 Z M 144.253906 48.414062 "/>
<path style=" stroke:none;fill-rule:nonzero;fill:rgb(0%,0%,0%);fill-opacity:1;" d="M 251.90625 116.566406 C 249.375 116.566406 247.25 118.535156 247.25 120.941406 C 247.25 123.441406 249.4375 125.378906 251.90625 125.378906 C 254.5 125.378906 256.40625 123.316406 256.40625 120.972656 C 256.40625 118.566406 254.4375 116.566406 251.90625 116.566406 Z M 255.90625 120.941406 C 255.90625 121.816406 255.5 122.691406 254.5625 123.222656 C 253.6875 123.722656 252.46875 123.722656 251.75 123.722656 C 250.96875 123.722656 249.90625 123.722656 249.03125 123.253906 C 248.125 122.722656 247.6875 121.785156 247.6875 120.972656 C 247.6875 120.097656 248.125 119.253906 249 118.722656 C 249.84375 118.191406 251 118.191406 251.75 118.191406 C 252.46875 118.191406 253.5625 118.191406 254.4375 118.628906 C 255.34375 119.097656 255.90625 119.972656 255.90625 120.941406 Z M 255.90625 120.941406 "/>
<g clip-path="url(#clip4)" clip-rule="nonzero">
<path style=" stroke:none;fill-rule:nonzero;fill:rgb(0%,0%,0%);fill-opacity:1;" d="M 248.6875 112.539062 L 247.375 112.539062 L 247.59375 115.414062 L 248.21875 115.414062 C 248.21875 114.007812 248.34375 113.851562 249.21875 113.851562 L 258.53125 113.851562 C 259.4375 113.851562 259.4375 114.070312 259.4375 115.414062 L 260.0625 115.414062 C 260.03125 114.726562 260 113.695312 260 113.195312 C 260 112.632812 260.03125 111.632812 260.0625 110.945312 L 259.4375 110.945312 C 259.4375 112.257812 259.4375 112.476562 258.53125 112.476562 L 255 112.476562 C 255.34375 112.382812 256.40625 111.539062 256.40625 110.039062 C 256.40625 107.664062 254.4375 105.601562 251.875 105.601562 C 249.34375 105.601562 247.375 107.507812 247.375 109.757812 C 247.375 111.320312 248.25 112.164062 248.6875 112.539062 Z M 253.90625 112.476562 L 249.46875 112.476562 C 248.4375 111.914062 247.875 110.945312 247.875 109.914062 C 247.875 108.445312 249.625 107.257812 251.875 107.257812 C 254.28125 107.257812 255.96875 108.632812 255.96875 110.101562 C 255.96875 110.914062 255.5625 111.664062 254.75 112.195312 C 254.34375 112.476562 254.3125 112.476562 253.90625 112.476562 Z M 253.90625 112.476562 "/>
</g>
<g clip-path="url(#clip5)" clip-rule="nonzero">
<path style=" stroke:none;fill-rule:nonzero;fill:rgb(0%,0%,0%);fill-opacity:1;" d="M 248.6875 101.46875 L 247.375 101.46875 L 247.59375 104.34375 L 248.21875 104.34375 C 248.21875 102.9375 248.34375 102.78125 249.21875 102.78125 L 258.53125 102.78125 C 259.4375 102.78125 259.4375 103 259.4375 104.34375 L 260.0625 104.34375 C 260.03125 103.65625 260 102.625 260 102.125 C 260 101.5625 260.03125 100.5625 260.0625 99.875 L 259.4375 99.875 C 259.4375 101.1875 259.4375 101.40625 258.53125 101.40625 L 255 101.40625 C 255.34375 101.3125 256.40625 100.46875 256.40625 98.96875 C 256.40625 96.59375 254.4375 94.53125 251.875 94.53125 C 249.34375 94.53125 247.375 96.4375 247.375 98.6875 C 247.375 100.25 248.25 101.09375 248.6875 101.46875 Z M 253.90625 101.40625 L 249.46875 101.40625 C 248.4375 100.84375 247.875 99.875 247.875 98.84375 C 247.875 97.375 249.625 96.1875 251.875 96.1875 C 254.28125 96.1875 255.96875 97.5625 255.96875 99.03125 C 255.96875 99.84375 255.5625 100.59375 254.75 101.125 C 254.34375 101.40625 254.3125 101.40625 253.90625 101.40625 Z M 253.90625 101.40625 "/>
</g>
<path style=" stroke:none;fill-rule:nonzero;fill:rgb(0%,0%,0%);fill-opacity:1;" d="M 251.90625 83.90625 C 249.375 83.90625 247.25 85.875 247.25 88.28125 C 247.25 90.78125 249.4375 92.71875 251.90625 92.71875 C 254.5 92.71875 256.40625 90.65625 256.40625 88.3125 C 256.40625 85.90625 254.4375 83.90625 251.90625 83.90625 Z M 255.90625 88.28125 C 255.90625 89.15625 255.5 90.03125 254.5625 90.5625 C 253.6875 91.0625 252.46875 91.0625 251.75 91.0625 C 250.96875 91.0625 249.90625 91.0625 249.03125 90.59375 C 248.125 90.0625 247.6875 89.125 247.6875 88.3125 C 247.6875 87.4375 248.125 86.59375 249 86.0625 C 249.84375 85.53125 251 85.53125 251.75 85.53125 C 252.46875 85.53125 253.5625 85.53125 254.4375 85.96875 C 255.34375 86.4375 255.90625 87.3125 255.90625 88.28125 Z M 255.90625 88.28125 "/>
<path style=" stroke:none;fill-rule:nonzero;fill:rgb(0%,0%,0%);fill-opacity:1;" d="M 252.3125 79.160156 C 252.40625 78.722656 252.71875 77.097656 254.15625 77.097656 C 255.15625 77.097656 255.96875 77.785156 255.96875 79.347656 C 255.96875 81.035156 254.84375 81.753906 253.125 82.128906 C 252.875 82.191406 252.8125 82.191406 252.8125 82.410156 C 252.8125 82.660156 252.9375 82.660156 253.28125 82.660156 L 255.9375 82.660156 C 256.28125 82.660156 256.40625 82.660156 256.40625 82.441406 C 256.40625 82.347656 256.375 82.316406 256 81.941406 C 255.96875 81.910156 255.9375 81.910156 255.5625 81.535156 C 256.375 80.660156 256.40625 79.753906 256.40625 79.347656 C 256.40625 77.066406 255.0625 76.128906 253.625 76.128906 C 252.59375 76.128906 251.96875 76.722656 251.75 76.972656 C 251.09375 77.628906 250.9375 78.410156 250.78125 79.253906 C 250.5625 80.378906 250.3125 81.691406 249.15625 81.691406 C 248.4375 81.691406 247.625 81.191406 247.625 79.472656 C 247.625 77.285156 249.4375 77.160156 250.03125 77.128906 C 250.21875 77.128906 250.21875 76.941406 250.21875 76.910156 C 250.21875 76.628906 250.125 76.628906 249.75 76.628906 L 247.71875 76.628906 C 247.40625 76.628906 247.25 76.628906 247.25 76.847656 C 247.25 76.941406 247.25 77.003906 247.5 77.253906 C 247.5625 77.316406 247.75 77.503906 247.8125 77.597656 C 247.25 78.347656 247.25 79.160156 247.25 79.472656 C 247.25 81.910156 248.59375 82.660156 249.71875 82.660156 C 250.40625 82.660156 250.96875 82.347656 251.40625 81.816406 C 251.90625 81.160156 252.03125 80.597656 252.3125 79.160156 Z M 252.3125 79.160156 "/>
<path style=" stroke:none;fill-rule:nonzero;fill:rgb(0%,0%,0%);fill-opacity:1;" d="M 247.375 71.925781 L 247.59375 74.707031 L 248.21875 74.707031 C 248.21875 73.425781 248.34375 73.238281 249.3125 73.238281 L 254.6875 73.238281 C 255.5625 73.238281 255.5625 73.457031 255.5625 74.800781 L 256.1875 74.800781 C 256.15625 74.175781 256.125 73.082031 256.125 72.613281 C 256.125 71.894531 256.15625 71.207031 256.1875 70.519531 L 255.5625 70.519531 C 255.5625 71.863281 255.46875 71.925781 254.6875 71.925781 Z M 243.90625 71.863281 C 243.28125 71.863281 242.84375 72.332031 242.84375 72.894531 C 242.84375 73.519531 243.375 73.957031 243.90625 73.957031 C 244.4375 73.957031 244.96875 73.519531 244.96875 72.894531 C 244.96875 72.332031 244.53125 71.863281 243.90625 71.863281 Z M 243.90625 71.863281 "/>
<path style=" stroke:none;fill-rule:nonzero;fill:rgb(0%,0%,0%);fill-opacity:1;" d="M 248.21875 66.484375 L 248.21875 63.609375 L 247.59375 63.609375 L 247.59375 66.484375 L 243.9375 66.484375 L 243.9375 66.984375 C 245.5625 66.984375 247.6875 67.578125 247.78125 69.546875 L 248.21875 69.546875 L 248.21875 67.859375 L 253.71875 67.859375 C 256.15625 67.859375 256.40625 65.984375 256.40625 65.265625 C 256.40625 63.859375 255 63.296875 253.71875 63.296875 L 252.59375 63.296875 L 252.59375 63.796875 L 253.6875 63.796875 C 255.15625 63.796875 255.90625 64.390625 255.90625 65.140625 C 255.90625 66.484375 254.09375 66.484375 253.75 66.484375 Z M 248.21875 66.484375 "/>
<path style=" stroke:none;fill-rule:nonzero;fill:rgb(0%,0%,0%);fill-opacity:1;" d="M 251.15625 59.957031 C 248.1875 59.832031 247.6875 58.144531 247.6875 57.457031 C 247.6875 55.425781 250.375 55.207031 251.15625 55.207031 Z M 251.59375 59.957031 L 251.59375 54.394531 C 251.59375 53.957031 251.59375 53.894531 251.15625 53.894531 C 249.1875 53.894531 247.25 54.988281 247.25 57.457031 C 247.25 59.769531 249.3125 61.613281 251.8125 61.613281 C 254.46875 61.613281 256.40625 59.519531 256.40625 57.238281 C 256.40625 54.800781 254.1875 53.894531 253.8125 53.894531 C 253.625 53.894531 253.5625 54.050781 253.5625 54.175781 C 253.5625 54.332031 253.6875 54.394531 253.84375 54.425781 C 255.90625 55.113281 255.90625 56.925781 255.90625 57.113281 C 255.90625 58.113281 255.3125 58.894531 254.5625 59.363281 C 253.625 59.957031 252.3125 59.957031 251.59375 59.957031 Z M 251.59375 59.957031 "/>
</g>
</svg>
