<?xml version="1.0" encoding="UTF-8"?>
<svg xmlns="http://www.w3.org/2000/svg" xmlns:xlink="http://www.w3.org/1999/xlink" width="289.602203pt" height="119.331551pt" viewBox="0 0 289.602203 119.331551" version="1.1">
<defs>
<clipPath id="clip1">
  <path d="M 143 3 L 145 3 L 145 119.332031 L 143 119.332031 Z M 143 3 "/>
</clipPath>
<clipPath id="clip2">
  <path d="M 120 0 L 197 0 L 197 119.332031 L 120 119.332031 Z M 120 0 "/>
</clipPath>
<clipPath id="clip3">
  <path d="M 0 22 L 289.601562 22 L 289.601562 99 L 0 99 Z M 0 22 "/>
</clipPath>
</defs>
<g id="surface1">
<path style="fill:none;stroke-width:0.8;stroke-linecap:butt;stroke-linejoin:miter;stroke:rgb(100%,0%,0%);stroke-opacity:1;stroke-miterlimit:4;" d="M 288 61.375 L 0 61.375 "/>
<g clip-path="url(#clip1)" clip-rule="nonzero">
<path style="fill:none;stroke-width:0.8;stroke-linecap:butt;stroke-linejoin:miter;stroke:rgb(100%,0%,0%);stroke-opacity:1;stroke-miterlimit:4;" d="M 144 3.773438 L 144 118.972656 "/>
</g>
<g clip-path="url(#clip2)" clip-rule="nonzero">
<path style="fill:none;stroke-width:1.6;stroke-linecap:butt;stroke-linejoin:miter;stroke:rgb(0%,0%,100%);stroke-opacity:1;stroke-miterlimit:4;" d="M 187.199219 3.773438 L 129.601562 118.972656 "/>
</g>
<path style=" stroke:none;fill-rule:nonzero;fill:rgb(0%,0%,0%);fill-opacity:1;" d="M 225.105469 40.617188 C 225.367188 40.671875 226.339844 40.859375 226.339844 41.722656 C 226.339844 42.324219 225.929688 42.8125 224.992188 42.8125 C 223.980469 42.8125 223.546875 42.136719 223.324219 41.105469 C 223.285156 40.953125 223.285156 40.917969 223.152344 40.917969 C 223.003906 40.917969 223.003906 40.992188 223.003906 41.199219 L 223.003906 42.792969 C 223.003906 43 223.003906 43.074219 223.136719 43.074219 C 223.191406 43.074219 223.210938 43.054688 223.433594 42.828125 C 223.453125 42.8125 223.453125 42.792969 223.679688 42.566406 C 224.203125 43.054688 224.746094 43.074219 224.992188 43.074219 C 226.359375 43.074219 226.921875 42.265625 226.921875 41.40625 C 226.921875 40.785156 226.566406 40.410156 226.417969 40.28125 C 226.023438 39.886719 225.554688 39.792969 225.046875 39.699219 C 224.371094 39.566406 223.585938 39.417969 223.585938 38.722656 C 223.585938 38.292969 223.886719 37.804688 224.917969 37.804688 C 226.230469 37.804688 226.304688 38.890625 226.324219 39.25 C 226.324219 39.359375 226.433594 39.359375 226.453125 39.359375 C 226.621094 39.359375 226.621094 39.304688 226.621094 39.078125 L 226.621094 37.859375 C 226.621094 37.671875 226.621094 37.578125 226.492188 37.578125 C 226.433594 37.578125 226.398438 37.578125 226.246094 37.730469 C 226.210938 37.765625 226.097656 37.878906 226.042969 37.917969 C 225.589844 37.578125 225.105469 37.578125 224.917969 37.578125 C 223.453125 37.578125 223.003906 38.386719 223.003906 39.0625 C 223.003906 39.472656 223.191406 39.8125 223.511719 40.074219 C 223.902344 40.375 224.242188 40.449219 225.105469 40.617188 Z M 225.105469 40.617188 "/>
<path style=" stroke:none;fill-rule:nonzero;fill:rgb(0%,0%,0%);fill-opacity:1;" d="M 229.445312 37.65625 L 227.773438 37.785156 L 227.773438 38.160156 C 228.542969 38.160156 228.65625 38.234375 228.65625 38.816406 L 228.65625 42.042969 C 228.65625 42.566406 228.523438 42.566406 227.71875 42.566406 L 227.71875 42.941406 C 228.09375 42.921875 228.75 42.90625 229.03125 42.90625 C 229.460938 42.90625 229.875 42.921875 230.289062 42.941406 L 230.289062 42.566406 C 229.480469 42.566406 229.445312 42.511719 229.445312 42.042969 Z M 229.480469 35.574219 C 229.480469 35.199219 229.199219 34.9375 228.863281 34.9375 C 228.488281 34.9375 228.226562 35.253906 228.226562 35.574219 C 228.226562 35.890625 228.488281 36.210938 228.863281 36.210938 C 229.199219 36.210938 229.480469 35.949219 229.480469 35.574219 Z M 229.480469 35.574219 "/>
<path style=" stroke:none;fill-rule:nonzero;fill:rgb(0%,0%,0%);fill-opacity:1;" d="M 231.957031 38.835938 L 231.957031 42.042969 C 231.957031 42.566406 231.828125 42.566406 231.019531 42.566406 L 231.019531 42.941406 C 231.453125 42.921875 232.050781 42.90625 232.390625 42.90625 C 232.691406 42.90625 233.308594 42.921875 233.722656 42.941406 L 233.722656 42.566406 C 232.914062 42.566406 232.785156 42.566406 232.785156 42.042969 L 232.785156 39.828125 C 232.785156 38.59375 233.644531 37.917969 234.394531 37.917969 C 235.164062 37.917969 235.296875 38.554688 235.296875 39.25 L 235.296875 42.042969 C 235.296875 42.566406 235.164062 42.566406 234.359375 42.566406 L 234.359375 42.941406 C 234.769531 42.921875 235.390625 42.90625 235.707031 42.90625 C 236.007812 42.90625 236.644531 42.921875 237.039062 42.941406 L 237.039062 42.566406 C 236.421875 42.566406 236.121094 42.566406 236.121094 42.210938 L 236.121094 39.921875 C 236.121094 38.890625 236.121094 38.535156 235.746094 38.105469 C 235.578125 37.898438 235.183594 37.65625 234.488281 37.65625 C 233.609375 37.65625 233.046875 38.160156 232.707031 38.910156 L 232.707031 37.65625 L 231.019531 37.785156 L 231.019531 38.160156 C 231.863281 38.160156 231.957031 38.234375 231.957031 38.835938 Z M 231.957031 38.835938 "/>
<path style=" stroke:none;fill-rule:nonzero;fill:rgb(0%,0%,0%);fill-opacity:1;" d="M 243.273438 39.324219 C 243.347656 39.023438 243.628906 37.917969 244.457031 37.917969 C 244.511719 37.917969 244.8125 37.917969 245.054688 38.066406 C 244.71875 38.140625 244.492188 38.421875 244.492188 38.722656 C 244.492188 38.910156 244.625 39.136719 244.941406 39.136719 C 245.207031 39.136719 245.582031 38.929688 245.582031 38.441406 C 245.582031 37.824219 244.886719 37.65625 244.472656 37.65625 C 243.78125 37.65625 243.367188 38.292969 243.21875 38.554688 C 242.917969 37.765625 242.28125 37.65625 241.925781 37.65625 C 240.6875 37.65625 239.992188 39.191406 239.992188 39.492188 C 239.992188 39.625 240.125 39.625 240.144531 39.625 C 240.238281 39.625 240.273438 39.585938 240.292969 39.492188 C 240.707031 38.21875 241.492188 37.917969 241.90625 37.917969 C 242.128906 37.917969 242.542969 38.03125 242.542969 38.722656 C 242.542969 39.097656 242.335938 39.886719 241.90625 41.574219 C 241.71875 42.304688 241.285156 42.8125 240.761719 42.8125 C 240.6875 42.8125 240.425781 42.8125 240.160156 42.660156 C 240.460938 42.585938 240.722656 42.34375 240.722656 42.003906 C 240.722656 41.6875 240.460938 41.59375 240.292969 41.59375 C 239.917969 41.59375 239.636719 41.890625 239.636719 42.285156 C 239.636719 42.828125 240.21875 43.074219 240.742188 43.074219 C 241.550781 43.074219 241.980469 42.230469 242 42.171875 C 242.148438 42.605469 242.582031 43.074219 243.292969 43.074219 C 244.53125 43.074219 245.207031 41.535156 245.207031 41.234375 C 245.207031 41.105469 245.113281 41.105469 245.074219 41.105469 C 244.960938 41.105469 244.941406 41.160156 244.90625 41.234375 C 244.511719 42.53125 243.707031 42.8125 243.332031 42.8125 C 242.863281 42.8125 242.675781 42.4375 242.675781 42.023438 C 242.675781 41.761719 242.730469 41.5 242.863281 40.972656 Z M 243.273438 39.324219 "/>
<path style=" stroke:none;fill-rule:nonzero;fill:rgb(0%,0%,0%);fill-opacity:1;" d="M 192.09375 7.050781 L 193.371094 5.8125 C 195.226562 4.164062 195.9375 3.523438 195.9375 2.324219 C 195.9375 0.957031 194.871094 0 193.40625 0 C 192.058594 0 191.175781 1.105469 191.175781 2.175781 C 191.175781 2.832031 191.777344 2.832031 191.8125 2.832031 C 192.019531 2.832031 192.433594 2.699219 192.433594 2.195312 C 192.433594 1.894531 192.207031 1.574219 191.792969 1.574219 C 191.699219 1.574219 191.683594 1.574219 191.644531 1.59375 C 191.90625 0.804688 192.5625 0.375 193.257812 0.375 C 194.34375 0.375 194.851562 1.351562 194.851562 2.324219 C 194.851562 3.28125 194.269531 4.21875 193.59375 4.96875 L 191.308594 7.519531 C 191.175781 7.648438 191.175781 7.6875 191.175781 7.96875 L 195.621094 7.96875 L 195.9375 5.886719 L 195.65625 5.886719 C 195.582031 6.242188 195.507812 6.769531 195.375 6.957031 C 195.300781 7.050781 194.511719 7.050781 194.25 7.050781 Z M 192.09375 7.050781 "/>
<path style=" stroke:none;fill-rule:nonzero;fill:rgb(0%,0%,0%);fill-opacity:1;" d="M 200.546875 4.351562 C 200.621094 4.050781 200.902344 2.945312 201.726562 2.945312 C 201.785156 2.945312 202.085938 2.945312 202.328125 3.09375 C 201.992188 3.167969 201.765625 3.449219 201.765625 3.75 C 201.765625 3.9375 201.898438 4.164062 202.214844 4.164062 C 202.476562 4.164062 202.851562 3.957031 202.851562 3.46875 C 202.851562 2.851562 202.160156 2.679688 201.746094 2.679688 C 201.054688 2.679688 200.640625 3.320312 200.492188 3.582031 C 200.191406 2.792969 199.554688 2.679688 199.195312 2.679688 C 197.960938 2.679688 197.265625 4.21875 197.265625 4.519531 C 197.265625 4.648438 197.398438 4.648438 197.414062 4.648438 C 197.507812 4.648438 197.546875 4.613281 197.566406 4.519531 C 197.976562 3.242188 198.765625 2.945312 199.179688 2.945312 C 199.402344 2.945312 199.816406 3.054688 199.816406 3.75 C 199.816406 4.125 199.609375 4.914062 199.179688 6.601562 C 198.992188 7.332031 198.558594 7.835938 198.035156 7.835938 C 197.960938 7.835938 197.695312 7.835938 197.433594 7.6875 C 197.734375 7.613281 197.996094 7.367188 197.996094 7.03125 C 197.996094 6.710938 197.734375 6.617188 197.566406 6.617188 C 197.191406 6.617188 196.910156 6.917969 196.910156 7.3125 C 196.910156 7.855469 197.492188 8.101562 198.015625 8.101562 C 198.820312 8.101562 199.253906 7.257812 199.273438 7.199219 C 199.421875 7.632812 199.851562 8.101562 200.566406 8.101562 C 201.804688 8.101562 202.476562 6.5625 202.476562 6.261719 C 202.476562 6.132812 202.382812 6.132812 202.347656 6.132812 C 202.234375 6.132812 202.214844 6.1875 202.179688 6.261719 C 201.785156 7.554688 200.976562 7.835938 200.601562 7.835938 C 200.132812 7.835938 199.945312 7.460938 199.945312 7.050781 C 199.945312 6.789062 200.003906 6.523438 200.132812 6 Z M 200.546875 4.351562 "/>
<path style=" stroke:none;fill-rule:nonzero;fill:rgb(0%,0%,0%);fill-opacity:1;" d="M 213.917969 5.210938 C 214.125 5.210938 214.347656 5.210938 214.347656 4.96875 C 214.347656 4.742188 214.125 4.742188 213.917969 4.742188 L 207.449219 4.742188 C 207.242188 4.742188 207.035156 4.742188 207.035156 4.96875 C 207.035156 5.210938 207.242188 5.210938 207.449219 5.210938 Z M 213.917969 5.210938 "/>
<path style=" stroke:none;fill-rule:nonzero;fill:rgb(0%,0%,0%);fill-opacity:1;" d="M 221.523438 0.320312 C 221.523438 0.0195312 221.523438 0 221.242188 0 C 220.492188 0.769531 219.441406 0.769531 219.066406 0.769531 L 219.066406 1.144531 C 219.308594 1.144531 220.003906 1.144531 220.621094 0.824219 L 220.621094 7.03125 C 220.621094 7.460938 220.585938 7.59375 219.515625 7.59375 L 219.140625 7.59375 L 219.140625 7.96875 C 219.554688 7.929688 220.585938 7.929688 221.074219 7.929688 C 221.542969 7.929688 222.589844 7.929688 223.003906 7.96875 L 223.003906 7.59375 L 222.628906 7.59375 C 221.542969 7.59375 221.523438 7.460938 221.523438 7.03125 Z M 221.523438 0.320312 "/>
<g clip-path="url(#clip3)" clip-rule="nonzero">
<path style="fill:none;stroke-width:1.6;stroke-linecap:butt;stroke-linejoin:miter;stroke:rgb(0%,0%,0%);stroke-opacity:1;stroke-miterlimit:4;" d="M 1.382812 32.667969 C 1.480469 32.640625 1.574219 32.613281 1.671875 32.585938 C 1.769531 32.558594 1.863281 32.535156 1.960938 32.507812 C 2.054688 32.484375 2.152344 32.457031 2.25 32.433594 C 2.34375 32.410156 2.441406 32.386719 2.535156 32.363281 C 2.632812 32.339844 2.730469 32.316406 2.824219 32.292969 C 2.921875 32.269531 3.015625 32.246094 3.113281 32.226562 C 3.210938 32.203125 3.304688 32.183594 3.402344 32.164062 C 3.496094 32.140625 3.59375 32.121094 3.691406 32.101562 C 3.785156 32.082031 3.882812 32.0625 3.976562 32.042969 C 4.074219 32.023438 4.171875 32.007812 4.265625 31.988281 C 4.363281 31.96875 4.457031 31.953125 4.554688 31.9375 C 4.652344 31.917969 4.746094 31.902344 4.84375 31.886719 C 4.9375 31.871094 5.035156 31.855469 5.132812 31.839844 C 5.226562 31.824219 5.324219 31.808594 5.417969 31.796875 C 5.515625 31.78125 5.613281 31.769531 5.707031 31.753906 C 5.804688 31.742188 5.898438 31.730469 5.996094 31.71875 C 6.09375 31.703125 6.1875 31.691406 6.285156 31.683594 C 6.378906 31.671875 6.476562 31.660156 6.574219 31.648438 C 6.667969 31.640625 6.765625 31.628906 6.859375 31.621094 C 6.957031 31.609375 7.054688 31.601562 7.148438 31.59375 C 7.246094 31.585938 7.339844 31.578125 7.4375 31.570312 C 7.535156 31.5625 7.628906 31.554688 7.726562 31.550781 C 7.820312 31.542969 7.917969 31.535156 8.015625 31.53125 C 8.109375 31.523438 8.207031 31.519531 8.300781 31.515625 C 8.398438 31.511719 8.496094 31.507812 8.589844 31.503906 C 8.6875 31.5 8.78125 31.496094 8.878906 31.492188 C 8.976562 31.492188 9.070312 31.488281 9.167969 31.488281 C 9.261719 31.484375 9.359375 31.484375 9.457031 31.484375 C 9.550781 31.484375 9.648438 31.484375 9.746094 31.484375 C 9.839844 31.484375 9.9375 31.484375 10.03125 31.484375 L 10.320312 31.492188 C 10.417969 31.492188 10.511719 31.496094 10.609375 31.5 C 10.707031 31.503906 10.800781 31.503906 10.898438 31.511719 C 10.992188 31.515625 11.089844 31.519531 11.1875 31.523438 C 11.28125 31.527344 11.378906 31.535156 11.472656 31.539062 C 11.570312 31.546875 11.667969 31.554688 11.761719 31.558594 C 11.859375 31.566406 11.953125 31.574219 12.050781 31.582031 C 12.148438 31.589844 12.242188 31.597656 12.339844 31.609375 C 12.433594 31.617188 12.53125 31.625 12.628906 31.636719 C 12.722656 31.644531 12.820312 31.65625 12.914062 31.667969 C 13.011719 31.675781 13.109375 31.6875 13.203125 31.699219 C 13.300781 31.710938 13.394531 31.722656 13.492188 31.738281 C 13.589844 31.75 13.683594 31.761719 13.78125 31.777344 C 13.875 31.789062 13.972656 31.804688 14.070312 31.820312 C 14.164062 31.835938 14.261719 31.847656 14.355469 31.863281 C 14.453125 31.878906 14.550781 31.894531 14.644531 31.914062 C 14.742188 31.929688 14.835938 31.945312 14.933594 31.964844 C 15.03125 31.980469 15.125 32 15.222656 32.019531 C 15.316406 32.035156 15.414062 32.054688 15.511719 32.074219 C 15.605469 32.09375 15.703125 32.113281 15.796875 32.132812 C 15.894531 32.152344 15.992188 32.175781 16.085938 32.195312 C 16.183594 32.21875 16.277344 32.238281 16.375 32.261719 C 16.472656 32.285156 16.566406 32.304688 16.664062 32.328125 C 16.757812 32.351562 16.855469 32.375 16.953125 32.398438 C 17.046875 32.425781 17.144531 32.449219 17.238281 32.472656 C 17.335938 32.5 17.433594 32.523438 17.527344 32.550781 C 17.625 32.574219 17.71875 32.601562 17.816406 32.628906 C 17.914062 32.65625 18.007812 32.683594 18.105469 32.710938 C 18.199219 32.738281 18.296875 32.765625 18.394531 32.796875 C 18.488281 32.824219 18.585938 32.851562 18.679688 32.882812 C 18.777344 32.914062 18.875 32.941406 18.96875 32.972656 C 19.066406 33.003906 19.160156 33.035156 19.257812 33.066406 C 19.355469 33.097656 19.449219 33.128906 19.546875 33.160156 C 19.640625 33.195312 19.738281 33.226562 19.835938 33.257812 C 19.929688 33.292969 20.027344 33.328125 20.121094 33.359375 C 20.21875 33.394531 20.316406 33.429688 20.410156 33.464844 C 20.507812 33.5 20.601562 33.535156 20.699219 33.570312 C 20.796875 33.605469 20.890625 33.644531 20.988281 33.679688 C 21.082031 33.714844 21.179688 33.753906 21.277344 33.792969 C 21.371094 33.828125 21.46875 33.867188 21.5625 33.90625 C 21.660156 33.945312 21.757812 33.984375 21.851562 34.023438 C 21.949219 34.0625 22.042969 34.101562 22.140625 34.144531 C 22.238281 34.183594 22.332031 34.222656 22.429688 34.265625 C 22.523438 34.304688 22.621094 34.347656 22.71875 34.390625 C 22.8125 34.433594 22.910156 34.476562 23.003906 34.519531 C 23.101562 34.558594 23.199219 34.605469 23.292969 34.648438 C 23.390625 34.691406 23.484375 34.734375 23.582031 34.78125 C 23.679688 34.824219 23.773438 34.871094 23.871094 34.914062 C 23.964844 34.960938 24.0625 35.007812 24.160156 35.054688 C 24.253906 35.097656 24.351562 35.144531 24.445312 35.195312 C 24.542969 35.242188 24.640625 35.289062 24.734375 35.335938 C 24.832031 35.382812 24.925781 35.433594 25.023438 35.480469 C 25.121094 35.53125 25.214844 35.578125 25.3125 35.628906 C 25.40625 35.679688 25.503906 35.730469 25.601562 35.78125 C 25.695312 35.832031 25.792969 35.882812 25.886719 35.933594 C 25.984375 35.984375 26.082031 36.035156 26.175781 36.085938 C 26.273438 36.140625 26.367188 36.191406 26.464844 36.246094 C 26.5625 36.296875 26.65625 36.351562 26.753906 36.40625 C 26.847656 36.457031 26.945312 36.511719 27.042969 36.566406 C 27.136719 36.621094 27.234375 36.675781 27.328125 36.730469 C 27.425781 36.789062 27.523438 36.84375 27.617188 36.898438 C 27.714844 36.957031 27.808594 37.011719 27.90625 37.070312 C 28.003906 37.125 28.097656 37.183594 28.195312 37.242188 C 28.289062 37.296875 28.386719 37.355469 28.484375 37.414062 C 28.578125 37.472656 28.675781 37.53125 28.769531 37.589844 C 28.867188 37.648438 28.964844 37.710938 29.058594 37.769531 C 29.15625 37.828125 29.25 37.890625 29.347656 37.949219 C 29.445312 38.011719 29.539062 38.070312 29.636719 38.132812 C 29.730469 38.195312 29.828125 38.257812 29.925781 38.320312 C 30.019531 38.382812 30.117188 38.445312 30.210938 38.507812 C 30.308594 38.570312 30.40625 38.632812 30.5 38.695312 C 30.597656 38.761719 30.691406 38.824219 30.789062 38.886719 C 30.886719 38.953125 30.980469 39.015625 31.078125 39.082031 C 31.171875 39.148438 31.269531 39.210938 31.367188 39.277344 C 31.460938 39.34375 31.558594 39.410156 31.652344 39.476562 C 31.75 39.542969 31.847656 39.609375 31.941406 39.675781 C 32.039062 39.746094 32.132812 39.8125 32.230469 39.878906 C 32.328125 39.949219 32.421875 40.015625 32.519531 40.085938 C 32.613281 40.152344 32.710938 40.222656 32.808594 40.289062 C 32.902344 40.359375 33 40.429688 33.09375 40.5 C 33.191406 40.570312 33.289062 40.640625 33.382812 40.710938 C 33.480469 40.78125 33.574219 40.851562 33.671875 40.921875 C 33.769531 40.992188 33.863281 41.066406 33.960938 41.136719 C 34.054688 41.207031 34.152344 41.28125 34.25 41.351562 C 34.34375 41.425781 34.441406 41.496094 34.535156 41.570312 C 34.632812 41.644531 34.730469 41.71875 34.824219 41.789062 C 34.921875 41.863281 35.015625 41.9375 35.113281 42.011719 C 35.210938 42.085938 35.304688 42.160156 35.402344 42.238281 C 35.496094 42.3125 35.59375 42.386719 35.691406 42.460938 C 35.785156 42.539062 35.882812 42.613281 35.976562 42.691406 C 36.074219 42.765625 36.171875 42.84375 36.265625 42.917969 C 36.363281 42.996094 36.457031 43.070312 36.554688 43.148438 C 36.652344 43.226562 36.746094 43.304688 36.84375 43.382812 C 36.9375 43.460938 37.035156 43.539062 37.132812 43.617188 C 37.226562 43.695312 37.324219 43.773438 37.417969 43.851562 C 37.515625 43.929688 37.613281 44.011719 37.707031 44.089844 C 37.804688 44.167969 37.898438 44.25 37.996094 44.328125 C 38.09375 44.410156 38.1875 44.488281 38.285156 44.570312 C 38.378906 44.648438 38.476562 44.730469 38.574219 44.8125 C 38.667969 44.894531 38.765625 44.972656 38.859375 45.054688 C 38.957031 45.136719 39.054688 45.21875 39.148438 45.300781 C 39.246094 45.382812 39.339844 45.464844 39.4375 45.546875 C 39.535156 45.632812 39.628906 45.714844 39.726562 45.796875 C 39.820312 45.878906 39.917969 45.964844 40.015625 46.046875 C 40.109375 46.128906 40.207031 46.214844 40.300781 46.296875 C 40.398438 46.382812 40.496094 46.464844 40.589844 46.550781 C 40.6875 46.636719 40.78125 46.71875 40.878906 46.804688 C 40.976562 46.890625 41.070312 46.976562 41.167969 47.058594 C 41.261719 47.144531 41.359375 47.230469 41.457031 47.316406 C 41.550781 47.402344 41.648438 47.488281 41.746094 47.574219 C 41.839844 47.660156 41.9375 47.746094 42.03125 47.835938 C 42.128906 47.921875 42.226562 48.007812 42.320312 48.09375 C 42.417969 48.183594 42.511719 48.269531 42.609375 48.355469 C 42.707031 48.445312 42.800781 48.53125 42.898438 48.621094 C 42.992188 48.707031 43.089844 48.796875 43.1875 48.882812 C 43.28125 48.972656 43.378906 49.0625 43.472656 49.148438 C 43.570312 49.238281 43.667969 49.328125 43.761719 49.414062 C 43.859375 49.503906 43.953125 49.59375 44.050781 49.683594 C 44.148438 49.773438 44.242188 49.863281 44.339844 49.953125 C 44.433594 50.042969 44.53125 50.132812 44.628906 50.222656 C 44.722656 50.3125 44.820312 50.402344 44.914062 50.492188 C 45.011719 50.582031 45.109375 50.671875 45.203125 50.765625 C 45.300781 50.855469 45.394531 50.945312 45.492188 51.035156 C 45.589844 51.128906 45.683594 51.21875 45.78125 51.308594 C 45.875 51.402344 45.972656 51.492188 46.070312 51.585938 C 46.164062 51.675781 46.261719 51.765625 46.355469 51.859375 C 46.453125 51.953125 46.550781 52.042969 46.644531 52.136719 C 46.742188 52.226562 46.835938 52.320312 46.933594 52.414062 C 47.03125 52.503906 47.125 52.597656 47.222656 52.691406 C 47.316406 52.78125 47.414062 52.875 47.511719 52.96875 C 47.605469 53.0625 47.703125 53.15625 47.796875 53.246094 C 47.894531 53.339844 47.992188 53.433594 48.085938 53.527344 C 48.183594 53.621094 48.277344 53.714844 48.375 53.808594 C 48.472656 53.902344 48.566406 53.996094 48.664062 54.089844 C 48.757812 54.183594 48.855469 54.277344 48.953125 54.371094 C 49.046875 54.464844 49.144531 54.558594 49.238281 54.652344 C 49.335938 54.75 49.433594 54.84375 49.527344 54.9375 C 49.625 55.03125 49.71875 55.125 49.816406 55.21875 C 49.914062 55.316406 50.007812 55.410156 50.105469 55.503906 C 50.199219 55.597656 50.296875 55.695312 50.394531 55.789062 C 50.488281 55.882812 50.585938 55.980469 50.679688 56.074219 C 50.777344 56.167969 50.875 56.265625 50.96875 56.359375 C 51.066406 56.453125 51.160156 56.550781 51.257812 56.644531 C 51.355469 56.742188 51.449219 56.835938 51.546875 56.929688 C 51.640625 57.027344 51.738281 57.121094 51.835938 57.21875 C 51.929688 57.3125 52.027344 57.410156 52.121094 57.503906 C 52.21875 57.601562 52.316406 57.695312 52.410156 57.792969 C 52.507812 57.886719 52.601562 57.984375 52.699219 58.078125 C 52.796875 58.175781 52.890625 58.269531 52.988281 58.367188 C 53.082031 58.460938 53.179688 58.558594 53.277344 58.652344 C 53.371094 58.75 53.46875 58.847656 53.5625 58.941406 C 53.660156 59.039062 53.757812 59.132812 53.851562 59.230469 C 53.949219 59.328125 54.042969 59.421875 54.140625 59.519531 C 54.238281 59.613281 54.332031 59.710938 54.429688 59.804688 L 54.71875 60.09375 L 55.003906 60.382812 L 55.582031 60.960938 C 55.679688 61.054688 55.773438 61.152344 55.871094 61.246094 C 55.964844 61.34375 56.0625 61.441406 56.160156 61.535156 C 56.253906 61.632812 56.351562 61.726562 56.445312 61.824219 C 56.542969 61.917969 56.640625 62.015625 56.734375 62.113281 C 56.832031 62.207031 56.925781 62.304688 57.023438 62.398438 C 57.121094 62.496094 57.214844 62.589844 57.3125 62.6875 C 57.40625 62.78125 57.503906 62.878906 57.601562 62.972656 C 57.695312 63.070312 57.792969 63.164062 57.886719 63.261719 C 57.984375 63.355469 58.082031 63.453125 58.175781 63.546875 C 58.273438 63.644531 58.367188 63.738281 58.464844 63.832031 C 58.5625 63.929688 58.65625 64.023438 58.753906 64.121094 C 58.847656 64.214844 58.945312 64.308594 59.042969 64.40625 C 59.136719 64.5 59.234375 64.59375 59.328125 64.691406 C 59.425781 64.785156 59.523438 64.878906 59.617188 64.976562 C 59.714844 65.070312 59.808594 65.164062 59.90625 65.257812 C 60.003906 65.355469 60.097656 65.449219 60.195312 65.542969 C 60.289062 65.636719 60.386719 65.730469 60.484375 65.824219 C 60.578125 65.921875 60.675781 66.015625 60.769531 66.109375 C 60.867188 66.203125 60.964844 66.296875 61.058594 66.390625 C 61.15625 66.484375 61.25 66.578125 61.347656 66.671875 C 61.445312 66.765625 61.539062 66.859375 61.636719 66.953125 C 61.730469 67.046875 61.828125 67.140625 61.925781 67.234375 C 62.019531 67.324219 62.117188 67.417969 62.210938 67.511719 C 62.308594 67.605469 62.40625 67.699219 62.5 67.789062 C 62.597656 67.882812 62.691406 67.976562 62.789062 68.070312 C 62.886719 68.160156 62.980469 68.253906 63.078125 68.347656 C 63.171875 68.4375 63.269531 68.53125 63.367188 68.621094 C 63.460938 68.714844 63.558594 68.804688 63.652344 68.898438 C 63.75 68.988281 63.847656 69.082031 63.941406 69.171875 C 64.039062 69.265625 64.132812 69.355469 64.230469 69.445312 C 64.328125 69.539062 64.421875 69.628906 64.519531 69.71875 C 64.613281 69.808594 64.710938 69.902344 64.808594 69.992188 C 64.902344 70.082031 65 70.171875 65.09375 70.261719 C 65.191406 70.351562 65.289062 70.441406 65.382812 70.53125 C 65.480469 70.621094 65.574219 70.710938 65.671875 70.800781 C 65.769531 70.890625 65.863281 70.980469 65.960938 71.070312 C 66.054688 71.15625 66.152344 71.246094 66.25 71.335938 C 66.34375 71.425781 66.441406 71.511719 66.535156 71.601562 C 66.632812 71.6875 66.730469 71.777344 66.824219 71.867188 C 66.921875 71.953125 67.015625 72.042969 67.113281 72.128906 C 67.210938 72.214844 67.304688 72.304688 67.402344 72.390625 C 67.496094 72.476562 67.59375 72.566406 67.691406 72.652344 C 67.785156 72.738281 67.882812 72.824219 67.976562 72.910156 C 68.074219 73 68.171875 73.085938 68.265625 73.171875 C 68.363281 73.257812 68.457031 73.34375 68.554688 73.425781 C 68.652344 73.511719 68.746094 73.597656 68.84375 73.683594 C 68.9375 73.769531 69.035156 73.851562 69.132812 73.9375 C 69.226562 74.023438 69.324219 74.105469 69.417969 74.191406 C 69.515625 74.273438 69.613281 74.359375 69.707031 74.441406 C 69.804688 74.527344 69.898438 74.609375 69.996094 74.691406 C 70.09375 74.777344 70.1875 74.859375 70.285156 74.941406 C 70.378906 75.023438 70.476562 75.105469 70.574219 75.1875 C 70.667969 75.273438 70.765625 75.351562 70.859375 75.433594 C 70.957031 75.515625 71.054688 75.597656 71.148438 75.679688 C 71.246094 75.761719 71.339844 75.84375 71.4375 75.921875 C 71.535156 76.003906 71.628906 76.082031 71.726562 76.164062 C 71.820312 76.242188 71.917969 76.324219 72.015625 76.402344 C 72.109375 76.484375 72.207031 76.5625 72.300781 76.640625 C 72.398438 76.71875 72.496094 76.800781 72.589844 76.878906 C 72.6875 76.957031 72.78125 77.035156 72.878906 77.113281 C 72.976562 77.191406 73.070312 77.269531 73.167969 77.347656 C 73.261719 77.421875 73.359375 77.5 73.457031 77.578125 C 73.550781 77.652344 73.648438 77.730469 73.746094 77.808594 C 73.839844 77.882812 73.9375 77.960938 74.03125 78.035156 C 74.128906 78.109375 74.226562 78.1875 74.320312 78.261719 C 74.417969 78.335938 74.511719 78.410156 74.609375 78.484375 C 74.707031 78.558594 74.800781 78.632812 74.898438 78.707031 C 74.992188 78.78125 75.089844 78.855469 75.1875 78.929688 C 75.28125 79 75.378906 79.074219 75.472656 79.148438 C 75.570312 79.21875 75.667969 79.292969 75.761719 79.363281 C 75.859375 79.4375 75.953125 79.507812 76.050781 79.578125 C 76.148438 79.652344 76.242188 79.722656 76.339844 79.792969 C 76.433594 79.863281 76.53125 79.933594 76.628906 80.003906 C 76.722656 80.074219 76.820312 80.144531 76.914062 80.210938 C 77.011719 80.28125 77.109375 80.351562 77.203125 80.417969 C 77.300781 80.488281 77.394531 80.554688 77.492188 80.625 C 77.589844 80.691406 77.683594 80.761719 77.78125 80.828125 C 77.875 80.894531 77.972656 80.960938 78.070312 81.027344 C 78.164062 81.09375 78.261719 81.160156 78.355469 81.226562 C 78.453125 81.292969 78.550781 81.359375 78.644531 81.425781 C 78.742188 81.488281 78.835938 81.554688 78.933594 81.621094 C 79.03125 81.683594 79.125 81.746094 79.222656 81.8125 C 79.316406 81.875 79.414062 81.9375 79.511719 82.003906 C 79.605469 82.066406 79.703125 82.128906 79.796875 82.191406 C 79.894531 82.253906 79.992188 82.316406 80.085938 82.375 C 80.183594 82.4375 80.277344 82.5 80.375 82.558594 C 80.472656 82.621094 80.566406 82.683594 80.664062 82.742188 C 80.757812 82.800781 80.855469 82.863281 80.953125 82.921875 C 81.046875 82.980469 81.144531 83.039062 81.238281 83.097656 C 81.335938 83.15625 81.433594 83.214844 81.527344 83.273438 C 81.625 83.332031 81.71875 83.386719 81.816406 83.445312 C 81.914062 83.503906 82.007812 83.558594 82.105469 83.617188 C 82.199219 83.671875 82.296875 83.726562 82.394531 83.785156 C 82.488281 83.839844 82.585938 83.894531 82.679688 83.949219 C 82.777344 84.003906 82.875 84.058594 82.96875 84.113281 C 83.066406 84.167969 83.160156 84.21875 83.257812 84.273438 C 83.355469 84.324219 83.449219 84.378906 83.546875 84.429688 C 83.640625 84.484375 83.738281 84.535156 83.835938 84.585938 C 83.929688 84.636719 84.027344 84.691406 84.121094 84.742188 C 84.21875 84.792969 84.316406 84.839844 84.410156 84.890625 C 84.507812 84.941406 84.601562 84.992188 84.699219 85.039062 C 84.796875 85.089844 84.890625 85.136719 84.988281 85.1875 C 85.082031 85.234375 85.179688 85.28125 85.277344 85.328125 C 85.371094 85.378906 85.46875 85.425781 85.5625 85.472656 C 85.660156 85.515625 85.757812 85.5625 85.851562 85.609375 C 85.949219 85.65625 86.042969 85.699219 86.140625 85.746094 C 86.238281 85.789062 86.332031 85.835938 86.429688 85.878906 C 86.523438 85.921875 86.621094 85.964844 86.71875 86.007812 C 86.8125 86.054688 86.910156 86.09375 87.003906 86.136719 C 87.101562 86.179688 87.199219 86.222656 87.292969 86.261719 C 87.390625 86.304688 87.484375 86.347656 87.582031 86.386719 C 87.679688 86.425781 87.773438 86.46875 87.871094 86.507812 C 87.964844 86.546875 88.0625 86.585938 88.160156 86.625 C 88.253906 86.664062 88.351562 86.703125 88.445312 86.742188 C 88.542969 86.777344 88.640625 86.816406 88.734375 86.851562 C 88.832031 86.890625 88.925781 86.925781 89.023438 86.960938 C 89.121094 87 89.214844 87.035156 89.3125 87.070312 C 89.40625 87.105469 89.503906 87.140625 89.601562 87.175781 C 89.695312 87.210938 89.792969 87.242188 89.886719 87.277344 C 89.984375 87.308594 90.082031 87.34375 90.175781 87.375 C 90.273438 87.410156 90.367188 87.441406 90.464844 87.472656 C 90.5625 87.503906 90.65625 87.535156 90.753906 87.566406 C 90.847656 87.597656 90.945312 87.625 91.042969 87.65625 C 91.136719 87.6875 91.234375 87.714844 91.328125 87.746094 C 91.425781 87.773438 91.523438 87.800781 91.617188 87.832031 C 91.714844 87.859375 91.808594 87.886719 91.90625 87.914062 C 92.003906 87.941406 92.097656 87.96875 92.195312 87.992188 C 92.289062 88.019531 92.386719 88.046875 92.484375 88.070312 C 92.578125 88.097656 92.675781 88.121094 92.769531 88.144531 C 92.867188 88.167969 92.964844 88.191406 93.058594 88.214844 C 93.15625 88.238281 93.25 88.261719 93.347656 88.285156 C 93.445312 88.308594 93.539062 88.328125 93.636719 88.351562 C 93.730469 88.371094 93.828125 88.394531 93.925781 88.414062 C 94.019531 88.433594 94.117188 88.457031 94.210938 88.476562 C 94.308594 88.496094 94.40625 88.515625 94.5 88.53125 C 94.597656 88.550781 94.691406 88.570312 94.789062 88.585938 C 94.886719 88.605469 94.980469 88.621094 95.078125 88.640625 C 95.171875 88.65625 95.269531 88.671875 95.367188 88.6875 C 95.460938 88.703125 95.558594 88.71875 95.652344 88.734375 C 95.75 88.75 95.847656 88.761719 95.941406 88.777344 C 96.039062 88.792969 96.132812 88.804688 96.230469 88.816406 C 96.328125 88.832031 96.421875 88.84375 96.519531 88.855469 C 96.613281 88.867188 96.710938 88.878906 96.808594 88.890625 C 96.902344 88.902344 97 88.914062 97.09375 88.921875 C 97.191406 88.933594 97.289062 88.941406 97.382812 88.953125 C 97.480469 88.960938 97.574219 88.96875 97.671875 88.976562 C 97.769531 88.984375 97.863281 88.992188 97.960938 89 C 98.054688 89.007812 98.152344 89.015625 98.25 89.019531 C 98.34375 89.027344 98.441406 89.035156 98.535156 89.039062 C 98.632812 89.042969 98.730469 89.050781 98.824219 89.054688 C 98.921875 89.058594 99.015625 89.0625 99.113281 89.066406 C 99.210938 89.070312 99.304688 89.070312 99.402344 89.074219 C 99.496094 89.078125 99.59375 89.078125 99.691406 89.078125 C 99.785156 89.082031 99.882812 89.082031 99.976562 89.082031 C 100.074219 89.082031 100.171875 89.082031 100.265625 89.082031 C 100.363281 89.082031 100.457031 89.082031 100.554688 89.082031 C 100.652344 89.078125 100.746094 89.078125 100.84375 89.074219 C 100.9375 89.074219 101.035156 89.070312 101.132812 89.066406 C 101.226562 89.0625 101.324219 89.058594 101.417969 89.054688 C 101.515625 89.050781 101.613281 89.046875 101.707031 89.042969 C 101.804688 89.035156 101.898438 89.03125 101.996094 89.023438 C 102.09375 89.019531 102.1875 89.011719 102.285156 89.003906 C 102.378906 88.996094 102.476562 88.988281 102.574219 88.980469 C 102.667969 88.972656 102.765625 88.964844 102.859375 88.957031 C 102.957031 88.945312 103.054688 88.9375 103.148438 88.925781 C 103.246094 88.917969 103.339844 88.90625 103.4375 88.894531 C 103.535156 88.882812 103.628906 88.875 103.726562 88.859375 C 103.820312 88.847656 103.917969 88.835938 104.015625 88.824219 C 104.109375 88.8125 104.207031 88.796875 104.300781 88.785156 C 104.398438 88.769531 104.496094 88.753906 104.589844 88.742188 C 104.6875 88.726562 104.78125 88.710938 104.878906 88.695312 C 104.976562 88.679688 105.070312 88.664062 105.167969 88.648438 C 105.261719 88.628906 105.359375 88.613281 105.457031 88.59375 C 105.550781 88.578125 105.648438 88.558594 105.746094 88.542969 C 105.839844 88.523438 105.9375 88.503906 106.03125 88.484375 C 106.128906 88.464844 106.226562 88.445312 106.320312 88.425781 C 106.417969 88.402344 106.511719 88.382812 106.609375 88.359375 C 106.707031 88.339844 106.800781 88.316406 106.898438 88.296875 C 106.992188 88.273438 107.089844 88.25 107.1875 88.226562 C 107.28125 88.203125 107.378906 88.179688 107.472656 88.15625 C 107.570312 88.132812 107.667969 88.105469 107.761719 88.082031 C 107.859375 88.058594 107.953125 88.03125 108.050781 88.003906 C 108.148438 87.980469 108.242188 87.953125 108.339844 87.925781 C 108.433594 87.898438 108.53125 87.871094 108.628906 87.84375 C 108.722656 87.816406 108.820312 87.789062 108.914062 87.757812 C 109.011719 87.730469 109.109375 87.699219 109.203125 87.671875 C 109.300781 87.640625 109.394531 87.609375 109.492188 87.578125 C 109.589844 87.550781 109.683594 87.519531 109.78125 87.488281 C 109.875 87.457031 109.972656 87.421875 110.070312 87.390625 C 110.164062 87.359375 110.261719 87.324219 110.355469 87.292969 C 110.453125 87.257812 110.550781 87.226562 110.644531 87.191406 C 110.742188 87.15625 110.835938 87.121094 110.933594 87.085938 C 111.03125 87.050781 111.125 87.015625 111.222656 86.980469 C 111.316406 86.945312 111.414062 86.90625 111.511719 86.871094 C 111.605469 86.832031 111.703125 86.796875 111.796875 86.757812 C 111.894531 86.71875 111.992188 86.683594 112.085938 86.644531 C 112.183594 86.605469 112.277344 86.566406 112.375 86.527344 C 112.472656 86.484375 112.566406 86.445312 112.664062 86.40625 C 112.757812 86.363281 112.855469 86.324219 112.953125 86.28125 C 113.046875 86.242188 113.144531 86.199219 113.238281 86.15625 C 113.335938 86.117188 113.433594 86.074219 113.527344 86.03125 C 113.625 85.988281 113.71875 85.941406 113.816406 85.898438 C 113.914062 85.855469 114.007812 85.8125 114.105469 85.765625 C 114.199219 85.722656 114.296875 85.675781 114.394531 85.628906 C 114.488281 85.585938 114.585938 85.539062 114.679688 85.492188 C 114.777344 85.445312 114.875 85.398438 114.96875 85.351562 C 115.066406 85.304688 115.160156 85.257812 115.257812 85.207031 C 115.355469 85.160156 115.449219 85.113281 115.546875 85.0625 C 115.640625 85.015625 115.738281 84.964844 115.835938 84.914062 C 115.929688 84.863281 116.027344 84.816406 116.121094 84.765625 C 116.21875 84.714844 116.316406 84.664062 116.410156 84.609375 C 116.507812 84.558594 116.601562 84.507812 116.699219 84.457031 C 116.796875 84.402344 116.890625 84.351562 116.988281 84.296875 C 117.082031 84.246094 117.179688 84.191406 117.277344 84.136719 C 117.371094 84.082031 117.46875 84.027344 117.5625 83.972656 C 117.660156 83.917969 117.757812 83.863281 117.851562 83.808594 C 117.949219 83.753906 118.042969 83.699219 118.140625 83.640625 C 118.238281 83.585938 118.332031 83.527344 118.429688 83.472656 C 118.523438 83.414062 118.621094 83.359375 118.71875 83.300781 C 118.8125 83.242188 118.910156 83.183594 119.003906 83.125 C 119.101562 83.066406 119.199219 83.007812 119.292969 82.949219 C 119.390625 82.890625 119.484375 82.828125 119.582031 82.769531 C 119.679688 82.710938 119.773438 82.648438 119.871094 82.589844 C 119.964844 82.527344 120.0625 82.464844 120.160156 82.40625 C 120.253906 82.34375 120.351562 82.28125 120.445312 82.21875 C 120.542969 82.15625 120.640625 82.09375 120.734375 82.03125 C 120.832031 81.96875 120.925781 81.90625 121.023438 81.839844 C 121.121094 81.777344 121.214844 81.714844 121.3125 81.648438 C 121.40625 81.585938 121.503906 81.519531 121.601562 81.453125 C 121.695312 81.390625 121.792969 81.324219 121.886719 81.257812 C 121.984375 81.191406 122.082031 81.125 122.175781 81.058594 C 122.273438 80.992188 122.367188 80.925781 122.464844 80.859375 C 122.5625 80.792969 122.65625 80.722656 122.753906 80.65625 C 122.847656 80.589844 122.945312 80.519531 123.042969 80.453125 C 123.136719 80.382812 123.234375 80.3125 123.328125 80.246094 C 123.425781 80.175781 123.523438 80.105469 123.617188 80.035156 C 123.714844 79.964844 123.808594 79.894531 123.90625 79.824219 C 124.003906 79.753906 124.097656 79.683594 124.195312 79.613281 C 124.289062 79.539062 124.386719 79.46875 124.484375 79.398438 C 124.578125 79.324219 124.675781 79.253906 124.769531 79.179688 C 124.867188 79.109375 124.964844 79.035156 125.058594 78.960938 C 125.15625 78.890625 125.25 78.816406 125.347656 78.742188 C 125.445312 78.667969 125.539062 78.59375 125.636719 78.519531 C 125.730469 78.445312 125.828125 78.371094 125.925781 78.296875 C 126.019531 78.222656 126.117188 78.144531 126.210938 78.070312 C 126.308594 77.996094 126.40625 77.917969 126.5 77.84375 C 126.597656 77.765625 126.691406 77.691406 126.789062 77.613281 C 126.886719 77.535156 126.980469 77.460938 127.078125 77.382812 C 127.171875 77.304688 127.269531 77.226562 127.367188 77.148438 C 127.460938 77.070312 127.558594 76.992188 127.652344 76.914062 C 127.75 76.835938 127.847656 76.757812 127.941406 76.679688 C 128.039062 76.597656 128.132812 76.519531 128.230469 76.441406 C 128.328125 76.359375 128.421875 76.28125 128.519531 76.199219 C 128.613281 76.121094 128.710938 76.039062 128.808594 75.960938 C 128.902344 75.878906 129 75.796875 129.09375 75.71875 C 129.191406 75.636719 129.289062 75.554688 129.382812 75.472656 C 129.480469 75.390625 129.574219 75.308594 129.671875 75.226562 C 129.769531 75.144531 129.863281 75.0625 129.960938 74.980469 C 130.054688 74.898438 130.152344 74.816406 130.25 74.730469 C 130.34375 74.648438 130.441406 74.566406 130.535156 74.480469 C 130.632812 74.398438 130.730469 74.3125 130.824219 74.230469 C 130.921875 74.144531 131.015625 74.0625 131.113281 73.976562 C 131.210938 73.890625 131.304688 73.808594 131.402344 73.722656 C 131.496094 73.636719 131.59375 73.550781 131.691406 73.46875 C 131.785156 73.382812 131.882812 73.296875 131.976562 73.210938 C 132.074219 73.125 132.171875 73.039062 132.265625 72.953125 C 132.363281 72.867188 132.457031 72.777344 132.554688 72.691406 C 132.652344 72.605469 132.746094 72.519531 132.84375 72.429688 C 132.9375 72.34375 133.035156 72.257812 133.132812 72.167969 C 133.226562 72.082031 133.324219 71.996094 133.417969 71.90625 C 133.515625 71.820312 133.613281 71.730469 133.707031 71.640625 C 133.804688 71.554688 133.898438 71.464844 133.996094 71.375 C 134.09375 71.289062 134.1875 71.199219 134.285156 71.109375 C 134.378906 71.019531 134.476562 70.933594 134.574219 70.84375 C 134.667969 70.753906 134.765625 70.664062 134.859375 70.574219 C 134.957031 70.484375 135.054688 70.394531 135.148438 70.304688 C 135.246094 70.214844 135.339844 70.125 135.4375 70.03125 C 135.535156 69.941406 135.628906 69.851562 135.726562 69.761719 C 135.820312 69.671875 135.917969 69.578125 136.015625 69.488281 C 136.109375 69.398438 136.207031 69.304688 136.300781 69.214844 C 136.398438 69.125 136.496094 69.03125 136.589844 68.941406 C 136.6875 68.847656 136.78125 68.757812 136.878906 68.664062 C 136.976562 68.574219 137.070312 68.480469 137.167969 68.390625 C 137.261719 68.296875 137.359375 68.203125 137.457031 68.113281 C 137.550781 68.019531 137.648438 67.925781 137.746094 67.832031 C 137.839844 67.742188 137.9375 67.648438 138.03125 67.554688 C 138.128906 67.460938 138.226562 67.371094 138.320312 67.277344 C 138.417969 67.183594 138.511719 67.089844 138.609375 66.996094 C 138.707031 66.902344 138.800781 66.808594 138.898438 66.714844 C 138.992188 66.621094 139.089844 66.527344 139.1875 66.433594 C 139.28125 66.339844 139.378906 66.246094 139.472656 66.152344 C 139.570312 66.058594 139.667969 65.964844 139.761719 65.871094 C 139.859375 65.773438 139.953125 65.679688 140.050781 65.585938 C 140.148438 65.492188 140.242188 65.398438 140.339844 65.304688 C 140.433594 65.207031 140.53125 65.113281 140.628906 65.019531 C 140.722656 64.925781 140.820312 64.828125 140.914062 64.734375 C 141.011719 64.640625 141.109375 64.542969 141.203125 64.449219 C 141.300781 64.355469 141.394531 64.257812 141.492188 64.164062 C 141.589844 64.070312 141.683594 63.972656 141.78125 63.878906 C 141.875 63.78125 141.972656 63.6875 142.070312 63.589844 C 142.164062 63.496094 142.261719 63.402344 142.355469 63.304688 C 142.453125 63.210938 142.550781 63.113281 142.644531 63.019531 C 142.742188 62.921875 142.835938 62.828125 142.933594 62.730469 C 143.03125 62.636719 143.125 62.539062 143.222656 62.445312 C 143.316406 62.347656 143.414062 62.253906 143.511719 62.15625 C 143.605469 62.058594 143.703125 61.964844 143.796875 61.867188 C 143.894531 61.773438 143.992188 61.675781 144.085938 61.582031 C 144.183594 61.484375 144.277344 61.386719 144.375 61.292969 C 144.472656 61.195312 144.566406 61.101562 144.664062 61.003906 L 145.816406 59.851562 C 145.914062 59.753906 146.007812 59.660156 146.105469 59.5625 C 146.199219 59.46875 146.296875 59.371094 146.394531 59.273438 C 146.488281 59.179688 146.585938 59.082031 146.679688 58.988281 C 146.777344 58.890625 146.875 58.792969 146.96875 58.699219 C 147.066406 58.601562 147.160156 58.507812 147.257812 58.410156 C 147.355469 58.316406 147.449219 58.21875 147.546875 58.125 C 147.640625 58.027344 147.738281 57.933594 147.835938 57.835938 C 147.929688 57.742188 148.027344 57.644531 148.121094 57.550781 C 148.21875 57.453125 148.316406 57.359375 148.410156 57.261719 C 148.507812 57.167969 148.601562 57.070312 148.699219 56.976562 C 148.796875 56.878906 148.890625 56.785156 148.988281 56.6875 C 149.082031 56.59375 149.179688 56.5 149.277344 56.402344 C 149.371094 56.308594 149.46875 56.214844 149.5625 56.117188 C 149.660156 56.023438 149.757812 55.929688 149.851562 55.832031 C 149.949219 55.738281 150.042969 55.644531 150.140625 55.546875 C 150.238281 55.453125 150.332031 55.359375 150.429688 55.265625 C 150.523438 55.167969 150.621094 55.074219 150.71875 54.980469 C 150.8125 54.886719 150.910156 54.792969 151.003906 54.699219 C 151.101562 54.601562 151.199219 54.507812 151.292969 54.414062 C 151.390625 54.320312 151.484375 54.226562 151.582031 54.132812 C 151.679688 54.039062 151.773438 53.945312 151.871094 53.851562 C 151.964844 53.757812 152.0625 53.664062 152.160156 53.570312 C 152.253906 53.476562 152.351562 53.382812 152.445312 53.292969 C 152.542969 53.199219 152.640625 53.105469 152.734375 53.011719 C 152.832031 52.917969 152.925781 52.824219 153.023438 52.734375 C 153.121094 52.640625 153.214844 52.546875 153.3125 52.457031 C 153.40625 52.363281 153.503906 52.269531 153.601562 52.179688 C 153.695312 52.085938 153.792969 51.992188 153.886719 51.902344 C 153.984375 51.808594 154.082031 51.71875 154.175781 51.625 C 154.273438 51.535156 154.367188 51.445312 154.464844 51.351562 C 154.5625 51.261719 154.65625 51.167969 154.753906 51.078125 C 154.847656 50.988281 154.945312 50.898438 155.042969 50.804688 C 155.136719 50.714844 155.234375 50.625 155.328125 50.535156 C 155.425781 50.445312 155.523438 50.351562 155.617188 50.261719 C 155.714844 50.171875 155.808594 50.082031 155.90625 49.992188 C 156.003906 49.902344 156.097656 49.8125 156.195312 49.726562 C 156.289062 49.636719 156.386719 49.546875 156.484375 49.457031 C 156.578125 49.367188 156.675781 49.28125 156.769531 49.191406 C 156.867188 49.101562 156.964844 49.011719 157.058594 48.925781 C 157.15625 48.835938 157.25 48.75 157.347656 48.660156 C 157.445312 48.574219 157.539062 48.484375 157.636719 48.398438 C 157.730469 48.308594 157.828125 48.222656 157.925781 48.136719 C 158.019531 48.046875 158.117188 47.960938 158.210938 47.875 C 158.308594 47.789062 158.40625 47.703125 158.5 47.617188 C 158.597656 47.527344 158.691406 47.441406 158.789062 47.355469 C 158.886719 47.269531 158.980469 47.183594 159.078125 47.101562 C 159.171875 47.015625 159.269531 46.929688 159.367188 46.84375 C 159.460938 46.757812 159.558594 46.675781 159.652344 46.589844 C 159.75 46.503906 159.847656 46.421875 159.941406 46.335938 C 160.039062 46.253906 160.132812 46.167969 160.230469 46.085938 C 160.328125 46.003906 160.421875 45.917969 160.519531 45.835938 C 160.613281 45.753906 160.710938 45.667969 160.808594 45.585938 C 160.902344 45.503906 161 45.421875 161.09375 45.339844 C 161.191406 45.257812 161.289062 45.175781 161.382812 45.09375 C 161.480469 45.011719 161.574219 44.929688 161.671875 44.851562 C 161.769531 44.769531 161.863281 44.6875 161.960938 44.605469 C 162.054688 44.527344 162.152344 44.445312 162.25 44.367188 C 162.34375 44.285156 162.441406 44.207031 162.535156 44.125 C 162.632812 44.046875 162.730469 43.96875 162.824219 43.890625 C 162.921875 43.808594 163.015625 43.730469 163.113281 43.652344 C 163.210938 43.574219 163.304688 43.496094 163.402344 43.417969 C 163.496094 43.339844 163.59375 43.261719 163.691406 43.183594 C 163.785156 43.109375 163.882812 43.03125 163.976562 42.953125 C 164.074219 42.878906 164.171875 42.800781 164.265625 42.726562 C 164.363281 42.648438 164.457031 42.574219 164.554688 42.496094 C 164.652344 42.421875 164.746094 42.347656 164.84375 42.269531 C 164.9375 42.195312 165.035156 42.121094 165.132812 42.046875 C 165.226562 41.972656 165.324219 41.898438 165.417969 41.824219 C 165.515625 41.75 165.613281 41.679688 165.707031 41.605469 C 165.804688 41.53125 165.898438 41.457031 165.996094 41.386719 C 166.09375 41.3125 166.1875 41.242188 166.285156 41.167969 C 166.378906 41.097656 166.476562 41.027344 166.574219 40.953125 C 166.667969 40.882812 166.765625 40.8125 166.859375 40.742188 C 166.957031 40.671875 167.054688 40.601562 167.148438 40.53125 C 167.246094 40.460938 167.339844 40.390625 167.4375 40.324219 C 167.535156 40.253906 167.628906 40.183594 167.726562 40.117188 C 167.820312 40.046875 167.917969 39.980469 168.015625 39.910156 C 168.109375 39.84375 168.207031 39.777344 168.300781 39.707031 C 168.398438 39.640625 168.496094 39.574219 168.589844 39.507812 C 168.6875 39.441406 168.78125 39.375 168.878906 39.308594 C 168.976562 39.242188 169.070312 39.175781 169.167969 39.113281 C 169.261719 39.046875 169.359375 38.984375 169.457031 38.917969 C 169.550781 38.855469 169.648438 38.789062 169.746094 38.726562 C 169.839844 38.664062 169.9375 38.597656 170.03125 38.535156 C 170.128906 38.472656 170.226562 38.410156 170.320312 38.347656 C 170.417969 38.285156 170.511719 38.222656 170.609375 38.164062 C 170.707031 38.101562 170.800781 38.039062 170.898438 37.980469 C 170.992188 37.917969 171.089844 37.859375 171.1875 37.796875 C 171.28125 37.738281 171.378906 37.679688 171.472656 37.617188 C 171.570312 37.558594 171.667969 37.5 171.761719 37.441406 C 171.859375 37.382812 171.953125 37.324219 172.050781 37.265625 C 172.148438 37.210938 172.242188 37.152344 172.339844 37.09375 C 172.433594 37.039062 172.53125 36.980469 172.628906 36.925781 C 172.722656 36.867188 172.820312 36.8125 172.914062 36.757812 C 173.011719 36.703125 173.109375 36.648438 173.203125 36.59375 C 173.300781 36.539062 173.394531 36.484375 173.492188 36.429688 C 173.589844 36.375 173.683594 36.324219 173.78125 36.269531 C 173.875 36.214844 173.972656 36.164062 174.070312 36.113281 C 174.164062 36.058594 174.261719 36.007812 174.355469 35.957031 C 174.453125 35.90625 174.550781 35.855469 174.644531 35.804688 C 174.742188 35.753906 174.835938 35.703125 174.933594 35.652344 C 175.03125 35.601562 175.125 35.554688 175.222656 35.503906 C 175.316406 35.457031 175.414062 35.40625 175.511719 35.359375 C 175.605469 35.308594 175.703125 35.261719 175.796875 35.214844 C 175.894531 35.167969 175.992188 35.121094 176.085938 35.074219 C 176.183594 35.027344 176.277344 34.980469 176.375 34.9375 C 176.472656 34.890625 176.566406 34.847656 176.664062 34.800781 C 176.757812 34.757812 176.855469 34.710938 176.953125 34.667969 C 177.046875 34.625 177.144531 34.582031 177.238281 34.539062 C 177.335938 34.496094 177.433594 34.453125 177.527344 34.410156 C 177.625 34.367188 177.71875 34.324219 177.816406 34.285156 C 177.914062 34.242188 178.007812 34.203125 178.105469 34.160156 C 178.199219 34.121094 178.296875 34.082031 178.394531 34.042969 C 178.488281 34 178.585938 33.960938 178.679688 33.925781 C 178.777344 33.886719 178.875 33.847656 178.96875 33.808594 C 179.066406 33.769531 179.160156 33.734375 179.257812 33.695312 C 179.355469 33.660156 179.449219 33.625 179.546875 33.585938 C 179.640625 33.550781 179.738281 33.515625 179.835938 33.480469 C 179.929688 33.445312 180.027344 33.410156 180.121094 33.375 C 180.21875 33.34375 180.316406 33.308594 180.410156 33.273438 C 180.507812 33.242188 180.601562 33.207031 180.699219 33.175781 C 180.796875 33.144531 180.890625 33.113281 180.988281 33.082031 C 181.082031 33.050781 181.179688 33.019531 181.277344 32.988281 C 181.371094 32.957031 181.46875 32.925781 181.5625 32.898438 C 181.660156 32.867188 181.757812 32.835938 181.851562 32.808594 C 181.949219 32.78125 182.042969 32.75 182.140625 32.722656 C 182.238281 32.695312 182.332031 32.667969 182.429688 32.640625 C 182.523438 32.613281 182.621094 32.589844 182.71875 32.5625 C 182.8125 32.535156 182.910156 32.511719 183.003906 32.484375 C 183.101562 32.460938 183.199219 32.433594 183.292969 32.410156 C 183.390625 32.386719 183.484375 32.363281 183.582031 32.339844 C 183.679688 32.316406 183.773438 32.292969 183.871094 32.269531 C 183.964844 32.25 184.0625 32.226562 184.160156 32.207031 C 184.253906 32.183594 184.351562 32.164062 184.445312 32.144531 C 184.542969 32.121094 184.640625 32.101562 184.734375 32.082031 C 184.832031 32.0625 184.925781 32.042969 185.023438 32.027344 C 185.121094 32.007812 185.214844 31.988281 185.3125 31.972656 C 185.40625 31.953125 185.503906 31.9375 185.601562 31.921875 C 185.695312 31.902344 185.792969 31.886719 185.886719 31.871094 C 185.984375 31.855469 186.082031 31.839844 186.175781 31.824219 C 186.273438 31.8125 186.367188 31.796875 186.464844 31.78125 C 186.5625 31.769531 186.65625 31.757812 186.753906 31.742188 C 186.847656 31.730469 186.945312 31.71875 187.042969 31.707031 C 187.136719 31.695312 187.234375 31.683594 187.328125 31.671875 C 187.425781 31.660156 187.523438 31.648438 187.617188 31.640625 C 187.714844 31.628906 187.808594 31.621094 187.90625 31.613281 C 188.003906 31.601562 188.097656 31.59375 188.195312 31.585938 C 188.289062 31.578125 188.386719 31.570312 188.484375 31.5625 C 188.578125 31.554688 188.675781 31.550781 188.769531 31.542969 C 188.867188 31.535156 188.964844 31.53125 189.058594 31.527344 C 189.15625 31.519531 189.25 31.515625 189.347656 31.511719 C 189.445312 31.507812 189.539062 31.503906 189.636719 31.5 C 189.730469 31.496094 189.828125 31.492188 189.925781 31.492188 C 190.019531 31.488281 190.117188 31.488281 190.210938 31.488281 C 190.308594 31.484375 190.40625 31.484375 190.5 31.484375 C 190.597656 31.484375 190.691406 31.484375 190.789062 31.484375 C 190.886719 31.484375 190.980469 31.484375 191.078125 31.488281 C 191.171875 31.488281 191.269531 31.492188 191.367188 31.492188 C 191.460938 31.496094 191.558594 31.5 191.652344 31.5 C 191.75 31.503906 191.847656 31.507812 191.941406 31.515625 C 192.039062 31.519531 192.132812 31.523438 192.230469 31.527344 C 192.328125 31.535156 192.421875 31.539062 192.519531 31.546875 C 192.613281 31.550781 192.710938 31.558594 192.808594 31.566406 C 192.902344 31.574219 193 31.582031 193.09375 31.589844 C 193.191406 31.597656 193.289062 31.605469 193.382812 31.617188 C 193.480469 31.625 193.574219 31.632812 193.671875 31.644531 C 193.769531 31.65625 193.863281 31.664062 193.960938 31.675781 C 194.054688 31.6875 194.152344 31.699219 194.25 31.710938 C 194.34375 31.722656 194.441406 31.734375 194.535156 31.75 C 194.632812 31.761719 194.730469 31.777344 194.824219 31.789062 C 194.921875 31.804688 195.015625 31.816406 195.113281 31.832031 C 195.210938 31.847656 195.304688 31.863281 195.402344 31.878906 C 195.496094 31.894531 195.59375 31.910156 195.691406 31.929688 C 195.785156 31.945312 195.882812 31.960938 195.976562 31.980469 C 196.074219 31.996094 196.171875 32.015625 196.265625 32.035156 C 196.363281 32.054688 196.457031 32.074219 196.554688 32.09375 C 196.652344 32.113281 196.746094 32.132812 196.84375 32.152344 C 196.9375 32.171875 197.035156 32.195312 197.132812 32.214844 C 197.226562 32.238281 197.324219 32.257812 197.417969 32.28125 C 197.515625 32.304688 197.613281 32.328125 197.707031 32.351562 C 197.804688 32.375 197.898438 32.398438 197.996094 32.421875 C 198.09375 32.445312 198.1875 32.472656 198.285156 32.496094 C 198.378906 32.523438 198.476562 32.546875 198.574219 32.574219 C 198.667969 32.601562 198.765625 32.625 198.859375 32.652344 C 198.957031 32.679688 199.054688 32.707031 199.148438 32.738281 C 199.246094 32.765625 199.339844 32.792969 199.4375 32.820312 C 199.535156 32.851562 199.628906 32.878906 199.726562 32.910156 C 199.820312 32.941406 199.917969 32.96875 200.015625 33 C 200.109375 33.03125 200.207031 33.0625 200.300781 33.09375 C 200.398438 33.125 200.496094 33.160156 200.589844 33.191406 C 200.6875 33.222656 200.78125 33.257812 200.878906 33.289062 C 200.976562 33.324219 201.070312 33.359375 201.167969 33.390625 C 201.261719 33.425781 201.359375 33.460938 201.457031 33.496094 C 201.550781 33.53125 201.648438 33.566406 201.746094 33.605469 C 201.839844 33.640625 201.9375 33.675781 202.03125 33.714844 C 202.128906 33.75 202.226562 33.789062 202.320312 33.828125 C 202.417969 33.863281 202.511719 33.902344 202.609375 33.941406 C 202.707031 33.980469 202.800781 34.019531 202.898438 34.058594 C 202.992188 34.101562 203.089844 34.140625 203.1875 34.179688 C 203.28125 34.222656 203.378906 34.261719 203.472656 34.304688 C 203.570312 34.34375 203.667969 34.386719 203.761719 34.429688 C 203.859375 34.472656 203.953125 34.515625 204.050781 34.558594 C 204.148438 34.601562 204.242188 34.644531 204.339844 34.6875 C 204.433594 34.734375 204.53125 34.777344 204.628906 34.820312 C 204.722656 34.867188 204.820312 34.910156 204.914062 34.957031 C 205.011719 35.003906 205.109375 35.050781 205.203125 35.097656 C 205.300781 35.144531 205.394531 35.191406 205.492188 35.238281 C 205.589844 35.285156 205.683594 35.332031 205.78125 35.382812 C 205.875 35.429688 205.972656 35.476562 206.070312 35.527344 C 206.164062 35.574219 206.261719 35.625 206.355469 35.675781 C 206.453125 35.726562 206.550781 35.777344 206.644531 35.828125 C 206.742188 35.878906 206.835938 35.929688 206.933594 35.980469 C 207.03125 36.03125 207.125 36.082031 207.222656 36.136719 C 207.316406 36.1875 207.414062 36.242188 207.511719 36.292969 C 207.605469 36.347656 207.703125 36.402344 207.796875 36.453125 C 207.894531 36.507812 207.992188 36.5625 208.085938 36.617188 C 208.183594 36.671875 208.277344 36.726562 208.375 36.785156 C 208.472656 36.839844 208.566406 36.894531 208.664062 36.953125 C 208.757812 37.007812 208.855469 37.0625 208.953125 37.121094 C 209.046875 37.179688 209.144531 37.234375 209.238281 37.292969 C 209.335938 37.351562 209.433594 37.410156 209.527344 37.46875 C 209.625 37.527344 209.71875 37.585938 209.816406 37.644531 C 209.914062 37.707031 210.007812 37.765625 210.105469 37.824219 C 210.199219 37.886719 210.296875 37.945312 210.394531 38.007812 C 210.488281 38.066406 210.585938 38.128906 210.679688 38.191406 C 210.777344 38.253906 210.875 38.3125 210.96875 38.375 C 211.066406 38.4375 211.160156 38.5 211.257812 38.566406 C 211.355469 38.628906 211.449219 38.691406 211.546875 38.753906 C 211.640625 38.820312 211.738281 38.882812 211.835938 38.949219 C 211.929688 39.011719 212.027344 39.078125 212.121094 39.144531 C 212.21875 39.207031 212.316406 39.273438 212.410156 39.339844 C 212.507812 39.40625 212.601562 39.472656 212.699219 39.539062 C 212.796875 39.605469 212.890625 39.671875 212.988281 39.738281 C 213.082031 39.808594 213.179688 39.875 213.277344 39.941406 C 213.371094 40.011719 213.46875 40.078125 213.5625 40.148438 C 213.660156 40.214844 213.757812 40.285156 213.851562 40.355469 C 213.949219 40.425781 214.042969 40.492188 214.140625 40.5625 C 214.238281 40.632812 214.332031 40.703125 214.429688 40.773438 C 214.523438 40.84375 214.621094 40.917969 214.71875 40.988281 C 214.8125 41.058594 214.910156 41.132812 215.003906 41.203125 C 215.101562 41.273438 215.199219 41.347656 215.292969 41.417969 C 215.390625 41.492188 215.484375 41.566406 215.582031 41.636719 C 215.679688 41.710938 215.773438 41.785156 215.871094 41.859375 C 215.964844 41.933594 216.0625 42.007812 216.160156 42.082031 C 216.253906 42.15625 216.351562 42.230469 216.445312 42.304688 C 216.542969 42.382812 216.640625 42.457031 216.734375 42.53125 C 216.832031 42.609375 216.925781 42.683594 217.023438 42.761719 C 217.121094 42.835938 217.214844 42.914062 217.3125 42.988281 C 217.40625 43.066406 217.503906 43.144531 217.601562 43.222656 C 217.695312 43.296875 217.792969 43.375 217.886719 43.453125 C 217.984375 43.53125 218.082031 43.609375 218.175781 43.6875 C 218.273438 43.769531 218.367188 43.847656 218.464844 43.925781 C 218.5625 44.003906 218.65625 44.085938 218.753906 44.164062 C 218.847656 44.242188 218.945312 44.324219 219.042969 44.402344 C 219.136719 44.484375 219.234375 44.5625 219.328125 44.644531 C 219.425781 44.726562 219.523438 44.804688 219.617188 44.886719 C 219.714844 44.96875 219.808594 45.050781 219.90625 45.132812 C 220.003906 45.214844 220.097656 45.296875 220.195312 45.378906 C 220.289062 45.460938 220.386719 45.542969 220.484375 45.625 C 220.578125 45.707031 220.675781 45.789062 220.769531 45.875 C 220.867188 45.957031 220.964844 46.039062 221.058594 46.125 C 221.15625 46.207031 221.25 46.292969 221.347656 46.375 C 221.445312 46.460938 221.539062 46.542969 221.636719 46.628906 C 221.730469 46.714844 221.828125 46.796875 221.925781 46.882812 C 222.019531 46.96875 222.117188 47.054688 222.210938 47.140625 C 222.308594 47.226562 222.40625 47.3125 222.5 47.398438 C 222.597656 47.484375 222.691406 47.570312 222.789062 47.65625 C 222.886719 47.742188 222.980469 47.828125 223.078125 47.914062 C 223.171875 48 223.269531 48.089844 223.367188 48.175781 C 223.460938 48.261719 223.558594 48.351562 223.652344 48.4375 C 223.75 48.527344 223.847656 48.613281 223.941406 48.703125 C 224.039062 48.789062 224.132812 48.878906 224.230469 48.964844 C 224.328125 49.054688 224.421875 49.144531 224.519531 49.230469 C 224.613281 49.320312 224.710938 49.410156 224.808594 49.5 C 224.902344 49.585938 225 49.675781 225.09375 49.765625 C 225.191406 49.855469 225.289062 49.945312 225.382812 50.035156 C 225.480469 50.125 225.574219 50.214844 225.671875 50.304688 C 225.769531 50.394531 225.863281 50.484375 225.960938 50.574219 C 226.054688 50.667969 226.152344 50.757812 226.25 50.847656 C 226.34375 50.9375 226.441406 51.03125 226.535156 51.121094 C 226.632812 51.210938 226.730469 51.304688 226.824219 51.394531 C 226.921875 51.484375 227.015625 51.578125 227.113281 51.667969 C 227.210938 51.761719 227.304688 51.851562 227.402344 51.945312 C 227.496094 52.035156 227.59375 52.128906 227.691406 52.222656 C 227.785156 52.3125 227.882812 52.40625 227.976562 52.5 C 228.074219 52.589844 228.171875 52.683594 228.265625 52.777344 C 228.363281 52.867188 228.457031 52.960938 228.554688 53.054688 C 228.652344 53.148438 228.746094 53.242188 228.84375 53.335938 C 228.9375 53.425781 229.035156 53.519531 229.132812 53.613281 C 229.226562 53.707031 229.324219 53.800781 229.417969 53.894531 C 229.515625 53.988281 229.613281 54.082031 229.707031 54.175781 C 229.804688 54.269531 229.898438 54.363281 229.996094 54.457031 C 230.09375 54.554688 230.1875 54.648438 230.285156 54.742188 C 230.378906 54.835938 230.476562 54.929688 230.574219 55.023438 C 230.667969 55.117188 230.765625 55.214844 230.859375 55.308594 C 230.957031 55.402344 231.054688 55.496094 231.148438 55.59375 C 231.246094 55.6875 231.339844 55.78125 231.4375 55.878906 C 231.535156 55.972656 231.628906 56.066406 231.726562 56.164062 C 231.820312 56.257812 231.917969 56.351562 232.015625 56.449219 C 232.109375 56.542969 232.207031 56.636719 232.300781 56.734375 C 232.398438 56.828125 232.496094 56.925781 232.589844 57.019531 C 232.6875 57.117188 232.78125 57.210938 232.878906 57.304688 C 232.976562 57.402344 233.070312 57.496094 233.167969 57.59375 C 233.261719 57.6875 233.359375 57.785156 233.457031 57.878906 C 233.550781 57.976562 233.648438 58.070312 233.746094 58.167969 C 233.839844 58.265625 233.9375 58.359375 234.03125 58.457031 C 234.128906 58.550781 234.226562 58.648438 234.320312 58.742188 C 234.417969 58.839844 234.511719 58.933594 234.609375 59.03125 C 234.707031 59.128906 234.800781 59.222656 234.898438 59.320312 C 234.992188 59.414062 235.089844 59.511719 235.1875 59.609375 L 236.339844 60.761719 L 236.628906 61.046875 C 236.722656 61.144531 236.820312 61.242188 236.914062 61.335938 C 237.011719 61.433594 237.109375 61.527344 237.203125 61.625 C 237.300781 61.722656 237.394531 61.816406 237.492188 61.914062 C 237.589844 62.007812 237.683594 62.105469 237.78125 62.199219 C 237.875 62.296875 237.972656 62.390625 238.070312 62.488281 C 238.164062 62.582031 238.261719 62.679688 238.355469 62.777344 C 238.453125 62.871094 238.550781 62.96875 238.644531 63.0625 C 238.742188 63.160156 238.835938 63.253906 238.933594 63.347656 C 239.03125 63.445312 239.125 63.539062 239.222656 63.636719 C 239.316406 63.730469 239.414062 63.828125 239.511719 63.921875 C 239.605469 64.015625 239.703125 64.113281 239.796875 64.207031 C 239.894531 64.304688 239.992188 64.398438 240.085938 64.492188 C 240.183594 64.589844 240.277344 64.683594 240.375 64.777344 C 240.472656 64.875 240.566406 64.96875 240.664062 65.0625 C 240.757812 65.15625 240.855469 65.253906 240.953125 65.347656 C 241.046875 65.441406 241.144531 65.535156 241.238281 65.628906 C 241.335938 65.726562 241.433594 65.820312 241.527344 65.914062 C 241.625 66.007812 241.71875 66.101562 241.816406 66.195312 C 241.914062 66.289062 242.007812 66.382812 242.105469 66.476562 C 242.199219 66.570312 242.296875 66.664062 242.394531 66.757812 C 242.488281 66.851562 242.585938 66.945312 242.679688 67.039062 C 242.777344 67.132812 242.875 67.226562 242.96875 67.320312 C 243.066406 67.414062 243.160156 67.503906 243.257812 67.597656 C 243.355469 67.691406 243.449219 67.785156 243.546875 67.875 C 243.640625 67.96875 243.738281 68.0625 243.835938 68.15625 C 243.929688 68.246094 244.027344 68.339844 244.121094 68.429688 C 244.21875 68.523438 244.316406 68.617188 244.410156 68.707031 C 244.507812 68.800781 244.601562 68.890625 244.699219 68.984375 C 244.796875 69.074219 244.890625 69.164062 244.988281 69.257812 C 245.082031 69.347656 245.179688 69.441406 245.277344 69.53125 C 245.371094 69.621094 245.46875 69.710938 245.5625 69.804688 C 245.660156 69.894531 245.757812 69.984375 245.851562 70.074219 C 245.949219 70.164062 246.042969 70.253906 246.140625 70.34375 C 246.238281 70.4375 246.332031 70.527344 246.429688 70.613281 C 246.523438 70.703125 246.621094 70.792969 246.71875 70.882812 C 246.8125 70.972656 246.910156 71.0625 247.003906 71.152344 C 247.101562 71.242188 247.199219 71.328125 247.292969 71.417969 C 247.390625 71.507812 247.484375 71.59375 247.582031 71.683594 C 247.679688 71.769531 247.773438 71.859375 247.871094 71.945312 C 247.964844 72.035156 248.0625 72.121094 248.160156 72.210938 C 248.253906 72.296875 248.351562 72.386719 248.445312 72.472656 C 248.542969 72.558594 248.640625 72.644531 248.734375 72.734375 C 248.832031 72.820312 248.925781 72.90625 249.023438 72.992188 C 249.121094 73.078125 249.214844 73.164062 249.3125 73.25 C 249.40625 73.335938 249.503906 73.421875 249.601562 73.507812 C 249.695312 73.59375 249.792969 73.675781 249.886719 73.761719 C 249.984375 73.847656 250.082031 73.933594 250.175781 74.015625 C 250.273438 74.101562 250.367188 74.183594 250.464844 74.269531 C 250.5625 74.351562 250.65625 74.4375 250.753906 74.519531 C 250.847656 74.605469 250.945312 74.6875 251.042969 74.769531 C 251.136719 74.851562 251.234375 74.9375 251.328125 75.019531 C 251.425781 75.101562 251.523438 75.183594 251.617188 75.265625 C 251.714844 75.347656 251.808594 75.429688 251.90625 75.511719 C 252.003906 75.59375 252.097656 75.675781 252.195312 75.753906 C 252.289062 75.835938 252.386719 75.917969 252.484375 75.996094 C 252.578125 76.078125 252.675781 76.15625 252.769531 76.238281 C 252.867188 76.316406 252.964844 76.398438 253.058594 76.476562 C 253.15625 76.558594 253.25 76.636719 253.347656 76.714844 C 253.445312 76.792969 253.539062 76.871094 253.636719 76.949219 C 253.730469 77.027344 253.828125 77.105469 253.925781 77.183594 C 254.019531 77.261719 254.117188 77.339844 254.210938 77.417969 C 254.308594 77.496094 254.40625 77.570312 254.5 77.648438 C 254.597656 77.726562 254.691406 77.800781 254.789062 77.878906 C 254.886719 77.953125 254.980469 78.03125 255.078125 78.105469 C 255.171875 78.179688 255.269531 78.253906 255.367188 78.332031 C 255.460938 78.40625 255.558594 78.480469 255.652344 78.554688 C 255.75 78.628906 255.847656 78.703125 255.941406 78.777344 C 256.039062 78.851562 256.132812 78.921875 256.230469 78.996094 C 256.328125 79.070312 256.421875 79.140625 256.519531 79.214844 C 256.613281 79.285156 256.710938 79.359375 256.808594 79.429688 C 256.902344 79.503906 257 79.574219 257.09375 79.644531 C 257.191406 79.714844 257.289062 79.789062 257.382812 79.859375 C 257.480469 79.929688 257.574219 80 257.671875 80.066406 C 257.769531 80.136719 257.863281 80.207031 257.960938 80.277344 C 258.054688 80.347656 258.152344 80.414062 258.25 80.484375 C 258.34375 80.550781 258.441406 80.621094 258.535156 80.6875 C 258.632812 80.753906 258.730469 80.824219 258.824219 80.890625 C 258.921875 80.957031 259.015625 81.023438 259.113281 81.089844 C 259.210938 81.15625 259.304688 81.222656 259.402344 81.289062 C 259.496094 81.355469 259.59375 81.417969 259.691406 81.484375 C 259.785156 81.550781 259.882812 81.613281 259.976562 81.679688 C 260.074219 81.742188 260.171875 81.808594 260.265625 81.871094 C 260.363281 81.933594 260.457031 81.996094 260.554688 82.0625 C 260.652344 82.125 260.746094 82.1875 260.84375 82.25 C 260.9375 82.308594 261.035156 82.371094 261.132812 82.433594 C 261.226562 82.496094 261.324219 82.554688 261.417969 82.617188 C 261.515625 82.675781 261.613281 82.738281 261.707031 82.796875 C 261.804688 82.859375 261.898438 82.917969 261.996094 82.976562 C 262.09375 83.035156 262.1875 83.09375 262.285156 83.152344 C 262.378906 83.210938 262.476562 83.269531 262.574219 83.328125 C 262.667969 83.382812 262.765625 83.441406 262.859375 83.5 C 262.957031 83.554688 263.054688 83.613281 263.148438 83.667969 C 263.246094 83.722656 263.339844 83.78125 263.4375 83.835938 C 263.535156 83.890625 263.628906 83.945312 263.726562 84 C 263.820312 84.054688 263.917969 84.109375 264.015625 84.160156 C 264.109375 84.214844 264.207031 84.269531 264.300781 84.320312 C 264.398438 84.375 264.496094 84.425781 264.589844 84.480469 C 264.6875 84.53125 264.78125 84.582031 264.878906 84.632812 C 264.976562 84.6875 265.070312 84.738281 265.167969 84.789062 C 265.261719 84.839844 265.359375 84.886719 265.457031 84.9375 C 265.550781 84.988281 265.648438 85.035156 265.746094 85.085938 C 265.839844 85.132812 265.9375 85.183594 266.03125 85.230469 C 266.128906 85.277344 266.226562 85.328125 266.320312 85.375 C 266.417969 85.421875 266.511719 85.46875 266.609375 85.515625 C 266.707031 85.558594 266.800781 85.605469 266.898438 85.652344 C 266.992188 85.695312 267.089844 85.742188 267.1875 85.785156 C 267.28125 85.832031 267.378906 85.875 267.472656 85.917969 C 267.570312 85.964844 267.667969 86.007812 267.761719 86.050781 C 267.859375 86.09375 267.953125 86.136719 268.050781 86.175781 C 268.148438 86.21875 268.242188 86.261719 268.339844 86.300781 C 268.433594 86.34375 268.53125 86.382812 268.628906 86.425781 C 268.722656 86.464844 268.820312 86.503906 268.914062 86.542969 C 269.011719 86.582031 269.109375 86.621094 269.203125 86.660156 C 269.300781 86.699219 269.394531 86.738281 269.492188 86.773438 C 269.589844 86.8125 269.683594 86.851562 269.78125 86.886719 C 269.875 86.925781 269.972656 86.960938 270.070312 86.996094 C 270.164062 87.03125 270.261719 87.066406 270.355469 87.101562 C 270.453125 87.136719 270.550781 87.171875 270.644531 87.207031 C 270.742188 87.242188 270.835938 87.273438 270.933594 87.308594 C 271.03125 87.339844 271.125 87.375 271.222656 87.40625 C 271.316406 87.4375 271.414062 87.46875 271.511719 87.5 C 271.605469 87.53125 271.703125 87.5625 271.796875 87.59375 C 271.894531 87.625 271.992188 87.65625 272.085938 87.683594 C 272.183594 87.714844 272.277344 87.742188 272.375 87.773438 C 272.472656 87.800781 272.566406 87.828125 272.664062 87.855469 C 272.757812 87.882812 272.855469 87.910156 272.953125 87.9375 C 273.046875 87.964844 273.144531 87.992188 273.238281 88.015625 C 273.335938 88.042969 273.433594 88.070312 273.527344 88.09375 C 273.625 88.117188 273.71875 88.144531 273.816406 88.167969 C 273.914062 88.191406 274.007812 88.214844 274.105469 88.238281 C 274.199219 88.261719 274.296875 88.285156 274.394531 88.304688 C 274.488281 88.328125 274.585938 88.351562 274.679688 88.371094 C 274.777344 88.390625 274.875 88.414062 274.96875 88.433594 C 275.066406 88.453125 275.160156 88.472656 275.257812 88.492188 C 275.355469 88.511719 275.449219 88.53125 275.546875 88.550781 C 275.640625 88.566406 275.738281 88.585938 275.835938 88.601562 C 275.929688 88.621094 276.027344 88.636719 276.121094 88.65625 C 276.21875 88.671875 276.316406 88.6875 276.410156 88.703125 C 276.507812 88.71875 276.601562 88.734375 276.699219 88.746094 C 276.796875 88.761719 276.890625 88.777344 276.988281 88.789062 C 277.082031 88.804688 277.179688 88.816406 277.277344 88.828125 C 277.371094 88.84375 277.46875 88.855469 277.5625 88.867188 C 277.660156 88.878906 277.757812 88.890625 277.851562 88.898438 C 277.949219 88.910156 278.042969 88.921875 278.140625 88.929688 C 278.238281 88.941406 278.332031 88.949219 278.429688 88.960938 C 278.523438 88.96875 278.621094 88.976562 278.71875 88.984375 C 278.8125 88.992188 278.910156 89 279.003906 89.007812 C 279.101562 89.015625 279.199219 89.019531 279.292969 89.027344 C 279.390625 89.03125 279.484375 89.039062 279.582031 89.042969 C 279.679688 89.046875 279.773438 89.054688 279.871094 89.058594 C 279.964844 89.0625 280.0625 89.066406 280.160156 89.066406 C 280.253906 89.070312 280.351562 89.074219 280.445312 89.074219 C 280.542969 89.078125 280.640625 89.078125 280.734375 89.082031 C 280.832031 89.082031 280.925781 89.082031 281.023438 89.082031 C 281.121094 89.082031 281.214844 89.082031 281.3125 89.082031 C 281.40625 89.082031 281.503906 89.082031 281.601562 89.078125 C 281.695312 89.078125 281.792969 89.074219 281.886719 89.074219 C 281.984375 89.070312 282.082031 89.066406 282.175781 89.0625 C 282.273438 89.058594 282.367188 89.054688 282.464844 89.050781 C 282.5625 89.046875 282.65625 89.042969 282.753906 89.035156 C 282.847656 89.03125 282.945312 89.023438 283.042969 89.019531 C 283.136719 89.011719 283.234375 89.003906 283.328125 88.996094 C 283.425781 88.988281 283.523438 88.980469 283.617188 88.972656 C 283.714844 88.964844 283.808594 88.957031 283.90625 88.945312 C 284.003906 88.9375 284.097656 88.929688 284.195312 88.917969 C 284.289062 88.90625 284.386719 88.894531 284.484375 88.886719 C 284.578125 88.875 284.675781 88.863281 284.769531 88.851562 C 284.867188 88.835938 284.964844 88.824219 285.058594 88.8125 C 285.15625 88.796875 285.25 88.785156 285.347656 88.769531 C 285.445312 88.757812 285.539062 88.742188 285.636719 88.726562 C 285.730469 88.710938 285.828125 88.695312 285.925781 88.679688 C 286.019531 88.664062 286.117188 88.648438 286.210938 88.632812 C 286.308594 88.613281 286.40625 88.597656 286.5 88.578125 C 286.597656 88.5625 286.691406 88.542969 286.789062 88.523438 C 286.886719 88.503906 286.980469 88.484375 287.078125 88.464844 C 287.171875 88.445312 287.269531 88.425781 287.367188 88.40625 C 287.460938 88.382812 287.558594 88.363281 287.652344 88.339844 C 287.75 88.320312 287.847656 88.296875 287.941406 88.273438 C 288.039062 88.253906 288.132812 88.230469 288.230469 88.207031 C 288.328125 88.183594 288.421875 88.15625 288.519531 88.132812 C 288.613281 88.109375 288.710938 88.085938 288.808594 88.058594 C 288.902344 88.035156 289 88.007812 289.09375 87.980469 C 289.191406 87.953125 289.289062 87.929688 289.382812 87.902344 "/>
</g>
</g>
</svg>
