<?xml version="1.0" encoding="UTF-8"?>
<svg xmlns="http://www.w3.org/2000/svg" xmlns:xlink="http://www.w3.org/1999/xlink" width="429.663513pt" height="104.92939pt" viewBox="0 0 429.663513 104.92939" version="1.1">
<defs>
<clipPath id="clip1">
  <path d="M 8 0 L 10 0 L 10 104.929688 L 8 104.929688 Z M 8 0 "/>
</clipPath>
<clipPath id="clip2">
  <path d="M 153 0 L 155 0 L 155 104.929688 L 153 104.929688 Z M 153 0 "/>
</clipPath>
<clipPath id="clip3">
  <path d="M 299 0 L 301 0 L 301 104.929688 L 299 104.929688 Z M 299 0 "/>
</clipPath>
<clipPath id="clip4">
  <path d="M 290 90 L 429.664062 90 L 429.664062 91 L 290 91 Z M 290 90 "/>
</clipPath>
</defs>
<g id="surface1">
<path style="fill:none;stroke-width:0.8;stroke-linecap:butt;stroke-linejoin:miter;stroke:rgb(0%,0%,0%);stroke-opacity:1;stroke-miterlimit:4;" d="M 307.136719 56.648438 C 307.136719 56.648438 323.132812 78.375 333.003906 66.347656 C 342.875 54.320312 347.960938 28.039062 363.949219 28.640625 C 379.9375 29.246094 384.707031 58.226562 391.070312 67.292969 C 397.429688 76.359375 415.84375 55.714844 415.792969 55.65625 "/>
<path style="fill:none;stroke-width:0.8;stroke-linecap:butt;stroke-linejoin:miter;stroke:rgb(0%,0%,0%);stroke-opacity:1;stroke-miterlimit:4;" d="M 161.335938 56.847656 C 161.335938 56.847656 202.636719 76.339844 226.488281 76.117188 C 250.34375 75.894531 269.992188 55.855469 269.992188 55.855469 "/>
<path style="fill:none;stroke-width:0.8;stroke-linecap:butt;stroke-linejoin:miter;stroke:rgb(0%,0%,0%);stroke-opacity:1;stroke-miterlimit:4;" d="M 16.238281 56.574219 C 16.238281 56.574219 26.949219 26.804688 50.800781 26.578125 C 74.652344 26.355469 124.894531 55.582031 124.894531 55.582031 "/>
<g clip-path="url(#clip1)" clip-rule="nonzero">
<path style="fill:none;stroke-width:0.8;stroke-linecap:butt;stroke-linejoin:miter;stroke:rgb(100%,0%,0%);stroke-opacity:1;stroke-miterlimit:4;" d="M 9.234375 0 L 9.234375 104.65625 "/>
</g>
<path style="fill:none;stroke-width:0.8;stroke-linecap:butt;stroke-linejoin:miter;stroke:rgb(100%,0%,0%);stroke-opacity:1;stroke-miterlimit:4;" d="M 138.765625 90.496094 L 0 90.496094 "/>
<path style="fill:none;stroke-width:0.8;stroke-linecap:butt;stroke-linejoin:miter;stroke:rgb(0%,0%,0%);stroke-opacity:1;stroke-dasharray:0.8,3.2;stroke-miterlimit:4;" d="M 15.441406 55.980469 L 126.679688 55.980469 "/>
<path style="fill-rule:nonzero;fill:rgb(0%,0%,100%);fill-opacity:1;stroke-width:0.8;stroke-linecap:round;stroke-linejoin:round;stroke:rgb(0%,0%,0%);stroke-opacity:1;stroke-miterlimit:4;" d="M 17.628906 56.175781 C 17.628906 57.273438 16.738281 58.164062 15.640625 58.164062 C 14.542969 58.164062 13.65625 57.273438 13.65625 56.175781 C 13.65625 55.082031 14.542969 54.191406 15.640625 54.191406 C 16.738281 54.191406 17.628906 55.082031 17.628906 56.175781 Z M 17.628906 56.175781 "/>
<path style="fill-rule:nonzero;fill:rgb(0%,0%,100%);fill-opacity:1;stroke-width:0.8;stroke-linecap:round;stroke-linejoin:round;stroke:rgb(0%,0%,0%);stroke-opacity:1;stroke-miterlimit:4;" d="M 126.484375 55.78125 C 126.484375 56.878906 125.59375 57.765625 124.496094 57.765625 C 123.398438 57.765625 122.511719 56.878906 122.511719 55.78125 C 122.511719 54.683594 123.398438 53.792969 124.496094 53.792969 C 125.59375 53.792969 126.484375 54.683594 126.484375 55.78125 Z M 126.484375 55.78125 "/>
<g clip-path="url(#clip2)" clip-rule="nonzero">
<path style="fill:none;stroke-width:0.8;stroke-linecap:butt;stroke-linejoin:miter;stroke:rgb(100%,0%,0%);stroke-opacity:1;stroke-miterlimit:4;" d="M 154.332031 0.273438 L 154.332031 104.929688 "/>
</g>
<path style="fill:none;stroke-width:0.8;stroke-linecap:butt;stroke-linejoin:miter;stroke:rgb(100%,0%,0%);stroke-opacity:1;stroke-miterlimit:4;" d="M 283.863281 90.769531 L 145.097656 90.769531 "/>
<path style="fill:none;stroke-width:0.8;stroke-linecap:butt;stroke-linejoin:miter;stroke:rgb(0%,0%,0%);stroke-opacity:1;stroke-dasharray:0.8,3.2;stroke-miterlimit:4;" d="M 160.542969 56.253906 L 271.78125 56.253906 "/>
<path style="fill-rule:nonzero;fill:rgb(0%,0%,100%);fill-opacity:1;stroke-width:0.8;stroke-linecap:round;stroke-linejoin:round;stroke:rgb(0%,0%,0%);stroke-opacity:1;stroke-miterlimit:4;" d="M 162.726562 56.453125 C 162.726562 57.546875 161.835938 58.4375 160.738281 58.4375 C 159.644531 58.4375 158.753906 57.546875 158.753906 56.453125 C 158.753906 55.355469 159.644531 54.464844 160.738281 54.464844 C 161.835938 54.464844 162.726562 55.355469 162.726562 56.453125 Z M 162.726562 56.453125 "/>
<path style="fill-rule:nonzero;fill:rgb(0%,0%,100%);fill-opacity:1;stroke-width:0.8;stroke-linecap:round;stroke-linejoin:round;stroke:rgb(0%,0%,0%);stroke-opacity:1;stroke-miterlimit:4;" d="M 271.582031 56.054688 C 271.582031 57.152344 270.691406 58.039062 269.59375 58.039062 C 268.496094 58.039062 267.609375 57.152344 267.609375 56.054688 C 267.609375 54.957031 268.496094 54.066406 269.59375 54.066406 C 270.691406 54.066406 271.582031 54.957031 271.582031 56.054688 Z M 271.582031 56.054688 "/>
<g clip-path="url(#clip3)" clip-rule="nonzero">
<path style="fill:none;stroke-width:0.8;stroke-linecap:butt;stroke-linejoin:miter;stroke:rgb(100%,0%,0%);stroke-opacity:1;stroke-miterlimit:4;" d="M 300.132812 0.0742188 L 300.132812 104.730469 "/>
</g>
<g clip-path="url(#clip4)" clip-rule="nonzero">
<path style="fill:none;stroke-width:0.8;stroke-linecap:butt;stroke-linejoin:miter;stroke:rgb(100%,0%,0%);stroke-opacity:1;stroke-miterlimit:4;" d="M 429.664062 90.570312 L 290.898438 90.570312 "/>
</g>
<path style="fill:none;stroke-width:0.8;stroke-linecap:butt;stroke-linejoin:miter;stroke:rgb(0%,0%,0%);stroke-opacity:1;stroke-dasharray:0.8,3.2;stroke-miterlimit:4;" d="M 306.34375 56.054688 L 417.582031 56.054688 "/>
<path style="fill-rule:nonzero;fill:rgb(0%,0%,100%);fill-opacity:1;stroke-width:0.8;stroke-linecap:round;stroke-linejoin:round;stroke:rgb(0%,0%,0%);stroke-opacity:1;stroke-miterlimit:4;" d="M 308.527344 56.253906 C 308.527344 57.351562 307.636719 58.238281 306.542969 58.238281 C 305.445312 58.238281 304.554688 57.351562 304.554688 56.253906 C 304.554688 55.15625 305.445312 54.265625 306.542969 54.265625 C 307.636719 54.265625 308.527344 55.15625 308.527344 56.253906 Z M 308.527344 56.253906 "/>
<path style="fill-rule:nonzero;fill:rgb(0%,0%,100%);fill-opacity:1;stroke-width:0.8;stroke-linecap:round;stroke-linejoin:round;stroke:rgb(0%,0%,0%);stroke-opacity:1;stroke-miterlimit:4;" d="M 417.382812 55.855469 C 417.382812 56.953125 416.492188 57.84375 415.394531 57.84375 C 414.300781 57.84375 413.410156 56.953125 413.410156 55.855469 C 413.410156 54.757812 414.300781 53.867188 415.394531 53.867188 C 416.492188 53.867188 417.382812 54.757812 417.382812 55.855469 Z M 417.382812 55.855469 "/>
<path style="fill:none;stroke-width:0.8;stroke-linecap:butt;stroke-linejoin:miter;stroke:rgb(0%,0%,100%);stroke-opacity:1;stroke-dasharray:0.8,2.4;stroke-miterlimit:4;" d="M 51.238281 26.753906 L 51.238281 89.253906 "/>
<path style="fill:none;stroke-width:0.8;stroke-linecap:butt;stroke-linejoin:miter;stroke:rgb(0%,0%,100%);stroke-opacity:1;stroke-dasharray:0.8,2.4;stroke-miterlimit:4;" d="M 226.625 74.742188 L 226.625 90.6875 "/>
<path style="fill:none;stroke-width:0.8;stroke-linecap:butt;stroke-linejoin:miter;stroke:rgb(0%,0%,100%);stroke-opacity:1;stroke-dasharray:0.8,2.4;stroke-miterlimit:4;" d="M 326.117188 69.640625 L 326.117188 90.371094 "/>
<path style="fill:none;stroke-width:0.8;stroke-linecap:butt;stroke-linejoin:miter;stroke:rgb(0%,0%,100%);stroke-opacity:1;stroke-dasharray:0.8,2.4;stroke-miterlimit:4;" d="M 396.269531 70.597656 L 396.269531 91.324219 "/>
<path style="fill:none;stroke-width:0.8;stroke-linecap:butt;stroke-linejoin:miter;stroke:rgb(0%,0%,100%);stroke-opacity:1;stroke-dasharray:0.8,2.4;stroke-miterlimit:4;" d="M 362.46875 29.78125 L 362.46875 89.730469 "/>
<path style="fill:none;stroke-width:0.8;stroke-linecap:butt;stroke-linejoin:miter;stroke:rgb(100%,0%,0%);stroke-opacity:1;stroke-miterlimit:4;" d="M 35.292969 25.636719 L 66.226562 25.636719 "/>
<path style="fill:none;stroke-width:0.8;stroke-linecap:butt;stroke-linejoin:miter;stroke:rgb(100%,0%,0%);stroke-opacity:1;stroke-miterlimit:4;" d="M 210.839844 76.976562 L 241.769531 76.976562 "/>
<path style="fill:none;stroke-width:0.8;stroke-linecap:butt;stroke-linejoin:miter;stroke:rgb(100%,0%,0%);stroke-opacity:1;stroke-miterlimit:4;" d="M 346.683594 28.1875 L 377.613281 28.1875 "/>
<path style="fill:none;stroke-width:0.8;stroke-linecap:butt;stroke-linejoin:miter;stroke:rgb(100%,0%,0%);stroke-opacity:1;stroke-miterlimit:4;" d="M 310.648438 70.917969 L 341.582031 70.917969 "/>
<path style="fill:none;stroke-width:0.8;stroke-linecap:butt;stroke-linejoin:miter;stroke:rgb(100%,0%,0%);stroke-opacity:1;stroke-miterlimit:4;" d="M 378.890625 70.28125 L 409.824219 70.28125 "/>
<path style=" stroke:none;fill-rule:nonzero;fill:rgb(0%,0%,0%);fill-opacity:1;" d="M 18.976562 81.902344 C 18.753906 81.453125 18.414062 81.132812 17.871094 81.132812 C 16.484375 81.132812 15.003906 82.894531 15.003906 84.640625 C 15.003906 85.765625 15.660156 86.550781 16.578125 86.550781 C 16.820312 86.550781 17.421875 86.496094 18.132812 85.652344 C 18.226562 86.160156 18.660156 86.550781 19.222656 86.550781 C 19.652344 86.550781 19.914062 86.269531 20.121094 85.894531 C 20.308594 85.464844 20.476562 84.734375 20.476562 84.714844 C 20.476562 84.582031 20.367188 84.582031 20.328125 84.582031 C 20.214844 84.582031 20.195312 84.640625 20.160156 84.808594 C 19.953125 85.578125 19.746094 86.289062 19.257812 86.289062 C 18.921875 86.289062 18.902344 85.972656 18.902344 85.746094 C 18.902344 85.484375 18.921875 85.371094 19.054688 84.847656 C 19.183594 84.359375 19.203125 84.226562 19.316406 83.777344 L 19.746094 82.109375 C 19.820312 81.769531 19.820312 81.753906 19.820312 81.695312 C 19.820312 81.488281 19.691406 81.378906 19.484375 81.378906 C 19.183594 81.378906 19.015625 81.640625 18.976562 81.902344 Z M 18.210938 84.996094 C 18.132812 85.222656 18.132812 85.238281 17.964844 85.445312 C 17.441406 86.101562 16.953125 86.289062 16.617188 86.289062 C 16.015625 86.289062 15.847656 85.632812 15.847656 85.164062 C 15.847656 84.566406 16.222656 83.101562 16.503906 82.539062 C 16.878906 81.847656 17.402344 81.394531 17.890625 81.394531 C 18.660156 81.394531 18.828125 82.371094 18.828125 82.445312 C 18.828125 82.519531 18.808594 82.597656 18.789062 82.652344 Z M 18.210938 84.996094 "/>
<path style=" stroke:none;fill-rule:nonzero;fill:rgb(0%,0%,0%);fill-opacity:1;" d="M 163.878906 81.902344 C 163.652344 81.453125 163.316406 81.132812 162.773438 81.132812 C 161.386719 81.132812 159.902344 82.894531 159.902344 84.640625 C 159.902344 85.765625 160.558594 86.550781 161.480469 86.550781 C 161.722656 86.550781 162.324219 86.496094 163.035156 85.652344 C 163.128906 86.160156 163.558594 86.550781 164.121094 86.550781 C 164.554688 86.550781 164.816406 86.269531 165.023438 85.894531 C 165.210938 85.464844 165.378906 84.734375 165.378906 84.714844 C 165.378906 84.582031 165.265625 84.582031 165.230469 84.582031 C 165.117188 84.582031 165.097656 84.640625 165.058594 84.808594 C 164.855469 85.578125 164.648438 86.289062 164.160156 86.289062 C 163.824219 86.289062 163.804688 85.972656 163.804688 85.746094 C 163.804688 85.484375 163.824219 85.371094 163.953125 84.847656 C 164.085938 84.359375 164.105469 84.226562 164.214844 83.777344 L 164.648438 82.109375 C 164.722656 81.769531 164.722656 81.753906 164.722656 81.695312 C 164.722656 81.488281 164.589844 81.378906 164.386719 81.378906 C 164.085938 81.378906 163.917969 81.640625 163.878906 81.902344 Z M 163.109375 84.996094 C 163.035156 85.222656 163.035156 85.238281 162.867188 85.445312 C 162.339844 86.101562 161.855469 86.289062 161.515625 86.289062 C 160.917969 86.289062 160.746094 85.632812 160.746094 85.164062 C 160.746094 84.566406 161.121094 83.101562 161.402344 82.539062 C 161.777344 81.847656 162.304688 81.394531 162.792969 81.394531 C 163.558594 81.394531 163.730469 82.371094 163.730469 82.445312 C 163.730469 82.519531 163.710938 82.597656 163.691406 82.652344 Z M 163.109375 84.996094 "/>
<path style=" stroke:none;fill-rule:nonzero;fill:rgb(0%,0%,0%);fill-opacity:1;" d="M 307.738281 81.902344 C 307.511719 81.453125 307.175781 81.132812 306.632812 81.132812 C 305.246094 81.132812 303.761719 82.894531 303.761719 84.640625 C 303.761719 85.765625 304.417969 86.550781 305.339844 86.550781 C 305.582031 86.550781 306.183594 86.496094 306.894531 85.652344 C 306.988281 86.160156 307.417969 86.550781 307.980469 86.550781 C 308.414062 86.550781 308.675781 86.269531 308.882812 85.894531 C 309.070312 85.464844 309.238281 84.734375 309.238281 84.714844 C 309.238281 84.582031 309.125 84.582031 309.089844 84.582031 C 308.976562 84.582031 308.957031 84.640625 308.917969 84.808594 C 308.714844 85.578125 308.507812 86.289062 308.019531 86.289062 C 307.683594 86.289062 307.664062 85.972656 307.664062 85.746094 C 307.664062 85.484375 307.683594 85.371094 307.8125 84.847656 C 307.945312 84.359375 307.964844 84.226562 308.074219 83.777344 L 308.507812 82.109375 C 308.582031 81.769531 308.582031 81.753906 308.582031 81.695312 C 308.582031 81.488281 308.449219 81.378906 308.246094 81.378906 C 307.945312 81.378906 307.777344 81.640625 307.738281 81.902344 Z M 306.96875 84.996094 C 306.894531 85.222656 306.894531 85.238281 306.726562 85.445312 C 306.199219 86.101562 305.714844 86.289062 305.375 86.289062 C 304.777344 86.289062 304.605469 85.632812 304.605469 85.164062 C 304.605469 84.566406 304.980469 83.101562 305.261719 82.539062 C 305.636719 81.847656 306.164062 81.394531 306.652344 81.394531 C 307.417969 81.394531 307.589844 82.371094 307.589844 82.445312 C 307.589844 82.519531 307.570312 82.597656 307.550781 82.652344 Z M 306.96875 84.996094 "/>
<path style=" stroke:none;fill-rule:nonzero;fill:rgb(0%,0%,0%);fill-opacity:1;" d="M 125.597656 79.753906 C 125.597656 79.753906 125.597656 79.625 125.449219 79.625 C 125.1875 79.625 124.304688 79.71875 123.984375 79.753906 C 123.890625 79.753906 123.761719 79.773438 123.761719 79.980469 C 123.761719 80.128906 123.875 80.128906 124.0625 80.128906 C 124.625 80.128906 124.640625 80.207031 124.640625 80.335938 C 124.640625 80.410156 124.546875 80.824219 124.492188 81.066406 L 123.5 84.96875 C 123.367188 85.566406 123.3125 85.773438 123.3125 86.1875 C 123.3125 87.3125 123.949219 88.0625 124.828125 88.0625 C 126.234375 88.0625 127.71875 86.28125 127.71875 84.554688 C 127.71875 83.46875 127.078125 82.644531 126.125 82.644531 C 125.578125 82.644531 125.074219 83 124.71875 83.355469 Z M 124.492188 84.273438 C 124.546875 84.011719 124.546875 83.992188 124.660156 83.863281 C 125.242188 83.09375 125.785156 82.90625 126.105469 82.90625 C 126.535156 82.90625 126.855469 83.261719 126.855469 84.03125 C 126.855469 84.742188 126.460938 86.113281 126.234375 86.5625 C 125.84375 87.367188 125.296875 87.800781 124.828125 87.800781 C 124.417969 87.800781 124.023438 87.480469 124.023438 86.597656 C 124.023438 86.355469 124.023438 86.128906 124.210938 85.378906 Z M 124.492188 84.273438 "/>
<path style=" stroke:none;fill-rule:nonzero;fill:rgb(0%,0%,0%);fill-opacity:1;" d="M 270.957031 79.753906 C 270.957031 79.753906 270.957031 79.625 270.808594 79.625 C 270.546875 79.625 269.664062 79.71875 269.347656 79.753906 C 269.253906 79.753906 269.121094 79.773438 269.121094 79.980469 C 269.121094 80.128906 269.234375 80.128906 269.421875 80.128906 C 269.984375 80.128906 270.003906 80.207031 270.003906 80.335938 C 270.003906 80.410156 269.910156 80.824219 269.851562 81.066406 L 268.859375 84.96875 C 268.726562 85.566406 268.671875 85.773438 268.671875 86.1875 C 268.671875 87.3125 269.308594 88.0625 270.191406 88.0625 C 271.597656 88.0625 273.078125 86.28125 273.078125 84.554688 C 273.078125 83.46875 272.441406 82.644531 271.484375 82.644531 C 270.941406 82.644531 270.433594 83 270.078125 83.355469 Z M 269.851562 84.273438 C 269.910156 84.011719 269.910156 83.992188 270.019531 83.863281 C 270.601562 83.09375 271.144531 82.90625 271.464844 82.90625 C 271.894531 82.90625 272.214844 83.261719 272.214844 84.03125 C 272.214844 84.742188 271.820312 86.113281 271.597656 86.5625 C 271.203125 87.367188 270.660156 87.800781 270.191406 87.800781 C 269.777344 87.800781 269.382812 87.480469 269.382812 86.597656 C 269.382812 86.355469 269.382812 86.128906 269.570312 85.378906 Z M 269.851562 84.273438 "/>
<path style=" stroke:none;fill-rule:nonzero;fill:rgb(0%,0%,0%);fill-opacity:1;" d="M 416.332031 79.753906 C 416.332031 79.753906 416.332031 79.625 416.179688 79.625 C 415.917969 79.625 415.039062 79.71875 414.71875 79.753906 C 414.625 79.753906 414.492188 79.773438 414.492188 79.980469 C 414.492188 80.128906 414.605469 80.128906 414.792969 80.128906 C 415.355469 80.128906 415.375 80.207031 415.375 80.335938 C 415.375 80.410156 415.28125 80.824219 415.226562 81.066406 L 414.230469 84.96875 C 414.101562 85.566406 414.042969 85.773438 414.042969 86.1875 C 414.042969 87.3125 414.679688 88.0625 415.5625 88.0625 C 416.96875 88.0625 418.449219 86.28125 418.449219 84.554688 C 418.449219 83.46875 417.8125 82.644531 416.855469 82.644531 C 416.3125 82.644531 415.804688 83 415.449219 83.355469 Z M 415.226562 84.273438 C 415.28125 84.011719 415.28125 83.992188 415.394531 83.863281 C 415.976562 83.09375 416.519531 82.90625 416.835938 82.90625 C 417.269531 82.90625 417.585938 83.261719 417.585938 84.03125 C 417.585938 84.742188 417.195312 86.113281 416.96875 86.5625 C 416.574219 87.367188 416.03125 87.800781 415.5625 87.800781 C 415.148438 87.800781 414.757812 87.480469 414.757812 86.597656 C 414.757812 86.355469 414.757812 86.128906 414.945312 85.378906 Z M 415.226562 84.273438 "/>
<path style=" stroke:none;fill-rule:nonzero;fill:rgb(0%,0%,0%);fill-opacity:1;" d="M 53.082031 94.804688 C 52.875 94.804688 52.726562 94.804688 52.558594 94.957031 C 52.351562 95.144531 52.332031 95.347656 52.332031 95.425781 C 52.332031 95.722656 52.558594 95.855469 52.78125 95.855469 C 53.121094 95.855469 53.4375 95.554688 53.4375 95.085938 C 53.4375 94.503906 52.875 94.054688 52.03125 94.054688 C 50.417969 94.054688 48.824219 95.761719 48.824219 97.449219 C 48.824219 98.535156 49.519531 99.472656 50.777344 99.472656 C 52.480469 99.472656 53.476562 98.199219 53.476562 98.066406 C 53.476562 97.992188 53.417969 97.898438 53.34375 97.898438 C 53.269531 97.898438 53.25 97.9375 53.175781 98.03125 C 52.238281 99.210938 50.925781 99.210938 50.792969 99.210938 C 50.042969 99.210938 49.707031 98.628906 49.707031 97.898438 C 49.707031 97.410156 49.949219 96.25 50.363281 95.519531 C 50.738281 94.824219 51.394531 94.316406 52.050781 94.316406 C 52.445312 94.316406 52.914062 94.46875 53.082031 94.804688 Z M 53.082031 94.804688 "/>
<path style=" stroke:none;fill-rule:nonzero;fill:rgb(0%,0%,0%);fill-opacity:1;" d="M 227.707031 94.804688 C 227.503906 94.804688 227.351562 94.804688 227.183594 94.957031 C 226.976562 95.144531 226.957031 95.347656 226.957031 95.425781 C 226.957031 95.722656 227.183594 95.855469 227.410156 95.855469 C 227.746094 95.855469 228.066406 95.554688 228.066406 95.085938 C 228.066406 94.503906 227.503906 94.054688 226.660156 94.054688 C 225.046875 94.054688 223.453125 95.761719 223.453125 97.449219 C 223.453125 98.535156 224.144531 99.472656 225.402344 99.472656 C 227.109375 99.472656 228.101562 98.199219 228.101562 98.066406 C 228.101562 97.992188 228.046875 97.898438 227.972656 97.898438 C 227.894531 97.898438 227.878906 97.9375 227.800781 98.03125 C 226.863281 99.210938 225.550781 99.210938 225.421875 99.210938 C 224.671875 99.210938 224.332031 98.628906 224.332031 97.898438 C 224.332031 97.410156 224.578125 96.25 224.988281 95.519531 C 225.363281 94.824219 226.019531 94.316406 226.675781 94.316406 C 227.070312 94.316406 227.539062 94.46875 227.707031 94.804688 Z M 227.707031 94.804688 "/>
<path style=" stroke:none;fill-rule:nonzero;fill:rgb(0%,0%,0%);fill-opacity:1;" d="M 328.273438 94.804688 C 328.066406 94.804688 327.917969 94.804688 327.75 94.957031 C 327.542969 95.144531 327.523438 95.347656 327.523438 95.425781 C 327.523438 95.722656 327.75 95.855469 327.972656 95.855469 C 328.3125 95.855469 328.628906 95.554688 328.628906 95.085938 C 328.628906 94.503906 328.066406 94.054688 327.222656 94.054688 C 325.613281 94.054688 324.019531 95.761719 324.019531 97.449219 C 324.019531 98.535156 324.710938 99.472656 325.96875 99.472656 C 327.675781 99.472656 328.667969 98.199219 328.667969 98.066406 C 328.667969 97.992188 328.613281 97.898438 328.535156 97.898438 C 328.460938 97.898438 328.441406 97.9375 328.367188 98.03125 C 327.429688 99.210938 326.117188 99.210938 325.988281 99.210938 C 325.238281 99.210938 324.898438 98.628906 324.898438 97.898438 C 324.898438 97.410156 325.144531 96.25 325.554688 95.519531 C 325.929688 94.824219 326.585938 94.316406 327.242188 94.316406 C 327.636719 94.316406 328.105469 94.46875 328.273438 94.804688 Z M 328.273438 94.804688 "/>
<path style=" stroke:none;fill-rule:nonzero;fill:rgb(0%,0%,0%);fill-opacity:1;" d="M 365.703125 94.804688 C 365.5 94.804688 365.347656 94.804688 365.179688 94.957031 C 364.972656 95.144531 364.953125 95.347656 364.953125 95.425781 C 364.953125 95.722656 365.179688 95.855469 365.40625 95.855469 C 365.742188 95.855469 366.0625 95.554688 366.0625 95.085938 C 366.0625 94.503906 365.5 94.054688 364.65625 94.054688 C 363.042969 94.054688 361.449219 95.761719 361.449219 97.449219 C 361.449219 98.535156 362.140625 99.472656 363.398438 99.472656 C 365.105469 99.472656 366.097656 98.199219 366.097656 98.066406 C 366.097656 97.992188 366.042969 97.898438 365.96875 97.898438 C 365.890625 97.898438 365.875 97.9375 365.796875 98.03125 C 364.859375 99.210938 363.546875 99.210938 363.417969 99.210938 C 362.667969 99.210938 362.328125 98.628906 362.328125 97.898438 C 362.328125 97.410156 362.574219 96.25 362.984375 95.519531 C 363.359375 94.824219 364.015625 94.316406 364.671875 94.316406 C 365.066406 94.316406 365.535156 94.46875 365.703125 94.804688 Z M 365.703125 94.804688 "/>
<path style=" stroke:none;fill-rule:nonzero;fill:rgb(0%,0%,0%);fill-opacity:1;" d="M 397.722656 94.804688 C 397.515625 94.804688 397.367188 94.804688 397.199219 94.957031 C 396.992188 95.144531 396.972656 95.347656 396.972656 95.425781 C 396.972656 95.722656 397.199219 95.855469 397.421875 95.855469 C 397.761719 95.855469 398.078125 95.554688 398.078125 95.085938 C 398.078125 94.503906 397.515625 94.054688 396.671875 94.054688 C 395.0625 94.054688 393.46875 95.761719 393.46875 97.449219 C 393.46875 98.535156 394.160156 99.472656 395.417969 99.472656 C 397.125 99.472656 398.117188 98.199219 398.117188 98.066406 C 398.117188 97.992188 398.0625 97.898438 397.984375 97.898438 C 397.910156 97.898438 397.890625 97.9375 397.816406 98.03125 C 396.878906 99.210938 395.566406 99.210938 395.4375 99.210938 C 394.6875 99.210938 394.347656 98.628906 394.347656 97.898438 C 394.347656 97.410156 394.59375 96.25 395.003906 95.519531 C 395.378906 94.824219 396.035156 94.316406 396.691406 94.316406 C 397.085938 94.316406 397.554688 94.46875 397.722656 94.804688 Z M 397.722656 94.804688 "/>
</g>
</svg>
