<?xml version="1.0" encoding="UTF-8"?>
<svg xmlns="http://www.w3.org/2000/svg" xmlns:xlink="http://www.w3.org/1999/xlink" width="142.877426pt" height="115.235138pt" viewBox="0 0 142.877426 115.235138" version="1.1">
<defs>
<clipPath id="clip1">
  <path d="M 6 0 L 8 0 L 8 115.234375 L 6 115.234375 Z M 6 0 "/>
</clipPath>
<clipPath id="clip2">
  <path d="M 0 0 L 132 0 L 132 115.234375 L 0 115.234375 Z M 0 0 "/>
</clipPath>
<clipPath id="clip3">
  <path d="M 140 8 L 142.878906 8 L 142.878906 21 L 140 21 Z M 140 8 "/>
</clipPath>
</defs>
<g id="surface1">
<path style="fill:none;stroke-width:0.8;stroke-linecap:butt;stroke-linejoin:miter;stroke:rgb(0%,0%,100%);stroke-opacity:1;stroke-dasharray:0.8,2.4;stroke-miterlimit:4;" d="M 93.4375 57.636719 L 93.4375 96.035156 "/>
<path style="fill:none;stroke-width:0.8;stroke-linecap:butt;stroke-linejoin:miter;stroke:rgb(0%,0%,100%);stroke-opacity:1;stroke-dasharray:0.8,2.4;stroke-miterlimit:4;" d="M 50.238281 4.835938 L 50.238281 57.636719 "/>
<path style="fill:none;stroke-width:0.8;stroke-linecap:butt;stroke-linejoin:miter;stroke:rgb(0%,0%,100%);stroke-opacity:1;stroke-dasharray:0.8,2.4;stroke-miterlimit:4;" d="M 7.035156 96.035156 L 93.4375 96.035156 "/>
<path style="fill:none;stroke-width:0.8;stroke-linecap:butt;stroke-linejoin:miter;stroke:rgb(100%,0%,0%);stroke-opacity:1;stroke-miterlimit:4;" d="M 35.835938 0.398438 L 64.636719 0.398438 "/>
<path style=" stroke:none;fill-rule:nonzero;fill:rgb(0%,0%,0%);fill-opacity:1;" d="M 3.976562 50.898438 C 3.75 50.449219 3.414062 50.128906 2.867188 50.128906 C 1.480469 50.128906 0 51.894531 0 53.636719 C 0 54.761719 0.65625 55.550781 1.574219 55.550781 C 1.820312 55.550781 2.417969 55.492188 3.132812 54.648438 C 3.226562 55.15625 3.65625 55.550781 4.21875 55.550781 C 4.648438 55.550781 4.914062 55.269531 5.117188 54.894531 C 5.304688 54.460938 5.476562 53.730469 5.476562 53.710938 C 5.476562 53.582031 5.363281 53.582031 5.324219 53.582031 C 5.210938 53.582031 5.195312 53.636719 5.15625 53.804688 C 4.949219 54.574219 4.742188 55.285156 4.257812 55.285156 C 3.917969 55.285156 3.898438 54.96875 3.898438 54.742188 C 3.898438 54.480469 3.917969 54.367188 4.050781 53.84375 C 4.179688 53.355469 4.199219 53.222656 4.3125 52.773438 L 4.742188 51.105469 C 4.820312 50.769531 4.820312 50.75 4.820312 50.691406 C 4.820312 50.488281 4.6875 50.375 4.480469 50.375 C 4.179688 50.375 4.011719 50.636719 3.976562 50.898438 Z M 3.207031 53.992188 C 3.132812 54.21875 3.132812 54.238281 2.960938 54.441406 C 2.4375 55.097656 1.949219 55.285156 1.613281 55.285156 C 1.011719 55.285156 0.84375 54.628906 0.84375 54.160156 C 0.84375 53.5625 1.21875 52.097656 1.5 51.535156 C 1.875 50.84375 2.398438 50.394531 2.886719 50.394531 C 3.65625 50.394531 3.824219 51.367188 3.824219 51.441406 C 3.824219 51.519531 3.804688 51.59375 3.789062 51.648438 Z M 3.207031 53.992188 "/>
<path style=" stroke:none;fill-rule:nonzero;fill:rgb(0%,0%,0%);fill-opacity:1;" d="M 93.367188 47.242188 C 93.367188 47.242188 93.367188 47.113281 93.21875 47.113281 C 92.957031 47.113281 92.074219 47.207031 91.753906 47.242188 C 91.660156 47.242188 91.53125 47.261719 91.53125 47.46875 C 91.53125 47.617188 91.644531 47.617188 91.832031 47.617188 C 92.394531 47.617188 92.410156 47.691406 92.410156 47.824219 C 92.410156 47.898438 92.316406 48.3125 92.261719 48.554688 L 91.269531 52.457031 C 91.136719 53.054688 91.082031 53.261719 91.082031 53.675781 C 91.082031 54.800781 91.71875 55.550781 92.597656 55.550781 C 94.003906 55.550781 95.488281 53.769531 95.488281 52.042969 C 95.488281 50.957031 94.847656 50.128906 93.894531 50.128906 C 93.347656 50.128906 92.84375 50.488281 92.488281 50.84375 Z M 92.261719 51.761719 C 92.316406 51.5 92.316406 51.480469 92.429688 51.347656 C 93.011719 50.582031 93.554688 50.394531 93.875 50.394531 C 94.304688 50.394531 94.625 50.75 94.625 51.519531 C 94.625 52.230469 94.230469 53.597656 94.003906 54.050781 C 93.613281 54.855469 93.066406 55.285156 92.597656 55.285156 C 92.1875 55.285156 91.792969 54.96875 91.792969 54.085938 C 91.792969 53.84375 91.792969 53.617188 91.980469 52.867188 Z M 92.261719 51.761719 "/>
<path style=" stroke:none;fill-rule:nonzero;fill:rgb(0%,0%,0%);fill-opacity:1;" d="M 52.109375 60.703125 C 51.902344 60.703125 51.753906 60.703125 51.585938 60.855469 C 51.378906 61.042969 51.359375 61.25 51.359375 61.324219 C 51.359375 61.625 51.585938 61.753906 51.808594 61.753906 C 52.148438 61.753906 52.464844 61.453125 52.464844 60.984375 C 52.464844 60.40625 51.902344 59.953125 51.058594 59.953125 C 49.449219 59.953125 47.855469 61.660156 47.855469 63.347656 C 47.855469 64.4375 48.546875 65.375 49.804688 65.375 C 51.511719 65.375 52.503906 64.097656 52.503906 63.96875 C 52.503906 63.890625 52.449219 63.796875 52.371094 63.796875 C 52.296875 63.796875 52.277344 63.835938 52.203125 63.929688 C 51.265625 65.109375 49.953125 65.109375 49.824219 65.109375 C 49.074219 65.109375 48.734375 64.53125 48.734375 63.796875 C 48.734375 63.3125 48.980469 62.148438 49.390625 61.417969 C 49.765625 60.722656 50.421875 60.21875 51.078125 60.21875 C 51.472656 60.21875 51.941406 60.367188 52.109375 60.703125 Z M 52.109375 60.703125 "/>
<path style="fill:none;stroke-width:0.8;stroke-linecap:butt;stroke-linejoin:miter;stroke:rgb(100%,0%,0%);stroke-opacity:1;stroke-miterlimit:4;" d="M 131.835938 57.636719 L 2.238281 57.636719 "/>
<g clip-path="url(#clip1)" clip-rule="nonzero">
<path style="fill:none;stroke-width:0.8;stroke-linecap:butt;stroke-linejoin:miter;stroke:rgb(100%,0%,0%);stroke-opacity:1;stroke-miterlimit:4;" d="M 7.035156 0.0351562 L 7.035156 115.234375 "/>
</g>
<g clip-path="url(#clip2)" clip-rule="nonzero">
<path style="fill:none;stroke-width:1.6;stroke-linecap:butt;stroke-linejoin:miter;stroke:rgb(0%,0%,0%);stroke-opacity:1;stroke-miterlimit:4;" d="M 7.035156 96.035156 C 7.074219 95.953125 7.113281 95.875 7.152344 95.792969 C 7.191406 95.710938 7.230469 95.628906 7.265625 95.550781 C 7.304688 95.46875 7.34375 95.386719 7.382812 95.304688 C 7.421875 95.222656 7.460938 95.140625 7.496094 95.058594 C 7.535156 94.972656 7.574219 94.890625 7.613281 94.808594 C 7.652344 94.726562 7.691406 94.640625 7.726562 94.558594 C 7.765625 94.476562 7.804688 94.390625 7.84375 94.308594 C 7.882812 94.222656 7.921875 94.140625 7.960938 94.054688 C 7.996094 93.972656 8.035156 93.886719 8.074219 93.800781 C 8.113281 93.714844 8.152344 93.632812 8.191406 93.546875 C 8.226562 93.460938 8.265625 93.375 8.304688 93.289062 C 8.34375 93.203125 8.382812 93.117188 8.421875 93.03125 C 8.457031 92.945312 8.496094 92.859375 8.535156 92.769531 C 8.574219 92.683594 8.613281 92.597656 8.652344 92.507812 C 8.6875 92.421875 8.726562 92.335938 8.765625 92.246094 C 8.804688 92.160156 8.84375 92.070312 8.882812 91.984375 C 8.921875 91.894531 8.957031 91.804688 8.996094 91.71875 C 9.035156 91.628906 9.074219 91.539062 9.113281 91.453125 C 9.152344 91.363281 9.1875 91.273438 9.226562 91.183594 C 9.265625 91.09375 9.304688 91.003906 9.34375 90.914062 C 9.382812 90.824219 9.417969 90.734375 9.457031 90.644531 C 9.496094 90.554688 9.535156 90.460938 9.574219 90.371094 C 9.613281 90.28125 9.648438 90.191406 9.6875 90.097656 C 9.726562 90.007812 9.765625 89.914062 9.804688 89.824219 C 9.84375 89.730469 9.882812 89.640625 9.917969 89.546875 C 9.957031 89.457031 9.996094 89.363281 10.035156 89.269531 C 10.074219 89.179688 10.113281 89.085938 10.148438 88.992188 C 10.1875 88.898438 10.226562 88.808594 10.265625 88.714844 C 10.304688 88.621094 10.34375 88.527344 10.378906 88.433594 C 10.417969 88.339844 10.457031 88.246094 10.496094 88.152344 C 10.535156 88.058594 10.574219 87.960938 10.609375 87.867188 C 10.648438 87.773438 10.6875 87.679688 10.726562 87.582031 C 10.765625 87.488281 10.804688 87.394531 10.84375 87.296875 C 10.878906 87.203125 10.917969 87.105469 10.957031 87.011719 C 10.996094 86.914062 11.035156 86.820312 11.074219 86.722656 C 11.109375 86.628906 11.148438 86.53125 11.1875 86.433594 C 11.226562 86.339844 11.265625 86.242188 11.304688 86.144531 C 11.339844 86.046875 11.378906 85.949219 11.417969 85.851562 C 11.457031 85.757812 11.496094 85.660156 11.535156 85.5625 C 11.574219 85.464844 11.609375 85.367188 11.648438 85.265625 C 11.6875 85.167969 11.726562 85.070312 11.765625 84.972656 C 11.804688 84.875 11.839844 84.777344 11.878906 84.675781 C 11.917969 84.578125 11.957031 84.480469 11.996094 84.378906 C 12.035156 84.28125 12.070312 84.183594 12.109375 84.082031 C 12.148438 83.984375 12.1875 83.882812 12.226562 83.785156 C 12.265625 83.683594 12.300781 83.582031 12.339844 83.484375 C 12.378906 83.382812 12.417969 83.285156 12.457031 83.183594 C 12.496094 83.082031 12.535156 82.980469 12.570312 82.882812 C 12.609375 82.78125 12.648438 82.679688 12.6875 82.578125 C 12.726562 82.476562 12.765625 82.375 12.800781 82.273438 C 12.839844 82.171875 12.878906 82.070312 12.917969 81.96875 C 12.957031 81.867188 12.996094 81.765625 13.03125 81.664062 C 13.070312 81.5625 13.109375 81.460938 13.148438 81.355469 C 13.1875 81.253906 13.226562 81.152344 13.261719 81.050781 C 13.300781 80.945312 13.339844 80.84375 13.378906 80.742188 C 13.417969 80.636719 13.457031 80.535156 13.496094 80.429688 C 13.53125 80.328125 13.570312 80.222656 13.609375 80.121094 C 13.648438 80.015625 13.6875 79.914062 13.726562 79.808594 C 13.761719 79.707031 13.800781 79.601562 13.839844 79.496094 C 13.878906 79.394531 13.917969 79.289062 13.957031 79.183594 C 13.992188 79.078125 14.03125 78.976562 14.070312 78.871094 C 14.109375 78.765625 14.148438 78.660156 14.1875 78.554688 C 14.222656 78.449219 14.261719 78.34375 14.300781 78.238281 C 14.339844 78.132812 14.378906 78.027344 14.417969 77.921875 C 14.457031 77.816406 14.492188 77.710938 14.53125 77.605469 C 14.570312 77.5 14.609375 77.394531 14.648438 77.289062 C 14.6875 77.183594 14.722656 77.074219 14.761719 76.96875 C 14.800781 76.863281 14.839844 76.757812 14.878906 76.648438 C 14.917969 76.542969 14.953125 76.4375 14.992188 76.328125 C 15.03125 76.222656 15.070312 76.113281 15.109375 76.007812 C 15.148438 75.902344 15.183594 75.792969 15.222656 75.6875 C 15.261719 75.578125 15.300781 75.472656 15.339844 75.363281 C 15.378906 75.257812 15.417969 75.148438 15.453125 75.039062 C 15.492188 74.933594 15.53125 74.824219 15.570312 74.714844 C 15.609375 74.609375 15.648438 74.5 15.683594 74.390625 C 15.722656 74.285156 15.761719 74.175781 15.800781 74.066406 C 15.839844 73.957031 15.878906 73.851562 15.914062 73.742188 C 15.953125 73.632812 15.992188 73.523438 16.03125 73.414062 C 16.070312 73.304688 16.109375 73.195312 16.144531 73.085938 C 16.183594 72.976562 16.222656 72.867188 16.261719 72.757812 C 16.300781 72.648438 16.339844 72.539062 16.378906 72.429688 C 16.414062 72.320312 16.453125 72.210938 16.492188 72.101562 C 16.53125 71.992188 16.570312 71.882812 16.609375 71.773438 C 16.644531 71.664062 16.683594 71.554688 16.722656 71.441406 C 16.761719 71.332031 16.800781 71.222656 16.839844 71.113281 C 16.875 71.003906 16.914062 70.890625 16.953125 70.78125 C 16.992188 70.671875 17.03125 70.558594 17.070312 70.449219 C 17.105469 70.339844 17.144531 70.226562 17.183594 70.117188 C 17.222656 70.007812 17.261719 69.894531 17.300781 69.785156 C 17.339844 69.671875 17.375 69.5625 17.414062 69.453125 C 17.453125 69.339844 17.492188 69.230469 17.53125 69.117188 C 17.570312 69.007812 17.605469 68.894531 17.644531 68.785156 C 17.683594 68.671875 17.722656 68.5625 17.761719 68.449219 C 17.800781 68.335938 17.835938 68.226562 17.875 68.113281 C 17.914062 68.003906 17.953125 67.890625 17.992188 67.777344 C 18.03125 67.667969 18.070312 67.554688 18.105469 67.445312 C 18.144531 67.332031 18.183594 67.21875 18.222656 67.105469 C 18.261719 66.996094 18.300781 66.882812 18.335938 66.769531 C 18.375 66.660156 18.414062 66.546875 18.453125 66.433594 C 18.492188 66.320312 18.53125 66.210938 18.566406 66.097656 C 18.605469 65.984375 18.644531 65.871094 18.683594 65.757812 C 18.722656 65.648438 18.761719 65.535156 18.796875 65.421875 C 18.835938 65.308594 18.875 65.195312 18.914062 65.082031 C 18.953125 64.96875 18.992188 64.859375 19.03125 64.746094 C 19.066406 64.632812 19.105469 64.519531 19.144531 64.40625 C 19.183594 64.292969 19.222656 64.179688 19.261719 64.066406 C 19.296875 63.953125 19.335938 63.839844 19.375 63.726562 C 19.414062 63.613281 19.453125 63.5 19.492188 63.386719 C 19.527344 63.273438 19.566406 63.160156 19.605469 63.046875 C 19.644531 62.933594 19.683594 62.820312 19.722656 62.707031 C 19.757812 62.59375 19.796875 62.480469 19.835938 62.367188 C 19.875 62.253906 19.914062 62.140625 19.953125 62.027344 C 19.992188 61.914062 20.027344 61.800781 20.066406 61.6875 C 20.105469 61.574219 20.144531 61.460938 20.183594 61.347656 L 20.296875 61.003906 L 20.414062 60.664062 L 20.527344 60.324219 L 20.644531 59.984375 L 20.757812 59.640625 L 20.875 59.300781 L 20.988281 58.957031 L 21.105469 58.617188 L 21.21875 58.277344 L 21.335938 57.933594 L 21.449219 57.59375 L 21.566406 57.25 L 21.679688 56.910156 L 21.796875 56.566406 L 21.914062 56.226562 L 22.027344 55.886719 L 22.144531 55.542969 L 22.257812 55.203125 L 22.375 54.859375 L 22.488281 54.519531 L 22.605469 54.179688 L 22.71875 53.839844 C 22.757812 53.726562 22.796875 53.609375 22.835938 53.496094 C 22.875 53.382812 22.910156 53.269531 22.949219 53.15625 C 22.988281 53.042969 23.027344 52.929688 23.066406 52.816406 C 23.105469 52.703125 23.140625 52.589844 23.179688 52.476562 C 23.21875 52.363281 23.257812 52.25 23.296875 52.136719 C 23.335938 52.023438 23.371094 51.910156 23.410156 51.796875 C 23.449219 51.683594 23.488281 51.570312 23.527344 51.457031 C 23.566406 51.34375 23.601562 51.230469 23.640625 51.117188 C 23.679688 51.003906 23.71875 50.894531 23.757812 50.78125 C 23.796875 50.667969 23.835938 50.554688 23.871094 50.441406 C 23.910156 50.328125 23.949219 50.214844 23.988281 50.101562 C 24.027344 49.988281 24.066406 49.878906 24.101562 49.765625 C 24.140625 49.652344 24.179688 49.539062 24.21875 49.425781 C 24.257812 49.3125 24.296875 49.203125 24.332031 49.089844 C 24.371094 48.976562 24.410156 48.863281 24.449219 48.753906 C 24.488281 48.640625 24.527344 48.527344 24.566406 48.414062 C 24.601562 48.304688 24.640625 48.191406 24.679688 48.078125 C 24.71875 47.96875 24.757812 47.855469 24.796875 47.742188 C 24.832031 47.632812 24.871094 47.519531 24.910156 47.40625 C 24.949219 47.296875 24.988281 47.183594 25.027344 47.070312 C 25.0625 46.960938 25.101562 46.847656 25.140625 46.738281 C 25.179688 46.625 25.21875 46.515625 25.257812 46.402344 C 25.292969 46.292969 25.332031 46.179688 25.371094 46.070312 C 25.410156 45.957031 25.449219 45.847656 25.488281 45.734375 C 25.527344 45.625 25.5625 45.511719 25.601562 45.402344 C 25.640625 45.292969 25.679688 45.179688 25.71875 45.070312 C 25.757812 44.960938 25.792969 44.847656 25.832031 44.738281 C 25.871094 44.628906 25.910156 44.515625 25.949219 44.40625 C 25.988281 44.296875 26.023438 44.183594 26.0625 44.074219 C 26.101562 43.964844 26.140625 43.855469 26.179688 43.746094 C 26.21875 43.632812 26.253906 43.523438 26.292969 43.414062 C 26.332031 43.304688 26.371094 43.195312 26.410156 43.085938 C 26.449219 42.976562 26.488281 42.867188 26.523438 42.757812 C 26.5625 42.648438 26.601562 42.539062 26.640625 42.429688 C 26.679688 42.320312 26.71875 42.210938 26.753906 42.101562 C 26.792969 41.992188 26.832031 41.882812 26.871094 41.773438 C 26.910156 41.664062 26.949219 41.554688 26.984375 41.449219 C 27.023438 41.339844 27.0625 41.230469 27.101562 41.121094 C 27.140625 41.011719 27.179688 40.90625 27.214844 40.796875 C 27.253906 40.6875 27.292969 40.582031 27.332031 40.472656 C 27.371094 40.363281 27.410156 40.257812 27.449219 40.148438 C 27.484375 40.039062 27.523438 39.933594 27.5625 39.824219 C 27.601562 39.71875 27.640625 39.609375 27.679688 39.503906 C 27.714844 39.394531 27.753906 39.289062 27.792969 39.183594 C 27.832031 39.074219 27.871094 38.96875 27.910156 38.859375 C 27.945312 38.753906 27.984375 38.648438 28.023438 38.539062 C 28.0625 38.433594 28.101562 38.328125 28.140625 38.222656 C 28.175781 38.113281 28.214844 38.007812 28.253906 37.902344 C 28.292969 37.796875 28.332031 37.691406 28.371094 37.585938 C 28.410156 37.480469 28.445312 37.375 28.484375 37.269531 C 28.523438 37.164062 28.5625 37.058594 28.601562 36.953125 C 28.640625 36.847656 28.675781 36.742188 28.714844 36.636719 C 28.753906 36.53125 28.792969 36.425781 28.832031 36.320312 C 28.871094 36.21875 28.90625 36.113281 28.945312 36.007812 C 28.984375 35.902344 29.023438 35.800781 29.0625 35.695312 C 29.101562 35.589844 29.136719 35.488281 29.175781 35.382812 C 29.214844 35.28125 29.253906 35.175781 29.292969 35.070312 C 29.332031 34.96875 29.371094 34.863281 29.40625 34.761719 C 29.445312 34.660156 29.484375 34.554688 29.523438 34.453125 C 29.5625 34.351562 29.601562 34.246094 29.636719 34.144531 C 29.675781 34.042969 29.714844 33.9375 29.753906 33.835938 C 29.792969 33.734375 29.832031 33.632812 29.867188 33.53125 C 29.90625 33.429688 29.945312 33.328125 29.984375 33.222656 C 30.023438 33.121094 30.0625 33.019531 30.101562 32.921875 C 30.136719 32.820312 30.175781 32.71875 30.214844 32.617188 C 30.253906 32.515625 30.292969 32.414062 30.332031 32.3125 C 30.367188 32.214844 30.40625 32.113281 30.445312 32.011719 C 30.484375 31.910156 30.523438 31.8125 30.5625 31.710938 C 30.597656 31.613281 30.636719 31.511719 30.675781 31.410156 C 30.714844 31.3125 30.753906 31.210938 30.792969 31.113281 C 30.828125 31.015625 30.867188 30.914062 30.90625 30.816406 C 30.945312 30.714844 30.984375 30.617188 31.023438 30.519531 C 31.0625 30.421875 31.097656 30.320312 31.136719 30.222656 C 31.175781 30.125 31.214844 30.027344 31.253906 29.929688 C 31.292969 29.832031 31.328125 29.734375 31.367188 29.636719 C 31.40625 29.539062 31.445312 29.441406 31.484375 29.34375 C 31.523438 29.246094 31.558594 29.148438 31.597656 29.054688 C 31.636719 28.957031 31.675781 28.859375 31.714844 28.761719 C 31.753906 28.667969 31.789062 28.570312 31.828125 28.476562 C 31.867188 28.378906 31.90625 28.28125 31.945312 28.1875 C 31.984375 28.089844 32.023438 27.996094 32.058594 27.902344 C 32.097656 27.804688 32.136719 27.710938 32.175781 27.617188 C 32.214844 27.519531 32.253906 27.425781 32.289062 27.332031 C 32.328125 27.238281 32.367188 27.144531 32.40625 27.046875 C 32.445312 26.953125 32.484375 26.859375 32.519531 26.765625 C 32.558594 26.671875 32.597656 26.578125 32.636719 26.488281 C 32.675781 26.394531 32.714844 26.300781 32.75 26.207031 C 32.789062 26.113281 32.828125 26.023438 32.867188 25.929688 C 32.90625 25.835938 32.945312 25.746094 32.984375 25.652344 C 33.019531 25.5625 33.058594 25.46875 33.097656 25.378906 C 33.136719 25.285156 33.175781 25.195312 33.214844 25.101562 C 33.25 25.011719 33.289062 24.921875 33.328125 24.832031 C 33.367188 24.738281 33.40625 24.648438 33.445312 24.558594 C 33.480469 24.46875 33.519531 24.378906 33.558594 24.289062 C 33.597656 24.199219 33.636719 24.109375 33.675781 24.019531 C 33.710938 23.929688 33.75 23.839844 33.789062 23.753906 C 33.828125 23.664062 33.867188 23.574219 33.90625 23.484375 C 33.945312 23.398438 33.980469 23.308594 34.019531 23.222656 C 34.058594 23.132812 34.097656 23.046875 34.136719 22.957031 C 34.175781 22.871094 34.210938 22.78125 34.25 22.695312 C 34.289062 22.609375 34.328125 22.519531 34.367188 22.433594 C 34.40625 22.347656 34.441406 22.261719 34.480469 22.175781 C 34.519531 22.089844 34.558594 22.003906 34.597656 21.917969 C 34.636719 21.832031 34.671875 21.746094 34.710938 21.660156 C 34.75 21.574219 34.789062 21.492188 34.828125 21.40625 C 34.867188 21.320312 34.90625 21.234375 34.941406 21.152344 C 34.980469 21.066406 35.019531 20.984375 35.058594 20.898438 C 35.097656 20.816406 35.136719 20.730469 35.171875 20.648438 C 35.210938 20.566406 35.25 20.480469 35.289062 20.398438 C 35.328125 20.316406 35.367188 20.234375 35.402344 20.152344 C 35.441406 20.070312 35.480469 19.988281 35.519531 19.90625 C 35.558594 19.824219 35.597656 19.742188 35.632812 19.660156 C 35.671875 19.578125 35.710938 19.496094 35.75 19.417969 C 35.789062 19.335938 35.828125 19.253906 35.867188 19.175781 C 35.902344 19.09375 35.941406 19.015625 35.980469 18.933594 C 36.019531 18.855469 36.058594 18.773438 36.097656 18.695312 C 36.132812 18.617188 36.171875 18.539062 36.210938 18.457031 C 36.25 18.378906 36.289062 18.300781 36.328125 18.222656 C 36.363281 18.144531 36.402344 18.066406 36.441406 17.988281 C 36.480469 17.910156 36.519531 17.832031 36.558594 17.753906 C 36.597656 17.679688 36.632812 17.601562 36.671875 17.523438 C 36.710938 17.449219 36.75 17.371094 36.789062 17.296875 C 36.828125 17.21875 36.863281 17.144531 36.902344 17.066406 C 36.941406 16.992188 36.980469 16.917969 37.019531 16.839844 C 37.058594 16.765625 37.09375 16.691406 37.132812 16.617188 C 37.171875 16.542969 37.210938 16.46875 37.25 16.394531 C 37.289062 16.320312 37.324219 16.246094 37.363281 16.171875 C 37.402344 16.097656 37.441406 16.023438 37.480469 15.953125 C 37.519531 15.878906 37.558594 15.804688 37.59375 15.734375 C 37.632812 15.660156 37.671875 15.589844 37.710938 15.519531 C 37.75 15.445312 37.789062 15.375 37.824219 15.304688 C 37.863281 15.230469 37.902344 15.160156 37.941406 15.089844 C 37.980469 15.019531 38.019531 14.949219 38.054688 14.878906 C 38.09375 14.808594 38.132812 14.738281 38.171875 14.667969 C 38.210938 14.597656 38.25 14.53125 38.285156 14.460938 C 38.324219 14.390625 38.363281 14.324219 38.402344 14.253906 C 38.441406 14.1875 38.480469 14.117188 38.519531 14.050781 C 38.554688 13.980469 38.59375 13.914062 38.632812 13.847656 C 38.671875 13.78125 38.710938 13.710938 38.75 13.644531 C 38.785156 13.578125 38.824219 13.511719 38.863281 13.445312 C 38.902344 13.378906 38.941406 13.3125 38.980469 13.25 C 39.015625 13.183594 39.054688 13.117188 39.09375 13.050781 C 39.132812 12.988281 39.171875 12.921875 39.210938 12.859375 C 39.246094 12.792969 39.285156 12.730469 39.324219 12.667969 C 39.363281 12.601562 39.402344 12.539062 39.441406 12.476562 C 39.480469 12.414062 39.515625 12.347656 39.554688 12.285156 C 39.59375 12.222656 39.632812 12.160156 39.671875 12.101562 C 39.710938 12.039062 39.746094 11.976562 39.785156 11.914062 C 39.824219 11.851562 39.863281 11.792969 39.902344 11.730469 C 39.941406 11.671875 39.976562 11.609375 40.015625 11.550781 C 40.054688 11.488281 40.09375 11.429688 40.132812 11.371094 C 40.171875 11.308594 40.207031 11.25 40.246094 11.191406 C 40.285156 11.132812 40.324219 11.074219 40.363281 11.015625 C 40.402344 10.957031 40.441406 10.898438 40.476562 10.839844 C 40.515625 10.785156 40.554688 10.726562 40.59375 10.667969 C 40.632812 10.613281 40.671875 10.554688 40.707031 10.5 C 40.746094 10.441406 40.785156 10.386719 40.824219 10.328125 C 40.863281 10.273438 40.902344 10.21875 40.9375 10.164062 C 40.976562 10.109375 41.015625 10.054688 41.054688 10 C 41.09375 9.945312 41.132812 9.890625 41.167969 9.835938 C 41.207031 9.78125 41.246094 9.726562 41.285156 9.675781 C 41.324219 9.621094 41.363281 9.566406 41.402344 9.515625 C 41.4375 9.460938 41.476562 9.410156 41.515625 9.355469 C 41.554688 9.304688 41.59375 9.253906 41.632812 9.203125 C 41.667969 9.148438 41.707031 9.097656 41.746094 9.046875 C 41.785156 8.996094 41.824219 8.945312 41.863281 8.898438 C 41.898438 8.847656 41.9375 8.796875 41.976562 8.746094 C 42.015625 8.699219 42.054688 8.648438 42.09375 8.597656 C 42.128906 8.550781 42.167969 8.5 42.207031 8.453125 C 42.246094 8.40625 42.285156 8.355469 42.324219 8.308594 C 42.363281 8.261719 42.398438 8.214844 42.4375 8.167969 C 42.476562 8.121094 42.515625 8.074219 42.554688 8.027344 C 42.59375 7.980469 42.628906 7.933594 42.667969 7.890625 C 42.707031 7.84375 42.746094 7.796875 42.785156 7.753906 C 42.824219 7.707031 42.859375 7.664062 42.898438 7.621094 C 42.9375 7.574219 42.976562 7.53125 43.015625 7.488281 C 43.054688 7.445312 43.09375 7.402344 43.128906 7.359375 C 43.167969 7.316406 43.207031 7.273438 43.246094 7.230469 C 43.285156 7.1875 43.324219 7.144531 43.359375 7.101562 C 43.398438 7.0625 43.4375 7.019531 43.476562 6.980469 C 43.515625 6.9375 43.554688 6.898438 43.589844 6.855469 C 43.628906 6.816406 43.667969 6.777344 43.707031 6.738281 C 43.746094 6.699219 43.785156 6.65625 43.820312 6.617188 C 43.859375 6.578125 43.898438 6.542969 43.9375 6.503906 C 43.976562 6.464844 44.015625 6.425781 44.054688 6.390625 C 44.089844 6.351562 44.128906 6.3125 44.167969 6.277344 C 44.207031 6.238281 44.246094 6.203125 44.285156 6.167969 C 44.320312 6.128906 44.359375 6.09375 44.398438 6.058594 C 44.4375 6.023438 44.476562 5.988281 44.515625 5.953125 C 44.550781 5.917969 44.589844 5.882812 44.628906 5.847656 C 44.667969 5.816406 44.707031 5.78125 44.746094 5.746094 C 44.78125 5.714844 44.820312 5.679688 44.859375 5.648438 C 44.898438 5.613281 44.9375 5.582031 44.976562 5.550781 C 45.015625 5.519531 45.050781 5.484375 45.089844 5.453125 C 45.128906 5.421875 45.167969 5.390625 45.207031 5.359375 C 45.246094 5.328125 45.28125 5.300781 45.320312 5.269531 C 45.359375 5.238281 45.398438 5.210938 45.4375 5.179688 C 45.476562 5.148438 45.511719 5.121094 45.550781 5.09375 C 45.589844 5.0625 45.628906 5.035156 45.667969 5.007812 C 45.707031 4.980469 45.742188 4.953125 45.78125 4.925781 C 45.820312 4.898438 45.859375 4.871094 45.898438 4.84375 C 45.9375 4.816406 45.976562 4.789062 46.011719 4.765625 C 46.050781 4.738281 46.089844 4.710938 46.128906 4.6875 C 46.167969 4.660156 46.207031 4.636719 46.242188 4.613281 C 46.28125 4.585938 46.320312 4.5625 46.359375 4.539062 C 46.398438 4.515625 46.4375 4.492188 46.472656 4.46875 C 46.511719 4.445312 46.550781 4.421875 46.589844 4.398438 C 46.628906 4.378906 46.667969 4.355469 46.703125 4.332031 C 46.742188 4.3125 46.78125 4.289062 46.820312 4.269531 C 46.859375 4.25 46.898438 4.226562 46.9375 4.207031 C 46.972656 4.1875 47.011719 4.167969 47.050781 4.148438 C 47.089844 4.128906 47.128906 4.109375 47.167969 4.089844 C 47.203125 4.070312 47.242188 4.050781 47.28125 4.03125 C 47.320312 4.015625 47.359375 3.996094 47.398438 3.980469 C 47.433594 3.960938 47.472656 3.945312 47.511719 3.925781 C 47.550781 3.910156 47.589844 3.894531 47.628906 3.878906 C 47.664062 3.863281 47.703125 3.847656 47.742188 3.832031 C 47.78125 3.816406 47.820312 3.800781 47.859375 3.785156 C 47.898438 3.769531 47.933594 3.757812 47.972656 3.742188 C 48.011719 3.726562 48.050781 3.714844 48.089844 3.703125 C 48.128906 3.6875 48.164062 3.675781 48.203125 3.664062 C 48.242188 3.648438 48.28125 3.636719 48.320312 3.625 C 48.359375 3.613281 48.394531 3.601562 48.433594 3.589844 C 48.472656 3.582031 48.511719 3.570312 48.550781 3.558594 C 48.589844 3.546875 48.625 3.539062 48.664062 3.527344 C 48.703125 3.519531 48.742188 3.507812 48.78125 3.5 C 48.820312 3.492188 48.859375 3.484375 48.894531 3.472656 C 48.933594 3.464844 48.972656 3.457031 49.011719 3.449219 C 49.050781 3.441406 49.089844 3.4375 49.125 3.429688 C 49.164062 3.421875 49.203125 3.414062 49.242188 3.410156 C 49.28125 3.402344 49.320312 3.398438 49.355469 3.390625 C 49.394531 3.386719 49.433594 3.382812 49.472656 3.375 C 49.511719 3.371094 49.550781 3.367188 49.589844 3.363281 C 49.625 3.359375 49.664062 3.355469 49.703125 3.351562 C 49.742188 3.347656 49.78125 3.347656 49.820312 3.34375 C 49.855469 3.339844 49.894531 3.339844 49.933594 3.335938 C 49.972656 3.335938 50.011719 3.332031 50.050781 3.332031 C 50.085938 3.332031 50.125 3.332031 50.164062 3.328125 C 50.203125 3.328125 50.242188 3.328125 50.28125 3.328125 C 50.316406 3.328125 50.355469 3.332031 50.394531 3.332031 C 50.433594 3.332031 50.472656 3.332031 50.511719 3.335938 C 50.550781 3.335938 50.585938 3.339844 50.625 3.339844 C 50.664062 3.34375 50.703125 3.347656 50.742188 3.351562 C 50.78125 3.351562 50.816406 3.355469 50.855469 3.359375 C 50.894531 3.363281 50.933594 3.367188 50.972656 3.371094 C 51.011719 3.378906 51.046875 3.382812 51.085938 3.386719 C 51.125 3.394531 51.164062 3.398438 51.203125 3.40625 C 51.242188 3.410156 51.277344 3.417969 51.316406 3.421875 C 51.355469 3.429688 51.394531 3.4375 51.433594 3.445312 C 51.472656 3.453125 51.511719 3.460938 51.546875 3.46875 C 51.585938 3.476562 51.625 3.484375 51.664062 3.492188 C 51.703125 3.503906 51.742188 3.511719 51.777344 3.519531 C 51.816406 3.53125 51.855469 3.539062 51.894531 3.550781 C 51.933594 3.5625 51.972656 3.570312 52.007812 3.582031 C 52.046875 3.59375 52.085938 3.605469 52.125 3.617188 C 52.164062 3.628906 52.203125 3.640625 52.238281 3.652344 C 52.277344 3.664062 52.316406 3.679688 52.355469 3.691406 C 52.394531 3.703125 52.433594 3.71875 52.472656 3.730469 C 52.507812 3.746094 52.546875 3.761719 52.585938 3.773438 C 52.625 3.789062 52.664062 3.804688 52.703125 3.820312 C 52.738281 3.835938 52.777344 3.851562 52.816406 3.867188 C 52.855469 3.882812 52.894531 3.898438 52.933594 3.914062 C 52.96875 3.933594 53.007812 3.949219 53.046875 3.964844 C 53.085938 3.984375 53.125 4 53.164062 4.019531 C 53.199219 4.039062 53.238281 4.054688 53.277344 4.074219 C 53.316406 4.09375 53.355469 4.113281 53.394531 4.132812 C 53.433594 4.152344 53.46875 4.171875 53.507812 4.191406 C 53.546875 4.210938 53.585938 4.234375 53.625 4.253906 C 53.664062 4.273438 53.699219 4.296875 53.738281 4.316406 C 53.777344 4.339844 53.816406 4.359375 53.855469 4.382812 C 53.894531 4.40625 53.929688 4.429688 53.96875 4.453125 C 54.007812 4.472656 54.046875 4.496094 54.085938 4.519531 C 54.125 4.546875 54.160156 4.570312 54.199219 4.59375 C 54.238281 4.617188 54.277344 4.644531 54.316406 4.667969 C 54.355469 4.691406 54.394531 4.71875 54.429688 4.746094 C 54.46875 4.769531 54.507812 4.796875 54.546875 4.824219 C 54.585938 4.847656 54.625 4.875 54.660156 4.902344 C 54.699219 4.929688 54.738281 4.957031 54.777344 4.984375 C 54.816406 5.015625 54.855469 5.042969 54.890625 5.070312 C 54.929688 5.097656 54.96875 5.128906 55.007812 5.15625 C 55.046875 5.1875 55.085938 5.214844 55.121094 5.246094 C 55.160156 5.277344 55.199219 5.308594 55.238281 5.335938 C 55.277344 5.367188 55.316406 5.398438 55.355469 5.429688 C 55.390625 5.460938 55.429688 5.492188 55.46875 5.527344 C 55.507812 5.558594 55.546875 5.589844 55.585938 5.621094 C 55.621094 5.65625 55.660156 5.6875 55.699219 5.722656 C 55.738281 5.753906 55.777344 5.789062 55.816406 5.824219 C 55.851562 5.859375 55.890625 5.890625 55.929688 5.925781 C 55.96875 5.960938 56.007812 5.996094 56.046875 6.03125 C 56.085938 6.066406 56.121094 6.105469 56.160156 6.140625 C 56.199219 6.175781 56.238281 6.210938 56.277344 6.25 C 56.316406 6.285156 56.351562 6.324219 56.390625 6.359375 C 56.429688 6.398438 56.46875 6.4375 56.507812 6.472656 C 56.546875 6.511719 56.582031 6.550781 56.621094 6.589844 C 56.660156 6.628906 56.699219 6.667969 56.738281 6.707031 C 56.777344 6.746094 56.8125 6.785156 56.851562 6.828125 C 56.890625 6.867188 56.929688 6.90625 56.96875 6.949219 C 57.007812 6.988281 57.046875 7.03125 57.082031 7.070312 C 57.121094 7.113281 57.160156 7.15625 57.199219 7.199219 C 57.238281 7.238281 57.277344 7.28125 57.3125 7.324219 C 57.351562 7.367188 57.390625 7.410156 57.429688 7.453125 C 57.46875 7.5 57.507812 7.542969 57.542969 7.585938 C 57.582031 7.628906 57.621094 7.675781 57.660156 7.71875 C 57.699219 7.765625 57.738281 7.808594 57.773438 7.855469 C 57.8125 7.902344 57.851562 7.945312 57.890625 7.992188 C 57.929688 8.039062 57.96875 8.085938 58.007812 8.132812 C 58.042969 8.179688 58.082031 8.226562 58.121094 8.273438 C 58.160156 8.320312 58.199219 8.371094 58.238281 8.417969 C 58.273438 8.464844 58.3125 8.515625 58.351562 8.5625 C 58.390625 8.613281 58.429688 8.660156 58.46875 8.710938 C 58.503906 8.757812 58.542969 8.808594 58.582031 8.859375 C 58.621094 8.910156 58.660156 8.960938 58.699219 9.011719 C 58.734375 9.0625 58.773438 9.113281 58.8125 9.164062 C 58.851562 9.214844 58.890625 9.265625 58.929688 9.316406 C 58.96875 9.371094 59.003906 9.421875 59.042969 9.476562 C 59.082031 9.527344 59.121094 9.582031 59.160156 9.632812 C 59.199219 9.6875 59.234375 9.742188 59.273438 9.792969 C 59.3125 9.847656 59.351562 9.902344 59.390625 9.957031 C 59.429688 10.011719 59.464844 10.066406 59.503906 10.121094 C 59.542969 10.175781 59.582031 10.230469 59.621094 10.289062 C 59.660156 10.34375 59.695312 10.398438 59.734375 10.457031 C 59.773438 10.511719 59.8125 10.570312 59.851562 10.625 C 59.890625 10.683594 59.929688 10.742188 59.964844 10.796875 C 60.003906 10.855469 60.042969 10.914062 60.082031 10.972656 C 60.121094 11.03125 60.160156 11.089844 60.195312 11.148438 C 60.234375 11.207031 60.273438 11.265625 60.3125 11.324219 C 60.351562 11.382812 60.390625 11.445312 60.425781 11.503906 C 60.464844 11.566406 60.503906 11.625 60.542969 11.6875 C 60.582031 11.746094 60.621094 11.808594 60.65625 11.867188 C 60.695312 11.929688 60.734375 11.992188 60.773438 12.054688 C 60.8125 12.113281 60.851562 12.175781 60.890625 12.238281 C 60.925781 12.300781 60.964844 12.363281 61.003906 12.429688 C 61.042969 12.492188 61.082031 12.554688 61.121094 12.617188 C 61.15625 12.683594 61.195312 12.746094 61.234375 12.808594 C 61.273438 12.875 61.3125 12.9375 61.351562 13.003906 C 61.386719 13.070312 61.425781 13.132812 61.464844 13.199219 C 61.503906 13.265625 61.542969 13.332031 61.582031 13.398438 C 61.617188 13.460938 61.65625 13.527344 61.695312 13.59375 C 61.734375 13.664062 61.773438 13.730469 61.8125 13.796875 C 61.851562 13.863281 61.886719 13.929688 61.925781 14 C 61.964844 14.066406 62.003906 14.132812 62.042969 14.203125 C 62.082031 14.269531 62.117188 14.339844 62.15625 14.410156 C 62.195312 14.476562 62.234375 14.546875 62.273438 14.617188 C 62.3125 14.6875 62.347656 14.753906 62.386719 14.824219 C 62.425781 14.894531 62.464844 14.964844 62.503906 15.035156 C 62.542969 15.109375 62.582031 15.179688 62.617188 15.25 C 62.65625 15.320312 62.695312 15.390625 62.734375 15.464844 C 62.773438 15.535156 62.8125 15.609375 62.847656 15.679688 C 62.886719 15.753906 62.925781 15.824219 62.964844 15.898438 C 63.003906 15.96875 63.042969 16.042969 63.078125 16.117188 C 63.117188 16.191406 63.15625 16.265625 63.195312 16.339844 C 63.234375 16.410156 63.273438 16.484375 63.308594 16.558594 C 63.347656 16.636719 63.386719 16.710938 63.425781 16.785156 C 63.464844 16.859375 63.503906 16.933594 63.542969 17.011719 C 63.578125 17.085938 63.617188 17.160156 63.65625 17.238281 C 63.695312 17.3125 63.734375 17.390625 63.773438 17.46875 C 63.808594 17.542969 63.847656 17.621094 63.886719 17.699219 C 63.925781 17.773438 63.964844 17.851562 64.003906 17.929688 C 64.039062 18.007812 64.078125 18.085938 64.117188 18.164062 C 64.15625 18.242188 64.195312 18.320312 64.234375 18.398438 C 64.269531 18.476562 64.308594 18.558594 64.347656 18.636719 C 64.386719 18.714844 64.425781 18.792969 64.464844 18.875 C 64.503906 18.953125 64.539062 19.035156 64.578125 19.113281 C 64.617188 19.195312 64.65625 19.273438 64.695312 19.355469 C 64.734375 19.4375 64.769531 19.519531 64.808594 19.597656 C 64.847656 19.679688 64.886719 19.761719 64.925781 19.84375 C 64.964844 19.925781 65 20.007812 65.039062 20.089844 C 65.078125 20.171875 65.117188 20.253906 65.15625 20.335938 C 65.195312 20.421875 65.230469 20.503906 65.269531 20.585938 C 65.308594 20.667969 65.347656 20.753906 65.386719 20.835938 C 65.425781 20.921875 65.464844 21.003906 65.5 21.089844 C 65.539062 21.171875 65.578125 21.257812 65.617188 21.34375 C 65.65625 21.425781 65.695312 21.511719 65.730469 21.597656 C 65.769531 21.683594 65.808594 21.765625 65.847656 21.851562 C 65.886719 21.9375 65.925781 22.023438 65.960938 22.109375 C 66 22.195312 66.039062 22.28125 66.078125 22.371094 C 66.117188 22.457031 66.15625 22.542969 66.191406 22.628906 C 66.230469 22.71875 66.269531 22.804688 66.308594 22.890625 C 66.347656 22.980469 66.386719 23.066406 66.425781 23.15625 C 66.460938 23.242188 66.5 23.332031 66.539062 23.417969 C 66.578125 23.507812 66.617188 23.597656 66.65625 23.683594 C 66.691406 23.773438 66.730469 23.863281 66.769531 23.953125 C 66.808594 24.042969 66.847656 24.132812 66.886719 24.222656 C 66.921875 24.3125 66.960938 24.402344 67 24.492188 C 67.039062 24.582031 67.078125 24.671875 67.117188 24.761719 C 67.152344 24.851562 67.191406 24.945312 67.230469 25.035156 C 67.269531 25.125 67.308594 25.21875 67.347656 25.308594 C 67.386719 25.398438 67.421875 25.492188 67.460938 25.582031 C 67.5 25.675781 67.539062 25.769531 67.578125 25.859375 C 67.617188 25.953125 67.652344 26.046875 67.691406 26.136719 C 67.730469 26.230469 67.769531 26.324219 67.808594 26.417969 C 67.847656 26.511719 67.882812 26.601562 67.921875 26.695312 C 67.960938 26.789062 68 26.882812 68.039062 26.976562 C 68.078125 27.070312 68.113281 27.167969 68.152344 27.261719 C 68.191406 27.355469 68.230469 27.449219 68.269531 27.542969 C 68.308594 27.640625 68.347656 27.734375 68.382812 27.828125 C 68.421875 27.925781 68.460938 28.019531 68.5 28.117188 C 68.539062 28.210938 68.578125 28.308594 68.613281 28.402344 C 68.652344 28.5 68.691406 28.59375 68.730469 28.691406 C 68.769531 28.789062 68.808594 28.882812 68.84375 28.980469 C 68.882812 29.078125 68.921875 29.175781 68.960938 29.269531 C 69 29.367188 69.039062 29.464844 69.078125 29.5625 C 69.113281 29.660156 69.152344 29.757812 69.191406 29.855469 C 69.230469 29.953125 69.269531 30.050781 69.308594 30.148438 C 69.34375 30.25 69.382812 30.347656 69.421875 30.445312 C 69.460938 30.542969 69.5 30.640625 69.539062 30.742188 C 69.574219 30.839844 69.613281 30.941406 69.652344 31.039062 C 69.691406 31.136719 69.730469 31.238281 69.769531 31.335938 C 69.804688 31.4375 69.84375 31.535156 69.882812 31.636719 C 69.921875 31.738281 69.960938 31.835938 70 31.9375 C 70.039062 32.035156 70.074219 32.136719 70.113281 32.238281 C 70.152344 32.339844 70.191406 32.441406 70.230469 32.539062 C 70.269531 32.640625 70.304688 32.742188 70.34375 32.84375 C 70.382812 32.945312 70.421875 33.046875 70.460938 33.148438 C 70.5 33.25 70.535156 33.351562 70.574219 33.453125 C 70.613281 33.554688 70.652344 33.65625 70.691406 33.761719 C 70.730469 33.863281 70.765625 33.964844 70.804688 34.066406 C 70.84375 34.167969 70.882812 34.273438 70.921875 34.375 C 70.960938 34.476562 71 34.582031 71.035156 34.683594 C 71.074219 34.789062 71.113281 34.890625 71.152344 34.996094 C 71.191406 35.097656 71.230469 35.203125 71.265625 35.304688 C 71.304688 35.410156 71.34375 35.511719 71.382812 35.617188 C 71.421875 35.722656 71.460938 35.824219 71.496094 35.929688 C 71.535156 36.035156 71.574219 36.140625 71.613281 36.242188 C 71.652344 36.347656 71.691406 36.453125 71.726562 36.558594 C 71.765625 36.664062 71.804688 36.769531 71.84375 36.871094 C 71.882812 36.976562 71.921875 37.082031 71.960938 37.1875 C 71.996094 37.292969 72.035156 37.398438 72.074219 37.503906 C 72.113281 37.613281 72.152344 37.71875 72.191406 37.824219 C 72.226562 37.929688 72.265625 38.035156 72.304688 38.140625 C 72.34375 38.25 72.382812 38.355469 72.421875 38.460938 C 72.457031 38.566406 72.496094 38.675781 72.535156 38.78125 C 72.574219 38.886719 72.613281 38.996094 72.652344 39.101562 C 72.6875 39.207031 72.726562 39.316406 72.765625 39.421875 C 72.804688 39.53125 72.84375 39.636719 72.882812 39.746094 C 72.921875 39.851562 72.957031 39.960938 72.996094 40.066406 C 73.035156 40.175781 73.074219 40.285156 73.113281 40.390625 C 73.152344 40.5 73.1875 40.609375 73.226562 40.714844 C 73.265625 40.824219 73.304688 40.933594 73.34375 41.039062 C 73.382812 41.148438 73.417969 41.257812 73.457031 41.367188 C 73.496094 41.476562 73.535156 41.582031 73.574219 41.691406 C 73.613281 41.800781 73.648438 41.910156 73.6875 42.019531 C 73.726562 42.128906 73.765625 42.238281 73.804688 42.347656 C 73.84375 42.457031 73.882812 42.566406 73.917969 42.675781 C 73.957031 42.785156 73.996094 42.894531 74.035156 43.003906 C 74.074219 43.113281 74.113281 43.222656 74.148438 43.332031 C 74.1875 43.441406 74.226562 43.550781 74.265625 43.664062 C 74.304688 43.773438 74.34375 43.882812 74.378906 43.992188 C 74.417969 44.101562 74.457031 44.214844 74.496094 44.324219 C 74.535156 44.433594 74.574219 44.542969 74.609375 44.65625 C 74.648438 44.765625 74.6875 44.875 74.726562 44.988281 C 74.765625 45.097656 74.804688 45.207031 74.84375 45.320312 C 74.878906 45.429688 74.917969 45.542969 74.957031 45.652344 C 74.996094 45.761719 75.035156 45.875 75.074219 45.984375 C 75.109375 46.097656 75.148438 46.207031 75.1875 46.320312 C 75.226562 46.429688 75.265625 46.542969 75.304688 46.652344 C 75.339844 46.765625 75.378906 46.875 75.417969 46.988281 C 75.457031 47.101562 75.496094 47.210938 75.535156 47.324219 C 75.574219 47.433594 75.609375 47.546875 75.648438 47.660156 C 75.6875 47.769531 75.726562 47.882812 75.765625 47.996094 C 75.804688 48.105469 75.839844 48.21875 75.878906 48.332031 C 75.917969 48.445312 75.957031 48.554688 75.996094 48.667969 C 76.035156 48.78125 76.070312 48.890625 76.109375 49.003906 C 76.148438 49.117188 76.1875 49.230469 76.226562 49.34375 C 76.265625 49.453125 76.300781 49.566406 76.339844 49.679688 C 76.378906 49.792969 76.417969 49.90625 76.457031 50.019531 C 76.496094 50.128906 76.535156 50.242188 76.570312 50.355469 C 76.609375 50.46875 76.648438 50.582031 76.6875 50.695312 C 76.726562 50.808594 76.765625 50.921875 76.800781 51.035156 C 76.839844 51.148438 76.878906 51.261719 76.917969 51.371094 C 76.957031 51.484375 76.996094 51.597656 77.03125 51.710938 C 77.070312 51.824219 77.109375 51.9375 77.148438 52.050781 C 77.1875 52.164062 77.226562 52.277344 77.261719 52.390625 C 77.300781 52.503906 77.339844 52.617188 77.378906 52.730469 C 77.417969 52.84375 77.457031 52.957031 77.496094 53.070312 C 77.53125 53.1875 77.570312 53.300781 77.609375 53.414062 C 77.648438 53.527344 77.6875 53.640625 77.726562 53.753906 L 77.839844 54.09375 L 77.957031 54.433594 L 78.070312 54.777344 L 78.1875 55.117188 L 78.300781 55.457031 L 78.417969 55.800781 L 78.53125 56.140625 L 78.648438 56.484375 L 78.761719 56.824219 L 78.878906 57.164062 L 78.992188 57.507812 L 79.109375 57.847656 L 79.222656 58.191406 L 79.339844 58.53125 L 79.453125 58.875 L 79.570312 59.214844 L 79.683594 59.554688 L 79.800781 59.898438 L 79.914062 60.238281 L 80.03125 60.578125 L 80.144531 60.921875 L 80.261719 61.261719 C 80.300781 61.375 80.339844 61.488281 80.378906 61.601562 C 80.414062 61.714844 80.453125 61.828125 80.492188 61.941406 C 80.53125 62.054688 80.570312 62.167969 80.609375 62.28125 C 80.644531 62.398438 80.683594 62.511719 80.722656 62.625 C 80.761719 62.738281 80.800781 62.851562 80.839844 62.964844 C 80.875 63.078125 80.914062 63.191406 80.953125 63.304688 C 80.992188 63.417969 81.03125 63.53125 81.070312 63.644531 C 81.105469 63.757812 81.144531 63.867188 81.183594 63.980469 C 81.222656 64.09375 81.261719 64.207031 81.300781 64.320312 C 81.339844 64.433594 81.375 64.546875 81.414062 64.660156 C 81.453125 64.773438 81.492188 64.886719 81.53125 65 C 81.570312 65.109375 81.605469 65.222656 81.644531 65.335938 C 81.683594 65.449219 81.722656 65.5625 81.761719 65.675781 C 81.800781 65.789062 81.835938 65.898438 81.875 66.011719 C 81.914062 66.125 81.953125 66.238281 81.992188 66.351562 C 82.03125 66.460938 82.070312 66.574219 82.105469 66.6875 C 82.144531 66.800781 82.183594 66.910156 82.222656 67.023438 C 82.261719 67.136719 82.300781 67.246094 82.335938 67.359375 C 82.375 67.472656 82.414062 67.582031 82.453125 67.695312 C 82.492188 67.808594 82.53125 67.917969 82.566406 68.03125 C 82.605469 68.140625 82.644531 68.253906 82.683594 68.367188 C 82.722656 68.476562 82.761719 68.589844 82.796875 68.699219 C 82.835938 68.8125 82.875 68.921875 82.914062 69.035156 C 82.953125 69.144531 82.992188 69.257812 83.03125 69.367188 C 83.066406 69.480469 83.105469 69.589844 83.144531 69.703125 C 83.183594 69.8125 83.222656 69.921875 83.261719 70.035156 C 83.296875 70.144531 83.335938 70.253906 83.375 70.367188 C 83.414062 70.476562 83.453125 70.585938 83.492188 70.699219 C 83.527344 70.808594 83.566406 70.917969 83.605469 71.03125 C 83.644531 71.140625 83.683594 71.25 83.722656 71.359375 C 83.757812 71.46875 83.796875 71.582031 83.835938 71.691406 C 83.875 71.800781 83.914062 71.910156 83.953125 72.019531 C 83.992188 72.128906 84.027344 72.238281 84.066406 72.347656 C 84.105469 72.457031 84.144531 72.566406 84.183594 72.675781 C 84.222656 72.785156 84.257812 72.894531 84.296875 73.003906 C 84.335938 73.113281 84.375 73.222656 84.414062 73.332031 C 84.453125 73.441406 84.488281 73.550781 84.527344 73.660156 C 84.566406 73.769531 84.605469 73.878906 84.644531 73.984375 C 84.683594 74.09375 84.71875 74.203125 84.757812 74.3125 C 84.796875 74.417969 84.835938 74.527344 84.875 74.636719 C 84.914062 74.742188 84.953125 74.851562 84.988281 74.960938 C 85.027344 75.066406 85.066406 75.175781 85.105469 75.28125 C 85.144531 75.390625 85.183594 75.5 85.21875 75.605469 C 85.257812 75.714844 85.296875 75.820312 85.335938 75.925781 C 85.375 76.035156 85.414062 76.140625 85.449219 76.25 C 85.488281 76.355469 85.527344 76.460938 85.566406 76.570312 C 85.605469 76.675781 85.644531 76.78125 85.679688 76.890625 C 85.71875 76.996094 85.757812 77.101562 85.796875 77.207031 C 85.835938 77.3125 85.875 77.421875 85.914062 77.527344 C 85.949219 77.632812 85.988281 77.738281 86.027344 77.84375 C 86.066406 77.949219 86.105469 78.054688 86.144531 78.160156 C 86.179688 78.265625 86.21875 78.371094 86.257812 78.476562 C 86.296875 78.582031 86.335938 78.6875 86.375 78.792969 C 86.410156 78.894531 86.449219 79 86.488281 79.105469 C 86.527344 79.210938 86.566406 79.3125 86.605469 79.417969 C 86.640625 79.523438 86.679688 79.628906 86.71875 79.730469 C 86.757812 79.835938 86.796875 79.9375 86.835938 80.042969 C 86.875 80.144531 86.910156 80.25 86.949219 80.351562 C 86.988281 80.457031 87.027344 80.558594 87.066406 80.664062 C 87.105469 80.765625 87.140625 80.871094 87.179688 80.972656 C 87.21875 81.074219 87.257812 81.175781 87.296875 81.28125 C 87.335938 81.382812 87.371094 81.484375 87.410156 81.585938 C 87.449219 81.6875 87.488281 81.792969 87.527344 81.894531 C 87.566406 81.996094 87.601562 82.097656 87.640625 82.199219 C 87.679688 82.300781 87.71875 82.402344 87.757812 82.503906 C 87.796875 82.601562 87.835938 82.703125 87.871094 82.804688 C 87.910156 82.90625 87.949219 83.007812 87.988281 83.109375 C 88.027344 83.207031 88.066406 83.308594 88.101562 83.410156 C 88.140625 83.507812 88.179688 83.609375 88.21875 83.707031 C 88.257812 83.808594 88.296875 83.910156 88.332031 84.007812 C 88.371094 84.109375 88.410156 84.207031 88.449219 84.304688 C 88.488281 84.40625 88.527344 84.503906 88.566406 84.601562 C 88.601562 84.703125 88.640625 84.800781 88.679688 84.898438 C 88.71875 84.996094 88.757812 85.09375 88.796875 85.195312 C 88.832031 85.292969 88.871094 85.390625 88.910156 85.488281 C 88.949219 85.585938 88.988281 85.683594 89.027344 85.78125 C 89.0625 85.878906 89.101562 85.976562 89.140625 86.070312 C 89.179688 86.167969 89.21875 86.265625 89.257812 86.363281 C 89.292969 86.457031 89.332031 86.554688 89.371094 86.652344 C 89.410156 86.746094 89.449219 86.84375 89.488281 86.941406 C 89.527344 87.035156 89.5625 87.132812 89.601562 87.226562 C 89.640625 87.320312 89.679688 87.417969 89.71875 87.511719 C 89.757812 87.605469 89.792969 87.703125 89.832031 87.796875 C 89.871094 87.890625 89.910156 87.984375 89.949219 88.082031 C 89.988281 88.175781 90.023438 88.269531 90.0625 88.363281 C 90.101562 88.457031 90.140625 88.550781 90.179688 88.644531 C 90.21875 88.738281 90.253906 88.832031 90.292969 88.921875 C 90.332031 89.015625 90.371094 89.109375 90.410156 89.203125 C 90.449219 89.292969 90.488281 89.386719 90.523438 89.480469 C 90.5625 89.570312 90.601562 89.664062 90.640625 89.753906 C 90.679688 89.847656 90.71875 89.9375 90.753906 90.03125 C 90.792969 90.121094 90.832031 90.210938 90.871094 90.304688 C 90.910156 90.394531 90.949219 90.484375 90.984375 90.574219 C 91.023438 90.667969 91.0625 90.757812 91.101562 90.847656 C 91.140625 90.9375 91.179688 91.027344 91.214844 91.117188 C 91.253906 91.207031 91.292969 91.296875 91.332031 91.382812 C 91.371094 91.472656 91.410156 91.5625 91.449219 91.652344 C 91.484375 91.738281 91.523438 91.828125 91.5625 91.917969 C 91.601562 92.003906 91.640625 92.09375 91.679688 92.179688 C 91.714844 92.269531 91.753906 92.355469 91.792969 92.445312 C 91.832031 92.53125 91.871094 92.617188 91.910156 92.707031 C 91.945312 92.792969 91.984375 92.878906 92.023438 92.964844 C 92.0625 93.050781 92.101562 93.136719 92.140625 93.222656 C 92.175781 93.308594 92.214844 93.394531 92.253906 93.480469 C 92.292969 93.566406 92.332031 93.652344 92.371094 93.738281 C 92.410156 93.824219 92.445312 93.90625 92.484375 93.992188 C 92.523438 94.078125 92.5625 94.160156 92.601562 94.246094 C 92.640625 94.328125 92.675781 94.414062 92.714844 94.496094 C 92.753906 94.578125 92.792969 94.664062 92.832031 94.746094 C 92.871094 94.828125 92.90625 94.914062 92.945312 94.996094 C 92.984375 95.078125 93.023438 95.160156 93.0625 95.242188 C 93.101562 95.324219 93.136719 95.40625 93.175781 95.488281 C 93.214844 95.570312 93.253906 95.652344 93.292969 95.730469 C 93.332031 95.8125 93.371094 95.894531 93.40625 95.976562 C 93.445312 96.054688 93.484375 96.136719 93.523438 96.214844 C 93.5625 96.296875 93.601562 96.375 93.636719 96.457031 C 93.675781 96.535156 93.714844 96.613281 93.753906 96.695312 C 93.792969 96.773438 93.832031 96.851562 93.867188 96.929688 C 93.90625 97.007812 93.945312 97.085938 93.984375 97.164062 C 94.023438 97.242188 94.0625 97.320312 94.101562 97.398438 C 94.136719 97.476562 94.175781 97.554688 94.214844 97.628906 C 94.253906 97.707031 94.292969 97.785156 94.332031 97.859375 C 94.367188 97.9375 94.40625 98.011719 94.445312 98.089844 C 94.484375 98.164062 94.523438 98.242188 94.5625 98.316406 C 94.597656 98.390625 94.636719 98.46875 94.675781 98.542969 C 94.714844 98.617188 94.753906 98.691406 94.792969 98.765625 C 94.828125 98.839844 94.867188 98.914062 94.90625 98.988281 C 94.945312 99.0625 94.984375 99.136719 95.023438 99.207031 C 95.0625 99.28125 95.097656 99.355469 95.136719 99.425781 C 95.175781 99.5 95.214844 99.574219 95.253906 99.644531 C 95.292969 99.714844 95.328125 99.789062 95.367188 99.859375 C 95.40625 99.933594 95.445312 100.003906 95.484375 100.074219 C 95.523438 100.144531 95.558594 100.214844 95.597656 100.285156 C 95.636719 100.355469 95.675781 100.425781 95.714844 100.496094 C 95.753906 100.566406 95.789062 100.636719 95.828125 100.707031 C 95.867188 100.773438 95.90625 100.84375 95.945312 100.914062 C 95.984375 100.980469 96.023438 101.050781 96.058594 101.117188 C 96.097656 101.1875 96.136719 101.253906 96.175781 101.320312 C 96.214844 101.390625 96.253906 101.457031 96.289062 101.523438 C 96.328125 101.589844 96.367188 101.65625 96.40625 101.722656 C 96.445312 101.789062 96.484375 101.855469 96.519531 101.921875 C 96.558594 101.988281 96.597656 102.054688 96.636719 102.121094 C 96.675781 102.183594 96.714844 102.25 96.75 102.316406 C 96.789062 102.378906 96.828125 102.445312 96.867188 102.507812 C 96.90625 102.570312 96.945312 102.636719 96.984375 102.699219 C 97.019531 102.761719 97.058594 102.828125 97.097656 102.890625 C 97.136719 102.953125 97.175781 103.015625 97.214844 103.078125 C 97.25 103.140625 97.289062 103.203125 97.328125 103.261719 C 97.367188 103.324219 97.40625 103.386719 97.445312 103.449219 C 97.480469 103.507812 97.519531 103.570312 97.558594 103.628906 C 97.597656 103.691406 97.636719 103.75 97.675781 103.8125 C 97.710938 103.871094 97.75 103.929688 97.789062 103.988281 C 97.828125 104.050781 97.867188 104.109375 97.90625 104.167969 C 97.945312 104.226562 97.980469 104.285156 98.019531 104.34375 C 98.058594 104.398438 98.097656 104.457031 98.136719 104.515625 C 98.175781 104.574219 98.210938 104.628906 98.25 104.6875 C 98.289062 104.742188 98.328125 104.800781 98.367188 104.855469 C 98.40625 104.914062 98.441406 104.96875 98.480469 105.023438 C 98.519531 105.078125 98.558594 105.136719 98.597656 105.191406 C 98.636719 105.246094 98.671875 105.300781 98.710938 105.355469 C 98.75 105.410156 98.789062 105.460938 98.828125 105.515625 C 98.867188 105.570312 98.90625 105.625 98.941406 105.675781 C 98.980469 105.730469 99.019531 105.78125 99.058594 105.835938 C 99.097656 105.886719 99.136719 105.9375 99.171875 105.992188 C 99.210938 106.042969 99.25 106.09375 99.289062 106.144531 C 99.328125 106.195312 99.367188 106.246094 99.402344 106.296875 C 99.441406 106.347656 99.480469 106.398438 99.519531 106.449219 C 99.558594 106.5 99.597656 106.546875 99.632812 106.597656 C 99.671875 106.648438 99.710938 106.695312 99.75 106.742188 C 99.789062 106.792969 99.828125 106.839844 99.867188 106.890625 C 99.902344 106.9375 99.941406 106.984375 99.980469 107.03125 C 100.019531 107.078125 100.058594 107.125 100.097656 107.171875 C 100.132812 107.21875 100.171875 107.265625 100.210938 107.3125 C 100.25 107.359375 100.289062 107.402344 100.328125 107.449219 C 100.363281 107.492188 100.402344 107.539062 100.441406 107.582031 C 100.480469 107.628906 100.519531 107.671875 100.558594 107.71875 C 100.597656 107.761719 100.632812 107.804688 100.671875 107.847656 C 100.710938 107.890625 100.75 107.933594 100.789062 107.976562 C 100.828125 108.019531 100.863281 108.0625 100.902344 108.105469 C 100.941406 108.144531 100.980469 108.1875 101.019531 108.230469 C 101.058594 108.269531 101.09375 108.3125 101.132812 108.351562 C 101.171875 108.394531 101.210938 108.433594 101.25 108.472656 C 101.289062 108.511719 101.324219 108.554688 101.363281 108.59375 C 101.402344 108.632812 101.441406 108.671875 101.480469 108.710938 C 101.519531 108.75 101.558594 108.785156 101.59375 108.824219 C 101.632812 108.863281 101.671875 108.898438 101.710938 108.9375 C 101.75 108.976562 101.789062 109.011719 101.824219 109.046875 C 101.863281 109.085938 101.902344 109.121094 101.941406 109.15625 C 101.980469 109.195312 102.019531 109.230469 102.054688 109.265625 C 102.09375 109.300781 102.132812 109.335938 102.171875 109.371094 C 102.210938 109.402344 102.25 109.4375 102.285156 109.472656 C 102.324219 109.507812 102.363281 109.539062 102.402344 109.574219 C 102.441406 109.605469 102.480469 109.640625 102.519531 109.671875 C 102.554688 109.703125 102.59375 109.738281 102.632812 109.769531 C 102.671875 109.800781 102.710938 109.832031 102.75 109.863281 C 102.785156 109.894531 102.824219 109.925781 102.863281 109.957031 C 102.902344 109.984375 102.941406 110.015625 102.980469 110.046875 C 103.015625 110.074219 103.054688 110.105469 103.09375 110.132812 C 103.132812 110.164062 103.171875 110.191406 103.210938 110.222656 C 103.246094 110.25 103.285156 110.277344 103.324219 110.304688 C 103.363281 110.332031 103.402344 110.359375 103.441406 110.386719 C 103.480469 110.414062 103.515625 110.441406 103.554688 110.46875 C 103.59375 110.492188 103.632812 110.519531 103.671875 110.546875 C 103.710938 110.570312 103.746094 110.597656 103.785156 110.621094 C 103.824219 110.644531 103.863281 110.671875 103.902344 110.695312 C 103.941406 110.71875 103.976562 110.742188 104.015625 110.765625 C 104.054688 110.789062 104.09375 110.8125 104.132812 110.835938 C 104.171875 110.859375 104.207031 110.882812 104.246094 110.902344 C 104.285156 110.925781 104.324219 110.949219 104.363281 110.96875 C 104.402344 110.992188 104.441406 111.011719 104.476562 111.03125 C 104.515625 111.054688 104.554688 111.074219 104.59375 111.09375 C 104.632812 111.113281 104.671875 111.132812 104.707031 111.152344 C 104.746094 111.171875 104.785156 111.191406 104.824219 111.210938 C 104.863281 111.226562 104.902344 111.246094 104.9375 111.265625 C 104.976562 111.28125 105.015625 111.300781 105.054688 111.316406 C 105.09375 111.335938 105.132812 111.351562 105.167969 111.367188 C 105.207031 111.382812 105.246094 111.398438 105.285156 111.414062 C 105.324219 111.433594 105.363281 111.445312 105.402344 111.460938 C 105.4375 111.476562 105.476562 111.492188 105.515625 111.507812 C 105.554688 111.519531 105.59375 111.535156 105.632812 111.546875 C 105.667969 111.5625 105.707031 111.574219 105.746094 111.589844 C 105.785156 111.601562 105.824219 111.613281 105.863281 111.625 C 105.898438 111.636719 105.9375 111.648438 105.976562 111.660156 C 106.015625 111.671875 106.054688 111.683594 106.09375 111.695312 C 106.128906 111.707031 106.167969 111.714844 106.207031 111.726562 C 106.246094 111.738281 106.285156 111.746094 106.324219 111.757812 C 106.363281 111.765625 106.398438 111.773438 106.4375 111.78125 C 106.476562 111.792969 106.515625 111.800781 106.554688 111.808594 C 106.59375 111.816406 106.628906 111.824219 106.667969 111.832031 C 106.707031 111.839844 106.746094 111.84375 106.785156 111.851562 C 106.824219 111.859375 106.859375 111.863281 106.898438 111.871094 C 106.9375 111.875 106.976562 111.882812 107.015625 111.886719 C 107.054688 111.890625 107.09375 111.894531 107.128906 111.902344 C 107.167969 111.90625 107.207031 111.910156 107.246094 111.914062 C 107.285156 111.917969 107.324219 111.917969 107.359375 111.921875 C 107.398438 111.925781 107.4375 111.929688 107.476562 111.929688 C 107.515625 111.933594 107.554688 111.933594 107.589844 111.9375 C 107.628906 111.9375 107.667969 111.9375 107.707031 111.941406 C 107.746094 111.941406 107.785156 111.941406 107.820312 111.941406 C 107.859375 111.941406 107.898438 111.941406 107.9375 111.941406 C 107.976562 111.941406 108.015625 111.9375 108.054688 111.9375 C 108.089844 111.9375 108.128906 111.933594 108.167969 111.933594 C 108.207031 111.929688 108.246094 111.925781 108.285156 111.925781 C 108.320312 111.921875 108.359375 111.917969 108.398438 111.914062 C 108.4375 111.910156 108.476562 111.90625 108.515625 111.902344 C 108.550781 111.898438 108.589844 111.894531 108.628906 111.890625 C 108.667969 111.886719 108.707031 111.878906 108.746094 111.875 C 108.78125 111.867188 108.820312 111.863281 108.859375 111.855469 C 108.898438 111.851562 108.9375 111.84375 108.976562 111.835938 C 109.015625 111.828125 109.050781 111.820312 109.089844 111.8125 C 109.128906 111.804688 109.167969 111.796875 109.207031 111.789062 C 109.246094 111.78125 109.28125 111.773438 109.320312 111.761719 C 109.359375 111.753906 109.398438 111.746094 109.4375 111.734375 C 109.476562 111.722656 109.511719 111.714844 109.550781 111.703125 C 109.589844 111.691406 109.628906 111.683594 109.667969 111.671875 C 109.707031 111.660156 109.742188 111.648438 109.78125 111.636719 C 109.820312 111.625 109.859375 111.609375 109.898438 111.597656 C 109.9375 111.585938 109.976562 111.570312 110.011719 111.558594 C 110.050781 111.546875 110.089844 111.53125 110.128906 111.515625 C 110.167969 111.503906 110.207031 111.488281 110.242188 111.472656 C 110.28125 111.457031 110.320312 111.445312 110.359375 111.429688 C 110.398438 111.414062 110.4375 111.394531 110.472656 111.378906 C 110.511719 111.363281 110.550781 111.347656 110.589844 111.328125 C 110.628906 111.3125 110.667969 111.296875 110.703125 111.277344 C 110.742188 111.261719 110.78125 111.242188 110.820312 111.222656 C 110.859375 111.203125 110.898438 111.1875 110.9375 111.167969 C 110.972656 111.148438 111.011719 111.128906 111.050781 111.109375 C 111.089844 111.089844 111.128906 111.070312 111.167969 111.046875 C 111.203125 111.027344 111.242188 111.007812 111.28125 110.984375 C 111.320312 110.964844 111.359375 110.941406 111.398438 110.921875 C 111.433594 110.898438 111.472656 110.875 111.511719 110.851562 C 111.550781 110.832031 111.589844 110.808594 111.628906 110.785156 C 111.664062 110.761719 111.703125 110.738281 111.742188 110.714844 C 111.78125 110.6875 111.820312 110.664062 111.859375 110.640625 C 111.898438 110.613281 111.933594 110.589844 111.972656 110.5625 C 112.011719 110.539062 112.050781 110.511719 112.089844 110.488281 C 112.128906 110.460938 112.164062 110.433594 112.203125 110.40625 C 112.242188 110.378906 112.28125 110.351562 112.320312 110.324219 C 112.359375 110.296875 112.394531 110.269531 112.433594 110.242188 C 112.472656 110.214844 112.511719 110.183594 112.550781 110.15625 C 112.589844 110.128906 112.625 110.097656 112.664062 110.066406 C 112.703125 110.039062 112.742188 110.007812 112.78125 109.976562 C 112.820312 109.949219 112.859375 109.917969 112.894531 109.886719 C 112.933594 109.855469 112.972656 109.824219 113.011719 109.792969 C 113.050781 109.761719 113.089844 109.726562 113.125 109.695312 C 113.164062 109.664062 113.203125 109.632812 113.242188 109.597656 C 113.28125 109.566406 113.320312 109.53125 113.355469 109.496094 C 113.394531 109.464844 113.433594 109.429688 113.472656 109.394531 C 113.511719 109.359375 113.550781 109.324219 113.589844 109.289062 C 113.625 109.253906 113.664062 109.21875 113.703125 109.183594 C 113.742188 109.148438 113.78125 109.113281 113.820312 109.074219 C 113.855469 109.039062 113.894531 109.003906 113.933594 108.964844 C 113.972656 108.929688 114.011719 108.890625 114.050781 108.851562 C 114.085938 108.816406 114.125 108.777344 114.164062 108.738281 C 114.203125 108.699219 114.242188 108.660156 114.28125 108.621094 C 114.316406 108.582031 114.355469 108.542969 114.394531 108.503906 C 114.433594 108.464844 114.472656 108.421875 114.511719 108.382812 C 114.550781 108.34375 114.585938 108.300781 114.625 108.261719 C 114.664062 108.21875 114.703125 108.175781 114.742188 108.136719 C 114.78125 108.09375 114.816406 108.050781 114.855469 108.007812 C 114.894531 107.964844 114.933594 107.921875 114.972656 107.878906 C 115.011719 107.835938 115.046875 107.792969 115.085938 107.75 C 115.125 107.707031 115.164062 107.660156 115.203125 107.617188 C 115.242188 107.574219 115.277344 107.527344 115.316406 107.484375 C 115.355469 107.4375 115.394531 107.390625 115.433594 107.347656 C 115.472656 107.300781 115.511719 107.253906 115.546875 107.207031 C 115.585938 107.160156 115.625 107.113281 115.664062 107.066406 C 115.703125 107.019531 115.742188 106.972656 115.777344 106.925781 C 115.816406 106.878906 115.855469 106.828125 115.894531 106.78125 C 115.933594 106.730469 115.972656 106.683594 116.007812 106.632812 C 116.046875 106.585938 116.085938 106.535156 116.125 106.484375 C 116.164062 106.4375 116.203125 106.386719 116.238281 106.335938 C 116.277344 106.285156 116.316406 106.234375 116.355469 106.183594 C 116.394531 106.132812 116.433594 106.082031 116.472656 106.03125 C 116.507812 105.976562 116.546875 105.925781 116.585938 105.875 C 116.625 105.820312 116.664062 105.769531 116.703125 105.714844 C 116.738281 105.664062 116.777344 105.609375 116.816406 105.554688 C 116.855469 105.503906 116.894531 105.449219 116.933594 105.394531 C 116.96875 105.339844 117.007812 105.285156 117.046875 105.230469 C 117.085938 105.175781 117.125 105.121094 117.164062 105.066406 C 117.199219 105.011719 117.238281 104.953125 117.277344 104.898438 C 117.316406 104.84375 117.355469 104.785156 117.394531 104.730469 C 117.433594 104.671875 117.46875 104.617188 117.507812 104.558594 C 117.546875 104.5 117.585938 104.441406 117.625 104.386719 C 117.664062 104.328125 117.699219 104.269531 117.738281 104.210938 C 117.777344 104.152344 117.816406 104.09375 117.855469 104.035156 C 117.894531 103.976562 117.929688 103.914062 117.96875 103.855469 C 118.007812 103.796875 118.046875 103.734375 118.085938 103.675781 C 118.125 103.613281 118.160156 103.554688 118.199219 103.492188 C 118.238281 103.433594 118.277344 103.371094 118.316406 103.308594 C 118.355469 103.246094 118.394531 103.1875 118.429688 103.125 C 118.46875 103.0625 118.507812 103 118.546875 102.9375 C 118.585938 102.875 118.625 102.8125 118.660156 102.746094 C 118.699219 102.683594 118.738281 102.621094 118.777344 102.554688 C 118.816406 102.492188 118.855469 102.429688 118.890625 102.363281 C 118.929688 102.296875 118.96875 102.234375 119.007812 102.167969 C 119.046875 102.105469 119.085938 102.039062 119.121094 101.972656 C 119.160156 101.90625 119.199219 101.839844 119.238281 101.773438 C 119.277344 101.707031 119.316406 101.640625 119.355469 101.574219 C 119.390625 101.507812 119.429688 101.441406 119.46875 101.371094 C 119.507812 101.304688 119.546875 101.238281 119.585938 101.167969 C 119.621094 101.101562 119.660156 101.03125 119.699219 100.964844 C 119.738281 100.894531 119.777344 100.828125 119.816406 100.757812 C 119.851562 100.6875 119.890625 100.617188 119.929688 100.550781 C 119.96875 100.480469 120.007812 100.410156 120.046875 100.339844 C 120.085938 100.269531 120.121094 100.199219 120.160156 100.128906 C 120.199219 100.054688 120.238281 99.984375 120.277344 99.914062 C 120.316406 99.84375 120.351562 99.769531 120.390625 99.699219 C 120.429688 99.625 120.46875 99.554688 120.507812 99.480469 C 120.546875 99.410156 120.582031 99.335938 120.621094 99.261719 C 120.660156 99.191406 120.699219 99.117188 120.738281 99.042969 C 120.777344 98.96875 120.8125 98.894531 120.851562 98.820312 C 120.890625 98.746094 120.929688 98.671875 120.96875 98.597656 C 121.007812 98.523438 121.046875 98.449219 121.082031 98.371094 C 121.121094 98.296875 121.160156 98.222656 121.199219 98.144531 C 121.238281 98.070312 121.277344 97.996094 121.3125 97.917969 C 121.351562 97.839844 121.390625 97.765625 121.429688 97.6875 C 121.46875 97.609375 121.507812 97.535156 121.542969 97.457031 C 121.582031 97.378906 121.621094 97.300781 121.660156 97.222656 C 121.699219 97.144531 121.738281 97.066406 121.773438 96.988281 C 121.8125 96.910156 121.851562 96.832031 121.890625 96.753906 C 121.929688 96.675781 121.96875 96.59375 122.007812 96.515625 C 122.042969 96.4375 122.082031 96.355469 122.121094 96.277344 C 122.160156 96.195312 122.199219 96.117188 122.238281 96.035156 "/>
</g>
<path style="fill-rule:nonzero;fill:rgb(0%,0%,100%);fill-opacity:1;stroke-width:0.8;stroke-linecap:butt;stroke-linejoin:miter;stroke:rgb(100%,100%,100%);stroke-opacity:1;stroke-miterlimit:4;" d="M 9.136719 95.960938 C 9.136719 97.066406 8.242188 97.960938 7.136719 97.960938 C 6.03125 97.960938 5.136719 97.066406 5.136719 95.960938 C 5.136719 94.855469 6.03125 93.960938 7.136719 93.960938 C 8.242188 93.960938 9.136719 94.855469 9.136719 95.960938 Z M 9.136719 95.960938 "/>
<path style="fill-rule:nonzero;fill:rgb(0%,0%,100%);fill-opacity:1;stroke-width:0.8;stroke-linecap:butt;stroke-linejoin:miter;stroke:rgb(100%,100%,100%);stroke-opacity:1;stroke-miterlimit:4;" d="M 95.386719 95.972656 C 95.386719 97.078125 94.492188 97.972656 93.386719 97.972656 C 92.28125 97.972656 91.386719 97.078125 91.386719 95.972656 C 91.386719 94.871094 92.28125 93.972656 93.386719 93.972656 C 94.492188 93.972656 95.386719 94.871094 95.386719 95.972656 Z M 95.386719 95.972656 "/>
<path style="fill-rule:nonzero;fill:rgb(100%,0%,0%);fill-opacity:1;stroke-width:0.8;stroke-linecap:butt;stroke-linejoin:miter;stroke:rgb(100%,100%,100%);stroke-opacity:1;stroke-miterlimit:4;" d="M 52.238281 3.542969 C 52.238281 4.644531 51.339844 5.542969 50.238281 5.542969 C 49.132812 5.542969 48.238281 4.644531 48.238281 3.542969 C 48.238281 2.4375 49.132812 1.542969 50.238281 1.542969 C 51.339844 1.542969 52.238281 2.4375 52.238281 3.542969 Z M 52.238281 3.542969 "/>
<path style="fill:none;stroke-width:0.8;stroke-linecap:butt;stroke-linejoin:miter;stroke:rgb(0%,0%,100%);stroke-opacity:1;stroke-dasharray:0.8,2.4;stroke-miterlimit:4;" d="M 7.035156 57.636719 L 7.035156 96.035156 "/>
<path style=" stroke:none;fill-rule:nonzero;fill:rgb(0%,0%,0%);fill-opacity:1;" d="M 69.011719 14.691406 C 69.273438 14.75 70.25 14.9375 70.25 15.800781 C 70.25 16.398438 69.835938 16.886719 68.898438 16.886719 C 67.886719 16.886719 67.457031 16.210938 67.230469 15.179688 C 67.191406 15.03125 67.191406 14.992188 67.0625 14.992188 C 66.910156 14.992188 66.910156 15.066406 66.910156 15.273438 L 66.910156 16.867188 C 66.910156 17.074219 66.910156 17.148438 67.042969 17.148438 C 67.097656 17.148438 67.117188 17.128906 67.34375 16.90625 C 67.363281 16.886719 67.363281 16.867188 67.585938 16.644531 C 68.113281 17.128906 68.65625 17.148438 68.898438 17.148438 C 70.269531 17.148438 70.832031 16.34375 70.832031 15.480469 C 70.832031 14.863281 70.472656 14.488281 70.324219 14.355469 C 69.929688 13.960938 69.460938 13.867188 68.957031 13.773438 C 68.28125 13.644531 67.492188 13.492188 67.492188 12.800781 C 67.492188 12.367188 67.792969 11.878906 68.824219 11.878906 C 70.136719 11.878906 70.210938 12.96875 70.230469 13.324219 C 70.230469 13.4375 70.34375 13.4375 70.363281 13.4375 C 70.53125 13.4375 70.53125 13.378906 70.53125 13.15625 L 70.53125 11.9375 C 70.53125 11.75 70.53125 11.65625 70.398438 11.65625 C 70.34375 11.65625 70.304688 11.65625 70.15625 11.804688 C 70.117188 11.84375 70.003906 11.957031 69.949219 11.992188 C 69.5 11.65625 69.011719 11.65625 68.824219 11.65625 C 67.363281 11.65625 66.910156 12.460938 66.910156 13.136719 C 66.910156 13.550781 67.097656 13.886719 67.417969 14.148438 C 67.8125 14.449219 68.148438 14.523438 69.011719 14.691406 Z M 69.011719 14.691406 "/>
<path style=" stroke:none;fill-rule:nonzero;fill:rgb(0%,0%,0%);fill-opacity:1;" d="M 73.351562 11.730469 L 71.683594 11.863281 L 71.683594 12.238281 C 72.453125 12.238281 72.5625 12.3125 72.5625 12.894531 L 72.5625 16.117188 C 72.5625 16.644531 72.433594 16.644531 71.625 16.644531 L 71.625 17.019531 C 72 17 72.65625 16.980469 72.9375 16.980469 C 73.371094 16.980469 73.78125 17 74.195312 17.019531 L 74.195312 16.644531 C 73.390625 16.644531 73.351562 16.585938 73.351562 16.117188 Z M 73.390625 9.648438 C 73.390625 9.273438 73.109375 9.011719 72.769531 9.011719 C 72.394531 9.011719 72.132812 9.332031 72.132812 9.648438 C 72.132812 9.96875 72.394531 10.285156 72.769531 10.285156 C 73.109375 10.285156 73.390625 10.023438 73.390625 9.648438 Z M 73.390625 9.648438 "/>
<path style=" stroke:none;fill-rule:nonzero;fill:rgb(0%,0%,0%);fill-opacity:1;" d="M 75.867188 12.910156 L 75.867188 16.117188 C 75.867188 16.644531 75.734375 16.644531 74.929688 16.644531 L 74.929688 17.019531 C 75.359375 17 75.960938 16.980469 76.296875 16.980469 C 76.597656 16.980469 77.214844 17 77.628906 17.019531 L 77.628906 16.644531 C 76.824219 16.644531 76.691406 16.644531 76.691406 16.117188 L 76.691406 13.90625 C 76.691406 12.667969 77.554688 11.992188 78.304688 11.992188 C 79.074219 11.992188 79.203125 12.628906 79.203125 13.324219 L 79.203125 16.117188 C 79.203125 16.644531 79.074219 16.644531 78.265625 16.644531 L 78.265625 17.019531 C 78.679688 17 79.296875 16.980469 79.617188 16.980469 C 79.917969 16.980469 80.554688 17 80.949219 17.019531 L 80.949219 16.644531 C 80.328125 16.644531 80.027344 16.644531 80.027344 16.285156 L 80.027344 14 C 80.027344 12.96875 80.027344 12.613281 79.652344 12.179688 C 79.484375 11.972656 79.089844 11.730469 78.398438 11.730469 C 77.515625 11.730469 76.953125 12.238281 76.617188 12.988281 L 76.617188 11.730469 L 74.929688 11.863281 L 74.929688 12.238281 C 75.773438 12.238281 75.867188 12.3125 75.867188 12.910156 Z M 75.867188 12.910156 "/>
<path style=" stroke:none;fill-rule:nonzero;fill:rgb(0%,0%,0%);fill-opacity:1;" d="M 85.152344 19.886719 C 85.152344 19.847656 85.152344 19.832031 84.945312 19.625 C 83.464844 18.125 83.070312 15.855469 83.070312 14.019531 C 83.070312 11.9375 83.519531 9.855469 85.003906 8.375 C 85.152344 8.222656 85.152344 8.207031 85.152344 8.167969 C 85.152344 8.074219 85.113281 8.035156 85.039062 8.035156 C 84.910156 8.035156 83.839844 8.863281 83.128906 10.378906 C 82.527344 11.691406 82.378906 13.023438 82.378906 14.019531 C 82.378906 14.957031 82.507812 16.398438 83.164062 17.769531 C 83.894531 19.230469 84.910156 20.019531 85.039062 20.019531 C 85.113281 20.019531 85.152344 19.980469 85.152344 19.886719 Z M 85.152344 19.886719 "/>
<path style=" stroke:none;fill-rule:nonzero;fill:rgb(0%,0%,0%);fill-opacity:1;" d="M 89.839844 13.398438 C 89.914062 13.097656 90.195312 11.992188 91.019531 11.992188 C 91.078125 11.992188 91.375 11.992188 91.621094 12.144531 C 91.28125 12.21875 91.058594 12.5 91.058594 12.800781 C 91.058594 12.988281 91.1875 13.210938 91.507812 13.210938 C 91.769531 13.210938 92.144531 13.003906 92.144531 12.519531 C 92.144531 11.898438 91.453125 11.730469 91.039062 11.730469 C 90.34375 11.730469 89.933594 12.367188 89.78125 12.628906 C 89.484375 11.84375 88.84375 11.730469 88.488281 11.730469 C 87.25 11.730469 86.558594 13.269531 86.558594 13.566406 C 86.558594 13.699219 86.6875 13.699219 86.707031 13.699219 C 86.800781 13.699219 86.839844 13.660156 86.859375 13.566406 C 87.269531 12.292969 88.058594 11.992188 88.46875 11.992188 C 88.695312 11.992188 89.109375 12.105469 89.109375 12.800781 C 89.109375 13.175781 88.902344 13.960938 88.46875 15.648438 C 88.28125 16.378906 87.851562 16.886719 87.328125 16.886719 C 87.25 16.886719 86.988281 16.886719 86.726562 16.738281 C 87.027344 16.660156 87.289062 16.417969 87.289062 16.082031 C 87.289062 15.761719 87.027344 15.667969 86.859375 15.667969 C 86.484375 15.667969 86.203125 15.96875 86.203125 16.363281 C 86.203125 16.90625 86.78125 17.148438 87.308594 17.148438 C 88.113281 17.148438 88.546875 16.304688 88.5625 16.25 C 88.714844 16.679688 89.144531 17.148438 89.859375 17.148438 C 91.09375 17.148438 91.769531 15.613281 91.769531 15.3125 C 91.769531 15.179688 91.675781 15.179688 91.640625 15.179688 C 91.527344 15.179688 91.507812 15.238281 91.46875 15.3125 C 91.078125 16.605469 90.269531 16.886719 89.894531 16.886719 C 89.425781 16.886719 89.238281 16.511719 89.238281 16.097656 C 89.238281 15.835938 89.296875 15.574219 89.425781 15.050781 Z M 89.839844 13.398438 "/>
<path style=" stroke:none;fill-rule:nonzero;fill:rgb(0%,0%,0%);fill-opacity:1;" d="M 96.128906 14.019531 C 96.128906 13.097656 95.996094 11.65625 95.339844 10.285156 C 94.628906 8.824219 93.597656 8.035156 93.484375 8.035156 C 93.410156 8.035156 93.351562 8.09375 93.351562 8.167969 C 93.351562 8.207031 93.351562 8.222656 93.578125 8.449219 C 94.757812 9.628906 95.433594 11.523438 95.433594 14.019531 C 95.433594 16.082031 95.003906 18.179688 93.523438 19.679688 C 93.351562 19.832031 93.351562 19.847656 93.351562 19.886719 C 93.351562 19.960938 93.410156 20.019531 93.484375 20.019531 C 93.597656 20.019531 94.683594 19.191406 95.378906 17.675781 C 95.996094 16.363281 96.128906 15.03125 96.128906 14.019531 Z M 96.128906 14.019531 "/>
<path style=" stroke:none;fill-rule:nonzero;fill:rgb(0%,0%,0%);fill-opacity:1;" d="M 107.859375 14.261719 C 108.066406 14.261719 108.289062 14.261719 108.289062 14.019531 C 108.289062 13.792969 108.066406 13.792969 107.859375 13.792969 L 101.390625 13.792969 C 101.183594 13.792969 100.976562 13.792969 100.976562 14.019531 C 100.976562 14.261719 101.183594 14.261719 101.390625 14.261719 Z M 107.859375 14.261719 "/>
<path style=" stroke:none;fill-rule:nonzero;fill:rgb(0%,0%,0%);fill-opacity:1;" d="M 113.34375 14.410156 C 113.34375 12.460938 114.320312 11.957031 114.957031 11.957031 C 115.070312 11.957031 115.820312 11.972656 116.234375 12.40625 C 115.746094 12.441406 115.671875 12.800781 115.671875 12.949219 C 115.671875 13.269531 115.894531 13.492188 116.214844 13.492188 C 116.53125 13.492188 116.777344 13.304688 116.777344 12.929688 C 116.777344 12.125 115.859375 11.65625 114.9375 11.65625 C 113.4375 11.65625 112.351562 12.949219 112.351562 14.429688 C 112.351562 15.96875 113.53125 17.148438 114.921875 17.148438 C 116.515625 17.148438 116.90625 15.707031 116.90625 15.59375 C 116.90625 15.480469 116.777344 15.480469 116.738281 15.480469 C 116.644531 15.480469 116.609375 15.519531 116.589844 15.59375 C 116.25 16.699219 115.464844 16.847656 115.03125 16.847656 C 114.394531 16.847656 113.34375 16.34375 113.34375 14.410156 Z M 113.34375 14.410156 "/>
<path style=" stroke:none;fill-rule:nonzero;fill:rgb(0%,0%,0%);fill-opacity:1;" d="M 122.875 14.449219 C 122.875 12.929688 121.695312 11.65625 120.25 11.65625 C 118.75 11.65625 117.589844 12.96875 117.589844 14.449219 C 117.589844 16.003906 118.828125 17.148438 120.234375 17.148438 C 121.675781 17.148438 122.875 15.96875 122.875 14.449219 Z M 120.25 16.847656 C 119.726562 16.847656 119.203125 16.605469 118.882812 16.042969 C 118.582031 15.519531 118.582031 14.785156 118.582031 14.355469 C 118.582031 13.886719 118.582031 13.25 118.863281 12.722656 C 119.183594 12.179688 119.746094 11.917969 120.234375 11.917969 C 120.757812 11.917969 121.265625 12.179688 121.582031 12.707031 C 121.902344 13.210938 121.902344 13.90625 121.902344 14.355469 C 121.902344 14.785156 121.902344 15.441406 121.640625 15.96875 C 121.359375 16.511719 120.832031 16.847656 120.25 16.847656 Z M 120.25 16.847656 "/>
<path style=" stroke:none;fill-rule:nonzero;fill:rgb(0%,0%,0%);fill-opacity:1;" d="M 125.722656 14.691406 C 125.984375 14.75 126.960938 14.9375 126.960938 15.800781 C 126.960938 16.398438 126.546875 16.886719 125.609375 16.886719 C 124.597656 16.886719 124.167969 16.210938 123.941406 15.179688 C 123.90625 15.03125 123.90625 14.992188 123.773438 14.992188 C 123.625 14.992188 123.625 15.066406 123.625 15.273438 L 123.625 16.867188 C 123.625 17.074219 123.625 17.148438 123.753906 17.148438 C 123.8125 17.148438 123.828125 17.128906 124.054688 16.90625 C 124.074219 16.886719 124.074219 16.867188 124.296875 16.644531 C 124.824219 17.128906 125.367188 17.148438 125.609375 17.148438 C 126.980469 17.148438 127.542969 16.34375 127.542969 15.480469 C 127.542969 14.863281 127.1875 14.488281 127.035156 14.355469 C 126.640625 13.960938 126.171875 13.867188 125.667969 13.773438 C 124.992188 13.644531 124.203125 13.492188 124.203125 12.800781 C 124.203125 12.367188 124.503906 11.878906 125.535156 11.878906 C 126.847656 11.878906 126.921875 12.96875 126.941406 13.324219 C 126.941406 13.4375 127.054688 13.4375 127.074219 13.4375 C 127.242188 13.4375 127.242188 13.378906 127.242188 13.15625 L 127.242188 11.9375 C 127.242188 11.75 127.242188 11.65625 127.109375 11.65625 C 127.054688 11.65625 127.015625 11.65625 126.867188 11.804688 C 126.828125 11.84375 126.71875 11.957031 126.660156 11.992188 C 126.210938 11.65625 125.722656 11.65625 125.535156 11.65625 C 124.074219 11.65625 123.625 12.460938 123.625 13.136719 C 123.625 13.550781 123.8125 13.886719 124.128906 14.148438 C 124.523438 14.449219 124.859375 14.523438 125.722656 14.691406 Z M 125.722656 14.691406 "/>
<path style=" stroke:none;fill-rule:nonzero;fill:rgb(0%,0%,0%);fill-opacity:1;" d="M 131.902344 19.886719 C 131.902344 19.847656 131.902344 19.832031 131.695312 19.625 C 130.214844 18.125 129.820312 15.855469 129.820312 14.019531 C 129.820312 11.9375 130.269531 9.855469 131.75 8.375 C 131.902344 8.222656 131.902344 8.207031 131.902344 8.167969 C 131.902344 8.074219 131.863281 8.035156 131.789062 8.035156 C 131.65625 8.035156 130.589844 8.863281 129.875 10.378906 C 129.277344 11.691406 129.125 13.023438 129.125 14.019531 C 129.125 14.957031 129.257812 16.398438 129.914062 17.769531 C 130.644531 19.230469 131.65625 20.019531 131.789062 20.019531 C 131.863281 20.019531 131.902344 19.980469 131.902344 19.886719 Z M 131.902344 19.886719 "/>
<path style=" stroke:none;fill-rule:nonzero;fill:rgb(0%,0%,0%);fill-opacity:1;" d="M 136.589844 13.398438 C 136.664062 13.097656 136.945312 11.992188 137.769531 11.992188 C 137.824219 11.992188 138.125 11.992188 138.371094 12.144531 C 138.03125 12.21875 137.808594 12.5 137.808594 12.800781 C 137.808594 12.988281 137.9375 13.210938 138.257812 13.210938 C 138.519531 13.210938 138.894531 13.003906 138.894531 12.519531 C 138.894531 11.898438 138.199219 11.730469 137.789062 11.730469 C 137.09375 11.730469 136.683594 12.367188 136.53125 12.628906 C 136.230469 11.84375 135.59375 11.730469 135.238281 11.730469 C 134 11.730469 133.308594 13.269531 133.308594 13.566406 C 133.308594 13.699219 133.4375 13.699219 133.457031 13.699219 C 133.550781 13.699219 133.589844 13.660156 133.605469 13.566406 C 134.019531 12.292969 134.808594 11.992188 135.21875 11.992188 C 135.445312 11.992188 135.855469 12.105469 135.855469 12.800781 C 135.855469 13.175781 135.652344 13.960938 135.21875 15.648438 C 135.03125 16.378906 134.601562 16.886719 134.074219 16.886719 C 134 16.886719 133.738281 16.886719 133.476562 16.738281 C 133.777344 16.660156 134.039062 16.417969 134.039062 16.082031 C 134.039062 15.761719 133.777344 15.667969 133.605469 15.667969 C 133.230469 15.667969 132.949219 15.96875 132.949219 16.363281 C 132.949219 16.90625 133.53125 17.148438 134.058594 17.148438 C 134.863281 17.148438 135.292969 16.304688 135.3125 16.25 C 135.464844 16.679688 135.894531 17.148438 136.605469 17.148438 C 137.84375 17.148438 138.519531 15.613281 138.519531 15.3125 C 138.519531 15.179688 138.425781 15.179688 138.386719 15.179688 C 138.277344 15.179688 138.257812 15.238281 138.21875 15.3125 C 137.824219 16.605469 137.019531 16.886719 136.644531 16.886719 C 136.175781 16.886719 135.988281 16.511719 135.988281 16.097656 C 135.988281 15.835938 136.042969 15.574219 136.175781 15.050781 Z M 136.589844 13.398438 "/>
<g clip-path="url(#clip3)" clip-rule="nonzero">
<path style=" stroke:none;fill-rule:nonzero;fill:rgb(0%,0%,0%);fill-opacity:1;" d="M 142.878906 14.019531 C 142.878906 13.097656 142.746094 11.65625 142.089844 10.285156 C 141.378906 8.824219 140.347656 8.035156 140.234375 8.035156 C 140.160156 8.035156 140.101562 8.09375 140.101562 8.167969 C 140.101562 8.207031 140.101562 8.222656 140.328125 8.449219 C 141.507812 9.628906 142.183594 11.523438 142.183594 14.019531 C 142.183594 16.082031 141.753906 18.179688 140.269531 19.679688 C 140.101562 19.832031 140.101562 19.847656 140.101562 19.886719 C 140.101562 19.960938 140.160156 20.019531 140.234375 20.019531 C 140.347656 20.019531 141.433594 19.191406 142.128906 17.675781 C 142.746094 16.363281 142.878906 15.03125 142.878906 14.019531 Z M 142.878906 14.019531 "/>
</g>
</g>
</svg>
