<?xml version="1.0" encoding="UTF-8"?>
<svg xmlns="http://www.w3.org/2000/svg" xmlns:xlink="http://www.w3.org/1999/xlink" width="578.41272pt" height="129.776718pt" viewBox="0 0 578.41272 129.776718" version="1.1">
<defs>
<filter id="alpha" filterUnits="objectBoundingBox" x="0%" y="0%" width="100%" height="100%">
  <feColorMatrix type="matrix" in="SourceGraphic" values="0 0 0 0 1 0 0 0 0 1 0 0 0 0 1 0 0 0 1 0"/>
</filter>
<clipPath id="clip1">
  <rect width="21" height="30"/>
</clipPath>
<g id="surface8" clip-path="url(#clip1)">
<rect x="0" y="0" width="21" height="30" style="fill:rgb(0%,0%,0%);fill-opacity:0.97;stroke:none;"/>
</g>
<mask id="mask0">
  <g filter="url(#alpha)">
<use xlink:href="#surface8"/>
  </g>
</mask>
<clipPath id="clip2">
  <rect width="21" height="30"/>
</clipPath>
<g id="surface10" clip-path="url(#clip2)">
<path style="fill:none;stroke-width:1.6;stroke-linecap:round;stroke-linejoin:round;stroke:rgb(100%,0%,0%);stroke-opacity:1;stroke-miterlimit:4;" d="M 19.605469 87.441406 C 28.703125 92.742188 34.792969 102 36.050781 112.457031 " transform="matrix(1,0,0,1,-17,-86)"/>
<path style="fill-rule:evenodd;fill:rgb(100%,0%,0%);fill-opacity:1;stroke-width:0.345626;stroke-linecap:butt;stroke-linejoin:miter;stroke:rgb(100%,0%,0%);stroke-opacity:1;stroke-miterlimit:4;" d="M 54.326815 56.756806 L 55.708559 55.373711 L 50.873684 56.756795 L 55.709909 58.13855 Z M 54.326815 56.756806 " transform="matrix(1,0.582575,-0.582575,1,-17,-86)"/>
<path style="fill-rule:evenodd;fill:rgb(100%,0%,0%);fill-opacity:1;stroke-width:0.397133;stroke-linecap:butt;stroke-linejoin:miter;stroke:rgb(100%,0%,0%);stroke-opacity:1;stroke-miterlimit:4;" d="M -113.222056 22.191094 L -111.632236 20.60122 L -117.194517 22.189468 L -111.632183 23.780914 Z M -113.222056 22.191094 " transform="matrix(-0.120376,-1,1,-0.120376,-17,-86)"/>
</g>
<clipPath id="clip3">
  <rect width="8" height="9"/>
</clipPath>
<g id="surface14" clip-path="url(#clip3)">
<rect x="0" y="0" width="8" height="9" style="fill:rgb(0%,0%,0%);fill-opacity:0.25;stroke:none;"/>
</g>
<mask id="mask1">
  <g filter="url(#alpha)">
<use xlink:href="#surface14"/>
  </g>
</mask>
<clipPath id="clip4">
  <rect width="8" height="9"/>
</clipPath>
<g id="surface16" clip-path="url(#clip4)">
<path style=" stroke:none;fill-rule:nonzero;fill:rgb(0%,0%,0%);fill-opacity:1;" d="M 5.660156 1.8125 C 5.359375 1.210938 4.910156 0.785156 4.183594 0.785156 C 2.335938 0.785156 0.359375 3.136719 0.359375 5.460938 C 0.359375 6.960938 1.234375 8.011719 2.460938 8.011719 C 2.785156 8.011719 3.585938 7.9375 4.535156 6.8125 C 4.660156 7.484375 5.234375 8.011719 5.984375 8.011719 C 6.558594 8.011719 6.910156 7.636719 7.183594 7.136719 C 7.433594 6.5625 7.660156 5.585938 7.660156 5.5625 C 7.660156 5.386719 7.507812 5.386719 7.460938 5.386719 C 7.308594 5.386719 7.285156 5.460938 7.234375 5.6875 C 6.960938 6.710938 6.683594 7.660156 6.035156 7.660156 C 5.585938 7.660156 5.558594 7.234375 5.558594 6.9375 C 5.558594 6.585938 5.585938 6.4375 5.757812 5.734375 C 5.933594 5.085938 5.960938 4.910156 6.109375 4.3125 L 6.683594 2.085938 C 6.785156 1.636719 6.785156 1.609375 6.785156 1.535156 C 6.785156 1.261719 6.609375 1.109375 6.335938 1.109375 C 5.933594 1.109375 5.710938 1.460938 5.660156 1.8125 Z M 4.632812 5.9375 C 4.535156 6.234375 4.535156 6.261719 4.308594 6.535156 C 3.609375 7.410156 2.960938 7.660156 2.507812 7.660156 C 1.710938 7.660156 1.484375 6.785156 1.484375 6.160156 C 1.484375 5.359375 1.984375 3.410156 2.359375 2.660156 C 2.859375 1.734375 3.558594 1.136719 4.210938 1.136719 C 5.234375 1.136719 5.460938 2.4375 5.460938 2.535156 C 5.460938 2.636719 5.433594 2.734375 5.410156 2.8125 Z M 4.632812 5.9375 "/>
</g>
<clipPath id="clip5">
  <path d="M 79 122 L 86 122 L 86 129.777344 L 79 129.777344 Z M 79 122 "/>
</clipPath>
<clipPath id="clip6">
  <rect width="9" height="11"/>
</clipPath>
<g id="surface20" clip-path="url(#clip6)">
<rect x="0" y="0" width="9" height="11" style="fill:rgb(0%,0%,0%);fill-opacity:0.25;stroke:none;"/>
</g>
<mask id="mask2">
  <g filter="url(#alpha)">
<use xlink:href="#surface20"/>
  </g>
</mask>
<clipPath id="clip7">
  <rect width="9" height="11"/>
</clipPath>
<g id="surface22" clip-path="url(#clip7)">
<path style=" stroke:none;fill-rule:nonzero;fill:rgb(0%,0%,0%);fill-opacity:1;" d="M 0.796875 3.160156 C 1.421875 1.335938 3.171875 1.3125 3.347656 1.3125 C 5.746094 1.3125 5.921875 4.109375 5.921875 5.359375 C 5.921875 6.335938 5.847656 6.609375 5.722656 6.9375 C 5.371094 8.085938 4.898438 9.9375 4.898438 10.359375 C 4.898438 10.535156 4.972656 10.636719 5.097656 10.636719 C 5.320312 10.636719 5.445312 10.285156 5.621094 9.6875 C 5.996094 8.335938 6.148438 7.4375 6.195312 6.9375 C 6.246094 6.734375 6.273438 6.535156 6.347656 6.3125 C 6.847656 4.734375 7.871094 2.359375 8.496094 1.109375 C 8.621094 0.910156 8.796875 0.5625 8.796875 0.484375 C 8.796875 0.335938 8.648438 0.335938 8.621094 0.335938 C 8.570312 0.335938 8.472656 0.335938 8.421875 0.4375 C 7.597656 1.960938 6.945312 3.5625 6.320312 5.160156 C 6.296875 4.6875 6.296875 3.460938 5.671875 1.910156 C 5.273438 0.9375 4.648438 0.160156 3.546875 0.160156 C 1.546875 0.160156 0.421875 2.585938 0.421875 3.085938 C 0.421875 3.234375 0.570312 3.234375 0.746094 3.234375 Z M 0.796875 3.160156 "/>
</g>
<clipPath id="clip8">
  <rect width="10" height="15"/>
</clipPath>
<g id="surface26" clip-path="url(#clip8)">
<rect x="0" y="0" width="10" height="15" style="fill:rgb(0%,0%,0%);fill-opacity:0.25;stroke:none;"/>
</g>
<mask id="mask3">
  <g filter="url(#alpha)">
<use xlink:href="#surface26"/>
  </g>
</mask>
<clipPath id="clip9">
  <rect width="10" height="15"/>
</clipPath>
<g id="surface28" clip-path="url(#clip9)">
<path style=" stroke:none;fill-rule:nonzero;fill:rgb(0%,0%,0%);fill-opacity:1;" d="M 9.558594 2.796875 C 9.558594 1.597656 8.683594 0.625 7.382812 0.625 C 6.460938 0.625 6.007812 0.875 5.460938 1.273438 C 4.585938 1.921875 3.710938 3.472656 3.410156 4.671875 L 0.859375 14.796875 C 0.859375 14.875 0.933594 14.972656 1.058594 14.972656 C 1.183594 14.972656 1.234375 14.921875 1.234375 14.898438 L 2.359375 10.472656 C 2.660156 11.449219 3.359375 12.023438 4.535156 12.023438 C 5.683594 12.023438 6.882812 11.472656 7.609375 10.773438 C 8.382812 10.046875 8.882812 9.023438 8.882812 7.847656 C 8.882812 6.699219 8.285156 5.847656 7.710938 5.472656 C 8.632812 4.921875 9.558594 3.949219 9.558594 2.796875 Z M 6.683594 5.449219 C 6.484375 5.523438 6.308594 5.546875 5.910156 5.546875 C 5.683594 5.546875 5.382812 5.574219 5.210938 5.5 C 5.257812 5.324219 5.835938 5.375 6.007812 5.375 C 6.335938 5.375 6.484375 5.375 6.683594 5.449219 Z M 8.660156 2.421875 C 8.660156 3.546875 8.058594 4.699219 7.234375 5.199219 C 6.785156 5.023438 6.484375 5 6.007812 5 C 5.660156 5 4.757812 4.972656 4.757812 5.5 C 4.757812 5.949219 5.585938 5.898438 5.859375 5.898438 C 6.460938 5.898438 6.710938 5.898438 7.183594 5.699219 C 7.785156 6.273438 7.859375 6.773438 7.882812 7.5 C 7.910156 8.421875 7.535156 9.625 7.085938 10.25 C 6.460938 11.097656 5.382812 11.671875 4.484375 11.671875 C 3.257812 11.671875 2.660156 10.75 2.660156 9.625 C 2.660156 9.472656 2.660156 9.222656 2.734375 8.921875 L 3.757812 4.898438 C 4.109375 3.523438 5.257812 0.972656 7.183594 0.972656 C 8.109375 0.972656 8.660156 1.472656 8.660156 2.421875 Z M 8.660156 2.421875 "/>
</g>
<clipPath id="clip10">
  <rect width="13" height="28"/>
</clipPath>
<g id="surface32" clip-path="url(#clip10)">
<rect x="0" y="0" width="13" height="28" style="fill:rgb(0%,0%,0%);fill-opacity:0.25;stroke:none;"/>
</g>
<mask id="mask4">
  <g filter="url(#alpha)">
<use xlink:href="#surface32"/>
  </g>
</mask>
<clipPath id="clip11">
  <rect width="13" height="28"/>
</clipPath>
<g id="surface34" clip-path="url(#clip11)">
<path style="fill:none;stroke-width:1.6;stroke-linecap:round;stroke-linejoin:round;stroke:rgb(100%,0%,0%);stroke-opacity:1;stroke-miterlimit:4;" d="M -139.84375 89.960938 C -135.066406 96.132812 -132.050781 103.484375 -131.117188 111.234375 " transform="matrix(-1,0,0,1,-129,-87)"/>
<path style="fill-rule:evenodd;fill:rgb(100%,0%,0%);fill-opacity:1;stroke-width:0.316344;stroke-linecap:butt;stroke-linejoin:miter;stroke:rgb(100%,0%,0%);stroke-opacity:1;stroke-miterlimit:4;" d="M -9.89841 131.008223 L -8.634829 129.74384 L -13.062837 131.008694 L -8.634027 132.271804 Z M -9.89841 131.008223 " transform="matrix(-0.773836,1,1,0.773836,-129,-87)"/>
<path style="fill-rule:evenodd;fill:rgb(100%,0%,0%);fill-opacity:1;stroke-width:0.397133;stroke-linecap:butt;stroke-linejoin:miter;stroke:rgb(100%,0%,0%);stroke-opacity:1;stroke-miterlimit:4;" d="M -92.181278 -142.44407 L -90.595308 -144.034407 L -96.153738 -142.445696 L -90.595254 -140.854713 Z M -92.181278 -142.44407 " transform="matrix(0.120376,-1,-1,-0.120376,-129,-87)"/>
</g>
<clipPath id="clip12">
  <rect width="31" height="10"/>
</clipPath>
<g id="surface38" clip-path="url(#clip12)">
<rect x="0" y="0" width="31" height="10" style="fill:rgb(0%,0%,0%);fill-opacity:0.25;stroke:none;"/>
</g>
<mask id="mask5">
  <g filter="url(#alpha)">
<use xlink:href="#surface38"/>
  </g>
</mask>
<clipPath id="clip13">
  <rect width="31" height="10"/>
</clipPath>
<g id="surface40" clip-path="url(#clip13)">
<path style="fill:none;stroke-width:1.6;stroke-linecap:round;stroke-linejoin:round;stroke:rgb(100%,0%,0%);stroke-opacity:1;stroke-miterlimit:4;" d="M 28.886719 46.078125 C 31.417969 54.925781 29.574219 64.453125 23.917969 71.710938 " transform="matrix(0,1,1,0,-43,-22)"/>
<path style="fill-rule:evenodd;fill:rgb(100%,0%,0%);fill-opacity:1;stroke-width:0.384534;stroke-linecap:butt;stroke-linejoin:miter;stroke:rgb(100%,0%,0%);stroke-opacity:1;stroke-miterlimit:4;" d="M 52.074618 -14.496663 L 53.612301 -16.032738 L 48.230743 -14.496225 L 53.614303 -12.957946 Z M 52.074618 -14.496663 " transform="matrix(1,0.286462,0.286462,-1,-43,-22)"/>
<path style="fill-rule:evenodd;fill:rgb(100%,0%,0%);fill-opacity:1;stroke-width:0.315522;stroke-linecap:butt;stroke-linejoin:miter;stroke:rgb(100%,0%,0%);stroke-opacity:1;stroke-miterlimit:4;" d="M -31.508286 49.649165 L -30.247095 48.385185 L -34.665294 49.648193 L -30.248631 50.909819 Z M -31.508286 49.649165 " transform="matrix(-1,0.779208,0.779208,1,-43,-22)"/>
</g>
<clipPath id="clip14">
  <path d="M 403 0 L 578.414062 0 L 578.414062 118 L 403 118 Z M 403 0 "/>
</clipPath>
<clipPath id="clip15">
  <rect width="21" height="30"/>
</clipPath>
<g id="surface44" clip-path="url(#clip15)">
<rect x="0" y="0" width="21" height="30" style="fill:rgb(0%,0%,0%);fill-opacity:0.25;stroke:none;"/>
</g>
<mask id="mask6">
  <g filter="url(#alpha)">
<use xlink:href="#surface44"/>
  </g>
</mask>
<clipPath id="clip16">
  <rect width="21" height="30"/>
</clipPath>
<g id="surface46" clip-path="url(#clip16)">
<path style="fill:none;stroke-width:1.6;stroke-linecap:round;stroke-linejoin:round;stroke:rgb(100%,0%,0%);stroke-opacity:1;stroke-miterlimit:4;" d="M 422.804688 87.441406 C 431.902344 92.742188 437.992188 102 439.25 112.457031 " transform="matrix(1,0,0,1,-420,-86)"/>
<path style="fill-rule:evenodd;fill:rgb(100%,0%,0%);fill-opacity:1;stroke-width:0.345626;stroke-linecap:butt;stroke-linejoin:miter;stroke:rgb(100%,0%,0%);stroke-opacity:1;stroke-miterlimit:4;" d="M 355.360892 -118.618121 L 356.742635 -120.001216 L 351.904844 -118.616433 L 356.74107 -117.234679 Z M 355.360892 -118.618121 " transform="matrix(1,0.582575,-0.582575,1,-420,-86)"/>
<path style="fill-rule:evenodd;fill:rgb(100%,0%,0%);fill-opacity:1;stroke-width:0.397133;stroke-linecap:butt;stroke-linejoin:miter;stroke:rgb(100%,0%,0%);stroke-opacity:1;stroke-miterlimit:4;" d="M -161.064313 419.631254 L -159.474956 418.04523 L -165.037237 419.633478 L -159.474439 421.221074 Z M -161.064313 419.631254 " transform="matrix(-0.120376,-1,1,-0.120376,-420,-86)"/>
</g>
<clipPath id="clip17">
  <path d="M 482 122 L 490 122 L 490 129.777344 L 482 129.777344 Z M 482 122 "/>
</clipPath>
<clipPath id="clip19">
  <path d="M 0 0 L 8 0 L 8 7.777344 L 0 7.777344 Z M 0 0 "/>
</clipPath>
<clipPath id="clip18">
  <rect width="8" height="8"/>
</clipPath>
<g id="surface50" clip-path="url(#clip18)">
<g clip-path="url(#clip19)" clip-rule="nonzero">
<rect x="0" y="0" width="8" height="8" style="fill:rgb(0%,0%,0%);fill-opacity:0.25;stroke:none;"/>
</g>
</g>
<mask id="mask7">
  <g filter="url(#alpha)">
<use xlink:href="#surface50"/>
  </g>
</mask>
<clipPath id="clip21">
  <path d="M 0 0 L 8 0 L 8 7.777344 L 0 7.777344 Z M 0 0 "/>
</clipPath>
<clipPath id="clip20">
  <rect width="8" height="8"/>
</clipPath>
<g id="surface52" clip-path="url(#clip20)">
<g clip-path="url(#clip21)" clip-rule="nonzero">
<path style=" stroke:none;fill-rule:nonzero;fill:rgb(0%,0%,0%);fill-opacity:1;" d="M 6.585938 1.386719 C 6.308594 1.386719 6.109375 1.386719 5.882812 1.585938 C 5.609375 1.835938 5.585938 2.109375 5.585938 2.210938 C 5.585938 2.609375 5.882812 2.785156 6.183594 2.785156 C 6.632812 2.785156 7.058594 2.386719 7.058594 1.761719 C 7.058594 0.984375 6.308594 0.386719 5.183594 0.386719 C 3.035156 0.386719 0.910156 2.660156 0.910156 4.910156 C 0.910156 6.359375 1.835938 7.609375 3.507812 7.609375 C 5.785156 7.609375 7.109375 5.910156 7.109375 5.734375 C 7.109375 5.636719 7.035156 5.511719 6.933594 5.511719 C 6.835938 5.511719 6.808594 5.5625 6.710938 5.6875 C 5.460938 7.261719 3.710938 7.261719 3.535156 7.261719 C 2.535156 7.261719 2.085938 6.484375 2.085938 5.511719 C 2.085938 4.859375 2.410156 3.3125 2.960938 2.335938 C 3.460938 1.410156 4.335938 0.734375 5.210938 0.734375 C 5.734375 0.734375 6.359375 0.9375 6.585938 1.386719 Z M 6.585938 1.386719 "/>
</g>
</g>
<clipPath id="clip22">
  <rect width="10" height="8"/>
</clipPath>
<g id="surface56" clip-path="url(#clip22)">
<rect x="0" y="0" width="10" height="8" style="fill:rgb(0%,0%,0%);fill-opacity:0.25;stroke:none;"/>
</g>
<mask id="mask8">
  <g filter="url(#alpha)">
<use xlink:href="#surface56"/>
  </g>
</mask>
<clipPath id="clip23">
  <rect width="10" height="8"/>
</clipPath>
<g id="surface58" clip-path="url(#clip23)">
<path style=" stroke:none;fill-rule:nonzero;fill:rgb(0%,0%,0%);fill-opacity:1;" d="M 7.085938 3.460938 C 7.085938 0.960938 5.609375 0.1875 4.433594 0.1875 C 2.234375 0.1875 0.132812 2.460938 0.132812 4.710938 C 0.132812 6.210938 1.085938 7.410156 2.734375 7.410156 C 3.734375 7.410156 4.882812 7.035156 6.085938 6.0625 C 6.285156 6.910156 6.808594 7.410156 7.535156 7.410156 C 8.382812 7.410156 8.882812 6.535156 8.882812 6.285156 C 8.882812 6.160156 8.785156 6.109375 8.683594 6.109375 C 8.585938 6.109375 8.535156 6.160156 8.484375 6.285156 C 8.183594 7.0625 7.609375 7.0625 7.585938 7.0625 C 7.085938 7.0625 7.085938 5.8125 7.085938 5.4375 C 7.085938 5.109375 7.085938 5.0625 7.257812 4.886719 C 8.757812 2.984375 9.085938 1.136719 9.085938 1.136719 C 9.085938 1.085938 9.058594 0.960938 8.882812 0.960938 C 8.734375 0.960938 8.734375 1.011719 8.660156 1.3125 C 8.359375 2.3125 7.835938 3.511719 7.085938 4.460938 Z M 6.035156 5.660156 C 4.609375 6.886719 3.382812 7.0625 2.757812 7.0625 C 1.808594 7.0625 1.308594 6.335938 1.308594 5.3125 C 1.308594 4.535156 1.734375 2.8125 2.234375 2.011719 C 2.984375 0.835938 3.859375 0.535156 4.410156 0.535156 C 5.984375 0.535156 5.984375 2.636719 5.984375 3.859375 C 5.984375 4.460938 5.984375 5.386719 6.035156 5.660156 Z M 6.035156 5.660156 "/>
</g>
<clipPath id="clip24">
  <rect width="9" height="15"/>
</clipPath>
<g id="surface62" clip-path="url(#clip24)">
<rect x="0" y="0" width="9" height="15" style="fill:rgb(0%,0%,0%);fill-opacity:0.25;stroke:none;"/>
</g>
<mask id="mask9">
  <g filter="url(#alpha)">
<use xlink:href="#surface62"/>
  </g>
</mask>
<clipPath id="clip25">
  <rect width="9" height="15"/>
</clipPath>
<g id="surface64" clip-path="url(#clip25)">
<path style=" stroke:none;fill-rule:nonzero;fill:rgb(0%,0%,0%);fill-opacity:1;" d="M 8.757812 2.796875 C 8.757812 1.597656 7.882812 0.625 6.585938 0.625 C 5.660156 0.625 5.210938 0.875 4.660156 1.273438 C 3.785156 1.921875 2.910156 3.472656 2.609375 4.671875 L 0.0585938 14.796875 C 0.0585938 14.875 0.132812 14.972656 0.257812 14.972656 C 0.382812 14.972656 0.433594 14.921875 0.433594 14.898438 L 1.558594 10.472656 C 1.859375 11.449219 2.558594 12.023438 3.734375 12.023438 C 4.882812 12.023438 6.085938 11.472656 6.808594 10.773438 C 7.585938 10.046875 8.085938 9.023438 8.085938 7.847656 C 8.085938 6.699219 7.484375 5.847656 6.910156 5.472656 C 7.835938 4.921875 8.757812 3.949219 8.757812 2.796875 Z M 5.882812 5.449219 C 5.683594 5.523438 5.507812 5.546875 5.109375 5.546875 C 4.882812 5.546875 4.585938 5.574219 4.410156 5.5 C 4.460938 5.324219 5.035156 5.375 5.210938 5.375 C 5.535156 5.375 5.683594 5.375 5.882812 5.449219 Z M 7.859375 2.421875 C 7.859375 3.546875 7.257812 4.699219 6.433594 5.199219 C 5.984375 5.023438 5.683594 5 5.210938 5 C 4.859375 5 3.960938 4.972656 3.960938 5.5 C 3.960938 5.949219 4.785156 5.898438 5.058594 5.898438 C 5.660156 5.898438 5.910156 5.898438 6.382812 5.699219 C 6.984375 6.273438 7.058594 6.773438 7.085938 7.5 C 7.109375 8.421875 6.734375 9.625 6.285156 10.25 C 5.660156 11.097656 4.585938 11.671875 3.683594 11.671875 C 2.460938 11.671875 1.859375 10.75 1.859375 9.625 C 1.859375 9.472656 1.859375 9.222656 1.933594 8.921875 L 2.960938 4.898438 C 3.308594 3.523438 4.460938 0.972656 6.382812 0.972656 C 7.308594 0.972656 7.859375 1.472656 7.859375 2.421875 Z M 7.859375 2.421875 "/>
</g>
<clipPath id="clip26">
  <rect width="13" height="28"/>
</clipPath>
<g id="surface68" clip-path="url(#clip26)">
<rect x="0" y="0" width="13" height="28" style="fill:rgb(0%,0%,0%);fill-opacity:0.25;stroke:none;"/>
</g>
<mask id="mask10">
  <g filter="url(#alpha)">
<use xlink:href="#surface68"/>
  </g>
</mask>
<clipPath id="clip27">
  <rect width="13" height="28"/>
</clipPath>
<g id="surface70" clip-path="url(#clip27)">
<path style="fill:none;stroke-width:1.6;stroke-linecap:round;stroke-linejoin:round;stroke:rgb(100%,0%,0%);stroke-opacity:1;stroke-miterlimit:4;" d="M -543.042969 89.960938 C -538.265625 96.132812 -535.25 103.484375 -534.320312 111.234375 " transform="matrix(-1,0,0,1,-532,-87)"/>
<path style="fill-rule:evenodd;fill:rgb(100%,0%,0%);fill-opacity:1;stroke-width:0.316344;stroke-linecap:butt;stroke-linejoin:miter;stroke:rgb(100%,0%,0%);stroke-opacity:1;stroke-miterlimit:4;" d="M -205.048365 383.193381 L -203.784783 381.928998 L -208.212792 383.193852 L -203.785872 384.459406 Z M -205.048365 383.193381 " transform="matrix(-0.773836,1,1,0.773836,-532,-87)"/>
<path style="fill-rule:evenodd;fill:rgb(100%,0%,0%);fill-opacity:1;stroke-width:0.397133;stroke-linecap:butt;stroke-linejoin:miter;stroke:rgb(100%,0%,0%);stroke-opacity:1;stroke-miterlimit:4;" d="M -44.339021 -539.884229 L -42.753051 -541.474566 L -48.311482 -539.885855 L -42.752534 -538.298723 Z M -44.339021 -539.884229 " transform="matrix(0.120376,-1,-1,-0.120376,-532,-87)"/>
</g>
<clipPath id="clip28">
  <rect width="32" height="10"/>
</clipPath>
<g id="surface74" clip-path="url(#clip28)">
<rect x="0" y="0" width="32" height="10" style="fill:rgb(0%,0%,0%);fill-opacity:0.97;stroke:none;"/>
</g>
<mask id="mask11">
  <g filter="url(#alpha)">
<use xlink:href="#surface74"/>
  </g>
</mask>
<clipPath id="clip29">
  <rect width="32" height="10"/>
</clipPath>
<g id="surface76" clip-path="url(#clip29)">
<path style="fill:none;stroke-width:1.6;stroke-linecap:round;stroke-linejoin:round;stroke:rgb(100%,0%,0%);stroke-opacity:1;stroke-miterlimit:4;" d="M 28.886719 449.277344 C 31.417969 458.125 29.574219 467.652344 23.917969 474.910156 " transform="matrix(0,1,1,0,-446,-22)"/>
<path style="fill-rule:evenodd;fill:rgb(100%,0%,0%);fill-opacity:1;stroke-width:0.384534;stroke-linecap:butt;stroke-linejoin:miter;stroke:rgb(100%,0%,0%);stroke-opacity:1;stroke-miterlimit:4;" d="M 424.699932 92.246329 L 426.237615 90.710255 L 420.852446 92.245734 L 426.236007 93.784013 Z M 424.699932 92.246329 " transform="matrix(1,0.286462,0.286462,-1,-446,-22)"/>
<path style="fill-rule:evenodd;fill:rgb(100%,0%,0%);fill-opacity:1;stroke-width:0.315522;stroke-linecap:butt;stroke-linejoin:miter;stroke:rgb(100%,0%,0%);stroke-opacity:1;stroke-miterlimit:4;" d="M -282.384327 245.133783 L -281.125567 243.871697 L -285.541334 245.132811 L -281.124671 246.394437 Z M -282.384327 245.133783 " transform="matrix(-1,0.779208,0.779208,1,-446,-22)"/>
</g>
<clipPath id="clip30">
  <path d="M 430 46 L 578.414062 46 L 578.414062 121 L 430 121 Z M 430 46 "/>
</clipPath>
<clipPath id="clip31">
  <rect width="21" height="30"/>
</clipPath>
<g id="surface80" clip-path="url(#clip31)">
<rect x="0" y="0" width="21" height="30" style="fill:rgb(0%,0%,0%);fill-opacity:0.25;stroke:none;"/>
</g>
<mask id="mask12">
  <g filter="url(#alpha)">
<use xlink:href="#surface80"/>
  </g>
</mask>
<clipPath id="clip32">
  <rect width="21" height="30"/>
</clipPath>
<g id="surface82" clip-path="url(#clip32)">
<path style="fill:none;stroke-width:1.6;stroke-linecap:round;stroke-linejoin:round;stroke:rgb(100%,0%,0%);stroke-opacity:1;stroke-miterlimit:4;" d="M 221.609375 87.605469 C 230.707031 92.90625 236.796875 102.167969 238.054688 112.621094 " transform="matrix(1,0,0,1,-219,-86)"/>
<path style="fill-rule:evenodd;fill:rgb(100%,0%,0%);fill-opacity:1;stroke-width:0.345626;stroke-linecap:butt;stroke-linejoin:miter;stroke:rgb(100%,0%,0%);stroke-opacity:1;stroke-miterlimit:4;" d="M 205.220221 -30.981951 L 206.601965 -32.365046 L 201.762474 -30.98318 L 206.600399 -29.598509 Z M 205.220221 -30.981951 " transform="matrix(1,0.582575,-0.582575,1,-219,-86)"/>
<path style="fill-rule:evenodd;fill:rgb(100%,0%,0%);fill-opacity:1;stroke-width:0.397133;stroke-linecap:butt;stroke-linejoin:miter;stroke:rgb(100%,0%,0%);stroke-opacity:1;stroke-miterlimit:4;" d="M -137.352876 221.290229 L -135.76737 219.703742 L -141.3258 221.292453 L -135.766853 222.879586 Z M -137.352876 221.290229 " transform="matrix(-0.120376,-1,1,-0.120376,-219,-86)"/>
</g>
<clipPath id="clip33">
  <rect width="7" height="13"/>
</clipPath>
<g id="surface86" clip-path="url(#clip33)">
<rect x="0" y="0" width="7" height="13" style="fill:rgb(0%,0%,0%);fill-opacity:0.25;stroke:none;"/>
</g>
<mask id="mask13">
  <g filter="url(#alpha)">
<use xlink:href="#surface86"/>
  </g>
</mask>
<clipPath id="clip34">
  <rect width="7" height="13"/>
</clipPath>
<g id="surface88" clip-path="url(#clip34)">
<path style=" stroke:none;fill-rule:nonzero;fill:rgb(0%,0%,0%);fill-opacity:1;" d="M 3.527344 1.113281 C 3.527344 1.113281 3.527344 0.9375 3.324219 0.9375 C 2.976562 0.9375 1.800781 1.0625 1.375 1.113281 C 1.25 1.113281 1.074219 1.140625 1.074219 1.414062 C 1.074219 1.613281 1.226562 1.613281 1.476562 1.613281 C 2.226562 1.613281 2.25 1.714844 2.25 1.890625 C 2.25 1.988281 2.125 2.539062 2.050781 2.863281 L 0.726562 8.0625 C 0.550781 8.863281 0.476562 9.140625 0.476562 9.6875 C 0.476562 11.1875 1.324219 12.1875 2.5 12.1875 C 4.375 12.1875 6.351562 9.8125 6.351562 7.515625 C 6.351562 6.0625 5.5 4.964844 4.226562 4.964844 C 3.5 4.964844 2.824219 5.4375 2.351562 5.914062 Z M 2.050781 7.140625 C 2.125 6.789062 2.125 6.765625 2.277344 6.589844 C 3.050781 5.5625 3.777344 5.3125 4.199219 5.3125 C 4.777344 5.3125 5.199219 5.789062 5.199219 6.8125 C 5.199219 7.765625 4.675781 9.589844 4.375 10.1875 C 3.851562 11.265625 3.125 11.839844 2.5 11.839844 C 1.949219 11.839844 1.425781 11.414062 1.425781 10.238281 C 1.425781 9.914062 1.425781 9.613281 1.675781 8.613281 Z M 2.050781 7.140625 "/>
</g>
<clipPath id="clip35">
  <path d="M 281 122 L 288 122 L 288 129.777344 L 281 129.777344 Z M 281 122 "/>
</clipPath>
<clipPath id="clip36">
  <rect width="10" height="8"/>
</clipPath>
<g id="surface92" clip-path="url(#clip36)">
<rect x="0" y="0" width="10" height="8" style="fill:rgb(0%,0%,0%);fill-opacity:0.25;stroke:none;"/>
</g>
<mask id="mask14">
  <g filter="url(#alpha)">
<use xlink:href="#surface92"/>
  </g>
</mask>
<clipPath id="clip37">
  <rect width="10" height="8"/>
</clipPath>
<g id="surface94" clip-path="url(#clip37)">
<path style=" stroke:none;fill-rule:nonzero;fill:rgb(0%,0%,0%);fill-opacity:1;" d="M 7.886719 3.625 C 7.886719 1.125 6.414062 0.351562 5.238281 0.351562 C 3.039062 0.351562 0.9375 2.625 0.9375 4.875 C 0.9375 6.375 1.886719 7.578125 3.539062 7.578125 C 4.539062 7.578125 5.6875 7.203125 6.886719 6.226562 C 7.089844 7.078125 7.613281 7.578125 8.339844 7.578125 C 9.1875 7.578125 9.6875 6.703125 9.6875 6.453125 C 9.6875 6.328125 9.589844 6.277344 9.488281 6.277344 C 9.386719 6.277344 9.339844 6.328125 9.289062 6.453125 C 8.988281 7.226562 8.414062 7.226562 8.386719 7.226562 C 7.886719 7.226562 7.886719 5.976562 7.886719 5.601562 C 7.886719 5.277344 7.886719 5.226562 8.0625 5.050781 C 9.5625 3.152344 9.886719 1.300781 9.886719 1.300781 C 9.886719 1.25 9.863281 1.125 9.6875 1.125 C 9.539062 1.125 9.539062 1.175781 9.464844 1.476562 C 9.164062 2.476562 8.636719 3.675781 7.886719 4.625 Z M 6.839844 5.828125 C 5.414062 7.050781 4.1875 7.226562 3.5625 7.226562 C 2.613281 7.226562 2.113281 6.5 2.113281 5.476562 C 2.113281 4.703125 2.539062 2.976562 3.039062 2.175781 C 3.789062 1 4.664062 0.703125 5.214844 0.703125 C 6.789062 0.703125 6.789062 2.800781 6.789062 4.027344 C 6.789062 4.625 6.789062 5.550781 6.839844 5.828125 Z M 6.839844 5.828125 "/>
</g>
<clipPath id="clip38">
  <rect width="9" height="11"/>
</clipPath>
<g id="surface98" clip-path="url(#clip38)">
<rect x="0" y="0" width="9" height="11" style="fill:rgb(0%,0%,0%);fill-opacity:0.25;stroke:none;"/>
</g>
<mask id="mask15">
  <g filter="url(#alpha)">
<use xlink:href="#surface98"/>
  </g>
</mask>
<clipPath id="clip39">
  <rect width="9" height="11"/>
</clipPath>
<g id="surface100" clip-path="url(#clip39)">
<path style=" stroke:none;fill-rule:nonzero;fill:rgb(0%,0%,0%);fill-opacity:1;" d="M 0.800781 3.328125 C 1.425781 1.5 3.175781 1.476562 3.351562 1.476562 C 5.75 1.476562 5.925781 4.277344 5.925781 5.527344 C 5.925781 6.5 5.851562 6.777344 5.726562 7.101562 C 5.375 8.25 4.902344 10.101562 4.902344 10.527344 C 4.902344 10.703125 4.976562 10.800781 5.101562 10.800781 C 5.324219 10.800781 5.449219 10.453125 5.625 9.851562 C 6 8.5 6.152344 7.601562 6.199219 7.101562 C 6.25 6.902344 6.277344 6.703125 6.351562 6.476562 C 6.851562 4.902344 7.875 2.527344 8.5 1.277344 C 8.625 1.078125 8.800781 0.726562 8.800781 0.652344 C 8.800781 0.5 8.652344 0.5 8.625 0.5 C 8.574219 0.5 8.476562 0.5 8.425781 0.601562 C 7.601562 2.125 6.949219 3.726562 6.324219 5.328125 C 6.300781 4.851562 6.300781 3.625 5.675781 2.078125 C 5.277344 1.101562 4.652344 0.328125 3.550781 0.328125 C 1.550781 0.328125 0.425781 2.75 0.425781 3.25 C 0.425781 3.402344 0.574219 3.402344 0.75 3.402344 Z M 0.800781 3.328125 "/>
</g>
<clipPath id="clip40">
  <rect width="13" height="28"/>
</clipPath>
<g id="surface104" clip-path="url(#clip40)">
<rect x="0" y="0" width="13" height="28" style="fill:rgb(0%,0%,0%);fill-opacity:0.97;stroke:none;"/>
</g>
<mask id="mask16">
  <g filter="url(#alpha)">
<use xlink:href="#surface104"/>
  </g>
</mask>
<clipPath id="clip41">
  <rect width="13" height="28"/>
</clipPath>
<g id="surface106" clip-path="url(#clip41)">
<path style="fill:none;stroke-width:1.6;stroke-linecap:round;stroke-linejoin:round;stroke:rgb(100%,0%,0%);stroke-opacity:1;stroke-miterlimit:4;" d="M -341.847656 90.125 C -337.070312 96.300781 -334.054688 103.652344 -333.125 111.402344 " transform="matrix(-1,0,0,1,-331,-87)"/>
<path style="fill-rule:evenodd;fill:rgb(100%,0%,0%);fill-opacity:1;stroke-width:0.316344;stroke-linecap:butt;stroke-linejoin:miter;stroke:rgb(100%,0%,0%);stroke-opacity:1;stroke-miterlimit:4;" d="M -107.566454 257.43308 L -106.302873 256.168698 L -110.730881 257.433552 L -106.301519 258.700996 Z M -107.566454 257.43308 " transform="matrix(-0.773836,1,1,0.773836,-331,-87)"/>
<path style="fill-rule:evenodd;fill:rgb(100%,0%,0%);fill-opacity:1;stroke-width:0.397133;stroke-linecap:butt;stroke-linejoin:miter;stroke:rgb(100%,0%,0%);stroke-opacity:1;stroke-miterlimit:4;" d="M -68.377746 -341.582602 L -66.787926 -343.172476 L -72.346356 -341.583765 L -66.787409 -339.996632 Z M -68.377746 -341.582602 " transform="matrix(0.120376,-1,-1,-0.120376,-331,-87)"/>
</g>
<clipPath id="clip42">
  <rect width="31" height="11"/>
</clipPath>
<g id="surface110" clip-path="url(#clip42)">
<rect x="0" y="0" width="31" height="11" style="fill:rgb(0%,0%,0%);fill-opacity:0.25;stroke:none;"/>
</g>
<mask id="mask17">
  <g filter="url(#alpha)">
<use xlink:href="#surface110"/>
  </g>
</mask>
<clipPath id="clip43">
  <rect width="31" height="11"/>
</clipPath>
<g id="surface107" clip-path="url(#clip43)">
<path style="fill:none;stroke-width:1.6;stroke-linecap:round;stroke-linejoin:round;stroke:rgb(100%,0%,0%);stroke-opacity:1;stroke-miterlimit:4;" d="M 29.050781 248.082031 C 31.585938 256.929688 29.738281 266.457031 24.082031 273.714844 " transform="matrix(0,1,1,0,-245,-22)"/>
<path style="fill-rule:evenodd;fill:rgb(100%,0%,0%);fill-opacity:1;stroke-width:0.384534;stroke-linecap:butt;stroke-linejoin:miter;stroke:rgb(100%,0%,0%);stroke-opacity:1;stroke-miterlimit:4;" d="M 238.80615 38.830762 L 240.344867 37.291078 L 234.958664 38.830166 L 240.342224 40.368446 Z M 238.80615 38.830762 " transform="matrix(1,0.286462,0.286462,-1,-245,-22)"/>
<path style="fill-rule:evenodd;fill:rgb(100%,0%,0%);fill-opacity:1;stroke-width:0.315522;stroke-linecap:butt;stroke-linejoin:miter;stroke:rgb(100%,0%,0%);stroke-opacity:1;stroke-miterlimit:4;" d="M -157.118322 147.689572 L -155.857668 146.429917 L -160.273436 147.691031 L -155.856773 148.952657 Z M -157.118322 147.689572 " transform="matrix(-1,0.779208,0.779208,1,-245,-22)"/>
</g>
</defs>
<g id="surface1">
<path style="fill:none;stroke-width:0.8;stroke-linecap:butt;stroke-linejoin:miter;stroke:rgb(100%,0%,0%);stroke-opacity:1;stroke-miterlimit:4;" d="M 54.007812 111.597656 L 58.808594 111.597656 L 58.808594 116.398438 "/>
<path style="fill:none;stroke-width:0.8;stroke-linecap:butt;stroke-linejoin:miter;stroke:rgb(0%,0%,0%);stroke-opacity:1;stroke-dasharray:0.8,1.6;stroke-miterlimit:4;" d="M 54.007812 1.199219 L 54.007812 116.398438 "/>
<path style="fill:none;stroke-width:2.4;stroke-linecap:butt;stroke-linejoin:round;stroke:rgb(0%,0%,0%);stroke-opacity:1;stroke-miterlimit:4;" d="M 1.210938 116.398438 L 174.007812 116.398438 L 54.007812 1.199219 Z M 1.210938 116.398438 "/>
<use xlink:href="#surface10" transform="matrix(1,0,0,1,17,86)" mask="url(#mask0)"/>
<use xlink:href="#surface16" transform="matrix(1,0,0,1,122,40)" mask="url(#mask1)"/>
<path style=" stroke:none;fill-rule:nonzero;fill:rgb(0%,0%,0%);fill-opacity:1;" d="M 20.523438 38.949219 C 20.523438 38.949219 20.523438 38.773438 20.320312 38.773438 C 19.972656 38.773438 18.796875 38.898438 18.371094 38.949219 C 18.246094 38.949219 18.070312 38.972656 18.070312 39.25 C 18.070312 39.449219 18.222656 39.449219 18.472656 39.449219 C 19.222656 39.449219 19.246094 39.546875 19.246094 39.722656 C 19.246094 39.824219 19.121094 40.375 19.046875 40.699219 L 17.722656 45.898438 C 17.546875 46.699219 17.472656 46.972656 17.472656 47.523438 C 17.472656 49.023438 18.320312 50.023438 19.496094 50.023438 C 21.371094 50.023438 23.347656 47.648438 23.347656 45.347656 C 23.347656 43.898438 22.496094 42.796875 21.222656 42.796875 C 20.496094 42.796875 19.820312 43.273438 19.347656 43.75 Z M 19.046875 44.972656 C 19.121094 44.625 19.121094 44.597656 19.273438 44.421875 C 20.046875 43.398438 20.773438 43.148438 21.195312 43.148438 C 21.773438 43.148438 22.195312 43.625 22.195312 44.648438 C 22.195312 45.597656 21.671875 47.421875 21.371094 48.023438 C 20.847656 49.097656 20.121094 49.671875 19.496094 49.671875 C 18.945312 49.671875 18.421875 49.25 18.421875 48.074219 C 18.421875 47.75 18.421875 47.449219 18.671875 46.449219 Z M 19.046875 44.972656 "/>
<g clip-path="url(#clip5)" clip-rule="nonzero">
<path style=" stroke:none;fill-rule:nonzero;fill:rgb(0%,0%,0%);fill-opacity:1;" d="M 85.382812 123.386719 C 85.109375 123.386719 84.910156 123.386719 84.683594 123.585938 C 84.410156 123.835938 84.382812 124.109375 84.382812 124.210938 C 84.382812 124.609375 84.683594 124.785156 84.984375 124.785156 C 85.433594 124.785156 85.859375 124.386719 85.859375 123.761719 C 85.859375 122.984375 85.109375 122.386719 83.984375 122.386719 C 81.835938 122.386719 79.710938 124.660156 79.710938 126.910156 C 79.710938 128.359375 80.632812 129.609375 82.308594 129.609375 C 84.585938 129.609375 85.910156 127.910156 85.910156 127.734375 C 85.910156 127.636719 85.835938 127.511719 85.734375 127.511719 C 85.632812 127.511719 85.609375 127.5625 85.507812 127.6875 C 84.257812 129.261719 82.507812 129.261719 82.335938 129.261719 C 81.335938 129.261719 80.882812 128.484375 80.882812 127.511719 C 80.882812 126.859375 81.210938 125.3125 81.757812 124.335938 C 82.257812 123.410156 83.132812 122.734375 84.007812 122.734375 C 84.535156 122.734375 85.160156 122.9375 85.382812 123.386719 Z M 85.382812 123.386719 "/>
</g>
<path style=" stroke:none;fill-rule:nonzero;fill:rgb(0%,0%,0%);fill-opacity:1;" d="M 22.882812 106.460938 C 22.882812 103.960938 21.410156 103.1875 20.234375 103.1875 C 18.035156 103.1875 15.933594 105.460938 15.933594 107.710938 C 15.933594 109.210938 16.882812 110.410156 18.535156 110.410156 C 19.535156 110.410156 20.683594 110.035156 21.882812 109.0625 C 22.085938 109.910156 22.609375 110.410156 23.335938 110.410156 C 24.183594 110.410156 24.683594 109.535156 24.683594 109.285156 C 24.683594 109.160156 24.585938 109.109375 24.484375 109.109375 C 24.382812 109.109375 24.335938 109.160156 24.285156 109.285156 C 23.984375 110.0625 23.410156 110.0625 23.382812 110.0625 C 22.882812 110.0625 22.882812 108.8125 22.882812 108.4375 C 22.882812 108.109375 22.882812 108.0625 23.058594 107.886719 C 24.558594 105.984375 24.882812 104.136719 24.882812 104.136719 C 24.882812 104.085938 24.859375 103.960938 24.683594 103.960938 C 24.535156 103.960938 24.535156 104.011719 24.460938 104.3125 C 24.160156 105.3125 23.632812 106.511719 22.882812 107.460938 Z M 21.835938 108.660156 C 20.410156 109.886719 19.183594 110.0625 18.558594 110.0625 C 17.609375 110.0625 17.109375 109.335938 17.109375 108.3125 C 17.109375 107.535156 17.535156 105.8125 18.035156 105.011719 C 18.785156 103.835938 19.660156 103.535156 20.210938 103.535156 C 21.785156 103.535156 21.785156 105.636719 21.785156 106.859375 C 21.785156 107.460938 21.785156 108.386719 21.835938 108.660156 Z M 21.835938 108.660156 "/>
<use xlink:href="#surface22" transform="matrix(1,0,0,1,51,15)" mask="url(#mask2)"/>
<use xlink:href="#surface28" transform="matrix(1,0,0,1,140,99)" mask="url(#mask3)"/>
<use xlink:href="#surface34" transform="matrix(1,0,0,1,129,87)" mask="url(#mask4)"/>
<use xlink:href="#surface40" transform="matrix(1,0,0,1,43,22)" mask="url(#mask5)"/>
<g clip-path="url(#clip14)" clip-rule="nonzero">
<path style="fill:none;stroke-width:2.4;stroke-linecap:butt;stroke-linejoin:round;stroke:rgb(0%,0%,0%);stroke-opacity:1;stroke-miterlimit:4;" d="M 404.410156 116.398438 L 577.210938 116.398438 L 457.210938 1.199219 Z M 404.410156 116.398438 "/>
</g>
<use xlink:href="#surface46" transform="matrix(1,0,0,1,420,86)" mask="url(#mask6)"/>
<path style=" stroke:none;fill-rule:nonzero;fill:rgb(0%,0%,0%);fill-opacity:1;" d="M 530.859375 41.8125 C 530.558594 41.210938 530.109375 40.785156 529.382812 40.785156 C 527.535156 40.785156 525.558594 43.136719 525.558594 45.460938 C 525.558594 46.960938 526.433594 48.011719 527.660156 48.011719 C 527.984375 48.011719 528.785156 47.9375 529.734375 46.8125 C 529.859375 47.484375 530.433594 48.011719 531.183594 48.011719 C 531.757812 48.011719 532.109375 47.636719 532.382812 47.136719 C 532.632812 46.5625 532.859375 45.585938 532.859375 45.5625 C 532.859375 45.386719 532.710938 45.386719 532.660156 45.386719 C 532.507812 45.386719 532.484375 45.460938 532.433594 45.6875 C 532.160156 46.710938 531.882812 47.660156 531.234375 47.660156 C 530.785156 47.660156 530.757812 47.234375 530.757812 46.9375 C 530.757812 46.585938 530.785156 46.4375 530.960938 45.734375 C 531.132812 45.085938 531.160156 44.910156 531.308594 44.3125 L 531.882812 42.085938 C 531.984375 41.636719 531.984375 41.609375 531.984375 41.535156 C 531.984375 41.261719 531.808594 41.109375 531.535156 41.109375 C 531.132812 41.109375 530.910156 41.460938 530.859375 41.8125 Z M 529.835938 45.9375 C 529.734375 46.234375 529.734375 46.261719 529.507812 46.535156 C 528.808594 47.410156 528.160156 47.660156 527.710938 47.660156 C 526.910156 47.660156 526.683594 46.785156 526.683594 46.160156 C 526.683594 45.359375 527.183594 43.410156 527.558594 42.660156 C 528.058594 41.734375 528.757812 41.136719 529.410156 41.136719 C 530.433594 41.136719 530.660156 42.4375 530.660156 42.535156 C 530.660156 42.636719 530.632812 42.734375 530.609375 42.8125 Z M 529.835938 45.9375 "/>
<path style=" stroke:none;fill-rule:nonzero;fill:rgb(0%,0%,0%);fill-opacity:1;" d="M 423.722656 38.949219 C 423.722656 38.949219 423.722656 38.773438 423.523438 38.773438 C 423.171875 38.773438 421.996094 38.898438 421.570312 38.949219 C 421.445312 38.949219 421.273438 38.972656 421.273438 39.25 C 421.273438 39.449219 421.421875 39.449219 421.671875 39.449219 C 422.421875 39.449219 422.445312 39.546875 422.445312 39.722656 C 422.445312 39.824219 422.320312 40.375 422.246094 40.699219 L 420.921875 45.898438 C 420.746094 46.699219 420.671875 46.972656 420.671875 47.523438 C 420.671875 49.023438 421.523438 50.023438 422.695312 50.023438 C 424.570312 50.023438 426.546875 47.648438 426.546875 45.347656 C 426.546875 43.898438 425.695312 42.796875 424.421875 42.796875 C 423.695312 42.796875 423.023438 43.273438 422.546875 43.75 Z M 422.246094 44.972656 C 422.320312 44.625 422.320312 44.597656 422.472656 44.421875 C 423.246094 43.398438 423.972656 43.148438 424.398438 43.148438 C 424.972656 43.148438 425.398438 43.625 425.398438 44.648438 C 425.398438 45.597656 424.871094 47.421875 424.570312 48.023438 C 424.046875 49.097656 423.320312 49.671875 422.695312 49.671875 C 422.148438 49.671875 421.621094 49.25 421.621094 48.074219 C 421.621094 47.75 421.621094 47.449219 421.871094 46.449219 Z M 422.246094 44.972656 "/>
<g clip-path="url(#clip17)" clip-rule="nonzero">
<use xlink:href="#surface52" transform="matrix(1,0,0,1,482,122)" mask="url(#mask7)"/>
</g>
<use xlink:href="#surface58" transform="matrix(1,0,0,1,419,103)" mask="url(#mask8)"/>
<path style=" stroke:none;fill-rule:nonzero;fill:rgb(0%,0%,0%);fill-opacity:1;" d="M 454.996094 18.160156 C 455.621094 16.335938 457.371094 16.3125 457.546875 16.3125 C 459.945312 16.3125 460.121094 19.109375 460.121094 20.359375 C 460.121094 21.335938 460.046875 21.609375 459.921875 21.9375 C 459.570312 23.085938 459.097656 24.9375 459.097656 25.359375 C 459.097656 25.535156 459.171875 25.636719 459.296875 25.636719 C 459.523438 25.636719 459.648438 25.285156 459.820312 24.6875 C 460.195312 23.335938 460.347656 22.4375 460.398438 21.9375 C 460.445312 21.734375 460.472656 21.535156 460.546875 21.3125 C 461.046875 19.734375 462.070312 17.359375 462.695312 16.109375 C 462.820312 15.910156 462.996094 15.5625 462.996094 15.484375 C 462.996094 15.335938 462.847656 15.335938 462.820312 15.335938 C 462.773438 15.335938 462.671875 15.335938 462.621094 15.4375 C 461.796875 16.960938 461.148438 18.5625 460.523438 20.160156 C 460.496094 19.6875 460.496094 18.460938 459.871094 16.910156 C 459.472656 15.9375 458.847656 15.160156 457.746094 15.160156 C 455.746094 15.160156 454.621094 17.585938 454.621094 18.085938 C 454.621094 18.234375 454.773438 18.234375 454.945312 18.234375 Z M 454.996094 18.160156 "/>
<use xlink:href="#surface64" transform="matrix(1,0,0,1,544,99)" mask="url(#mask9)"/>
<use xlink:href="#surface70" transform="matrix(1,0,0,1,532,87)" mask="url(#mask10)"/>
<use xlink:href="#surface76" transform="matrix(1,0,0,1,446,22)" mask="url(#mask11)"/>
<path style="fill:none;stroke-width:0.739176;stroke-linecap:butt;stroke-linejoin:miter;stroke:rgb(100%,0%,0%);stroke-opacity:1;stroke-miterlimit:4;" d="M 383.536952 -122.52506 L 383.535246 -118.090684 L 379.102349 -118.089163 " transform="matrix(1,0.458565,-0.458565,1,0,0)"/>
<g clip-path="url(#clip30)" clip-rule="nonzero">
<path style="fill:none;stroke-width:0.739176;stroke-linecap:butt;stroke-linejoin:miter;stroke:rgb(0%,0%,0%);stroke-opacity:1;stroke-dasharray:0.739176,1.478353;stroke-miterlimit:4;" d="M 521.025067 -122.525422 L 379.102576 -122.526766 " transform="matrix(1,0.458565,-0.458565,1,0,0)"/>
</g>
<path style="fill:none;stroke-width:2.4;stroke-linecap:butt;stroke-linejoin:round;stroke:rgb(0%,0%,0%);stroke-opacity:1;stroke-miterlimit:4;" d="M 203.214844 116.5625 L 376.011719 116.5625 L 256.011719 1.363281 Z M 203.214844 116.5625 "/>
<use xlink:href="#surface82" transform="matrix(1,0,0,1,219,86)" mask="url(#mask12)"/>
<path style=" stroke:none;fill-rule:nonzero;fill:rgb(0%,0%,0%);fill-opacity:1;" d="M 329.664062 41.976562 C 329.363281 41.375 328.914062 40.953125 328.1875 40.953125 C 326.339844 40.953125 324.363281 43.300781 324.363281 45.625 C 324.363281 47.125 325.238281 48.175781 326.464844 48.175781 C 326.789062 48.175781 327.589844 48.101562 328.539062 46.976562 C 328.664062 47.652344 329.238281 48.175781 329.988281 48.175781 C 330.5625 48.175781 330.914062 47.800781 331.1875 47.300781 C 331.4375 46.726562 331.664062 45.75 331.664062 45.726562 C 331.664062 45.550781 331.511719 45.550781 331.464844 45.550781 C 331.3125 45.550781 331.289062 45.625 331.238281 45.851562 C 330.964844 46.875 330.6875 47.828125 330.039062 47.828125 C 329.589844 47.828125 329.5625 47.402344 329.5625 47.101562 C 329.5625 46.75 329.589844 46.601562 329.761719 45.902344 C 329.9375 45.25 329.964844 45.078125 330.113281 44.476562 L 330.6875 42.25 C 330.789062 41.800781 330.789062 41.777344 330.789062 41.703125 C 330.789062 41.425781 330.613281 41.277344 330.339844 41.277344 C 329.9375 41.277344 329.714844 41.625 329.664062 41.976562 Z M 328.636719 46.101562 C 328.539062 46.402344 328.539062 46.425781 328.3125 46.703125 C 327.613281 47.578125 326.964844 47.828125 326.511719 47.828125 C 325.714844 47.828125 325.488281 46.953125 325.488281 46.328125 C 325.488281 45.527344 325.988281 43.578125 326.363281 42.828125 C 326.863281 41.902344 327.5625 41.300781 328.214844 41.300781 C 329.238281 41.300781 329.464844 42.601562 329.464844 42.703125 C 329.464844 42.800781 329.4375 42.902344 329.414062 42.976562 Z M 328.636719 46.101562 "/>
<use xlink:href="#surface88" transform="matrix(1,0,0,1,219,38)" mask="url(#mask13)"/>
<g clip-path="url(#clip35)" clip-rule="nonzero">
<path style=" stroke:none;fill-rule:nonzero;fill:rgb(0%,0%,0%);fill-opacity:1;" d="M 287.386719 123.550781 C 287.113281 123.550781 286.914062 123.550781 286.6875 123.75 C 286.414062 124 286.386719 124.277344 286.386719 124.375 C 286.386719 124.777344 286.6875 124.953125 286.988281 124.953125 C 287.4375 124.953125 287.863281 124.550781 287.863281 123.925781 C 287.863281 123.152344 287.113281 122.550781 285.988281 122.550781 C 283.839844 122.550781 281.714844 124.828125 281.714844 127.078125 C 281.714844 128.527344 282.636719 129.777344 284.3125 129.777344 C 286.589844 129.777344 287.914062 128.078125 287.914062 127.902344 C 287.914062 127.800781 287.839844 127.675781 287.738281 127.675781 C 287.636719 127.675781 287.613281 127.726562 287.511719 127.851562 C 286.261719 129.425781 284.511719 129.425781 284.339844 129.425781 C 283.339844 129.425781 282.886719 128.652344 282.886719 127.675781 C 282.886719 127.027344 283.214844 125.476562 283.761719 124.5 C 284.261719 123.578125 285.136719 122.902344 286.011719 122.902344 C 286.539062 122.902344 287.164062 123.101562 287.386719 123.550781 Z M 287.386719 123.550781 "/>
</g>
<use xlink:href="#surface94" transform="matrix(1,0,0,1,217,103)" mask="url(#mask14)"/>
<use xlink:href="#surface100" transform="matrix(1,0,0,1,253,15)" mask="url(#mask15)"/>
<path style=" stroke:none;fill-rule:nonzero;fill:rgb(0%,0%,0%);fill-opacity:1;" d="M 351.5625 101.964844 C 351.5625 100.765625 350.6875 99.789062 349.386719 99.789062 C 348.464844 99.789062 348.011719 100.039062 347.464844 100.4375 C 346.589844 101.089844 345.714844 102.640625 345.414062 103.839844 L 342.863281 113.964844 C 342.863281 114.039062 342.9375 114.140625 343.0625 114.140625 C 343.1875 114.140625 343.238281 114.089844 343.238281 114.0625 L 344.363281 109.640625 C 344.664062 110.613281 345.363281 111.1875 346.539062 111.1875 C 347.6875 111.1875 348.886719 110.640625 349.613281 109.9375 C 350.386719 109.214844 350.886719 108.1875 350.886719 107.015625 C 350.886719 105.863281 350.289062 105.015625 349.714844 104.640625 C 350.636719 104.089844 351.5625 103.113281 351.5625 101.964844 Z M 348.6875 104.613281 C 348.488281 104.6875 348.3125 104.714844 347.914062 104.714844 C 347.6875 104.714844 347.386719 104.738281 347.214844 104.664062 C 347.261719 104.488281 347.839844 104.539062 348.011719 104.539062 C 348.339844 104.539062 348.488281 104.539062 348.6875 104.613281 Z M 350.664062 101.589844 C 350.664062 102.714844 350.0625 103.863281 349.238281 104.363281 C 348.789062 104.1875 348.488281 104.164062 348.011719 104.164062 C 347.664062 104.164062 346.761719 104.140625 346.761719 104.664062 C 346.761719 105.113281 347.589844 105.0625 347.863281 105.0625 C 348.464844 105.0625 348.714844 105.0625 349.1875 104.863281 C 349.789062 105.4375 349.863281 105.9375 349.886719 106.664062 C 349.914062 107.589844 349.539062 108.789062 349.089844 109.414062 C 348.464844 110.265625 347.386719 110.839844 346.488281 110.839844 C 345.261719 110.839844 344.664062 109.914062 344.664062 108.789062 C 344.664062 108.640625 344.664062 108.390625 344.738281 108.089844 L 345.761719 104.0625 C 346.113281 102.6875 347.261719 100.140625 349.1875 100.140625 C 350.113281 100.140625 350.664062 100.640625 350.664062 101.589844 Z M 350.664062 101.589844 "/>
<use xlink:href="#surface106" transform="matrix(1,0,0,1,331,87)" mask="url(#mask16)"/>
<use xlink:href="#surface107" transform="matrix(1,0,0,1,245,22)" mask="url(#mask17)"/>
<path style="fill:none;stroke-width:0.598849;stroke-linecap:butt;stroke-linejoin:miter;stroke:rgb(100%,0%,0%);stroke-opacity:1;stroke-miterlimit:4;" d="M -164.814873 128.473917 L -161.219902 128.474352 L -161.222113 132.066373 " transform="matrix(-0.966091,-0.984327,0.95095,-1,0,0)"/>
<path style="fill:none;stroke-width:0.598849;stroke-linecap:butt;stroke-linejoin:miter;stroke:rgb(0%,0%,0%);stroke-opacity:1;stroke-dasharray:0.598849,1.197699;stroke-miterlimit:4;" d="M -164.813432 45.831874 L -164.813078 132.065901 " transform="matrix(-0.966091,-0.984327,0.95095,-1,0,0)"/>
</g>
</svg>
