<?xml version="1.0" encoding="UTF-8"?>
<svg xmlns="http://www.w3.org/2000/svg" xmlns:xlink="http://www.w3.org/1999/xlink" width="417.580414pt" height="172.800003pt" viewBox="0 0 417.580414 172.800003" version="1.1">
<defs>
<clipPath id="clip1">
  <path d="M 210 0 L 212 0 L 212 172.800781 L 210 172.800781 Z M 210 0 "/>
</clipPath>
<clipPath id="clip2">
  <path d="M 406 92 L 417.582031 92 L 417.582031 102 L 406 102 Z M 406 92 "/>
</clipPath>
</defs>
<g id="surface1">
<path style="fill:none;stroke-width:0.8;stroke-linecap:butt;stroke-linejoin:miter;stroke:rgb(100%,0%,0%);stroke-opacity:1;stroke-miterlimit:4;" d="M 412.769531 86.390625 L 9.570312 86.390625 "/>
<g clip-path="url(#clip1)" clip-rule="nonzero">
<path style="fill:none;stroke-width:0.8;stroke-linecap:butt;stroke-linejoin:miter;stroke:rgb(100%,0%,0%);stroke-opacity:1;stroke-miterlimit:4;" d="M 211.171875 -0.0117188 L 211.171875 172.789062 "/>
</g>
<path style=" stroke:none;fill-rule:nonzero;fill:rgb(0%,0%,0%);fill-opacity:1;" d="M 139.199219 11.457031 C 139.636719 11.550781 141.261719 11.863281 141.261719 13.300781 C 141.261719 14.300781 140.574219 15.113281 139.011719 15.113281 C 137.324219 15.113281 136.605469 13.988281 136.230469 12.269531 C 136.167969 12.019531 136.167969 11.957031 135.949219 11.957031 C 135.699219 11.957031 135.699219 12.082031 135.699219 12.425781 L 135.699219 15.082031 C 135.699219 15.425781 135.699219 15.550781 135.917969 15.550781 C 136.011719 15.550781 136.042969 15.519531 136.417969 15.144531 C 136.449219 15.113281 136.449219 15.082031 136.824219 14.707031 C 137.699219 15.519531 138.605469 15.550781 139.011719 15.550781 C 141.292969 15.550781 142.230469 14.207031 142.230469 12.769531 C 142.230469 11.738281 141.636719 11.113281 141.386719 10.894531 C 140.730469 10.238281 139.949219 10.082031 139.105469 9.925781 C 137.980469 9.707031 136.667969 9.457031 136.667969 8.300781 C 136.667969 7.582031 137.167969 6.769531 138.886719 6.769531 C 141.074219 6.769531 141.199219 8.582031 141.230469 9.175781 C 141.230469 9.363281 141.417969 9.363281 141.449219 9.363281 C 141.730469 9.363281 141.730469 9.269531 141.730469 8.894531 L 141.730469 6.863281 C 141.730469 6.550781 141.730469 6.394531 141.511719 6.394531 C 141.417969 6.394531 141.355469 6.394531 141.105469 6.644531 C 141.042969 6.707031 140.855469 6.894531 140.761719 6.957031 C 140.011719 6.394531 139.199219 6.394531 138.886719 6.394531 C 136.449219 6.394531 135.699219 7.738281 135.699219 8.863281 C 135.699219 9.550781 136.011719 10.113281 136.542969 10.550781 C 137.199219 11.050781 137.761719 11.175781 139.199219 11.457031 Z M 139.199219 11.457031 "/>
<path style=" stroke:none;fill-rule:nonzero;fill:rgb(0%,0%,0%);fill-opacity:1;" d="M 146.433594 6.519531 L 143.652344 6.738281 L 143.652344 7.363281 C 144.933594 7.363281 145.121094 7.488281 145.121094 8.457031 L 145.121094 13.832031 C 145.121094 14.707031 144.902344 14.707031 143.558594 14.707031 L 143.558594 15.332031 C 144.183594 15.300781 145.277344 15.269531 145.746094 15.269531 C 146.464844 15.269531 147.152344 15.300781 147.839844 15.332031 L 147.839844 14.707031 C 146.496094 14.707031 146.433594 14.613281 146.433594 13.832031 Z M 146.496094 3.050781 C 146.496094 2.425781 146.027344 1.988281 145.464844 1.988281 C 144.839844 1.988281 144.402344 2.519531 144.402344 3.050781 C 144.402344 3.582031 144.839844 4.113281 145.464844 4.113281 C 146.027344 4.113281 146.496094 3.675781 146.496094 3.050781 Z M 146.496094 3.050781 "/>
<path style=" stroke:none;fill-rule:nonzero;fill:rgb(0%,0%,0%);fill-opacity:1;" d="M 150.625 8.488281 L 150.625 13.832031 C 150.625 14.707031 150.40625 14.707031 149.0625 14.707031 L 149.0625 15.332031 C 149.78125 15.300781 150.78125 15.269531 151.34375 15.269531 C 151.84375 15.269531 152.875 15.300781 153.5625 15.332031 L 153.5625 14.707031 C 152.21875 14.707031 152 14.707031 152 13.832031 L 152 10.144531 C 152 8.082031 153.4375 6.957031 154.6875 6.957031 C 155.96875 6.957031 156.1875 8.019531 156.1875 9.175781 L 156.1875 13.832031 C 156.1875 14.707031 155.96875 14.707031 154.625 14.707031 L 154.625 15.332031 C 155.3125 15.300781 156.34375 15.269531 156.875 15.269531 C 157.375 15.269531 158.4375 15.300781 159.09375 15.332031 L 159.09375 14.707031 C 158.0625 14.707031 157.5625 14.707031 157.5625 14.113281 L 157.5625 10.300781 C 157.5625 8.582031 157.5625 7.988281 156.9375 7.269531 C 156.65625 6.925781 156 6.519531 154.84375 6.519531 C 153.375 6.519531 152.4375 7.363281 151.875 8.613281 L 151.875 6.519531 L 149.0625 6.738281 L 149.0625 7.363281 C 150.46875 7.363281 150.625 7.488281 150.625 8.488281 Z M 150.625 8.488281 "/>
<path style=" stroke:none;fill-rule:nonzero;fill:rgb(0%,0%,0%);fill-opacity:1;" d="M 166.101562 20.113281 C 166.101562 20.050781 166.101562 20.019531 165.757812 19.675781 C 163.289062 17.175781 162.632812 13.394531 162.632812 10.332031 C 162.632812 6.863281 163.382812 3.394531 165.851562 0.925781 C 166.101562 0.675781 166.101562 0.644531 166.101562 0.582031 C 166.101562 0.425781 166.039062 0.363281 165.914062 0.363281 C 165.695312 0.363281 163.914062 1.738281 162.726562 4.269531 C 161.726562 6.457031 161.476562 8.675781 161.476562 10.332031 C 161.476562 11.894531 161.695312 14.300781 162.789062 16.582031 C 164.007812 19.019531 165.695312 20.332031 165.914062 20.332031 C 166.039062 20.332031 166.101562 20.269531 166.101562 20.113281 Z M 166.101562 20.113281 "/>
<path style=" stroke:none;fill-rule:nonzero;fill:rgb(0%,0%,0%);fill-opacity:1;" d="M 173.914062 9.300781 C 174.039062 8.800781 174.507812 6.957031 175.882812 6.957031 C 175.976562 6.957031 176.476562 6.957031 176.882812 7.207031 C 176.320312 7.332031 175.945312 7.800781 175.945312 8.300781 C 175.945312 8.613281 176.164062 8.988281 176.695312 8.988281 C 177.132812 8.988281 177.757812 8.644531 177.757812 7.832031 C 177.757812 6.800781 176.601562 6.519531 175.914062 6.519531 C 174.757812 6.519531 174.070312 7.582031 173.820312 8.019531 C 173.320312 6.707031 172.257812 6.519531 171.664062 6.519531 C 169.601562 6.519531 168.445312 9.082031 168.445312 9.582031 C 168.445312 9.800781 168.664062 9.800781 168.695312 9.800781 C 168.851562 9.800781 168.914062 9.738281 168.945312 9.582031 C 169.632812 7.457031 170.945312 6.957031 171.632812 6.957031 C 172.007812 6.957031 172.695312 7.144531 172.695312 8.300781 C 172.695312 8.925781 172.351562 10.238281 171.632812 13.050781 C 171.320312 14.269531 170.601562 15.113281 169.726562 15.113281 C 169.601562 15.113281 169.164062 15.113281 168.726562 14.863281 C 169.226562 14.738281 169.664062 14.332031 169.664062 13.769531 C 169.664062 13.238281 169.226562 13.082031 168.945312 13.082031 C 168.320312 13.082031 167.851562 13.582031 167.851562 14.238281 C 167.851562 15.144531 168.820312 15.550781 169.695312 15.550781 C 171.039062 15.550781 171.757812 14.144531 171.789062 14.050781 C 172.039062 14.769531 172.757812 15.550781 173.945312 15.550781 C 176.007812 15.550781 177.132812 12.988281 177.132812 12.488281 C 177.132812 12.269531 176.976562 12.269531 176.914062 12.269531 C 176.726562 12.269531 176.695312 12.363281 176.632812 12.488281 C 175.976562 14.644531 174.632812 15.113281 174.007812 15.113281 C 173.226562 15.113281 172.914062 14.488281 172.914062 13.800781 C 172.914062 13.363281 173.007812 12.925781 173.226562 12.050781 Z M 173.914062 9.300781 "/>
<path style=" stroke:none;fill-rule:nonzero;fill:rgb(0%,0%,0%);fill-opacity:1;" d="M 184.394531 10.332031 C 184.394531 8.800781 184.175781 6.394531 183.082031 4.113281 C 181.894531 1.675781 180.175781 0.363281 179.988281 0.363281 C 179.863281 0.363281 179.769531 0.457031 179.769531 0.582031 C 179.769531 0.644531 179.769531 0.675781 180.144531 1.050781 C 182.113281 3.019531 183.238281 6.175781 183.238281 10.332031 C 183.238281 13.769531 182.519531 17.269531 180.050781 19.769531 C 179.769531 20.019531 179.769531 20.050781 179.769531 20.113281 C 179.769531 20.238281 179.863281 20.332031 179.988281 20.332031 C 180.175781 20.332031 181.988281 18.957031 183.144531 16.425781 C 184.175781 14.238281 184.394531 12.019531 184.394531 10.332031 Z M 184.394531 10.332031 "/>
<path style="fill:none;stroke-width:1.6;stroke-linecap:butt;stroke-linejoin:miter;stroke:rgb(0%,0%,0%);stroke-opacity:1;stroke-miterlimit:4;" d="M 19.171875 42.785156 C 19.296875 43.1875 19.425781 43.59375 19.554688 44.003906 C 19.683594 44.410156 19.8125 44.824219 19.9375 45.238281 C 20.066406 45.652344 20.195312 46.066406 20.324219 46.488281 C 20.453125 46.90625 20.578125 47.328125 20.707031 47.753906 C 20.835938 48.179688 20.964844 48.605469 21.09375 49.035156 C 21.21875 49.464844 21.347656 49.898438 21.476562 50.332031 C 21.605469 50.769531 21.734375 51.207031 21.859375 51.644531 C 21.988281 52.085938 22.117188 52.527344 22.246094 52.972656 C 22.375 53.417969 22.5 53.863281 22.628906 54.3125 C 22.757812 54.761719 22.886719 55.210938 23.015625 55.664062 C 23.140625 56.117188 23.269531 56.570312 23.398438 57.027344 C 23.527344 57.484375 23.65625 57.945312 23.78125 58.40625 C 23.910156 58.867188 24.039062 59.328125 24.167969 59.792969 C 24.296875 60.257812 24.421875 60.726562 24.550781 61.195312 C 24.679688 61.660156 24.808594 62.132812 24.9375 62.601562 C 25.0625 63.074219 25.191406 63.546875 25.320312 64.023438 C 25.449219 64.496094 25.578125 64.972656 25.703125 65.449219 C 25.832031 65.925781 25.960938 66.40625 26.089844 66.886719 C 26.21875 67.367188 26.34375 67.847656 26.472656 68.332031 C 26.601562 68.8125 26.730469 69.296875 26.859375 69.78125 C 26.984375 70.265625 27.113281 70.753906 27.242188 71.242188 C 27.371094 71.726562 27.5 72.214844 27.625 72.703125 C 27.753906 73.195312 27.882812 73.683594 28.011719 74.175781 C 28.140625 74.664062 28.265625 75.15625 28.394531 75.648438 C 28.523438 76.140625 28.652344 76.636719 28.78125 77.128906 C 28.90625 77.625 29.035156 78.117188 29.164062 78.613281 C 29.292969 79.105469 29.421875 79.601562 29.546875 80.097656 C 29.675781 80.59375 29.804688 81.089844 29.933594 81.585938 C 30.0625 82.085938 30.1875 82.582031 30.316406 83.078125 C 30.445312 83.574219 30.574219 84.074219 30.703125 84.570312 C 30.828125 85.066406 30.957031 85.566406 31.085938 86.0625 C 31.214844 86.5625 31.34375 87.058594 31.46875 87.554688 C 31.597656 88.054688 31.726562 88.550781 31.855469 89.046875 C 31.984375 89.546875 32.109375 90.042969 32.238281 90.539062 C 32.367188 91.035156 32.496094 91.535156 32.625 92.03125 C 32.75 92.527344 32.878906 93.023438 33.007812 93.515625 C 33.136719 94.011719 33.265625 94.507812 33.390625 95 C 33.519531 95.496094 33.648438 95.988281 33.777344 96.484375 C 33.90625 96.976562 34.03125 97.46875 34.160156 97.960938 C 34.289062 98.453125 34.417969 98.941406 34.546875 99.433594 C 34.671875 99.921875 34.800781 100.410156 34.929688 100.898438 C 35.058594 101.386719 35.1875 101.875 35.3125 102.359375 C 35.441406 102.847656 35.570312 103.332031 35.699219 103.816406 C 35.828125 104.296875 35.953125 104.78125 36.082031 105.261719 C 36.210938 105.742188 36.339844 106.222656 36.46875 106.703125 C 36.59375 107.179688 36.722656 107.660156 36.851562 108.132812 C 36.980469 108.609375 37.109375 109.085938 37.234375 109.558594 C 37.363281 110.03125 37.492188 110.5 37.621094 110.96875 C 37.75 111.441406 37.875 111.90625 38.003906 112.375 C 38.132812 112.839844 38.261719 113.304688 38.390625 113.765625 C 38.515625 114.230469 38.644531 114.691406 38.773438 115.148438 C 38.902344 115.609375 39.03125 116.066406 39.15625 116.519531 C 39.285156 116.972656 39.414062 117.425781 39.542969 117.878906 C 39.671875 118.328125 39.796875 118.777344 39.925781 119.222656 C 40.054688 119.667969 40.183594 120.113281 40.3125 120.554688 C 40.4375 120.996094 40.566406 121.4375 40.695312 121.875 C 40.824219 122.308594 40.953125 122.746094 41.078125 123.175781 C 41.207031 123.609375 41.335938 124.039062 41.464844 124.464844 C 41.59375 124.894531 41.71875 125.316406 41.847656 125.738281 C 41.976562 126.160156 42.105469 126.582031 42.234375 126.996094 C 42.359375 127.414062 42.488281 127.828125 42.617188 128.238281 C 42.746094 128.648438 42.875 129.058594 43 129.460938 C 43.128906 129.867188 43.257812 130.269531 43.386719 130.667969 C 43.515625 131.070312 43.640625 131.464844 43.769531 131.859375 C 43.898438 132.25 44.027344 132.640625 44.15625 133.027344 C 44.28125 133.414062 44.410156 133.800781 44.539062 134.179688 C 44.667969 134.5625 44.796875 134.9375 44.921875 135.3125 C 45.050781 135.6875 45.179688 136.058594 45.308594 136.425781 C 45.4375 136.792969 45.566406 137.15625 45.691406 137.515625 C 45.820312 137.878906 45.949219 138.234375 46.078125 138.589844 C 46.207031 138.941406 46.332031 139.292969 46.460938 139.636719 C 46.589844 139.984375 46.71875 140.328125 46.847656 140.667969 C 46.972656 141.007812 47.101562 141.339844 47.230469 141.671875 C 47.359375 142.003906 47.488281 142.332031 47.613281 142.65625 C 47.742188 142.980469 47.871094 143.300781 48 143.617188 C 48.128906 143.9375 48.253906 144.25 48.382812 144.558594 C 48.511719 144.867188 48.640625 145.171875 48.769531 145.472656 C 48.894531 145.773438 49.023438 146.070312 49.152344 146.363281 C 49.28125 146.65625 49.410156 146.945312 49.535156 147.230469 C 49.664062 147.515625 49.792969 147.792969 49.921875 148.070312 C 50.050781 148.347656 50.175781 148.621094 50.304688 148.886719 C 50.433594 149.15625 50.5625 149.421875 50.691406 149.679688 C 50.816406 149.9375 50.945312 150.195312 51.074219 150.445312 C 51.203125 150.695312 51.332031 150.941406 51.457031 151.1875 C 51.585938 151.429688 51.714844 151.664062 51.84375 151.898438 C 51.972656 152.132812 52.097656 152.363281 52.226562 152.585938 C 52.355469 152.8125 52.484375 153.03125 52.613281 153.246094 C 52.738281 153.460938 52.867188 153.671875 52.996094 153.878906 C 53.125 154.085938 53.253906 154.289062 53.378906 154.484375 C 53.507812 154.683594 53.636719 154.875 53.765625 155.066406 C 53.894531 155.253906 54.019531 155.4375 54.148438 155.613281 C 54.277344 155.792969 54.40625 155.96875 54.535156 156.136719 C 54.660156 156.308594 54.789062 156.472656 54.917969 156.632812 C 55.046875 156.792969 55.175781 156.945312 55.300781 157.097656 C 55.429688 157.25 55.558594 157.394531 55.6875 157.535156 C 55.816406 157.675781 55.941406 157.8125 56.070312 157.941406 C 56.199219 158.074219 56.328125 158.199219 56.457031 158.324219 C 56.582031 158.445312 56.710938 158.5625 56.839844 158.671875 C 56.96875 158.785156 57.097656 158.890625 57.222656 158.992188 C 57.351562 159.097656 57.480469 159.191406 57.609375 159.285156 C 57.738281 159.378906 57.863281 159.464844 57.992188 159.546875 C 58.121094 159.628906 58.25 159.707031 58.378906 159.78125 C 58.503906 159.851562 58.632812 159.921875 58.761719 159.984375 C 58.890625 160.046875 59.019531 160.101562 59.144531 160.15625 C 59.273438 160.207031 59.402344 160.253906 59.53125 160.296875 C 59.660156 160.339844 59.785156 160.378906 59.914062 160.410156 C 60.042969 160.445312 60.171875 160.472656 60.300781 160.496094 C 60.425781 160.515625 60.554688 160.535156 60.683594 160.546875 C 60.8125 160.558594 60.941406 160.566406 61.066406 160.570312 C 61.195312 160.574219 61.324219 160.570312 61.453125 160.5625 C 61.582031 160.554688 61.707031 160.542969 61.835938 160.527344 C 61.964844 160.507812 62.09375 160.488281 62.222656 160.460938 C 62.347656 160.433594 62.476562 160.398438 62.605469 160.363281 C 62.734375 160.324219 62.863281 160.28125 62.988281 160.234375 C 63.117188 160.1875 63.246094 160.136719 63.375 160.078125 C 63.503906 160.019531 63.628906 159.957031 63.757812 159.890625 C 63.886719 159.824219 64.015625 159.75 64.144531 159.675781 C 64.269531 159.597656 64.398438 159.515625 64.527344 159.429688 C 64.65625 159.339844 64.785156 159.25 64.910156 159.152344 C 65.039062 159.054688 65.167969 158.953125 65.296875 158.847656 C 65.425781 158.742188 65.550781 158.628906 65.679688 158.511719 C 65.808594 158.394531 65.9375 158.273438 66.066406 158.148438 C 66.191406 158.023438 66.320312 157.890625 66.449219 157.753906 C 66.578125 157.621094 66.707031 157.480469 66.832031 157.332031 C 66.960938 157.1875 67.089844 157.039062 67.21875 156.882812 C 67.347656 156.726562 67.472656 156.566406 67.601562 156.402344 C 67.730469 156.238281 67.859375 156.070312 67.988281 155.894531 C 68.113281 155.722656 68.242188 155.542969 68.371094 155.359375 C 68.5 155.175781 68.628906 154.988281 68.753906 154.796875 C 68.882812 154.605469 69.011719 154.40625 69.140625 154.207031 C 69.269531 154.003906 69.394531 153.796875 69.523438 153.585938 C 69.652344 153.375 69.78125 153.160156 69.910156 152.941406 C 70.035156 152.722656 70.164062 152.496094 70.292969 152.269531 C 70.421875 152.039062 70.550781 151.804688 70.675781 151.566406 C 70.804688 151.332031 70.933594 151.089844 71.0625 150.84375 C 71.191406 150.59375 71.316406 150.34375 71.445312 150.089844 C 71.574219 149.835938 71.703125 149.574219 71.832031 149.3125 C 71.957031 149.046875 72.085938 148.78125 72.214844 148.507812 C 72.34375 148.238281 72.472656 147.960938 72.597656 147.679688 C 72.726562 147.398438 72.855469 147.113281 72.984375 146.828125 C 73.113281 146.539062 73.238281 146.246094 73.367188 145.949219 C 73.496094 145.652344 73.625 145.351562 73.753906 145.046875 C 73.878906 144.742188 74.007812 144.433594 74.136719 144.121094 C 74.265625 143.808594 74.394531 143.492188 74.519531 143.171875 C 74.648438 142.851562 74.777344 142.527344 74.90625 142.199219 C 75.035156 141.871094 75.160156 141.539062 75.289062 141.203125 C 75.417969 140.867188 75.546875 140.53125 75.675781 140.1875 C 75.800781 139.84375 75.929688 139.5 76.058594 139.148438 C 76.1875 138.796875 76.316406 138.445312 76.441406 138.089844 C 76.570312 137.730469 76.699219 137.371094 76.828125 137.007812 C 76.957031 136.644531 77.082031 136.277344 77.210938 135.90625 C 77.339844 135.535156 77.46875 135.160156 77.597656 134.785156 C 77.726562 134.40625 77.851562 134.027344 77.980469 133.644531 C 78.109375 133.257812 78.238281 132.871094 78.367188 132.480469 C 78.492188 132.09375 78.621094 131.699219 78.75 131.304688 C 78.878906 130.90625 79.007812 130.507812 79.132812 130.105469 C 79.261719 129.703125 79.390625 129.296875 79.519531 128.890625 C 79.648438 128.484375 79.773438 128.070312 79.902344 127.660156 C 80.03125 127.246094 80.160156 126.828125 80.289062 126.410156 C 80.414062 125.992188 80.542969 125.570312 80.671875 125.144531 C 80.800781 124.71875 80.929688 124.292969 81.054688 123.863281 C 81.183594 123.433594 81.3125 123.003906 81.441406 122.566406 C 81.570312 122.132812 81.695312 121.695312 81.824219 121.257812 C 81.953125 120.816406 82.082031 120.375 82.210938 119.933594 C 82.335938 119.488281 82.464844 119.042969 82.59375 118.59375 C 82.722656 118.144531 82.851562 117.695312 82.976562 117.242188 C 83.105469 116.789062 83.234375 116.335938 83.363281 115.878906 C 83.492188 115.421875 83.617188 114.964844 83.746094 114.503906 C 83.875 114.042969 84.003906 113.578125 84.132812 113.117188 C 84.257812 112.652344 84.386719 112.183594 84.515625 111.71875 C 84.644531 111.25 84.773438 110.78125 84.898438 110.308594 C 85.027344 109.839844 85.15625 109.367188 85.285156 108.890625 C 85.414062 108.417969 85.539062 107.941406 85.667969 107.464844 C 85.796875 106.988281 85.925781 106.507812 86.054688 106.027344 C 86.179688 105.546875 86.308594 105.066406 86.4375 104.585938 C 86.566406 104.101562 86.695312 103.617188 86.820312 103.132812 C 86.949219 102.648438 87.078125 102.164062 87.207031 101.675781 C 87.335938 101.1875 87.460938 100.699219 87.589844 100.210938 C 87.71875 99.722656 87.847656 99.234375 87.976562 98.742188 C 88.101562 98.25 88.230469 97.761719 88.359375 97.269531 C 88.488281 96.777344 88.617188 96.28125 88.742188 95.789062 C 88.871094 95.296875 89 94.800781 89.128906 94.304688 C 89.257812 93.8125 89.382812 93.316406 89.511719 92.820312 C 89.640625 92.324219 89.769531 91.828125 89.898438 91.332031 C 90.023438 90.835938 90.152344 90.339844 90.28125 89.839844 C 90.410156 89.34375 90.539062 88.847656 90.664062 88.347656 C 90.792969 87.851562 90.921875 87.355469 91.050781 86.855469 C 91.179688 86.359375 91.304688 85.859375 91.433594 85.363281 C 91.5625 84.867188 91.691406 84.367188 91.820312 83.871094 C 91.945312 83.375 92.074219 82.875 92.203125 82.378906 C 92.332031 81.882812 92.460938 81.386719 92.585938 80.890625 C 92.714844 80.394531 92.84375 79.898438 92.972656 79.402344 C 93.101562 78.90625 93.226562 78.410156 93.355469 77.917969 C 93.484375 77.421875 93.613281 76.929688 93.742188 76.433594 C 93.867188 75.941406 93.996094 75.449219 94.125 74.957031 C 94.253906 74.464844 94.382812 73.976562 94.507812 73.484375 C 94.636719 72.996094 94.765625 72.507812 94.894531 72.019531 C 95.023438 71.53125 95.148438 71.042969 95.277344 70.554688 C 95.40625 70.070312 95.535156 69.585938 95.664062 69.101562 C 95.789062 68.617188 95.917969 68.132812 96.046875 67.652344 C 96.175781 67.171875 96.304688 66.691406 96.429688 66.210938 C 96.558594 65.734375 96.6875 65.253906 96.816406 64.777344 C 96.945312 64.304688 97.070312 63.828125 97.199219 63.355469 C 97.328125 62.882812 97.457031 62.410156 97.585938 61.941406 C 97.710938 61.472656 97.839844 61.003906 97.96875 60.535156 C 98.097656 60.070312 98.226562 59.605469 98.351562 59.140625 C 98.480469 58.679688 98.609375 58.21875 98.738281 57.757812 C 98.867188 57.300781 98.992188 56.84375 99.121094 56.386719 C 99.25 55.933594 99.378906 55.480469 99.507812 55.027344 C 99.632812 54.578125 99.761719 54.128906 99.890625 53.683594 C 100.019531 53.234375 100.148438 52.789062 100.273438 52.347656 C 100.402344 51.90625 100.53125 51.464844 100.660156 51.027344 C 100.789062 50.589844 100.914062 50.15625 101.042969 49.722656 C 101.171875 49.292969 101.300781 48.859375 101.429688 48.433594 C 101.554688 48.007812 101.683594 47.582031 101.8125 47.160156 C 101.941406 46.734375 102.070312 46.316406 102.195312 45.898438 C 102.324219 45.484375 102.453125 45.066406 102.582031 44.65625 C 102.710938 44.246094 102.835938 43.835938 102.964844 43.429688 C 103.09375 43.023438 103.222656 42.621094 103.351562 42.222656 C 103.476562 41.824219 103.605469 41.425781 103.734375 41.03125 C 103.863281 40.636719 103.992188 40.246094 104.117188 39.859375 C 104.246094 39.472656 104.375 39.085938 104.503906 38.707031 C 104.632812 38.324219 104.757812 37.949219 104.886719 37.574219 C 105.015625 37.199219 105.144531 36.828125 105.273438 36.457031 C 105.398438 36.089844 105.527344 35.726562 105.65625 35.363281 C 105.785156 35.003906 105.914062 34.644531 106.039062 34.292969 C 106.167969 33.9375 106.296875 33.585938 106.425781 33.238281 C 106.554688 32.890625 106.679688 32.546875 106.808594 32.207031 C 106.9375 31.867188 107.066406 31.53125 107.195312 31.199219 C 107.320312 30.867188 107.449219 30.539062 107.578125 30.214844 C 107.707031 29.886719 107.835938 29.566406 107.960938 29.25 C 108.089844 28.933594 108.21875 28.617188 108.347656 28.308594 C 108.476562 28 108.601562 27.695312 108.730469 27.390625 C 108.859375 27.089844 108.988281 26.792969 109.117188 26.5 C 109.246094 26.207031 109.371094 25.914062 109.5 25.628906 C 109.628906 25.34375 109.757812 25.0625 109.886719 24.785156 C 110.011719 24.507812 110.140625 24.234375 110.269531 23.96875 C 110.398438 23.699219 110.527344 23.433594 110.652344 23.171875 C 110.78125 22.914062 110.910156 22.65625 111.039062 22.40625 C 111.167969 22.152344 111.292969 21.90625 111.421875 21.664062 C 111.550781 21.417969 111.679688 21.179688 111.808594 20.945312 C 111.933594 20.710938 112.0625 20.480469 112.191406 20.257812 C 112.320312 20.03125 112.449219 19.808594 112.574219 19.59375 C 112.703125 19.375 112.832031 19.164062 112.960938 18.957031 C 113.089844 18.75 113.214844 18.546875 113.34375 18.347656 C 113.472656 18.152344 113.601562 17.957031 113.730469 17.769531 C 113.855469 17.578125 113.984375 17.394531 114.113281 17.214844 C 114.242188 17.035156 114.371094 16.859375 114.496094 16.691406 C 114.625 16.519531 114.753906 16.355469 114.882812 16.191406 C 115.011719 16.03125 115.136719 15.875 115.265625 15.722656 C 115.394531 15.574219 115.523438 15.425781 115.652344 15.285156 C 115.777344 15.140625 115.90625 15.003906 116.035156 14.875 C 116.164062 14.742188 116.292969 14.613281 116.417969 14.492188 C 116.546875 14.367188 116.675781 14.25 116.804688 14.136719 C 116.933594 14.023438 117.058594 13.917969 117.1875 13.816406 C 117.316406 13.710938 117.445312 13.613281 117.574219 13.519531 C 117.699219 13.425781 117.828125 13.339844 117.957031 13.253906 C 118.085938 13.171875 118.214844 13.09375 118.339844 13.019531 C 118.46875 12.945312 118.597656 12.878906 118.726562 12.816406 C 118.855469 12.75 118.980469 12.691406 119.109375 12.640625 C 119.238281 12.585938 119.367188 12.535156 119.496094 12.492188 C 119.621094 12.449219 119.75 12.410156 119.878906 12.378906 C 120.007812 12.34375 120.136719 12.316406 120.261719 12.292969 C 120.390625 12.269531 120.519531 12.25 120.648438 12.234375 C 120.777344 12.222656 120.902344 12.214844 121.03125 12.210938 C 121.160156 12.207031 121.289062 12.207031 121.417969 12.214844 C 121.542969 12.21875 121.671875 12.230469 121.800781 12.25 C 121.929688 12.265625 122.058594 12.285156 122.183594 12.3125 C 122.3125 12.339844 122.441406 12.371094 122.570312 12.40625 C 122.699219 12.445312 122.824219 12.484375 122.953125 12.53125 C 123.082031 12.578125 123.210938 12.628906 123.339844 12.683594 C 123.464844 12.742188 123.59375 12.804688 123.722656 12.871094 C 123.851562 12.9375 123.980469 13.007812 124.105469 13.082031 C 124.234375 13.160156 124.363281 13.242188 124.492188 13.328125 C 124.621094 13.414062 124.746094 13.503906 124.875 13.601562 C 125.003906 13.695312 125.132812 13.796875 125.261719 13.902344 C 125.386719 14.007812 125.515625 14.117188 125.644531 14.234375 C 125.773438 14.351562 125.902344 14.46875 126.027344 14.59375 C 126.15625 14.722656 126.285156 14.851562 126.414062 14.984375 C 126.542969 15.121094 126.667969 15.261719 126.796875 15.40625 C 126.925781 15.550781 127.054688 15.699219 127.183594 15.851562 C 127.308594 16.007812 127.4375 16.164062 127.566406 16.328125 C 127.695312 16.492188 127.824219 16.660156 127.949219 16.835938 C 128.078125 17.007812 128.207031 17.183594 128.335938 17.367188 C 128.464844 17.550781 128.589844 17.738281 128.71875 17.929688 C 128.847656 18.121094 128.976562 18.316406 129.105469 18.515625 C 129.230469 18.71875 129.359375 18.921875 129.488281 19.132812 C 129.617188 19.34375 129.746094 19.558594 129.871094 19.777344 C 130 19.996094 130.128906 20.21875 130.257812 20.449219 C 130.386719 20.675781 130.511719 20.90625 130.640625 21.144531 C 130.769531 21.382812 130.898438 21.621094 131.027344 21.867188 C 131.152344 22.113281 131.28125 22.363281 131.410156 22.617188 C 131.539062 22.871094 131.667969 23.128906 131.792969 23.394531 C 131.921875 23.65625 132.050781 23.921875 132.179688 24.195312 C 132.308594 24.464844 132.433594 24.742188 132.5625 25.019531 C 132.691406 25.300781 132.820312 25.585938 132.949219 25.871094 C 133.074219 26.160156 133.203125 26.453125 133.332031 26.746094 C 133.460938 27.042969 133.589844 27.34375 133.714844 27.648438 C 133.84375 27.953125 133.972656 28.257812 134.101562 28.570312 C 134.230469 28.882812 134.355469 29.199219 134.484375 29.519531 C 134.613281 29.835938 134.742188 30.160156 134.871094 30.488281 C 134.996094 30.816406 135.125 31.144531 135.253906 31.480469 C 135.382812 31.816406 135.511719 32.152344 135.636719 32.496094 C 135.765625 32.839844 135.894531 33.183594 136.023438 33.53125 C 136.152344 33.882812 136.277344 34.234375 136.40625 34.589844 C 136.535156 34.945312 136.664062 35.308594 136.792969 35.671875 C 136.917969 36.035156 137.046875 36.398438 137.175781 36.769531 C 137.304688 37.140625 137.433594 37.511719 137.558594 37.890625 C 137.6875 38.265625 137.816406 38.644531 137.945312 39.027344 C 138.074219 39.410156 138.199219 39.796875 138.328125 40.1875 C 138.457031 40.578125 138.585938 40.96875 138.714844 41.363281 C 138.839844 41.761719 138.96875 42.160156 139.097656 42.5625 C 139.226562 42.960938 139.355469 43.367188 139.480469 43.773438 C 139.609375 44.179688 139.738281 44.589844 139.867188 45.003906 C 139.996094 45.417969 140.121094 45.832031 140.25 46.25 C 140.378906 46.671875 140.507812 47.089844 140.636719 47.515625 C 140.761719 47.9375 140.890625 48.367188 141.019531 48.792969 C 141.148438 49.222656 141.277344 49.65625 141.40625 50.089844 C 141.53125 50.523438 141.660156 50.960938 141.789062 51.398438 C 141.917969 51.835938 142.046875 52.277344 142.171875 52.722656 C 142.300781 53.164062 142.429688 53.613281 142.558594 54.058594 C 142.6875 54.507812 142.8125 54.957031 142.941406 55.410156 C 143.070312 55.863281 143.199219 56.316406 143.328125 56.773438 C 143.453125 57.230469 143.582031 57.6875 143.710938 58.148438 C 143.839844 58.605469 143.96875 59.070312 144.09375 59.535156 C 144.222656 59.996094 144.351562 60.464844 144.480469 60.929688 C 144.609375 61.398438 144.734375 61.867188 144.863281 62.335938 C 144.992188 62.808594 145.121094 63.28125 145.25 63.753906 C 145.375 64.230469 145.503906 64.703125 145.632812 65.179688 C 145.761719 65.65625 145.890625 66.136719 146.015625 66.617188 C 146.144531 67.097656 146.273438 67.578125 146.402344 68.058594 C 146.53125 68.542969 146.65625 69.023438 146.785156 69.507812 C 146.914062 69.992188 147.042969 70.480469 147.171875 70.964844 C 147.296875 71.453125 147.425781 71.941406 147.554688 72.429688 C 147.683594 72.917969 147.8125 73.410156 147.9375 73.898438 C 148.066406 74.390625 148.195312 74.882812 148.324219 75.375 C 148.453125 75.863281 148.578125 76.359375 148.707031 76.851562 C 148.835938 77.34375 148.964844 77.839844 149.09375 78.335938 C 149.21875 78.828125 149.347656 79.324219 149.476562 79.820312 C 149.605469 80.316406 149.734375 80.8125 149.859375 81.308594 C 149.988281 81.804688 150.117188 82.300781 150.246094 82.796875 C 150.375 83.296875 150.5 83.792969 150.628906 84.289062 C 150.757812 84.789062 150.886719 85.285156 151.015625 85.785156 L 151.398438 87.277344 C 151.527344 87.773438 151.65625 88.269531 151.78125 88.769531 C 151.910156 89.265625 152.039062 89.761719 152.167969 90.261719 C 152.296875 90.757812 152.421875 91.253906 152.550781 91.75 C 152.679688 92.246094 152.808594 92.742188 152.9375 93.238281 C 153.0625 93.734375 153.191406 94.230469 153.320312 94.722656 C 153.449219 95.21875 153.578125 95.710938 153.703125 96.207031 C 153.832031 96.699219 153.960938 97.191406 154.089844 97.683594 C 154.21875 98.175781 154.34375 98.667969 154.472656 99.15625 C 154.601562 99.648438 154.730469 100.136719 154.859375 100.625 C 154.984375 101.113281 155.113281 101.601562 155.242188 102.085938 C 155.371094 102.574219 155.5 103.058594 155.625 103.542969 C 155.753906 104.027344 155.882812 104.511719 156.011719 104.992188 C 156.140625 105.472656 156.265625 105.953125 156.394531 106.433594 C 156.523438 106.914062 156.652344 107.390625 156.78125 107.867188 C 156.90625 108.34375 157.035156 108.816406 157.164062 109.289062 C 157.292969 109.765625 157.421875 110.234375 157.546875 110.707031 C 157.675781 111.175781 157.804688 111.644531 157.933594 112.113281 C 158.0625 112.578125 158.1875 113.042969 158.316406 113.507812 C 158.445312 113.96875 158.574219 114.429688 158.703125 114.890625 C 158.828125 115.351562 158.957031 115.808594 159.085938 116.261719 C 159.214844 116.71875 159.34375 117.171875 159.46875 117.625 C 159.597656 118.074219 159.726562 118.523438 159.855469 118.972656 C 159.984375 119.417969 160.109375 119.863281 160.238281 120.304688 C 160.367188 120.75 160.496094 121.1875 160.625 121.628906 C 160.75 122.066406 160.878906 122.5 161.007812 122.933594 C 161.136719 123.367188 161.265625 123.796875 161.390625 124.226562 C 161.519531 124.652344 161.648438 125.078125 161.777344 125.503906 C 161.90625 125.925781 162.03125 126.34375 162.160156 126.761719 C 162.289062 127.179688 162.417969 127.59375 162.546875 128.007812 C 162.671875 128.417969 162.800781 128.828125 162.929688 129.234375 C 163.058594 129.640625 163.1875 130.042969 163.3125 130.445312 C 163.441406 130.84375 163.570312 131.242188 163.699219 131.636719 C 163.828125 132.03125 163.953125 132.421875 164.082031 132.808594 C 164.210938 133.199219 164.339844 133.582031 164.46875 133.964844 C 164.59375 134.347656 164.722656 134.726562 164.851562 135.101562 C 164.980469 135.476562 165.109375 135.847656 165.234375 136.21875 C 165.363281 136.585938 165.492188 136.953125 165.621094 137.3125 C 165.75 137.675781 165.875 138.035156 166.003906 138.386719 C 166.132812 138.742188 166.261719 139.09375 166.390625 139.441406 C 166.515625 139.789062 166.644531 140.136719 166.773438 140.476562 C 166.902344 140.816406 167.03125 141.152344 167.15625 141.488281 C 167.285156 141.820312 167.414062 142.148438 167.542969 142.476562 C 167.671875 142.800781 167.796875 143.121094 167.925781 143.441406 C 168.054688 143.757812 168.183594 144.074219 168.3125 144.382812 C 168.4375 144.695312 168.566406 145 168.695312 145.300781 C 168.824219 145.605469 168.953125 145.902344 169.078125 146.199219 C 169.207031 146.492188 169.335938 146.78125 169.464844 147.070312 C 169.59375 147.355469 169.71875 147.636719 169.847656 147.914062 C 169.976562 148.195312 170.105469 148.46875 170.234375 148.738281 C 170.359375 149.007812 170.488281 149.273438 170.617188 149.535156 C 170.746094 149.792969 170.875 150.050781 171 150.304688 C 171.128906 150.554688 171.257812 150.804688 171.386719 151.050781 C 171.515625 151.292969 171.640625 151.53125 171.769531 151.765625 C 171.898438 152.003906 172.027344 152.234375 172.15625 152.460938 C 172.28125 152.6875 172.410156 152.90625 172.539062 153.125 C 172.667969 153.34375 172.796875 153.554688 172.921875 153.761719 C 173.050781 153.972656 173.179688 154.175781 173.308594 154.375 C 173.4375 154.574219 173.566406 154.769531 173.691406 154.957031 C 173.820312 155.148438 173.949219 155.332031 174.078125 155.515625 C 174.207031 155.695312 174.332031 155.871094 174.460938 156.042969 C 174.589844 156.214844 174.71875 156.378906 174.847656 156.542969 C 174.972656 156.703125 175.101562 156.859375 175.230469 157.011719 C 175.359375 157.164062 175.488281 157.3125 175.613281 157.457031 C 175.742188 157.597656 175.871094 157.734375 176 157.867188 C 176.128906 158.003906 176.253906 158.128906 176.382812 158.253906 C 176.511719 158.378906 176.640625 158.496094 176.769531 158.609375 C 176.894531 158.722656 177.023438 158.832031 177.152344 158.9375 C 177.28125 159.039062 177.410156 159.140625 177.535156 159.234375 C 177.664062 159.328125 177.792969 159.417969 177.921875 159.5 C 178.050781 159.585938 178.175781 159.664062 178.304688 159.738281 C 178.433594 159.8125 178.5625 159.882812 178.691406 159.945312 C 178.816406 160.011719 178.945312 160.070312 179.074219 160.125 C 179.203125 160.179688 179.332031 160.230469 179.457031 160.273438 C 179.585938 160.320312 179.714844 160.359375 179.84375 160.390625 C 179.972656 160.425781 180.097656 160.457031 180.226562 160.480469 C 180.355469 160.503906 180.484375 160.523438 180.613281 160.539062 C 180.738281 160.554688 180.867188 160.5625 180.996094 160.570312 C 181.125 160.574219 181.253906 160.574219 181.378906 160.566406 C 181.507812 160.5625 181.636719 160.550781 181.765625 160.535156 C 181.894531 160.519531 182.019531 160.5 182.148438 160.472656 C 182.277344 160.449219 182.40625 160.417969 182.535156 160.382812 C 182.660156 160.347656 182.789062 160.308594 182.917969 160.261719 C 183.046875 160.214844 183.175781 160.164062 183.300781 160.109375 C 183.429688 160.054688 183.558594 159.992188 183.6875 159.929688 C 183.816406 159.863281 183.941406 159.792969 184.070312 159.71875 C 184.199219 159.640625 184.328125 159.5625 184.457031 159.476562 C 184.582031 159.390625 184.710938 159.300781 184.839844 159.207031 C 184.96875 159.113281 185.097656 159.011719 185.222656 158.90625 C 185.351562 158.800781 185.480469 158.691406 185.609375 158.578125 C 185.738281 158.460938 185.863281 158.34375 185.992188 158.21875 C 186.121094 158.09375 186.25 157.964844 186.378906 157.832031 C 186.503906 157.699219 186.632812 157.558594 186.761719 157.414062 C 186.890625 157.269531 187.019531 157.121094 187.144531 156.96875 C 187.273438 156.816406 187.402344 156.660156 187.53125 156.496094 C 187.660156 156.332031 187.785156 156.164062 187.914062 155.992188 C 188.042969 155.820312 188.171875 155.644531 188.300781 155.464844 C 188.425781 155.28125 188.554688 155.09375 188.683594 154.90625 C 188.8125 154.714844 188.941406 154.519531 189.066406 154.320312 C 189.195312 154.117188 189.324219 153.914062 189.453125 153.703125 C 189.582031 153.496094 189.707031 153.28125 189.835938 153.0625 C 189.964844 152.847656 190.09375 152.625 190.222656 152.394531 C 190.347656 152.167969 190.476562 151.9375 190.605469 151.703125 C 190.734375 151.464844 190.863281 151.226562 190.988281 150.980469 C 191.117188 150.734375 191.246094 150.484375 191.375 150.234375 C 191.503906 149.980469 191.628906 149.722656 191.757812 149.460938 C 191.886719 149.199219 192.015625 148.929688 192.144531 148.660156 C 192.269531 148.390625 192.398438 148.117188 192.527344 147.835938 C 192.65625 147.558594 192.785156 147.273438 192.910156 146.988281 C 193.039062 146.699219 193.167969 146.410156 193.296875 146.113281 C 193.425781 145.820312 193.550781 145.519531 193.679688 145.21875 C 193.808594 144.914062 193.9375 144.605469 194.066406 144.296875 C 194.191406 143.984375 194.320312 143.667969 194.449219 143.351562 C 194.578125 143.03125 194.707031 142.710938 194.832031 142.382812 C 194.960938 142.058594 195.089844 141.726562 195.21875 141.390625 C 195.347656 141.058594 195.472656 140.722656 195.601562 140.378906 C 195.730469 140.039062 195.859375 139.695312 195.988281 139.34375 C 196.113281 138.996094 196.242188 138.644531 196.371094 138.289062 C 196.5 137.933594 196.628906 137.574219 196.753906 137.210938 C 196.882812 136.847656 197.011719 136.484375 197.140625 136.113281 C 197.269531 135.746094 197.394531 135.371094 197.523438 134.996094 C 197.652344 134.621094 197.78125 134.242188 197.910156 133.859375 C 198.035156 133.476562 198.164062 133.089844 198.292969 132.703125 C 198.421875 132.3125 198.550781 131.921875 198.675781 131.527344 C 198.804688 131.128906 198.933594 130.734375 199.0625 130.332031 C 199.191406 129.929688 199.316406 129.527344 199.445312 129.121094 C 199.574219 128.714844 199.703125 128.304688 199.832031 127.890625 C 199.957031 127.480469 200.085938 127.0625 200.214844 126.644531 C 200.34375 126.226562 200.472656 125.804688 200.597656 125.382812 C 200.726562 124.960938 200.855469 124.535156 200.984375 124.105469 C 201.113281 123.675781 201.238281 123.246094 201.367188 122.8125 C 201.496094 122.378906 201.625 121.941406 201.753906 121.503906 C 201.878906 121.066406 202.007812 120.625 202.136719 120.183594 C 202.265625 119.738281 202.394531 119.292969 202.519531 118.847656 C 202.648438 118.398438 202.777344 117.949219 202.90625 117.496094 C 203.035156 117.046875 203.160156 116.589844 203.289062 116.136719 C 203.417969 115.679688 203.546875 115.222656 203.675781 114.761719 C 203.800781 114.300781 203.929688 113.839844 204.058594 113.375 C 204.1875 112.914062 204.316406 112.449219 204.441406 111.980469 C 204.570312 111.511719 204.699219 111.042969 204.828125 110.574219 C 204.957031 110.105469 205.082031 109.632812 205.210938 109.15625 C 205.339844 108.683594 205.46875 108.210938 205.597656 107.730469 C 205.726562 107.253906 205.851562 106.777344 205.980469 106.296875 C 206.109375 105.820312 206.238281 105.339844 206.367188 104.855469 C 206.492188 104.375 206.621094 103.890625 206.75 103.40625 C 206.878906 102.921875 207.007812 102.4375 207.132812 101.949219 C 207.261719 101.464844 207.390625 100.976562 207.519531 100.488281 C 207.648438 100 207.773438 99.507812 207.902344 99.019531 C 208.03125 98.527344 208.160156 98.035156 208.289062 97.542969 C 208.414062 97.054688 208.542969 96.558594 208.671875 96.066406 C 208.800781 95.574219 208.929688 95.078125 209.054688 94.585938 C 209.183594 94.089844 209.3125 93.59375 209.441406 93.097656 C 209.570312 92.601562 209.695312 92.105469 209.824219 91.609375 C 209.953125 91.113281 210.082031 90.617188 210.210938 90.121094 C 210.335938 89.625 210.464844 89.125 210.59375 88.628906 C 210.722656 88.132812 210.851562 87.632812 210.976562 87.136719 L 211.363281 85.644531 C 211.492188 85.144531 211.617188 84.648438 211.746094 84.152344 C 211.875 83.652344 212.003906 83.15625 212.132812 82.660156 C 212.257812 82.160156 212.386719 81.664062 212.515625 81.167969 C 212.644531 80.671875 212.773438 80.175781 212.898438 79.679688 C 213.027344 79.183594 213.15625 78.691406 213.285156 78.195312 C 213.414062 77.699219 213.539062 77.207031 213.667969 76.710938 C 213.796875 76.21875 213.925781 75.726562 214.054688 75.234375 C 214.179688 74.742188 214.308594 74.25 214.4375 73.761719 C 214.566406 73.269531 214.695312 72.78125 214.820312 72.292969 C 214.949219 71.804688 215.078125 71.316406 215.207031 70.828125 C 215.335938 70.34375 215.460938 69.859375 215.589844 69.375 C 215.71875 68.886719 215.847656 68.40625 215.976562 67.921875 C 216.101562 67.441406 216.230469 66.960938 216.359375 66.480469 C 216.488281 66 216.617188 65.523438 216.742188 65.046875 C 216.871094 64.570312 217 64.09375 217.128906 63.621094 C 217.257812 63.148438 217.382812 62.675781 217.511719 62.207031 C 217.640625 61.734375 217.769531 61.265625 217.898438 60.800781 C 218.023438 60.332031 218.152344 59.867188 218.28125 59.402344 C 218.410156 58.9375 218.539062 58.476562 218.664062 58.019531 C 218.792969 57.558594 218.921875 57.101562 219.050781 56.644531 C 219.179688 56.1875 219.304688 55.734375 219.433594 55.28125 C 219.5625 54.832031 219.691406 54.382812 219.820312 53.933594 C 219.945312 53.484375 220.074219 53.039062 220.203125 52.597656 C 220.332031 52.15625 220.460938 51.714844 220.585938 51.277344 C 220.714844 50.835938 220.84375 50.402344 220.972656 49.96875 C 221.101562 49.535156 221.226562 49.101562 221.355469 48.675781 C 221.484375 48.246094 221.613281 47.820312 221.742188 47.394531 C 221.867188 46.972656 221.996094 46.550781 222.125 46.132812 C 222.253906 45.714844 222.382812 45.300781 222.507812 44.886719 C 222.636719 44.476562 222.765625 44.066406 222.894531 43.660156 C 223.023438 43.253906 223.148438 42.847656 223.277344 42.449219 C 223.40625 42.046875 223.535156 41.648438 223.664062 41.253906 C 223.789062 40.859375 223.917969 40.46875 224.046875 40.078125 C 224.175781 39.691406 224.304688 39.304688 224.429688 38.921875 C 224.558594 38.539062 224.6875 38.160156 224.816406 37.785156 C 224.945312 37.40625 225.070312 37.035156 225.199219 36.664062 C 225.328125 36.296875 225.457031 35.929688 225.585938 35.566406 C 225.710938 35.207031 225.839844 34.847656 225.96875 34.492188 C 226.097656 34.136719 226.226562 33.78125 226.351562 33.433594 C 226.480469 33.085938 226.609375 32.742188 226.738281 32.398438 C 226.867188 32.058594 226.992188 31.722656 227.121094 31.386719 C 227.25 31.054688 227.378906 30.722656 227.507812 30.394531 C 227.632812 30.070312 227.761719 29.746094 227.890625 29.429688 C 228.019531 29.109375 228.148438 28.792969 228.273438 28.484375 C 228.402344 28.171875 228.53125 27.867188 228.660156 27.5625 C 228.789062 27.257812 228.914062 26.960938 229.042969 26.664062 C 229.171875 26.371094 229.300781 26.078125 229.429688 25.792969 C 229.554688 25.503906 229.683594 25.222656 229.8125 24.941406 C 229.941406 24.664062 230.070312 24.390625 230.195312 24.117188 C 230.324219 23.847656 230.453125 23.582031 230.582031 23.320312 C 230.710938 23.058594 230.835938 22.800781 230.964844 22.546875 C 231.09375 22.292969 231.222656 22.042969 231.351562 21.800781 C 231.476562 21.554688 231.605469 21.3125 231.734375 21.078125 C 231.863281 20.84375 231.992188 20.609375 232.117188 20.382812 C 232.246094 20.15625 232.375 19.933594 232.503906 19.714844 C 232.632812 19.496094 232.757812 19.285156 232.886719 19.074219 C 233.015625 18.867188 233.144531 18.660156 233.273438 18.460938 C 233.398438 18.261719 233.527344 18.066406 233.65625 17.875 C 233.785156 17.683594 233.914062 17.496094 234.039062 17.316406 C 234.167969 17.136719 234.296875 16.957031 234.425781 16.785156 C 234.554688 16.613281 234.679688 16.445312 234.808594 16.285156 C 234.9375 16.121094 235.066406 15.964844 235.195312 15.808594 C 235.320312 15.65625 235.449219 15.507812 235.578125 15.363281 C 235.707031 15.222656 235.835938 15.082031 235.960938 14.949219 C 236.089844 14.8125 236.21875 14.683594 236.347656 14.5625 C 236.476562 14.4375 236.601562 14.316406 236.730469 14.203125 C 236.859375 14.085938 236.988281 13.976562 237.117188 13.871094 C 237.246094 13.769531 237.371094 13.667969 237.5 13.574219 C 237.628906 13.476562 237.757812 13.386719 237.886719 13.304688 C 238.011719 13.21875 238.140625 13.136719 238.269531 13.0625 C 238.398438 12.988281 238.527344 12.917969 238.652344 12.851562 C 238.78125 12.785156 238.910156 12.726562 239.039062 12.667969 C 239.167969 12.613281 239.292969 12.5625 239.421875 12.519531 C 239.550781 12.472656 239.679688 12.433594 239.808594 12.398438 C 239.933594 12.363281 240.0625 12.332031 240.191406 12.304688 C 240.320312 12.28125 240.449219 12.257812 240.574219 12.242188 C 240.703125 12.226562 240.832031 12.21875 240.960938 12.210938 C 241.089844 12.207031 241.214844 12.207031 241.34375 12.210938 C 241.472656 12.214844 241.601562 12.226562 241.730469 12.238281 C 241.855469 12.253906 241.984375 12.273438 242.113281 12.296875 C 242.242188 12.324219 242.371094 12.351562 242.496094 12.386719 C 242.625 12.421875 242.753906 12.460938 242.882812 12.503906 C 243.011719 12.550781 243.136719 12.601562 243.265625 12.652344 C 243.394531 12.707031 243.523438 12.769531 243.652344 12.832031 C 243.777344 12.898438 243.90625 12.964844 244.035156 13.039062 C 244.164062 13.117188 244.292969 13.195312 244.417969 13.277344 C 244.546875 13.363281 244.675781 13.453125 244.804688 13.546875 C 244.933594 13.640625 245.058594 13.738281 245.1875 13.84375 C 245.316406 13.949219 245.445312 14.054688 245.574219 14.171875 C 245.699219 14.285156 245.828125 14.402344 245.957031 14.527344 C 246.085938 14.648438 246.214844 14.777344 246.339844 14.910156 C 246.46875 15.042969 246.597656 15.179688 246.726562 15.324219 C 246.855469 15.46875 246.980469 15.613281 247.109375 15.765625 C 247.238281 15.917969 247.367188 16.078125 247.496094 16.238281 C 247.621094 16.398438 247.75 16.566406 247.878906 16.738281 C 248.007812 16.910156 248.136719 17.085938 248.261719 17.265625 C 248.390625 17.445312 248.519531 17.632812 248.648438 17.820312 C 248.777344 18.011719 248.902344 18.207031 249.03125 18.40625 C 249.160156 18.605469 249.289062 18.808594 249.417969 19.015625 C 249.542969 19.222656 249.671875 19.4375 249.800781 19.65625 C 249.929688 19.871094 250.058594 20.09375 250.183594 20.320312 C 250.3125 20.546875 250.441406 20.777344 250.570312 21.011719 C 250.699219 21.246094 250.824219 21.488281 250.953125 21.730469 C 251.082031 21.972656 251.210938 22.222656 251.339844 22.476562 C 251.464844 22.726562 251.59375 22.984375 251.722656 23.246094 C 251.851562 23.507812 251.980469 23.773438 252.105469 24.042969 C 252.234375 24.3125 252.363281 24.585938 252.492188 24.863281 C 252.621094 25.140625 252.746094 25.425781 252.875 25.710938 C 253.003906 25.996094 253.132812 26.289062 253.261719 26.582031 C 253.386719 26.875 253.515625 27.175781 253.644531 27.476562 C 253.773438 27.78125 253.902344 28.085938 254.027344 28.394531 C 254.15625 28.707031 254.285156 29.019531 254.414062 29.339844 C 254.542969 29.65625 254.667969 29.980469 254.796875 30.304688 C 254.925781 30.628906 255.054688 30.960938 255.183594 31.292969 C 255.308594 31.625 255.4375 31.964844 255.566406 32.304688 C 255.695312 32.644531 255.824219 32.988281 255.949219 33.335938 C 256.078125 33.683594 256.207031 34.035156 256.335938 34.390625 C 256.464844 34.746094 256.589844 35.105469 256.71875 35.464844 C 256.847656 35.828125 256.976562 36.191406 257.105469 36.5625 C 257.230469 36.929688 257.359375 37.304688 257.488281 37.679688 C 257.617188 38.054688 257.746094 38.433594 257.871094 38.8125 C 258 39.195312 258.128906 39.582031 258.257812 39.96875 C 258.386719 40.355469 258.511719 40.75 258.640625 41.144531 C 258.769531 41.539062 258.898438 41.933594 259.027344 42.335938 C 259.152344 42.734375 259.28125 43.140625 259.410156 43.546875 C 259.539062 43.953125 259.667969 44.359375 259.792969 44.773438 C 259.921875 45.183594 260.050781 45.597656 260.179688 46.015625 C 260.308594 46.433594 260.433594 46.855469 260.5625 47.277344 C 260.691406 47.699219 260.820312 48.125 260.949219 48.554688 C 261.074219 48.980469 261.203125 49.414062 261.332031 49.84375 C 261.460938 50.277344 261.589844 50.714844 261.714844 51.152344 C 261.84375 51.589844 261.972656 52.03125 262.101562 52.472656 C 262.230469 52.914062 262.355469 53.359375 262.484375 53.808594 C 262.613281 54.253906 262.742188 54.703125 262.871094 55.15625 C 262.996094 55.605469 263.125 56.058594 263.253906 56.515625 C 263.382812 56.972656 263.511719 57.429688 263.636719 57.886719 C 263.765625 58.347656 263.894531 58.808594 264.023438 59.273438 C 264.152344 59.734375 264.277344 60.199219 264.40625 60.667969 C 264.535156 61.132812 264.664062 61.601562 264.792969 62.074219 C 264.917969 62.542969 265.046875 63.015625 265.175781 63.488281 C 265.304688 63.960938 265.433594 64.4375 265.558594 64.914062 C 265.6875 65.390625 265.816406 65.867188 265.945312 66.347656 C 266.074219 66.824219 266.199219 67.304688 266.328125 67.789062 C 266.457031 68.269531 266.585938 68.753906 266.714844 69.238281 C 266.839844 69.722656 266.96875 70.207031 267.097656 70.691406 C 267.226562 71.179688 267.355469 71.667969 267.480469 72.15625 C 267.609375 72.644531 267.738281 73.132812 267.867188 73.625 C 267.996094 74.113281 268.121094 74.605469 268.25 75.097656 C 268.378906 75.589844 268.507812 76.082031 268.636719 76.574219 C 268.761719 77.066406 268.890625 77.5625 269.019531 78.054688 C 269.148438 78.550781 269.277344 79.046875 269.40625 79.539062 C 269.53125 80.035156 269.660156 80.53125 269.789062 81.027344 C 269.917969 81.523438 270.046875 82.023438 270.171875 82.519531 C 270.300781 83.015625 270.429688 83.511719 270.558594 84.011719 C 270.6875 84.507812 270.8125 85.003906 270.941406 85.503906 L 271.328125 86.996094 C 271.453125 87.492188 271.582031 87.992188 271.710938 88.488281 C 271.839844 88.988281 271.96875 89.484375 272.09375 89.980469 C 272.222656 90.476562 272.351562 90.976562 272.480469 91.472656 C 272.609375 91.96875 272.734375 92.464844 272.863281 92.960938 C 272.992188 93.457031 273.121094 93.949219 273.25 94.445312 C 273.375 94.941406 273.503906 95.433594 273.632812 95.929688 C 273.761719 96.421875 273.890625 96.914062 274.015625 97.40625 C 274.144531 97.898438 274.273438 98.390625 274.402344 98.878906 C 274.53125 99.371094 274.65625 99.859375 274.785156 100.351562 C 274.914062 100.839844 275.042969 101.328125 275.171875 101.8125 C 275.296875 102.300781 275.425781 102.785156 275.554688 103.269531 C 275.683594 103.753906 275.8125 104.238281 275.9375 104.71875 C 276.066406 105.203125 276.195312 105.683594 276.324219 106.164062 C 276.453125 106.644531 276.578125 107.121094 276.707031 107.597656 C 276.835938 108.074219 276.964844 108.550781 277.09375 109.023438 C 277.21875 109.5 277.347656 109.972656 277.476562 110.441406 C 277.605469 110.914062 277.734375 111.382812 277.859375 111.847656 C 277.988281 112.316406 278.117188 112.78125 278.246094 113.246094 C 278.375 113.710938 278.5 114.171875 278.628906 114.632812 C 278.757812 115.09375 278.886719 115.550781 279.015625 116.007812 C 279.140625 116.464844 279.269531 116.917969 279.398438 117.371094 C 279.527344 117.820312 279.65625 118.273438 279.78125 118.71875 C 279.910156 119.167969 280.039062 119.613281 280.167969 120.058594 C 280.296875 120.5 280.421875 120.941406 280.550781 121.378906 C 280.679688 121.820312 280.808594 122.257812 280.9375 122.691406 C 281.0625 123.125 281.191406 123.554688 281.320312 123.984375 C 281.449219 124.414062 281.578125 124.839844 281.703125 125.265625 C 281.832031 125.6875 281.960938 126.109375 282.089844 126.527344 C 282.21875 126.945312 282.34375 127.363281 282.472656 127.773438 C 282.601562 128.1875 282.730469 128.597656 282.859375 129.003906 C 282.984375 129.414062 283.113281 129.816406 283.242188 130.21875 C 283.371094 130.621094 283.5 131.019531 283.625 131.414062 C 283.753906 131.808594 283.882812 132.203125 284.011719 132.59375 C 284.140625 132.980469 284.265625 133.367188 284.394531 133.75 C 284.523438 134.132812 284.652344 134.511719 284.78125 134.890625 C 284.90625 135.265625 285.035156 135.640625 285.164062 136.007812 C 285.292969 136.378906 285.421875 136.746094 285.546875 137.109375 C 285.675781 137.472656 285.804688 137.832031 285.933594 138.1875 C 286.0625 138.542969 286.1875 138.898438 286.316406 139.246094 C 286.445312 139.597656 286.574219 139.941406 286.703125 140.285156 C 286.828125 140.625 286.957031 140.964844 287.085938 141.296875 C 287.214844 141.632812 287.34375 141.964844 287.46875 142.292969 C 287.597656 142.617188 287.726562 142.941406 287.855469 143.261719 C 287.984375 143.582031 288.109375 143.898438 288.238281 144.207031 C 288.367188 144.519531 288.496094 144.828125 288.625 145.132812 C 288.75 145.4375 288.878906 145.734375 289.007812 146.03125 C 289.136719 146.328125 289.265625 146.621094 289.390625 146.90625 C 289.519531 147.195312 289.648438 147.480469 289.777344 147.757812 C 289.90625 148.039062 290.03125 148.3125 290.160156 148.585938 C 290.289062 148.855469 290.417969 149.125 290.546875 149.386719 C 290.671875 149.648438 290.800781 149.90625 290.929688 150.160156 C 291.058594 150.414062 291.1875 150.664062 291.3125 150.910156 C 291.441406 151.15625 291.570312 151.398438 291.699219 151.636719 C 291.828125 151.871094 291.953125 152.105469 292.082031 152.332031 C 292.210938 152.558594 292.339844 152.785156 292.46875 153.003906 C 292.59375 153.222656 292.722656 153.4375 292.851562 153.644531 C 292.980469 153.855469 293.109375 154.0625 293.234375 154.261719 C 293.363281 154.464844 293.492188 154.660156 293.621094 154.851562 C 293.75 155.042969 293.875 155.230469 294.003906 155.410156 C 294.132812 155.59375 294.261719 155.773438 294.390625 155.945312 C 294.515625 156.117188 294.644531 156.285156 294.773438 156.449219 C 294.902344 156.613281 295.03125 156.773438 295.15625 156.925781 C 295.285156 157.082031 295.414062 157.230469 295.542969 157.375 C 295.671875 157.519531 295.796875 157.660156 295.925781 157.792969 C 296.054688 157.929688 296.183594 158.058594 296.3125 158.183594 C 296.4375 158.308594 296.566406 158.429688 296.695312 158.546875 C 296.824219 158.660156 296.953125 158.769531 297.078125 158.875 C 297.207031 158.984375 297.335938 159.082031 297.464844 159.179688 C 297.59375 159.277344 297.71875 159.367188 297.847656 159.453125 C 297.976562 159.539062 298.105469 159.621094 298.234375 159.695312 C 298.359375 159.773438 298.488281 159.84375 298.617188 159.910156 C 298.746094 159.976562 298.875 160.039062 299 160.09375 C 299.128906 160.152344 299.257812 160.203125 299.386719 160.25 C 299.515625 160.292969 299.640625 160.335938 299.769531 160.371094 C 299.898438 160.410156 300.027344 160.441406 300.15625 160.46875 C 300.28125 160.492188 300.410156 160.515625 300.539062 160.53125 C 300.667969 160.546875 300.796875 160.558594 300.921875 160.566406 C 301.050781 160.570312 301.179688 160.574219 301.308594 160.570312 C 301.4375 160.566406 301.566406 160.558594 301.691406 160.542969 C 301.820312 160.53125 301.949219 160.511719 302.078125 160.488281 C 302.207031 160.464844 302.332031 160.4375 302.460938 160.402344 C 302.589844 160.367188 302.71875 160.328125 302.847656 160.285156 C 302.972656 160.242188 303.101562 160.195312 303.230469 160.140625 C 303.359375 160.085938 303.488281 160.027344 303.613281 159.964844 C 303.742188 159.902344 303.871094 159.832031 304 159.757812 C 304.128906 159.6875 304.253906 159.609375 304.382812 159.523438 C 304.511719 159.441406 304.640625 159.351562 304.769531 159.257812 C 304.894531 159.167969 305.023438 159.066406 305.152344 158.964844 C 305.28125 158.863281 305.410156 158.753906 305.535156 158.640625 C 305.664062 158.527344 305.792969 158.410156 305.921875 158.289062 C 306.050781 158.164062 306.175781 158.039062 306.304688 157.90625 C 306.433594 157.773438 306.5625 157.636719 306.691406 157.496094 C 306.816406 157.351562 306.945312 157.207031 307.074219 157.054688 C 307.203125 156.902344 307.332031 156.746094 307.457031 156.585938 C 307.585938 156.425781 307.714844 156.261719 307.84375 156.089844 C 307.972656 155.917969 308.097656 155.746094 308.226562 155.566406 C 308.355469 155.386719 308.484375 155.199219 308.613281 155.011719 C 308.738281 154.824219 308.867188 154.628906 308.996094 154.429688 C 309.125 154.230469 309.253906 154.03125 309.378906 153.820312 C 309.507812 153.613281 309.636719 153.402344 309.765625 153.1875 C 309.894531 152.96875 310.019531 152.75 310.148438 152.523438 C 310.277344 152.296875 310.40625 152.066406 310.535156 151.832031 C 310.660156 151.597656 310.789062 151.359375 310.917969 151.117188 C 311.046875 150.875 311.175781 150.625 311.300781 150.375 C 311.429688 150.125 311.558594 149.867188 311.6875 149.605469 C 311.816406 149.347656 311.941406 149.082031 312.070312 148.8125 C 312.199219 148.542969 312.328125 148.269531 312.457031 147.992188 C 312.582031 147.714844 312.710938 147.433594 312.839844 147.148438 C 312.96875 146.863281 313.097656 146.574219 313.222656 146.28125 C 313.351562 145.988281 313.480469 145.6875 313.609375 145.386719 C 313.738281 145.085938 313.863281 144.78125 313.992188 144.46875 C 314.121094 144.160156 314.25 143.847656 314.378906 143.53125 C 314.503906 143.210938 314.632812 142.890625 314.761719 142.566406 C 314.890625 142.242188 315.019531 141.914062 315.144531 141.578125 C 315.273438 141.246094 315.402344 140.910156 315.53125 140.570312 C 315.660156 140.230469 315.785156 139.886719 315.914062 139.539062 C 316.042969 139.195312 316.171875 138.84375 316.300781 138.488281 C 316.425781 138.132812 316.554688 137.777344 316.683594 137.414062 C 316.8125 137.054688 316.941406 136.6875 317.066406 136.320312 C 317.195312 135.953125 317.324219 135.582031 317.453125 135.207031 C 317.582031 134.832031 317.707031 134.453125 317.835938 134.074219 C 317.964844 133.691406 318.09375 133.308594 318.222656 132.917969 C 318.347656 132.53125 318.476562 132.140625 318.605469 131.746094 C 318.734375 131.355469 318.863281 130.957031 318.988281 130.558594 C 319.117188 130.15625 319.246094 129.753906 319.375 129.347656 C 319.503906 128.941406 319.628906 128.535156 319.757812 128.121094 C 319.886719 127.710938 320.015625 127.296875 320.144531 126.878906 C 320.269531 126.464844 320.398438 126.042969 320.527344 125.621094 C 320.65625 125.199219 320.785156 124.773438 320.910156 124.347656 C 321.039062 123.917969 321.167969 123.488281 321.296875 123.054688 C 321.425781 122.621094 321.550781 122.1875 321.679688 121.75 C 321.808594 121.3125 321.9375 120.871094 322.066406 120.429688 C 322.191406 119.988281 322.320312 119.542969 322.449219 119.097656 C 322.578125 118.652344 322.707031 118.203125 322.832031 117.75 C 322.960938 117.300781 323.089844 116.847656 323.21875 116.390625 C 323.347656 115.9375 323.472656 115.480469 323.601562 115.019531 C 323.730469 114.5625 323.859375 114.101562 323.988281 113.636719 C 324.113281 113.175781 324.242188 112.710938 324.371094 112.242188 C 324.5 111.777344 324.628906 111.308594 324.753906 110.839844 C 324.882812 110.367188 325.011719 109.898438 325.140625 109.425781 C 325.269531 108.949219 325.394531 108.476562 325.523438 108 C 325.652344 107.523438 325.78125 107.046875 325.910156 106.566406 C 326.035156 106.089844 326.164062 105.609375 326.292969 105.128906 C 326.421875 104.644531 326.550781 104.164062 326.675781 103.679688 C 326.804688 103.195312 326.933594 102.710938 327.0625 102.222656 C 327.191406 101.738281 327.316406 101.25 327.445312 100.761719 C 327.574219 100.273438 327.703125 99.785156 327.832031 99.292969 C 327.957031 98.804688 328.085938 98.3125 328.214844 97.820312 C 328.34375 97.328125 328.472656 96.835938 328.597656 96.34375 C 328.726562 95.851562 328.855469 95.355469 328.984375 94.863281 C 329.113281 94.367188 329.238281 93.875 329.367188 93.378906 C 329.496094 92.882812 329.625 92.386719 329.753906 91.890625 C 329.878906 91.394531 330.007812 90.898438 330.136719 90.398438 C 330.265625 89.902344 330.394531 89.40625 330.519531 88.910156 C 330.648438 88.410156 330.777344 87.914062 330.90625 87.417969 C 331.035156 86.917969 331.160156 86.421875 331.289062 85.921875 C 331.417969 85.425781 331.546875 84.929688 331.675781 84.429688 C 331.800781 83.933594 331.929688 83.433594 332.058594 82.9375 C 332.1875 82.441406 332.316406 81.945312 332.441406 81.449219 C 332.570312 80.953125 332.699219 80.453125 332.828125 79.960938 C 332.957031 79.464844 333.082031 78.96875 333.210938 78.472656 C 333.339844 77.976562 333.46875 77.484375 333.597656 76.992188 C 333.726562 76.496094 333.851562 76.003906 333.980469 75.511719 C 334.109375 75.019531 334.238281 74.527344 334.367188 74.035156 C 334.492188 73.546875 334.621094 73.054688 334.75 72.566406 C 334.878906 72.078125 335.007812 71.589844 335.132812 71.101562 C 335.261719 70.617188 335.390625 70.128906 335.519531 69.644531 C 335.648438 69.160156 335.773438 68.675781 335.902344 68.195312 C 336.03125 67.710938 336.160156 67.230469 336.289062 66.75 C 336.414062 66.269531 336.542969 65.792969 336.671875 65.316406 C 336.800781 64.839844 336.929688 64.363281 337.054688 63.886719 C 337.183594 63.414062 337.3125 62.941406 337.441406 62.46875 C 337.570312 62 337.695312 61.53125 337.824219 61.0625 C 337.953125 60.59375 338.082031 60.128906 338.210938 59.664062 C 338.335938 59.199219 338.464844 58.738281 338.59375 58.277344 C 338.722656 57.816406 338.851562 57.355469 338.976562 56.902344 C 339.105469 56.445312 339.234375 55.988281 339.363281 55.535156 C 339.492188 55.085938 339.617188 54.632812 339.746094 54.183594 C 339.875 53.738281 340.003906 53.289062 340.132812 52.847656 C 340.257812 52.402344 340.386719 51.960938 340.515625 51.523438 C 340.644531 51.082031 340.773438 50.644531 340.898438 50.210938 C 341.027344 49.777344 341.15625 49.34375 341.285156 48.914062 C 341.414062 48.484375 341.539062 48.058594 341.667969 47.636719 C 341.796875 47.210938 341.925781 46.789062 342.054688 46.371094 C 342.179688 45.949219 342.308594 45.535156 342.4375 45.121094 C 342.566406 44.707031 342.695312 44.296875 342.820312 43.886719 C 342.949219 43.480469 343.078125 43.074219 343.207031 42.671875 C 343.335938 42.273438 343.460938 41.871094 343.589844 41.476562 C 343.71875 41.082031 343.847656 40.6875 343.976562 40.296875 C 344.101562 39.90625 344.230469 39.519531 344.359375 39.136719 C 344.488281 38.753906 344.617188 38.371094 344.742188 37.996094 C 344.871094 37.617188 345 37.246094 345.128906 36.875 C 345.257812 36.503906 345.382812 36.136719 345.511719 35.773438 C 345.640625 35.410156 345.769531 35.046875 345.898438 34.691406 C 346.023438 34.335938 346.152344 33.980469 346.28125 33.632812 C 346.410156 33.28125 346.539062 32.933594 346.664062 32.59375 C 346.792969 32.25 346.921875 31.910156 347.050781 31.574219 C 347.179688 31.238281 347.304688 30.910156 347.433594 30.582031 C 347.5625 30.253906 347.691406 29.929688 347.820312 29.609375 C 347.945312 29.289062 348.074219 28.972656 348.203125 28.660156 C 348.332031 28.347656 348.460938 28.039062 348.585938 27.734375 C 348.714844 27.429688 348.84375 27.128906 348.972656 26.832031 C 349.101562 26.535156 349.226562 26.242188 349.355469 25.953125 C 349.484375 25.664062 349.613281 25.378906 349.742188 25.101562 C 349.867188 24.820312 349.996094 24.542969 350.125 24.269531 C 350.253906 24 350.382812 23.730469 350.507812 23.46875 C 350.636719 23.203125 350.765625 22.945312 350.894531 22.691406 C 351.023438 22.433594 351.148438 22.183594 351.277344 21.9375 C 351.40625 21.691406 351.535156 21.449219 351.664062 21.210938 C 351.789062 20.972656 351.917969 20.742188 352.046875 20.511719 C 352.175781 20.28125 352.304688 20.058594 352.429688 19.839844 C 352.558594 19.617188 352.6875 19.402344 352.816406 19.191406 C 352.945312 18.980469 353.070312 18.777344 353.199219 18.574219 C 353.328125 18.371094 353.457031 18.175781 353.585938 17.984375 C 353.710938 17.789062 353.839844 17.601562 353.96875 17.417969 C 354.097656 17.234375 354.226562 17.058594 354.351562 16.882812 C 354.480469 16.710938 354.609375 16.539062 354.738281 16.375 C 354.867188 16.210938 354.992188 16.050781 355.121094 15.898438 C 355.25 15.742188 355.378906 15.589844 355.507812 15.445312 C 355.632812 15.300781 355.761719 15.160156 355.890625 15.023438 C 356.019531 14.886719 356.148438 14.757812 356.273438 14.632812 C 356.402344 14.503906 356.53125 14.382812 356.660156 14.265625 C 356.789062 14.152344 356.914062 14.039062 357.042969 13.933594 C 357.171875 13.824219 357.300781 13.722656 357.429688 13.628906 C 357.554688 13.53125 357.683594 13.4375 357.8125 13.351562 C 357.941406 13.265625 358.070312 13.183594 358.195312 13.105469 C 358.324219 13.027344 358.453125 12.957031 358.582031 12.886719 C 358.710938 12.820312 358.835938 12.757812 358.964844 12.703125 C 359.09375 12.644531 359.222656 12.589844 359.351562 12.542969 C 359.476562 12.496094 359.605469 12.453125 359.734375 12.417969 C 359.863281 12.378906 359.992188 12.347656 360.117188 12.320312 C 360.246094 12.292969 360.375 12.269531 360.503906 12.253906 C 360.632812 12.234375 360.757812 12.222656 360.886719 12.214844 C 361.015625 12.207031 361.144531 12.207031 361.273438 12.210938 C 361.398438 12.210938 361.527344 12.21875 361.65625 12.230469 C 361.785156 12.246094 361.914062 12.261719 362.039062 12.285156 C 362.167969 12.308594 362.296875 12.335938 362.425781 12.367188 C 362.554688 12.402344 362.679688 12.4375 362.808594 12.480469 C 362.9375 12.523438 363.066406 12.570312 363.195312 12.625 C 363.320312 12.675781 363.449219 12.734375 363.578125 12.796875 C 363.707031 12.859375 363.835938 12.925781 363.960938 13 C 364.089844 13.070312 364.21875 13.148438 364.347656 13.230469 C 364.476562 13.3125 364.601562 13.402344 364.730469 13.492188 C 364.859375 13.585938 364.988281 13.683594 365.117188 13.785156 C 365.246094 13.886719 365.371094 13.996094 365.5 14.105469 C 365.628906 14.21875 365.757812 14.335938 365.886719 14.457031 C 366.011719 14.578125 366.140625 14.703125 366.269531 14.835938 C 366.398438 14.96875 366.527344 15.105469 366.652344 15.246094 C 366.78125 15.386719 366.910156 15.53125 367.039062 15.683594 C 367.167969 15.832031 367.292969 15.988281 367.421875 16.148438 C 367.550781 16.308594 367.679688 16.472656 367.808594 16.640625 C 367.933594 16.8125 368.0625 16.984375 368.191406 17.164062 C 368.320312 17.34375 368.449219 17.527344 368.574219 17.714844 C 368.703125 17.902344 368.832031 18.097656 368.960938 18.292969 C 369.089844 18.492188 369.214844 18.691406 369.34375 18.898438 C 369.472656 19.105469 369.601562 19.316406 369.730469 19.53125 C 369.855469 19.75 369.984375 19.96875 370.113281 20.191406 C 370.242188 20.417969 370.371094 20.648438 370.496094 20.878906 C 370.625 21.113281 370.753906 21.351562 370.882812 21.59375 C 371.011719 21.835938 371.136719 22.082031 371.265625 22.332031 C 371.394531 22.585938 371.523438 22.839844 371.652344 23.101562 C 371.777344 23.359375 371.90625 23.625 372.035156 23.890625 C 372.164062 24.160156 372.292969 24.433594 372.417969 24.707031 C 372.546875 24.984375 372.675781 25.265625 372.804688 25.550781 C 372.933594 25.835938 373.058594 26.125 373.1875 26.417969 C 373.316406 26.710938 373.445312 27.007812 373.574219 27.308594 C 373.699219 27.609375 373.828125 27.914062 373.957031 28.222656 C 374.085938 28.53125 374.214844 28.84375 374.339844 29.160156 C 374.46875 29.476562 374.597656 29.796875 374.726562 30.121094 C 374.855469 30.445312 374.980469 30.773438 375.109375 31.105469 C 375.238281 31.4375 375.367188 31.773438 375.496094 32.113281 C 375.621094 32.453125 375.75 32.792969 375.878906 33.140625 C 376.007812 33.488281 376.136719 33.839844 376.261719 34.191406 C 376.390625 34.546875 376.519531 34.902344 376.648438 35.261719 C 376.777344 35.625 376.902344 35.988281 377.03125 36.355469 C 377.160156 36.722656 377.289062 37.09375 377.417969 37.46875 C 377.542969 37.839844 377.671875 38.21875 377.800781 38.597656 C 377.929688 38.980469 378.058594 39.363281 378.183594 39.75 C 378.3125 40.136719 378.441406 40.527344 378.570312 40.921875 C 378.699219 41.316406 378.824219 41.710938 378.953125 42.109375 C 379.082031 42.507812 379.210938 42.910156 379.339844 43.316406 C 379.464844 43.722656 379.59375 44.128906 379.722656 44.542969 C 379.851562 44.953125 379.980469 45.367188 380.105469 45.78125 C 380.234375 46.199219 380.363281 46.617188 380.492188 47.039062 C 380.621094 47.460938 380.746094 47.886719 380.875 48.3125 C 381.003906 48.742188 381.132812 49.171875 381.261719 49.601562 C 381.386719 50.035156 381.515625 50.46875 381.644531 50.90625 C 381.773438 51.34375 381.902344 51.78125 382.027344 52.222656 C 382.15625 52.667969 382.285156 53.109375 382.414062 53.554688 C 382.542969 54.003906 382.667969 54.453125 382.796875 54.902344 C 382.925781 55.351562 383.054688 55.804688 383.183594 56.261719 C 383.308594 56.714844 383.4375 57.171875 383.566406 57.628906 C 383.695312 58.089844 383.824219 58.550781 383.949219 59.011719 C 384.078125 59.476562 384.207031 59.9375 384.335938 60.40625 C 384.464844 60.871094 384.589844 61.339844 384.71875 61.808594 C 384.847656 62.277344 384.976562 62.75 385.105469 63.222656 C 385.230469 63.695312 385.359375 64.167969 385.488281 64.644531 C 385.617188 65.121094 385.746094 65.597656 385.871094 66.078125 C 386 66.554688 386.128906 67.035156 386.257812 67.515625 C 386.386719 68 386.511719 68.480469 386.640625 68.964844 C 386.769531 69.449219 386.898438 69.933594 387.027344 70.417969 C 387.152344 70.90625 387.28125 71.390625 387.410156 71.878906 C 387.539062 72.367188 387.667969 72.859375 387.792969 73.347656 C 387.921875 73.835938 388.050781 74.328125 388.179688 74.820312 C 388.308594 75.3125 388.433594 75.804688 388.5625 76.296875 C 388.691406 76.789062 388.820312 77.285156 388.949219 77.777344 C 389.074219 78.273438 389.203125 78.765625 389.332031 79.261719 C 389.460938 79.757812 389.589844 80.253906 389.714844 80.75 C 389.84375 81.246094 389.972656 81.742188 390.101562 82.238281 C 390.230469 82.738281 390.355469 83.234375 390.484375 83.730469 C 390.613281 84.226562 390.742188 84.726562 390.871094 85.222656 C 390.996094 85.722656 391.125 86.21875 391.253906 86.714844 C 391.382812 87.214844 391.511719 87.710938 391.636719 88.210938 C 391.765625 88.707031 391.894531 89.203125 392.023438 89.703125 C 392.152344 90.199219 392.277344 90.695312 392.40625 91.191406 C 392.535156 91.6875 392.664062 92.183594 392.792969 92.679688 C 392.917969 93.175781 393.046875 93.671875 393.175781 94.167969 C 393.304688 94.660156 393.433594 95.15625 393.558594 95.648438 C 393.6875 96.144531 393.816406 96.636719 393.945312 97.128906 C 394.074219 97.621094 394.199219 98.113281 394.328125 98.605469 C 394.457031 99.09375 394.585938 99.585938 394.714844 100.074219 C 394.839844 100.5625 394.96875 101.050781 395.097656 101.539062 C 395.226562 102.027344 395.355469 102.511719 395.480469 102.996094 C 395.609375 103.484375 395.738281 103.964844 395.867188 104.449219 C 395.996094 104.933594 396.121094 105.414062 396.25 105.894531 C 396.378906 106.375 396.507812 106.851562 396.636719 107.328125 C 396.761719 107.808594 396.890625 108.285156 397.019531 108.757812 C 397.148438 109.230469 397.277344 109.707031 397.40625 110.175781 C 397.53125 110.648438 397.660156 111.117188 397.789062 111.585938 C 397.917969 112.054688 398.046875 112.519531 398.171875 112.984375 C 398.300781 113.449219 398.429688 113.914062 398.558594 114.375 C 398.6875 114.835938 398.8125 115.292969 398.941406 115.75 C 399.070312 116.207031 399.199219 116.664062 399.328125 117.117188 C 399.453125 117.566406 399.582031 118.019531 399.710938 118.46875 C 399.839844 118.917969 399.96875 119.363281 400.09375 119.808594 C 400.222656 120.25 400.351562 120.695312 400.480469 121.132812 C 400.609375 121.574219 400.734375 122.011719 400.863281 122.445312 C 400.992188 122.878906 401.121094 123.3125 401.25 123.742188 C 401.375 124.171875 401.503906 124.601562 401.632812 125.023438 C 401.761719 125.449219 401.890625 125.871094 402.015625 126.292969 C 402.144531 126.710938 402.273438 127.128906 402.402344 127.542969 C 402.53125 127.957031 402.65625 128.367188 402.785156 128.777344 C 402.914062 129.183594 403.042969 129.589844 403.171875 129.992188 "/>
<path style=" stroke:none;fill-rule:nonzero;fill:rgb(0%,0%,0%);fill-opacity:1;" d="M 281.898438 94.125 L 284.148438 94.125 C 283.492188 97.0625 283.304688 97.9375 283.304688 99.28125 C 283.304688 99.5625 283.304688 100.09375 283.460938 100.78125 C 283.679688 101.65625 283.898438 101.78125 284.179688 101.78125 C 284.585938 101.78125 285.023438 101.4375 285.023438 101.03125 C 285.023438 100.90625 285.023438 100.875 284.898438 100.59375 C 284.304688 99.15625 284.304688 97.84375 284.304688 97.28125 C 284.304688 96.25 284.460938 95.15625 284.679688 94.125 L 286.929688 94.125 C 287.210938 94.125 287.929688 94.125 287.929688 93.4375 C 287.929688 92.96875 287.492188 92.96875 287.117188 92.96875 L 280.429688 92.96875 C 279.992188 92.96875 279.242188 92.96875 278.367188 93.90625 C 277.679688 94.6875 277.148438 95.59375 277.148438 95.6875 C 277.148438 95.71875 277.148438 95.90625 277.398438 95.90625 C 277.554688 95.90625 277.585938 95.8125 277.710938 95.65625 C 278.679688 94.125 279.835938 94.125 280.242188 94.125 L 281.367188 94.125 C 280.742188 96.53125 279.679688 98.9375 278.835938 100.75 C 278.679688 101.0625 278.679688 101.09375 278.679688 101.25 C 278.679688 101.625 278.992188 101.78125 279.242188 101.78125 C 279.835938 101.78125 279.992188 101.21875 280.242188 100.5 C 280.523438 99.5625 280.523438 99.53125 280.773438 98.53125 Z M 281.898438 94.125 "/>
<path style=" stroke:none;fill-rule:nonzero;fill:rgb(0%,0%,0%);fill-opacity:1;" d="M 333.566406 100.03125 L 335.691406 97.96875 C 338.785156 95.21875 339.972656 94.15625 339.972656 92.15625 C 339.972656 89.875 338.191406 88.28125 335.753906 88.28125 C 333.503906 88.28125 332.035156 90.125 332.035156 91.90625 C 332.035156 93 333.035156 93 333.097656 93 C 333.441406 93 334.128906 92.78125 334.128906 91.9375 C 334.128906 91.4375 333.753906 90.90625 333.066406 90.90625 C 332.910156 90.90625 332.878906 90.90625 332.816406 90.9375 C 333.253906 89.625 334.347656 88.90625 335.503906 88.90625 C 337.316406 88.90625 338.160156 90.53125 338.160156 92.15625 C 338.160156 93.75 337.191406 95.3125 336.066406 96.5625 L 332.253906 100.8125 C 332.035156 101.03125 332.035156 101.09375 332.035156 101.5625 L 339.441406 101.5625 L 339.972656 98.09375 L 339.503906 98.09375 C 339.378906 98.6875 339.253906 99.5625 339.035156 99.875 C 338.910156 100.03125 337.597656 100.03125 337.160156 100.03125 Z M 333.566406 100.03125 "/>
<path style=" stroke:none;fill-rule:nonzero;fill:rgb(0%,0%,0%);fill-opacity:1;" d="M 346.277344 94.125 L 348.527344 94.125 C 347.871094 97.0625 347.683594 97.9375 347.683594 99.28125 C 347.683594 99.5625 347.683594 100.09375 347.839844 100.78125 C 348.058594 101.65625 348.277344 101.78125 348.558594 101.78125 C 348.964844 101.78125 349.402344 101.4375 349.402344 101.03125 C 349.402344 100.90625 349.402344 100.875 349.277344 100.59375 C 348.683594 99.15625 348.683594 97.84375 348.683594 97.28125 C 348.683594 96.25 348.839844 95.15625 349.058594 94.125 L 351.308594 94.125 C 351.589844 94.125 352.308594 94.125 352.308594 93.4375 C 352.308594 92.96875 351.871094 92.96875 351.496094 92.96875 L 344.808594 92.96875 C 344.371094 92.96875 343.621094 92.96875 342.746094 93.90625 C 342.058594 94.6875 341.527344 95.59375 341.527344 95.6875 C 341.527344 95.71875 341.527344 95.90625 341.777344 95.90625 C 341.933594 95.90625 341.964844 95.8125 342.089844 95.65625 C 343.058594 94.125 344.214844 94.125 344.621094 94.125 L 345.746094 94.125 C 345.121094 96.53125 344.058594 98.9375 343.214844 100.75 C 343.058594 101.0625 343.058594 101.09375 343.058594 101.25 C 343.058594 101.625 343.371094 101.78125 343.621094 101.78125 C 344.214844 101.78125 344.371094 101.21875 344.621094 100.5 C 344.902344 99.5625 344.902344 99.53125 345.152344 98.53125 Z M 346.277344 94.125 "/>
<path style=" stroke:none;fill-rule:nonzero;fill:rgb(0%,0%,0%);fill-opacity:1;" d="M 402.085938 94.3125 C 403.710938 93.78125 404.867188 92.40625 404.867188 90.8125 C 404.867188 89.1875 403.117188 88.0625 401.210938 88.0625 C 399.210938 88.0625 397.679688 89.25 397.679688 90.78125 C 397.679688 91.4375 398.117188 91.8125 398.710938 91.8125 C 399.304688 91.8125 399.710938 91.375 399.710938 90.78125 C 399.710938 89.8125 398.773438 89.8125 398.492188 89.8125 C 399.085938 88.8125 400.398438 88.5625 401.117188 88.5625 C 401.960938 88.5625 403.054688 89 403.054688 90.78125 C 403.054688 91.03125 402.992188 92.1875 402.492188 93.0625 C 401.898438 94.03125 401.210938 94.09375 400.710938 94.09375 C 400.554688 94.125 400.085938 94.15625 399.929688 94.15625 C 399.773438 94.1875 399.648438 94.21875 399.648438 94.40625 C 399.648438 94.625 399.773438 94.625 400.117188 94.625 L 400.992188 94.625 C 402.617188 94.625 403.367188 95.96875 403.367188 97.9375 C 403.367188 100.65625 401.992188 101.21875 401.117188 101.21875 C 400.242188 101.21875 398.742188 100.875 398.054688 99.71875 C 398.742188 99.8125 399.367188 99.375 399.367188 98.625 C 399.367188 97.90625 398.835938 97.5 398.273438 97.5 C 397.773438 97.5 397.148438 97.78125 397.148438 98.65625 C 397.148438 100.46875 398.992188 101.78125 401.179688 101.78125 C 403.617188 101.78125 405.429688 99.96875 405.429688 97.9375 C 405.429688 96.3125 404.148438 94.75 402.085938 94.3125 Z M 402.085938 94.3125 "/>
<g clip-path="url(#clip2)" clip-rule="nonzero">
<path style=" stroke:none;fill-rule:nonzero;fill:rgb(0%,0%,0%);fill-opacity:1;" d="M 411.550781 93.90625 L 413.800781 93.90625 C 413.144531 96.84375 412.957031 97.71875 412.957031 99.0625 C 412.957031 99.34375 412.957031 99.875 413.113281 100.5625 C 413.332031 101.4375 413.550781 101.5625 413.832031 101.5625 C 414.238281 101.5625 414.675781 101.21875 414.675781 100.8125 C 414.675781 100.6875 414.675781 100.65625 414.550781 100.375 C 413.957031 98.9375 413.957031 97.625 413.957031 97.0625 C 413.957031 96.03125 414.113281 94.9375 414.332031 93.90625 L 416.582031 93.90625 C 416.863281 93.90625 417.582031 93.90625 417.582031 93.21875 C 417.582031 92.75 417.144531 92.75 416.769531 92.75 L 410.082031 92.75 C 409.644531 92.75 408.894531 92.75 408.019531 93.6875 C 407.332031 94.46875 406.800781 95.375 406.800781 95.46875 C 406.800781 95.5 406.800781 95.6875 407.050781 95.6875 C 407.207031 95.6875 407.238281 95.59375 407.363281 95.4375 C 408.332031 93.90625 409.488281 93.90625 409.894531 93.90625 L 411.019531 93.90625 C 410.394531 96.3125 409.332031 98.71875 408.488281 100.53125 C 408.332031 100.84375 408.332031 100.875 408.332031 101.03125 C 408.332031 101.40625 408.644531 101.5625 408.894531 101.5625 C 409.488281 101.5625 409.644531 101 409.894531 100.28125 C 410.175781 99.34375 410.175781 99.3125 410.425781 98.3125 Z M 411.550781 93.90625 "/>
</g>
<path style=" stroke:none;fill-rule:nonzero;fill:rgb(0%,0%,0%);fill-opacity:1;" d="M 137.449219 97.929688 C 137.722656 97.929688 138.023438 97.929688 138.023438 97.605469 C 138.023438 97.304688 137.722656 97.304688 137.449219 97.304688 L 128.824219 97.304688 C 128.546875 97.304688 128.273438 97.304688 128.273438 97.605469 C 128.273438 97.929688 128.546875 97.929688 128.824219 97.929688 Z M 137.449219 97.929688 "/>
<path style=" stroke:none;fill-rule:nonzero;fill:rgb(0%,0%,0%);fill-opacity:1;" d="M 143.570312 95.65625 L 145.371094 95.65625 C 144.847656 98.003906 144.695312 98.703125 144.695312 99.78125 C 144.695312 100.003906 144.695312 100.429688 144.820312 100.980469 C 144.996094 101.679688 145.171875 101.78125 145.394531 101.78125 C 145.722656 101.78125 146.070312 101.503906 146.070312 101.179688 C 146.070312 101.078125 146.070312 101.054688 145.972656 100.828125 C 145.496094 99.679688 145.496094 98.628906 145.496094 98.179688 C 145.496094 97.355469 145.621094 96.480469 145.796875 95.65625 L 147.597656 95.65625 C 147.820312 95.65625 148.394531 95.65625 148.394531 95.105469 C 148.394531 94.730469 148.046875 94.730469 147.746094 94.730469 L 142.394531 94.730469 C 142.046875 94.730469 141.445312 94.730469 140.746094 95.480469 C 140.195312 96.105469 139.769531 96.828125 139.769531 96.90625 C 139.769531 96.929688 139.769531 97.078125 139.972656 97.078125 C 140.097656 97.078125 140.121094 97.003906 140.222656 96.878906 C 140.996094 95.65625 141.921875 95.65625 142.246094 95.65625 L 143.144531 95.65625 C 142.644531 97.578125 141.796875 99.503906 141.121094 100.953125 C 140.996094 101.203125 140.996094 101.230469 140.996094 101.355469 C 140.996094 101.65625 141.246094 101.78125 141.445312 101.78125 C 141.921875 101.78125 142.046875 101.328125 142.246094 100.753906 C 142.472656 100.003906 142.472656 99.980469 142.671875 99.179688 Z M 143.570312 95.65625 "/>
<path style=" stroke:none;fill-rule:nonzero;fill:rgb(0%,0%,0%);fill-opacity:1;" d="M 64.074219 97.929688 C 64.347656 97.929688 64.648438 97.929688 64.648438 97.605469 C 64.648438 97.304688 64.347656 97.304688 64.074219 97.304688 L 55.449219 97.304688 C 55.175781 97.304688 54.898438 97.304688 54.898438 97.605469 C 54.898438 97.929688 55.175781 97.929688 55.449219 97.929688 Z M 64.074219 97.929688 "/>
<path style=" stroke:none;fill-rule:nonzero;fill:rgb(0%,0%,0%);fill-opacity:1;" d="M 67.996094 100.378906 L 69.699219 98.730469 C 72.171875 96.53125 73.121094 95.679688 73.121094 94.078125 C 73.121094 92.253906 71.699219 90.980469 69.746094 90.980469 C 67.949219 90.980469 66.773438 92.453125 66.773438 93.878906 C 66.773438 94.753906 67.574219 94.753906 67.621094 94.753906 C 67.898438 94.753906 68.449219 94.578125 68.449219 93.90625 C 68.449219 93.503906 68.148438 93.078125 67.597656 93.078125 C 67.472656 93.078125 67.449219 93.078125 67.398438 93.105469 C 67.746094 92.054688 68.621094 91.480469 69.546875 91.480469 C 70.996094 91.480469 71.671875 92.78125 71.671875 94.078125 C 71.671875 95.355469 70.898438 96.605469 69.996094 97.605469 L 66.949219 101.003906 C 66.773438 101.179688 66.773438 101.230469 66.773438 101.605469 L 72.699219 101.605469 L 73.121094 98.828125 L 72.746094 98.828125 C 72.648438 99.304688 72.546875 100.003906 72.371094 100.253906 C 72.273438 100.378906 71.222656 100.378906 70.871094 100.378906 Z M 67.996094 100.378906 "/>
<path style=" stroke:none;fill-rule:nonzero;fill:rgb(0%,0%,0%);fill-opacity:1;" d="M 78.167969 95.65625 L 79.96875 95.65625 C 79.441406 98.003906 79.292969 98.703125 79.292969 99.78125 C 79.292969 100.003906 79.292969 100.429688 79.417969 100.980469 C 79.59375 101.679688 79.765625 101.78125 79.992188 101.78125 C 80.316406 101.78125 80.667969 101.503906 80.667969 101.179688 C 80.667969 101.078125 80.667969 101.054688 80.566406 100.828125 C 80.09375 99.679688 80.09375 98.628906 80.09375 98.179688 C 80.09375 97.355469 80.21875 96.480469 80.390625 95.65625 L 82.191406 95.65625 C 82.417969 95.65625 82.992188 95.65625 82.992188 95.105469 C 82.992188 94.730469 82.640625 94.730469 82.34375 94.730469 L 76.992188 94.730469 C 76.640625 94.730469 76.042969 94.730469 75.34375 95.480469 C 74.792969 96.105469 74.367188 96.828125 74.367188 96.90625 C 74.367188 96.929688 74.367188 97.078125 74.566406 97.078125 C 74.691406 97.078125 74.71875 97.003906 74.816406 96.878906 C 75.59375 95.65625 76.515625 95.65625 76.84375 95.65625 L 77.742188 95.65625 C 77.242188 97.578125 76.390625 99.503906 75.71875 100.953125 C 75.59375 101.203125 75.59375 101.230469 75.59375 101.355469 C 75.59375 101.65625 75.84375 101.78125 76.042969 101.78125 C 76.515625 101.78125 76.640625 101.328125 76.84375 100.753906 C 77.066406 100.003906 77.066406 99.980469 77.265625 99.179688 Z M 78.167969 95.65625 "/>
<path style=" stroke:none;fill-rule:nonzero;fill:rgb(0%,0%,0%);fill-opacity:1;" d="M 9.175781 97.753906 C 9.449219 97.753906 9.75 97.753906 9.75 97.429688 C 9.75 97.128906 9.449219 97.128906 9.175781 97.128906 L 0.550781 97.128906 C 0.273438 97.128906 0 97.128906 0 97.429688 C 0 97.753906 0.273438 97.753906 0.550781 97.753906 Z M 9.175781 97.753906 "/>
<path style=" stroke:none;fill-rule:nonzero;fill:rgb(0%,0%,0%);fill-opacity:1;" d="M 15.699219 95.804688 C 17 95.378906 17.921875 94.28125 17.921875 93.003906 C 17.921875 91.703125 16.523438 90.804688 15 90.804688 C 13.398438 90.804688 12.171875 91.753906 12.171875 92.980469 C 12.171875 93.503906 12.523438 93.804688 13 93.804688 C 13.472656 93.804688 13.796875 93.453125 13.796875 92.980469 C 13.796875 92.203125 13.046875 92.203125 12.824219 92.203125 C 13.296875 91.40625 14.347656 91.203125 14.921875 91.203125 C 15.597656 91.203125 16.472656 91.554688 16.472656 92.980469 C 16.472656 93.179688 16.421875 94.105469 16.023438 94.804688 C 15.546875 95.578125 15 95.628906 14.597656 95.628906 C 14.472656 95.65625 14.097656 95.679688 13.972656 95.679688 C 13.847656 95.703125 13.75 95.730469 13.75 95.878906 C 13.75 96.054688 13.847656 96.054688 14.125 96.054688 L 14.824219 96.054688 C 16.125 96.054688 16.722656 97.128906 16.722656 98.703125 C 16.722656 100.878906 15.625 101.328125 14.921875 101.328125 C 14.222656 101.328125 13.023438 101.054688 12.472656 100.128906 C 13.023438 100.203125 13.523438 99.855469 13.523438 99.253906 C 13.523438 98.679688 13.097656 98.355469 12.648438 98.355469 C 12.25 98.355469 11.75 98.578125 11.75 99.28125 C 11.75 100.730469 13.222656 101.78125 14.972656 101.78125 C 16.921875 101.78125 18.375 100.328125 18.375 98.703125 C 18.375 97.40625 17.347656 96.15625 15.699219 95.804688 Z M 15.699219 95.804688 "/>
<path style=" stroke:none;fill-rule:nonzero;fill:rgb(0%,0%,0%);fill-opacity:1;" d="M 23.269531 95.480469 L 25.066406 95.480469 C 24.542969 97.828125 24.394531 98.53125 24.394531 99.605469 C 24.394531 99.828125 24.394531 100.253906 24.519531 100.804688 C 24.691406 101.503906 24.867188 101.605469 25.09375 101.605469 C 25.417969 101.605469 25.769531 101.328125 25.769531 101.003906 C 25.769531 100.90625 25.769531 100.878906 25.667969 100.65625 C 25.191406 99.503906 25.191406 98.453125 25.191406 98.003906 C 25.191406 97.179688 25.316406 96.304688 25.492188 95.480469 L 27.292969 95.480469 C 27.519531 95.480469 28.09375 95.480469 28.09375 94.929688 C 28.09375 94.554688 27.742188 94.554688 27.441406 94.554688 L 22.09375 94.554688 C 21.742188 94.554688 21.144531 94.554688 20.441406 95.304688 C 19.894531 95.929688 19.46875 96.65625 19.46875 96.730469 C 19.46875 96.753906 19.46875 96.90625 19.667969 96.90625 C 19.792969 96.90625 19.816406 96.828125 19.917969 96.703125 C 20.691406 95.480469 21.617188 95.480469 21.941406 95.480469 L 22.84375 95.480469 C 22.34375 97.40625 21.492188 99.328125 20.816406 100.78125 C 20.691406 101.03125 20.691406 101.054688 20.691406 101.179688 C 20.691406 101.480469 20.941406 101.605469 21.144531 101.605469 C 21.617188 101.605469 21.742188 101.15625 21.941406 100.578125 C 22.167969 99.828125 22.167969 99.804688 22.367188 99.003906 Z M 23.269531 95.480469 "/>
</g>
</svg>
