<?xml version="1.0" encoding="UTF-8"?>
<svg xmlns="http://www.w3.org/2000/svg" xmlns:xlink="http://www.w3.org/1999/xlink" width="524.512024pt" height="201.461334pt" viewBox="0 0 524.512024 201.461334" version="1.1">
<defs>
<clipPath id="clip1">
  <path d="M 103 185 L 107 185 L 107 201.460938 L 103 201.460938 Z M 103 185 "/>
</clipPath>
<clipPath id="clip2">
  <path d="M 117 185 L 122 185 L 122 201.460938 L 117 201.460938 Z M 117 185 "/>
</clipPath>
<clipPath id="clip3">
  <path d="M 507 24 L 524.511719 24 L 524.511719 40 L 507 40 Z M 507 24 "/>
</clipPath>
<clipPath id="clip4">
  <path d="M 391 185 L 395 185 L 395 201.460938 L 391 201.460938 Z M 391 185 "/>
</clipPath>
<clipPath id="clip5">
  <path d="M 405 185 L 410 185 L 410 201.460938 L 405 201.460938 Z M 405 185 "/>
</clipPath>
</defs>
<g id="surface1">
<path style="fill:none;stroke-width:1.6;stroke-linecap:butt;stroke-linejoin:miter;stroke:rgb(100%,0%,0%);stroke-opacity:1;stroke-miterlimit:4;" d="M 3.054688 147.054688 L 233.457031 147.054688 "/>
<path style="fill-rule:evenodd;fill:rgb(100%,0%,0%);fill-opacity:1;stroke-width:0.8;stroke-linecap:butt;stroke-linejoin:miter;stroke:rgb(100%,0%,0%);stroke-opacity:1;stroke-miterlimit:4;" d="M 9.457031 147.054688 L 12.65625 143.855469 L 1.457031 147.054688 L 12.65625 150.257812 Z M 9.457031 147.054688 "/>
<path style="fill-rule:evenodd;fill:rgb(100%,0%,0%);fill-opacity:1;stroke-width:0.8;stroke-linecap:butt;stroke-linejoin:miter;stroke:rgb(100%,0%,0%);stroke-opacity:1;stroke-miterlimit:4;" d="M -227.054688 -147.054688 L -223.855469 -150.257812 L -235.054688 -147.054688 L -223.855469 -143.855469 Z M -227.054688 -147.054688 " transform="matrix(-1,0,0,-1,0,0)"/>
<path style="fill:none;stroke-width:1.6;stroke-linecap:butt;stroke-linejoin:miter;stroke:rgb(100%,0%,0%);stroke-opacity:1;stroke-miterlimit:4;" d="M 118.257812 3.054688 L 118.257812 175.855469 "/>
<path style="fill-rule:evenodd;fill:rgb(100%,0%,0%);fill-opacity:1;stroke-width:0.8;stroke-linecap:butt;stroke-linejoin:miter;stroke:rgb(100%,0%,0%);stroke-opacity:1;stroke-miterlimit:4;" d="M 9.457031 -118.257812 L 12.65625 -121.457031 L 1.457031 -118.257812 L 12.65625 -115.054688 Z M 9.457031 -118.257812 " transform="matrix(0,1,-1,0,0,0)"/>
<path style="fill-rule:evenodd;fill:rgb(100%,0%,0%);fill-opacity:1;stroke-width:0.8;stroke-linecap:butt;stroke-linejoin:miter;stroke:rgb(100%,0%,0%);stroke-opacity:1;stroke-miterlimit:4;" d="M -169.457031 118.257812 L -166.257812 115.054688 L -177.457031 118.257812 L -166.257812 121.457031 Z M -169.457031 118.257812 " transform="matrix(0,-1,1,0,0,0)"/>
<path style="fill:none;stroke-width:1.6;stroke-linecap:butt;stroke-linejoin:miter;stroke:rgb(0%,0%,0%);stroke-opacity:1;stroke-miterlimit:4;" d="M 31.855469 17.457031 C 31.855469 17.457031 46.257812 132.65625 118.257812 132.65625 C 190.257812 132.65625 204.65625 17.457031 204.65625 17.457031 "/>
<path style="fill:none;stroke-width:1.2;stroke-linecap:butt;stroke-linejoin:miter;stroke:rgb(100%,0%,0%);stroke-opacity:1;stroke-miterlimit:4;" d="M 142.257812 134.257812 L 94.257812 134.257812 "/>
<path style="fill-rule:evenodd;fill:rgb(0%,0%,0%);fill-opacity:1;stroke-width:0.8;stroke-linecap:butt;stroke-linejoin:miter;stroke:rgb(100%,100%,100%);stroke-opacity:1;stroke-miterlimit:4;" d="M 120.65625 132.65625 C 120.65625 133.980469 119.582031 135.054688 118.257812 135.054688 C 116.929688 135.054688 115.855469 133.980469 115.855469 132.65625 C 115.855469 131.332031 116.929688 130.257812 118.257812 130.257812 C 119.582031 130.257812 120.65625 131.332031 120.65625 132.65625 Z M 120.65625 132.65625 "/>
<path style="fill:none;stroke-width:1.2;stroke-linecap:butt;stroke-linejoin:miter;stroke:rgb(100%,0%,0%);stroke-opacity:1;stroke-miterlimit:4;" d="M 82.992188 127.855469 L 45.703125 81.574219 "/>
<path style="fill-rule:evenodd;fill:rgb(0%,0%,0%);fill-opacity:1;stroke-width:0.8;stroke-linecap:butt;stroke-linejoin:miter;stroke:rgb(100%,100%,100%);stroke-opacity:1;stroke-miterlimit:4;" d="M 67.855469 103.855469 C 67.855469 105.179688 66.78125 106.257812 65.457031 106.257812 C 64.128906 106.257812 63.054688 105.179688 63.054688 103.855469 C 63.054688 102.53125 64.128906 101.457031 65.457031 101.457031 C 66.78125 101.457031 67.855469 102.53125 67.855469 103.855469 Z M 67.855469 103.855469 "/>
<path style="fill:none;stroke-width:1.2;stroke-linecap:butt;stroke-linejoin:miter;stroke:rgb(100%,0%,0%);stroke-opacity:1;stroke-miterlimit:4;" d="M 190.746094 81.574219 L 153.457031 127.855469 "/>
<path style="fill-rule:evenodd;fill:rgb(0%,0%,0%);fill-opacity:1;stroke-width:0.8;stroke-linecap:butt;stroke-linejoin:miter;stroke:rgb(100%,100%,100%);stroke-opacity:1;stroke-miterlimit:4;" d="M 173.457031 103.855469 C 173.457031 105.179688 172.382812 106.257812 171.054688 106.257812 C 169.730469 106.257812 168.65625 105.179688 168.65625 103.855469 C 168.65625 102.53125 169.730469 101.457031 171.054688 101.457031 C 172.382812 101.457031 173.457031 102.53125 173.457031 103.855469 Z M 173.457031 103.855469 "/>
<path style=" stroke:none;fill-rule:nonzero;fill:rgb(0%,0%,0%);fill-opacity:1;" d="M 89.804688 191.085938 L 91.179688 191.085938 C 91.503906 191.085938 91.652344 191.085938 91.652344 190.761719 C 91.652344 190.585938 91.503906 190.585938 91.230469 190.585938 L 89.902344 190.585938 L 90.230469 188.761719 C 90.304688 188.4375 90.527344 187.3125 90.628906 187.113281 C 90.753906 186.8125 91.027344 186.5625 91.378906 186.5625 C 91.429688 186.5625 91.855469 186.5625 92.152344 186.863281 C 91.453125 186.910156 91.277344 187.488281 91.277344 187.710938 C 91.277344 188.085938 91.578125 188.285156 91.878906 188.285156 C 92.304688 188.285156 92.753906 187.910156 92.753906 187.3125 C 92.753906 186.585938 92.027344 186.210938 91.378906 186.210938 C 90.828125 186.210938 89.828125 186.511719 89.355469 188.085938 C 89.253906 188.410156 89.203125 188.585938 88.828125 190.585938 L 87.730469 190.585938 C 87.402344 190.585938 87.230469 190.585938 87.230469 190.886719 C 87.230469 191.085938 87.378906 191.085938 87.679688 191.085938 L 88.730469 191.085938 L 87.554688 197.386719 C 87.253906 198.9375 86.980469 200.386719 86.152344 200.386719 C 86.078125 200.386719 85.703125 200.386719 85.378906 200.085938 C 86.128906 200.035156 86.277344 199.460938 86.277344 199.238281 C 86.277344 198.863281 85.980469 198.660156 85.679688 198.660156 C 85.253906 198.660156 84.804688 199.035156 84.804688 199.636719 C 84.804688 200.335938 85.503906 200.738281 86.152344 200.738281 C 87.027344 200.738281 87.679688 199.785156 87.953125 199.1875 C 88.480469 198.1875 88.828125 196.261719 88.855469 196.136719 Z M 89.804688 191.085938 "/>
<path style=" stroke:none;fill-rule:nonzero;fill:rgb(0%,0%,0%);fill-opacity:1;" d="M 96.699219 186.402344 C 96.800781 186.226562 96.800781 186.125 96.800781 186.050781 C 96.800781 185.699219 96.5 185.449219 96.148438 185.449219 C 95.722656 185.449219 95.597656 185.800781 95.550781 185.976562 L 94.074219 190.800781 C 94.050781 190.824219 94 190.949219 94 190.976562 C 94 191.101562 94.347656 191.226562 94.449219 191.226562 C 94.523438 191.226562 94.523438 191.199219 94.597656 191.027344 Z M 96.699219 186.402344 "/>
<path style=" stroke:none;fill-rule:nonzero;fill:rgb(0%,0%,0%);fill-opacity:1;" d="M 100.375 186.402344 C 100.472656 186.226562 100.472656 186.125 100.472656 186.050781 C 100.472656 185.699219 100.175781 185.449219 99.824219 185.449219 C 99.398438 185.449219 99.273438 185.800781 99.222656 185.976562 L 97.75 190.800781 C 97.722656 190.824219 97.675781 190.949219 97.675781 190.976562 C 97.675781 191.101562 98.023438 191.226562 98.125 191.226562 C 98.199219 191.226562 98.199219 191.199219 98.273438 191.027344 Z M 100.375 186.402344 "/>
<g clip-path="url(#clip1)" clip-rule="nonzero">
<path style=" stroke:none;fill-rule:nonzero;fill:rgb(0%,0%,0%);fill-opacity:1;" d="M 106.894531 201.285156 C 106.894531 201.238281 106.894531 201.210938 106.621094 200.9375 C 104.644531 198.9375 104.121094 195.910156 104.121094 193.460938 C 104.121094 190.6875 104.722656 187.910156 106.695312 185.9375 C 106.894531 185.738281 106.894531 185.710938 106.894531 185.660156 C 106.894531 185.535156 106.847656 185.488281 106.746094 185.488281 C 106.570312 185.488281 105.144531 186.585938 104.195312 188.613281 C 103.394531 190.363281 103.195312 192.136719 103.195312 193.460938 C 103.195312 194.710938 103.371094 196.636719 104.246094 198.460938 C 105.222656 200.410156 106.570312 201.460938 106.746094 201.460938 C 106.847656 201.460938 106.894531 201.410156 106.894531 201.285156 Z M 106.894531 201.285156 "/>
</g>
<path style=" stroke:none;fill-rule:nonzero;fill:rgb(0%,0%,0%);fill-opacity:1;" d="M 113.144531 192.636719 C 113.246094 192.238281 113.621094 190.761719 114.71875 190.761719 C 114.792969 190.761719 115.195312 190.761719 115.519531 190.960938 C 115.070312 191.0625 114.769531 191.4375 114.769531 191.835938 C 114.769531 192.085938 114.945312 192.386719 115.371094 192.386719 C 115.71875 192.386719 116.21875 192.113281 116.21875 191.460938 C 116.21875 190.636719 115.292969 190.410156 114.746094 190.410156 C 113.820312 190.410156 113.269531 191.261719 113.070312 191.613281 C 112.667969 190.5625 111.820312 190.410156 111.34375 190.410156 C 109.695312 190.410156 108.769531 192.460938 108.769531 192.863281 C 108.769531 193.035156 108.945312 193.035156 108.96875 193.035156 C 109.09375 193.035156 109.144531 192.988281 109.167969 192.863281 C 109.71875 191.160156 110.769531 190.761719 111.320312 190.761719 C 111.621094 190.761719 112.167969 190.910156 112.167969 191.835938 C 112.167969 192.335938 111.894531 193.386719 111.320312 195.636719 C 111.070312 196.613281 110.496094 197.285156 109.792969 197.285156 C 109.695312 197.285156 109.34375 197.285156 108.996094 197.085938 C 109.394531 196.988281 109.746094 196.660156 109.746094 196.210938 C 109.746094 195.785156 109.394531 195.660156 109.167969 195.660156 C 108.667969 195.660156 108.292969 196.0625 108.292969 196.585938 C 108.292969 197.3125 109.070312 197.636719 109.769531 197.636719 C 110.84375 197.636719 111.417969 196.511719 111.445312 196.4375 C 111.644531 197.011719 112.21875 197.636719 113.167969 197.636719 C 114.820312 197.636719 115.71875 195.585938 115.71875 195.1875 C 115.71875 195.011719 115.59375 195.011719 115.542969 195.011719 C 115.394531 195.011719 115.371094 195.085938 115.320312 195.1875 C 114.792969 196.910156 113.71875 197.285156 113.21875 197.285156 C 112.59375 197.285156 112.34375 196.785156 112.34375 196.238281 C 112.34375 195.886719 112.417969 195.535156 112.59375 194.835938 Z M 113.144531 192.636719 "/>
<g clip-path="url(#clip2)" clip-rule="nonzero">
<path style=" stroke:none;fill-rule:nonzero;fill:rgb(0%,0%,0%);fill-opacity:1;" d="M 121.53125 193.460938 C 121.53125 192.238281 121.355469 190.3125 120.480469 188.488281 C 119.53125 186.535156 118.15625 185.488281 118.003906 185.488281 C 117.90625 185.488281 117.832031 185.5625 117.832031 185.660156 C 117.832031 185.710938 117.832031 185.738281 118.128906 186.035156 C 119.707031 187.613281 120.605469 190.136719 120.605469 193.460938 C 120.605469 196.210938 120.03125 199.011719 118.054688 201.011719 C 117.832031 201.210938 117.832031 201.238281 117.832031 201.285156 C 117.832031 201.386719 117.90625 201.460938 118.003906 201.460938 C 118.15625 201.460938 119.605469 200.363281 120.53125 198.335938 C 121.355469 196.585938 121.53125 194.8125 121.53125 193.460938 Z M 121.53125 193.460938 "/>
</g>
<path style=" stroke:none;fill-rule:nonzero;fill:rgb(0%,0%,0%);fill-opacity:1;" d="M 138.332031 193.835938 C 138.507812 193.738281 138.632812 193.660156 138.632812 193.460938 C 138.632812 193.285156 138.507812 193.210938 138.332031 193.113281 L 129.480469 188.960938 C 129.28125 188.835938 129.257812 188.835938 129.207031 188.835938 C 129.03125 188.835938 128.882812 188.988281 128.882812 189.160156 C 128.882812 189.3125 128.957031 189.410156 129.183594 189.511719 L 137.558594 193.460938 L 129.183594 197.4375 C 128.957031 197.535156 128.882812 197.636719 128.882812 197.785156 C 128.882812 197.960938 129.03125 198.113281 129.207031 198.113281 C 129.257812 198.113281 129.28125 198.113281 129.480469 197.988281 Z M 138.332031 193.835938 "/>
<path style=" stroke:none;fill-rule:nonzero;fill:rgb(0%,0%,0%);fill-opacity:1;" d="M 151.707031 192.363281 C 151.707031 191.085938 151.632812 189.8125 151.082031 188.636719 C 150.359375 187.085938 149.03125 186.835938 148.382812 186.835938 C 147.40625 186.835938 146.257812 187.261719 145.582031 188.738281 C 145.082031 189.835938 145.007812 191.085938 145.007812 192.363281 C 145.007812 193.5625 145.058594 194.988281 145.734375 196.210938 C 146.40625 197.488281 147.582031 197.8125 148.359375 197.8125 C 149.207031 197.8125 150.433594 197.488281 151.132812 195.960938 C 151.632812 194.863281 151.707031 193.613281 151.707031 192.363281 Z M 148.359375 197.460938 C 147.734375 197.460938 146.78125 197.0625 146.507812 195.535156 C 146.332031 194.585938 146.332031 193.113281 146.332031 192.160156 C 146.332031 191.136719 146.332031 190.085938 146.457031 189.238281 C 146.757812 187.335938 147.957031 187.1875 148.359375 187.1875 C 148.882812 187.1875 149.933594 187.488281 150.234375 189.0625 C 150.40625 189.960938 150.40625 191.160156 150.40625 192.160156 C 150.40625 193.363281 150.40625 194.4375 150.234375 195.460938 C 149.984375 196.988281 149.082031 197.460938 148.359375 197.460938 Z M 148.359375 197.460938 "/>
<path style="fill:none;stroke-width:1.6;stroke-linecap:butt;stroke-linejoin:miter;stroke:rgb(100%,0%,0%);stroke-opacity:1;stroke-miterlimit:4;" d="M 406.257812 3.054688 L 406.257812 175.855469 "/>
<path style="fill-rule:evenodd;fill:rgb(100%,0%,0%);fill-opacity:1;stroke-width:0.8;stroke-linecap:butt;stroke-linejoin:miter;stroke:rgb(100%,0%,0%);stroke-opacity:1;stroke-miterlimit:4;" d="M 9.457031 -406.257812 L 12.65625 -409.457031 L 1.457031 -406.257812 L 12.65625 -403.054688 Z M 9.457031 -406.257812 " transform="matrix(0,1,-1,0,0,0)"/>
<path style="fill-rule:evenodd;fill:rgb(100%,0%,0%);fill-opacity:1;stroke-width:0.8;stroke-linecap:butt;stroke-linejoin:miter;stroke:rgb(100%,0%,0%);stroke-opacity:1;stroke-miterlimit:4;" d="M -169.457031 406.257812 L -166.257812 403.054688 L -177.457031 406.257812 L -166.257812 409.457031 Z M -169.457031 406.257812 " transform="matrix(0,-1,1,0,0,0)"/>
<path style="fill:none;stroke-width:1.6;stroke-linecap:butt;stroke-linejoin:miter;stroke:rgb(100%,0%,0%);stroke-opacity:1;stroke-miterlimit:4;" d="M 291.054688 -31.855469 L 521.457031 -31.855469 " transform="matrix(1,0,0,-1,0,0)"/>
<path style="fill-rule:evenodd;fill:rgb(100%,0%,0%);fill-opacity:1;stroke-width:0.8;stroke-linecap:butt;stroke-linejoin:miter;stroke:rgb(100%,0%,0%);stroke-opacity:1;stroke-miterlimit:4;" d="M 297.457031 -31.855469 L 300.65625 -35.054688 L 289.457031 -31.855469 L 300.65625 -28.65625 Z M 297.457031 -31.855469 " transform="matrix(1,0,0,-1,0,0)"/>
<path style=" stroke:none;fill-rule:evenodd;fill:rgb(100%,0%,0%);fill-opacity:1;" d="M 515.054688 31.855469 L 511.855469 28.65625 L 523.054688 31.855469 L 511.855469 35.054688 Z M 515.054688 31.855469 "/>
<g clip-path="url(#clip3)" clip-rule="nonzero">
<path style="fill:none;stroke-width:0.8;stroke-linecap:butt;stroke-linejoin:miter;stroke:rgb(100%,0%,0%);stroke-opacity:1;stroke-miterlimit:4;" d="M -515.054688 31.855469 L -511.855469 28.65625 L -523.054688 31.855469 L -511.855469 35.054688 Z M -515.054688 31.855469 " transform="matrix(-1,0,0,1,0,0)"/>
</g>
<path style="fill:none;stroke-width:1.6;stroke-linecap:butt;stroke-linejoin:miter;stroke:rgb(0%,0%,0%);stroke-opacity:1;stroke-miterlimit:4;" d="M 319.855469 -161.457031 C 319.855469 -161.457031 334.257812 -46.257812 406.257812 -46.257812 C 478.257812 -46.257812 492.65625 -161.457031 492.65625 -161.457031 " transform="matrix(1,0,0,-1,0,0)"/>
<path style="fill:none;stroke-width:1.2;stroke-linecap:butt;stroke-linejoin:miter;stroke:rgb(100%,0%,0%);stroke-opacity:1;stroke-miterlimit:4;" d="M 430.257812 -44.65625 L 382.257812 -44.65625 " transform="matrix(1,0,0,-1,0,0)"/>
<path style="fill-rule:evenodd;fill:rgb(0%,0%,0%);fill-opacity:1;stroke-width:0.8;stroke-linecap:butt;stroke-linejoin:miter;stroke:rgb(100%,100%,100%);stroke-opacity:1;stroke-miterlimit:4;" d="M 408.65625 -46.257812 C 408.65625 -44.929688 407.582031 -43.855469 406.257812 -43.855469 C 404.929688 -43.855469 403.855469 -44.929688 403.855469 -46.257812 C 403.855469 -47.582031 404.929688 -48.65625 406.257812 -48.65625 C 407.582031 -48.65625 408.65625 -47.582031 408.65625 -46.257812 Z M 408.65625 -46.257812 " transform="matrix(1,0,0,-1,0,0)"/>
<path style="fill:none;stroke-width:1.2;stroke-linecap:butt;stroke-linejoin:miter;stroke:rgb(100%,0%,0%);stroke-opacity:1;stroke-miterlimit:4;" d="M 370.992188 -51.054688 L 333.703125 -97.339844 " transform="matrix(1,0,0,-1,0,0)"/>
<path style="fill-rule:evenodd;fill:rgb(0%,0%,0%);fill-opacity:1;stroke-width:0.8;stroke-linecap:butt;stroke-linejoin:miter;stroke:rgb(100%,100%,100%);stroke-opacity:1;stroke-miterlimit:4;" d="M 355.855469 -75.054688 C 355.855469 -73.730469 354.78125 -72.65625 353.457031 -72.65625 C 352.128906 -72.65625 351.054688 -73.730469 351.054688 -75.054688 C 351.054688 -76.382812 352.128906 -77.457031 353.457031 -77.457031 C 354.78125 -77.457031 355.855469 -76.382812 355.855469 -75.054688 Z M 355.855469 -75.054688 " transform="matrix(1,0,0,-1,0,0)"/>
<path style="fill:none;stroke-width:1.2;stroke-linecap:butt;stroke-linejoin:miter;stroke:rgb(100%,0%,0%);stroke-opacity:1;stroke-miterlimit:4;" d="M 478.746094 -97.339844 L 441.457031 -51.054688 " transform="matrix(1,0,0,-1,0,0)"/>
<path style="fill-rule:evenodd;fill:rgb(0%,0%,0%);fill-opacity:1;stroke-width:0.8;stroke-linecap:butt;stroke-linejoin:miter;stroke:rgb(100%,100%,100%);stroke-opacity:1;stroke-miterlimit:4;" d="M 461.457031 -75.054688 C 461.457031 -73.730469 460.382812 -72.65625 459.054688 -72.65625 C 457.730469 -72.65625 456.65625 -73.730469 456.65625 -75.054688 C 456.65625 -76.382812 457.730469 -77.457031 459.054688 -77.457031 C 460.382812 -77.457031 461.457031 -76.382812 461.457031 -75.054688 Z M 461.457031 -75.054688 " transform="matrix(1,0,0,-1,0,0)"/>
<path style=" stroke:none;fill-rule:nonzero;fill:rgb(0%,0%,0%);fill-opacity:1;" d="M 377.804688 191.085938 L 379.179688 191.085938 C 379.503906 191.085938 379.652344 191.085938 379.652344 190.761719 C 379.652344 190.585938 379.503906 190.585938 379.230469 190.585938 L 377.902344 190.585938 L 378.230469 188.761719 C 378.304688 188.4375 378.527344 187.3125 378.628906 187.113281 C 378.753906 186.8125 379.027344 186.5625 379.378906 186.5625 C 379.429688 186.5625 379.855469 186.5625 380.152344 186.863281 C 379.453125 186.910156 379.277344 187.488281 379.277344 187.710938 C 379.277344 188.085938 379.578125 188.285156 379.878906 188.285156 C 380.304688 188.285156 380.753906 187.910156 380.753906 187.3125 C 380.753906 186.585938 380.027344 186.210938 379.378906 186.210938 C 378.828125 186.210938 377.828125 186.511719 377.355469 188.085938 C 377.253906 188.410156 377.203125 188.585938 376.828125 190.585938 L 375.730469 190.585938 C 375.402344 190.585938 375.230469 190.585938 375.230469 190.886719 C 375.230469 191.085938 375.378906 191.085938 375.679688 191.085938 L 376.730469 191.085938 L 375.554688 197.386719 C 375.253906 198.9375 374.980469 200.386719 374.152344 200.386719 C 374.078125 200.386719 373.703125 200.386719 373.378906 200.085938 C 374.128906 200.035156 374.277344 199.460938 374.277344 199.238281 C 374.277344 198.863281 373.980469 198.660156 373.679688 198.660156 C 373.253906 198.660156 372.804688 199.035156 372.804688 199.636719 C 372.804688 200.335938 373.503906 200.738281 374.152344 200.738281 C 375.027344 200.738281 375.679688 199.785156 375.953125 199.1875 C 376.480469 198.1875 376.828125 196.261719 376.855469 196.136719 Z M 377.804688 191.085938 "/>
<path style=" stroke:none;fill-rule:nonzero;fill:rgb(0%,0%,0%);fill-opacity:1;" d="M 384.699219 186.402344 C 384.800781 186.226562 384.800781 186.125 384.800781 186.050781 C 384.800781 185.699219 384.5 185.449219 384.148438 185.449219 C 383.722656 185.449219 383.597656 185.800781 383.550781 185.976562 L 382.074219 190.800781 C 382.050781 190.824219 382 190.949219 382 190.976562 C 382 191.101562 382.347656 191.226562 382.449219 191.226562 C 382.523438 191.226562 382.523438 191.199219 382.597656 191.027344 Z M 384.699219 186.402344 "/>
<path style=" stroke:none;fill-rule:nonzero;fill:rgb(0%,0%,0%);fill-opacity:1;" d="M 388.375 186.402344 C 388.472656 186.226562 388.472656 186.125 388.472656 186.050781 C 388.472656 185.699219 388.175781 185.449219 387.824219 185.449219 C 387.398438 185.449219 387.273438 185.800781 387.222656 185.976562 L 385.75 190.800781 C 385.722656 190.824219 385.675781 190.949219 385.675781 190.976562 C 385.675781 191.101562 386.023438 191.226562 386.125 191.226562 C 386.199219 191.226562 386.199219 191.199219 386.273438 191.027344 Z M 388.375 186.402344 "/>
<g clip-path="url(#clip4)" clip-rule="nonzero">
<path style=" stroke:none;fill-rule:nonzero;fill:rgb(0%,0%,0%);fill-opacity:1;" d="M 394.894531 201.285156 C 394.894531 201.238281 394.894531 201.210938 394.621094 200.9375 C 392.644531 198.9375 392.121094 195.910156 392.121094 193.460938 C 392.121094 190.6875 392.722656 187.910156 394.695312 185.9375 C 394.894531 185.738281 394.894531 185.710938 394.894531 185.660156 C 394.894531 185.535156 394.847656 185.488281 394.746094 185.488281 C 394.570312 185.488281 393.144531 186.585938 392.195312 188.613281 C 391.394531 190.363281 391.195312 192.136719 391.195312 193.460938 C 391.195312 194.710938 391.371094 196.636719 392.246094 198.460938 C 393.222656 200.410156 394.570312 201.460938 394.746094 201.460938 C 394.847656 201.460938 394.894531 201.410156 394.894531 201.285156 Z M 394.894531 201.285156 "/>
</g>
<path style=" stroke:none;fill-rule:nonzero;fill:rgb(0%,0%,0%);fill-opacity:1;" d="M 401.144531 192.636719 C 401.246094 192.238281 401.621094 190.761719 402.71875 190.761719 C 402.792969 190.761719 403.195312 190.761719 403.519531 190.960938 C 403.070312 191.0625 402.769531 191.4375 402.769531 191.835938 C 402.769531 192.085938 402.945312 192.386719 403.371094 192.386719 C 403.71875 192.386719 404.21875 192.113281 404.21875 191.460938 C 404.21875 190.636719 403.292969 190.410156 402.746094 190.410156 C 401.820312 190.410156 401.269531 191.261719 401.070312 191.613281 C 400.667969 190.5625 399.820312 190.410156 399.34375 190.410156 C 397.695312 190.410156 396.769531 192.460938 396.769531 192.863281 C 396.769531 193.035156 396.945312 193.035156 396.96875 193.035156 C 397.09375 193.035156 397.144531 192.988281 397.167969 192.863281 C 397.71875 191.160156 398.769531 190.761719 399.320312 190.761719 C 399.621094 190.761719 400.167969 190.910156 400.167969 191.835938 C 400.167969 192.335938 399.894531 193.386719 399.320312 195.636719 C 399.070312 196.613281 398.496094 197.285156 397.792969 197.285156 C 397.695312 197.285156 397.34375 197.285156 396.996094 197.085938 C 397.394531 196.988281 397.746094 196.660156 397.746094 196.210938 C 397.746094 195.785156 397.394531 195.660156 397.167969 195.660156 C 396.667969 195.660156 396.292969 196.0625 396.292969 196.585938 C 396.292969 197.3125 397.070312 197.636719 397.769531 197.636719 C 398.84375 197.636719 399.417969 196.511719 399.445312 196.4375 C 399.644531 197.011719 400.21875 197.636719 401.167969 197.636719 C 402.820312 197.636719 403.71875 195.585938 403.71875 195.1875 C 403.71875 195.011719 403.59375 195.011719 403.542969 195.011719 C 403.394531 195.011719 403.371094 195.085938 403.320312 195.1875 C 402.792969 196.910156 401.71875 197.285156 401.21875 197.285156 C 400.59375 197.285156 400.34375 196.785156 400.34375 196.238281 C 400.34375 195.886719 400.417969 195.535156 400.59375 194.835938 Z M 401.144531 192.636719 "/>
<g clip-path="url(#clip5)" clip-rule="nonzero">
<path style=" stroke:none;fill-rule:nonzero;fill:rgb(0%,0%,0%);fill-opacity:1;" d="M 409.53125 193.460938 C 409.53125 192.238281 409.355469 190.3125 408.480469 188.488281 C 407.53125 186.535156 406.15625 185.488281 406.003906 185.488281 C 405.90625 185.488281 405.832031 185.5625 405.832031 185.660156 C 405.832031 185.710938 405.832031 185.738281 406.128906 186.035156 C 407.707031 187.613281 408.605469 190.136719 408.605469 193.460938 C 408.605469 196.210938 408.03125 199.011719 406.054688 201.011719 C 405.832031 201.210938 405.832031 201.238281 405.832031 201.285156 C 405.832031 201.386719 405.90625 201.460938 406.003906 201.460938 C 406.15625 201.460938 407.605469 200.363281 408.53125 198.335938 C 409.355469 196.585938 409.53125 194.8125 409.53125 193.460938 Z M 409.53125 193.460938 "/>
</g>
<path style=" stroke:none;fill-rule:nonzero;fill:rgb(0%,0%,0%);fill-opacity:1;" d="M 426.332031 189.511719 C 426.507812 189.410156 426.632812 189.335938 426.632812 189.160156 C 426.632812 188.988281 426.480469 188.835938 426.308594 188.835938 C 426.257812 188.835938 426.230469 188.835938 426.03125 188.960938 L 417.183594 193.113281 C 417.007812 193.210938 416.882812 193.285156 416.882812 193.460938 C 416.882812 193.660156 417.007812 193.738281 417.183594 193.835938 L 426.03125 197.988281 C 426.230469 198.113281 426.257812 198.113281 426.308594 198.113281 C 426.480469 198.113281 426.632812 197.960938 426.632812 197.785156 C 426.632812 197.613281 426.507812 197.535156 426.332031 197.4375 L 417.957031 193.460938 Z M 426.332031 189.511719 "/>
<path style=" stroke:none;fill-rule:nonzero;fill:rgb(0%,0%,0%);fill-opacity:1;" d="M 439.707031 192.363281 C 439.707031 191.085938 439.632812 189.8125 439.082031 188.636719 C 438.359375 187.085938 437.03125 186.835938 436.382812 186.835938 C 435.40625 186.835938 434.257812 187.261719 433.582031 188.738281 C 433.082031 189.835938 433.007812 191.085938 433.007812 192.363281 C 433.007812 193.5625 433.058594 194.988281 433.734375 196.210938 C 434.40625 197.488281 435.582031 197.8125 436.359375 197.8125 C 437.207031 197.8125 438.433594 197.488281 439.132812 195.960938 C 439.632812 194.863281 439.707031 193.613281 439.707031 192.363281 Z M 436.359375 197.460938 C 435.734375 197.460938 434.78125 197.0625 434.507812 195.535156 C 434.332031 194.585938 434.332031 193.113281 434.332031 192.160156 C 434.332031 191.136719 434.332031 190.085938 434.457031 189.238281 C 434.757812 187.335938 435.957031 187.1875 436.359375 187.1875 C 436.882812 187.1875 437.933594 187.488281 438.234375 189.0625 C 438.40625 189.960938 438.40625 191.160156 438.40625 192.160156 C 438.40625 193.363281 438.40625 194.4375 438.234375 195.460938 C 437.984375 196.988281 437.082031 197.460938 436.359375 197.460938 Z M 436.359375 197.460938 "/>
</g>
</svg>
