<?xml version="1.0" encoding="UTF-8"?>
<svg xmlns="http://www.w3.org/2000/svg" xmlns:xlink="http://www.w3.org/1999/xlink" width="524.512024pt" height="178.912064pt" viewBox="0 0 524.512024 178.912064" version="1.1">
<defs>
<clipPath id="clip1">
  <path d="M 110 161 L 126 161 L 126 178.910156 L 110 178.910156 Z M 110 161 "/>
</clipPath>
<clipPath id="clip2">
  <path d="M 507 81 L 524.511719 81 L 524.511719 98 L 507 98 Z M 507 81 "/>
</clipPath>
<clipPath id="clip3">
  <path d="M 398 161 L 414 161 L 414 178.910156 L 398 178.910156 Z M 398 161 "/>
</clipPath>
<clipPath id="clip4">
  <path d="M 459 0 L 524.511719 0 L 524.511719 94 L 459 94 Z M 459 0 "/>
</clipPath>
<clipPath id="clip5">
  <path d="M 253 85 L 325 85 L 325 178.910156 L 253 178.910156 Z M 253 85 "/>
</clipPath>
<clipPath id="clip6">
  <path d="M 368 80 L 469 80 L 469 178.910156 L 368 178.910156 Z M 368 80 "/>
</clipPath>
<clipPath id="clip7">
  <path d="M 0 99 L 37 99 L 37 178.910156 L 0 178.910156 Z M 0 99 "/>
</clipPath>
<clipPath id="clip8">
  <path d="M 142 99 L 180 99 L 180 178.910156 L 142 178.910156 Z M 142 99 "/>
</clipPath>
</defs>
<g id="surface1">
<path style="fill:none;stroke-width:1.6;stroke-linecap:butt;stroke-linejoin:miter;stroke:rgb(100%,0%,0%);stroke-opacity:1;stroke-miterlimit:4;" d="M 3.054688 89.457031 L 233.457031 89.457031 "/>
<path style="fill-rule:evenodd;fill:rgb(100%,0%,0%);fill-opacity:1;stroke-width:0.8;stroke-linecap:butt;stroke-linejoin:miter;stroke:rgb(100%,0%,0%);stroke-opacity:1;stroke-miterlimit:4;" d="M 9.457031 89.457031 L 12.65625 86.257812 L 1.457031 89.457031 L 12.65625 92.65625 Z M 9.457031 89.457031 "/>
<path style="fill-rule:evenodd;fill:rgb(100%,0%,0%);fill-opacity:1;stroke-width:0.8;stroke-linecap:butt;stroke-linejoin:miter;stroke:rgb(100%,0%,0%);stroke-opacity:1;stroke-miterlimit:4;" d="M -227.054688 -89.457031 L -223.855469 -92.65625 L -235.054688 -89.457031 L -223.855469 -86.257812 Z M -227.054688 -89.457031 " transform="matrix(-1,0,0,-1,0,0)"/>
<path style="fill:none;stroke-width:1.6;stroke-linecap:butt;stroke-linejoin:miter;stroke:rgb(100%,0%,0%);stroke-opacity:1;stroke-miterlimit:4;" d="M 118.257812 3.054688 L 118.257812 175.855469 "/>
<path style="fill-rule:evenodd;fill:rgb(100%,0%,0%);fill-opacity:1;stroke-width:0.8;stroke-linecap:butt;stroke-linejoin:miter;stroke:rgb(100%,0%,0%);stroke-opacity:1;stroke-miterlimit:4;" d="M 9.457031 -118.257812 L 12.65625 -121.457031 L 1.457031 -118.257812 L 12.65625 -115.054688 Z M 9.457031 -118.257812 " transform="matrix(0,1,-1,0,0,0)"/>
<path style=" stroke:none;fill-rule:evenodd;fill:rgb(100%,0%,0%);fill-opacity:1;" d="M 118.257812 169.457031 L 115.054688 166.257812 L 118.257812 177.457031 L 121.457031 166.257812 Z M 118.257812 169.457031 "/>
<g clip-path="url(#clip1)" clip-rule="nonzero">
<path style="fill:none;stroke-width:0.8;stroke-linecap:butt;stroke-linejoin:miter;stroke:rgb(100%,0%,0%);stroke-opacity:1;stroke-miterlimit:4;" d="M -169.457031 118.257812 L -166.257812 115.054688 L -177.457031 118.257812 L -166.257812 121.457031 Z M -169.457031 118.257812 " transform="matrix(0,-1,1,0,0,0)"/>
</g>
<path style="fill:none;stroke-width:0.8;stroke-linecap:butt;stroke-linejoin:miter;stroke:rgb(0%,0%,0%);stroke-opacity:1;stroke-dasharray:2.4,2.4;stroke-miterlimit:4;" d="M 175.855469 3.054688 L 175.855469 175.855469 "/>
<path style="fill:none;stroke-width:0.8;stroke-linecap:butt;stroke-linejoin:miter;stroke:rgb(0%,0%,0%);stroke-opacity:1;stroke-dasharray:2.4,2.4;stroke-miterlimit:4;" d="M 31.457031 3.054688 L 31.457031 175.855469 "/>
<path style="fill-rule:evenodd;fill:rgb(0%,0%,0%);fill-opacity:1;stroke-width:0.8;stroke-linecap:butt;stroke-linejoin:miter;stroke:rgb(100%,100%,100%);stroke-opacity:1;stroke-miterlimit:4;" d="M 91.855469 89.457031 C 91.855469 90.78125 90.78125 91.855469 89.457031 91.855469 C 88.128906 91.855469 87.054688 90.78125 87.054688 89.457031 C 87.054688 88.128906 88.128906 87.054688 89.457031 87.054688 C 90.78125 87.054688 91.855469 88.128906 91.855469 89.457031 Z M 91.855469 89.457031 "/>
<path style="fill-rule:evenodd;fill:rgb(0%,0%,0%);fill-opacity:1;stroke-width:0.8;stroke-linecap:butt;stroke-linejoin:miter;stroke:rgb(100%,100%,100%);stroke-opacity:1;stroke-miterlimit:4;" d="M 120.65625 99.054688 C 120.65625 100.382812 119.582031 101.457031 118.257812 101.457031 C 116.929688 101.457031 115.855469 100.382812 115.855469 99.054688 C 115.855469 97.730469 116.929688 96.65625 118.257812 96.65625 C 119.582031 96.65625 120.65625 97.730469 120.65625 99.054688 Z M 120.65625 99.054688 "/>
<path style=" stroke:none;fill-rule:nonzero;fill:rgb(0%,0%,0%);fill-opacity:1;" d="M 183.507812 107.742188 L 185.207031 106.089844 C 187.679688 103.890625 188.632812 103.042969 188.632812 101.441406 C 188.632812 99.617188 187.207031 98.339844 185.257812 98.339844 C 183.457031 98.339844 182.28125 99.816406 182.28125 101.242188 C 182.28125 102.117188 183.082031 102.117188 183.132812 102.117188 C 183.40625 102.117188 183.957031 101.941406 183.957031 101.265625 C 183.957031 100.867188 183.65625 100.441406 183.105469 100.441406 C 182.980469 100.441406 182.957031 100.441406 182.90625 100.464844 C 183.257812 99.417969 184.132812 98.839844 185.054688 98.839844 C 186.507812 98.839844 187.179688 100.140625 187.179688 101.441406 C 187.179688 102.714844 186.40625 103.964844 185.507812 104.964844 L 182.457031 108.367188 C 182.28125 108.542969 182.28125 108.589844 182.28125 108.964844 L 188.207031 108.964844 L 188.632812 106.191406 L 188.257812 106.191406 C 188.15625 106.667969 188.054688 107.367188 187.882812 107.617188 C 187.78125 107.742188 186.730469 107.742188 186.382812 107.742188 Z M 183.507812 107.742188 "/>
<path style=" stroke:none;fill-rule:nonzero;fill:rgb(0%,0%,0%);fill-opacity:1;" d="M 17.859375 105.117188 C 18.132812 105.117188 18.433594 105.117188 18.433594 104.792969 C 18.433594 104.492188 18.132812 104.492188 17.859375 104.492188 L 9.234375 104.492188 C 8.957031 104.492188 8.683594 104.492188 8.683594 104.792969 C 8.683594 105.117188 8.957031 105.117188 9.234375 105.117188 Z M 17.859375 105.117188 "/>
<path style=" stroke:none;fill-rule:nonzero;fill:rgb(0%,0%,0%);fill-opacity:1;" d="M 24.382812 103.167969 C 25.679688 102.742188 26.605469 101.640625 26.605469 100.367188 C 26.605469 99.066406 25.207031 98.167969 23.679688 98.167969 C 22.082031 98.167969 20.855469 99.117188 20.855469 100.339844 C 20.855469 100.867188 21.207031 101.167969 21.679688 101.167969 C 22.15625 101.167969 22.480469 100.816406 22.480469 100.339844 C 22.480469 99.566406 21.730469 99.566406 21.507812 99.566406 C 21.980469 98.765625 23.03125 98.566406 23.605469 98.566406 C 24.28125 98.566406 25.15625 98.917969 25.15625 100.339844 C 25.15625 100.542969 25.105469 101.464844 24.707031 102.167969 C 24.230469 102.941406 23.679688 102.992188 23.28125 102.992188 C 23.15625 103.015625 22.78125 103.042969 22.65625 103.042969 C 22.53125 103.066406 22.429688 103.089844 22.429688 103.242188 C 22.429688 103.417969 22.53125 103.417969 22.804688 103.417969 L 23.507812 103.417969 C 24.804688 103.417969 25.40625 104.492188 25.40625 106.066406 C 25.40625 108.242188 24.304688 108.691406 23.605469 108.691406 C 22.90625 108.691406 21.707031 108.417969 21.15625 107.492188 C 21.707031 107.566406 22.207031 107.214844 22.207031 106.617188 C 22.207031 106.042969 21.78125 105.714844 21.332031 105.714844 C 20.929688 105.714844 20.429688 105.941406 20.429688 106.640625 C 20.429688 108.089844 21.90625 109.140625 23.65625 109.140625 C 25.605469 109.140625 27.054688 107.691406 27.054688 106.066406 C 27.054688 104.765625 26.03125 103.515625 24.382812 103.167969 Z M 24.382812 103.167969 "/>
<path style=" stroke:none;fill-rule:nonzero;fill:rgb(0%,0%,0%);fill-opacity:1;" d="M 89.410156 105.292969 C 89.683594 105.292969 89.984375 105.292969 89.984375 104.964844 C 89.984375 104.667969 89.683594 104.667969 89.410156 104.667969 L 80.785156 104.667969 C 80.507812 104.667969 80.234375 104.667969 80.234375 104.964844 C 80.234375 105.292969 80.507812 105.292969 80.785156 105.292969 Z M 89.410156 105.292969 "/>
<path style=" stroke:none;fill-rule:nonzero;fill:rgb(0%,0%,0%);fill-opacity:1;" d="M 96.007812 98.765625 C 96.007812 98.367188 96.007812 98.339844 95.632812 98.339844 C 94.632812 99.367188 93.230469 99.367188 92.730469 99.367188 L 92.730469 99.867188 C 93.058594 99.867188 93.980469 99.867188 94.808594 99.441406 L 94.808594 107.714844 C 94.808594 108.292969 94.757812 108.464844 93.332031 108.464844 L 92.832031 108.464844 L 92.832031 108.964844 C 93.382812 108.917969 94.757812 108.917969 95.40625 108.917969 C 96.03125 108.917969 97.433594 108.917969 97.980469 108.964844 L 97.980469 108.464844 L 97.480469 108.464844 C 96.03125 108.464844 96.007812 108.292969 96.007812 107.714844 Z M 96.007812 98.765625 "/>
<path style=" stroke:none;fill-rule:nonzero;fill:rgb(0%,0%,0%);fill-opacity:1;" d="M 133.648438 103.957031 C 133.921875 103.957031 134.222656 103.957031 134.222656 103.632812 C 134.222656 103.332031 133.921875 103.332031 133.648438 103.332031 L 125.023438 103.332031 C 124.746094 103.332031 124.472656 103.332031 124.472656 103.632812 C 124.472656 103.957031 124.746094 103.957031 125.023438 103.957031 Z M 133.648438 103.957031 "/>
<path style=" stroke:none;fill-rule:nonzero;fill:rgb(0%,0%,0%);fill-opacity:1;" d="M 141.183594 94.253906 C 141.183594 93.953125 141.183594 93.953125 140.859375 93.953125 C 140.132812 94.65625 139.132812 94.65625 138.683594 94.65625 L 138.683594 95.054688 C 138.933594 95.054688 139.683594 95.054688 140.28125 94.753906 L 140.28125 100.429688 C 140.28125 100.804688 140.28125 100.953125 139.183594 100.953125 L 138.757812 100.953125 L 138.757812 101.355469 C 138.957031 101.355469 140.332031 101.304688 140.734375 101.304688 C 141.082031 101.304688 142.484375 101.355469 142.734375 101.355469 L 142.734375 100.953125 L 142.308594 100.953125 C 141.183594 100.953125 141.183594 100.804688 141.183594 100.429688 Z M 141.183594 94.253906 "/>
<path style="fill:none;stroke-width:0.6368;stroke-linecap:butt;stroke-linejoin:miter;stroke:rgb(0%,0%,0%);stroke-opacity:1;stroke-miterlimit:10;" d="M 137.457031 -103.644531 L 143.8125 -103.644531 " transform="matrix(1,0,0,-1,0,0)"/>
<path style=" stroke:none;fill-rule:nonzero;fill:rgb(0%,0%,0%);fill-opacity:1;" d="M 139.132812 109.476562 C 139.132812 108.578125 139.207031 107.753906 139.632812 107.050781 C 140.007812 106.453125 140.609375 106.050781 141.332031 106.050781 C 141.65625 106.050781 142.109375 106.128906 142.332031 106.425781 C 142.058594 106.453125 141.808594 106.652344 141.808594 106.976562 C 141.808594 107.253906 142.007812 107.503906 142.332031 107.503906 C 142.683594 107.503906 142.882812 107.277344 142.882812 106.953125 C 142.882812 106.300781 142.40625 105.726562 141.308594 105.726562 C 139.707031 105.726562 138.058594 107.203125 138.058594 109.601562 C 138.058594 112.476562 139.40625 113.351562 140.65625 113.351562 C 142.007812 113.351562 143.183594 112.300781 143.183594 110.851562 C 143.183594 109.425781 142.058594 108.378906 140.757812 108.378906 C 139.859375 108.378906 139.382812 108.976562 139.132812 109.476562 Z M 140.65625 113.003906 C 140.082031 113.003906 139.65625 112.675781 139.40625 112.175781 C 139.257812 111.851562 139.15625 111.277344 139.15625 110.628906 C 139.15625 109.527344 139.808594 108.703125 140.707031 108.703125 C 141.207031 108.703125 141.558594 108.902344 141.832031 109.300781 C 142.109375 109.726562 142.109375 110.203125 142.109375 110.851562 C 142.109375 111.476562 142.109375 111.953125 141.808594 112.402344 C 141.558594 112.777344 141.183594 113.003906 140.65625 113.003906 Z M 140.65625 113.003906 "/>
<path style="fill:none;stroke-width:1.6;stroke-linecap:butt;stroke-linejoin:miter;stroke:rgb(100%,0%,0%);stroke-opacity:1;stroke-miterlimit:4;" d="M 291.054688 89.457031 L 521.457031 89.457031 "/>
<path style="fill-rule:evenodd;fill:rgb(100%,0%,0%);fill-opacity:1;stroke-width:0.8;stroke-linecap:butt;stroke-linejoin:miter;stroke:rgb(100%,0%,0%);stroke-opacity:1;stroke-miterlimit:4;" d="M 297.457031 89.457031 L 300.65625 86.257812 L 289.457031 89.457031 L 300.65625 92.65625 Z M 297.457031 89.457031 "/>
<path style=" stroke:none;fill-rule:evenodd;fill:rgb(100%,0%,0%);fill-opacity:1;" d="M 515.054688 89.457031 L 511.855469 92.65625 L 523.054688 89.457031 L 511.855469 86.257812 Z M 515.054688 89.457031 "/>
<g clip-path="url(#clip2)" clip-rule="nonzero">
<path style="fill:none;stroke-width:0.8;stroke-linecap:butt;stroke-linejoin:miter;stroke:rgb(100%,0%,0%);stroke-opacity:1;stroke-miterlimit:4;" d="M -515.054688 -89.457031 L -511.855469 -92.65625 L -523.054688 -89.457031 L -511.855469 -86.257812 Z M -515.054688 -89.457031 " transform="matrix(-1,0,0,-1,0,0)"/>
</g>
<path style="fill:none;stroke-width:1.6;stroke-linecap:butt;stroke-linejoin:miter;stroke:rgb(100%,0%,0%);stroke-opacity:1;stroke-miterlimit:4;" d="M 406.257812 3.054688 L 406.257812 175.855469 "/>
<path style="fill-rule:evenodd;fill:rgb(100%,0%,0%);fill-opacity:1;stroke-width:0.8;stroke-linecap:butt;stroke-linejoin:miter;stroke:rgb(100%,0%,0%);stroke-opacity:1;stroke-miterlimit:4;" d="M 9.457031 -406.257812 L 12.65625 -409.457031 L 1.457031 -406.257812 L 12.65625 -403.054688 Z M 9.457031 -406.257812 " transform="matrix(0,1,-1,0,0,0)"/>
<path style=" stroke:none;fill-rule:evenodd;fill:rgb(100%,0%,0%);fill-opacity:1;" d="M 406.257812 169.457031 L 403.054688 166.257812 L 406.257812 177.457031 L 409.457031 166.257812 Z M 406.257812 169.457031 "/>
<g clip-path="url(#clip3)" clip-rule="nonzero">
<path style="fill:none;stroke-width:0.8;stroke-linecap:butt;stroke-linejoin:miter;stroke:rgb(100%,0%,0%);stroke-opacity:1;stroke-miterlimit:4;" d="M -169.457031 406.257812 L -166.257812 403.054688 L -177.457031 406.257812 L -166.257812 409.457031 Z M -169.457031 406.257812 " transform="matrix(0,-1,1,0,0,0)"/>
</g>
<path style="fill:none;stroke-width:0.8;stroke-linecap:butt;stroke-linejoin:miter;stroke:rgb(0%,0%,0%);stroke-opacity:1;stroke-dasharray:2.4,2.4;stroke-miterlimit:4;" d="M 463.855469 3.054688 L 463.855469 175.855469 "/>
<path style="fill:none;stroke-width:0.8;stroke-linecap:butt;stroke-linejoin:miter;stroke:rgb(0%,0%,0%);stroke-opacity:1;stroke-dasharray:2.4,2.4;stroke-miterlimit:4;" d="M 319.457031 3.054688 L 319.457031 175.855469 "/>
<path style="fill-rule:evenodd;fill:rgb(0%,0%,0%);fill-opacity:1;stroke-width:0.8;stroke-linecap:butt;stroke-linejoin:miter;stroke:rgb(100%,100%,100%);stroke-opacity:1;stroke-miterlimit:4;" d="M 379.855469 89.457031 C 379.855469 90.78125 378.78125 91.855469 377.457031 91.855469 C 376.128906 91.855469 375.054688 90.78125 375.054688 89.457031 C 375.054688 88.128906 376.128906 87.054688 377.457031 87.054688 C 378.78125 87.054688 379.855469 88.128906 379.855469 89.457031 Z M 379.855469 89.457031 "/>
<path style="fill-rule:evenodd;fill:rgb(0%,0%,0%);fill-opacity:1;stroke-width:0.8;stroke-linecap:butt;stroke-linejoin:miter;stroke:rgb(100%,100%,100%);stroke-opacity:1;stroke-miterlimit:4;" d="M 408.65625 99.054688 C 408.65625 100.382812 407.582031 101.457031 406.257812 101.457031 C 404.929688 101.457031 403.855469 100.382812 403.855469 99.054688 C 403.855469 97.730469 404.929688 96.65625 406.257812 96.65625 C 407.582031 96.65625 408.65625 97.730469 408.65625 99.054688 Z M 408.65625 99.054688 "/>
<path style=" stroke:none;fill-rule:nonzero;fill:rgb(0%,0%,0%);fill-opacity:1;" d="M 471.507812 107.742188 L 473.207031 106.089844 C 475.679688 103.890625 476.632812 103.039062 476.632812 101.441406 C 476.632812 99.617188 475.207031 98.339844 473.257812 98.339844 C 471.457031 98.339844 470.28125 99.816406 470.28125 101.242188 C 470.28125 102.117188 471.082031 102.117188 471.132812 102.117188 C 471.40625 102.117188 471.957031 101.941406 471.957031 101.265625 C 471.957031 100.867188 471.65625 100.441406 471.105469 100.441406 C 470.980469 100.441406 470.957031 100.441406 470.90625 100.464844 C 471.257812 99.414062 472.132812 98.839844 473.054688 98.839844 C 474.507812 98.839844 475.179688 100.140625 475.179688 101.441406 C 475.179688 102.714844 474.40625 103.964844 473.507812 104.964844 L 470.457031 108.367188 C 470.28125 108.539062 470.28125 108.589844 470.28125 108.964844 L 476.207031 108.964844 L 476.632812 106.191406 L 476.257812 106.191406 C 476.15625 106.664062 476.054688 107.367188 475.882812 107.617188 C 475.78125 107.742188 474.730469 107.742188 474.382812 107.742188 Z M 471.507812 107.742188 "/>
<path style=" stroke:none;fill-rule:nonzero;fill:rgb(0%,0%,0%);fill-opacity:1;" d="M 305.859375 105.117188 C 306.132812 105.117188 306.433594 105.117188 306.433594 104.789062 C 306.433594 104.492188 306.132812 104.492188 305.859375 104.492188 L 297.234375 104.492188 C 296.957031 104.492188 296.683594 104.492188 296.683594 104.789062 C 296.683594 105.117188 296.957031 105.117188 297.234375 105.117188 Z M 305.859375 105.117188 "/>
<path style=" stroke:none;fill-rule:nonzero;fill:rgb(0%,0%,0%);fill-opacity:1;" d="M 312.382812 103.164062 C 313.679688 102.742188 314.605469 101.640625 314.605469 100.367188 C 314.605469 99.066406 313.207031 98.164062 311.679688 98.164062 C 310.082031 98.164062 308.855469 99.117188 308.855469 100.339844 C 308.855469 100.867188 309.207031 101.164062 309.679688 101.164062 C 310.15625 101.164062 310.480469 100.816406 310.480469 100.339844 C 310.480469 99.566406 309.730469 99.566406 309.507812 99.566406 C 309.980469 98.765625 311.03125 98.566406 311.605469 98.566406 C 312.28125 98.566406 313.15625 98.914062 313.15625 100.339844 C 313.15625 100.539062 313.105469 101.464844 312.707031 102.164062 C 312.230469 102.941406 311.679688 102.992188 311.28125 102.992188 C 311.15625 103.015625 310.78125 103.039062 310.65625 103.039062 C 310.53125 103.066406 310.429688 103.089844 310.429688 103.242188 C 310.429688 103.414062 310.53125 103.414062 310.804688 103.414062 L 311.507812 103.414062 C 312.804688 103.414062 313.40625 104.492188 313.40625 106.066406 C 313.40625 108.242188 312.304688 108.691406 311.605469 108.691406 C 310.90625 108.691406 309.707031 108.414062 309.15625 107.492188 C 309.707031 107.566406 310.207031 107.214844 310.207031 106.617188 C 310.207031 106.039062 309.78125 105.714844 309.332031 105.714844 C 308.929688 105.714844 308.429688 105.941406 308.429688 106.640625 C 308.429688 108.089844 309.90625 109.140625 311.65625 109.140625 C 313.605469 109.140625 315.054688 107.691406 315.054688 106.066406 C 315.054688 104.765625 314.03125 103.515625 312.382812 103.164062 Z M 312.382812 103.164062 "/>
<path style=" stroke:none;fill-rule:nonzero;fill:rgb(0%,0%,0%);fill-opacity:1;" d="M 377.410156 105.289062 C 377.683594 105.289062 377.984375 105.289062 377.984375 104.964844 C 377.984375 104.664062 377.683594 104.664062 377.410156 104.664062 L 368.785156 104.664062 C 368.507812 104.664062 368.234375 104.664062 368.234375 104.964844 C 368.234375 105.289062 368.507812 105.289062 368.785156 105.289062 Z M 377.410156 105.289062 "/>
<path style=" stroke:none;fill-rule:nonzero;fill:rgb(0%,0%,0%);fill-opacity:1;" d="M 384.007812 98.765625 C 384.007812 98.367188 384.007812 98.339844 383.632812 98.339844 C 382.632812 99.367188 381.230469 99.367188 380.730469 99.367188 L 380.730469 99.867188 C 381.058594 99.867188 381.980469 99.867188 382.808594 99.441406 L 382.808594 107.714844 C 382.808594 108.289062 382.757812 108.464844 381.332031 108.464844 L 380.832031 108.464844 L 380.832031 108.964844 C 381.382812 108.914062 382.757812 108.914062 383.40625 108.914062 C 384.03125 108.914062 385.433594 108.914062 385.980469 108.964844 L 385.980469 108.464844 L 385.480469 108.464844 C 384.03125 108.464844 384.007812 108.289062 384.007812 107.714844 Z M 384.007812 98.765625 "/>
<path style="fill:none;stroke-width:1.6;stroke-linecap:butt;stroke-linejoin:miter;stroke:rgb(0%,0%,0%);stroke-opacity:1;stroke-miterlimit:4;" d="M 324.65625 3.054688 C 324.65625 3.054688 324.242188 42.90625 329.457031 55.855469 C 334.667969 68.804688 340.304688 74.03125 348.65625 79.855469 C 357.007812 85.679688 377.457031 89.457031 377.457031 89.457031 "/>
<g clip-path="url(#clip4)" clip-rule="nonzero">
<path style="fill:none;stroke-width:1.6;stroke-linecap:butt;stroke-linejoin:miter;stroke:rgb(0%,0%,0%);stroke-opacity:1;stroke-miterlimit:4;" d="M 468.65625 3.054688 C 468.65625 3.054688 468.242188 42.90625 473.457031 55.855469 C 478.667969 68.804688 484.039062 74.800781 492.65625 79.855469 C 501.269531 84.910156 521.457031 84.65625 521.457031 84.65625 "/>
</g>
<g clip-path="url(#clip5)" clip-rule="nonzero">
<path style="fill:none;stroke-width:1.6;stroke-linecap:butt;stroke-linejoin:miter;stroke:rgb(0%,0%,0%);stroke-opacity:1;stroke-miterlimit:4;" d="M 315.054688 175.855469 C 315.054688 175.855469 315.46875 136.003906 310.257812 123.054688 C 305.042969 110.105469 299.671875 104.109375 291.054688 99.054688 C 282.441406 94 262.257812 94.257812 262.257812 94.257812 "/>
</g>
<g clip-path="url(#clip6)" clip-rule="nonzero">
<path style="fill:none;stroke-width:1.6;stroke-linecap:butt;stroke-linejoin:miter;stroke:rgb(0%,0%,0%);stroke-opacity:1;stroke-miterlimit:4;" d="M 459.054688 171.054688 C 459.054688 171.054688 459.851562 131.480469 449.457031 118.257812 C 439.058594 105.03125 418.320312 103.734375 406.257812 99.054688 C 394.191406 94.378906 377.457031 89.457031 377.457031 89.457031 "/>
</g>
<path style="fill:none;stroke-width:1.6;stroke-linecap:butt;stroke-linejoin:miter;stroke:rgb(0%,0%,0%);stroke-opacity:1;stroke-miterlimit:4;" d="M 36.65625 3.054688 C 36.65625 3.054688 36.269531 44.78125 41.457031 55.855469 C 46.644531 66.933594 55.855469 70.257812 55.855469 70.257812 "/>
<g clip-path="url(#clip7)" clip-rule="nonzero">
<path style="fill:none;stroke-width:1.6;stroke-linecap:butt;stroke-linejoin:miter;stroke:rgb(0%,0%,0%);stroke-opacity:1;stroke-miterlimit:4;" d="M 27.054688 175.855469 C 27.054688 175.855469 27.445312 134.132812 22.257812 123.054688 C 17.070312 111.980469 7.855469 108.65625 7.855469 108.65625 "/>
</g>
<path style="fill:none;stroke-width:1.6;stroke-linecap:butt;stroke-linejoin:miter;stroke:rgb(0%,0%,0%);stroke-opacity:1;stroke-miterlimit:4;" d="M 180.921875 2.683594 C 180.921875 2.683594 180.535156 44.40625 185.722656 55.484375 C 190.910156 66.558594 200.125 69.882812 200.125 69.882812 "/>
<g clip-path="url(#clip8)" clip-rule="nonzero">
<path style="fill:none;stroke-width:1.6;stroke-linecap:butt;stroke-linejoin:miter;stroke:rgb(0%,0%,0%);stroke-opacity:1;stroke-miterlimit:4;" d="M 170.789062 176.230469 C 170.789062 176.230469 171.175781 134.503906 165.988281 123.429688 C 160.800781 112.351562 151.589844 109.027344 151.589844 109.027344 "/>
</g>
<path style=" stroke:none;fill-rule:evenodd;fill:rgb(100%,100%,100%);fill-opacity:1;" d="M 412.800781 94.257812 L 433.242188 94.257812 C 434.226562 94.257812 435.019531 95.050781 435.019531 96.035156 L 435.019531 116.476562 C 435.019531 117.460938 434.226562 118.257812 433.242188 118.257812 L 412.800781 118.257812 C 411.8125 118.257812 411.019531 117.460938 411.019531 116.476562 L 411.019531 96.035156 C 411.019531 95.050781 411.8125 94.257812 412.800781 94.257812 Z M 412.800781 94.257812 "/>
<path style=" stroke:none;fill-rule:nonzero;fill:rgb(0%,0%,0%);fill-opacity:1;" d="M 422.527344 104.984375 C 422.800781 104.984375 423.101562 104.984375 423.101562 104.660156 C 423.101562 104.359375 422.800781 104.359375 422.527344 104.359375 L 413.902344 104.359375 C 413.625 104.359375 413.351562 104.359375 413.351562 104.660156 C 413.351562 104.984375 413.625 104.984375 413.902344 104.984375 Z M 422.527344 104.984375 "/>
<path style=" stroke:none;fill-rule:nonzero;fill:rgb(0%,0%,0%);fill-opacity:1;" d="M 430.0625 95.28125 C 430.0625 94.984375 430.0625 94.984375 429.738281 94.984375 C 429.011719 95.683594 428.011719 95.683594 427.5625 95.683594 L 427.5625 96.082031 C 427.8125 96.082031 428.5625 96.082031 429.160156 95.78125 L 429.160156 101.457031 C 429.160156 101.832031 429.160156 101.984375 428.0625 101.984375 L 427.636719 101.984375 L 427.636719 102.382812 C 427.835938 102.382812 429.210938 102.332031 429.613281 102.332031 C 429.960938 102.332031 431.363281 102.382812 431.613281 102.382812 L 431.613281 101.984375 L 431.1875 101.984375 C 430.0625 101.984375 430.0625 101.832031 430.0625 101.457031 Z M 430.0625 95.28125 "/>
<path style="fill:none;stroke-width:0.6368;stroke-linecap:butt;stroke-linejoin:miter;stroke:rgb(0%,0%,0%);stroke-opacity:1;stroke-miterlimit:10;" d="M 426.335938 -104.671875 L 432.691406 -104.671875 " transform="matrix(1,0,0,-1,0,0)"/>
<path style=" stroke:none;fill-rule:nonzero;fill:rgb(0%,0%,0%);fill-opacity:1;" d="M 428.011719 110.503906 C 428.011719 109.605469 428.085938 108.78125 428.511719 108.082031 C 428.886719 107.480469 429.488281 107.082031 430.210938 107.082031 C 430.535156 107.082031 430.988281 107.15625 431.210938 107.457031 C 430.9375 107.480469 430.6875 107.679688 430.6875 108.003906 C 430.6875 108.28125 430.886719 108.53125 431.210938 108.53125 C 431.5625 108.53125 431.761719 108.304688 431.761719 107.980469 C 431.761719 107.332031 431.285156 106.753906 430.1875 106.753906 C 428.585938 106.753906 426.9375 108.230469 426.9375 110.628906 C 426.9375 113.503906 428.285156 114.378906 429.535156 114.378906 C 430.886719 114.378906 432.0625 113.332031 432.0625 111.878906 C 432.0625 110.457031 430.9375 109.40625 429.636719 109.40625 C 428.738281 109.40625 428.261719 110.003906 428.011719 110.503906 Z M 429.535156 114.03125 C 428.960938 114.03125 428.535156 113.707031 428.285156 113.207031 C 428.136719 112.878906 428.035156 112.304688 428.035156 111.65625 C 428.035156 110.554688 428.6875 109.730469 429.585938 109.730469 C 430.085938 109.730469 430.4375 109.929688 430.710938 110.332031 C 430.988281 110.753906 430.988281 111.230469 430.988281 111.878906 C 430.988281 112.503906 430.988281 112.980469 430.6875 113.429688 C 430.4375 113.804688 430.0625 114.03125 429.535156 114.03125 Z M 429.535156 114.03125 "/>
</g>
</svg>
