<?xml version="1.0" encoding="UTF-8"?>
<svg xmlns="http://www.w3.org/2000/svg" xmlns:xlink="http://www.w3.org/1999/xlink" width="303.52359pt" height="204.656021pt" viewBox="0 0 303.52359 204.656021" version="1.1">
<defs>
<clipPath id="clip1">
  <path d="M 195 60 L 197 60 L 197 204.65625 L 195 204.65625 Z M 195 60 "/>
</clipPath>
<clipPath id="clip2">
  <path d="M 65 60 L 67 60 L 67 204.65625 L 65 204.65625 Z M 65 60 "/>
</clipPath>
<clipPath id="clip3">
  <path d="M 297 147 L 303.523438 147 L 303.523438 176 L 297 176 Z M 297 147 "/>
</clipPath>
</defs>
<g id="surface1">
<g clip-path="url(#clip1)" clip-rule="nonzero">
<path style="fill:none;stroke-width:0.8;stroke-linecap:butt;stroke-linejoin:miter;stroke:rgb(0%,0%,0%);stroke-opacity:1;stroke-dasharray:0.8,1.6;stroke-miterlimit:4;" d="M 195.878906 60.65625 L 195.878906 204.65625 "/>
</g>
<g clip-path="url(#clip2)" clip-rule="nonzero">
<path style="fill:none;stroke-width:0.8;stroke-linecap:butt;stroke-linejoin:miter;stroke:rgb(0%,0%,0%);stroke-opacity:1;stroke-dasharray:0.8,1.6;stroke-miterlimit:4;" d="M 66.277344 60.65625 L 66.277344 204.65625 "/>
</g>
<path style="fill:none;stroke-width:1.6;stroke-linecap:butt;stroke-linejoin:miter;stroke:rgb(100%,0%,0%);stroke-opacity:1;stroke-miterlimit:4;" d="M 23.078125 89.457031 L 267.878906 89.457031 "/>
<path style="fill-rule:evenodd;fill:rgb(100%,0%,0%);fill-opacity:1;stroke-width:0.8;stroke-linecap:butt;stroke-linejoin:miter;stroke:rgb(100%,0%,0%);stroke-opacity:1;stroke-miterlimit:4;" d="M 29.476562 89.457031 L 32.679688 86.257812 L 21.476562 89.457031 L 32.679688 92.65625 Z M 29.476562 89.457031 "/>
<path style="fill-rule:evenodd;fill:rgb(100%,0%,0%);fill-opacity:1;stroke-width:0.8;stroke-linecap:butt;stroke-linejoin:miter;stroke:rgb(100%,0%,0%);stroke-opacity:1;stroke-miterlimit:4;" d="M -261.476562 -89.457031 L -258.277344 -92.65625 L -269.476562 -89.457031 L -258.277344 -86.257812 Z M -261.476562 -89.457031 " transform="matrix(-1,0,0,-1,0,0)"/>
<path style="fill:none;stroke-width:1.6;stroke-linecap:butt;stroke-linejoin:miter;stroke:rgb(100%,0%,0%);stroke-opacity:1;stroke-miterlimit:4;" d="M 66.277344 3.054688 L 66.277344 175.855469 "/>
<path style="fill-rule:evenodd;fill:rgb(100%,0%,0%);fill-opacity:1;stroke-width:0.8;stroke-linecap:butt;stroke-linejoin:miter;stroke:rgb(100%,0%,0%);stroke-opacity:1;stroke-miterlimit:4;" d="M 9.457031 -66.277344 L 12.65625 -69.476562 L 1.457031 -66.277344 L 12.65625 -63.078125 Z M 9.457031 -66.277344 " transform="matrix(0,1,-1,0,0,0)"/>
<path style="fill-rule:evenodd;fill:rgb(100%,0%,0%);fill-opacity:1;stroke-width:0.8;stroke-linecap:butt;stroke-linejoin:miter;stroke:rgb(100%,0%,0%);stroke-opacity:1;stroke-miterlimit:4;" d="M -169.457031 66.277344 L -166.257812 63.078125 L -177.457031 66.277344 L -166.257812 69.476562 Z M -169.457031 66.277344 " transform="matrix(0,-1,1,0,0,0)"/>
<path style="fill:none;stroke-width:1.6;stroke-linecap:round;stroke-linejoin:miter;stroke:rgb(0%,0%,0%);stroke-opacity:1;stroke-miterlimit:4;" d="M 37.476562 70.257812 C 37.476562 70.257812 42.277344 89.457031 66.277344 89.457031 C 90.277344 89.457031 104.679688 103.855469 104.679688 103.855469 "/>
<path style="fill-rule:evenodd;fill:rgb(0%,0%,0%);fill-opacity:1;stroke-width:0.8;stroke-linecap:butt;stroke-linejoin:miter;stroke:rgb(100%,100%,100%);stroke-opacity:1;stroke-miterlimit:4;" d="M 68.679688 89.457031 C 68.679688 90.78125 67.605469 91.855469 66.277344 91.855469 C 64.953125 91.855469 63.878906 90.78125 63.878906 89.457031 C 63.878906 88.128906 64.953125 87.054688 66.277344 87.054688 C 67.605469 87.054688 68.679688 88.128906 68.679688 89.457031 Z M 68.679688 89.457031 "/>
<path style="fill:none;stroke-width:1.6;stroke-linecap:butt;stroke-linejoin:miter;stroke:rgb(0%,0%,0%);stroke-opacity:1;stroke-miterlimit:4;" d="M 224.679688 156.65625 L 239.078125 89.457031 L 248.679688 51.054688 "/>
<path style="fill-rule:evenodd;fill:rgb(0%,0%,0%);fill-opacity:1;stroke-width:0.8;stroke-linecap:butt;stroke-linejoin:miter;stroke:rgb(100%,100%,100%);stroke-opacity:1;stroke-miterlimit:4;" d="M 241.476562 89.457031 C 241.476562 90.78125 240.402344 91.855469 239.078125 91.855469 C 237.753906 91.855469 236.679688 90.78125 236.679688 89.457031 C 236.679688 88.128906 237.753906 87.054688 239.078125 87.054688 C 240.402344 87.054688 241.476562 88.128906 241.476562 89.457031 Z M 241.476562 89.457031 "/>
<path style=" stroke:none;fill-rule:nonzero;fill:rgb(0%,0%,0%);fill-opacity:1;" d="M 246.789062 98.96875 L 246.789062 98.570312 C 246.789062 94.542969 248.765625 93.96875 249.589844 93.96875 C 249.964844 93.96875 250.640625 94.070312 250.992188 94.617188 C 250.742188 94.617188 250.117188 94.617188 250.117188 95.320312 C 250.117188 95.820312 250.492188 96.070312 250.839844 96.070312 C 251.089844 96.070312 251.589844 95.917969 251.589844 95.292969 C 251.589844 94.34375 250.890625 93.570312 249.566406 93.570312 C 247.515625 93.570312 245.367188 95.617188 245.367188 99.144531 C 245.367188 103.417969 247.214844 104.542969 248.691406 104.542969 C 250.464844 104.542969 251.992188 103.042969 251.992188 100.945312 C 251.992188 98.917969 250.566406 97.394531 248.789062 97.394531 C 247.714844 97.394531 247.117188 98.195312 246.789062 98.96875 Z M 248.691406 104.09375 C 247.691406 104.09375 247.214844 103.144531 247.117188 102.894531 C 246.816406 102.144531 246.816406 100.867188 246.816406 100.59375 C 246.816406 99.34375 247.339844 97.742188 248.765625 97.742188 C 249.039062 97.742188 249.765625 97.742188 250.265625 98.742188 C 250.539062 99.320312 250.539062 100.144531 250.539062 100.917969 C 250.539062 101.695312 250.539062 102.492188 250.265625 103.070312 C 249.789062 104.019531 249.066406 104.09375 248.691406 104.09375 Z M 248.691406 104.09375 "/>
<path style=" stroke:none;fill-rule:nonzero;fill:rgb(0%,0%,0%);fill-opacity:1;" d="M 5.5 194.832031 L 5.5 195.882812 L 7.851562 195.707031 L 7.851562 195.207031 C 6.75 195.207031 6.601562 195.105469 6.601562 194.304688 L 6.601562 184.632812 L 4.324219 184.804688 L 4.324219 185.304688 C 5.425781 185.304688 5.550781 185.40625 5.550781 186.207031 L 5.550781 189.65625 C 5.101562 189.082031 4.398438 188.65625 3.550781 188.65625 C 1.675781 188.65625 0 190.230469 0 192.28125 C 0 194.304688 1.550781 195.882812 3.375 195.882812 C 4.398438 195.882812 5.101562 195.332031 5.5 194.832031 Z M 5.5 190.554688 L 5.5 193.832031 C 5.5 194.105469 5.5 194.132812 5.324219 194.40625 C 4.851562 195.179688 4.148438 195.53125 3.449219 195.53125 C 2.726562 195.53125 2.148438 195.105469 1.773438 194.507812 C 1.375 193.855469 1.324219 192.957031 1.324219 192.28125 C 1.324219 191.707031 1.351562 190.757812 1.800781 190.03125 C 2.148438 189.53125 2.75 189.007812 3.625 189.007812 C 4.175781 189.007812 4.851562 189.257812 5.324219 189.957031 C 5.5 190.230469 5.5 190.257812 5.5 190.554688 Z M 5.5 190.554688 "/>
<path style=" stroke:none;fill-rule:nonzero;fill:rgb(0%,0%,0%);fill-opacity:1;" d="M 10.082031 191.679688 C 10.179688 189.304688 11.53125 188.90625 12.082031 188.90625 C 13.707031 188.90625 13.882812 191.054688 13.882812 191.679688 Z M 10.082031 192.03125 L 14.53125 192.03125 C 14.882812 192.03125 14.929688 192.03125 14.929688 191.679688 C 14.929688 190.105469 14.054688 188.554688 12.082031 188.554688 C 10.230469 188.554688 8.757812 190.207031 8.757812 192.207031 C 8.757812 194.332031 10.429688 195.882812 12.257812 195.882812 C 14.207031 195.882812 14.929688 194.105469 14.929688 193.804688 C 14.929688 193.65625 14.804688 193.605469 14.707031 193.605469 C 14.582031 193.605469 14.53125 193.707031 14.507812 193.832031 C 13.957031 195.480469 12.507812 195.480469 12.355469 195.480469 C 11.554688 195.480469 10.929688 195.007812 10.554688 194.40625 C 10.082031 193.65625 10.082031 192.605469 10.082031 192.03125 Z M 10.082031 192.03125 "/>
<path style=" stroke:none;fill-rule:nonzero;fill:rgb(0%,0%,0%);fill-opacity:1;" d="M 17.265625 192.230469 C 17.265625 189.632812 18.566406 188.957031 19.414062 188.957031 C 19.566406 188.957031 20.566406 188.980469 21.113281 189.554688 C 20.464844 189.605469 20.363281 190.082031 20.363281 190.28125 C 20.363281 190.707031 20.664062 191.007812 21.089844 191.007812 C 21.515625 191.007812 21.839844 190.757812 21.839844 190.257812 C 21.839844 189.179688 20.613281 188.554688 19.390625 188.554688 C 17.390625 188.554688 15.941406 190.28125 15.941406 192.257812 C 15.941406 194.304688 17.515625 195.882812 19.363281 195.882812 C 21.488281 195.882812 22.015625 193.957031 22.015625 193.804688 C 22.015625 193.65625 21.839844 193.65625 21.789062 193.65625 C 21.664062 193.65625 21.613281 193.707031 21.589844 193.804688 C 21.140625 195.28125 20.089844 195.480469 19.515625 195.480469 C 18.664062 195.480469 17.265625 194.804688 17.265625 192.230469 Z M 17.265625 192.230469 "/>
<path style=" stroke:none;fill-rule:nonzero;fill:rgb(0%,0%,0%);fill-opacity:1;" d="M 25.148438 190.40625 L 25.148438 188.65625 L 22.925781 188.832031 L 22.925781 189.332031 C 24.050781 189.332031 24.175781 189.429688 24.175781 190.230469 L 24.175781 194.507812 C 24.175781 195.207031 24 195.207031 22.925781 195.207031 L 22.925781 195.707031 C 23.550781 195.679688 24.300781 195.65625 24.75 195.65625 C 25.375 195.65625 26.125 195.65625 26.773438 195.707031 L 26.773438 195.207031 L 26.425781 195.207031 C 25.25 195.207031 25.222656 195.03125 25.222656 194.457031 L 25.222656 192.007812 C 25.222656 190.429688 25.898438 189.007812 27.097656 189.007812 C 27.199219 189.007812 27.25 189.007812 27.273438 189.03125 C 27.222656 189.03125 26.898438 189.230469 26.898438 189.65625 C 26.898438 190.082031 27.25 190.332031 27.597656 190.332031 C 27.875 190.332031 28.273438 190.132812 28.273438 189.632812 C 28.273438 189.132812 27.773438 188.65625 27.097656 188.65625 C 25.925781 188.65625 25.347656 189.730469 25.148438 190.40625 Z M 25.148438 190.40625 "/>
<path style=" stroke:none;fill-rule:nonzero;fill:rgb(0%,0%,0%);fill-opacity:1;" d="M 30.492188 191.679688 C 30.59375 189.304688 31.941406 188.90625 32.492188 188.90625 C 34.117188 188.90625 34.292969 191.054688 34.292969 191.679688 Z M 30.492188 192.03125 L 34.941406 192.03125 C 35.292969 192.03125 35.34375 192.03125 35.34375 191.679688 C 35.34375 190.105469 34.46875 188.554688 32.492188 188.554688 C 30.644531 188.554688 29.167969 190.207031 29.167969 192.207031 C 29.167969 194.332031 30.84375 195.882812 32.667969 195.882812 C 34.617188 195.882812 35.34375 194.105469 35.34375 193.804688 C 35.34375 193.65625 35.21875 193.605469 35.117188 193.605469 C 34.992188 193.605469 34.941406 193.707031 34.917969 193.832031 C 34.367188 195.480469 32.917969 195.480469 32.769531 195.480469 C 31.96875 195.480469 31.34375 195.007812 30.96875 194.40625 C 30.492188 193.65625 30.492188 192.605469 30.492188 192.03125 Z M 30.492188 192.03125 "/>
<path style=" stroke:none;fill-rule:nonzero;fill:rgb(0%,0%,0%);fill-opacity:1;" d="M 41.101562 194.507812 C 41.175781 195.132812 41.601562 195.804688 42.351562 195.804688 C 42.703125 195.804688 43.675781 195.582031 43.675781 194.28125 L 43.675781 193.382812 L 43.277344 193.382812 L 43.277344 194.28125 C 43.277344 195.207031 42.875 195.304688 42.703125 195.304688 C 42.175781 195.304688 42.101562 194.582031 42.101562 194.507812 L 42.101562 191.332031 C 42.101562 190.65625 42.101562 190.03125 41.527344 189.429688 C 40.902344 188.804688 40.101562 188.554688 39.351562 188.554688 C 38.027344 188.554688 36.925781 189.304688 36.925781 190.355469 C 36.925781 190.832031 37.25 191.105469 37.675781 191.105469 C 38.125 191.105469 38.402344 190.78125 38.402344 190.382812 C 38.402344 190.179688 38.328125 189.65625 37.578125 189.65625 C 38.027344 189.082031 38.800781 188.90625 39.300781 188.90625 C 40.101562 188.90625 41 189.53125 41 190.957031 L 41 191.53125 C 40.175781 191.582031 39.078125 191.632812 38.078125 192.105469 C 36.875 192.65625 36.476562 193.480469 36.476562 194.179688 C 36.476562 195.480469 38.027344 195.882812 39.027344 195.882812 C 40.078125 195.882812 40.800781 195.230469 41.101562 194.507812 Z M 41 191.882812 L 41 193.480469 C 41 194.980469 39.851562 195.53125 39.125 195.53125 C 38.351562 195.53125 37.703125 194.980469 37.703125 194.179688 C 37.703125 193.304688 38.375 191.980469 41 191.882812 Z M 41 191.882812 "/>
<path style=" stroke:none;fill-rule:nonzero;fill:rgb(0%,0%,0%);fill-opacity:1;" d="M 47.097656 192.605469 C 47.445312 192.679688 48.746094 192.929688 48.746094 194.082031 C 48.746094 194.882812 48.195312 195.53125 46.945312 195.53125 C 45.597656 195.53125 45.023438 194.632812 44.722656 193.257812 C 44.671875 193.054688 44.671875 193.007812 44.496094 193.007812 C 44.296875 193.007812 44.296875 193.105469 44.296875 193.382812 L 44.296875 195.507812 C 44.296875 195.78125 44.296875 195.882812 44.472656 195.882812 C 44.546875 195.882812 44.570312 195.855469 44.871094 195.554688 C 44.898438 195.53125 44.898438 195.507812 45.195312 195.207031 C 45.898438 195.855469 46.621094 195.882812 46.945312 195.882812 C 48.773438 195.882812 49.523438 194.804688 49.523438 193.65625 C 49.523438 192.832031 49.046875 192.332031 48.847656 192.15625 C 48.320312 191.632812 47.695312 191.507812 47.023438 191.382812 C 46.121094 191.207031 45.070312 191.007812 45.070312 190.082031 C 45.070312 189.507812 45.472656 188.855469 46.847656 188.855469 C 48.597656 188.855469 48.695312 190.304688 48.722656 190.78125 C 48.722656 190.929688 48.871094 190.929688 48.898438 190.929688 C 49.121094 190.929688 49.121094 190.855469 49.121094 190.554688 L 49.121094 188.929688 C 49.121094 188.679688 49.121094 188.554688 48.945312 188.554688 C 48.871094 188.554688 48.820312 188.554688 48.621094 188.757812 C 48.570312 188.804688 48.421875 188.957031 48.347656 189.007812 C 47.746094 188.554688 47.097656 188.554688 46.847656 188.554688 C 44.898438 188.554688 44.296875 189.632812 44.296875 190.53125 C 44.296875 191.082031 44.546875 191.53125 44.972656 191.882812 C 45.496094 192.28125 45.945312 192.382812 47.097656 192.605469 Z M 47.097656 192.605469 "/>
<path style=" stroke:none;fill-rule:nonzero;fill:rgb(0%,0%,0%);fill-opacity:1;" d="M 51.832031 191.679688 C 51.933594 189.304688 53.285156 188.90625 53.832031 188.90625 C 55.457031 188.90625 55.632812 191.054688 55.632812 191.679688 Z M 51.832031 192.03125 L 56.285156 192.03125 C 56.632812 192.03125 56.683594 192.03125 56.683594 191.679688 C 56.683594 190.105469 55.808594 188.554688 53.832031 188.554688 C 51.984375 188.554688 50.507812 190.207031 50.507812 192.207031 C 50.507812 194.332031 52.183594 195.882812 54.007812 195.882812 C 55.957031 195.882812 56.683594 194.105469 56.683594 193.804688 C 56.683594 193.65625 56.558594 193.605469 56.457031 193.605469 C 56.332031 193.605469 56.285156 193.707031 56.257812 193.832031 C 55.707031 195.480469 54.257812 195.480469 54.109375 195.480469 C 53.308594 195.480469 52.683594 195.007812 52.308594 194.40625 C 51.832031 193.65625 51.832031 192.605469 51.832031 192.03125 Z M 51.832031 192.03125 "/>
<path style=" stroke:none;fill-rule:nonzero;fill:rgb(0%,0%,0%);fill-opacity:1;" d="M 208.339844 188.65625 L 206.113281 188.832031 L 206.113281 189.332031 C 207.140625 189.332031 207.289062 189.429688 207.289062 190.207031 L 207.289062 194.507812 C 207.289062 195.207031 207.113281 195.207031 206.039062 195.207031 L 206.039062 195.707031 C 206.539062 195.679688 207.414062 195.65625 207.789062 195.65625 C 208.363281 195.65625 208.914062 195.679688 209.464844 195.707031 L 209.464844 195.207031 C 208.390625 195.207031 208.339844 195.132812 208.339844 194.507812 Z M 208.390625 185.882812 C 208.390625 185.382812 208.015625 185.03125 207.566406 185.03125 C 207.066406 185.03125 206.714844 185.457031 206.714844 185.882812 C 206.714844 186.304688 207.066406 186.730469 207.566406 186.730469 C 208.015625 186.730469 208.390625 186.382812 208.390625 185.882812 Z M 208.390625 185.882812 "/>
<path style=" stroke:none;fill-rule:nonzero;fill:rgb(0%,0%,0%);fill-opacity:1;" d="M 211.691406 190.230469 L 211.691406 194.507812 C 211.691406 195.207031 211.519531 195.207031 210.441406 195.207031 L 210.441406 195.707031 C 211.019531 195.679688 211.816406 195.65625 212.269531 195.65625 C 212.667969 195.65625 213.492188 195.679688 214.042969 195.707031 L 214.042969 195.207031 C 212.96875 195.207031 212.792969 195.207031 212.792969 194.507812 L 212.792969 191.554688 C 212.792969 189.90625 213.941406 189.007812 214.941406 189.007812 C 215.96875 189.007812 216.144531 189.855469 216.144531 190.78125 L 216.144531 194.507812 C 216.144531 195.207031 215.96875 195.207031 214.894531 195.207031 L 214.894531 195.707031 C 215.441406 195.679688 216.269531 195.65625 216.691406 195.65625 C 217.09375 195.65625 217.941406 195.679688 218.46875 195.707031 L 218.46875 195.207031 C 217.644531 195.207031 217.242188 195.207031 217.242188 194.730469 L 217.242188 191.679688 C 217.242188 190.304688 217.242188 189.832031 216.742188 189.257812 C 216.519531 188.980469 215.992188 188.65625 215.066406 188.65625 C 213.894531 188.65625 213.144531 189.332031 212.691406 190.332031 L 212.691406 188.65625 L 210.441406 188.832031 L 210.441406 189.332031 C 211.566406 189.332031 211.691406 189.429688 211.691406 190.230469 Z M 211.691406 190.230469 "/>
<path style=" stroke:none;fill-rule:nonzero;fill:rgb(0%,0%,0%);fill-opacity:1;" d="M 220.675781 192.230469 C 220.675781 189.632812 221.972656 188.957031 222.824219 188.957031 C 222.972656 188.957031 223.972656 188.980469 224.523438 189.554688 C 223.875 189.605469 223.773438 190.082031 223.773438 190.28125 C 223.773438 190.707031 224.074219 191.007812 224.5 191.007812 C 224.925781 191.007812 225.25 190.757812 225.25 190.257812 C 225.25 189.179688 224.023438 188.554688 222.800781 188.554688 C 220.800781 188.554688 219.347656 190.28125 219.347656 192.257812 C 219.347656 194.304688 220.925781 195.882812 222.773438 195.882812 C 224.898438 195.882812 225.425781 193.957031 225.425781 193.804688 C 225.425781 193.65625 225.25 193.65625 225.199219 193.65625 C 225.074219 193.65625 225.023438 193.707031 225 193.804688 C 224.550781 195.28125 223.5 195.480469 222.925781 195.480469 C 222.074219 195.480469 220.675781 194.804688 220.675781 192.230469 Z M 220.675781 192.230469 "/>
<path style=" stroke:none;fill-rule:nonzero;fill:rgb(0%,0%,0%);fill-opacity:1;" d="M 228.558594 190.40625 L 228.558594 188.65625 L 226.332031 188.832031 L 226.332031 189.332031 C 227.457031 189.332031 227.582031 189.429688 227.582031 190.230469 L 227.582031 194.507812 C 227.582031 195.207031 227.410156 195.207031 226.332031 195.207031 L 226.332031 195.707031 C 226.957031 195.679688 227.707031 195.65625 228.160156 195.65625 C 228.785156 195.65625 229.535156 195.65625 230.183594 195.707031 L 230.183594 195.207031 L 229.832031 195.207031 C 228.660156 195.207031 228.632812 195.03125 228.632812 194.457031 L 228.632812 192.007812 C 228.632812 190.429688 229.308594 189.007812 230.507812 189.007812 C 230.609375 189.007812 230.660156 189.007812 230.683594 189.03125 C 230.632812 189.03125 230.308594 189.230469 230.308594 189.65625 C 230.308594 190.082031 230.660156 190.332031 231.007812 190.332031 C 231.285156 190.332031 231.683594 190.132812 231.683594 189.632812 C 231.683594 189.132812 231.183594 188.65625 230.507812 188.65625 C 229.332031 188.65625 228.757812 189.730469 228.558594 190.40625 Z M 228.558594 190.40625 "/>
<path style=" stroke:none;fill-rule:nonzero;fill:rgb(0%,0%,0%);fill-opacity:1;" d="M 233.902344 191.679688 C 234.003906 189.304688 235.351562 188.90625 235.902344 188.90625 C 237.527344 188.90625 237.703125 191.054688 237.703125 191.679688 Z M 233.902344 192.03125 L 238.351562 192.03125 C 238.703125 192.03125 238.753906 192.03125 238.753906 191.679688 C 238.753906 190.105469 237.878906 188.554688 235.902344 188.554688 C 234.050781 188.554688 232.578125 190.207031 232.578125 192.207031 C 232.578125 194.332031 234.253906 195.882812 236.078125 195.882812 C 238.027344 195.882812 238.753906 194.105469 238.753906 193.804688 C 238.753906 193.65625 238.628906 193.605469 238.527344 193.605469 C 238.402344 193.605469 238.351562 193.707031 238.328125 193.832031 C 237.777344 195.480469 236.328125 195.480469 236.175781 195.480469 C 235.378906 195.480469 234.753906 195.007812 234.378906 194.40625 C 233.902344 193.65625 233.902344 192.605469 233.902344 192.03125 Z M 233.902344 192.03125 "/>
<path style=" stroke:none;fill-rule:nonzero;fill:rgb(0%,0%,0%);fill-opacity:1;" d="M 244.511719 194.507812 C 244.585938 195.132812 245.011719 195.804688 245.761719 195.804688 C 246.109375 195.804688 247.085938 195.582031 247.085938 194.28125 L 247.085938 193.382812 L 246.6875 193.382812 L 246.6875 194.28125 C 246.6875 195.207031 246.285156 195.304688 246.109375 195.304688 C 245.585938 195.304688 245.511719 194.582031 245.511719 194.507812 L 245.511719 191.332031 C 245.511719 190.65625 245.511719 190.03125 244.9375 189.429688 C 244.3125 188.804688 243.511719 188.554688 242.761719 188.554688 C 241.4375 188.554688 240.335938 189.304688 240.335938 190.355469 C 240.335938 190.832031 240.660156 191.105469 241.085938 191.105469 C 241.535156 191.105469 241.8125 190.78125 241.8125 190.382812 C 241.8125 190.179688 241.734375 189.65625 240.984375 189.65625 C 241.4375 189.082031 242.210938 188.90625 242.710938 188.90625 C 243.511719 188.90625 244.410156 189.53125 244.410156 190.957031 L 244.410156 191.53125 C 243.585938 191.582031 242.484375 191.632812 241.484375 192.105469 C 240.285156 192.65625 239.886719 193.480469 239.886719 194.179688 C 239.886719 195.480469 241.4375 195.882812 242.4375 195.882812 C 243.484375 195.882812 244.210938 195.230469 244.511719 194.507812 Z M 244.410156 191.882812 L 244.410156 193.480469 C 244.410156 194.980469 243.261719 195.53125 242.535156 195.53125 C 241.761719 195.53125 241.109375 194.980469 241.109375 194.179688 C 241.109375 193.304688 241.785156 191.980469 244.410156 191.882812 Z M 244.410156 191.882812 "/>
<path style=" stroke:none;fill-rule:nonzero;fill:rgb(0%,0%,0%);fill-opacity:1;" d="M 250.507812 192.605469 C 250.855469 192.679688 252.15625 192.929688 252.15625 194.082031 C 252.15625 194.882812 251.605469 195.53125 250.355469 195.53125 C 249.007812 195.53125 248.429688 194.632812 248.132812 193.257812 C 248.082031 193.054688 248.082031 193.007812 247.90625 193.007812 C 247.707031 193.007812 247.707031 193.105469 247.707031 193.382812 L 247.707031 195.507812 C 247.707031 195.78125 247.707031 195.882812 247.882812 195.882812 C 247.957031 195.882812 247.980469 195.855469 248.28125 195.554688 C 248.304688 195.53125 248.304688 195.507812 248.605469 195.207031 C 249.304688 195.855469 250.03125 195.882812 250.355469 195.882812 C 252.179688 195.882812 252.929688 194.804688 252.929688 193.65625 C 252.929688 192.832031 252.457031 192.332031 252.257812 192.15625 C 251.730469 191.632812 251.105469 191.507812 250.429688 191.382812 C 249.53125 191.207031 248.480469 191.007812 248.480469 190.082031 C 248.480469 189.507812 248.882812 188.855469 250.257812 188.855469 C 252.007812 188.855469 252.105469 190.304688 252.132812 190.78125 C 252.132812 190.929688 252.28125 190.929688 252.304688 190.929688 C 252.53125 190.929688 252.53125 190.855469 252.53125 190.554688 L 252.53125 188.929688 C 252.53125 188.679688 252.53125 188.554688 252.355469 188.554688 C 252.28125 188.554688 252.230469 188.554688 252.03125 188.757812 C 251.980469 188.804688 251.832031 188.957031 251.757812 189.007812 C 251.15625 188.554688 250.507812 188.554688 250.257812 188.554688 C 248.304688 188.554688 247.707031 189.632812 247.707031 190.53125 C 247.707031 191.082031 247.957031 191.53125 248.382812 191.882812 C 248.90625 192.28125 249.355469 192.382812 250.507812 192.605469 Z M 250.507812 192.605469 "/>
<path style=" stroke:none;fill-rule:nonzero;fill:rgb(0%,0%,0%);fill-opacity:1;" d="M 255.242188 191.679688 C 255.34375 189.304688 256.691406 188.90625 257.242188 188.90625 C 258.867188 188.90625 259.042969 191.054688 259.042969 191.679688 Z M 255.242188 192.03125 L 259.691406 192.03125 C 260.042969 192.03125 260.09375 192.03125 260.09375 191.679688 C 260.09375 190.105469 259.21875 188.554688 257.242188 188.554688 C 255.394531 188.554688 253.917969 190.207031 253.917969 192.207031 C 253.917969 194.332031 255.59375 195.882812 257.417969 195.882812 C 259.367188 195.882812 260.09375 194.105469 260.09375 193.804688 C 260.09375 193.65625 259.96875 193.605469 259.867188 193.605469 C 259.742188 193.605469 259.691406 193.707031 259.667969 193.832031 C 259.117188 195.480469 257.667969 195.480469 257.519531 195.480469 C 256.71875 195.480469 256.09375 195.007812 255.71875 194.40625 C 255.242188 193.65625 255.242188 192.605469 255.242188 192.03125 Z M 255.242188 192.03125 "/>
<path style=" stroke:none;fill-rule:nonzero;fill:rgb(0%,0%,0%);fill-opacity:1;" d="M 108.238281 194.832031 L 108.238281 195.882812 L 110.585938 195.707031 L 110.585938 195.207031 C 109.488281 195.207031 109.335938 195.105469 109.335938 194.304688 L 109.335938 184.632812 L 107.0625 184.804688 L 107.0625 185.304688 C 108.160156 185.304688 108.285156 185.40625 108.285156 186.207031 L 108.285156 189.65625 C 107.835938 189.082031 107.136719 188.65625 106.285156 188.65625 C 104.410156 188.65625 102.738281 190.230469 102.738281 192.28125 C 102.738281 194.304688 104.285156 195.882812 106.113281 195.882812 C 107.136719 195.882812 107.835938 195.332031 108.238281 194.832031 Z M 108.238281 190.554688 L 108.238281 193.832031 C 108.238281 194.105469 108.238281 194.132812 108.0625 194.40625 C 107.585938 195.179688 106.886719 195.53125 106.1875 195.53125 C 105.460938 195.53125 104.886719 195.105469 104.511719 194.507812 C 104.113281 193.855469 104.0625 192.957031 104.0625 192.28125 C 104.0625 191.707031 104.085938 190.757812 104.535156 190.03125 C 104.886719 189.53125 105.488281 189.007812 106.363281 189.007812 C 106.910156 189.007812 107.585938 189.257812 108.0625 189.957031 C 108.238281 190.230469 108.238281 190.257812 108.238281 190.554688 Z M 108.238281 190.554688 "/>
<path style=" stroke:none;fill-rule:nonzero;fill:rgb(0%,0%,0%);fill-opacity:1;" d="M 112.816406 191.679688 C 112.917969 189.304688 114.269531 188.90625 114.816406 188.90625 C 116.441406 188.90625 116.617188 191.054688 116.617188 191.679688 Z M 112.816406 192.03125 L 117.269531 192.03125 C 117.617188 192.03125 117.667969 192.03125 117.667969 191.679688 C 117.667969 190.105469 116.792969 188.554688 114.816406 188.554688 C 112.96875 188.554688 111.492188 190.207031 111.492188 192.207031 C 111.492188 194.332031 113.167969 195.882812 114.992188 195.882812 C 116.941406 195.882812 117.667969 194.105469 117.667969 193.804688 C 117.667969 193.65625 117.542969 193.605469 117.441406 193.605469 C 117.316406 193.605469 117.269531 193.707031 117.242188 193.832031 C 116.691406 195.480469 115.242188 195.480469 115.09375 195.480469 C 114.292969 195.480469 113.667969 195.007812 113.292969 194.40625 C 112.816406 193.65625 112.816406 192.605469 112.816406 192.03125 Z M 112.816406 192.03125 "/>
<path style=" stroke:none;fill-rule:nonzero;fill:rgb(0%,0%,0%);fill-opacity:1;" d="M 120 192.230469 C 120 189.632812 121.300781 188.957031 122.152344 188.957031 C 122.300781 188.957031 123.300781 188.980469 123.851562 189.554688 C 123.203125 189.605469 123.101562 190.082031 123.101562 190.28125 C 123.101562 190.707031 123.402344 191.007812 123.828125 191.007812 C 124.25 191.007812 124.578125 190.757812 124.578125 190.257812 C 124.578125 189.179688 123.351562 188.554688 122.125 188.554688 C 120.125 188.554688 118.675781 190.28125 118.675781 192.257812 C 118.675781 194.304688 120.25 195.882812 122.101562 195.882812 C 124.226562 195.882812 124.75 193.957031 124.75 193.804688 C 124.75 193.65625 124.578125 193.65625 124.527344 193.65625 C 124.402344 193.65625 124.351562 193.707031 124.328125 193.804688 C 123.875 195.28125 122.828125 195.480469 122.25 195.480469 C 121.402344 195.480469 120 194.804688 120 192.230469 Z M 120 192.230469 "/>
<path style=" stroke:none;fill-rule:nonzero;fill:rgb(0%,0%,0%);fill-opacity:1;" d="M 127.886719 190.40625 L 127.886719 188.65625 L 125.660156 188.832031 L 125.660156 189.332031 C 126.785156 189.332031 126.910156 189.429688 126.910156 190.230469 L 126.910156 194.507812 C 126.910156 195.207031 126.734375 195.207031 125.660156 195.207031 L 125.660156 195.707031 C 126.285156 195.679688 127.035156 195.65625 127.484375 195.65625 C 128.109375 195.65625 128.859375 195.65625 129.511719 195.707031 L 129.511719 195.207031 L 129.160156 195.207031 C 127.984375 195.207031 127.960938 195.03125 127.960938 194.457031 L 127.960938 192.007812 C 127.960938 190.429688 128.636719 189.007812 129.835938 189.007812 C 129.9375 189.007812 129.984375 189.007812 130.011719 189.03125 C 129.960938 189.03125 129.636719 189.230469 129.636719 189.65625 C 129.636719 190.082031 129.984375 190.332031 130.335938 190.332031 C 130.609375 190.332031 131.011719 190.132812 131.011719 189.632812 C 131.011719 189.132812 130.511719 188.65625 129.835938 188.65625 C 128.660156 188.65625 128.085938 189.730469 127.886719 190.40625 Z M 127.886719 190.40625 "/>
<path style=" stroke:none;fill-rule:nonzero;fill:rgb(0%,0%,0%);fill-opacity:1;" d="M 133.230469 191.679688 C 133.328125 189.304688 134.679688 188.90625 135.230469 188.90625 C 136.855469 188.90625 137.03125 191.054688 137.03125 191.679688 Z M 133.230469 192.03125 L 137.679688 192.03125 C 138.03125 192.03125 138.078125 192.03125 138.078125 191.679688 C 138.078125 190.105469 137.203125 188.554688 135.230469 188.554688 C 133.378906 188.554688 131.90625 190.207031 131.90625 192.207031 C 131.90625 194.332031 133.578125 195.882812 135.40625 195.882812 C 137.355469 195.882812 138.078125 194.105469 138.078125 193.804688 C 138.078125 193.65625 137.953125 193.605469 137.855469 193.605469 C 137.730469 193.605469 137.679688 193.707031 137.65625 193.832031 C 137.105469 195.480469 135.65625 195.480469 135.503906 195.480469 C 134.703125 195.480469 134.078125 195.007812 133.703125 194.40625 C 133.230469 193.65625 133.230469 192.605469 133.230469 192.03125 Z M 133.230469 192.03125 "/>
<path style=" stroke:none;fill-rule:nonzero;fill:rgb(0%,0%,0%);fill-opacity:1;" d="M 143.839844 194.507812 C 143.914062 195.132812 144.339844 195.804688 145.089844 195.804688 C 145.4375 195.804688 146.414062 195.582031 146.414062 194.28125 L 146.414062 193.382812 L 146.011719 193.382812 L 146.011719 194.28125 C 146.011719 195.207031 145.613281 195.304688 145.4375 195.304688 C 144.914062 195.304688 144.839844 194.582031 144.839844 194.507812 L 144.839844 191.332031 C 144.839844 190.65625 144.839844 190.03125 144.261719 189.429688 C 143.636719 188.804688 142.839844 188.554688 142.089844 188.554688 C 140.761719 188.554688 139.664062 189.304688 139.664062 190.355469 C 139.664062 190.832031 139.988281 191.105469 140.414062 191.105469 C 140.863281 191.105469 141.136719 190.78125 141.136719 190.382812 C 141.136719 190.179688 141.0625 189.65625 140.3125 189.65625 C 140.761719 189.082031 141.539062 188.90625 142.039062 188.90625 C 142.839844 188.90625 143.738281 189.53125 143.738281 190.957031 L 143.738281 191.53125 C 142.914062 191.582031 141.8125 191.632812 140.8125 192.105469 C 139.613281 192.65625 139.214844 193.480469 139.214844 194.179688 C 139.214844 195.480469 140.761719 195.882812 141.761719 195.882812 C 142.8125 195.882812 143.539062 195.230469 143.839844 194.507812 Z M 143.738281 191.882812 L 143.738281 193.480469 C 143.738281 194.980469 142.589844 195.53125 141.863281 195.53125 C 141.089844 195.53125 140.4375 194.980469 140.4375 194.179688 C 140.4375 193.304688 141.113281 191.980469 143.738281 191.882812 Z M 143.738281 191.882812 "/>
<path style=" stroke:none;fill-rule:nonzero;fill:rgb(0%,0%,0%);fill-opacity:1;" d="M 149.832031 192.605469 C 150.183594 192.679688 151.484375 192.929688 151.484375 194.082031 C 151.484375 194.882812 150.933594 195.53125 149.683594 195.53125 C 148.332031 195.53125 147.757812 194.632812 147.457031 193.257812 C 147.410156 193.054688 147.410156 193.007812 147.234375 193.007812 C 147.035156 193.007812 147.035156 193.105469 147.035156 193.382812 L 147.035156 195.507812 C 147.035156 195.78125 147.035156 195.882812 147.207031 195.882812 C 147.285156 195.882812 147.308594 195.855469 147.609375 195.554688 C 147.632812 195.53125 147.632812 195.507812 147.933594 195.207031 C 148.632812 195.855469 149.359375 195.882812 149.683594 195.882812 C 151.507812 195.882812 152.257812 194.804688 152.257812 193.65625 C 152.257812 192.832031 151.785156 192.332031 151.582031 192.15625 C 151.058594 191.632812 150.433594 191.507812 149.757812 191.382812 C 148.859375 191.207031 147.808594 191.007812 147.808594 190.082031 C 147.808594 189.507812 148.207031 188.855469 149.582031 188.855469 C 151.332031 188.855469 151.433594 190.304688 151.457031 190.78125 C 151.457031 190.929688 151.609375 190.929688 151.632812 190.929688 C 151.859375 190.929688 151.859375 190.855469 151.859375 190.554688 L 151.859375 188.929688 C 151.859375 188.679688 151.859375 188.554688 151.683594 188.554688 C 151.609375 188.554688 151.558594 188.554688 151.359375 188.757812 C 151.308594 188.804688 151.160156 188.957031 151.082031 189.007812 C 150.484375 188.554688 149.832031 188.554688 149.582031 188.554688 C 147.632812 188.554688 147.035156 189.632812 147.035156 190.53125 C 147.035156 191.082031 147.285156 191.53125 147.707031 191.882812 C 148.234375 192.28125 148.683594 192.382812 149.832031 192.605469 Z M 149.832031 192.605469 "/>
<path style=" stroke:none;fill-rule:nonzero;fill:rgb(0%,0%,0%);fill-opacity:1;" d="M 154.570312 191.679688 C 154.671875 189.304688 156.019531 188.90625 156.570312 188.90625 C 158.195312 188.90625 158.371094 191.054688 158.371094 191.679688 Z M 154.570312 192.03125 L 159.019531 192.03125 C 159.371094 192.03125 159.421875 192.03125 159.421875 191.679688 C 159.421875 190.105469 158.546875 188.554688 156.570312 188.554688 C 154.71875 188.554688 153.246094 190.207031 153.246094 192.207031 C 153.246094 194.332031 154.921875 195.882812 156.746094 195.882812 C 158.695312 195.882812 159.421875 194.105469 159.421875 193.804688 C 159.421875 193.65625 159.296875 193.605469 159.195312 193.605469 C 159.070312 193.605469 159.019531 193.707031 158.996094 193.832031 C 158.445312 195.480469 156.996094 195.480469 156.84375 195.480469 C 156.046875 195.480469 155.421875 195.007812 155.046875 194.40625 C 154.570312 193.65625 154.570312 192.605469 154.570312 192.03125 Z M 154.570312 192.03125 "/>
<path style="fill:none;stroke-width:1.6;stroke-linecap:butt;stroke-linejoin:miter;stroke:rgb(0%,0%,0%);stroke-opacity:1;stroke-miterlimit:4;" d="M 37.476562 70.257812 L 23.078125 27.054688 "/>
<path style="fill:none;stroke-width:1.6;stroke-linecap:round;stroke-linejoin:miter;stroke:rgb(0%,0%,0%);stroke-opacity:1;stroke-miterlimit:4;" d="M 162.277344 161.457031 C 162.277344 161.457031 171.878906 175.855469 195.878906 175.855469 C 219.878906 175.855469 224.679688 156.65625 224.679688 156.65625 "/>
<path style="fill:none;stroke-width:1.6;stroke-linecap:butt;stroke-linejoin:miter;stroke:rgb(0%,0%,0%);stroke-opacity:1;stroke-miterlimit:4;" d="M 162.277344 161.457031 L 104.679688 103.855469 "/>
<path style="fill-rule:evenodd;fill:rgb(0%,0%,0%);fill-opacity:1;stroke-width:0.8;stroke-linecap:butt;stroke-linejoin:miter;stroke:rgb(100%,100%,100%);stroke-opacity:1;stroke-miterlimit:4;" d="M 198.277344 175.855469 C 198.277344 177.179688 197.203125 178.257812 195.878906 178.257812 C 194.554688 178.257812 193.476562 177.179688 193.476562 175.855469 C 193.476562 174.53125 194.554688 173.457031 195.878906 173.457031 C 197.203125 173.457031 198.277344 174.53125 198.277344 175.855469 Z M 198.277344 175.855469 "/>
<path style="fill:none;stroke-width:0.8;stroke-linecap:butt;stroke-linejoin:miter;stroke:rgb(100%,0%,0%);stroke-opacity:1;stroke-miterlimit:4;" d="M 200.679688 171.054688 L 210.277344 161.457031 L 239.078125 161.457031 "/>
<path style="fill-rule:evenodd;fill:rgb(100%,0%,0%);fill-opacity:1;stroke-width:0.282843;stroke-linecap:butt;stroke-linejoin:miter;stroke:rgb(100%,0%,0%);stroke-opacity:1;stroke-miterlimit:4;" d="M 17.074219 185.867188 L 18.205078 184.736328 L 14.246094 185.867188 L 18.205078 186.998047 Z M 17.074219 185.867188 " transform="matrix(1,-1,1,1,0,0)"/>
<path style="fill-rule:evenodd;fill:rgb(100%,0%,0%);fill-opacity:1;stroke-width:0.4;stroke-linecap:butt;stroke-linejoin:miter;stroke:rgb(100%,0%,0%);stroke-opacity:1;stroke-miterlimit:4;" d="M 240.644531 161.457031 C 240.644531 162.339844 239.929688 163.054688 239.046875 163.054688 C 238.164062 163.054688 237.445312 162.339844 237.445312 161.457031 C 237.445312 160.574219 238.164062 159.855469 239.046875 159.855469 C 239.929688 159.855469 240.644531 160.574219 240.644531 161.457031 Z M 240.644531 161.457031 "/>
<path style=" stroke:none;fill-rule:nonzero;fill:rgb(0%,0%,0%);fill-opacity:1;" d="M 249.542969 175.617188 L 249.714844 175.789062 L 250.066406 175.789062 C 250.117188 175.789062 250.242188 175.789062 250.242188 175.640625 C 250.242188 175.566406 250.214844 175.539062 250.191406 175.492188 C 249.617188 174.914062 248.742188 174.039062 247.765625 172.289062 C 246.042969 169.214844 245.390625 165.289062 245.390625 161.464844 C 245.390625 154.367188 247.417969 150.214844 250.191406 147.390625 C 250.242188 147.339844 250.242188 147.289062 250.242188 147.265625 C 250.242188 147.089844 250.140625 147.089844 249.941406 147.089844 C 249.742188 147.089844 249.714844 147.089844 249.566406 147.242188 C 248.042969 148.539062 246.339844 150.765625 245.242188 154.117188 C 244.566406 156.214844 244.191406 158.789062 244.191406 161.441406 C 244.191406 165.214844 244.867188 169.492188 247.367188 173.191406 C 247.816406 173.816406 248.390625 174.464844 248.390625 174.492188 C 248.566406 174.691406 248.792969 174.941406 248.917969 175.039062 Z M 249.542969 175.617188 "/>
<path style=" stroke:none;fill-rule:nonzero;fill:rgb(0%,0%,0%);fill-opacity:1;" d="M 257.398438 155.832031 C 257.398438 158.609375 256.050781 159.03125 255.375 159.03125 C 255.125 159.03125 254.523438 159.007812 254.226562 158.65625 C 254.699219 158.609375 254.726562 158.234375 254.726562 158.132812 C 254.726562 157.859375 254.523438 157.609375 254.199219 157.609375 C 253.875 157.609375 253.675781 157.832031 253.675781 158.15625 C 253.675781 158.90625 254.300781 159.382812 255.375 159.382812 C 256.976562 159.382812 258.476562 157.882812 258.476562 155.484375 C 258.476562 152.734375 257.25 151.757812 255.949219 151.757812 C 255.574219 151.757812 254.824219 151.808594 254.175781 152.433594 C 253.800781 152.808594 253.351562 153.234375 253.351562 154.234375 C 253.351562 155.65625 254.476562 156.707031 255.773438 156.707031 C 256.675781 156.707031 257.148438 156.109375 257.398438 155.609375 Z M 255.851562 156.382812 C 255.398438 156.382812 255 156.257812 254.675781 155.734375 C 254.425781 155.332031 254.425781 154.859375 254.425781 154.234375 C 254.425781 153.582031 254.425781 153.15625 254.75 152.707031 C 255.023438 152.308594 255.375 152.082031 255.949219 152.082031 C 256.523438 152.082031 256.875 152.433594 257.050781 152.734375 C 257.351562 153.183594 257.375 153.984375 257.375 154.359375 C 257.375 155.808594 256.550781 156.382812 255.851562 156.382812 Z M 255.851562 156.382812 "/>
<path style="fill:none;stroke-width:0.6368;stroke-linecap:butt;stroke-linejoin:miter;stroke:rgb(0%,0%,0%);stroke-opacity:1;stroke-miterlimit:10;" d="M 252.75 -161.453125 L 259.105469 -161.453125 " transform="matrix(1,0,0,-1,0,0)"/>
<path style=" stroke:none;fill-rule:nonzero;fill:rgb(0%,0%,0%);fill-opacity:1;" d="M 258.375 168.90625 L 258 168.90625 C 257.976562 169.15625 257.851562 169.808594 257.699219 169.90625 C 257.625 169.984375 256.773438 169.984375 256.601562 169.984375 L 254.550781 169.984375 C 255.726562 168.957031 256.125 168.632812 256.773438 168.109375 C 257.601562 167.457031 258.375 166.757812 258.375 165.707031 C 258.375 164.359375 257.199219 163.53125 255.773438 163.53125 C 254.398438 163.53125 253.449219 164.507812 253.449219 165.53125 C 253.449219 166.082031 253.925781 166.15625 254.050781 166.15625 C 254.300781 166.15625 254.625 165.957031 254.625 165.558594 C 254.625 165.359375 254.550781 164.957031 253.976562 164.957031 C 254.324219 164.183594 255.074219 163.933594 255.601562 163.933594 C 256.726562 163.933594 257.300781 164.808594 257.300781 165.707031 C 257.300781 166.683594 256.601562 167.433594 256.25 167.832031 L 253.574219 170.507812 C 253.449219 170.609375 253.449219 170.632812 253.449219 170.933594 L 258.050781 170.933594 Z M 258.375 168.90625 "/>
<path style=" stroke:none;fill-rule:nonzero;fill:rgb(0%,0%,0%);fill-opacity:1;" d="M 264.265625 165.410156 C 264.265625 164.359375 263.867188 163.734375 263.242188 163.734375 C 262.714844 163.734375 262.390625 164.136719 262.390625 164.585938 C 262.390625 165.011719 262.714844 165.433594 263.242188 165.433594 C 263.414062 165.433594 263.640625 165.359375 263.789062 165.234375 C 263.839844 165.183594 263.867188 165.183594 263.867188 165.183594 C 263.890625 165.183594 263.890625 165.183594 263.890625 165.410156 C 263.890625 166.609375 263.339844 167.558594 262.816406 168.085938 C 262.640625 168.261719 262.640625 168.285156 262.640625 168.335938 C 262.640625 168.460938 262.714844 168.511719 262.789062 168.511719 C 262.964844 168.511719 264.265625 167.285156 264.265625 165.410156 Z M 264.265625 165.410156 "/>
<path style=" stroke:none;fill-rule:nonzero;fill:rgb(0%,0%,0%);fill-opacity:1;" d="M 278.601562 161.761719 C 278.875 161.761719 279.175781 161.761719 279.175781 161.433594 C 279.175781 161.136719 278.875 161.136719 278.601562 161.136719 L 269.976562 161.136719 C 269.699219 161.136719 269.425781 161.136719 269.425781 161.433594 C 269.425781 161.761719 269.699219 161.761719 269.976562 161.761719 Z M 278.601562 161.761719 "/>
<path style=" stroke:none;fill-rule:nonzero;fill:rgb(0%,0%,0%);fill-opacity:1;" d="M 285.460938 155.433594 C 286.335938 155.433594 286.960938 156.03125 286.960938 157.234375 C 286.960938 158.609375 286.136719 159.03125 285.511719 159.03125 C 285.0625 159.03125 284.0625 158.90625 283.609375 158.234375 C 284.136719 158.234375 284.261719 157.859375 284.261719 157.609375 C 284.261719 157.257812 283.984375 157.007812 283.636719 157.007812 C 283.335938 157.007812 283.011719 157.207031 283.011719 157.65625 C 283.011719 158.707031 284.160156 159.382812 285.511719 159.382812 C 287.0625 159.382812 288.136719 158.332031 288.136719 157.234375 C 288.136719 156.359375 287.4375 155.484375 286.210938 155.234375 C 287.359375 154.808594 287.785156 153.984375 287.785156 153.28125 C 287.785156 152.40625 286.785156 151.757812 285.535156 151.757812 C 284.3125 151.757812 283.359375 152.359375 283.359375 153.257812 C 283.359375 153.632812 283.609375 153.832031 283.9375 153.832031 C 284.285156 153.832031 284.511719 153.582031 284.511719 153.28125 C 284.511719 152.957031 284.285156 152.707031 283.9375 152.683594 C 284.335938 152.207031 285.085938 152.082031 285.511719 152.082031 C 286.011719 152.082031 286.710938 152.332031 286.710938 153.28125 C 286.710938 153.757812 286.5625 154.28125 286.261719 154.609375 C 285.910156 155.03125 285.585938 155.058594 285.035156 155.109375 C 284.761719 155.132812 284.734375 155.132812 284.6875 155.132812 C 284.660156 155.132812 284.5625 155.15625 284.5625 155.28125 C 284.5625 155.433594 284.660156 155.433594 284.859375 155.433594 Z M 285.460938 155.433594 "/>
<path style=" stroke:none;fill-rule:nonzero;fill:rgb(0%,0%,0%);fill-opacity:1;" d="M 293.742188 149.574219 C 293.816406 149.5 293.816406 149.472656 293.839844 149.421875 L 293.839844 149.222656 L 291.890625 149.222656 C 291.691406 149.222656 290.515625 149.171875 290.390625 149.148438 C 290.191406 149.125 290.191406 149.046875 290.164062 148.949219 L 289.839844 148.949219 L 289.539062 150.75 L 289.867188 150.75 C 289.890625 150.625 289.964844 150.125 290.117188 150.023438 C 290.164062 150 290.914062 149.972656 291.039062 149.972656 L 292.941406 149.972656 C 292.589844 150.375 292.164062 150.796875 291.839844 151.199219 C 290.890625 152.398438 290.789062 153.546875 290.789062 154.046875 C 290.789062 154.472656 291.066406 154.523438 291.214844 154.523438 C 291.640625 154.523438 291.640625 154.125 291.640625 154.023438 L 291.640625 153.875 C 291.640625 152.449219 291.941406 151.574219 292.414062 151.046875 Z M 293.742188 149.574219 "/>
<path style="fill:none;stroke-width:0.6368;stroke-linecap:butt;stroke-linejoin:miter;stroke:rgb(0%,0%,0%);stroke-opacity:1;stroke-miterlimit:10;" d="M 282.414062 -161.453125 L 294.988281 -161.453125 " transform="matrix(1,0,0,-1,0,0)"/>
<path style=" stroke:none;fill-rule:nonzero;fill:rgb(0%,0%,0%);fill-opacity:1;" d="M 288.035156 168.90625 L 287.660156 168.90625 C 287.636719 169.15625 287.511719 169.808594 287.359375 169.90625 C 287.285156 169.984375 286.4375 169.984375 286.261719 169.984375 L 284.210938 169.984375 C 285.386719 168.957031 285.785156 168.632812 286.4375 168.109375 C 287.261719 167.457031 288.035156 166.757812 288.035156 165.707031 C 288.035156 164.359375 286.859375 163.53125 285.4375 163.53125 C 284.0625 163.53125 283.109375 164.507812 283.109375 165.53125 C 283.109375 166.082031 283.585938 166.15625 283.710938 166.15625 C 283.960938 166.15625 284.285156 165.957031 284.285156 165.558594 C 284.285156 165.359375 284.210938 164.957031 283.636719 164.957031 C 283.984375 164.183594 284.734375 163.933594 285.261719 163.933594 C 286.386719 163.933594 286.960938 164.808594 286.960938 165.707031 C 286.960938 166.683594 286.261719 167.433594 285.910156 167.832031 L 283.234375 170.507812 C 283.109375 170.609375 283.109375 170.632812 283.109375 170.933594 L 287.710938 170.933594 Z M 288.035156 168.90625 "/>
<path style=" stroke:none;fill-rule:nonzero;fill:rgb(0%,0%,0%);fill-opacity:1;" d="M 293.691406 166.445312 L 293.691406 166.09375 L 292.691406 166.09375 L 292.691406 162.59375 C 292.691406 162.394531 292.691406 162.34375 292.464844 162.34375 C 292.316406 162.34375 292.316406 162.34375 292.214844 162.46875 L 289.265625 166.09375 L 289.265625 166.445312 L 291.914062 166.445312 L 291.914062 167.070312 C 291.914062 167.320312 291.914062 167.394531 291.242188 167.394531 L 290.941406 167.394531 L 290.941406 167.742188 C 291.316406 167.71875 291.839844 167.71875 292.316406 167.71875 C 292.765625 167.71875 293.289062 167.71875 293.664062 167.742188 L 293.664062 167.394531 L 293.390625 167.394531 C 292.691406 167.394531 292.691406 167.320312 292.691406 167.070312 L 292.691406 166.445312 Z M 291.992188 163.195312 L 291.992188 166.09375 L 289.640625 166.09375 Z M 291.992188 163.195312 "/>
<g clip-path="url(#clip3)" clip-rule="nonzero">
<path style=" stroke:none;fill-rule:nonzero;fill:rgb(0%,0%,0%);fill-opacity:1;" d="M 303.523438 161.441406 C 303.523438 156.867188 302.472656 151.992188 299.324219 148.414062 C 299.097656 148.164062 298.5 147.539062 298.125 147.191406 C 298.023438 147.089844 297.972656 147.089844 297.773438 147.089844 C 297.625 147.089844 297.472656 147.089844 297.472656 147.265625 C 297.472656 147.316406 297.546875 147.390625 297.574219 147.414062 C 298.097656 147.992188 298.972656 148.867188 299.949219 150.617188 C 301.671875 153.664062 302.324219 157.617188 302.324219 161.441406 C 302.324219 168.367188 300.398438 172.589844 297.546875 175.515625 C 297.5 175.539062 297.472656 175.589844 297.472656 175.640625 C 297.472656 175.789062 297.625 175.789062 297.773438 175.789062 C 297.972656 175.789062 298.023438 175.789062 298.148438 175.664062 C 299.671875 174.367188 301.375 172.140625 302.472656 168.789062 C 303.171875 166.589844 303.523438 164.015625 303.523438 161.441406 Z M 303.523438 161.441406 "/>
</g>
</g>
</svg>
