<?xml version="1.0" encoding="UTF-8"?>
<svg xmlns="http://www.w3.org/2000/svg" xmlns:xlink="http://www.w3.org/1999/xlink" width="207.712051pt" height="154.032608pt" viewBox="0 0 207.712051 154.032608" version="1.1">
<defs>
<clipPath id="clip1">
  <path d="M 146 9 L 148 9 L 148 154.03125 L 146 154.03125 Z M 146 9 "/>
</clipPath>
<clipPath id="clip2">
  <path d="M 60 9 L 62 9 L 62 154.03125 L 60 154.03125 Z M 60 9 "/>
</clipPath>
<clipPath id="clip3">
  <path d="M 190 59 L 207.710938 59 L 207.710938 76 L 190 76 Z M 190 59 "/>
</clipPath>
<clipPath id="clip4">
  <path d="M 200 136 L 207.710938 136 L 207.710938 144 L 200 144 Z M 200 136 "/>
</clipPath>
</defs>
<g id="surface1">
<g clip-path="url(#clip1)" clip-rule="nonzero">
<path style="fill:none;stroke-width:0.8;stroke-linecap:butt;stroke-linejoin:miter;stroke:rgb(0%,0%,0%);stroke-opacity:1;stroke-dasharray:0.8,1.6;stroke-miterlimit:4;" d="M 147.054688 10.03125 L 147.054688 154.03125 "/>
</g>
<g clip-path="url(#clip2)" clip-rule="nonzero">
<path style="fill:none;stroke-width:0.8;stroke-linecap:butt;stroke-linejoin:miter;stroke:rgb(0%,0%,0%);stroke-opacity:1;stroke-dasharray:0.8,1.6;stroke-miterlimit:4;" d="M 60.65625 10.03125 L 60.65625 154.03125 "/>
</g>
<path style="fill:none;stroke-width:1.6;stroke-linecap:butt;stroke-linejoin:miter;stroke:rgb(100%,0%,0%);stroke-opacity:1;stroke-miterlimit:4;" d="M 3.054688 67.632812 L 204.65625 67.632812 "/>
<path style="fill-rule:evenodd;fill:rgb(100%,0%,0%);fill-opacity:1;stroke-width:0.8;stroke-linecap:butt;stroke-linejoin:miter;stroke:rgb(100%,0%,0%);stroke-opacity:1;stroke-miterlimit:4;" d="M 9.457031 67.632812 L 12.65625 64.433594 L 1.457031 67.632812 L 12.65625 70.832031 Z M 9.457031 67.632812 "/>
<path style=" stroke:none;fill-rule:evenodd;fill:rgb(100%,0%,0%);fill-opacity:1;" d="M 198.257812 67.632812 L 195.054688 70.832031 L 206.257812 67.632812 L 195.054688 64.433594 Z M 198.257812 67.632812 "/>
<g clip-path="url(#clip3)" clip-rule="nonzero">
<path style="fill:none;stroke-width:0.8;stroke-linecap:butt;stroke-linejoin:miter;stroke:rgb(100%,0%,0%);stroke-opacity:1;stroke-miterlimit:4;" d="M -198.257812 -67.632812 L -195.054688 -70.832031 L -206.257812 -67.632812 L -195.054688 -64.433594 Z M -198.257812 -67.632812 " transform="matrix(-1,0,0,-1,0,0)"/>
</g>
<path style="fill:none;stroke-width:1.6;stroke-linecap:butt;stroke-linejoin:miter;stroke:rgb(100%,0%,0%);stroke-opacity:1;stroke-miterlimit:4;" d="M 60.65625 10.03125 L 60.65625 125.234375 "/>
<path style="fill-rule:evenodd;fill:rgb(100%,0%,0%);fill-opacity:1;stroke-width:0.8;stroke-linecap:butt;stroke-linejoin:miter;stroke:rgb(100%,0%,0%);stroke-opacity:1;stroke-miterlimit:4;" d="M 16.433594 -60.65625 L 19.632812 -63.855469 L 8.433594 -60.65625 L 19.632812 -57.457031 Z M 16.433594 -60.65625 " transform="matrix(0,1,-1,0,0,0)"/>
<path style="fill-rule:evenodd;fill:rgb(100%,0%,0%);fill-opacity:1;stroke-width:0.8;stroke-linecap:butt;stroke-linejoin:miter;stroke:rgb(100%,0%,0%);stroke-opacity:1;stroke-miterlimit:4;" d="M -118.832031 60.65625 L -115.632812 57.457031 L -126.832031 60.65625 L -115.632812 63.855469 Z M -118.832031 60.65625 " transform="matrix(0,-1,1,0,0,0)"/>
<path style="fill:none;stroke-width:1.6;stroke-linecap:butt;stroke-linejoin:miter;stroke:rgb(0%,0%,0%);stroke-opacity:1;stroke-miterlimit:4;" d="M 17.457031 0.433594 L 60.65625 67.632812 "/>
<path style="fill:none;stroke-width:1.6;stroke-linecap:butt;stroke-linejoin:miter;stroke:rgb(0%,0%,0%);stroke-opacity:1;stroke-miterlimit:4;" d="M 60.65625 67.632812 L 103.855469 101.234375 L 147.054688 67.632812 "/>
<path style="fill-rule:evenodd;fill:rgb(0%,0%,0%);fill-opacity:1;stroke-width:0.8;stroke-linecap:butt;stroke-linejoin:miter;stroke:rgb(100%,100%,100%);stroke-opacity:1;stroke-miterlimit:4;" d="M 63.054688 67.632812 C 63.054688 68.957031 61.980469 70.03125 60.65625 70.03125 C 59.332031 70.03125 58.257812 68.957031 58.257812 67.632812 C 58.257812 66.308594 59.332031 65.234375 60.65625 65.234375 C 61.980469 65.234375 63.054688 66.308594 63.054688 67.632812 Z M 63.054688 67.632812 "/>
<path style="fill:none;stroke-width:1.6;stroke-linecap:butt;stroke-linejoin:miter;stroke:rgb(0%,0%,0%);stroke-opacity:1;stroke-miterlimit:4;" d="M 190.257812 0.433594 L 147.054688 67.632812 "/>
<path style="fill-rule:evenodd;fill:rgb(0%,0%,0%);fill-opacity:1;stroke-width:0.8;stroke-linecap:butt;stroke-linejoin:miter;stroke:rgb(100%,100%,100%);stroke-opacity:1;stroke-miterlimit:4;" d="M 149.457031 67.632812 C 149.457031 68.957031 148.382812 70.03125 147.054688 70.03125 C 145.730469 70.03125 144.65625 68.957031 144.65625 67.632812 C 144.65625 66.308594 145.730469 65.234375 147.054688 65.234375 C 148.382812 65.234375 149.457031 66.308594 149.457031 67.632812 Z M 149.457031 67.632812 "/>
<path style=" stroke:none;fill-rule:nonzero;fill:rgb(0%,0%,0%);fill-opacity:1;" d="M 151.457031 76.457031 L 151.457031 76.058594 C 151.457031 72.03125 153.429688 71.457031 154.257812 71.457031 C 154.632812 71.457031 155.304688 71.558594 155.65625 72.109375 C 155.40625 72.109375 154.78125 72.109375 154.78125 72.808594 C 154.78125 73.308594 155.15625 73.558594 155.507812 73.558594 C 155.757812 73.558594 156.257812 73.40625 156.257812 72.78125 C 156.257812 71.832031 155.554688 71.058594 154.230469 71.058594 C 152.179688 71.058594 150.03125 73.109375 150.03125 76.632812 C 150.03125 80.90625 151.882812 82.03125 153.355469 82.03125 C 155.132812 82.03125 156.65625 80.53125 156.65625 78.433594 C 156.65625 76.40625 155.230469 74.882812 153.457031 74.882812 C 152.382812 74.882812 151.78125 75.683594 151.457031 76.457031 Z M 153.355469 81.582031 C 152.355469 81.582031 151.882812 80.632812 151.78125 80.382812 C 151.480469 79.632812 151.480469 78.359375 151.480469 78.082031 C 151.480469 76.832031 152.007812 75.234375 153.429688 75.234375 C 153.707031 75.234375 154.429688 75.234375 154.929688 76.234375 C 155.207031 76.808594 155.207031 77.632812 155.207031 78.40625 C 155.207031 79.183594 155.207031 79.984375 154.929688 80.558594 C 154.457031 81.507812 153.730469 81.582031 153.355469 81.582031 Z M 153.355469 81.582031 "/>
<path style=" stroke:none;fill-rule:nonzero;fill:rgb(0%,0%,0%);fill-opacity:1;" d="M 2.976562 137.507812 L 2.976562 136.457031 L 0.675781 136.632812 L 0.675781 137.132812 C 1.800781 137.132812 1.925781 137.234375 1.925781 137.933594 L 1.925781 145.382812 C 1.925781 146.109375 1.753906 146.109375 0.675781 146.109375 L 0.675781 146.609375 C 1.226562 146.582031 2.050781 146.558594 2.453125 146.558594 C 2.902344 146.558594 3.703125 146.582031 4.253906 146.609375 L 4.253906 146.109375 C 3.203125 146.109375 3.027344 146.109375 3.027344 145.382812 L 3.027344 142.558594 C 3.101562 142.832031 3.777344 143.683594 4.976562 143.683594 C 6.878906 143.683594 8.527344 142.109375 8.527344 140.058594 C 8.527344 138.03125 7.003906 136.457031 5.203125 136.457031 C 3.953125 136.457031 3.277344 137.15625 2.976562 137.507812 Z M 3.027344 141.683594 L 3.027344 138.132812 C 3.476562 137.308594 4.253906 136.859375 5.078125 136.859375 C 6.253906 136.859375 7.203125 138.257812 7.203125 140.058594 C 7.203125 141.984375 6.101562 143.332031 4.925781 143.332031 C 4.277344 143.332031 3.675781 143.007812 3.253906 142.359375 C 3.027344 142.03125 3.027344 142.007812 3.027344 141.683594 Z M 3.027344 141.683594 "/>
<path style=" stroke:none;fill-rule:nonzero;fill:rgb(0%,0%,0%);fill-opacity:1;" d="M 17.03125 140.082031 C 17.03125 138.058594 15.457031 136.359375 13.53125 136.359375 C 11.53125 136.359375 9.980469 138.109375 9.980469 140.082031 C 9.980469 142.15625 11.628906 143.683594 13.503906 143.683594 C 15.429688 143.683594 17.03125 142.109375 17.03125 140.082031 Z M 13.53125 143.28125 C 12.832031 143.28125 12.128906 142.957031 11.707031 142.207031 C 11.304688 141.507812 11.304688 140.53125 11.304688 139.957031 C 11.304688 139.332031 11.304688 138.484375 11.679688 137.78125 C 12.105469 137.058594 12.855469 136.707031 13.503906 136.707031 C 14.207031 136.707031 14.878906 137.058594 15.304688 137.757812 C 15.730469 138.433594 15.730469 139.359375 15.730469 139.957031 C 15.730469 140.53125 15.730469 141.40625 15.378906 142.109375 C 15.003906 142.832031 14.304688 143.28125 13.53125 143.28125 Z M 13.53125 143.28125 "/>
<path style=" stroke:none;fill-rule:nonzero;fill:rgb(0%,0%,0%);fill-opacity:1;" d="M 20.824219 140.40625 C 21.175781 140.484375 22.476562 140.734375 22.476562 141.882812 C 22.476562 142.683594 21.925781 143.332031 20.675781 143.332031 C 19.324219 143.332031 18.75 142.433594 18.449219 141.058594 C 18.398438 140.859375 18.398438 140.808594 18.226562 140.808594 C 18.023438 140.808594 18.023438 140.90625 18.023438 141.183594 L 18.023438 143.308594 C 18.023438 143.582031 18.023438 143.683594 18.199219 143.683594 C 18.273438 143.683594 18.300781 143.65625 18.601562 143.359375 C 18.625 143.332031 18.625 143.308594 18.925781 143.007812 C 19.625 143.65625 20.351562 143.683594 20.675781 143.683594 C 22.5 143.683594 23.25 142.609375 23.25 141.457031 C 23.25 140.632812 22.773438 140.132812 22.574219 139.957031 C 22.050781 139.433594 21.425781 139.308594 20.75 139.183594 C 19.851562 139.007812 18.800781 138.808594 18.800781 137.882812 C 18.800781 137.308594 19.199219 136.65625 20.574219 136.65625 C 22.324219 136.65625 22.425781 138.109375 22.449219 138.582031 C 22.449219 138.734375 22.601562 138.734375 22.625 138.734375 C 22.851562 138.734375 22.851562 138.65625 22.851562 138.359375 L 22.851562 136.734375 C 22.851562 136.484375 22.851562 136.359375 22.675781 136.359375 C 22.601562 136.359375 22.550781 136.359375 22.351562 136.558594 C 22.300781 136.609375 22.148438 136.757812 22.074219 136.808594 C 21.476562 136.359375 20.824219 136.359375 20.574219 136.359375 C 18.625 136.359375 18.023438 137.433594 18.023438 138.332031 C 18.023438 138.882812 18.273438 139.332031 18.699219 139.683594 C 19.226562 140.082031 19.675781 140.183594 20.824219 140.40625 Z M 20.824219 140.40625 "/>
<path style=" stroke:none;fill-rule:nonzero;fill:rgb(0%,0%,0%);fill-opacity:1;" d="M 26.613281 136.457031 L 24.386719 136.632812 L 24.386719 137.132812 C 25.414062 137.132812 25.5625 137.234375 25.5625 138.007812 L 25.5625 142.308594 C 25.5625 143.007812 25.386719 143.007812 24.3125 143.007812 L 24.3125 143.507812 C 24.8125 143.484375 25.6875 143.457031 26.0625 143.457031 C 26.636719 143.457031 27.1875 143.484375 27.738281 143.507812 L 27.738281 143.007812 C 26.664062 143.007812 26.613281 142.933594 26.613281 142.308594 Z M 26.664062 133.683594 C 26.664062 133.183594 26.289062 132.832031 25.835938 132.832031 C 25.335938 132.832031 24.988281 133.257812 24.988281 133.683594 C 24.988281 134.109375 25.335938 134.53125 25.835938 134.53125 C 26.289062 134.53125 26.664062 134.183594 26.664062 133.683594 Z M 26.664062 133.683594 "/>
<path style=" stroke:none;fill-rule:nonzero;fill:rgb(0%,0%,0%);fill-opacity:1;" d="M 30.964844 137.132812 L 33.265625 137.132812 L 33.265625 136.632812 L 30.964844 136.632812 L 30.964844 133.707031 L 30.566406 133.707031 C 30.566406 135.007812 30.089844 136.707031 28.515625 136.78125 L 28.515625 137.132812 L 29.867188 137.132812 L 29.867188 141.53125 C 29.867188 143.484375 31.367188 143.683594 31.941406 143.683594 C 33.066406 143.683594 33.515625 142.558594 33.515625 141.53125 L 33.515625 140.632812 L 33.117188 140.632812 L 33.117188 141.507812 C 33.117188 142.683594 32.640625 143.28125 32.039062 143.28125 C 30.964844 143.28125 30.964844 141.832031 30.964844 141.558594 Z M 30.964844 137.132812 "/>
<path style=" stroke:none;fill-rule:nonzero;fill:rgb(0%,0%,0%);fill-opacity:1;" d="M 37.238281 136.457031 L 35.015625 136.632812 L 35.015625 137.132812 C 36.039062 137.132812 36.1875 137.234375 36.1875 138.007812 L 36.1875 142.308594 C 36.1875 143.007812 36.015625 143.007812 34.9375 143.007812 L 34.9375 143.507812 C 35.4375 143.484375 36.3125 143.457031 36.6875 143.457031 C 37.265625 143.457031 37.8125 143.484375 38.363281 143.507812 L 38.363281 143.007812 C 37.289062 143.007812 37.238281 142.933594 37.238281 142.308594 Z M 37.289062 133.683594 C 37.289062 133.183594 36.914062 132.832031 36.464844 132.832031 C 35.964844 132.832031 35.613281 133.257812 35.613281 133.683594 C 35.613281 134.109375 35.964844 134.53125 36.464844 134.53125 C 36.914062 134.53125 37.289062 134.183594 37.289062 133.683594 Z M 37.289062 133.683594 "/>
<path style=" stroke:none;fill-rule:nonzero;fill:rgb(0%,0%,0%);fill-opacity:1;" d="M 45.46875 138.207031 C 45.617188 137.832031 45.894531 137.132812 46.941406 137.132812 L 46.941406 136.632812 C 46.566406 136.65625 46.117188 136.683594 45.742188 136.683594 C 45.367188 136.683594 44.644531 136.65625 44.367188 136.632812 L 44.367188 137.132812 C 44.941406 137.132812 45.117188 137.507812 45.117188 137.808594 C 45.117188 137.957031 45.09375 138.03125 45.042969 138.207031 L 43.394531 142.257812 L 41.617188 137.808594 C 41.519531 137.609375 41.519531 137.582031 41.519531 137.53125 C 41.519531 137.132812 42.144531 137.132812 42.441406 137.132812 L 42.441406 136.632812 C 41.941406 136.65625 41.066406 136.683594 40.691406 136.683594 C 40.269531 136.683594 39.617188 136.65625 39.144531 136.632812 L 39.144531 137.132812 C 40.144531 137.132812 40.21875 137.234375 40.417969 137.707031 L 42.71875 143.382812 C 42.816406 143.609375 42.84375 143.683594 43.042969 143.683594 C 43.269531 143.683594 43.316406 143.53125 43.394531 143.382812 Z M 45.46875 138.207031 "/>
<path style=" stroke:none;fill-rule:nonzero;fill:rgb(0%,0%,0%);fill-opacity:1;" d="M 48.585938 139.484375 C 48.683594 137.109375 50.035156 136.707031 50.585938 136.707031 C 52.210938 136.707031 52.382812 138.859375 52.382812 139.484375 Z M 48.585938 139.832031 L 53.035156 139.832031 C 53.382812 139.832031 53.433594 139.832031 53.433594 139.484375 C 53.433594 137.90625 52.558594 136.359375 50.585938 136.359375 C 48.734375 136.359375 47.257812 138.007812 47.257812 140.007812 C 47.257812 142.132812 48.933594 143.683594 50.757812 143.683594 C 52.710938 143.683594 53.433594 141.90625 53.433594 141.609375 C 53.433594 141.457031 53.308594 141.40625 53.210938 141.40625 C 53.085938 141.40625 53.035156 141.507812 53.007812 141.632812 C 52.460938 143.28125 51.007812 143.28125 50.859375 143.28125 C 50.058594 143.28125 49.433594 142.808594 49.058594 142.207031 C 48.585938 141.457031 48.585938 140.40625 48.585938 139.832031 Z M 48.585938 139.832031 "/>
<path style=" stroke:none;fill-rule:nonzero;fill:rgb(0%,0%,0%);fill-opacity:1;" d="M 156.578125 137.507812 L 156.578125 136.457031 L 154.277344 136.632812 L 154.277344 137.132812 C 155.402344 137.132812 155.527344 137.234375 155.527344 137.933594 L 155.527344 145.382812 C 155.527344 146.109375 155.351562 146.109375 154.277344 146.109375 L 154.277344 146.609375 C 154.828125 146.582031 155.652344 146.558594 156.050781 146.558594 C 156.503906 146.558594 157.300781 146.582031 157.851562 146.609375 L 157.851562 146.109375 C 156.800781 146.109375 156.628906 146.109375 156.628906 145.382812 L 156.628906 142.558594 C 156.703125 142.832031 157.378906 143.683594 158.578125 143.683594 C 160.476562 143.683594 162.128906 142.109375 162.128906 140.058594 C 162.128906 138.03125 160.601562 136.457031 158.800781 136.457031 C 157.550781 136.457031 156.878906 137.15625 156.578125 137.507812 Z M 156.628906 141.683594 L 156.628906 138.132812 C 157.078125 137.308594 157.851562 136.859375 158.675781 136.859375 C 159.851562 136.859375 160.800781 138.257812 160.800781 140.058594 C 160.800781 141.984375 159.703125 143.332031 158.527344 143.332031 C 157.878906 143.332031 157.277344 143.007812 156.851562 142.359375 C 156.628906 142.03125 156.628906 142.007812 156.628906 141.683594 Z M 156.628906 141.683594 "/>
<path style=" stroke:none;fill-rule:nonzero;fill:rgb(0%,0%,0%);fill-opacity:1;" d="M 170.628906 140.082031 C 170.628906 138.058594 169.054688 136.359375 167.128906 136.359375 C 165.128906 136.359375 163.582031 138.109375 163.582031 140.082031 C 163.582031 142.15625 165.230469 143.683594 167.105469 143.683594 C 169.03125 143.683594 170.628906 142.109375 170.628906 140.082031 Z M 167.128906 143.28125 C 166.429688 143.28125 165.730469 142.957031 165.304688 142.207031 C 164.90625 141.507812 164.90625 140.53125 164.90625 139.957031 C 164.90625 139.332031 164.90625 138.484375 165.28125 137.78125 C 165.707031 137.058594 166.457031 136.707031 167.105469 136.707031 C 167.804688 136.707031 168.480469 137.058594 168.90625 137.757812 C 169.332031 138.433594 169.332031 139.359375 169.332031 139.957031 C 169.332031 140.53125 169.332031 141.40625 168.980469 142.109375 C 168.605469 142.832031 167.90625 143.28125 167.128906 143.28125 Z M 167.128906 143.28125 "/>
<path style=" stroke:none;fill-rule:nonzero;fill:rgb(0%,0%,0%);fill-opacity:1;" d="M 174.425781 140.40625 C 174.773438 140.484375 176.074219 140.734375 176.074219 141.882812 C 176.074219 142.683594 175.523438 143.332031 174.273438 143.332031 C 172.925781 143.332031 172.351562 142.433594 172.050781 141.058594 C 172 140.859375 172 140.808594 171.824219 140.808594 C 171.625 140.808594 171.625 140.90625 171.625 141.183594 L 171.625 143.308594 C 171.625 143.582031 171.625 143.683594 171.800781 143.683594 C 171.875 143.683594 171.898438 143.65625 172.199219 143.359375 C 172.226562 143.332031 172.226562 143.308594 172.523438 143.007812 C 173.226562 143.65625 173.949219 143.683594 174.273438 143.683594 C 176.101562 143.683594 176.851562 142.609375 176.851562 141.457031 C 176.851562 140.632812 176.375 140.132812 176.175781 139.957031 C 175.648438 139.433594 175.023438 139.308594 174.351562 139.183594 C 173.449219 139.007812 172.398438 138.808594 172.398438 137.882812 C 172.398438 137.308594 172.800781 136.65625 174.175781 136.65625 C 175.925781 136.65625 176.023438 138.109375 176.050781 138.582031 C 176.050781 138.734375 176.199219 138.734375 176.226562 138.734375 C 176.449219 138.734375 176.449219 138.65625 176.449219 138.359375 L 176.449219 136.734375 C 176.449219 136.484375 176.449219 136.359375 176.273438 136.359375 C 176.199219 136.359375 176.148438 136.359375 175.949219 136.558594 C 175.898438 136.609375 175.75 136.757812 175.675781 136.808594 C 175.074219 136.359375 174.425781 136.359375 174.175781 136.359375 C 172.226562 136.359375 171.625 137.433594 171.625 138.332031 C 171.625 138.882812 171.875 139.332031 172.300781 139.683594 C 172.824219 140.082031 173.273438 140.183594 174.425781 140.40625 Z M 174.425781 140.40625 "/>
<path style=" stroke:none;fill-rule:nonzero;fill:rgb(0%,0%,0%);fill-opacity:1;" d="M 180.210938 136.457031 L 177.988281 136.632812 L 177.988281 137.132812 C 179.011719 137.132812 179.164062 137.234375 179.164062 138.007812 L 179.164062 142.308594 C 179.164062 143.007812 178.988281 143.007812 177.914062 143.007812 L 177.914062 143.507812 C 178.414062 143.484375 179.289062 143.457031 179.664062 143.457031 C 180.238281 143.457031 180.789062 143.484375 181.335938 143.507812 L 181.335938 143.007812 C 180.261719 143.007812 180.210938 142.933594 180.210938 142.308594 Z M 180.261719 133.683594 C 180.261719 133.183594 179.886719 132.832031 179.4375 132.832031 C 178.9375 132.832031 178.585938 133.257812 178.585938 133.683594 C 178.585938 134.109375 178.9375 134.53125 179.4375 134.53125 C 179.886719 134.53125 180.261719 134.183594 180.261719 133.683594 Z M 180.261719 133.683594 "/>
<path style=" stroke:none;fill-rule:nonzero;fill:rgb(0%,0%,0%);fill-opacity:1;" d="M 184.566406 137.132812 L 186.867188 137.132812 L 186.867188 136.632812 L 184.566406 136.632812 L 184.566406 133.707031 L 184.164062 133.707031 C 184.164062 135.007812 183.691406 136.707031 182.117188 136.78125 L 182.117188 137.132812 L 183.464844 137.132812 L 183.464844 141.53125 C 183.464844 143.484375 184.964844 143.683594 185.539062 143.683594 C 186.664062 143.683594 187.117188 142.558594 187.117188 141.53125 L 187.117188 140.632812 L 186.714844 140.632812 L 186.714844 141.507812 C 186.714844 142.683594 186.242188 143.28125 185.640625 143.28125 C 184.566406 143.28125 184.566406 141.832031 184.566406 141.558594 Z M 184.566406 137.132812 "/>
<path style=" stroke:none;fill-rule:nonzero;fill:rgb(0%,0%,0%);fill-opacity:1;" d="M 190.839844 136.457031 L 188.613281 136.632812 L 188.613281 137.132812 C 189.640625 137.132812 189.789062 137.234375 189.789062 138.007812 L 189.789062 142.308594 C 189.789062 143.007812 189.613281 143.007812 188.539062 143.007812 L 188.539062 143.507812 C 189.039062 143.484375 189.914062 143.457031 190.289062 143.457031 C 190.863281 143.457031 191.414062 143.484375 191.964844 143.507812 L 191.964844 143.007812 C 190.890625 143.007812 190.839844 142.933594 190.839844 142.308594 Z M 190.890625 133.683594 C 190.890625 133.183594 190.515625 132.832031 190.0625 132.832031 C 189.5625 132.832031 189.214844 133.257812 189.214844 133.683594 C 189.214844 134.109375 189.5625 134.53125 190.0625 134.53125 C 190.515625 134.53125 190.890625 134.183594 190.890625 133.683594 Z M 190.890625 133.683594 "/>
<path style=" stroke:none;fill-rule:nonzero;fill:rgb(0%,0%,0%);fill-opacity:1;" d="M 199.066406 138.207031 C 199.21875 137.832031 199.492188 137.132812 200.542969 137.132812 L 200.542969 136.632812 C 200.167969 136.65625 199.71875 136.683594 199.34375 136.683594 C 198.96875 136.683594 198.242188 136.65625 197.96875 136.632812 L 197.96875 137.132812 C 198.542969 137.132812 198.71875 137.507812 198.71875 137.808594 C 198.71875 137.957031 198.691406 138.03125 198.644531 138.207031 L 196.992188 142.257812 L 195.21875 137.808594 C 195.117188 137.609375 195.117188 137.582031 195.117188 137.53125 C 195.117188 137.132812 195.742188 137.132812 196.042969 137.132812 L 196.042969 136.632812 C 195.542969 136.65625 194.667969 136.683594 194.292969 136.683594 C 193.867188 136.683594 193.21875 136.65625 192.742188 136.632812 L 192.742188 137.132812 C 193.742188 137.132812 193.816406 137.234375 194.019531 137.707031 L 196.316406 143.382812 C 196.417969 143.609375 196.441406 143.683594 196.644531 143.683594 C 196.867188 143.683594 196.917969 143.53125 196.992188 143.382812 Z M 199.066406 138.207031 "/>
<g clip-path="url(#clip4)" clip-rule="nonzero">
<path style=" stroke:none;fill-rule:nonzero;fill:rgb(0%,0%,0%);fill-opacity:1;" d="M 202.183594 139.484375 C 202.285156 137.109375 203.632812 136.707031 204.183594 136.707031 C 205.808594 136.707031 205.984375 138.859375 205.984375 139.484375 Z M 202.183594 139.832031 L 206.632812 139.832031 C 206.984375 139.832031 207.035156 139.832031 207.035156 139.484375 C 207.035156 137.90625 206.160156 136.359375 204.183594 136.359375 C 202.335938 136.359375 200.859375 138.007812 200.859375 140.007812 C 200.859375 142.132812 202.535156 143.683594 204.359375 143.683594 C 206.308594 143.683594 207.035156 141.90625 207.035156 141.609375 C 207.035156 141.457031 206.910156 141.40625 206.808594 141.40625 C 206.683594 141.40625 206.632812 141.507812 206.609375 141.632812 C 206.058594 143.28125 204.609375 143.28125 204.460938 143.28125 C 203.660156 143.28125 203.035156 142.808594 202.660156 142.207031 C 202.183594 141.457031 202.183594 140.40625 202.183594 139.832031 Z M 202.183594 139.832031 "/>
</g>
<path style=" stroke:none;fill-rule:nonzero;fill:rgb(0%,0%,0%);fill-opacity:1;" d="M 76.667969 137.945312 L 76.667969 142.21875 C 76.667969 142.921875 76.492188 142.921875 75.417969 142.921875 L 75.417969 143.421875 C 75.992188 143.394531 76.792969 143.371094 77.242188 143.371094 C 77.644531 143.371094 78.46875 143.394531 79.019531 143.421875 L 79.019531 142.921875 C 77.941406 142.921875 77.769531 142.921875 77.769531 142.21875 L 77.769531 139.269531 C 77.769531 137.621094 78.917969 136.71875 79.917969 136.71875 C 80.941406 136.71875 81.117188 137.570312 81.117188 138.496094 L 81.117188 142.21875 C 81.117188 142.921875 80.941406 142.921875 79.867188 142.921875 L 79.867188 143.421875 C 80.417969 143.394531 81.242188 143.371094 81.667969 143.371094 C 82.066406 143.371094 82.917969 143.394531 83.441406 143.421875 L 83.441406 142.921875 C 82.617188 142.921875 82.21875 142.921875 82.21875 142.445312 L 82.21875 139.394531 C 82.21875 138.019531 82.21875 137.546875 81.71875 136.96875 C 81.492188 136.695312 80.96875 136.371094 80.042969 136.371094 C 78.867188 136.371094 78.117188 137.046875 77.667969 138.046875 L 77.667969 136.371094 L 75.417969 136.546875 L 75.417969 137.046875 C 76.542969 137.046875 76.667969 137.144531 76.667969 137.945312 Z M 76.667969 137.945312 "/>
<path style=" stroke:none;fill-rule:nonzero;fill:rgb(0%,0%,0%);fill-opacity:1;" d="M 85.550781 139.394531 C 85.648438 137.019531 87 136.621094 87.550781 136.621094 C 89.175781 136.621094 89.347656 138.769531 89.347656 139.394531 Z M 85.550781 139.746094 L 90 139.746094 C 90.347656 139.746094 90.398438 139.746094 90.398438 139.394531 C 90.398438 137.820312 89.523438 136.269531 87.550781 136.269531 C 85.699219 136.269531 84.222656 137.921875 84.222656 139.921875 C 84.222656 142.046875 85.898438 143.59375 87.722656 143.59375 C 89.675781 143.59375 90.398438 141.820312 90.398438 141.519531 C 90.398438 141.371094 90.273438 141.320312 90.175781 141.320312 C 90.050781 141.320312 90 141.421875 89.972656 141.546875 C 89.425781 143.195312 87.972656 143.195312 87.824219 143.195312 C 87.023438 143.195312 86.398438 142.71875 86.023438 142.121094 C 85.550781 141.371094 85.550781 140.320312 85.550781 139.746094 Z M 85.550781 139.746094 "/>
<path style=" stroke:none;fill-rule:nonzero;fill:rgb(0%,0%,0%);fill-opacity:1;" d="M 94.410156 140.671875 C 93.007812 140.671875 93.007812 139.070312 93.007812 138.71875 C 93.007812 138.296875 93.035156 137.769531 93.257812 137.371094 C 93.382812 137.195312 93.757812 136.746094 94.410156 136.746094 C 95.785156 136.746094 95.785156 138.320312 95.785156 138.695312 C 95.785156 139.121094 95.785156 139.644531 95.535156 140.046875 C 95.410156 140.21875 95.035156 140.671875 94.410156 140.671875 Z M 92.558594 141.296875 C 92.558594 141.246094 92.558594 140.871094 92.808594 140.546875 C 93.433594 140.996094 94.109375 141.046875 94.410156 141.046875 C 95.882812 141.046875 96.984375 139.945312 96.984375 138.71875 C 96.984375 138.121094 96.734375 137.546875 96.332031 137.171875 C 96.910156 136.621094 97.484375 136.546875 97.757812 136.546875 C 97.808594 136.546875 97.882812 136.546875 97.933594 136.570312 C 97.757812 136.621094 97.660156 136.796875 97.660156 136.996094 C 97.660156 137.269531 97.882812 137.445312 98.132812 137.445312 C 98.285156 137.445312 98.582031 137.34375 98.582031 136.96875 C 98.582031 136.695312 98.410156 136.195312 97.785156 136.195312 C 97.457031 136.195312 96.757812 136.296875 96.082031 136.945312 C 95.410156 136.421875 94.757812 136.371094 94.410156 136.371094 C 92.910156 136.371094 91.808594 137.46875 91.808594 138.695312 C 91.808594 139.394531 92.160156 139.996094 92.558594 140.34375 C 92.359375 140.570312 92.058594 141.09375 92.058594 141.671875 C 92.058594 142.171875 92.285156 142.769531 92.785156 143.09375 C 91.808594 143.34375 91.308594 144.046875 91.308594 144.671875 C 91.308594 145.820312 92.882812 146.695312 94.832031 146.695312 C 96.707031 146.695312 98.359375 145.894531 98.359375 144.644531 C 98.359375 144.09375 98.160156 143.269531 97.332031 142.820312 C 96.484375 142.394531 95.558594 142.394531 94.582031 142.394531 C 94.183594 142.394531 93.507812 142.394531 93.382812 142.371094 C 92.882812 142.296875 92.558594 141.820312 92.558594 141.296875 Z M 94.859375 146.34375 C 93.234375 146.34375 92.132812 145.519531 92.132812 144.671875 C 92.132812 143.945312 92.734375 143.34375 93.433594 143.320312 L 94.382812 143.320312 C 95.757812 143.320312 97.535156 143.320312 97.535156 144.671875 C 97.535156 145.546875 96.410156 146.34375 94.859375 146.34375 Z M 94.859375 146.34375 "/>
<path style=" stroke:none;fill-rule:nonzero;fill:rgb(0%,0%,0%);fill-opacity:1;" d="M 104.128906 142.21875 C 104.203125 142.84375 104.628906 143.519531 105.378906 143.519531 C 105.726562 143.519531 106.703125 143.296875 106.703125 141.996094 L 106.703125 141.09375 L 106.304688 141.09375 L 106.304688 141.996094 C 106.304688 142.921875 105.902344 143.019531 105.726562 143.019531 C 105.203125 143.019531 105.128906 142.296875 105.128906 142.21875 L 105.128906 139.046875 C 105.128906 138.371094 105.128906 137.746094 104.554688 137.144531 C 103.929688 136.519531 103.128906 136.269531 102.378906 136.269531 C 101.054688 136.269531 99.953125 137.019531 99.953125 138.070312 C 99.953125 138.546875 100.277344 138.820312 100.703125 138.820312 C 101.152344 138.820312 101.429688 138.496094 101.429688 138.09375 C 101.429688 137.894531 101.351562 137.371094 100.601562 137.371094 C 101.054688 136.796875 101.828125 136.621094 102.328125 136.621094 C 103.128906 136.621094 104.027344 137.246094 104.027344 138.671875 L 104.027344 139.246094 C 103.203125 139.296875 102.101562 139.34375 101.101562 139.820312 C 99.902344 140.371094 99.503906 141.195312 99.503906 141.894531 C 99.503906 143.195312 101.054688 143.59375 102.054688 143.59375 C 103.101562 143.59375 103.828125 142.945312 104.128906 142.21875 Z M 104.027344 139.59375 L 104.027344 141.195312 C 104.027344 142.695312 102.878906 143.246094 102.152344 143.246094 C 101.378906 143.246094 100.726562 142.695312 100.726562 141.894531 C 100.726562 141.019531 101.402344 139.695312 104.027344 139.59375 Z M 104.027344 139.59375 "/>
<path style=" stroke:none;fill-rule:nonzero;fill:rgb(0%,0%,0%);fill-opacity:1;" d="M 109.546875 137.046875 L 111.847656 137.046875 L 111.847656 136.546875 L 109.546875 136.546875 L 109.546875 133.621094 L 109.148438 133.621094 C 109.148438 134.921875 108.671875 136.621094 107.097656 136.695312 L 107.097656 137.046875 L 108.449219 137.046875 L 108.449219 141.445312 C 108.449219 143.394531 109.949219 143.59375 110.523438 143.59375 C 111.648438 143.59375 112.097656 142.46875 112.097656 141.445312 L 112.097656 140.546875 L 111.699219 140.546875 L 111.699219 141.421875 C 111.699219 142.59375 111.222656 143.195312 110.625 143.195312 C 109.546875 143.195312 109.546875 141.746094 109.546875 141.46875 Z M 109.546875 137.046875 "/>
<path style=" stroke:none;fill-rule:nonzero;fill:rgb(0%,0%,0%);fill-opacity:1;" d="M 115.824219 136.371094 L 113.597656 136.546875 L 113.597656 137.046875 C 114.621094 137.046875 114.773438 137.144531 114.773438 137.921875 L 114.773438 142.21875 C 114.773438 142.921875 114.597656 142.921875 113.523438 142.921875 L 113.523438 143.421875 C 114.023438 143.394531 114.898438 143.371094 115.273438 143.371094 C 115.847656 143.371094 116.398438 143.394531 116.949219 143.421875 L 116.949219 142.921875 C 115.871094 142.921875 115.824219 142.84375 115.824219 142.21875 Z M 115.871094 133.59375 C 115.871094 133.09375 115.496094 132.746094 115.046875 132.746094 C 114.546875 132.746094 114.199219 133.171875 114.199219 133.59375 C 114.199219 134.019531 114.546875 134.445312 115.046875 134.445312 C 115.496094 134.445312 115.871094 134.09375 115.871094 133.59375 Z M 115.871094 133.59375 "/>
<path style=" stroke:none;fill-rule:nonzero;fill:rgb(0%,0%,0%);fill-opacity:1;" d="M 124.050781 138.121094 C 124.199219 137.746094 124.476562 137.046875 125.527344 137.046875 L 125.527344 136.546875 C 125.152344 136.570312 124.699219 136.59375 124.324219 136.59375 C 123.949219 136.59375 123.226562 136.570312 122.949219 136.546875 L 122.949219 137.046875 C 123.527344 137.046875 123.699219 137.421875 123.699219 137.71875 C 123.699219 137.871094 123.675781 137.945312 123.625 138.121094 L 121.976562 142.171875 L 120.199219 137.71875 C 120.101562 137.519531 120.101562 137.496094 120.101562 137.445312 C 120.101562 137.046875 120.726562 137.046875 121.027344 137.046875 L 121.027344 136.546875 C 120.527344 136.570312 119.652344 136.59375 119.277344 136.59375 C 118.851562 136.59375 118.199219 136.570312 117.726562 136.546875 L 117.726562 137.046875 C 118.726562 137.046875 118.800781 137.144531 119 137.621094 L 121.300781 143.296875 C 121.402344 143.519531 121.425781 143.59375 121.625 143.59375 C 121.851562 143.59375 121.902344 143.445312 121.976562 143.296875 Z M 124.050781 138.121094 "/>
<path style=" stroke:none;fill-rule:nonzero;fill:rgb(0%,0%,0%);fill-opacity:1;" d="M 127.167969 139.394531 C 127.269531 137.019531 128.617188 136.621094 129.167969 136.621094 C 130.792969 136.621094 130.96875 138.769531 130.96875 139.394531 Z M 127.167969 139.746094 L 131.617188 139.746094 C 131.96875 139.746094 132.019531 139.746094 132.019531 139.394531 C 132.019531 137.820312 131.144531 136.269531 129.167969 136.269531 C 127.316406 136.269531 125.84375 137.921875 125.84375 139.921875 C 125.84375 142.046875 127.519531 143.59375 129.34375 143.59375 C 131.292969 143.59375 132.019531 141.820312 132.019531 141.519531 C 132.019531 141.371094 131.894531 141.320312 131.792969 141.320312 C 131.667969 141.320312 131.617188 141.421875 131.59375 141.546875 C 131.042969 143.195312 129.59375 143.195312 129.441406 143.195312 C 128.644531 143.195312 128.019531 142.71875 127.644531 142.121094 C 127.167969 141.371094 127.167969 140.320312 127.167969 139.746094 Z M 127.167969 139.746094 "/>
</g>
</svg>
