<?xml version="1.0" encoding="UTF-8"?>
<svg xmlns="http://www.w3.org/2000/svg" xmlns:xlink="http://www.w3.org/1999/xlink" width="605.599976pt" height="116.800003pt" viewBox="0 0 605.599976 116.800003" version="1.1">
<defs>
<clipPath id="clip1">
  <path d="M 288 87 L 318 87 L 318 116.800781 L 288 116.800781 Z M 288 87 "/>
</clipPath>
<filter id="alpha" filterUnits="objectBoundingBox" x="0%" y="0%" width="100%" height="100%">
  <feColorMatrix type="matrix" in="SourceGraphic" values="0 0 0 0 1 0 0 0 0 1 0 0 0 0 1 0 0 0 1 0"/>
</filter>
<clipPath id="clip3">
  <path d="M 0 0 L 30 0 L 30 29.800781 L 0 29.800781 Z M 0 0 "/>
</clipPath>
<clipPath id="clip2">
  <rect width="30" height="30"/>
</clipPath>
<g id="surface8" clip-path="url(#clip2)">
<g clip-path="url(#clip3)" clip-rule="nonzero">
<rect x="0" y="0" width="30" height="30" style="fill:rgb(0%,0%,0%);fill-opacity:0.97;stroke:none;"/>
</g>
</g>
<mask id="mask0">
  <g filter="url(#alpha)">
<use xlink:href="#surface8"/>
  </g>
</mask>
<clipPath id="clip5">
  <path d="M 0 0 L 30 0 L 30 29.800781 L 0 29.800781 Z M 0 0 "/>
</clipPath>
<clipPath id="clip4">
  <rect width="30" height="30"/>
</clipPath>
<g id="surface10" clip-path="url(#clip4)">
<g clip-path="url(#clip5)" clip-rule="nonzero">
<path style="fill-rule:nonzero;fill:rgb(0%,100%,100%);fill-opacity:1;stroke-width:0.8;stroke-linecap:butt;stroke-linejoin:round;stroke:rgb(0%,0%,0%);stroke-opacity:1;stroke-miterlimit:4;" d="M 293.199219 87.589844 L 312.398438 87.589844 C 315.058594 87.589844 317.199219 89.730469 317.199219 92.390625 L 317.199219 111.589844 C 317.199219 114.25 315.058594 116.390625 312.398438 116.390625 L 293.199219 116.390625 C 290.539062 116.390625 288.398438 114.25 288.398438 111.589844 L 288.398438 92.390625 C 288.398438 89.730469 290.539062 87.589844 293.199219 87.589844 Z M 293.199219 87.589844 " transform="matrix(1,0,0,1,-288,-87)"/>
</g>
</g>
<clipPath id="clip6">
  <path d="M 316 87 L 347 87 L 347 116.800781 L 316 116.800781 Z M 316 87 "/>
</clipPath>
<clipPath id="clip8">
  <path d="M 0 0 L 31 0 L 31 29.800781 L 0 29.800781 Z M 0 0 "/>
</clipPath>
<clipPath id="clip7">
  <rect width="31" height="30"/>
</clipPath>
<g id="surface14" clip-path="url(#clip7)">
<g clip-path="url(#clip8)" clip-rule="nonzero">
<rect x="0" y="0" width="31" height="30" style="fill:rgb(0%,0%,0%);fill-opacity:0.97;stroke:none;"/>
</g>
</g>
<mask id="mask1">
  <g filter="url(#alpha)">
<use xlink:href="#surface14"/>
  </g>
</mask>
<clipPath id="clip10">
  <path d="M 1 0 L 30 0 L 30 29.800781 L 1 29.800781 Z M 1 0 "/>
</clipPath>
<clipPath id="clip11">
  <path d="M 0 0 L 31 0 L 31 29.800781 L 0 29.800781 Z M 0 0 "/>
</clipPath>
<clipPath id="clip9">
  <rect width="31" height="30"/>
</clipPath>
<g id="surface16" clip-path="url(#clip9)">
<g clip-path="url(#clip10)" clip-rule="nonzero">
<path style=" stroke:none;fill-rule:nonzero;fill:rgb(0%,100%,100%);fill-opacity:1;" d="M 6 0.589844 L 25.199219 0.589844 C 27.859375 0.589844 30 2.730469 30 5.390625 L 30 24.589844 C 30 27.25 27.859375 29.390625 25.199219 29.390625 L 6 29.390625 C 3.339844 29.390625 1.199219 27.25 1.199219 24.589844 L 1.199219 5.390625 C 1.199219 2.730469 3.339844 0.589844 6 0.589844 Z M 6 0.589844 "/>
</g>
<g clip-path="url(#clip11)" clip-rule="nonzero">
<path style="fill:none;stroke-width:0.8;stroke-linecap:butt;stroke-linejoin:round;stroke:rgb(0%,0%,0%);stroke-opacity:1;stroke-miterlimit:4;" d="M 322 87.589844 L 341.199219 87.589844 C 343.859375 87.589844 346 89.730469 346 92.390625 L 346 111.589844 C 346 114.25 343.859375 116.390625 341.199219 116.390625 L 322 116.390625 C 319.339844 116.390625 317.199219 114.25 317.199219 111.589844 L 317.199219 92.390625 C 317.199219 89.730469 319.339844 87.589844 322 87.589844 Z M 322 87.589844 " transform="matrix(1,0,0,1,-316,-87)"/>
</g>
</g>
<clipPath id="clip12">
  <rect width="31" height="30"/>
</clipPath>
<g id="surface20" clip-path="url(#clip12)">
<rect x="0" y="0" width="31" height="30" style="fill:rgb(0%,0%,0%);fill-opacity:0.97;stroke:none;"/>
</g>
<mask id="mask2">
  <g filter="url(#alpha)">
<use xlink:href="#surface20"/>
  </g>
</mask>
<clipPath id="clip13">
  <rect width="31" height="30"/>
</clipPath>
<g id="surface22" clip-path="url(#clip13)">
<path style="fill-rule:nonzero;fill:rgb(0%,100%,100%);fill-opacity:1;stroke-width:0.8;stroke-linecap:butt;stroke-linejoin:round;stroke:rgb(0%,0%,0%);stroke-opacity:1;stroke-miterlimit:4;" d="M 322 58.789062 L 341.199219 58.789062 C 343.859375 58.789062 346 60.929688 346 63.589844 L 346 82.789062 C 346 85.449219 343.859375 87.589844 341.199219 87.589844 L 322 87.589844 C 319.339844 87.589844 317.199219 85.449219 317.199219 82.789062 L 317.199219 63.589844 C 317.199219 60.929688 319.339844 58.789062 322 58.789062 Z M 322 58.789062 " transform="matrix(1,0,0,1,-316,-58)"/>
</g>
<clipPath id="clip14">
  <path d="M 345 87 L 376 87 L 376 116.800781 L 345 116.800781 Z M 345 87 "/>
</clipPath>
<clipPath id="clip16">
  <path d="M 0 0 L 31 0 L 31 29.800781 L 0 29.800781 Z M 0 0 "/>
</clipPath>
<clipPath id="clip15">
  <rect width="31" height="30"/>
</clipPath>
<g id="surface26" clip-path="url(#clip15)">
<g clip-path="url(#clip16)" clip-rule="nonzero">
<rect x="0" y="0" width="31" height="30" style="fill:rgb(0%,0%,0%);fill-opacity:0.97;stroke:none;"/>
</g>
</g>
<mask id="mask3">
  <g filter="url(#alpha)">
<use xlink:href="#surface26"/>
  </g>
</mask>
<clipPath id="clip18">
  <path d="M 1 0 L 30 0 L 30 29.800781 L 1 29.800781 Z M 1 0 "/>
</clipPath>
<clipPath id="clip19">
  <path d="M 0 0 L 31 0 L 31 29.800781 L 0 29.800781 Z M 0 0 "/>
</clipPath>
<clipPath id="clip17">
  <rect width="31" height="30"/>
</clipPath>
<g id="surface28" clip-path="url(#clip17)">
<g clip-path="url(#clip18)" clip-rule="nonzero">
<path style=" stroke:none;fill-rule:nonzero;fill:rgb(0%,100%,100%);fill-opacity:1;" d="M 5.800781 0.589844 L 25 0.589844 C 27.660156 0.589844 29.800781 2.730469 29.800781 5.390625 L 29.800781 24.589844 C 29.800781 27.25 27.660156 29.390625 25 29.390625 L 5.800781 29.390625 C 3.140625 29.390625 1 27.25 1 24.589844 L 1 5.390625 C 1 2.730469 3.140625 0.589844 5.800781 0.589844 Z M 5.800781 0.589844 "/>
</g>
<g clip-path="url(#clip19)" clip-rule="nonzero">
<path style="fill:none;stroke-width:0.8;stroke-linecap:butt;stroke-linejoin:round;stroke:rgb(0%,0%,0%);stroke-opacity:1;stroke-miterlimit:4;" d="M 350.800781 87.589844 L 370 87.589844 C 372.660156 87.589844 374.800781 89.730469 374.800781 92.390625 L 374.800781 111.589844 C 374.800781 114.25 372.660156 116.390625 370 116.390625 L 350.800781 116.390625 C 348.140625 116.390625 346 114.25 346 111.589844 L 346 92.390625 C 346 89.730469 348.140625 87.589844 350.800781 87.589844 Z M 350.800781 87.589844 " transform="matrix(1,0,0,1,-345,-87)"/>
</g>
</g>
<clipPath id="clip20">
  <rect width="31" height="30"/>
</clipPath>
<g id="surface32" clip-path="url(#clip20)">
<rect x="0" y="0" width="31" height="30" style="fill:rgb(0%,0%,0%);fill-opacity:0.97;stroke:none;"/>
</g>
<mask id="mask4">
  <g filter="url(#alpha)">
<use xlink:href="#surface32"/>
  </g>
</mask>
<clipPath id="clip21">
  <rect width="31" height="30"/>
</clipPath>
<g id="surface34" clip-path="url(#clip21)">
<path style="fill-rule:nonzero;fill:rgb(0%,100%,100%);fill-opacity:1;stroke-width:0.8;stroke-linecap:butt;stroke-linejoin:round;stroke:rgb(0%,0%,0%);stroke-opacity:1;stroke-miterlimit:4;" d="M 350.800781 58.789062 L 370 58.789062 C 372.660156 58.789062 374.800781 60.929688 374.800781 63.589844 L 374.800781 82.789062 C 374.800781 85.449219 372.660156 87.589844 370 87.589844 L 350.800781 87.589844 C 348.140625 87.589844 346 85.449219 346 82.789062 L 346 63.589844 C 346 60.929688 348.140625 58.789062 350.800781 58.789062 Z M 350.800781 58.789062 " transform="matrix(1,0,0,1,-345,-58)"/>
</g>
<clipPath id="clip22">
  <rect width="31" height="31"/>
</clipPath>
<g id="surface38" clip-path="url(#clip22)">
<rect x="0" y="0" width="31" height="31" style="fill:rgb(0%,0%,0%);fill-opacity:0.97;stroke:none;"/>
</g>
<mask id="mask5">
  <g filter="url(#alpha)">
<use xlink:href="#surface38"/>
  </g>
</mask>
<clipPath id="clip23">
  <rect width="31" height="31"/>
</clipPath>
<g id="surface40" clip-path="url(#clip23)">
<path style="fill-rule:nonzero;fill:rgb(0%,100%,100%);fill-opacity:1;stroke-width:0.8;stroke-linecap:butt;stroke-linejoin:round;stroke:rgb(0%,0%,0%);stroke-opacity:1;stroke-miterlimit:4;" d="M 350.800781 29.988281 L 370 29.988281 C 372.660156 29.988281 374.800781 32.128906 374.800781 34.789062 L 374.800781 53.988281 C 374.800781 56.648438 372.660156 58.789062 370 58.789062 L 350.800781 58.789062 C 348.140625 58.789062 346 56.648438 346 53.988281 L 346 34.789062 C 346 32.128906 348.140625 29.988281 350.800781 29.988281 Z M 350.800781 29.988281 " transform="matrix(1,0,0,1,-345,-29)"/>
</g>
<clipPath id="clip24">
  <path d="M 374 87 L 404 87 L 404 116.800781 L 374 116.800781 Z M 374 87 "/>
</clipPath>
<clipPath id="clip26">
  <path d="M 0 0 L 30 0 L 30 29.800781 L 0 29.800781 Z M 0 0 "/>
</clipPath>
<clipPath id="clip25">
  <rect width="30" height="30"/>
</clipPath>
<g id="surface44" clip-path="url(#clip25)">
<g clip-path="url(#clip26)" clip-rule="nonzero">
<rect x="0" y="0" width="30" height="30" style="fill:rgb(0%,0%,0%);fill-opacity:0.97;stroke:none;"/>
</g>
</g>
<mask id="mask6">
  <g filter="url(#alpha)">
<use xlink:href="#surface44"/>
  </g>
</mask>
<clipPath id="clip28">
  <path d="M 0 0 L 30 0 L 30 29.800781 L 0 29.800781 Z M 0 0 "/>
</clipPath>
<clipPath id="clip27">
  <rect width="30" height="30"/>
</clipPath>
<g id="surface46" clip-path="url(#clip27)">
<g clip-path="url(#clip28)" clip-rule="nonzero">
<path style="fill-rule:nonzero;fill:rgb(0%,100%,100%);fill-opacity:1;stroke-width:0.8;stroke-linecap:butt;stroke-linejoin:round;stroke:rgb(0%,0%,0%);stroke-opacity:1;stroke-miterlimit:4;" d="M 379.601562 87.589844 L 398.800781 87.589844 C 401.460938 87.589844 403.601562 89.730469 403.601562 92.390625 L 403.601562 111.589844 C 403.601562 114.25 401.460938 116.390625 398.800781 116.390625 L 379.601562 116.390625 C 376.941406 116.390625 374.800781 114.25 374.800781 111.589844 L 374.800781 92.390625 C 374.800781 89.730469 376.941406 87.589844 379.601562 87.589844 Z M 379.601562 87.589844 " transform="matrix(1,0,0,1,-374,-87)"/>
</g>
</g>
<clipPath id="clip29">
  <rect width="30" height="30"/>
</clipPath>
<g id="surface50" clip-path="url(#clip29)">
<rect x="0" y="0" width="30" height="30" style="fill:rgb(0%,0%,0%);fill-opacity:0.97;stroke:none;"/>
</g>
<mask id="mask7">
  <g filter="url(#alpha)">
<use xlink:href="#surface50"/>
  </g>
</mask>
<clipPath id="clip30">
  <rect width="30" height="30"/>
</clipPath>
<g id="surface52" clip-path="url(#clip30)">
<path style="fill-rule:nonzero;fill:rgb(0%,100%,100%);fill-opacity:1;stroke-width:0.8;stroke-linecap:butt;stroke-linejoin:round;stroke:rgb(0%,0%,0%);stroke-opacity:1;stroke-miterlimit:4;" d="M 379.601562 58.789062 L 398.800781 58.789062 C 401.460938 58.789062 403.601562 60.929688 403.601562 63.589844 L 403.601562 82.789062 C 403.601562 85.449219 401.460938 87.589844 398.800781 87.589844 L 379.601562 87.589844 C 376.941406 87.589844 374.800781 85.449219 374.800781 82.789062 L 374.800781 63.589844 C 374.800781 60.929688 376.941406 58.789062 379.601562 58.789062 Z M 379.601562 58.789062 " transform="matrix(1,0,0,1,-374,-58)"/>
</g>
<clipPath id="clip31">
  <rect width="30" height="31"/>
</clipPath>
<g id="surface56" clip-path="url(#clip31)">
<rect x="0" y="0" width="30" height="31" style="fill:rgb(0%,0%,0%);fill-opacity:0.97;stroke:none;"/>
</g>
<mask id="mask8">
  <g filter="url(#alpha)">
<use xlink:href="#surface56"/>
  </g>
</mask>
<clipPath id="clip32">
  <rect width="30" height="31"/>
</clipPath>
<g id="surface58" clip-path="url(#clip32)">
<path style="fill-rule:nonzero;fill:rgb(0%,100%,100%);fill-opacity:1;stroke-width:0.8;stroke-linecap:butt;stroke-linejoin:round;stroke:rgb(0%,0%,0%);stroke-opacity:1;stroke-miterlimit:4;" d="M 379.601562 29.988281 L 398.800781 29.988281 C 401.460938 29.988281 403.601562 32.128906 403.601562 34.789062 L 403.601562 53.988281 C 403.601562 56.648438 401.460938 58.789062 398.800781 58.789062 L 379.601562 58.789062 C 376.941406 58.789062 374.800781 56.648438 374.800781 53.988281 L 374.800781 34.789062 C 374.800781 32.128906 376.941406 29.988281 379.601562 29.988281 Z M 379.601562 29.988281 " transform="matrix(1,0,0,1,-374,-29)"/>
</g>
<clipPath id="clip33">
  <rect width="30" height="31"/>
</clipPath>
<g id="surface62" clip-path="url(#clip33)">
<rect x="0" y="0" width="30" height="31" style="fill:rgb(0%,0%,0%);fill-opacity:0.97;stroke:none;"/>
</g>
<mask id="mask9">
  <g filter="url(#alpha)">
<use xlink:href="#surface62"/>
  </g>
</mask>
<clipPath id="clip34">
  <rect width="30" height="31"/>
</clipPath>
<g id="surface64" clip-path="url(#clip34)">
<path style="fill-rule:nonzero;fill:rgb(0%,100%,100%);fill-opacity:1;stroke-width:0.8;stroke-linecap:butt;stroke-linejoin:round;stroke:rgb(0%,0%,0%);stroke-opacity:1;stroke-miterlimit:4;" d="M 379.601562 1.191406 L 398.800781 1.191406 C 401.460938 1.191406 403.601562 3.332031 403.601562 5.988281 L 403.601562 25.191406 C 403.601562 27.847656 401.460938 29.988281 398.800781 29.988281 L 379.601562 29.988281 C 376.941406 29.988281 374.800781 27.847656 374.800781 25.191406 L 374.800781 5.988281 C 374.800781 3.332031 376.941406 1.191406 379.601562 1.191406 Z M 379.601562 1.191406 " transform="matrix(1,0,0,1,-374,0)"/>
</g>
<clipPath id="clip35">
  <rect width="31" height="30"/>
</clipPath>
<g id="surface68" clip-path="url(#clip35)">
<rect x="0" y="0" width="31" height="30" style="fill:rgb(0%,0%,0%);fill-opacity:0.97;stroke:none;"/>
</g>
<mask id="mask10">
  <g filter="url(#alpha)">
<use xlink:href="#surface68"/>
  </g>
</mask>
<clipPath id="clip36">
  <rect width="31" height="30"/>
</clipPath>
<g id="surface70" clip-path="url(#clip36)">
<path style="fill-rule:nonzero;fill:rgb(0%,100%,100%);fill-opacity:1;stroke-width:0.8;stroke-linecap:butt;stroke-linejoin:round;stroke:rgb(0%,0%,0%);stroke-opacity:1;stroke-miterlimit:4;" d="M 494.800781 86.789062 L 514 86.789062 C 516.660156 86.789062 518.800781 88.929688 518.800781 91.589844 L 518.800781 110.789062 C 518.800781 113.449219 516.660156 115.589844 514 115.589844 L 494.800781 115.589844 C 492.140625 115.589844 490 113.449219 490 110.789062 L 490 91.589844 C 490 88.929688 492.140625 86.789062 494.800781 86.789062 Z M 494.800781 86.789062 " transform="matrix(1,0,0,1,-489,-86)"/>
</g>
<clipPath id="clip37">
  <rect width="30" height="30"/>
</clipPath>
<g id="surface74" clip-path="url(#clip37)">
<rect x="0" y="0" width="30" height="30" style="fill:rgb(0%,0%,0%);fill-opacity:0.97;stroke:none;"/>
</g>
<mask id="mask11">
  <g filter="url(#alpha)">
<use xlink:href="#surface74"/>
  </g>
</mask>
<clipPath id="clip38">
  <rect width="30" height="30"/>
</clipPath>
<g id="surface76" clip-path="url(#clip38)">
<path style="fill-rule:nonzero;fill:rgb(0%,100%,100%);fill-opacity:1;stroke-width:0.8;stroke-linecap:butt;stroke-linejoin:round;stroke:rgb(0%,0%,0%);stroke-opacity:1;stroke-miterlimit:4;" d="M 523.601562 86.789062 L 542.800781 86.789062 C 545.460938 86.789062 547.601562 88.929688 547.601562 91.589844 L 547.601562 110.789062 C 547.601562 113.449219 545.460938 115.589844 542.800781 115.589844 L 523.601562 115.589844 C 520.941406 115.589844 518.800781 113.449219 518.800781 110.789062 L 518.800781 91.589844 C 518.800781 88.929688 520.941406 86.789062 523.601562 86.789062 Z M 523.601562 86.789062 " transform="matrix(1,0,0,1,-518,-86)"/>
</g>
<clipPath id="clip39">
  <rect width="30" height="31"/>
</clipPath>
<g id="surface80" clip-path="url(#clip39)">
<rect x="0" y="0" width="30" height="31" style="fill:rgb(0%,0%,0%);fill-opacity:0.97;stroke:none;"/>
</g>
<mask id="mask12">
  <g filter="url(#alpha)">
<use xlink:href="#surface80"/>
  </g>
</mask>
<clipPath id="clip40">
  <rect width="30" height="31"/>
</clipPath>
<g id="surface82" clip-path="url(#clip40)">
<path style="fill-rule:nonzero;fill:rgb(0%,100%,100%);fill-opacity:1;stroke-width:0.8;stroke-linecap:butt;stroke-linejoin:round;stroke:rgb(0%,0%,0%);stroke-opacity:1;stroke-miterlimit:4;" d="M 523.601562 57.988281 L 542.800781 57.988281 C 545.460938 57.988281 547.601562 60.128906 547.601562 62.789062 L 547.601562 81.988281 C 547.601562 84.648438 545.460938 86.789062 542.800781 86.789062 L 523.601562 86.789062 C 520.941406 86.789062 518.800781 84.648438 518.800781 81.988281 L 518.800781 62.789062 C 518.800781 60.128906 520.941406 57.988281 523.601562 57.988281 Z M 523.601562 57.988281 " transform="matrix(1,0,0,1,-518,-57)"/>
</g>
<clipPath id="clip41">
  <rect width="30" height="30"/>
</clipPath>
<g id="surface86" clip-path="url(#clip41)">
<rect x="0" y="0" width="30" height="30" style="fill:rgb(0%,0%,0%);fill-opacity:0.97;stroke:none;"/>
</g>
<mask id="mask13">
  <g filter="url(#alpha)">
<use xlink:href="#surface86"/>
  </g>
</mask>
<clipPath id="clip42">
  <rect width="30" height="30"/>
</clipPath>
<g id="surface88" clip-path="url(#clip42)">
<path style="fill-rule:nonzero;fill:rgb(0%,100%,100%);fill-opacity:1;stroke-width:0.8;stroke-linecap:butt;stroke-linejoin:round;stroke:rgb(0%,0%,0%);stroke-opacity:1;stroke-miterlimit:4;" d="M 552.398438 86.789062 L 571.601562 86.789062 C 574.257812 86.789062 576.398438 88.929688 576.398438 91.589844 L 576.398438 110.789062 C 576.398438 113.449219 574.257812 115.589844 571.601562 115.589844 L 552.398438 115.589844 C 549.742188 115.589844 547.601562 113.449219 547.601562 110.789062 L 547.601562 91.589844 C 547.601562 88.929688 549.742188 86.789062 552.398438 86.789062 Z M 552.398438 86.789062 " transform="matrix(1,0,0,1,-547,-86)"/>
</g>
<clipPath id="clip43">
  <rect width="30" height="31"/>
</clipPath>
<g id="surface92" clip-path="url(#clip43)">
<rect x="0" y="0" width="30" height="31" style="fill:rgb(0%,0%,0%);fill-opacity:0.97;stroke:none;"/>
</g>
<mask id="mask14">
  <g filter="url(#alpha)">
<use xlink:href="#surface92"/>
  </g>
</mask>
<clipPath id="clip44">
  <rect width="30" height="31"/>
</clipPath>
<g id="surface94" clip-path="url(#clip44)">
<path style="fill-rule:nonzero;fill:rgb(0%,100%,100%);fill-opacity:1;stroke-width:0.8;stroke-linecap:butt;stroke-linejoin:round;stroke:rgb(0%,0%,0%);stroke-opacity:1;stroke-miterlimit:4;" d="M 552.398438 57.988281 L 571.601562 57.988281 C 574.257812 57.988281 576.398438 60.128906 576.398438 62.789062 L 576.398438 81.988281 C 576.398438 84.648438 574.257812 86.789062 571.601562 86.789062 L 552.398438 86.789062 C 549.742188 86.789062 547.601562 84.648438 547.601562 81.988281 L 547.601562 62.789062 C 547.601562 60.128906 549.742188 57.988281 552.398438 57.988281 Z M 552.398438 57.988281 " transform="matrix(1,0,0,1,-547,-57)"/>
</g>
<clipPath id="clip45">
  <rect width="30" height="31"/>
</clipPath>
<g id="surface98" clip-path="url(#clip45)">
<rect x="0" y="0" width="30" height="31" style="fill:rgb(0%,0%,0%);fill-opacity:0.97;stroke:none;"/>
</g>
<mask id="mask15">
  <g filter="url(#alpha)">
<use xlink:href="#surface98"/>
  </g>
</mask>
<clipPath id="clip46">
  <rect width="30" height="31"/>
</clipPath>
<g id="surface100" clip-path="url(#clip46)">
<path style="fill-rule:nonzero;fill:rgb(0%,100%,100%);fill-opacity:1;stroke-width:0.8;stroke-linecap:butt;stroke-linejoin:round;stroke:rgb(0%,0%,0%);stroke-opacity:1;stroke-miterlimit:4;" d="M 552.398438 29.191406 L 571.601562 29.191406 C 574.257812 29.191406 576.398438 31.332031 576.398438 33.988281 L 576.398438 53.191406 C 576.398438 55.847656 574.257812 57.988281 571.601562 57.988281 L 552.398438 57.988281 C 549.742188 57.988281 547.601562 55.847656 547.601562 53.191406 L 547.601562 33.988281 C 547.601562 31.332031 549.742188 29.191406 552.398438 29.191406 Z M 552.398438 29.191406 " transform="matrix(1,0,0,1,-547,-28)"/>
</g>
<clipPath id="clip47">
  <path d="M 576 86 L 605.601562 86 L 605.601562 116 L 576 116 Z M 576 86 "/>
</clipPath>
<clipPath id="clip49">
  <path d="M 0 0 L 29.601562 0 L 29.601562 30 L 0 30 Z M 0 0 "/>
</clipPath>
<clipPath id="clip48">
  <rect width="30" height="30"/>
</clipPath>
<g id="surface104" clip-path="url(#clip48)">
<g clip-path="url(#clip49)" clip-rule="nonzero">
<rect x="0" y="0" width="30" height="30" style="fill:rgb(0%,0%,0%);fill-opacity:0.97;stroke:none;"/>
</g>
</g>
<mask id="mask16">
  <g filter="url(#alpha)">
<use xlink:href="#surface104"/>
  </g>
</mask>
<clipPath id="clip51">
  <path d="M 0 0 L 29.601562 0 L 29.601562 30 L 0 30 Z M 0 0 "/>
</clipPath>
<clipPath id="clip50">
  <rect width="30" height="30"/>
</clipPath>
<g id="surface106" clip-path="url(#clip50)">
<g clip-path="url(#clip51)" clip-rule="nonzero">
<path style="fill-rule:nonzero;fill:rgb(0%,100%,100%);fill-opacity:1;stroke-width:0.8;stroke-linecap:butt;stroke-linejoin:round;stroke:rgb(0%,0%,0%);stroke-opacity:1;stroke-miterlimit:4;" d="M 581.199219 86.789062 L 600.398438 86.789062 C 603.058594 86.789062 605.199219 88.929688 605.199219 91.589844 L 605.199219 110.789062 C 605.199219 113.449219 603.058594 115.589844 600.398438 115.589844 L 581.199219 115.589844 C 578.539062 115.589844 576.398438 113.449219 576.398438 110.789062 L 576.398438 91.589844 C 576.398438 88.929688 578.539062 86.789062 581.199219 86.789062 Z M 581.199219 86.789062 " transform="matrix(1,0,0,1,-576,-86)"/>
</g>
</g>
<clipPath id="clip52">
  <path d="M 576 57 L 605.601562 57 L 605.601562 88 L 576 88 Z M 576 57 "/>
</clipPath>
<clipPath id="clip54">
  <path d="M 0 0 L 29.601562 0 L 29.601562 31 L 0 31 Z M 0 0 "/>
</clipPath>
<clipPath id="clip53">
  <rect width="30" height="31"/>
</clipPath>
<g id="surface110" clip-path="url(#clip53)">
<g clip-path="url(#clip54)" clip-rule="nonzero">
<rect x="0" y="0" width="30" height="31" style="fill:rgb(0%,0%,0%);fill-opacity:0.97;stroke:none;"/>
</g>
</g>
<mask id="mask17">
  <g filter="url(#alpha)">
<use xlink:href="#surface110"/>
  </g>
</mask>
<clipPath id="clip56">
  <path d="M 0 0 L 29.601562 0 L 29.601562 30 L 0 30 Z M 0 0 "/>
</clipPath>
<clipPath id="clip57">
  <path d="M 0 0 L 29.601562 0 L 29.601562 31 L 0 31 Z M 0 0 "/>
</clipPath>
<clipPath id="clip55">
  <rect width="30" height="31"/>
</clipPath>
<g id="surface112" clip-path="url(#clip55)">
<g clip-path="url(#clip56)" clip-rule="nonzero">
<path style=" stroke:none;fill-rule:nonzero;fill:rgb(0%,100%,100%);fill-opacity:1;" d="M 5.199219 0.988281 L 24.398438 0.988281 C 27.058594 0.988281 29.199219 3.128906 29.199219 5.789062 L 29.199219 24.988281 C 29.199219 27.648438 27.058594 29.789062 24.398438 29.789062 L 5.199219 29.789062 C 2.539062 29.789062 0.398438 27.648438 0.398438 24.988281 L 0.398438 5.789062 C 0.398438 3.128906 2.539062 0.988281 5.199219 0.988281 Z M 5.199219 0.988281 "/>
</g>
<g clip-path="url(#clip57)" clip-rule="nonzero">
<path style="fill:none;stroke-width:0.8;stroke-linecap:butt;stroke-linejoin:round;stroke:rgb(0%,0%,0%);stroke-opacity:1;stroke-miterlimit:4;" d="M 581.199219 57.988281 L 600.398438 57.988281 C 603.058594 57.988281 605.199219 60.128906 605.199219 62.789062 L 605.199219 81.988281 C 605.199219 84.648438 603.058594 86.789062 600.398438 86.789062 L 581.199219 86.789062 C 578.539062 86.789062 576.398438 84.648438 576.398438 81.988281 L 576.398438 62.789062 C 576.398438 60.128906 578.539062 57.988281 581.199219 57.988281 Z M 581.199219 57.988281 " transform="matrix(1,0,0,1,-576,-57)"/>
</g>
</g>
<clipPath id="clip58">
  <path d="M 576 28 L 605.601562 28 L 605.601562 59 L 576 59 Z M 576 28 "/>
</clipPath>
<clipPath id="clip60">
  <path d="M 0 0 L 29.601562 0 L 29.601562 31 L 0 31 Z M 0 0 "/>
</clipPath>
<clipPath id="clip59">
  <rect width="30" height="31"/>
</clipPath>
<g id="surface116" clip-path="url(#clip59)">
<g clip-path="url(#clip60)" clip-rule="nonzero">
<rect x="0" y="0" width="30" height="31" style="fill:rgb(0%,0%,0%);fill-opacity:0.97;stroke:none;"/>
</g>
</g>
<mask id="mask18">
  <g filter="url(#alpha)">
<use xlink:href="#surface116"/>
  </g>
</mask>
<clipPath id="clip62">
  <path d="M 0 1 L 29.601562 1 L 29.601562 30 L 0 30 Z M 0 1 "/>
</clipPath>
<clipPath id="clip63">
  <path d="M 0 0 L 29.601562 0 L 29.601562 31 L 0 31 Z M 0 0 "/>
</clipPath>
<clipPath id="clip61">
  <rect width="30" height="31"/>
</clipPath>
<g id="surface118" clip-path="url(#clip61)">
<g clip-path="url(#clip62)" clip-rule="nonzero">
<path style=" stroke:none;fill-rule:nonzero;fill:rgb(0%,100%,100%);fill-opacity:1;" d="M 5.199219 1.191406 L 24.398438 1.191406 C 27.058594 1.191406 29.199219 3.332031 29.199219 5.988281 L 29.199219 25.191406 C 29.199219 27.847656 27.058594 29.988281 24.398438 29.988281 L 5.199219 29.988281 C 2.539062 29.988281 0.398438 27.847656 0.398438 25.191406 L 0.398438 5.988281 C 0.398438 3.332031 2.539062 1.191406 5.199219 1.191406 Z M 5.199219 1.191406 "/>
</g>
<g clip-path="url(#clip63)" clip-rule="nonzero">
<path style="fill:none;stroke-width:0.8;stroke-linecap:butt;stroke-linejoin:round;stroke:rgb(0%,0%,0%);stroke-opacity:1;stroke-miterlimit:4;" d="M 581.199219 29.191406 L 600.398438 29.191406 C 603.058594 29.191406 605.199219 31.332031 605.199219 33.988281 L 605.199219 53.191406 C 605.199219 55.847656 603.058594 57.988281 600.398438 57.988281 L 581.199219 57.988281 C 578.539062 57.988281 576.398438 55.847656 576.398438 53.191406 L 576.398438 33.988281 C 576.398438 31.332031 578.539062 29.191406 581.199219 29.191406 Z M 581.199219 29.191406 " transform="matrix(1,0,0,1,-576,-28)"/>
</g>
</g>
<clipPath id="clip64">
  <path d="M 576 0 L 605.601562 0 L 605.601562 30 L 576 30 Z M 576 0 "/>
</clipPath>
<clipPath id="clip66">
  <path d="M 0 0 L 29.601562 0 L 29.601562 30 L 0 30 Z M 0 0 "/>
</clipPath>
<clipPath id="clip65">
  <rect width="30" height="30"/>
</clipPath>
<g id="surface122" clip-path="url(#clip65)">
<g clip-path="url(#clip66)" clip-rule="nonzero">
<rect x="0" y="0" width="30" height="30" style="fill:rgb(0%,0%,0%);fill-opacity:0.97;stroke:none;"/>
</g>
</g>
<mask id="mask19">
  <g filter="url(#alpha)">
<use xlink:href="#surface122"/>
  </g>
</mask>
<clipPath id="clip68">
  <path d="M 0 0 L 29.601562 0 L 29.601562 30 L 0 30 Z M 0 0 "/>
</clipPath>
<clipPath id="clip67">
  <rect width="30" height="30"/>
</clipPath>
<g id="surface124" clip-path="url(#clip67)">
<g clip-path="url(#clip68)" clip-rule="nonzero">
<path style="fill-rule:nonzero;fill:rgb(0%,100%,100%);fill-opacity:1;stroke-width:0.8;stroke-linecap:butt;stroke-linejoin:round;stroke:rgb(0%,0%,0%);stroke-opacity:1;stroke-miterlimit:4;" d="M 581.199219 0.390625 L 600.398438 0.390625 C 603.058594 0.390625 605.199219 2.53125 605.199219 5.191406 L 605.199219 24.390625 C 605.199219 27.050781 603.058594 29.191406 600.398438 29.191406 L 581.199219 29.191406 C 578.539062 29.191406 576.398438 27.050781 576.398438 24.390625 L 576.398438 5.191406 C 576.398438 2.53125 578.539062 0.390625 581.199219 0.390625 Z M 581.199219 0.390625 " transform="matrix(1,0,0,1,-576,0)"/>
</g>
</g>
<clipPath id="clip69">
  <rect width="30" height="31"/>
</clipPath>
<g id="surface128" clip-path="url(#clip69)">
<rect x="0" y="0" width="30" height="31" style="fill:rgb(0%,0%,0%);fill-opacity:0.97;stroke:none;"/>
</g>
<mask id="mask20">
  <g filter="url(#alpha)">
<use xlink:href="#surface128"/>
  </g>
</mask>
<clipPath id="clip70">
  <rect width="30" height="31"/>
</clipPath>
<g id="surface130" clip-path="url(#clip70)">
<path style="fill-rule:nonzero;fill:rgb(0%,100%,0%);fill-opacity:1;stroke-width:0.8;stroke-linecap:butt;stroke-linejoin:round;stroke:rgb(0%,0%,0%);stroke-opacity:1;stroke-miterlimit:4;" d="M -572.398438 -29.988281 L -553.199219 -29.988281 C -550.539062 -29.988281 -548.398438 -27.847656 -548.398438 -25.191406 L -548.398438 -5.988281 C -548.398438 -3.332031 -550.539062 -1.191406 -553.199219 -1.191406 L -572.398438 -1.191406 C -575.058594 -1.191406 -577.199219 -3.332031 -577.199219 -5.988281 L -577.199219 -25.191406 C -577.199219 -27.847656 -575.058594 -29.988281 -572.398438 -29.988281 Z M -572.398438 -29.988281 " transform="matrix(-1,0,0,-1,-548,0)"/>
</g>
<clipPath id="clip71">
  <rect width="30" height="31"/>
</clipPath>
<g id="surface134" clip-path="url(#clip71)">
<rect x="0" y="0" width="30" height="31" style="fill:rgb(0%,0%,0%);fill-opacity:0.97;stroke:none;"/>
</g>
<mask id="mask21">
  <g filter="url(#alpha)">
<use xlink:href="#surface134"/>
  </g>
</mask>
<clipPath id="clip72">
  <rect width="30" height="31"/>
</clipPath>
<g id="surface136" clip-path="url(#clip72)">
<path style="fill-rule:nonzero;fill:rgb(0%,100%,0%);fill-opacity:1;stroke-width:0.8;stroke-linecap:butt;stroke-linejoin:round;stroke:rgb(0%,0%,0%);stroke-opacity:1;stroke-miterlimit:4;" d="M -543.601562 -29.988281 L -524.398438 -29.988281 C -521.742188 -29.988281 -519.601562 -27.847656 -519.601562 -25.191406 L -519.601562 -5.988281 C -519.601562 -3.332031 -521.742188 -1.191406 -524.398438 -1.191406 L -543.601562 -1.191406 C -546.257812 -1.191406 -548.398438 -3.332031 -548.398438 -5.988281 L -548.398438 -25.191406 C -548.398438 -27.847656 -546.257812 -29.988281 -543.601562 -29.988281 Z M -543.601562 -29.988281 " transform="matrix(-1,0,0,-1,-519,0)"/>
</g>
<clipPath id="clip73">
  <rect width="30" height="31"/>
</clipPath>
<g id="surface140" clip-path="url(#clip73)">
<rect x="0" y="0" width="30" height="31" style="fill:rgb(0%,0%,0%);fill-opacity:0.97;stroke:none;"/>
</g>
<mask id="mask22">
  <g filter="url(#alpha)">
<use xlink:href="#surface140"/>
  </g>
</mask>
<clipPath id="clip74">
  <rect width="30" height="31"/>
</clipPath>
<g id="surface142" clip-path="url(#clip74)">
<path style="fill-rule:nonzero;fill:rgb(0%,100%,0%);fill-opacity:1;stroke-width:0.8;stroke-linecap:butt;stroke-linejoin:round;stroke:rgb(0%,0%,0%);stroke-opacity:1;stroke-miterlimit:4;" d="M -543.601562 -58.789062 L -524.398438 -58.789062 C -521.742188 -58.789062 -519.601562 -56.648438 -519.601562 -53.988281 L -519.601562 -34.789062 C -519.601562 -32.128906 -521.742188 -29.988281 -524.398438 -29.988281 L -543.601562 -29.988281 C -546.257812 -29.988281 -548.398438 -32.128906 -548.398438 -34.789062 L -548.398438 -53.988281 C -548.398438 -56.648438 -546.257812 -58.789062 -543.601562 -58.789062 Z M -543.601562 -58.789062 " transform="matrix(-1,0,0,-1,-519,-29)"/>
</g>
<clipPath id="clip75">
  <rect width="30" height="31"/>
</clipPath>
<g id="surface146" clip-path="url(#clip75)">
<rect x="0" y="0" width="30" height="31" style="fill:rgb(0%,0%,0%);fill-opacity:0.97;stroke:none;"/>
</g>
<mask id="mask23">
  <g filter="url(#alpha)">
<use xlink:href="#surface146"/>
  </g>
</mask>
<clipPath id="clip76">
  <rect width="30" height="31"/>
</clipPath>
<g id="surface148" clip-path="url(#clip76)">
<path style="fill-rule:nonzero;fill:rgb(0%,100%,0%);fill-opacity:1;stroke-width:0.8;stroke-linecap:butt;stroke-linejoin:round;stroke:rgb(0%,0%,0%);stroke-opacity:1;stroke-miterlimit:4;" d="M -514.800781 -29.988281 L -495.601562 -29.988281 C -492.941406 -29.988281 -490.800781 -27.847656 -490.800781 -25.191406 L -490.800781 -5.988281 C -490.800781 -3.332031 -492.941406 -1.191406 -495.601562 -1.191406 L -514.800781 -1.191406 C -517.460938 -1.191406 -519.601562 -3.332031 -519.601562 -5.988281 L -519.601562 -25.191406 C -519.601562 -27.847656 -517.460938 -29.988281 -514.800781 -29.988281 Z M -514.800781 -29.988281 " transform="matrix(-1,0,0,-1,-490,0)"/>
</g>
<clipPath id="clip77">
  <rect width="30" height="31"/>
</clipPath>
<g id="surface152" clip-path="url(#clip77)">
<rect x="0" y="0" width="30" height="31" style="fill:rgb(0%,0%,0%);fill-opacity:0.97;stroke:none;"/>
</g>
<mask id="mask24">
  <g filter="url(#alpha)">
<use xlink:href="#surface152"/>
  </g>
</mask>
<clipPath id="clip78">
  <rect width="30" height="31"/>
</clipPath>
<g id="surface154" clip-path="url(#clip78)">
<path style="fill-rule:nonzero;fill:rgb(0%,100%,0%);fill-opacity:1;stroke-width:0.8;stroke-linecap:butt;stroke-linejoin:round;stroke:rgb(0%,0%,0%);stroke-opacity:1;stroke-miterlimit:4;" d="M -514.800781 -58.789062 L -495.601562 -58.789062 C -492.941406 -58.789062 -490.800781 -56.648438 -490.800781 -53.988281 L -490.800781 -34.789062 C -490.800781 -32.128906 -492.941406 -29.988281 -495.601562 -29.988281 L -514.800781 -29.988281 C -517.460938 -29.988281 -519.601562 -32.128906 -519.601562 -34.789062 L -519.601562 -53.988281 C -519.601562 -56.648438 -517.460938 -58.789062 -514.800781 -58.789062 Z M -514.800781 -58.789062 " transform="matrix(-1,0,0,-1,-490,-29)"/>
</g>
<clipPath id="clip79">
  <rect width="30" height="30"/>
</clipPath>
<g id="surface158" clip-path="url(#clip79)">
<rect x="0" y="0" width="30" height="30" style="fill:rgb(0%,0%,0%);fill-opacity:0.97;stroke:none;"/>
</g>
<mask id="mask25">
  <g filter="url(#alpha)">
<use xlink:href="#surface158"/>
  </g>
</mask>
<clipPath id="clip80">
  <rect width="30" height="30"/>
</clipPath>
<g id="surface160" clip-path="url(#clip80)">
<path style="fill-rule:nonzero;fill:rgb(0%,100%,0%);fill-opacity:1;stroke-width:0.8;stroke-linecap:butt;stroke-linejoin:round;stroke:rgb(0%,0%,0%);stroke-opacity:1;stroke-miterlimit:4;" d="M -514.800781 -87.589844 L -495.601562 -87.589844 C -492.941406 -87.589844 -490.800781 -85.449219 -490.800781 -82.789062 L -490.800781 -63.589844 C -490.800781 -60.929688 -492.941406 -58.789062 -495.601562 -58.789062 L -514.800781 -58.789062 C -517.460938 -58.789062 -519.601562 -60.929688 -519.601562 -63.589844 L -519.601562 -82.789062 C -519.601562 -85.449219 -517.460938 -87.589844 -514.800781 -87.589844 Z M -514.800781 -87.589844 " transform="matrix(-1,0,0,-1,-490,-58)"/>
</g>
<clipPath id="clip81">
  <rect width="31" height="31"/>
</clipPath>
<g id="surface164" clip-path="url(#clip81)">
<rect x="0" y="0" width="31" height="31" style="fill:rgb(0%,0%,0%);fill-opacity:0.97;stroke:none;"/>
</g>
<mask id="mask26">
  <g filter="url(#alpha)">
<use xlink:href="#surface164"/>
  </g>
</mask>
<clipPath id="clip82">
  <rect width="31" height="31"/>
</clipPath>
<g id="surface166" clip-path="url(#clip82)">
<path style="fill-rule:nonzero;fill:rgb(0%,100%,0%);fill-opacity:1;stroke-width:0.8;stroke-linecap:butt;stroke-linejoin:round;stroke:rgb(0%,0%,0%);stroke-opacity:1;stroke-miterlimit:4;" d="M -486 -29.988281 L -466.800781 -29.988281 C -464.140625 -29.988281 -462 -27.847656 -462 -25.191406 L -462 -5.988281 C -462 -3.332031 -464.140625 -1.191406 -466.800781 -1.191406 L -486 -1.191406 C -488.660156 -1.191406 -490.800781 -3.332031 -490.800781 -5.988281 L -490.800781 -25.191406 C -490.800781 -27.847656 -488.660156 -29.988281 -486 -29.988281 Z M -486 -29.988281 " transform="matrix(-1,0,0,-1,-461,0)"/>
</g>
<clipPath id="clip83">
  <rect width="31" height="31"/>
</clipPath>
<g id="surface170" clip-path="url(#clip83)">
<rect x="0" y="0" width="31" height="31" style="fill:rgb(0%,0%,0%);fill-opacity:0.97;stroke:none;"/>
</g>
<mask id="mask27">
  <g filter="url(#alpha)">
<use xlink:href="#surface170"/>
  </g>
</mask>
<clipPath id="clip84">
  <rect width="31" height="31"/>
</clipPath>
<g id="surface172" clip-path="url(#clip84)">
<path style="fill-rule:nonzero;fill:rgb(0%,100%,0%);fill-opacity:1;stroke-width:0.8;stroke-linecap:butt;stroke-linejoin:round;stroke:rgb(0%,0%,0%);stroke-opacity:1;stroke-miterlimit:4;" d="M -486 -58.789062 L -466.800781 -58.789062 C -464.140625 -58.789062 -462 -56.648438 -462 -53.988281 L -462 -34.789062 C -462 -32.128906 -464.140625 -29.988281 -466.800781 -29.988281 L -486 -29.988281 C -488.660156 -29.988281 -490.800781 -32.128906 -490.800781 -34.789062 L -490.800781 -53.988281 C -490.800781 -56.648438 -488.660156 -58.789062 -486 -58.789062 Z M -486 -58.789062 " transform="matrix(-1,0,0,-1,-461,-29)"/>
</g>
<clipPath id="clip85">
  <rect width="31" height="30"/>
</clipPath>
<g id="surface176" clip-path="url(#clip85)">
<rect x="0" y="0" width="31" height="30" style="fill:rgb(0%,0%,0%);fill-opacity:0.97;stroke:none;"/>
</g>
<mask id="mask28">
  <g filter="url(#alpha)">
<use xlink:href="#surface176"/>
  </g>
</mask>
<clipPath id="clip86">
  <rect width="31" height="30"/>
</clipPath>
<g id="surface178" clip-path="url(#clip86)">
<path style="fill-rule:nonzero;fill:rgb(0%,100%,0%);fill-opacity:1;stroke-width:0.8;stroke-linecap:butt;stroke-linejoin:round;stroke:rgb(0%,0%,0%);stroke-opacity:1;stroke-miterlimit:4;" d="M -486 -87.589844 L -466.800781 -87.589844 C -464.140625 -87.589844 -462 -85.449219 -462 -82.789062 L -462 -63.589844 C -462 -60.929688 -464.140625 -58.789062 -466.800781 -58.789062 L -486 -58.789062 C -488.660156 -58.789062 -490.800781 -60.929688 -490.800781 -63.589844 L -490.800781 -82.789062 C -490.800781 -85.449219 -488.660156 -87.589844 -486 -87.589844 Z M -486 -87.589844 " transform="matrix(-1,0,0,-1,-461,-58)"/>
</g>
<clipPath id="clip87">
  <path d="M 461 87 L 492 87 L 492 116.800781 L 461 116.800781 Z M 461 87 "/>
</clipPath>
<clipPath id="clip89">
  <path d="M 0 0 L 31 0 L 31 29.800781 L 0 29.800781 Z M 0 0 "/>
</clipPath>
<clipPath id="clip88">
  <rect width="31" height="30"/>
</clipPath>
<g id="surface182" clip-path="url(#clip88)">
<g clip-path="url(#clip89)" clip-rule="nonzero">
<rect x="0" y="0" width="31" height="30" style="fill:rgb(0%,0%,0%);fill-opacity:0.97;stroke:none;"/>
</g>
</g>
<mask id="mask29">
  <g filter="url(#alpha)">
<use xlink:href="#surface182"/>
  </g>
</mask>
<clipPath id="clip91">
  <path d="M 1 0 L 30 0 L 30 29.800781 L 1 29.800781 Z M 1 0 "/>
</clipPath>
<clipPath id="clip92">
  <path d="M 0 0 L 31 0 L 31 29.800781 L 0 29.800781 Z M 0 0 "/>
</clipPath>
<clipPath id="clip90">
  <rect width="31" height="30"/>
</clipPath>
<g id="surface184" clip-path="url(#clip90)">
<g clip-path="url(#clip91)" clip-rule="nonzero">
<path style=" stroke:none;fill-rule:nonzero;fill:rgb(0%,100%,0%);fill-opacity:1;" d="M 25 29.390625 L 5.800781 29.390625 C 3.140625 29.390625 1 27.25 1 24.589844 L 1 5.390625 C 1 2.730469 3.140625 0.589844 5.800781 0.589844 L 25 0.589844 C 27.660156 0.589844 29.800781 2.730469 29.800781 5.390625 L 29.800781 24.589844 C 29.800781 27.25 27.660156 29.390625 25 29.390625 Z M 25 29.390625 "/>
</g>
<g clip-path="url(#clip92)" clip-rule="nonzero">
<path style="fill:none;stroke-width:0.8;stroke-linecap:butt;stroke-linejoin:round;stroke:rgb(0%,0%,0%);stroke-opacity:1;stroke-miterlimit:4;" d="M -486 -116.390625 L -466.800781 -116.390625 C -464.140625 -116.390625 -462 -114.25 -462 -111.589844 L -462 -92.390625 C -462 -89.730469 -464.140625 -87.589844 -466.800781 -87.589844 L -486 -87.589844 C -488.660156 -87.589844 -490.800781 -89.730469 -490.800781 -92.390625 L -490.800781 -111.589844 C -490.800781 -114.25 -488.660156 -116.390625 -486 -116.390625 Z M -486 -116.390625 " transform="matrix(-1,0,0,-1,-461,-87)"/>
</g>
</g>
<clipPath id="clip93">
  <rect width="30" height="31"/>
</clipPath>
<g id="surface188" clip-path="url(#clip93)">
<rect x="0" y="0" width="30" height="31" style="fill:rgb(0%,0%,0%);fill-opacity:0.97;stroke:none;"/>
</g>
<mask id="mask30">
  <g filter="url(#alpha)">
<use xlink:href="#surface188"/>
  </g>
</mask>
<clipPath id="clip94">
  <rect width="30" height="31"/>
</clipPath>
<g id="surface190" clip-path="url(#clip94)">
<path style="fill-rule:nonzero;fill:rgb(0%,100%,100%);fill-opacity:1;stroke-width:0.8;stroke-linecap:butt;stroke-linejoin:round;stroke:rgb(0%,0%,0%);stroke-opacity:1;stroke-miterlimit:4;" d="M 5.199219 29.988281 L 24.398438 29.988281 C 27.058594 29.988281 29.199219 32.128906 29.199219 34.789062 L 29.199219 53.988281 C 29.199219 56.648438 27.058594 58.789062 24.398438 58.789062 L 5.199219 58.789062 C 2.539062 58.789062 0.398438 56.648438 0.398438 53.988281 L 0.398438 34.789062 C 0.398438 32.128906 2.539062 29.988281 5.199219 29.988281 Z M 5.199219 29.988281 " transform="matrix(1,0,0,1,0,-29)"/>
</g>
<clipPath id="clip95">
  <rect width="31" height="31"/>
</clipPath>
<g id="surface194" clip-path="url(#clip95)">
<rect x="0" y="0" width="31" height="31" style="fill:rgb(0%,0%,0%);fill-opacity:0.97;stroke:none;"/>
</g>
<mask id="mask31">
  <g filter="url(#alpha)">
<use xlink:href="#surface194"/>
  </g>
</mask>
<clipPath id="clip96">
  <rect width="31" height="31"/>
</clipPath>
<g id="surface196" clip-path="url(#clip96)">
<path style="fill-rule:nonzero;fill:rgb(0%,100%,100%);fill-opacity:1;stroke-width:0.8;stroke-linecap:butt;stroke-linejoin:round;stroke:rgb(0%,0%,0%);stroke-opacity:1;stroke-miterlimit:4;" d="M 62.800781 29.988281 L 82 29.988281 C 84.660156 29.988281 86.800781 32.128906 86.800781 34.789062 L 86.800781 53.988281 C 86.800781 56.648438 84.660156 58.789062 82 58.789062 L 62.800781 58.789062 C 60.140625 58.789062 58 56.648438 58 53.988281 L 58 34.789062 C 58 32.128906 60.140625 29.988281 62.800781 29.988281 Z M 62.800781 29.988281 " transform="matrix(1,0,0,1,-57,-29)"/>
</g>
<clipPath id="clip97">
  <rect width="31" height="30"/>
</clipPath>
<g id="surface200" clip-path="url(#clip97)">
<rect x="0" y="0" width="31" height="30" style="fill:rgb(0%,0%,0%);fill-opacity:0.97;stroke:none;"/>
</g>
<mask id="mask32">
  <g filter="url(#alpha)">
<use xlink:href="#surface200"/>
  </g>
</mask>
<clipPath id="clip98">
  <rect width="31" height="30"/>
</clipPath>
<g id="surface202" clip-path="url(#clip98)">
<path style="fill-rule:nonzero;fill:rgb(0%,100%,0%);fill-opacity:1;stroke-width:0.8;stroke-linecap:butt;stroke-linejoin:round;stroke:rgb(0%,0%,0%);stroke-opacity:1;stroke-miterlimit:4;" d="M 62.800781 58.789062 L 82 58.789062 C 84.660156 58.789062 86.800781 60.929688 86.800781 63.589844 L 86.800781 82.789062 C 86.800781 85.449219 84.660156 87.589844 82 87.589844 L 62.800781 87.589844 C 60.140625 87.589844 58 85.449219 58 82.789062 L 58 63.589844 C 58 60.929688 60.140625 58.789062 62.800781 58.789062 Z M 62.800781 58.789062 " transform="matrix(1,0,0,1,-57,-58)"/>
</g>
<clipPath id="clip99">
  <rect width="30" height="30"/>
</clipPath>
<g id="surface206" clip-path="url(#clip99)">
<rect x="0" y="0" width="30" height="30" style="fill:rgb(0%,0%,0%);fill-opacity:0.97;stroke:none;"/>
</g>
<mask id="mask33">
  <g filter="url(#alpha)">
<use xlink:href="#surface206"/>
  </g>
</mask>
<clipPath id="clip100">
  <rect width="30" height="30"/>
</clipPath>
<g id="surface208" clip-path="url(#clip100)">
<path style="fill-rule:nonzero;fill:rgb(0%,100%,0%);fill-opacity:1;stroke-width:0.8;stroke-linecap:butt;stroke-linejoin:round;stroke:rgb(0%,0%,0%);stroke-opacity:1;stroke-miterlimit:4;" d="M 91.601562 58.789062 L 110.800781 58.789062 C 113.460938 58.789062 115.601562 60.929688 115.601562 63.589844 L 115.601562 82.789062 C 115.601562 85.449219 113.460938 87.589844 110.800781 87.589844 L 91.601562 87.589844 C 88.941406 87.589844 86.800781 85.449219 86.800781 82.789062 L 86.800781 63.589844 C 86.800781 60.929688 88.941406 58.789062 91.601562 58.789062 Z M 91.601562 58.789062 " transform="matrix(1,0,0,1,-86,-58)"/>
</g>
<clipPath id="clip101">
  <rect width="30" height="31"/>
</clipPath>
<g id="surface212" clip-path="url(#clip101)">
<rect x="0" y="0" width="30" height="31" style="fill:rgb(0%,0%,0%);fill-opacity:0.97;stroke:none;"/>
</g>
<mask id="mask34">
  <g filter="url(#alpha)">
<use xlink:href="#surface212"/>
  </g>
</mask>
<clipPath id="clip102">
  <rect width="30" height="31"/>
</clipPath>
<g id="surface214" clip-path="url(#clip102)">
<path style="fill-rule:nonzero;fill:rgb(0%,100%,0%);fill-opacity:1;stroke-width:0.8;stroke-linecap:butt;stroke-linejoin:round;stroke:rgb(0%,0%,0%);stroke-opacity:1;stroke-miterlimit:4;" d="M 91.601562 29.988281 L 110.800781 29.988281 C 113.460938 29.988281 115.601562 32.128906 115.601562 34.789062 L 115.601562 53.988281 C 115.601562 56.648438 113.460938 58.789062 110.800781 58.789062 L 91.601562 58.789062 C 88.941406 58.789062 86.800781 56.648438 86.800781 53.988281 L 86.800781 34.789062 C 86.800781 32.128906 88.941406 29.988281 91.601562 29.988281 Z M 91.601562 29.988281 " transform="matrix(1,0,0,1,-86,-29)"/>
</g>
<clipPath id="clip103">
  <rect width="30" height="31"/>
</clipPath>
<g id="surface218" clip-path="url(#clip103)">
<rect x="0" y="0" width="30" height="31" style="fill:rgb(0%,0%,0%);fill-opacity:0.97;stroke:none;"/>
</g>
<mask id="mask35">
  <g filter="url(#alpha)">
<use xlink:href="#surface218"/>
  </g>
</mask>
<clipPath id="clip104">
  <rect width="30" height="31"/>
</clipPath>
<g id="surface220" clip-path="url(#clip104)">
<path style="fill-rule:nonzero;fill:rgb(0%,100%,100%);fill-opacity:1;stroke-width:0.8;stroke-linecap:butt;stroke-linejoin:round;stroke:rgb(0%,0%,0%);stroke-opacity:1;stroke-miterlimit:4;" d="M 149.199219 29.988281 L 168.398438 29.988281 C 171.058594 29.988281 173.199219 32.128906 173.199219 34.789062 L 173.199219 53.988281 C 173.199219 56.648438 171.058594 58.789062 168.398438 58.789062 L 149.199219 58.789062 C 146.539062 58.789062 144.398438 56.648438 144.398438 53.988281 L 144.398438 34.789062 C 144.398438 32.128906 146.539062 29.988281 149.199219 29.988281 Z M 149.199219 29.988281 " transform="matrix(1,0,0,1,-144,-29)"/>
</g>
<clipPath id="clip105">
  <rect width="30" height="30"/>
</clipPath>
<g id="surface224" clip-path="url(#clip105)">
<rect x="0" y="0" width="30" height="30" style="fill:rgb(0%,0%,0%);fill-opacity:0.97;stroke:none;"/>
</g>
<mask id="mask36">
  <g filter="url(#alpha)">
<use xlink:href="#surface224"/>
  </g>
</mask>
<clipPath id="clip106">
  <rect width="30" height="30"/>
</clipPath>
<g id="surface226" clip-path="url(#clip106)">
<path style="fill-rule:nonzero;fill:rgb(0%,100%,0%);fill-opacity:1;stroke-width:0.8;stroke-linecap:butt;stroke-linejoin:round;stroke:rgb(0%,0%,0%);stroke-opacity:1;stroke-miterlimit:4;" d="M 149.199219 58.789062 L 168.398438 58.789062 C 171.058594 58.789062 173.199219 60.929688 173.199219 63.589844 L 173.199219 82.789062 C 173.199219 85.449219 171.058594 87.589844 168.398438 87.589844 L 149.199219 87.589844 C 146.539062 87.589844 144.398438 85.449219 144.398438 82.789062 L 144.398438 63.589844 C 144.398438 60.929688 146.539062 58.789062 149.199219 58.789062 Z M 149.199219 58.789062 " transform="matrix(1,0,0,1,-144,-58)"/>
</g>
<clipPath id="clip107">
  <rect width="31" height="30"/>
</clipPath>
<g id="surface230" clip-path="url(#clip107)">
<rect x="0" y="0" width="31" height="30" style="fill:rgb(0%,0%,0%);fill-opacity:0.97;stroke:none;"/>
</g>
<mask id="mask37">
  <g filter="url(#alpha)">
<use xlink:href="#surface230"/>
  </g>
</mask>
<clipPath id="clip108">
  <rect width="31" height="30"/>
</clipPath>
<g id="surface232" clip-path="url(#clip108)">
<path style="fill-rule:nonzero;fill:rgb(0%,100%,0%);fill-opacity:1;stroke-width:0.8;stroke-linecap:butt;stroke-linejoin:round;stroke:rgb(0%,0%,0%);stroke-opacity:1;stroke-miterlimit:4;" d="M 178 58.789062 L 197.199219 58.789062 C 199.859375 58.789062 202 60.929688 202 63.589844 L 202 82.789062 C 202 85.449219 199.859375 87.589844 197.199219 87.589844 L 178 87.589844 C 175.339844 87.589844 173.199219 85.449219 173.199219 82.789062 L 173.199219 63.589844 C 173.199219 60.929688 175.339844 58.789062 178 58.789062 Z M 178 58.789062 " transform="matrix(1,0,0,1,-172,-58)"/>
</g>
<clipPath id="clip109">
  <rect width="31" height="31"/>
</clipPath>
<g id="surface236" clip-path="url(#clip109)">
<rect x="0" y="0" width="31" height="31" style="fill:rgb(0%,0%,0%);fill-opacity:0.97;stroke:none;"/>
</g>
<mask id="mask38">
  <g filter="url(#alpha)">
<use xlink:href="#surface236"/>
  </g>
</mask>
<clipPath id="clip110">
  <rect width="31" height="31"/>
</clipPath>
<g id="surface238" clip-path="url(#clip110)">
<path style="fill-rule:nonzero;fill:rgb(0%,100%,0%);fill-opacity:1;stroke-width:0.8;stroke-linecap:butt;stroke-linejoin:round;stroke:rgb(0%,0%,0%);stroke-opacity:1;stroke-miterlimit:4;" d="M 178 29.988281 L 197.199219 29.988281 C 199.859375 29.988281 202 32.128906 202 34.789062 L 202 53.988281 C 202 56.648438 199.859375 58.789062 197.199219 58.789062 L 178 58.789062 C 175.339844 58.789062 173.199219 56.648438 173.199219 53.988281 L 173.199219 34.789062 C 173.199219 32.128906 175.339844 29.988281 178 29.988281 Z M 178 29.988281 " transform="matrix(1,0,0,1,-172,-29)"/>
</g>
<clipPath id="clip111">
  <path d="M 144 87 L 174 87 L 174 116.800781 L 144 116.800781 Z M 144 87 "/>
</clipPath>
<clipPath id="clip113">
  <path d="M 0 0 L 30 0 L 30 29.800781 L 0 29.800781 Z M 0 0 "/>
</clipPath>
<clipPath id="clip112">
  <rect width="30" height="30"/>
</clipPath>
<g id="surface242" clip-path="url(#clip112)">
<g clip-path="url(#clip113)" clip-rule="nonzero">
<rect x="0" y="0" width="30" height="30" style="fill:rgb(0%,0%,0%);fill-opacity:0.97;stroke:none;"/>
</g>
</g>
<mask id="mask39">
  <g filter="url(#alpha)">
<use xlink:href="#surface242"/>
  </g>
</mask>
<clipPath id="clip115">
  <path d="M 0 0 L 30 0 L 30 29.800781 L 0 29.800781 Z M 0 0 "/>
</clipPath>
<clipPath id="clip114">
  <rect width="30" height="30"/>
</clipPath>
<g id="surface244" clip-path="url(#clip114)">
<g clip-path="url(#clip115)" clip-rule="nonzero">
<path style="fill-rule:nonzero;fill:rgb(100%,0%,100%);fill-opacity:1;stroke-width:0.8;stroke-linecap:butt;stroke-linejoin:round;stroke:rgb(0%,0%,0%);stroke-opacity:1;stroke-miterlimit:4;" d="M 149.199219 87.589844 L 168.398438 87.589844 C 171.058594 87.589844 173.199219 89.730469 173.199219 92.390625 L 173.199219 111.589844 C 173.199219 114.25 171.058594 116.390625 168.398438 116.390625 L 149.199219 116.390625 C 146.539062 116.390625 144.398438 114.25 144.398438 111.589844 L 144.398438 92.390625 C 144.398438 89.730469 146.539062 87.589844 149.199219 87.589844 Z M 149.199219 87.589844 " transform="matrix(1,0,0,1,-144,-87)"/>
</g>
</g>
<clipPath id="clip116">
  <path d="M 172 87 L 203 87 L 203 116.800781 L 172 116.800781 Z M 172 87 "/>
</clipPath>
<clipPath id="clip118">
  <path d="M 0 0 L 31 0 L 31 29.800781 L 0 29.800781 Z M 0 0 "/>
</clipPath>
<clipPath id="clip117">
  <rect width="31" height="30"/>
</clipPath>
<g id="surface248" clip-path="url(#clip117)">
<g clip-path="url(#clip118)" clip-rule="nonzero">
<rect x="0" y="0" width="31" height="30" style="fill:rgb(0%,0%,0%);fill-opacity:0.97;stroke:none;"/>
</g>
</g>
<mask id="mask40">
  <g filter="url(#alpha)">
<use xlink:href="#surface248"/>
  </g>
</mask>
<clipPath id="clip120">
  <path d="M 1 0 L 30 0 L 30 29.800781 L 1 29.800781 Z M 1 0 "/>
</clipPath>
<clipPath id="clip121">
  <path d="M 0 0 L 31 0 L 31 29.800781 L 0 29.800781 Z M 0 0 "/>
</clipPath>
<clipPath id="clip119">
  <rect width="31" height="30"/>
</clipPath>
<g id="surface250" clip-path="url(#clip119)">
<g clip-path="url(#clip120)" clip-rule="nonzero">
<path style=" stroke:none;fill-rule:nonzero;fill:rgb(100%,0%,100%);fill-opacity:1;" d="M 6 0.589844 L 25.199219 0.589844 C 27.859375 0.589844 30 2.730469 30 5.390625 L 30 24.589844 C 30 27.25 27.859375 29.390625 25.199219 29.390625 L 6 29.390625 C 3.339844 29.390625 1.199219 27.25 1.199219 24.589844 L 1.199219 5.390625 C 1.199219 2.730469 3.339844 0.589844 6 0.589844 Z M 6 0.589844 "/>
</g>
<g clip-path="url(#clip121)" clip-rule="nonzero">
<path style="fill:none;stroke-width:0.8;stroke-linecap:butt;stroke-linejoin:round;stroke:rgb(0%,0%,0%);stroke-opacity:1;stroke-miterlimit:4;" d="M 178 87.589844 L 197.199219 87.589844 C 199.859375 87.589844 202 89.730469 202 92.390625 L 202 111.589844 C 202 114.25 199.859375 116.390625 197.199219 116.390625 L 178 116.390625 C 175.339844 116.390625 173.199219 114.25 173.199219 111.589844 L 173.199219 92.390625 C 173.199219 89.730469 175.339844 87.589844 178 87.589844 Z M 178 87.589844 " transform="matrix(1,0,0,1,-172,-87)"/>
</g>
</g>
<clipPath id="clip122">
  <path d="M 201 87 L 232 87 L 232 116.800781 L 201 116.800781 Z M 201 87 "/>
</clipPath>
<clipPath id="clip124">
  <path d="M 0 0 L 31 0 L 31 29.800781 L 0 29.800781 Z M 0 0 "/>
</clipPath>
<clipPath id="clip123">
  <rect width="31" height="30"/>
</clipPath>
<g id="surface254" clip-path="url(#clip123)">
<g clip-path="url(#clip124)" clip-rule="nonzero">
<rect x="0" y="0" width="31" height="30" style="fill:rgb(0%,0%,0%);fill-opacity:0.97;stroke:none;"/>
</g>
</g>
<mask id="mask41">
  <g filter="url(#alpha)">
<use xlink:href="#surface254"/>
  </g>
</mask>
<clipPath id="clip126">
  <path d="M 1 0 L 30 0 L 30 29.800781 L 1 29.800781 Z M 1 0 "/>
</clipPath>
<clipPath id="clip127">
  <path d="M 0 0 L 31 0 L 31 29.800781 L 0 29.800781 Z M 0 0 "/>
</clipPath>
<clipPath id="clip125">
  <rect width="31" height="30"/>
</clipPath>
<g id="surface256" clip-path="url(#clip125)">
<g clip-path="url(#clip126)" clip-rule="nonzero">
<path style=" stroke:none;fill-rule:nonzero;fill:rgb(100%,0%,100%);fill-opacity:1;" d="M 5.800781 0.589844 L 25 0.589844 C 27.660156 0.589844 29.800781 2.730469 29.800781 5.390625 L 29.800781 24.589844 C 29.800781 27.25 27.660156 29.390625 25 29.390625 L 5.800781 29.390625 C 3.140625 29.390625 1 27.25 1 24.589844 L 1 5.390625 C 1 2.730469 3.140625 0.589844 5.800781 0.589844 Z M 5.800781 0.589844 "/>
</g>
<g clip-path="url(#clip127)" clip-rule="nonzero">
<path style="fill:none;stroke-width:0.8;stroke-linecap:butt;stroke-linejoin:round;stroke:rgb(0%,0%,0%);stroke-opacity:1;stroke-miterlimit:4;" d="M 206.800781 87.589844 L 226 87.589844 C 228.660156 87.589844 230.800781 89.730469 230.800781 92.390625 L 230.800781 111.589844 C 230.800781 114.25 228.660156 116.390625 226 116.390625 L 206.800781 116.390625 C 204.140625 116.390625 202 114.25 202 111.589844 L 202 92.390625 C 202 89.730469 204.140625 87.589844 206.800781 87.589844 Z M 206.800781 87.589844 " transform="matrix(1,0,0,1,-201,-87)"/>
</g>
</g>
<clipPath id="clip128">
  <rect width="31" height="30"/>
</clipPath>
<g id="surface260" clip-path="url(#clip128)">
<rect x="0" y="0" width="31" height="30" style="fill:rgb(0%,0%,0%);fill-opacity:0.97;stroke:none;"/>
</g>
<mask id="mask42">
  <g filter="url(#alpha)">
<use xlink:href="#surface260"/>
  </g>
</mask>
<clipPath id="clip129">
  <rect width="31" height="30"/>
</clipPath>
<g id="surface262" clip-path="url(#clip129)">
<path style="fill-rule:nonzero;fill:rgb(100%,0%,100%);fill-opacity:1;stroke-width:0.8;stroke-linecap:butt;stroke-linejoin:round;stroke:rgb(0%,0%,0%);stroke-opacity:1;stroke-miterlimit:4;" d="M 206.800781 58.789062 L 226 58.789062 C 228.660156 58.789062 230.800781 60.929688 230.800781 63.589844 L 230.800781 82.789062 C 230.800781 85.449219 228.660156 87.589844 226 87.589844 L 206.800781 87.589844 C 204.140625 87.589844 202 85.449219 202 82.789062 L 202 63.589844 C 202 60.929688 204.140625 58.789062 206.800781 58.789062 Z M 206.800781 58.789062 " transform="matrix(1,0,0,1,-201,-58)"/>
</g>
<clipPath id="clip130">
  <rect width="31" height="31"/>
</clipPath>
<g id="surface266" clip-path="url(#clip130)">
<rect x="0" y="0" width="31" height="31" style="fill:rgb(0%,0%,0%);fill-opacity:0.97;stroke:none;"/>
</g>
<mask id="mask43">
  <g filter="url(#alpha)">
<use xlink:href="#surface266"/>
  </g>
</mask>
<clipPath id="clip131">
  <rect width="31" height="31"/>
</clipPath>
<g id="surface263" clip-path="url(#clip131)">
<path style="fill-rule:nonzero;fill:rgb(100%,0%,100%);fill-opacity:1;stroke-width:0.8;stroke-linecap:butt;stroke-linejoin:round;stroke:rgb(0%,0%,0%);stroke-opacity:1;stroke-miterlimit:4;" d="M 206.800781 29.988281 L 226 29.988281 C 228.660156 29.988281 230.800781 32.128906 230.800781 34.789062 L 230.800781 53.988281 C 230.800781 56.648438 228.660156 58.789062 226 58.789062 L 206.800781 58.789062 C 204.140625 58.789062 202 56.648438 202 53.988281 L 202 34.789062 C 202 32.128906 204.140625 29.988281 206.800781 29.988281 Z M 206.800781 29.988281 " transform="matrix(1,0,0,1,-201,-29)"/>
</g>
</defs>
<g id="surface1">
<g clip-path="url(#clip1)" clip-rule="nonzero">
<use xlink:href="#surface10" transform="matrix(1,0,0,1,288,87)" mask="url(#mask0)"/>
</g>
<g clip-path="url(#clip6)" clip-rule="nonzero">
<use xlink:href="#surface16" transform="matrix(1,0,0,1,316,87)" mask="url(#mask1)"/>
</g>
<use xlink:href="#surface22" transform="matrix(1,0,0,1,316,58)" mask="url(#mask2)"/>
<g clip-path="url(#clip14)" clip-rule="nonzero">
<use xlink:href="#surface28" transform="matrix(1,0,0,1,345,87)" mask="url(#mask3)"/>
</g>
<use xlink:href="#surface34" transform="matrix(1,0,0,1,345,58)" mask="url(#mask4)"/>
<use xlink:href="#surface40" transform="matrix(1,0,0,1,345,29)" mask="url(#mask5)"/>
<g clip-path="url(#clip24)" clip-rule="nonzero">
<use xlink:href="#surface46" transform="matrix(1,0,0,1,374,87)" mask="url(#mask6)"/>
</g>
<use xlink:href="#surface52" transform="matrix(1,0,0,1,374,58)" mask="url(#mask7)"/>
<use xlink:href="#surface58" transform="matrix(1,0,0,1,374,29)" mask="url(#mask8)"/>
<use xlink:href="#surface64" transform="matrix(1,0,0,1,374,0)" mask="url(#mask9)"/>
<use xlink:href="#surface70" transform="matrix(1,0,0,1,489,86)" mask="url(#mask10)"/>
<use xlink:href="#surface76" transform="matrix(1,0,0,1,518,86)" mask="url(#mask11)"/>
<use xlink:href="#surface82" transform="matrix(1,0,0,1,518,57)" mask="url(#mask12)"/>
<use xlink:href="#surface88" transform="matrix(1,0,0,1,547,86)" mask="url(#mask13)"/>
<use xlink:href="#surface94" transform="matrix(1,0,0,1,547,57)" mask="url(#mask14)"/>
<use xlink:href="#surface100" transform="matrix(1,0,0,1,547,28)" mask="url(#mask15)"/>
<g clip-path="url(#clip47)" clip-rule="nonzero">
<use xlink:href="#surface106" transform="matrix(1,0,0,1,576,86)" mask="url(#mask16)"/>
</g>
<g clip-path="url(#clip52)" clip-rule="nonzero">
<use xlink:href="#surface112" transform="matrix(1,0,0,1,576,57)" mask="url(#mask17)"/>
</g>
<g clip-path="url(#clip58)" clip-rule="nonzero">
<use xlink:href="#surface118" transform="matrix(1,0,0,1,576,28)" mask="url(#mask18)"/>
</g>
<g clip-path="url(#clip64)" clip-rule="nonzero">
<use xlink:href="#surface124" transform="matrix(1,0,0,1,576,0)" mask="url(#mask19)"/>
</g>
<use xlink:href="#surface130" transform="matrix(1,0,0,1,548,0)" mask="url(#mask20)"/>
<use xlink:href="#surface136" transform="matrix(1,0,0,1,519,0)" mask="url(#mask21)"/>
<use xlink:href="#surface142" transform="matrix(1,0,0,1,519,29)" mask="url(#mask22)"/>
<use xlink:href="#surface148" transform="matrix(1,0,0,1,490,0)" mask="url(#mask23)"/>
<use xlink:href="#surface154" transform="matrix(1,0,0,1,490,29)" mask="url(#mask24)"/>
<use xlink:href="#surface160" transform="matrix(1,0,0,1,490,58)" mask="url(#mask25)"/>
<use xlink:href="#surface166" transform="matrix(1,0,0,1,461,0)" mask="url(#mask26)"/>
<use xlink:href="#surface172" transform="matrix(1,0,0,1,461,29)" mask="url(#mask27)"/>
<use xlink:href="#surface178" transform="matrix(1,0,0,1,461,58)" mask="url(#mask28)"/>
<g clip-path="url(#clip87)" clip-rule="nonzero">
<use xlink:href="#surface184" transform="matrix(1,0,0,1,461,87)" mask="url(#mask29)"/>
</g>
<path style=" stroke:none;fill-rule:nonzero;fill:rgb(0%,0%,0%);fill-opacity:1;" d="M 426.851562 58.570312 C 427.101562 58.570312 427.398438 58.570312 427.398438 58.269531 C 427.398438 57.945312 427.101562 57.945312 426.875 57.945312 L 417.324219 57.945312 C 417.101562 57.945312 416.800781 57.945312 416.800781 58.269531 C 416.800781 58.570312 417.101562 58.570312 417.324219 58.570312 Z M 426.875 61.671875 C 427.101562 61.671875 427.398438 61.671875 427.398438 61.347656 C 427.398438 61.046875 427.101562 61.046875 426.851562 61.046875 L 417.324219 61.046875 C 417.101562 61.046875 416.800781 61.046875 416.800781 61.347656 C 416.800781 61.671875 417.101562 61.671875 417.324219 61.671875 Z M 426.875 61.671875 "/>
<path style=" stroke:none;fill-rule:nonzero;fill:rgb(0%,0%,0%);fill-opacity:1;" d="M 439.339844 42.8125 C 439.339844 42.410156 439.339844 42.386719 438.964844 42.386719 C 437.964844 43.410156 436.5625 43.410156 436.0625 43.410156 L 436.0625 43.910156 C 436.390625 43.910156 437.3125 43.910156 438.140625 43.488281 L 438.140625 51.761719 C 438.140625 52.335938 438.089844 52.511719 436.664062 52.511719 L 436.164062 52.511719 L 436.164062 53.011719 C 436.714844 52.960938 438.089844 52.960938 438.738281 52.960938 C 439.363281 52.960938 440.765625 52.960938 441.3125 53.011719 L 441.3125 52.511719 L 440.8125 52.511719 C 439.363281 52.511719 439.339844 52.335938 439.339844 51.761719 Z M 439.339844 42.8125 "/>
<path style="fill:none;stroke-width:0.6368;stroke-linecap:butt;stroke-linejoin:miter;stroke:rgb(0%,0%,0%);stroke-opacity:1;stroke-miterlimit:10;" d="M 434.640625 -59.8125 L 442.609375 -59.8125 " transform="matrix(1,0,0,-1,0,0)"/>
<path style=" stroke:none;fill-rule:nonzero;fill:rgb(0%,0%,0%);fill-opacity:1;" d="M 436.664062 73.503906 L 438.363281 71.855469 C 440.839844 69.65625 441.789062 68.804688 441.789062 67.207031 C 441.789062 65.378906 440.363281 64.105469 438.414062 64.105469 C 436.613281 64.105469 435.4375 65.582031 435.4375 67.003906 C 435.4375 67.878906 436.238281 67.878906 436.289062 67.878906 C 436.5625 67.878906 437.113281 67.707031 437.113281 67.03125 C 437.113281 66.628906 436.8125 66.207031 436.265625 66.207031 C 436.140625 66.207031 436.113281 66.207031 436.0625 66.230469 C 436.414062 65.179688 437.289062 64.605469 438.214844 64.605469 C 439.664062 64.605469 440.339844 65.90625 440.339844 67.207031 C 440.339844 68.480469 439.5625 69.730469 438.664062 70.730469 L 435.613281 74.128906 C 435.4375 74.304688 435.4375 74.355469 435.4375 74.730469 L 441.363281 74.730469 L 441.789062 71.957031 L 441.414062 71.957031 C 441.3125 72.429688 441.214844 73.128906 441.039062 73.378906 C 440.9375 73.503906 439.890625 73.503906 439.539062 73.503906 Z M 436.664062 73.503906 "/>
<path style=" stroke:none;fill-rule:nonzero;fill:rgb(0%,0%,0%);fill-opacity:1;" d="M 450.722656 59.371094 L 447.546875 56.195312 C 447.347656 55.996094 447.324219 55.972656 447.199219 55.972656 C 447.023438 55.972656 446.871094 56.097656 446.871094 56.296875 C 446.871094 56.394531 446.898438 56.421875 447.074219 56.597656 L 450.273438 59.796875 L 447.074219 63.019531 C 446.898438 63.195312 446.871094 63.222656 446.871094 63.320312 C 446.871094 63.519531 447.023438 63.644531 447.199219 63.644531 C 447.324219 63.644531 447.347656 63.621094 447.546875 63.421875 L 450.722656 60.246094 L 454.023438 63.546875 C 454.046875 63.570312 454.148438 63.644531 454.246094 63.644531 C 454.449219 63.644531 454.574219 63.519531 454.574219 63.320312 C 454.574219 63.296875 454.574219 63.246094 454.523438 63.144531 C 454.496094 63.121094 451.972656 60.621094 451.171875 59.796875 L 454.097656 56.894531 C 454.171875 56.796875 454.421875 56.597656 454.496094 56.496094 C 454.496094 56.472656 454.574219 56.394531 454.574219 56.296875 C 454.574219 56.097656 454.449219 55.972656 454.246094 55.972656 C 454.121094 55.972656 454.074219 56.019531 453.898438 56.195312 Z M 450.722656 59.371094 "/>
<use xlink:href="#surface190" transform="matrix(1,0,0,1,0,29)" mask="url(#mask30)"/>
<use xlink:href="#surface196" transform="matrix(1,0,0,1,57,29)" mask="url(#mask31)"/>
<use xlink:href="#surface202" transform="matrix(1,0,0,1,57,58)" mask="url(#mask32)"/>
<use xlink:href="#surface208" transform="matrix(1,0,0,1,86,58)" mask="url(#mask33)"/>
<use xlink:href="#surface214" transform="matrix(1,0,0,1,86,29)" mask="url(#mask34)"/>
<use xlink:href="#surface220" transform="matrix(1,0,0,1,144,29)" mask="url(#mask35)"/>
<use xlink:href="#surface226" transform="matrix(1,0,0,1,144,58)" mask="url(#mask36)"/>
<use xlink:href="#surface232" transform="matrix(1,0,0,1,172,58)" mask="url(#mask37)"/>
<use xlink:href="#surface238" transform="matrix(1,0,0,1,172,29)" mask="url(#mask38)"/>
<g clip-path="url(#clip111)" clip-rule="nonzero">
<use xlink:href="#surface244" transform="matrix(1,0,0,1,144,87)" mask="url(#mask39)"/>
</g>
<g clip-path="url(#clip116)" clip-rule="nonzero">
<use xlink:href="#surface250" transform="matrix(1,0,0,1,172,87)" mask="url(#mask40)"/>
</g>
<g clip-path="url(#clip122)" clip-rule="nonzero">
<use xlink:href="#surface256" transform="matrix(1,0,0,1,201,87)" mask="url(#mask41)"/>
</g>
<use xlink:href="#surface262" transform="matrix(1,0,0,1,201,58)" mask="url(#mask42)"/>
<use xlink:href="#surface263" transform="matrix(1,0,0,1,201,29)" mask="url(#mask43)"/>
</g>
</svg>
