<?xml version="1.0" encoding="UTF-8"?>
<svg xmlns="http://www.w3.org/2000/svg" xmlns:xlink="http://www.w3.org/1999/xlink" width="272.204346pt" height="96.833954pt" viewBox="0 0 272.204346 96.833954" version="1.1">
<defs>
<clipPath id="clip1">
  <path d="M 75 0 L 76 0 L 76 96.832031 L 75 96.832031 Z M 75 0 "/>
</clipPath>
<filter id="alpha" filterUnits="objectBoundingBox" x="0%" y="0%" width="100%" height="100%">
  <feColorMatrix type="matrix" in="SourceGraphic" values="0 0 0 0 1 0 0 0 0 1 0 0 0 0 1 0 0 0 1 0"/>
</filter>
<clipPath id="clip2">
  <rect width="65" height="57"/>
</clipPath>
<g id="surface8" clip-path="url(#clip2)">
<rect x="0" y="0" width="65" height="57" style="fill:rgb(0%,0%,0%);fill-opacity:0.8;stroke:none;"/>
</g>
<mask id="mask0">
  <g filter="url(#alpha)">
<use xlink:href="#surface8"/>
  </g>
</mask>
<clipPath id="clip3">
  <rect width="65" height="57"/>
</clipPath>
<g id="surface10" clip-path="url(#clip3)">
<path style=" stroke:none;fill-rule:nonzero;fill:rgb(100%,100%,100%);fill-opacity:1;" d="M 16.441406 20.417969 L 0.441406 20.417969 L 64.441406 0.417969 L 64.441406 56.417969 L 0.441406 36.417969 L 16.441406 36.417969 Z M 16.441406 20.417969 "/>
</g>
<clipPath id="clip4">
  <rect width="65" height="57"/>
</clipPath>
<g id="surface14" clip-path="url(#clip4)">
<rect x="0" y="0" width="65" height="57" style="fill:rgb(0%,0%,0%);fill-opacity:0.8;stroke:none;"/>
</g>
<mask id="mask1">
  <g filter="url(#alpha)">
<use xlink:href="#surface14"/>
  </g>
</mask>
<clipPath id="clip5">
  <rect width="65" height="57"/>
</clipPath>
<g id="surface11" clip-path="url(#clip5)">
<path style=" stroke:none;fill-rule:nonzero;fill:rgb(100%,100%,100%);fill-opacity:1;" d="M 16.375 20.394531 L 0.375 20.394531 L 64.375 0.394531 L 64.375 56.394531 L 0.375 36.394531 L 16.375 36.394531 Z M 16.375 20.394531 "/>
</g>
<clipPath id="clip6">
  <path d="M 162 51 L 272.203125 51 L 272.203125 81 L 162 81 Z M 162 51 "/>
</clipPath>
<clipPath id="clip7">
  <path d="M 162 15 L 272.203125 15 L 272.203125 45 L 162 45 Z M 162 15 "/>
</clipPath>
<clipPath id="clip8">
  <path d="M 206 12 L 272.203125 12 L 272.203125 84 L 206 84 Z M 206 12 "/>
</clipPath>
<clipPath id="clip9">
  <path d="M 214 19 L 272.203125 19 L 272.203125 78 L 214 78 Z M 214 19 "/>
</clipPath>
</defs>
<g id="surface1">
<g clip-path="url(#clip1)" clip-rule="nonzero">
<path style="fill:none;stroke-width:0.8;stroke-linecap:round;stroke-linejoin:round;stroke:rgb(100%,0%,0%);stroke-opacity:1;stroke-miterlimit:4;" d="M 75.441406 0.417969 L 75.441406 96.417969 "/>
</g>
<path style="fill:none;stroke-width:0.8;stroke-linecap:round;stroke-linejoin:round;stroke:rgb(100%,0%,0%);stroke-opacity:1;stroke-miterlimit:4;" d="M 27.441406 48.417969 L 123.441406 48.417969 "/>
<path style=" stroke:none;fill-rule:nonzero;fill:rgb(0%,0%,0%);fill-opacity:1;" d="M 82.34375 3.0625 C 82.398438 2.894531 82.398438 2.875 82.398438 2.78125 C 82.398438 2.574219 82.230469 2.460938 82.042969 2.460938 C 81.929688 2.460938 81.742188 2.535156 81.632812 2.707031 C 81.613281 2.78125 81.5 3.136719 81.460938 3.363281 C 81.367188 3.660156 81.292969 4 81.21875 4.316406 L 80.675781 6.472656 C 80.636719 6.644531 80.113281 7.488281 79.324219 7.488281 C 78.726562 7.488281 78.59375 6.960938 78.59375 6.511719 C 78.59375 5.96875 78.800781 5.21875 79.195312 4.167969 C 79.382812 3.679688 79.4375 3.550781 79.4375 3.304688 C 79.4375 2.78125 79.0625 2.332031 78.460938 2.332031 C 77.320312 2.332031 76.886719 4.074219 76.886719 4.167969 C 76.886719 4.300781 77 4.300781 77.019531 4.300781 C 77.148438 4.300781 77.148438 4.261719 77.207031 4.074219 C 77.542969 2.949219 78.011719 2.59375 78.425781 2.59375 C 78.519531 2.59375 78.726562 2.59375 78.726562 2.96875 C 78.726562 3.269531 78.59375 3.585938 78.519531 3.8125 C 78.03125 5.085938 77.824219 5.761719 77.824219 6.324219 C 77.824219 7.394531 78.574219 7.75 79.289062 7.75 C 79.757812 7.75 80.148438 7.542969 80.488281 7.207031 C 80.335938 7.824219 80.1875 8.425781 79.71875 9.0625 C 79.398438 9.457031 78.949219 9.8125 78.40625 9.8125 C 78.238281 9.8125 77.695312 9.773438 77.488281 9.304688 C 77.675781 9.304688 77.84375 9.304688 77.992188 9.15625 C 78.125 9.0625 78.238281 8.894531 78.238281 8.667969 C 78.238281 8.292969 77.917969 8.253906 77.804688 8.253906 C 77.523438 8.253906 77.132812 8.441406 77.132812 9.023438 C 77.132812 9.625 77.65625 10.074219 78.40625 10.074219 C 79.625 10.074219 80.863281 8.988281 81.199219 7.636719 Z M 82.34375 3.0625 "/>
<path style=" stroke:none;fill-rule:nonzero;fill:rgb(0%,0%,0%);fill-opacity:1;" d="M 120.710938 53.25 C 120.789062 52.953125 121.070312 51.84375 121.894531 51.84375 C 121.949219 51.84375 122.25 51.84375 122.492188 51.996094 C 122.15625 52.070312 121.929688 52.351562 121.929688 52.652344 C 121.929688 52.839844 122.0625 53.0625 122.382812 53.0625 C 122.644531 53.0625 123.019531 52.859375 123.019531 52.371094 C 123.019531 51.75 122.324219 51.582031 121.914062 51.582031 C 121.21875 51.582031 120.804688 52.21875 120.65625 52.484375 C 120.355469 51.695312 119.71875 51.582031 119.363281 51.582031 C 118.125 51.582031 117.429688 53.121094 117.429688 53.421875 C 117.429688 53.550781 117.5625 53.550781 117.582031 53.550781 C 117.675781 53.550781 117.710938 53.515625 117.730469 53.421875 C 118.144531 52.144531 118.929688 51.84375 119.34375 51.84375 C 119.570312 51.84375 119.980469 51.957031 119.980469 52.652344 C 119.980469 53.027344 119.773438 53.8125 119.34375 55.5 C 119.15625 56.234375 118.726562 56.738281 118.199219 56.738281 C 118.125 56.738281 117.863281 56.738281 117.601562 56.589844 C 117.898438 56.515625 118.164062 56.269531 118.164062 55.933594 C 118.164062 55.613281 117.898438 55.519531 117.730469 55.519531 C 117.355469 55.519531 117.074219 55.820312 117.074219 56.214844 C 117.074219 56.757812 117.65625 57 118.179688 57 C 118.988281 57 119.417969 56.15625 119.4375 56.101562 C 119.585938 56.53125 120.019531 57 120.730469 57 C 121.96875 57 122.644531 55.464844 122.644531 55.164062 C 122.644531 55.03125 122.550781 55.03125 122.511719 55.03125 C 122.398438 55.03125 122.382812 55.089844 122.34375 55.164062 C 121.949219 56.457031 121.144531 56.738281 120.769531 56.738281 C 120.300781 56.738281 120.113281 56.363281 120.113281 55.953125 C 120.113281 55.6875 120.167969 55.425781 120.300781 54.902344 Z M 120.710938 53.25 "/>
<path style="fill:none;stroke-width:1.6;stroke-linecap:round;stroke-linejoin:round;stroke:rgb(0%,0%,50.195312%);stroke-opacity:1;stroke-miterlimit:4;" d="M 47.328125 80.597656 L 103.953125 16.097656 "/>
<path style=" stroke:none;fill-rule:nonzero;fill:rgb(0%,0%,0%);fill-opacity:1;" d="M 5.457031 62.550781 C 5.511719 62.378906 5.511719 62.363281 5.511719 62.269531 C 5.511719 62.0625 5.34375 61.949219 5.15625 61.949219 C 5.042969 61.949219 4.855469 62.023438 4.742188 62.191406 C 4.726562 62.269531 4.613281 62.625 4.574219 62.847656 C 4.480469 63.148438 4.40625 63.488281 4.332031 63.804688 L 3.789062 65.960938 C 3.75 66.128906 3.226562 66.972656 2.4375 66.972656 C 1.835938 66.972656 1.707031 66.449219 1.707031 66 C 1.707031 65.457031 1.914062 64.707031 2.304688 63.65625 C 2.492188 63.167969 2.550781 63.035156 2.550781 62.792969 C 2.550781 62.269531 2.175781 61.816406 1.574219 61.816406 C 0.429688 61.816406 0 63.5625 0 63.65625 C 0 63.785156 0.113281 63.785156 0.132812 63.785156 C 0.261719 63.785156 0.261719 63.75 0.320312 63.5625 C 0.65625 62.4375 1.125 62.082031 1.539062 62.082031 C 1.632812 62.082031 1.835938 62.082031 1.835938 62.457031 C 1.835938 62.753906 1.707031 63.074219 1.632812 63.300781 C 1.144531 64.574219 0.9375 65.25 0.9375 65.8125 C 0.9375 66.878906 1.6875 67.238281 2.398438 67.238281 C 2.867188 67.238281 3.261719 67.03125 3.601562 66.691406 C 3.449219 67.3125 3.300781 67.910156 2.832031 68.550781 C 2.511719 68.941406 2.0625 69.300781 1.519531 69.300781 C 1.351562 69.300781 0.804688 69.261719 0.601562 68.792969 C 0.789062 68.792969 0.957031 68.792969 1.105469 68.644531 C 1.238281 68.550781 1.351562 68.378906 1.351562 68.15625 C 1.351562 67.78125 1.03125 67.742188 0.917969 67.742188 C 0.636719 67.742188 0.242188 67.929688 0.242188 68.511719 C 0.242188 69.113281 0.769531 69.5625 1.519531 69.5625 C 2.738281 69.5625 3.976562 68.472656 4.3125 67.125 Z M 5.457031 62.550781 "/>
<path style=" stroke:none;fill-rule:nonzero;fill:rgb(0%,0%,0%);fill-opacity:1;" d="M 17.46875 63.1875 C 17.65625 63.1875 17.878906 63.1875 17.878906 62.960938 C 17.878906 62.71875 17.65625 62.71875 17.484375 62.71875 L 10.324219 62.71875 C 10.15625 62.71875 9.929688 62.71875 9.929688 62.960938 C 9.929688 63.1875 10.15625 63.1875 10.324219 63.1875 Z M 17.484375 65.511719 C 17.65625 65.511719 17.878906 65.511719 17.878906 65.269531 C 17.878906 65.042969 17.65625 65.042969 17.46875 65.042969 L 10.324219 65.042969 C 10.15625 65.042969 9.929688 65.042969 9.929688 65.269531 C 9.929688 65.511719 10.15625 65.511719 10.324219 65.511719 Z M 17.484375 65.511719 "/>
<path style=" stroke:none;fill-rule:nonzero;fill:rgb(0%,0%,0%);fill-opacity:1;" d="M 24.371094 64.78125 C 24.632812 64.835938 25.609375 65.023438 25.609375 65.886719 C 25.609375 66.488281 25.195312 66.972656 24.257812 66.972656 C 23.246094 66.972656 22.8125 66.300781 22.589844 65.269531 C 22.550781 65.117188 22.550781 65.082031 22.421875 65.082031 C 22.269531 65.082031 22.269531 65.15625 22.269531 65.363281 L 22.269531 66.957031 C 22.269531 67.160156 22.269531 67.238281 22.402344 67.238281 C 22.457031 67.238281 22.476562 67.21875 22.703125 66.992188 C 22.71875 66.972656 22.71875 66.957031 22.945312 66.730469 C 23.46875 67.21875 24.015625 67.238281 24.257812 67.238281 C 25.625 67.238281 26.1875 66.429688 26.1875 65.566406 C 26.1875 64.949219 25.832031 64.574219 25.683594 64.441406 C 25.289062 64.050781 24.820312 63.957031 24.3125 63.863281 C 23.640625 63.730469 22.851562 63.582031 22.851562 62.886719 C 22.851562 62.457031 23.152344 61.96875 24.183594 61.96875 C 25.496094 61.96875 25.570312 63.054688 25.589844 63.410156 C 25.589844 63.523438 25.703125 63.523438 25.71875 63.523438 C 25.890625 63.523438 25.890625 63.46875 25.890625 63.242188 L 25.890625 62.023438 C 25.890625 61.835938 25.890625 61.742188 25.757812 61.742188 C 25.703125 61.742188 25.664062 61.742188 25.515625 61.894531 C 25.476562 61.929688 25.363281 62.042969 25.308594 62.082031 C 24.859375 61.742188 24.371094 61.742188 24.183594 61.742188 C 22.71875 61.742188 22.269531 62.550781 22.269531 63.222656 C 22.269531 63.636719 22.457031 63.972656 22.777344 64.238281 C 23.171875 64.535156 23.507812 64.613281 24.371094 64.78125 Z M 24.371094 64.78125 "/>
<path style=" stroke:none;fill-rule:nonzero;fill:rgb(0%,0%,0%);fill-opacity:1;" d="M 28.710938 61.816406 L 27.042969 61.949219 L 27.042969 62.324219 C 27.8125 62.324219 27.921875 62.398438 27.921875 62.980469 L 27.921875 66.207031 C 27.921875 66.730469 27.792969 66.730469 26.984375 66.730469 L 26.984375 67.105469 C 27.359375 67.085938 28.015625 67.066406 28.296875 67.066406 C 28.730469 67.066406 29.140625 67.085938 29.554688 67.105469 L 29.554688 66.730469 C 28.75 66.730469 28.710938 66.675781 28.710938 66.207031 Z M 28.75 59.738281 C 28.75 59.363281 28.46875 59.097656 28.128906 59.097656 C 27.753906 59.097656 27.492188 59.417969 27.492188 59.738281 C 27.492188 60.054688 27.753906 60.375 28.128906 60.375 C 28.46875 60.375 28.75 60.113281 28.75 59.738281 Z M 28.75 59.738281 "/>
<path style=" stroke:none;fill-rule:nonzero;fill:rgb(0%,0%,0%);fill-opacity:1;" d="M 31.226562 63 L 31.226562 66.207031 C 31.226562 66.730469 31.09375 66.730469 30.289062 66.730469 L 30.289062 67.105469 C 30.71875 67.085938 31.320312 67.066406 31.65625 67.066406 C 31.957031 67.066406 32.574219 67.085938 32.988281 67.105469 L 32.988281 66.730469 C 32.183594 66.730469 32.050781 66.730469 32.050781 66.207031 L 32.050781 63.992188 C 32.050781 62.753906 32.914062 62.082031 33.664062 62.082031 C 34.433594 62.082031 34.5625 62.71875 34.5625 63.410156 L 34.5625 66.207031 C 34.5625 66.730469 34.433594 66.730469 33.625 66.730469 L 33.625 67.105469 C 34.039062 67.085938 34.65625 67.066406 34.976562 67.066406 C 35.277344 67.066406 35.914062 67.085938 36.308594 67.105469 L 36.308594 66.730469 C 35.6875 66.730469 35.386719 66.730469 35.386719 66.375 L 35.386719 64.085938 C 35.386719 63.054688 35.386719 62.699219 35.011719 62.269531 C 34.84375 62.0625 34.449219 61.816406 33.757812 61.816406 C 32.875 61.816406 32.3125 62.324219 31.976562 63.074219 L 31.976562 61.816406 L 30.289062 61.949219 L 30.289062 62.324219 C 31.132812 62.324219 31.226562 62.398438 31.226562 63 Z M 31.226562 63 "/>
<path style=" stroke:none;fill-rule:nonzero;fill:rgb(0%,0%,0%);fill-opacity:1;" d="M 40.511719 69.972656 C 40.511719 69.9375 40.511719 69.917969 40.304688 69.710938 C 38.824219 68.210938 38.429688 65.941406 38.429688 64.105469 C 38.429688 62.023438 38.878906 59.941406 40.363281 58.460938 C 40.511719 58.3125 40.511719 58.292969 40.511719 58.253906 C 40.511719 58.160156 40.472656 58.125 40.398438 58.125 C 40.269531 58.125 39.199219 58.949219 38.488281 60.46875 C 37.886719 61.78125 37.738281 63.113281 37.738281 64.105469 C 37.738281 65.042969 37.867188 66.488281 38.523438 67.855469 C 39.253906 69.316406 40.269531 70.105469 40.398438 70.105469 C 40.472656 70.105469 40.511719 70.066406 40.511719 69.972656 Z M 40.511719 69.972656 "/>
<path style=" stroke:none;fill-rule:nonzero;fill:rgb(0%,0%,0%);fill-opacity:1;" d="M 45.195312 63.488281 C 45.269531 63.1875 45.550781 62.082031 46.378906 62.082031 C 46.433594 62.082031 46.734375 62.082031 46.976562 62.230469 C 46.640625 62.304688 46.414062 62.585938 46.414062 62.886719 C 46.414062 63.074219 46.546875 63.300781 46.863281 63.300781 C 47.128906 63.300781 47.503906 63.09375 47.503906 62.605469 C 47.503906 61.988281 46.808594 61.816406 46.394531 61.816406 C 45.703125 61.816406 45.289062 62.457031 45.140625 62.71875 C 44.839844 61.929688 44.203125 61.816406 43.847656 61.816406 C 42.609375 61.816406 41.914062 63.355469 41.914062 63.65625 C 41.914062 63.785156 42.046875 63.785156 42.066406 63.785156 C 42.160156 63.785156 42.195312 63.75 42.214844 63.65625 C 42.628906 62.378906 43.414062 62.082031 43.828125 62.082031 C 44.050781 62.082031 44.464844 62.191406 44.464844 62.886719 C 44.464844 63.261719 44.257812 64.050781 43.828125 65.738281 C 43.640625 66.46875 43.207031 66.972656 42.683594 66.972656 C 42.609375 66.972656 42.347656 66.972656 42.082031 66.824219 C 42.382812 66.75 42.644531 66.503906 42.644531 66.167969 C 42.644531 65.847656 42.382812 65.753906 42.214844 65.753906 C 41.839844 65.753906 41.558594 66.054688 41.558594 66.449219 C 41.558594 66.992188 42.140625 67.238281 42.664062 67.238281 C 43.472656 67.238281 43.902344 66.394531 43.921875 66.335938 C 44.070312 66.769531 44.503906 67.238281 45.214844 67.238281 C 46.453125 67.238281 47.128906 65.699219 47.128906 65.398438 C 47.128906 65.269531 47.035156 65.269531 46.996094 65.269531 C 46.882812 65.269531 46.863281 65.324219 46.828125 65.398438 C 46.433594 66.691406 45.628906 66.972656 45.253906 66.972656 C 44.785156 66.972656 44.597656 66.597656 44.597656 66.1875 C 44.597656 65.925781 44.652344 65.660156 44.785156 65.136719 Z M 45.195312 63.488281 "/>
<path style=" stroke:none;fill-rule:nonzero;fill:rgb(0%,0%,0%);fill-opacity:1;" d="M 51.484375 64.105469 C 51.484375 63.1875 51.355469 61.742188 50.699219 60.375 C 49.984375 58.910156 48.953125 58.125 48.839844 58.125 C 48.765625 58.125 48.710938 58.179688 48.710938 58.253906 C 48.710938 58.292969 48.710938 58.3125 48.933594 58.535156 C 50.117188 59.71875 50.792969 61.613281 50.792969 64.105469 C 50.792969 66.167969 50.359375 68.269531 48.878906 69.769531 C 48.710938 69.917969 48.710938 69.9375 48.710938 69.972656 C 48.710938 70.050781 48.765625 70.105469 48.839844 70.105469 C 48.953125 70.105469 50.042969 69.28125 50.734375 67.761719 C 51.355469 66.449219 51.484375 65.117188 51.484375 64.105469 Z M 51.484375 64.105469 "/>
<path style="fill:none;stroke-width:0.8;stroke-linecap:round;stroke-linejoin:round;stroke:rgb(0%,0%,0%);stroke-opacity:1;stroke-miterlimit:4;" d="M 31.441406 75.046875 C 31.472656 75.058594 31.5 75.070312 31.53125 75.078125 C 31.558594 75.089844 31.589844 75.101562 31.617188 75.113281 C 31.648438 75.121094 31.675781 75.132812 31.707031 75.144531 C 31.734375 75.15625 31.765625 75.164062 31.792969 75.175781 C 31.824219 75.183594 31.851562 75.195312 31.882812 75.207031 C 31.910156 75.214844 31.941406 75.226562 31.96875 75.238281 C 32 75.246094 32.027344 75.257812 32.058594 75.265625 C 32.085938 75.277344 32.117188 75.285156 32.144531 75.296875 C 32.175781 75.304688 32.203125 75.316406 32.234375 75.324219 C 32.265625 75.335938 32.292969 75.34375 32.324219 75.355469 C 32.351562 75.363281 32.382812 75.375 32.410156 75.382812 C 32.441406 75.394531 32.46875 75.402344 32.5 75.410156 C 32.527344 75.421875 32.558594 75.429688 32.585938 75.441406 C 32.617188 75.449219 32.644531 75.457031 32.675781 75.46875 C 32.703125 75.476562 32.734375 75.484375 32.761719 75.496094 C 32.792969 75.503906 32.820312 75.511719 32.851562 75.519531 C 32.878906 75.53125 32.910156 75.539062 32.9375 75.546875 C 32.96875 75.554688 32.996094 75.566406 33.027344 75.574219 C 33.054688 75.582031 33.085938 75.589844 33.117188 75.597656 C 33.144531 75.609375 33.175781 75.617188 33.203125 75.625 C 33.234375 75.632812 33.261719 75.640625 33.292969 75.648438 C 33.320312 75.65625 33.351562 75.664062 33.378906 75.671875 C 33.410156 75.679688 33.4375 75.6875 33.46875 75.699219 C 33.496094 75.707031 33.527344 75.714844 33.554688 75.722656 C 33.585938 75.730469 33.613281 75.738281 33.644531 75.746094 C 33.671875 75.75 33.703125 75.757812 33.730469 75.765625 C 33.761719 75.773438 33.789062 75.78125 33.820312 75.789062 C 33.847656 75.796875 33.878906 75.804688 33.90625 75.8125 C 33.9375 75.820312 33.96875 75.824219 33.996094 75.832031 C 34.027344 75.839844 34.054688 75.847656 34.085938 75.855469 C 34.113281 75.863281 34.144531 75.867188 34.171875 75.875 C 34.203125 75.882812 34.230469 75.890625 34.261719 75.894531 C 34.289062 75.902344 34.320312 75.910156 34.347656 75.917969 C 34.378906 75.921875 34.40625 75.929688 34.4375 75.9375 C 34.464844 75.941406 34.496094 75.949219 34.523438 75.957031 C 34.554688 75.960938 34.582031 75.96875 34.613281 75.972656 C 34.640625 75.980469 34.671875 75.988281 34.699219 75.992188 C 34.730469 76 34.757812 76.003906 34.789062 76.011719 C 34.816406 76.015625 34.847656 76.023438 34.878906 76.027344 C 34.90625 76.035156 34.9375 76.039062 34.964844 76.046875 C 34.996094 76.050781 35.023438 76.058594 35.054688 76.0625 C 35.082031 76.070312 35.113281 76.074219 35.140625 76.078125 C 35.171875 76.085938 35.199219 76.089844 35.230469 76.09375 C 35.257812 76.101562 35.289062 76.105469 35.316406 76.113281 C 35.347656 76.117188 35.375 76.121094 35.40625 76.125 C 35.433594 76.132812 35.464844 76.136719 35.492188 76.140625 C 35.523438 76.148438 35.550781 76.152344 35.582031 76.15625 C 35.609375 76.160156 35.640625 76.164062 35.667969 76.171875 C 35.699219 76.175781 35.730469 76.179688 35.757812 76.183594 C 35.789062 76.1875 35.816406 76.195312 35.847656 76.199219 C 35.875 76.203125 35.90625 76.207031 35.933594 76.210938 C 35.964844 76.214844 35.992188 76.21875 36.023438 76.222656 C 36.050781 76.226562 36.082031 76.230469 36.109375 76.234375 C 36.140625 76.238281 36.167969 76.242188 36.199219 76.246094 C 36.226562 76.25 36.257812 76.253906 36.285156 76.257812 C 36.316406 76.261719 36.34375 76.265625 36.375 76.269531 C 36.402344 76.273438 36.433594 76.277344 36.460938 76.28125 C 36.492188 76.285156 36.519531 76.289062 36.550781 76.289062 C 36.582031 76.292969 36.609375 76.296875 36.640625 76.300781 C 36.667969 76.304688 36.699219 76.308594 36.726562 76.308594 C 36.757812 76.3125 36.785156 76.316406 36.816406 76.320312 C 36.84375 76.324219 36.875 76.324219 36.902344 76.328125 C 36.933594 76.332031 36.960938 76.332031 36.992188 76.335938 C 37.019531 76.339844 37.050781 76.339844 37.078125 76.34375 C 37.109375 76.347656 37.136719 76.347656 37.167969 76.351562 C 37.195312 76.355469 37.226562 76.355469 37.253906 76.359375 C 37.285156 76.359375 37.3125 76.363281 37.34375 76.367188 C 37.371094 76.367188 37.402344 76.371094 37.429688 76.371094 C 37.460938 76.375 37.492188 76.375 37.519531 76.378906 C 37.550781 76.378906 37.578125 76.382812 37.609375 76.382812 C 37.636719 76.386719 37.667969 76.386719 37.695312 76.386719 C 37.726562 76.390625 37.753906 76.390625 37.785156 76.394531 C 37.8125 76.394531 37.84375 76.394531 37.871094 76.398438 C 37.902344 76.398438 37.929688 76.398438 37.960938 76.402344 C 37.988281 76.402344 38.019531 76.402344 38.046875 76.40625 C 38.078125 76.40625 38.105469 76.40625 38.136719 76.40625 C 38.164062 76.410156 38.195312 76.410156 38.222656 76.410156 C 38.253906 76.410156 38.28125 76.410156 38.3125 76.414062 C 38.34375 76.414062 38.371094 76.414062 38.402344 76.414062 C 38.429688 76.414062 38.460938 76.414062 38.488281 76.414062 C 38.519531 76.417969 38.546875 76.417969 38.578125 76.417969 C 38.605469 76.417969 38.636719 76.417969 38.664062 76.417969 C 38.695312 76.417969 38.722656 76.417969 38.753906 76.417969 C 38.78125 76.417969 38.8125 76.417969 38.839844 76.417969 C 38.871094 76.417969 38.898438 76.417969 38.929688 76.417969 C 38.957031 76.417969 38.988281 76.417969 39.015625 76.417969 C 39.046875 76.417969 39.074219 76.414062 39.105469 76.414062 C 39.132812 76.414062 39.164062 76.414062 39.195312 76.414062 C 39.222656 76.414062 39.253906 76.414062 39.28125 76.410156 C 39.3125 76.410156 39.339844 76.410156 39.371094 76.410156 C 39.398438 76.40625 39.429688 76.40625 39.457031 76.40625 C 39.488281 76.40625 39.515625 76.402344 39.546875 76.402344 C 39.574219 76.402344 39.605469 76.398438 39.632812 76.398438 C 39.664062 76.398438 39.691406 76.394531 39.722656 76.394531 C 39.75 76.394531 39.78125 76.390625 39.808594 76.390625 C 39.839844 76.390625 39.867188 76.386719 39.898438 76.386719 C 39.925781 76.382812 39.957031 76.382812 39.984375 76.378906 C 40.015625 76.378906 40.042969 76.375 40.074219 76.375 C 40.105469 76.371094 40.132812 76.371094 40.164062 76.367188 C 40.191406 76.367188 40.222656 76.363281 40.25 76.363281 C 40.28125 76.359375 40.308594 76.359375 40.339844 76.355469 C 40.367188 76.351562 40.398438 76.351562 40.425781 76.347656 C 40.457031 76.34375 40.484375 76.34375 40.515625 76.339844 C 40.542969 76.335938 40.574219 76.335938 40.601562 76.332031 C 40.632812 76.328125 40.660156 76.328125 40.691406 76.324219 C 40.71875 76.320312 40.75 76.316406 40.777344 76.316406 C 40.808594 76.3125 40.835938 76.308594 40.867188 76.304688 C 40.894531 76.300781 40.925781 76.300781 40.957031 76.296875 C 40.984375 76.292969 41.015625 76.289062 41.042969 76.285156 C 41.074219 76.28125 41.101562 76.277344 41.132812 76.277344 C 41.160156 76.273438 41.191406 76.269531 41.21875 76.265625 C 41.25 76.261719 41.277344 76.257812 41.308594 76.253906 C 41.335938 76.25 41.367188 76.246094 41.394531 76.242188 C 41.425781 76.238281 41.453125 76.234375 41.484375 76.230469 C 41.511719 76.226562 41.542969 76.222656 41.570312 76.21875 C 41.601562 76.214844 41.628906 76.207031 41.660156 76.203125 C 41.6875 76.199219 41.71875 76.195312 41.746094 76.191406 C 41.777344 76.1875 41.808594 76.183594 41.835938 76.175781 C 41.867188 76.171875 41.894531 76.167969 41.925781 76.164062 C 41.953125 76.160156 41.984375 76.152344 42.011719 76.148438 C 42.042969 76.144531 42.070312 76.140625 42.101562 76.132812 C 42.128906 76.128906 42.160156 76.125 42.1875 76.121094 C 42.21875 76.113281 42.246094 76.109375 42.277344 76.105469 C 42.304688 76.097656 42.335938 76.09375 42.363281 76.085938 C 42.394531 76.082031 42.421875 76.078125 42.453125 76.070312 C 42.480469 76.066406 42.511719 76.058594 42.539062 76.054688 C 42.570312 76.046875 42.597656 76.042969 42.628906 76.039062 C 42.65625 76.03125 42.6875 76.027344 42.71875 76.019531 C 42.746094 76.015625 42.777344 76.007812 42.804688 76 C 42.835938 75.996094 42.863281 75.988281 42.894531 75.984375 C 42.921875 75.976562 42.953125 75.972656 42.980469 75.964844 C 43.011719 75.957031 43.039062 75.953125 43.070312 75.945312 C 43.097656 75.9375 43.128906 75.933594 43.15625 75.925781 C 43.1875 75.917969 43.214844 75.914062 43.246094 75.90625 C 43.273438 75.898438 43.304688 75.894531 43.332031 75.886719 C 43.363281 75.878906 43.390625 75.871094 43.421875 75.863281 C 43.449219 75.859375 43.480469 75.851562 43.507812 75.84375 C 43.539062 75.835938 43.570312 75.828125 43.597656 75.824219 C 43.628906 75.816406 43.65625 75.808594 43.6875 75.800781 C 43.714844 75.792969 43.746094 75.785156 43.773438 75.777344 C 43.804688 75.769531 43.832031 75.761719 43.863281 75.753906 C 43.890625 75.75 43.921875 75.742188 43.949219 75.734375 C 43.980469 75.726562 44.007812 75.71875 44.039062 75.710938 C 44.066406 75.703125 44.097656 75.695312 44.125 75.683594 C 44.15625 75.675781 44.183594 75.667969 44.214844 75.660156 C 44.242188 75.652344 44.273438 75.644531 44.300781 75.636719 C 44.332031 75.628906 44.359375 75.621094 44.390625 75.613281 C 44.421875 75.601562 44.449219 75.59375 44.480469 75.585938 C 44.507812 75.578125 44.539062 75.570312 44.566406 75.558594 C 44.597656 75.550781 44.625 75.542969 44.65625 75.535156 C 44.683594 75.527344 44.714844 75.515625 44.742188 75.507812 C 44.773438 75.5 44.800781 75.488281 44.832031 75.480469 C 44.859375 75.472656 44.890625 75.460938 44.917969 75.453125 C 44.949219 75.445312 44.976562 75.433594 45.007812 75.425781 C 45.035156 75.417969 45.066406 75.40625 45.09375 75.398438 C 45.125 75.386719 45.152344 75.378906 45.183594 75.371094 C 45.210938 75.359375 45.242188 75.351562 45.269531 75.339844 C 45.300781 75.332031 45.332031 75.320312 45.359375 75.3125 C 45.390625 75.300781 45.417969 75.292969 45.449219 75.28125 C 45.476562 75.273438 45.507812 75.261719 45.535156 75.25 C 45.566406 75.242188 45.59375 75.230469 45.625 75.222656 C 45.652344 75.210938 45.683594 75.199219 45.710938 75.191406 C 45.742188 75.179688 45.769531 75.171875 45.800781 75.160156 C 45.828125 75.148438 45.859375 75.136719 45.886719 75.128906 C 45.917969 75.117188 45.945312 75.105469 45.976562 75.097656 C 46.003906 75.085938 46.035156 75.074219 46.0625 75.0625 C 46.09375 75.054688 46.121094 75.042969 46.152344 75.03125 C 46.183594 75.019531 46.210938 75.007812 46.242188 75 C 46.269531 74.988281 46.300781 74.976562 46.328125 74.964844 C 46.359375 74.953125 46.386719 74.941406 46.417969 74.929688 C 46.445312 74.917969 46.476562 74.910156 46.503906 74.898438 C 46.535156 74.886719 46.5625 74.875 46.59375 74.863281 C 46.621094 74.851562 46.652344 74.839844 46.679688 74.828125 C 46.710938 74.816406 46.738281 74.804688 46.769531 74.792969 C 46.796875 74.78125 46.828125 74.769531 46.855469 74.757812 C 46.886719 74.746094 46.914062 74.734375 46.945312 74.71875 C 46.972656 74.707031 47.003906 74.695312 47.035156 74.683594 C 47.0625 74.671875 47.09375 74.660156 47.121094 74.648438 C 47.152344 74.636719 47.179688 74.621094 47.210938 74.609375 C 47.238281 74.597656 47.269531 74.585938 47.296875 74.574219 C 47.328125 74.558594 47.355469 74.546875 47.386719 74.535156 C 47.414062 74.523438 47.445312 74.507812 47.472656 74.496094 C 47.503906 74.484375 47.53125 74.46875 47.5625 74.457031 C 47.589844 74.445312 47.621094 74.429688 47.648438 74.417969 C 47.679688 74.40625 47.707031 74.390625 47.738281 74.378906 C 47.765625 74.367188 47.796875 74.351562 47.824219 74.339844 C 47.855469 74.324219 47.882812 74.3125 47.914062 74.300781 C 47.945312 74.285156 47.972656 74.273438 48.003906 74.257812 C 48.03125 74.246094 48.0625 74.230469 48.089844 74.21875 C 48.121094 74.203125 48.148438 74.191406 48.179688 74.175781 C 48.207031 74.164062 48.238281 74.148438 48.265625 74.136719 C 48.296875 74.121094 48.324219 74.105469 48.355469 74.09375 C 48.382812 74.078125 48.414062 74.066406 48.441406 74.050781 C 48.472656 74.035156 48.5 74.023438 48.53125 74.007812 C 48.558594 73.992188 48.589844 73.980469 48.617188 73.964844 C 48.648438 73.949219 48.675781 73.9375 48.707031 73.921875 C 48.734375 73.90625 48.765625 73.890625 48.796875 73.878906 C 48.824219 73.863281 48.855469 73.847656 48.882812 73.832031 C 48.914062 73.820312 48.941406 73.804688 48.972656 73.789062 C 49 73.773438 49.03125 73.757812 49.058594 73.746094 C 49.089844 73.730469 49.117188 73.714844 49.148438 73.699219 C 49.175781 73.683594 49.207031 73.667969 49.234375 73.652344 C 49.265625 73.636719 49.292969 73.621094 49.324219 73.605469 C 49.351562 73.59375 49.382812 73.578125 49.410156 73.5625 C 49.441406 73.546875 49.46875 73.53125 49.5 73.515625 C 49.527344 73.5 49.558594 73.484375 49.585938 73.46875 C 49.617188 73.453125 49.648438 73.4375 49.675781 73.421875 C 49.707031 73.402344 49.734375 73.386719 49.765625 73.371094 C 49.792969 73.355469 49.824219 73.339844 49.851562 73.324219 C 49.882812 73.308594 49.910156 73.292969 49.941406 73.277344 C 49.96875 73.257812 50 73.242188 50.027344 73.226562 C 50.058594 73.210938 50.085938 73.195312 50.117188 73.175781 C 50.144531 73.160156 50.175781 73.144531 50.203125 73.128906 C 50.234375 73.113281 50.261719 73.09375 50.292969 73.078125 C 50.320312 73.0625 50.351562 73.042969 50.378906 73.027344 C 50.410156 73.011719 50.4375 72.996094 50.46875 72.976562 C 50.496094 72.960938 50.527344 72.945312 50.558594 72.925781 C 50.585938 72.910156 50.617188 72.890625 50.644531 72.875 C 50.675781 72.859375 50.703125 72.839844 50.734375 72.824219 C 50.761719 72.804688 50.792969 72.789062 50.820312 72.773438 C 50.851562 72.753906 50.878906 72.738281 50.910156 72.71875 C 50.9375 72.703125 50.96875 72.683594 50.996094 72.667969 C 51.027344 72.648438 51.054688 72.632812 51.085938 72.613281 C 51.113281 72.597656 51.144531 72.578125 51.171875 72.558594 C 51.203125 72.542969 51.230469 72.523438 51.261719 72.507812 C 51.289062 72.488281 51.320312 72.472656 51.347656 72.453125 C 51.378906 72.433594 51.410156 72.417969 51.4375 72.398438 C 51.46875 72.378906 51.496094 72.363281 51.527344 72.34375 C 51.554688 72.324219 51.585938 72.308594 51.613281 72.289062 C 51.644531 72.269531 51.671875 72.25 51.703125 72.234375 C 51.730469 72.214844 51.761719 72.195312 51.789062 72.175781 C 51.820312 72.160156 51.847656 72.140625 51.878906 72.121094 C 51.90625 72.101562 51.9375 72.082031 51.964844 72.066406 C 51.996094 72.046875 52.023438 72.027344 52.054688 72.007812 C 52.082031 71.988281 52.113281 71.96875 52.140625 71.949219 C 52.171875 71.933594 52.199219 71.914062 52.230469 71.894531 C 52.261719 71.875 52.289062 71.855469 52.320312 71.835938 C 52.347656 71.816406 52.378906 71.796875 52.40625 71.777344 C 52.4375 71.757812 52.464844 71.738281 52.496094 71.71875 C 52.523438 71.699219 52.554688 71.679688 52.582031 71.660156 C 52.613281 71.640625 52.640625 71.621094 52.671875 71.601562 C 52.699219 71.582031 52.730469 71.5625 52.757812 71.542969 C 52.789062 71.523438 52.816406 71.503906 52.847656 71.480469 C 52.875 71.460938 52.90625 71.441406 52.933594 71.421875 C 52.964844 71.402344 52.992188 71.382812 53.023438 71.363281 C 53.050781 71.339844 53.082031 71.320312 53.109375 71.300781 C 53.140625 71.28125 53.171875 71.261719 53.199219 71.238281 C 53.230469 71.21875 53.257812 71.199219 53.289062 71.179688 C 53.316406 71.15625 53.347656 71.136719 53.375 71.117188 C 53.40625 71.097656 53.433594 71.074219 53.464844 71.054688 C 53.492188 71.035156 53.523438 71.011719 53.550781 70.992188 C 53.582031 70.972656 53.609375 70.949219 53.640625 70.929688 C 53.667969 70.910156 53.699219 70.886719 53.726562 70.867188 C 53.757812 70.847656 53.785156 70.824219 53.816406 70.804688 C 53.84375 70.78125 53.875 70.761719 53.902344 70.738281 C 53.933594 70.71875 53.960938 70.699219 53.992188 70.675781 C 54.023438 70.65625 54.050781 70.632812 54.082031 70.613281 C 54.109375 70.589844 54.140625 70.570312 54.167969 70.546875 C 54.199219 70.527344 54.226562 70.503906 54.257812 70.480469 C 54.285156 70.460938 54.316406 70.4375 54.34375 70.417969 C 54.375 70.394531 54.402344 70.375 54.433594 70.351562 C 54.460938 70.328125 54.492188 70.308594 54.519531 70.285156 C 54.550781 70.265625 54.578125 70.242188 54.609375 70.21875 C 54.636719 70.199219 54.667969 70.175781 54.695312 70.152344 C 54.726562 70.132812 54.753906 70.109375 54.785156 70.085938 C 54.8125 70.0625 54.84375 70.042969 54.875 70.019531 C 54.902344 69.996094 54.933594 69.972656 54.960938 69.953125 C 54.992188 69.929688 55.019531 69.90625 55.050781 69.882812 C 55.078125 69.863281 55.109375 69.839844 55.136719 69.816406 C 55.167969 69.792969 55.195312 69.769531 55.226562 69.746094 C 55.253906 69.726562 55.285156 69.703125 55.3125 69.679688 C 55.34375 69.65625 55.371094 69.632812 55.402344 69.609375 C 55.429688 69.585938 55.460938 69.5625 55.488281 69.542969 C 55.519531 69.519531 55.546875 69.496094 55.578125 69.472656 C 55.605469 69.449219 55.636719 69.425781 55.664062 69.402344 C 55.695312 69.378906 55.722656 69.355469 55.753906 69.332031 C 55.785156 69.308594 55.8125 69.285156 55.84375 69.261719 C 55.871094 69.238281 55.902344 69.214844 55.929688 69.191406 C 55.960938 69.167969 55.988281 69.144531 56.019531 69.121094 C 56.046875 69.097656 56.078125 69.070312 56.105469 69.046875 C 56.136719 69.023438 56.164062 69 56.195312 68.976562 C 56.222656 68.953125 56.253906 68.929688 56.28125 68.90625 C 56.3125 68.882812 56.339844 68.855469 56.371094 68.832031 C 56.398438 68.808594 56.429688 68.785156 56.457031 68.761719 C 56.488281 68.734375 56.515625 68.710938 56.546875 68.6875 C 56.574219 68.664062 56.605469 68.640625 56.636719 68.613281 C 56.664062 68.589844 56.695312 68.566406 56.722656 68.542969 C 56.753906 68.515625 56.78125 68.492188 56.8125 68.46875 C 56.839844 68.441406 56.871094 68.417969 56.898438 68.394531 C 56.929688 68.367188 56.957031 68.34375 56.988281 68.320312 C 57.015625 68.292969 57.046875 68.269531 57.074219 68.246094 C 57.105469 68.21875 57.132812 68.195312 57.164062 68.171875 C 57.191406 68.144531 57.222656 68.121094 57.25 68.09375 C 57.28125 68.070312 57.308594 68.046875 57.339844 68.019531 C 57.367188 67.996094 57.398438 67.96875 57.425781 67.945312 C 57.457031 67.917969 57.488281 67.894531 57.515625 67.867188 C 57.546875 67.84375 57.574219 67.816406 57.605469 67.792969 C 57.632812 67.765625 57.664062 67.742188 57.691406 67.714844 C 57.722656 67.691406 57.75 67.664062 57.78125 67.640625 C 57.808594 67.613281 57.839844 67.589844 57.867188 67.5625 C 57.898438 67.535156 57.925781 67.511719 57.957031 67.484375 C 57.984375 67.460938 58.015625 67.433594 58.042969 67.40625 C 58.074219 67.382812 58.101562 67.355469 58.132812 67.328125 C 58.160156 67.304688 58.191406 67.277344 58.21875 67.25 C 58.25 67.226562 58.277344 67.199219 58.308594 67.171875 C 58.335938 67.148438 58.367188 67.121094 58.398438 67.09375 C 58.425781 67.070312 58.457031 67.042969 58.484375 67.015625 C 58.515625 66.988281 58.542969 66.964844 58.574219 66.9375 C 58.601562 66.910156 58.632812 66.882812 58.660156 66.855469 C 58.691406 66.832031 58.71875 66.804688 58.75 66.777344 C 58.777344 66.75 58.808594 66.722656 58.835938 66.699219 C 58.867188 66.671875 58.894531 66.644531 58.925781 66.617188 C 58.953125 66.589844 58.984375 66.5625 59.011719 66.539062 C 59.042969 66.511719 59.070312 66.484375 59.101562 66.457031 C 59.128906 66.429688 59.160156 66.402344 59.1875 66.375 C 59.21875 66.347656 59.25 66.320312 59.277344 66.292969 C 59.308594 66.265625 59.335938 66.238281 59.367188 66.214844 C 59.394531 66.1875 59.425781 66.160156 59.453125 66.132812 C 59.484375 66.105469 59.511719 66.078125 59.542969 66.050781 C 59.570312 66.023438 59.601562 65.996094 59.628906 65.96875 C 59.660156 65.941406 59.6875 65.910156 59.71875 65.882812 C 59.746094 65.855469 59.777344 65.828125 59.804688 65.800781 C 59.835938 65.773438 59.863281 65.746094 59.894531 65.71875 C 59.921875 65.691406 59.953125 65.664062 59.980469 65.636719 C 60.011719 65.609375 60.039062 65.582031 60.070312 65.550781 C 60.101562 65.523438 60.128906 65.496094 60.160156 65.46875 C 60.1875 65.441406 60.21875 65.414062 60.246094 65.382812 C 60.277344 65.355469 60.304688 65.328125 60.335938 65.300781 C 60.363281 65.273438 60.394531 65.246094 60.421875 65.214844 C 60.453125 65.1875 60.480469 65.160156 60.511719 65.132812 C 60.539062 65.101562 60.570312 65.074219 60.597656 65.046875 C 60.628906 65.019531 60.65625 64.988281 60.6875 64.960938 C 60.714844 64.933594 60.746094 64.90625 60.773438 64.875 C 60.804688 64.847656 60.832031 64.820312 60.863281 64.789062 C 60.890625 64.761719 60.921875 64.734375 60.949219 64.703125 C 60.980469 64.675781 61.011719 64.648438 61.039062 64.617188 C 61.070312 64.589844 61.097656 64.5625 61.128906 64.53125 C 61.15625 64.503906 61.1875 64.472656 61.214844 64.445312 C 61.246094 64.417969 61.273438 64.386719 61.304688 64.359375 C 61.332031 64.328125 61.363281 64.300781 61.390625 64.273438 C 61.421875 64.242188 61.449219 64.214844 61.480469 64.183594 C 61.507812 64.15625 61.539062 64.125 61.566406 64.097656 C 61.597656 64.066406 61.625 64.039062 61.65625 64.007812 C 61.683594 63.980469 61.714844 63.949219 61.742188 63.921875 C 61.773438 63.890625 61.800781 63.863281 61.832031 63.832031 C 61.863281 63.804688 61.890625 63.773438 61.921875 63.746094 C 61.949219 63.714844 61.980469 63.6875 62.007812 63.65625 C 62.039062 63.628906 62.066406 63.597656 62.097656 63.566406 C 62.125 63.539062 62.15625 63.507812 62.183594 63.480469 C 62.214844 63.449219 62.242188 63.417969 62.273438 63.390625 C 62.300781 63.359375 62.332031 63.332031 62.359375 63.300781 C 62.390625 63.269531 62.417969 63.242188 62.449219 63.210938 C 62.476562 63.179688 62.507812 63.152344 62.535156 63.121094 C 62.566406 63.089844 62.59375 63.0625 62.625 63.03125 C 62.652344 63 62.683594 62.972656 62.714844 62.941406 C 62.742188 62.910156 62.773438 62.878906 62.800781 62.851562 C 62.832031 62.820312 62.859375 62.789062 62.890625 62.757812 C 62.917969 62.730469 62.949219 62.699219 62.976562 62.667969 C 63.007812 62.636719 63.035156 62.609375 63.066406 62.578125 C 63.09375 62.546875 63.125 62.515625 63.152344 62.488281 C 63.183594 62.457031 63.210938 62.425781 63.242188 62.394531 C 63.269531 62.363281 63.300781 62.335938 63.328125 62.304688 C 63.359375 62.273438 63.386719 62.242188 63.417969 62.210938 C 63.445312 62.179688 63.476562 62.148438 63.503906 62.121094 C 63.535156 62.089844 63.5625 62.058594 63.59375 62.027344 C 63.625 61.996094 63.652344 61.964844 63.683594 61.933594 C 63.710938 61.902344 63.742188 61.875 63.769531 61.84375 C 63.800781 61.8125 63.828125 61.78125 63.859375 61.75 C 63.886719 61.71875 63.917969 61.6875 63.945312 61.65625 C 63.976562 61.625 64.003906 61.59375 64.035156 61.5625 C 64.0625 61.53125 64.09375 61.5 64.121094 61.46875 C 64.152344 61.4375 64.179688 61.40625 64.210938 61.375 C 64.238281 61.34375 64.269531 61.3125 64.296875 61.28125 C 64.328125 61.25 64.355469 61.21875 64.386719 61.1875 C 64.414062 61.15625 64.445312 61.125 64.476562 61.09375 C 64.503906 61.0625 64.535156 61.03125 64.5625 61 C 64.59375 60.96875 64.621094 60.9375 64.652344 60.90625 C 64.679688 60.875 64.710938 60.84375 64.738281 60.8125 C 64.769531 60.78125 64.796875 60.746094 64.828125 60.714844 C 64.855469 60.683594 64.886719 60.652344 64.914062 60.621094 C 64.945312 60.589844 64.972656 60.558594 65.003906 60.527344 C 65.03125 60.496094 65.0625 60.460938 65.089844 60.429688 C 65.121094 60.398438 65.148438 60.367188 65.179688 60.335938 C 65.207031 60.304688 65.238281 60.269531 65.265625 60.238281 C 65.296875 60.207031 65.328125 60.175781 65.355469 60.144531 C 65.386719 60.113281 65.414062 60.078125 65.445312 60.046875 C 65.472656 60.015625 65.503906 59.984375 65.53125 59.953125 C 65.5625 59.917969 65.589844 59.886719 65.621094 59.855469 C 65.648438 59.824219 65.679688 59.789062 65.707031 59.757812 C 65.738281 59.726562 65.765625 59.695312 65.796875 59.660156 C 65.824219 59.628906 65.855469 59.597656 65.882812 59.566406 C 65.914062 59.53125 65.941406 59.5 65.972656 59.46875 C 66 59.433594 66.03125 59.402344 66.058594 59.371094 C 66.089844 59.339844 66.117188 59.304688 66.148438 59.273438 C 66.175781 59.242188 66.207031 59.207031 66.238281 59.175781 C 66.265625 59.144531 66.296875 59.109375 66.324219 59.078125 C 66.355469 59.046875 66.382812 59.011719 66.414062 58.980469 C 66.441406 58.949219 66.472656 58.914062 66.5 58.882812 C 66.53125 58.851562 66.558594 58.816406 66.589844 58.785156 C 66.617188 58.75 66.648438 58.71875 66.675781 58.6875 C 66.707031 58.652344 66.734375 58.621094 66.765625 58.585938 C 66.792969 58.554688 66.824219 58.523438 66.851562 58.488281 C 66.882812 58.457031 66.910156 58.421875 66.941406 58.390625 C 66.96875 58.359375 67 58.324219 67.027344 58.292969 C 67.058594 58.257812 67.089844 58.226562 67.117188 58.191406 C 67.148438 58.160156 67.175781 58.125 67.207031 58.09375 C 67.234375 58.0625 67.265625 58.027344 67.292969 57.996094 C 67.324219 57.960938 67.351562 57.929688 67.382812 57.894531 C 67.410156 57.863281 67.441406 57.828125 67.46875 57.796875 C 67.5 57.761719 67.527344 57.730469 67.558594 57.695312 C 67.585938 57.664062 67.617188 57.628906 67.644531 57.597656 C 67.675781 57.5625 67.703125 57.53125 67.734375 57.496094 C 67.761719 57.464844 67.792969 57.429688 67.820312 57.394531 C 67.851562 57.363281 67.878906 57.328125 67.910156 57.296875 C 67.941406 57.261719 67.96875 57.230469 68 57.195312 C 68.027344 57.164062 68.058594 57.128906 68.085938 57.09375 C 68.117188 57.0625 68.144531 57.027344 68.175781 56.996094 C 68.203125 56.960938 68.234375 56.929688 68.261719 56.894531 C 68.292969 56.859375 68.320312 56.828125 68.351562 56.792969 C 68.378906 56.761719 68.410156 56.726562 68.4375 56.691406 C 68.46875 56.660156 68.496094 56.625 68.527344 56.589844 C 68.554688 56.558594 68.585938 56.523438 68.613281 56.492188 C 68.644531 56.457031 68.671875 56.421875 68.703125 56.390625 C 68.730469 56.355469 68.761719 56.320312 68.789062 56.289062 C 68.820312 56.253906 68.851562 56.21875 68.878906 56.1875 C 68.910156 56.152344 68.9375 56.117188 68.96875 56.085938 C 68.996094 56.050781 69.027344 56.015625 69.054688 55.984375 C 69.085938 55.949219 69.113281 55.914062 69.144531 55.882812 C 69.171875 55.847656 69.203125 55.8125 69.230469 55.78125 C 69.261719 55.746094 69.289062 55.710938 69.320312 55.675781 C 69.347656 55.644531 69.378906 55.609375 69.40625 55.574219 C 69.4375 55.542969 69.464844 55.507812 69.496094 55.472656 C 69.523438 55.4375 69.554688 55.40625 69.582031 55.371094 C 69.613281 55.335938 69.640625 55.304688 69.671875 55.269531 C 69.703125 55.234375 69.730469 55.199219 69.761719 55.167969 C 69.789062 55.132812 69.820312 55.097656 69.847656 55.0625 C 69.878906 55.03125 69.90625 54.996094 69.9375 54.960938 C 69.964844 54.925781 69.996094 54.890625 70.023438 54.859375 C 70.054688 54.824219 70.082031 54.789062 70.113281 54.753906 C 70.140625 54.722656 70.171875 54.6875 70.199219 54.652344 C 70.230469 54.617188 70.257812 54.582031 70.289062 54.550781 C 70.316406 54.515625 70.347656 54.480469 70.375 54.445312 C 70.40625 54.410156 70.433594 54.378906 70.464844 54.34375 C 70.492188 54.308594 70.523438 54.273438 70.554688 54.238281 C 70.582031 54.207031 70.613281 54.171875 70.640625 54.136719 C 70.671875 54.101562 70.699219 54.066406 70.730469 54.03125 C 70.757812 54 70.789062 53.964844 70.816406 53.929688 C 70.847656 53.894531 70.875 53.859375 70.90625 53.824219 C 70.933594 53.789062 70.964844 53.757812 70.992188 53.722656 C 71.023438 53.6875 71.050781 53.652344 71.082031 53.617188 L 71.167969 53.515625 L 71.257812 53.410156 L 71.34375 53.304688 L 71.433594 53.203125 L 71.523438 53.097656 L 71.609375 52.992188 L 71.699219 52.890625 L 71.785156 52.785156 L 71.875 52.679688 L 71.960938 52.578125 L 72.050781 52.472656 L 72.136719 52.367188 L 72.316406 52.15625 L 72.402344 52.054688 L 72.492188 51.949219 L 72.578125 51.84375 L 72.667969 51.738281 L 72.753906 51.632812 L 72.84375 51.527344 L 72.929688 51.421875 L 73.019531 51.320312 L 73.105469 51.214844 L 73.285156 51.003906 L 73.371094 50.898438 L 73.460938 50.792969 L 73.546875 50.6875 L 73.636719 50.582031 L 73.722656 50.476562 L 73.8125 50.371094 L 73.898438 50.265625 L 74.078125 50.054688 L 74.164062 49.949219 L 74.253906 49.84375 L 74.339844 49.738281 L 74.429688 49.632812 L 74.515625 49.527344 L 74.605469 49.421875 L 74.691406 49.316406 L 74.78125 49.210938 L 74.867188 49.105469 L 75.046875 48.894531 L 75.132812 48.789062 L 75.222656 48.683594 L 75.308594 48.578125 L 75.398438 48.472656 L 75.484375 48.363281 L 75.574219 48.257812 L 75.660156 48.152344 L 75.839844 47.941406 L 75.925781 47.835938 L 76.015625 47.730469 L 76.101562 47.625 L 76.191406 47.519531 L 76.277344 47.414062 L 76.367188 47.308594 L 76.453125 47.203125 L 76.542969 47.097656 L 76.628906 46.992188 L 76.808594 46.78125 L 76.894531 46.675781 L 76.984375 46.570312 L 77.070312 46.464844 L 77.160156 46.359375 L 77.246094 46.253906 L 77.335938 46.148438 L 77.421875 46.042969 L 77.601562 45.832031 L 77.6875 45.726562 L 77.777344 45.621094 L 77.863281 45.515625 L 77.953125 45.414062 L 78.039062 45.308594 L 78.128906 45.203125 L 78.214844 45.097656 L 78.394531 44.886719 L 78.480469 44.78125 L 78.570312 44.679688 L 78.65625 44.574219 L 78.746094 44.46875 L 78.832031 44.363281 L 78.921875 44.257812 L 79.007812 44.15625 L 79.097656 44.050781 L 79.183594 43.945312 L 79.273438 43.84375 L 79.363281 43.738281 L 79.449219 43.632812 L 79.539062 43.53125 L 79.625 43.425781 L 79.714844 43.320312 L 79.800781 43.21875 C 79.832031 43.183594 79.859375 43.148438 79.890625 43.113281 C 79.917969 43.078125 79.949219 43.046875 79.976562 43.011719 C 80.007812 42.976562 80.035156 42.941406 80.066406 42.90625 C 80.09375 42.871094 80.125 42.835938 80.15625 42.804688 C 80.183594 42.769531 80.214844 42.734375 80.242188 42.699219 C 80.273438 42.664062 80.300781 42.632812 80.332031 42.597656 C 80.359375 42.5625 80.390625 42.527344 80.417969 42.492188 C 80.449219 42.457031 80.476562 42.425781 80.507812 42.390625 C 80.535156 42.355469 80.566406 42.320312 80.59375 42.285156 C 80.625 42.253906 80.652344 42.21875 80.683594 42.183594 C 80.710938 42.148438 80.742188 42.113281 80.769531 42.082031 C 80.800781 42.046875 80.828125 42.011719 80.859375 41.976562 C 80.886719 41.945312 80.917969 41.910156 80.945312 41.875 C 80.976562 41.839844 81.007812 41.804688 81.035156 41.773438 C 81.066406 41.738281 81.09375 41.703125 81.125 41.667969 C 81.152344 41.636719 81.183594 41.601562 81.210938 41.566406 C 81.242188 41.53125 81.269531 41.5 81.300781 41.464844 C 81.328125 41.429688 81.359375 41.398438 81.386719 41.363281 C 81.417969 41.328125 81.445312 41.292969 81.476562 41.261719 C 81.503906 41.226562 81.535156 41.191406 81.5625 41.160156 C 81.59375 41.125 81.621094 41.089844 81.652344 41.054688 C 81.679688 41.023438 81.710938 40.988281 81.738281 40.953125 C 81.769531 40.921875 81.796875 40.886719 81.828125 40.851562 C 81.855469 40.820312 81.886719 40.785156 81.917969 40.75 C 81.945312 40.71875 81.976562 40.683594 82.003906 40.648438 C 82.035156 40.617188 82.0625 40.582031 82.09375 40.546875 C 82.121094 40.515625 82.152344 40.480469 82.179688 40.445312 C 82.210938 40.414062 82.238281 40.378906 82.269531 40.34375 C 82.296875 40.3125 82.328125 40.277344 82.355469 40.246094 C 82.386719 40.210938 82.414062 40.175781 82.445312 40.144531 C 82.472656 40.109375 82.503906 40.074219 82.53125 40.042969 C 82.5625 40.007812 82.589844 39.976562 82.621094 39.941406 C 82.648438 39.90625 82.679688 39.875 82.707031 39.839844 C 82.738281 39.808594 82.769531 39.773438 82.796875 39.742188 C 82.828125 39.707031 82.855469 39.671875 82.886719 39.640625 C 82.914062 39.605469 82.945312 39.574219 82.972656 39.539062 C 83.003906 39.507812 83.03125 39.472656 83.0625 39.441406 C 83.089844 39.40625 83.121094 39.371094 83.148438 39.339844 C 83.179688 39.304688 83.207031 39.273438 83.238281 39.238281 C 83.265625 39.207031 83.296875 39.171875 83.324219 39.140625 C 83.355469 39.105469 83.382812 39.074219 83.414062 39.039062 C 83.441406 39.007812 83.472656 38.972656 83.5 38.941406 C 83.53125 38.90625 83.558594 38.875 83.589844 38.839844 C 83.617188 38.808594 83.648438 38.773438 83.679688 38.742188 C 83.707031 38.710938 83.738281 38.675781 83.765625 38.644531 C 83.796875 38.609375 83.824219 38.578125 83.855469 38.542969 C 83.882812 38.511719 83.914062 38.476562 83.941406 38.445312 C 83.972656 38.414062 84 38.378906 84.03125 38.347656 C 84.058594 38.3125 84.089844 38.28125 84.117188 38.25 C 84.148438 38.214844 84.175781 38.183594 84.207031 38.148438 C 84.234375 38.117188 84.265625 38.085938 84.292969 38.050781 C 84.324219 38.019531 84.351562 37.984375 84.382812 37.953125 C 84.410156 37.921875 84.441406 37.886719 84.46875 37.855469 C 84.5 37.824219 84.53125 37.789062 84.558594 37.757812 C 84.589844 37.726562 84.617188 37.691406 84.648438 37.660156 C 84.675781 37.628906 84.707031 37.59375 84.734375 37.5625 C 84.765625 37.53125 84.792969 37.496094 84.824219 37.464844 C 84.851562 37.433594 84.882812 37.402344 84.910156 37.367188 C 84.941406 37.335938 84.96875 37.304688 85 37.269531 C 85.027344 37.238281 85.058594 37.207031 85.085938 37.175781 C 85.117188 37.140625 85.144531 37.109375 85.175781 37.078125 C 85.203125 37.046875 85.234375 37.011719 85.261719 36.980469 C 85.292969 36.949219 85.320312 36.917969 85.351562 36.886719 C 85.382812 36.851562 85.410156 36.820312 85.441406 36.789062 C 85.46875 36.757812 85.5 36.722656 85.527344 36.691406 C 85.558594 36.660156 85.585938 36.628906 85.617188 36.597656 C 85.644531 36.566406 85.675781 36.53125 85.703125 36.5 C 85.734375 36.46875 85.761719 36.4375 85.792969 36.40625 C 85.820312 36.375 85.851562 36.34375 85.878906 36.308594 C 85.910156 36.277344 85.9375 36.246094 85.96875 36.214844 C 85.996094 36.183594 86.027344 36.152344 86.054688 36.121094 C 86.085938 36.089844 86.113281 36.054688 86.144531 36.023438 C 86.171875 35.992188 86.203125 35.960938 86.230469 35.929688 C 86.261719 35.898438 86.292969 35.867188 86.320312 35.835938 C 86.351562 35.804688 86.378906 35.773438 86.410156 35.742188 C 86.4375 35.710938 86.46875 35.679688 86.496094 35.648438 C 86.527344 35.617188 86.554688 35.585938 86.585938 35.554688 C 86.613281 35.523438 86.644531 35.492188 86.671875 35.460938 C 86.703125 35.429688 86.730469 35.398438 86.761719 35.367188 C 86.789062 35.335938 86.820312 35.304688 86.847656 35.273438 C 86.878906 35.242188 86.90625 35.210938 86.9375 35.179688 C 86.964844 35.148438 86.996094 35.117188 87.023438 35.085938 C 87.054688 35.054688 87.082031 35.023438 87.113281 34.992188 C 87.144531 34.960938 87.171875 34.933594 87.203125 34.902344 C 87.230469 34.871094 87.261719 34.839844 87.289062 34.808594 C 87.320312 34.777344 87.347656 34.746094 87.378906 34.714844 C 87.40625 34.6875 87.4375 34.65625 87.464844 34.625 C 87.496094 34.59375 87.523438 34.5625 87.554688 34.53125 C 87.582031 34.503906 87.613281 34.472656 87.640625 34.441406 C 87.671875 34.410156 87.699219 34.378906 87.730469 34.347656 C 87.757812 34.320312 87.789062 34.289062 87.816406 34.257812 C 87.847656 34.226562 87.875 34.199219 87.90625 34.167969 C 87.933594 34.136719 87.964844 34.105469 87.996094 34.078125 C 88.023438 34.046875 88.054688 34.015625 88.082031 33.984375 C 88.113281 33.957031 88.140625 33.925781 88.171875 33.894531 C 88.199219 33.863281 88.230469 33.835938 88.257812 33.804688 C 88.289062 33.773438 88.316406 33.746094 88.347656 33.714844 C 88.375 33.683594 88.40625 33.65625 88.433594 33.625 C 88.464844 33.59375 88.492188 33.566406 88.523438 33.535156 C 88.550781 33.503906 88.582031 33.476562 88.609375 33.445312 C 88.640625 33.417969 88.667969 33.386719 88.699219 33.355469 C 88.726562 33.328125 88.757812 33.296875 88.785156 33.269531 C 88.816406 33.238281 88.84375 33.207031 88.875 33.179688 C 88.90625 33.148438 88.933594 33.121094 88.964844 33.089844 C 88.992188 33.0625 89.023438 33.03125 89.050781 33.003906 C 89.082031 32.972656 89.109375 32.945312 89.140625 32.914062 C 89.167969 32.886719 89.199219 32.855469 89.226562 32.828125 C 89.257812 32.796875 89.285156 32.769531 89.316406 32.738281 C 89.34375 32.710938 89.375 32.679688 89.402344 32.652344 C 89.433594 32.621094 89.460938 32.59375 89.492188 32.5625 C 89.519531 32.535156 89.550781 32.507812 89.578125 32.476562 C 89.609375 32.449219 89.636719 32.417969 89.667969 32.390625 C 89.695312 32.363281 89.726562 32.332031 89.757812 32.304688 C 89.785156 32.273438 89.816406 32.246094 89.84375 32.21875 C 89.875 32.1875 89.902344 32.160156 89.933594 32.132812 C 89.960938 32.101562 89.992188 32.074219 90.019531 32.046875 C 90.050781 32.015625 90.078125 31.988281 90.109375 31.960938 C 90.136719 31.929688 90.167969 31.902344 90.195312 31.875 C 90.226562 31.847656 90.253906 31.816406 90.285156 31.789062 C 90.3125 31.761719 90.34375 31.734375 90.371094 31.703125 C 90.402344 31.675781 90.429688 31.648438 90.460938 31.621094 C 90.488281 31.589844 90.519531 31.5625 90.546875 31.535156 C 90.578125 31.507812 90.609375 31.480469 90.636719 31.453125 C 90.667969 31.421875 90.695312 31.394531 90.726562 31.367188 C 90.753906 31.339844 90.785156 31.3125 90.8125 31.285156 C 90.84375 31.257812 90.871094 31.226562 90.902344 31.199219 C 90.929688 31.171875 90.960938 31.144531 90.988281 31.117188 C 91.019531 31.089844 91.046875 31.0625 91.078125 31.035156 C 91.105469 31.007812 91.136719 30.980469 91.164062 30.953125 C 91.195312 30.925781 91.222656 30.894531 91.253906 30.867188 C 91.28125 30.839844 91.3125 30.8125 91.339844 30.785156 C 91.371094 30.757812 91.398438 30.730469 91.429688 30.703125 C 91.457031 30.675781 91.488281 30.648438 91.519531 30.625 C 91.546875 30.597656 91.578125 30.570312 91.605469 30.542969 C 91.636719 30.515625 91.664062 30.488281 91.695312 30.460938 C 91.722656 30.433594 91.753906 30.40625 91.78125 30.378906 C 91.8125 30.351562 91.839844 30.324219 91.871094 30.296875 C 91.898438 30.273438 91.929688 30.246094 91.957031 30.21875 C 91.988281 30.191406 92.015625 30.164062 92.046875 30.136719 C 92.074219 30.113281 92.105469 30.085938 92.132812 30.058594 C 92.164062 30.03125 92.191406 30.003906 92.222656 29.980469 C 92.25 29.953125 92.28125 29.925781 92.308594 29.898438 C 92.339844 29.871094 92.371094 29.847656 92.398438 29.820312 C 92.429688 29.792969 92.457031 29.765625 92.488281 29.742188 C 92.515625 29.714844 92.546875 29.6875 92.574219 29.664062 C 92.605469 29.636719 92.632812 29.609375 92.664062 29.585938 C 92.691406 29.558594 92.722656 29.53125 92.75 29.507812 C 92.78125 29.480469 92.808594 29.453125 92.839844 29.429688 C 92.867188 29.402344 92.898438 29.375 92.925781 29.351562 C 92.957031 29.324219 92.984375 29.300781 93.015625 29.273438 C 93.042969 29.25 93.074219 29.222656 93.101562 29.195312 C 93.132812 29.171875 93.160156 29.144531 93.191406 29.121094 C 93.222656 29.09375 93.25 29.070312 93.28125 29.042969 C 93.308594 29.019531 93.339844 28.992188 93.367188 28.96875 C 93.398438 28.941406 93.425781 28.917969 93.457031 28.890625 C 93.484375 28.867188 93.515625 28.839844 93.542969 28.816406 C 93.574219 28.789062 93.601562 28.765625 93.632812 28.742188 C 93.660156 28.714844 93.691406 28.691406 93.71875 28.664062 C 93.75 28.640625 93.777344 28.617188 93.808594 28.589844 C 93.835938 28.566406 93.867188 28.542969 93.894531 28.515625 C 93.925781 28.492188 93.953125 28.46875 93.984375 28.441406 C 94.011719 28.417969 94.042969 28.394531 94.070312 28.367188 C 94.101562 28.34375 94.132812 28.320312 94.160156 28.292969 C 94.191406 28.269531 94.21875 28.246094 94.25 28.222656 C 94.277344 28.195312 94.308594 28.171875 94.335938 28.148438 C 94.367188 28.125 94.394531 28.101562 94.425781 28.074219 C 94.453125 28.050781 94.484375 28.027344 94.511719 28.003906 C 94.542969 27.980469 94.570312 27.957031 94.601562 27.929688 C 94.628906 27.90625 94.660156 27.882812 94.6875 27.859375 C 94.71875 27.835938 94.746094 27.8125 94.777344 27.789062 C 94.804688 27.765625 94.835938 27.738281 94.863281 27.714844 C 94.894531 27.691406 94.921875 27.667969 94.953125 27.644531 C 94.984375 27.621094 95.011719 27.597656 95.042969 27.574219 C 95.070312 27.550781 95.101562 27.527344 95.128906 27.503906 C 95.160156 27.480469 95.1875 27.457031 95.21875 27.433594 C 95.246094 27.410156 95.277344 27.386719 95.304688 27.363281 C 95.335938 27.339844 95.363281 27.316406 95.394531 27.292969 C 95.421875 27.273438 95.453125 27.25 95.480469 27.226562 C 95.511719 27.203125 95.539062 27.179688 95.570312 27.15625 C 95.597656 27.132812 95.628906 27.109375 95.65625 27.089844 C 95.6875 27.066406 95.714844 27.042969 95.746094 27.019531 C 95.773438 26.996094 95.804688 26.972656 95.835938 26.953125 C 95.863281 26.929688 95.894531 26.90625 95.921875 26.882812 C 95.953125 26.863281 95.980469 26.839844 96.011719 26.816406 C 96.039062 26.792969 96.070312 26.773438 96.097656 26.75 C 96.128906 26.726562 96.15625 26.707031 96.1875 26.683594 C 96.214844 26.660156 96.246094 26.636719 96.273438 26.617188 C 96.304688 26.59375 96.332031 26.574219 96.363281 26.550781 C 96.390625 26.527344 96.421875 26.507812 96.449219 26.484375 C 96.480469 26.460938 96.507812 26.441406 96.539062 26.417969 C 96.566406 26.398438 96.597656 26.375 96.625 26.355469 C 96.65625 26.332031 96.683594 26.308594 96.714844 26.289062 C 96.746094 26.265625 96.773438 26.246094 96.804688 26.222656 C 96.832031 26.203125 96.863281 26.179688 96.890625 26.160156 C 96.921875 26.136719 96.949219 26.117188 96.980469 26.097656 C 97.007812 26.074219 97.039062 26.054688 97.066406 26.03125 C 97.097656 26.011719 97.125 25.988281 97.15625 25.96875 C 97.183594 25.949219 97.214844 25.925781 97.242188 25.90625 C 97.273438 25.886719 97.300781 25.863281 97.332031 25.84375 C 97.359375 25.824219 97.390625 25.800781 97.417969 25.78125 C 97.449219 25.761719 97.476562 25.738281 97.507812 25.71875 C 97.535156 25.699219 97.566406 25.679688 97.597656 25.65625 C 97.625 25.636719 97.65625 25.617188 97.683594 25.597656 C 97.714844 25.574219 97.742188 25.554688 97.773438 25.535156 C 97.800781 25.515625 97.832031 25.496094 97.859375 25.472656 C 97.890625 25.453125 97.917969 25.433594 97.949219 25.414062 C 97.976562 25.394531 98.007812 25.375 98.035156 25.355469 C 98.066406 25.332031 98.09375 25.3125 98.125 25.292969 C 98.152344 25.273438 98.183594 25.253906 98.210938 25.234375 C 98.242188 25.214844 98.269531 25.195312 98.300781 25.175781 C 98.328125 25.15625 98.359375 25.136719 98.386719 25.117188 C 98.417969 25.097656 98.449219 25.078125 98.476562 25.058594 C 98.507812 25.039062 98.535156 25.019531 98.566406 25 C 98.59375 24.980469 98.625 24.960938 98.652344 24.941406 C 98.683594 24.921875 98.710938 24.902344 98.742188 24.886719 C 98.769531 24.867188 98.800781 24.847656 98.828125 24.828125 C 98.859375 24.808594 98.886719 24.789062 98.917969 24.769531 C 98.945312 24.753906 98.976562 24.734375 99.003906 24.714844 C 99.035156 24.695312 99.0625 24.675781 99.09375 24.660156 C 99.121094 24.640625 99.152344 24.621094 99.179688 24.601562 C 99.210938 24.585938 99.238281 24.566406 99.269531 24.546875 C 99.296875 24.527344 99.328125 24.511719 99.359375 24.492188 C 99.386719 24.472656 99.417969 24.457031 99.445312 24.4375 C 99.476562 24.417969 99.503906 24.402344 99.535156 24.382812 C 99.5625 24.367188 99.59375 24.347656 99.621094 24.328125 C 99.652344 24.3125 99.679688 24.292969 99.710938 24.277344 C 99.738281 24.257812 99.769531 24.238281 99.796875 24.222656 C 99.828125 24.203125 99.855469 24.1875 99.886719 24.167969 C 99.914062 24.152344 99.945312 24.132812 99.972656 24.117188 C 100.003906 24.097656 100.03125 24.082031 100.0625 24.0625 C 100.089844 24.046875 100.121094 24.03125 100.148438 24.011719 C 100.179688 23.996094 100.210938 23.976562 100.238281 23.960938 C 100.269531 23.945312 100.296875 23.925781 100.328125 23.910156 C 100.355469 23.890625 100.386719 23.875 100.414062 23.859375 C 100.445312 23.839844 100.472656 23.824219 100.503906 23.808594 C 100.53125 23.792969 100.5625 23.773438 100.589844 23.757812 C 100.621094 23.742188 100.648438 23.722656 100.679688 23.707031 C 100.707031 23.691406 100.738281 23.675781 100.765625 23.660156 C 100.796875 23.640625 100.824219 23.625 100.855469 23.609375 C 100.882812 23.59375 100.914062 23.578125 100.941406 23.558594 C 100.972656 23.542969 101 23.527344 101.03125 23.511719 C 101.0625 23.496094 101.089844 23.480469 101.121094 23.464844 C 101.148438 23.449219 101.179688 23.433594 101.207031 23.417969 C 101.238281 23.398438 101.265625 23.382812 101.296875 23.367188 C 101.324219 23.351562 101.355469 23.335938 101.382812 23.320312 C 101.414062 23.304688 101.441406 23.289062 101.472656 23.273438 C 101.5 23.257812 101.53125 23.242188 101.558594 23.230469 C 101.589844 23.214844 101.617188 23.199219 101.648438 23.183594 C 101.675781 23.167969 101.707031 23.152344 101.734375 23.136719 C 101.765625 23.121094 101.792969 23.105469 101.824219 23.09375 C 101.851562 23.078125 101.882812 23.0625 101.910156 23.046875 C 101.941406 23.03125 101.972656 23.015625 102 23.003906 C 102.03125 22.988281 102.058594 22.972656 102.089844 22.957031 C 102.117188 22.945312 102.148438 22.929688 102.175781 22.914062 C 102.207031 22.898438 102.234375 22.886719 102.265625 22.871094 C 102.292969 22.855469 102.324219 22.84375 102.351562 22.828125 C 102.382812 22.8125 102.410156 22.800781 102.441406 22.785156 C 102.46875 22.769531 102.5 22.757812 102.527344 22.742188 C 102.558594 22.730469 102.585938 22.714844 102.617188 22.699219 C 102.644531 22.6875 102.675781 22.671875 102.703125 22.660156 C 102.734375 22.644531 102.761719 22.632812 102.792969 22.617188 C 102.824219 22.605469 102.851562 22.589844 102.882812 22.578125 C 102.910156 22.5625 102.941406 22.550781 102.96875 22.535156 C 103 22.523438 103.027344 22.511719 103.058594 22.496094 C 103.085938 22.484375 103.117188 22.46875 103.144531 22.457031 C 103.175781 22.445312 103.203125 22.429688 103.234375 22.417969 C 103.261719 22.40625 103.292969 22.390625 103.320312 22.378906 C 103.351562 22.367188 103.378906 22.351562 103.410156 22.339844 C 103.4375 22.328125 103.46875 22.3125 103.496094 22.300781 C 103.527344 22.289062 103.554688 22.277344 103.585938 22.261719 C 103.613281 22.25 103.644531 22.238281 103.675781 22.226562 C 103.703125 22.214844 103.734375 22.203125 103.761719 22.1875 C 103.792969 22.175781 103.820312 22.164062 103.851562 22.152344 C 103.878906 22.140625 103.910156 22.128906 103.9375 22.117188 C 103.96875 22.105469 103.996094 22.089844 104.027344 22.078125 C 104.054688 22.066406 104.085938 22.054688 104.113281 22.042969 C 104.144531 22.03125 104.171875 22.019531 104.203125 22.007812 C 104.230469 21.996094 104.261719 21.984375 104.289062 21.972656 C 104.320312 21.960938 104.347656 21.949219 104.378906 21.9375 C 104.40625 21.929688 104.4375 21.917969 104.464844 21.90625 C 104.496094 21.894531 104.523438 21.882812 104.554688 21.871094 C 104.585938 21.859375 104.613281 21.847656 104.644531 21.835938 C 104.671875 21.828125 104.703125 21.816406 104.730469 21.804688 C 104.761719 21.792969 104.789062 21.78125 104.820312 21.773438 C 104.847656 21.761719 104.878906 21.75 104.90625 21.738281 C 104.9375 21.730469 104.964844 21.71875 104.996094 21.707031 C 105.023438 21.699219 105.054688 21.6875 105.082031 21.675781 C 105.113281 21.667969 105.140625 21.65625 105.171875 21.644531 C 105.199219 21.636719 105.230469 21.625 105.257812 21.613281 C 105.289062 21.605469 105.316406 21.59375 105.347656 21.585938 C 105.375 21.574219 105.40625 21.5625 105.4375 21.554688 C 105.464844 21.542969 105.496094 21.535156 105.523438 21.523438 C 105.554688 21.515625 105.582031 21.503906 105.613281 21.496094 C 105.640625 21.484375 105.671875 21.476562 105.699219 21.464844 C 105.730469 21.457031 105.757812 21.449219 105.789062 21.4375 C 105.816406 21.429688 105.847656 21.417969 105.875 21.410156 C 105.90625 21.402344 105.933594 21.390625 105.964844 21.382812 C 105.992188 21.375 106.023438 21.363281 106.050781 21.355469 C 106.082031 21.347656 106.109375 21.335938 106.140625 21.328125 C 106.167969 21.320312 106.199219 21.308594 106.226562 21.300781 C 106.257812 21.292969 106.289062 21.285156 106.316406 21.277344 C 106.347656 21.265625 106.375 21.257812 106.40625 21.25 C 106.433594 21.242188 106.464844 21.234375 106.492188 21.222656 C 106.523438 21.214844 106.550781 21.207031 106.582031 21.199219 C 106.609375 21.191406 106.640625 21.183594 106.667969 21.175781 C 106.699219 21.167969 106.726562 21.160156 106.757812 21.152344 C 106.785156 21.140625 106.816406 21.132812 106.84375 21.125 C 106.875 21.117188 106.902344 21.109375 106.933594 21.101562 C 106.960938 21.09375 106.992188 21.089844 107.019531 21.082031 C 107.050781 21.074219 107.078125 21.066406 107.109375 21.058594 C 107.136719 21.050781 107.167969 21.042969 107.199219 21.035156 C 107.226562 21.027344 107.257812 21.019531 107.285156 21.011719 C 107.316406 21.007812 107.34375 21 107.375 20.992188 C 107.402344 20.984375 107.433594 20.976562 107.460938 20.972656 C 107.492188 20.964844 107.519531 20.957031 107.550781 20.949219 C 107.578125 20.945312 107.609375 20.9375 107.636719 20.929688 C 107.667969 20.921875 107.695312 20.917969 107.726562 20.910156 C 107.753906 20.902344 107.785156 20.898438 107.8125 20.890625 C 107.84375 20.882812 107.871094 20.878906 107.902344 20.871094 C 107.929688 20.863281 107.960938 20.859375 107.988281 20.851562 C 108.019531 20.847656 108.050781 20.839844 108.078125 20.835938 C 108.109375 20.828125 108.136719 20.820312 108.167969 20.816406 C 108.195312 20.808594 108.226562 20.804688 108.253906 20.796875 C 108.285156 20.792969 108.3125 20.789062 108.34375 20.78125 C 108.371094 20.777344 108.402344 20.769531 108.429688 20.765625 C 108.460938 20.757812 108.488281 20.753906 108.519531 20.75 C 108.546875 20.742188 108.578125 20.738281 108.605469 20.734375 C 108.636719 20.726562 108.664062 20.722656 108.695312 20.71875 C 108.722656 20.710938 108.753906 20.707031 108.78125 20.703125 C 108.8125 20.695312 108.839844 20.691406 108.871094 20.6875 C 108.902344 20.683594 108.929688 20.675781 108.960938 20.671875 C 108.988281 20.667969 109.019531 20.664062 109.046875 20.660156 C 109.078125 20.652344 109.105469 20.648438 109.136719 20.644531 C 109.164062 20.640625 109.195312 20.636719 109.222656 20.632812 C 109.253906 20.628906 109.28125 20.621094 109.3125 20.617188 C 109.339844 20.613281 109.371094 20.609375 109.398438 20.605469 C 109.429688 20.601562 109.457031 20.597656 109.488281 20.59375 C 109.515625 20.589844 109.546875 20.585938 109.574219 20.582031 C 109.605469 20.578125 109.632812 20.574219 109.664062 20.570312 C 109.691406 20.566406 109.722656 20.5625 109.75 20.558594 C 109.78125 20.558594 109.8125 20.554688 109.839844 20.550781 C 109.871094 20.546875 109.898438 20.542969 109.929688 20.539062 C 109.957031 20.535156 109.988281 20.535156 110.015625 20.53125 C 110.046875 20.527344 110.074219 20.523438 110.105469 20.519531 C 110.132812 20.519531 110.164062 20.515625 110.191406 20.511719 C 110.222656 20.507812 110.25 20.507812 110.28125 20.503906 C 110.308594 20.5 110.339844 20.5 110.367188 20.496094 C 110.398438 20.492188 110.425781 20.492188 110.457031 20.488281 C 110.484375 20.484375 110.515625 20.484375 110.542969 20.480469 C 110.574219 20.476562 110.601562 20.476562 110.632812 20.472656 C 110.664062 20.472656 110.691406 20.46875 110.722656 20.46875 C 110.75 20.464844 110.78125 20.464844 110.808594 20.460938 C 110.839844 20.460938 110.867188 20.457031 110.898438 20.457031 C 110.925781 20.453125 110.957031 20.453125 110.984375 20.449219 C 111.015625 20.449219 111.042969 20.445312 111.074219 20.445312 C 111.101562 20.445312 111.132812 20.441406 111.160156 20.441406 C 111.191406 20.441406 111.21875 20.4375 111.25 20.4375 C 111.277344 20.4375 111.308594 20.433594 111.335938 20.433594 C 111.367188 20.433594 111.394531 20.429688 111.425781 20.429688 C 111.453125 20.429688 111.484375 20.429688 111.515625 20.425781 C 111.542969 20.425781 111.574219 20.425781 111.601562 20.425781 C 111.632812 20.425781 111.660156 20.421875 111.691406 20.421875 C 111.71875 20.421875 111.75 20.421875 111.777344 20.421875 C 111.808594 20.421875 111.835938 20.417969 111.867188 20.417969 C 111.894531 20.417969 111.925781 20.417969 111.953125 20.417969 C 111.984375 20.417969 112.011719 20.417969 112.042969 20.417969 C 112.070312 20.417969 112.101562 20.417969 112.128906 20.417969 C 112.160156 20.417969 112.1875 20.417969 112.21875 20.417969 C 112.246094 20.417969 112.277344 20.417969 112.304688 20.417969 C 112.335938 20.417969 112.363281 20.417969 112.394531 20.421875 C 112.425781 20.421875 112.453125 20.421875 112.484375 20.421875 C 112.511719 20.421875 112.542969 20.421875 112.570312 20.421875 C 112.601562 20.425781 112.628906 20.425781 112.660156 20.425781 C 112.6875 20.425781 112.71875 20.425781 112.746094 20.429688 C 112.777344 20.429688 112.804688 20.429688 112.835938 20.429688 C 112.863281 20.433594 112.894531 20.433594 112.921875 20.433594 C 112.953125 20.4375 112.980469 20.4375 113.011719 20.4375 C 113.039062 20.441406 113.070312 20.441406 113.097656 20.441406 C 113.128906 20.445312 113.15625 20.445312 113.1875 20.449219 C 113.214844 20.449219 113.246094 20.453125 113.277344 20.453125 C 113.304688 20.453125 113.335938 20.457031 113.363281 20.457031 C 113.394531 20.460938 113.421875 20.460938 113.453125 20.464844 C 113.480469 20.464844 113.511719 20.46875 113.539062 20.46875 C 113.570312 20.472656 113.597656 20.476562 113.628906 20.476562 C 113.65625 20.480469 113.6875 20.480469 113.714844 20.484375 C 113.746094 20.488281 113.773438 20.488281 113.804688 20.492188 C 113.832031 20.496094 113.863281 20.496094 113.890625 20.5 C 113.921875 20.503906 113.949219 20.503906 113.980469 20.507812 C 114.007812 20.511719 114.039062 20.515625 114.066406 20.515625 C 114.097656 20.519531 114.128906 20.523438 114.15625 20.527344 C 114.1875 20.527344 114.214844 20.53125 114.246094 20.535156 C 114.273438 20.539062 114.304688 20.542969 114.332031 20.546875 C 114.363281 20.546875 114.390625 20.550781 114.421875 20.554688 C 114.449219 20.558594 114.480469 20.5625 114.507812 20.566406 C 114.539062 20.570312 114.566406 20.574219 114.597656 20.578125 C 114.625 20.582031 114.65625 20.585938 114.683594 20.589844 C 114.714844 20.59375 114.742188 20.597656 114.773438 20.601562 C 114.800781 20.605469 114.832031 20.609375 114.859375 20.613281 C 114.890625 20.617188 114.917969 20.621094 114.949219 20.625 C 114.976562 20.628906 115.007812 20.632812 115.039062 20.636719 C 115.066406 20.640625 115.097656 20.648438 115.125 20.652344 C 115.15625 20.65625 115.183594 20.660156 115.214844 20.664062 C 115.242188 20.671875 115.273438 20.675781 115.300781 20.679688 C 115.332031 20.683594 115.359375 20.6875 115.390625 20.695312 C 115.417969 20.699219 115.449219 20.703125 115.476562 20.710938 C 115.507812 20.714844 115.535156 20.71875 115.566406 20.722656 C 115.59375 20.730469 115.625 20.734375 115.652344 20.742188 C 115.683594 20.746094 115.710938 20.75 115.742188 20.757812 C 115.769531 20.761719 115.800781 20.765625 115.828125 20.773438 C 115.859375 20.777344 115.890625 20.785156 115.917969 20.789062 C 115.949219 20.796875 115.976562 20.800781 116.007812 20.808594 C 116.035156 20.8125 116.066406 20.820312 116.09375 20.824219 C 116.125 20.832031 116.152344 20.835938 116.183594 20.84375 C 116.210938 20.847656 116.242188 20.855469 116.269531 20.863281 C 116.300781 20.867188 116.328125 20.875 116.359375 20.882812 C 116.386719 20.886719 116.417969 20.894531 116.445312 20.898438 C 116.476562 20.90625 116.503906 20.914062 116.535156 20.917969 C 116.5625 20.925781 116.59375 20.933594 116.621094 20.941406 C 116.652344 20.945312 116.679688 20.953125 116.710938 20.960938 C 116.742188 20.96875 116.769531 20.972656 116.800781 20.980469 C 116.828125 20.988281 116.859375 20.996094 116.886719 21.003906 C 116.917969 21.011719 116.945312 21.015625 116.976562 21.023438 C 117.003906 21.03125 117.035156 21.039062 117.0625 21.046875 C 117.09375 21.054688 117.121094 21.0625 117.152344 21.070312 C 117.179688 21.078125 117.210938 21.085938 117.238281 21.089844 C 117.269531 21.097656 117.296875 21.105469 117.328125 21.113281 C 117.355469 21.121094 117.386719 21.128906 117.414062 21.136719 C 117.445312 21.148438 117.472656 21.15625 117.503906 21.164062 C 117.53125 21.171875 117.5625 21.179688 117.589844 21.1875 C 117.621094 21.195312 117.652344 21.203125 117.679688 21.210938 C 117.710938 21.21875 117.738281 21.230469 117.769531 21.238281 C 117.796875 21.246094 117.828125 21.253906 117.855469 21.261719 C 117.886719 21.269531 117.914062 21.28125 117.945312 21.289062 C 117.972656 21.296875 118.003906 21.304688 118.03125 21.316406 C 118.0625 21.324219 118.089844 21.332031 118.121094 21.339844 C 118.148438 21.351562 118.179688 21.359375 118.207031 21.367188 C 118.238281 21.378906 118.265625 21.386719 118.296875 21.394531 C 118.324219 21.40625 118.355469 21.414062 118.382812 21.425781 C 118.414062 21.433594 118.441406 21.441406 118.472656 21.453125 C 118.503906 21.460938 118.53125 21.472656 118.5625 21.480469 C 118.589844 21.492188 118.621094 21.5 118.648438 21.511719 C 118.679688 21.519531 118.707031 21.53125 118.738281 21.539062 C 118.765625 21.550781 118.796875 21.558594 118.824219 21.570312 C 118.855469 21.578125 118.882812 21.589844 118.914062 21.597656 C 118.941406 21.609375 118.972656 21.621094 119 21.628906 C 119.03125 21.640625 119.058594 21.652344 119.089844 21.660156 C 119.117188 21.671875 119.148438 21.683594 119.175781 21.691406 C 119.207031 21.703125 119.234375 21.714844 119.265625 21.722656 C 119.292969 21.734375 119.324219 21.746094 119.355469 21.757812 C 119.382812 21.765625 119.414062 21.777344 119.441406 21.789062 "/>
<path style="fill-rule:nonzero;fill:rgb(0%,0%,100%);fill-opacity:1;stroke-width:0.8;stroke-linecap:round;stroke-linejoin:round;stroke:rgb(0%,0%,50.195312%);stroke-opacity:1;stroke-miterlimit:4;" d="M -74.289062 -48.417969 C -74.289062 -47.78125 -74.804688 -47.265625 -75.441406 -47.265625 C -76.078125 -47.265625 -76.59375 -47.78125 -76.59375 -48.417969 C -76.59375 -49.050781 -76.078125 -49.566406 -75.441406 -49.566406 C -74.804688 -49.566406 -74.289062 -49.050781 -74.289062 -48.417969 Z M -74.289062 -48.417969 " transform="matrix(-1,0,0,-1,0,0)"/>
<use xlink:href="#surface10" transform="matrix(1,0,0,1,67,20)" mask="url(#mask0)"/>
<path style="fill:none;stroke-width:0.8;stroke-linecap:round;stroke-linejoin:bevel;stroke:rgb(100%,0%,0%);stroke-opacity:1;stroke-dasharray:1.6,1.6;stroke-miterlimit:4;" d="M 67.441406 40.417969 L 83.441406 40.417969 L 83.441406 56.417969 L 67.441406 56.417969 Z M 67.441406 40.417969 "/>
<path style="fill:none;stroke-width:0.8;stroke-linecap:round;stroke-linejoin:miter;stroke:rgb(100%,0%,0%);stroke-opacity:1;stroke-dasharray:1.6,1.6;stroke-miterlimit:4;" d="M 83.441406 56.417969 L 187.441406 76.417969 "/>
<path style="fill:none;stroke-width:0.8;stroke-linecap:round;stroke-linejoin:miter;stroke:rgb(100%,0%,0%);stroke-opacity:1;stroke-dasharray:1.6,1.6;stroke-miterlimit:4;" d="M 67.441406 40.417969 L 131.441406 20.417969 "/>
<path style="fill:none;stroke-width:0.8;stroke-linecap:round;stroke-linejoin:miter;stroke:rgb(100%,0%,0%);stroke-opacity:1;stroke-dasharray:1.6,1.6;stroke-miterlimit:4;" d="M 83.441406 40.417969 L 187.441406 20.417969 "/>
<path style="fill:none;stroke-width:0.8;stroke-linecap:round;stroke-linejoin:miter;stroke:rgb(100%,0%,0%);stroke-opacity:1;stroke-dasharray:1.6,1.6;stroke-miterlimit:4;" d="M 67.851562 56.460938 L 131.441406 76.417969 "/>
<path style="fill-rule:nonzero;fill:rgb(100%,100%,100%);fill-opacity:1;stroke-width:0.8;stroke-linecap:round;stroke-linejoin:bevel;stroke:rgb(100%,0%,0%);stroke-opacity:1;stroke-dasharray:1.6,1.6;stroke-miterlimit:4;" d="M 131.375 20.394531 L 187.375 20.394531 L 187.375 76.394531 L 131.375 76.394531 Z M 131.375 20.394531 "/>
<path style="fill:none;stroke-width:1.6;stroke-linecap:round;stroke-linejoin:miter;stroke:rgb(0%,0%,0%);stroke-opacity:1;stroke-miterlimit:4;" d="M 131.375 72.394531 L 187.375 24.394531 "/>
<path style="fill:none;stroke-width:1.6;stroke-linecap:round;stroke-linejoin:round;stroke:rgb(0%,0%,50.195312%);stroke-opacity:1;stroke-miterlimit:4;" d="M 131.375 76.394531 L 187.375 20.394531 "/>
<path style="fill-rule:nonzero;fill:rgb(0%,0%,100%);fill-opacity:1;stroke-width:0.8;stroke-linecap:round;stroke-linejoin:round;stroke:rgb(0%,0%,50.195312%);stroke-opacity:1;stroke-miterlimit:4;" d="M -158.226562 -48.382812 C -158.226562 -47.746094 -158.742188 -47.230469 -159.375 -47.230469 C -160.011719 -47.230469 -160.527344 -47.746094 -160.527344 -48.382812 C -160.527344 -49.019531 -160.011719 -49.535156 -159.375 -49.535156 C -158.742188 -49.535156 -158.226562 -49.019531 -158.226562 -48.382812 Z M -158.226562 -48.382812 " transform="matrix(-1,0,0,-1,0,0)"/>
<use xlink:href="#surface11" transform="matrix(1,0,0,1,151,20)" mask="url(#mask1)"/>
<path style="fill:none;stroke-width:0.8;stroke-linecap:round;stroke-linejoin:bevel;stroke:rgb(100%,0%,0%);stroke-opacity:1;stroke-dasharray:1.6,1.6;stroke-miterlimit:4;" d="M 151.375 40.394531 L 167.375 40.394531 L 167.375 56.394531 L 151.375 56.394531 Z M 151.375 40.394531 "/>
<g clip-path="url(#clip6)" clip-rule="nonzero">
<path style="fill:none;stroke-width:0.8;stroke-linecap:round;stroke-linejoin:miter;stroke:rgb(100%,0%,0%);stroke-opacity:1;stroke-dasharray:1.6,1.6;stroke-miterlimit:4;" d="M 167.375 56.394531 L 271.375 76.394531 "/>
</g>
<path style="fill:none;stroke-width:0.8;stroke-linecap:round;stroke-linejoin:miter;stroke:rgb(100%,0%,0%);stroke-opacity:1;stroke-dasharray:1.6,1.6;stroke-miterlimit:4;" d="M 151.375 40.394531 L 215.375 20.394531 "/>
<g clip-path="url(#clip7)" clip-rule="nonzero">
<path style="fill:none;stroke-width:0.8;stroke-linecap:round;stroke-linejoin:miter;stroke:rgb(100%,0%,0%);stroke-opacity:1;stroke-dasharray:1.6,1.6;stroke-miterlimit:4;" d="M 167.375 40.394531 L 271.375 20.394531 "/>
</g>
<path style="fill-rule:nonzero;fill:rgb(100%,100%,100%);fill-opacity:1;stroke-width:0.8;stroke-linecap:round;stroke-linejoin:bevel;stroke:rgb(100%,0%,0%);stroke-opacity:1;stroke-dasharray:1.6,1.6;stroke-miterlimit:4;" d="M 215.390625 20.386719 L 271.390625 20.386719 L 271.390625 76.386719 L 215.390625 76.386719 Z M 215.390625 20.386719 "/>
<path style="fill:none;stroke-width:0.8;stroke-linecap:round;stroke-linejoin:miter;stroke:rgb(100%,0%,0%);stroke-opacity:1;stroke-dasharray:1.6,1.6;stroke-miterlimit:4;" d="M 151.375 56.394531 L 215.375 76.394531 "/>
<g clip-path="url(#clip8)" clip-rule="nonzero">
<path style="fill:none;stroke-width:1.6;stroke-linecap:round;stroke-linejoin:miter;stroke:rgb(0%,0%,0%);stroke-opacity:1;stroke-miterlimit:4;" d="M 215.375 74.796875 L 243.375 48.394531 L 271.375 21.996094 "/>
</g>
<g clip-path="url(#clip9)" clip-rule="nonzero">
<path style="fill:none;stroke-width:1.6;stroke-linecap:round;stroke-linejoin:round;stroke:rgb(0%,0%,50.195312%);stroke-opacity:1;stroke-miterlimit:4;" d="M 215.375 76.394531 L 271.375 20.394531 "/>
</g>
<path style="fill-rule:nonzero;fill:rgb(0%,0%,100%);fill-opacity:1;stroke-width:0.8;stroke-linecap:round;stroke-linejoin:round;stroke:rgb(0%,0%,50.195312%);stroke-opacity:1;stroke-miterlimit:4;" d="M -242.199219 -48.433594 C -242.199219 -47.796875 -242.714844 -47.28125 -243.351562 -47.28125 C -243.988281 -47.28125 -244.503906 -47.796875 -244.503906 -48.433594 C -244.503906 -49.070312 -243.988281 -49.585938 -243.351562 -49.585938 C -242.714844 -49.585938 -242.199219 -49.070312 -242.199219 -48.433594 Z M -242.199219 -48.433594 " transform="matrix(-1,0,0,-1,0,0)"/>
</g>
</svg>
