<?xml version="1.0" encoding="UTF-8"?>
<svg xmlns="http://www.w3.org/2000/svg" xmlns:xlink="http://www.w3.org/1999/xlink" width="235.501114pt" height="101.426872pt" viewBox="0 0 235.501114 101.426872" version="1.1">
<defs>
<clipPath id="clip1">
  <path d="M 171 71 L 235.5 71 L 235.5 79 L 171 79 Z M 171 71 "/>
</clipPath>
<clipPath id="clip2">
  <path d="M 12 4 L 14 4 L 14 101.425781 L 12 101.425781 Z M 12 4 "/>
</clipPath>
<clipPath id="clip3">
  <path d="M 142 4 L 144 4 L 144 101.425781 L 142 101.425781 Z M 142 4 "/>
</clipPath>
</defs>
<g id="surface1">
<path style="fill:none;stroke-width:0.8;stroke-linecap:butt;stroke-linejoin:miter;stroke:rgb(0%,0%,0%);stroke-opacity:1;stroke-miterlimit:4;" d="M 145.578125 80.46875 C 145.578125 80.46875 153.914062 84.894531 171.085938 64.441406 C 188.257812 43.988281 194.820312 13.835938 194.753906 8.894531 C 194.6875 3.953125 190.121094 2.636719 188.09375 2.601562 "/>
<path style="fill:none;stroke-width:0.8;stroke-linecap:butt;stroke-linejoin:miter;stroke:rgb(0%,0%,0%);stroke-opacity:1;stroke-miterlimit:4;" d="M 14.898438 81.828125 C 14.898438 81.828125 23.234375 86.253906 40.40625 65.800781 C 57.574219 45.347656 64.136719 14.742188 64.070312 10.253906 C 64.007812 5.769531 59.898438 4.910156 57.871094 4.871094 "/>
<path style=" stroke:none;fill-rule:nonzero;fill:rgb(0%,0%,0%);fill-opacity:1;" d="M 52.84375 66.488281 L 57.15625 66.488281 L 57.15625 67.082031 L 55.34375 67.082031 L 55.34375 71.597656 L 54.65625 71.597656 L 54.65625 67.082031 L 52.84375 67.082031 Z M 58.472656 69.675781 C 57.960938 69.675781 57.605469 69.734375 57.410156 69.847656 C 57.210938 69.964844 57.113281 70.164062 57.113281 70.441406 C 57.113281 70.660156 57.183594 70.839844 57.332031 70.972656 C 57.476562 71.109375 57.679688 71.175781 57.941406 71.175781 C 58.28125 71.175781 58.558594 71.050781 58.769531 70.800781 C 58.984375 70.554688 59.097656 70.222656 59.097656 69.816406 L 59.097656 69.675781 Z M 59.722656 69.410156 L 59.722656 71.597656 L 59.097656 71.597656 L 59.097656 71.019531 C 58.949219 71.25 58.765625 71.421875 58.550781 71.535156 C 58.339844 71.636719 58.078125 71.691406 57.769531 71.691406 C 57.371094 71.691406 57.058594 71.582031 56.832031 71.363281 C 56.601562 71.148438 56.488281 70.855469 56.488281 70.488281 C 56.488281 70.054688 56.628906 69.722656 56.910156 69.503906 C 57.199219 69.289062 57.632812 69.175781 58.207031 69.175781 L 59.097656 69.175781 L 59.097656 69.113281 C 59.097656 68.835938 58.996094 68.613281 58.800781 68.457031 C 58.613281 68.292969 58.34375 68.207031 58.003906 68.207031 C 57.785156 68.207031 57.570312 68.234375 57.363281 68.285156 C 57.152344 68.339844 56.953125 68.417969 56.769531 68.519531 L 56.769531 67.941406 C 56.996094 67.859375 57.222656 67.796875 57.441406 67.753906 C 57.65625 67.703125 57.867188 67.675781 58.066406 67.675781 C 58.617188 67.675781 59.027344 67.824219 59.300781 68.113281 C 59.578125 68.394531 59.722656 68.828125 59.722656 69.410156 Z M 64.328125 69.285156 L 64.328125 71.597656 L 63.703125 71.597656 L 63.703125 69.300781 C 63.703125 68.949219 63.628906 68.683594 63.484375 68.503906 C 63.347656 68.320312 63.132812 68.222656 62.84375 68.222656 C 62.507812 68.222656 62.242188 68.335938 62.046875 68.550781 C 61.847656 68.769531 61.75 69.070312 61.75 69.441406 L 61.75 71.597656 L 61.125 71.597656 L 61.125 67.769531 L 61.75 67.769531 L 61.75 68.363281 C 61.902344 68.136719 62.082031 67.964844 62.28125 67.847656 C 62.488281 67.734375 62.722656 67.675781 62.984375 67.675781 C 63.429688 67.675781 63.765625 67.8125 63.984375 68.082031 C 64.210938 68.355469 64.328125 68.757812 64.328125 69.285156 Z M 68.226562 69.644531 C 68.226562 69.1875 68.128906 68.832031 67.945312 68.582031 C 67.757812 68.335938 67.496094 68.207031 67.164062 68.207031 C 66.820312 68.207031 66.550781 68.335938 66.367188 68.582031 C 66.179688 68.832031 66.085938 69.1875 66.085938 69.644531 C 66.085938 70.09375 66.179688 70.445312 66.367188 70.691406 C 66.550781 70.941406 66.820312 71.066406 67.164062 71.066406 C 67.496094 71.066406 67.757812 70.941406 67.945312 70.691406 C 68.128906 70.445312 68.226562 70.09375 68.226562 69.644531 Z M 68.867188 71.128906 C 68.867188 71.773438 68.71875 72.253906 68.429688 72.566406 C 68.136719 72.886719 67.691406 73.050781 67.101562 73.050781 C 66.882812 73.050781 66.671875 73.03125 66.476562 73.003906 C 66.277344 72.972656 66.082031 72.917969 65.898438 72.847656 L 65.898438 72.238281 C 66.082031 72.339844 66.265625 72.414062 66.445312 72.457031 C 66.628906 72.507812 66.8125 72.535156 66.992188 72.535156 C 67.40625 72.535156 67.714844 72.421875 67.914062 72.207031 C 68.121094 71.996094 68.226562 71.671875 68.226562 71.238281 L 68.226562 70.925781 C 68.101562 71.15625 67.933594 71.328125 67.726562 71.441406 C 67.527344 71.546875 67.285156 71.597656 67.007812 71.597656 C 66.539062 71.597656 66.15625 71.421875 65.867188 71.066406 C 65.585938 70.703125 65.445312 70.230469 65.445312 69.644531 C 65.445312 69.054688 65.585938 68.578125 65.867188 68.222656 C 66.15625 67.859375 66.539062 67.675781 67.007812 67.675781 C 67.285156 67.675781 67.527344 67.734375 67.726562 67.847656 C 67.933594 67.964844 68.101562 68.132812 68.226562 68.347656 L 68.226562 67.769531 L 68.867188 67.769531 Z M 73.5625 69.519531 L 73.5625 69.832031 L 70.671875 69.832031 C 70.691406 70.269531 70.816406 70.605469 71.046875 70.832031 C 71.285156 71.050781 71.613281 71.160156 72.03125 71.160156 C 72.269531 71.160156 72.503906 71.136719 72.734375 71.082031 C 72.960938 71.023438 73.1875 70.925781 73.40625 70.800781 L 73.40625 71.410156 C 73.1875 71.503906 72.957031 71.574219 72.71875 71.613281 C 72.476562 71.664062 72.238281 71.691406 72 71.691406 C 71.382812 71.691406 70.898438 71.515625 70.546875 71.160156 C 70.191406 70.808594 70.015625 70.328125 70.015625 69.722656 C 70.015625 69.101562 70.179688 68.605469 70.515625 68.238281 C 70.855469 67.867188 71.316406 67.675781 71.890625 67.675781 C 72.398438 67.675781 72.804688 67.84375 73.109375 68.175781 C 73.410156 68.511719 73.5625 68.960938 73.5625 69.519531 Z M 72.9375 69.347656 C 72.925781 69.007812 72.824219 68.730469 72.640625 68.519531 C 72.453125 68.3125 72.199219 68.207031 71.890625 68.207031 C 71.546875 68.207031 71.261719 68.308594 71.046875 68.503906 C 70.835938 68.703125 70.714844 68.984375 70.6875 69.347656 Z M 77.898438 69.285156 L 77.898438 71.597656 L 77.273438 71.597656 L 77.273438 69.300781 C 77.273438 68.949219 77.199219 68.683594 77.054688 68.503906 C 76.917969 68.320312 76.703125 68.222656 76.414062 68.222656 C 76.078125 68.222656 75.8125 68.335938 75.617188 68.550781 C 75.417969 68.769531 75.320312 69.070312 75.320312 69.441406 L 75.320312 71.597656 L 74.695312 71.597656 L 74.695312 67.769531 L 75.320312 67.769531 L 75.320312 68.363281 C 75.472656 68.136719 75.652344 67.964844 75.851562 67.847656 C 76.058594 67.734375 76.292969 67.675781 76.554688 67.675781 C 77 67.675781 77.335938 67.8125 77.554688 68.082031 C 77.78125 68.355469 77.898438 68.757812 77.898438 69.285156 Z M 79.90625 66.675781 L 79.90625 67.769531 L 81.203125 67.769531 L 81.203125 68.253906 L 79.90625 68.253906 L 79.90625 70.332031 C 79.90625 70.644531 79.945312 70.851562 80.03125 70.941406 C 80.113281 71.027344 80.289062 71.066406 80.5625 71.066406 L 81.203125 71.066406 L 81.203125 71.597656 L 80.5625 71.597656 C 80.070312 71.597656 79.730469 71.511719 79.546875 71.332031 C 79.367188 71.148438 79.28125 70.8125 79.28125 70.332031 L 79.28125 68.253906 L 78.8125 68.253906 L 78.8125 67.769531 L 79.28125 67.769531 L 79.28125 66.675781 Z M 85.023438 66.675781 L 85.023438 67.769531 L 86.320312 67.769531 L 86.320312 68.253906 L 85.023438 68.253906 L 85.023438 70.332031 C 85.023438 70.644531 85.0625 70.851562 85.148438 70.941406 C 85.230469 71.027344 85.40625 71.066406 85.679688 71.066406 L 86.320312 71.066406 L 86.320312 71.597656 L 85.679688 71.597656 C 85.1875 71.597656 84.847656 71.511719 84.664062 71.332031 C 84.484375 71.148438 84.398438 70.8125 84.398438 70.332031 L 84.398438 68.253906 L 83.929688 68.253906 L 83.929688 67.769531 L 84.398438 67.769531 L 84.398438 66.675781 Z M 88.710938 68.207031 C 88.375 68.207031 88.109375 68.34375 87.914062 68.613281 C 87.714844 68.875 87.617188 69.234375 87.617188 69.691406 C 87.617188 70.152344 87.714844 70.511719 87.914062 70.769531 C 88.109375 71.03125 88.375 71.160156 88.710938 71.160156 C 89.042969 71.160156 89.308594 71.03125 89.507812 70.769531 C 89.703125 70.5 89.804688 70.140625 89.804688 69.691406 C 89.804688 69.234375 89.703125 68.875 89.507812 68.613281 C 89.308594 68.34375 89.042969 68.207031 88.710938 68.207031 Z M 88.710938 67.675781 C 89.261719 67.675781 89.695312 67.855469 90.007812 68.207031 C 90.316406 68.5625 90.476562 69.058594 90.476562 69.691406 C 90.476562 70.316406 90.316406 70.808594 90.007812 71.160156 C 89.695312 71.515625 89.261719 71.691406 88.710938 71.691406 C 88.15625 71.691406 87.722656 71.515625 87.414062 71.160156 C 87.109375 70.808594 86.960938 70.316406 86.960938 69.691406 C 86.960938 69.058594 87.109375 68.5625 87.414062 68.207031 C 87.722656 67.855469 88.15625 67.675781 88.710938 67.675781 Z M 94.542969 66.675781 L 94.542969 67.769531 L 95.839844 67.769531 L 95.839844 68.253906 L 94.542969 68.253906 L 94.542969 70.332031 C 94.542969 70.644531 94.582031 70.851562 94.667969 70.941406 C 94.75 71.027344 94.925781 71.066406 95.199219 71.066406 L 95.839844 71.066406 L 95.839844 71.597656 L 95.199219 71.597656 C 94.707031 71.597656 94.367188 71.511719 94.183594 71.332031 C 94.003906 71.148438 93.917969 70.8125 93.917969 70.332031 L 93.917969 68.253906 L 93.449219 68.253906 L 93.449219 67.769531 L 93.917969 67.769531 L 93.917969 66.675781 Z M 99.933594 69.285156 L 99.933594 71.597656 L 99.308594 71.597656 L 99.308594 69.300781 C 99.308594 68.949219 99.234375 68.683594 99.089844 68.503906 C 98.953125 68.320312 98.738281 68.222656 98.449219 68.222656 C 98.113281 68.222656 97.847656 68.335938 97.652344 68.550781 C 97.453125 68.769531 97.355469 69.070312 97.355469 69.441406 L 97.355469 71.597656 L 96.730469 71.597656 L 96.730469 66.285156 L 97.355469 66.285156 L 97.355469 68.363281 C 97.507812 68.136719 97.6875 67.964844 97.886719 67.847656 C 98.09375 67.734375 98.328125 67.675781 98.589844 67.675781 C 99.035156 67.675781 99.371094 67.8125 99.589844 68.082031 C 99.816406 68.355469 99.933594 68.757812 99.933594 69.285156 Z M 104.597656 69.519531 L 104.597656 69.832031 L 101.707031 69.832031 C 101.726562 70.269531 101.851562 70.605469 102.082031 70.832031 C 102.320312 71.050781 102.648438 71.160156 103.066406 71.160156 C 103.304688 71.160156 103.539062 71.136719 103.769531 71.082031 C 103.996094 71.023438 104.222656 70.925781 104.441406 70.800781 L 104.441406 71.410156 C 104.222656 71.503906 103.992188 71.574219 103.753906 71.613281 C 103.511719 71.664062 103.273438 71.691406 103.035156 71.691406 C 102.417969 71.691406 101.933594 71.515625 101.582031 71.160156 C 101.226562 70.808594 101.050781 70.328125 101.050781 69.722656 C 101.050781 69.101562 101.214844 68.605469 101.550781 68.238281 C 101.890625 67.867188 102.351562 67.675781 102.925781 67.675781 C 103.433594 67.675781 103.839844 67.84375 104.144531 68.175781 C 104.445312 68.511719 104.597656 68.960938 104.597656 69.519531 Z M 103.972656 69.347656 C 103.960938 69.007812 103.859375 68.730469 103.675781 68.519531 C 103.488281 68.3125 103.234375 68.207031 102.925781 68.207031 C 102.582031 68.207031 102.296875 68.308594 102.082031 68.503906 C 101.871094 68.703125 101.75 68.984375 101.722656 69.347656 Z M 103.972656 69.347656 "/>
<path style=" stroke:none;fill-rule:nonzero;fill:rgb(0%,0%,0%);fill-opacity:1;" d="M 56.28125 76.910156 L 56.28125 77.503906 C 56.09375 77.414062 55.910156 77.339844 55.734375 77.285156 C 55.554688 77.234375 55.378906 77.207031 55.203125 77.207031 C 54.785156 77.207031 54.460938 77.339844 54.234375 77.597656 C 54.015625 77.859375 53.90625 78.226562 53.90625 78.691406 C 53.90625 79.160156 54.015625 79.527344 54.234375 79.785156 C 54.460938 80.035156 54.785156 80.160156 55.203125 80.160156 C 55.378906 80.160156 55.554688 80.140625 55.734375 80.097656 C 55.910156 80.046875 56.09375 79.96875 56.28125 79.863281 L 56.28125 80.457031 C 56.101562 80.53125 55.917969 80.589844 55.734375 80.628906 C 55.546875 80.667969 55.339844 80.691406 55.125 80.691406 C 54.550781 80.691406 54.089844 80.515625 53.75 80.160156 C 53.414062 79.796875 53.25 79.308594 53.25 78.691406 C 53.25 78.070312 53.421875 77.578125 53.765625 77.222656 C 54.105469 76.859375 54.578125 76.675781 55.171875 76.675781 C 55.355469 76.675781 55.546875 76.699219 55.734375 76.738281 C 55.917969 76.78125 56.101562 76.839844 56.28125 76.910156 Z M 57.421875 79.082031 L 57.421875 76.769531 L 58.046875 76.769531 L 58.046875 79.066406 C 58.046875 79.433594 58.113281 79.703125 58.25 79.878906 C 58.394531 80.058594 58.613281 80.144531 58.90625 80.144531 C 59.238281 80.144531 59.503906 80.042969 59.703125 79.832031 C 59.898438 79.617188 60 79.316406 60 78.941406 L 60 76.769531 L 60.625 76.769531 L 60.625 80.597656 L 60 80.597656 L 60 80.003906 C 59.84375 80.246094 59.664062 80.421875 59.46875 80.535156 C 59.269531 80.636719 59.035156 80.691406 58.765625 80.691406 C 58.328125 80.691406 57.992188 80.558594 57.765625 80.285156 C 57.535156 80.015625 57.421875 79.613281 57.421875 79.082031 Z M 59 76.675781 Z M 64.273438 77.363281 C 64.199219 77.324219 64.121094 77.292969 64.039062 77.269531 C 63.953125 77.25 63.863281 77.238281 63.773438 77.238281 C 63.417969 77.238281 63.140625 77.355469 62.945312 77.582031 C 62.757812 77.8125 62.664062 78.148438 62.664062 78.582031 L 62.664062 80.597656 L 62.039062 80.597656 L 62.039062 76.769531 L 62.664062 76.769531 L 62.664062 77.363281 C 62.796875 77.136719 62.96875 76.964844 63.179688 76.847656 C 63.394531 76.734375 63.65625 76.675781 63.960938 76.675781 C 64 76.675781 64.046875 76.683594 64.101562 76.691406 C 64.152344 76.691406 64.210938 76.699219 64.273438 76.707031 Z M 64.566406 76.769531 L 65.238281 76.769531 L 66.441406 79.988281 L 67.628906 76.769531 L 68.300781 76.769531 L 66.863281 80.597656 L 66.003906 80.597656 Z M 72.5625 78.519531 L 72.5625 78.832031 L 69.671875 78.832031 C 69.691406 79.269531 69.816406 79.605469 70.046875 79.832031 C 70.285156 80.050781 70.613281 80.160156 71.03125 80.160156 C 71.269531 80.160156 71.503906 80.136719 71.734375 80.082031 C 71.960938 80.023438 72.1875 79.925781 72.40625 79.800781 L 72.40625 80.410156 C 72.1875 80.503906 71.957031 80.574219 71.71875 80.613281 C 71.476562 80.664062 71.238281 80.691406 71 80.691406 C 70.382812 80.691406 69.898438 80.515625 69.546875 80.160156 C 69.191406 79.808594 69.015625 79.328125 69.015625 78.722656 C 69.015625 78.101562 69.179688 77.605469 69.515625 77.238281 C 69.855469 76.867188 70.316406 76.675781 70.890625 76.675781 C 71.398438 76.675781 71.804688 76.84375 72.109375 77.175781 C 72.410156 77.511719 72.5625 77.960938 72.5625 78.519531 Z M 71.9375 78.347656 C 71.925781 78.007812 71.824219 77.730469 71.640625 77.519531 C 71.453125 77.3125 71.199219 77.207031 70.890625 77.207031 C 70.546875 77.207031 70.261719 77.308594 70.046875 77.503906 C 69.835938 77.703125 69.714844 77.984375 69.6875 78.347656 Z M 77.753906 78.675781 C 77.242188 78.675781 76.886719 78.734375 76.691406 78.847656 C 76.492188 78.964844 76.394531 79.164062 76.394531 79.441406 C 76.394531 79.660156 76.464844 79.839844 76.613281 79.972656 C 76.757812 80.109375 76.960938 80.175781 77.222656 80.175781 C 77.5625 80.175781 77.839844 80.050781 78.050781 79.800781 C 78.265625 79.554688 78.378906 79.222656 78.378906 78.816406 L 78.378906 78.675781 Z M 79.003906 78.410156 L 79.003906 80.597656 L 78.378906 80.597656 L 78.378906 80.019531 C 78.230469 80.25 78.046875 80.421875 77.832031 80.535156 C 77.621094 80.636719 77.359375 80.691406 77.050781 80.691406 C 76.652344 80.691406 76.339844 80.582031 76.113281 80.363281 C 75.882812 80.148438 75.769531 79.855469 75.769531 79.488281 C 75.769531 79.054688 75.910156 78.722656 76.191406 78.503906 C 76.480469 78.289062 76.914062 78.175781 77.488281 78.175781 L 78.378906 78.175781 L 78.378906 78.113281 C 78.378906 77.835938 78.277344 77.613281 78.082031 77.457031 C 77.894531 77.292969 77.625 77.207031 77.285156 77.207031 C 77.066406 77.207031 76.851562 77.234375 76.644531 77.285156 C 76.433594 77.339844 76.234375 77.417969 76.050781 77.519531 L 76.050781 76.941406 C 76.277344 76.859375 76.503906 76.796875 76.722656 76.753906 C 76.9375 76.703125 77.148438 76.675781 77.347656 76.675781 C 77.898438 76.675781 78.308594 76.824219 78.582031 77.113281 C 78.859375 77.394531 79.003906 77.828125 79.003906 78.410156 Z M 81.042969 75.675781 L 81.042969 76.769531 L 82.339844 76.769531 L 82.339844 77.253906 L 81.042969 77.253906 L 81.042969 79.332031 C 81.042969 79.644531 81.082031 79.851562 81.167969 79.941406 C 81.25 80.027344 81.425781 80.066406 81.699219 80.066406 L 82.339844 80.066406 L 82.339844 80.597656 L 81.699219 80.597656 C 81.207031 80.597656 80.867188 80.511719 80.683594 80.332031 C 80.503906 80.148438 80.417969 79.8125 80.417969 79.332031 L 80.417969 77.253906 L 79.949219 77.253906 L 79.949219 76.769531 L 80.417969 76.769531 L 80.417969 75.675781 Z M 86.164062 75.675781 L 86.164062 76.769531 L 87.460938 76.769531 L 87.460938 77.253906 L 86.164062 77.253906 L 86.164062 79.332031 C 86.164062 79.644531 86.203125 79.851562 86.289062 79.941406 C 86.371094 80.027344 86.546875 80.066406 86.820312 80.066406 L 87.460938 80.066406 L 87.460938 80.597656 L 86.820312 80.597656 C 86.328125 80.597656 85.988281 80.511719 85.804688 80.332031 C 85.625 80.148438 85.539062 79.8125 85.539062 79.332031 L 85.539062 77.253906 L 85.070312 77.253906 L 85.070312 76.769531 L 85.539062 76.769531 L 85.539062 75.675781 Z M 91.550781 78.285156 L 91.550781 80.597656 L 90.925781 80.597656 L 90.925781 78.300781 C 90.925781 77.949219 90.851562 77.683594 90.707031 77.503906 C 90.570312 77.320312 90.355469 77.222656 90.066406 77.222656 C 89.730469 77.222656 89.464844 77.335938 89.269531 77.550781 C 89.070312 77.769531 88.972656 78.070312 88.972656 78.441406 L 88.972656 80.597656 L 88.347656 80.597656 L 88.347656 75.285156 L 88.972656 75.285156 L 88.972656 77.363281 C 89.125 77.136719 89.304688 76.964844 89.503906 76.847656 C 89.710938 76.734375 89.945312 76.675781 90.207031 76.675781 C 90.652344 76.675781 90.988281 76.8125 91.207031 77.082031 C 91.433594 77.355469 91.550781 77.757812 91.550781 78.285156 Z M 92.933594 76.769531 L 93.558594 76.769531 L 93.558594 80.597656 L 92.933594 80.597656 Z M 92.933594 75.285156 L 93.558594 75.285156 L 93.558594 76.082031 L 92.933594 76.082031 Z M 97.367188 76.878906 L 97.367188 77.472656 C 97.1875 77.390625 97.003906 77.328125 96.820312 77.285156 C 96.632812 77.234375 96.433594 77.207031 96.226562 77.207031 C 95.914062 77.207031 95.675781 77.257812 95.523438 77.347656 C 95.367188 77.441406 95.289062 77.589844 95.289062 77.785156 C 95.289062 77.933594 95.339844 78.046875 95.445312 78.128906 C 95.558594 78.203125 95.789062 78.28125 96.132812 78.363281 L 96.351562 78.410156 C 96.785156 78.503906 97.101562 78.640625 97.289062 78.816406 C 97.484375 78.984375 97.585938 79.226562 97.585938 79.535156 C 97.585938 79.902344 97.441406 80.1875 97.164062 80.394531 C 96.882812 80.59375 96.488281 80.691406 95.992188 80.691406 C 95.792969 80.691406 95.578125 80.667969 95.351562 80.628906 C 95.132812 80.597656 94.894531 80.542969 94.648438 80.457031 L 94.648438 79.800781 C 94.886719 79.925781 95.117188 80.023438 95.335938 80.082031 C 95.5625 80.144531 95.789062 80.175781 96.007812 80.175781 C 96.308594 80.175781 96.539062 80.125 96.695312 80.019531 C 96.847656 79.917969 96.929688 79.769531 96.929688 79.582031 C 96.929688 79.417969 96.871094 79.292969 96.757812 79.207031 C 96.640625 79.117188 96.390625 79.019531 96.007812 78.925781 L 95.789062 78.878906 C 95.390625 78.796875 95.105469 78.671875 94.929688 78.503906 C 94.761719 78.339844 94.679688 78.105469 94.679688 77.800781 C 94.679688 77.449219 94.804688 77.171875 95.054688 76.972656 C 95.3125 76.777344 95.679688 76.675781 96.148438 76.675781 C 96.375 76.675781 96.59375 76.699219 96.804688 76.738281 C 97.011719 76.769531 97.199219 76.820312 97.367188 76.878906 Z M 101.585938 80.019531 L 101.585938 82.050781 L 100.960938 82.050781 L 100.960938 76.769531 L 101.585938 76.769531 L 101.585938 77.347656 C 101.71875 77.121094 101.886719 76.953125 102.085938 76.847656 C 102.292969 76.734375 102.53125 76.675781 102.804688 76.675781 C 103.269531 76.675781 103.652344 76.867188 103.945312 77.238281 C 104.234375 77.605469 104.382812 78.089844 104.382812 78.691406 C 104.382812 79.285156 104.234375 79.773438 103.945312 80.144531 C 103.652344 80.511719 103.269531 80.691406 102.804688 80.691406 C 102.53125 80.691406 102.292969 80.636719 102.085938 80.535156 C 101.886719 80.421875 101.71875 80.25 101.585938 80.019531 Z M 103.726562 78.691406 C 103.726562 78.226562 103.628906 77.859375 103.445312 77.597656 C 103.257812 77.339844 102.996094 77.207031 102.664062 77.207031 C 102.328125 77.207031 102.0625 77.339844 101.867188 77.597656 C 101.679688 77.859375 101.585938 78.226562 101.585938 78.691406 C 101.585938 79.152344 101.679688 79.515625 101.867188 79.785156 C 102.0625 80.046875 102.328125 80.175781 102.664062 80.175781 C 102.996094 80.175781 103.257812 80.046875 103.445312 79.785156 C 103.628906 79.515625 103.726562 79.152344 103.726562 78.691406 Z M 107.03125 77.207031 C 106.695312 77.207031 106.429688 77.34375 106.234375 77.613281 C 106.035156 77.875 105.9375 78.234375 105.9375 78.691406 C 105.9375 79.152344 106.035156 79.511719 106.234375 79.769531 C 106.429688 80.03125 106.695312 80.160156 107.03125 80.160156 C 107.363281 80.160156 107.628906 80.03125 107.828125 79.769531 C 108.023438 79.5 108.125 79.140625 108.125 78.691406 C 108.125 78.234375 108.023438 77.875 107.828125 77.613281 C 107.628906 77.34375 107.363281 77.207031 107.03125 77.207031 Z M 107.03125 76.675781 C 107.582031 76.675781 108.015625 76.855469 108.328125 77.207031 C 108.636719 77.5625 108.796875 78.058594 108.796875 78.691406 C 108.796875 79.316406 108.636719 79.808594 108.328125 80.160156 C 108.015625 80.515625 107.582031 80.691406 107.03125 80.691406 C 106.476562 80.691406 106.042969 80.515625 105.734375 80.160156 C 105.429688 79.808594 105.28125 79.316406 105.28125 78.691406 C 105.28125 78.058594 105.429688 77.5625 105.734375 77.207031 C 106.042969 76.855469 106.476562 76.675781 107.03125 76.675781 Z M 109.949219 76.769531 L 110.574219 76.769531 L 110.574219 80.597656 L 109.949219 80.597656 Z M 109.949219 75.285156 L 110.574219 75.285156 L 110.574219 76.082031 L 109.949219 76.082031 Z M 115.132812 78.285156 L 115.132812 80.597656 L 114.507812 80.597656 L 114.507812 78.300781 C 114.507812 77.949219 114.433594 77.683594 114.289062 77.503906 C 114.152344 77.320312 113.9375 77.222656 113.648438 77.222656 C 113.3125 77.222656 113.046875 77.335938 112.851562 77.550781 C 112.652344 77.769531 112.554688 78.070312 112.554688 78.441406 L 112.554688 80.597656 L 111.929688 80.597656 L 111.929688 76.769531 L 112.554688 76.769531 L 112.554688 77.363281 C 112.707031 77.136719 112.886719 76.964844 113.085938 76.847656 C 113.292969 76.734375 113.527344 76.675781 113.789062 76.675781 C 114.234375 76.675781 114.570312 76.8125 114.789062 77.082031 C 115.015625 77.355469 115.132812 77.757812 115.132812 78.285156 Z M 117.140625 75.675781 L 117.140625 76.769531 L 118.4375 76.769531 L 118.4375 77.253906 L 117.140625 77.253906 L 117.140625 79.332031 C 117.140625 79.644531 117.179688 79.851562 117.265625 79.941406 C 117.347656 80.027344 117.523438 80.066406 117.796875 80.066406 L 118.4375 80.066406 L 118.4375 80.597656 L 117.796875 80.597656 C 117.304688 80.597656 116.964844 80.511719 116.78125 80.332031 C 116.601562 80.148438 116.515625 79.8125 116.515625 79.332031 L 116.515625 77.253906 L 116.046875 77.253906 L 116.046875 76.769531 L 116.515625 76.769531 L 116.515625 75.675781 Z M 117.140625 75.675781 "/>
<g clip-path="url(#clip1)" clip-rule="nonzero">
<path style=" stroke:none;fill-rule:nonzero;fill:rgb(0%,0%,0%);fill-opacity:1;" d="M 171.460938 71.550781 L 172.382812 71.550781 L 174.648438 75.832031 L 174.648438 71.550781 L 175.320312 71.550781 L 175.320312 76.660156 L 174.398438 76.660156 L 172.132812 72.394531 L 172.132812 76.660156 L 171.460938 76.660156 Z M 178.300781 73.269531 C 177.964844 73.269531 177.699219 73.40625 177.503906 73.675781 C 177.304688 73.9375 177.207031 74.296875 177.207031 74.753906 C 177.207031 75.214844 177.304688 75.574219 177.503906 75.832031 C 177.699219 76.09375 177.964844 76.222656 178.300781 76.222656 C 178.632812 76.222656 178.898438 76.09375 179.097656 75.832031 C 179.292969 75.5625 179.394531 75.203125 179.394531 74.753906 C 179.394531 74.296875 179.292969 73.9375 179.097656 73.675781 C 178.898438 73.40625 178.632812 73.269531 178.300781 73.269531 Z M 178.300781 72.738281 C 178.851562 72.738281 179.285156 72.917969 179.597656 73.269531 C 179.90625 73.625 180.066406 74.121094 180.066406 74.753906 C 180.066406 75.378906 179.90625 75.871094 179.597656 76.222656 C 179.285156 76.578125 178.851562 76.753906 178.300781 76.753906 C 177.746094 76.753906 177.3125 76.578125 177.003906 76.222656 C 176.699219 75.871094 176.550781 75.378906 176.550781 74.753906 C 176.550781 74.121094 176.699219 73.625 177.003906 73.269531 C 177.3125 72.917969 177.746094 72.738281 178.300781 72.738281 Z M 181.84375 71.738281 L 181.84375 72.832031 L 183.140625 72.832031 L 183.140625 73.316406 L 181.84375 73.316406 L 181.84375 75.394531 C 181.84375 75.707031 181.882812 75.914062 181.96875 76.003906 C 182.050781 76.089844 182.226562 76.128906 182.5 76.128906 L 183.140625 76.128906 L 183.140625 76.660156 L 182.5 76.660156 C 182.007812 76.660156 181.667969 76.574219 181.484375 76.394531 C 181.304688 76.210938 181.21875 75.875 181.21875 75.394531 L 181.21875 73.316406 L 180.75 73.316406 L 180.75 72.832031 L 181.21875 72.832031 L 181.21875 71.738281 Z M 188.085938 74.738281 C 187.574219 74.738281 187.21875 74.796875 187.023438 74.910156 C 186.824219 75.027344 186.726562 75.226562 186.726562 75.503906 C 186.726562 75.722656 186.796875 75.902344 186.945312 76.035156 C 187.089844 76.171875 187.292969 76.238281 187.554688 76.238281 C 187.894531 76.238281 188.171875 76.113281 188.382812 75.863281 C 188.597656 75.617188 188.710938 75.285156 188.710938 74.878906 L 188.710938 74.738281 Z M 189.335938 74.472656 L 189.335938 76.660156 L 188.710938 76.660156 L 188.710938 76.082031 C 188.5625 76.3125 188.378906 76.484375 188.164062 76.597656 C 187.953125 76.699219 187.691406 76.753906 187.382812 76.753906 C 186.984375 76.753906 186.671875 76.644531 186.445312 76.425781 C 186.214844 76.210938 186.101562 75.917969 186.101562 75.550781 C 186.101562 75.117188 186.242188 74.785156 186.523438 74.566406 C 186.8125 74.351562 187.246094 74.238281 187.820312 74.238281 L 188.710938 74.238281 L 188.710938 74.175781 C 188.710938 73.898438 188.609375 73.675781 188.414062 73.519531 C 188.226562 73.355469 187.957031 73.269531 187.617188 73.269531 C 187.398438 73.269531 187.183594 73.296875 186.976562 73.347656 C 186.765625 73.402344 186.566406 73.480469 186.382812 73.582031 L 186.382812 73.003906 C 186.609375 72.921875 186.835938 72.859375 187.054688 72.816406 C 187.269531 72.765625 187.480469 72.738281 187.679688 72.738281 C 188.230469 72.738281 188.640625 72.886719 188.914062 73.175781 C 189.191406 73.457031 189.335938 73.890625 189.335938 74.472656 Z M 193.671875 71.738281 L 193.671875 72.832031 L 194.96875 72.832031 L 194.96875 73.316406 L 193.671875 73.316406 L 193.671875 75.394531 C 193.671875 75.707031 193.710938 75.914062 193.796875 76.003906 C 193.878906 76.089844 194.054688 76.128906 194.328125 76.128906 L 194.96875 76.128906 L 194.96875 76.660156 L 194.328125 76.660156 C 193.835938 76.660156 193.496094 76.574219 193.3125 76.394531 C 193.132812 76.210938 193.046875 75.875 193.046875 75.394531 L 193.046875 73.316406 L 192.578125 73.316406 L 192.578125 72.832031 L 193.046875 72.832031 L 193.046875 71.738281 Z M 197.621094 74.738281 C 197.109375 74.738281 196.753906 74.796875 196.558594 74.910156 C 196.359375 75.027344 196.261719 75.226562 196.261719 75.503906 C 196.261719 75.722656 196.332031 75.902344 196.480469 76.035156 C 196.625 76.171875 196.828125 76.238281 197.089844 76.238281 C 197.429688 76.238281 197.707031 76.113281 197.917969 75.863281 C 198.132812 75.617188 198.246094 75.285156 198.246094 74.878906 L 198.246094 74.738281 Z M 198.871094 74.472656 L 198.871094 76.660156 L 198.246094 76.660156 L 198.246094 76.082031 C 198.097656 76.3125 197.914062 76.484375 197.699219 76.597656 C 197.488281 76.699219 197.226562 76.753906 196.917969 76.753906 C 196.519531 76.753906 196.207031 76.644531 195.980469 76.425781 C 195.75 76.210938 195.636719 75.917969 195.636719 75.550781 C 195.636719 75.117188 195.777344 74.785156 196.058594 74.566406 C 196.347656 74.351562 196.78125 74.238281 197.355469 74.238281 L 198.246094 74.238281 L 198.246094 74.175781 C 198.246094 73.898438 198.144531 73.675781 197.949219 73.519531 C 197.761719 73.355469 197.492188 73.269531 197.152344 73.269531 C 196.933594 73.269531 196.71875 73.296875 196.511719 73.347656 C 196.300781 73.402344 196.101562 73.480469 195.917969 73.582031 L 195.917969 73.003906 C 196.144531 72.921875 196.371094 72.859375 196.589844 72.816406 C 196.804688 72.765625 197.015625 72.738281 197.214844 72.738281 C 197.765625 72.738281 198.175781 72.886719 198.449219 73.175781 C 198.726562 73.457031 198.871094 73.890625 198.871094 74.472656 Z M 203.476562 74.347656 L 203.476562 76.660156 L 202.851562 76.660156 L 202.851562 74.363281 C 202.851562 74.011719 202.777344 73.746094 202.632812 73.566406 C 202.496094 73.382812 202.28125 73.285156 201.992188 73.285156 C 201.65625 73.285156 201.390625 73.398438 201.195312 73.613281 C 200.996094 73.832031 200.898438 74.132812 200.898438 74.503906 L 200.898438 76.660156 L 200.273438 76.660156 L 200.273438 72.832031 L 200.898438 72.832031 L 200.898438 73.425781 C 201.050781 73.199219 201.230469 73.027344 201.429688 72.910156 C 201.636719 72.796875 201.871094 72.738281 202.132812 72.738281 C 202.578125 72.738281 202.914062 72.875 203.132812 73.144531 C 203.359375 73.417969 203.476562 73.820312 203.476562 74.347656 Z M 207.375 74.707031 C 207.375 74.25 207.277344 73.894531 207.09375 73.644531 C 206.90625 73.398438 206.644531 73.269531 206.3125 73.269531 C 205.96875 73.269531 205.699219 73.398438 205.515625 73.644531 C 205.328125 73.894531 205.234375 74.25 205.234375 74.707031 C 205.234375 75.15625 205.328125 75.507812 205.515625 75.753906 C 205.699219 76.003906 205.96875 76.128906 206.3125 76.128906 C 206.644531 76.128906 206.90625 76.003906 207.09375 75.753906 C 207.277344 75.507812 207.375 75.15625 207.375 74.707031 Z M 208.015625 76.191406 C 208.015625 76.835938 207.867188 77.316406 207.578125 77.628906 C 207.285156 77.949219 206.839844 78.113281 206.25 78.113281 C 206.03125 78.113281 205.820312 78.09375 205.625 78.066406 C 205.425781 78.035156 205.230469 77.980469 205.046875 77.910156 L 205.046875 77.300781 C 205.230469 77.402344 205.414062 77.476562 205.59375 77.519531 C 205.777344 77.570312 205.960938 77.597656 206.140625 77.597656 C 206.554688 77.597656 206.863281 77.484375 207.0625 77.269531 C 207.269531 77.058594 207.375 76.734375 207.375 76.300781 L 207.375 75.988281 C 207.25 76.21875 207.082031 76.390625 206.875 76.503906 C 206.675781 76.609375 206.433594 76.660156 206.15625 76.660156 C 205.6875 76.660156 205.304688 76.484375 205.015625 76.128906 C 204.734375 75.765625 204.59375 75.292969 204.59375 74.707031 C 204.59375 74.117188 204.734375 73.640625 205.015625 73.285156 C 205.304688 72.921875 205.6875 72.738281 206.15625 72.738281 C 206.433594 72.738281 206.675781 72.796875 206.875 72.910156 C 207.082031 73.027344 207.25 73.195312 207.375 73.410156 L 207.375 72.832031 L 208.015625 72.832031 Z M 212.710938 74.582031 L 212.710938 74.894531 L 209.820312 74.894531 C 209.839844 75.332031 209.964844 75.667969 210.195312 75.894531 C 210.433594 76.113281 210.761719 76.222656 211.179688 76.222656 C 211.417969 76.222656 211.652344 76.199219 211.882812 76.144531 C 212.109375 76.085938 212.335938 75.988281 212.554688 75.863281 L 212.554688 76.472656 C 212.335938 76.566406 212.105469 76.636719 211.867188 76.675781 C 211.625 76.726562 211.386719 76.753906 211.148438 76.753906 C 210.53125 76.753906 210.046875 76.578125 209.695312 76.222656 C 209.339844 75.871094 209.164062 75.390625 209.164062 74.785156 C 209.164062 74.164062 209.328125 73.667969 209.664062 73.300781 C 210.003906 72.929688 210.464844 72.738281 211.039062 72.738281 C 211.546875 72.738281 211.953125 72.90625 212.257812 73.238281 C 212.558594 73.574219 212.710938 74.023438 212.710938 74.582031 Z M 212.085938 74.410156 C 212.074219 74.070312 211.972656 73.792969 211.789062 73.582031 C 211.601562 73.375 211.347656 73.269531 211.039062 73.269531 C 210.695312 73.269531 210.410156 73.371094 210.195312 73.566406 C 209.984375 73.765625 209.863281 74.046875 209.835938 74.410156 Z M 217.046875 74.347656 L 217.046875 76.660156 L 216.421875 76.660156 L 216.421875 74.363281 C 216.421875 74.011719 216.347656 73.746094 216.203125 73.566406 C 216.066406 73.382812 215.851562 73.285156 215.5625 73.285156 C 215.226562 73.285156 214.960938 73.398438 214.765625 73.613281 C 214.566406 73.832031 214.46875 74.132812 214.46875 74.503906 L 214.46875 76.660156 L 213.84375 76.660156 L 213.84375 72.832031 L 214.46875 72.832031 L 214.46875 73.425781 C 214.621094 73.199219 214.800781 73.027344 215 72.910156 C 215.207031 72.796875 215.441406 72.738281 215.703125 72.738281 C 216.148438 72.738281 216.484375 72.875 216.703125 73.144531 C 216.929688 73.417969 217.046875 73.820312 217.046875 74.347656 Z M 219.054688 71.738281 L 219.054688 72.832031 L 220.351562 72.832031 L 220.351562 73.316406 L 219.054688 73.316406 L 219.054688 75.394531 C 219.054688 75.707031 219.09375 75.914062 219.179688 76.003906 C 219.261719 76.089844 219.4375 76.128906 219.710938 76.128906 L 220.351562 76.128906 L 220.351562 76.660156 L 219.710938 76.660156 C 219.21875 76.660156 218.878906 76.574219 218.695312 76.394531 C 218.515625 76.210938 218.429688 75.875 218.429688 75.394531 L 218.429688 73.316406 L 217.960938 73.316406 L 217.960938 72.832031 L 218.429688 72.832031 L 218.429688 71.738281 Z M 223.546875 71.347656 L 224.171875 71.347656 L 224.171875 76.660156 L 223.546875 76.660156 Z M 225.542969 72.832031 L 226.167969 72.832031 L 226.167969 76.660156 L 225.542969 76.660156 Z M 225.542969 71.347656 L 226.167969 71.347656 L 226.167969 72.144531 L 225.542969 72.144531 Z M 230.726562 74.347656 L 230.726562 76.660156 L 230.101562 76.660156 L 230.101562 74.363281 C 230.101562 74.011719 230.027344 73.746094 229.882812 73.566406 C 229.746094 73.382812 229.53125 73.285156 229.242188 73.285156 C 228.90625 73.285156 228.640625 73.398438 228.445312 73.613281 C 228.246094 73.832031 228.148438 74.132812 228.148438 74.503906 L 228.148438 76.660156 L 227.523438 76.660156 L 227.523438 72.832031 L 228.148438 72.832031 L 228.148438 73.425781 C 228.300781 73.199219 228.480469 73.027344 228.679688 72.910156 C 228.886719 72.796875 229.121094 72.738281 229.382812 72.738281 C 229.828125 72.738281 230.164062 72.875 230.382812 73.144531 C 230.609375 73.417969 230.726562 73.820312 230.726562 74.347656 Z M 235.390625 74.582031 L 235.390625 74.894531 L 232.5 74.894531 C 232.519531 75.332031 232.644531 75.667969 232.875 75.894531 C 233.113281 76.113281 233.441406 76.222656 233.859375 76.222656 C 234.097656 76.222656 234.332031 76.199219 234.5625 76.144531 C 234.789062 76.085938 235.015625 75.988281 235.234375 75.863281 L 235.234375 76.472656 C 235.015625 76.566406 234.785156 76.636719 234.546875 76.675781 C 234.304688 76.726562 234.066406 76.753906 233.828125 76.753906 C 233.210938 76.753906 232.726562 76.578125 232.375 76.222656 C 232.019531 75.871094 231.84375 75.390625 231.84375 74.785156 C 231.84375 74.164062 232.007812 73.667969 232.34375 73.300781 C 232.683594 72.929688 233.144531 72.738281 233.71875 72.738281 C 234.226562 72.738281 234.632812 72.90625 234.9375 73.238281 C 235.238281 73.574219 235.390625 74.023438 235.390625 74.582031 Z M 234.765625 74.410156 C 234.753906 74.070312 234.652344 73.792969 234.46875 73.582031 C 234.28125 73.375 234.027344 73.269531 233.71875 73.269531 C 233.375 73.269531 233.089844 73.371094 232.875 73.566406 C 232.664062 73.765625 232.542969 74.046875 232.515625 74.410156 Z M 234.765625 74.410156 "/>
</g>
<g clip-path="url(#clip2)" clip-rule="nonzero">
<path style="fill:none;stroke-width:0.8;stroke-linecap:round;stroke-linejoin:round;stroke:rgb(100%,0%,0%);stroke-opacity:1;stroke-miterlimit:4;" d="M 13.09375 4.734375 L 13.09375 100.984375 "/>
</g>
<path style="fill:none;stroke-width:0.8;stroke-linecap:round;stroke-linejoin:round;stroke:rgb(100%,0%,0%);stroke-opacity:1;stroke-miterlimit:4;" d="M 0.46875 87.484375 L 61.59375 87.484375 "/>
<path style=" stroke:none;fill-rule:nonzero;fill:rgb(0%,0%,0%);fill-opacity:1;" d="M 21.996094 5.628906 C 22.050781 5.460938 22.050781 5.441406 22.050781 5.347656 C 22.050781 5.140625 21.882812 5.03125 21.695312 5.03125 C 21.582031 5.03125 21.394531 5.105469 21.28125 5.273438 C 21.261719 5.347656 21.152344 5.703125 21.113281 5.929688 C 21.019531 6.230469 20.945312 6.566406 20.871094 6.886719 L 20.324219 9.042969 C 20.289062 9.210938 19.761719 10.054688 18.976562 10.054688 C 18.375 10.054688 18.246094 9.53125 18.246094 9.078125 C 18.246094 8.535156 18.449219 7.785156 18.84375 6.734375 C 19.03125 6.25 19.089844 6.117188 19.089844 5.875 C 19.089844 5.347656 18.714844 4.898438 18.113281 4.898438 C 16.96875 4.898438 16.539062 6.640625 16.539062 6.734375 C 16.539062 6.867188 16.652344 6.867188 16.667969 6.867188 C 16.800781 6.867188 16.800781 6.828125 16.855469 6.640625 C 17.195312 5.515625 17.664062 5.160156 18.074219 5.160156 C 18.167969 5.160156 18.375 5.160156 18.375 5.535156 C 18.375 5.835938 18.246094 6.15625 18.167969 6.378906 C 17.683594 7.65625 17.476562 8.328125 17.476562 8.890625 C 17.476562 9.960938 18.226562 10.316406 18.9375 10.316406 C 19.40625 10.316406 19.800781 10.109375 20.136719 9.773438 C 19.988281 10.390625 19.839844 10.992188 19.371094 11.628906 C 19.050781 12.023438 18.601562 12.378906 18.058594 12.378906 C 17.886719 12.378906 17.34375 12.34375 17.136719 11.875 C 17.324219 11.875 17.496094 11.875 17.644531 11.722656 C 17.777344 11.628906 17.886719 11.460938 17.886719 11.234375 C 17.886719 10.859375 17.570312 10.824219 17.457031 10.824219 C 17.175781 10.824219 16.78125 11.011719 16.78125 11.59375 C 16.78125 12.191406 17.308594 12.640625 18.058594 12.640625 C 19.277344 12.640625 20.511719 11.554688 20.851562 10.203125 Z M 21.996094 5.628906 "/>
<path style=" stroke:none;fill-rule:nonzero;fill:rgb(0%,0%,0%);fill-opacity:1;" d="M 59.714844 92.734375 C 59.789062 92.433594 60.070312 91.328125 60.894531 91.328125 C 60.949219 91.328125 61.25 91.328125 61.496094 91.476562 C 61.15625 91.550781 60.933594 91.832031 60.933594 92.132812 C 60.933594 92.320312 61.0625 92.546875 61.382812 92.546875 C 61.644531 92.546875 62.019531 92.339844 62.019531 91.851562 C 62.019531 91.234375 61.324219 91.0625 60.914062 91.0625 C 60.21875 91.0625 59.808594 91.703125 59.65625 91.964844 C 59.355469 91.175781 58.71875 91.0625 58.363281 91.0625 C 57.125 91.0625 56.433594 92.601562 56.433594 92.902344 C 56.433594 93.03125 56.5625 93.03125 56.582031 93.03125 C 56.675781 93.03125 56.714844 92.996094 56.730469 92.902344 C 57.144531 91.625 57.933594 91.328125 58.34375 91.328125 C 58.570312 91.328125 58.980469 91.4375 58.980469 92.132812 C 58.980469 92.507812 58.777344 93.296875 58.34375 94.984375 C 58.15625 95.714844 57.726562 96.21875 57.199219 96.21875 C 57.125 96.21875 56.863281 96.21875 56.601562 96.070312 C 56.902344 95.996094 57.164062 95.75 57.164062 95.414062 C 57.164062 95.09375 56.902344 95 56.730469 95 C 56.355469 95 56.074219 95.300781 56.074219 95.695312 C 56.074219 96.238281 56.65625 96.484375 57.183594 96.484375 C 57.988281 96.484375 58.417969 95.640625 58.4375 95.582031 C 58.589844 96.015625 59.019531 96.484375 59.730469 96.484375 C 60.96875 96.484375 61.644531 94.945312 61.644531 94.644531 C 61.644531 94.515625 61.550781 94.515625 61.511719 94.515625 C 61.402344 94.515625 61.382812 94.570312 61.34375 94.644531 C 60.949219 95.9375 60.144531 96.21875 59.769531 96.21875 C 59.300781 96.21875 59.113281 95.84375 59.113281 95.433594 C 59.113281 95.171875 59.167969 94.90625 59.300781 94.382812 Z M 59.714844 92.734375 "/>
<path style=" stroke:none;fill-rule:nonzero;fill:rgb(0%,0%,0%);fill-opacity:1;" d="M 74.390625 5.332031 C 74.445312 5.164062 74.445312 5.144531 74.445312 5.050781 C 74.445312 4.84375 74.277344 4.734375 74.089844 4.734375 C 73.976562 4.734375 73.789062 4.808594 73.675781 4.976562 C 73.660156 5.050781 73.546875 5.40625 73.507812 5.632812 C 73.414062 5.933594 73.339844 6.269531 73.265625 6.589844 L 72.722656 8.746094 C 72.683594 8.914062 72.160156 9.757812 71.371094 9.757812 C 70.769531 9.757812 70.640625 9.234375 70.640625 8.78125 C 70.640625 8.238281 70.847656 7.488281 71.238281 6.4375 C 71.425781 5.953125 71.484375 5.820312 71.484375 5.578125 C 71.484375 5.050781 71.109375 4.601562 70.507812 4.601562 C 69.363281 4.601562 68.933594 6.34375 68.933594 6.4375 C 68.933594 6.570312 69.046875 6.570312 69.066406 6.570312 C 69.195312 6.570312 69.195312 6.53125 69.253906 6.34375 C 69.589844 5.21875 70.058594 4.863281 70.472656 4.863281 C 70.566406 4.863281 70.769531 4.863281 70.769531 5.238281 C 70.769531 5.539062 70.640625 5.859375 70.566406 6.082031 C 70.078125 7.359375 69.871094 8.03125 69.871094 8.59375 C 69.871094 9.664062 70.621094 10.019531 71.332031 10.019531 C 71.800781 10.019531 72.195312 9.8125 72.535156 9.476562 C 72.382812 10.09375 72.234375 10.695312 71.765625 11.332031 C 71.445312 11.726562 70.996094 12.082031 70.453125 12.082031 C 70.285156 12.082031 69.738281 12.046875 69.535156 11.578125 C 69.722656 11.578125 69.890625 11.578125 70.039062 11.425781 C 70.171875 11.332031 70.285156 11.164062 70.285156 10.9375 C 70.285156 10.5625 69.964844 10.527344 69.851562 10.527344 C 69.570312 10.527344 69.175781 10.714844 69.175781 11.296875 C 69.175781 11.894531 69.703125 12.34375 70.453125 12.34375 C 71.671875 12.34375 72.910156 11.257812 73.246094 9.90625 Z M 74.390625 5.332031 "/>
<path style=" stroke:none;fill-rule:nonzero;fill:rgb(0%,0%,0%);fill-opacity:1;" d="M 86.402344 5.96875 C 86.589844 5.96875 86.8125 5.96875 86.8125 5.746094 C 86.8125 5.5 86.589844 5.5 86.417969 5.5 L 79.257812 5.5 C 79.089844 5.5 78.863281 5.5 78.863281 5.746094 C 78.863281 5.96875 79.089844 5.96875 79.257812 5.96875 Z M 86.417969 8.296875 C 86.589844 8.296875 86.8125 8.296875 86.8125 8.050781 C 86.8125 7.828125 86.589844 7.828125 86.402344 7.828125 L 79.257812 7.828125 C 79.089844 7.828125 78.863281 7.828125 78.863281 8.050781 C 78.863281 8.296875 79.089844 8.296875 79.257812 8.296875 Z M 86.417969 8.296875 "/>
<path style=" stroke:none;fill-rule:nonzero;fill:rgb(0%,0%,0%);fill-opacity:1;" d="M 94.800781 6.269531 C 94.875 5.96875 95.15625 4.863281 95.980469 4.863281 C 96.039062 4.863281 96.339844 4.863281 96.582031 5.015625 C 96.246094 5.089844 96.019531 5.371094 96.019531 5.671875 C 96.019531 5.859375 96.152344 6.082031 96.46875 6.082031 C 96.730469 6.082031 97.105469 5.875 97.105469 5.390625 C 97.105469 4.769531 96.414062 4.601562 96 4.601562 C 95.308594 4.601562 94.894531 5.238281 94.746094 5.5 C 94.445312 4.714844 93.808594 4.601562 93.449219 4.601562 C 92.214844 4.601562 91.519531 6.140625 91.519531 6.4375 C 91.519531 6.570312 91.652344 6.570312 91.667969 6.570312 C 91.761719 6.570312 91.800781 6.53125 91.820312 6.4375 C 92.230469 5.164062 93.019531 4.863281 93.433594 4.863281 C 93.65625 4.863281 94.070312 4.976562 94.070312 5.671875 C 94.070312 6.046875 93.863281 6.832031 93.433594 8.519531 C 93.246094 9.25 92.8125 9.757812 92.289062 9.757812 C 92.214844 9.757812 91.949219 9.757812 91.6875 9.609375 C 91.988281 9.53125 92.25 9.289062 92.25 8.953125 C 92.25 8.632812 91.988281 8.539062 91.820312 8.539062 C 91.445312 8.539062 91.164062 8.839844 91.164062 9.234375 C 91.164062 9.777344 91.746094 10.019531 92.269531 10.019531 C 93.074219 10.019531 93.507812 9.175781 93.527344 9.121094 C 93.675781 9.550781 94.105469 10.019531 94.820312 10.019531 C 96.058594 10.019531 96.730469 8.484375 96.730469 8.183594 C 96.730469 8.050781 96.636719 8.050781 96.601562 8.050781 C 96.488281 8.050781 96.46875 8.109375 96.433594 8.183594 C 96.039062 9.476562 95.230469 9.757812 94.855469 9.757812 C 94.386719 9.757812 94.199219 9.382812 94.199219 8.96875 C 94.199219 8.707031 94.257812 8.445312 94.386719 7.921875 Z M 94.800781 6.269531 "/>
<path style=" stroke:none;fill-rule:nonzero;fill:rgb(0%,0%,0%);fill-opacity:1;" d="M 101.859375 4.03125 L 101.578125 4.03125 C 101.558594 4.21875 101.464844 4.707031 101.351562 4.78125 C 101.296875 4.835938 100.660156 4.835938 100.527344 4.835938 L 98.988281 4.835938 C 99.871094 4.070312 100.171875 3.824219 100.660156 3.429688 C 101.277344 2.945312 101.859375 2.417969 101.859375 1.632812 C 101.859375 0.617188 100.976562 0 99.910156 0 C 98.878906 0 98.164062 0.730469 98.164062 1.5 C 98.164062 1.914062 98.519531 1.96875 98.613281 1.96875 C 98.800781 1.96875 99.046875 1.820312 99.046875 1.519531 C 99.046875 1.367188 98.988281 1.070312 98.558594 1.070312 C 98.820312 0.488281 99.382812 0.300781 99.777344 0.300781 C 100.621094 0.300781 101.050781 0.957031 101.050781 1.632812 C 101.050781 2.363281 100.527344 2.925781 100.265625 3.226562 L 98.257812 5.230469 C 98.164062 5.304688 98.164062 5.324219 98.164062 5.550781 L 101.613281 5.550781 Z M 101.859375 4.03125 "/>
<path style="fill:none;stroke-width:1.6;stroke-linecap:round;stroke-linejoin:round;stroke:rgb(0%,0%,50.195312%);stroke-opacity:1;stroke-miterlimit:4;" d="M 18.09375 91.234375 L 74.71875 26.734375 "/>
<path style="fill:none;stroke-width:0.8;stroke-linecap:butt;stroke-linejoin:miter;stroke:rgb(100%,0%,0%);stroke-opacity:1;stroke-miterlimit:4;" d="M 41.871094 69.496094 L 44.875 74.621094 L 50.707031 74.621094 "/>
<path style="fill-rule:evenodd;fill:rgb(100%,0%,0%);fill-opacity:1;stroke-width:0.17254;stroke-linecap:butt;stroke-linejoin:miter;stroke:rgb(100%,0%,0%);stroke-opacity:1;stroke-miterlimit:4;" d="M 70.819385 -0.844698 L 71.508796 -1.534311 L 69.092997 -0.844996 L 71.508998 -0.155286 Z M 70.819385 -0.844698 " transform="matrix(0.586205,1,-1,0.586205,0,0)"/>
<path style="fill-rule:evenodd;fill:rgb(100%,0%,0%);fill-opacity:1;stroke-width:0.2;stroke-linecap:butt;stroke-linejoin:miter;stroke:rgb(100%,0%,0%);stroke-opacity:1;stroke-miterlimit:4;" d="M 51.488281 74.621094 C 51.488281 75.0625 51.132812 75.417969 50.691406 75.417969 C 50.25 75.417969 49.890625 75.0625 49.890625 74.621094 C 49.890625 74.179688 50.25 73.820312 50.691406 73.820312 C 51.132812 73.820312 51.488281 74.179688 51.488281 74.621094 Z M 51.488281 74.621094 "/>
<g clip-path="url(#clip3)" clip-rule="nonzero">
<path style="fill:none;stroke-width:0.8;stroke-linecap:round;stroke-linejoin:round;stroke:rgb(100%,0%,0%);stroke-opacity:1;stroke-miterlimit:4;" d="M 143.167969 4.761719 L 143.167969 101.011719 "/>
</g>
<path style="fill:none;stroke-width:0.8;stroke-linecap:round;stroke-linejoin:round;stroke:rgb(100%,0%,0%);stroke-opacity:1;stroke-miterlimit:4;" d="M 130.542969 87.511719 L 191.667969 87.511719 "/>
<path style=" stroke:none;fill-rule:nonzero;fill:rgb(0%,0%,0%);fill-opacity:1;" d="M 152.070312 5.65625 C 152.128906 5.484375 152.128906 5.46875 152.128906 5.375 C 152.128906 5.167969 151.957031 5.054688 151.769531 5.054688 C 151.660156 5.054688 151.472656 5.128906 151.359375 5.296875 C 151.339844 5.375 151.226562 5.730469 151.191406 5.953125 C 151.097656 6.253906 151.019531 6.59375 150.945312 6.910156 L 150.402344 9.066406 C 150.363281 9.234375 149.839844 10.078125 149.050781 10.078125 C 148.453125 10.078125 148.320312 9.554688 148.320312 9.105469 C 148.320312 8.5625 148.527344 7.8125 148.921875 6.761719 C 149.109375 6.273438 149.164062 6.140625 149.164062 5.898438 C 149.164062 5.375 148.789062 4.921875 148.191406 4.921875 C 147.046875 4.921875 146.613281 6.667969 146.613281 6.761719 C 146.613281 6.890625 146.726562 6.890625 146.746094 6.890625 C 146.878906 6.890625 146.878906 6.855469 146.933594 6.667969 C 147.269531 5.542969 147.738281 5.1875 148.152344 5.1875 C 148.246094 5.1875 148.453125 5.1875 148.453125 5.5625 C 148.453125 5.859375 148.320312 6.179688 148.246094 6.40625 C 147.757812 7.679688 147.550781 8.355469 147.550781 8.917969 C 147.550781 9.984375 148.300781 10.34375 149.015625 10.34375 C 149.484375 10.34375 149.878906 10.136719 150.214844 9.796875 C 150.066406 10.417969 149.914062 11.015625 149.445312 11.65625 C 149.128906 12.046875 148.675781 12.40625 148.132812 12.40625 C 147.964844 12.40625 147.421875 12.367188 147.214844 11.898438 C 147.402344 11.898438 147.570312 11.898438 147.722656 11.75 C 147.851562 11.65625 147.964844 11.484375 147.964844 11.261719 C 147.964844 10.886719 147.644531 10.847656 147.535156 10.847656 C 147.253906 10.847656 146.859375 11.035156 146.859375 11.617188 C 146.859375 12.21875 147.382812 12.667969 148.132812 12.667969 C 149.351562 12.667969 150.589844 11.578125 150.925781 10.230469 Z M 152.070312 5.65625 "/>
<path style=" stroke:none;fill-rule:nonzero;fill:rgb(0%,0%,0%);fill-opacity:1;" d="M 189.789062 92.757812 C 189.867188 92.457031 190.148438 91.351562 190.972656 91.351562 C 191.027344 91.351562 191.328125 91.351562 191.570312 91.5 C 191.234375 91.578125 191.007812 91.859375 191.007812 92.15625 C 191.007812 92.34375 191.140625 92.570312 191.460938 92.570312 C 191.722656 92.570312 192.097656 92.363281 192.097656 91.875 C 192.097656 91.257812 191.402344 91.089844 190.992188 91.089844 C 190.296875 91.089844 189.882812 91.726562 189.734375 91.988281 C 189.433594 91.203125 188.796875 91.089844 188.441406 91.089844 C 187.203125 91.089844 186.507812 92.625 186.507812 92.925781 C 186.507812 93.058594 186.640625 93.058594 186.660156 93.058594 C 186.753906 93.058594 186.789062 93.019531 186.808594 92.925781 C 187.222656 91.652344 188.007812 91.351562 188.421875 91.351562 C 188.648438 91.351562 189.058594 91.464844 189.058594 92.15625 C 189.058594 92.53125 188.851562 93.320312 188.421875 95.007812 C 188.234375 95.738281 187.804688 96.246094 187.277344 96.246094 C 187.203125 96.246094 186.941406 96.246094 186.679688 96.09375 C 186.976562 96.019531 187.242188 95.777344 187.242188 95.4375 C 187.242188 95.121094 186.976562 95.027344 186.808594 95.027344 C 186.433594 95.027344 186.152344 95.328125 186.152344 95.71875 C 186.152344 96.265625 186.734375 96.507812 187.257812 96.507812 C 188.066406 96.507812 188.496094 95.664062 188.515625 95.609375 C 188.664062 96.039062 189.097656 96.507812 189.808594 96.507812 C 191.046875 96.507812 191.722656 94.96875 191.722656 94.671875 C 191.722656 94.539062 191.628906 94.539062 191.589844 94.539062 C 191.476562 94.539062 191.460938 94.59375 191.421875 94.671875 C 191.027344 95.964844 190.222656 96.246094 189.847656 96.246094 C 189.378906 96.246094 189.191406 95.871094 189.191406 95.457031 C 189.191406 95.195312 189.246094 94.933594 189.378906 94.40625 Z M 189.789062 92.757812 "/>
<path style=" stroke:none;fill-rule:nonzero;fill:rgb(0%,0%,0%);fill-opacity:1;" d="M 204.46875 5.359375 C 204.523438 5.1875 204.523438 5.171875 204.523438 5.078125 C 204.523438 4.871094 204.355469 4.757812 204.167969 4.757812 C 204.054688 4.757812 203.867188 4.832031 203.753906 5 C 203.734375 5.078125 203.625 5.433594 203.585938 5.65625 C 203.492188 5.957031 203.417969 6.296875 203.34375 6.613281 L 202.796875 8.769531 C 202.761719 8.9375 202.234375 9.78125 201.449219 9.78125 C 200.847656 9.78125 200.71875 9.257812 200.71875 8.808594 C 200.71875 8.265625 200.921875 7.515625 201.316406 6.464844 C 201.503906 5.976562 201.5625 5.84375 201.5625 5.601562 C 201.5625 5.078125 201.1875 4.625 200.585938 4.625 C 199.441406 4.625 199.011719 6.371094 199.011719 6.464844 C 199.011719 6.59375 199.125 6.59375 199.140625 6.59375 C 199.273438 6.59375 199.273438 6.558594 199.328125 6.371094 C 199.667969 5.246094 200.136719 4.890625 200.546875 4.890625 C 200.640625 4.890625 200.847656 4.890625 200.847656 5.265625 C 200.847656 5.5625 200.71875 5.882812 200.640625 6.109375 C 200.15625 7.382812 199.949219 8.058594 199.949219 8.621094 C 199.949219 9.6875 200.699219 10.046875 201.410156 10.046875 C 201.878906 10.046875 202.273438 9.839844 202.609375 9.5 C 202.460938 10.121094 202.3125 10.71875 201.84375 11.359375 C 201.523438 11.75 201.074219 12.109375 200.53125 12.109375 C 200.359375 12.109375 199.816406 12.070312 199.609375 11.601562 C 199.796875 11.601562 199.96875 11.601562 200.117188 11.453125 C 200.25 11.359375 200.359375 11.1875 200.359375 10.964844 C 200.359375 10.589844 200.042969 10.550781 199.929688 10.550781 C 199.648438 10.550781 199.253906 10.738281 199.253906 11.320312 C 199.253906 11.921875 199.78125 12.371094 200.53125 12.371094 C 201.75 12.371094 202.984375 11.28125 203.324219 9.933594 Z M 204.46875 5.359375 "/>
<path style=" stroke:none;fill-rule:nonzero;fill:rgb(0%,0%,0%);fill-opacity:1;" d="M 216.476562 5.996094 C 216.664062 5.996094 216.890625 5.996094 216.890625 5.769531 C 216.890625 5.527344 216.664062 5.527344 216.496094 5.527344 L 209.332031 5.527344 C 209.164062 5.527344 208.941406 5.527344 208.941406 5.769531 C 208.941406 5.996094 209.164062 5.996094 209.332031 5.996094 Z M 216.496094 8.320312 C 216.664062 8.320312 216.890625 8.320312 216.890625 8.078125 C 216.890625 7.851562 216.664062 7.851562 216.476562 7.851562 L 209.332031 7.851562 C 209.164062 7.851562 208.941406 7.851562 208.941406 8.078125 C 208.941406 8.320312 209.164062 8.320312 209.332031 8.320312 Z M 216.496094 8.320312 "/>
<path style=" stroke:none;fill-rule:nonzero;fill:rgb(0%,0%,0%);fill-opacity:1;" d="M 224.878906 6.296875 C 224.953125 5.996094 225.234375 4.890625 226.058594 4.890625 C 226.117188 4.890625 226.414062 4.890625 226.660156 5.039062 C 226.320312 5.113281 226.097656 5.394531 226.097656 5.695312 C 226.097656 5.882812 226.226562 6.109375 226.546875 6.109375 C 226.808594 6.109375 227.183594 5.902344 227.183594 5.414062 C 227.183594 4.796875 226.492188 4.625 226.078125 4.625 C 225.382812 4.625 224.972656 5.265625 224.820312 5.527344 C 224.523438 4.738281 223.882812 4.625 223.527344 4.625 C 222.289062 4.625 221.597656 6.164062 221.597656 6.464844 C 221.597656 6.59375 221.726562 6.59375 221.746094 6.59375 C 221.839844 6.59375 221.878906 6.558594 221.898438 6.464844 C 222.308594 5.1875 223.097656 4.890625 223.507812 4.890625 C 223.734375 4.890625 224.148438 5 224.148438 5.695312 C 224.148438 6.070312 223.941406 6.859375 223.507812 8.546875 C 223.320312 9.277344 222.890625 9.78125 222.367188 9.78125 C 222.289062 9.78125 222.027344 9.78125 221.765625 9.632812 C 222.066406 9.558594 222.328125 9.3125 222.328125 8.976562 C 222.328125 8.65625 222.066406 8.5625 221.898438 8.5625 C 221.523438 8.5625 221.242188 8.863281 221.242188 9.257812 C 221.242188 9.800781 221.820312 10.046875 222.347656 10.046875 C 223.152344 10.046875 223.585938 9.203125 223.601562 9.144531 C 223.753906 9.578125 224.183594 10.046875 224.898438 10.046875 C 226.132812 10.046875 226.808594 8.507812 226.808594 8.207031 C 226.808594 8.078125 226.714844 8.078125 226.679688 8.078125 C 226.566406 8.078125 226.546875 8.132812 226.507812 8.207031 C 226.117188 9.5 225.308594 9.78125 224.933594 9.78125 C 224.464844 9.78125 224.277344 9.40625 224.277344 8.996094 C 224.277344 8.734375 224.335938 8.46875 224.464844 7.945312 Z M 224.878906 6.296875 "/>
<path style=" stroke:none;fill-rule:nonzero;fill:rgb(0%,0%,0%);fill-opacity:1;" d="M 231.9375 4.054688 L 231.65625 4.054688 C 231.636719 4.242188 231.542969 4.730469 231.429688 4.804688 C 231.375 4.863281 230.734375 4.863281 230.605469 4.863281 L 229.066406 4.863281 C 229.949219 4.09375 230.25 3.851562 230.734375 3.457031 C 231.355469 2.96875 231.9375 2.445312 231.9375 1.65625 C 231.9375 0.644531 231.054688 0.0234375 229.984375 0.0234375 C 228.953125 0.0234375 228.242188 0.757812 228.242188 1.523438 C 228.242188 1.9375 228.597656 1.992188 228.691406 1.992188 C 228.878906 1.992188 229.125 1.84375 229.125 1.542969 C 229.125 1.394531 229.066406 1.09375 228.636719 1.09375 C 228.898438 0.511719 229.460938 0.324219 229.855469 0.324219 C 230.699219 0.324219 231.128906 0.980469 231.128906 1.65625 C 231.128906 2.386719 230.605469 2.949219 230.34375 3.25 L 228.335938 5.257812 C 228.242188 5.332031 228.242188 5.351562 228.242188 5.574219 L 231.691406 5.574219 Z M 231.9375 4.054688 "/>
<path style="fill:none;stroke-width:1.6;stroke-linecap:round;stroke-linejoin:round;stroke:rgb(0%,0%,50.195312%);stroke-opacity:1;stroke-miterlimit:4;" d="M 157.648438 82.097656 L 197.308594 16.859375 "/>
<path style="fill-rule:nonzero;fill:rgb(0%,0%,100%);fill-opacity:1;stroke-width:0.8;stroke-linecap:round;stroke-linejoin:round;stroke:rgb(0%,0%,50.195312%);stroke-opacity:1;stroke-miterlimit:4;" d="M -38.707031 -66.402344 C -38.707031 -65.765625 -39.222656 -65.25 -39.859375 -65.25 C -40.492188 -65.25 -41.007812 -65.765625 -41.007812 -66.402344 C -41.007812 -67.039062 -40.492188 -67.554688 -39.859375 -67.554688 C -39.222656 -67.554688 -38.707031 -67.039062 -38.707031 -66.402344 Z M -38.707031 -66.402344 " transform="matrix(-1,0,0,-1,0,0)"/>
<path style="fill-rule:nonzero;fill:rgb(0%,0%,100%);fill-opacity:1;stroke-width:0.8;stroke-linecap:round;stroke-linejoin:round;stroke:rgb(0%,0%,50.195312%);stroke-opacity:1;stroke-miterlimit:4;" d="M -161.457031 -73.808594 C -161.457031 -73.171875 -161.972656 -72.65625 -162.609375 -72.65625 C -163.246094 -72.65625 -163.761719 -73.171875 -163.761719 -73.808594 C -163.761719 -74.441406 -163.246094 -74.957031 -162.609375 -74.957031 C -161.972656 -74.957031 -161.457031 -74.441406 -161.457031 -73.808594 Z M -161.457031 -73.808594 " transform="matrix(-1,0,0,-1,0,0)"/>
<path style="fill-rule:nonzero;fill:rgb(100%,0%,0%);fill-opacity:1;stroke-width:0.8;stroke-linecap:round;stroke-linejoin:round;stroke:rgb(0%,0%,50.195312%);stroke-opacity:1;stroke-miterlimit:4;" d="M -188.714844 -28.964844 C -188.714844 -28.332031 -189.230469 -27.816406 -189.867188 -27.816406 C -190.503906 -27.816406 -191.019531 -28.332031 -191.019531 -28.964844 C -191.019531 -29.601562 -190.503906 -30.117188 -189.867188 -30.117188 C -189.230469 -30.117188 -188.714844 -29.601562 -188.714844 -28.964844 Z M -188.714844 -28.964844 " transform="matrix(-1,0,0,-1,0,0)"/>
</g>
</svg>
