<?xml version="1.0" encoding="UTF-8"?>
<svg xmlns="http://www.w3.org/2000/svg" xmlns:xlink="http://www.w3.org/1999/xlink" width="318.667297pt" height="261.240234pt" viewBox="0 0 318.667297 261.240234" version="1.1">
<defs>
<clipPath id="clip1">
  <path d="M 202 230 L 233 230 L 233 261.238281 L 202 261.238281 Z M 202 230 "/>
</clipPath>
<clipPath id="clip2">
  <path d="M 288 173 L 318.667969 173 L 318.667969 204 L 288 204 Z M 288 173 "/>
</clipPath>
</defs>
<g id="surface1">
<path style="fill:none;stroke-width:1.6;stroke-linecap:round;stroke-linejoin:round;stroke:rgb(0%,0%,0%);stroke-opacity:1;stroke-miterlimit:4;" d="M 5.601562 115.988281 L 24.800781 115.988281 C 27.460938 115.988281 29.601562 118.128906 29.601562 120.789062 L 29.601562 139.988281 C 29.601562 142.648438 27.460938 144.789062 24.800781 144.789062 L 5.601562 144.789062 C 2.941406 144.789062 0.800781 142.648438 0.800781 139.988281 L 0.800781 120.789062 C 0.800781 118.128906 2.941406 115.988281 5.601562 115.988281 Z M 5.601562 115.988281 "/>
<path style=" stroke:none;fill-rule:nonzero;fill:rgb(0%,0%,0%);fill-opacity:1;" d="M 16.011719 124.28125 C 16.011719 123.78125 16.011719 123.75 15.542969 123.75 C 14.292969 125.03125 12.542969 125.03125 11.917969 125.03125 L 11.917969 125.65625 C 12.324219 125.65625 13.480469 125.65625 14.511719 125.125 L 14.511719 135.46875 C 14.511719 136.1875 14.449219 136.40625 12.667969 136.40625 L 12.042969 136.40625 L 12.042969 137.03125 C 12.730469 136.96875 14.449219 136.96875 15.261719 136.96875 C 16.042969 136.96875 17.792969 136.96875 18.480469 137.03125 L 18.480469 136.40625 L 17.855469 136.40625 C 16.042969 136.40625 16.011719 136.1875 16.011719 135.46875 Z M 16.011719 124.28125 "/>
<path style="fill:none;stroke-width:1.6;stroke-linecap:round;stroke-linejoin:round;stroke:rgb(0%,0%,0%);stroke-opacity:1;stroke-miterlimit:4;" d="M 63.199219 115.988281 L 82.398438 115.988281 C 85.058594 115.988281 87.199219 118.128906 87.199219 120.789062 L 87.199219 139.988281 C 87.199219 142.648438 85.058594 144.789062 82.398438 144.789062 L 63.199219 144.789062 C 60.539062 144.789062 58.398438 142.648438 58.398438 139.988281 L 58.398438 120.789062 C 58.398438 118.128906 60.539062 115.988281 63.199219 115.988281 Z M 63.199219 115.988281 "/>
<path style=" stroke:none;fill-rule:nonzero;fill:rgb(0%,0%,0%);fill-opacity:1;" d="M 73.910156 128.65625 C 74.035156 128.15625 74.503906 126.3125 75.878906 126.3125 C 75.972656 126.3125 76.472656 126.3125 76.878906 126.5625 C 76.316406 126.6875 75.941406 127.15625 75.941406 127.65625 C 75.941406 127.96875 76.160156 128.34375 76.691406 128.34375 C 77.128906 128.34375 77.753906 128 77.753906 127.1875 C 77.753906 126.15625 76.597656 125.875 75.910156 125.875 C 74.753906 125.875 74.066406 126.9375 73.816406 127.375 C 73.316406 126.0625 72.253906 125.875 71.660156 125.875 C 69.597656 125.875 68.441406 128.4375 68.441406 128.9375 C 68.441406 129.15625 68.660156 129.15625 68.691406 129.15625 C 68.847656 129.15625 68.910156 129.09375 68.941406 128.9375 C 69.628906 126.8125 70.941406 126.3125 71.628906 126.3125 C 72.003906 126.3125 72.691406 126.5 72.691406 127.65625 C 72.691406 128.28125 72.347656 129.59375 71.628906 132.40625 C 71.316406 133.625 70.597656 134.46875 69.722656 134.46875 C 69.597656 134.46875 69.160156 134.46875 68.722656 134.21875 C 69.222656 134.09375 69.660156 133.6875 69.660156 133.125 C 69.660156 132.59375 69.222656 132.4375 68.941406 132.4375 C 68.316406 132.4375 67.847656 132.9375 67.847656 133.59375 C 67.847656 134.5 68.816406 134.90625 69.691406 134.90625 C 71.035156 134.90625 71.753906 133.5 71.785156 133.40625 C 72.035156 134.125 72.753906 134.90625 73.941406 134.90625 C 76.003906 134.90625 77.128906 132.34375 77.128906 131.84375 C 77.128906 131.625 76.972656 131.625 76.910156 131.625 C 76.722656 131.625 76.691406 131.71875 76.628906 131.84375 C 75.972656 134 74.628906 134.46875 74.003906 134.46875 C 73.222656 134.46875 72.910156 133.84375 72.910156 133.15625 C 72.910156 132.71875 73.003906 132.28125 73.222656 131.40625 Z M 73.910156 128.65625 "/>
<path style="fill:none;stroke-width:1.6;stroke-linecap:round;stroke-linejoin:round;stroke:rgb(0%,0%,0%);stroke-opacity:1;stroke-miterlimit:4;" d="M 34.398438 58.390625 L 53.601562 58.390625 C 56.257812 58.390625 58.398438 60.53125 58.398438 63.191406 L 58.398438 82.390625 C 58.398438 85.050781 56.257812 87.191406 53.601562 87.191406 L 34.398438 87.191406 C 31.742188 87.191406 29.601562 85.050781 29.601562 82.390625 L 29.601562 63.191406 C 29.601562 60.53125 31.742188 58.390625 34.398438 58.390625 Z M 34.398438 58.390625 "/>
<path style=" stroke:none;fill-rule:nonzero;fill:rgb(0%,0%,0%);fill-opacity:1;" d="M 44.40625 73.179688 L 49.96875 73.179688 C 50.25 73.179688 50.625 73.179688 50.625 72.773438 C 50.625 72.398438 50.25 72.398438 49.96875 72.398438 L 44.40625 72.398438 L 44.40625 66.804688 C 44.40625 66.523438 44.40625 66.148438 44 66.148438 C 43.59375 66.148438 43.59375 66.523438 43.59375 66.804688 L 43.59375 72.398438 L 38.03125 72.398438 C 37.75 72.398438 37.375 72.398438 37.375 72.773438 C 37.375 73.179688 37.75 73.179688 38.03125 73.179688 L 43.59375 73.179688 L 43.59375 78.773438 C 43.59375 79.054688 43.59375 79.429688 44 79.429688 C 44.40625 79.429688 44.40625 79.054688 44.40625 78.773438 Z M 44.40625 73.179688 "/>
<path style="fill:none;stroke-width:0.8;stroke-linecap:butt;stroke-linejoin:miter;stroke:rgb(100%,0%,0%);stroke-opacity:1;stroke-miterlimit:4;" d="M 14.6875 115.976562 L 38.847656 87.90625 "/>
<path style="fill-rule:evenodd;fill:rgb(100%,0%,0%);fill-opacity:1;stroke-width:0.606287;stroke-linecap:butt;stroke-linejoin:miter;stroke:rgb(100%,0%,0%);stroke-opacity:1;stroke-miterlimit:4;" d="M -56.972638 65.776503 C -56.972013 67.115809 -58.05885 68.203779 -59.398156 68.204403 C -60.735219 68.203097 -61.823188 67.116259 -61.823813 65.776953 C -61.822506 64.439891 -60.735669 63.351921 -59.398606 63.353228 C -58.0593 63.352604 -56.971331 64.439441 -56.972638 65.776503 Z M -56.972638 65.776503 " transform="matrix(0.86087,-1,1,0.86087,0,0)"/>
<path style="fill-rule:evenodd;fill:rgb(100%,0%,0%);fill-opacity:1;stroke-width:0.606287;stroke-linecap:butt;stroke-linejoin:miter;stroke:rgb(100%,0%,0%);stroke-opacity:1;stroke-miterlimit:4;" d="M 37.343484 -65.776791 L 39.769003 -68.204691 L 31.281119 -65.776634 L 39.769452 -63.353516 Z M 37.343484 -65.776791 " transform="matrix(-0.86087,1,-1,-0.86087,0,0)"/>
<path style="fill:none;stroke-width:0.8;stroke-linecap:butt;stroke-linejoin:miter;stroke:rgb(100%,0%,0%);stroke-opacity:1;stroke-miterlimit:4;" d="M 72.589844 115.34375 L 48.429688 87.277344 "/>
<path style="fill-rule:evenodd;fill:rgb(100%,0%,0%);fill-opacity:1;stroke-width:0.606287;stroke-linecap:butt;stroke-linejoin:miter;stroke:rgb(100%,0%,0%);stroke-opacity:1;stroke-miterlimit:4;" d="M -99.764931 -15.337761 C -99.763625 -14.000699 -100.84935 -12.91193 -102.188656 -12.912555 C -103.527962 -12.91318 -104.612556 -13.999217 -104.611932 -15.338523 C -104.615482 -16.677517 -103.527512 -17.764355 -102.188206 -17.76373 C -100.8489 -17.763105 -99.764307 -16.677067 -99.764931 -15.337761 Z M -99.764931 -15.337761 " transform="matrix(-0.86087,-1,1,-0.86087,0,0)"/>
<path style="fill-rule:evenodd;fill:rgb(100%,0%,0%);fill-opacity:1;stroke-width:0.606287;stroke-linecap:butt;stroke-linejoin:miter;stroke:rgb(100%,0%,0%);stroke-opacity:1;stroke-miterlimit:4;" d="M 80.135777 15.338049 L 82.559502 12.912843 L 74.073413 15.337892 L 82.559053 17.764018 Z M 80.135777 15.338049 " transform="matrix(0.86087,1,-1,0.86087,0,0)"/>
<path style="fill:none;stroke-width:1.6;stroke-linecap:round;stroke-linejoin:round;stroke:rgb(0%,0%,0%);stroke-opacity:1;stroke-miterlimit:4;" d="M 207.804688 58.726562 L 227.007812 58.726562 C 229.664062 58.726562 231.804688 60.867188 231.804688 63.523438 L 231.804688 82.726562 C 231.804688 85.382812 229.664062 87.523438 227.007812 87.523438 L 207.804688 87.523438 C 205.148438 87.523438 203.007812 85.382812 203.007812 82.726562 L 203.007812 63.523438 C 203.007812 60.867188 205.148438 58.726562 207.804688 58.726562 Z M 207.804688 58.726562 "/>
<path style=" stroke:none;fill-rule:nonzero;fill:rgb(0%,0%,0%);fill-opacity:1;" d="M 222.78125 73.515625 C 223.125 73.515625 223.5 73.515625 223.5 73.109375 C 223.5 72.734375 223.125 72.734375 222.78125 72.734375 L 212 72.734375 C 211.65625 72.734375 211.3125 72.734375 211.3125 73.109375 C 211.3125 73.515625 211.65625 73.515625 212 73.515625 Z M 222.78125 73.515625 "/>
<g clip-path="url(#clip1)" clip-rule="nonzero">
<path style="fill:none;stroke-width:1.6;stroke-linecap:round;stroke-linejoin:round;stroke:rgb(0%,0%,0%);stroke-opacity:1;stroke-miterlimit:4;" d="M 207.746094 231.628906 L 226.945312 231.628906 C 229.605469 231.628906 231.746094 233.769531 231.746094 236.429688 L 231.746094 255.628906 C 231.746094 258.289062 229.605469 260.429688 226.945312 260.429688 L 207.746094 260.429688 C 205.085938 260.429688 202.945312 258.289062 202.945312 255.628906 L 202.945312 236.429688 C 202.945312 233.769531 205.085938 231.628906 207.746094 231.628906 Z M 207.746094 231.628906 "/>
</g>
<path style=" stroke:none;fill-rule:nonzero;fill:rgb(0%,0%,0%);fill-opacity:1;" d="M 218.457031 244.296875 C 218.582031 243.796875 219.050781 241.953125 220.425781 241.953125 C 220.519531 241.953125 221.019531 241.953125 221.425781 242.203125 C 220.863281 242.328125 220.488281 242.796875 220.488281 243.296875 C 220.488281 243.609375 220.707031 243.984375 221.238281 243.984375 C 221.675781 243.984375 222.300781 243.640625 222.300781 242.828125 C 222.300781 241.796875 221.144531 241.515625 220.457031 241.515625 C 219.300781 241.515625 218.613281 242.578125 218.363281 243.015625 C 217.863281 241.703125 216.800781 241.515625 216.207031 241.515625 C 214.144531 241.515625 212.988281 244.078125 212.988281 244.578125 C 212.988281 244.796875 213.207031 244.796875 213.238281 244.796875 C 213.394531 244.796875 213.457031 244.734375 213.488281 244.578125 C 214.175781 242.453125 215.488281 241.953125 216.175781 241.953125 C 216.550781 241.953125 217.238281 242.140625 217.238281 243.296875 C 217.238281 243.921875 216.894531 245.234375 216.175781 248.046875 C 215.863281 249.265625 215.144531 250.109375 214.269531 250.109375 C 214.144531 250.109375 213.707031 250.109375 213.269531 249.859375 C 213.769531 249.734375 214.207031 249.328125 214.207031 248.765625 C 214.207031 248.234375 213.769531 248.078125 213.488281 248.078125 C 212.863281 248.078125 212.394531 248.578125 212.394531 249.234375 C 212.394531 250.140625 213.363281 250.546875 214.238281 250.546875 C 215.582031 250.546875 216.300781 249.140625 216.332031 249.046875 C 216.582031 249.765625 217.300781 250.546875 218.488281 250.546875 C 220.550781 250.546875 221.675781 247.984375 221.675781 247.484375 C 221.675781 247.265625 221.519531 247.265625 221.457031 247.265625 C 221.269531 247.265625 221.238281 247.359375 221.175781 247.484375 C 220.519531 249.640625 219.175781 250.109375 218.550781 250.109375 C 217.769531 250.109375 217.457031 249.484375 217.457031 248.796875 C 217.457031 248.359375 217.550781 247.921875 217.769531 247.046875 Z M 218.457031 244.296875 "/>
<path style="fill:none;stroke-width:1.6;stroke-linecap:round;stroke-linejoin:round;stroke:rgb(0%,0%,0%);stroke-opacity:1;stroke-miterlimit:4;" d="M 178.679688 173.417969 L 197.878906 173.417969 C 200.539062 173.417969 202.679688 175.558594 202.679688 178.21875 L 202.679688 197.417969 C 202.679688 200.078125 200.539062 202.21875 197.878906 202.21875 L 178.679688 202.21875 C 176.019531 202.21875 173.878906 200.078125 173.878906 197.417969 L 173.878906 178.21875 C 173.878906 175.558594 176.019531 173.417969 178.679688 173.417969 Z M 178.679688 173.417969 "/>
<path style=" stroke:none;fill-rule:nonzero;fill:rgb(0%,0%,0%);fill-opacity:1;" d="M 188.277344 187.273438 L 184.308594 183.304688 C 184.058594 183.054688 184.027344 183.023438 183.871094 183.023438 C 183.652344 183.023438 183.464844 183.179688 183.464844 183.429688 C 183.464844 183.554688 183.496094 183.585938 183.714844 183.804688 L 187.714844 187.804688 L 183.714844 191.835938 C 183.496094 192.054688 183.464844 192.085938 183.464844 192.210938 C 183.464844 192.460938 183.652344 192.617188 183.871094 192.617188 C 184.027344 192.617188 184.058594 192.585938 184.308594 192.335938 L 188.277344 188.367188 L 192.402344 192.492188 C 192.433594 192.523438 192.558594 192.617188 192.683594 192.617188 C 192.933594 192.617188 193.089844 192.460938 193.089844 192.210938 C 193.089844 192.179688 193.089844 192.117188 193.027344 191.992188 C 192.996094 191.960938 189.839844 188.835938 188.839844 187.804688 L 192.496094 184.179688 C 192.589844 184.054688 192.902344 183.804688 192.996094 183.679688 C 192.996094 183.648438 193.089844 183.554688 193.089844 183.429688 C 193.089844 183.179688 192.933594 183.023438 192.683594 183.023438 C 192.527344 183.023438 192.464844 183.085938 192.246094 183.304688 Z M 188.277344 187.273438 "/>
<path style="fill:none;stroke-width:1.6;stroke-linecap:round;stroke-linejoin:round;stroke:rgb(0%,0%,0%);stroke-opacity:1;stroke-miterlimit:4;" d="M 149.878906 231.019531 L 169.078125 231.019531 C 171.738281 231.019531 173.878906 233.160156 173.878906 235.820312 L 173.878906 255.019531 C 173.878906 257.679688 171.738281 259.820312 169.078125 259.820312 L 149.878906 259.820312 C 147.21875 259.820312 145.078125 257.679688 145.078125 255.019531 L 145.078125 235.820312 C 145.078125 233.160156 147.21875 231.019531 149.878906 231.019531 Z M 149.878906 231.019531 "/>
<path style=" stroke:none;fill-rule:nonzero;fill:rgb(0%,0%,0%);fill-opacity:1;" d="M 157.042969 250.527344 L 159.167969 248.464844 C 162.261719 245.714844 163.449219 244.652344 163.449219 242.652344 C 163.449219 240.371094 161.667969 238.777344 159.230469 238.777344 C 156.980469 238.777344 155.511719 240.621094 155.511719 242.402344 C 155.511719 243.496094 156.511719 243.496094 156.574219 243.496094 C 156.917969 243.496094 157.605469 243.277344 157.605469 242.433594 C 157.605469 241.933594 157.230469 241.402344 156.542969 241.402344 C 156.386719 241.402344 156.355469 241.402344 156.292969 241.433594 C 156.730469 240.121094 157.824219 239.402344 158.980469 239.402344 C 160.792969 239.402344 161.636719 241.027344 161.636719 242.652344 C 161.636719 244.246094 160.667969 245.808594 159.542969 247.058594 L 155.730469 251.308594 C 155.511719 251.527344 155.511719 251.589844 155.511719 252.058594 L 162.917969 252.058594 L 163.449219 248.589844 L 162.980469 248.589844 C 162.855469 249.183594 162.730469 250.058594 162.511719 250.371094 C 162.386719 250.527344 161.074219 250.527344 160.636719 250.527344 Z M 157.042969 250.527344 "/>
<path style="fill:none;stroke-width:1.6;stroke-linecap:round;stroke-linejoin:round;stroke:rgb(0%,0%,0%);stroke-opacity:1;stroke-miterlimit:4;" d="M 120.765625 173.445312 L 139.96875 173.445312 C 142.625 173.445312 144.765625 175.585938 144.765625 178.246094 L 144.765625 197.445312 C 144.765625 200.105469 142.625 202.246094 139.96875 202.246094 L 120.765625 202.246094 C 118.109375 202.246094 115.96875 200.105469 115.96875 197.445312 L 115.96875 178.246094 C 115.96875 175.585938 118.109375 173.445312 120.765625 173.445312 Z M 120.765625 173.445312 "/>
<path style=" stroke:none;fill-rule:nonzero;fill:rgb(0%,0%,0%);fill-opacity:1;" d="M 131.179688 181.738281 C 131.179688 181.238281 131.179688 181.207031 130.710938 181.207031 C 129.460938 182.488281 127.710938 182.488281 127.085938 182.488281 L 127.085938 183.113281 C 127.492188 183.113281 128.648438 183.113281 129.679688 182.582031 L 129.679688 192.925781 C 129.679688 193.644531 129.617188 193.863281 127.835938 193.863281 L 127.210938 193.863281 L 127.210938 194.488281 C 127.898438 194.425781 129.617188 194.425781 130.429688 194.425781 C 131.210938 194.425781 132.960938 194.425781 133.648438 194.488281 L 133.648438 193.863281 L 133.023438 193.863281 C 131.210938 193.863281 131.179688 193.644531 131.179688 192.925781 Z M 131.179688 181.738281 "/>
<path style="fill:none;stroke-width:1.6;stroke-linecap:round;stroke-linejoin:round;stroke:rgb(0%,0%,0%);stroke-opacity:1;stroke-miterlimit:4;" d="M 149.9375 115.847656 L 169.136719 115.847656 C 171.796875 115.847656 173.9375 117.988281 173.9375 120.648438 L 173.9375 139.847656 C 173.9375 142.503906 171.796875 144.648438 169.136719 144.648438 L 149.9375 144.648438 C 147.277344 144.648438 145.136719 142.503906 145.136719 139.847656 L 145.136719 120.648438 C 145.136719 117.988281 147.277344 115.847656 149.9375 115.847656 Z M 149.9375 115.847656 "/>
<path style=" stroke:none;fill-rule:nonzero;fill:rgb(0%,0%,0%);fill-opacity:1;" d="M 159.945312 130.636719 L 165.507812 130.636719 C 165.789062 130.636719 166.164062 130.636719 166.164062 130.230469 C 166.164062 129.855469 165.789062 129.855469 165.507812 129.855469 L 159.945312 129.855469 L 159.945312 124.261719 C 159.945312 123.980469 159.945312 123.605469 159.539062 123.605469 C 159.132812 123.605469 159.132812 123.980469 159.132812 124.261719 L 159.132812 129.855469 L 153.570312 129.855469 C 153.289062 129.855469 152.914062 129.855469 152.914062 130.230469 C 152.914062 130.636719 153.289062 130.636719 153.570312 130.636719 L 159.132812 130.636719 L 159.132812 136.230469 C 159.132812 136.511719 159.132812 136.886719 159.539062 136.886719 C 159.945312 136.886719 159.945312 136.511719 159.945312 136.230469 Z M 159.945312 130.636719 "/>
<path style="fill:none;stroke-width:0.8;stroke-linecap:butt;stroke-linejoin:miter;stroke:rgb(100%,0%,0%);stroke-opacity:1;stroke-miterlimit:4;" d="M 130.398438 173.589844 L 154.5625 145.523438 "/>
<path style="fill-rule:evenodd;fill:rgb(100%,0%,0%);fill-opacity:1;stroke-width:0.606287;stroke-linecap:butt;stroke-linejoin:miter;stroke:rgb(100%,0%,0%);stroke-opacity:1;stroke-miterlimit:4;" d="M -32.850922 160.725686 C -32.850298 162.064992 -33.934892 163.15103 -35.274198 163.151655 C -36.613504 163.152279 -37.699229 162.063511 -37.699854 160.724205 C -37.698547 159.387142 -36.613953 158.301104 -35.274647 158.30048 C -33.935341 158.299855 -32.851547 159.38638 -32.850922 160.725686 Z M -32.850922 160.725686 " transform="matrix(0.86087,-1,1,0.86087,0,0)"/>
<path style="fill-rule:evenodd;fill:rgb(100%,0%,0%);fill-opacity:1;stroke-width:0.606287;stroke-linecap:butt;stroke-linejoin:miter;stroke:rgb(100%,0%,0%);stroke-opacity:1;stroke-miterlimit:4;" d="M 13.221768 -160.725974 L 15.646975 -163.149699 L 7.159404 -160.725816 L 15.645494 -158.300767 Z M 13.221768 -160.725974 " transform="matrix(-0.86087,1,-1,-0.86087,0,0)"/>
<path style="fill:none;stroke-width:0.8;stroke-linecap:butt;stroke-linejoin:miter;stroke:rgb(100%,0%,0%);stroke-opacity:1;stroke-miterlimit:4;" d="M 188 173.589844 L 163.835938 145.523438 "/>
<path style="fill-rule:evenodd;fill:rgb(100%,0%,0%);fill-opacity:1;stroke-width:0.606287;stroke-linecap:butt;stroke-linejoin:miter;stroke:rgb(100%,0%,0%);stroke-opacity:1;stroke-miterlimit:4;" d="M -190.280197 22.146612 C -190.280822 23.485918 -191.366548 24.574686 -192.705854 24.574062 C -194.04516 24.573437 -195.129754 23.487399 -195.129129 22.148093 C -195.128504 20.808787 -194.04471 19.722262 -192.705404 19.722887 C -191.366098 19.723511 -190.281504 20.809549 -190.280197 22.146612 Z M -190.280197 22.146612 " transform="matrix(-0.86087,-1,1,-0.86087,0,0)"/>
<path style="fill-rule:evenodd;fill:rgb(100%,0%,0%);fill-opacity:1;stroke-width:0.606287;stroke-linecap:butt;stroke-linejoin:miter;stroke:rgb(100%,0%,0%);stroke-opacity:1;stroke-miterlimit:4;" d="M 170.651043 -22.146324 L 173.0767 -24.573774 L 164.588679 -22.146481 L 173.07625 -19.722599 Z M 170.651043 -22.146324 " transform="matrix(0.86087,1,-1,0.86087,0,0)"/>
<path style="fill:none;stroke-width:0.8;stroke-linecap:butt;stroke-linejoin:miter;stroke:rgb(100%,0%,0%);stroke-opacity:1;stroke-miterlimit:4;" d="M 159.199219 231.191406 L 183.363281 203.121094 "/>
<path style="fill-rule:evenodd;fill:rgb(100%,0%,0%);fill-opacity:1;stroke-width:0.606287;stroke-linecap:butt;stroke-linejoin:miter;stroke:rgb(100%,0%,0%);stroke-opacity:1;stroke-miterlimit:4;" d="M -51.691874 205.746078 C -51.69125 207.085384 -52.780018 208.171109 -54.117081 208.169803 C -55.456387 208.170427 -56.542425 207.085833 -56.543049 205.746527 C -56.543674 204.407221 -55.454905 203.321496 -54.117843 203.322802 C -52.778537 203.322178 -51.692499 204.406772 -51.691874 205.746078 Z M -51.691874 205.746078 " transform="matrix(0.86087,-1,1,0.86087,0,0)"/>
<path style="fill-rule:evenodd;fill:rgb(100%,0%,0%);fill-opacity:1;stroke-width:0.606287;stroke-linecap:butt;stroke-linejoin:miter;stroke:rgb(100%,0%,0%);stroke-opacity:1;stroke-miterlimit:4;" d="M 32.06272 -205.746365 L 34.49017 -208.172022 L 26.000356 -205.746208 L 34.49062 -203.320847 Z M 32.06272 -205.746365 " transform="matrix(-0.86087,1,-1,-0.86087,0,0)"/>
<path style="fill:none;stroke-width:0.8;stroke-linecap:butt;stroke-linejoin:miter;stroke:rgb(100%,0%,0%);stroke-opacity:1;stroke-miterlimit:4;" d="M 216.800781 231.191406 L 192.636719 203.121094 "/>
<path style="fill-rule:evenodd;fill:rgb(100%,0%,0%);fill-opacity:1;stroke-width:0.606287;stroke-linecap:butt;stroke-linejoin:miter;stroke:rgb(100%,0%,0%);stroke-opacity:1;stroke-miterlimit:4;" d="M -237.601729 10.209706 C -237.602354 11.549012 -238.688392 12.633605 -240.027698 12.632981 C -241.36476 12.634288 -242.453529 11.548562 -242.452904 10.209256 C -242.45228 8.86995 -241.366242 7.785356 -240.026936 7.785981 C -238.689873 7.784674 -237.601105 8.8704 -237.601729 10.209706 Z M -237.601729 10.209706 " transform="matrix(-0.86087,-1,1,-0.86087,0,0)"/>
<path style="fill-rule:evenodd;fill:rgb(100%,0%,0%);fill-opacity:1;stroke-width:0.606287;stroke-linecap:butt;stroke-linejoin:miter;stroke:rgb(100%,0%,0%);stroke-opacity:1;stroke-miterlimit:4;" d="M 217.972575 -10.209418 L 220.400475 -12.634937 L 211.910211 -10.209575 L 220.400025 -7.783761 Z M 217.972575 -10.209418 " transform="matrix(0.86087,1,-1,0.86087,0,0)"/>
<path style="fill:none;stroke-width:1.6;stroke-linecap:round;stroke-linejoin:round;stroke:rgb(0%,0%,0%);stroke-opacity:1;stroke-miterlimit:4;" d="M 236 173.589844 L 255.199219 173.589844 C 257.859375 173.589844 260 175.730469 260 178.390625 L 260 197.589844 C 260 200.25 257.859375 202.390625 255.199219 202.390625 L 236 202.390625 C 233.339844 202.390625 231.199219 200.25 231.199219 197.589844 L 231.199219 178.390625 C 231.199219 175.730469 233.339844 173.589844 236 173.589844 Z M 236 173.589844 "/>
<path style=" stroke:none;fill-rule:nonzero;fill:rgb(0%,0%,0%);fill-opacity:1;" d="M 246.710938 186.253906 C 246.835938 185.753906 247.304688 183.910156 248.679688 183.910156 C 248.773438 183.910156 249.273438 183.910156 249.679688 184.160156 C 249.117188 184.285156 248.742188 184.753906 248.742188 185.253906 C 248.742188 185.566406 248.960938 185.941406 249.492188 185.941406 C 249.929688 185.941406 250.554688 185.597656 250.554688 184.785156 C 250.554688 183.753906 249.398438 183.472656 248.710938 183.472656 C 247.554688 183.472656 246.867188 184.535156 246.617188 184.972656 C 246.117188 183.660156 245.054688 183.472656 244.460938 183.472656 C 242.398438 183.472656 241.242188 186.035156 241.242188 186.535156 C 241.242188 186.753906 241.460938 186.753906 241.492188 186.753906 C 241.648438 186.753906 241.710938 186.691406 241.742188 186.535156 C 242.429688 184.410156 243.742188 183.910156 244.429688 183.910156 C 244.804688 183.910156 245.492188 184.097656 245.492188 185.253906 C 245.492188 185.878906 245.148438 187.191406 244.429688 190.003906 C 244.117188 191.222656 243.398438 192.066406 242.523438 192.066406 C 242.398438 192.066406 241.960938 192.066406 241.523438 191.816406 C 242.023438 191.691406 242.460938 191.285156 242.460938 190.722656 C 242.460938 190.191406 242.023438 190.035156 241.742188 190.035156 C 241.117188 190.035156 240.648438 190.535156 240.648438 191.191406 C 240.648438 192.097656 241.617188 192.503906 242.492188 192.503906 C 243.835938 192.503906 244.554688 191.097656 244.585938 191.003906 C 244.835938 191.722656 245.554688 192.503906 246.742188 192.503906 C 248.804688 192.503906 249.929688 189.941406 249.929688 189.441406 C 249.929688 189.222656 249.773438 189.222656 249.710938 189.222656 C 249.523438 189.222656 249.492188 189.316406 249.429688 189.441406 C 248.773438 191.597656 247.429688 192.066406 246.804688 192.066406 C 246.023438 192.066406 245.710938 191.441406 245.710938 190.753906 C 245.710938 190.316406 245.804688 189.878906 246.023438 189.003906 Z M 246.710938 186.253906 "/>
<g clip-path="url(#clip2)" clip-rule="nonzero">
<path style="fill:none;stroke-width:1.6;stroke-linecap:round;stroke-linejoin:round;stroke:rgb(0%,0%,0%);stroke-opacity:1;stroke-miterlimit:4;" d="M 293.867188 174.199219 L 313.066406 174.199219 C 315.726562 174.199219 317.867188 176.34375 317.867188 179 L 317.867188 198.199219 C 317.867188 200.859375 315.726562 203 313.066406 203 L 293.867188 203 C 291.207031 203 289.066406 200.859375 289.066406 198.199219 L 289.066406 179 C 289.066406 176.34375 291.207031 174.199219 293.867188 174.199219 Z M 293.867188 174.199219 "/>
</g>
<path style=" stroke:none;fill-rule:nonzero;fill:rgb(0%,0%,0%);fill-opacity:1;" d="M 304.578125 186.867188 C 304.703125 186.367188 305.171875 184.523438 306.546875 184.523438 C 306.640625 184.523438 307.140625 184.523438 307.546875 184.773438 C 306.984375 184.898438 306.609375 185.367188 306.609375 185.867188 C 306.609375 186.179688 306.828125 186.554688 307.359375 186.554688 C 307.796875 186.554688 308.421875 186.210938 308.421875 185.398438 C 308.421875 184.367188 307.265625 184.085938 306.578125 184.085938 C 305.421875 184.085938 304.734375 185.148438 304.484375 185.585938 C 303.984375 184.273438 302.921875 184.085938 302.328125 184.085938 C 300.265625 184.085938 299.109375 186.648438 299.109375 187.148438 C 299.109375 187.367188 299.328125 187.367188 299.359375 187.367188 C 299.515625 187.367188 299.578125 187.304688 299.609375 187.148438 C 300.296875 185.023438 301.609375 184.523438 302.296875 184.523438 C 302.671875 184.523438 303.359375 184.710938 303.359375 185.867188 C 303.359375 186.492188 303.015625 187.804688 302.296875 190.617188 C 301.984375 191.835938 301.265625 192.679688 300.390625 192.679688 C 300.265625 192.679688 299.828125 192.679688 299.390625 192.429688 C 299.890625 192.304688 300.328125 191.898438 300.328125 191.335938 C 300.328125 190.804688 299.890625 190.648438 299.609375 190.648438 C 298.984375 190.648438 298.515625 191.148438 298.515625 191.804688 C 298.515625 192.710938 299.484375 193.117188 300.359375 193.117188 C 301.703125 193.117188 302.421875 191.710938 302.453125 191.617188 C 302.703125 192.335938 303.421875 193.117188 304.609375 193.117188 C 306.671875 193.117188 307.796875 190.554688 307.796875 190.054688 C 307.796875 189.835938 307.640625 189.835938 307.578125 189.835938 C 307.390625 189.835938 307.359375 189.929688 307.296875 190.054688 C 306.640625 192.210938 305.296875 192.679688 304.671875 192.679688 C 303.890625 192.679688 303.578125 192.054688 303.578125 191.367188 C 303.578125 190.929688 303.671875 190.492188 303.890625 189.617188 Z M 304.578125 186.867188 "/>
<path style="fill:none;stroke-width:1.6;stroke-linecap:round;stroke-linejoin:round;stroke:rgb(0%,0%,0%);stroke-opacity:1;stroke-miterlimit:4;" d="M 264.800781 115.988281 L 284 115.988281 C 286.660156 115.988281 288.800781 118.128906 288.800781 120.789062 L 288.800781 139.988281 C 288.800781 142.648438 286.660156 144.789062 284 144.789062 L 264.800781 144.789062 C 262.140625 144.789062 260 142.648438 260 139.988281 L 260 120.789062 C 260 118.128906 262.140625 115.988281 264.800781 115.988281 Z M 264.800781 115.988281 "/>
<path style=" stroke:none;fill-rule:nonzero;fill:rgb(0%,0%,0%);fill-opacity:1;" d="M 274.398438 129.84375 L 270.429688 125.875 C 270.179688 125.625 270.148438 125.59375 269.992188 125.59375 C 269.773438 125.59375 269.585938 125.75 269.585938 126 C 269.585938 126.125 269.617188 126.15625 269.835938 126.375 L 273.835938 130.375 L 269.835938 134.40625 C 269.617188 134.625 269.585938 134.65625 269.585938 134.78125 C 269.585938 135.03125 269.773438 135.1875 269.992188 135.1875 C 270.148438 135.1875 270.179688 135.15625 270.429688 134.90625 L 274.398438 130.9375 L 278.523438 135.0625 C 278.554688 135.09375 278.679688 135.1875 278.804688 135.1875 C 279.054688 135.1875 279.210938 135.03125 279.210938 134.78125 C 279.210938 134.75 279.210938 134.6875 279.148438 134.5625 C 279.117188 134.53125 275.960938 131.40625 274.960938 130.375 L 278.617188 126.75 C 278.710938 126.625 279.023438 126.375 279.117188 126.25 C 279.117188 126.21875 279.210938 126.125 279.210938 126 C 279.210938 125.75 279.054688 125.59375 278.804688 125.59375 C 278.648438 125.59375 278.585938 125.65625 278.367188 125.875 Z M 274.398438 129.84375 "/>
<path style="fill:none;stroke-width:0.8;stroke-linecap:butt;stroke-linejoin:miter;stroke:rgb(100%,0%,0%);stroke-opacity:1;stroke-miterlimit:4;" d="M 244.453125 173.828125 L 268.613281 145.757812 "/>
<path style="fill-rule:evenodd;fill:rgb(100%,0%,0%);fill-opacity:1;stroke-width:0.606287;stroke-linecap:butt;stroke-linejoin:miter;stroke:rgb(100%,0%,0%);stroke-opacity:1;stroke-miterlimit:4;" d="M 23.40779 226.348936 C 23.406483 227.685998 22.319646 228.773968 20.98034 228.774592 C 19.643277 228.773286 18.555308 227.686448 18.556615 226.349386 C 18.55599 225.01008 19.640584 223.924042 20.97989 223.923417 C 22.319196 223.922793 23.407165 225.00963 23.40779 226.348936 Z M 23.40779 226.348936 " transform="matrix(0.86087,-1,1,0.86087,0,0)"/>
<path style="fill-rule:evenodd;fill:rgb(100%,0%,0%);fill-opacity:1;stroke-width:0.606287;stroke-linecap:butt;stroke-linejoin:miter;stroke:rgb(100%,0%,0%);stroke-opacity:1;stroke-miterlimit:4;" d="M -43.032769 -226.348912 L -40.609494 -228.77488 L -49.097377 -226.346823 L -40.609044 -223.923705 Z M -43.032769 -226.348912 " transform="matrix(-0.86087,1,-1,-0.86087,0,0)"/>
<path style="fill:none;stroke-width:0.8;stroke-linecap:butt;stroke-linejoin:miter;stroke:rgb(100%,0%,0%);stroke-opacity:1;stroke-miterlimit:4;" d="M 302.214844 173.09375 L 278.050781 145.027344 "/>
<path style="fill-rule:evenodd;fill:rgb(100%,0%,0%);fill-opacity:1;stroke-width:0.606287;stroke-linecap:butt;stroke-linejoin:miter;stroke:rgb(100%,0%,0%);stroke-opacity:1;stroke-miterlimit:4;" d="M -246.467779 87.991252 C -246.468404 89.330558 -247.556373 90.417395 -248.893435 90.418702 C -250.232741 90.418077 -251.319579 89.330108 -251.318954 87.990802 C -251.320261 86.653739 -250.232292 85.566902 -248.892986 85.567527 C -247.555923 85.56622 -246.469086 86.654189 -246.467779 87.991252 Z M -246.467779 87.991252 " transform="matrix(-0.86087,-1,1,-0.86087,0,0)"/>
<path style="fill-rule:evenodd;fill:rgb(100%,0%,0%);fill-opacity:1;stroke-width:0.606287;stroke-linecap:butt;stroke-linejoin:miter;stroke:rgb(100%,0%,0%);stroke-opacity:1;stroke-miterlimit:4;" d="M 226.840556 -87.993208 L 229.266525 -90.416483 L 220.776261 -87.991122 L 229.263832 -85.567239 Z M 226.840556 -87.993208 " transform="matrix(0.86087,1,-1,0.86087,0,0)"/>
<path style="fill:none;stroke-width:0.8;stroke-linecap:butt;stroke-linejoin:miter;stroke:rgb(100%,0%,0%);stroke-opacity:1;stroke-miterlimit:4;" d="M 159.199219 115.988281 L 212 87.191406 "/>
<path style="fill-rule:evenodd;fill:rgb(100%,0%,0%);fill-opacity:1;stroke-width:0.702316;stroke-linecap:butt;stroke-linejoin:miter;stroke:rgb(100%,0%,0%);stroke-opacity:1;stroke-miterlimit:4;" d="M 76.688476 156.318394 C 76.689843 157.869921 75.429518 159.127783 73.879633 159.12614 C 72.328105 159.127508 71.070244 157.867182 71.071886 156.317297 C 71.068876 154.76878 72.329202 153.510919 73.880729 153.509551 C 75.430615 153.511193 76.687108 154.766866 76.688476 156.318394 Z M 76.688476 156.318394 " transform="matrix(1,-0.545455,0.545455,1,0,0)"/>
<path style="fill-rule:evenodd;fill:rgb(100%,0%,0%);fill-opacity:1;stroke-width:0.702316;stroke-linecap:butt;stroke-linejoin:miter;stroke:rgb(100%,0%,0%);stroke-opacity:1;stroke-miterlimit:4;" d="M -119.712502 -156.317314 L -116.902017 -159.128071 L -126.734744 -156.319506 L -116.904756 -153.508471 Z M -119.712502 -156.317314 " transform="matrix(-1,0.545455,-0.545455,-1,0,0)"/>
<path style="fill:none;stroke-width:0.8;stroke-linecap:butt;stroke-linejoin:miter;stroke:rgb(100%,0%,0%);stroke-opacity:1;stroke-miterlimit:4;" d="M 274.398438 115.988281 L 221.601562 87.191406 "/>
<path style="fill-rule:evenodd;fill:rgb(100%,0%,0%);fill-opacity:1;stroke-width:0.702316;stroke-linecap:butt;stroke-linejoin:miter;stroke:rgb(100%,0%,0%);stroke-opacity:1;stroke-miterlimit:4;" d="M -257.488397 25.960052 C -257.486754 27.509938 -258.746258 28.767253 -260.296143 28.768895 C -261.847671 28.767528 -263.104986 27.508024 -263.104986 25.961149 C -263.103619 24.409622 -261.845757 23.149296 -260.29724 23.152306 C -258.747355 23.150663 -257.487029 24.408525 -257.488397 25.960052 Z M -257.488397 25.960052 " transform="matrix(-1,-0.545455,0.545455,-1,0,0)"/>
<path style="fill-rule:evenodd;fill:rgb(100%,0%,0%);fill-opacity:1;stroke-width:0.702316;stroke-linecap:butt;stroke-linejoin:miter;stroke:rgb(100%,0%,0%);stroke-opacity:1;stroke-miterlimit:4;" d="M 214.464371 -25.961132 L 217.272117 -28.769975 L 207.442129 -25.95894 L 217.271845 -23.148733 Z M 214.464371 -25.961132 " transform="matrix(1,0.545455,-0.545455,1,0,0)"/>
<path style="fill:none;stroke-width:0.8;stroke-linecap:butt;stroke-linejoin:miter;stroke:rgb(100%,0%,0%);stroke-opacity:1;stroke-miterlimit:4;" d="M 44 58.390625 L 125.601562 29.589844 "/>
<path style="fill-rule:evenodd;fill:rgb(100%,0%,0%);fill-opacity:1;stroke-width:0.754392;stroke-linecap:butt;stroke-linejoin:miter;stroke:rgb(100%,0%,0%);stroke-opacity:1;stroke-miterlimit:4;" d="M 23.757307 65.732584 C 23.759555 67.39744 22.407728 68.74845 20.739399 68.749472 C 19.075769 68.748246 17.724759 67.396419 17.722511 65.731563 C 17.724963 64.06446 19.073316 62.712224 20.74042 62.714676 C 22.405276 62.712428 23.759759 64.065481 23.757307 65.732584 Z M 23.757307 65.732584 " transform="matrix(1,-0.352941,0.352941,1,0,0)"/>
<path style="fill-rule:evenodd;fill:rgb(100%,0%,0%);fill-opacity:1;stroke-width:0.754392;stroke-linecap:butt;stroke-linejoin:miter;stroke:rgb(100%,0%,0%);stroke-opacity:1;stroke-miterlimit:4;" d="M -94.855112 -65.732164 L -91.840677 -68.750278 L -102.402131 -65.731754 L -91.838224 -62.714256 Z M -94.855112 -65.732164 " transform="matrix(-1,0.352941,-0.352941,-1,0,0)"/>
<path style="fill:none;stroke-width:0.8;stroke-linecap:butt;stroke-linejoin:miter;stroke:rgb(100%,0%,0%);stroke-opacity:1;stroke-miterlimit:4;" d="M 216.800781 58.390625 L 135.199219 29.589844 "/>
<path style="fill-rule:evenodd;fill:rgb(100%,0%,0%);fill-opacity:1;stroke-width:0.754392;stroke-linecap:butt;stroke-linejoin:miter;stroke:rgb(100%,0%,0%);stroke-opacity:1;stroke-miterlimit:4;" d="M -208.154798 16.118706 C -208.152346 17.78581 -209.503356 19.137636 -211.171685 19.136615 C -212.835315 19.13784 -214.187142 17.78683 -214.189594 16.119727 C -214.187346 14.454871 -212.836336 13.103044 -211.172706 13.101819 C -209.504377 13.10284 -208.15255 14.45385 -208.154798 16.118706 Z M -208.154798 16.118706 " transform="matrix(-1,-0.352941,0.352941,-1,0,0)"/>
<path style="fill-rule:evenodd;fill:rgb(100%,0%,0%);fill-opacity:1;stroke-width:0.754392;stroke-linecap:butt;stroke-linejoin:miter;stroke:rgb(100%,0%,0%);stroke-opacity:1;stroke-miterlimit:4;" d="M 137.05352 -16.1179 L 140.073881 -19.137034 L 129.509974 -16.119536 L 140.071428 -13.101012 Z M 137.05352 -16.1179 " transform="matrix(1,0.352941,-0.352941,1,0,0)"/>
<path style="fill:none;stroke-width:1.6;stroke-linecap:round;stroke-linejoin:round;stroke:rgb(0%,0%,0%);stroke-opacity:1;stroke-miterlimit:4;" d="M 120.800781 0.789062 L 140 0.789062 C 142.660156 0.789062 144.800781 2.929688 144.800781 5.589844 L 144.800781 24.789062 C 144.800781 27.449219 142.660156 29.589844 140 29.589844 L 120.800781 29.589844 C 118.140625 29.589844 116 27.449219 116 24.789062 L 116 5.589844 C 116 2.929688 118.140625 0.789062 120.800781 0.789062 Z M 120.800781 0.789062 "/>
<path style=" stroke:none;fill-rule:nonzero;fill:rgb(0%,0%,0%);fill-opacity:1;" d="M 134.179688 5.988281 C 134.273438 5.707031 134.273438 5.644531 134.273438 5.613281 C 134.273438 5.394531 134.117188 5.207031 133.898438 5.207031 C 133.742188 5.207031 133.617188 5.269531 133.554688 5.394531 L 126.617188 24.394531 C 126.523438 24.675781 126.523438 24.738281 126.523438 24.769531 C 126.523438 24.988281 126.710938 25.175781 126.929688 25.175781 C 127.179688 25.175781 127.242188 25.019531 127.367188 24.675781 Z M 134.179688 5.988281 "/>
</g>
</svg>
