<?xml version="1.0" encoding="UTF-8"?>
<svg xmlns="http://www.w3.org/2000/svg" xmlns:xlink="http://www.w3.org/1999/xlink" width="376.267303pt" height="261.411316pt" viewBox="0 0 376.267303 261.411316" version="1.1">
<defs>
<clipPath id="clip1">
  <path d="M 345 231 L 376.265625 231 L 376.265625 261.410156 L 345 261.410156 Z M 345 231 "/>
</clipPath>
<clipPath id="clip2">
  <path d="M 230 231 L 262 231 L 262 261.410156 L 230 261.410156 Z M 230 231 "/>
</clipPath>
</defs>
<g id="surface1">
<path style="fill:none;stroke-width:1.6;stroke-linecap:round;stroke-linejoin:round;stroke:rgb(0%,0%,0%);stroke-opacity:1;stroke-miterlimit:4;" d="M 149.601562 115.988281 L 168.800781 115.988281 C 171.460938 115.988281 173.601562 118.128906 173.601562 120.789062 L 173.601562 139.988281 C 173.601562 142.648438 171.460938 144.789062 168.800781 144.789062 L 149.601562 144.789062 C 146.941406 144.789062 144.800781 142.648438 144.800781 139.988281 L 144.800781 120.789062 C 144.800781 118.128906 146.941406 115.988281 149.601562 115.988281 Z M 149.601562 115.988281 "/>
<path style=" stroke:none;fill-rule:nonzero;fill:rgb(0%,0%,0%);fill-opacity:1;" d="M 160.011719 124.28125 C 160.011719 123.78125 160.011719 123.75 159.542969 123.75 C 158.292969 125.03125 156.542969 125.03125 155.917969 125.03125 L 155.917969 125.65625 C 156.324219 125.65625 157.480469 125.65625 158.511719 125.125 L 158.511719 135.46875 C 158.511719 136.1875 158.449219 136.40625 156.667969 136.40625 L 156.042969 136.40625 L 156.042969 137.03125 C 156.730469 136.96875 158.449219 136.96875 159.261719 136.96875 C 160.042969 136.96875 161.792969 136.96875 162.480469 137.03125 L 162.480469 136.40625 L 161.855469 136.40625 C 160.042969 136.40625 160.011719 136.1875 160.011719 135.46875 Z M 160.011719 124.28125 "/>
<path style="fill:none;stroke-width:1.6;stroke-linecap:round;stroke-linejoin:round;stroke:rgb(0%,0%,0%);stroke-opacity:1;stroke-miterlimit:4;" d="M 5.601562 115.988281 L 24.800781 115.988281 C 27.460938 115.988281 29.601562 118.128906 29.601562 120.789062 L 29.601562 139.988281 C 29.601562 142.648438 27.460938 144.789062 24.800781 144.789062 L 5.601562 144.789062 C 2.941406 144.789062 0.800781 142.648438 0.800781 139.988281 L 0.800781 120.789062 C 0.800781 118.128906 2.941406 115.988281 5.601562 115.988281 Z M 5.601562 115.988281 "/>
<path style=" stroke:none;fill-rule:nonzero;fill:rgb(0%,0%,0%);fill-opacity:1;" d="M 16.011719 124.28125 C 16.011719 123.78125 16.011719 123.75 15.542969 123.75 C 14.292969 125.03125 12.542969 125.03125 11.917969 125.03125 L 11.917969 125.65625 C 12.324219 125.65625 13.480469 125.65625 14.511719 125.125 L 14.511719 135.46875 C 14.511719 136.1875 14.449219 136.40625 12.667969 136.40625 L 12.042969 136.40625 L 12.042969 137.03125 C 12.730469 136.96875 14.449219 136.96875 15.261719 136.96875 C 16.042969 136.96875 17.792969 136.96875 18.480469 137.03125 L 18.480469 136.40625 L 17.855469 136.40625 C 16.042969 136.40625 16.011719 136.1875 16.011719 135.46875 Z M 16.011719 124.28125 "/>
<path style="fill:none;stroke-width:1.6;stroke-linecap:round;stroke-linejoin:round;stroke:rgb(0%,0%,0%);stroke-opacity:1;stroke-miterlimit:4;" d="M 63.199219 115.988281 L 82.398438 115.988281 C 85.058594 115.988281 87.199219 118.128906 87.199219 120.789062 L 87.199219 139.988281 C 87.199219 142.648438 85.058594 144.789062 82.398438 144.789062 L 63.199219 144.789062 C 60.539062 144.789062 58.398438 142.648438 58.398438 139.988281 L 58.398438 120.789062 C 58.398438 118.128906 60.539062 115.988281 63.199219 115.988281 Z M 63.199219 115.988281 "/>
<path style=" stroke:none;fill-rule:nonzero;fill:rgb(0%,0%,0%);fill-opacity:1;" d="M 73.910156 128.65625 C 74.035156 128.15625 74.503906 126.3125 75.878906 126.3125 C 75.972656 126.3125 76.472656 126.3125 76.878906 126.5625 C 76.316406 126.6875 75.941406 127.15625 75.941406 127.65625 C 75.941406 127.96875 76.160156 128.34375 76.691406 128.34375 C 77.128906 128.34375 77.753906 128 77.753906 127.1875 C 77.753906 126.15625 76.597656 125.875 75.910156 125.875 C 74.753906 125.875 74.066406 126.9375 73.816406 127.375 C 73.316406 126.0625 72.253906 125.875 71.660156 125.875 C 69.597656 125.875 68.441406 128.4375 68.441406 128.9375 C 68.441406 129.15625 68.660156 129.15625 68.691406 129.15625 C 68.847656 129.15625 68.910156 129.09375 68.941406 128.9375 C 69.628906 126.8125 70.941406 126.3125 71.628906 126.3125 C 72.003906 126.3125 72.691406 126.5 72.691406 127.65625 C 72.691406 128.28125 72.347656 129.59375 71.628906 132.40625 C 71.316406 133.625 70.597656 134.46875 69.722656 134.46875 C 69.597656 134.46875 69.160156 134.46875 68.722656 134.21875 C 69.222656 134.09375 69.660156 133.6875 69.660156 133.125 C 69.660156 132.59375 69.222656 132.4375 68.941406 132.4375 C 68.316406 132.4375 67.847656 132.9375 67.847656 133.59375 C 67.847656 134.5 68.816406 134.90625 69.691406 134.90625 C 71.035156 134.90625 71.753906 133.5 71.785156 133.40625 C 72.035156 134.125 72.753906 134.90625 73.941406 134.90625 C 76.003906 134.90625 77.128906 132.34375 77.128906 131.84375 C 77.128906 131.625 76.972656 131.625 76.910156 131.625 C 76.722656 131.625 76.691406 131.71875 76.628906 131.84375 C 75.972656 134 74.628906 134.46875 74.003906 134.46875 C 73.222656 134.46875 72.910156 133.84375 72.910156 133.15625 C 72.910156 132.71875 73.003906 132.28125 73.222656 131.40625 Z M 73.910156 128.65625 "/>
<path style="fill:none;stroke-width:1.6;stroke-linecap:round;stroke-linejoin:round;stroke:rgb(0%,0%,0%);stroke-opacity:1;stroke-miterlimit:4;" d="M 34.398438 58.390625 L 53.601562 58.390625 C 56.257812 58.390625 58.398438 60.53125 58.398438 63.191406 L 58.398438 82.390625 C 58.398438 85.050781 56.257812 87.191406 53.601562 87.191406 L 34.398438 87.191406 C 31.742188 87.191406 29.601562 85.050781 29.601562 82.390625 L 29.601562 63.191406 C 29.601562 60.53125 31.742188 58.390625 34.398438 58.390625 Z M 34.398438 58.390625 "/>
<path style=" stroke:none;fill-rule:nonzero;fill:rgb(0%,0%,0%);fill-opacity:1;" d="M 44.40625 73.179688 L 49.96875 73.179688 C 50.25 73.179688 50.625 73.179688 50.625 72.773438 C 50.625 72.398438 50.25 72.398438 49.96875 72.398438 L 44.40625 72.398438 L 44.40625 66.804688 C 44.40625 66.523438 44.40625 66.148438 44 66.148438 C 43.59375 66.148438 43.59375 66.523438 43.59375 66.804688 L 43.59375 72.398438 L 38.03125 72.398438 C 37.75 72.398438 37.375 72.398438 37.375 72.773438 C 37.375 73.179688 37.75 73.179688 38.03125 73.179688 L 43.59375 73.179688 L 43.59375 78.773438 C 43.59375 79.054688 43.59375 79.429688 44 79.429688 C 44.40625 79.429688 44.40625 79.054688 44.40625 78.773438 Z M 44.40625 73.179688 "/>
<path style="fill:none;stroke-width:0.8;stroke-linecap:butt;stroke-linejoin:miter;stroke:rgb(100%,0%,0%);stroke-opacity:1;stroke-miterlimit:4;" d="M 14.6875 115.976562 L 38.847656 87.90625 "/>
<path style="fill-rule:evenodd;fill:rgb(100%,0%,0%);fill-opacity:1;stroke-width:0.606287;stroke-linecap:butt;stroke-linejoin:miter;stroke:rgb(100%,0%,0%);stroke-opacity:1;stroke-miterlimit:4;" d="M -56.972638 65.776503 C -56.972013 67.115809 -58.05885 68.203779 -59.398156 68.204403 C -60.735219 68.203097 -61.823188 67.116259 -61.823813 65.776953 C -61.822506 64.439891 -60.735669 63.351921 -59.398606 63.353228 C -58.0593 63.352604 -56.971331 64.439441 -56.972638 65.776503 Z M -56.972638 65.776503 " transform="matrix(0.86087,-1,1,0.86087,0,0)"/>
<path style="fill-rule:evenodd;fill:rgb(100%,0%,0%);fill-opacity:1;stroke-width:0.606287;stroke-linecap:butt;stroke-linejoin:miter;stroke:rgb(100%,0%,0%);stroke-opacity:1;stroke-miterlimit:4;" d="M 37.343484 -65.776791 L 39.769003 -68.204691 L 31.281119 -65.776634 L 39.769452 -63.353516 Z M 37.343484 -65.776791 " transform="matrix(-0.86087,1,-1,-0.86087,0,0)"/>
<path style="fill:none;stroke-width:0.8;stroke-linecap:butt;stroke-linejoin:miter;stroke:rgb(100%,0%,0%);stroke-opacity:1;stroke-miterlimit:4;" d="M 72.589844 115.34375 L 48.429688 87.277344 "/>
<path style="fill-rule:evenodd;fill:rgb(100%,0%,0%);fill-opacity:1;stroke-width:0.606287;stroke-linecap:butt;stroke-linejoin:miter;stroke:rgb(100%,0%,0%);stroke-opacity:1;stroke-miterlimit:4;" d="M -99.764931 -15.337761 C -99.763625 -14.000699 -100.84935 -12.91193 -102.188656 -12.912555 C -103.527962 -12.91318 -104.612556 -13.999217 -104.611932 -15.338523 C -104.615482 -16.677517 -103.527512 -17.764355 -102.188206 -17.76373 C -100.8489 -17.763105 -99.764307 -16.677067 -99.764931 -15.337761 Z M -99.764931 -15.337761 " transform="matrix(-0.86087,-1,1,-0.86087,0,0)"/>
<path style="fill-rule:evenodd;fill:rgb(100%,0%,0%);fill-opacity:1;stroke-width:0.606287;stroke-linecap:butt;stroke-linejoin:miter;stroke:rgb(100%,0%,0%);stroke-opacity:1;stroke-miterlimit:4;" d="M 80.135777 15.338049 L 82.559502 12.912843 L 74.073413 15.337892 L 82.559053 17.764018 Z M 80.135777 15.338049 " transform="matrix(0.86087,1,-1,0.86087,0,0)"/>
<path style="fill:none;stroke-width:1.6;stroke-linecap:round;stroke-linejoin:round;stroke:rgb(0%,0%,0%);stroke-opacity:1;stroke-miterlimit:4;" d="M 207.199219 58.390625 L 226.398438 58.390625 C 229.058594 58.390625 231.199219 60.53125 231.199219 63.191406 L 231.199219 82.390625 C 231.199219 85.050781 229.058594 87.191406 226.398438 87.191406 L 207.199219 87.191406 C 204.539062 87.191406 202.398438 85.050781 202.398438 82.390625 L 202.398438 63.191406 C 202.398438 60.53125 204.539062 58.390625 207.199219 58.390625 Z M 207.199219 58.390625 "/>
<path style=" stroke:none;fill-rule:nonzero;fill:rgb(0%,0%,0%);fill-opacity:1;" d="M 217.207031 73.179688 L 222.769531 73.179688 C 223.050781 73.179688 223.425781 73.179688 223.425781 72.773438 C 223.425781 72.398438 223.050781 72.398438 222.769531 72.398438 L 217.207031 72.398438 L 217.207031 66.804688 C 217.207031 66.523438 217.207031 66.148438 216.800781 66.148438 C 216.394531 66.148438 216.394531 66.523438 216.394531 66.804688 L 216.394531 72.398438 L 210.832031 72.398438 C 210.550781 72.398438 210.175781 72.398438 210.175781 72.773438 C 210.175781 73.179688 210.550781 73.179688 210.832031 73.179688 L 216.394531 73.179688 L 216.394531 78.773438 C 216.394531 79.054688 216.394531 79.429688 216.800781 79.429688 C 217.207031 79.429688 217.207031 79.054688 217.207031 78.773438 Z M 217.207031 73.179688 "/>
<path style="fill:none;stroke-width:1.6;stroke-linecap:round;stroke-linejoin:round;stroke:rgb(0%,0%,0%);stroke-opacity:1;stroke-miterlimit:4;" d="M 264.800781 115.988281 L 284 115.988281 C 286.660156 115.988281 288.800781 118.128906 288.800781 120.789062 L 288.800781 139.988281 C 288.800781 142.648438 286.660156 144.789062 284 144.789062 L 264.800781 144.789062 C 262.140625 144.789062 260 142.648438 260 139.988281 L 260 120.789062 C 260 118.128906 262.140625 115.988281 264.800781 115.988281 Z M 264.800781 115.988281 "/>
<path style=" stroke:none;fill-rule:nonzero;fill:rgb(0%,0%,0%);fill-opacity:1;" d="M 279.773438 130.78125 C 280.117188 130.78125 280.492188 130.78125 280.492188 130.375 C 280.492188 130 280.117188 130 279.773438 130 L 268.992188 130 C 268.648438 130 268.304688 130 268.304688 130.375 C 268.304688 130.78125 268.648438 130.78125 268.992188 130.78125 Z M 279.773438 130.78125 "/>
<path style="fill:none;stroke-width:1.6;stroke-linecap:round;stroke-linejoin:round;stroke:rgb(0%,0%,0%);stroke-opacity:1;stroke-miterlimit:4;" d="M 293.601562 231.191406 L 312.800781 231.191406 C 315.460938 231.191406 317.601562 233.332031 317.601562 235.988281 L 317.601562 255.191406 C 317.601562 257.847656 315.460938 259.988281 312.800781 259.988281 L 293.601562 259.988281 C 290.941406 259.988281 288.800781 257.847656 288.800781 255.191406 L 288.800781 235.988281 C 288.800781 233.332031 290.941406 231.191406 293.601562 231.191406 Z M 293.601562 231.191406 "/>
<path style=" stroke:none;fill-rule:nonzero;fill:rgb(0%,0%,0%);fill-opacity:1;" d="M 304.308594 243.855469 C 304.433594 243.355469 304.902344 241.511719 306.277344 241.511719 C 306.371094 241.511719 306.871094 241.511719 307.277344 241.761719 C 306.714844 241.886719 306.339844 242.355469 306.339844 242.855469 C 306.339844 243.167969 306.558594 243.542969 307.089844 243.542969 C 307.527344 243.542969 308.152344 243.199219 308.152344 242.386719 C 308.152344 241.355469 306.996094 241.074219 306.308594 241.074219 C 305.152344 241.074219 304.464844 242.136719 304.214844 242.574219 C 303.714844 241.261719 302.652344 241.074219 302.058594 241.074219 C 299.996094 241.074219 298.839844 243.636719 298.839844 244.136719 C 298.839844 244.355469 299.058594 244.355469 299.089844 244.355469 C 299.246094 244.355469 299.308594 244.292969 299.339844 244.136719 C 300.027344 242.011719 301.339844 241.511719 302.027344 241.511719 C 302.402344 241.511719 303.089844 241.699219 303.089844 242.855469 C 303.089844 243.480469 302.746094 244.792969 302.027344 247.605469 C 301.714844 248.824219 300.996094 249.667969 300.121094 249.667969 C 299.996094 249.667969 299.558594 249.667969 299.121094 249.417969 C 299.621094 249.292969 300.058594 248.886719 300.058594 248.324219 C 300.058594 247.792969 299.621094 247.636719 299.339844 247.636719 C 298.714844 247.636719 298.246094 248.136719 298.246094 248.792969 C 298.246094 249.699219 299.214844 250.105469 300.089844 250.105469 C 301.433594 250.105469 302.152344 248.699219 302.183594 248.605469 C 302.433594 249.324219 303.152344 250.105469 304.339844 250.105469 C 306.402344 250.105469 307.527344 247.542969 307.527344 247.042969 C 307.527344 246.824219 307.371094 246.824219 307.308594 246.824219 C 307.121094 246.824219 307.089844 246.917969 307.027344 247.042969 C 306.371094 249.199219 305.027344 249.667969 304.402344 249.667969 C 303.621094 249.667969 303.308594 249.042969 303.308594 248.355469 C 303.308594 247.917969 303.402344 247.480469 303.621094 246.605469 Z M 304.308594 243.855469 "/>
<g clip-path="url(#clip1)" clip-rule="nonzero">
<path style="fill:none;stroke-width:1.6;stroke-linecap:round;stroke-linejoin:round;stroke:rgb(0%,0%,0%);stroke-opacity:1;stroke-miterlimit:4;" d="M 351.46875 231.800781 L 370.667969 231.800781 C 373.328125 231.800781 375.46875 233.941406 375.46875 236.601562 L 375.46875 255.800781 C 375.46875 258.460938 373.328125 260.601562 370.667969 260.601562 L 351.46875 260.601562 C 348.808594 260.601562 346.667969 258.460938 346.667969 255.800781 L 346.667969 236.601562 C 346.667969 233.941406 348.808594 231.800781 351.46875 231.800781 Z M 351.46875 231.800781 "/>
</g>
<path style=" stroke:none;fill-rule:nonzero;fill:rgb(0%,0%,0%);fill-opacity:1;" d="M 362.175781 244.464844 C 362.300781 243.964844 362.769531 242.121094 364.144531 242.121094 C 364.238281 242.121094 364.738281 242.121094 365.144531 242.371094 C 364.582031 242.496094 364.207031 242.964844 364.207031 243.464844 C 364.207031 243.777344 364.425781 244.152344 364.957031 244.152344 C 365.394531 244.152344 366.019531 243.808594 366.019531 242.996094 C 366.019531 241.964844 364.863281 241.683594 364.175781 241.683594 C 363.019531 241.683594 362.332031 242.746094 362.082031 243.183594 C 361.582031 241.871094 360.519531 241.683594 359.925781 241.683594 C 357.863281 241.683594 356.707031 244.246094 356.707031 244.746094 C 356.707031 244.964844 356.925781 244.964844 356.957031 244.964844 C 357.113281 244.964844 357.175781 244.902344 357.207031 244.746094 C 357.894531 242.621094 359.207031 242.121094 359.894531 242.121094 C 360.269531 242.121094 360.957031 242.308594 360.957031 243.464844 C 360.957031 244.089844 360.613281 245.402344 359.894531 248.214844 C 359.582031 249.433594 358.863281 250.277344 357.988281 250.277344 C 357.863281 250.277344 357.425781 250.277344 356.988281 250.027344 C 357.488281 249.902344 357.925781 249.496094 357.925781 248.933594 C 357.925781 248.402344 357.488281 248.246094 357.207031 248.246094 C 356.582031 248.246094 356.113281 248.746094 356.113281 249.402344 C 356.113281 250.308594 357.082031 250.714844 357.957031 250.714844 C 359.300781 250.714844 360.019531 249.308594 360.050781 249.214844 C 360.300781 249.933594 361.019531 250.714844 362.207031 250.714844 C 364.269531 250.714844 365.394531 248.152344 365.394531 247.652344 C 365.394531 247.433594 365.238281 247.433594 365.175781 247.433594 C 364.988281 247.433594 364.957031 247.527344 364.894531 247.652344 C 364.238281 249.808594 362.894531 250.277344 362.269531 250.277344 C 361.488281 250.277344 361.175781 249.652344 361.175781 248.964844 C 361.175781 248.527344 361.269531 248.089844 361.488281 247.214844 Z M 362.175781 244.464844 "/>
<path style="fill:none;stroke-width:1.6;stroke-linecap:round;stroke-linejoin:round;stroke:rgb(0%,0%,0%);stroke-opacity:1;stroke-miterlimit:4;" d="M 322.398438 173.589844 L 341.601562 173.589844 C 344.257812 173.589844 346.398438 175.730469 346.398438 178.390625 L 346.398438 197.589844 C 346.398438 200.25 344.257812 202.390625 341.601562 202.390625 L 322.398438 202.390625 C 319.742188 202.390625 317.601562 200.25 317.601562 197.589844 L 317.601562 178.390625 C 317.601562 175.730469 319.742188 173.589844 322.398438 173.589844 Z M 322.398438 173.589844 "/>
<path style=" stroke:none;fill-rule:nonzero;fill:rgb(0%,0%,0%);fill-opacity:1;" d="M 332 187.441406 L 328.03125 183.472656 C 327.78125 183.222656 327.75 183.191406 327.59375 183.191406 C 327.375 183.191406 327.1875 183.347656 327.1875 183.597656 C 327.1875 183.722656 327.21875 183.753906 327.4375 183.972656 L 331.4375 187.972656 L 327.4375 192.003906 C 327.21875 192.222656 327.1875 192.253906 327.1875 192.378906 C 327.1875 192.628906 327.375 192.785156 327.59375 192.785156 C 327.75 192.785156 327.78125 192.753906 328.03125 192.503906 L 332 188.535156 L 336.125 192.660156 C 336.15625 192.691406 336.28125 192.785156 336.40625 192.785156 C 336.65625 192.785156 336.8125 192.628906 336.8125 192.378906 C 336.8125 192.347656 336.8125 192.285156 336.75 192.160156 C 336.71875 192.128906 333.5625 189.003906 332.5625 187.972656 L 336.21875 184.347656 C 336.3125 184.222656 336.625 183.972656 336.71875 183.847656 C 336.71875 183.816406 336.8125 183.722656 336.8125 183.597656 C 336.8125 183.347656 336.65625 183.191406 336.40625 183.191406 C 336.25 183.191406 336.1875 183.253906 335.96875 183.472656 Z M 332 187.441406 "/>
<path style="fill:none;stroke-width:0.8;stroke-linecap:butt;stroke-linejoin:miter;stroke:rgb(100%,0%,0%);stroke-opacity:1;stroke-miterlimit:4;" d="M 302.050781 231.425781 L 326.214844 203.359375 "/>
<path style="fill-rule:evenodd;fill:rgb(100%,0%,0%);fill-opacity:1;stroke-width:0.606287;stroke-linecap:butt;stroke-linejoin:miter;stroke:rgb(100%,0%,0%);stroke-opacity:1;stroke-miterlimit:4;" d="M 18.802953 287.910758 C 18.803578 289.250064 17.71674 290.338033 16.379678 290.336727 C 15.03844 290.335108 13.952402 289.250514 13.951778 287.911208 C 13.953085 286.574146 15.039922 285.486176 16.379228 285.485552 C 17.71629 285.486858 18.802328 286.571452 18.802953 287.910758 Z M 18.802953 287.910758 " transform="matrix(0.86087,-1,1,0.86087,0,0)"/>
<path style="fill-rule:evenodd;fill:rgb(100%,0%,0%);fill-opacity:1;stroke-width:0.606287;stroke-linecap:butt;stroke-linejoin:miter;stroke:rgb(100%,0%,0%);stroke-opacity:1;stroke-miterlimit:4;" d="M -38.432107 -287.911046 L -36.0069 -290.334771 L -44.494471 -287.910888 L -36.006138 -285.487771 Z M -38.432107 -287.911046 " transform="matrix(-0.86087,1,-1,-0.86087,0,0)"/>
<path style="fill:none;stroke-width:0.8;stroke-linecap:butt;stroke-linejoin:miter;stroke:rgb(100%,0%,0%);stroke-opacity:1;stroke-miterlimit:4;" d="M 359.816406 230.695312 L 335.652344 202.628906 "/>
<path style="fill-rule:evenodd;fill:rgb(100%,0%,0%);fill-opacity:1;stroke-width:0.606287;stroke-linecap:butt;stroke-linejoin:miter;stroke:rgb(100%,0%,0%);stroke-opacity:1;stroke-miterlimit:4;" d="M -308.031845 92.594157 C -308.032469 93.933463 -309.116264 95.019988 -310.45557 95.019364 C -311.794876 95.018739 -312.881401 93.934945 -312.880776 92.595639 C -312.880152 91.256333 -311.796357 90.169807 -310.457051 90.170432 C -309.115814 90.168813 -308.03122 91.254851 -308.031845 92.594157 Z M -308.031845 92.594157 " transform="matrix(-0.86087,-1,1,-0.86087,0,0)"/>
<path style="fill-rule:evenodd;fill:rgb(100%,0%,0%);fill-opacity:1;stroke-width:0.606287;stroke-linecap:butt;stroke-linejoin:miter;stroke:rgb(100%,0%,0%);stroke-opacity:1;stroke-miterlimit:4;" d="M 288.402691 -92.593869 L 290.826416 -95.019076 L 282.340326 -92.594027 L 290.827897 -90.170144 Z M 288.402691 -92.593869 " transform="matrix(0.86087,1,-1,0.86087,0,0)"/>
<g clip-path="url(#clip2)" clip-rule="nonzero">
<path style="fill:none;stroke-width:1.6;stroke-linecap:round;stroke-linejoin:round;stroke:rgb(0%,0%,0%);stroke-opacity:1;stroke-miterlimit:4;" d="M 236.265625 231.800781 L 255.46875 231.800781 C 258.125 231.800781 260.265625 233.941406 260.265625 236.601562 L 260.265625 255.800781 C 260.265625 258.460938 258.125 260.601562 255.46875 260.601562 L 236.265625 260.601562 C 233.609375 260.601562 231.46875 258.460938 231.46875 255.800781 L 231.46875 236.601562 C 231.46875 233.941406 233.609375 231.800781 236.265625 231.800781 Z M 236.265625 231.800781 "/>
</g>
<path style=" stroke:none;fill-rule:nonzero;fill:rgb(0%,0%,0%);fill-opacity:1;" d="M 246.976562 244.464844 C 247.101562 243.964844 247.570312 242.121094 248.945312 242.121094 C 249.039062 242.121094 249.539062 242.121094 249.945312 242.371094 C 249.382812 242.496094 249.007812 242.964844 249.007812 243.464844 C 249.007812 243.777344 249.226562 244.152344 249.757812 244.152344 C 250.195312 244.152344 250.820312 243.808594 250.820312 242.996094 C 250.820312 241.964844 249.664062 241.683594 248.976562 241.683594 C 247.820312 241.683594 247.132812 242.746094 246.882812 243.183594 C 246.382812 241.871094 245.320312 241.683594 244.726562 241.683594 C 242.664062 241.683594 241.507812 244.246094 241.507812 244.746094 C 241.507812 244.964844 241.726562 244.964844 241.757812 244.964844 C 241.914062 244.964844 241.976562 244.902344 242.007812 244.746094 C 242.695312 242.621094 244.007812 242.121094 244.695312 242.121094 C 245.070312 242.121094 245.757812 242.308594 245.757812 243.464844 C 245.757812 244.089844 245.414062 245.402344 244.695312 248.214844 C 244.382812 249.433594 243.664062 250.277344 242.789062 250.277344 C 242.664062 250.277344 242.226562 250.277344 241.789062 250.027344 C 242.289062 249.902344 242.726562 249.496094 242.726562 248.933594 C 242.726562 248.402344 242.289062 248.246094 242.007812 248.246094 C 241.382812 248.246094 240.914062 248.746094 240.914062 249.402344 C 240.914062 250.308594 241.882812 250.714844 242.757812 250.714844 C 244.101562 250.714844 244.820312 249.308594 244.851562 249.214844 C 245.101562 249.933594 245.820312 250.714844 247.007812 250.714844 C 249.070312 250.714844 250.195312 248.152344 250.195312 247.652344 C 250.195312 247.433594 250.039062 247.433594 249.976562 247.433594 C 249.789062 247.433594 249.757812 247.527344 249.695312 247.652344 C 249.039062 249.808594 247.695312 250.277344 247.070312 250.277344 C 246.289062 250.277344 245.976562 249.652344 245.976562 248.964844 C 245.976562 248.527344 246.070312 248.089844 246.289062 247.214844 Z M 246.976562 244.464844 "/>
<path style="fill:none;stroke-width:1.6;stroke-linecap:round;stroke-linejoin:round;stroke:rgb(0%,0%,0%);stroke-opacity:1;stroke-miterlimit:4;" d="M 207.199219 173.589844 L 226.398438 173.589844 C 229.058594 173.589844 231.199219 175.730469 231.199219 178.390625 L 231.199219 197.589844 C 231.199219 200.25 229.058594 202.390625 226.398438 202.390625 L 207.199219 202.390625 C 204.539062 202.390625 202.398438 200.25 202.398438 197.589844 L 202.398438 178.390625 C 202.398438 175.730469 204.539062 173.589844 207.199219 173.589844 Z M 207.199219 173.589844 "/>
<path style=" stroke:none;fill-rule:nonzero;fill:rgb(0%,0%,0%);fill-opacity:1;" d="M 216.800781 187.441406 L 212.832031 183.472656 C 212.582031 183.222656 212.550781 183.191406 212.394531 183.191406 C 212.175781 183.191406 211.988281 183.347656 211.988281 183.597656 C 211.988281 183.722656 212.019531 183.753906 212.238281 183.972656 L 216.238281 187.972656 L 212.238281 192.003906 C 212.019531 192.222656 211.988281 192.253906 211.988281 192.378906 C 211.988281 192.628906 212.175781 192.785156 212.394531 192.785156 C 212.550781 192.785156 212.582031 192.753906 212.832031 192.503906 L 216.800781 188.535156 L 220.925781 192.660156 C 220.957031 192.691406 221.082031 192.785156 221.207031 192.785156 C 221.457031 192.785156 221.613281 192.628906 221.613281 192.378906 C 221.613281 192.347656 221.613281 192.285156 221.550781 192.160156 C 221.519531 192.128906 218.363281 189.003906 217.363281 187.972656 L 221.019531 184.347656 C 221.113281 184.222656 221.425781 183.972656 221.519531 183.847656 C 221.519531 183.816406 221.613281 183.722656 221.613281 183.597656 C 221.613281 183.347656 221.457031 183.191406 221.207031 183.191406 C 221.050781 183.191406 220.988281 183.253906 220.769531 183.472656 Z M 216.800781 187.441406 "/>
<path style="fill:none;stroke-width:1.6;stroke-linecap:round;stroke-linejoin:round;stroke:rgb(0%,0%,0%);stroke-opacity:1;stroke-miterlimit:4;" d="M 178.398438 231.191406 L 197.601562 231.191406 C 200.257812 231.191406 202.398438 233.332031 202.398438 235.988281 L 202.398438 255.191406 C 202.398438 257.847656 200.257812 259.988281 197.601562 259.988281 L 178.398438 259.988281 C 175.742188 259.988281 173.601562 257.847656 173.601562 255.191406 L 173.601562 235.988281 C 173.601562 233.332031 175.742188 231.191406 178.398438 231.191406 Z M 178.398438 231.191406 "/>
<path style=" stroke:none;fill-rule:nonzero;fill:rgb(0%,0%,0%);fill-opacity:1;" d="M 185.5625 250.699219 L 187.6875 248.636719 C 190.78125 245.886719 191.96875 244.824219 191.96875 242.824219 C 191.96875 240.542969 190.1875 238.949219 187.75 238.949219 C 185.5 238.949219 184.03125 240.792969 184.03125 242.574219 C 184.03125 243.667969 185.03125 243.667969 185.09375 243.667969 C 185.4375 243.667969 186.125 243.449219 186.125 242.605469 C 186.125 242.105469 185.75 241.574219 185.0625 241.574219 C 184.90625 241.574219 184.875 241.574219 184.8125 241.605469 C 185.25 240.292969 186.34375 239.574219 187.5 239.574219 C 189.3125 239.574219 190.15625 241.199219 190.15625 242.824219 C 190.15625 244.417969 189.1875 245.980469 188.0625 247.230469 L 184.25 251.480469 C 184.03125 251.699219 184.03125 251.761719 184.03125 252.230469 L 191.4375 252.230469 L 191.96875 248.761719 L 191.5 248.761719 C 191.375 249.355469 191.25 250.230469 191.03125 250.542969 C 190.90625 250.699219 189.59375 250.699219 189.15625 250.699219 Z M 185.5625 250.699219 "/>
<path style="fill:none;stroke-width:0.8;stroke-linecap:butt;stroke-linejoin:miter;stroke:rgb(100%,0%,0%);stroke-opacity:1;stroke-miterlimit:4;" d="M 187.664062 231.332031 L 211.824219 203.265625 "/>
<path style="fill-rule:evenodd;fill:rgb(100%,0%,0%);fill-opacity:1;stroke-width:0.606287;stroke-linecap:butt;stroke-linejoin:miter;stroke:rgb(100%,0%,0%);stroke-opacity:1;stroke-miterlimit:4;" d="M -37.702628 222.164093 C -37.702004 223.503399 -38.786598 224.589437 -40.125904 224.590062 C -41.46521 224.590686 -42.550935 223.501918 -42.55156 222.162612 C -42.550253 220.825549 -41.46566 219.739511 -40.126354 219.738886 C -38.787048 219.738262 -37.701322 220.827031 -37.702628 222.164093 Z M -37.702628 222.164093 " transform="matrix(0.86087,-1,1,0.86087,0,0)"/>
<path style="fill-rule:evenodd;fill:rgb(100%,0%,0%);fill-opacity:1;stroke-width:0.606287;stroke-linecap:butt;stroke-linejoin:miter;stroke:rgb(100%,0%,0%);stroke-opacity:1;stroke-miterlimit:4;" d="M 18.073475 -222.164381 L 20.498681 -224.588106 L 12.01111 -222.164223 L 20.4972 -219.739174 Z M 18.073475 -222.164381 " transform="matrix(-0.86087,1,-1,-0.86087,0,0)"/>
<path style="fill:none;stroke-width:0.8;stroke-linecap:butt;stroke-linejoin:miter;stroke:rgb(100%,0%,0%);stroke-opacity:1;stroke-miterlimit:4;" d="M 245.261719 231.332031 L 221.097656 203.265625 "/>
<path style="fill-rule:evenodd;fill:rgb(100%,0%,0%);fill-opacity:1;stroke-width:0.606287;stroke-linecap:butt;stroke-linejoin:miter;stroke:rgb(100%,0%,0%);stroke-opacity:1;stroke-miterlimit:4;" d="M -251.756998 26.484797 C -251.757623 27.824103 -252.843349 28.912871 -254.182655 28.912247 C -255.521961 28.911622 -256.606554 27.825584 -256.60593 26.486278 C -256.607237 25.149216 -255.521511 24.060447 -254.182205 24.061072 C -252.842899 24.061696 -251.758305 25.147734 -251.756998 26.484797 Z M -251.756998 26.484797 " transform="matrix(-0.86087,-1,1,-0.86087,0,0)"/>
<path style="fill-rule:evenodd;fill:rgb(100%,0%,0%);fill-opacity:1;stroke-width:0.606287;stroke-linecap:butt;stroke-linejoin:miter;stroke:rgb(100%,0%,0%);stroke-opacity:1;stroke-miterlimit:4;" d="M 232.129776 -26.486753 L 234.553501 -28.911959 L 226.06548 -26.484667 L 234.553051 -24.060784 Z M 232.129776 -26.486753 " transform="matrix(0.86087,1,-1,0.86087,0,0)"/>
<path style="fill:none;stroke-width:0.8;stroke-linecap:butt;stroke-linejoin:miter;stroke:rgb(100%,0%,0%);stroke-opacity:1;stroke-miterlimit:4;" d="M 216.460938 173.734375 L 269.601562 144.789062 "/>
<path style="fill-rule:evenodd;fill:rgb(100%,0%,0%);fill-opacity:1;stroke-width:0.702545;stroke-linecap:butt;stroke-linejoin:miter;stroke:rgb(100%,0%,0%);stroke-opacity:1;stroke-miterlimit:4;" d="M 96.710722 224.910675 C 96.713019 226.462707 95.453036 227.721733 93.902644 227.721017 C 92.352253 227.720301 91.093227 226.460318 91.093943 224.909926 C 91.091646 223.357894 92.351629 222.098868 93.902021 222.099584 C 95.452412 222.100299 96.713079 223.357271 96.710722 224.910675 Z M 96.710722 224.910675 " transform="matrix(1,-0.544679,0.544679,1,0,0)"/>
<path style="fill-rule:evenodd;fill:rgb(100%,0%,0%);fill-opacity:1;stroke-width:0.702545;stroke-linecap:butt;stroke-linejoin:miter;stroke:rgb(100%,0%,0%);stroke-opacity:1;stroke-miterlimit:4;" d="M -140.070201 -224.910484 L -137.262123 -227.720827 L -147.097746 -224.910116 L -137.261499 -222.099394 Z M -140.070201 -224.910484 " transform="matrix(-1,0.544679,-0.544679,-1,0,0)"/>
<path style="fill:none;stroke-width:0.8;stroke-linecap:butt;stroke-linejoin:miter;stroke:rgb(100%,0%,0%);stroke-opacity:1;stroke-miterlimit:4;" d="M 332 173.589844 L 279.199219 144.789062 "/>
<path style="fill-rule:evenodd;fill:rgb(100%,0%,0%);fill-opacity:1;stroke-width:0.702316;stroke-linecap:butt;stroke-linejoin:miter;stroke:rgb(100%,0%,0%);stroke-opacity:1;stroke-miterlimit:4;" d="M -326.093611 5.779547 C -326.094979 7.331074 -327.35284 8.5914 -328.904368 8.590032 C -330.454253 8.591675 -331.711568 7.332171 -331.713211 5.782286 C -331.711843 4.230758 -330.453981 2.970433 -328.902454 2.971801 C -327.350927 2.973168 -326.095254 4.229662 -326.093611 5.779547 Z M -326.093611 5.779547 " transform="matrix(-1,-0.545455,0.545455,-1,0,0)"/>
<path style="fill-rule:evenodd;fill:rgb(100%,0%,0%);fill-opacity:1;stroke-width:0.702316;stroke-linecap:butt;stroke-linejoin:miter;stroke:rgb(100%,0%,0%);stroke-opacity:1;stroke-miterlimit:4;" d="M 283.069585 -5.780627 L 285.880341 -8.591112 L 276.045701 -5.781445 L 285.878428 -2.97288 Z M 283.069585 -5.780627 " transform="matrix(1,0.545455,-0.545455,1,0,0)"/>
<path style="fill:none;stroke-width:0.8;stroke-linecap:butt;stroke-linejoin:miter;stroke:rgb(100%,0%,0%);stroke-opacity:1;stroke-miterlimit:4;" d="M 159.199219 115.988281 L 212 87.191406 "/>
<path style="fill-rule:evenodd;fill:rgb(100%,0%,0%);fill-opacity:1;stroke-width:0.702316;stroke-linecap:butt;stroke-linejoin:miter;stroke:rgb(100%,0%,0%);stroke-opacity:1;stroke-miterlimit:4;" d="M 76.688476 156.318394 C 76.689843 157.869921 75.429518 159.127783 73.879633 159.12614 C 72.328105 159.127508 71.070244 157.867182 71.071886 156.317297 C 71.068876 154.76878 72.329202 153.510919 73.880729 153.509551 C 75.430615 153.511193 76.687108 154.766866 76.688476 156.318394 Z M 76.688476 156.318394 " transform="matrix(1,-0.545455,0.545455,1,0,0)"/>
<path style="fill-rule:evenodd;fill:rgb(100%,0%,0%);fill-opacity:1;stroke-width:0.702316;stroke-linecap:butt;stroke-linejoin:miter;stroke:rgb(100%,0%,0%);stroke-opacity:1;stroke-miterlimit:4;" d="M -119.712502 -156.317314 L -116.902017 -159.128071 L -126.734744 -156.319506 L -116.904756 -153.508471 Z M -119.712502 -156.317314 " transform="matrix(-1,0.545455,-0.545455,-1,0,0)"/>
<path style="fill:none;stroke-width:0.8;stroke-linecap:butt;stroke-linejoin:miter;stroke:rgb(100%,0%,0%);stroke-opacity:1;stroke-miterlimit:4;" d="M 274.398438 115.988281 L 221.601562 87.191406 "/>
<path style="fill-rule:evenodd;fill:rgb(100%,0%,0%);fill-opacity:1;stroke-width:0.702316;stroke-linecap:butt;stroke-linejoin:miter;stroke:rgb(100%,0%,0%);stroke-opacity:1;stroke-miterlimit:4;" d="M -257.488397 25.960052 C -257.486754 27.509938 -258.746258 28.767253 -260.296143 28.768895 C -261.847671 28.767528 -263.104986 27.508024 -263.104986 25.961149 C -263.103619 24.409622 -261.845757 23.149296 -260.29724 23.152306 C -258.747355 23.150663 -257.487029 24.408525 -257.488397 25.960052 Z M -257.488397 25.960052 " transform="matrix(-1,-0.545455,0.545455,-1,0,0)"/>
<path style="fill-rule:evenodd;fill:rgb(100%,0%,0%);fill-opacity:1;stroke-width:0.702316;stroke-linecap:butt;stroke-linejoin:miter;stroke:rgb(100%,0%,0%);stroke-opacity:1;stroke-miterlimit:4;" d="M 214.464371 -25.961132 L 217.272117 -28.769975 L 207.442129 -25.95894 L 217.271845 -23.148733 Z M 214.464371 -25.961132 " transform="matrix(1,0.545455,-0.545455,1,0,0)"/>
<path style="fill:none;stroke-width:0.8;stroke-linecap:butt;stroke-linejoin:miter;stroke:rgb(100%,0%,0%);stroke-opacity:1;stroke-miterlimit:4;" d="M 44 58.390625 L 125.601562 29.589844 "/>
<path style="fill-rule:evenodd;fill:rgb(100%,0%,0%);fill-opacity:1;stroke-width:0.754392;stroke-linecap:butt;stroke-linejoin:miter;stroke:rgb(100%,0%,0%);stroke-opacity:1;stroke-miterlimit:4;" d="M 23.757307 65.732584 C 23.759555 67.39744 22.407728 68.74845 20.739399 68.749472 C 19.075769 68.748246 17.724759 67.396419 17.722511 65.731563 C 17.724963 64.06446 19.073316 62.712224 20.74042 62.714676 C 22.405276 62.712428 23.759759 64.065481 23.757307 65.732584 Z M 23.757307 65.732584 " transform="matrix(1,-0.352941,0.352941,1,0,0)"/>
<path style="fill-rule:evenodd;fill:rgb(100%,0%,0%);fill-opacity:1;stroke-width:0.754392;stroke-linecap:butt;stroke-linejoin:miter;stroke:rgb(100%,0%,0%);stroke-opacity:1;stroke-miterlimit:4;" d="M -94.855112 -65.732164 L -91.840677 -68.750278 L -102.402131 -65.731754 L -91.838224 -62.714256 Z M -94.855112 -65.732164 " transform="matrix(-1,0.352941,-0.352941,-1,0,0)"/>
<path style="fill:none;stroke-width:0.8;stroke-linecap:butt;stroke-linejoin:miter;stroke:rgb(100%,0%,0%);stroke-opacity:1;stroke-miterlimit:4;" d="M 216.800781 58.390625 L 135.199219 29.589844 "/>
<path style="fill-rule:evenodd;fill:rgb(100%,0%,0%);fill-opacity:1;stroke-width:0.754392;stroke-linecap:butt;stroke-linejoin:miter;stroke:rgb(100%,0%,0%);stroke-opacity:1;stroke-miterlimit:4;" d="M -208.154798 16.118706 C -208.152346 17.78581 -209.503356 19.137636 -211.171685 19.136615 C -212.835315 19.13784 -214.187142 17.78683 -214.189594 16.119727 C -214.187346 14.454871 -212.836336 13.103044 -211.172706 13.101819 C -209.504377 13.10284 -208.15255 14.45385 -208.154798 16.118706 Z M -208.154798 16.118706 " transform="matrix(-1,-0.352941,0.352941,-1,0,0)"/>
<path style="fill-rule:evenodd;fill:rgb(100%,0%,0%);fill-opacity:1;stroke-width:0.754392;stroke-linecap:butt;stroke-linejoin:miter;stroke:rgb(100%,0%,0%);stroke-opacity:1;stroke-miterlimit:4;" d="M 137.05352 -16.1179 L 140.073881 -19.137034 L 129.509974 -16.119536 L 140.071428 -13.101012 Z M 137.05352 -16.1179 " transform="matrix(1,0.352941,-0.352941,1,0,0)"/>
<path style="fill:none;stroke-width:1.6;stroke-linecap:round;stroke-linejoin:round;stroke:rgb(0%,0%,0%);stroke-opacity:1;stroke-miterlimit:4;" d="M 120.800781 0.789062 L 140 0.789062 C 142.660156 0.789062 144.800781 2.929688 144.800781 5.589844 L 144.800781 24.789062 C 144.800781 27.449219 142.660156 29.589844 140 29.589844 L 120.800781 29.589844 C 118.140625 29.589844 116 27.449219 116 24.789062 L 116 5.589844 C 116 2.929688 118.140625 0.789062 120.800781 0.789062 Z M 120.800781 0.789062 "/>
<path style=" stroke:none;fill-rule:nonzero;fill:rgb(0%,0%,0%);fill-opacity:1;" d="M 134.179688 5.988281 C 134.273438 5.707031 134.273438 5.644531 134.273438 5.613281 C 134.273438 5.394531 134.117188 5.207031 133.898438 5.207031 C 133.742188 5.207031 133.617188 5.269531 133.554688 5.394531 L 126.617188 24.394531 C 126.523438 24.675781 126.523438 24.738281 126.523438 24.769531 C 126.523438 24.988281 126.710938 25.175781 126.929688 25.175781 C 127.179688 25.175781 127.242188 25.019531 127.367188 24.675781 Z M 134.179688 5.988281 "/>
</g>
</svg>
