<?xml version="1.0" encoding="UTF-8"?>
<svg xmlns="http://www.w3.org/2000/svg" xmlns:xlink="http://www.w3.org/1999/xlink" width="342.399994pt" height="260.799988pt" viewBox="0 0 342.399994 260.799988" version="1.1">
<defs>
<clipPath id="clip1">
  <path d="M 216 230 L 266 230 L 266 260.800781 L 216 260.800781 Z M 216 230 "/>
</clipPath>
<clipPath id="clip2">
  <path d="M 283 230 L 314 230 L 314 260.800781 L 283 260.800781 Z M 283 230 "/>
</clipPath>
<clipPath id="clip3">
  <path d="M 312 173 L 342.398438 173 L 342.398438 204 L 312 204 Z M 312 173 "/>
</clipPath>
</defs>
<g id="surface1">
<path style="fill:none;stroke-width:1.6;stroke-linecap:round;stroke-linejoin:round;stroke:rgb(0%,0%,0%);stroke-opacity:1;stroke-miterlimit:4;" d="M 178.398438 0.789062 L 236 0.789062 C 238.660156 0.789062 240.800781 2.929688 240.800781 5.589844 L 240.800781 24.789062 C 240.800781 27.449219 238.660156 29.589844 236 29.589844 L 178.398438 29.589844 C 175.742188 29.589844 173.601562 27.449219 173.601562 24.789062 L 173.601562 5.589844 C 173.601562 2.929688 175.742188 0.789062 178.398438 0.789062 Z M 178.398438 0.789062 "/>
<path style=" stroke:none;fill-rule:nonzero;fill:rgb(0%,0%,0%);fill-opacity:1;" d="M 188.496094 17.058594 C 188.839844 17.058594 189.214844 17.058594 189.214844 16.652344 C 189.214844 16.277344 188.839844 16.277344 188.496094 16.277344 L 177.714844 16.277344 C 177.371094 16.277344 177.027344 16.277344 177.027344 16.652344 C 177.027344 17.058594 177.371094 17.058594 177.714844 17.058594 Z M 188.496094 17.058594 "/>
<path style=" stroke:none;fill-rule:nonzero;fill:rgb(0%,0%,0%);fill-opacity:1;" d="M 196.652344 14.621094 C 198.277344 14.089844 199.433594 12.714844 199.433594 11.121094 C 199.433594 9.496094 197.683594 8.371094 195.777344 8.371094 C 193.777344 8.371094 192.246094 9.558594 192.246094 11.089844 C 192.246094 11.746094 192.683594 12.121094 193.277344 12.121094 C 193.871094 12.121094 194.277344 11.683594 194.277344 11.089844 C 194.277344 10.121094 193.339844 10.121094 193.058594 10.121094 C 193.652344 9.121094 194.964844 8.871094 195.683594 8.871094 C 196.527344 8.871094 197.621094 9.308594 197.621094 11.089844 C 197.621094 11.339844 197.558594 12.496094 197.058594 13.371094 C 196.464844 14.339844 195.777344 14.402344 195.277344 14.402344 C 195.121094 14.433594 194.652344 14.464844 194.496094 14.464844 C 194.339844 14.496094 194.214844 14.527344 194.214844 14.714844 C 194.214844 14.933594 194.339844 14.933594 194.683594 14.933594 L 195.558594 14.933594 C 197.183594 14.933594 197.933594 16.277344 197.933594 18.246094 C 197.933594 20.964844 196.558594 21.527344 195.683594 21.527344 C 194.808594 21.527344 193.308594 21.183594 192.621094 20.027344 C 193.308594 20.121094 193.933594 19.683594 193.933594 18.933594 C 193.933594 18.214844 193.402344 17.808594 192.839844 17.808594 C 192.339844 17.808594 191.714844 18.089844 191.714844 18.964844 C 191.714844 20.777344 193.558594 22.089844 195.746094 22.089844 C 198.183594 22.089844 199.996094 20.277344 199.996094 18.246094 C 199.996094 16.621094 198.714844 15.058594 196.652344 14.621094 Z M 196.652344 14.621094 "/>
<path style=" stroke:none;fill-rule:nonzero;fill:rgb(0%,0%,0%);fill-opacity:1;" d="M 209.582031 7.464844 C 209.675781 7.183594 209.675781 7.121094 209.675781 7.089844 C 209.675781 6.871094 209.519531 6.683594 209.300781 6.683594 C 209.144531 6.683594 209.019531 6.746094 208.957031 6.871094 L 202.019531 25.871094 C 201.925781 26.152344 201.925781 26.214844 201.925781 26.246094 C 201.925781 26.464844 202.113281 26.652344 202.332031 26.652344 C 202.582031 26.652344 202.644531 26.496094 202.769531 26.152344 Z M 209.582031 7.464844 "/>
<path style=" stroke:none;fill-rule:nonzero;fill:rgb(0%,0%,0%);fill-opacity:1;" d="M 218.542969 22.203125 L 215.042969 14.453125 C 214.886719 14.140625 214.792969 14.140625 214.730469 14.140625 C 214.730469 14.140625 214.605469 14.140625 214.386719 14.296875 L 212.511719 15.734375 C 212.261719 15.953125 212.261719 15.984375 212.261719 16.046875 C 212.261719 16.171875 212.292969 16.265625 212.449219 16.265625 C 212.574219 16.265625 212.917969 15.984375 213.136719 15.828125 C 213.230469 15.734375 213.542969 15.515625 213.761719 15.359375 L 217.699219 23.984375 C 217.824219 24.296875 217.917969 24.296875 218.105469 24.296875 C 218.417969 24.296875 218.480469 24.203125 218.605469 23.921875 L 227.667969 5.171875 C 227.792969 4.890625 227.792969 4.828125 227.792969 4.765625 C 227.792969 4.578125 227.636719 4.359375 227.386719 4.359375 C 227.230469 4.359375 227.105469 4.484375 226.949219 4.796875 Z M 218.542969 22.203125 "/>
<path style="fill:none;stroke-width:2;stroke-linecap:butt;stroke-linejoin:miter;stroke:rgb(0%,0%,0%);stroke-opacity:1;stroke-miterlimit:10;" d="M 228.371094 -4.726562 L 236.371094 -4.726562 " transform="matrix(1,0,0,-1,0,0)"/>
<path style=" stroke:none;fill-rule:nonzero;fill:rgb(0%,0%,0%);fill-opacity:1;" d="M 229.929688 20.121094 L 232.054688 18.058594 C 235.148438 15.308594 236.335938 14.246094 236.335938 12.246094 C 236.335938 9.964844 234.554688 8.371094 232.117188 8.371094 C 229.867188 8.371094 228.398438 10.214844 228.398438 11.996094 C 228.398438 13.089844 229.398438 13.089844 229.460938 13.089844 C 229.804688 13.089844 230.492188 12.871094 230.492188 12.027344 C 230.492188 11.527344 230.117188 10.996094 229.429688 10.996094 C 229.273438 10.996094 229.242188 10.996094 229.179688 11.027344 C 229.617188 9.714844 230.710938 8.996094 231.867188 8.996094 C 233.679688 8.996094 234.523438 10.621094 234.523438 12.246094 C 234.523438 13.839844 233.554688 15.402344 232.429688 16.652344 L 228.617188 20.902344 C 228.398438 21.121094 228.398438 21.183594 228.398438 21.652344 L 235.804688 21.652344 L 236.335938 18.183594 L 235.867188 18.183594 C 235.742188 18.777344 235.617188 19.652344 235.398438 19.964844 C 235.273438 20.121094 233.960938 20.121094 233.523438 20.121094 Z M 229.929688 20.121094 "/>
<path style="fill-rule:nonzero;fill:rgb(79.998779%,79.998779%,79.998779%);fill-opacity:1;stroke-width:1.6;stroke-linecap:round;stroke-linejoin:round;stroke:rgb(79.998779%,79.998779%,79.998779%);stroke-opacity:1;stroke-miterlimit:4;" d="M 274.398438 58.773438 L 322.398438 58.773438 C 325.058594 58.773438 327.199219 60.914062 327.199219 63.574219 L 327.199219 82.773438 C 327.199219 85.433594 325.058594 87.574219 322.398438 87.574219 L 274.398438 87.574219 C 271.742188 87.574219 269.601562 85.433594 269.601562 82.773438 L 269.601562 63.574219 C 269.601562 60.914062 271.742188 58.773438 274.398438 58.773438 Z M 274.398438 58.773438 "/>
<path style=" stroke:none;fill-rule:nonzero;fill:rgb(79.998779%,79.998779%,79.998779%);fill-opacity:1;" d="M 279.382812 66.886719 C 279.382812 66.386719 279.382812 66.355469 278.914062 66.355469 C 277.664062 67.636719 275.914062 67.636719 275.289062 67.636719 L 275.289062 68.261719 C 275.695312 68.261719 276.851562 68.261719 277.882812 67.730469 L 277.882812 78.074219 C 277.882812 78.792969 277.820312 79.011719 276.039062 79.011719 L 275.414062 79.011719 L 275.414062 79.636719 C 276.101562 79.574219 277.820312 79.574219 278.632812 79.574219 C 279.414062 79.574219 281.164062 79.574219 281.851562 79.636719 L 281.851562 79.011719 L 281.226562 79.011719 C 279.414062 79.011719 279.382812 78.792969 279.382812 78.074219 Z M 279.382812 66.886719 "/>
<path style=" stroke:none;fill-rule:nonzero;fill:rgb(79.998779%,79.998779%,79.998779%);fill-opacity:1;" d="M 292.222656 65.449219 C 292.316406 65.167969 292.316406 65.105469 292.316406 65.074219 C 292.316406 64.855469 292.160156 64.667969 291.941406 64.667969 C 291.785156 64.667969 291.660156 64.730469 291.597656 64.855469 L 284.660156 83.855469 C 284.566406 84.136719 284.566406 84.199219 284.566406 84.230469 C 284.566406 84.449219 284.753906 84.636719 284.972656 84.636719 C 285.222656 84.636719 285.285156 84.480469 285.410156 84.136719 Z M 292.222656 65.449219 "/>
<path style=" stroke:none;fill-rule:nonzero;fill:rgb(79.998779%,79.998779%,79.998779%);fill-opacity:1;" d="M 301.183594 80.183594 L 297.683594 72.433594 C 297.527344 72.121094 297.433594 72.121094 297.371094 72.121094 C 297.371094 72.121094 297.246094 72.121094 297.027344 72.277344 L 295.152344 73.714844 C 294.902344 73.933594 294.902344 73.964844 294.902344 74.027344 C 294.902344 74.152344 294.933594 74.246094 295.089844 74.246094 C 295.214844 74.246094 295.558594 73.964844 295.777344 73.808594 C 295.871094 73.714844 296.183594 73.496094 296.402344 73.339844 L 300.339844 81.964844 C 300.464844 82.277344 300.558594 82.277344 300.746094 82.277344 C 301.058594 82.277344 301.121094 82.183594 301.246094 81.902344 L 310.308594 63.152344 C 310.433594 62.871094 310.433594 62.808594 310.433594 62.746094 C 310.433594 62.558594 310.277344 62.339844 310.027344 62.339844 C 309.871094 62.339844 309.746094 62.464844 309.589844 62.777344 Z M 301.183594 80.183594 "/>
<path style="fill:none;stroke-width:2;stroke-linecap:butt;stroke-linejoin:miter;stroke:rgb(79.998779%,79.998779%,79.998779%);stroke-opacity:1;stroke-miterlimit:10;" d="M 310.507812 -62.710938 L 320.507812 -62.710938 " transform="matrix(1,0,0,-1,0,0)"/>
<path style=" stroke:none;fill-rule:nonzero;fill:rgb(79.998779%,79.998779%,79.998779%);fill-opacity:1;" d="M 312.570312 78.105469 L 314.695312 76.042969 C 317.789062 73.292969 318.976562 72.230469 318.976562 70.230469 C 318.976562 67.949219 317.195312 66.355469 314.757812 66.355469 C 312.507812 66.355469 311.039062 68.199219 311.039062 69.980469 C 311.039062 71.074219 312.039062 71.074219 312.101562 71.074219 C 312.445312 71.074219 313.132812 70.855469 313.132812 70.011719 C 313.132812 69.511719 312.757812 68.980469 312.070312 68.980469 C 311.914062 68.980469 311.882812 68.980469 311.820312 69.011719 C 312.257812 67.699219 313.351562 66.980469 314.507812 66.980469 C 316.320312 66.980469 317.164062 68.605469 317.164062 70.230469 C 317.164062 71.824219 316.195312 73.386719 315.070312 74.636719 L 311.257812 78.886719 C 311.039062 79.105469 311.039062 79.167969 311.039062 79.636719 L 318.445312 79.636719 L 318.976562 76.167969 L 318.507812 76.167969 C 318.382812 76.761719 318.257812 77.636719 318.039062 77.949219 C 317.914062 78.105469 316.601562 78.105469 316.164062 78.105469 Z M 312.570312 78.105469 "/>
<path style="fill-rule:nonzero;fill:rgb(79.998779%,79.998779%,79.998779%);fill-opacity:1;stroke-width:1.6;stroke-linecap:round;stroke-linejoin:round;stroke:rgb(79.998779%,79.998779%,79.998779%);stroke-opacity:1;stroke-miterlimit:4;" d="M 279.199219 115.988281 L 317.601562 115.988281 C 320.257812 115.988281 322.398438 118.128906 322.398438 120.789062 L 322.398438 139.988281 C 322.398438 142.648438 320.257812 144.789062 317.601562 144.789062 L 279.199219 144.789062 C 276.539062 144.789062 274.398438 142.648438 274.398438 139.988281 L 274.398438 120.789062 C 274.398438 118.128906 276.539062 115.988281 279.199219 115.988281 Z M 279.199219 115.988281 "/>
<path style=" stroke:none;fill-rule:nonzero;fill:rgb(79.998779%,79.998779%,79.998779%);fill-opacity:1;" d="M 283.074219 128.34375 C 284.699219 127.8125 285.855469 126.4375 285.855469 124.84375 C 285.855469 123.21875 284.105469 122.09375 282.199219 122.09375 C 280.199219 122.09375 278.667969 123.28125 278.667969 124.8125 C 278.667969 125.46875 279.105469 125.84375 279.699219 125.84375 C 280.292969 125.84375 280.699219 125.40625 280.699219 124.8125 C 280.699219 123.84375 279.761719 123.84375 279.480469 123.84375 C 280.074219 122.84375 281.386719 122.59375 282.105469 122.59375 C 282.949219 122.59375 284.042969 123.03125 284.042969 124.8125 C 284.042969 125.0625 283.980469 126.21875 283.480469 127.09375 C 282.886719 128.0625 282.199219 128.125 281.699219 128.125 C 281.542969 128.15625 281.074219 128.1875 280.917969 128.1875 C 280.761719 128.21875 280.636719 128.25 280.636719 128.4375 C 280.636719 128.65625 280.761719 128.65625 281.105469 128.65625 L 281.980469 128.65625 C 283.605469 128.65625 284.355469 130 284.355469 131.96875 C 284.355469 134.6875 282.980469 135.25 282.105469 135.25 C 281.230469 135.25 279.730469 134.90625 279.042969 133.75 C 279.730469 133.84375 280.355469 133.40625 280.355469 132.65625 C 280.355469 131.9375 279.824219 131.53125 279.261719 131.53125 C 278.761719 131.53125 278.136719 131.8125 278.136719 132.6875 C 278.136719 134.5 279.980469 135.8125 282.167969 135.8125 C 284.605469 135.8125 286.417969 134 286.417969 131.96875 C 286.417969 130.34375 285.136719 128.78125 283.074219 128.34375 Z M 283.074219 128.34375 "/>
<path style=" stroke:none;fill-rule:nonzero;fill:rgb(79.998779%,79.998779%,79.998779%);fill-opacity:1;" d="M 292.535156 127.9375 L 294.785156 127.9375 C 294.128906 130.875 293.941406 131.75 293.941406 133.09375 C 293.941406 133.375 293.941406 133.90625 294.097656 134.59375 C 294.316406 135.46875 294.535156 135.59375 294.816406 135.59375 C 295.222656 135.59375 295.660156 135.25 295.660156 134.84375 C 295.660156 134.71875 295.660156 134.6875 295.535156 134.40625 C 294.941406 132.96875 294.941406 131.65625 294.941406 131.09375 C 294.941406 130.0625 295.097656 128.96875 295.316406 127.9375 L 297.566406 127.9375 C 297.847656 127.9375 298.566406 127.9375 298.566406 127.25 C 298.566406 126.78125 298.128906 126.78125 297.753906 126.78125 L 291.066406 126.78125 C 290.628906 126.78125 289.878906 126.78125 289.003906 127.71875 C 288.316406 128.5 287.785156 129.40625 287.785156 129.5 C 287.785156 129.53125 287.785156 129.71875 288.035156 129.71875 C 288.191406 129.71875 288.222656 129.625 288.347656 129.46875 C 289.316406 127.9375 290.472656 127.9375 290.878906 127.9375 L 292.003906 127.9375 C 291.378906 130.34375 290.316406 132.75 289.472656 134.5625 C 289.316406 134.875 289.316406 134.90625 289.316406 135.0625 C 289.316406 135.4375 289.628906 135.59375 289.878906 135.59375 C 290.472656 135.59375 290.628906 135.03125 290.878906 134.3125 C 291.160156 133.375 291.160156 133.34375 291.410156 132.34375 Z M 292.535156 127.9375 "/>
<path style=" stroke:none;fill-rule:nonzero;fill:rgb(79.998779%,79.998779%,79.998779%);fill-opacity:1;" d="M 308.078125 121.1875 C 308.171875 120.90625 308.171875 120.84375 308.171875 120.8125 C 308.171875 120.59375 308.015625 120.40625 307.796875 120.40625 C 307.640625 120.40625 307.515625 120.46875 307.453125 120.59375 L 300.515625 139.59375 C 300.421875 139.875 300.421875 139.9375 300.421875 139.96875 C 300.421875 140.1875 300.609375 140.375 300.828125 140.375 C 301.078125 140.375 301.140625 140.21875 301.265625 139.875 Z M 308.078125 121.1875 "/>
<path style=" stroke:none;fill-rule:nonzero;fill:rgb(79.998779%,79.998779%,79.998779%);fill-opacity:1;" d="M 315.164062 132.09375 L 315.164062 133.8125 C 315.164062 134.53125 315.101562 134.75 313.632812 134.75 L 313.226562 134.75 L 313.226562 135.375 C 314.039062 135.3125 315.070312 135.3125 315.914062 135.3125 C 316.757812 135.3125 317.789062 135.3125 318.632812 135.375 L 318.632812 134.75 L 318.195312 134.75 C 316.726562 134.75 316.695312 134.53125 316.695312 133.8125 L 316.695312 132.09375 L 318.664062 132.09375 L 318.664062 131.46875 L 316.695312 131.46875 L 316.695312 122.40625 C 316.695312 122 316.695312 121.875 316.351562 121.875 C 316.195312 121.875 316.132812 121.875 315.976562 122.125 L 309.851562 131.46875 L 309.851562 132.09375 Z M 315.257812 131.46875 L 310.414062 131.46875 L 315.257812 124.03125 Z M 315.257812 131.46875 "/>
<path style="fill-rule:nonzero;fill:rgb(79.998779%,79.998779%,79.998779%);fill-opacity:1;stroke-width:1.6;stroke-linecap:round;stroke-linejoin:round;stroke:rgb(79.998779%,79.998779%,79.998779%);stroke-opacity:1;stroke-miterlimit:4;" d="M 101.601562 58.390625 L 120.800781 58.390625 C 123.460938 58.390625 125.601562 60.53125 125.601562 63.191406 L 125.601562 82.390625 C 125.601562 85.050781 123.460938 87.191406 120.800781 87.191406 L 101.601562 87.191406 C 98.941406 87.191406 96.800781 85.050781 96.800781 82.390625 L 96.800781 63.191406 C 96.800781 60.53125 98.941406 58.390625 101.601562 58.390625 Z M 101.601562 58.390625 "/>
<path style=" stroke:none;fill-rule:nonzero;fill:rgb(79.998779%,79.998779%,79.998779%);fill-opacity:1;" d="M 111.183594 74.617188 C 111.527344 74.617188 111.902344 74.617188 111.902344 74.210938 C 111.902344 73.835938 111.527344 73.835938 111.183594 73.835938 L 100.402344 73.835938 C 100.058594 73.835938 99.714844 73.835938 99.714844 74.210938 C 99.714844 74.617188 100.058594 74.617188 100.402344 74.617188 Z M 111.183594 74.617188 "/>
<path style=" stroke:none;fill-rule:nonzero;fill:rgb(79.998779%,79.998779%,79.998779%);fill-opacity:1;" d="M 119.339844 72.179688 C 120.964844 71.648438 122.121094 70.273438 122.121094 68.679688 C 122.121094 67.054688 120.371094 65.929688 118.464844 65.929688 C 116.464844 65.929688 114.933594 67.117188 114.933594 68.648438 C 114.933594 69.304688 115.371094 69.679688 115.964844 69.679688 C 116.558594 69.679688 116.964844 69.242188 116.964844 68.648438 C 116.964844 67.679688 116.027344 67.679688 115.746094 67.679688 C 116.339844 66.679688 117.652344 66.429688 118.371094 66.429688 C 119.214844 66.429688 120.308594 66.867188 120.308594 68.648438 C 120.308594 68.898438 120.246094 70.054688 119.746094 70.929688 C 119.152344 71.898438 118.464844 71.960938 117.964844 71.960938 C 117.808594 71.992188 117.339844 72.023438 117.183594 72.023438 C 117.027344 72.054688 116.902344 72.085938 116.902344 72.273438 C 116.902344 72.492188 117.027344 72.492188 117.371094 72.492188 L 118.246094 72.492188 C 119.871094 72.492188 120.621094 73.835938 120.621094 75.804688 C 120.621094 78.523438 119.246094 79.085938 118.371094 79.085938 C 117.496094 79.085938 115.996094 78.742188 115.308594 77.585938 C 115.996094 77.679688 116.621094 77.242188 116.621094 76.492188 C 116.621094 75.773438 116.089844 75.367188 115.527344 75.367188 C 115.027344 75.367188 114.402344 75.648438 114.402344 76.523438 C 114.402344 78.335938 116.246094 79.648438 118.433594 79.648438 C 120.871094 79.648438 122.683594 77.835938 122.683594 75.804688 C 122.683594 74.179688 121.402344 72.617188 119.339844 72.179688 Z M 119.339844 72.179688 "/>
<path style="fill-rule:nonzero;fill:rgb(79.998779%,79.998779%,79.998779%);fill-opacity:1;stroke-width:1.6;stroke-linecap:round;stroke-linejoin:round;stroke:rgb(79.998779%,79.998779%,79.998779%);stroke-opacity:1;stroke-miterlimit:4;" d="M 144.800781 115.988281 L 192.800781 115.988281 C 195.460938 115.988281 197.601562 118.128906 197.601562 120.789062 L 197.601562 139.988281 C 197.601562 142.648438 195.460938 144.789062 192.800781 144.789062 L 144.800781 144.789062 C 142.140625 144.789062 140 142.648438 140 139.988281 L 140 120.789062 C 140 118.128906 142.140625 115.988281 144.800781 115.988281 Z M 144.800781 115.988281 "/>
<path style=" stroke:none;fill-rule:nonzero;fill:rgb(79.998779%,79.998779%,79.998779%);fill-opacity:1;" d="M 157.859375 130.78125 C 158.203125 130.78125 158.578125 130.78125 158.578125 130.375 C 158.578125 130 158.203125 130 157.859375 130 L 147.078125 130 C 146.734375 130 146.390625 130 146.390625 130.375 C 146.390625 130.78125 146.734375 130.78125 147.078125 130.78125 Z M 157.859375 130.78125 "/>
<path style=" stroke:none;fill-rule:nonzero;fill:rgb(79.998779%,79.998779%,79.998779%);fill-opacity:1;" d="M 165.515625 127.9375 L 167.765625 127.9375 C 167.109375 130.875 166.921875 131.75 166.921875 133.09375 C 166.921875 133.375 166.921875 133.90625 167.078125 134.59375 C 167.296875 135.46875 167.515625 135.59375 167.796875 135.59375 C 168.203125 135.59375 168.640625 135.25 168.640625 134.84375 C 168.640625 134.71875 168.640625 134.6875 168.515625 134.40625 C 167.921875 132.96875 167.921875 131.65625 167.921875 131.09375 C 167.921875 130.0625 168.078125 128.96875 168.296875 127.9375 L 170.546875 127.9375 C 170.828125 127.9375 171.546875 127.9375 171.546875 127.25 C 171.546875 126.78125 171.109375 126.78125 170.734375 126.78125 L 164.046875 126.78125 C 163.609375 126.78125 162.859375 126.78125 161.984375 127.71875 C 161.296875 128.5 160.765625 129.40625 160.765625 129.5 C 160.765625 129.53125 160.765625 129.71875 161.015625 129.71875 C 161.171875 129.71875 161.203125 129.625 161.328125 129.46875 C 162.296875 127.9375 163.453125 127.9375 163.859375 127.9375 L 164.984375 127.9375 C 164.359375 130.34375 163.296875 132.75 162.453125 134.5625 C 162.296875 134.875 162.296875 134.90625 162.296875 135.0625 C 162.296875 135.4375 162.609375 135.59375 162.859375 135.59375 C 163.453125 135.59375 163.609375 135.03125 163.859375 134.3125 C 164.140625 133.375 164.140625 133.34375 164.390625 132.34375 Z M 165.515625 127.9375 "/>
<path style=" stroke:none;fill-rule:nonzero;fill:rgb(79.998779%,79.998779%,79.998779%);fill-opacity:1;" d="M 181.058594 121.1875 C 181.152344 120.90625 181.152344 120.84375 181.152344 120.8125 C 181.152344 120.59375 180.996094 120.40625 180.777344 120.40625 C 180.621094 120.40625 180.496094 120.46875 180.433594 120.59375 L 173.496094 139.59375 C 173.402344 139.875 173.402344 139.9375 173.402344 139.96875 C 173.402344 140.1875 173.589844 140.375 173.808594 140.375 C 174.058594 140.375 174.121094 140.21875 174.246094 139.875 Z M 181.058594 121.1875 "/>
<path style=" stroke:none;fill-rule:nonzero;fill:rgb(79.998779%,79.998779%,79.998779%);fill-opacity:1;" d="M 184.800781 133.84375 L 186.925781 131.78125 C 190.019531 129.03125 191.207031 127.96875 191.207031 125.96875 C 191.207031 123.6875 189.425781 122.09375 186.988281 122.09375 C 184.738281 122.09375 183.269531 123.9375 183.269531 125.71875 C 183.269531 126.8125 184.269531 126.8125 184.332031 126.8125 C 184.675781 126.8125 185.363281 126.59375 185.363281 125.75 C 185.363281 125.25 184.988281 124.71875 184.300781 124.71875 C 184.144531 124.71875 184.113281 124.71875 184.050781 124.75 C 184.488281 123.4375 185.582031 122.71875 186.738281 122.71875 C 188.550781 122.71875 189.394531 124.34375 189.394531 125.96875 C 189.394531 127.5625 188.425781 129.125 187.300781 130.375 L 183.488281 134.625 C 183.269531 134.84375 183.269531 134.90625 183.269531 135.375 L 190.675781 135.375 L 191.207031 131.90625 L 190.738281 131.90625 C 190.613281 132.5 190.488281 133.375 190.269531 133.6875 C 190.144531 133.84375 188.832031 133.84375 188.394531 133.84375 Z M 184.800781 133.84375 "/>
<path style="fill-rule:nonzero;fill:rgb(79.998779%,79.998779%,79.998779%);fill-opacity:1;stroke-width:1.6;stroke-linecap:round;stroke-linejoin:round;stroke:rgb(79.998779%,79.998779%,79.998779%);stroke-opacity:1;stroke-miterlimit:4;" d="M 120.800781 173.589844 L 159.199219 173.589844 C 161.859375 173.589844 164 175.730469 164 178.390625 L 164 197.589844 C 164 200.25 161.859375 202.390625 159.199219 202.390625 L 120.800781 202.390625 C 118.140625 202.390625 116 200.25 116 197.589844 L 116 178.390625 C 116 175.730469 118.140625 173.589844 120.800781 173.589844 Z M 120.800781 173.589844 "/>
<path style=" stroke:none;fill-rule:nonzero;fill:rgb(79.998779%,79.998779%,79.998779%);fill-opacity:1;" d="M 129.527344 185.535156 L 131.777344 185.535156 C 131.121094 188.472656 130.933594 189.347656 130.933594 190.691406 C 130.933594 190.972656 130.933594 191.503906 131.089844 192.191406 C 131.308594 193.066406 131.527344 193.191406 131.808594 193.191406 C 132.214844 193.191406 132.652344 192.847656 132.652344 192.441406 C 132.652344 192.316406 132.652344 192.285156 132.527344 192.003906 C 131.933594 190.566406 131.933594 189.253906 131.933594 188.691406 C 131.933594 187.660156 132.089844 186.566406 132.308594 185.535156 L 134.558594 185.535156 C 134.839844 185.535156 135.558594 185.535156 135.558594 184.847656 C 135.558594 184.378906 135.121094 184.378906 134.746094 184.378906 L 128.058594 184.378906 C 127.621094 184.378906 126.871094 184.378906 125.996094 185.316406 C 125.308594 186.097656 124.777344 187.003906 124.777344 187.097656 C 124.777344 187.128906 124.777344 187.316406 125.027344 187.316406 C 125.183594 187.316406 125.214844 187.222656 125.339844 187.066406 C 126.308594 185.535156 127.464844 185.535156 127.871094 185.535156 L 128.996094 185.535156 C 128.371094 187.941406 127.308594 190.347656 126.464844 192.160156 C 126.308594 192.472656 126.308594 192.503906 126.308594 192.660156 C 126.308594 193.035156 126.621094 193.191406 126.871094 193.191406 C 127.464844 193.191406 127.621094 192.628906 127.871094 191.910156 C 128.152344 190.972656 128.152344 190.941406 128.402344 189.941406 Z M 129.527344 185.535156 "/>
<path style=" stroke:none;fill-rule:nonzero;fill:rgb(79.998779%,79.998779%,79.998779%);fill-opacity:1;" d="M 145.074219 178.785156 C 145.167969 178.503906 145.167969 178.441406 145.167969 178.410156 C 145.167969 178.191406 145.011719 178.003906 144.792969 178.003906 C 144.636719 178.003906 144.511719 178.066406 144.449219 178.191406 L 137.511719 197.191406 C 137.417969 197.472656 137.417969 197.535156 137.417969 197.566406 C 137.417969 197.785156 137.605469 197.972656 137.824219 197.972656 C 138.074219 197.972656 138.136719 197.816406 138.261719 197.472656 Z M 145.074219 178.785156 "/>
<path style=" stroke:none;fill-rule:nonzero;fill:rgb(79.998779%,79.998779%,79.998779%);fill-opacity:1;" d="M 148.816406 191.441406 L 150.941406 189.378906 C 154.035156 186.628906 155.222656 185.566406 155.222656 183.566406 C 155.222656 181.285156 153.441406 179.691406 151.003906 179.691406 C 148.753906 179.691406 147.285156 181.535156 147.285156 183.316406 C 147.285156 184.410156 148.285156 184.410156 148.347656 184.410156 C 148.691406 184.410156 149.378906 184.191406 149.378906 183.347656 C 149.378906 182.847656 149.003906 182.316406 148.316406 182.316406 C 148.160156 182.316406 148.128906 182.316406 148.066406 182.347656 C 148.503906 181.035156 149.597656 180.316406 150.753906 180.316406 C 152.566406 180.316406 153.410156 181.941406 153.410156 183.566406 C 153.410156 185.160156 152.441406 186.722656 151.316406 187.972656 L 147.503906 192.222656 C 147.285156 192.441406 147.285156 192.503906 147.285156 192.972656 L 154.691406 192.972656 L 155.222656 189.503906 L 154.753906 189.503906 C 154.628906 190.097656 154.503906 190.972656 154.285156 191.285156 C 154.160156 191.441406 152.847656 191.441406 152.410156 191.441406 Z M 148.816406 191.441406 "/>
<path style="fill-rule:nonzero;fill:rgb(79.998779%,79.998779%,79.998779%);fill-opacity:1;stroke-width:1.6;stroke-linecap:round;stroke-linejoin:round;stroke:rgb(79.998779%,79.998779%,79.998779%);stroke-opacity:1;stroke-miterlimit:4;" d="M 188 173.589844 L 207.199219 173.589844 C 209.859375 173.589844 212 175.730469 212 178.390625 L 212 197.589844 C 212 200.25 209.859375 202.390625 207.199219 202.390625 L 188 202.390625 C 185.339844 202.390625 183.199219 200.25 183.199219 197.589844 L 183.199219 178.390625 C 183.199219 175.730469 185.339844 173.589844 188 173.589844 Z M 188 173.589844 "/>
<path style=" stroke:none;fill-rule:nonzero;fill:rgb(79.998779%,79.998779%,79.998779%);fill-opacity:1;" d="M 196.960938 184.738281 L 199.210938 184.738281 C 198.554688 187.675781 198.367188 188.550781 198.367188 189.894531 C 198.367188 190.175781 198.367188 190.707031 198.523438 191.394531 C 198.742188 192.269531 198.960938 192.394531 199.242188 192.394531 C 199.648438 192.394531 200.085938 192.050781 200.085938 191.644531 C 200.085938 191.519531 200.085938 191.488281 199.960938 191.207031 C 199.367188 189.769531 199.367188 188.457031 199.367188 187.894531 C 199.367188 186.863281 199.523438 185.769531 199.742188 184.738281 L 201.992188 184.738281 C 202.273438 184.738281 202.992188 184.738281 202.992188 184.050781 C 202.992188 183.582031 202.554688 183.582031 202.179688 183.582031 L 195.492188 183.582031 C 195.054688 183.582031 194.304688 183.582031 193.429688 184.519531 C 192.742188 185.300781 192.210938 186.207031 192.210938 186.300781 C 192.210938 186.332031 192.210938 186.519531 192.460938 186.519531 C 192.617188 186.519531 192.648438 186.425781 192.773438 186.269531 C 193.742188 184.738281 194.898438 184.738281 195.304688 184.738281 L 196.429688 184.738281 C 195.804688 187.144531 194.742188 189.550781 193.898438 191.363281 C 193.742188 191.675781 193.742188 191.707031 193.742188 191.863281 C 193.742188 192.238281 194.054688 192.394531 194.304688 192.394531 C 194.898438 192.394531 195.054688 191.832031 195.304688 191.113281 C 195.585938 190.175781 195.585938 190.144531 195.835938 189.144531 Z M 196.960938 184.738281 "/>
<path style="fill:none;stroke-width:0.8;stroke-linecap:butt;stroke-linejoin:miter;stroke:rgb(100%,0%,0%);stroke-opacity:1;stroke-miterlimit:4;" d="M 140 173.589844 L 164.164062 145.523438 "/>
<path style="fill-rule:evenodd;fill:rgb(100%,0%,0%);fill-opacity:1;stroke-width:0.606287;stroke-linecap:butt;stroke-linejoin:miter;stroke:rgb(100%,0%,0%);stroke-opacity:1;stroke-miterlimit:4;" d="M -28.103515 166.240348 C -28.104822 167.577411 -29.189416 168.663449 -30.528722 168.664073 C -31.868028 168.664698 -32.951822 167.578173 -32.952447 166.238867 C -32.953071 164.899561 -31.868478 163.813523 -30.529172 163.812898 C -29.189866 163.812273 -28.10414 164.901042 -28.103515 166.240348 Z M -28.103515 166.240348 " transform="matrix(0.86087,-1,1,0.86087,0,0)"/>
<path style="fill-rule:evenodd;fill:rgb(100%,0%,0%);fill-opacity:1;stroke-width:0.606287;stroke-linecap:butt;stroke-linejoin:miter;stroke:rgb(100%,0%,0%);stroke-opacity:1;stroke-miterlimit:4;" d="M 8.474361 -166.240636 L 10.899568 -168.664361 L 2.411997 -166.240478 L 10.900018 -163.813186 Z M 8.474361 -166.240636 " transform="matrix(-0.86087,1,-1,-0.86087,0,0)"/>
<path style="fill:none;stroke-width:0.8;stroke-linecap:butt;stroke-linejoin:miter;stroke:rgb(100%,0%,0%);stroke-opacity:1;stroke-miterlimit:4;" d="M 197.601562 173.589844 L 173.4375 145.523438 "/>
<path style="fill-rule:evenodd;fill:rgb(100%,0%,0%);fill-opacity:1;stroke-width:0.606287;stroke-linecap:butt;stroke-linejoin:miter;stroke:rgb(100%,0%,0%);stroke-opacity:1;stroke-miterlimit:4;" d="M -195.027604 27.661274 C -195.028229 29.00058 -196.112023 30.087105 -197.451329 30.08648 C -198.790636 30.085856 -199.875229 28.999818 -199.876536 27.662755 C -199.875911 26.323449 -198.790186 25.23468 -197.45088 25.235305 C -196.111574 25.23593 -195.02698 26.321968 -195.027604 27.661274 Z M -195.027604 27.661274 " transform="matrix(-0.86087,-1,1,-0.86087,0,0)"/>
<path style="fill-rule:evenodd;fill:rgb(100%,0%,0%);fill-opacity:1;stroke-width:0.606287;stroke-linecap:butt;stroke-linejoin:miter;stroke:rgb(100%,0%,0%);stroke-opacity:1;stroke-miterlimit:4;" d="M 175.39845 -27.660986 L 177.822176 -30.086192 L 169.336086 -27.661144 L 177.823657 -25.237261 Z M 175.39845 -27.660986 " transform="matrix(0.86087,1,-1,0.86087,0,0)"/>
<path style="fill-rule:nonzero;fill:rgb(79.998779%,79.998779%,79.998779%);fill-opacity:1;stroke-width:1.6;stroke-linecap:round;stroke-linejoin:round;stroke:rgb(79.998779%,79.998779%,79.998779%);stroke-opacity:1;stroke-miterlimit:4;" d="M 250.589844 173.589844 L 288.992188 173.589844 C 291.652344 173.589844 293.792969 175.730469 293.792969 178.390625 L 293.792969 197.589844 C 293.792969 200.25 291.652344 202.390625 288.992188 202.390625 L 250.589844 202.390625 C 247.933594 202.390625 245.792969 200.25 245.792969 197.589844 L 245.792969 178.390625 C 245.792969 175.730469 247.933594 173.589844 250.589844 173.589844 Z M 250.589844 173.589844 "/>
<path style=" stroke:none;fill-rule:nonzero;fill:rgb(79.998779%,79.998779%,79.998779%);fill-opacity:1;" d="M 254.683594 185.941406 C 256.308594 185.410156 257.464844 184.035156 257.464844 182.441406 C 257.464844 180.816406 255.714844 179.691406 253.808594 179.691406 C 251.808594 179.691406 250.277344 180.878906 250.277344 182.410156 C 250.277344 183.066406 250.714844 183.441406 251.308594 183.441406 C 251.902344 183.441406 252.308594 183.003906 252.308594 182.410156 C 252.308594 181.441406 251.371094 181.441406 251.089844 181.441406 C 251.683594 180.441406 252.996094 180.191406 253.714844 180.191406 C 254.558594 180.191406 255.652344 180.628906 255.652344 182.410156 C 255.652344 182.660156 255.589844 183.816406 255.089844 184.691406 C 254.496094 185.660156 253.808594 185.722656 253.308594 185.722656 C 253.152344 185.753906 252.683594 185.785156 252.527344 185.785156 C 252.371094 185.816406 252.246094 185.847656 252.246094 186.035156 C 252.246094 186.253906 252.371094 186.253906 252.714844 186.253906 L 253.589844 186.253906 C 255.214844 186.253906 255.964844 187.597656 255.964844 189.566406 C 255.964844 192.285156 254.589844 192.847656 253.714844 192.847656 C 252.839844 192.847656 251.339844 192.503906 250.652344 191.347656 C 251.339844 191.441406 251.964844 191.003906 251.964844 190.253906 C 251.964844 189.535156 251.433594 189.128906 250.871094 189.128906 C 250.371094 189.128906 249.746094 189.410156 249.746094 190.285156 C 249.746094 192.097656 251.589844 193.410156 253.777344 193.410156 C 256.214844 193.410156 258.027344 191.597656 258.027344 189.566406 C 258.027344 187.941406 256.746094 186.378906 254.683594 185.941406 Z M 254.683594 185.941406 "/>
<path style=" stroke:none;fill-rule:nonzero;fill:rgb(79.998779%,79.998779%,79.998779%);fill-opacity:1;" d="M 264.144531 185.535156 L 266.394531 185.535156 C 265.738281 188.472656 265.550781 189.347656 265.550781 190.691406 C 265.550781 190.972656 265.550781 191.503906 265.707031 192.191406 C 265.925781 193.066406 266.144531 193.191406 266.425781 193.191406 C 266.832031 193.191406 267.269531 192.847656 267.269531 192.441406 C 267.269531 192.316406 267.269531 192.285156 267.144531 192.003906 C 266.550781 190.566406 266.550781 189.253906 266.550781 188.691406 C 266.550781 187.660156 266.707031 186.566406 266.925781 185.535156 L 269.175781 185.535156 C 269.457031 185.535156 270.175781 185.535156 270.175781 184.847656 C 270.175781 184.378906 269.738281 184.378906 269.363281 184.378906 L 262.675781 184.378906 C 262.238281 184.378906 261.488281 184.378906 260.613281 185.316406 C 259.925781 186.097656 259.394531 187.003906 259.394531 187.097656 C 259.394531 187.128906 259.394531 187.316406 259.644531 187.316406 C 259.800781 187.316406 259.832031 187.222656 259.957031 187.066406 C 260.925781 185.535156 262.082031 185.535156 262.488281 185.535156 L 263.613281 185.535156 C 262.988281 187.941406 261.925781 190.347656 261.082031 192.160156 C 260.925781 192.472656 260.925781 192.503906 260.925781 192.660156 C 260.925781 193.035156 261.238281 193.191406 261.488281 193.191406 C 262.082031 193.191406 262.238281 192.628906 262.488281 191.910156 C 262.769531 190.972656 262.769531 190.941406 263.019531 189.941406 Z M 264.144531 185.535156 "/>
<path style=" stroke:none;fill-rule:nonzero;fill:rgb(79.998779%,79.998779%,79.998779%);fill-opacity:1;" d="M 279.6875 178.785156 C 279.78125 178.503906 279.78125 178.441406 279.78125 178.410156 C 279.78125 178.191406 279.625 178.003906 279.40625 178.003906 C 279.25 178.003906 279.125 178.066406 279.0625 178.191406 L 272.125 197.191406 C 272.03125 197.472656 272.03125 197.535156 272.03125 197.566406 C 272.03125 197.785156 272.21875 197.972656 272.4375 197.972656 C 272.6875 197.972656 272.75 197.816406 272.875 197.472656 Z M 279.6875 178.785156 "/>
<path style=" stroke:none;fill-rule:nonzero;fill:rgb(79.998779%,79.998779%,79.998779%);fill-opacity:1;" d="M 283.429688 191.441406 L 285.554688 189.378906 C 288.648438 186.628906 289.835938 185.566406 289.835938 183.566406 C 289.835938 181.285156 288.054688 179.691406 285.617188 179.691406 C 283.367188 179.691406 281.898438 181.535156 281.898438 183.316406 C 281.898438 184.410156 282.898438 184.410156 282.960938 184.410156 C 283.304688 184.410156 283.992188 184.191406 283.992188 183.347656 C 283.992188 182.847656 283.617188 182.316406 282.929688 182.316406 C 282.773438 182.316406 282.742188 182.316406 282.679688 182.347656 C 283.117188 181.035156 284.210938 180.316406 285.367188 180.316406 C 287.179688 180.316406 288.023438 181.941406 288.023438 183.566406 C 288.023438 185.160156 287.054688 186.722656 285.929688 187.972656 L 282.117188 192.222656 C 281.898438 192.441406 281.898438 192.503906 281.898438 192.972656 L 289.304688 192.972656 L 289.835938 189.503906 L 289.367188 189.503906 C 289.242188 190.097656 289.117188 190.972656 288.898438 191.285156 C 288.773438 191.441406 287.460938 191.441406 287.023438 191.441406 Z M 283.429688 191.441406 "/>
<path style=" stroke:none;fill-rule:nonzero;fill:rgb(79.998779%,79.998779%,79.998779%);fill-opacity:1;" d="M 221.601562 231.191406 L 260 231.191406 C 262.660156 231.191406 264.800781 233.332031 264.800781 235.988281 L 264.800781 255.191406 C 264.800781 257.847656 262.660156 259.988281 260 259.988281 L 221.601562 259.988281 C 218.941406 259.988281 216.800781 257.847656 216.800781 255.191406 L 216.800781 235.988281 C 216.800781 233.332031 218.941406 231.191406 221.601562 231.191406 Z M 221.601562 231.191406 "/>
<g clip-path="url(#clip1)" clip-rule="nonzero">
<path style="fill:none;stroke-width:1.6;stroke-linecap:round;stroke-linejoin:round;stroke:rgb(79.998779%,79.998779%,79.998779%);stroke-opacity:1;stroke-miterlimit:4;" d="M 221.601562 231.191406 L 260 231.191406 C 262.660156 231.191406 264.800781 233.332031 264.800781 235.988281 L 264.800781 255.191406 C 264.800781 257.847656 262.660156 259.988281 260 259.988281 L 221.601562 259.988281 C 218.941406 259.988281 216.800781 257.847656 216.800781 255.191406 L 216.800781 235.988281 C 216.800781 233.332031 218.941406 231.191406 221.601562 231.191406 Z M 221.601562 231.191406 "/>
</g>
<path style=" stroke:none;fill-rule:nonzero;fill:rgb(79.998779%,79.998779%,79.998779%);fill-opacity:1;" d="M 230.328125 243.136719 L 232.578125 243.136719 C 231.921875 246.074219 231.734375 246.949219 231.734375 248.292969 C 231.734375 248.574219 231.734375 249.105469 231.890625 249.792969 C 232.109375 250.667969 232.328125 250.792969 232.609375 250.792969 C 233.015625 250.792969 233.453125 250.449219 233.453125 250.042969 C 233.453125 249.917969 233.453125 249.886719 233.328125 249.605469 C 232.734375 248.167969 232.734375 246.855469 232.734375 246.292969 C 232.734375 245.261719 232.890625 244.167969 233.109375 243.136719 L 235.359375 243.136719 C 235.640625 243.136719 236.359375 243.136719 236.359375 242.449219 C 236.359375 241.980469 235.921875 241.980469 235.546875 241.980469 L 228.859375 241.980469 C 228.421875 241.980469 227.671875 241.980469 226.796875 242.917969 C 226.109375 243.699219 225.578125 244.605469 225.578125 244.699219 C 225.578125 244.730469 225.578125 244.917969 225.828125 244.917969 C 225.984375 244.917969 226.015625 244.824219 226.140625 244.667969 C 227.109375 243.136719 228.265625 243.136719 228.671875 243.136719 L 229.796875 243.136719 C 229.171875 245.542969 228.109375 247.949219 227.265625 249.761719 C 227.109375 250.074219 227.109375 250.105469 227.109375 250.261719 C 227.109375 250.636719 227.421875 250.792969 227.671875 250.792969 C 228.265625 250.792969 228.421875 250.230469 228.671875 249.511719 C 228.953125 248.574219 228.953125 248.542969 229.203125 247.542969 Z M 230.328125 243.136719 "/>
<path style=" stroke:none;fill-rule:nonzero;fill:rgb(79.998779%,79.998779%,79.998779%);fill-opacity:1;" d="M 245.871094 236.386719 C 245.964844 236.105469 245.964844 236.042969 245.964844 236.011719 C 245.964844 235.792969 245.808594 235.605469 245.589844 235.605469 C 245.433594 235.605469 245.308594 235.667969 245.246094 235.792969 L 238.308594 254.792969 C 238.214844 255.074219 238.214844 255.136719 238.214844 255.167969 C 238.214844 255.386719 238.402344 255.574219 238.621094 255.574219 C 238.871094 255.574219 238.933594 255.417969 239.058594 255.074219 Z M 245.871094 236.386719 "/>
<path style=" stroke:none;fill-rule:nonzero;fill:rgb(79.998779%,79.998779%,79.998779%);fill-opacity:1;" d="M 249.613281 249.042969 L 251.738281 246.980469 C 254.832031 244.230469 256.019531 243.167969 256.019531 241.167969 C 256.019531 238.886719 254.238281 237.292969 251.800781 237.292969 C 249.550781 237.292969 248.082031 239.136719 248.082031 240.917969 C 248.082031 242.011719 249.082031 242.011719 249.144531 242.011719 C 249.488281 242.011719 250.175781 241.792969 250.175781 240.949219 C 250.175781 240.449219 249.800781 239.917969 249.113281 239.917969 C 248.957031 239.917969 248.925781 239.917969 248.863281 239.949219 C 249.300781 238.636719 250.394531 237.917969 251.550781 237.917969 C 253.363281 237.917969 254.207031 239.542969 254.207031 241.167969 C 254.207031 242.761719 253.238281 244.324219 252.113281 245.574219 L 248.300781 249.824219 C 248.082031 250.042969 248.082031 250.105469 248.082031 250.574219 L 255.488281 250.574219 L 256.019531 247.105469 L 255.550781 247.105469 C 255.425781 247.699219 255.300781 248.574219 255.082031 248.886719 C 254.957031 249.042969 253.644531 249.042969 253.207031 249.042969 Z M 249.613281 249.042969 "/>
<path style=" stroke:none;fill-rule:nonzero;fill:rgb(79.998779%,79.998779%,79.998779%);fill-opacity:1;" d="M 288.800781 231.191406 L 308 231.191406 C 310.660156 231.191406 312.800781 233.332031 312.800781 235.988281 L 312.800781 255.191406 C 312.800781 257.847656 310.660156 259.988281 308 259.988281 L 288.800781 259.988281 C 286.140625 259.988281 284 257.847656 284 255.191406 L 284 235.988281 C 284 233.332031 286.140625 231.191406 288.800781 231.191406 Z M 288.800781 231.191406 "/>
<g clip-path="url(#clip2)" clip-rule="nonzero">
<path style="fill:none;stroke-width:1.6;stroke-linecap:round;stroke-linejoin:round;stroke:rgb(79.998779%,79.998779%,79.998779%);stroke-opacity:1;stroke-miterlimit:4;" d="M 288.800781 231.191406 L 308 231.191406 C 310.660156 231.191406 312.800781 233.332031 312.800781 235.988281 L 312.800781 255.191406 C 312.800781 257.847656 310.660156 259.988281 308 259.988281 L 288.800781 259.988281 C 286.140625 259.988281 284 257.847656 284 255.191406 L 284 235.988281 C 284 233.332031 286.140625 231.191406 288.800781 231.191406 Z M 288.800781 231.191406 "/>
</g>
<path style=" stroke:none;fill-rule:nonzero;fill:rgb(79.998779%,79.998779%,79.998779%);fill-opacity:1;" d="M 297.757812 242.339844 L 300.007812 242.339844 C 299.351562 245.277344 299.164062 246.152344 299.164062 247.496094 C 299.164062 247.777344 299.164062 248.308594 299.320312 248.996094 C 299.539062 249.871094 299.757812 249.996094 300.039062 249.996094 C 300.445312 249.996094 300.882812 249.652344 300.882812 249.246094 C 300.882812 249.121094 300.882812 249.089844 300.757812 248.808594 C 300.164062 247.371094 300.164062 246.058594 300.164062 245.496094 C 300.164062 244.464844 300.320312 243.371094 300.539062 242.339844 L 302.789062 242.339844 C 303.070312 242.339844 303.789062 242.339844 303.789062 241.652344 C 303.789062 241.183594 303.351562 241.183594 302.976562 241.183594 L 296.289062 241.183594 C 295.851562 241.183594 295.101562 241.183594 294.226562 242.121094 C 293.539062 242.902344 293.007812 243.808594 293.007812 243.902344 C 293.007812 243.933594 293.007812 244.121094 293.257812 244.121094 C 293.414062 244.121094 293.445312 244.027344 293.570312 243.871094 C 294.539062 242.339844 295.695312 242.339844 296.101562 242.339844 L 297.226562 242.339844 C 296.601562 244.746094 295.539062 247.152344 294.695312 248.964844 C 294.539062 249.277344 294.539062 249.308594 294.539062 249.464844 C 294.539062 249.839844 294.851562 249.996094 295.101562 249.996094 C 295.695312 249.996094 295.851562 249.433594 296.101562 248.714844 C 296.382812 247.777344 296.382812 247.746094 296.632812 246.746094 Z M 297.757812 242.339844 "/>
<path style="fill:none;stroke-width:0.8;stroke-linecap:butt;stroke-linejoin:miter;stroke:rgb(100%,0%,0%);stroke-opacity:1;stroke-miterlimit:4;" d="M 240.800781 231.191406 L 264.960938 203.121094 "/>
<path style="fill-rule:evenodd;fill:rgb(100%,0%,0%);fill-opacity:1;stroke-width:0.606287;stroke-linecap:butt;stroke-linejoin:miter;stroke:rgb(100%,0%,0%);stroke-opacity:1;stroke-miterlimit:4;" d="M -11.344708 252.613975 C -11.346014 253.951037 -12.432852 255.039007 -13.769914 255.0377 C -15.10922 255.038324 -16.19719 253.951487 -16.195883 252.614425 C -16.196507 251.275119 -15.10967 250.187149 -13.772608 250.188456 C -12.433302 250.187831 -11.345332 251.274669 -11.344708 252.613975 Z M -11.344708 252.613975 " transform="matrix(0.86087,-1,1,0.86087,0,0)"/>
<path style="fill-rule:evenodd;fill:rgb(100%,0%,0%);fill-opacity:1;stroke-width:0.606287;stroke-linecap:butt;stroke-linejoin:miter;stroke:rgb(100%,0%,0%);stroke-opacity:1;stroke-miterlimit:4;" d="M -8.282515 -252.612019 L -5.856996 -255.039919 L -14.344879 -252.611861 L -5.856546 -250.188744 Z M -8.282515 -252.612019 " transform="matrix(-0.86087,1,-1,-0.86087,0,0)"/>
<path style="fill:none;stroke-width:0.8;stroke-linecap:butt;stroke-linejoin:miter;stroke:rgb(100%,0%,0%);stroke-opacity:1;stroke-miterlimit:4;" d="M 298.398438 231.191406 L 274.238281 203.121094 "/>
<path style="fill-rule:evenodd;fill:rgb(100%,0%,0%);fill-opacity:1;stroke-width:0.606287;stroke-linecap:butt;stroke-linejoin:miter;stroke:rgb(100%,0%,0%);stroke-opacity:1;stroke-miterlimit:4;" d="M -277.948896 57.077603 C -277.947589 58.414665 -279.035558 59.501503 -280.374865 59.500878 C -281.711927 59.502185 -282.798764 58.414215 -282.800071 57.077153 C -282.799446 55.737847 -281.711477 54.65101 -280.372171 54.651634 C -279.035109 54.650327 -277.948271 55.738297 -277.948896 57.077603 Z M -277.948896 57.077603 " transform="matrix(-0.86087,-1,1,-0.86087,0,0)"/>
<path style="fill-rule:evenodd;fill:rgb(100%,0%,0%);fill-opacity:1;stroke-width:0.606287;stroke-linecap:butt;stroke-linejoin:miter;stroke:rgb(100%,0%,0%);stroke-opacity:1;stroke-miterlimit:4;" d="M 258.319742 -57.077315 L 260.745711 -59.50059 L 252.257378 -57.077473 L 260.745261 -54.649415 Z M 258.319742 -57.077315 " transform="matrix(0.86087,1,-1,0.86087,0,0)"/>
<path style="fill-rule:nonzero;fill:rgb(79.998779%,79.998779%,79.998779%);fill-opacity:1;stroke-width:1.6;stroke-linecap:round;stroke-linejoin:round;stroke:rgb(79.998779%,79.998779%,79.998779%);stroke-opacity:1;stroke-miterlimit:4;" d="M 34.589844 115.988281 L 72.992188 115.988281 C 75.652344 115.988281 77.792969 118.128906 77.792969 120.789062 L 77.792969 139.988281 C 77.792969 142.648438 75.652344 144.789062 72.992188 144.789062 L 34.589844 144.789062 C 31.933594 144.789062 29.792969 142.648438 29.792969 139.988281 L 29.792969 120.789062 C 29.792969 118.128906 31.933594 115.988281 34.589844 115.988281 Z M 34.589844 115.988281 "/>
<path style=" stroke:none;fill-rule:nonzero;fill:rgb(79.998779%,79.998779%,79.998779%);fill-opacity:1;" d="M 38.683594 128.34375 C 40.308594 127.8125 41.464844 126.4375 41.464844 124.84375 C 41.464844 123.21875 39.714844 122.09375 37.808594 122.09375 C 35.808594 122.09375 34.277344 123.28125 34.277344 124.8125 C 34.277344 125.46875 34.714844 125.84375 35.308594 125.84375 C 35.902344 125.84375 36.308594 125.40625 36.308594 124.8125 C 36.308594 123.84375 35.371094 123.84375 35.089844 123.84375 C 35.683594 122.84375 36.996094 122.59375 37.714844 122.59375 C 38.558594 122.59375 39.652344 123.03125 39.652344 124.8125 C 39.652344 125.0625 39.589844 126.21875 39.089844 127.09375 C 38.496094 128.0625 37.808594 128.125 37.308594 128.125 C 37.152344 128.15625 36.683594 128.1875 36.527344 128.1875 C 36.371094 128.21875 36.246094 128.25 36.246094 128.4375 C 36.246094 128.65625 36.371094 128.65625 36.714844 128.65625 L 37.589844 128.65625 C 39.214844 128.65625 39.964844 130 39.964844 131.96875 C 39.964844 134.6875 38.589844 135.25 37.714844 135.25 C 36.839844 135.25 35.339844 134.90625 34.652344 133.75 C 35.339844 133.84375 35.964844 133.40625 35.964844 132.65625 C 35.964844 131.9375 35.433594 131.53125 34.871094 131.53125 C 34.371094 131.53125 33.746094 131.8125 33.746094 132.6875 C 33.746094 134.5 35.589844 135.8125 37.777344 135.8125 C 40.214844 135.8125 42.027344 134 42.027344 131.96875 C 42.027344 130.34375 40.746094 128.78125 38.683594 128.34375 Z M 38.683594 128.34375 "/>
<path style=" stroke:none;fill-rule:nonzero;fill:rgb(79.998779%,79.998779%,79.998779%);fill-opacity:1;" d="M 48.144531 127.9375 L 50.394531 127.9375 C 49.738281 130.875 49.550781 131.75 49.550781 133.09375 C 49.550781 133.375 49.550781 133.90625 49.707031 134.59375 C 49.925781 135.46875 50.144531 135.59375 50.425781 135.59375 C 50.832031 135.59375 51.269531 135.25 51.269531 134.84375 C 51.269531 134.71875 51.269531 134.6875 51.144531 134.40625 C 50.550781 132.96875 50.550781 131.65625 50.550781 131.09375 C 50.550781 130.0625 50.707031 128.96875 50.925781 127.9375 L 53.175781 127.9375 C 53.457031 127.9375 54.175781 127.9375 54.175781 127.25 C 54.175781 126.78125 53.738281 126.78125 53.363281 126.78125 L 46.675781 126.78125 C 46.238281 126.78125 45.488281 126.78125 44.613281 127.71875 C 43.925781 128.5 43.394531 129.40625 43.394531 129.5 C 43.394531 129.53125 43.394531 129.71875 43.644531 129.71875 C 43.800781 129.71875 43.832031 129.625 43.957031 129.46875 C 44.925781 127.9375 46.082031 127.9375 46.488281 127.9375 L 47.613281 127.9375 C 46.988281 130.34375 45.925781 132.75 45.082031 134.5625 C 44.925781 134.875 44.925781 134.90625 44.925781 135.0625 C 44.925781 135.4375 45.238281 135.59375 45.488281 135.59375 C 46.082031 135.59375 46.238281 135.03125 46.488281 134.3125 C 46.769531 133.375 46.769531 133.34375 47.019531 132.34375 Z M 48.144531 127.9375 "/>
<path style=" stroke:none;fill-rule:nonzero;fill:rgb(79.998779%,79.998779%,79.998779%);fill-opacity:1;" d="M 63.6875 121.1875 C 63.78125 120.90625 63.78125 120.84375 63.78125 120.8125 C 63.78125 120.59375 63.625 120.40625 63.40625 120.40625 C 63.25 120.40625 63.125 120.46875 63.0625 120.59375 L 56.125 139.59375 C 56.03125 139.875 56.03125 139.9375 56.03125 139.96875 C 56.03125 140.1875 56.21875 140.375 56.4375 140.375 C 56.6875 140.375 56.75 140.21875 56.875 139.875 Z M 63.6875 121.1875 "/>
<path style=" stroke:none;fill-rule:nonzero;fill:rgb(79.998779%,79.998779%,79.998779%);fill-opacity:1;" d="M 67.429688 133.84375 L 69.554688 131.78125 C 72.648438 129.03125 73.835938 127.96875 73.835938 125.96875 C 73.835938 123.6875 72.054688 122.09375 69.617188 122.09375 C 67.367188 122.09375 65.898438 123.9375 65.898438 125.71875 C 65.898438 126.8125 66.898438 126.8125 66.960938 126.8125 C 67.304688 126.8125 67.992188 126.59375 67.992188 125.75 C 67.992188 125.25 67.617188 124.71875 66.929688 124.71875 C 66.773438 124.71875 66.742188 124.71875 66.679688 124.75 C 67.117188 123.4375 68.210938 122.71875 69.367188 122.71875 C 71.179688 122.71875 72.023438 124.34375 72.023438 125.96875 C 72.023438 127.5625 71.054688 129.125 69.929688 130.375 L 66.117188 134.625 C 65.898438 134.84375 65.898438 134.90625 65.898438 135.375 L 73.304688 135.375 L 73.835938 131.90625 L 73.367188 131.90625 C 73.242188 132.5 73.117188 133.375 72.898438 133.6875 C 72.773438 133.84375 71.460938 133.84375 71.023438 133.84375 Z M 67.429688 133.84375 "/>
<path style="fill-rule:nonzero;fill:rgb(79.998779%,79.998779%,79.998779%);fill-opacity:1;stroke-width:1.6;stroke-linecap:round;stroke-linejoin:round;stroke:rgb(79.998779%,79.998779%,79.998779%);stroke-opacity:1;stroke-miterlimit:4;" d="M 5.601562 173.589844 L 44 173.589844 C 46.660156 173.589844 48.800781 175.730469 48.800781 178.390625 L 48.800781 197.589844 C 48.800781 200.25 46.660156 202.390625 44 202.390625 L 5.601562 202.390625 C 2.941406 202.390625 0.800781 200.25 0.800781 197.589844 L 0.800781 178.390625 C 0.800781 175.730469 2.941406 173.589844 5.601562 173.589844 Z M 5.601562 173.589844 "/>
<path style=" stroke:none;fill-rule:nonzero;fill:rgb(79.998779%,79.998779%,79.998779%);fill-opacity:1;" d="M 14.328125 185.535156 L 16.578125 185.535156 C 15.921875 188.472656 15.734375 189.347656 15.734375 190.691406 C 15.734375 190.972656 15.734375 191.503906 15.890625 192.191406 C 16.109375 193.066406 16.328125 193.191406 16.609375 193.191406 C 17.015625 193.191406 17.453125 192.847656 17.453125 192.441406 C 17.453125 192.316406 17.453125 192.285156 17.328125 192.003906 C 16.734375 190.566406 16.734375 189.253906 16.734375 188.691406 C 16.734375 187.660156 16.890625 186.566406 17.109375 185.535156 L 19.359375 185.535156 C 19.640625 185.535156 20.359375 185.535156 20.359375 184.847656 C 20.359375 184.378906 19.921875 184.378906 19.546875 184.378906 L 12.859375 184.378906 C 12.421875 184.378906 11.671875 184.378906 10.796875 185.316406 C 10.109375 186.097656 9.578125 187.003906 9.578125 187.097656 C 9.578125 187.128906 9.578125 187.316406 9.828125 187.316406 C 9.984375 187.316406 10.015625 187.222656 10.140625 187.066406 C 11.109375 185.535156 12.265625 185.535156 12.671875 185.535156 L 13.796875 185.535156 C 13.171875 187.941406 12.109375 190.347656 11.265625 192.160156 C 11.109375 192.472656 11.109375 192.503906 11.109375 192.660156 C 11.109375 193.035156 11.421875 193.191406 11.671875 193.191406 C 12.265625 193.191406 12.421875 192.628906 12.671875 191.910156 C 12.953125 190.972656 12.953125 190.941406 13.203125 189.941406 Z M 14.328125 185.535156 "/>
<path style=" stroke:none;fill-rule:nonzero;fill:rgb(79.998779%,79.998779%,79.998779%);fill-opacity:1;" d="M 29.871094 178.785156 C 29.964844 178.503906 29.964844 178.441406 29.964844 178.410156 C 29.964844 178.191406 29.808594 178.003906 29.589844 178.003906 C 29.433594 178.003906 29.308594 178.066406 29.246094 178.191406 L 22.308594 197.191406 C 22.214844 197.472656 22.214844 197.535156 22.214844 197.566406 C 22.214844 197.785156 22.402344 197.972656 22.621094 197.972656 C 22.871094 197.972656 22.933594 197.816406 23.058594 197.472656 Z M 29.871094 178.785156 "/>
<path style=" stroke:none;fill-rule:nonzero;fill:rgb(79.998779%,79.998779%,79.998779%);fill-opacity:1;" d="M 33.613281 191.441406 L 35.738281 189.378906 C 38.832031 186.628906 40.019531 185.566406 40.019531 183.566406 C 40.019531 181.285156 38.238281 179.691406 35.800781 179.691406 C 33.550781 179.691406 32.082031 181.535156 32.082031 183.316406 C 32.082031 184.410156 33.082031 184.410156 33.144531 184.410156 C 33.488281 184.410156 34.175781 184.191406 34.175781 183.347656 C 34.175781 182.847656 33.800781 182.316406 33.113281 182.316406 C 32.957031 182.316406 32.925781 182.316406 32.863281 182.347656 C 33.300781 181.035156 34.394531 180.316406 35.550781 180.316406 C 37.363281 180.316406 38.207031 181.941406 38.207031 183.566406 C 38.207031 185.160156 37.238281 186.722656 36.113281 187.972656 L 32.300781 192.222656 C 32.082031 192.441406 32.082031 192.503906 32.082031 192.972656 L 39.488281 192.972656 L 40.019531 189.503906 L 39.550781 189.503906 C 39.425781 190.097656 39.300781 190.972656 39.082031 191.285156 C 38.957031 191.441406 37.644531 191.441406 37.207031 191.441406 Z M 33.613281 191.441406 "/>
<path style="fill-rule:nonzero;fill:rgb(79.998779%,79.998779%,79.998779%);fill-opacity:1;stroke-width:1.6;stroke-linecap:round;stroke-linejoin:round;stroke:rgb(79.998779%,79.998779%,79.998779%);stroke-opacity:1;stroke-miterlimit:4;" d="M 72.800781 173.589844 L 92 173.589844 C 94.660156 173.589844 96.800781 175.730469 96.800781 178.390625 L 96.800781 197.589844 C 96.800781 200.25 94.660156 202.390625 92 202.390625 L 72.800781 202.390625 C 70.140625 202.390625 68 200.25 68 197.589844 L 68 178.390625 C 68 175.730469 70.140625 173.589844 72.800781 173.589844 Z M 72.800781 173.589844 "/>
<path style=" stroke:none;fill-rule:nonzero;fill:rgb(79.998779%,79.998779%,79.998779%);fill-opacity:1;" d="M 81.757812 184.738281 L 84.007812 184.738281 C 83.351562 187.675781 83.164062 188.550781 83.164062 189.894531 C 83.164062 190.175781 83.164062 190.707031 83.320312 191.394531 C 83.539062 192.269531 83.757812 192.394531 84.039062 192.394531 C 84.445312 192.394531 84.882812 192.050781 84.882812 191.644531 C 84.882812 191.519531 84.882812 191.488281 84.757812 191.207031 C 84.164062 189.769531 84.164062 188.457031 84.164062 187.894531 C 84.164062 186.863281 84.320312 185.769531 84.539062 184.738281 L 86.789062 184.738281 C 87.070312 184.738281 87.789062 184.738281 87.789062 184.050781 C 87.789062 183.582031 87.351562 183.582031 86.976562 183.582031 L 80.289062 183.582031 C 79.851562 183.582031 79.101562 183.582031 78.226562 184.519531 C 77.539062 185.300781 77.007812 186.207031 77.007812 186.300781 C 77.007812 186.332031 77.007812 186.519531 77.257812 186.519531 C 77.414062 186.519531 77.445312 186.425781 77.570312 186.269531 C 78.539062 184.738281 79.695312 184.738281 80.101562 184.738281 L 81.226562 184.738281 C 80.601562 187.144531 79.539062 189.550781 78.695312 191.363281 C 78.539062 191.675781 78.539062 191.707031 78.539062 191.863281 C 78.539062 192.238281 78.851562 192.394531 79.101562 192.394531 C 79.695312 192.394531 79.851562 191.832031 80.101562 191.113281 C 80.382812 190.175781 80.382812 190.144531 80.632812 189.144531 Z M 81.757812 184.738281 "/>
<path style="fill:none;stroke-width:0.8;stroke-linecap:butt;stroke-linejoin:miter;stroke:rgb(100%,0%,0%);stroke-opacity:1;stroke-miterlimit:4;" d="M 24.800781 173.589844 L 48.960938 145.523438 "/>
<path style="fill-rule:evenodd;fill:rgb(100%,0%,0%);fill-opacity:1;stroke-width:0.606287;stroke-linecap:butt;stroke-linejoin:miter;stroke:rgb(100%,0%,0%);stroke-opacity:1;stroke-miterlimit:4;" d="M -85.062744 100.075621 C -85.064051 101.412683 -86.148645 102.498721 -87.487951 102.499346 C -88.827257 102.49997 -89.912983 101.411202 -89.911676 100.074139 C -89.9123 98.734833 -88.827707 97.648795 -87.488401 97.648171 C -86.149095 97.647546 -85.063369 98.736315 -85.062744 100.075621 Z M -85.062744 100.075621 " transform="matrix(0.86087,-1,1,0.86087,0,0)"/>
<path style="fill-rule:evenodd;fill:rgb(100%,0%,0%);fill-opacity:1;stroke-width:0.606287;stroke-linecap:butt;stroke-linejoin:miter;stroke:rgb(100%,0%,0%);stroke-opacity:1;stroke-miterlimit:4;" d="M 65.435522 -100.073665 L 67.858797 -102.499634 L 59.373157 -100.073507 L 67.859247 -97.648458 Z M 65.435522 -100.073665 " transform="matrix(-0.86087,1,-1,-0.86087,0,0)"/>
<path style="fill:none;stroke-width:0.8;stroke-linecap:butt;stroke-linejoin:miter;stroke:rgb(100%,0%,0%);stroke-opacity:1;stroke-miterlimit:4;" d="M 82.398438 173.589844 L 58.238281 145.523438 "/>
<path style="fill-rule:evenodd;fill:rgb(100%,0%,0%);fill-opacity:1;stroke-width:0.606287;stroke-linecap:butt;stroke-linejoin:miter;stroke:rgb(100%,0%,0%);stroke-opacity:1;stroke-miterlimit:4;" d="M -138.068376 -38.503454 C -138.067069 -37.166391 -139.152795 -36.077623 -140.492101 -36.078247 C -141.831407 -36.078872 -142.916 -37.16491 -142.917307 -38.501972 C -142.916683 -39.841278 -141.830957 -40.930047 -140.491651 -40.929422 C -139.152345 -40.928798 -138.067751 -39.84276 -138.068376 -38.503454 Z M -138.068376 -38.503454 " transform="matrix(-0.86087,-1,1,-0.86087,0,0)"/>
<path style="fill-rule:evenodd;fill:rgb(100%,0%,0%);fill-opacity:1;stroke-width:0.606287;stroke-linecap:butt;stroke-linejoin:miter;stroke:rgb(100%,0%,0%);stroke-opacity:1;stroke-miterlimit:4;" d="M 118.439222 38.503741 L 120.862947 36.078535 L 112.376857 38.503584 L 120.862497 40.92971 Z M 118.439222 38.503741 " transform="matrix(0.86087,1,-1,0.86087,0,0)"/>
<path style="fill:none;stroke-width:0.8;stroke-linecap:butt;stroke-linejoin:miter;stroke:rgb(100%,0%,0%);stroke-opacity:1;stroke-miterlimit:4;" d="M 53.601562 115.988281 L 106.398438 87.191406 "/>
<path style="fill-rule:evenodd;fill:rgb(100%,0%,0%);fill-opacity:1;stroke-width:0.702316;stroke-linecap:butt;stroke-linejoin:miter;stroke:rgb(100%,0%,0%);stroke-opacity:1;stroke-miterlimit:4;" d="M -4.698685 111.92536 C -4.697317 113.476887 -5.957643 114.734749 -7.507528 114.733106 C -9.056045 114.736116 -10.313906 113.475791 -10.315274 111.924263 C -10.315274 110.377389 -9.057958 109.117885 -7.506431 109.116517 C -5.956546 109.11816 -4.697042 110.375475 -4.698685 111.92536 Z M -4.698685 111.92536 " transform="matrix(1,-0.545455,0.545455,1,0,0)"/>
<path style="fill-rule:evenodd;fill:rgb(100%,0%,0%);fill-opacity:1;stroke-width:0.702316;stroke-linecap:butt;stroke-linejoin:miter;stroke:rgb(100%,0%,0%);stroke-opacity:1;stroke-miterlimit:4;" d="M -38.325342 -111.92428 L -35.517867 -114.736679 L -45.347583 -111.926472 L -35.517595 -109.115437 Z M -38.325342 -111.92428 " transform="matrix(-1,0.545455,-0.545455,-1,0,0)"/>
<path style="fill:none;stroke-width:0.8;stroke-linecap:butt;stroke-linejoin:miter;stroke:rgb(100%,0%,0%);stroke-opacity:1;stroke-miterlimit:4;" d="M 168.800781 115.988281 L 116 87.191406 "/>
<path style="fill-rule:evenodd;fill:rgb(100%,0%,0%);fill-opacity:1;stroke-width:0.702316;stroke-linecap:butt;stroke-linejoin:miter;stroke:rgb(100%,0%,0%);stroke-opacity:1;stroke-miterlimit:4;" d="M -176.101237 -18.432981 C -176.102605 -16.881454 -177.359098 -15.625781 -178.908983 -15.624138 C -180.46051 -15.625506 -181.720836 -16.883368 -181.717826 -18.431884 C -181.719469 -19.98177 -180.461607 -21.242095 -178.91008 -21.240727 C -177.360194 -21.24237 -176.099869 -19.984509 -176.101237 -18.432981 Z M -176.101237 -18.432981 " transform="matrix(-1,-0.545455,0.545455,-1,0,0)"/>
<path style="fill-rule:evenodd;fill:rgb(100%,0%,0%);fill-opacity:1;stroke-width:0.702316;stroke-linecap:butt;stroke-linejoin:miter;stroke:rgb(100%,0%,0%);stroke-opacity:1;stroke-miterlimit:4;" d="M 133.07721 18.431901 L 135.884957 15.623058 L 126.054968 18.434093 L 135.887695 21.242658 Z M 133.07721 18.431901 " transform="matrix(1,0.545455,-0.545455,1,0,0)"/>
<path style=" stroke:none;fill-rule:nonzero;fill:rgb(79.998779%,79.998779%,79.998779%);fill-opacity:1;" d="M 317.601562 173.972656 L 336.800781 173.972656 C 339.460938 173.972656 341.601562 176.113281 341.601562 178.773438 L 341.601562 197.972656 C 341.601562 200.632812 339.460938 202.773438 336.800781 202.773438 L 317.601562 202.773438 C 314.941406 202.773438 312.800781 200.632812 312.800781 197.972656 L 312.800781 178.773438 C 312.800781 176.113281 314.941406 173.972656 317.601562 173.972656 Z M 317.601562 173.972656 "/>
<g clip-path="url(#clip3)" clip-rule="nonzero">
<path style="fill:none;stroke-width:1.6;stroke-linecap:round;stroke-linejoin:round;stroke:rgb(79.998779%,79.998779%,79.998779%);stroke-opacity:1;stroke-miterlimit:4;" d="M 317.601562 173.972656 L 336.800781 173.972656 C 339.460938 173.972656 341.601562 176.113281 341.601562 178.773438 L 341.601562 197.972656 C 341.601562 200.632812 339.460938 202.773438 336.800781 202.773438 L 317.601562 202.773438 C 314.941406 202.773438 312.800781 200.632812 312.800781 197.972656 L 312.800781 178.773438 C 312.800781 176.113281 314.941406 173.972656 317.601562 173.972656 Z M 317.601562 173.972656 "/>
</g>
<path style=" stroke:none;fill-rule:nonzero;fill:rgb(79.998779%,79.998779%,79.998779%);fill-opacity:1;" d="M 324.761719 193.484375 L 326.886719 191.421875 C 329.980469 188.671875 331.167969 187.609375 331.167969 185.609375 C 331.167969 183.328125 329.386719 181.734375 326.949219 181.734375 C 324.699219 181.734375 323.230469 183.578125 323.230469 185.359375 C 323.230469 186.453125 324.230469 186.453125 324.292969 186.453125 C 324.636719 186.453125 325.324219 186.234375 325.324219 185.390625 C 325.324219 184.890625 324.949219 184.359375 324.261719 184.359375 C 324.105469 184.359375 324.074219 184.359375 324.011719 184.390625 C 324.449219 183.078125 325.542969 182.359375 326.699219 182.359375 C 328.511719 182.359375 329.355469 183.984375 329.355469 185.609375 C 329.355469 187.203125 328.386719 188.765625 327.261719 190.015625 L 323.449219 194.265625 C 323.230469 194.484375 323.230469 194.546875 323.230469 195.015625 L 330.636719 195.015625 L 331.167969 191.546875 L 330.699219 191.546875 C 330.574219 192.140625 330.449219 193.015625 330.230469 193.328125 C 330.105469 193.484375 328.792969 193.484375 328.355469 193.484375 Z M 324.761719 193.484375 "/>
<path style="fill:none;stroke-width:0.8;stroke-linecap:butt;stroke-linejoin:miter;stroke:rgb(100%,0%,0%);stroke-opacity:1;stroke-miterlimit:4;" d="M 327.199219 173.972656 L 303.039062 145.90625 "/>
<path style="fill-rule:evenodd;fill:rgb(100%,0%,0%);fill-opacity:1;stroke-width:0.606287;stroke-linecap:butt;stroke-linejoin:miter;stroke:rgb(100%,0%,0%);stroke-opacity:1;stroke-miterlimit:4;" d="M -259.325881 101.906472 C -259.326506 103.245778 -260.412232 104.334547 -261.751538 104.333923 C -263.090844 104.333298 -264.175437 103.24726 -264.174813 101.907954 C -264.17612 100.570891 -263.090394 99.482123 -261.751088 99.482747 C -260.411782 99.483372 -259.327188 100.56941 -259.325881 101.906472 Z M -259.325881 101.906472 " transform="matrix(-0.86087,-1,1,-0.86087,0,0)"/>
<path style="fill-rule:evenodd;fill:rgb(100%,0%,0%);fill-opacity:1;stroke-width:0.606287;stroke-linecap:butt;stroke-linejoin:miter;stroke:rgb(100%,0%,0%);stroke-opacity:1;stroke-miterlimit:4;" d="M 239.698659 -101.908428 L 242.122384 -104.333635 L 233.636294 -101.908586 L 242.121934 -99.48246 Z M 239.698659 -101.908428 " transform="matrix(0.86087,1,-1,0.86087,0,0)"/>
<path style="fill:none;stroke-width:0.8;stroke-linecap:butt;stroke-linejoin:miter;stroke:rgb(100%,0%,0%);stroke-opacity:1;stroke-miterlimit:4;" d="M 269.601562 173.972656 L 293.761719 145.90625 "/>
<path style="fill-rule:evenodd;fill:rgb(100%,0%,0%);fill-opacity:1;stroke-width:0.606287;stroke-linecap:butt;stroke-linejoin:miter;stroke:rgb(100%,0%,0%);stroke-opacity:1;stroke-miterlimit:4;" d="M 35.755024 240.864103 C 35.755649 242.203409 34.671055 243.289447 33.331749 243.290072 C 31.992443 243.290697 30.906717 242.201928 30.906093 240.862622 C 30.9074 239.525559 31.991993 238.439521 33.331299 238.438897 C 34.670605 238.438272 35.756331 239.527041 35.755024 240.864103 Z M 35.755024 240.864103 " transform="matrix(0.86087,-1,1,0.86087,0,0)"/>
<path style="fill-rule:evenodd;fill:rgb(100%,0%,0%);fill-opacity:1;stroke-width:0.606287;stroke-linecap:butt;stroke-linejoin:miter;stroke:rgb(100%,0%,0%);stroke-opacity:1;stroke-miterlimit:4;" d="M -55.384178 -240.864391 L -52.960903 -243.29036 L -61.446543 -240.864234 L -52.960453 -238.439185 Z M -55.384178 -240.864391 " transform="matrix(-0.86087,1,-1,-0.86087,0,0)"/>
<path style="fill:none;stroke-width:0.8;stroke-linecap:butt;stroke-linejoin:miter;stroke:rgb(100%,0%,0%);stroke-opacity:1;stroke-miterlimit:4;" d="M 298.398438 116.375 L 298.398438 87.574219 "/>
<path style="fill-rule:evenodd;fill:rgb(100%,0%,0%);fill-opacity:1;stroke-width:0.8;stroke-linecap:butt;stroke-linejoin:miter;stroke:rgb(100%,0%,0%);stroke-opacity:1;stroke-miterlimit:4;" d="M -113.238281 298.398438 C -113.238281 300.167969 -114.671875 301.601562 -116.4375 301.601562 C -118.203125 301.601562 -119.636719 300.167969 -119.636719 298.398438 C -119.636719 296.632812 -118.203125 295.199219 -116.4375 295.199219 C -114.671875 295.199219 -113.238281 296.632812 -113.238281 298.398438 Z M -113.238281 298.398438 " transform="matrix(0,-1,1,0,0,0)"/>
<path style="fill-rule:evenodd;fill:rgb(100%,0%,0%);fill-opacity:1;stroke-width:0.8;stroke-linecap:butt;stroke-linejoin:miter;stroke:rgb(100%,0%,0%);stroke-opacity:1;stroke-miterlimit:4;" d="M 95.574219 -298.398438 L 98.773438 -301.601562 L 87.574219 -298.398438 L 98.773438 -295.199219 Z M 95.574219 -298.398438 " transform="matrix(0,1,-1,0,0,0)"/>
<path style="fill:none;stroke-width:0.8;stroke-linecap:butt;stroke-linejoin:miter;stroke:rgb(100%,0%,0%);stroke-opacity:1;stroke-miterlimit:4;" d="M 111.199219 58.390625 L 202.398438 29.589844 "/>
<path style="fill-rule:evenodd;fill:rgb(100%,0%,0%);fill-opacity:1;stroke-width:0.762866;stroke-linecap:butt;stroke-linejoin:miter;stroke:rgb(100%,0%,0%);stroke-opacity:1;stroke-miterlimit:4;" d="M 87.340935 85.026619 C 87.340562 86.710095 85.970974 88.078375 84.287498 88.078002 C 82.604022 88.077629 81.238172 86.712715 81.236115 85.024565 C 81.236488 83.341089 82.604954 81.976361 84.28843 81.976734 C 85.973028 81.973555 87.341308 83.343143 87.340935 85.026619 Z M 87.340935 85.026619 " transform="matrix(1,-0.315789,0.315789,1,0,0)"/>
<path style="fill-rule:evenodd;fill:rgb(100%,0%,0%);fill-opacity:1;stroke-width:0.762866;stroke-linecap:butt;stroke-linejoin:miter;stroke:rgb(100%,0%,0%);stroke-opacity:1;stroke-miterlimit:4;" d="M -167.918953 -85.026958 L -164.869068 -88.079463 L -175.548156 -85.02602 L -164.871122 -81.974643 Z M -167.918953 -85.026958 " transform="matrix(-1,0.315789,-0.315789,-1,0,0)"/>
<path style="fill:none;stroke-width:0.8;stroke-linecap:butt;stroke-linejoin:miter;stroke:rgb(100%,0%,0%);stroke-opacity:1;stroke-miterlimit:4;" d="M 298.398438 58.390625 L 212 29.589844 "/>
<path style="fill-rule:evenodd;fill:rgb(100%,0%,0%);fill-opacity:1;stroke-width:0.758947;stroke-linecap:butt;stroke-linejoin:miter;stroke:rgb(100%,0%,0%);stroke-opacity:1;stroke-miterlimit:4;" d="M -283.102774 36.969059 C -283.102774 38.644841 -284.46215 40.004216 -286.137931 40.004215 C -287.813713 40.004215 -289.173087 38.644839 -289.173087 36.969058 C -289.173086 35.293276 -287.813711 33.933901 -286.137929 33.933902 C -284.462148 33.933902 -283.102773 35.293278 -283.102774 36.969059 Z M -283.102774 36.969059 " transform="matrix(-1,-0.333333,0.333333,-1,0,0)"/>
<path style="fill-rule:evenodd;fill:rgb(100%,0%,0%);fill-opacity:1;stroke-width:0.758947;stroke-linecap:butt;stroke-linejoin:miter;stroke:rgb(100%,0%,0%);stroke-opacity:1;stroke-miterlimit:4;" d="M 207.267219 -36.96791 L 210.302377 -40.003066 L 199.676984 -36.969084 L 210.302375 -33.932753 Z M 207.267219 -36.96791 " transform="matrix(1,0.333333,-0.333333,1,0,0)"/>
</g>
</svg>
