<?xml version="1.0" encoding="UTF-8"?>
<svg xmlns="http://www.w3.org/2000/svg" xmlns:xlink="http://www.w3.org/1999/xlink" width="318.886597pt" height="261.476044pt" viewBox="0 0 318.886597 261.476044" version="1.1">
<defs>
<clipPath id="clip1">
  <path d="M 288 231 L 318.886719 231 L 318.886719 261.476562 L 288 261.476562 Z M 288 231 "/>
</clipPath>
<clipPath id="clip2">
  <path d="M 173 231 L 204 231 L 204 261.476562 L 173 261.476562 Z M 173 231 "/>
</clipPath>
</defs>
<g id="surface1">
<path style="fill:none;stroke-width:1.6;stroke-linecap:round;stroke-linejoin:round;stroke:rgb(0%,0%,0%);stroke-opacity:1;stroke-miterlimit:4;" d="M 149.59375 0.789062 L 168.792969 0.789062 C 171.453125 0.789062 173.59375 2.929688 173.59375 5.589844 L 173.59375 24.789062 C 173.59375 27.449219 171.453125 29.589844 168.792969 29.589844 L 149.59375 29.589844 C 146.933594 29.589844 144.792969 27.449219 144.792969 24.789062 L 144.792969 5.589844 C 144.792969 2.929688 146.933594 0.789062 149.59375 0.789062 Z M 149.59375 0.789062 "/>
<path style=" stroke:none;fill-rule:nonzero;fill:rgb(0%,0%,0%);fill-opacity:1;" d="M 162.972656 5.988281 C 163.066406 5.707031 163.066406 5.644531 163.066406 5.613281 C 163.066406 5.394531 162.910156 5.207031 162.691406 5.207031 C 162.535156 5.207031 162.410156 5.269531 162.347656 5.394531 L 155.410156 24.394531 C 155.316406 24.675781 155.316406 24.738281 155.316406 24.769531 C 155.316406 24.988281 155.503906 25.175781 155.722656 25.175781 C 155.972656 25.175781 156.035156 25.019531 156.160156 24.675781 Z M 162.972656 5.988281 "/>
<path style="fill:none;stroke-width:1.6;stroke-linecap:round;stroke-linejoin:round;stroke:rgb(0%,0%,0%);stroke-opacity:1;stroke-miterlimit:4;" d="M 91.992188 115.988281 L 111.191406 115.988281 C 113.851562 115.988281 115.992188 118.128906 115.992188 120.789062 L 115.992188 139.988281 C 115.992188 142.648438 113.851562 144.789062 111.191406 144.789062 L 91.992188 144.789062 C 89.332031 144.789062 87.191406 142.648438 87.191406 139.988281 L 87.191406 120.789062 C 87.191406 118.128906 89.332031 115.988281 91.992188 115.988281 Z M 91.992188 115.988281 "/>
<path style=" stroke:none;fill-rule:nonzero;fill:rgb(0%,0%,0%);fill-opacity:1;" d="M 102.390625 129.78125 C 104.015625 129.25 105.171875 127.875 105.171875 126.28125 C 105.171875 124.65625 103.421875 123.53125 101.515625 123.53125 C 99.515625 123.53125 97.984375 124.71875 97.984375 126.25 C 97.984375 126.90625 98.421875 127.28125 99.015625 127.28125 C 99.609375 127.28125 100.015625 126.84375 100.015625 126.25 C 100.015625 125.28125 99.078125 125.28125 98.796875 125.28125 C 99.390625 124.28125 100.703125 124.03125 101.421875 124.03125 C 102.265625 124.03125 103.359375 124.46875 103.359375 126.25 C 103.359375 126.5 103.296875 127.65625 102.796875 128.53125 C 102.203125 129.5 101.515625 129.5625 101.015625 129.5625 C 100.859375 129.59375 100.390625 129.625 100.234375 129.625 C 100.078125 129.65625 99.953125 129.6875 99.953125 129.875 C 99.953125 130.09375 100.078125 130.09375 100.421875 130.09375 L 101.296875 130.09375 C 102.921875 130.09375 103.671875 131.4375 103.671875 133.40625 C 103.671875 136.125 102.296875 136.6875 101.421875 136.6875 C 100.546875 136.6875 99.046875 136.34375 98.359375 135.1875 C 99.046875 135.28125 99.671875 134.84375 99.671875 134.09375 C 99.671875 133.375 99.140625 132.96875 98.578125 132.96875 C 98.078125 132.96875 97.453125 133.25 97.453125 134.125 C 97.453125 135.9375 99.296875 137.25 101.484375 137.25 C 103.921875 137.25 105.734375 135.4375 105.734375 133.40625 C 105.734375 131.78125 104.453125 130.21875 102.390625 129.78125 Z M 102.390625 129.78125 "/>
<path style="fill:none;stroke-width:1.6;stroke-linecap:round;stroke-linejoin:round;stroke:rgb(0%,0%,0%);stroke-opacity:1;stroke-miterlimit:4;" d="M 63.460938 174.199219 L 82.660156 174.199219 C 85.320312 174.199219 87.460938 176.34375 87.460938 179 L 87.460938 198.199219 C 87.460938 200.859375 85.320312 203 82.660156 203 L 63.460938 203 C 60.800781 203 58.660156 200.859375 58.660156 198.199219 L 58.660156 179 C 58.660156 176.34375 60.800781 174.199219 63.460938 174.199219 Z M 63.460938 174.199219 "/>
<path style=" stroke:none;fill-rule:nonzero;fill:rgb(0%,0%,0%);fill-opacity:1;" d="M 74.167969 186.867188 C 74.292969 186.367188 74.761719 184.523438 76.136719 184.523438 C 76.230469 184.523438 76.730469 184.523438 77.136719 184.773438 C 76.574219 184.898438 76.199219 185.367188 76.199219 185.867188 C 76.199219 186.179688 76.417969 186.554688 76.949219 186.554688 C 77.386719 186.554688 78.011719 186.210938 78.011719 185.398438 C 78.011719 184.367188 76.855469 184.085938 76.167969 184.085938 C 75.011719 184.085938 74.324219 185.148438 74.074219 185.585938 C 73.574219 184.273438 72.511719 184.085938 71.917969 184.085938 C 69.855469 184.085938 68.699219 186.648438 68.699219 187.148438 C 68.699219 187.367188 68.917969 187.367188 68.949219 187.367188 C 69.105469 187.367188 69.167969 187.304688 69.199219 187.148438 C 69.886719 185.023438 71.199219 184.523438 71.886719 184.523438 C 72.261719 184.523438 72.949219 184.710938 72.949219 185.867188 C 72.949219 186.492188 72.605469 187.804688 71.886719 190.617188 C 71.574219 191.835938 70.855469 192.679688 69.980469 192.679688 C 69.855469 192.679688 69.417969 192.679688 68.980469 192.429688 C 69.480469 192.304688 69.917969 191.898438 69.917969 191.335938 C 69.917969 190.804688 69.480469 190.648438 69.199219 190.648438 C 68.574219 190.648438 68.105469 191.148438 68.105469 191.804688 C 68.105469 192.710938 69.074219 193.117188 69.949219 193.117188 C 71.292969 193.117188 72.011719 191.710938 72.042969 191.617188 C 72.292969 192.335938 73.011719 193.117188 74.199219 193.117188 C 76.261719 193.117188 77.386719 190.554688 77.386719 190.054688 C 77.386719 189.835938 77.230469 189.835938 77.167969 189.835938 C 76.980469 189.835938 76.949219 189.929688 76.886719 190.054688 C 76.230469 192.210938 74.886719 192.679688 74.261719 192.679688 C 73.480469 192.679688 73.167969 192.054688 73.167969 191.367188 C 73.167969 190.929688 73.261719 190.492188 73.480469 189.617188 Z M 74.167969 186.867188 "/>
<path style="fill:none;stroke-width:1.6;stroke-linecap:round;stroke-linejoin:round;stroke:rgb(0%,0%,0%);stroke-opacity:1;stroke-miterlimit:4;" d="M 34.394531 115.988281 L 53.59375 115.988281 C 56.253906 115.988281 58.394531 118.128906 58.394531 120.789062 L 58.394531 139.988281 C 58.394531 142.648438 56.253906 144.789062 53.59375 144.789062 L 34.394531 144.789062 C 31.734375 144.789062 29.59375 142.648438 29.59375 139.988281 L 29.59375 120.789062 C 29.59375 118.128906 31.734375 115.988281 34.394531 115.988281 Z M 34.394531 115.988281 "/>
<path style=" stroke:none;fill-rule:nonzero;fill:rgb(0%,0%,0%);fill-opacity:1;" d="M 43.992188 129.84375 L 40.023438 125.875 C 39.773438 125.625 39.742188 125.59375 39.585938 125.59375 C 39.367188 125.59375 39.179688 125.75 39.179688 126 C 39.179688 126.125 39.210938 126.15625 39.429688 126.375 L 43.429688 130.375 L 39.429688 134.40625 C 39.210938 134.625 39.179688 134.65625 39.179688 134.78125 C 39.179688 135.03125 39.367188 135.1875 39.585938 135.1875 C 39.742188 135.1875 39.773438 135.15625 40.023438 134.90625 L 43.992188 130.9375 L 48.117188 135.0625 C 48.148438 135.09375 48.273438 135.1875 48.398438 135.1875 C 48.648438 135.1875 48.804688 135.03125 48.804688 134.78125 C 48.804688 134.75 48.804688 134.6875 48.742188 134.5625 C 48.710938 134.53125 45.554688 131.40625 44.554688 130.375 L 48.210938 126.75 C 48.304688 126.625 48.617188 126.375 48.710938 126.25 C 48.710938 126.21875 48.804688 126.125 48.804688 126 C 48.804688 125.75 48.648438 125.59375 48.398438 125.59375 C 48.242188 125.59375 48.179688 125.65625 47.960938 125.875 Z M 43.992188 129.84375 "/>
<path style="fill:none;stroke-width:1.6;stroke-linecap:round;stroke-linejoin:round;stroke:rgb(0%,0%,0%);stroke-opacity:1;stroke-miterlimit:4;" d="M 5.59375 173.589844 L 24.792969 173.589844 C 27.453125 173.589844 29.59375 175.730469 29.59375 178.390625 L 29.59375 197.589844 C 29.59375 200.25 27.453125 202.390625 24.792969 202.390625 L 5.59375 202.390625 C 2.933594 202.390625 0.792969 200.25 0.792969 197.589844 L 0.792969 178.390625 C 0.792969 175.730469 2.933594 173.589844 5.59375 173.589844 Z M 5.59375 173.589844 "/>
<path style=" stroke:none;fill-rule:nonzero;fill:rgb(0%,0%,0%);fill-opacity:1;" d="M 12.753906 193.097656 L 14.878906 191.035156 C 17.972656 188.285156 19.160156 187.222656 19.160156 185.222656 C 19.160156 182.941406 17.378906 181.347656 14.941406 181.347656 C 12.691406 181.347656 11.222656 183.191406 11.222656 184.972656 C 11.222656 186.066406 12.222656 186.066406 12.285156 186.066406 C 12.628906 186.066406 13.316406 185.847656 13.316406 185.003906 C 13.316406 184.503906 12.941406 183.972656 12.253906 183.972656 C 12.097656 183.972656 12.066406 183.972656 12.003906 184.003906 C 12.441406 182.691406 13.535156 181.972656 14.691406 181.972656 C 16.503906 181.972656 17.347656 183.597656 17.347656 185.222656 C 17.347656 186.816406 16.378906 188.378906 15.253906 189.628906 L 11.441406 193.878906 C 11.222656 194.097656 11.222656 194.160156 11.222656 194.628906 L 18.628906 194.628906 L 19.160156 191.160156 L 18.691406 191.160156 C 18.566406 191.753906 18.441406 192.628906 18.222656 192.941406 C 18.097656 193.097656 16.785156 193.097656 16.347656 193.097656 Z M 12.753906 193.097656 "/>
<path style="fill:none;stroke-width:0.8;stroke-linecap:butt;stroke-linejoin:miter;stroke:rgb(100%,0%,0%);stroke-opacity:1;stroke-miterlimit:4;" d="M 43.109375 116.0625 L 67.269531 87.996094 "/>
<path style="fill-rule:evenodd;fill:rgb(100%,0%,0%);fill-opacity:1;stroke-width:0.303144;stroke-linecap:butt;stroke-linejoin:miter;stroke:rgb(100%,0%,0%);stroke-opacity:1;stroke-miterlimit:4;" d="M -44.157436 82.146624 C -44.159211 82.816121 -44.701352 83.357053 -45.371161 83.359452 C -46.040658 83.357677 -46.585764 82.815224 -46.583989 82.145727 C -46.584457 81.478162 -46.042004 80.933055 -45.370264 80.932899 C -44.702698 80.932431 -44.159835 81.476815 -44.157436 82.146624 Z M -44.157436 82.146624 " transform="matrix(0.86087,-1,1,0.86087,0,0)"/>
<path style="fill-rule:evenodd;fill:rgb(100%,0%,0%);fill-opacity:1;stroke-width:0.303144;stroke-linecap:butt;stroke-linejoin:miter;stroke:rgb(100%,0%,0%);stroke-opacity:1;stroke-miterlimit:4;" d="M 19.7044 -82.14652 L 20.915881 -83.357417 L 16.673218 -82.146442 L 20.917228 -80.932795 Z M 19.7044 -82.14652 " transform="matrix(-0.86087,1,-1,-0.86087,0,0)"/>
<path style="fill:none;stroke-width:0.8;stroke-linecap:butt;stroke-linejoin:miter;stroke:rgb(100%,0%,0%);stroke-opacity:1;stroke-miterlimit:4;" d="M 101.753906 115.257812 L 77.59375 87.191406 "/>
<path style="fill-rule:evenodd;fill:rgb(100%,0%,0%);fill-opacity:1;stroke-width:0.303144;stroke-linecap:butt;stroke-linejoin:miter;stroke:rgb(100%,0%,0%);stroke-opacity:1;stroke-miterlimit:4;" d="M -115.323555 1.455786 C -115.32178 2.125283 -115.866886 2.667736 -116.534452 2.667268 C -117.203949 2.669043 -117.746402 2.123936 -117.748177 1.454439 C -117.747709 0.786874 -117.204846 0.242489 -116.533105 0.242646 C -115.86554 0.243114 -115.321155 0.785977 -115.323555 1.455786 Z M -115.323555 1.455786 " transform="matrix(-0.86087,-1,1,-0.86087,0,0)"/>
<path style="fill-rule:evenodd;fill:rgb(100%,0%,0%);fill-opacity:1;stroke-width:0.303144;stroke-linecap:butt;stroke-linejoin:miter;stroke:rgb(100%,0%,0%);stroke-opacity:1;stroke-miterlimit:4;" d="M 90.866344 -1.455578 L 92.081416 -2.667371 L 87.835162 -1.455656 L 92.080069 -0.242749 Z M 90.866344 -1.455578 " transform="matrix(0.86087,1,-1,0.86087,0,0)"/>
<path style="fill:none;stroke-width:0.8;stroke-linecap:butt;stroke-linejoin:miter;stroke:rgb(100%,0%,0%);stroke-opacity:1;stroke-miterlimit:4;" d="M 14.914062 173.761719 L 39.078125 145.691406 "/>
<path style="fill-rule:evenodd;fill:rgb(100%,0%,0%);fill-opacity:1;stroke-width:0.303144;stroke-linecap:butt;stroke-linejoin:miter;stroke:rgb(100%,0%,0%);stroke-opacity:1;stroke-miterlimit:4;" d="M -91.237931 94.481498 C -91.237463 95.149064 -91.779916 95.69417 -92.449413 95.692395 C -93.119222 95.694795 -93.662085 95.15041 -93.662241 94.47867 C -93.66271 93.811104 -93.118325 93.268241 -92.45076 93.267773 C -91.779019 93.267617 -91.236156 93.812001 -91.237931 94.481498 Z M -91.237931 94.481498 " transform="matrix(0.86087,-1,1,0.86087,0,0)"/>
<path style="fill-rule:evenodd;fill:rgb(100%,0%,0%);fill-opacity:1;stroke-width:0.303144;stroke-linecap:butt;stroke-linejoin:miter;stroke:rgb(100%,0%,0%);stroke-opacity:1;stroke-miterlimit:4;" d="M 66.782652 -94.479463 L 67.996377 -95.692291 L 63.75147 -94.479384 L 67.993549 -93.267982 Z M 66.782652 -94.479463 " transform="matrix(-0.86087,1,-1,-0.86087,0,0)"/>
<path style="fill:none;stroke-width:0.8;stroke-linecap:butt;stroke-linejoin:miter;stroke:rgb(100%,0%,0%);stroke-opacity:1;stroke-miterlimit:4;" d="M 72.515625 173.761719 L 48.351562 145.691406 "/>
<path style="fill-rule:evenodd;fill:rgb(100%,0%,0%);fill-opacity:1;stroke-width:0.303144;stroke-linecap:butt;stroke-linejoin:miter;stroke:rgb(100%,0%,0%);stroke-opacity:1;stroke-miterlimit:4;" d="M -134.466763 -44.266214 C -134.464988 -43.596718 -135.00785 -43.052333 -135.67766 -43.054733 C -136.347156 -43.052958 -136.891541 -43.595821 -136.889141 -44.26563 C -136.890916 -44.935127 -136.348053 -45.479511 -135.678244 -45.477111 C -135.008747 -45.478886 -134.464363 -44.936024 -134.466763 -44.266214 Z M -134.466763 -44.266214 " transform="matrix(-0.86087,-1,1,-0.86087,0,0)"/>
<path style="fill-rule:evenodd;fill:rgb(100%,0%,0%);fill-opacity:1;stroke-width:0.303144;stroke-linecap:butt;stroke-linejoin:miter;stroke:rgb(100%,0%,0%);stroke-opacity:1;stroke-miterlimit:4;" d="M 110.009552 44.266423 L 111.22238 43.052698 L 106.97837 44.266344 L 111.223277 45.479251 Z M 110.009552 44.266423 " transform="matrix(0.86087,1,-1,0.86087,0,0)"/>
<path style="fill:none;stroke-width:1.6;stroke-linecap:round;stroke-linejoin:round;stroke:rgb(0%,0%,0%);stroke-opacity:1;stroke-miterlimit:4;" d="M 63.191406 58.390625 L 82.394531 58.390625 C 85.050781 58.390625 87.191406 60.53125 87.191406 63.191406 L 87.191406 82.390625 C 87.191406 85.050781 85.050781 87.191406 82.394531 87.191406 L 63.191406 87.191406 C 60.535156 87.191406 58.394531 85.050781 58.394531 82.390625 L 58.394531 63.191406 C 58.394531 60.53125 60.535156 58.390625 63.191406 58.390625 Z M 63.191406 58.390625 "/>
<path style=" stroke:none;fill-rule:nonzero;fill:rgb(0%,0%,0%);fill-opacity:1;" d="M 78.167969 73.179688 C 78.511719 73.179688 78.886719 73.179688 78.886719 72.773438 C 78.886719 72.398438 78.511719 72.398438 78.167969 72.398438 L 67.386719 72.398438 C 67.042969 72.398438 66.699219 72.398438 66.699219 72.773438 C 66.699219 73.179688 67.042969 73.179688 67.386719 73.179688 Z M 78.167969 73.179688 "/>
<path style="fill:none;stroke-width:1.6;stroke-linecap:round;stroke-linejoin:round;stroke:rgb(0%,0%,0%);stroke-opacity:1;stroke-miterlimit:4;" d="M 207.191406 115.988281 L 226.394531 115.988281 C 229.050781 115.988281 231.191406 118.128906 231.191406 120.789062 L 231.191406 139.988281 C 231.191406 142.648438 229.050781 144.789062 226.394531 144.789062 L 207.191406 144.789062 C 204.535156 144.789062 202.394531 142.648438 202.394531 139.988281 L 202.394531 120.789062 C 202.394531 118.128906 204.535156 115.988281 207.191406 115.988281 Z M 207.191406 115.988281 "/>
<path style=" stroke:none;fill-rule:nonzero;fill:rgb(0%,0%,0%);fill-opacity:1;" d="M 217.199219 130.78125 L 222.761719 130.78125 C 223.042969 130.78125 223.417969 130.78125 223.417969 130.375 C 223.417969 130 223.042969 130 222.761719 130 L 217.199219 130 L 217.199219 124.40625 C 217.199219 124.125 217.199219 123.75 216.792969 123.75 C 216.386719 123.75 216.386719 124.125 216.386719 124.40625 L 216.386719 130 L 210.824219 130 C 210.542969 130 210.167969 130 210.167969 130.375 C 210.167969 130.78125 210.542969 130.78125 210.824219 130.78125 L 216.386719 130.78125 L 216.386719 136.375 C 216.386719 136.65625 216.386719 137.03125 216.792969 137.03125 C 217.199219 137.03125 217.199219 136.65625 217.199219 136.375 Z M 217.199219 130.78125 "/>
<path style="fill:none;stroke-width:1.6;stroke-linecap:round;stroke-linejoin:round;stroke:rgb(0%,0%,0%);stroke-opacity:1;stroke-miterlimit:4;" d="M 236.21875 231.253906 L 255.417969 231.253906 C 258.078125 231.253906 260.21875 233.394531 260.21875 236.054688 L 260.21875 255.253906 C 260.21875 257.914062 258.078125 260.054688 255.417969 260.054688 L 236.21875 260.054688 C 233.558594 260.054688 231.417969 257.914062 231.417969 255.253906 L 231.417969 236.054688 C 231.417969 233.394531 233.558594 231.253906 236.21875 231.253906 Z M 236.21875 231.253906 "/>
<path style=" stroke:none;fill-rule:nonzero;fill:rgb(0%,0%,0%);fill-opacity:1;" d="M 249.789062 248.078125 C 249.789062 245.703125 248.164062 243.703125 246.007812 243.703125 C 245.070312 243.703125 244.195312 244.015625 243.476562 244.734375 L 243.476562 240.828125 C 243.882812 240.953125 244.539062 241.078125 245.164062 241.078125 C 247.632812 241.078125 249.039062 239.265625 249.039062 239.015625 C 249.039062 238.890625 248.976562 238.796875 248.820312 238.796875 C 248.820312 238.796875 248.757812 238.796875 248.664062 238.859375 C 248.257812 239.046875 247.289062 239.453125 245.945312 239.453125 C 245.164062 239.453125 244.226562 239.296875 243.289062 238.890625 C 243.132812 238.828125 243.101562 238.828125 243.070312 238.828125 C 242.851562 238.828125 242.851562 238.984375 242.851562 239.296875 L 242.851562 245.203125 C 242.851562 245.546875 242.851562 245.703125 243.132812 245.703125 C 243.289062 245.703125 243.320312 245.671875 243.414062 245.546875 C 243.632812 245.234375 244.351562 244.140625 245.976562 244.140625 C 247.007812 244.140625 247.507812 245.046875 247.664062 245.421875 C 247.976562 246.171875 248.039062 246.921875 248.039062 247.921875 C 248.039062 248.640625 248.039062 249.828125 247.539062 250.671875 C 247.070312 251.453125 246.320312 251.953125 245.414062 251.953125 C 243.976562 251.953125 242.820312 250.890625 242.476562 249.734375 C 242.539062 249.734375 242.601562 249.765625 242.820312 249.765625 C 243.476562 249.765625 243.820312 249.265625 243.820312 248.796875 C 243.820312 248.296875 243.476562 247.796875 242.820312 247.796875 C 242.539062 247.796875 241.851562 247.953125 241.851562 248.859375 C 241.851562 250.578125 243.226562 252.515625 245.445312 252.515625 C 247.757812 252.515625 249.789062 250.609375 249.789062 248.078125 Z M 249.789062 248.078125 "/>
<path style="fill:none;stroke-width:1.6;stroke-linecap:round;stroke-linejoin:round;stroke:rgb(0%,0%,0%);stroke-opacity:1;stroke-miterlimit:4;" d="M 235.992188 58.390625 L 255.191406 58.390625 C 257.851562 58.390625 259.992188 60.53125 259.992188 63.191406 L 259.992188 82.390625 C 259.992188 85.050781 257.851562 87.191406 255.191406 87.191406 L 235.992188 87.191406 C 233.332031 87.191406 231.191406 85.050781 231.191406 82.390625 L 231.191406 63.191406 C 231.191406 60.53125 233.332031 58.390625 235.992188 58.390625 Z M 235.992188 58.390625 "/>
<path style=" stroke:none;fill-rule:nonzero;fill:rgb(0%,0%,0%);fill-opacity:1;" d="M 250.96875 73.179688 C 251.3125 73.179688 251.6875 73.179688 251.6875 72.773438 C 251.6875 72.398438 251.3125 72.398438 250.96875 72.398438 L 240.1875 72.398438 C 239.84375 72.398438 239.5 72.398438 239.5 72.773438 C 239.5 73.179688 239.84375 73.179688 240.1875 73.179688 Z M 250.96875 73.179688 "/>
<g clip-path="url(#clip1)" clip-rule="nonzero">
<path style="fill:none;stroke-width:1.6;stroke-linecap:round;stroke-linejoin:round;stroke:rgb(0%,0%,0%);stroke-opacity:1;stroke-miterlimit:4;" d="M 294.085938 231.867188 L 313.285156 231.867188 C 315.945312 231.867188 318.085938 234.007812 318.085938 236.664062 L 318.085938 255.867188 C 318.085938 258.523438 315.945312 260.664062 313.285156 260.664062 L 294.085938 260.664062 C 291.425781 260.664062 289.285156 258.523438 289.285156 255.867188 L 289.285156 236.664062 C 289.285156 234.007812 291.425781 231.867188 294.085938 231.867188 Z M 294.085938 231.867188 "/>
</g>
<path style=" stroke:none;fill-rule:nonzero;fill:rgb(0%,0%,0%);fill-opacity:1;" d="M 304.796875 244.53125 C 304.921875 244.03125 305.390625 242.1875 306.765625 242.1875 C 306.859375 242.1875 307.359375 242.1875 307.765625 242.4375 C 307.203125 242.5625 306.828125 243.03125 306.828125 243.53125 C 306.828125 243.84375 307.046875 244.21875 307.578125 244.21875 C 308.015625 244.21875 308.640625 243.875 308.640625 243.0625 C 308.640625 242.03125 307.484375 241.75 306.796875 241.75 C 305.640625 241.75 304.953125 242.8125 304.703125 243.25 C 304.203125 241.9375 303.140625 241.75 302.546875 241.75 C 300.484375 241.75 299.328125 244.3125 299.328125 244.8125 C 299.328125 245.03125 299.546875 245.03125 299.578125 245.03125 C 299.734375 245.03125 299.796875 244.96875 299.828125 244.8125 C 300.515625 242.6875 301.828125 242.1875 302.515625 242.1875 C 302.890625 242.1875 303.578125 242.375 303.578125 243.53125 C 303.578125 244.15625 303.234375 245.46875 302.515625 248.28125 C 302.203125 249.5 301.484375 250.34375 300.609375 250.34375 C 300.484375 250.34375 300.046875 250.34375 299.609375 250.09375 C 300.109375 249.96875 300.546875 249.5625 300.546875 249 C 300.546875 248.46875 300.109375 248.3125 299.828125 248.3125 C 299.203125 248.3125 298.734375 248.8125 298.734375 249.46875 C 298.734375 250.375 299.703125 250.78125 300.578125 250.78125 C 301.921875 250.78125 302.640625 249.375 302.671875 249.28125 C 302.921875 250 303.640625 250.78125 304.828125 250.78125 C 306.890625 250.78125 308.015625 248.21875 308.015625 247.71875 C 308.015625 247.5 307.859375 247.5 307.796875 247.5 C 307.609375 247.5 307.578125 247.59375 307.515625 247.71875 C 306.859375 249.875 305.515625 250.34375 304.890625 250.34375 C 304.109375 250.34375 303.796875 249.71875 303.796875 249.03125 C 303.796875 248.59375 303.890625 248.15625 304.109375 247.28125 Z M 304.796875 244.53125 "/>
<path style="fill:none;stroke-width:1.6;stroke-linecap:round;stroke-linejoin:round;stroke:rgb(0%,0%,0%);stroke-opacity:1;stroke-miterlimit:4;" d="M 265.019531 173.65625 L 284.21875 173.65625 C 286.878906 173.65625 289.019531 175.796875 289.019531 178.453125 L 289.019531 197.65625 C 289.019531 200.3125 286.878906 202.453125 284.21875 202.453125 L 265.019531 202.453125 C 262.359375 202.453125 260.21875 200.3125 260.21875 197.65625 L 260.21875 178.453125 C 260.21875 175.796875 262.359375 173.65625 265.019531 173.65625 Z M 265.019531 173.65625 "/>
<path style=" stroke:none;fill-rule:nonzero;fill:rgb(0%,0%,0%);fill-opacity:1;" d="M 274.621094 187.507812 L 270.652344 183.539062 C 270.402344 183.289062 270.371094 183.257812 270.214844 183.257812 C 269.996094 183.257812 269.808594 183.414062 269.808594 183.664062 C 269.808594 183.789062 269.839844 183.820312 270.058594 184.039062 L 274.058594 188.039062 L 270.058594 192.070312 C 269.839844 192.289062 269.808594 192.320312 269.808594 192.445312 C 269.808594 192.695312 269.996094 192.851562 270.214844 192.851562 C 270.371094 192.851562 270.402344 192.820312 270.652344 192.570312 L 274.621094 188.601562 L 278.746094 192.726562 C 278.777344 192.757812 278.902344 192.851562 279.027344 192.851562 C 279.277344 192.851562 279.433594 192.695312 279.433594 192.445312 C 279.433594 192.414062 279.433594 192.351562 279.371094 192.226562 C 279.339844 192.195312 276.183594 189.070312 275.183594 188.039062 L 278.839844 184.414062 C 278.933594 184.289062 279.246094 184.039062 279.339844 183.914062 C 279.339844 183.882812 279.433594 183.789062 279.433594 183.664062 C 279.433594 183.414062 279.277344 183.257812 279.027344 183.257812 C 278.871094 183.257812 278.808594 183.320312 278.589844 183.539062 Z M 274.621094 187.507812 "/>
<path style="fill:none;stroke-width:0.8;stroke-linecap:butt;stroke-linejoin:miter;stroke:rgb(100%,0%,0%);stroke-opacity:1;stroke-miterlimit:4;" d="M 245.539062 231.425781 L 269.703125 203.359375 "/>
<path style="fill-rule:evenodd;fill:rgb(100%,0%,0%);fill-opacity:1;stroke-width:0.303144;stroke-linecap:butt;stroke-linejoin:miter;stroke:rgb(100%,0%,0%);stroke-opacity:1;stroke-miterlimit:4;" d="M -10.326834 255.452562 C -10.324435 256.122371 -10.868819 256.665234 -11.538316 256.663459 C -12.208125 256.665858 -12.750988 256.121474 -12.751456 255.453909 C -12.751612 254.782168 -12.207228 254.239305 -11.537731 254.24108 C -10.870166 254.240612 -10.325059 254.783065 -10.326834 255.452562 Z M -10.326834 255.452562 " transform="matrix(0.86087,-1,1,0.86087,0,0)"/>
<path style="fill-rule:evenodd;fill:rgb(100%,0%,0%);fill-opacity:1;stroke-width:0.303144;stroke-linecap:butt;stroke-linejoin:miter;stroke:rgb(100%,0%,0%);stroke-opacity:1;stroke-miterlimit:4;" d="M -14.130376 -255.45277 L -12.916651 -256.665599 L -17.161559 -255.452692 L -12.915305 -254.240977 Z M -14.130376 -255.45277 " transform="matrix(-0.86087,1,-1,-0.86087,0,0)"/>
<path style="fill:none;stroke-width:0.8;stroke-linecap:butt;stroke-linejoin:miter;stroke:rgb(100%,0%,0%);stroke-opacity:1;stroke-miterlimit:4;" d="M 303.140625 231.425781 L 278.976562 203.359375 "/>
<path style="fill-rule:evenodd;fill:rgb(100%,0%,0%);fill-opacity:1;stroke-width:0.303144;stroke-linecap:butt;stroke-linejoin:miter;stroke:rgb(100%,0%,0%);stroke-opacity:1;stroke-miterlimit:4;" d="M -281.616625 59.681884 C -281.614849 60.351381 -282.159956 60.893834 -282.829453 60.895609 C -283.497018 60.895141 -284.041403 60.352278 -284.043178 59.682781 C -284.040778 59.012972 -283.497915 58.468587 -282.828106 58.470987 C -282.158609 58.469212 -281.616156 59.014318 -281.616625 59.681884 Z M -281.616625 59.681884 " transform="matrix(-0.86087,-1,1,-0.86087,0,0)"/>
<path style="fill-rule:evenodd;fill:rgb(100%,0%,0%);fill-opacity:1;stroke-width:0.303144;stroke-linecap:butt;stroke-linejoin:miter;stroke:rgb(100%,0%,0%);stroke-opacity:1;stroke-miterlimit:4;" d="M 257.161345 -59.683919 L 258.374486 -60.893469 L 254.130163 -59.683998 L 258.37507 -58.471091 Z M 257.161345 -59.683919 " transform="matrix(0.86087,1,-1,0.86087,0,0)"/>
<path style="fill:none;stroke-width:1.6;stroke-linecap:round;stroke-linejoin:round;stroke:rgb(0%,0%,0%);stroke-opacity:1;stroke-miterlimit:4;" d="M 120.792969 231.191406 L 139.992188 231.191406 C 142.652344 231.191406 144.792969 233.332031 144.792969 235.988281 L 144.792969 255.191406 C 144.792969 257.847656 142.652344 259.988281 139.992188 259.988281 L 120.792969 259.988281 C 118.132812 259.988281 115.992188 257.847656 115.992188 255.191406 L 115.992188 235.988281 C 115.992188 233.332031 118.132812 231.191406 120.792969 231.191406 Z M 120.792969 231.191406 "/>
<path style=" stroke:none;fill-rule:nonzero;fill:rgb(0%,0%,0%);fill-opacity:1;" d="M 131.503906 243.855469 C 131.628906 243.355469 132.097656 241.511719 133.472656 241.511719 C 133.566406 241.511719 134.066406 241.511719 134.472656 241.761719 C 133.910156 241.886719 133.535156 242.355469 133.535156 242.855469 C 133.535156 243.167969 133.753906 243.542969 134.285156 243.542969 C 134.722656 243.542969 135.347656 243.199219 135.347656 242.386719 C 135.347656 241.355469 134.191406 241.074219 133.503906 241.074219 C 132.347656 241.074219 131.660156 242.136719 131.410156 242.574219 C 130.910156 241.261719 129.847656 241.074219 129.253906 241.074219 C 127.191406 241.074219 126.035156 243.636719 126.035156 244.136719 C 126.035156 244.355469 126.253906 244.355469 126.285156 244.355469 C 126.441406 244.355469 126.503906 244.292969 126.535156 244.136719 C 127.222656 242.011719 128.535156 241.511719 129.222656 241.511719 C 129.597656 241.511719 130.285156 241.699219 130.285156 242.855469 C 130.285156 243.480469 129.941406 244.792969 129.222656 247.605469 C 128.910156 248.824219 128.191406 249.667969 127.316406 249.667969 C 127.191406 249.667969 126.753906 249.667969 126.316406 249.417969 C 126.816406 249.292969 127.253906 248.886719 127.253906 248.324219 C 127.253906 247.792969 126.816406 247.636719 126.535156 247.636719 C 125.910156 247.636719 125.441406 248.136719 125.441406 248.792969 C 125.441406 249.699219 126.410156 250.105469 127.285156 250.105469 C 128.628906 250.105469 129.347656 248.699219 129.378906 248.605469 C 129.628906 249.324219 130.347656 250.105469 131.535156 250.105469 C 133.597656 250.105469 134.722656 247.542969 134.722656 247.042969 C 134.722656 246.824219 134.566406 246.824219 134.503906 246.824219 C 134.316406 246.824219 134.285156 246.917969 134.222656 247.042969 C 133.566406 249.199219 132.222656 249.667969 131.597656 249.667969 C 130.816406 249.667969 130.503906 249.042969 130.503906 248.355469 C 130.503906 247.917969 130.597656 247.480469 130.816406 246.605469 Z M 131.503906 243.855469 "/>
<g clip-path="url(#clip2)" clip-rule="nonzero">
<path style="fill:none;stroke-width:1.6;stroke-linecap:round;stroke-linejoin:round;stroke:rgb(0%,0%,0%);stroke-opacity:1;stroke-miterlimit:4;" d="M 178.660156 231.800781 L 197.859375 231.800781 C 200.519531 231.800781 202.660156 233.941406 202.660156 236.601562 L 202.660156 255.800781 C 202.660156 258.460938 200.519531 260.601562 197.859375 260.601562 L 178.660156 260.601562 C 176 260.601562 173.859375 258.460938 173.859375 255.800781 L 173.859375 236.601562 C 173.859375 233.941406 176 231.800781 178.660156 231.800781 Z M 178.660156 231.800781 "/>
</g>
<path style=" stroke:none;fill-rule:nonzero;fill:rgb(0%,0%,0%);fill-opacity:1;" d="M 189.371094 244.464844 C 189.496094 243.964844 189.964844 242.121094 191.339844 242.121094 C 191.433594 242.121094 191.933594 242.121094 192.339844 242.371094 C 191.777344 242.496094 191.402344 242.964844 191.402344 243.464844 C 191.402344 243.777344 191.621094 244.152344 192.152344 244.152344 C 192.589844 244.152344 193.214844 243.808594 193.214844 242.996094 C 193.214844 241.964844 192.058594 241.683594 191.371094 241.683594 C 190.214844 241.683594 189.527344 242.746094 189.277344 243.183594 C 188.777344 241.871094 187.714844 241.683594 187.121094 241.683594 C 185.058594 241.683594 183.902344 244.246094 183.902344 244.746094 C 183.902344 244.964844 184.121094 244.964844 184.152344 244.964844 C 184.308594 244.964844 184.371094 244.902344 184.402344 244.746094 C 185.089844 242.621094 186.402344 242.121094 187.089844 242.121094 C 187.464844 242.121094 188.152344 242.308594 188.152344 243.464844 C 188.152344 244.089844 187.808594 245.402344 187.089844 248.214844 C 186.777344 249.433594 186.058594 250.277344 185.183594 250.277344 C 185.058594 250.277344 184.621094 250.277344 184.183594 250.027344 C 184.683594 249.902344 185.121094 249.496094 185.121094 248.933594 C 185.121094 248.402344 184.683594 248.246094 184.402344 248.246094 C 183.777344 248.246094 183.308594 248.746094 183.308594 249.402344 C 183.308594 250.308594 184.277344 250.714844 185.152344 250.714844 C 186.496094 250.714844 187.214844 249.308594 187.246094 249.214844 C 187.496094 249.933594 188.214844 250.714844 189.402344 250.714844 C 191.464844 250.714844 192.589844 248.152344 192.589844 247.652344 C 192.589844 247.433594 192.433594 247.433594 192.371094 247.433594 C 192.183594 247.433594 192.152344 247.527344 192.089844 247.652344 C 191.433594 249.808594 190.089844 250.277344 189.464844 250.277344 C 188.683594 250.277344 188.371094 249.652344 188.371094 248.964844 C 188.371094 248.527344 188.464844 248.089844 188.683594 247.214844 Z M 189.371094 244.464844 "/>
<path style="fill:none;stroke-width:1.6;stroke-linecap:round;stroke-linejoin:round;stroke:rgb(0%,0%,0%);stroke-opacity:1;stroke-miterlimit:4;" d="M 149.59375 173.589844 L 168.792969 173.589844 C 171.453125 173.589844 173.59375 175.730469 173.59375 178.390625 L 173.59375 197.589844 C 173.59375 200.25 171.453125 202.390625 168.792969 202.390625 L 149.59375 202.390625 C 146.933594 202.390625 144.792969 200.25 144.792969 197.589844 L 144.792969 178.390625 C 144.792969 175.730469 146.933594 173.589844 149.59375 173.589844 Z M 149.59375 173.589844 "/>
<path style=" stroke:none;fill-rule:nonzero;fill:rgb(0%,0%,0%);fill-opacity:1;" d="M 159.191406 187.441406 L 155.222656 183.472656 C 154.972656 183.222656 154.941406 183.191406 154.785156 183.191406 C 154.566406 183.191406 154.378906 183.347656 154.378906 183.597656 C 154.378906 183.722656 154.410156 183.753906 154.628906 183.972656 L 158.628906 187.972656 L 154.628906 192.003906 C 154.410156 192.222656 154.378906 192.253906 154.378906 192.378906 C 154.378906 192.628906 154.566406 192.785156 154.785156 192.785156 C 154.941406 192.785156 154.972656 192.753906 155.222656 192.503906 L 159.191406 188.535156 L 163.316406 192.660156 C 163.347656 192.691406 163.472656 192.785156 163.597656 192.785156 C 163.847656 192.785156 164.003906 192.628906 164.003906 192.378906 C 164.003906 192.347656 164.003906 192.285156 163.941406 192.160156 C 163.910156 192.128906 160.753906 189.003906 159.753906 187.972656 L 163.410156 184.347656 C 163.503906 184.222656 163.816406 183.972656 163.910156 183.847656 C 163.910156 183.816406 164.003906 183.722656 164.003906 183.597656 C 164.003906 183.347656 163.847656 183.191406 163.597656 183.191406 C 163.441406 183.191406 163.378906 183.253906 163.160156 183.472656 Z M 159.191406 187.441406 "/>
<path style="fill:none;stroke-width:0.8;stroke-linecap:butt;stroke-linejoin:miter;stroke:rgb(100%,0%,0%);stroke-opacity:1;stroke-miterlimit:4;" d="M 129.246094 231.425781 L 153.40625 203.359375 "/>
<path style="fill-rule:evenodd;fill:rgb(100%,0%,0%);fill-opacity:1;stroke-width:0.303144;stroke-linecap:butt;stroke-linejoin:miter;stroke:rgb(100%,0%,0%);stroke-opacity:1;stroke-miterlimit:4;" d="M -67.826858 188.659639 C -67.828633 189.329136 -68.373018 189.871998 -69.040583 189.872467 C -69.71008 189.870692 -70.253255 189.330482 -70.253411 188.658742 C -70.25388 187.991176 -69.711427 187.44607 -69.039686 187.445914 C -68.372121 187.445445 -67.829258 187.98983 -67.826858 188.659639 Z M -67.826858 188.659639 " transform="matrix(0.86087,-1,1,0.86087,0,0)"/>
<path style="fill-rule:evenodd;fill:rgb(100%,0%,0%);fill-opacity:1;stroke-width:0.303144;stroke-linecap:butt;stroke-linejoin:miter;stroke:rgb(100%,0%,0%);stroke-opacity:1;stroke-miterlimit:4;" d="M 43.373822 -188.659535 L 44.587547 -189.872363 L 40.34264 -188.659456 L 44.586651 -187.44581 Z M 43.373822 -188.659535 " transform="matrix(-0.86087,1,-1,-0.86087,0,0)"/>
<path style="fill:none;stroke-width:0.8;stroke-linecap:butt;stroke-linejoin:miter;stroke:rgb(100%,0%,0%);stroke-opacity:1;stroke-miterlimit:4;" d="M 187.007812 230.695312 L 162.84375 202.628906 "/>
<path style="fill-rule:evenodd;fill:rgb(100%,0%,0%);fill-opacity:1;stroke-width:0.303144;stroke-linecap:butt;stroke-linejoin:miter;stroke:rgb(100%,0%,0%);stroke-opacity:1;stroke-miterlimit:4;" d="M -223.776244 -6.65788 C -223.7764 -5.986139 -224.319575 -5.44593 -224.989072 -5.444155 C -225.656637 -5.444623 -226.201022 -5.987486 -226.202797 -6.656983 C -226.200397 -7.326792 -225.657534 -7.871176 -224.989969 -7.870708 C -224.318228 -7.870552 -223.775775 -7.325445 -223.776244 -6.65788 Z M -223.776244 -6.65788 " transform="matrix(-0.86087,-1,1,-0.86087,0,0)"/>
<path style="fill-rule:evenodd;fill:rgb(100%,0%,0%);fill-opacity:1;stroke-width:0.303144;stroke-linecap:butt;stroke-linejoin:miter;stroke:rgb(100%,0%,0%);stroke-opacity:1;stroke-miterlimit:4;" d="M 199.323208 6.657776 L 200.534105 5.446295 L 196.289782 6.655766 L 200.534689 7.868673 Z M 199.323208 6.657776 " transform="matrix(0.86087,1,-1,0.86087,0,0)"/>
<path style="fill:none;stroke-width:0.8;stroke-linecap:butt;stroke-linejoin:miter;stroke:rgb(100%,0%,0%);stroke-opacity:1;stroke-miterlimit:4;" d="M 159.191406 173.589844 L 211.992188 144.789062 "/>
<path style="fill-rule:evenodd;fill:rgb(100%,0%,0%);fill-opacity:1;stroke-width:0.351158;stroke-linecap:butt;stroke-linejoin:miter;stroke:rgb(100%,0%,0%);stroke-opacity:1;stroke-miterlimit:4;" d="M 51.092774 200.708653 C 51.092774 201.48209 50.464116 202.111842 49.687669 202.1102 C 48.912589 202.11321 48.282837 201.484552 48.28448 200.708105 C 48.281469 199.933025 48.913137 199.304915 49.688217 199.301905 C 50.464665 199.303547 51.094417 199.932205 51.092774 200.708653 Z M 51.092774 200.708653 " transform="matrix(1,-0.545455,0.545455,1,0,0)"/>
<path style="fill-rule:evenodd;fill:rgb(100%,0%,0%);fill-opacity:1;stroke-width:0.351158;stroke-linecap:butt;stroke-linejoin:miter;stroke:rgb(100%,0%,0%);stroke-opacity:1;stroke-miterlimit:4;" d="M -99.70739 -200.706207 L -98.303652 -202.112406 L -103.218511 -200.707303 L -98.30119 -199.302469 Z M -99.70739 -200.706207 " transform="matrix(-1,0.545455,-0.545455,-1,0,0)"/>
<path style="fill:none;stroke-width:0.8;stroke-linecap:butt;stroke-linejoin:miter;stroke:rgb(100%,0%,0%);stroke-opacity:1;stroke-miterlimit:4;" d="M 274.394531 173.589844 L 221.59375 144.789062 "/>
<path style="fill-rule:evenodd;fill:rgb(100%,0%,0%);fill-opacity:1;stroke-width:0.351158;stroke-linecap:butt;stroke-linejoin:miter;stroke:rgb(100%,0%,0%);stroke-opacity:1;stroke-miterlimit:4;" d="M -283.072056 -18.436775 C -283.070414 -17.660327 -283.700166 -17.03167 -284.476614 -17.030027 C -285.251693 -17.033038 -285.883361 -17.661147 -285.880351 -18.436227 C -285.881993 -19.212675 -285.252241 -19.841332 -284.477162 -19.838322 C -283.700714 -19.839964 -283.072057 -19.210213 -283.072056 -18.436775 Z M -283.072056 -18.436775 " transform="matrix(-1,-0.545455,0.545455,-1,0,0)"/>
<path style="fill-rule:evenodd;fill:rgb(100%,0%,0%);fill-opacity:1;stroke-width:0.351158;stroke-linecap:butt;stroke-linejoin:miter;stroke:rgb(100%,0%,0%);stroke-opacity:1;stroke-miterlimit:4;" d="M 234.457441 18.434329 L 235.86364 17.030592 L 230.94632 18.435425 L 235.861178 19.840529 Z M 234.457441 18.434329 " transform="matrix(1,0.545455,-0.545455,1,0,0)"/>
<path style="fill:none;stroke-width:1.6;stroke-linecap:round;stroke-linejoin:round;stroke:rgb(0%,0%,0%);stroke-opacity:1;stroke-miterlimit:4;" d="M 264.792969 115.988281 L 283.992188 115.988281 C 286.652344 115.988281 288.792969 118.128906 288.792969 120.789062 L 288.792969 139.988281 C 288.792969 142.648438 286.652344 144.789062 283.992188 144.789062 L 264.792969 144.789062 C 262.132812 144.789062 259.992188 142.648438 259.992188 139.988281 L 259.992188 120.789062 C 259.992188 118.128906 262.132812 115.988281 264.792969 115.988281 Z M 264.792969 115.988281 "/>
<path style=" stroke:none;fill-rule:nonzero;fill:rgb(0%,0%,0%);fill-opacity:1;" d="M 272.035156 130.28125 L 272.035156 129.78125 C 272.035156 124.75 274.503906 124.03125 275.535156 124.03125 C 276.003906 124.03125 276.847656 124.15625 277.285156 124.84375 C 276.972656 124.84375 276.191406 124.84375 276.191406 125.71875 C 276.191406 126.34375 276.660156 126.65625 277.097656 126.65625 C 277.410156 126.65625 278.035156 126.46875 278.035156 125.6875 C 278.035156 124.5 277.160156 123.53125 275.503906 123.53125 C 272.941406 123.53125 270.253906 126.09375 270.253906 130.5 C 270.253906 135.84375 272.566406 137.25 274.410156 137.25 C 276.628906 137.25 278.535156 135.375 278.535156 132.75 C 278.535156 130.21875 276.753906 128.3125 274.535156 128.3125 C 273.191406 128.3125 272.441406 129.3125 272.035156 130.28125 Z M 274.410156 136.6875 C 273.160156 136.6875 272.566406 135.5 272.441406 135.1875 C 272.066406 134.25 272.066406 132.65625 272.066406 132.3125 C 272.066406 130.75 272.722656 128.75 274.503906 128.75 C 274.847656 128.75 275.753906 128.75 276.378906 130 C 276.722656 130.71875 276.722656 131.75 276.722656 132.71875 C 276.722656 133.6875 276.722656 134.6875 276.378906 135.40625 C 275.785156 136.59375 274.878906 136.6875 274.410156 136.6875 Z M 274.410156 136.6875 "/>
<path style="fill:none;stroke-width:0.8;stroke-linecap:butt;stroke-linejoin:miter;stroke:rgb(100%,0%,0%);stroke-opacity:1;stroke-miterlimit:4;" d="M 216.628906 115.257812 L 240.792969 87.191406 "/>
<path style="fill-rule:evenodd;fill:rgb(100%,0%,0%);fill-opacity:1;stroke-width:0.303144;stroke-linecap:butt;stroke-linejoin:miter;stroke:rgb(100%,0%,0%);stroke-opacity:1;stroke-miterlimit:4;" d="M 42.099926 181.409781 C 42.102325 182.07959 41.557941 182.622453 40.888444 182.620678 C 40.218635 182.623077 39.675772 182.078693 39.675304 181.411128 C 39.675147 180.739387 40.219532 180.196524 40.889029 180.198299 C 41.556594 180.197831 42.101701 180.740284 42.099926 181.409781 Z M 42.099926 181.409781 " transform="matrix(0.86087,-1,1,0.86087,0,0)"/>
<path style="fill-rule:evenodd;fill:rgb(100%,0%,0%);fill-opacity:1;stroke-width:0.303144;stroke-linecap:butt;stroke-linejoin:miter;stroke:rgb(100%,0%,0%);stroke-opacity:1;stroke-miterlimit:4;" d="M -66.557136 -181.409989 L -65.343411 -182.622818 L -69.588318 -181.409911 L -65.342064 -180.198196 Z M -66.557136 -181.409989 " transform="matrix(-0.86087,1,-1,-0.86087,0,0)"/>
<path style="fill:none;stroke-width:0.8;stroke-linecap:butt;stroke-linejoin:miter;stroke:rgb(100%,0%,0%);stroke-opacity:1;stroke-miterlimit:4;" d="M 274.554688 115.257812 L 250.394531 87.191406 "/>
<path style="fill-rule:evenodd;fill:rgb(100%,0%,0%);fill-opacity:1;stroke-width:0.303144;stroke-linecap:butt;stroke-linejoin:miter;stroke:rgb(100%,0%,0%);stroke-opacity:1;stroke-miterlimit:4;" d="M -200.761433 100.701755 C -200.761589 101.373496 -201.306695 101.915949 -201.974261 101.91548 C -202.643758 101.917256 -203.186211 101.372149 -203.187986 100.702652 C -203.187518 100.035087 -202.644655 99.490702 -201.972914 99.490859 C -201.305349 99.491327 -200.760964 100.03419 -200.761433 100.701755 Z M -200.761433 100.701755 " transform="matrix(-0.86087,-1,1,-0.86087,0,0)"/>
<path style="fill-rule:evenodd;fill:rgb(100%,0%,0%);fill-opacity:1;stroke-width:0.303144;stroke-linecap:butt;stroke-linejoin:miter;stroke:rgb(100%,0%,0%);stroke-opacity:1;stroke-miterlimit:4;" d="M 176.306153 -100.70379 L 177.521225 -101.915584 L 173.274971 -100.703869 L 177.519878 -99.490962 Z M 176.306153 -100.70379 " transform="matrix(0.86087,1,-1,0.86087,0,0)"/>
<path style="fill:none;stroke-width:0.8;stroke-linecap:butt;stroke-linejoin:miter;stroke:rgb(100%,0%,0%);stroke-opacity:1;stroke-miterlimit:4;" d="M 72.792969 58.390625 L 154.394531 29.589844 "/>
<path style="fill-rule:evenodd;fill:rgb(100%,0%,0%);fill-opacity:1;stroke-width:0.377196;stroke-linecap:butt;stroke-linejoin:miter;stroke:rgb(100%,0%,0%);stroke-opacity:1;stroke-miterlimit:4;" d="M 47.884846 74.767713 C 47.884233 75.599528 47.20832 76.275033 46.375279 76.277894 C 45.53999 76.276055 44.864486 75.600141 44.865098 74.768326 C 44.865711 73.936511 45.541625 73.261007 46.374666 73.258146 C 47.20648 73.258759 47.881985 73.934672 47.884846 74.767713 Z M 47.884846 74.767713 " transform="matrix(1,-0.352941,0.352941,1,0,0)"/>
<path style="fill-rule:evenodd;fill:rgb(100%,0%,0%);fill-opacity:1;stroke-width:0.377196;stroke-linecap:butt;stroke-linejoin:miter;stroke:rgb(100%,0%,0%);stroke-opacity:1;stroke-miterlimit:4;" d="M -124.98598 -74.768927 L -123.477639 -76.275634 L -128.75949 -74.768722 L -123.479273 -73.260586 Z M -124.98598 -74.768927 " transform="matrix(-1,0.352941,-0.352941,-1,0,0)"/>
<path style="fill:none;stroke-width:0.8;stroke-linecap:butt;stroke-linejoin:miter;stroke:rgb(100%,0%,0%);stroke-opacity:1;stroke-miterlimit:4;" d="M 245.59375 58.390625 L 163.992188 29.589844 "/>
<path style="fill-rule:evenodd;fill:rgb(100%,0%,0%);fill-opacity:1;stroke-width:0.377196;stroke-linecap:butt;stroke-linejoin:miter;stroke:rgb(100%,0%,0%);stroke-opacity:1;stroke-miterlimit:4;" d="M -235.234452 25.156695 C -235.237313 25.989736 -235.912818 26.66565 -236.744633 26.666262 C -237.577674 26.663402 -238.253587 25.987897 -238.2542 25.156082 C -238.254813 24.324267 -237.575834 23.647127 -236.744019 23.646515 C -235.910978 23.649375 -235.235065 24.32488 -235.234452 25.156695 Z M -235.234452 25.156695 " transform="matrix(-1,-0.352941,0.352941,-1,0,0)"/>
<path style="fill-rule:evenodd;fill:rgb(100%,0%,0%);fill-opacity:1;stroke-width:0.377196;stroke-linecap:butt;stroke-linejoin:miter;stroke:rgb(100%,0%,0%);stroke-opacity:1;stroke-miterlimit:4;" d="M 158.133318 -25.155481 L 159.640025 -26.663823 L 154.359808 -25.155686 L 159.641659 -23.648774 Z M 158.133318 -25.155481 " transform="matrix(1,0.352941,-0.352941,1,0,0)"/>
</g>
</svg>
