<?xml version="1.0" encoding="UTF-8"?>
<svg xmlns="http://www.w3.org/2000/svg" xmlns:xlink="http://www.w3.org/1999/xlink" width="318.399994pt" height="260.799988pt" viewBox="0 0 318.399994 260.799988" version="1.1">
<defs>
<clipPath id="clip1">
  <path d="M 201 230 L 232 230 L 232 260.800781 L 201 260.800781 Z M 201 230 "/>
</clipPath>
<clipPath id="clip2">
  <path d="M 288 172 L 318.398438 172 L 318.398438 204 L 288 204 Z M 288 172 "/>
</clipPath>
<clipPath id="clip3">
  <path d="M 144 230 L 175 230 L 175 260.800781 L 144 260.800781 Z M 144 230 "/>
</clipPath>
</defs>
<g id="surface1">
<path style="fill:none;stroke-width:1.6;stroke-linecap:round;stroke-linejoin:round;stroke:rgb(0%,0%,0%);stroke-opacity:1;stroke-miterlimit:4;" d="M 192.800781 58.390625 L 240.800781 58.390625 C 243.460938 58.390625 245.601562 60.53125 245.601562 63.191406 L 245.601562 82.390625 C 245.601562 85.050781 243.460938 87.191406 240.800781 87.191406 L 192.800781 87.191406 C 190.140625 87.191406 188 85.050781 188 82.390625 L 188 63.191406 C 188 60.53125 190.140625 58.390625 192.800781 58.390625 Z M 192.800781 58.390625 "/>
<path style=" stroke:none;fill-rule:nonzero;fill:rgb(0%,0%,0%);fill-opacity:1;" d="M 211.679688 74.945312 C 212.023438 74.945312 212.398438 74.945312 212.398438 74.539062 C 212.398438 74.164062 212.023438 74.164062 211.679688 74.164062 L 200.898438 74.164062 C 200.554688 74.164062 200.210938 74.164062 200.210938 74.539062 C 200.210938 74.945312 200.554688 74.945312 200.898438 74.945312 Z M 211.679688 74.945312 "/>
<path style=" stroke:none;fill-rule:nonzero;fill:rgb(0%,0%,0%);fill-opacity:1;" d="M 219.925781 66.789062 C 219.925781 66.289062 219.925781 66.257812 219.457031 66.257812 C 218.207031 67.539062 216.457031 67.539062 215.832031 67.539062 L 215.832031 68.164062 C 216.238281 68.164062 217.394531 68.164062 218.425781 67.632812 L 218.425781 77.976562 C 218.425781 78.695312 218.363281 78.914062 216.582031 78.914062 L 215.957031 78.914062 L 215.957031 79.539062 C 216.644531 79.476562 218.363281 79.476562 219.175781 79.476562 C 219.957031 79.476562 221.707031 79.476562 222.394531 79.539062 L 222.394531 78.914062 L 221.769531 78.914062 C 219.957031 78.914062 219.925781 78.695312 219.925781 77.976562 Z M 219.925781 66.789062 "/>
<path style=" stroke:none;fill-rule:nonzero;fill:rgb(0%,0%,0%);fill-opacity:1;" d="M 229.890625 76.257812 L 229.890625 77.976562 C 229.890625 78.695312 229.828125 78.914062 228.359375 78.914062 L 227.953125 78.914062 L 227.953125 79.539062 C 228.765625 79.476562 229.796875 79.476562 230.640625 79.476562 C 231.484375 79.476562 232.515625 79.476562 233.359375 79.539062 L 233.359375 78.914062 L 232.921875 78.914062 C 231.453125 78.914062 231.421875 78.695312 231.421875 77.976562 L 231.421875 76.257812 L 233.390625 76.257812 L 233.390625 75.632812 L 231.421875 75.632812 L 231.421875 66.570312 C 231.421875 66.164062 231.421875 66.039062 231.078125 66.039062 C 230.921875 66.039062 230.859375 66.039062 230.703125 66.289062 L 224.578125 75.632812 L 224.578125 76.257812 Z M 229.984375 75.632812 L 225.140625 75.632812 L 229.984375 68.195312 Z M 229.984375 75.632812 "/>
<path style=" stroke:none;fill-rule:nonzero;fill:rgb(0%,0%,0%);fill-opacity:1;" d="M 76.769531 132.8125 C 76.769531 130.4375 75.144531 128.4375 72.988281 128.4375 C 72.050781 128.4375 71.175781 128.75 70.457031 129.46875 L 70.457031 125.5625 C 70.863281 125.6875 71.519531 125.8125 72.144531 125.8125 C 74.613281 125.8125 76.019531 124 76.019531 123.75 C 76.019531 123.625 75.957031 123.53125 75.800781 123.53125 C 75.800781 123.53125 75.738281 123.53125 75.644531 123.59375 C 75.238281 123.78125 74.269531 124.1875 72.925781 124.1875 C 72.144531 124.1875 71.207031 124.03125 70.269531 123.625 C 70.113281 123.5625 70.082031 123.5625 70.050781 123.5625 C 69.832031 123.5625 69.832031 123.71875 69.832031 124.03125 L 69.832031 129.9375 C 69.832031 130.28125 69.832031 130.4375 70.113281 130.4375 C 70.269531 130.4375 70.300781 130.40625 70.394531 130.28125 C 70.613281 129.96875 71.332031 128.875 72.957031 128.875 C 73.988281 128.875 74.488281 129.78125 74.644531 130.15625 C 74.957031 130.90625 75.019531 131.65625 75.019531 132.65625 C 75.019531 133.375 75.019531 134.5625 74.519531 135.40625 C 74.050781 136.1875 73.300781 136.6875 72.394531 136.6875 C 70.957031 136.6875 69.800781 135.625 69.457031 134.46875 C 69.519531 134.46875 69.582031 134.5 69.800781 134.5 C 70.457031 134.5 70.800781 134 70.800781 133.53125 C 70.800781 133.03125 70.457031 132.53125 69.800781 132.53125 C 69.519531 132.53125 68.832031 132.6875 68.832031 133.59375 C 68.832031 135.3125 70.207031 137.25 72.425781 137.25 C 74.738281 137.25 76.769531 135.34375 76.769531 132.8125 Z M 76.769531 132.8125 "/>
<path style="fill-rule:nonzero;fill:rgb(79.998779%,79.998779%,79.998779%);fill-opacity:1;stroke-width:1.6;stroke-linecap:round;stroke-linejoin:round;stroke:rgb(79.998779%,79.998779%,79.998779%);stroke-opacity:1;stroke-miterlimit:4;" d="M 63.199219 115.988281 L 82.398438 115.988281 C 85.058594 115.988281 87.199219 118.128906 87.199219 120.789062 L 87.199219 139.988281 C 87.199219 142.648438 85.058594 144.789062 82.398438 144.789062 L 63.199219 144.789062 C 60.539062 144.789062 58.398438 142.648438 58.398438 139.988281 L 58.398438 120.789062 C 58.398438 118.128906 60.539062 115.988281 63.199219 115.988281 Z M 63.199219 115.988281 "/>
<path style=" stroke:none;fill-rule:nonzero;fill:rgb(79.998779%,79.998779%,79.998779%);fill-opacity:1;" d="M 207.199219 231.191406 L 226.398438 231.191406 C 229.058594 231.191406 231.199219 233.332031 231.199219 235.988281 L 231.199219 255.191406 C 231.199219 257.847656 229.058594 259.988281 226.398438 259.988281 L 207.199219 259.988281 C 204.539062 259.988281 202.398438 257.847656 202.398438 255.191406 L 202.398438 235.988281 C 202.398438 233.332031 204.539062 231.191406 207.199219 231.191406 Z M 207.199219 231.191406 "/>
<g clip-path="url(#clip1)" clip-rule="nonzero">
<path style="fill:none;stroke-width:1.6;stroke-linecap:round;stroke-linejoin:round;stroke:rgb(79.998779%,79.998779%,79.998779%);stroke-opacity:1;stroke-miterlimit:4;" d="M 207.199219 231.191406 L 226.398438 231.191406 C 229.058594 231.191406 231.199219 233.332031 231.199219 235.988281 L 231.199219 255.191406 C 231.199219 257.847656 229.058594 259.988281 226.398438 259.988281 L 207.199219 259.988281 C 204.539062 259.988281 202.398438 257.847656 202.398438 255.191406 L 202.398438 235.988281 C 202.398438 233.332031 204.539062 231.191406 207.199219 231.191406 Z M 207.199219 231.191406 "/>
</g>
<path style=" stroke:none;fill-rule:nonzero;fill:rgb(79.998779%,79.998779%,79.998779%);fill-opacity:1;" d="M 220.769531 248.011719 C 220.769531 245.636719 219.144531 243.636719 216.988281 243.636719 C 216.050781 243.636719 215.175781 243.949219 214.457031 244.667969 L 214.457031 240.761719 C 214.863281 240.886719 215.519531 241.011719 216.144531 241.011719 C 218.613281 241.011719 220.019531 239.199219 220.019531 238.949219 C 220.019531 238.824219 219.957031 238.730469 219.800781 238.730469 C 219.800781 238.730469 219.738281 238.730469 219.644531 238.792969 C 219.238281 238.980469 218.269531 239.386719 216.925781 239.386719 C 216.144531 239.386719 215.207031 239.230469 214.269531 238.824219 C 214.113281 238.761719 214.082031 238.761719 214.050781 238.761719 C 213.832031 238.761719 213.832031 238.917969 213.832031 239.230469 L 213.832031 245.136719 C 213.832031 245.480469 213.832031 245.636719 214.113281 245.636719 C 214.269531 245.636719 214.300781 245.605469 214.394531 245.480469 C 214.613281 245.167969 215.332031 244.074219 216.957031 244.074219 C 217.988281 244.074219 218.488281 244.980469 218.644531 245.355469 C 218.957031 246.105469 219.019531 246.855469 219.019531 247.855469 C 219.019531 248.574219 219.019531 249.761719 218.519531 250.605469 C 218.050781 251.386719 217.300781 251.886719 216.394531 251.886719 C 214.957031 251.886719 213.800781 250.824219 213.457031 249.667969 C 213.519531 249.667969 213.582031 249.699219 213.800781 249.699219 C 214.457031 249.699219 214.800781 249.199219 214.800781 248.730469 C 214.800781 248.230469 214.457031 247.730469 213.800781 247.730469 C 213.519531 247.730469 212.832031 247.886719 212.832031 248.792969 C 212.832031 250.511719 214.207031 252.449219 216.425781 252.449219 C 218.738281 252.449219 220.769531 250.542969 220.769531 248.011719 Z M 220.769531 248.011719 "/>
<path style="fill-rule:nonzero;fill:rgb(79.998779%,79.998779%,79.998779%);fill-opacity:1;stroke-width:1.6;stroke-linecap:round;stroke-linejoin:round;stroke:rgb(79.998779%,79.998779%,79.998779%);stroke-opacity:1;stroke-miterlimit:4;" d="M 236 173.589844 L 255.199219 173.589844 C 257.859375 173.589844 260 175.730469 260 178.390625 L 260 197.589844 C 260 200.25 257.859375 202.390625 255.199219 202.390625 L 236 202.390625 C 233.339844 202.390625 231.199219 200.25 231.199219 197.589844 L 231.199219 178.390625 C 231.199219 175.730469 233.339844 173.589844 236 173.589844 Z M 236 173.589844 "/>
<path style=" stroke:none;fill-rule:nonzero;fill:rgb(79.998779%,79.998779%,79.998779%);fill-opacity:1;" d="M 249.570312 190.410156 C 249.570312 188.035156 247.945312 186.035156 245.789062 186.035156 C 244.851562 186.035156 243.976562 186.347656 243.257812 187.066406 L 243.257812 183.160156 C 243.664062 183.285156 244.320312 183.410156 244.945312 183.410156 C 247.414062 183.410156 248.820312 181.597656 248.820312 181.347656 C 248.820312 181.222656 248.757812 181.128906 248.601562 181.128906 C 248.601562 181.128906 248.539062 181.128906 248.445312 181.191406 C 248.039062 181.378906 247.070312 181.785156 245.726562 181.785156 C 244.945312 181.785156 244.007812 181.628906 243.070312 181.222656 C 242.914062 181.160156 242.882812 181.160156 242.851562 181.160156 C 242.632812 181.160156 242.632812 181.316406 242.632812 181.628906 L 242.632812 187.535156 C 242.632812 187.878906 242.632812 188.035156 242.914062 188.035156 C 243.070312 188.035156 243.101562 188.003906 243.195312 187.878906 C 243.414062 187.566406 244.132812 186.472656 245.757812 186.472656 C 246.789062 186.472656 247.289062 187.378906 247.445312 187.753906 C 247.757812 188.503906 247.820312 189.253906 247.820312 190.253906 C 247.820312 190.972656 247.820312 192.160156 247.320312 193.003906 C 246.851562 193.785156 246.101562 194.285156 245.195312 194.285156 C 243.757812 194.285156 242.601562 193.222656 242.257812 192.066406 C 242.320312 192.066406 242.382812 192.097656 242.601562 192.097656 C 243.257812 192.097656 243.601562 191.597656 243.601562 191.128906 C 243.601562 190.628906 243.257812 190.128906 242.601562 190.128906 C 242.320312 190.128906 241.632812 190.285156 241.632812 191.191406 C 241.632812 192.910156 243.007812 194.847656 245.226562 194.847656 C 247.539062 194.847656 249.570312 192.941406 249.570312 190.410156 Z M 249.570312 190.410156 "/>
<path style=" stroke:none;fill-rule:nonzero;fill:rgb(79.998779%,79.998779%,79.998779%);fill-opacity:1;" d="M 293.601562 173.589844 L 312.800781 173.589844 C 315.460938 173.589844 317.601562 175.730469 317.601562 178.390625 L 317.601562 197.589844 C 317.601562 200.25 315.460938 202.390625 312.800781 202.390625 L 293.601562 202.390625 C 290.941406 202.390625 288.800781 200.25 288.800781 197.589844 L 288.800781 178.390625 C 288.800781 175.730469 290.941406 173.589844 293.601562 173.589844 Z M 293.601562 173.589844 "/>
<g clip-path="url(#clip2)" clip-rule="nonzero">
<path style="fill:none;stroke-width:1.6;stroke-linecap:round;stroke-linejoin:round;stroke:rgb(79.998779%,79.998779%,79.998779%);stroke-opacity:1;stroke-miterlimit:4;" d="M 293.601562 173.589844 L 312.800781 173.589844 C 315.460938 173.589844 317.601562 175.730469 317.601562 178.390625 L 317.601562 197.589844 C 317.601562 200.25 315.460938 202.390625 312.800781 202.390625 L 293.601562 202.390625 C 290.941406 202.390625 288.800781 200.25 288.800781 197.589844 L 288.800781 178.390625 C 288.800781 175.730469 290.941406 173.589844 293.601562 173.589844 Z M 293.601562 173.589844 "/>
</g>
<path style=" stroke:none;fill-rule:nonzero;fill:rgb(79.998779%,79.998779%,79.998779%);fill-opacity:1;" d="M 307.167969 190.410156 C 307.167969 188.035156 305.542969 186.035156 303.386719 186.035156 C 302.449219 186.035156 301.574219 186.347656 300.855469 187.066406 L 300.855469 183.160156 C 301.261719 183.285156 301.917969 183.410156 302.542969 183.410156 C 305.011719 183.410156 306.417969 181.597656 306.417969 181.347656 C 306.417969 181.222656 306.355469 181.128906 306.199219 181.128906 C 306.199219 181.128906 306.136719 181.128906 306.042969 181.191406 C 305.636719 181.378906 304.667969 181.785156 303.324219 181.785156 C 302.542969 181.785156 301.605469 181.628906 300.667969 181.222656 C 300.511719 181.160156 300.480469 181.160156 300.449219 181.160156 C 300.230469 181.160156 300.230469 181.316406 300.230469 181.628906 L 300.230469 187.535156 C 300.230469 187.878906 300.230469 188.035156 300.511719 188.035156 C 300.667969 188.035156 300.699219 188.003906 300.792969 187.878906 C 301.011719 187.566406 301.730469 186.472656 303.355469 186.472656 C 304.386719 186.472656 304.886719 187.378906 305.042969 187.753906 C 305.355469 188.503906 305.417969 189.253906 305.417969 190.253906 C 305.417969 190.972656 305.417969 192.160156 304.917969 193.003906 C 304.449219 193.785156 303.699219 194.285156 302.792969 194.285156 C 301.355469 194.285156 300.199219 193.222656 299.855469 192.066406 C 299.917969 192.066406 299.980469 192.097656 300.199219 192.097656 C 300.855469 192.097656 301.199219 191.597656 301.199219 191.128906 C 301.199219 190.628906 300.855469 190.128906 300.199219 190.128906 C 299.917969 190.128906 299.230469 190.285156 299.230469 191.191406 C 299.230469 192.910156 300.605469 194.847656 302.824219 194.847656 C 305.136719 194.847656 307.167969 192.941406 307.167969 190.410156 Z M 307.167969 190.410156 "/>
<path style="fill-rule:nonzero;fill:rgb(79.998779%,79.998779%,79.998779%);fill-opacity:1;stroke-width:1.6;stroke-linecap:round;stroke-linejoin:round;stroke:rgb(79.998779%,79.998779%,79.998779%);stroke-opacity:1;stroke-miterlimit:4;" d="M 5.601562 115.988281 L 24.800781 115.988281 C 27.460938 115.988281 29.601562 118.128906 29.601562 120.789062 L 29.601562 139.988281 C 29.601562 142.648438 27.460938 144.789062 24.800781 144.789062 L 5.601562 144.789062 C 2.941406 144.789062 0.800781 142.648438 0.800781 139.988281 L 0.800781 120.789062 C 0.800781 118.128906 2.941406 115.988281 5.601562 115.988281 Z M 5.601562 115.988281 "/>
<path style=" stroke:none;fill-rule:nonzero;fill:rgb(79.998779%,79.998779%,79.998779%);fill-opacity:1;" d="M 16.011719 124.28125 C 16.011719 123.78125 16.011719 123.75 15.542969 123.75 C 14.292969 125.03125 12.542969 125.03125 11.917969 125.03125 L 11.917969 125.65625 C 12.324219 125.65625 13.480469 125.65625 14.511719 125.125 L 14.511719 135.46875 C 14.511719 136.1875 14.449219 136.40625 12.667969 136.40625 L 12.042969 136.40625 L 12.042969 137.03125 C 12.730469 136.96875 14.449219 136.96875 15.261719 136.96875 C 16.042969 136.96875 17.792969 136.96875 18.480469 137.03125 L 18.480469 136.40625 L 17.855469 136.40625 C 16.042969 136.40625 16.011719 136.1875 16.011719 135.46875 Z M 16.011719 124.28125 "/>
<path style="fill:none;stroke-width:0.8;stroke-linecap:butt;stroke-linejoin:miter;stroke:rgb(100%,0%,0%);stroke-opacity:1;stroke-miterlimit:4;" d="M 14.6875 115.976562 L 38.847656 87.90625 "/>
<path style="fill-rule:evenodd;fill:rgb(100%,0%,0%);fill-opacity:1;stroke-width:0.606287;stroke-linecap:butt;stroke-linejoin:miter;stroke:rgb(100%,0%,0%);stroke-opacity:1;stroke-miterlimit:4;" d="M -56.972638 65.776503 C -56.972013 67.115809 -58.05885 68.203779 -59.398156 68.204403 C -60.735219 68.203097 -61.823188 67.116259 -61.823813 65.776953 C -61.822506 64.439891 -60.735669 63.351921 -59.398606 63.353228 C -58.0593 63.352604 -56.971331 64.439441 -56.972638 65.776503 Z M -56.972638 65.776503 " transform="matrix(0.86087,-1,1,0.86087,0,0)"/>
<path style="fill-rule:evenodd;fill:rgb(100%,0%,0%);fill-opacity:1;stroke-width:0.606287;stroke-linecap:butt;stroke-linejoin:miter;stroke:rgb(100%,0%,0%);stroke-opacity:1;stroke-miterlimit:4;" d="M 37.343484 -65.776791 L 39.769003 -68.204691 L 31.281119 -65.776634 L 39.769452 -63.353516 Z M 37.343484 -65.776791 " transform="matrix(-0.86087,1,-1,-0.86087,0,0)"/>
<path style="fill:none;stroke-width:0.8;stroke-linecap:butt;stroke-linejoin:miter;stroke:rgb(100%,0%,0%);stroke-opacity:1;stroke-miterlimit:4;" d="M 72.589844 115.34375 L 48.429688 87.277344 "/>
<path style="fill-rule:evenodd;fill:rgb(100%,0%,0%);fill-opacity:1;stroke-width:0.606287;stroke-linecap:butt;stroke-linejoin:miter;stroke:rgb(100%,0%,0%);stroke-opacity:1;stroke-miterlimit:4;" d="M -99.764931 -15.337761 C -99.763625 -14.000699 -100.84935 -12.91193 -102.188656 -12.912555 C -103.527962 -12.91318 -104.612556 -13.999217 -104.611932 -15.338523 C -104.615482 -16.677517 -103.527512 -17.764355 -102.188206 -17.76373 C -100.8489 -17.763105 -99.764307 -16.677067 -99.764931 -15.337761 Z M -99.764931 -15.337761 " transform="matrix(-0.86087,-1,1,-0.86087,0,0)"/>
<path style="fill-rule:evenodd;fill:rgb(100%,0%,0%);fill-opacity:1;stroke-width:0.606287;stroke-linecap:butt;stroke-linejoin:miter;stroke:rgb(100%,0%,0%);stroke-opacity:1;stroke-miterlimit:4;" d="M 80.135777 15.338049 L 82.559502 12.912843 L 74.073413 15.337892 L 82.559053 17.764018 Z M 80.135777 15.338049 " transform="matrix(0.86087,1,-1,0.86087,0,0)"/>
<path style=" stroke:none;fill-rule:nonzero;fill:rgb(79.998779%,79.998779%,79.998779%);fill-opacity:1;" d="M 149.878906 231.019531 L 169.078125 231.019531 C 171.738281 231.019531 173.878906 233.160156 173.878906 235.820312 L 173.878906 255.019531 C 173.878906 257.679688 171.738281 259.820312 169.078125 259.820312 L 149.878906 259.820312 C 147.21875 259.820312 145.078125 257.679688 145.078125 255.019531 L 145.078125 235.820312 C 145.078125 233.160156 147.21875 231.019531 149.878906 231.019531 Z M 149.878906 231.019531 "/>
<g clip-path="url(#clip3)" clip-rule="nonzero">
<path style="fill:none;stroke-width:1.6;stroke-linecap:round;stroke-linejoin:round;stroke:rgb(79.998779%,79.998779%,79.998779%);stroke-opacity:1;stroke-miterlimit:4;" d="M 149.878906 231.019531 L 169.078125 231.019531 C 171.738281 231.019531 173.878906 233.160156 173.878906 235.820312 L 173.878906 255.019531 C 173.878906 257.679688 171.738281 259.820312 169.078125 259.820312 L 149.878906 259.820312 C 147.21875 259.820312 145.078125 257.679688 145.078125 255.019531 L 145.078125 235.820312 C 145.078125 233.160156 147.21875 231.019531 149.878906 231.019531 Z M 149.878906 231.019531 "/>
</g>
<path style=" stroke:none;fill-rule:nonzero;fill:rgb(79.998779%,79.998779%,79.998779%);fill-opacity:1;" d="M 157.042969 250.527344 L 159.167969 248.464844 C 162.261719 245.714844 163.449219 244.652344 163.449219 242.652344 C 163.449219 240.371094 161.667969 238.777344 159.230469 238.777344 C 156.980469 238.777344 155.511719 240.621094 155.511719 242.402344 C 155.511719 243.496094 156.511719 243.496094 156.574219 243.496094 C 156.917969 243.496094 157.605469 243.277344 157.605469 242.433594 C 157.605469 241.933594 157.230469 241.402344 156.542969 241.402344 C 156.386719 241.402344 156.355469 241.402344 156.292969 241.433594 C 156.730469 240.121094 157.824219 239.402344 158.980469 239.402344 C 160.792969 239.402344 161.636719 241.027344 161.636719 242.652344 C 161.636719 244.246094 160.667969 245.808594 159.542969 247.058594 L 155.730469 251.308594 C 155.511719 251.527344 155.511719 251.589844 155.511719 252.058594 L 162.917969 252.058594 L 163.449219 248.589844 L 162.980469 248.589844 C 162.855469 249.183594 162.730469 250.058594 162.511719 250.371094 C 162.386719 250.527344 161.074219 250.527344 160.636719 250.527344 Z M 157.042969 250.527344 "/>
<path style="fill-rule:nonzero;fill:rgb(79.998779%,79.998779%,79.998779%);fill-opacity:1;stroke-width:1.6;stroke-linecap:round;stroke-linejoin:round;stroke:rgb(79.998779%,79.998779%,79.998779%);stroke-opacity:1;stroke-miterlimit:4;" d="M 120.800781 173.589844 L 140 173.589844 C 142.660156 173.589844 144.800781 175.730469 144.800781 178.390625 L 144.800781 197.589844 C 144.800781 200.25 142.660156 202.390625 140 202.390625 L 120.800781 202.390625 C 118.140625 202.390625 116 200.25 116 197.589844 L 116 178.390625 C 116 175.730469 118.140625 173.589844 120.800781 173.589844 Z M 120.800781 173.589844 "/>
<path style=" stroke:none;fill-rule:nonzero;fill:rgb(79.998779%,79.998779%,79.998779%);fill-opacity:1;" d="M 131.210938 181.878906 C 131.210938 181.378906 131.210938 181.347656 130.742188 181.347656 C 129.492188 182.628906 127.742188 182.628906 127.117188 182.628906 L 127.117188 183.253906 C 127.523438 183.253906 128.679688 183.253906 129.710938 182.722656 L 129.710938 193.066406 C 129.710938 193.785156 129.648438 194.003906 127.867188 194.003906 L 127.242188 194.003906 L 127.242188 194.628906 C 127.929688 194.566406 129.648438 194.566406 130.460938 194.566406 C 131.242188 194.566406 132.992188 194.566406 133.679688 194.628906 L 133.679688 194.003906 L 133.054688 194.003906 C 131.242188 194.003906 131.210938 193.785156 131.210938 193.066406 Z M 131.210938 181.878906 "/>
<path style="fill:none;stroke-width:0.8;stroke-linecap:butt;stroke-linejoin:miter;stroke:rgb(100%,0%,0%);stroke-opacity:1;stroke-miterlimit:4;" d="M 130.398438 173.589844 L 154.5625 145.523438 "/>
<path style="fill-rule:evenodd;fill:rgb(100%,0%,0%);fill-opacity:1;stroke-width:0.606287;stroke-linecap:butt;stroke-linejoin:miter;stroke:rgb(100%,0%,0%);stroke-opacity:1;stroke-miterlimit:4;" d="M -32.850922 160.725686 C -32.850298 162.064992 -33.934892 163.15103 -35.274198 163.151655 C -36.613504 163.152279 -37.699229 162.063511 -37.699854 160.724205 C -37.698547 159.387142 -36.613953 158.301104 -35.274647 158.30048 C -33.935341 158.299855 -32.851547 159.38638 -32.850922 160.725686 Z M -32.850922 160.725686 " transform="matrix(0.86087,-1,1,0.86087,0,0)"/>
<path style="fill-rule:evenodd;fill:rgb(100%,0%,0%);fill-opacity:1;stroke-width:0.606287;stroke-linecap:butt;stroke-linejoin:miter;stroke:rgb(100%,0%,0%);stroke-opacity:1;stroke-miterlimit:4;" d="M 13.221768 -160.725974 L 15.646975 -163.149699 L 7.159404 -160.725816 L 15.645494 -158.300767 Z M 13.221768 -160.725974 " transform="matrix(-0.86087,1,-1,-0.86087,0,0)"/>
<path style="fill:none;stroke-width:0.8;stroke-linecap:butt;stroke-linejoin:miter;stroke:rgb(100%,0%,0%);stroke-opacity:1;stroke-miterlimit:4;" d="M 159.199219 231.191406 L 183.363281 203.121094 "/>
<path style="fill-rule:evenodd;fill:rgb(100%,0%,0%);fill-opacity:1;stroke-width:0.606287;stroke-linecap:butt;stroke-linejoin:miter;stroke:rgb(100%,0%,0%);stroke-opacity:1;stroke-miterlimit:4;" d="M -51.691874 205.746078 C -51.69125 207.085384 -52.780018 208.171109 -54.117081 208.169803 C -55.456387 208.170427 -56.542425 207.085833 -56.543049 205.746527 C -56.543674 204.407221 -55.454905 203.321496 -54.117843 203.322802 C -52.778537 203.322178 -51.692499 204.406772 -51.691874 205.746078 Z M -51.691874 205.746078 " transform="matrix(0.86087,-1,1,0.86087,0,0)"/>
<path style="fill-rule:evenodd;fill:rgb(100%,0%,0%);fill-opacity:1;stroke-width:0.606287;stroke-linecap:butt;stroke-linejoin:miter;stroke:rgb(100%,0%,0%);stroke-opacity:1;stroke-miterlimit:4;" d="M 32.06272 -205.746365 L 34.49017 -208.172022 L 26.000356 -205.746208 L 34.49062 -203.320847 Z M 32.06272 -205.746365 " transform="matrix(-0.86087,1,-1,-0.86087,0,0)"/>
<path style="fill:none;stroke-width:0.8;stroke-linecap:butt;stroke-linejoin:miter;stroke:rgb(100%,0%,0%);stroke-opacity:1;stroke-miterlimit:4;" d="M 216.800781 231.191406 L 192.636719 203.121094 "/>
<path style="fill-rule:evenodd;fill:rgb(100%,0%,0%);fill-opacity:1;stroke-width:0.606287;stroke-linecap:butt;stroke-linejoin:miter;stroke:rgb(100%,0%,0%);stroke-opacity:1;stroke-miterlimit:4;" d="M -237.601729 10.209706 C -237.602354 11.549012 -238.688392 12.633605 -240.027698 12.632981 C -241.36476 12.634288 -242.453529 11.548562 -242.452904 10.209256 C -242.45228 8.86995 -241.366242 7.785356 -240.026936 7.785981 C -238.689873 7.784674 -237.601105 8.8704 -237.601729 10.209706 Z M -237.601729 10.209706 " transform="matrix(-0.86087,-1,1,-0.86087,0,0)"/>
<path style="fill-rule:evenodd;fill:rgb(100%,0%,0%);fill-opacity:1;stroke-width:0.606287;stroke-linecap:butt;stroke-linejoin:miter;stroke:rgb(100%,0%,0%);stroke-opacity:1;stroke-miterlimit:4;" d="M 217.972575 -10.209418 L 220.400475 -12.634937 L 211.910211 -10.209575 L 220.400025 -7.783761 Z M 217.972575 -10.209418 " transform="matrix(0.86087,1,-1,0.86087,0,0)"/>
<path style="fill:none;stroke-width:0.8;stroke-linecap:butt;stroke-linejoin:miter;stroke:rgb(100%,0%,0%);stroke-opacity:1;stroke-miterlimit:4;" d="M 244.453125 173.828125 L 268.613281 145.757812 "/>
<path style="fill-rule:evenodd;fill:rgb(100%,0%,0%);fill-opacity:1;stroke-width:0.606287;stroke-linecap:butt;stroke-linejoin:miter;stroke:rgb(100%,0%,0%);stroke-opacity:1;stroke-miterlimit:4;" d="M 23.40779 226.348936 C 23.406483 227.685998 22.319646 228.773968 20.98034 228.774592 C 19.643277 228.773286 18.555308 227.686448 18.556615 226.349386 C 18.55599 225.01008 19.640584 223.924042 20.97989 223.923417 C 22.319196 223.922793 23.407165 225.00963 23.40779 226.348936 Z M 23.40779 226.348936 " transform="matrix(0.86087,-1,1,0.86087,0,0)"/>
<path style="fill-rule:evenodd;fill:rgb(100%,0%,0%);fill-opacity:1;stroke-width:0.606287;stroke-linecap:butt;stroke-linejoin:miter;stroke:rgb(100%,0%,0%);stroke-opacity:1;stroke-miterlimit:4;" d="M -43.032769 -226.348912 L -40.609494 -228.77488 L -49.097377 -226.346823 L -40.609044 -223.923705 Z M -43.032769 -226.348912 " transform="matrix(-0.86087,1,-1,-0.86087,0,0)"/>
<path style="fill:none;stroke-width:0.8;stroke-linecap:butt;stroke-linejoin:miter;stroke:rgb(100%,0%,0%);stroke-opacity:1;stroke-miterlimit:4;" d="M 302.214844 173.09375 L 278.050781 145.027344 "/>
<path style="fill-rule:evenodd;fill:rgb(100%,0%,0%);fill-opacity:1;stroke-width:0.606287;stroke-linecap:butt;stroke-linejoin:miter;stroke:rgb(100%,0%,0%);stroke-opacity:1;stroke-miterlimit:4;" d="M -246.467779 87.991252 C -246.468404 89.330558 -247.556373 90.417395 -248.893435 90.418702 C -250.232741 90.418077 -251.319579 89.330108 -251.318954 87.990802 C -251.320261 86.653739 -250.232292 85.566902 -248.892986 85.567527 C -247.555923 85.56622 -246.469086 86.654189 -246.467779 87.991252 Z M -246.467779 87.991252 " transform="matrix(-0.86087,-1,1,-0.86087,0,0)"/>
<path style="fill-rule:evenodd;fill:rgb(100%,0%,0%);fill-opacity:1;stroke-width:0.606287;stroke-linecap:butt;stroke-linejoin:miter;stroke:rgb(100%,0%,0%);stroke-opacity:1;stroke-miterlimit:4;" d="M 226.840556 -87.993208 L 229.266525 -90.416483 L 220.776261 -87.991122 L 229.263832 -85.567239 Z M 226.840556 -87.993208 " transform="matrix(0.86087,1,-1,0.86087,0,0)"/>
<path style="fill:none;stroke-width:0.8;stroke-linecap:butt;stroke-linejoin:miter;stroke:rgb(100%,0%,0%);stroke-opacity:1;stroke-miterlimit:4;" d="M 216.800781 58.390625 L 135.199219 29.589844 "/>
<path style="fill-rule:evenodd;fill:rgb(100%,0%,0%);fill-opacity:1;stroke-width:0.754392;stroke-linecap:butt;stroke-linejoin:miter;stroke:rgb(100%,0%,0%);stroke-opacity:1;stroke-miterlimit:4;" d="M -208.154798 16.118706 C -208.152346 17.78581 -209.503356 19.137636 -211.171685 19.136615 C -212.835315 19.13784 -214.187142 17.78683 -214.189594 16.119727 C -214.187346 14.454871 -212.836336 13.103044 -211.172706 13.101819 C -209.504377 13.10284 -208.15255 14.45385 -208.154798 16.118706 Z M -208.154798 16.118706 " transform="matrix(-1,-0.352941,0.352941,-1,0,0)"/>
<path style="fill-rule:evenodd;fill:rgb(100%,0%,0%);fill-opacity:1;stroke-width:0.754392;stroke-linecap:butt;stroke-linejoin:miter;stroke:rgb(100%,0%,0%);stroke-opacity:1;stroke-miterlimit:4;" d="M 137.05352 -16.1179 L 140.073881 -19.137034 L 129.509974 -16.119536 L 140.071428 -13.101012 Z M 137.05352 -16.1179 " transform="matrix(1,0.352941,-0.352941,1,0,0)"/>
<path style="fill:none;stroke-width:1.6;stroke-linecap:round;stroke-linejoin:round;stroke:rgb(0%,0%,0%);stroke-opacity:1;stroke-miterlimit:4;" d="M 120.800781 0.789062 L 140 0.789062 C 142.660156 0.789062 144.800781 2.929688 144.800781 5.589844 L 144.800781 24.789062 C 144.800781 27.449219 142.660156 29.589844 140 29.589844 L 120.800781 29.589844 C 118.140625 29.589844 116 27.449219 116 24.789062 L 116 5.589844 C 116 2.929688 118.140625 0.789062 120.800781 0.789062 Z M 120.800781 0.789062 "/>
<path style=" stroke:none;fill-rule:nonzero;fill:rgb(0%,0%,0%);fill-opacity:1;" d="M 134.179688 5.988281 C 134.273438 5.707031 134.273438 5.644531 134.273438 5.613281 C 134.273438 5.394531 134.117188 5.207031 133.898438 5.207031 C 133.742188 5.207031 133.617188 5.269531 133.554688 5.394531 L 126.617188 24.394531 C 126.523438 24.675781 126.523438 24.738281 126.523438 24.769531 C 126.523438 24.988281 126.710938 25.175781 126.929688 25.175781 C 127.179688 25.175781 127.242188 25.019531 127.367188 24.675781 Z M 134.179688 5.988281 "/>
<path style="fill:none;stroke-width:1.6;stroke-linecap:round;stroke-linejoin:round;stroke:rgb(0%,0%,0%);stroke-opacity:1;stroke-miterlimit:4;" d="M 34.398438 58.390625 L 53.601562 58.390625 C 56.257812 58.390625 58.398438 60.53125 58.398438 63.191406 L 58.398438 82.390625 C 58.398438 85.050781 56.257812 87.191406 53.601562 87.191406 L 34.398438 87.191406 C 31.742188 87.191406 29.601562 85.050781 29.601562 82.390625 L 29.601562 63.191406 C 29.601562 60.53125 31.742188 58.390625 34.398438 58.390625 Z M 34.398438 58.390625 "/>
<path style=" stroke:none;fill-rule:nonzero;fill:rgb(0%,0%,0%);fill-opacity:1;" d="M 41.640625 72.679688 L 41.640625 72.179688 C 41.640625 67.148438 44.109375 66.429688 45.140625 66.429688 C 45.609375 66.429688 46.453125 66.554688 46.890625 67.242188 C 46.578125 67.242188 45.796875 67.242188 45.796875 68.117188 C 45.796875 68.742188 46.265625 69.054688 46.703125 69.054688 C 47.015625 69.054688 47.640625 68.867188 47.640625 68.085938 C 47.640625 66.898438 46.765625 65.929688 45.109375 65.929688 C 42.546875 65.929688 39.859375 68.492188 39.859375 72.898438 C 39.859375 78.242188 42.171875 79.648438 44.015625 79.648438 C 46.234375 79.648438 48.140625 77.773438 48.140625 75.148438 C 48.140625 72.617188 46.359375 70.710938 44.140625 70.710938 C 42.796875 70.710938 42.046875 71.710938 41.640625 72.679688 Z M 44.015625 79.085938 C 42.765625 79.085938 42.171875 77.898438 42.046875 77.585938 C 41.671875 76.648438 41.671875 75.054688 41.671875 74.710938 C 41.671875 73.148438 42.328125 71.148438 44.109375 71.148438 C 44.453125 71.148438 45.359375 71.148438 45.984375 72.398438 C 46.328125 73.117188 46.328125 74.148438 46.328125 75.117188 C 46.328125 76.085938 46.328125 77.085938 45.984375 77.804688 C 45.390625 78.992188 44.484375 79.085938 44.015625 79.085938 Z M 44.015625 79.085938 "/>
<path style="fill-rule:nonzero;fill:rgb(79.998779%,79.998779%,79.998779%);fill-opacity:1;stroke-width:1.6;stroke-linecap:round;stroke-linejoin:round;stroke:rgb(79.998779%,79.998779%,79.998779%);stroke-opacity:1;stroke-miterlimit:4;" d="M 178.679688 173.417969 L 197.878906 173.417969 C 200.539062 173.417969 202.679688 175.558594 202.679688 178.21875 L 202.679688 197.417969 C 202.679688 200.078125 200.539062 202.21875 197.878906 202.21875 L 178.679688 202.21875 C 176.019531 202.21875 173.878906 200.078125 173.878906 197.417969 L 173.878906 178.21875 C 173.878906 175.558594 176.019531 173.417969 178.679688 173.417969 Z M 178.679688 173.417969 "/>
<path style=" stroke:none;fill-rule:nonzero;fill:rgb(79.998779%,79.998779%,79.998779%);fill-opacity:1;" d="M 183.703125 181.492188 C 183.703125 180.992188 183.703125 180.960938 183.234375 180.960938 C 181.984375 182.242188 180.234375 182.242188 179.609375 182.242188 L 179.609375 182.867188 C 180.015625 182.867188 181.171875 182.867188 182.203125 182.335938 L 182.203125 192.679688 C 182.203125 193.398438 182.140625 193.617188 180.359375 193.617188 L 179.734375 193.617188 L 179.734375 194.242188 C 180.421875 194.179688 182.140625 194.179688 182.953125 194.179688 C 183.734375 194.179688 185.484375 194.179688 186.171875 194.242188 L 186.171875 193.617188 L 185.546875 193.617188 C 183.734375 193.617188 183.703125 193.398438 183.703125 192.679688 Z M 183.703125 181.492188 "/>
<path style=" stroke:none;fill-rule:nonzero;fill:rgb(79.998779%,79.998779%,79.998779%);fill-opacity:1;" d="M 196.949219 187.867188 C 196.949219 186.273438 196.855469 184.679688 196.167969 183.210938 C 195.261719 181.273438 193.605469 180.960938 192.792969 180.960938 C 191.574219 180.960938 190.136719 181.492188 189.292969 183.335938 C 188.667969 184.710938 188.574219 186.273438 188.574219 187.867188 C 188.574219 189.367188 188.636719 191.148438 189.480469 192.679688 C 190.324219 194.273438 191.792969 194.679688 192.761719 194.679688 C 193.824219 194.679688 195.355469 194.273438 196.230469 192.367188 C 196.855469 190.992188 196.949219 189.429688 196.949219 187.867188 Z M 192.761719 194.242188 C 191.980469 194.242188 190.792969 193.742188 190.449219 191.835938 C 190.230469 190.648438 190.230469 188.804688 190.230469 187.617188 C 190.230469 186.335938 190.230469 185.023438 190.386719 183.960938 C 190.761719 181.585938 192.261719 181.398438 192.761719 181.398438 C 193.417969 181.398438 194.730469 181.773438 195.105469 183.742188 C 195.324219 184.867188 195.324219 186.367188 195.324219 187.617188 C 195.324219 189.117188 195.324219 190.460938 195.105469 191.742188 C 194.792969 193.648438 193.667969 194.242188 192.761719 194.242188 Z M 192.761719 194.242188 "/>
<path style="fill-rule:nonzero;fill:rgb(79.998779%,79.998779%,79.998779%);fill-opacity:1;stroke-width:1.6;stroke-linecap:round;stroke-linejoin:round;stroke:rgb(79.998779%,79.998779%,79.998779%);stroke-opacity:1;stroke-miterlimit:4;" d="M 264.800781 115.988281 L 284 115.988281 C 286.660156 115.988281 288.800781 118.128906 288.800781 120.789062 L 288.800781 139.988281 C 288.800781 142.648438 286.660156 144.789062 284 144.789062 L 264.800781 144.789062 C 262.140625 144.789062 260 142.648438 260 139.988281 L 260 120.789062 C 260 118.128906 262.140625 115.988281 264.800781 115.988281 Z M 264.800781 115.988281 "/>
<path style=" stroke:none;fill-rule:nonzero;fill:rgb(79.998779%,79.998779%,79.998779%);fill-opacity:1;" d="M 266.980469 135.28125 L 269.105469 133.21875 C 272.199219 130.46875 273.386719 129.40625 273.386719 127.40625 C 273.386719 125.125 271.605469 123.53125 269.167969 123.53125 C 266.917969 123.53125 265.449219 125.375 265.449219 127.15625 C 265.449219 128.25 266.449219 128.25 266.511719 128.25 C 266.855469 128.25 267.542969 128.03125 267.542969 127.1875 C 267.542969 126.6875 267.167969 126.15625 266.480469 126.15625 C 266.324219 126.15625 266.292969 126.15625 266.230469 126.1875 C 266.667969 124.875 267.761719 124.15625 268.917969 124.15625 C 270.730469 124.15625 271.574219 125.78125 271.574219 127.40625 C 271.574219 129 270.605469 130.5625 269.480469 131.8125 L 265.667969 136.0625 C 265.449219 136.28125 265.449219 136.34375 265.449219 136.8125 L 272.855469 136.8125 L 273.386719 133.34375 L 272.917969 133.34375 C 272.792969 133.9375 272.667969 134.8125 272.449219 135.125 C 272.324219 135.28125 271.011719 135.28125 270.574219 135.28125 Z M 266.980469 135.28125 "/>
<path style=" stroke:none;fill-rule:nonzero;fill:rgb(79.998779%,79.998779%,79.998779%);fill-opacity:1;" d="M 283.351562 132.8125 C 283.351562 130.4375 281.726562 128.4375 279.570312 128.4375 C 278.632812 128.4375 277.757812 128.75 277.039062 129.46875 L 277.039062 125.5625 C 277.445312 125.6875 278.101562 125.8125 278.726562 125.8125 C 281.195312 125.8125 282.601562 124 282.601562 123.75 C 282.601562 123.625 282.539062 123.53125 282.382812 123.53125 C 282.382812 123.53125 282.320312 123.53125 282.226562 123.59375 C 281.820312 123.78125 280.851562 124.1875 279.507812 124.1875 C 278.726562 124.1875 277.789062 124.03125 276.851562 123.625 C 276.695312 123.5625 276.664062 123.5625 276.632812 123.5625 C 276.414062 123.5625 276.414062 123.71875 276.414062 124.03125 L 276.414062 129.9375 C 276.414062 130.28125 276.414062 130.4375 276.695312 130.4375 C 276.851562 130.4375 276.882812 130.40625 276.976562 130.28125 C 277.195312 129.96875 277.914062 128.875 279.539062 128.875 C 280.570312 128.875 281.070312 129.78125 281.226562 130.15625 C 281.539062 130.90625 281.601562 131.65625 281.601562 132.65625 C 281.601562 133.375 281.601562 134.5625 281.101562 135.40625 C 280.632812 136.1875 279.882812 136.6875 278.976562 136.6875 C 277.539062 136.6875 276.382812 135.625 276.039062 134.46875 C 276.101562 134.46875 276.164062 134.5 276.382812 134.5 C 277.039062 134.5 277.382812 134 277.382812 133.53125 C 277.382812 133.03125 277.039062 132.53125 276.382812 132.53125 C 276.101562 132.53125 275.414062 132.6875 275.414062 133.59375 C 275.414062 135.3125 276.789062 137.25 279.007812 137.25 C 281.320312 137.25 283.351562 135.34375 283.351562 132.8125 Z M 283.351562 132.8125 "/>
<path style="fill-rule:nonzero;fill:rgb(79.998779%,79.998779%,79.998779%);fill-opacity:1;stroke-width:1.6;stroke-linecap:round;stroke-linejoin:round;stroke:rgb(79.998779%,79.998779%,79.998779%);stroke-opacity:1;stroke-miterlimit:4;" d="M 149.9375 115.847656 L 169.136719 115.847656 C 171.796875 115.847656 173.9375 117.988281 173.9375 120.648438 L 173.9375 139.847656 C 173.9375 142.503906 171.796875 144.648438 169.136719 144.648438 L 149.9375 144.648438 C 147.277344 144.648438 145.136719 142.503906 145.136719 139.847656 L 145.136719 120.648438 C 145.136719 117.988281 147.277344 115.847656 149.9375 115.847656 Z M 149.9375 115.847656 "/>
<path style=" stroke:none;fill-rule:nonzero;fill:rgb(79.998779%,79.998779%,79.998779%);fill-opacity:1;" d="M 155.367188 124.136719 C 155.367188 123.636719 155.367188 123.605469 154.898438 123.605469 C 153.648438 124.886719 151.898438 124.886719 151.273438 124.886719 L 151.273438 125.511719 C 151.679688 125.511719 152.835938 125.511719 153.867188 124.980469 L 153.867188 135.324219 C 153.867188 136.042969 153.804688 136.261719 152.023438 136.261719 L 151.398438 136.261719 L 151.398438 136.886719 C 152.085938 136.824219 153.804688 136.824219 154.617188 136.824219 C 155.398438 136.824219 157.148438 136.824219 157.835938 136.886719 L 157.835938 136.261719 L 157.210938 136.261719 C 155.398438 136.261719 155.367188 136.042969 155.367188 135.324219 Z M 155.367188 124.136719 "/>
<path style=" stroke:none;fill-rule:nonzero;fill:rgb(79.998779%,79.998779%,79.998779%);fill-opacity:1;" d="M 165.332031 124.136719 C 165.332031 123.636719 165.332031 123.605469 164.863281 123.605469 C 163.613281 124.886719 161.863281 124.886719 161.238281 124.886719 L 161.238281 125.511719 C 161.644531 125.511719 162.800781 125.511719 163.832031 124.980469 L 163.832031 135.324219 C 163.832031 136.042969 163.769531 136.261719 161.988281 136.261719 L 161.363281 136.261719 L 161.363281 136.886719 C 162.050781 136.824219 163.769531 136.824219 164.582031 136.824219 C 165.363281 136.824219 167.113281 136.824219 167.800781 136.886719 L 167.800781 136.261719 L 167.175781 136.261719 C 165.363281 136.261719 165.332031 136.042969 165.332031 135.324219 Z M 165.332031 124.136719 "/>
<path style="fill:none;stroke-width:0.8;stroke-linecap:butt;stroke-linejoin:miter;stroke:rgb(100%,0%,0%);stroke-opacity:1;stroke-miterlimit:4;" d="M 188 173.589844 L 163.835938 145.523438 "/>
<path style="fill-rule:evenodd;fill:rgb(100%,0%,0%);fill-opacity:1;stroke-width:0.606287;stroke-linecap:butt;stroke-linejoin:miter;stroke:rgb(100%,0%,0%);stroke-opacity:1;stroke-miterlimit:4;" d="M -190.280197 22.146612 C -190.280822 23.485918 -191.366548 24.574686 -192.705854 24.574062 C -194.04516 24.573437 -195.129754 23.487399 -195.129129 22.148093 C -195.128504 20.808787 -194.04471 19.722262 -192.705404 19.722887 C -191.366098 19.723511 -190.281504 20.809549 -190.280197 22.146612 Z M -190.280197 22.146612 " transform="matrix(-0.86087,-1,1,-0.86087,0,0)"/>
<path style="fill-rule:evenodd;fill:rgb(100%,0%,0%);fill-opacity:1;stroke-width:0.606287;stroke-linecap:butt;stroke-linejoin:miter;stroke:rgb(100%,0%,0%);stroke-opacity:1;stroke-miterlimit:4;" d="M 170.651043 -22.146324 L 173.0767 -24.573774 L 164.588679 -22.146481 L 173.07625 -19.722599 Z M 170.651043 -22.146324 " transform="matrix(0.86087,1,-1,0.86087,0,0)"/>
<path style="fill:none;stroke-width:0.8;stroke-linecap:butt;stroke-linejoin:miter;stroke:rgb(100%,0%,0%);stroke-opacity:1;stroke-miterlimit:4;" d="M 159.199219 115.988281 L 212 87.191406 "/>
<path style="fill-rule:evenodd;fill:rgb(100%,0%,0%);fill-opacity:1;stroke-width:0.702316;stroke-linecap:butt;stroke-linejoin:miter;stroke:rgb(100%,0%,0%);stroke-opacity:1;stroke-miterlimit:4;" d="M 76.688476 156.318394 C 76.689843 157.869921 75.429518 159.127783 73.879633 159.12614 C 72.328105 159.127508 71.070244 157.867182 71.071886 156.317297 C 71.068876 154.76878 72.329202 153.510919 73.880729 153.509551 C 75.430615 153.511193 76.687108 154.766866 76.688476 156.318394 Z M 76.688476 156.318394 " transform="matrix(1,-0.545455,0.545455,1,0,0)"/>
<path style="fill-rule:evenodd;fill:rgb(100%,0%,0%);fill-opacity:1;stroke-width:0.702316;stroke-linecap:butt;stroke-linejoin:miter;stroke:rgb(100%,0%,0%);stroke-opacity:1;stroke-miterlimit:4;" d="M -119.712502 -156.317314 L -116.902017 -159.128071 L -126.734744 -156.319506 L -116.904756 -153.508471 Z M -119.712502 -156.317314 " transform="matrix(-1,0.545455,-0.545455,-1,0,0)"/>
<path style="fill:none;stroke-width:0.8;stroke-linecap:butt;stroke-linejoin:miter;stroke:rgb(100%,0%,0%);stroke-opacity:1;stroke-miterlimit:4;" d="M 274.398438 115.988281 L 221.601562 87.191406 "/>
<path style="fill-rule:evenodd;fill:rgb(100%,0%,0%);fill-opacity:1;stroke-width:0.702316;stroke-linecap:butt;stroke-linejoin:miter;stroke:rgb(100%,0%,0%);stroke-opacity:1;stroke-miterlimit:4;" d="M -257.488397 25.960052 C -257.486754 27.509938 -258.746258 28.767253 -260.296143 28.768895 C -261.847671 28.767528 -263.104986 27.508024 -263.104986 25.961149 C -263.103619 24.409622 -261.845757 23.149296 -260.29724 23.152306 C -258.747355 23.150663 -257.487029 24.408525 -257.488397 25.960052 Z M -257.488397 25.960052 " transform="matrix(-1,-0.545455,0.545455,-1,0,0)"/>
<path style="fill-rule:evenodd;fill:rgb(100%,0%,0%);fill-opacity:1;stroke-width:0.702316;stroke-linecap:butt;stroke-linejoin:miter;stroke:rgb(100%,0%,0%);stroke-opacity:1;stroke-miterlimit:4;" d="M 214.464371 -25.961132 L 217.272117 -28.769975 L 207.442129 -25.95894 L 217.271845 -23.148733 Z M 214.464371 -25.961132 " transform="matrix(1,0.545455,-0.545455,1,0,0)"/>
<path style="fill:none;stroke-width:0.8;stroke-linecap:butt;stroke-linejoin:miter;stroke:rgb(100%,0%,0%);stroke-opacity:1;stroke-miterlimit:4;" d="M 44 58.390625 L 125.601562 29.589844 "/>
<path style="fill-rule:evenodd;fill:rgb(100%,0%,0%);fill-opacity:1;stroke-width:0.754392;stroke-linecap:butt;stroke-linejoin:miter;stroke:rgb(100%,0%,0%);stroke-opacity:1;stroke-miterlimit:4;" d="M 23.757307 65.732584 C 23.759555 67.39744 22.407728 68.74845 20.739399 68.749472 C 19.075769 68.748246 17.724759 67.396419 17.722511 65.731563 C 17.724963 64.06446 19.073316 62.712224 20.74042 62.714676 C 22.405276 62.712428 23.759759 64.065481 23.757307 65.732584 Z M 23.757307 65.732584 " transform="matrix(1,-0.352941,0.352941,1,0,0)"/>
<path style="fill-rule:evenodd;fill:rgb(100%,0%,0%);fill-opacity:1;stroke-width:0.754392;stroke-linecap:butt;stroke-linejoin:miter;stroke:rgb(100%,0%,0%);stroke-opacity:1;stroke-miterlimit:4;" d="M -94.855112 -65.732164 L -91.840677 -68.750278 L -102.402131 -65.731754 L -91.838224 -62.714256 Z M -94.855112 -65.732164 " transform="matrix(-1,0.352941,-0.352941,-1,0,0)"/>
</g>
</svg>
