<?xml version="1.0" encoding="UTF-8"?>
<svg xmlns="http://www.w3.org/2000/svg" xmlns:xlink="http://www.w3.org/1999/xlink" width="342.399994pt" height="261.193817pt" viewBox="0 0 342.399994 261.193817" version="1.1">
<defs>
<clipPath id="clip1">
  <path d="M 283 230 L 314 230 L 314 261.195312 L 283 261.195312 Z M 283 230 "/>
</clipPath>
<clipPath id="clip2">
  <path d="M 312 173 L 342.398438 173 L 342.398438 204 L 312 204 Z M 312 173 "/>
</clipPath>
</defs>
<g id="surface1">
<path style="fill:none;stroke-width:1.6;stroke-linecap:round;stroke-linejoin:round;stroke:rgb(0%,0%,0%);stroke-opacity:1;stroke-miterlimit:4;" d="M 120.800781 173.601562 L 159.199219 173.601562 C 161.859375 173.601562 164 175.742188 164 178.398438 L 164 197.601562 C 164 200.257812 161.859375 202.398438 159.199219 202.398438 L 120.800781 202.398438 C 118.140625 202.398438 116 200.257812 116 197.601562 L 116 178.398438 C 116 175.742188 118.140625 173.601562 120.800781 173.601562 Z M 120.800781 173.601562 "/>
<path style=" stroke:none;fill-rule:nonzero;fill:rgb(0%,0%,0%);fill-opacity:1;" d="M 129.527344 185.546875 L 131.777344 185.546875 C 131.121094 188.484375 130.933594 189.359375 130.933594 190.703125 C 130.933594 190.984375 130.933594 191.515625 131.089844 192.203125 C 131.308594 193.078125 131.527344 193.203125 131.808594 193.203125 C 132.214844 193.203125 132.652344 192.859375 132.652344 192.453125 C 132.652344 192.328125 132.652344 192.296875 132.527344 192.015625 C 131.933594 190.578125 131.933594 189.265625 131.933594 188.703125 C 131.933594 187.671875 132.089844 186.578125 132.308594 185.546875 L 134.558594 185.546875 C 134.839844 185.546875 135.558594 185.546875 135.558594 184.859375 C 135.558594 184.390625 135.121094 184.390625 134.746094 184.390625 L 128.058594 184.390625 C 127.621094 184.390625 126.871094 184.390625 125.996094 185.328125 C 125.308594 186.109375 124.777344 187.015625 124.777344 187.109375 C 124.777344 187.140625 124.777344 187.328125 125.027344 187.328125 C 125.183594 187.328125 125.214844 187.234375 125.339844 187.078125 C 126.308594 185.546875 127.464844 185.546875 127.871094 185.546875 L 128.996094 185.546875 C 128.371094 187.953125 127.308594 190.359375 126.464844 192.171875 C 126.308594 192.484375 126.308594 192.515625 126.308594 192.671875 C 126.308594 193.046875 126.621094 193.203125 126.871094 193.203125 C 127.464844 193.203125 127.621094 192.640625 127.871094 191.921875 C 128.152344 190.984375 128.152344 190.953125 128.402344 189.953125 Z M 129.527344 185.546875 "/>
<path style=" stroke:none;fill-rule:nonzero;fill:rgb(0%,0%,0%);fill-opacity:1;" d="M 145.074219 178.796875 C 145.167969 178.515625 145.167969 178.453125 145.167969 178.421875 C 145.167969 178.203125 145.011719 178.015625 144.792969 178.015625 C 144.636719 178.015625 144.511719 178.078125 144.449219 178.203125 L 137.511719 197.203125 C 137.417969 197.484375 137.417969 197.546875 137.417969 197.578125 C 137.417969 197.796875 137.605469 197.984375 137.824219 197.984375 C 138.074219 197.984375 138.136719 197.828125 138.261719 197.484375 Z M 145.074219 178.796875 "/>
<path style=" stroke:none;fill-rule:nonzero;fill:rgb(0%,0%,0%);fill-opacity:1;" d="M 148.816406 191.453125 L 150.941406 189.390625 C 154.035156 186.640625 155.222656 185.578125 155.222656 183.578125 C 155.222656 181.296875 153.441406 179.703125 151.003906 179.703125 C 148.753906 179.703125 147.285156 181.546875 147.285156 183.328125 C 147.285156 184.421875 148.285156 184.421875 148.347656 184.421875 C 148.691406 184.421875 149.378906 184.203125 149.378906 183.359375 C 149.378906 182.859375 149.003906 182.328125 148.316406 182.328125 C 148.160156 182.328125 148.128906 182.328125 148.066406 182.359375 C 148.503906 181.046875 149.597656 180.328125 150.753906 180.328125 C 152.566406 180.328125 153.410156 181.953125 153.410156 183.578125 C 153.410156 185.171875 152.441406 186.734375 151.316406 187.984375 L 147.503906 192.234375 C 147.285156 192.453125 147.285156 192.515625 147.285156 192.984375 L 154.691406 192.984375 L 155.222656 189.515625 L 154.753906 189.515625 C 154.628906 190.109375 154.503906 190.984375 154.285156 191.296875 C 154.160156 191.453125 152.847656 191.453125 152.410156 191.453125 Z M 148.816406 191.453125 "/>
<path style="fill:none;stroke-width:1.6;stroke-linecap:round;stroke-linejoin:round;stroke:rgb(0%,0%,0%);stroke-opacity:1;stroke-miterlimit:4;" d="M 221.601562 231.199219 L 260 231.199219 C 262.660156 231.199219 264.800781 233.339844 264.800781 236 L 264.800781 255.199219 C 264.800781 257.859375 262.660156 260 260 260 L 221.601562 260 C 218.941406 260 216.800781 257.859375 216.800781 255.199219 L 216.800781 236 C 216.800781 233.339844 218.941406 231.199219 221.601562 231.199219 Z M 221.601562 231.199219 "/>
<path style=" stroke:none;fill-rule:nonzero;fill:rgb(0%,0%,0%);fill-opacity:1;" d="M 230.328125 243.148438 L 232.578125 243.148438 C 231.921875 246.085938 231.734375 246.960938 231.734375 248.304688 C 231.734375 248.585938 231.734375 249.117188 231.890625 249.804688 C 232.109375 250.679688 232.328125 250.804688 232.609375 250.804688 C 233.015625 250.804688 233.453125 250.460938 233.453125 250.054688 C 233.453125 249.929688 233.453125 249.898438 233.328125 249.617188 C 232.734375 248.179688 232.734375 246.867188 232.734375 246.304688 C 232.734375 245.273438 232.890625 244.179688 233.109375 243.148438 L 235.359375 243.148438 C 235.640625 243.148438 236.359375 243.148438 236.359375 242.460938 C 236.359375 241.992188 235.921875 241.992188 235.546875 241.992188 L 228.859375 241.992188 C 228.421875 241.992188 227.671875 241.992188 226.796875 242.929688 C 226.109375 243.710938 225.578125 244.617188 225.578125 244.710938 C 225.578125 244.742188 225.578125 244.929688 225.828125 244.929688 C 225.984375 244.929688 226.015625 244.835938 226.140625 244.679688 C 227.109375 243.148438 228.265625 243.148438 228.671875 243.148438 L 229.796875 243.148438 C 229.171875 245.554688 228.109375 247.960938 227.265625 249.773438 C 227.109375 250.085938 227.109375 250.117188 227.109375 250.273438 C 227.109375 250.648438 227.421875 250.804688 227.671875 250.804688 C 228.265625 250.804688 228.421875 250.242188 228.671875 249.523438 C 228.953125 248.585938 228.953125 248.554688 229.203125 247.554688 Z M 230.328125 243.148438 "/>
<path style=" stroke:none;fill-rule:nonzero;fill:rgb(0%,0%,0%);fill-opacity:1;" d="M 245.871094 236.398438 C 245.964844 236.117188 245.964844 236.054688 245.964844 236.023438 C 245.964844 235.804688 245.808594 235.617188 245.589844 235.617188 C 245.433594 235.617188 245.308594 235.679688 245.246094 235.804688 L 238.308594 254.804688 C 238.214844 255.085938 238.214844 255.148438 238.214844 255.179688 C 238.214844 255.398438 238.402344 255.585938 238.621094 255.585938 C 238.871094 255.585938 238.933594 255.429688 239.058594 255.085938 Z M 245.871094 236.398438 "/>
<path style=" stroke:none;fill-rule:nonzero;fill:rgb(0%,0%,0%);fill-opacity:1;" d="M 249.613281 249.054688 L 251.738281 246.992188 C 254.832031 244.242188 256.019531 243.179688 256.019531 241.179688 C 256.019531 238.898438 254.238281 237.304688 251.800781 237.304688 C 249.550781 237.304688 248.082031 239.148438 248.082031 240.929688 C 248.082031 242.023438 249.082031 242.023438 249.144531 242.023438 C 249.488281 242.023438 250.175781 241.804688 250.175781 240.960938 C 250.175781 240.460938 249.800781 239.929688 249.113281 239.929688 C 248.957031 239.929688 248.925781 239.929688 248.863281 239.960938 C 249.300781 238.648438 250.394531 237.929688 251.550781 237.929688 C 253.363281 237.929688 254.207031 239.554688 254.207031 241.179688 C 254.207031 242.773438 253.238281 244.335938 252.113281 245.585938 L 248.300781 249.835938 C 248.082031 250.054688 248.082031 250.117188 248.082031 250.585938 L 255.488281 250.585938 L 256.019531 247.117188 L 255.550781 247.117188 C 255.425781 247.710938 255.300781 248.585938 255.082031 248.898438 C 254.957031 249.054688 253.644531 249.054688 253.207031 249.054688 Z M 249.613281 249.054688 "/>
<path style="fill:none;stroke-width:1.6;stroke-linecap:round;stroke-linejoin:round;stroke:rgb(0%,0%,0%);stroke-opacity:1;stroke-miterlimit:4;" d="M 5.601562 173.601562 L 44 173.601562 C 46.660156 173.601562 48.800781 175.742188 48.800781 178.398438 L 48.800781 197.601562 C 48.800781 200.257812 46.660156 202.398438 44 202.398438 L 5.601562 202.398438 C 2.941406 202.398438 0.800781 200.257812 0.800781 197.601562 L 0.800781 178.398438 C 0.800781 175.742188 2.941406 173.601562 5.601562 173.601562 Z M 5.601562 173.601562 "/>
<path style=" stroke:none;fill-rule:nonzero;fill:rgb(0%,0%,0%);fill-opacity:1;" d="M 14.328125 185.546875 L 16.578125 185.546875 C 15.921875 188.484375 15.734375 189.359375 15.734375 190.703125 C 15.734375 190.984375 15.734375 191.515625 15.890625 192.203125 C 16.109375 193.078125 16.328125 193.203125 16.609375 193.203125 C 17.015625 193.203125 17.453125 192.859375 17.453125 192.453125 C 17.453125 192.328125 17.453125 192.296875 17.328125 192.015625 C 16.734375 190.578125 16.734375 189.265625 16.734375 188.703125 C 16.734375 187.671875 16.890625 186.578125 17.109375 185.546875 L 19.359375 185.546875 C 19.640625 185.546875 20.359375 185.546875 20.359375 184.859375 C 20.359375 184.390625 19.921875 184.390625 19.546875 184.390625 L 12.859375 184.390625 C 12.421875 184.390625 11.671875 184.390625 10.796875 185.328125 C 10.109375 186.109375 9.578125 187.015625 9.578125 187.109375 C 9.578125 187.140625 9.578125 187.328125 9.828125 187.328125 C 9.984375 187.328125 10.015625 187.234375 10.140625 187.078125 C 11.109375 185.546875 12.265625 185.546875 12.671875 185.546875 L 13.796875 185.546875 C 13.171875 187.953125 12.109375 190.359375 11.265625 192.171875 C 11.109375 192.484375 11.109375 192.515625 11.109375 192.671875 C 11.109375 193.046875 11.421875 193.203125 11.671875 193.203125 C 12.265625 193.203125 12.421875 192.640625 12.671875 191.921875 C 12.953125 190.984375 12.953125 190.953125 13.203125 189.953125 Z M 14.328125 185.546875 "/>
<path style=" stroke:none;fill-rule:nonzero;fill:rgb(0%,0%,0%);fill-opacity:1;" d="M 29.871094 178.796875 C 29.964844 178.515625 29.964844 178.453125 29.964844 178.421875 C 29.964844 178.203125 29.808594 178.015625 29.589844 178.015625 C 29.433594 178.015625 29.308594 178.078125 29.246094 178.203125 L 22.308594 197.203125 C 22.214844 197.484375 22.214844 197.546875 22.214844 197.578125 C 22.214844 197.796875 22.402344 197.984375 22.621094 197.984375 C 22.871094 197.984375 22.933594 197.828125 23.058594 197.484375 Z M 29.871094 178.796875 "/>
<path style=" stroke:none;fill-rule:nonzero;fill:rgb(0%,0%,0%);fill-opacity:1;" d="M 33.613281 191.453125 L 35.738281 189.390625 C 38.832031 186.640625 40.019531 185.578125 40.019531 183.578125 C 40.019531 181.296875 38.238281 179.703125 35.800781 179.703125 C 33.550781 179.703125 32.082031 181.546875 32.082031 183.328125 C 32.082031 184.421875 33.082031 184.421875 33.144531 184.421875 C 33.488281 184.421875 34.175781 184.203125 34.175781 183.359375 C 34.175781 182.859375 33.800781 182.328125 33.113281 182.328125 C 32.957031 182.328125 32.925781 182.328125 32.863281 182.359375 C 33.300781 181.046875 34.394531 180.328125 35.550781 180.328125 C 37.363281 180.328125 38.207031 181.953125 38.207031 183.578125 C 38.207031 185.171875 37.238281 186.734375 36.113281 187.984375 L 32.300781 192.234375 C 32.082031 192.453125 32.082031 192.515625 32.082031 192.984375 L 39.488281 192.984375 L 40.019531 189.515625 L 39.550781 189.515625 C 39.425781 190.109375 39.300781 190.984375 39.082031 191.296875 C 38.957031 191.453125 37.644531 191.453125 37.207031 191.453125 Z M 33.613281 191.453125 "/>
<path style="fill:none;stroke-width:1.6;stroke-linecap:round;stroke-linejoin:round;stroke:rgb(0%,0%,0%);stroke-opacity:1;stroke-miterlimit:4;" d="M 197.601562 0.800781 L 216.800781 0.800781 C 219.460938 0.800781 221.601562 2.941406 221.601562 5.601562 L 221.601562 24.800781 C 221.601562 27.460938 219.460938 29.601562 216.800781 29.601562 L 197.601562 29.601562 C 194.941406 29.601562 192.800781 27.460938 192.800781 24.800781 L 192.800781 5.601562 C 192.800781 2.941406 194.941406 0.800781 197.601562 0.800781 Z M 197.601562 0.800781 "/>
<path style=" stroke:none;fill-rule:nonzero;fill:rgb(0%,0%,0%);fill-opacity:1;" d="M 207.199219 14.652344 L 203.230469 10.683594 C 202.980469 10.433594 202.949219 10.402344 202.792969 10.402344 C 202.574219 10.402344 202.386719 10.558594 202.386719 10.808594 C 202.386719 10.933594 202.417969 10.964844 202.636719 11.183594 L 206.636719 15.183594 L 202.636719 19.214844 C 202.417969 19.433594 202.386719 19.464844 202.386719 19.589844 C 202.386719 19.839844 202.574219 19.996094 202.792969 19.996094 C 202.949219 19.996094 202.980469 19.964844 203.230469 19.714844 L 207.199219 15.746094 L 211.324219 19.871094 C 211.355469 19.902344 211.480469 19.996094 211.605469 19.996094 C 211.855469 19.996094 212.011719 19.839844 212.011719 19.589844 C 212.011719 19.558594 212.011719 19.496094 211.949219 19.371094 C 211.917969 19.339844 208.761719 16.214844 207.761719 15.183594 L 211.417969 11.558594 C 211.511719 11.433594 211.824219 11.183594 211.917969 11.058594 C 211.917969 11.027344 212.011719 10.933594 212.011719 10.808594 C 212.011719 10.558594 211.855469 10.402344 211.605469 10.402344 C 211.449219 10.402344 211.386719 10.464844 211.167969 10.683594 Z M 207.199219 14.652344 "/>
<path style="fill:none;stroke-width:1.6;stroke-linecap:round;stroke-linejoin:round;stroke:rgb(0%,0%,0%);stroke-opacity:1;stroke-miterlimit:4;" d="M 159.199219 116 L 178.398438 116 C 181.058594 116 183.199219 118.140625 183.199219 120.800781 L 183.199219 140 C 183.199219 142.660156 181.058594 144.800781 178.398438 144.800781 L 159.199219 144.800781 C 156.539062 144.800781 154.398438 142.660156 154.398438 140 L 154.398438 120.800781 C 154.398438 118.140625 156.539062 116 159.199219 116 Z M 159.199219 116 "/>
<path style=" stroke:none;fill-rule:nonzero;fill:rgb(0%,0%,0%);fill-opacity:1;" d="M 174.175781 130.789062 C 174.519531 130.789062 174.894531 130.789062 174.894531 130.382812 C 174.894531 130.007812 174.519531 130.007812 174.175781 130.007812 L 163.394531 130.007812 C 163.050781 130.007812 162.707031 130.007812 162.707031 130.382812 C 162.707031 130.789062 163.050781 130.789062 163.394531 130.789062 Z M 174.175781 130.789062 "/>
<path style="fill:none;stroke-width:1.6;stroke-linecap:round;stroke-linejoin:round;stroke:rgb(0%,0%,0%);stroke-opacity:1;stroke-miterlimit:4;" d="M 188 173.601562 L 207.199219 173.601562 C 209.859375 173.601562 212 175.742188 212 178.398438 L 212 197.601562 C 212 200.257812 209.859375 202.398438 207.199219 202.398438 L 188 202.398438 C 185.339844 202.398438 183.199219 200.257812 183.199219 197.601562 L 183.199219 178.398438 C 183.199219 175.742188 185.339844 173.601562 188 173.601562 Z M 188 173.601562 "/>
<path style=" stroke:none;fill-rule:nonzero;fill:rgb(0%,0%,0%);fill-opacity:1;" d="M 196.960938 184.75 L 199.210938 184.75 C 198.554688 187.6875 198.367188 188.5625 198.367188 189.90625 C 198.367188 190.1875 198.367188 190.71875 198.523438 191.40625 C 198.742188 192.28125 198.960938 192.40625 199.242188 192.40625 C 199.648438 192.40625 200.085938 192.0625 200.085938 191.65625 C 200.085938 191.53125 200.085938 191.5 199.960938 191.21875 C 199.367188 189.78125 199.367188 188.46875 199.367188 187.90625 C 199.367188 186.875 199.523438 185.78125 199.742188 184.75 L 201.992188 184.75 C 202.273438 184.75 202.992188 184.75 202.992188 184.0625 C 202.992188 183.59375 202.554688 183.59375 202.179688 183.59375 L 195.492188 183.59375 C 195.054688 183.59375 194.304688 183.59375 193.429688 184.53125 C 192.742188 185.3125 192.210938 186.21875 192.210938 186.3125 C 192.210938 186.34375 192.210938 186.53125 192.460938 186.53125 C 192.617188 186.53125 192.648438 186.4375 192.773438 186.28125 C 193.742188 184.75 194.898438 184.75 195.304688 184.75 L 196.429688 184.75 C 195.804688 187.15625 194.742188 189.5625 193.898438 191.375 C 193.742188 191.6875 193.742188 191.71875 193.742188 191.875 C 193.742188 192.25 194.054688 192.40625 194.304688 192.40625 C 194.898438 192.40625 195.054688 191.84375 195.304688 191.125 C 195.585938 190.1875 195.585938 190.15625 195.835938 189.15625 Z M 196.960938 184.75 "/>
<path style="fill:none;stroke-width:0.8;stroke-linecap:butt;stroke-linejoin:miter;stroke:rgb(100%,0%,0%);stroke-opacity:1;stroke-miterlimit:4;" d="M 139.835938 173.386719 L 164 145.316406 "/>
<path style="fill-rule:evenodd;fill:rgb(100%,0%,0%);fill-opacity:1;stroke-width:0.606287;stroke-linecap:butt;stroke-linejoin:miter;stroke:rgb(100%,0%,0%);stroke-opacity:1;stroke-miterlimit:4;" d="M -28.065726 166.043754 C -28.065101 167.38306 -29.15387 168.468786 -30.493176 168.46941 C -31.830239 168.468104 -32.916277 167.38351 -32.916901 166.044204 C -32.917526 164.704898 -31.828757 163.619172 -30.491695 163.620479 C -29.152389 163.619854 -28.066351 164.704448 -28.065726 166.043754 Z M -28.065726 166.043754 " transform="matrix(0.86087,-1,1,0.86087,0,0)"/>
<path style="fill-rule:evenodd;fill:rgb(100%,0%,0%);fill-opacity:1;stroke-width:0.606287;stroke-linecap:butt;stroke-linejoin:miter;stroke:rgb(100%,0%,0%);stroke-opacity:1;stroke-miterlimit:4;" d="M 8.436572 -166.044042 L 10.864022 -168.469698 L 2.374208 -166.043884 L 10.862541 -163.620767 Z M 8.436572 -166.044042 " transform="matrix(-0.86087,1,-1,-0.86087,0,0)"/>
<path style="fill:none;stroke-width:0.8;stroke-linecap:butt;stroke-linejoin:miter;stroke:rgb(100%,0%,0%);stroke-opacity:1;stroke-miterlimit:4;" d="M 197.4375 173.386719 L 173.273438 145.316406 "/>
<path style="fill-rule:evenodd;fill:rgb(100%,0%,0%);fill-opacity:1;stroke-width:0.606287;stroke-linecap:butt;stroke-linejoin:miter;stroke:rgb(100%,0%,0%);stroke-opacity:1;stroke-miterlimit:4;" d="M -194.827577 27.669409 C -194.828201 29.008715 -195.914239 30.093309 -197.253545 30.092684 C -198.590608 30.093991 -199.679376 29.008265 -199.678752 27.668959 C -199.678127 26.329653 -198.592089 25.245059 -197.255027 25.243753 C -195.915721 25.244377 -194.826952 26.330103 -194.827577 27.669409 Z M -194.827577 27.669409 " transform="matrix(-0.86087,-1,1,-0.86087,0,0)"/>
<path style="fill-rule:evenodd;fill:rgb(100%,0%,0%);fill-opacity:1;stroke-width:0.606287;stroke-linecap:butt;stroke-linejoin:miter;stroke:rgb(100%,0%,0%);stroke-opacity:1;stroke-miterlimit:4;" d="M 175.198423 -27.669121 L 177.626323 -30.09464 L 169.136058 -27.669279 L 177.625873 -25.243465 Z M 175.198423 -27.669121 " transform="matrix(0.86087,1,-1,0.86087,0,0)"/>
<path style="fill:none;stroke-width:1.6;stroke-linecap:round;stroke-linejoin:round;stroke:rgb(0%,0%,0%);stroke-opacity:1;stroke-miterlimit:4;" d="M 72.800781 173.601562 L 92 173.601562 C 94.660156 173.601562 96.800781 175.742188 96.800781 178.398438 L 96.800781 197.601562 C 96.800781 200.257812 94.660156 202.398438 92 202.398438 L 72.800781 202.398438 C 70.140625 202.398438 68 200.257812 68 197.601562 L 68 178.398438 C 68 175.742188 70.140625 173.601562 72.800781 173.601562 Z M 72.800781 173.601562 "/>
<path style=" stroke:none;fill-rule:nonzero;fill:rgb(0%,0%,0%);fill-opacity:1;" d="M 81.757812 184.75 L 84.007812 184.75 C 83.351562 187.6875 83.164062 188.5625 83.164062 189.90625 C 83.164062 190.1875 83.164062 190.71875 83.320312 191.40625 C 83.539062 192.28125 83.757812 192.40625 84.039062 192.40625 C 84.445312 192.40625 84.882812 192.0625 84.882812 191.65625 C 84.882812 191.53125 84.882812 191.5 84.757812 191.21875 C 84.164062 189.78125 84.164062 188.46875 84.164062 187.90625 C 84.164062 186.875 84.320312 185.78125 84.539062 184.75 L 86.789062 184.75 C 87.070312 184.75 87.789062 184.75 87.789062 184.0625 C 87.789062 183.59375 87.351562 183.59375 86.976562 183.59375 L 80.289062 183.59375 C 79.851562 183.59375 79.101562 183.59375 78.226562 184.53125 C 77.539062 185.3125 77.007812 186.21875 77.007812 186.3125 C 77.007812 186.34375 77.007812 186.53125 77.257812 186.53125 C 77.414062 186.53125 77.445312 186.4375 77.570312 186.28125 C 78.539062 184.75 79.695312 184.75 80.101562 184.75 L 81.226562 184.75 C 80.601562 187.15625 79.539062 189.5625 78.695312 191.375 C 78.539062 191.6875 78.539062 191.71875 78.539062 191.875 C 78.539062 192.25 78.851562 192.40625 79.101562 192.40625 C 79.695312 192.40625 79.851562 191.84375 80.101562 191.125 C 80.382812 190.1875 80.382812 190.15625 80.632812 189.15625 Z M 81.757812 184.75 "/>
<path style="fill:none;stroke-width:0.8;stroke-linecap:butt;stroke-linejoin:miter;stroke:rgb(100%,0%,0%);stroke-opacity:1;stroke-miterlimit:4;" d="M 24.800781 173.601562 L 48.960938 145.53125 "/>
<path style="fill-rule:evenodd;fill:rgb(100%,0%,0%);fill-opacity:1;stroke-width:0.606287;stroke-linecap:butt;stroke-linejoin:miter;stroke:rgb(100%,0%,0%);stroke-opacity:1;stroke-miterlimit:4;" d="M -85.067231 100.079484 C -85.068538 101.416546 -86.155375 102.504515 -87.494681 102.50514 C -88.831744 102.503833 -89.919713 101.416996 -89.918406 100.079934 C -89.919031 98.740627 -88.832194 97.652658 -87.495131 97.653965 C -86.155825 97.65334 -85.067856 98.740178 -85.067231 100.079484 Z M -85.067231 100.079484 " transform="matrix(0.86087,-1,1,0.86087,0,0)"/>
<path style="fill-rule:evenodd;fill:rgb(100%,0%,0%);fill-opacity:1;stroke-width:0.606287;stroke-linecap:butt;stroke-linejoin:miter;stroke:rgb(100%,0%,0%);stroke-opacity:1;stroke-miterlimit:4;" d="M 65.440009 -100.077528 L 67.865527 -102.505428 L 59.377644 -100.07737 L 67.865977 -97.654253 Z M 65.440009 -100.077528 " transform="matrix(-0.86087,1,-1,-0.86087,0,0)"/>
<path style="fill:none;stroke-width:0.8;stroke-linecap:butt;stroke-linejoin:miter;stroke:rgb(100%,0%,0%);stroke-opacity:1;stroke-miterlimit:4;" d="M 82.398438 173.601562 L 58.238281 145.53125 "/>
<path style="fill-rule:evenodd;fill:rgb(100%,0%,0%);fill-opacity:1;stroke-width:0.606287;stroke-linecap:butt;stroke-linejoin:miter;stroke:rgb(100%,0%,0%);stroke-opacity:1;stroke-miterlimit:4;" d="M -138.072863 -38.507317 C -138.071556 -37.170254 -139.159525 -36.083417 -140.498831 -36.084041 C -141.835894 -36.082735 -142.922731 -37.170704 -142.924038 -38.507766 C -142.923413 -39.847072 -141.835444 -40.93391 -140.498381 -40.935217 C -139.159075 -40.934592 -138.072238 -39.846623 -138.072863 -38.507317 Z M -138.072863 -38.507317 " transform="matrix(-0.86087,-1,1,-0.86087,0,0)"/>
<path style="fill-rule:evenodd;fill:rgb(100%,0%,0%);fill-opacity:1;stroke-width:0.606287;stroke-linecap:butt;stroke-linejoin:miter;stroke:rgb(100%,0%,0%);stroke-opacity:1;stroke-miterlimit:4;" d="M 118.443709 38.507604 L 120.869677 36.084329 L 112.381344 38.507447 L 120.869227 40.935504 Z M 118.443709 38.507604 " transform="matrix(0.86087,1,-1,0.86087,0,0)"/>
<path style="fill:none;stroke-width:1.6;stroke-linecap:round;stroke-linejoin:round;stroke:rgb(0%,0%,0%);stroke-opacity:1;stroke-miterlimit:4;" d="M 44 116 L 63.199219 116 C 65.859375 116 68 118.140625 68 120.800781 L 68 140 C 68 142.660156 65.859375 144.800781 63.199219 144.800781 L 44 144.800781 C 41.339844 144.800781 39.199219 142.660156 39.199219 140 L 39.199219 120.800781 C 39.199219 118.140625 41.339844 116 44 116 Z M 44 116 "/>
<path style=" stroke:none;fill-rule:nonzero;fill:rgb(0%,0%,0%);fill-opacity:1;" d="M 54.007812 130.789062 L 59.570312 130.789062 C 59.851562 130.789062 60.226562 130.789062 60.226562 130.382812 C 60.226562 130.007812 59.851562 130.007812 59.570312 130.007812 L 54.007812 130.007812 L 54.007812 124.414062 C 54.007812 124.132812 54.007812 123.757812 53.601562 123.757812 C 53.195312 123.757812 53.195312 124.132812 53.195312 124.414062 L 53.195312 130.007812 L 47.632812 130.007812 C 47.351562 130.007812 46.976562 130.007812 46.976562 130.382812 C 46.976562 130.789062 47.351562 130.789062 47.632812 130.789062 L 53.195312 130.789062 L 53.195312 136.382812 C 53.195312 136.664062 53.195312 137.039062 53.601562 137.039062 C 54.007812 137.039062 54.007812 136.664062 54.007812 136.382812 Z M 54.007812 130.789062 "/>
<path style="fill:none;stroke-width:1.6;stroke-linecap:round;stroke-linejoin:round;stroke:rgb(0%,0%,0%);stroke-opacity:1;stroke-miterlimit:4;" d="M 101.601562 58.398438 L 120.800781 58.398438 C 123.460938 58.398438 125.601562 60.539062 125.601562 63.199219 L 125.601562 82.398438 C 125.601562 85.058594 123.460938 87.199219 120.800781 87.199219 L 101.601562 87.199219 C 98.941406 87.199219 96.800781 85.058594 96.800781 82.398438 L 96.800781 63.199219 C 96.800781 60.539062 98.941406 58.398438 101.601562 58.398438 Z M 101.601562 58.398438 "/>
<path style=" stroke:none;fill-rule:nonzero;fill:rgb(0%,0%,0%);fill-opacity:1;" d="M 114.980469 63.597656 C 115.074219 63.316406 115.074219 63.253906 115.074219 63.222656 C 115.074219 63.003906 114.917969 62.816406 114.699219 62.816406 C 114.542969 62.816406 114.417969 62.878906 114.355469 63.003906 L 107.417969 82.003906 C 107.324219 82.285156 107.324219 82.347656 107.324219 82.378906 C 107.324219 82.597656 107.511719 82.785156 107.730469 82.785156 C 107.980469 82.785156 108.042969 82.628906 108.167969 82.285156 Z M 114.980469 63.597656 "/>
<path style="fill:none;stroke-width:0.8;stroke-linecap:butt;stroke-linejoin:miter;stroke:rgb(100%,0%,0%);stroke-opacity:1;stroke-miterlimit:4;" d="M 53.601562 116 L 106.398438 87.199219 "/>
<path style="fill-rule:evenodd;fill:rgb(100%,0%,0%);fill-opacity:1;stroke-width:0.702316;stroke-linecap:butt;stroke-linejoin:miter;stroke:rgb(100%,0%,0%);stroke-opacity:1;stroke-miterlimit:4;" d="M -4.703611 111.934392 C -4.702243 113.485919 -5.962569 114.743781 -7.512454 114.742138 C -9.060971 114.745148 -10.318833 113.484822 -10.3202 111.933295 C -10.318558 110.38341 -9.061243 109.123906 -7.511357 109.125549 C -5.95983 109.124181 -4.701969 110.384507 -4.703611 111.934392 Z M -4.703611 111.934392 " transform="matrix(1,-0.545455,0.545455,1,0,0)"/>
<path style="fill-rule:evenodd;fill:rgb(100%,0%,0%);fill-opacity:1;stroke-width:0.702316;stroke-linecap:butt;stroke-linejoin:miter;stroke:rgb(100%,0%,0%);stroke-opacity:1;stroke-miterlimit:4;" d="M -38.320415 -111.933312 L -35.514583 -114.742701 L -45.344299 -111.932494 L -35.512669 -109.124469 Z M -38.320415 -111.933312 " transform="matrix(-1,0.545455,-0.545455,-1,0,0)"/>
<path style="fill:none;stroke-width:0.8;stroke-linecap:butt;stroke-linejoin:miter;stroke:rgb(100%,0%,0%);stroke-opacity:1;stroke-miterlimit:4;" d="M 168.800781 116 L 116 87.199219 "/>
<path style="fill-rule:evenodd;fill:rgb(100%,0%,0%);fill-opacity:1;stroke-width:0.702316;stroke-linecap:butt;stroke-linejoin:miter;stroke:rgb(100%,0%,0%);stroke-opacity:1;stroke-miterlimit:4;" d="M -176.106163 -18.442013 C -176.107531 -16.890485 -177.362382 -15.631802 -178.913909 -15.63317 C -180.463795 -15.631527 -181.72412 -16.889389 -181.722752 -18.440916 C -181.724395 -19.990801 -180.466533 -21.251127 -178.915006 -21.249759 C -177.365121 -21.251402 -176.104795 -19.99354 -176.106163 -18.442013 Z M -176.106163 -18.442013 " transform="matrix(-1,-0.545455,0.545455,-1,0,0)"/>
<path style="fill-rule:evenodd;fill:rgb(100%,0%,0%);fill-opacity:1;stroke-width:0.702316;stroke-linecap:butt;stroke-linejoin:miter;stroke:rgb(100%,0%,0%);stroke-opacity:1;stroke-miterlimit:4;" d="M 133.082137 18.440933 L 135.889883 15.63209 L 126.058253 18.440115 L 135.89098 21.248679 Z M 133.082137 18.440933 " transform="matrix(1,0.545455,-0.545455,1,0,0)"/>
<path style="fill:none;stroke-width:1.6;stroke-linecap:round;stroke-linejoin:round;stroke:rgb(0%,0%,0%);stroke-opacity:1;stroke-miterlimit:4;" d="M 288.800781 116.382812 L 308 116.382812 C 310.660156 116.382812 312.800781 118.523438 312.800781 121.183594 L 312.800781 140.382812 C 312.800781 143.042969 310.660156 145.183594 308 145.183594 L 288.800781 145.183594 C 286.140625 145.183594 284 143.042969 284 140.382812 L 284 121.183594 C 284 118.523438 286.140625 116.382812 288.800781 116.382812 Z M 288.800781 116.382812 "/>
<path style=" stroke:none;fill-rule:nonzero;fill:rgb(0%,0%,0%);fill-opacity:1;" d="M 302.179688 121.582031 C 302.273438 121.300781 302.273438 121.238281 302.273438 121.207031 C 302.273438 120.988281 302.117188 120.800781 301.898438 120.800781 C 301.742188 120.800781 301.617188 120.863281 301.554688 120.988281 L 294.617188 139.988281 C 294.523438 140.269531 294.523438 140.332031 294.523438 140.363281 C 294.523438 140.582031 294.710938 140.769531 294.929688 140.769531 C 295.179688 140.769531 295.242188 140.613281 295.367188 140.269531 Z M 302.179688 121.582031 "/>
<g clip-path="url(#clip1)" clip-rule="nonzero">
<path style="fill:none;stroke-width:1.6;stroke-linecap:round;stroke-linejoin:round;stroke:rgb(0%,0%,0%);stroke-opacity:1;stroke-miterlimit:4;" d="M 288.800781 231.582031 L 308 231.582031 C 310.660156 231.582031 312.800781 233.722656 312.800781 236.382812 L 312.800781 255.582031 C 312.800781 258.242188 310.660156 260.382812 308 260.382812 L 288.800781 260.382812 C 286.140625 260.382812 284 258.242188 284 255.582031 L 284 236.382812 C 284 233.722656 286.140625 231.582031 288.800781 231.582031 Z M 288.800781 231.582031 "/>
</g>
<path style=" stroke:none;fill-rule:nonzero;fill:rgb(0%,0%,0%);fill-opacity:1;" d="M 297.757812 242.734375 L 300.007812 242.734375 C 299.351562 245.671875 299.164062 246.546875 299.164062 247.890625 C 299.164062 248.171875 299.164062 248.703125 299.320312 249.390625 C 299.539062 250.265625 299.757812 250.390625 300.039062 250.390625 C 300.445312 250.390625 300.882812 250.046875 300.882812 249.640625 C 300.882812 249.515625 300.882812 249.484375 300.757812 249.203125 C 300.164062 247.765625 300.164062 246.453125 300.164062 245.890625 C 300.164062 244.859375 300.320312 243.765625 300.539062 242.734375 L 302.789062 242.734375 C 303.070312 242.734375 303.789062 242.734375 303.789062 242.046875 C 303.789062 241.578125 303.351562 241.578125 302.976562 241.578125 L 296.289062 241.578125 C 295.851562 241.578125 295.101562 241.578125 294.226562 242.515625 C 293.539062 243.296875 293.007812 244.203125 293.007812 244.296875 C 293.007812 244.328125 293.007812 244.515625 293.257812 244.515625 C 293.414062 244.515625 293.445312 244.421875 293.570312 244.265625 C 294.539062 242.734375 295.695312 242.734375 296.101562 242.734375 L 297.226562 242.734375 C 296.601562 245.140625 295.539062 247.546875 294.695312 249.359375 C 294.539062 249.671875 294.539062 249.703125 294.539062 249.859375 C 294.539062 250.234375 294.851562 250.390625 295.101562 250.390625 C 295.695312 250.390625 295.851562 249.828125 296.101562 249.109375 C 296.382812 248.171875 296.382812 248.140625 296.632812 247.140625 Z M 297.757812 242.734375 "/>
<path style="fill:none;stroke-width:0.8;stroke-linecap:butt;stroke-linejoin:miter;stroke:rgb(100%,0%,0%);stroke-opacity:1;stroke-miterlimit:4;" d="M 240.800781 231.582031 L 264.960938 203.515625 "/>
<path style="fill-rule:evenodd;fill:rgb(100%,0%,0%);fill-opacity:1;stroke-width:0.606287;stroke-linecap:butt;stroke-linejoin:miter;stroke:rgb(100%,0%,0%);stroke-opacity:1;stroke-miterlimit:4;" d="M -11.571307 252.809047 C -11.572614 254.14611 -12.659451 255.234079 -13.996513 255.232772 C -15.335819 255.233397 -16.423789 254.14656 -16.422482 252.809497 C -16.423107 251.470191 -15.336269 250.382222 -13.996963 250.381597 C -12.659901 250.382904 -11.571931 251.469741 -11.571307 252.809047 Z M -11.571307 252.809047 " transform="matrix(0.86087,-1,1,0.86087,0,0)"/>
<path style="fill-rule:evenodd;fill:rgb(100%,0%,0%);fill-opacity:1;stroke-width:0.606287;stroke-linecap:butt;stroke-linejoin:miter;stroke:rgb(100%,0%,0%);stroke-opacity:1;stroke-miterlimit:4;" d="M -8.055916 -252.807091 L -5.632641 -255.23306 L -14.11828 -252.806934 L -5.632191 -250.381885 Z M -8.055916 -252.807091 " transform="matrix(-0.86087,1,-1,-0.86087,0,0)"/>
<path style="fill:none;stroke-width:0.8;stroke-linecap:butt;stroke-linejoin:miter;stroke:rgb(100%,0%,0%);stroke-opacity:1;stroke-miterlimit:4;" d="M 298.398438 231.582031 L 274.238281 203.515625 "/>
<path style="fill-rule:evenodd;fill:rgb(100%,0%,0%);fill-opacity:1;stroke-width:0.606287;stroke-linecap:butt;stroke-linejoin:miter;stroke:rgb(100%,0%,0%);stroke-opacity:1;stroke-miterlimit:4;" d="M -278.175495 56.88253 C -278.174188 58.219593 -279.262158 59.30643 -280.59922 59.307737 C -281.938526 59.307112 -283.025363 58.219143 -283.02667 56.88208 C -283.026046 55.542774 -281.938076 54.455937 -280.59877 54.456562 C -279.261708 54.455255 -278.17487 55.543224 -278.175495 56.88253 Z M -278.175495 56.88253 " transform="matrix(-0.86087,-1,1,-0.86087,0,0)"/>
<path style="fill-rule:evenodd;fill:rgb(100%,0%,0%);fill-opacity:1;stroke-width:0.606287;stroke-linecap:butt;stroke-linejoin:miter;stroke:rgb(100%,0%,0%);stroke-opacity:1;stroke-miterlimit:4;" d="M 258.546341 -56.882243 L 260.970066 -59.307449 L 252.483977 -56.8824 L 260.969616 -54.456274 Z M 258.546341 -56.882243 " transform="matrix(0.86087,1,-1,0.86087,0,0)"/>
<path style="fill:none;stroke-width:1.6;stroke-linecap:round;stroke-linejoin:round;stroke:rgb(0%,0%,0%);stroke-opacity:1;stroke-miterlimit:4;" d="M 260 173.984375 L 279.199219 173.984375 C 281.859375 173.984375 284 176.125 284 178.785156 L 284 197.984375 C 284 200.644531 281.859375 202.785156 279.199219 202.785156 L 260 202.785156 C 257.339844 202.785156 255.199219 200.644531 255.199219 197.984375 L 255.199219 178.785156 C 255.199219 176.125 257.339844 173.984375 260 173.984375 Z M 260 173.984375 "/>
<path style=" stroke:none;fill-rule:nonzero;fill:rgb(0%,0%,0%);fill-opacity:1;" d="M 270.007812 188.773438 L 275.570312 188.773438 C 275.851562 188.773438 276.226562 188.773438 276.226562 188.367188 C 276.226562 187.992188 275.851562 187.992188 275.570312 187.992188 L 270.007812 187.992188 L 270.007812 182.398438 C 270.007812 182.117188 270.007812 181.742188 269.601562 181.742188 C 269.195312 181.742188 269.195312 182.117188 269.195312 182.398438 L 269.195312 187.992188 L 263.632812 187.992188 C 263.351562 187.992188 262.976562 187.992188 262.976562 188.367188 C 262.976562 188.773438 263.351562 188.773438 263.632812 188.773438 L 269.195312 188.773438 L 269.195312 194.367188 C 269.195312 194.648438 269.195312 195.023438 269.601562 195.023438 C 270.007812 195.023438 270.007812 194.648438 270.007812 194.367188 Z M 270.007812 188.773438 "/>
<g clip-path="url(#clip2)" clip-rule="nonzero">
<path style="fill:none;stroke-width:1.6;stroke-linecap:round;stroke-linejoin:round;stroke:rgb(0%,0%,0%);stroke-opacity:1;stroke-miterlimit:4;" d="M 317.601562 173.984375 L 336.800781 173.984375 C 339.460938 173.984375 341.601562 176.125 341.601562 178.785156 L 341.601562 197.984375 C 341.601562 200.644531 339.460938 202.785156 336.800781 202.785156 L 317.601562 202.785156 C 314.941406 202.785156 312.800781 200.644531 312.800781 197.984375 L 312.800781 178.785156 C 312.800781 176.125 314.941406 173.984375 317.601562 173.984375 Z M 317.601562 173.984375 "/>
</g>
<path style=" stroke:none;fill-rule:nonzero;fill:rgb(0%,0%,0%);fill-opacity:1;" d="M 324.761719 193.492188 L 326.886719 191.429688 C 329.980469 188.679688 331.167969 187.617188 331.167969 185.617188 C 331.167969 183.335938 329.386719 181.742188 326.949219 181.742188 C 324.699219 181.742188 323.230469 183.585938 323.230469 185.367188 C 323.230469 186.460938 324.230469 186.460938 324.292969 186.460938 C 324.636719 186.460938 325.324219 186.242188 325.324219 185.398438 C 325.324219 184.898438 324.949219 184.367188 324.261719 184.367188 C 324.105469 184.367188 324.074219 184.367188 324.011719 184.398438 C 324.449219 183.085938 325.542969 182.367188 326.699219 182.367188 C 328.511719 182.367188 329.355469 183.992188 329.355469 185.617188 C 329.355469 187.210938 328.386719 188.773438 327.261719 190.023438 L 323.449219 194.273438 C 323.230469 194.492188 323.230469 194.554688 323.230469 195.023438 L 330.636719 195.023438 L 331.167969 191.554688 L 330.699219 191.554688 C 330.574219 192.148438 330.449219 193.023438 330.230469 193.335938 C 330.105469 193.492188 328.792969 193.492188 328.355469 193.492188 Z M 324.761719 193.492188 "/>
<path style="fill:none;stroke-width:0.8;stroke-linecap:butt;stroke-linejoin:miter;stroke:rgb(100%,0%,0%);stroke-opacity:1;stroke-miterlimit:4;" d="M 327.199219 173.984375 L 303.039062 145.914062 "/>
<path style="fill-rule:evenodd;fill:rgb(100%,0%,0%);fill-opacity:1;stroke-width:0.606287;stroke-linecap:butt;stroke-linejoin:miter;stroke:rgb(100%,0%,0%);stroke-opacity:1;stroke-miterlimit:4;" d="M -259.330368 101.90261 C -259.330993 103.241916 -260.418962 104.328753 -261.758268 104.328128 C -263.095331 104.329435 -264.182168 103.241466 -264.181543 101.90216 C -264.18285 100.565097 -263.094881 99.47826 -261.757818 99.476953 C -260.418512 99.477578 -259.331675 100.565547 -259.330368 101.90261 Z M -259.330368 101.90261 " transform="matrix(-0.86087,-1,1,-0.86087,0,0)"/>
<path style="fill-rule:evenodd;fill:rgb(100%,0%,0%);fill-opacity:1;stroke-width:0.606287;stroke-linecap:butt;stroke-linejoin:miter;stroke:rgb(100%,0%,0%);stroke-opacity:1;stroke-miterlimit:4;" d="M 239.703146 -101.904565 L 242.129114 -104.327841 L 233.640781 -101.904723 L 242.128664 -99.476665 Z M 239.703146 -101.904565 " transform="matrix(0.86087,1,-1,0.86087,0,0)"/>
<path style="fill:none;stroke-width:0.8;stroke-linecap:butt;stroke-linejoin:miter;stroke:rgb(100%,0%,0%);stroke-opacity:1;stroke-miterlimit:4;" d="M 269.601562 173.984375 L 293.761719 145.914062 "/>
<path style="fill-rule:evenodd;fill:rgb(100%,0%,0%);fill-opacity:1;stroke-width:0.606287;stroke-linecap:butt;stroke-linejoin:miter;stroke:rgb(100%,0%,0%);stroke-opacity:1;stroke-miterlimit:4;" d="M 35.750537 240.867966 C 35.751162 242.207272 34.664325 243.295242 33.325019 243.295866 C 31.987956 243.294559 30.899987 242.207722 30.899362 240.868416 C 30.900669 239.531354 31.987506 238.443384 33.324569 238.444691 C 34.663875 238.444066 35.751844 239.530904 35.750537 240.867966 Z M 35.750537 240.867966 " transform="matrix(0.86087,-1,1,0.86087,0,0)"/>
<path style="fill-rule:evenodd;fill:rgb(100%,0%,0%);fill-opacity:1;stroke-width:0.606287;stroke-linecap:butt;stroke-linejoin:miter;stroke:rgb(100%,0%,0%);stroke-opacity:1;stroke-miterlimit:4;" d="M -55.379691 -240.868254 L -52.954173 -243.296154 L -61.442056 -240.868096 L -52.953723 -238.444979 Z M -55.379691 -240.868254 " transform="matrix(-0.86087,1,-1,-0.86087,0,0)"/>
<path style="fill:none;stroke-width:1.6;stroke-linecap:round;stroke-linejoin:round;stroke:rgb(0%,0%,0%);stroke-opacity:1;stroke-miterlimit:4;" d="M 274.398438 58.785156 L 322.398438 58.785156 C 325.058594 58.785156 327.199219 60.925781 327.199219 63.582031 L 327.199219 82.785156 C 327.199219 85.441406 325.058594 87.582031 322.398438 87.582031 L 274.398438 87.582031 C 271.742188 87.582031 269.601562 85.441406 269.601562 82.785156 L 269.601562 63.582031 C 269.601562 60.925781 271.742188 58.785156 274.398438 58.785156 Z M 274.398438 58.785156 "/>
<path style=" stroke:none;fill-rule:nonzero;fill:rgb(0%,0%,0%);fill-opacity:1;" d="M 280.480469 74.292969 C 280.917969 74.386719 282.542969 74.699219 282.542969 76.136719 C 282.542969 77.136719 281.855469 77.949219 280.292969 77.949219 C 278.605469 77.949219 277.886719 76.824219 277.511719 75.105469 C 277.449219 74.855469 277.449219 74.792969 277.230469 74.792969 C 276.980469 74.792969 276.980469 74.917969 276.980469 75.261719 L 276.980469 77.917969 C 276.980469 78.261719 276.980469 78.386719 277.199219 78.386719 C 277.292969 78.386719 277.324219 78.355469 277.699219 77.980469 C 277.730469 77.949219 277.730469 77.917969 278.105469 77.542969 C 278.980469 78.355469 279.886719 78.386719 280.292969 78.386719 C 282.574219 78.386719 283.511719 77.042969 283.511719 75.605469 C 283.511719 74.574219 282.917969 73.949219 282.667969 73.730469 C 282.011719 73.074219 281.230469 72.917969 280.386719 72.761719 C 279.261719 72.542969 277.949219 72.292969 277.949219 71.136719 C 277.949219 70.417969 278.449219 69.605469 280.167969 69.605469 C 282.355469 69.605469 282.480469 71.417969 282.511719 72.011719 C 282.511719 72.199219 282.699219 72.199219 282.730469 72.199219 C 283.011719 72.199219 283.011719 72.105469 283.011719 71.730469 L 283.011719 69.699219 C 283.011719 69.386719 283.011719 69.230469 282.792969 69.230469 C 282.699219 69.230469 282.636719 69.230469 282.386719 69.480469 C 282.324219 69.542969 282.136719 69.730469 282.042969 69.792969 C 281.292969 69.230469 280.480469 69.230469 280.167969 69.230469 C 277.730469 69.230469 276.980469 70.574219 276.980469 71.699219 C 276.980469 72.386719 277.292969 72.949219 277.824219 73.386719 C 278.480469 73.886719 279.042969 74.011719 280.480469 74.292969 Z M 280.480469 74.292969 "/>
<path style=" stroke:none;fill-rule:nonzero;fill:rgb(0%,0%,0%);fill-opacity:1;" d="M 287.710938 69.355469 L 284.929688 69.574219 L 284.929688 70.199219 C 286.210938 70.199219 286.398438 70.324219 286.398438 71.292969 L 286.398438 76.667969 C 286.398438 77.542969 286.179688 77.542969 284.835938 77.542969 L 284.835938 78.167969 C 285.460938 78.136719 286.554688 78.105469 287.023438 78.105469 C 287.742188 78.105469 288.429688 78.136719 289.117188 78.167969 L 289.117188 77.542969 C 287.773438 77.542969 287.710938 77.449219 287.710938 76.667969 Z M 287.773438 65.886719 C 287.773438 65.261719 287.304688 64.824219 286.742188 64.824219 C 286.117188 64.824219 285.679688 65.355469 285.679688 65.886719 C 285.679688 66.417969 286.117188 66.949219 286.742188 66.949219 C 287.304688 66.949219 287.773438 66.511719 287.773438 65.886719 Z M 287.773438 65.886719 "/>
<path style=" stroke:none;fill-rule:nonzero;fill:rgb(0%,0%,0%);fill-opacity:1;" d="M 291.902344 71.324219 L 291.902344 76.667969 C 291.902344 77.542969 291.683594 77.542969 290.339844 77.542969 L 290.339844 78.167969 C 291.058594 78.136719 292.058594 78.105469 292.621094 78.105469 C 293.121094 78.105469 294.152344 78.136719 294.839844 78.167969 L 294.839844 77.542969 C 293.496094 77.542969 293.277344 77.542969 293.277344 76.667969 L 293.277344 72.980469 C 293.277344 70.917969 294.714844 69.792969 295.964844 69.792969 C 297.246094 69.792969 297.464844 70.855469 297.464844 72.011719 L 297.464844 76.667969 C 297.464844 77.542969 297.246094 77.542969 295.902344 77.542969 L 295.902344 78.167969 C 296.589844 78.136719 297.621094 78.105469 298.152344 78.105469 C 298.652344 78.105469 299.714844 78.136719 300.371094 78.167969 L 300.371094 77.542969 C 299.339844 77.542969 298.839844 77.542969 298.839844 76.949219 L 298.839844 73.136719 C 298.839844 71.417969 298.839844 70.824219 298.214844 70.105469 C 297.933594 69.761719 297.277344 69.355469 296.121094 69.355469 C 294.652344 69.355469 293.714844 70.199219 293.152344 71.449219 L 293.152344 69.355469 L 290.339844 69.574219 L 290.339844 70.199219 C 291.746094 70.199219 291.902344 70.324219 291.902344 71.324219 Z M 291.902344 71.324219 "/>
<path style=" stroke:none;fill-rule:nonzero;fill:rgb(0%,0%,0%);fill-opacity:1;" d="M 307.378906 82.949219 C 307.378906 82.886719 307.378906 82.855469 307.035156 82.511719 C 304.566406 80.011719 303.910156 76.230469 303.910156 73.167969 C 303.910156 69.699219 304.660156 66.230469 307.128906 63.761719 C 307.378906 63.511719 307.378906 63.480469 307.378906 63.417969 C 307.378906 63.261719 307.316406 63.199219 307.191406 63.199219 C 306.972656 63.199219 305.191406 64.574219 304.003906 67.105469 C 303.003906 69.292969 302.753906 71.511719 302.753906 73.167969 C 302.753906 74.730469 302.972656 77.136719 304.066406 79.417969 C 305.285156 81.855469 306.972656 83.167969 307.191406 83.167969 C 307.316406 83.167969 307.378906 83.105469 307.378906 82.949219 Z M 307.378906 82.949219 "/>
<path style=" stroke:none;fill-rule:nonzero;fill:rgb(0%,0%,0%);fill-opacity:1;" d="M 312.347656 73.167969 C 312.347656 72.605469 311.878906 72.136719 311.316406 72.136719 C 310.722656 72.136719 310.253906 72.605469 310.253906 73.167969 C 310.253906 73.761719 310.722656 74.230469 311.316406 74.230469 C 311.878906 74.230469 312.347656 73.761719 312.347656 73.167969 Z M 312.347656 73.167969 "/>
<path style=" stroke:none;fill-rule:nonzero;fill:rgb(0%,0%,0%);fill-opacity:1;" d="M 319.820312 73.167969 C 319.820312 71.636719 319.601562 69.230469 318.507812 66.949219 C 317.320312 64.511719 315.601562 63.199219 315.414062 63.199219 C 315.289062 63.199219 315.195312 63.292969 315.195312 63.417969 C 315.195312 63.480469 315.195312 63.511719 315.570312 63.886719 C 317.539062 65.855469 318.664062 69.011719 318.664062 73.167969 C 318.664062 76.605469 317.945312 80.105469 315.476562 82.605469 C 315.195312 82.855469 315.195312 82.886719 315.195312 82.949219 C 315.195312 83.074219 315.289062 83.167969 315.414062 83.167969 C 315.601562 83.167969 317.414062 81.792969 318.570312 79.261719 C 319.601562 77.074219 319.820312 74.855469 319.820312 73.167969 Z M 319.820312 73.167969 "/>
<path style="fill:none;stroke-width:0.8;stroke-linecap:butt;stroke-linejoin:miter;stroke:rgb(100%,0%,0%);stroke-opacity:1;stroke-miterlimit:4;" d="M 298.398438 116.382812 L 298.398438 87.582031 "/>
<path style="fill-rule:evenodd;fill:rgb(100%,0%,0%);fill-opacity:1;stroke-width:0.8;stroke-linecap:butt;stroke-linejoin:miter;stroke:rgb(100%,0%,0%);stroke-opacity:1;stroke-miterlimit:4;" d="M -113.246094 298.398438 C -113.246094 300.167969 -114.679688 301.601562 -116.449219 301.601562 C -118.214844 301.601562 -119.648438 300.167969 -119.648438 298.398438 C -119.648438 296.632812 -118.214844 295.199219 -116.449219 295.199219 C -114.679688 295.199219 -113.246094 296.632812 -113.246094 298.398438 Z M -113.246094 298.398438 " transform="matrix(0,-1,1,0,0,0)"/>
<path style="fill-rule:evenodd;fill:rgb(100%,0%,0%);fill-opacity:1;stroke-width:0.8;stroke-linecap:butt;stroke-linejoin:miter;stroke:rgb(100%,0%,0%);stroke-opacity:1;stroke-miterlimit:4;" d="M 95.582031 -298.398438 L 98.785156 -301.601562 L 87.582031 -298.398438 L 98.785156 -295.199219 Z M 95.582031 -298.398438 " transform="matrix(0,1,-1,0,0,0)"/>
<path style="fill:none;stroke-width:0.8;stroke-linecap:butt;stroke-linejoin:miter;stroke:rgb(100%,0%,0%);stroke-opacity:1;stroke-miterlimit:4;" d="M 111.199219 58.398438 L 202.398438 29.601562 "/>
<path style="fill-rule:evenodd;fill:rgb(100%,0%,0%);fill-opacity:1;stroke-width:0.762866;stroke-linecap:butt;stroke-linejoin:miter;stroke:rgb(100%,0%,0%);stroke-opacity:1;stroke-miterlimit:4;" d="M 87.33757 85.037275 C 87.337197 86.720751 85.968731 88.08548 84.284133 88.088658 C 82.600657 88.088285 81.235929 86.719819 81.23275 85.035221 C 81.233123 83.351745 82.602711 81.983465 84.286187 81.983838 C 85.969663 81.984211 87.339065 83.350247 87.33757 85.037275 Z M 87.33757 85.037275 " transform="matrix(1,-0.315789,0.315789,1,0,0)"/>
<path style="fill-rule:evenodd;fill:rgb(100%,0%,0%);fill-opacity:1;stroke-width:0.762866;stroke-linecap:butt;stroke-linejoin:miter;stroke:rgb(100%,0%,0%);stroke-opacity:1;stroke-miterlimit:4;" d="M -167.91671 -85.034062 L -164.866825 -88.086567 L -175.544791 -85.036676 L -164.867757 -81.985299 Z M -167.91671 -85.034062 " transform="matrix(-1,0.315789,-0.315789,-1,0,0)"/>
<path style="fill:none;stroke-width:0.8;stroke-linecap:butt;stroke-linejoin:miter;stroke:rgb(100%,0%,0%);stroke-opacity:1;stroke-miterlimit:4;" d="M 298.398438 58.398438 L 212 29.601562 "/>
<path style="fill-rule:evenodd;fill:rgb(100%,0%,0%);fill-opacity:1;stroke-width:0.758947;stroke-linecap:butt;stroke-linejoin:miter;stroke:rgb(100%,0%,0%);stroke-opacity:1;stroke-miterlimit:4;" d="M -283.106289 36.958513 C -283.10629 38.634294 -284.464494 39.997184 -286.140275 39.997184 C -287.816056 39.997183 -289.176603 38.634292 -289.176603 36.958511 C -289.176602 35.282729 -287.817226 33.923355 -286.141445 33.923355 C -284.465664 33.923356 -283.106289 35.282731 -283.106289 36.958513 Z M -283.106289 36.958513 " transform="matrix(-1,-0.333333,0.333333,-1,0,0)"/>
<path style="fill-rule:evenodd;fill:rgb(100%,0%,0%);fill-opacity:1;stroke-width:0.758947;stroke-linecap:butt;stroke-linejoin:miter;stroke:rgb(100%,0%,0%);stroke-opacity:1;stroke-miterlimit:4;" d="M 207.269563 -36.960879 L 210.304721 -39.996035 L 199.6805 -36.958538 L 210.304719 -33.925722 Z M 207.269563 -36.960879 " transform="matrix(1,0.333333,-0.333333,1,0,0)"/>
</g>
</svg>
