<?xml version="1.0" encoding="UTF-8"?>
<svg xmlns="http://www.w3.org/2000/svg" xmlns:xlink="http://www.w3.org/1999/xlink" width="625.558228pt" height="284.469421pt" viewBox="0 0 625.558228 284.469421" version="1.1">
<defs>
<filter id="alpha" filterUnits="objectBoundingBox" x="0%" y="0%" width="100%" height="100%">
  <feColorMatrix type="matrix" in="SourceGraphic" values="0 0 0 0 1 0 0 0 0 1 0 0 0 0 1 0 0 0 1 0"/>
</filter>
<clipPath id="clip1">
  <rect width="12" height="32"/>
</clipPath>
<g id="surface8" clip-path="url(#clip1)">
<rect x="0" y="0" width="12" height="32" style="fill:rgb(0%,0%,0%);fill-opacity:0.97;stroke:none;"/>
</g>
<mask id="mask0">
  <g filter="url(#alpha)">
<use xlink:href="#surface8"/>
  </g>
</mask>
<clipPath id="clip2">
  <rect width="12" height="32"/>
</clipPath>
<g id="surface10" clip-path="url(#clip2)">
<path style="fill:none;stroke-width:1.6;stroke-linecap:round;stroke-linejoin:round;stroke:rgb(100%,0%,0%);stroke-opacity:1;stroke-miterlimit:4;" d="M 53.648438 227.765625 C 58.464844 235.476562 61.386719 244.214844 62.179688 253.269531 " transform="matrix(1,0,0,1,-52,-225)"/>
<path style="fill-rule:evenodd;fill:rgb(100%,0%,0%);fill-opacity:1;stroke-width:0.339219;stroke-linecap:butt;stroke-linejoin:miter;stroke:rgb(100%,0%,0%);stroke-opacity:1;stroke-miterlimit:4;" d="M 189.543151 63.775576 L 190.903004 62.418276 L 186.153204 63.774491 L 190.902207 65.132621 Z M 189.543151 63.775576 " transform="matrix(0.624869,1,-1,0.624869,-52,-225)"/>
<path style="fill-rule:evenodd;fill:rgb(100%,0%,0%);fill-opacity:1;stroke-width:0.398478;stroke-linecap:butt;stroke-linejoin:miter;stroke:rgb(100%,0%,0%);stroke-opacity:1;stroke-miterlimit:4;" d="M -254.83413 39.716612 L -253.23792 38.125794 L -258.818763 39.719564 L -253.239435 41.313161 Z M -254.83413 39.716612 " transform="matrix(-0.0874887,-1,1,-0.0874887,-52,-225)"/>
</g>
<clipPath id="clip3">
  <path d="M 104 267 L 110 267 L 110 284.46875 L 104 284.46875 Z M 104 267 "/>
</clipPath>
<clipPath id="clip4">
  <rect width="12" height="31"/>
</clipPath>
<g id="surface14" clip-path="url(#clip4)">
<rect x="0" y="0" width="12" height="31" style="fill:rgb(0%,0%,0%);fill-opacity:0.97;stroke:none;"/>
</g>
<mask id="mask1">
  <g filter="url(#alpha)">
<use xlink:href="#surface14"/>
  </g>
</mask>
<clipPath id="clip5">
  <rect width="12" height="31"/>
</clipPath>
<g id="surface11" clip-path="url(#clip5)">
<path style="fill:none;stroke-width:1.6;stroke-linecap:round;stroke-linejoin:round;stroke:rgb(100%,0%,0%);stroke-opacity:1;stroke-miterlimit:4;" d="M 368.574219 228.667969 C 373.390625 236.375 376.316406 245.113281 377.109375 254.167969 " transform="matrix(1,0,0,1,-367,-226)"/>
<path style="fill-rule:evenodd;fill:rgb(100%,0%,0%);fill-opacity:1;stroke-width:0.339219;stroke-linecap:butt;stroke-linejoin:miter;stroke:rgb(100%,0%,0%);stroke-opacity:1;stroke-miterlimit:4;" d="M 331.717723 -162.313628 L 333.075822 -163.668119 L 328.326021 -162.311904 L 333.075024 -160.953774 Z M 331.717723 -162.313628 " transform="matrix(0.624869,1,-1,0.624869,-367,-226)"/>
<path style="fill-rule:evenodd;fill:rgb(100%,0%,0%);fill-opacity:1;stroke-width:0.398478;stroke-linecap:butt;stroke-linejoin:miter;stroke:rgb(100%,0%,0%);stroke-opacity:1;stroke-miterlimit:4;" d="M -283.069237 352.176047 L -281.472688 350.581352 L -287.053531 352.175122 L -281.474203 353.768719 Z M -283.069237 352.176047 " transform="matrix(-0.0874887,-1,1,-0.0874887,-367,-226)"/>
</g>
<clipPath id="clip6">
  <path d="M 488 22 L 625.558594 22 L 625.558594 284.46875 L 488 284.46875 Z M 488 22 "/>
</clipPath>
<clipPath id="clip7">
  <path d="M 613 167 L 625.558594 167 L 625.558594 174 L 613 174 Z M 613 167 "/>
</clipPath>
<clipPath id="clip8">
  <path d="M 616 156 L 625.558594 156 L 625.558594 166 L 616 166 Z M 616 156 "/>
</clipPath>
<clipPath id="clip9">
  <path d="M 616 145 L 625.558594 145 L 625.558594 156 L 616 156 Z M 616 145 "/>
</clipPath>
<clipPath id="clip10">
  <path d="M 611 132 L 625.558594 132 L 625.558594 141 L 611 141 Z M 611 132 "/>
</clipPath>
</defs>
<g id="surface1">
<path style="fill:none;stroke-width:1.6;stroke-linecap:butt;stroke-linejoin:miter;stroke:rgb(100%,0%,0%);stroke-opacity:1;stroke-miterlimit:4;" d="M 216 258.289062 L 216 239.089844 L 235.199219 239.089844 "/>
<path style="fill:none;stroke-width:3.2;stroke-linecap:butt;stroke-linejoin:miter;stroke:rgb(0%,0%,0%);stroke-opacity:1;stroke-miterlimit:4;" d="M 4.800781 258.289062 L 235.199219 258.289062 L 235.199219 85.492188 Z M 4.800781 258.289062 "/>
<use xlink:href="#surface10" transform="matrix(1,0,0,1,52,225)" mask="url(#mask0)"/>
<path style=" stroke:none;fill-rule:nonzero;fill:rgb(0%,0%,0%);fill-opacity:1;" d="M 53.097656 239.480469 C 53.097656 238.167969 52.753906 235.386719 50.722656 235.386719 C 47.941406 235.386719 44.878906 241.011719 44.878906 245.574219 C 44.878906 247.449219 45.441406 249.667969 47.253906 249.667969 C 50.066406 249.667969 53.097656 243.949219 53.097656 239.480469 Z M 46.972656 242.199219 C 47.316406 240.949219 47.722656 239.355469 48.535156 237.917969 C 49.066406 236.949219 49.785156 235.824219 50.691406 235.824219 C 51.660156 235.824219 51.785156 237.105469 51.785156 238.230469 C 51.785156 239.230469 51.628906 240.230469 51.160156 242.199219 Z M 50.972656 242.855469 C 50.753906 243.761719 50.347656 245.449219 49.566406 246.886719 C 48.878906 248.261719 48.128906 249.230469 47.253906 249.230469 C 46.597656 249.230469 46.191406 248.636719 46.191406 246.792969 C 46.191406 245.949219 46.316406 244.792969 46.816406 242.855469 Z M 50.972656 242.855469 "/>
<path style=" stroke:none;fill-rule:nonzero;fill:rgb(0%,0%,0%);fill-opacity:1;" d="M 90.457031 278.875 C 90.550781 279.65625 91.082031 280.5 92.019531 280.5 C 92.457031 280.5 93.675781 280.21875 93.675781 278.59375 L 93.675781 277.46875 L 93.175781 277.46875 L 93.175781 278.59375 C 93.175781 279.75 92.675781 279.875 92.457031 279.875 C 91.800781 279.875 91.707031 278.96875 91.707031 278.875 L 91.707031 274.90625 C 91.707031 274.0625 91.707031 273.28125 90.988281 272.53125 C 90.207031 271.75 89.207031 271.4375 88.269531 271.4375 C 86.613281 271.4375 85.238281 272.375 85.238281 273.6875 C 85.238281 274.28125 85.644531 274.625 86.175781 274.625 C 86.738281 274.625 87.082031 274.21875 87.082031 273.71875 C 87.082031 273.46875 86.988281 272.8125 86.050781 272.8125 C 86.613281 272.09375 87.582031 271.875 88.207031 271.875 C 89.207031 271.875 90.332031 272.65625 90.332031 274.4375 L 90.332031 275.15625 C 89.300781 275.21875 87.925781 275.28125 86.675781 275.875 C 85.175781 276.5625 84.675781 277.59375 84.675781 278.46875 C 84.675781 280.09375 86.613281 280.59375 87.863281 280.59375 C 89.175781 280.59375 90.082031 279.78125 90.457031 278.875 Z M 90.332031 275.59375 L 90.332031 277.59375 C 90.332031 279.46875 88.894531 280.15625 87.988281 280.15625 C 87.019531 280.15625 86.207031 279.46875 86.207031 278.46875 C 86.207031 277.375 87.050781 275.71875 90.332031 275.59375 Z M 90.332031 275.59375 "/>
<path style=" stroke:none;fill-rule:nonzero;fill:rgb(0%,0%,0%);fill-opacity:1;" d="M 101.359375 279.28125 L 101.359375 280.59375 L 104.296875 280.375 L 104.296875 279.75 C 102.921875 279.75 102.734375 279.625 102.734375 278.625 L 102.734375 266.53125 L 99.890625 266.75 L 99.890625 267.375 C 101.265625 267.375 101.421875 267.5 101.421875 268.5 L 101.421875 272.8125 C 100.859375 272.09375 99.984375 271.5625 98.921875 271.5625 C 96.578125 271.5625 94.484375 273.53125 94.484375 276.09375 C 94.484375 278.625 96.421875 280.59375 98.703125 280.59375 C 99.984375 280.59375 100.859375 279.90625 101.359375 279.28125 Z M 101.359375 273.9375 L 101.359375 278.03125 C 101.359375 278.375 101.359375 278.40625 101.140625 278.75 C 100.546875 279.71875 99.671875 280.15625 98.796875 280.15625 C 97.890625 280.15625 97.171875 279.625 96.703125 278.875 C 96.203125 278.0625 96.140625 276.9375 96.140625 276.09375 C 96.140625 275.375 96.171875 274.1875 96.734375 273.28125 C 97.171875 272.65625 97.921875 272 99.015625 272 C 99.703125 272 100.546875 272.3125 101.140625 273.1875 C 101.359375 273.53125 101.359375 273.5625 101.359375 273.9375 Z M 101.359375 273.9375 "/>
<g clip-path="url(#clip3)" clip-rule="nonzero">
<path style=" stroke:none;fill-rule:nonzero;fill:rgb(0%,0%,0%);fill-opacity:1;" d="M 109.054688 271.5625 L 106.023438 271.78125 L 106.023438 272.40625 C 107.554688 272.40625 107.742188 272.53125 107.742188 273.53125 L 107.742188 281.40625 C 107.742188 282.3125 107.554688 284.03125 106.273438 284.03125 C 106.179688 284.03125 105.710938 284.03125 105.210938 283.75 C 105.492188 283.6875 105.898438 283.40625 105.898438 282.875 C 105.898438 282.34375 105.554688 281.9375 104.992188 281.9375 C 104.429688 281.9375 104.054688 282.34375 104.054688 282.875 C 104.054688 283.90625 105.179688 284.46875 106.335938 284.46875 C 107.804688 284.46875 109.054688 283.1875 109.054688 281.375 Z M 109.054688 268.09375 C 109.054688 267.5 108.585938 267.03125 107.992188 267.03125 C 107.429688 267.03125 106.929688 267.5 106.929688 268.09375 C 106.929688 268.65625 107.429688 269.15625 107.992188 269.15625 C 108.585938 269.15625 109.054688 268.65625 109.054688 268.09375 Z M 109.054688 268.09375 "/>
</g>
<path style=" stroke:none;fill-rule:nonzero;fill:rgb(0%,0%,0%);fill-opacity:1;" d="M 117.582031 278.875 C 117.675781 279.65625 118.207031 280.5 119.144531 280.5 C 119.582031 280.5 120.800781 280.21875 120.800781 278.59375 L 120.800781 277.46875 L 120.300781 277.46875 L 120.300781 278.59375 C 120.300781 279.75 119.800781 279.875 119.582031 279.875 C 118.925781 279.875 118.832031 278.96875 118.832031 278.875 L 118.832031 274.90625 C 118.832031 274.0625 118.832031 273.28125 118.113281 272.53125 C 117.332031 271.75 116.332031 271.4375 115.394531 271.4375 C 113.738281 271.4375 112.363281 272.375 112.363281 273.6875 C 112.363281 274.28125 112.769531 274.625 113.300781 274.625 C 113.863281 274.625 114.207031 274.21875 114.207031 273.71875 C 114.207031 273.46875 114.113281 272.8125 113.175781 272.8125 C 113.738281 272.09375 114.707031 271.875 115.332031 271.875 C 116.332031 271.875 117.457031 272.65625 117.457031 274.4375 L 117.457031 275.15625 C 116.425781 275.21875 115.050781 275.28125 113.800781 275.875 C 112.300781 276.5625 111.800781 277.59375 111.800781 278.46875 C 111.800781 280.09375 113.738281 280.59375 114.988281 280.59375 C 116.300781 280.59375 117.207031 279.78125 117.582031 278.875 Z M 117.457031 275.59375 L 117.457031 277.59375 C 117.457031 279.46875 116.019531 280.15625 115.113281 280.15625 C 114.144531 280.15625 113.332031 279.46875 113.332031 278.46875 C 113.332031 277.375 114.175781 275.71875 117.457031 275.59375 Z M 117.457031 275.59375 "/>
<path style=" stroke:none;fill-rule:nonzero;fill:rgb(0%,0%,0%);fill-opacity:1;" d="M 123.261719 276.03125 C 123.261719 272.78125 124.886719 271.9375 125.949219 271.9375 C 126.136719 271.9375 127.386719 271.96875 128.074219 272.6875 C 127.261719 272.75 127.136719 273.34375 127.136719 273.59375 C 127.136719 274.125 127.511719 274.5 128.042969 274.5 C 128.574219 274.5 128.980469 274.1875 128.980469 273.5625 C 128.980469 272.21875 127.449219 271.4375 125.917969 271.4375 C 123.417969 271.4375 121.605469 273.59375 121.605469 276.0625 C 121.605469 278.625 123.574219 280.59375 125.886719 280.59375 C 128.542969 280.59375 129.199219 278.1875 129.199219 278 C 129.199219 277.8125 128.980469 277.8125 128.917969 277.8125 C 128.761719 277.8125 128.699219 277.875 128.667969 278 C 128.105469 279.84375 126.792969 280.09375 126.074219 280.09375 C 125.011719 280.09375 123.261719 279.25 123.261719 276.03125 Z M 123.261719 276.03125 "/>
<path style=" stroke:none;fill-rule:nonzero;fill:rgb(0%,0%,0%);fill-opacity:1;" d="M 131.992188 275.34375 C 132.117188 272.375 133.804688 271.875 134.492188 271.875 C 136.523438 271.875 136.742188 274.5625 136.742188 275.34375 Z M 131.992188 275.78125 L 137.554688 275.78125 C 137.992188 275.78125 138.054688 275.78125 138.054688 275.34375 C 138.054688 273.375 136.960938 271.4375 134.492188 271.4375 C 132.179688 271.4375 130.335938 273.5 130.335938 276 C 130.335938 278.65625 132.429688 280.59375 134.710938 280.59375 C 137.148438 280.59375 138.054688 278.375 138.054688 278 C 138.054688 277.8125 137.898438 277.75 137.773438 277.75 C 137.617188 277.75 137.554688 277.875 137.523438 278.03125 C 136.835938 280.09375 135.023438 280.09375 134.835938 280.09375 C 133.835938 280.09375 133.054688 279.5 132.585938 278.75 C 131.992188 277.8125 131.992188 276.5 131.992188 275.78125 Z M 131.992188 275.78125 "/>
<path style=" stroke:none;fill-rule:nonzero;fill:rgb(0%,0%,0%);fill-opacity:1;" d="M 140.816406 273.53125 L 140.816406 278.875 C 140.816406 279.75 140.597656 279.75 139.253906 279.75 L 139.253906 280.375 C 139.972656 280.34375 140.972656 280.3125 141.535156 280.3125 C 142.035156 280.3125 143.066406 280.34375 143.753906 280.375 L 143.753906 279.75 C 142.410156 279.75 142.191406 279.75 142.191406 278.875 L 142.191406 275.1875 C 142.191406 273.125 143.628906 272 144.878906 272 C 146.160156 272 146.378906 273.0625 146.378906 274.21875 L 146.378906 278.875 C 146.378906 279.75 146.160156 279.75 144.816406 279.75 L 144.816406 280.375 C 145.503906 280.34375 146.535156 280.3125 147.066406 280.3125 C 147.566406 280.3125 148.628906 280.34375 149.285156 280.375 L 149.285156 279.75 C 148.253906 279.75 147.753906 279.75 147.753906 279.15625 L 147.753906 275.34375 C 147.753906 273.625 147.753906 273.03125 147.128906 272.3125 C 146.847656 271.96875 146.191406 271.5625 145.035156 271.5625 C 143.566406 271.5625 142.628906 272.40625 142.066406 273.65625 L 142.066406 271.5625 L 139.253906 271.78125 L 139.253906 272.40625 C 140.660156 272.40625 140.816406 272.53125 140.816406 273.53125 Z M 140.816406 273.53125 "/>
<path style=" stroke:none;fill-rule:nonzero;fill:rgb(0%,0%,0%);fill-opacity:1;" d="M 152.578125 272.40625 L 155.453125 272.40625 L 155.453125 271.78125 L 152.578125 271.78125 L 152.578125 268.125 L 152.078125 268.125 C 152.078125 269.75 151.484375 271.875 149.515625 271.96875 L 149.515625 272.40625 L 151.203125 272.40625 L 151.203125 277.90625 C 151.203125 280.34375 153.078125 280.59375 153.796875 280.59375 C 155.203125 280.59375 155.765625 279.1875 155.765625 277.90625 L 155.765625 276.78125 L 155.265625 276.78125 L 155.265625 277.875 C 155.265625 279.34375 154.671875 280.09375 153.921875 280.09375 C 152.578125 280.09375 152.578125 278.28125 152.578125 277.9375 Z M 152.578125 272.40625 "/>
<path style=" stroke:none;fill-rule:nonzero;fill:rgb(0%,0%,0%);fill-opacity:1;" d="M 76.34375 187.851562 C 76.882812 188.539062 76.710938 188.675781 75.65625 189.503906 L 76.039062 189.996094 C 76.585938 189.527344 77.355469 188.886719 77.796875 188.539062 C 78.191406 188.230469 79.023438 187.621094 79.582031 187.21875 L 79.195312 186.730469 C 78.140625 187.558594 77.964844 187.691406 77.425781 187.003906 L 75.152344 184.101562 C 73.878906 182.476562 74.320312 180.703125 75.300781 179.933594 C 76.3125 179.144531 77.136719 179.84375 77.851562 180.753906 L 80.722656 184.421875 C 81.261719 185.109375 81.089844 185.246094 80.03125 186.074219 L 80.417969 186.566406 C 80.941406 186.117188 81.734375 185.457031 82.152344 185.128906 C 82.542969 184.820312 83.398438 184.1875 83.9375 183.808594 L 83.550781 183.316406 C 82.738281 183.953125 82.34375 184.261719 81.980469 183.792969 L 79.628906 180.792969 C 78.566406 179.441406 78.203125 178.972656 77.265625 178.792969 C 76.832031 178.695312 76.066406 178.78125 75.15625 179.492188 C 73.828125 180.535156 73.871094 182.007812 74.082031 182.835938 L 69.765625 177.324219 L 67.636719 179.269531 L 68.023438 179.761719 C 69.128906 178.894531 69.328125 178.898438 69.945312 179.683594 Z M 76.34375 187.851562 "/>
<path style=" stroke:none;fill-rule:nonzero;fill:rgb(0%,0%,0%);fill-opacity:1;" d="M 86.21875 173.527344 C 85.820312 172.210938 86.632812 171.574219 86.878906 171.378906 L 86.492188 170.886719 C 86.144531 171.203125 85.71875 171.574219 85.351562 171.863281 C 85.082031 172.074219 84.324219 172.628906 83.960938 172.875 L 84.34375 173.367188 C 84.835938 172.980469 85.292969 173.058594 85.601562 173.453125 C 85.738281 173.625 85.734375 173.667969 85.8125 173.921875 L 87.21875 179.011719 L 82.203125 176.15625 C 81.996094 176.039062 81.929688 176.011719 81.875 175.9375 C 81.566406 175.542969 82.128906 175.101562 82.449219 174.851562 L 82.066406 174.359375 C 81.667969 174.710938 80.652344 175.542969 80.382812 175.757812 C 79.964844 176.082031 79.304688 176.558594 78.816406 176.902344 L 79.203125 177.394531 C 79.964844 176.796875 80.261719 176.566406 80.90625 176.933594 L 87.757812 180.8125 C 87.816406 181.089844 87.996094 181.777344 88.097656 182.058594 C 88.425781 183.1875 88.832031 184.617188 87.824219 185.40625 C 87.75 185.464844 87.382812 185.753906 86.855469 185.691406 C 87.308594 185.257812 87.160156 184.816406 86.949219 184.542969 C 86.640625 184.152344 86.152344 184.136719 85.785156 184.425781 C 85.464844 184.675781 85.273438 185.140625 85.640625 185.609375 C 86.199219 186.324219 87.308594 186.367188 88.09375 185.75 C 89.078125 184.980469 89.003906 183.570312 88.679688 182.394531 Z M 86.21875 173.527344 "/>
<path style=" stroke:none;fill-rule:nonzero;fill:rgb(0%,0%,0%);fill-opacity:1;" d="M 90.179688 169.386719 L 89.371094 168.355469 L 87.242188 170.300781 L 87.628906 170.792969 C 88.738281 169.925781 88.9375 169.925781 89.476562 170.617188 L 95.21875 177.945312 C 95.777344 178.660156 95.605469 178.792969 94.546875 179.625 L 94.933594 180.117188 C 95.457031 179.667969 96.25 179.007812 96.640625 178.699219 C 97.085938 178.351562 97.890625 177.757812 98.453125 177.359375 L 98.066406 176.867188 C 97.03125 177.675781 96.859375 177.8125 96.300781 177.097656 L 94.125 174.320312 C 94.410156 174.53125 95.730469 174.847656 96.910156 173.921875 C 98.78125 172.457031 99.1875 169.636719 97.609375 167.617188 C 96.046875 165.625 93.332031 165.253906 91.5625 166.640625 C 90.332031 167.601562 90.207031 168.8125 90.179688 169.386719 Z M 93.449219 173.457031 L 90.710938 169.964844 C 90.519531 168.804688 90.933594 167.765625 91.746094 167.128906 C 92.902344 166.222656 94.917969 166.867188 96.304688 168.640625 C 97.789062 170.535156 97.746094 172.710938 96.589844 173.617188 C 95.953125 174.117188 95.109375 174.261719 94.191406 173.949219 C 93.71875 173.800781 93.699219 173.777344 93.449219 173.457031 Z M 93.449219 173.457031 "/>
<path style=" stroke:none;fill-rule:nonzero;fill:rgb(0%,0%,0%);fill-opacity:1;" d="M 105.992188 161.089844 C 104.433594 159.097656 101.574219 158.636719 99.679688 160.121094 C 97.710938 161.664062 97.535156 164.578125 99.058594 166.523438 C 100.65625 168.566406 103.457031 168.792969 105.300781 167.347656 C 107.195312 165.863281 107.554688 163.082031 105.992188 161.089844 Z M 105.015625 166.933594 C 104.328125 167.476562 103.390625 167.695312 102.394531 167.285156 C 101.460938 166.902344 100.707031 165.945312 100.265625 165.378906 C 99.78125 164.765625 99.128906 163.925781 98.957031 162.949219 C 98.816406 161.910156 99.285156 160.984375 99.921875 160.484375 C 100.613281 159.945312 101.546875 159.769531 102.503906 160.128906 C 103.441406 160.46875 104.15625 161.378906 104.617188 161.96875 C 105.0625 162.535156 105.738281 163.394531 105.929688 164.351562 C 106.121094 165.355469 105.78125 166.335938 105.015625 166.933594 Z M 105.015625 166.933594 "/>
<path style=" stroke:none;fill-rule:nonzero;fill:rgb(0%,0%,0%);fill-opacity:1;" d="M 106.886719 155.703125 L 109.152344 153.929688 L 108.765625 153.4375 L 106.503906 155.210938 L 104.246094 152.332031 L 103.855469 152.640625 C 104.855469 153.921875 105.699219 155.960938 104.207031 157.246094 L 104.476562 157.59375 L 105.804688 156.550781 L 109.199219 160.878906 C 110.703125 162.800781 112.332031 161.839844 112.898438 161.398438 C 114.003906 160.527344 113.578125 159.074219 112.789062 158.066406 L 112.09375 157.179688 L 111.703125 157.488281 L 112.375 158.351562 C 113.28125 159.507812 113.277344 160.464844 112.6875 160.925781 C 111.628906 161.753906 110.511719 160.328125 110.300781 160.058594 Z M 106.886719 155.703125 "/>
<path style=" stroke:none;fill-rule:nonzero;fill:rgb(0%,0%,0%);fill-opacity:1;" d="M 113.839844 153.988281 C 112.109375 151.574219 113.128906 150.140625 113.667969 149.714844 C 115.269531 148.464844 117.097656 150.445312 117.578125 151.058594 Z M 114.109375 154.332031 L 118.488281 150.902344 C 118.832031 150.632812 118.882812 150.59375 118.613281 150.25 C 117.398438 148.699219 115.34375 147.847656 113.398438 149.371094 C 111.578125 150.796875 111.398438 153.558594 112.941406 155.527344 C 114.578125 157.617188 117.421875 157.851562 119.21875 156.445312 C 121.136719 154.941406 120.480469 152.636719 120.25 152.339844 C 120.136719 152.191406 119.972656 152.238281 119.875 152.316406 C 119.753906 152.414062 119.78125 152.550781 119.851562 152.691406 C 120.582031 154.738281 119.15625 155.859375 119.007812 155.972656 C 118.222656 156.589844 117.238281 156.605469 116.410156 156.304688 C 115.363281 155.929688 114.554688 154.898438 114.109375 154.332031 Z M 114.109375 154.332031 "/>
<path style=" stroke:none;fill-rule:nonzero;fill:rgb(0%,0%,0%);fill-opacity:1;" d="M 119.667969 147.121094 L 122.964844 151.324219 C 123.503906 152.015625 123.332031 152.148438 122.273438 152.976562 L 122.660156 153.46875 C 123.207031 153.003906 123.972656 152.359375 124.417969 152.015625 C 124.808594 151.707031 125.640625 151.09375 126.199219 150.695312 L 125.816406 150.203125 C 124.757812 151.03125 124.585938 151.167969 124.046875 150.476562 L 121.773438 147.574219 C 120.5 145.953125 120.9375 144.179688 121.921875 143.410156 C 122.929688 142.617188 123.757812 143.320312 124.46875 144.230469 L 127.34375 147.894531 C 127.882812 148.585938 127.710938 148.71875 126.652344 149.546875 L 127.039062 150.039062 C 127.558594 149.589844 128.351562 148.929688 128.769531 148.601562 C 129.164062 148.292969 130.019531 147.664062 130.554688 147.285156 L 130.167969 146.792969 C 129.359375 147.429688 128.964844 147.734375 128.597656 147.269531 L 126.246094 144.269531 C 125.1875 142.914062 124.820312 142.449219 123.886719 142.265625 C 123.453125 142.171875 122.683594 142.253906 121.773438 142.96875 C 120.617188 143.875 120.402344 145.117188 120.730469 146.445312 L 119.4375 144.800781 L 117.359375 146.707031 L 117.746094 147.199219 C 118.851562 146.332031 119.050781 146.332031 119.667969 147.121094 Z M 119.667969 147.121094 "/>
<path style=" stroke:none;fill-rule:nonzero;fill:rgb(0%,0%,0%);fill-opacity:1;" d="M 135.605469 141.34375 L 136.703125 142.746094 L 138.832031 140.800781 L 138.445312 140.308594 C 137.363281 141.15625 137.164062 141.15625 136.546875 140.367188 L 132.191406 134.808594 L 130.011719 136.792969 L 130.398438 137.285156 C 131.480469 136.4375 131.707031 136.417969 132.320312 137.207031 L 134.5 139.984375 C 135.578125 141.363281 135.644531 143.019531 134.488281 143.925781 C 133.183594 144.945312 132.535156 144.265625 131.898438 143.453125 L 127.8125 138.238281 L 125.632812 140.222656 L 126.019531 140.714844 C 127.25 139.75 127.289062 139.800781 128.367188 141.175781 L 130.21875 143.539062 C 131.179688 144.769531 132.300781 146.195312 134.683594 144.324219 C 135.570312 143.632812 135.914062 142.648438 135.605469 141.34375 Z M 135.605469 141.34375 "/>
<path style=" stroke:none;fill-rule:nonzero;fill:rgb(0%,0%,0%);fill-opacity:1;" d="M 140.039062 134.929688 C 140.441406 134.734375 141.914062 133.980469 142.800781 135.109375 C 143.414062 135.898438 143.375 136.960938 142.144531 137.925781 C 140.816406 138.964844 139.558594 138.523438 138.203125 137.402344 C 138 137.242188 137.960938 137.195312 137.789062 137.328125 C 137.589844 137.484375 137.667969 137.582031 137.878906 137.851562 L 139.519531 139.945312 C 139.730469 140.214844 139.808594 140.3125 139.980469 140.175781 C 140.054688 140.121094 140.058594 140.074219 140.125 139.550781 C 140.128906 139.503906 140.109375 139.480469 140.171875 138.953125 C 141.363281 139.054688 142.09375 138.519531 142.414062 138.269531 C 144.210938 136.863281 144.121094 135.226562 143.234375 134.09375 C 142.597656 133.285156 141.746094 133.15625 141.414062 133.140625 C 140.492188 133.027344 139.78125 133.386719 139.019531 133.785156 C 138 134.304688 136.8125 134.917969 136.097656 134.007812 C 135.65625 133.441406 135.546875 132.496094 136.902344 131.433594 C 138.625 130.085938 139.839844 131.433594 140.230469 131.882812 C 140.347656 132.03125 140.492188 131.914062 140.519531 131.894531 C 140.738281 131.722656 140.679688 131.648438 140.449219 131.351562 L 139.199219 129.753906 C 139.003906 129.507812 138.910156 129.386719 138.734375 129.519531 C 138.664062 129.578125 138.613281 129.617188 138.570312 129.96875 C 138.558594 130.054688 138.527344 130.320312 138.492188 130.425781 C 137.554688 130.445312 136.914062 130.945312 136.671875 131.140625 C 134.75 132.640625 134.988281 134.164062 135.683594 135.046875 C 136.109375 135.589844 136.699219 135.839844 137.386719 135.855469 C 138.214844 135.84375 138.734375 135.597656 140.039062 134.929688 Z M 140.039062 134.929688 "/>
<path style=" stroke:none;fill-rule:nonzero;fill:rgb(0%,0%,0%);fill-opacity:1;" d="M 143.984375 130.371094 C 142.253906 127.957031 143.273438 126.519531 143.816406 126.097656 C 145.414062 124.84375 147.242188 126.824219 147.726562 127.441406 Z M 144.253906 130.714844 L 148.632812 127.285156 C 148.980469 127.011719 149.027344 126.976562 148.757812 126.628906 C 147.542969 125.082031 145.488281 124.230469 143.542969 125.753906 C 141.722656 127.179688 141.546875 129.941406 143.085938 131.90625 C 144.726562 134 147.566406 134.230469 149.363281 132.824219 C 151.28125 131.320312 150.628906 129.015625 150.394531 128.722656 C 150.28125 128.574219 150.121094 128.621094 150.019531 128.699219 C 149.898438 128.792969 149.925781 128.929688 149.996094 129.074219 C 150.726562 131.121094 149.300781 132.238281 149.152344 132.355469 C 148.367188 132.972656 147.386719 132.984375 146.554688 132.683594 C 145.507812 132.3125 144.699219 131.28125 144.253906 130.714844 Z M 144.253906 130.714844 "/>
<path style=" stroke:none;fill-rule:nonzero;fill:rgb(0%,0%,0%);fill-opacity:1;" d="M 251.90625 198.867188 C 249.375 198.867188 247.25 200.835938 247.25 203.242188 C 247.25 205.742188 249.4375 207.679688 251.90625 207.679688 C 254.5 207.679688 256.40625 205.617188 256.40625 203.273438 C 256.40625 200.867188 254.4375 198.867188 251.90625 198.867188 Z M 255.90625 203.242188 C 255.90625 204.117188 255.5 204.992188 254.5625 205.523438 C 253.6875 206.023438 252.46875 206.023438 251.75 206.023438 C 250.96875 206.023438 249.90625 206.023438 249.03125 205.554688 C 248.125 205.023438 247.6875 204.085938 247.6875 203.273438 C 247.6875 202.398438 248.125 201.554688 249 201.023438 C 249.84375 200.492188 251 200.492188 251.75 200.492188 C 252.46875 200.492188 253.5625 200.492188 254.4375 200.929688 C 255.34375 201.398438 255.90625 202.273438 255.90625 203.242188 Z M 255.90625 203.242188 "/>
<path style=" stroke:none;fill-rule:nonzero;fill:rgb(0%,0%,0%);fill-opacity:1;" d="M 248.6875 194.84375 L 247.375 194.84375 L 247.59375 197.71875 L 248.21875 197.71875 C 248.21875 196.3125 248.34375 196.15625 249.21875 196.15625 L 258.53125 196.15625 C 259.4375 196.15625 259.4375 196.375 259.4375 197.71875 L 260.0625 197.71875 C 260.03125 197.03125 260 196 260 195.5 C 260 194.9375 260.03125 193.9375 260.0625 193.25 L 259.4375 193.25 C 259.4375 194.5625 259.4375 194.78125 258.53125 194.78125 L 255 194.78125 C 255.34375 194.6875 256.40625 193.84375 256.40625 192.34375 C 256.40625 189.96875 254.4375 187.90625 251.875 187.90625 C 249.34375 187.90625 247.375 189.8125 247.375 192.0625 C 247.375 193.625 248.25 194.46875 248.6875 194.84375 Z M 253.90625 194.78125 L 249.46875 194.78125 C 248.4375 194.21875 247.875 193.25 247.875 192.21875 C 247.875 190.75 249.625 189.5625 251.875 189.5625 C 254.28125 189.5625 255.96875 190.9375 255.96875 192.40625 C 255.96875 193.21875 255.5625 193.96875 254.75 194.5 C 254.34375 194.78125 254.3125 194.78125 253.90625 194.78125 Z M 253.90625 194.78125 "/>
<path style=" stroke:none;fill-rule:nonzero;fill:rgb(0%,0%,0%);fill-opacity:1;" d="M 248.6875 183.773438 L 247.375 183.773438 L 247.59375 186.648438 L 248.21875 186.648438 C 248.21875 185.242188 248.34375 185.085938 249.21875 185.085938 L 258.53125 185.085938 C 259.4375 185.085938 259.4375 185.304688 259.4375 186.648438 L 260.0625 186.648438 C 260.03125 185.960938 260 184.929688 260 184.429688 C 260 183.867188 260.03125 182.867188 260.0625 182.179688 L 259.4375 182.179688 C 259.4375 183.492188 259.4375 183.710938 258.53125 183.710938 L 255 183.710938 C 255.34375 183.617188 256.40625 182.773438 256.40625 181.273438 C 256.40625 178.898438 254.4375 176.835938 251.875 176.835938 C 249.34375 176.835938 247.375 178.742188 247.375 180.992188 C 247.375 182.554688 248.25 183.398438 248.6875 183.773438 Z M 253.90625 183.710938 L 249.46875 183.710938 C 248.4375 183.148438 247.875 182.179688 247.875 181.148438 C 247.875 179.679688 249.625 178.492188 251.875 178.492188 C 254.28125 178.492188 255.96875 179.867188 255.96875 181.335938 C 255.96875 182.148438 255.5625 182.898438 254.75 183.429688 C 254.34375 183.710938 254.3125 183.710938 253.90625 183.710938 Z M 253.90625 183.710938 "/>
<path style=" stroke:none;fill-rule:nonzero;fill:rgb(0%,0%,0%);fill-opacity:1;" d="M 251.90625 166.207031 C 249.375 166.207031 247.25 168.175781 247.25 170.582031 C 247.25 173.082031 249.4375 175.019531 251.90625 175.019531 C 254.5 175.019531 256.40625 172.957031 256.40625 170.613281 C 256.40625 168.207031 254.4375 166.207031 251.90625 166.207031 Z M 255.90625 170.582031 C 255.90625 171.457031 255.5 172.332031 254.5625 172.863281 C 253.6875 173.363281 252.46875 173.363281 251.75 173.363281 C 250.96875 173.363281 249.90625 173.363281 249.03125 172.894531 C 248.125 172.363281 247.6875 171.425781 247.6875 170.613281 C 247.6875 169.738281 248.125 168.894531 249 168.363281 C 249.84375 167.832031 251 167.832031 251.75 167.832031 C 252.46875 167.832031 253.5625 167.832031 254.4375 168.269531 C 255.34375 168.738281 255.90625 169.613281 255.90625 170.582031 Z M 255.90625 170.582031 "/>
<path style=" stroke:none;fill-rule:nonzero;fill:rgb(0%,0%,0%);fill-opacity:1;" d="M 252.3125 161.460938 C 252.40625 161.023438 252.71875 159.398438 254.15625 159.398438 C 255.15625 159.398438 255.96875 160.085938 255.96875 161.648438 C 255.96875 163.335938 254.84375 164.054688 253.125 164.429688 C 252.875 164.492188 252.8125 164.492188 252.8125 164.710938 C 252.8125 164.960938 252.9375 164.960938 253.28125 164.960938 L 255.9375 164.960938 C 256.28125 164.960938 256.40625 164.960938 256.40625 164.742188 C 256.40625 164.648438 256.375 164.617188 256 164.242188 C 255.96875 164.210938 255.9375 164.210938 255.5625 163.835938 C 256.375 162.960938 256.40625 162.054688 256.40625 161.648438 C 256.40625 159.367188 255.0625 158.429688 253.625 158.429688 C 252.59375 158.429688 251.96875 159.023438 251.75 159.273438 C 251.09375 159.929688 250.9375 160.710938 250.78125 161.554688 C 250.5625 162.679688 250.3125 163.992188 249.15625 163.992188 C 248.4375 163.992188 247.625 163.492188 247.625 161.773438 C 247.625 159.585938 249.4375 159.460938 250.03125 159.429688 C 250.21875 159.429688 250.21875 159.242188 250.21875 159.210938 C 250.21875 158.929688 250.125 158.929688 249.75 158.929688 L 247.71875 158.929688 C 247.40625 158.929688 247.25 158.929688 247.25 159.148438 C 247.25 159.242188 247.25 159.304688 247.5 159.554688 C 247.5625 159.617188 247.75 159.804688 247.8125 159.898438 C 247.25 160.648438 247.25 161.460938 247.25 161.773438 C 247.25 164.210938 248.59375 164.960938 249.71875 164.960938 C 250.40625 164.960938 250.96875 164.648438 251.40625 164.117188 C 251.90625 163.460938 252.03125 162.898438 252.3125 161.460938 Z M 252.3125 161.460938 "/>
<path style=" stroke:none;fill-rule:nonzero;fill:rgb(0%,0%,0%);fill-opacity:1;" d="M 247.375 154.226562 L 247.59375 157.007812 L 248.21875 157.007812 C 248.21875 155.726562 248.34375 155.539062 249.3125 155.539062 L 254.6875 155.539062 C 255.5625 155.539062 255.5625 155.757812 255.5625 157.101562 L 256.1875 157.101562 C 256.15625 156.476562 256.125 155.382812 256.125 154.914062 C 256.125 154.195312 256.15625 153.507812 256.1875 152.820312 L 255.5625 152.820312 C 255.5625 154.164062 255.46875 154.226562 254.6875 154.226562 Z M 243.90625 154.164062 C 243.28125 154.164062 242.84375 154.632812 242.84375 155.195312 C 242.84375 155.820312 243.375 156.257812 243.90625 156.257812 C 244.4375 156.257812 244.96875 155.820312 244.96875 155.195312 C 244.96875 154.632812 244.53125 154.164062 243.90625 154.164062 Z M 243.90625 154.164062 "/>
<path style=" stroke:none;fill-rule:nonzero;fill:rgb(0%,0%,0%);fill-opacity:1;" d="M 248.21875 148.785156 L 248.21875 145.910156 L 247.59375 145.910156 L 247.59375 148.785156 L 243.9375 148.785156 L 243.9375 149.285156 C 245.5625 149.285156 247.6875 149.878906 247.78125 151.847656 L 248.21875 151.847656 L 248.21875 150.160156 L 253.71875 150.160156 C 256.15625 150.160156 256.40625 148.285156 256.40625 147.566406 C 256.40625 146.160156 255 145.597656 253.71875 145.597656 L 252.59375 145.597656 L 252.59375 146.097656 L 253.6875 146.097656 C 255.15625 146.097656 255.90625 146.691406 255.90625 147.441406 C 255.90625 148.785156 254.09375 148.785156 253.75 148.785156 Z M 248.21875 148.785156 "/>
<path style=" stroke:none;fill-rule:nonzero;fill:rgb(0%,0%,0%);fill-opacity:1;" d="M 251.15625 142.257812 C 248.1875 142.132812 247.6875 140.445312 247.6875 139.757812 C 247.6875 137.726562 250.375 137.507812 251.15625 137.507812 Z M 251.59375 142.257812 L 251.59375 136.695312 C 251.59375 136.257812 251.59375 136.195312 251.15625 136.195312 C 249.1875 136.195312 247.25 137.289062 247.25 139.757812 C 247.25 142.070312 249.3125 143.914062 251.8125 143.914062 C 254.46875 143.914062 256.40625 141.820312 256.40625 139.539062 C 256.40625 137.101562 254.1875 136.195312 253.8125 136.195312 C 253.625 136.195312 253.5625 136.351562 253.5625 136.476562 C 253.5625 136.632812 253.6875 136.695312 253.84375 136.726562 C 255.90625 137.414062 255.90625 139.226562 255.90625 139.414062 C 255.90625 140.414062 255.3125 141.195312 254.5625 141.664062 C 253.625 142.257812 252.3125 142.257812 251.59375 142.257812 Z M 251.59375 142.257812 "/>
<path style="fill:none;stroke-width:1.6;stroke-linecap:butt;stroke-linejoin:miter;stroke:rgb(100%,0%,0%);stroke-opacity:1;stroke-miterlimit:4;" d="M 569.410156 259.191406 L 569.410156 239.988281 L 550.210938 239.988281 "/>
<use xlink:href="#surface11" transform="matrix(1,0,0,1,367,226)" mask="url(#mask1)"/>
<path style=" stroke:none;fill-rule:nonzero;fill:rgb(0%,0%,0%);fill-opacity:1;" d="M 368.027344 240.378906 C 368.027344 239.066406 367.683594 236.285156 365.652344 236.285156 C 362.871094 236.285156 359.808594 241.910156 359.808594 246.472656 C 359.808594 248.347656 360.371094 250.566406 362.183594 250.566406 C 364.996094 250.566406 368.027344 244.847656 368.027344 240.378906 Z M 361.902344 243.097656 C 362.246094 241.847656 362.652344 240.253906 363.464844 238.816406 C 363.996094 237.847656 364.714844 236.722656 365.621094 236.722656 C 366.589844 236.722656 366.714844 238.003906 366.714844 239.128906 C 366.714844 240.128906 366.558594 241.128906 366.089844 243.097656 Z M 365.902344 243.753906 C 365.683594 244.660156 365.277344 246.347656 364.496094 247.785156 C 363.808594 249.160156 363.058594 250.128906 362.183594 250.128906 C 361.527344 250.128906 361.121094 249.535156 361.121094 247.691406 C 361.121094 246.847656 361.246094 245.691406 361.746094 243.753906 Z M 365.902344 243.753906 "/>
<g clip-path="url(#clip6)" clip-rule="nonzero">
<path style="fill:none;stroke-width:3.2;stroke-linecap:butt;stroke-linejoin:miter;stroke:rgb(0%,0%,0%);stroke-opacity:1;stroke-dasharray:3.2,3.2;stroke-miterlimit:4;" d="M 506.800781 40.21875 C 576.921875 100.128906 614.113281 189.996094 606.828125 281.9375 "/>
</g>
<path style=" stroke:none;fill-rule:nonzero;fill:rgb(0%,0%,0%);fill-opacity:1;" d="M 414.839844 164.582031 C 414.53125 164.191406 414.511719 164.164062 414.140625 164.453125 C 413.949219 166.234375 412.570312 167.3125 412.078125 167.699219 L 412.464844 168.191406 C 412.785156 167.941406 413.695312 167.226562 414.175781 166.171875 L 420.558594 174.316406 C 421 174.878906 421.085938 175.089844 419.683594 176.191406 L 419.191406 176.574219 L 419.578125 177.066406 C 420.078125 176.59375 421.433594 175.535156 422.074219 175.03125 C 422.6875 174.550781 424.066406 173.472656 424.644531 173.097656 L 424.257812 172.605469 L 423.765625 172.992188 C 422.339844 174.109375 422.179688 173.957031 421.738281 173.390625 Z M 414.839844 164.582031 "/>
<path style=" stroke:none;fill-rule:nonzero;fill:rgb(0%,0%,0%);fill-opacity:1;" d="M 433.097656 274.957031 C 433.097656 271.707031 434.722656 270.863281 435.785156 270.863281 C 435.972656 270.863281 437.222656 270.894531 437.910156 271.613281 C 437.097656 271.675781 436.972656 272.269531 436.972656 272.519531 C 436.972656 273.050781 437.347656 273.425781 437.878906 273.425781 C 438.410156 273.425781 438.816406 273.113281 438.816406 272.488281 C 438.816406 271.144531 437.285156 270.363281 435.753906 270.363281 C 433.253906 270.363281 431.441406 272.519531 431.441406 274.988281 C 431.441406 277.550781 433.410156 279.519531 435.722656 279.519531 C 438.378906 279.519531 439.035156 277.113281 439.035156 276.925781 C 439.035156 276.738281 438.816406 276.738281 438.753906 276.738281 C 438.597656 276.738281 438.535156 276.800781 438.503906 276.925781 C 437.941406 278.769531 436.628906 279.019531 435.910156 279.019531 C 434.847656 279.019531 433.097656 278.175781 433.097656 274.957031 Z M 433.097656 274.957031 "/>
<path style=" stroke:none;fill-rule:nonzero;fill:rgb(0%,0%,0%);fill-opacity:1;" d="M 448.984375 275.019531 C 448.984375 272.488281 447.015625 270.363281 444.609375 270.363281 C 442.109375 270.363281 440.171875 272.550781 440.171875 275.019531 C 440.171875 277.613281 442.234375 279.519531 444.578125 279.519531 C 446.984375 279.519531 448.984375 277.550781 448.984375 275.019531 Z M 444.609375 279.019531 C 443.734375 279.019531 442.859375 278.613281 442.328125 277.675781 C 441.828125 276.800781 441.828125 275.582031 441.828125 274.863281 C 441.828125 274.082031 441.828125 273.019531 442.296875 272.144531 C 442.828125 271.238281 443.765625 270.800781 444.578125 270.800781 C 445.453125 270.800781 446.296875 271.238281 446.828125 272.113281 C 447.359375 272.957031 447.359375 274.113281 447.359375 274.863281 C 447.359375 275.582031 447.359375 276.675781 446.921875 277.550781 C 446.453125 278.457031 445.578125 279.019531 444.609375 279.019531 Z M 444.609375 279.019531 "/>
<path style=" stroke:none;fill-rule:nonzero;fill:rgb(0%,0%,0%);fill-opacity:1;" d="M 453.726562 275.425781 C 454.164062 275.519531 455.789062 275.832031 455.789062 277.269531 C 455.789062 278.269531 455.101562 279.082031 453.539062 279.082031 C 451.851562 279.082031 451.132812 277.957031 450.757812 276.238281 C 450.695312 275.988281 450.695312 275.925781 450.476562 275.925781 C 450.226562 275.925781 450.226562 276.050781 450.226562 276.394531 L 450.226562 279.050781 C 450.226562 279.394531 450.226562 279.519531 450.445312 279.519531 C 450.539062 279.519531 450.570312 279.488281 450.945312 279.113281 C 450.976562 279.082031 450.976562 279.050781 451.351562 278.675781 C 452.226562 279.488281 453.132812 279.519531 453.539062 279.519531 C 455.820312 279.519531 456.757812 278.175781 456.757812 276.738281 C 456.757812 275.707031 456.164062 275.082031 455.914062 274.863281 C 455.257812 274.207031 454.476562 274.050781 453.632812 273.894531 C 452.507812 273.675781 451.195312 273.425781 451.195312 272.269531 C 451.195312 271.550781 451.695312 270.738281 453.414062 270.738281 C 455.601562 270.738281 455.726562 272.550781 455.757812 273.144531 C 455.757812 273.332031 455.945312 273.332031 455.976562 273.332031 C 456.257812 273.332031 456.257812 273.238281 456.257812 272.863281 L 456.257812 270.832031 C 456.257812 270.519531 456.257812 270.363281 456.039062 270.363281 C 455.945312 270.363281 455.882812 270.363281 455.632812 270.613281 C 455.570312 270.675781 455.382812 270.863281 455.289062 270.925781 C 454.539062 270.363281 453.726562 270.363281 453.414062 270.363281 C 450.976562 270.363281 450.226562 271.707031 450.226562 272.832031 C 450.226562 273.519531 450.539062 274.082031 451.070312 274.519531 C 451.726562 275.019531 452.289062 275.144531 453.726562 275.425781 Z M 453.726562 275.425781 "/>
<path style=" stroke:none;fill-rule:nonzero;fill:rgb(0%,0%,0%);fill-opacity:1;" d="M 469.8125 269.332031 C 469.8125 268.019531 469.46875 265.238281 467.4375 265.238281 C 464.65625 265.238281 461.59375 270.863281 461.59375 275.425781 C 461.59375 277.300781 462.15625 279.519531 463.96875 279.519531 C 466.78125 279.519531 469.8125 273.800781 469.8125 269.332031 Z M 463.6875 272.050781 C 464.03125 270.800781 464.4375 269.207031 465.25 267.769531 C 465.78125 266.800781 466.5 265.675781 467.40625 265.675781 C 468.375 265.675781 468.5 266.957031 468.5 268.082031 C 468.5 269.082031 468.34375 270.082031 467.875 272.050781 Z M 467.6875 272.707031 C 467.46875 273.613281 467.0625 275.300781 466.28125 276.738281 C 465.59375 278.113281 464.84375 279.082031 463.96875 279.082031 C 463.3125 279.082031 462.90625 278.488281 462.90625 276.644531 C 462.90625 275.800781 463.03125 274.644531 463.53125 272.707031 Z M 467.6875 272.707031 "/>
<path style=" stroke:none;fill-rule:nonzero;fill:rgb(0%,0%,0%);fill-opacity:1;" d="M 542.375 199.144531 C 542.46875 198.707031 542.78125 197.082031 544.21875 197.082031 C 545.21875 197.082031 546.03125 197.769531 546.03125 199.332031 C 546.03125 201.019531 544.90625 201.738281 543.1875 202.113281 C 542.9375 202.175781 542.875 202.175781 542.875 202.394531 C 542.875 202.644531 543 202.644531 543.34375 202.644531 L 546 202.644531 C 546.34375 202.644531 546.46875 202.644531 546.46875 202.425781 C 546.46875 202.332031 546.4375 202.300781 546.0625 201.925781 C 546.03125 201.894531 546 201.894531 545.625 201.519531 C 546.4375 200.644531 546.46875 199.738281 546.46875 199.332031 C 546.46875 197.050781 545.125 196.113281 543.6875 196.113281 C 542.65625 196.113281 542.03125 196.707031 541.8125 196.957031 C 541.15625 197.613281 541 198.394531 540.84375 199.238281 C 540.625 200.363281 540.375 201.675781 539.21875 201.675781 C 538.5 201.675781 537.6875 201.175781 537.6875 199.457031 C 537.6875 197.269531 539.5 197.144531 540.09375 197.113281 C 540.28125 197.113281 540.28125 196.925781 540.28125 196.894531 C 540.28125 196.613281 540.1875 196.613281 539.8125 196.613281 L 537.78125 196.613281 C 537.46875 196.613281 537.3125 196.613281 537.3125 196.832031 C 537.3125 196.925781 537.3125 196.988281 537.5625 197.238281 C 537.625 197.300781 537.8125 197.488281 537.875 197.582031 C 537.3125 198.332031 537.3125 199.144531 537.3125 199.457031 C 537.3125 201.894531 538.65625 202.644531 539.78125 202.644531 C 540.46875 202.644531 541.03125 202.332031 541.46875 201.800781 C 541.96875 201.144531 542.09375 200.582031 542.375 199.144531 Z M 542.375 199.144531 "/>
<path style=" stroke:none;fill-rule:nonzero;fill:rgb(0%,0%,0%);fill-opacity:1;" d="M 537.4375 191.910156 L 537.65625 194.691406 L 538.28125 194.691406 C 538.28125 193.410156 538.40625 193.222656 539.375 193.222656 L 544.75 193.222656 C 545.625 193.222656 545.625 193.441406 545.625 194.785156 L 546.25 194.785156 C 546.21875 194.160156 546.1875 193.066406 546.1875 192.597656 C 546.1875 191.878906 546.21875 191.191406 546.25 190.503906 L 545.625 190.503906 C 545.625 191.847656 545.53125 191.910156 544.75 191.910156 Z M 533.96875 191.847656 C 533.34375 191.847656 532.90625 192.316406 532.90625 192.878906 C 532.90625 193.503906 533.4375 193.941406 533.96875 193.941406 C 534.5 193.941406 535.03125 193.503906 535.03125 192.878906 C 535.03125 192.316406 534.59375 191.847656 533.96875 191.847656 Z M 533.96875 191.847656 "/>
<path style=" stroke:none;fill-rule:nonzero;fill:rgb(0%,0%,0%);fill-opacity:1;" d="M 539.40625 187.71875 L 544.75 187.71875 C 545.625 187.71875 545.625 187.9375 545.625 189.28125 L 546.25 189.28125 C 546.21875 188.5625 546.1875 187.5625 546.1875 187 C 546.1875 186.5 546.21875 185.46875 546.25 184.78125 L 545.625 184.78125 C 545.625 186.125 545.625 186.34375 544.75 186.34375 L 541.0625 186.34375 C 539 186.34375 537.875 184.90625 537.875 183.65625 C 537.875 182.375 538.9375 182.15625 540.09375 182.15625 L 544.75 182.15625 C 545.625 182.15625 545.625 182.375 545.625 183.71875 L 546.25 183.71875 C 546.21875 183.03125 546.1875 182 546.1875 181.46875 C 546.1875 180.96875 546.21875 179.90625 546.25 179.25 L 545.625 179.25 C 545.625 180.28125 545.625 180.78125 545.03125 180.78125 L 541.21875 180.78125 C 539.5 180.78125 538.90625 180.78125 538.1875 181.40625 C 537.84375 181.6875 537.4375 182.34375 537.4375 183.5 C 537.4375 184.96875 538.28125 185.90625 539.53125 186.46875 L 537.4375 186.46875 L 537.65625 189.28125 L 538.28125 189.28125 C 538.28125 187.875 538.40625 187.71875 539.40625 187.71875 Z M 539.40625 187.71875 "/>
<path style=" stroke:none;fill-rule:nonzero;fill:rgb(0%,0%,0%);fill-opacity:1;" d="M 536.28125 166.453125 C 534.96875 166.453125 532.1875 166.796875 532.1875 168.828125 C 532.1875 171.609375 537.8125 174.671875 542.375 174.671875 C 544.25 174.671875 546.46875 174.109375 546.46875 172.296875 C 546.46875 169.484375 540.75 166.453125 536.28125 166.453125 Z M 539 172.578125 C 537.75 172.234375 536.15625 171.828125 534.71875 171.015625 C 533.75 170.484375 532.625 169.765625 532.625 168.859375 C 532.625 167.890625 533.90625 167.765625 535.03125 167.765625 C 536.03125 167.765625 537.03125 167.921875 539 168.390625 Z M 539.65625 168.578125 C 540.5625 168.796875 542.25 169.203125 543.6875 169.984375 C 545.0625 170.671875 546.03125 171.421875 546.03125 172.296875 C 546.03125 172.953125 545.4375 173.359375 543.59375 173.359375 C 542.75 173.359375 541.59375 173.234375 539.65625 172.734375 Z M 539.65625 168.578125 "/>
<path style="fill:none;stroke-width:2.4;stroke-linecap:butt;stroke-linejoin:miter;stroke:rgb(0%,0%,0%);stroke-opacity:1;stroke-miterlimit:4;" d="M 319.726562 259.191406 L 607.726562 259.191406 "/>
<path style="fill:none;stroke-width:0.8;stroke-linecap:butt;stroke-linejoin:miter;stroke:rgb(0%,0%,0%);stroke-opacity:1;stroke-miterlimit:4;" d="M 607.726562 259.191406 L 607.726562 -0.0117188 "/>
<path style="fill:none;stroke-width:0.8;stroke-linecap:butt;stroke-linejoin:miter;stroke:rgb(0%,0%,0%);stroke-opacity:1;stroke-miterlimit:4;" d="M 319.726562 259.191406 L 607.726562 43.191406 "/>
<path style="fill:none;stroke-width:2.4;stroke-linecap:butt;stroke-linejoin:miter;stroke:rgb(0%,0%,0%);stroke-opacity:1;stroke-miterlimit:4;" d="M 319.726562 259.191406 L 550.128906 86.390625 "/>
<path style="fill:none;stroke-width:2.4;stroke-linecap:butt;stroke-linejoin:miter;stroke:rgb(0%,0%,0%);stroke-opacity:1;stroke-miterlimit:4;" d="M 550.128906 86.390625 L 550.128906 259.191406 "/>
<path style="fill:none;stroke-width:2.4;stroke-linecap:butt;stroke-linejoin:miter;stroke:rgb(0%,0%,0%);stroke-opacity:1;stroke-miterlimit:4;" d="M 607.726562 43.191406 L 607.726562 259.191406 "/>
<path style="fill:none;stroke-width:1.2;stroke-linecap:butt;stroke-linejoin:miter;stroke:rgb(100%,0%,0%);stroke-opacity:1;stroke-miterlimit:4;" d="M 324.527344 273.589844 L 425.328125 273.589844 "/>
<path style="fill-rule:evenodd;fill:rgb(100%,0%,0%);fill-opacity:1;stroke-width:0.3;stroke-linecap:butt;stroke-linejoin:miter;stroke:rgb(100%,0%,0%);stroke-opacity:1;stroke-miterlimit:4;" d="M 325.96875 273.589844 L 327.167969 272.390625 L 322.96875 273.589844 L 327.167969 274.789062 Z M 325.96875 273.589844 "/>
<path style="fill:none;stroke-width:1.2;stroke-linecap:butt;stroke-linejoin:miter;stroke:rgb(100%,0%,0%);stroke-opacity:1;stroke-miterlimit:4;" d="M 545.328125 273.589844 L 473.328125 273.589844 "/>
<path style="fill-rule:evenodd;fill:rgb(100%,0%,0%);fill-opacity:1;stroke-width:0.3;stroke-linecap:butt;stroke-linejoin:miter;stroke:rgb(100%,0%,0%);stroke-opacity:1;stroke-miterlimit:4;" d="M -543.886719 -273.589844 L -542.6875 -274.789062 L -546.886719 -273.589844 L -542.6875 -272.390625 Z M -543.886719 -273.589844 " transform="matrix(-1,0,0,-1,0,0)"/>
<path style="fill:none;stroke-width:1.2;stroke-linecap:butt;stroke-linejoin:miter;stroke:rgb(100%,0%,0%);stroke-opacity:1;stroke-miterlimit:4;" d="M 545.328125 254.390625 L 545.328125 206.390625 "/>
<path style="fill-rule:evenodd;fill:rgb(100%,0%,0%);fill-opacity:1;stroke-width:0.3;stroke-linecap:butt;stroke-linejoin:miter;stroke:rgb(100%,0%,0%);stroke-opacity:1;stroke-miterlimit:4;" d="M -252.949219 545.328125 L -251.75 544.128906 L -255.949219 545.328125 L -251.75 546.527344 Z M -252.949219 545.328125 " transform="matrix(0,-1,1,0,0,0)"/>
<path style="fill:none;stroke-width:1.2;stroke-linecap:butt;stroke-linejoin:miter;stroke:rgb(100%,0%,0%);stroke-opacity:1;stroke-miterlimit:4;" d="M 545.328125 95.988281 L 545.328125 163.191406 "/>
<path style="fill-rule:evenodd;fill:rgb(100%,0%,0%);fill-opacity:1;stroke-width:0.3;stroke-linecap:butt;stroke-linejoin:miter;stroke:rgb(100%,0%,0%);stroke-opacity:1;stroke-miterlimit:4;" d="M 97.429688 -545.328125 L 98.628906 -546.527344 L 94.429688 -545.328125 L 98.628906 -544.128906 Z M 97.429688 -545.328125 " transform="matrix(0,1,-1,0,0,0)"/>
<path style="fill:none;stroke-width:0.961034;stroke-linecap:butt;stroke-linejoin:miter;stroke:rgb(100%,0%,0%);stroke-opacity:1;stroke-miterlimit:4;" d="M 85.621841 313.938308 L 174.036448 313.937579 " transform="matrix(1,-0.747756,0.747756,1,0,0)"/>
<path style="fill-rule:evenodd;fill:rgb(100%,0%,0%);fill-opacity:1;stroke-width:0.240258;stroke-linecap:butt;stroke-linejoin:miter;stroke:rgb(100%,0%,0%);stroke-opacity:1;stroke-miterlimit:4;" d="M 86.773083 313.939781 L 87.733987 312.978615 L 84.372369 313.937601 L 87.734248 314.900685 Z M 86.773083 313.939781 " transform="matrix(1,-0.747756,0.747756,1,0,0)"/>
<path style="fill:none;stroke-width:0.961034;stroke-linecap:butt;stroke-linejoin:miter;stroke:rgb(100%,0%,0%);stroke-opacity:1;stroke-miterlimit:4;" d="M 308.581997 313.939352 L 197.101919 313.93883 " transform="matrix(1,-0.747756,0.747756,1,0,0)"/>
<path style="fill-rule:evenodd;fill:rgb(100%,0%,0%);fill-opacity:1;stroke-width:0.240258;stroke-linecap:butt;stroke-linejoin:miter;stroke:rgb(100%,0%,0%);stroke-opacity:1;stroke-miterlimit:4;" d="M -307.428881 -313.940384 L -306.467977 -314.90155 L -309.831469 -313.940059 L -306.467716 -312.97948 Z M -307.428881 -313.940384 " transform="matrix(-1,0.747756,-0.747756,-1,0,0)"/>
<path style="fill:none;stroke-width:1.2;stroke-linecap:butt;stroke-linejoin:miter;stroke:rgb(100%,0%,0%);stroke-opacity:1;stroke-miterlimit:4;" d="M 616.792969 47.488281 L 617.328125 129.589844 "/>
<path style="fill-rule:evenodd;fill:rgb(100%,0%,0%);fill-opacity:1;stroke-width:0.299994;stroke-linecap:butt;stroke-linejoin:miter;stroke:rgb(100%,0%,0%);stroke-opacity:1;stroke-miterlimit:4;" d="M 52.949113 -616.455206 L 54.152252 -617.654385 L 49.949113 -616.455254 L 54.152224 -615.255947 Z M 52.949113 -616.455206 " transform="matrix(0.00652656,1,-1,0.00652656,0,0)"/>
<path style="fill:none;stroke-width:1.2;stroke-linecap:butt;stroke-linejoin:miter;stroke:rgb(100%,0%,0%);stroke-opacity:1;stroke-miterlimit:4;" d="M 616.746094 254.996094 L 617.328125 177.589844 "/>
<path style="fill-rule:evenodd;fill:rgb(100%,0%,0%);fill-opacity:1;stroke-width:0.299992;stroke-linecap:butt;stroke-linejoin:miter;stroke:rgb(100%,0%,0%);stroke-opacity:1;stroke-miterlimit:4;" d="M -248.907728 618.629106 L -247.705815 617.428664 L -251.907734 618.628222 L -247.707315 619.827112 Z M -248.907728 618.629106 " transform="matrix(0.00751802,-1,1,0.00751802,0,0)"/>
<g clip-path="url(#clip7)" clip-rule="nonzero">
<path style=" stroke:none;fill-rule:nonzero;fill:rgb(0%,0%,0%);fill-opacity:1;" d="M 617.371094 170.429688 L 617.371094 167.554688 L 616.746094 167.554688 L 616.746094 170.429688 L 613.089844 170.429688 L 613.089844 170.929688 C 614.714844 170.929688 616.839844 171.523438 616.933594 173.492188 L 617.371094 173.492188 L 617.371094 171.804688 L 622.871094 171.804688 C 625.308594 171.804688 625.558594 169.929688 625.558594 169.210938 C 625.558594 167.804688 624.152344 167.242188 622.871094 167.242188 L 621.746094 167.242188 L 621.746094 167.742188 L 622.839844 167.742188 C 624.308594 167.742188 625.058594 168.335938 625.058594 169.085938 C 625.058594 170.429688 623.246094 170.429688 622.902344 170.429688 Z M 617.371094 170.429688 "/>
</g>
<g clip-path="url(#clip8)" clip-rule="nonzero">
<path style=" stroke:none;fill-rule:nonzero;fill:rgb(0%,0%,0%);fill-opacity:1;" d="M 623.839844 159.492188 C 624.621094 159.398438 625.464844 158.867188 625.464844 157.929688 C 625.464844 157.492188 625.183594 156.273438 623.558594 156.273438 L 622.433594 156.273438 L 622.433594 156.773438 L 623.558594 156.773438 C 624.714844 156.773438 624.839844 157.273438 624.839844 157.492188 C 624.839844 158.148438 623.933594 158.242188 623.839844 158.242188 L 619.871094 158.242188 C 619.027344 158.242188 618.246094 158.242188 617.496094 158.960938 C 616.714844 159.742188 616.402344 160.742188 616.402344 161.679688 C 616.402344 163.335938 617.339844 164.710938 618.652344 164.710938 C 619.246094 164.710938 619.589844 164.304688 619.589844 163.773438 C 619.589844 163.210938 619.183594 162.867188 618.683594 162.867188 C 618.433594 162.867188 617.777344 162.960938 617.777344 163.898438 C 617.058594 163.335938 616.839844 162.367188 616.839844 161.742188 C 616.839844 160.742188 617.621094 159.617188 619.402344 159.617188 L 620.121094 159.617188 C 620.183594 160.648438 620.246094 162.023438 620.839844 163.273438 C 621.527344 164.773438 622.558594 165.273438 623.433594 165.273438 C 625.058594 165.273438 625.558594 163.335938 625.558594 162.085938 C 625.558594 160.773438 624.746094 159.867188 623.839844 159.492188 Z M 620.558594 159.617188 L 622.558594 159.617188 C 624.433594 159.617188 625.121094 161.054688 625.121094 161.960938 C 625.121094 162.929688 624.433594 163.742188 623.433594 163.742188 C 622.339844 163.742188 620.683594 162.898438 620.558594 159.617188 Z M 620.558594 159.617188 "/>
</g>
<g clip-path="url(#clip9)" clip-rule="nonzero">
<path style=" stroke:none;fill-rule:nonzero;fill:rgb(0%,0%,0%);fill-opacity:1;" d="M 618.496094 153.964844 L 623.839844 153.964844 C 624.714844 153.964844 624.714844 154.183594 624.714844 155.527344 L 625.339844 155.527344 C 625.308594 154.808594 625.277344 153.808594 625.277344 153.246094 C 625.277344 152.746094 625.308594 151.714844 625.339844 151.027344 L 624.714844 151.027344 C 624.714844 152.371094 624.714844 152.589844 623.839844 152.589844 L 620.152344 152.589844 C 618.089844 152.589844 616.964844 151.152344 616.964844 149.902344 C 616.964844 148.621094 618.027344 148.402344 619.183594 148.402344 L 623.839844 148.402344 C 624.714844 148.402344 624.714844 148.621094 624.714844 149.964844 L 625.339844 149.964844 C 625.308594 149.277344 625.277344 148.246094 625.277344 147.714844 C 625.277344 147.214844 625.308594 146.152344 625.339844 145.496094 L 624.714844 145.496094 C 624.714844 146.527344 624.714844 147.027344 624.121094 147.027344 L 620.308594 147.027344 C 618.589844 147.027344 617.996094 147.027344 617.277344 147.652344 C 616.933594 147.933594 616.527344 148.589844 616.527344 149.746094 C 616.527344 151.214844 617.371094 152.152344 618.621094 152.714844 L 616.527344 152.714844 L 616.746094 155.527344 L 617.371094 155.527344 C 617.371094 154.121094 617.496094 153.964844 618.496094 153.964844 Z M 618.496094 153.964844 "/>
</g>
<g clip-path="url(#clip10)" clip-rule="nonzero">
<path style=" stroke:none;fill-rule:nonzero;fill:rgb(0%,0%,0%);fill-opacity:1;" d="M 615.371094 132.699219 C 614.058594 132.699219 611.277344 133.042969 611.277344 135.074219 C 611.277344 137.855469 616.902344 140.917969 621.464844 140.917969 C 623.339844 140.917969 625.558594 140.355469 625.558594 138.542969 C 625.558594 135.730469 619.839844 132.699219 615.371094 132.699219 Z M 618.089844 138.824219 C 616.839844 138.480469 615.246094 138.074219 613.808594 137.261719 C 612.839844 136.730469 611.714844 136.011719 611.714844 135.105469 C 611.714844 134.136719 612.996094 134.011719 614.121094 134.011719 C 615.121094 134.011719 616.121094 134.167969 618.089844 134.636719 Z M 618.746094 134.824219 C 619.652344 135.042969 621.339844 135.449219 622.777344 136.230469 C 624.152344 136.917969 625.121094 137.667969 625.121094 138.542969 C 625.121094 139.199219 624.527344 139.605469 622.683594 139.605469 C 621.839844 139.605469 620.683594 139.480469 618.746094 138.980469 Z M 618.746094 134.824219 "/>
</g>
</g>
</svg>
