<?xml version="1.0" encoding="UTF-8"?>
<svg xmlns="http://www.w3.org/2000/svg" xmlns:xlink="http://www.w3.org/1999/xlink" width="675.548157pt" height="289.575012pt" viewBox="0 0 675.548157 289.575012" version="1.1">
<defs>
<filter id="alpha" filterUnits="objectBoundingBox" x="0%" y="0%" width="100%" height="100%">
  <feColorMatrix type="matrix" in="SourceGraphic" values="0 0 0 0 1 0 0 0 0 1 0 0 0 0 1 0 0 0 1 0"/>
</filter>
<clipPath id="clip1">
  <rect width="7" height="22"/>
</clipPath>
<g id="surface8" clip-path="url(#clip1)">
<rect x="0" y="0" width="7" height="22" style="fill:rgb(0%,0%,0%);fill-opacity:0.97;stroke:none;"/>
</g>
<mask id="mask0">
  <g filter="url(#alpha)">
<use xlink:href="#surface8"/>
  </g>
</mask>
<clipPath id="clip2">
  <rect width="7" height="22"/>
</clipPath>
<g id="surface10" clip-path="url(#clip2)">
<path style="fill:none;stroke-width:1.6;stroke-linecap:round;stroke-linejoin:round;stroke:rgb(100%,0%,0%);stroke-opacity:1;stroke-miterlimit:4;" d="M 343.269531 123.875 C 345.253906 128.96875 346.503906 134.324219 346.980469 139.769531 " transform="matrix(1,0,0,1,-342,-121)"/>
<path style="fill-rule:evenodd;fill:rgb(100%,0%,0%);fill-opacity:1;stroke-width:0.372701;stroke-linecap:butt;stroke-linejoin:miter;stroke:rgb(100%,0%,0%);stroke-opacity:1;stroke-miterlimit:4;" d="M 225.464409 -256.10452 L 226.956306 -257.597367 L 221.738851 -256.107099 L 226.957256 -254.612622 Z M 225.464409 -256.10452 " transform="matrix(0.389686,1,-1,0.389686,-342,-121)"/>
<path style="fill-rule:evenodd;fill:rgb(100%,0%,0%);fill-opacity:1;stroke-width:0.398478;stroke-linecap:butt;stroke-linejoin:miter;stroke:rgb(100%,0%,0%);stroke-opacity:1;stroke-miterlimit:4;" d="M -166.919992 332.208887 L -165.327659 330.617729 L -170.904287 332.207962 L -165.329174 333.805097 Z M -166.919992 332.208887 " transform="matrix(-0.0874887,-1,1,-0.0874887,-342,-121)"/>
</g>
<clipPath id="clip3">
  <path d="M 520 0 L 596 0 L 596 289.574219 L 520 289.574219 Z M 520 0 "/>
</clipPath>
<clipPath id="clip4">
  <rect width="7" height="23"/>
</clipPath>
<g id="surface14" clip-path="url(#clip4)">
<rect x="0" y="0" width="7" height="23" style="fill:rgb(0%,0%,0%);fill-opacity:0.97;stroke:none;"/>
</g>
<mask id="mask1">
  <g filter="url(#alpha)">
<use xlink:href="#surface14"/>
  </g>
</mask>
<clipPath id="clip5">
  <rect width="7" height="23"/>
</clipPath>
<g id="surface16" clip-path="url(#clip5)">
<path style="fill:none;stroke-width:1.6;stroke-linecap:round;stroke-linejoin:round;stroke:rgb(100%,0%,0%);stroke-opacity:1;stroke-miterlimit:4;" d="M 343.269531 -165.703125 C 345.316406 -160.453125 346.582031 -154.925781 347.023438 -149.308594 " transform="matrix(1,0,0,-1,-342,-146)"/>
<path style="fill-rule:evenodd;fill:rgb(100%,0%,0%);fill-opacity:1;stroke-width:0.372701;stroke-linecap:butt;stroke-linejoin:miter;stroke:rgb(100%,0%,0%);stroke-opacity:1;stroke-miterlimit:4;" d="M -25.937096 -354.072167 L -24.445198 -355.565014 L -29.662654 -354.074746 L -24.44764 -352.581591 Z M -25.937096 -354.072167 " transform="matrix(0.389686,-1,-1,-0.389686,-342,-146)"/>
<path style="fill-rule:evenodd;fill:rgb(100%,0%,0%);fill-opacity:1;stroke-width:0.398768;stroke-linecap:butt;stroke-linejoin:miter;stroke:rgb(100%,0%,0%);stroke-opacity:1;stroke-miterlimit:4;" d="M 123.16927 356.561744 L 124.763379 354.968414 L 119.180784 356.564346 L 124.762599 358.155853 Z M 123.16927 356.561744 " transform="matrix(-0.0786775,1,1,0.0786775,-342,-146)"/>
</g>
<clipPath id="clip6">
  <rect width="6" height="7"/>
</clipPath>
<g id="surface20" clip-path="url(#clip6)">
<rect x="0" y="0" width="6" height="7" style="fill:rgb(0%,0%,0%);fill-opacity:0.97;stroke:none;"/>
</g>
<mask id="mask2">
  <g filter="url(#alpha)">
<use xlink:href="#surface20"/>
  </g>
</mask>
<clipPath id="clip7">
  <rect width="6" height="7"/>
</clipPath>
<g id="surface22" clip-path="url(#clip7)">
<path style="fill-rule:nonzero;fill:rgb(0%,0%,0%);fill-opacity:1;stroke-width:0.8;stroke-linecap:butt;stroke-linejoin:round;stroke:rgb(0%,0%,0%);stroke-opacity:1;stroke-miterlimit:4;" d="M 551.480469 20.40625 C 551.480469 21.730469 550.40625 22.804688 549.082031 22.804688 C 547.753906 22.804688 546.679688 21.730469 546.679688 20.40625 C 546.679688 19.078125 547.753906 18.003906 549.082031 18.003906 C 550.40625 18.003906 551.480469 19.078125 551.480469 20.40625 Z M 551.480469 20.40625 " transform="matrix(1,0,0,1,-546,-17)"/>
</g>
<clipPath id="clip8">
  <rect width="6" height="6"/>
</clipPath>
<g id="surface26" clip-path="url(#clip8)">
<rect x="0" y="0" width="6" height="6" style="fill:rgb(0%,0%,0%);fill-opacity:0.97;stroke:none;"/>
</g>
<mask id="mask3">
  <g filter="url(#alpha)">
<use xlink:href="#surface26"/>
  </g>
</mask>
<clipPath id="clip9">
  <rect width="6" height="6"/>
</clipPath>
<g id="surface28" clip-path="url(#clip9)">
<path style="fill-rule:nonzero;fill:rgb(0%,0%,0%);fill-opacity:1;stroke-width:0.8;stroke-linecap:butt;stroke-linejoin:round;stroke:rgb(0%,0%,0%);stroke-opacity:1;stroke-miterlimit:4;" d="M 551.480469 270.003906 C 551.480469 271.328125 550.40625 272.40625 549.082031 272.40625 C 547.753906 272.40625 546.679688 271.328125 546.679688 270.003906 C 546.679688 268.679688 547.753906 267.605469 549.082031 267.605469 C 550.40625 267.605469 551.480469 268.679688 551.480469 270.003906 Z M 551.480469 270.003906 " transform="matrix(1,0,0,1,-546,-267)"/>
</g>
<clipPath id="clip10">
  <rect width="6" height="7"/>
</clipPath>
<g id="surface32" clip-path="url(#clip10)">
<rect x="0" y="0" width="6" height="7" style="fill:rgb(0%,0%,0%);fill-opacity:0.97;stroke:none;"/>
</g>
<mask id="mask4">
  <g filter="url(#alpha)">
<use xlink:href="#surface32"/>
  </g>
</mask>
<clipPath id="clip11">
  <rect width="6" height="7"/>
</clipPath>
<g id="surface34" clip-path="url(#clip11)">
<path style="fill-rule:nonzero;fill:rgb(0%,0%,0%);fill-opacity:1;stroke-width:0.8;stroke-linecap:butt;stroke-linejoin:round;stroke:rgb(0%,0%,0%);stroke-opacity:1;stroke-miterlimit:4;" d="M 292.28125 145.203125 C 292.28125 146.53125 291.207031 147.605469 289.878906 147.605469 C 288.554688 147.605469 287.480469 146.53125 287.480469 145.203125 C 287.480469 143.878906 288.554688 142.804688 289.878906 142.804688 C 291.207031 142.804688 292.28125 143.878906 292.28125 145.203125 Z M 292.28125 145.203125 " transform="matrix(1,0,0,1,-287,-142)"/>
</g>
<clipPath id="clip12">
  <rect width="6" height="7"/>
</clipPath>
<g id="surface38" clip-path="url(#clip12)">
<rect x="0" y="0" width="6" height="7" style="fill:rgb(0%,0%,0%);fill-opacity:0.97;stroke:none;"/>
</g>
<mask id="mask5">
  <g filter="url(#alpha)">
<use xlink:href="#surface38"/>
  </g>
</mask>
<clipPath id="clip13">
  <rect width="6" height="7"/>
</clipPath>
<g id="surface40" clip-path="url(#clip13)">
<path style="fill-rule:nonzero;fill:rgb(0%,0%,0%);fill-opacity:1;stroke-width:0.8;stroke-linecap:butt;stroke-linejoin:round;stroke:rgb(0%,0%,0%);stroke-opacity:1;stroke-miterlimit:4;" d="M 580.28125 145.203125 C 580.28125 146.53125 579.207031 147.605469 577.878906 147.605469 C 576.554688 147.605469 575.480469 146.53125 575.480469 145.203125 C 575.480469 143.878906 576.554688 142.804688 577.878906 142.804688 C 579.207031 142.804688 580.28125 143.878906 580.28125 145.203125 Z M 580.28125 145.203125 " transform="matrix(1,0,0,1,-575,-142)"/>
</g>
<clipPath id="clip14">
  <path d="M 670 259 L 675.546875 259 L 675.546875 280 L 670 280 Z M 670 259 "/>
</clipPath>
<clipPath id="clip15">
  <path d="M 0 0 L 59 0 L 59 289.574219 L 0 289.574219 Z M 0 0 "/>
</clipPath>
<clipPath id="clip16">
  <rect width="7" height="7"/>
</clipPath>
<g id="surface44" clip-path="url(#clip16)">
<rect x="0" y="0" width="7" height="7" style="fill:rgb(0%,0%,0%);fill-opacity:0.97;stroke:none;"/>
</g>
<mask id="mask6">
  <g filter="url(#alpha)">
<use xlink:href="#surface44"/>
  </g>
</mask>
<clipPath id="clip17">
  <rect width="7" height="7"/>
</clipPath>
<g id="surface46" clip-path="url(#clip17)">
<path style="fill-rule:nonzero;fill:rgb(0%,0%,0%);fill-opacity:1;stroke-width:0.8;stroke-linecap:butt;stroke-linejoin:round;stroke:rgb(0%,0%,0%);stroke-opacity:1;stroke-miterlimit:4;" d="M 33.082031 20.40625 C 33.082031 21.730469 32.003906 22.804688 30.679688 22.804688 C 29.355469 22.804688 28.28125 21.730469 28.28125 20.40625 C 28.28125 19.078125 29.355469 18.003906 30.679688 18.003906 C 32.003906 18.003906 33.082031 19.078125 33.082031 20.40625 Z M 33.082031 20.40625 " transform="matrix(1,0,0,1,-27,-17)"/>
</g>
<clipPath id="clip18">
  <rect width="7" height="7"/>
</clipPath>
<g id="surface50" clip-path="url(#clip18)">
<rect x="0" y="0" width="7" height="7" style="fill:rgb(0%,0%,0%);fill-opacity:0.97;stroke:none;"/>
</g>
<mask id="mask7">
  <g filter="url(#alpha)">
<use xlink:href="#surface50"/>
  </g>
</mask>
<clipPath id="clip19">
  <rect width="7" height="7"/>
</clipPath>
<g id="surface52" clip-path="url(#clip19)">
<path style="fill-rule:nonzero;fill:rgb(0%,0%,0%);fill-opacity:1;stroke-width:0.8;stroke-linecap:butt;stroke-linejoin:round;stroke:rgb(0%,0%,0%);stroke-opacity:1;stroke-miterlimit:4;" d="M 32.800781 269.621094 C 32.800781 270.945313 31.726562 272.023438 30.398438 272.023438 C 29.074219 272.023438 28 270.945313 28 269.621094 C 28 268.296875 29.074219 267.222656 30.398438 267.222656 C 31.726562 267.222656 32.800781 268.296875 32.800781 269.621094 Z M 32.800781 269.621094 " transform="matrix(1,0,0,1,-27,-266)"/>
</g>
<clipPath id="clip20">
  <rect width="120" height="62"/>
</clipPath>
<g id="surface56" clip-path="url(#clip20)">
<rect x="0" y="0" width="120" height="62" style="fill:rgb(0%,0%,0%);fill-opacity:0.97;stroke:none;"/>
</g>
<mask id="mask8">
  <g filter="url(#alpha)">
<use xlink:href="#surface56"/>
  </g>
</mask>
<clipPath id="clip21">
  <rect width="120" height="62"/>
</clipPath>
<g id="surface58" clip-path="url(#clip21)">
<path style="fill:none;stroke-width:1.6;stroke-linecap:round;stroke-linejoin:round;stroke:rgb(100%,0%,0%);stroke-opacity:1;stroke-miterlimit:4;" d="M 235.703125 113.34375 C 253.070312 83.578125 291.277344 73.523438 321.046875 90.890625 C 338.648438 101.164063 350.125 119.378906 351.792969 139.691406 " transform="matrix(1,0,0,1,-234,-81)"/>
<path style="fill-rule:evenodd;fill:rgb(100%,0%,0%);fill-opacity:1;stroke-width:0.345496;stroke-linecap:butt;stroke-linejoin:miter;stroke:rgb(100%,0%,0%);stroke-opacity:1;stroke-miterlimit:4;" d="M 19.695763 225.180579 L 21.076094 223.797114 L 16.239318 225.181583 L 21.076314 226.56261 Z M 19.695763 225.180579 " transform="matrix(0.58344,-1,1,0.58344,-234,-81)"/>
<path style="fill-rule:evenodd;fill:rgb(100%,0%,0%);fill-opacity:1;stroke-width:0.398663;stroke-linecap:butt;stroke-linejoin:miter;stroke:rgb(100%,0%,0%);stroke-opacity:1;stroke-miterlimit:4;" d="M -165.488398 338.067911 L -163.89695 336.475704 L -169.476778 338.069112 L -163.89651 339.66324 Z M -165.488398 338.067911 " transform="matrix(-0.0819689,-1,1,-0.0819689,-234,-81)"/>
</g>
<clipPath id="clip22">
  <rect width="148" height="104"/>
</clipPath>
<g id="surface62" clip-path="url(#clip22)">
<rect x="0" y="0" width="148" height="104" style="fill:rgb(0%,0%,0%);fill-opacity:0.97;stroke:none;"/>
</g>
<mask id="mask9">
  <g filter="url(#alpha)">
<use xlink:href="#surface62"/>
  </g>
</mask>
<clipPath id="clip23">
  <rect width="148" height="104"/>
</clipPath>
<g id="surface59" clip-path="url(#clip23)">
<path style="fill:none;stroke-width:1.6;stroke-linecap:round;stroke-linejoin:round;stroke:rgb(100%,0%,0%);stroke-opacity:1;stroke-miterlimit:4;" d="M 222.78125 171.613281 C 207.96875 134.710938 225.875 92.785156 262.777344 77.972656 C 299.679688 63.160156 341.601562 81.066406 356.417969 117.96875 C 359.175781 124.835938 360.855469 132.085938 361.402344 139.464844 " transform="matrix(1,0,0,1,-216,-71)"/>
<path style="fill-rule:evenodd;fill:rgb(100%,0%,0%);fill-opacity:1;stroke-width:0.371207;stroke-linecap:butt;stroke-linejoin:miter;stroke:rgb(100%,0%,0%);stroke-opacity:1;stroke-miterlimit:4;" d="M -223.035171 132.532059 L -221.549697 131.050257 L -226.746967 132.534198 L -221.550005 134.018884 Z M -223.035171 132.532059 " transform="matrix(-0.401436,-1,1,-0.401436,-216,-71)"/>
<path style="fill-rule:evenodd;fill:rgb(100%,0%,0%);fill-opacity:1;stroke-width:0.398905;stroke-linecap:butt;stroke-linejoin:miter;stroke:rgb(100%,0%,0%);stroke-opacity:1;stroke-miterlimit:4;" d="M -163.435486 349.145037 L -161.840556 347.548437 L -167.423856 349.146224 L -161.838887 350.739967 Z M -163.435486 349.145037 " transform="matrix(-0.0741374,-1,1,-0.0741374,-216,-71)"/>
</g>
</defs>
<g id="surface1">
<path style="fill:none;stroke-width:1.6;stroke-linecap:butt;stroke-linejoin:miter;stroke:rgb(100%,0%,0%);stroke-opacity:1;stroke-miterlimit:4;" d="M 30.398438 125.589844 L 11.199219 125.589844 L 11.199219 144.789062 "/>
<path style="fill:none;stroke-width:1.6;stroke-linecap:butt;stroke-linejoin:miter;stroke:rgb(100%,0%,0%);stroke-opacity:1;stroke-miterlimit:4;" d="M 568 144.789062 L 568 125.589844 L 548.800781 125.589844 "/>
<use xlink:href="#surface10" transform="matrix(1,0,0,1,342,121)" mask="url(#mask0)"/>
<path style=" stroke:none;fill-rule:nonzero;fill:rgb(0%,0%,0%);fill-opacity:1;" d="M 339.738281 130.777344 C 339.738281 129.464844 339.394531 126.683594 337.363281 126.683594 C 334.582031 126.683594 331.519531 132.308594 331.519531 136.871094 C 331.519531 138.746094 332.082031 140.964844 333.894531 140.964844 C 336.707031 140.964844 339.738281 135.246094 339.738281 130.777344 Z M 333.613281 133.496094 C 333.957031 132.246094 334.363281 130.652344 335.175781 129.214844 C 335.707031 128.246094 336.425781 127.121094 337.332031 127.121094 C 338.300781 127.121094 338.425781 128.402344 338.425781 129.527344 C 338.425781 130.527344 338.269531 131.527344 337.800781 133.496094 Z M 337.613281 134.152344 C 337.394531 135.058594 336.988281 136.746094 336.207031 138.183594 C 335.519531 139.558594 334.769531 140.527344 333.894531 140.527344 C 333.238281 140.527344 332.832031 139.933594 332.832031 138.089844 C 332.832031 137.246094 332.957031 136.089844 333.457031 134.152344 Z M 337.613281 134.152344 "/>
<path style=" stroke:none;fill-rule:nonzero;fill:rgb(0%,0%,0%);fill-opacity:1;" d="M 540.5 98.761719 C 540.59375 98.324219 540.90625 96.699219 542.34375 96.699219 C 543.34375 96.699219 544.15625 97.386719 544.15625 98.949219 C 544.15625 100.636719 543.03125 101.355469 541.3125 101.730469 C 541.0625 101.792969 541 101.792969 541 102.011719 C 541 102.261719 541.125 102.261719 541.46875 102.261719 L 544.125 102.261719 C 544.46875 102.261719 544.59375 102.261719 544.59375 102.042969 C 544.59375 101.949219 544.5625 101.917969 544.1875 101.542969 C 544.15625 101.511719 544.125 101.511719 543.75 101.136719 C 544.5625 100.261719 544.59375 99.355469 544.59375 98.949219 C 544.59375 96.667969 543.25 95.730469 541.8125 95.730469 C 540.78125 95.730469 540.15625 96.324219 539.9375 96.574219 C 539.28125 97.230469 539.125 98.011719 538.96875 98.855469 C 538.75 99.980469 538.5 101.292969 537.34375 101.292969 C 536.625 101.292969 535.8125 100.792969 535.8125 99.074219 C 535.8125 96.886719 537.625 96.761719 538.21875 96.730469 C 538.40625 96.730469 538.40625 96.542969 538.40625 96.511719 C 538.40625 96.230469 538.3125 96.230469 537.9375 96.230469 L 535.90625 96.230469 C 535.59375 96.230469 535.4375 96.230469 535.4375 96.449219 C 535.4375 96.542969 535.4375 96.605469 535.6875 96.855469 C 535.75 96.917969 535.9375 97.105469 536 97.199219 C 535.4375 97.949219 535.4375 98.761719 535.4375 99.074219 C 535.4375 101.511719 536.78125 102.261719 537.90625 102.261719 C 538.59375 102.261719 539.15625 101.949219 539.59375 101.417969 C 540.09375 100.761719 540.21875 100.199219 540.5 98.761719 Z M 540.5 98.761719 "/>
<path style=" stroke:none;fill-rule:nonzero;fill:rgb(0%,0%,0%);fill-opacity:1;" d="M 535.5625 91.527344 L 535.78125 94.308594 L 536.40625 94.308594 C 536.40625 93.027344 536.53125 92.839844 537.5 92.839844 L 542.875 92.839844 C 543.75 92.839844 543.75 93.058594 543.75 94.402344 L 544.375 94.402344 C 544.34375 93.777344 544.3125 92.683594 544.3125 92.214844 C 544.3125 91.496094 544.34375 90.808594 544.375 90.121094 L 543.75 90.121094 C 543.75 91.464844 543.65625 91.527344 542.875 91.527344 Z M 532.09375 91.464844 C 531.46875 91.464844 531.03125 91.933594 531.03125 92.496094 C 531.03125 93.121094 531.5625 93.558594 532.09375 93.558594 C 532.625 93.558594 533.15625 93.121094 533.15625 92.496094 C 533.15625 91.933594 532.71875 91.464844 532.09375 91.464844 Z M 532.09375 91.464844 "/>
<path style=" stroke:none;fill-rule:nonzero;fill:rgb(0%,0%,0%);fill-opacity:1;" d="M 537.53125 87.335938 L 542.875 87.335938 C 543.75 87.335938 543.75 87.554688 543.75 88.898438 L 544.375 88.898438 C 544.34375 88.179688 544.3125 87.179688 544.3125 86.617188 C 544.3125 86.117188 544.34375 85.085938 544.375 84.398438 L 543.75 84.398438 C 543.75 85.742188 543.75 85.960938 542.875 85.960938 L 539.1875 85.960938 C 537.125 85.960938 536 84.523438 536 83.273438 C 536 81.992188 537.0625 81.773438 538.21875 81.773438 L 542.875 81.773438 C 543.75 81.773438 543.75 81.992188 543.75 83.335938 L 544.375 83.335938 C 544.34375 82.648438 544.3125 81.617188 544.3125 81.085938 C 544.3125 80.585938 544.34375 79.523438 544.375 78.867188 L 543.75 78.867188 C 543.75 79.898438 543.75 80.398438 543.15625 80.398438 L 539.34375 80.398438 C 537.625 80.398438 537.03125 80.398438 536.3125 81.023438 C 535.96875 81.304688 535.5625 81.960938 535.5625 83.117188 C 535.5625 84.585938 536.40625 85.523438 537.65625 86.085938 L 535.5625 86.085938 L 535.78125 88.898438 L 536.40625 88.898438 C 536.40625 87.492188 536.53125 87.335938 537.53125 87.335938 Z M 537.53125 87.335938 "/>
<path style=" stroke:none;fill-rule:nonzero;fill:rgb(0%,0%,0%);fill-opacity:1;" d="M 534.40625 66.070312 C 533.09375 66.070312 530.3125 66.414062 530.3125 68.445312 C 530.3125 71.226562 535.9375 74.289062 540.5 74.289062 C 542.375 74.289062 544.59375 73.726562 544.59375 71.914062 C 544.59375 69.101562 538.875 66.070312 534.40625 66.070312 Z M 537.125 72.195312 C 535.875 71.851562 534.28125 71.445312 532.84375 70.632812 C 531.875 70.101562 530.75 69.382812 530.75 68.476562 C 530.75 67.507812 532.03125 67.382812 533.15625 67.382812 C 534.15625 67.382812 535.15625 67.539062 537.125 68.007812 Z M 537.78125 68.195312 C 538.6875 68.414062 540.375 68.820312 541.8125 69.601562 C 543.1875 70.289062 544.15625 71.039062 544.15625 71.914062 C 544.15625 72.570312 543.5625 72.976562 541.71875 72.976562 C 540.875 72.976562 539.71875 72.851562 537.78125 72.351562 Z M 537.78125 68.195312 "/>
<path style="fill:none;stroke-width:2.4;stroke-linecap:butt;stroke-linejoin:miter;stroke:rgb(0%,0%,0%);stroke-opacity:1;stroke-miterlimit:4;" d="M 289.601562 144.789062 L 577.601562 144.789062 "/>
<path style="fill:none;stroke-width:2.4;stroke-linecap:butt;stroke-linejoin:miter;stroke:rgb(0%,0%,0%);stroke-opacity:1;stroke-miterlimit:4;" d="M 548.800781 19.988281 L 548.800781 269.589844 "/>
<path style="fill:none;stroke-width:1.2;stroke-linecap:butt;stroke-linejoin:miter;stroke:rgb(100%,0%,0%);stroke-opacity:1;stroke-miterlimit:4;" d="M 294.398438 184.789062 L 428.800781 184.789062 "/>
<path style="fill-rule:evenodd;fill:rgb(100%,0%,0%);fill-opacity:1;stroke-width:0.3;stroke-linecap:butt;stroke-linejoin:miter;stroke:rgb(100%,0%,0%);stroke-opacity:1;stroke-miterlimit:4;" d="M 295.839844 184.789062 L 297.039062 183.589844 L 292.839844 184.789062 L 297.039062 185.988281 Z M 295.839844 184.789062 "/>
<path style=" stroke:none;fill-rule:nonzero;fill:rgb(0%,0%,0%);fill-opacity:1;" d="M 431.964844 192.882812 C 431.964844 189.632812 433.589844 188.789062 434.652344 188.789062 C 434.839844 188.789062 436.089844 188.820312 436.777344 189.539062 C 435.964844 189.601562 435.839844 190.195312 435.839844 190.445312 C 435.839844 190.976562 436.214844 191.351562 436.746094 191.351562 C 437.277344 191.351562 437.683594 191.039062 437.683594 190.414062 C 437.683594 189.070312 436.152344 188.289062 434.621094 188.289062 C 432.121094 188.289062 430.308594 190.445312 430.308594 192.914062 C 430.308594 195.476562 432.277344 197.445312 434.589844 197.445312 C 437.246094 197.445312 437.902344 195.039062 437.902344 194.851562 C 437.902344 194.664062 437.683594 194.664062 437.621094 194.664062 C 437.464844 194.664062 437.402344 194.726562 437.371094 194.851562 C 436.808594 196.695312 435.496094 196.945312 434.777344 196.945312 C 433.714844 196.945312 431.964844 196.101562 431.964844 192.882812 Z M 431.964844 192.882812 "/>
<path style=" stroke:none;fill-rule:nonzero;fill:rgb(0%,0%,0%);fill-opacity:1;" d="M 447.851562 192.945312 C 447.851562 190.414062 445.882812 188.289062 443.476562 188.289062 C 440.976562 188.289062 439.039062 190.476562 439.039062 192.945312 C 439.039062 195.539062 441.101562 197.445312 443.445312 197.445312 C 445.851562 197.445312 447.851562 195.476562 447.851562 192.945312 Z M 443.476562 196.945312 C 442.601562 196.945312 441.726562 196.539062 441.195312 195.601562 C 440.695312 194.726562 440.695312 193.507812 440.695312 192.789062 C 440.695312 192.007812 440.695312 190.945312 441.164062 190.070312 C 441.695312 189.164062 442.632812 188.726562 443.445312 188.726562 C 444.320312 188.726562 445.164062 189.164062 445.695312 190.039062 C 446.226562 190.882812 446.226562 192.039062 446.226562 192.789062 C 446.226562 193.507812 446.226562 194.601562 445.789062 195.476562 C 445.320312 196.382812 444.445312 196.945312 443.476562 196.945312 Z M 443.476562 196.945312 "/>
<path style=" stroke:none;fill-rule:nonzero;fill:rgb(0%,0%,0%);fill-opacity:1;" d="M 452.597656 193.351562 C 453.035156 193.445312 454.660156 193.757812 454.660156 195.195312 C 454.660156 196.195312 453.972656 197.007812 452.410156 197.007812 C 450.722656 197.007812 450.003906 195.882812 449.628906 194.164062 C 449.566406 193.914062 449.566406 193.851562 449.347656 193.851562 C 449.097656 193.851562 449.097656 193.976562 449.097656 194.320312 L 449.097656 196.976562 C 449.097656 197.320312 449.097656 197.445312 449.316406 197.445312 C 449.410156 197.445312 449.441406 197.414062 449.816406 197.039062 C 449.847656 197.007812 449.847656 196.976562 450.222656 196.601562 C 451.097656 197.414062 452.003906 197.445312 452.410156 197.445312 C 454.691406 197.445312 455.628906 196.101562 455.628906 194.664062 C 455.628906 193.632812 455.035156 193.007812 454.785156 192.789062 C 454.128906 192.132812 453.347656 191.976562 452.503906 191.820312 C 451.378906 191.601562 450.066406 191.351562 450.066406 190.195312 C 450.066406 189.476562 450.566406 188.664062 452.285156 188.664062 C 454.472656 188.664062 454.597656 190.476562 454.628906 191.070312 C 454.628906 191.257812 454.816406 191.257812 454.847656 191.257812 C 455.128906 191.257812 455.128906 191.164062 455.128906 190.789062 L 455.128906 188.757812 C 455.128906 188.445312 455.128906 188.289062 454.910156 188.289062 C 454.816406 188.289062 454.753906 188.289062 454.503906 188.539062 C 454.441406 188.601562 454.253906 188.789062 454.160156 188.851562 C 453.410156 188.289062 452.597656 188.289062 452.285156 188.289062 C 449.847656 188.289062 449.097656 189.632812 449.097656 190.757812 C 449.097656 191.445312 449.410156 192.007812 449.941406 192.445312 C 450.597656 192.945312 451.160156 193.070312 452.597656 193.351562 Z M 452.597656 193.351562 "/>
<path style=" stroke:none;fill-rule:nonzero;fill:rgb(0%,0%,0%);fill-opacity:1;" d="M 468.683594 187.257812 C 468.683594 185.945312 468.339844 183.164062 466.308594 183.164062 C 463.527344 183.164062 460.464844 188.789062 460.464844 193.351562 C 460.464844 195.226562 461.027344 197.445312 462.839844 197.445312 C 465.652344 197.445312 468.683594 191.726562 468.683594 187.257812 Z M 462.558594 189.976562 C 462.902344 188.726562 463.308594 187.132812 464.121094 185.695312 C 464.652344 184.726562 465.371094 183.601562 466.277344 183.601562 C 467.246094 183.601562 467.371094 184.882812 467.371094 186.007812 C 467.371094 187.007812 467.214844 188.007812 466.746094 189.976562 Z M 466.558594 190.632812 C 466.339844 191.539062 465.933594 193.226562 465.152344 194.664062 C 464.464844 196.039062 463.714844 197.007812 462.839844 197.007812 C 462.183594 197.007812 461.777344 196.414062 461.777344 194.570312 C 461.777344 193.726562 461.902344 192.570312 462.402344 190.632812 Z M 466.558594 190.632812 "/>
<path style="fill:none;stroke-width:1.2;stroke-linecap:butt;stroke-linejoin:miter;stroke:rgb(100%,0%,0%);stroke-opacity:1;stroke-miterlimit:4;" d="M 544 184.789062 L 472 184.789062 "/>
<path style="fill-rule:evenodd;fill:rgb(100%,0%,0%);fill-opacity:1;stroke-width:0.3;stroke-linecap:butt;stroke-linejoin:miter;stroke:rgb(100%,0%,0%);stroke-opacity:1;stroke-miterlimit:4;" d="M -542.558594 -184.789062 L -541.359375 -185.988281 L -545.558594 -184.789062 L -541.359375 -183.589844 Z M -542.558594 -184.789062 " transform="matrix(-1,0,0,-1,0,0)"/>
<path style="fill:none;stroke-width:1.2;stroke-linecap:butt;stroke-linejoin:miter;stroke:rgb(100%,0%,0%);stroke-opacity:1;stroke-miterlimit:4;" d="M 544 139.988281 L 544 106.390625 "/>
<path style="fill-rule:evenodd;fill:rgb(100%,0%,0%);fill-opacity:1;stroke-width:0.3;stroke-linecap:butt;stroke-linejoin:miter;stroke:rgb(100%,0%,0%);stroke-opacity:1;stroke-miterlimit:4;" d="M -138.550781 544 L -137.351562 542.800781 L -141.550781 544 L -137.351562 545.199219 Z M -138.550781 544 " transform="matrix(0,-1,1,0,0,0)"/>
<path style="fill:none;stroke-width:1.2;stroke-linecap:butt;stroke-linejoin:miter;stroke:rgb(100%,0%,0%);stroke-opacity:1;stroke-miterlimit:4;" d="M 544 29.589844 L 544 63.191406 "/>
<path style="fill-rule:evenodd;fill:rgb(100%,0%,0%);fill-opacity:1;stroke-width:0.3;stroke-linecap:butt;stroke-linejoin:miter;stroke:rgb(100%,0%,0%);stroke-opacity:1;stroke-miterlimit:4;" d="M 31.03125 -544 L 32.230469 -545.199219 L 28.03125 -544 L 32.230469 -542.800781 Z M 31.03125 -544 " transform="matrix(0,1,-1,0,0,0)"/>
<path style=" stroke:none;fill-rule:nonzero;fill:rgb(0%,0%,0%);fill-opacity:1;" d="M 400.292969 72.785156 C 400.066406 72.339844 400.054688 72.3125 399.636719 72.523438 C 399.101562 74.234375 397.542969 75.027344 396.988281 75.3125 L 397.269531 75.867188 C 397.632812 75.683594 398.664062 75.160156 399.339844 74.214844 L 404.039062 83.433594 C 404.363281 84.074219 404.40625 84.296875 402.820312 85.105469 L 402.261719 85.390625 L 402.546875 85.945312 C 403.132812 85.578125 404.664062 84.796875 405.386719 84.429688 C 406.082031 84.074219 407.640625 83.28125 408.28125 83.023438 L 408 82.464844 L 407.441406 82.75 C 405.828125 83.574219 405.699219 83.390625 405.375 82.75 Z M 400.292969 72.785156 "/>
<path style="fill:none;stroke-width:1.081182;stroke-linecap:butt;stroke-linejoin:miter;stroke:rgb(100%,0%,0%);stroke-opacity:1;stroke-miterlimit:4;" d="M 182.293698 226.158426 L 281.763014 226.15725 " transform="matrix(1,-0.481528,0.481528,1,0,0)"/>
<path style="fill-rule:evenodd;fill:rgb(100%,0%,0%);fill-opacity:1;stroke-width:0.270296;stroke-linecap:butt;stroke-linejoin:miter;stroke:rgb(100%,0%,0%);stroke-opacity:1;stroke-miterlimit:4;" d="M 183.590776 226.158005 L 184.673437 225.077774 L 180.887982 226.157316 L 184.671006 227.240667 Z M 183.590776 226.158005 " transform="matrix(1,-0.481528,0.481528,1,0,0)"/>
<path style="fill:none;stroke-width:1.081182;stroke-linecap:butt;stroke-linejoin:miter;stroke:rgb(100%,0%,0%);stroke-opacity:1;stroke-miterlimit:4;" d="M 433.125183 226.15956 L 307.711026 226.159756 " transform="matrix(1,-0.481528,0.481528,1,0,0)"/>
<path style="fill-rule:evenodd;fill:rgb(100%,0%,0%);fill-opacity:1;stroke-width:0.270296;stroke-linecap:butt;stroke-linejoin:miter;stroke:rgb(100%,0%,0%);stroke-opacity:1;stroke-miterlimit:4;" d="M -431.829633 -226.156809 L -430.750142 -227.238567 L -434.532426 -226.157499 L -430.747875 -225.077319 Z M -431.829633 -226.156809 " transform="matrix(-1,0.481528,-0.481528,-1,0,0)"/>
<g clip-path="url(#clip3)" clip-rule="nonzero">
<path style="fill:none;stroke-width:3.2;stroke-linecap:butt;stroke-linejoin:miter;stroke:rgb(0%,0%,0%);stroke-opacity:1;stroke-dasharray:3.2,3.2;stroke-miterlimit:4;" d="M 539.015625 0.789062 C 590.460938 89.898438 590.460938 199.683594 539.015625 288.789062 "/>
</g>
<path style="fill:none;stroke-width:2.4;stroke-linecap:butt;stroke-linejoin:miter;stroke:rgb(0%,0%,0%);stroke-opacity:1;stroke-miterlimit:4;" d="M 289.601562 144.789062 L 548.800781 19.988281 "/>
<path style="fill:none;stroke-width:2.4;stroke-linecap:butt;stroke-linejoin:miter;stroke:rgb(0%,0%,0%);stroke-opacity:1;stroke-miterlimit:4;" d="M 289.601562 144.789062 L 548.800781 269.589844 "/>
<path style=" stroke:none;fill-rule:nonzero;fill:rgb(0%,0%,0%);fill-opacity:1;" d="M 332.601562 156.953125 C 332.945312 156.953125 333.320312 156.953125 333.320312 156.546875 C 333.320312 156.171875 332.945312 156.171875 332.601562 156.171875 L 321.820312 156.171875 C 321.476562 156.171875 321.132812 156.171875 321.132812 156.546875 C 321.132812 156.953125 321.476562 156.953125 321.820312 156.953125 Z M 332.601562 156.953125 "/>
<path style=" stroke:none;fill-rule:nonzero;fill:rgb(0%,0%,0%);fill-opacity:1;" d="M 344.039062 151.578125 C 344.039062 150.265625 343.695312 147.484375 341.664062 147.484375 C 338.882812 147.484375 335.820312 153.109375 335.820312 157.671875 C 335.820312 159.546875 336.382812 161.765625 338.195312 161.765625 C 341.007812 161.765625 344.039062 156.046875 344.039062 151.578125 Z M 337.914062 154.296875 C 338.257812 153.046875 338.664062 151.453125 339.476562 150.015625 C 340.007812 149.046875 340.726562 147.921875 341.632812 147.921875 C 342.601562 147.921875 342.726562 149.203125 342.726562 150.328125 C 342.726562 151.328125 342.570312 152.328125 342.101562 154.296875 Z M 341.914062 154.953125 C 341.695312 155.859375 341.289062 157.546875 340.507812 158.984375 C 339.820312 160.359375 339.070312 161.328125 338.195312 161.328125 C 337.539062 161.328125 337.132812 160.734375 337.132812 158.890625 C 337.132812 158.046875 337.257812 156.890625 337.757812 154.953125 Z M 341.914062 154.953125 "/>
<use xlink:href="#surface16" transform="matrix(1,0,0,1,342,146)" mask="url(#mask1)"/>
<path style="fill:none;stroke-width:0.8;stroke-linecap:butt;stroke-linejoin:miter;stroke:rgb(0%,0%,0%);stroke-opacity:1;stroke-dasharray:0.8,0.8;stroke-miterlimit:4;" d="M 289.601562 144.789062 L 289.601562 197.589844 "/>
<path style=" stroke:none;fill-rule:nonzero;fill:rgb(0%,0%,0%);fill-opacity:1;" d="M 562.757812 30.132812 C 562.757812 30.070312 562.757812 30.039062 562.414062 29.695312 C 559.945312 27.195312 559.289062 23.414062 559.289062 20.351562 C 559.289062 16.882812 560.039062 13.414062 562.507812 10.945312 C 562.757812 10.695312 562.757812 10.664062 562.757812 10.601562 C 562.757812 10.445312 562.695312 10.382812 562.570312 10.382812 C 562.351562 10.382812 560.570312 11.757812 559.382812 14.289062 C 558.382812 16.476562 558.132812 18.695312 558.132812 20.351562 C 558.132812 21.914062 558.351562 24.320312 559.445312 26.601562 C 560.664062 29.039062 562.351562 30.351562 562.570312 30.351562 C 562.695312 30.351562 562.757812 30.289062 562.757812 30.132812 Z M 562.757812 30.132812 "/>
<path style=" stroke:none;fill-rule:nonzero;fill:rgb(0%,0%,0%);fill-opacity:1;" d="M 566.253906 21.007812 C 566.253906 17.757812 567.878906 16.914062 568.941406 16.914062 C 569.128906 16.914062 570.378906 16.945312 571.066406 17.664062 C 570.253906 17.726562 570.128906 18.320312 570.128906 18.570312 C 570.128906 19.101562 570.503906 19.476562 571.035156 19.476562 C 571.566406 19.476562 571.972656 19.164062 571.972656 18.539062 C 571.972656 17.195312 570.441406 16.414062 568.910156 16.414062 C 566.410156 16.414062 564.597656 18.570312 564.597656 21.039062 C 564.597656 23.601562 566.566406 25.570312 568.878906 25.570312 C 571.535156 25.570312 572.191406 23.164062 572.191406 22.976562 C 572.191406 22.789062 571.972656 22.789062 571.910156 22.789062 C 571.753906 22.789062 571.691406 22.851562 571.660156 22.976562 C 571.097656 24.820312 569.785156 25.070312 569.066406 25.070312 C 568.003906 25.070312 566.253906 24.226562 566.253906 21.007812 Z M 566.253906 21.007812 "/>
<path style=" stroke:none;fill-rule:nonzero;fill:rgb(0%,0%,0%);fill-opacity:1;" d="M 582.140625 21.070312 C 582.140625 18.539062 580.171875 16.414062 577.765625 16.414062 C 575.265625 16.414062 573.328125 18.601562 573.328125 21.070312 C 573.328125 23.664062 575.390625 25.570312 577.734375 25.570312 C 580.140625 25.570312 582.140625 23.601562 582.140625 21.070312 Z M 577.765625 25.070312 C 576.890625 25.070312 576.015625 24.664062 575.484375 23.726562 C 574.984375 22.851562 574.984375 21.632812 574.984375 20.914062 C 574.984375 20.132812 574.984375 19.070312 575.453125 18.195312 C 575.984375 17.289062 576.921875 16.851562 577.734375 16.851562 C 578.609375 16.851562 579.453125 17.289062 579.984375 18.164062 C 580.515625 19.007812 580.515625 20.164062 580.515625 20.914062 C 580.515625 21.632812 580.515625 22.726562 580.078125 23.601562 C 579.609375 24.507812 578.734375 25.070312 577.765625 25.070312 Z M 577.765625 25.070312 "/>
<path style=" stroke:none;fill-rule:nonzero;fill:rgb(0%,0%,0%);fill-opacity:1;" d="M 586.886719 21.476562 C 587.324219 21.570312 588.949219 21.882812 588.949219 23.320312 C 588.949219 24.320312 588.261719 25.132812 586.699219 25.132812 C 585.011719 25.132812 584.292969 24.007812 583.917969 22.289062 C 583.855469 22.039062 583.855469 21.976562 583.636719 21.976562 C 583.386719 21.976562 583.386719 22.101562 583.386719 22.445312 L 583.386719 25.101562 C 583.386719 25.445312 583.386719 25.570312 583.605469 25.570312 C 583.699219 25.570312 583.730469 25.539062 584.105469 25.164062 C 584.136719 25.132812 584.136719 25.101562 584.511719 24.726562 C 585.386719 25.539062 586.292969 25.570312 586.699219 25.570312 C 588.980469 25.570312 589.917969 24.226562 589.917969 22.789062 C 589.917969 21.757812 589.324219 21.132812 589.074219 20.914062 C 588.417969 20.257812 587.636719 20.101562 586.792969 19.945312 C 585.667969 19.726562 584.355469 19.476562 584.355469 18.320312 C 584.355469 17.601562 584.855469 16.789062 586.574219 16.789062 C 588.761719 16.789062 588.886719 18.601562 588.917969 19.195312 C 588.917969 19.382812 589.105469 19.382812 589.136719 19.382812 C 589.417969 19.382812 589.417969 19.289062 589.417969 18.914062 L 589.417969 16.882812 C 589.417969 16.570312 589.417969 16.414062 589.199219 16.414062 C 589.105469 16.414062 589.042969 16.414062 588.792969 16.664062 C 588.730469 16.726562 588.542969 16.914062 588.449219 16.976562 C 587.699219 16.414062 586.886719 16.414062 586.574219 16.414062 C 584.136719 16.414062 583.386719 17.757812 583.386719 18.882812 C 583.386719 19.570312 583.699219 20.132812 584.230469 20.570312 C 584.886719 21.070312 585.449219 21.195312 586.886719 21.476562 Z M 586.886719 21.476562 "/>
<path style=" stroke:none;fill-rule:nonzero;fill:rgb(0%,0%,0%);fill-opacity:1;" d="M 602.972656 15.382812 C 602.972656 14.070312 602.628906 11.289062 600.597656 11.289062 C 597.816406 11.289062 594.753906 16.914062 594.753906 21.476562 C 594.753906 23.351562 595.316406 25.570312 597.128906 25.570312 C 599.941406 25.570312 602.972656 19.851562 602.972656 15.382812 Z M 596.847656 18.101562 C 597.191406 16.851562 597.597656 15.257812 598.410156 13.820312 C 598.941406 12.851562 599.660156 11.726562 600.566406 11.726562 C 601.535156 11.726562 601.660156 13.007812 601.660156 14.132812 C 601.660156 15.132812 601.503906 16.132812 601.035156 18.101562 Z M 600.847656 18.757812 C 600.628906 19.664062 600.222656 21.351562 599.441406 22.789062 C 598.753906 24.164062 598.003906 25.132812 597.128906 25.132812 C 596.472656 25.132812 596.066406 24.539062 596.066406 22.695312 C 596.066406 21.851562 596.191406 20.695312 596.691406 18.757812 Z M 600.847656 18.757812 "/>
<path style=" stroke:none;fill-rule:nonzero;fill:rgb(0%,0%,0%);fill-opacity:1;" d="M 607.882812 25.320312 C 607.882812 24.007812 607.382812 23.226562 606.601562 23.226562 C 605.945312 23.226562 605.539062 23.726562 605.539062 24.289062 C 605.539062 24.820312 605.945312 25.351562 606.601562 25.351562 C 606.820312 25.351562 607.101562 25.257812 607.289062 25.101562 C 607.351562 25.039062 607.382812 25.039062 607.382812 25.039062 C 607.414062 25.039062 607.414062 25.039062 607.414062 25.320312 C 607.414062 26.820312 606.726562 28.007812 606.070312 28.664062 C 605.851562 28.882812 605.851562 28.914062 605.851562 28.976562 C 605.851562 29.132812 605.945312 29.195312 606.039062 29.195312 C 606.257812 29.195312 607.882812 27.664062 607.882812 25.320312 Z M 607.882812 25.320312 "/>
<path style=" stroke:none;fill-rule:nonzero;fill:rgb(0%,0%,0%);fill-opacity:1;" d="M 616.828125 21.476562 C 617.265625 21.570312 618.890625 21.882812 618.890625 23.320312 C 618.890625 24.320312 618.203125 25.132812 616.640625 25.132812 C 614.953125 25.132812 614.234375 24.007812 613.859375 22.289062 C 613.796875 22.039062 613.796875 21.976562 613.578125 21.976562 C 613.328125 21.976562 613.328125 22.101562 613.328125 22.445312 L 613.328125 25.101562 C 613.328125 25.445312 613.328125 25.570312 613.546875 25.570312 C 613.640625 25.570312 613.671875 25.539062 614.046875 25.164062 C 614.078125 25.132812 614.078125 25.101562 614.453125 24.726562 C 615.328125 25.539062 616.234375 25.570312 616.640625 25.570312 C 618.921875 25.570312 619.859375 24.226562 619.859375 22.789062 C 619.859375 21.757812 619.265625 21.132812 619.015625 20.914062 C 618.359375 20.257812 617.578125 20.101562 616.734375 19.945312 C 615.609375 19.726562 614.296875 19.476562 614.296875 18.320312 C 614.296875 17.601562 614.796875 16.789062 616.515625 16.789062 C 618.703125 16.789062 618.828125 18.601562 618.859375 19.195312 C 618.859375 19.382812 619.046875 19.382812 619.078125 19.382812 C 619.359375 19.382812 619.359375 19.289062 619.359375 18.914062 L 619.359375 16.882812 C 619.359375 16.570312 619.359375 16.414062 619.140625 16.414062 C 619.046875 16.414062 618.984375 16.414062 618.734375 16.664062 C 618.671875 16.726562 618.484375 16.914062 618.390625 16.976562 C 617.640625 16.414062 616.828125 16.414062 616.515625 16.414062 C 614.078125 16.414062 613.328125 17.757812 613.328125 18.882812 C 613.328125 19.570312 613.640625 20.132812 614.171875 20.570312 C 614.828125 21.070312 615.390625 21.195312 616.828125 21.476562 Z M 616.828125 21.476562 "/>
<path style=" stroke:none;fill-rule:nonzero;fill:rgb(0%,0%,0%);fill-opacity:1;" d="M 624.0625 16.539062 L 621.28125 16.757812 L 621.28125 17.382812 C 622.5625 17.382812 622.75 17.507812 622.75 18.476562 L 622.75 23.851562 C 622.75 24.726562 622.53125 24.726562 621.1875 24.726562 L 621.1875 25.351562 C 621.8125 25.320312 622.90625 25.289062 623.375 25.289062 C 624.09375 25.289062 624.78125 25.320312 625.46875 25.351562 L 625.46875 24.726562 C 624.125 24.726562 624.0625 24.632812 624.0625 23.851562 Z M 624.125 13.070312 C 624.125 12.445312 623.65625 12.007812 623.09375 12.007812 C 622.46875 12.007812 622.03125 12.539062 622.03125 13.070312 C 622.03125 13.601562 622.46875 14.132812 623.09375 14.132812 C 623.65625 14.132812 624.125 13.695312 624.125 13.070312 Z M 624.125 13.070312 "/>
<path style=" stroke:none;fill-rule:nonzero;fill:rgb(0%,0%,0%);fill-opacity:1;" d="M 628.253906 18.507812 L 628.253906 23.851562 C 628.253906 24.726562 628.035156 24.726562 626.691406 24.726562 L 626.691406 25.351562 C 627.410156 25.320312 628.410156 25.289062 628.972656 25.289062 C 629.472656 25.289062 630.503906 25.320312 631.191406 25.351562 L 631.191406 24.726562 C 629.847656 24.726562 629.628906 24.726562 629.628906 23.851562 L 629.628906 20.164062 C 629.628906 18.101562 631.066406 16.976562 632.316406 16.976562 C 633.597656 16.976562 633.816406 18.039062 633.816406 19.195312 L 633.816406 23.851562 C 633.816406 24.726562 633.597656 24.726562 632.253906 24.726562 L 632.253906 25.351562 C 632.941406 25.320312 633.972656 25.289062 634.503906 25.289062 C 635.003906 25.289062 636.066406 25.320312 636.722656 25.351562 L 636.722656 24.726562 C 635.691406 24.726562 635.191406 24.726562 635.191406 24.132812 L 635.191406 20.320312 C 635.191406 18.601562 635.191406 18.007812 634.566406 17.289062 C 634.285156 16.945312 633.628906 16.539062 632.472656 16.539062 C 631.003906 16.539062 630.066406 17.382812 629.503906 18.632812 L 629.503906 16.539062 L 626.691406 16.757812 L 626.691406 17.382812 C 628.097656 17.382812 628.253906 17.507812 628.253906 18.507812 Z M 628.253906 18.507812 "/>
<path style=" stroke:none;fill-rule:nonzero;fill:rgb(0%,0%,0%);fill-opacity:1;" d="M 649.519531 15.382812 C 649.519531 14.070312 649.175781 11.289062 647.144531 11.289062 C 644.363281 11.289062 641.300781 16.914062 641.300781 21.476562 C 641.300781 23.351562 641.863281 25.570312 643.675781 25.570312 C 646.488281 25.570312 649.519531 19.851562 649.519531 15.382812 Z M 643.394531 18.101562 C 643.738281 16.851562 644.144531 15.257812 644.957031 13.820312 C 645.488281 12.851562 646.207031 11.726562 647.113281 11.726562 C 648.082031 11.726562 648.207031 13.007812 648.207031 14.132812 C 648.207031 15.132812 648.050781 16.132812 647.582031 18.101562 Z M 647.394531 18.757812 C 647.175781 19.664062 646.769531 21.351562 645.988281 22.789062 C 645.300781 24.164062 644.550781 25.132812 643.675781 25.132812 C 643.019531 25.132812 642.613281 24.539062 642.613281 22.695312 C 642.613281 21.851562 642.738281 20.695312 643.238281 18.757812 Z M 647.394531 18.757812 "/>
<path style=" stroke:none;fill-rule:nonzero;fill:rgb(0%,0%,0%);fill-opacity:1;" d="M 656.113281 20.351562 C 656.113281 18.820312 655.894531 16.414062 654.800781 14.132812 C 653.613281 11.695312 651.894531 10.382812 651.707031 10.382812 C 651.582031 10.382812 651.488281 10.476562 651.488281 10.601562 C 651.488281 10.664062 651.488281 10.695312 651.863281 11.070312 C 653.832031 13.039062 654.957031 16.195312 654.957031 20.351562 C 654.957031 23.789062 654.238281 27.289062 651.769531 29.789062 C 651.488281 30.039062 651.488281 30.070312 651.488281 30.132812 C 651.488281 30.257812 651.582031 30.351562 651.707031 30.351562 C 651.894531 30.351562 653.707031 28.976562 654.863281 26.445312 C 655.894531 24.257812 656.113281 22.039062 656.113281 20.351562 Z M 656.113281 20.351562 "/>
<use xlink:href="#surface22" transform="matrix(1,0,0,1,546,17)" mask="url(#mask2)"/>
<use xlink:href="#surface28" transform="matrix(1,0,0,1,546,267)" mask="url(#mask3)"/>
<use xlink:href="#surface34" transform="matrix(1,0,0,1,287,142)" mask="url(#mask4)"/>
<use xlink:href="#surface40" transform="matrix(1,0,0,1,575,142)" mask="url(#mask5)"/>
<path style=" stroke:none;fill-rule:nonzero;fill:rgb(0%,0%,0%);fill-opacity:1;" d="M 563.371094 279.730469 C 563.371094 279.667969 563.371094 279.636719 563.027344 279.292969 C 560.558594 276.792969 559.902344 273.011719 559.902344 269.949219 C 559.902344 266.480469 560.652344 263.011719 563.121094 260.542969 C 563.371094 260.292969 563.371094 260.261719 563.371094 260.199219 C 563.371094 260.042969 563.308594 259.980469 563.183594 259.980469 C 562.964844 259.980469 561.183594 261.355469 559.996094 263.886719 C 558.996094 266.074219 558.746094 268.292969 558.746094 269.949219 C 558.746094 271.511719 558.964844 273.917969 560.058594 276.199219 C 561.277344 278.636719 562.964844 279.949219 563.183594 279.949219 C 563.308594 279.949219 563.371094 279.886719 563.371094 279.730469 Z M 563.371094 279.730469 "/>
<path style=" stroke:none;fill-rule:nonzero;fill:rgb(0%,0%,0%);fill-opacity:1;" d="M 566.871094 270.605469 C 566.871094 267.355469 568.496094 266.511719 569.558594 266.511719 C 569.746094 266.511719 570.996094 266.542969 571.683594 267.261719 C 570.871094 267.324219 570.746094 267.917969 570.746094 268.167969 C 570.746094 268.699219 571.121094 269.074219 571.652344 269.074219 C 572.183594 269.074219 572.589844 268.761719 572.589844 268.136719 C 572.589844 266.792969 571.058594 266.011719 569.527344 266.011719 C 567.027344 266.011719 565.214844 268.167969 565.214844 270.636719 C 565.214844 273.199219 567.183594 275.167969 569.496094 275.167969 C 572.152344 275.167969 572.808594 272.761719 572.808594 272.574219 C 572.808594 272.386719 572.589844 272.386719 572.527344 272.386719 C 572.371094 272.386719 572.308594 272.449219 572.277344 272.574219 C 571.714844 274.417969 570.402344 274.667969 569.683594 274.667969 C 568.621094 274.667969 566.871094 273.824219 566.871094 270.605469 Z M 566.871094 270.605469 "/>
<path style=" stroke:none;fill-rule:nonzero;fill:rgb(0%,0%,0%);fill-opacity:1;" d="M 582.757812 270.667969 C 582.757812 268.136719 580.789062 266.011719 578.382812 266.011719 C 575.882812 266.011719 573.945312 268.199219 573.945312 270.667969 C 573.945312 273.261719 576.007812 275.167969 578.351562 275.167969 C 580.757812 275.167969 582.757812 273.199219 582.757812 270.667969 Z M 578.382812 274.667969 C 577.507812 274.667969 576.632812 274.261719 576.101562 273.324219 C 575.601562 272.449219 575.601562 271.230469 575.601562 270.511719 C 575.601562 269.730469 575.601562 268.667969 576.070312 267.792969 C 576.601562 266.886719 577.539062 266.449219 578.351562 266.449219 C 579.226562 266.449219 580.070312 266.886719 580.601562 267.761719 C 581.132812 268.605469 581.132812 269.761719 581.132812 270.511719 C 581.132812 271.230469 581.132812 272.324219 580.695312 273.199219 C 580.226562 274.105469 579.351562 274.667969 578.382812 274.667969 Z M 578.382812 274.667969 "/>
<path style=" stroke:none;fill-rule:nonzero;fill:rgb(0%,0%,0%);fill-opacity:1;" d="M 587.5 271.074219 C 587.9375 271.167969 589.5625 271.480469 589.5625 272.917969 C 589.5625 273.917969 588.875 274.730469 587.3125 274.730469 C 585.625 274.730469 584.90625 273.605469 584.53125 271.886719 C 584.46875 271.636719 584.46875 271.574219 584.25 271.574219 C 584 271.574219 584 271.699219 584 272.042969 L 584 274.699219 C 584 275.042969 584 275.167969 584.21875 275.167969 C 584.3125 275.167969 584.34375 275.136719 584.71875 274.761719 C 584.75 274.730469 584.75 274.699219 585.125 274.324219 C 586 275.136719 586.90625 275.167969 587.3125 275.167969 C 589.59375 275.167969 590.53125 273.824219 590.53125 272.386719 C 590.53125 271.355469 589.9375 270.730469 589.6875 270.511719 C 589.03125 269.855469 588.25 269.699219 587.40625 269.542969 C 586.28125 269.324219 584.96875 269.074219 584.96875 267.917969 C 584.96875 267.199219 585.46875 266.386719 587.1875 266.386719 C 589.375 266.386719 589.5 268.199219 589.53125 268.792969 C 589.53125 268.980469 589.71875 268.980469 589.75 268.980469 C 590.03125 268.980469 590.03125 268.886719 590.03125 268.511719 L 590.03125 266.480469 C 590.03125 266.167969 590.03125 266.011719 589.8125 266.011719 C 589.71875 266.011719 589.65625 266.011719 589.40625 266.261719 C 589.34375 266.324219 589.15625 266.511719 589.0625 266.574219 C 588.3125 266.011719 587.5 266.011719 587.1875 266.011719 C 584.75 266.011719 584 267.355469 584 268.480469 C 584 269.167969 584.3125 269.730469 584.84375 270.167969 C 585.5 270.667969 586.0625 270.792969 587.5 271.074219 Z M 587.5 271.074219 "/>
<path style=" stroke:none;fill-rule:nonzero;fill:rgb(0%,0%,0%);fill-opacity:1;" d="M 603.589844 264.980469 C 603.589844 263.667969 603.246094 260.886719 601.214844 260.886719 C 598.433594 260.886719 595.371094 266.511719 595.371094 271.074219 C 595.371094 272.949219 595.933594 275.167969 597.746094 275.167969 C 600.558594 275.167969 603.589844 269.449219 603.589844 264.980469 Z M 597.464844 267.699219 C 597.808594 266.449219 598.214844 264.855469 599.027344 263.417969 C 599.558594 262.449219 600.277344 261.324219 601.183594 261.324219 C 602.152344 261.324219 602.277344 262.605469 602.277344 263.730469 C 602.277344 264.730469 602.121094 265.730469 601.652344 267.699219 Z M 601.464844 268.355469 C 601.246094 269.261719 600.839844 270.949219 600.058594 272.386719 C 599.371094 273.761719 598.621094 274.730469 597.746094 274.730469 C 597.089844 274.730469 596.683594 274.136719 596.683594 272.292969 C 596.683594 271.449219 596.808594 270.292969 597.308594 268.355469 Z M 601.464844 268.355469 "/>
<path style=" stroke:none;fill-rule:nonzero;fill:rgb(0%,0%,0%);fill-opacity:1;" d="M 608.5 274.917969 C 608.5 273.605469 608 272.824219 607.21875 272.824219 C 606.5625 272.824219 606.15625 273.324219 606.15625 273.886719 C 606.15625 274.417969 606.5625 274.949219 607.21875 274.949219 C 607.4375 274.949219 607.71875 274.855469 607.90625 274.699219 C 607.96875 274.636719 608 274.636719 608 274.636719 C 608.03125 274.636719 608.03125 274.636719 608.03125 274.917969 C 608.03125 276.417969 607.34375 277.605469 606.6875 278.261719 C 606.46875 278.480469 606.46875 278.511719 606.46875 278.574219 C 606.46875 278.730469 606.5625 278.792969 606.65625 278.792969 C 606.875 278.792969 608.5 277.261719 608.5 274.917969 Z M 608.5 274.917969 "/>
<path style=" stroke:none;fill-rule:nonzero;fill:rgb(0%,0%,0%);fill-opacity:1;" d="M 626.414062 270.355469 C 626.757812 270.355469 627.132812 270.355469 627.132812 269.949219 C 627.132812 269.574219 626.757812 269.574219 626.414062 269.574219 L 615.632812 269.574219 C 615.289062 269.574219 614.945312 269.574219 614.945312 269.949219 C 614.945312 270.355469 615.289062 270.355469 615.632812 270.355469 Z M 626.414062 270.355469 "/>
<path style=" stroke:none;fill-rule:nonzero;fill:rgb(0%,0%,0%);fill-opacity:1;" d="M 636.261719 271.074219 C 636.699219 271.167969 638.324219 271.480469 638.324219 272.917969 C 638.324219 273.917969 637.636719 274.730469 636.074219 274.730469 C 634.386719 274.730469 633.667969 273.605469 633.292969 271.886719 C 633.230469 271.636719 633.230469 271.574219 633.011719 271.574219 C 632.761719 271.574219 632.761719 271.699219 632.761719 272.042969 L 632.761719 274.699219 C 632.761719 275.042969 632.761719 275.167969 632.980469 275.167969 C 633.074219 275.167969 633.105469 275.136719 633.480469 274.761719 C 633.511719 274.730469 633.511719 274.699219 633.886719 274.324219 C 634.761719 275.136719 635.667969 275.167969 636.074219 275.167969 C 638.355469 275.167969 639.292969 273.824219 639.292969 272.386719 C 639.292969 271.355469 638.699219 270.730469 638.449219 270.511719 C 637.792969 269.855469 637.011719 269.699219 636.167969 269.542969 C 635.042969 269.324219 633.730469 269.074219 633.730469 267.917969 C 633.730469 267.199219 634.230469 266.386719 635.949219 266.386719 C 638.136719 266.386719 638.261719 268.199219 638.292969 268.792969 C 638.292969 268.980469 638.480469 268.980469 638.511719 268.980469 C 638.792969 268.980469 638.792969 268.886719 638.792969 268.511719 L 638.792969 266.480469 C 638.792969 266.167969 638.792969 266.011719 638.574219 266.011719 C 638.480469 266.011719 638.417969 266.011719 638.167969 266.261719 C 638.105469 266.324219 637.917969 266.511719 637.824219 266.574219 C 637.074219 266.011719 636.261719 266.011719 635.949219 266.011719 C 633.511719 266.011719 632.761719 267.355469 632.761719 268.480469 C 632.761719 269.167969 633.074219 269.730469 633.605469 270.167969 C 634.261719 270.667969 634.824219 270.792969 636.261719 271.074219 Z M 636.261719 271.074219 "/>
<path style=" stroke:none;fill-rule:nonzero;fill:rgb(0%,0%,0%);fill-opacity:1;" d="M 643.496094 266.136719 L 640.714844 266.355469 L 640.714844 266.980469 C 641.996094 266.980469 642.183594 267.105469 642.183594 268.074219 L 642.183594 273.449219 C 642.183594 274.324219 641.964844 274.324219 640.621094 274.324219 L 640.621094 274.949219 C 641.246094 274.917969 642.339844 274.886719 642.808594 274.886719 C 643.527344 274.886719 644.214844 274.917969 644.902344 274.949219 L 644.902344 274.324219 C 643.558594 274.324219 643.496094 274.230469 643.496094 273.449219 Z M 643.558594 262.667969 C 643.558594 262.042969 643.089844 261.605469 642.527344 261.605469 C 641.902344 261.605469 641.464844 262.136719 641.464844 262.667969 C 641.464844 263.199219 641.902344 263.730469 642.527344 263.730469 C 643.089844 263.730469 643.558594 263.292969 643.558594 262.667969 Z M 643.558594 262.667969 "/>
<path style=" stroke:none;fill-rule:nonzero;fill:rgb(0%,0%,0%);fill-opacity:1;" d="M 647.6875 268.105469 L 647.6875 273.449219 C 647.6875 274.324219 647.46875 274.324219 646.125 274.324219 L 646.125 274.949219 C 646.84375 274.917969 647.84375 274.886719 648.40625 274.886719 C 648.90625 274.886719 649.9375 274.917969 650.625 274.949219 L 650.625 274.324219 C 649.28125 274.324219 649.0625 274.324219 649.0625 273.449219 L 649.0625 269.761719 C 649.0625 267.699219 650.5 266.574219 651.75 266.574219 C 653.03125 266.574219 653.25 267.636719 653.25 268.792969 L 653.25 273.449219 C 653.25 274.324219 653.03125 274.324219 651.6875 274.324219 L 651.6875 274.949219 C 652.375 274.917969 653.40625 274.886719 653.9375 274.886719 C 654.4375 274.886719 655.5 274.917969 656.15625 274.949219 L 656.15625 274.324219 C 655.125 274.324219 654.625 274.324219 654.625 273.730469 L 654.625 269.917969 C 654.625 268.199219 654.625 267.605469 654 266.886719 C 653.71875 266.542969 653.0625 266.136719 651.90625 266.136719 C 650.4375 266.136719 649.5 266.980469 648.9375 268.230469 L 648.9375 266.136719 L 646.125 266.355469 L 646.125 266.980469 C 647.53125 266.980469 647.6875 267.105469 647.6875 268.105469 Z M 647.6875 268.105469 "/>
<path style=" stroke:none;fill-rule:nonzero;fill:rgb(0%,0%,0%);fill-opacity:1;" d="M 668.953125 264.980469 C 668.953125 263.667969 668.609375 260.886719 666.578125 260.886719 C 663.796875 260.886719 660.734375 266.511719 660.734375 271.074219 C 660.734375 272.949219 661.296875 275.167969 663.109375 275.167969 C 665.921875 275.167969 668.953125 269.449219 668.953125 264.980469 Z M 662.828125 267.699219 C 663.171875 266.449219 663.578125 264.855469 664.390625 263.417969 C 664.921875 262.449219 665.640625 261.324219 666.546875 261.324219 C 667.515625 261.324219 667.640625 262.605469 667.640625 263.730469 C 667.640625 264.730469 667.484375 265.730469 667.015625 267.699219 Z M 666.828125 268.355469 C 666.609375 269.261719 666.203125 270.949219 665.421875 272.386719 C 664.734375 273.761719 663.984375 274.730469 663.109375 274.730469 C 662.453125 274.730469 662.046875 274.136719 662.046875 272.292969 C 662.046875 271.449219 662.171875 270.292969 662.671875 268.355469 Z M 666.828125 268.355469 "/>
<g clip-path="url(#clip14)" clip-rule="nonzero">
<path style=" stroke:none;fill-rule:nonzero;fill:rgb(0%,0%,0%);fill-opacity:1;" d="M 675.546875 269.949219 C 675.546875 268.417969 675.328125 266.011719 674.234375 263.730469 C 673.046875 261.292969 671.328125 259.980469 671.140625 259.980469 C 671.015625 259.980469 670.921875 260.074219 670.921875 260.199219 C 670.921875 260.261719 670.921875 260.292969 671.296875 260.667969 C 673.265625 262.636719 674.390625 265.792969 674.390625 269.949219 C 674.390625 273.386719 673.671875 276.886719 671.203125 279.386719 C 670.921875 279.636719 670.921875 279.667969 670.921875 279.730469 C 670.921875 279.855469 671.015625 279.949219 671.140625 279.949219 C 671.328125 279.949219 673.140625 278.574219 674.296875 276.042969 C 675.328125 273.855469 675.546875 271.636719 675.546875 269.949219 Z M 675.546875 269.949219 "/>
</g>
<g clip-path="url(#clip15)" clip-rule="nonzero">
<path style="fill:none;stroke-width:3.2;stroke-linecap:butt;stroke-linejoin:miter;stroke:rgb(0%,0%,0%);stroke-opacity:1;stroke-dasharray:3.2,3.2;stroke-miterlimit:4;" d="M -40.183594 0.789062 C 11.261719 89.898438 11.261719 199.683594 -40.183594 288.789062 " transform="matrix(-1,0,0,1,0,0)"/>
</g>
<path style="fill:none;stroke-width:2.4;stroke-linecap:butt;stroke-linejoin:miter;stroke:rgb(0%,0%,0%);stroke-opacity:1;stroke-miterlimit:4;" d="M -289.601562 144.789062 L -30.398438 19.988281 " transform="matrix(-1,0,0,1,0,0)"/>
<path style="fill:none;stroke-width:2.4;stroke-linecap:butt;stroke-linejoin:miter;stroke:rgb(0%,0%,0%);stroke-opacity:1;stroke-miterlimit:4;" d="M -289.601562 144.789062 L -30.398438 269.589844 " transform="matrix(-1,0,0,1,0,0)"/>
<path style="fill:none;stroke-width:2.4;stroke-linecap:butt;stroke-linejoin:miter;stroke:rgb(0%,0%,0%);stroke-opacity:1;stroke-miterlimit:4;" d="M 1.601562 144.789062 L 217.601562 144.789062 "/>
<use xlink:href="#surface46" transform="matrix(1,0,0,1,27,17)" mask="url(#mask6)"/>
<path style=" stroke:none;fill-rule:nonzero;fill:rgb(0%,0%,0%);fill-opacity:1;" d="M 55.558594 26.929688 C 55.558594 26.867188 55.558594 26.835938 55.214844 26.492188 C 52.746094 23.992188 52.089844 20.210938 52.089844 17.148438 C 52.089844 13.679688 52.839844 10.210938 55.308594 7.742188 C 55.558594 7.492188 55.558594 7.460938 55.558594 7.398438 C 55.558594 7.242188 55.496094 7.179688 55.371094 7.179688 C 55.152344 7.179688 53.371094 8.554688 52.183594 11.085938 C 51.183594 13.273438 50.933594 15.492188 50.933594 17.148438 C 50.933594 18.710938 51.152344 21.117188 52.246094 23.398438 C 53.464844 25.835938 55.152344 27.148438 55.371094 27.148438 C 55.496094 27.148438 55.558594 27.085938 55.558594 26.929688 Z M 55.558594 26.929688 "/>
<path style=" stroke:none;fill-rule:nonzero;fill:rgb(0%,0%,0%);fill-opacity:1;" d="M 69.835938 17.554688 C 70.179688 17.554688 70.554688 17.554688 70.554688 17.148438 C 70.554688 16.773438 70.179688 16.773438 69.835938 16.773438 L 59.054688 16.773438 C 58.710938 16.773438 58.367188 16.773438 58.367188 17.148438 C 58.367188 17.554688 58.710938 17.554688 59.054688 17.554688 Z M 69.835938 17.554688 "/>
<path style=" stroke:none;fill-rule:nonzero;fill:rgb(0%,0%,0%);fill-opacity:1;" d="M 77.875 17.804688 C 77.875 14.554688 79.5 13.710938 80.5625 13.710938 C 80.75 13.710938 82 13.742188 82.6875 14.460938 C 81.875 14.523438 81.75 15.117188 81.75 15.367188 C 81.75 15.898438 82.125 16.273438 82.65625 16.273438 C 83.1875 16.273438 83.59375 15.960938 83.59375 15.335938 C 83.59375 13.992188 82.0625 13.210938 80.53125 13.210938 C 78.03125 13.210938 76.21875 15.367188 76.21875 17.835938 C 76.21875 20.398438 78.1875 22.367188 80.5 22.367188 C 83.15625 22.367188 83.8125 19.960938 83.8125 19.773438 C 83.8125 19.585938 83.59375 19.585938 83.53125 19.585938 C 83.375 19.585938 83.3125 19.648438 83.28125 19.773438 C 82.71875 21.617188 81.40625 21.867188 80.6875 21.867188 C 79.625 21.867188 77.875 21.023438 77.875 17.804688 Z M 77.875 17.804688 "/>
<path style=" stroke:none;fill-rule:nonzero;fill:rgb(0%,0%,0%);fill-opacity:1;" d="M 93.761719 17.867188 C 93.761719 15.335938 91.792969 13.210938 89.386719 13.210938 C 86.886719 13.210938 84.949219 15.398438 84.949219 17.867188 C 84.949219 20.460938 87.011719 22.367188 89.355469 22.367188 C 91.761719 22.367188 93.761719 20.398438 93.761719 17.867188 Z M 89.386719 21.867188 C 88.511719 21.867188 87.636719 21.460938 87.105469 20.523438 C 86.605469 19.648438 86.605469 18.429688 86.605469 17.710938 C 86.605469 16.929688 86.605469 15.867188 87.074219 14.992188 C 87.605469 14.085938 88.542969 13.648438 89.355469 13.648438 C 90.230469 13.648438 91.074219 14.085938 91.605469 14.960938 C 92.136719 15.804688 92.136719 16.960938 92.136719 17.710938 C 92.136719 18.429688 92.136719 19.523438 91.699219 20.398438 C 91.230469 21.304688 90.355469 21.867188 89.386719 21.867188 Z M 89.386719 21.867188 "/>
<path style=" stroke:none;fill-rule:nonzero;fill:rgb(0%,0%,0%);fill-opacity:1;" d="M 98.503906 18.273438 C 98.941406 18.367188 100.566406 18.679688 100.566406 20.117188 C 100.566406 21.117188 99.878906 21.929688 98.316406 21.929688 C 96.628906 21.929688 95.910156 20.804688 95.535156 19.085938 C 95.472656 18.835938 95.472656 18.773438 95.253906 18.773438 C 95.003906 18.773438 95.003906 18.898438 95.003906 19.242188 L 95.003906 21.898438 C 95.003906 22.242188 95.003906 22.367188 95.222656 22.367188 C 95.316406 22.367188 95.347656 22.335938 95.722656 21.960938 C 95.753906 21.929688 95.753906 21.898438 96.128906 21.523438 C 97.003906 22.335938 97.910156 22.367188 98.316406 22.367188 C 100.597656 22.367188 101.535156 21.023438 101.535156 19.585938 C 101.535156 18.554688 100.941406 17.929688 100.691406 17.710938 C 100.035156 17.054688 99.253906 16.898438 98.410156 16.742188 C 97.285156 16.523438 95.972656 16.273438 95.972656 15.117188 C 95.972656 14.398438 96.472656 13.585938 98.191406 13.585938 C 100.378906 13.585938 100.503906 15.398438 100.535156 15.992188 C 100.535156 16.179688 100.722656 16.179688 100.753906 16.179688 C 101.035156 16.179688 101.035156 16.085938 101.035156 15.710938 L 101.035156 13.679688 C 101.035156 13.367188 101.035156 13.210938 100.816406 13.210938 C 100.722656 13.210938 100.660156 13.210938 100.410156 13.460938 C 100.347656 13.523438 100.160156 13.710938 100.066406 13.773438 C 99.316406 13.210938 98.503906 13.210938 98.191406 13.210938 C 95.753906 13.210938 95.003906 14.554688 95.003906 15.679688 C 95.003906 16.367188 95.316406 16.929688 95.847656 17.367188 C 96.503906 17.867188 97.066406 17.992188 98.503906 18.273438 Z M 98.503906 18.273438 "/>
<path style=" stroke:none;fill-rule:nonzero;fill:rgb(0%,0%,0%);fill-opacity:1;" d="M 114.589844 12.179688 C 114.589844 10.867188 114.246094 8.085938 112.214844 8.085938 C 109.433594 8.085938 106.371094 13.710938 106.371094 18.273438 C 106.371094 20.148438 106.933594 22.367188 108.746094 22.367188 C 111.558594 22.367188 114.589844 16.648438 114.589844 12.179688 Z M 108.464844 14.898438 C 108.808594 13.648438 109.214844 12.054688 110.027344 10.617188 C 110.558594 9.648438 111.277344 8.523438 112.183594 8.523438 C 113.152344 8.523438 113.277344 9.804688 113.277344 10.929688 C 113.277344 11.929688 113.121094 12.929688 112.652344 14.898438 Z M 112.464844 15.554688 C 112.246094 16.460938 111.839844 18.148438 111.058594 19.585938 C 110.371094 20.960938 109.621094 21.929688 108.746094 21.929688 C 108.089844 21.929688 107.683594 21.335938 107.683594 19.492188 C 107.683594 18.648438 107.808594 17.492188 108.308594 15.554688 Z M 112.464844 15.554688 "/>
<path style=" stroke:none;fill-rule:nonzero;fill:rgb(0%,0%,0%);fill-opacity:1;" d="M 119.503906 22.117188 C 119.503906 20.804688 119.003906 20.023438 118.222656 20.023438 C 117.566406 20.023438 117.160156 20.523438 117.160156 21.085938 C 117.160156 21.617188 117.566406 22.148438 118.222656 22.148438 C 118.441406 22.148438 118.722656 22.054688 118.910156 21.898438 C 118.972656 21.835938 119.003906 21.835938 119.003906 21.835938 C 119.035156 21.835938 119.035156 21.835938 119.035156 22.117188 C 119.035156 23.617188 118.347656 24.804688 117.691406 25.460938 C 117.472656 25.679688 117.472656 25.710938 117.472656 25.773438 C 117.472656 25.929688 117.566406 25.992188 117.660156 25.992188 C 117.878906 25.992188 119.503906 24.460938 119.503906 22.117188 Z M 119.503906 22.117188 "/>
<path style=" stroke:none;fill-rule:nonzero;fill:rgb(0%,0%,0%);fill-opacity:1;" d="M 128.445312 18.273438 C 128.882812 18.367188 130.507812 18.679688 130.507812 20.117188 C 130.507812 21.117188 129.820312 21.929688 128.257812 21.929688 C 126.570312 21.929688 125.851562 20.804688 125.476562 19.085938 C 125.414062 18.835938 125.414062 18.773438 125.195312 18.773438 C 124.945312 18.773438 124.945312 18.898438 124.945312 19.242188 L 124.945312 21.898438 C 124.945312 22.242188 124.945312 22.367188 125.164062 22.367188 C 125.257812 22.367188 125.289062 22.335938 125.664062 21.960938 C 125.695312 21.929688 125.695312 21.898438 126.070312 21.523438 C 126.945312 22.335938 127.851562 22.367188 128.257812 22.367188 C 130.539062 22.367188 131.476562 21.023438 131.476562 19.585938 C 131.476562 18.554688 130.882812 17.929688 130.632812 17.710938 C 129.976562 17.054688 129.195312 16.898438 128.351562 16.742188 C 127.226562 16.523438 125.914062 16.273438 125.914062 15.117188 C 125.914062 14.398438 126.414062 13.585938 128.132812 13.585938 C 130.320312 13.585938 130.445312 15.398438 130.476562 15.992188 C 130.476562 16.179688 130.664062 16.179688 130.695312 16.179688 C 130.976562 16.179688 130.976562 16.085938 130.976562 15.710938 L 130.976562 13.679688 C 130.976562 13.367188 130.976562 13.210938 130.757812 13.210938 C 130.664062 13.210938 130.601562 13.210938 130.351562 13.460938 C 130.289062 13.523438 130.101562 13.710938 130.007812 13.773438 C 129.257812 13.210938 128.445312 13.210938 128.132812 13.210938 C 125.695312 13.210938 124.945312 14.554688 124.945312 15.679688 C 124.945312 16.367188 125.257812 16.929688 125.789062 17.367188 C 126.445312 17.867188 127.007812 17.992188 128.445312 18.273438 Z M 128.445312 18.273438 "/>
<path style=" stroke:none;fill-rule:nonzero;fill:rgb(0%,0%,0%);fill-opacity:1;" d="M 135.679688 13.335938 L 132.898438 13.554688 L 132.898438 14.179688 C 134.179688 14.179688 134.367188 14.304688 134.367188 15.273438 L 134.367188 20.648438 C 134.367188 21.523438 134.148438 21.523438 132.804688 21.523438 L 132.804688 22.148438 C 133.429688 22.117188 134.523438 22.085938 134.992188 22.085938 C 135.710938 22.085938 136.398438 22.117188 137.085938 22.148438 L 137.085938 21.523438 C 135.742188 21.523438 135.679688 21.429688 135.679688 20.648438 Z M 135.742188 9.867188 C 135.742188 9.242188 135.273438 8.804688 134.710938 8.804688 C 134.085938 8.804688 133.648438 9.335938 133.648438 9.867188 C 133.648438 10.398438 134.085938 10.929688 134.710938 10.929688 C 135.273438 10.929688 135.742188 10.492188 135.742188 9.867188 Z M 135.742188 9.867188 "/>
<path style=" stroke:none;fill-rule:nonzero;fill:rgb(0%,0%,0%);fill-opacity:1;" d="M 139.871094 15.304688 L 139.871094 20.648438 C 139.871094 21.523438 139.652344 21.523438 138.308594 21.523438 L 138.308594 22.148438 C 139.027344 22.117188 140.027344 22.085938 140.589844 22.085938 C 141.089844 22.085938 142.121094 22.117188 142.808594 22.148438 L 142.808594 21.523438 C 141.464844 21.523438 141.246094 21.523438 141.246094 20.648438 L 141.246094 16.960938 C 141.246094 14.898438 142.683594 13.773438 143.933594 13.773438 C 145.214844 13.773438 145.433594 14.835938 145.433594 15.992188 L 145.433594 20.648438 C 145.433594 21.523438 145.214844 21.523438 143.871094 21.523438 L 143.871094 22.148438 C 144.558594 22.117188 145.589844 22.085938 146.121094 22.085938 C 146.621094 22.085938 147.683594 22.117188 148.339844 22.148438 L 148.339844 21.523438 C 147.308594 21.523438 146.808594 21.523438 146.808594 20.929688 L 146.808594 17.117188 C 146.808594 15.398438 146.808594 14.804688 146.183594 14.085938 C 145.902344 13.742188 145.246094 13.335938 144.089844 13.335938 C 142.621094 13.335938 141.683594 14.179688 141.121094 15.429688 L 141.121094 13.335938 L 138.308594 13.554688 L 138.308594 14.179688 C 139.714844 14.179688 139.871094 14.304688 139.871094 15.304688 Z M 139.871094 15.304688 "/>
<path style=" stroke:none;fill-rule:nonzero;fill:rgb(0%,0%,0%);fill-opacity:1;" d="M 161.140625 12.179688 C 161.140625 10.867188 160.796875 8.085938 158.765625 8.085938 C 155.984375 8.085938 152.921875 13.710938 152.921875 18.273438 C 152.921875 20.148438 153.484375 22.367188 155.296875 22.367188 C 158.109375 22.367188 161.140625 16.648438 161.140625 12.179688 Z M 155.015625 14.898438 C 155.359375 13.648438 155.765625 12.054688 156.578125 10.617188 C 157.109375 9.648438 157.828125 8.523438 158.734375 8.523438 C 159.703125 8.523438 159.828125 9.804688 159.828125 10.929688 C 159.828125 11.929688 159.671875 12.929688 159.203125 14.898438 Z M 159.015625 15.554688 C 158.796875 16.460938 158.390625 18.148438 157.609375 19.585938 C 156.921875 20.960938 156.171875 21.929688 155.296875 21.929688 C 154.640625 21.929688 154.234375 21.335938 154.234375 19.492188 C 154.234375 18.648438 154.359375 17.492188 154.859375 15.554688 Z M 159.015625 15.554688 "/>
<path style=" stroke:none;fill-rule:nonzero;fill:rgb(0%,0%,0%);fill-opacity:1;" d="M 167.734375 17.148438 C 167.734375 15.617188 167.515625 13.210938 166.421875 10.929688 C 165.234375 8.492188 163.515625 7.179688 163.328125 7.179688 C 163.203125 7.179688 163.109375 7.273438 163.109375 7.398438 C 163.109375 7.460938 163.109375 7.492188 163.484375 7.867188 C 165.453125 9.835938 166.578125 12.992188 166.578125 17.148438 C 166.578125 20.585938 165.859375 24.085938 163.390625 26.585938 C 163.109375 26.835938 163.109375 26.867188 163.109375 26.929688 C 163.109375 27.054688 163.203125 27.148438 163.328125 27.148438 C 163.515625 27.148438 165.328125 25.773438 166.484375 23.242188 C 167.515625 21.054688 167.734375 18.835938 167.734375 17.148438 Z M 167.734375 17.148438 "/>
<use xlink:href="#surface52" transform="matrix(1,0,0,1,27,266)" mask="url(#mask7)"/>
<path style=" stroke:none;fill-rule:nonzero;fill:rgb(0%,0%,0%);fill-opacity:1;" d="M 52.078125 286.515625 C 52.078125 286.453125 52.078125 286.421875 51.734375 286.078125 C 49.265625 283.578125 48.609375 279.796875 48.609375 276.734375 C 48.609375 273.265625 49.359375 269.796875 51.828125 267.328125 C 52.078125 267.078125 52.078125 267.046875 52.078125 266.984375 C 52.078125 266.828125 52.015625 266.765625 51.890625 266.765625 C 51.671875 266.765625 49.890625 268.140625 48.703125 270.671875 C 47.703125 272.859375 47.453125 275.078125 47.453125 276.734375 C 47.453125 278.296875 47.671875 280.703125 48.765625 282.984375 C 49.984375 285.421875 51.671875 286.734375 51.890625 286.734375 C 52.015625 286.734375 52.078125 286.671875 52.078125 286.515625 Z M 52.078125 286.515625 "/>
<path style=" stroke:none;fill-rule:nonzero;fill:rgb(0%,0%,0%);fill-opacity:1;" d="M 66.355469 277.140625 C 66.699219 277.140625 67.074219 277.140625 67.074219 276.734375 C 67.074219 276.359375 66.699219 276.359375 66.355469 276.359375 L 55.574219 276.359375 C 55.230469 276.359375 54.886719 276.359375 54.886719 276.734375 C 54.886719 277.140625 55.230469 277.140625 55.574219 277.140625 Z M 66.355469 277.140625 "/>
<path style=" stroke:none;fill-rule:nonzero;fill:rgb(0%,0%,0%);fill-opacity:1;" d="M 74.394531 277.390625 C 74.394531 274.140625 76.019531 273.296875 77.082031 273.296875 C 77.269531 273.296875 78.519531 273.328125 79.207031 274.046875 C 78.394531 274.109375 78.269531 274.703125 78.269531 274.953125 C 78.269531 275.484375 78.644531 275.859375 79.175781 275.859375 C 79.707031 275.859375 80.113281 275.546875 80.113281 274.921875 C 80.113281 273.578125 78.582031 272.796875 77.050781 272.796875 C 74.550781 272.796875 72.738281 274.953125 72.738281 277.421875 C 72.738281 279.984375 74.707031 281.953125 77.019531 281.953125 C 79.675781 281.953125 80.332031 279.546875 80.332031 279.359375 C 80.332031 279.171875 80.113281 279.171875 80.050781 279.171875 C 79.894531 279.171875 79.832031 279.234375 79.800781 279.359375 C 79.238281 281.203125 77.925781 281.453125 77.207031 281.453125 C 76.144531 281.453125 74.394531 280.609375 74.394531 277.390625 Z M 74.394531 277.390625 "/>
<path style=" stroke:none;fill-rule:nonzero;fill:rgb(0%,0%,0%);fill-opacity:1;" d="M 90.28125 277.453125 C 90.28125 274.921875 88.3125 272.796875 85.90625 272.796875 C 83.40625 272.796875 81.46875 274.984375 81.46875 277.453125 C 81.46875 280.046875 83.53125 281.953125 85.875 281.953125 C 88.28125 281.953125 90.28125 279.984375 90.28125 277.453125 Z M 85.90625 281.453125 C 85.03125 281.453125 84.15625 281.046875 83.625 280.109375 C 83.125 279.234375 83.125 278.015625 83.125 277.296875 C 83.125 276.515625 83.125 275.453125 83.59375 274.578125 C 84.125 273.671875 85.0625 273.234375 85.875 273.234375 C 86.75 273.234375 87.59375 273.671875 88.125 274.546875 C 88.65625 275.390625 88.65625 276.546875 88.65625 277.296875 C 88.65625 278.015625 88.65625 279.109375 88.21875 279.984375 C 87.75 280.890625 86.875 281.453125 85.90625 281.453125 Z M 85.90625 281.453125 "/>
<path style=" stroke:none;fill-rule:nonzero;fill:rgb(0%,0%,0%);fill-opacity:1;" d="M 95.023438 277.859375 C 95.460938 277.953125 97.085938 278.265625 97.085938 279.703125 C 97.085938 280.703125 96.398438 281.515625 94.835938 281.515625 C 93.148438 281.515625 92.429688 280.390625 92.054688 278.671875 C 91.992188 278.421875 91.992188 278.359375 91.773438 278.359375 C 91.523438 278.359375 91.523438 278.484375 91.523438 278.828125 L 91.523438 281.484375 C 91.523438 281.828125 91.523438 281.953125 91.742188 281.953125 C 91.835938 281.953125 91.867188 281.921875 92.242188 281.546875 C 92.273438 281.515625 92.273438 281.484375 92.648438 281.109375 C 93.523438 281.921875 94.429688 281.953125 94.835938 281.953125 C 97.117188 281.953125 98.054688 280.609375 98.054688 279.171875 C 98.054688 278.140625 97.460938 277.515625 97.210938 277.296875 C 96.554688 276.640625 95.773438 276.484375 94.929688 276.328125 C 93.804688 276.109375 92.492188 275.859375 92.492188 274.703125 C 92.492188 273.984375 92.992188 273.171875 94.710938 273.171875 C 96.898438 273.171875 97.023438 274.984375 97.054688 275.578125 C 97.054688 275.765625 97.242188 275.765625 97.273438 275.765625 C 97.554688 275.765625 97.554688 275.671875 97.554688 275.296875 L 97.554688 273.265625 C 97.554688 272.953125 97.554688 272.796875 97.335938 272.796875 C 97.242188 272.796875 97.179688 272.796875 96.929688 273.046875 C 96.867188 273.109375 96.679688 273.296875 96.585938 273.359375 C 95.835938 272.796875 95.023438 272.796875 94.710938 272.796875 C 92.273438 272.796875 91.523438 274.140625 91.523438 275.265625 C 91.523438 275.953125 91.835938 276.515625 92.367188 276.953125 C 93.023438 277.453125 93.585938 277.578125 95.023438 277.859375 Z M 95.023438 277.859375 "/>
<path style=" stroke:none;fill-rule:nonzero;fill:rgb(0%,0%,0%);fill-opacity:1;" d="M 111.109375 271.765625 C 111.109375 270.453125 110.765625 267.671875 108.734375 267.671875 C 105.953125 267.671875 102.890625 273.296875 102.890625 277.859375 C 102.890625 279.734375 103.453125 281.953125 105.265625 281.953125 C 108.078125 281.953125 111.109375 276.234375 111.109375 271.765625 Z M 104.984375 274.484375 C 105.328125 273.234375 105.734375 271.640625 106.546875 270.203125 C 107.078125 269.234375 107.796875 268.109375 108.703125 268.109375 C 109.671875 268.109375 109.796875 269.390625 109.796875 270.515625 C 109.796875 271.515625 109.640625 272.515625 109.171875 274.484375 Z M 108.984375 275.140625 C 108.765625 276.046875 108.359375 277.734375 107.578125 279.171875 C 106.890625 280.546875 106.140625 281.515625 105.265625 281.515625 C 104.609375 281.515625 104.203125 280.921875 104.203125 279.078125 C 104.203125 278.234375 104.328125 277.078125 104.828125 275.140625 Z M 108.984375 275.140625 "/>
<path style=" stroke:none;fill-rule:nonzero;fill:rgb(0%,0%,0%);fill-opacity:1;" d="M 116.023438 281.703125 C 116.023438 280.390625 115.523438 279.609375 114.742188 279.609375 C 114.085938 279.609375 113.679688 280.109375 113.679688 280.671875 C 113.679688 281.203125 114.085938 281.734375 114.742188 281.734375 C 114.960938 281.734375 115.242188 281.640625 115.429688 281.484375 C 115.492188 281.421875 115.523438 281.421875 115.523438 281.421875 C 115.554688 281.421875 115.554688 281.421875 115.554688 281.703125 C 115.554688 283.203125 114.867188 284.390625 114.210938 285.046875 C 113.992188 285.265625 113.992188 285.296875 113.992188 285.359375 C 113.992188 285.515625 114.085938 285.578125 114.179688 285.578125 C 114.398438 285.578125 116.023438 284.046875 116.023438 281.703125 Z M 116.023438 281.703125 "/>
<path style=" stroke:none;fill-rule:nonzero;fill:rgb(0%,0%,0%);fill-opacity:1;" d="M 133.9375 277.140625 C 134.28125 277.140625 134.65625 277.140625 134.65625 276.734375 C 134.65625 276.359375 134.28125 276.359375 133.9375 276.359375 L 123.15625 276.359375 C 122.8125 276.359375 122.46875 276.359375 122.46875 276.734375 C 122.46875 277.140625 122.8125 277.140625 123.15625 277.140625 Z M 133.9375 277.140625 "/>
<path style=" stroke:none;fill-rule:nonzero;fill:rgb(0%,0%,0%);fill-opacity:1;" d="M 143.785156 277.859375 C 144.222656 277.953125 145.847656 278.265625 145.847656 279.703125 C 145.847656 280.703125 145.160156 281.515625 143.597656 281.515625 C 141.910156 281.515625 141.191406 280.390625 140.816406 278.671875 C 140.753906 278.421875 140.753906 278.359375 140.535156 278.359375 C 140.285156 278.359375 140.285156 278.484375 140.285156 278.828125 L 140.285156 281.484375 C 140.285156 281.828125 140.285156 281.953125 140.503906 281.953125 C 140.597656 281.953125 140.628906 281.921875 141.003906 281.546875 C 141.035156 281.515625 141.035156 281.484375 141.410156 281.109375 C 142.285156 281.921875 143.191406 281.953125 143.597656 281.953125 C 145.878906 281.953125 146.816406 280.609375 146.816406 279.171875 C 146.816406 278.140625 146.222656 277.515625 145.972656 277.296875 C 145.316406 276.640625 144.535156 276.484375 143.691406 276.328125 C 142.566406 276.109375 141.253906 275.859375 141.253906 274.703125 C 141.253906 273.984375 141.753906 273.171875 143.472656 273.171875 C 145.660156 273.171875 145.785156 274.984375 145.816406 275.578125 C 145.816406 275.765625 146.003906 275.765625 146.035156 275.765625 C 146.316406 275.765625 146.316406 275.671875 146.316406 275.296875 L 146.316406 273.265625 C 146.316406 272.953125 146.316406 272.796875 146.097656 272.796875 C 146.003906 272.796875 145.941406 272.796875 145.691406 273.046875 C 145.628906 273.109375 145.441406 273.296875 145.347656 273.359375 C 144.597656 272.796875 143.785156 272.796875 143.472656 272.796875 C 141.035156 272.796875 140.285156 274.140625 140.285156 275.265625 C 140.285156 275.953125 140.597656 276.515625 141.128906 276.953125 C 141.785156 277.453125 142.347656 277.578125 143.785156 277.859375 Z M 143.785156 277.859375 "/>
<path style=" stroke:none;fill-rule:nonzero;fill:rgb(0%,0%,0%);fill-opacity:1;" d="M 151.019531 272.921875 L 148.238281 273.140625 L 148.238281 273.765625 C 149.519531 273.765625 149.707031 273.890625 149.707031 274.859375 L 149.707031 280.234375 C 149.707031 281.109375 149.488281 281.109375 148.144531 281.109375 L 148.144531 281.734375 C 148.769531 281.703125 149.863281 281.671875 150.332031 281.671875 C 151.050781 281.671875 151.738281 281.703125 152.425781 281.734375 L 152.425781 281.109375 C 151.082031 281.109375 151.019531 281.015625 151.019531 280.234375 Z M 151.082031 269.453125 C 151.082031 268.828125 150.613281 268.390625 150.050781 268.390625 C 149.425781 268.390625 148.988281 268.921875 148.988281 269.453125 C 148.988281 269.984375 149.425781 270.515625 150.050781 270.515625 C 150.613281 270.515625 151.082031 270.078125 151.082031 269.453125 Z M 151.082031 269.453125 "/>
<path style=" stroke:none;fill-rule:nonzero;fill:rgb(0%,0%,0%);fill-opacity:1;" d="M 155.210938 274.890625 L 155.210938 280.234375 C 155.210938 281.109375 154.992188 281.109375 153.648438 281.109375 L 153.648438 281.734375 C 154.367188 281.703125 155.367188 281.671875 155.929688 281.671875 C 156.429688 281.671875 157.460938 281.703125 158.148438 281.734375 L 158.148438 281.109375 C 156.804688 281.109375 156.585938 281.109375 156.585938 280.234375 L 156.585938 276.546875 C 156.585938 274.484375 158.023438 273.359375 159.273438 273.359375 C 160.554688 273.359375 160.773438 274.421875 160.773438 275.578125 L 160.773438 280.234375 C 160.773438 281.109375 160.554688 281.109375 159.210938 281.109375 L 159.210938 281.734375 C 159.898438 281.703125 160.929688 281.671875 161.460938 281.671875 C 161.960938 281.671875 163.023438 281.703125 163.679688 281.734375 L 163.679688 281.109375 C 162.648438 281.109375 162.148438 281.109375 162.148438 280.515625 L 162.148438 276.703125 C 162.148438 274.984375 162.148438 274.390625 161.523438 273.671875 C 161.242188 273.328125 160.585938 272.921875 159.429688 272.921875 C 157.960938 272.921875 157.023438 273.765625 156.460938 275.015625 L 156.460938 272.921875 L 153.648438 273.140625 L 153.648438 273.765625 C 155.054688 273.765625 155.210938 273.890625 155.210938 274.890625 Z M 155.210938 274.890625 "/>
<path style=" stroke:none;fill-rule:nonzero;fill:rgb(0%,0%,0%);fill-opacity:1;" d="M 176.476562 271.765625 C 176.476562 270.453125 176.132812 267.671875 174.101562 267.671875 C 171.320312 267.671875 168.257812 273.296875 168.257812 277.859375 C 168.257812 279.734375 168.820312 281.953125 170.632812 281.953125 C 173.445312 281.953125 176.476562 276.234375 176.476562 271.765625 Z M 170.351562 274.484375 C 170.695312 273.234375 171.101562 271.640625 171.914062 270.203125 C 172.445312 269.234375 173.164062 268.109375 174.070312 268.109375 C 175.039062 268.109375 175.164062 269.390625 175.164062 270.515625 C 175.164062 271.515625 175.007812 272.515625 174.539062 274.484375 Z M 174.351562 275.140625 C 174.132812 276.046875 173.726562 277.734375 172.945312 279.171875 C 172.257812 280.546875 171.507812 281.515625 170.632812 281.515625 C 169.976562 281.515625 169.570312 280.921875 169.570312 279.078125 C 169.570312 278.234375 169.695312 277.078125 170.195312 275.140625 Z M 174.351562 275.140625 "/>
<path style=" stroke:none;fill-rule:nonzero;fill:rgb(0%,0%,0%);fill-opacity:1;" d="M 183.074219 276.734375 C 183.074219 275.203125 182.855469 272.796875 181.761719 270.515625 C 180.574219 268.078125 178.855469 266.765625 178.667969 266.765625 C 178.542969 266.765625 178.449219 266.859375 178.449219 266.984375 C 178.449219 267.046875 178.449219 267.078125 178.824219 267.453125 C 180.792969 269.421875 181.917969 272.578125 181.917969 276.734375 C 181.917969 280.171875 181.199219 283.671875 178.730469 286.171875 C 178.449219 286.421875 178.449219 286.453125 178.449219 286.515625 C 178.449219 286.640625 178.542969 286.734375 178.667969 286.734375 C 178.855469 286.734375 180.667969 285.359375 181.824219 282.828125 C 182.855469 280.640625 183.074219 278.421875 183.074219 276.734375 Z M 183.074219 276.734375 "/>
<path style="fill:none;stroke-width:2.4;stroke-linecap:butt;stroke-linejoin:miter;stroke:rgb(0%,0%,0%);stroke-opacity:1;stroke-miterlimit:4;" d="M 30.398438 19.988281 L 30.398438 269.589844 "/>
<use xlink:href="#surface58" transform="matrix(1,0,0,1,234,81)" mask="url(#mask8)"/>
<use xlink:href="#surface59" transform="matrix(1,0,0,1,216,71)" mask="url(#mask9)"/>
<path style=" stroke:none;fill-rule:nonzero;fill:rgb(0%,0%,0%);fill-opacity:1;" d="M 269.367188 103.4375 L 271.617188 103.4375 C 270.960938 106.375 270.773438 107.25 270.773438 108.59375 C 270.773438 108.875 270.773438 109.40625 270.929688 110.09375 C 271.148438 110.96875 271.367188 111.09375 271.648438 111.09375 C 272.054688 111.09375 272.492188 110.75 272.492188 110.34375 C 272.492188 110.21875 272.492188 110.1875 272.367188 109.90625 C 271.773438 108.46875 271.773438 107.15625 271.773438 106.59375 C 271.773438 105.5625 271.929688 104.46875 272.148438 103.4375 L 274.398438 103.4375 C 274.679688 103.4375 275.398438 103.4375 275.398438 102.75 C 275.398438 102.28125 274.960938 102.28125 274.585938 102.28125 L 267.898438 102.28125 C 267.460938 102.28125 266.710938 102.28125 265.835938 103.21875 C 265.148438 104 264.617188 104.90625 264.617188 105 C 264.617188 105.03125 264.617188 105.21875 264.867188 105.21875 C 265.023438 105.21875 265.054688 105.125 265.179688 104.96875 C 266.148438 103.4375 267.304688 103.4375 267.710938 103.4375 L 268.835938 103.4375 C 268.210938 105.84375 267.148438 108.25 266.304688 110.0625 C 266.148438 110.375 266.148438 110.40625 266.148438 110.5625 C 266.148438 110.9375 266.460938 111.09375 266.710938 111.09375 C 267.304688 111.09375 267.460938 110.53125 267.710938 109.8125 C 267.992188 108.875 267.992188 108.84375 268.242188 107.84375 Z M 269.367188 103.4375 "/>
<path style=" stroke:none;fill-rule:nonzero;fill:rgb(0%,0%,0%);fill-opacity:1;" d="M 293.710938 106.28125 C 294.054688 106.28125 294.429688 106.28125 294.429688 105.875 C 294.429688 105.5 294.054688 105.5 293.710938 105.5 L 282.929688 105.5 C 282.585938 105.5 282.242188 105.5 282.242188 105.875 C 282.242188 106.28125 282.585938 106.28125 282.929688 106.28125 Z M 293.710938 106.28125 "/>
<path style=" stroke:none;fill-rule:nonzero;fill:rgb(0%,0%,0%);fill-opacity:1;" d="M 309.574219 100.90625 C 309.574219 99.59375 309.230469 96.8125 307.199219 96.8125 C 304.417969 96.8125 301.355469 102.4375 301.355469 107 C 301.355469 108.875 301.917969 111.09375 303.730469 111.09375 C 306.542969 111.09375 309.574219 105.375 309.574219 100.90625 Z M 303.449219 103.625 C 303.792969 102.375 304.199219 100.78125 305.011719 99.34375 C 305.542969 98.375 306.261719 97.25 307.167969 97.25 C 308.136719 97.25 308.261719 98.53125 308.261719 99.65625 C 308.261719 100.65625 308.105469 101.65625 307.636719 103.625 Z M 307.449219 104.28125 C 307.230469 105.1875 306.824219 106.875 306.042969 108.3125 C 305.355469 109.6875 304.605469 110.65625 303.730469 110.65625 C 303.074219 110.65625 302.667969 110.0625 302.667969 108.21875 C 302.667969 107.375 302.792969 106.21875 303.292969 104.28125 Z M 307.449219 104.28125 "/>
<path style=" stroke:none;fill-rule:nonzero;fill:rgb(0%,0%,0%);fill-opacity:1;" d="M 227.714844 143.535156 L 229.964844 143.535156 C 229.308594 146.472656 229.121094 147.347656 229.121094 148.691406 C 229.121094 148.972656 229.121094 149.503906 229.277344 150.191406 C 229.496094 151.066406 229.714844 151.191406 229.996094 151.191406 C 230.402344 151.191406 230.839844 150.847656 230.839844 150.441406 C 230.839844 150.316406 230.839844 150.285156 230.714844 150.003906 C 230.121094 148.566406 230.121094 147.253906 230.121094 146.691406 C 230.121094 145.660156 230.277344 144.566406 230.496094 143.535156 L 232.746094 143.535156 C 233.027344 143.535156 233.746094 143.535156 233.746094 142.847656 C 233.746094 142.378906 233.308594 142.378906 232.933594 142.378906 L 226.246094 142.378906 C 225.808594 142.378906 225.058594 142.378906 224.183594 143.316406 C 223.496094 144.097656 222.964844 145.003906 222.964844 145.097656 C 222.964844 145.128906 222.964844 145.316406 223.214844 145.316406 C 223.371094 145.316406 223.402344 145.222656 223.527344 145.066406 C 224.496094 143.535156 225.652344 143.535156 226.058594 143.535156 L 227.183594 143.535156 C 226.558594 145.941406 225.496094 148.347656 224.652344 150.160156 C 224.496094 150.472656 224.496094 150.503906 224.496094 150.660156 C 224.496094 151.035156 224.808594 151.191406 225.058594 151.191406 C 225.652344 151.191406 225.808594 150.628906 226.058594 149.910156 C 226.339844 148.972656 226.339844 148.941406 226.589844 147.941406 Z M 227.714844 143.535156 "/>
<path style=" stroke:none;fill-rule:nonzero;fill:rgb(0%,0%,0%);fill-opacity:1;" d="M 247.089844 146.378906 L 252.652344 146.378906 C 252.933594 146.378906 253.308594 146.378906 253.308594 145.972656 C 253.308594 145.597656 252.933594 145.597656 252.652344 145.597656 L 247.089844 145.597656 L 247.089844 140.003906 C 247.089844 139.722656 247.089844 139.347656 246.683594 139.347656 C 246.277344 139.347656 246.277344 139.722656 246.277344 140.003906 L 246.277344 145.597656 L 240.714844 145.597656 C 240.433594 145.597656 240.058594 145.597656 240.058594 145.972656 C 240.058594 146.378906 240.433594 146.378906 240.714844 146.378906 L 246.277344 146.378906 L 246.277344 151.972656 C 246.277344 152.253906 246.277344 152.628906 246.683594 152.628906 C 247.089844 152.628906 247.089844 152.253906 247.089844 151.972656 Z M 247.089844 146.378906 "/>
<path style=" stroke:none;fill-rule:nonzero;fill:rgb(0%,0%,0%);fill-opacity:1;" d="M 267.921875 141.003906 C 267.921875 139.691406 267.578125 136.910156 265.546875 136.910156 C 262.765625 136.910156 259.703125 142.535156 259.703125 147.097656 C 259.703125 148.972656 260.265625 151.191406 262.078125 151.191406 C 264.890625 151.191406 267.921875 145.472656 267.921875 141.003906 Z M 261.796875 143.722656 C 262.140625 142.472656 262.546875 140.878906 263.359375 139.441406 C 263.890625 138.472656 264.609375 137.347656 265.515625 137.347656 C 266.484375 137.347656 266.609375 138.628906 266.609375 139.753906 C 266.609375 140.753906 266.453125 141.753906 265.984375 143.722656 Z M 265.796875 144.378906 C 265.578125 145.285156 265.171875 146.972656 264.390625 148.410156 C 263.703125 149.785156 262.953125 150.753906 262.078125 150.753906 C 261.421875 150.753906 261.015625 150.160156 261.015625 148.316406 C 261.015625 147.472656 261.140625 146.316406 261.640625 144.378906 Z M 265.796875 144.378906 "/>
</g>
</svg>
