<?xml version="1.0" encoding="UTF-8"?>
<svg xmlns="http://www.w3.org/2000/svg" xmlns:xlink="http://www.w3.org/1999/xlink" width="342.221008pt" height="105.063309pt" viewBox="0 0 342.221008 105.063309" version="1.1">
<defs>
<clipPath id="clip1">
  <path d="M 12 7 L 14 7 L 14 105.0625 L 12 105.0625 Z M 12 7 "/>
</clipPath>
<clipPath id="clip2">
  <path d="M 191 8 L 193 8 L 193 105.0625 L 191 105.0625 Z M 191 8 "/>
</clipPath>
</defs>
<g id="surface1">
<path style="fill:none;stroke-width:0.4;stroke-linecap:butt;stroke-linejoin:miter;stroke:rgb(0%,0%,0%);stroke-opacity:1;stroke-dasharray:0.4,0.8;stroke-miterlimit:4;" d="M 58.710938 91.429688 L 58.710938 79.167969 L 13.285156 79.167969 "/>
<path style="fill:none;stroke-width:0.4;stroke-linecap:butt;stroke-linejoin:miter;stroke:rgb(0%,0%,0%);stroke-opacity:1;stroke-dasharray:0.4,0.8;stroke-miterlimit:4;" d="M 108.265625 90.90625 L 108.265625 35.785156 L 13.109375 35.785156 "/>
<path style="fill:none;stroke-width:0.8;stroke-linecap:butt;stroke-linejoin:miter;stroke:rgb(0%,0%,0%);stroke-opacity:1;stroke-miterlimit:4;" d="M 13.277344 90.914062 C 43.699219 87.113281 56.925781 82.078125 73.550781 69.070312 C 90.179688 56.066406 115.476562 34.648438 121.085938 12.324219 "/>
<g clip-path="url(#clip1)" clip-rule="nonzero">
<path style="fill:none;stroke-width:0.8;stroke-linecap:round;stroke-linejoin:round;stroke:rgb(100%,0%,0%);stroke-opacity:1;stroke-miterlimit:4;" d="M 13.03125 8.378906 L 13.03125 104.628906 "/>
</g>
<path style="fill:none;stroke-width:0.8;stroke-linecap:round;stroke-linejoin:round;stroke:rgb(100%,0%,0%);stroke-opacity:1;stroke-miterlimit:4;" d="M 0.40625 91.128906 L 135.039062 91.128906 "/>
<path style="fill-rule:nonzero;fill:rgb(0%,0%,100%);fill-opacity:1;stroke-width:0.8;stroke-linecap:round;stroke-linejoin:round;stroke:rgb(0%,0%,50.195312%);stroke-opacity:1;stroke-miterlimit:4;" d="M -107.421875 -35.777344 C -107.421875 -35.140625 -107.9375 -34.625 -108.570312 -34.625 C -109.207031 -34.625 -109.722656 -35.140625 -109.722656 -35.777344 C -109.722656 -36.410156 -109.207031 -36.925781 -108.570312 -36.925781 C -107.9375 -36.925781 -107.421875 -36.410156 -107.421875 -35.777344 Z M -107.421875 -35.777344 " transform="matrix(-1,0,0,-1,0,0)"/>
<path style="fill-rule:nonzero;fill:rgb(0%,0%,100%);fill-opacity:1;stroke-width:0.8;stroke-linecap:round;stroke-linejoin:round;stroke:rgb(0%,0%,50.195312%);stroke-opacity:1;stroke-miterlimit:4;" d="M -57.417969 -79.113281 C -57.417969 -78.476562 -57.933594 -77.960938 -58.570312 -77.960938 C -59.207031 -77.960938 -59.722656 -78.476562 -59.722656 -79.113281 C -59.722656 -79.75 -59.207031 -80.265625 -58.570312 -80.265625 C -57.933594 -80.265625 -57.417969 -79.75 -57.417969 -79.113281 Z M -57.417969 -79.113281 " transform="matrix(-1,0,0,-1,0,0)"/>
<path style=" stroke:none;fill-rule:nonzero;fill:rgb(0%,0%,0%);fill-opacity:1;" d="M 59.167969 92.523438 C 59.167969 92.222656 59.167969 92.207031 58.886719 92.207031 C 58.136719 92.972656 57.085938 92.972656 56.710938 92.972656 L 56.710938 93.347656 C 56.957031 93.347656 57.648438 93.347656 58.269531 93.03125 L 58.269531 99.238281 C 58.269531 99.667969 58.230469 99.800781 57.160156 99.800781 L 56.785156 99.800781 L 56.785156 100.175781 C 57.199219 100.136719 58.230469 100.136719 58.71875 100.136719 C 59.1875 100.136719 60.238281 100.136719 60.648438 100.175781 L 60.648438 99.800781 L 60.273438 99.800781 C 59.1875 99.800781 59.167969 99.667969 59.167969 99.238281 Z M 59.167969 92.523438 "/>
<path style=" stroke:none;fill-rule:nonzero;fill:rgb(0%,0%,0%);fill-opacity:1;" d="M 104.65625 92.636719 C 104.65625 92.335938 104.65625 92.316406 104.375 92.316406 C 103.625 93.085938 102.574219 93.085938 102.199219 93.085938 L 102.199219 93.460938 C 102.441406 93.460938 103.136719 93.460938 103.753906 93.140625 L 103.753906 99.347656 C 103.753906 99.78125 103.71875 99.910156 102.648438 99.910156 L 102.273438 99.910156 L 102.273438 100.285156 C 102.6875 100.25 103.71875 100.25 104.203125 100.25 C 104.671875 100.25 105.722656 100.25 106.136719 100.285156 L 106.136719 99.910156 L 105.761719 99.910156 C 104.671875 99.910156 104.65625 99.78125 104.65625 99.347656 Z M 104.65625 92.636719 "/>
<path style=" stroke:none;fill-rule:nonzero;fill:rgb(0%,0%,0%);fill-opacity:1;" d="M 109.394531 99.648438 C 109.394531 99.3125 109.113281 99.011719 108.777344 99.011719 C 108.417969 99.011719 108.136719 99.3125 108.136719 99.648438 C 108.136719 100.003906 108.417969 100.285156 108.777344 100.285156 C 109.113281 100.285156 109.394531 100.003906 109.394531 99.648438 Z M 109.394531 99.648438 "/>
<path style=" stroke:none;fill-rule:nonzero;fill:rgb(0%,0%,0%);fill-opacity:1;" d="M 113.953125 92.636719 C 113.953125 92.335938 113.953125 92.316406 113.671875 92.316406 C 112.921875 93.085938 111.871094 93.085938 111.496094 93.085938 L 111.496094 93.460938 C 111.742188 93.460938 112.433594 93.460938 113.054688 93.140625 L 113.054688 99.347656 C 113.054688 99.78125 113.015625 99.910156 111.949219 99.910156 L 111.574219 99.910156 L 111.574219 100.285156 C 111.984375 100.25 113.015625 100.25 113.503906 100.25 C 113.972656 100.25 115.023438 100.25 115.433594 100.285156 L 115.433594 99.910156 L 115.058594 99.910156 C 113.972656 99.910156 113.953125 99.78125 113.953125 99.347656 Z M 113.953125 92.636719 "/>
<path style=" stroke:none;fill-rule:nonzero;fill:rgb(0%,0%,0%);fill-opacity:1;" d="M 133.125 95.390625 L 134.25 95.390625 C 134.492188 95.390625 134.625 95.390625 134.625 95.144531 C 134.625 95.015625 134.492188 95.015625 134.285156 95.015625 L 133.238281 95.015625 C 133.667969 93.308594 133.722656 93.082031 133.722656 93.007812 C 133.722656 92.800781 133.574219 92.691406 133.367188 92.691406 C 133.332031 92.691406 132.992188 92.691406 132.898438 93.121094 L 132.429688 95.015625 L 131.304688 95.015625 C 131.0625 95.015625 130.949219 95.015625 130.949219 95.238281 C 130.949219 95.390625 131.042969 95.390625 131.285156 95.390625 L 132.335938 95.390625 C 131.472656 98.785156 131.417969 98.988281 131.417969 99.195312 C 131.417969 99.851562 131.867188 100.300781 132.523438 100.300781 C 133.742188 100.300781 134.417969 98.558594 134.417969 98.464844 C 134.417969 98.332031 134.324219 98.332031 134.285156 98.332031 C 134.175781 98.332031 134.15625 98.371094 134.097656 98.503906 C 133.59375 99.757812 132.957031 100.039062 132.542969 100.039062 C 132.300781 100.039062 132.167969 99.890625 132.167969 99.496094 C 132.167969 99.195312 132.207031 99.121094 132.242188 98.914062 Z M 133.125 95.390625 "/>
<path style=" stroke:none;fill-rule:nonzero;fill:rgb(0%,0%,0%);fill-opacity:1;" d="M 22.390625 9.347656 C 22.070312 9.367188 21.828125 9.628906 21.828125 9.890625 C 21.828125 10.058594 21.9375 10.246094 22.203125 10.246094 C 22.464844 10.246094 22.746094 10.042969 22.746094 9.574219 C 22.746094 9.027344 22.238281 8.542969 21.320312 8.542969 C 19.746094 8.542969 19.296875 9.761719 19.296875 10.285156 C 19.296875 11.222656 20.175781 11.390625 20.53125 11.464844 C 21.152344 11.597656 21.769531 11.730469 21.769531 12.386719 C 21.769531 12.683594 21.507812 13.699219 20.0625 13.699219 C 19.894531 13.699219 18.976562 13.699219 18.695312 13.058594 C 19.164062 13.117188 19.464844 12.761719 19.464844 12.421875 C 19.464844 12.160156 19.257812 12.011719 19.015625 12.011719 C 18.695312 12.011719 18.339844 12.253906 18.339844 12.796875 C 18.339844 13.472656 19.03125 13.960938 20.046875 13.960938 C 21.996094 13.960938 22.464844 12.515625 22.464844 11.972656 C 22.464844 11.542969 22.238281 11.242188 22.089844 11.109375 C 21.769531 10.773438 21.414062 10.699219 20.890625 10.605469 C 20.457031 10.511719 19.988281 10.417969 19.988281 9.871094 C 19.988281 9.535156 20.269531 8.804688 21.320312 8.804688 C 21.621094 8.804688 22.21875 8.898438 22.390625 9.347656 Z M 22.390625 9.347656 "/>
<path style=" stroke:none;fill-rule:nonzero;fill:rgb(0%,0%,0%);fill-opacity:1;" d="M 96.773438 5.40625 C 96.457031 5.425781 96.210938 5.6875 96.210938 5.953125 C 96.210938 6.121094 96.324219 6.308594 96.585938 6.308594 C 96.847656 6.308594 97.128906 6.101562 97.128906 5.632812 C 97.128906 5.089844 96.625 4.601562 95.707031 4.601562 C 94.128906 4.601562 93.679688 5.820312 93.679688 6.34375 C 93.679688 7.28125 94.5625 7.453125 94.917969 7.527344 C 95.535156 7.65625 96.15625 7.789062 96.15625 8.445312 C 96.15625 8.746094 95.894531 9.757812 94.449219 9.757812 C 94.28125 9.757812 93.363281 9.757812 93.082031 9.121094 C 93.550781 9.175781 93.847656 8.820312 93.847656 8.484375 C 93.847656 8.21875 93.644531 8.070312 93.398438 8.070312 C 93.082031 8.070312 92.722656 8.3125 92.722656 8.859375 C 92.722656 9.53125 93.417969 10.019531 94.429688 10.019531 C 96.378906 10.019531 96.847656 8.578125 96.847656 8.03125 C 96.847656 7.601562 96.625 7.300781 96.472656 7.171875 C 96.15625 6.832031 95.800781 6.757812 95.273438 6.664062 C 94.84375 6.570312 94.375 6.476562 94.375 5.933594 C 94.375 5.59375 94.65625 4.863281 95.707031 4.863281 C 96.003906 4.863281 96.605469 4.957031 96.773438 5.40625 Z M 96.773438 5.40625 "/>
<path style=" stroke:none;fill-rule:nonzero;fill:rgb(0%,0%,0%);fill-opacity:1;" d="M 101.664062 12.757812 C 101.664062 12.71875 101.664062 12.703125 101.460938 12.496094 C 99.976562 10.996094 99.585938 8.726562 99.585938 6.890625 C 99.585938 4.808594 100.035156 2.726562 101.515625 1.246094 C 101.664062 1.09375 101.664062 1.078125 101.664062 1.039062 C 101.664062 0.945312 101.628906 0.90625 101.554688 0.90625 C 101.421875 0.90625 100.351562 1.734375 99.640625 3.25 C 99.039062 4.5625 98.890625 5.894531 98.890625 6.890625 C 98.890625 7.828125 99.023438 9.269531 99.679688 10.640625 C 100.410156 12.101562 101.421875 12.890625 101.554688 12.890625 C 101.628906 12.890625 101.664062 12.851562 101.664062 12.757812 Z M 101.664062 12.757812 "/>
<path style=" stroke:none;fill-rule:nonzero;fill:rgb(0%,0%,0%);fill-opacity:1;" d="M 104.8125 5.109375 L 105.9375 5.109375 C 106.183594 5.109375 106.3125 5.109375 106.3125 4.863281 C 106.3125 4.734375 106.183594 4.734375 105.976562 4.734375 L 104.925781 4.734375 C 105.359375 3.027344 105.414062 2.800781 105.414062 2.726562 C 105.414062 2.519531 105.265625 2.40625 105.058594 2.40625 C 105.019531 2.40625 104.683594 2.40625 104.589844 2.839844 L 104.121094 4.734375 L 102.996094 4.734375 C 102.75 4.734375 102.640625 4.734375 102.640625 4.957031 C 102.640625 5.109375 102.734375 5.109375 102.976562 5.109375 L 104.027344 5.109375 C 103.164062 8.5 103.109375 8.707031 103.109375 8.914062 C 103.109375 9.570312 103.558594 10.019531 104.214844 10.019531 C 105.433594 10.019531 106.109375 8.277344 106.109375 8.183594 C 106.109375 8.050781 106.015625 8.050781 105.976562 8.050781 C 105.863281 8.050781 105.84375 8.089844 105.789062 8.21875 C 105.28125 9.476562 104.644531 9.757812 104.234375 9.757812 C 103.988281 9.757812 103.859375 9.609375 103.859375 9.214844 C 103.859375 8.914062 103.894531 8.839844 103.933594 8.632812 Z M 104.8125 5.109375 "/>
<path style=" stroke:none;fill-rule:nonzero;fill:rgb(0%,0%,0%);fill-opacity:1;" d="M 110.125 6.890625 C 110.125 5.96875 109.996094 4.527344 109.339844 3.15625 C 108.625 1.695312 107.59375 0.90625 107.480469 0.90625 C 107.40625 0.90625 107.351562 0.964844 107.351562 1.039062 C 107.351562 1.078125 107.351562 1.09375 107.574219 1.320312 C 108.757812 2.5 109.433594 4.394531 109.433594 6.890625 C 109.433594 8.953125 109 11.050781 107.519531 12.550781 C 107.351562 12.703125 107.351562 12.71875 107.351562 12.757812 C 107.351562 12.832031 107.40625 12.890625 107.480469 12.890625 C 107.59375 12.890625 108.683594 12.0625 109.375 10.546875 C 109.996094 9.234375 110.125 7.902344 110.125 6.890625 Z M 110.125 6.890625 "/>
<path style=" stroke:none;fill-rule:nonzero;fill:rgb(0%,0%,0%);fill-opacity:1;" d="M 122.859375 5.96875 C 123.046875 5.96875 123.273438 5.96875 123.273438 5.746094 C 123.273438 5.5 123.046875 5.5 122.878906 5.5 L 115.71875 5.5 C 115.546875 5.5 115.324219 5.5 115.324219 5.746094 C 115.324219 5.96875 115.546875 5.96875 115.71875 5.96875 Z M 122.878906 8.296875 C 123.046875 8.296875 123.273438 8.296875 123.273438 8.050781 C 123.273438 7.828125 123.046875 7.828125 122.859375 7.828125 L 115.71875 7.828125 C 115.546875 7.828125 115.324219 7.828125 115.324219 8.050781 C 115.324219 8.296875 115.546875 8.296875 115.71875 8.296875 Z M 122.878906 8.296875 "/>
<path style=" stroke:none;fill-rule:nonzero;fill:rgb(0%,0%,0%);fill-opacity:1;" d="M 130.796875 7.921875 L 130.796875 8.953125 C 130.796875 9.382812 130.757812 9.515625 129.875 9.515625 L 129.632812 9.515625 L 129.632812 9.890625 C 130.121094 9.851562 130.738281 9.851562 131.246094 9.851562 C 131.75 9.851562 132.371094 9.851562 132.875 9.890625 L 132.875 9.515625 L 132.613281 9.515625 C 131.734375 9.515625 131.714844 9.382812 131.714844 8.953125 L 131.714844 7.921875 L 132.894531 7.921875 L 132.894531 7.546875 L 131.714844 7.546875 L 131.714844 2.109375 C 131.714844 1.863281 131.714844 1.789062 131.507812 1.789062 C 131.414062 1.789062 131.375 1.789062 131.28125 1.9375 L 127.609375 7.546875 L 127.609375 7.921875 Z M 130.851562 7.546875 L 127.945312 7.546875 L 130.851562 3.082031 Z M 130.851562 7.546875 "/>
<path style=" stroke:none;fill-rule:nonzero;fill:rgb(0%,0%,0%);fill-opacity:1;" d="M 135.53125 9.25 C 135.53125 8.914062 135.25 8.613281 134.910156 8.613281 C 134.554688 8.613281 134.273438 8.914062 134.273438 9.25 C 134.273438 9.609375 134.554688 9.890625 134.910156 9.890625 C 135.25 9.890625 135.53125 9.609375 135.53125 9.25 Z M 135.53125 9.25 "/>
<path style=" stroke:none;fill-rule:nonzero;fill:rgb(0%,0%,0%);fill-opacity:1;" d="M 140.953125 6.082031 L 140.953125 6.476562 C 140.953125 9.269531 139.714844 9.8125 139.019531 9.8125 C 138.8125 9.8125 138.15625 9.796875 137.839844 9.382812 C 138.363281 9.382812 138.457031 9.046875 138.457031 8.839844 C 138.457031 8.464844 138.175781 8.296875 137.914062 8.296875 C 137.726562 8.296875 137.371094 8.390625 137.371094 8.859375 C 137.371094 9.664062 138.007812 10.152344 139.019531 10.152344 C 140.578125 10.152344 142.039062 8.519531 142.039062 5.953125 C 142.039062 2.726562 140.652344 1.921875 139.582031 1.921875 C 138.925781 1.921875 138.34375 2.144531 137.839844 2.671875 C 137.332031 3.214844 137.070312 3.71875 137.070312 4.621094 C 137.070312 6.101562 138.121094 7.28125 139.453125 7.28125 C 140.183594 7.28125 140.671875 6.777344 140.953125 6.082031 Z M 139.46875 7 C 139.28125 7 138.71875 7 138.363281 6.25 C 138.140625 5.800781 138.140625 5.21875 138.140625 4.621094 C 138.140625 3.984375 138.140625 3.421875 138.402344 2.96875 C 138.71875 2.371094 139.171875 2.21875 139.582031 2.21875 C 140.144531 2.21875 140.539062 2.632812 140.746094 3.15625 C 140.875 3.550781 140.933594 4.300781 140.933594 4.84375 C 140.933594 5.839844 140.519531 7 139.46875 7 Z M 139.46875 7 "/>
<path style=" stroke:none;fill-rule:nonzero;fill:rgb(0%,0%,0%);fill-opacity:1;" d="M 144.996094 5.109375 L 146.121094 5.109375 C 146.367188 5.109375 146.496094 5.109375 146.496094 4.863281 C 146.496094 4.734375 146.367188 4.734375 146.160156 4.734375 L 145.109375 4.734375 C 145.542969 3.027344 145.597656 2.800781 145.597656 2.726562 C 145.597656 2.519531 145.449219 2.40625 145.242188 2.40625 C 145.203125 2.40625 144.867188 2.40625 144.773438 2.839844 L 144.304688 4.734375 L 143.179688 4.734375 C 142.933594 4.734375 142.824219 4.734375 142.824219 4.957031 C 142.824219 5.109375 142.917969 5.109375 143.160156 5.109375 L 144.210938 5.109375 C 143.347656 8.5 143.292969 8.707031 143.292969 8.914062 C 143.292969 9.570312 143.742188 10.019531 144.398438 10.019531 C 145.617188 10.019531 146.292969 8.277344 146.292969 8.183594 C 146.292969 8.050781 146.199219 8.050781 146.160156 8.050781 C 146.046875 8.050781 146.027344 8.089844 145.972656 8.21875 C 145.464844 9.476562 144.828125 9.757812 144.417969 9.757812 C 144.171875 9.757812 144.042969 9.609375 144.042969 9.214844 C 144.042969 8.914062 144.078125 8.839844 144.117188 8.632812 Z M 144.996094 5.109375 "/>
<path style=" stroke:none;fill-rule:nonzero;fill:rgb(0%,0%,0%);fill-opacity:1;" d="M 151.078125 4.03125 L 150.796875 4.03125 C 150.777344 4.21875 150.683594 4.707031 150.570312 4.78125 C 150.515625 4.835938 149.878906 4.835938 149.746094 4.835938 L 148.207031 4.835938 C 149.089844 4.070312 149.390625 3.824219 149.878906 3.429688 C 150.496094 2.945312 151.078125 2.417969 151.078125 1.632812 C 151.078125 0.617188 150.195312 0 149.128906 0 C 148.097656 0 147.382812 0.730469 147.382812 1.5 C 147.382812 1.914062 147.738281 1.96875 147.832031 1.96875 C 148.019531 1.96875 148.265625 1.820312 148.265625 1.519531 C 148.265625 1.367188 148.207031 1.070312 147.777344 1.070312 C 148.039062 0.488281 148.601562 0.300781 148.996094 0.300781 C 149.839844 0.300781 150.269531 0.957031 150.269531 1.632812 C 150.269531 2.363281 149.746094 2.925781 149.484375 3.226562 L 147.476562 5.230469 C 147.382812 5.304688 147.382812 5.324219 147.382812 5.550781 L 150.832031 5.550781 Z M 151.078125 4.03125 "/>
<path style="fill:none;stroke-width:0.4;stroke-linecap:butt;stroke-linejoin:miter;stroke:rgb(0%,0%,0%);stroke-opacity:1;stroke-dasharray:0.4,0.8;stroke-miterlimit:4;" d="M 287.507812 35.8125 L 287.507812 79.246094 L 237.761719 79.246094 "/>
<path style="fill:none;stroke-width:0.8;stroke-linecap:butt;stroke-linejoin:miter;stroke:rgb(0%,0%,0%);stroke-opacity:1;stroke-miterlimit:4;" d="M 192.523438 90.945312 C 222.941406 87.140625 236.167969 82.105469 252.796875 69.101562 C 269.421875 56.09375 294.71875 34.675781 300.332031 12.351562 "/>
<g clip-path="url(#clip2)" clip-rule="nonzero">
<path style="fill:none;stroke-width:0.8;stroke-linecap:round;stroke-linejoin:round;stroke:rgb(100%,0%,0%);stroke-opacity:1;stroke-miterlimit:4;" d="M 192.277344 8.40625 L 192.277344 104.65625 "/>
</g>
<path style="fill:none;stroke-width:0.8;stroke-linecap:round;stroke-linejoin:round;stroke:rgb(100%,0%,0%);stroke-opacity:1;stroke-miterlimit:4;" d="M 179.652344 91.15625 L 314.285156 91.15625 "/>
<path style="fill:none;stroke-width:1.2;stroke-linecap:round;stroke-linejoin:round;stroke:rgb(0%,50.195312%,0%);stroke-opacity:1;stroke-miterlimit:4;" d="M 221.488281 93.597656 L 302.21875 22.753906 "/>
<path style="fill-rule:nonzero;fill:rgb(0%,0%,100%);fill-opacity:1;stroke-width:0.8;stroke-linecap:round;stroke-linejoin:round;stroke:rgb(0%,0%,50.195312%);stroke-opacity:1;stroke-miterlimit:4;" d="M -286.664062 -35.804688 C -286.664062 -35.167969 -287.179688 -34.652344 -287.816406 -34.652344 C -288.453125 -34.652344 -288.96875 -35.167969 -288.96875 -35.804688 C -288.96875 -36.441406 -288.453125 -36.957031 -287.816406 -36.957031 C -287.179688 -36.957031 -286.664062 -36.441406 -286.664062 -35.804688 Z M -286.664062 -35.804688 " transform="matrix(-1,0,0,-1,0,0)"/>
<path style="fill-rule:nonzero;fill:rgb(0%,0%,100%);fill-opacity:1;stroke-width:0.8;stroke-linecap:round;stroke-linejoin:round;stroke:rgb(0%,0%,50.195312%);stroke-opacity:1;stroke-miterlimit:4;" d="M -236.664062 -79.140625 C -236.664062 -78.507812 -237.179688 -77.992188 -237.8125 -77.992188 C -238.449219 -77.992188 -238.964844 -78.507812 -238.964844 -79.140625 C -238.964844 -79.777344 -238.449219 -80.292969 -237.8125 -80.292969 C -237.179688 -80.292969 -236.664062 -79.777344 -236.664062 -79.140625 Z M -236.664062 -79.140625 " transform="matrix(-1,0,0,-1,0,0)"/>
<path style=" stroke:none;fill-rule:nonzero;fill:rgb(0%,0%,0%);fill-opacity:1;" d="M 238.414062 92.554688 C 238.414062 92.253906 238.414062 92.234375 238.132812 92.234375 C 237.382812 93.003906 236.332031 93.003906 235.957031 93.003906 L 235.957031 93.378906 C 236.199219 93.378906 236.894531 93.378906 237.511719 93.058594 L 237.511719 99.265625 C 237.511719 99.695312 237.476562 99.828125 236.40625 99.828125 L 236.03125 99.828125 L 236.03125 100.203125 C 236.445312 100.164062 237.476562 100.164062 237.964844 100.164062 C 238.433594 100.164062 239.480469 100.164062 239.894531 100.203125 L 239.894531 99.828125 L 239.519531 99.828125 C 238.433594 99.828125 238.414062 99.695312 238.414062 99.265625 Z M 238.414062 92.554688 "/>
<path style=" stroke:none;fill-rule:nonzero;fill:rgb(0%,0%,0%);fill-opacity:1;" d="M 283.898438 92.664062 C 283.898438 92.363281 283.898438 92.34375 283.617188 92.34375 C 282.867188 93.113281 281.820312 93.113281 281.445312 93.113281 L 281.445312 93.488281 C 281.6875 93.488281 282.382812 93.488281 283 93.171875 L 283 99.375 C 283 99.808594 282.960938 99.9375 281.894531 99.9375 L 281.519531 99.9375 L 281.519531 100.3125 C 281.929688 100.277344 282.960938 100.277344 283.449219 100.277344 C 283.917969 100.277344 284.96875 100.277344 285.382812 100.3125 L 285.382812 99.9375 L 285.007812 99.9375 C 283.917969 99.9375 283.898438 99.808594 283.898438 99.375 Z M 283.898438 92.664062 "/>
<path style=" stroke:none;fill-rule:nonzero;fill:rgb(0%,0%,0%);fill-opacity:1;" d="M 288.640625 99.675781 C 288.640625 99.339844 288.359375 99.039062 288.019531 99.039062 C 287.664062 99.039062 287.382812 99.339844 287.382812 99.675781 C 287.382812 100.03125 287.664062 100.3125 288.019531 100.3125 C 288.359375 100.3125 288.640625 100.03125 288.640625 99.675781 Z M 288.640625 99.675781 "/>
<path style=" stroke:none;fill-rule:nonzero;fill:rgb(0%,0%,0%);fill-opacity:1;" d="M 293.199219 92.664062 C 293.199219 92.363281 293.199219 92.34375 292.917969 92.34375 C 292.167969 93.113281 291.117188 93.113281 290.742188 93.113281 L 290.742188 93.488281 C 290.984375 93.488281 291.679688 93.488281 292.296875 93.171875 L 292.296875 99.375 C 292.296875 99.808594 292.261719 99.9375 291.191406 99.9375 L 290.816406 99.9375 L 290.816406 100.3125 C 291.230469 100.277344 292.261719 100.277344 292.75 100.277344 C 293.21875 100.277344 294.265625 100.277344 294.679688 100.3125 L 294.679688 99.9375 L 294.304688 99.9375 C 293.21875 99.9375 293.199219 99.808594 293.199219 99.375 Z M 293.199219 92.664062 "/>
<path style=" stroke:none;fill-rule:nonzero;fill:rgb(0%,0%,0%);fill-opacity:1;" d="M 312.371094 95.417969 L 313.496094 95.417969 C 313.738281 95.417969 313.871094 95.417969 313.871094 95.175781 C 313.871094 95.042969 313.738281 95.042969 313.53125 95.042969 L 312.480469 95.042969 C 312.914062 93.335938 312.96875 93.113281 312.96875 93.039062 C 312.96875 92.832031 312.820312 92.71875 312.613281 92.71875 C 312.574219 92.71875 312.238281 92.71875 312.144531 93.148438 L 311.675781 95.042969 L 310.550781 95.042969 C 310.308594 95.042969 310.195312 95.042969 310.195312 95.269531 C 310.195312 95.417969 310.289062 95.417969 310.53125 95.417969 L 311.582031 95.417969 C 310.71875 98.8125 310.664062 99.019531 310.664062 99.226562 C 310.664062 99.882812 311.113281 100.332031 311.769531 100.332031 C 312.988281 100.332031 313.664062 98.585938 313.664062 98.492188 C 313.664062 98.363281 313.570312 98.363281 313.53125 98.363281 C 313.417969 98.363281 313.402344 98.398438 313.34375 98.53125 C 312.839844 99.789062 312.199219 100.070312 311.789062 100.070312 C 311.542969 100.070312 311.414062 99.917969 311.414062 99.523438 C 311.414062 99.226562 311.449219 99.148438 311.488281 98.945312 Z M 312.371094 95.417969 "/>
<path style=" stroke:none;fill-rule:nonzero;fill:rgb(0%,0%,0%);fill-opacity:1;" d="M 201.632812 9.375 C 201.316406 9.394531 201.070312 9.65625 201.070312 9.921875 C 201.070312 10.089844 201.183594 10.277344 201.445312 10.277344 C 201.707031 10.277344 201.988281 10.070312 201.988281 9.601562 C 201.988281 9.058594 201.484375 8.570312 200.566406 8.570312 C 198.988281 8.570312 198.539062 9.789062 198.539062 10.3125 C 198.539062 11.25 199.421875 11.421875 199.777344 11.496094 C 200.394531 11.625 201.015625 11.757812 201.015625 12.414062 C 201.015625 12.714844 200.753906 13.726562 199.308594 13.726562 C 199.140625 13.726562 198.222656 13.726562 197.941406 13.089844 C 198.410156 13.144531 198.707031 12.789062 198.707031 12.453125 C 198.707031 12.1875 198.503906 12.039062 198.257812 12.039062 C 197.941406 12.039062 197.582031 12.28125 197.582031 12.828125 C 197.582031 13.5 198.277344 13.988281 199.289062 13.988281 C 201.238281 13.988281 201.707031 12.546875 201.707031 12 C 201.707031 11.570312 201.484375 11.269531 201.332031 11.140625 C 201.015625 10.800781 200.660156 10.726562 200.132812 10.632812 C 199.703125 10.539062 199.234375 10.445312 199.234375 9.902344 C 199.234375 9.5625 199.515625 8.832031 200.566406 8.832031 C 200.863281 8.832031 201.464844 8.925781 201.632812 9.375 Z M 201.632812 9.375 "/>
<path style=" stroke:none;fill-rule:nonzero;fill:rgb(0%,0%,0%);fill-opacity:1;" d="M 276.019531 5.4375 C 275.699219 5.457031 275.457031 5.71875 275.457031 5.980469 C 275.457031 6.148438 275.570312 6.335938 275.832031 6.335938 C 276.09375 6.335938 276.375 6.128906 276.375 5.660156 C 276.375 5.117188 275.867188 4.628906 274.949219 4.628906 C 273.375 4.628906 272.925781 5.847656 272.925781 6.375 C 272.925781 7.3125 273.804688 7.480469 274.164062 7.554688 C 274.78125 7.6875 275.398438 7.816406 275.398438 8.472656 C 275.398438 8.773438 275.136719 9.785156 273.695312 9.785156 C 273.523438 9.785156 272.605469 9.785156 272.324219 9.148438 C 272.792969 9.207031 273.09375 8.847656 273.09375 8.511719 C 273.09375 8.25 272.886719 8.097656 272.644531 8.097656 C 272.324219 8.097656 271.96875 8.34375 271.96875 8.886719 C 271.96875 9.5625 272.664062 10.050781 273.675781 10.050781 C 275.625 10.050781 276.09375 8.605469 276.09375 8.0625 C 276.09375 7.628906 275.867188 7.332031 275.71875 7.199219 C 275.398438 6.863281 275.042969 6.785156 274.519531 6.691406 C 274.085938 6.597656 273.617188 6.503906 273.617188 5.960938 C 273.617188 5.625 273.898438 4.894531 274.949219 4.894531 C 275.25 4.894531 275.851562 4.988281 276.019531 5.4375 Z M 276.019531 5.4375 "/>
<path style=" stroke:none;fill-rule:nonzero;fill:rgb(0%,0%,0%);fill-opacity:1;" d="M 280.910156 12.785156 C 280.910156 12.75 280.910156 12.730469 280.703125 12.523438 C 279.222656 11.023438 278.828125 8.753906 278.828125 6.917969 C 278.828125 4.835938 279.277344 2.753906 280.761719 1.273438 C 280.910156 1.125 280.910156 1.105469 280.910156 1.066406 C 280.910156 0.972656 280.871094 0.9375 280.796875 0.9375 C 280.667969 0.9375 279.597656 1.761719 278.886719 3.28125 C 278.285156 4.59375 278.136719 5.925781 278.136719 6.917969 C 278.136719 7.855469 278.265625 9.300781 278.921875 10.667969 C 279.652344 12.128906 280.667969 12.917969 280.796875 12.917969 C 280.871094 12.917969 280.910156 12.878906 280.910156 12.785156 Z M 280.910156 12.785156 "/>
<path style=" stroke:none;fill-rule:nonzero;fill:rgb(0%,0%,0%);fill-opacity:1;" d="M 284.058594 5.136719 L 285.183594 5.136719 C 285.429688 5.136719 285.558594 5.136719 285.558594 4.894531 C 285.558594 4.761719 285.429688 4.761719 285.222656 4.761719 L 284.171875 4.761719 C 284.601562 3.054688 284.660156 2.832031 284.660156 2.753906 C 284.660156 2.550781 284.507812 2.4375 284.304688 2.4375 C 284.265625 2.4375 283.929688 2.4375 283.835938 2.867188 L 283.367188 4.761719 L 282.242188 4.761719 C 281.996094 4.761719 281.882812 4.761719 281.882812 4.988281 C 281.882812 5.136719 281.976562 5.136719 282.222656 5.136719 L 283.273438 5.136719 C 282.410156 8.53125 282.351562 8.738281 282.351562 8.941406 C 282.351562 9.597656 282.804688 10.050781 283.460938 10.050781 C 284.679688 10.050781 285.351562 8.304688 285.351562 8.210938 C 285.351562 8.082031 285.257812 8.082031 285.222656 8.082031 C 285.109375 8.082031 285.089844 8.117188 285.035156 8.25 C 284.527344 9.503906 283.890625 9.785156 283.476562 9.785156 C 283.234375 9.785156 283.101562 9.636719 283.101562 9.242188 C 283.101562 8.941406 283.140625 8.867188 283.179688 8.660156 Z M 284.058594 5.136719 "/>
<path style=" stroke:none;fill-rule:nonzero;fill:rgb(0%,0%,0%);fill-opacity:1;" d="M 289.371094 6.917969 C 289.371094 6 289.238281 4.554688 288.582031 3.1875 C 287.871094 1.722656 286.839844 0.9375 286.726562 0.9375 C 286.652344 0.9375 286.59375 0.992188 286.59375 1.066406 C 286.59375 1.105469 286.59375 1.125 286.820312 1.347656 C 288 2.53125 288.675781 4.425781 288.675781 6.917969 C 288.675781 8.980469 288.246094 11.082031 286.765625 12.582031 C 286.59375 12.730469 286.59375 12.75 286.59375 12.785156 C 286.59375 12.863281 286.652344 12.917969 286.726562 12.917969 C 286.839844 12.917969 287.925781 12.09375 288.621094 10.574219 C 289.238281 9.261719 289.371094 7.929688 289.371094 6.917969 Z M 289.371094 6.917969 "/>
<path style=" stroke:none;fill-rule:nonzero;fill:rgb(0%,0%,0%);fill-opacity:1;" d="M 302.105469 6 C 302.292969 6 302.519531 6 302.519531 5.773438 C 302.519531 5.53125 302.292969 5.53125 302.125 5.53125 L 294.960938 5.53125 C 294.792969 5.53125 294.570312 5.53125 294.570312 5.773438 C 294.570312 6 294.792969 6 294.960938 6 Z M 302.125 8.324219 C 302.292969 8.324219 302.519531 8.324219 302.519531 8.082031 C 302.519531 7.855469 302.292969 7.855469 302.105469 7.855469 L 294.960938 7.855469 C 294.792969 7.855469 294.570312 7.855469 294.570312 8.082031 C 294.570312 8.324219 294.792969 8.324219 294.960938 8.324219 Z M 302.125 8.324219 "/>
<path style=" stroke:none;fill-rule:nonzero;fill:rgb(0%,0%,0%);fill-opacity:1;" d="M 310.039062 7.949219 L 310.039062 8.980469 C 310.039062 9.410156 310.003906 9.542969 309.121094 9.542969 L 308.878906 9.542969 L 308.878906 9.917969 C 309.367188 9.878906 309.984375 9.878906 310.492188 9.878906 C 310.996094 9.878906 311.617188 9.878906 312.121094 9.917969 L 312.121094 9.542969 L 311.859375 9.542969 C 310.976562 9.542969 310.960938 9.410156 310.960938 8.980469 L 310.960938 7.949219 L 312.140625 7.949219 L 312.140625 7.574219 L 310.960938 7.574219 L 310.960938 2.136719 C 310.960938 1.894531 310.960938 1.816406 310.753906 1.816406 C 310.660156 1.816406 310.621094 1.816406 310.527344 1.96875 L 306.851562 7.574219 L 306.851562 7.949219 Z M 310.097656 7.574219 L 307.191406 7.574219 L 310.097656 3.113281 Z M 310.097656 7.574219 "/>
<path style=" stroke:none;fill-rule:nonzero;fill:rgb(0%,0%,0%);fill-opacity:1;" d="M 314.773438 9.28125 C 314.773438 8.941406 314.492188 8.644531 314.15625 8.644531 C 313.800781 8.644531 313.519531 8.941406 313.519531 9.28125 C 313.519531 9.636719 313.800781 9.917969 314.15625 9.917969 C 314.492188 9.917969 314.773438 9.636719 314.773438 9.28125 Z M 314.773438 9.28125 "/>
<path style=" stroke:none;fill-rule:nonzero;fill:rgb(0%,0%,0%);fill-opacity:1;" d="M 320.195312 6.113281 L 320.195312 6.503906 C 320.195312 9.300781 318.960938 9.84375 318.265625 9.84375 C 318.058594 9.84375 317.402344 9.824219 317.085938 9.410156 C 317.609375 9.410156 317.703125 9.074219 317.703125 8.867188 C 317.703125 8.492188 317.421875 8.324219 317.160156 8.324219 C 316.972656 8.324219 316.617188 8.417969 316.617188 8.886719 C 316.617188 9.691406 317.253906 10.179688 318.265625 10.179688 C 319.820312 10.179688 321.285156 8.550781 321.285156 5.980469 C 321.285156 2.753906 319.898438 1.949219 318.828125 1.949219 C 318.171875 1.949219 317.589844 2.175781 317.085938 2.699219 C 316.578125 3.242188 316.316406 3.75 316.316406 4.648438 C 316.316406 6.128906 317.367188 7.3125 318.695312 7.3125 C 319.429688 7.3125 319.914062 6.804688 320.195312 6.113281 Z M 318.714844 7.03125 C 318.527344 7.03125 317.964844 7.03125 317.609375 6.28125 C 317.382812 5.832031 317.382812 5.25 317.382812 4.648438 C 317.382812 4.011719 317.382812 3.449219 317.648438 3 C 317.964844 2.398438 318.414062 2.25 318.828125 2.25 C 319.390625 2.25 319.785156 2.660156 319.992188 3.1875 C 320.121094 3.582031 320.179688 4.332031 320.179688 4.875 C 320.179688 5.867188 319.765625 7.03125 318.714844 7.03125 Z M 318.714844 7.03125 "/>
<path style=" stroke:none;fill-rule:nonzero;fill:rgb(0%,0%,0%);fill-opacity:1;" d="M 324.242188 5.136719 L 325.367188 5.136719 C 325.609375 5.136719 325.742188 5.136719 325.742188 4.894531 C 325.742188 4.761719 325.609375 4.761719 325.40625 4.761719 L 324.355469 4.761719 C 324.785156 3.054688 324.84375 2.832031 324.84375 2.753906 C 324.84375 2.550781 324.691406 2.4375 324.484375 2.4375 C 324.449219 2.4375 324.109375 2.4375 324.015625 2.867188 L 323.546875 4.761719 L 322.421875 4.761719 C 322.179688 4.761719 322.066406 4.761719 322.066406 4.988281 C 322.066406 5.136719 322.160156 5.136719 322.40625 5.136719 L 323.453125 5.136719 C 322.59375 8.53125 322.535156 8.738281 322.535156 8.941406 C 322.535156 9.597656 322.984375 10.050781 323.640625 10.050781 C 324.859375 10.050781 325.535156 8.304688 325.535156 8.210938 C 325.535156 8.082031 325.441406 8.082031 325.40625 8.082031 C 325.292969 8.082031 325.273438 8.117188 325.21875 8.25 C 324.710938 9.503906 324.074219 9.785156 323.660156 9.785156 C 323.417969 9.785156 323.285156 9.636719 323.285156 9.242188 C 323.285156 8.941406 323.324219 8.867188 323.359375 8.660156 Z M 324.242188 5.136719 "/>
<path style=" stroke:none;fill-rule:nonzero;fill:rgb(0%,0%,0%);fill-opacity:1;" d="M 330.324219 4.058594 L 330.042969 4.058594 C 330.023438 4.246094 329.929688 4.734375 329.816406 4.808594 C 329.761719 4.867188 329.121094 4.867188 328.992188 4.867188 L 327.453125 4.867188 C 328.335938 4.097656 328.636719 3.851562 329.121094 3.460938 C 329.742188 2.972656 330.324219 2.445312 330.324219 1.660156 C 330.324219 0.648438 329.441406 0.0273438 328.371094 0.0273438 C 327.339844 0.0273438 326.628906 0.757812 326.628906 1.527344 C 326.628906 1.941406 326.984375 1.996094 327.078125 1.996094 C 327.265625 1.996094 327.511719 1.847656 327.511719 1.546875 C 327.511719 1.398438 327.453125 1.097656 327.023438 1.097656 C 327.285156 0.515625 327.847656 0.328125 328.242188 0.328125 C 329.085938 0.328125 329.515625 0.984375 329.515625 1.660156 C 329.515625 2.390625 328.992188 2.953125 328.730469 3.253906 L 326.722656 5.257812 C 326.628906 5.335938 326.628906 5.351562 326.628906 5.578125 L 330.078125 5.578125 Z M 330.324219 4.058594 "/>
<path style="fill:none;stroke-width:0.8;stroke-linecap:butt;stroke-linejoin:miter;stroke:rgb(100%,0%,0%);stroke-opacity:1;stroke-miterlimit:4;" d="M 289.628906 56.242188 L 300.964844 56.242188 "/>
<path style="fill-rule:evenodd;fill:rgb(100%,0%,0%);fill-opacity:1;stroke-width:0.2;stroke-linecap:butt;stroke-linejoin:miter;stroke:rgb(100%,0%,0%);stroke-opacity:1;stroke-miterlimit:4;" d="M 290.589844 56.242188 L 291.390625 55.445312 L 288.589844 56.242188 L 291.390625 57.042969 Z M 290.589844 56.242188 "/>
<path style="fill-rule:evenodd;fill:rgb(100%,0%,0%);fill-opacity:1;stroke-width:0.2;stroke-linecap:butt;stroke-linejoin:miter;stroke:rgb(100%,0%,0%);stroke-opacity:1;stroke-miterlimit:4;" d="M 301.75 56.242188 C 301.75 56.683594 301.390625 57.042969 300.949219 57.042969 C 300.507812 57.042969 300.148438 56.683594 300.148438 56.242188 C 300.148438 55.800781 300.507812 55.445312 300.949219 55.445312 C 301.390625 55.445312 301.75 55.800781 301.75 56.242188 Z M 301.75 56.242188 "/>
<path style=" stroke:none;fill-rule:nonzero;fill:rgb(0%,0%,0%);fill-opacity:1;" d="M 304.914062 50.953125 L 304.914062 49.171875 L 305.460938 49.171875 L 305.460938 53.734375 L 304.914062 53.734375 L 304.914062 53.234375 C 304.808594 53.433594 304.667969 53.578125 304.492188 53.671875 C 304.3125 53.765625 304.105469 53.8125 303.867188 53.8125 C 303.46875 53.8125 303.148438 53.65625 302.898438 53.34375 C 302.648438 53.03125 302.523438 52.617188 302.523438 52.09375 C 302.523438 51.585938 302.648438 51.171875 302.898438 50.859375 C 303.148438 50.539062 303.46875 50.375 303.867188 50.375 C 304.105469 50.375 304.3125 50.421875 304.492188 50.515625 C 304.667969 50.609375 304.808594 50.757812 304.914062 50.953125 Z M 303.085938 52.09375 C 303.085938 52.492188 303.164062 52.804688 303.320312 53.03125 C 303.484375 53.261719 303.714844 53.375 304.007812 53.375 C 304.289062 53.375 304.507812 53.261719 304.664062 53.03125 C 304.828125 52.804688 304.914062 52.492188 304.914062 52.09375 C 304.914062 51.699219 304.828125 51.390625 304.664062 51.171875 C 304.507812 50.945312 304.289062 50.828125 304.007812 50.828125 C 303.714844 50.828125 303.484375 50.945312 303.320312 51.171875 C 303.164062 51.390625 303.085938 51.699219 303.085938 52.09375 Z M 303.085938 52.09375 "/>
<path style=" stroke:none;fill-rule:nonzero;fill:rgb(0%,0%,0%);fill-opacity:1;" d="M 306.820312 50.453125 L 307.367188 50.453125 L 307.367188 53.734375 L 306.820312 53.734375 Z M 306.820312 49.171875 L 307.367188 49.171875 L 307.367188 49.859375 L 306.820312 49.859375 Z M 306.820312 49.171875 "/>
<path style=" stroke:none;fill-rule:nonzero;fill:rgb(0%,0%,0%);fill-opacity:1;" d="M 312.285156 49.171875 L 312.285156 49.625 L 311.769531 49.625 C 311.570312 49.625 311.433594 49.667969 311.363281 49.75 C 311.289062 49.824219 311.253906 49.960938 311.253906 50.15625 L 311.253906 50.453125 L 312.144531 50.453125 L 312.144531 50.875 L 311.253906 50.875 L 311.253906 53.734375 L 310.707031 53.734375 L 310.707031 50.875 L 309.238281 50.875 L 309.238281 53.734375 L 308.691406 53.734375 L 308.691406 50.875 L 308.175781 50.875 L 308.175781 50.453125 L 308.691406 50.453125 L 308.691406 50.21875 C 308.691406 49.855469 308.773438 49.589844 308.941406 49.421875 C 309.105469 49.257812 309.378906 49.171875 309.753906 49.171875 L 310.269531 49.171875 L 310.269531 49.625 L 309.753906 49.625 C 309.554688 49.625 309.417969 49.664062 309.347656 49.734375 C 309.273438 49.820312 309.238281 49.960938 309.238281 50.15625 L 309.238281 50.453125 L 310.707031 50.453125 L 310.707031 50.21875 C 310.707031 49.855469 310.789062 49.589844 310.957031 49.421875 C 311.132812 49.257812 311.402344 49.171875 311.769531 49.171875 Z M 312.285156 49.171875 "/>
<path style=" stroke:none;fill-rule:nonzero;fill:rgb(0%,0%,0%);fill-opacity:1;" d="M 315.820312 51.953125 L 315.820312 52.21875 L 313.335938 52.21875 C 313.355469 52.59375 313.464844 52.882812 313.664062 53.078125 C 313.871094 53.265625 314.152344 53.359375 314.507812 53.359375 C 314.714844 53.359375 314.914062 53.335938 315.101562 53.28125 C 315.296875 53.230469 315.496094 53.15625 315.695312 53.0625 L 315.695312 53.5625 C 315.496094 53.648438 315.292969 53.710938 315.085938 53.75 C 314.886719 53.789062 314.683594 53.8125 314.476562 53.8125 C 313.953125 53.8125 313.539062 53.664062 313.226562 53.359375 C 312.921875 53.058594 312.773438 52.648438 312.773438 52.125 C 312.773438 51.585938 312.917969 51.15625 313.210938 50.84375 C 313.5 50.53125 313.890625 50.375 314.382812 50.375 C 314.828125 50.375 315.179688 50.515625 315.429688 50.796875 C 315.6875 51.078125 315.820312 51.464844 315.820312 51.953125 Z M 315.273438 51.796875 C 315.273438 51.507812 315.1875 51.273438 315.023438 51.09375 C 314.867188 50.917969 314.65625 50.828125 314.398438 50.828125 C 314.09375 50.828125 313.851562 50.917969 313.664062 51.09375 C 313.484375 51.261719 313.382812 51.496094 313.351562 51.796875 Z M 315.273438 51.796875 "/>
<path style=" stroke:none;fill-rule:nonzero;fill:rgb(0%,0%,0%);fill-opacity:1;" d="M 318.851562 50.953125 C 318.789062 50.921875 318.71875 50.902344 318.648438 50.890625 C 318.574219 50.871094 318.496094 50.859375 318.414062 50.859375 C 318.109375 50.859375 317.875 50.960938 317.710938 51.15625 C 317.554688 51.355469 317.476562 51.636719 317.476562 52 L 317.476562 53.734375 L 316.929688 53.734375 L 316.929688 50.453125 L 317.476562 50.453125 L 317.476562 50.96875 C 317.578125 50.761719 317.71875 50.609375 317.898438 50.515625 C 318.085938 50.421875 318.308594 50.375 318.570312 50.375 C 318.609375 50.375 318.652344 50.382812 318.695312 50.390625 C 318.734375 50.390625 318.789062 50.398438 318.851562 50.40625 Z M 318.851562 50.953125 "/>
<path style=" stroke:none;fill-rule:nonzero;fill:rgb(0%,0%,0%);fill-opacity:1;" d="M 322.257812 51.953125 L 322.257812 52.21875 L 319.773438 52.21875 C 319.792969 52.59375 319.902344 52.882812 320.101562 53.078125 C 320.308594 53.265625 320.589844 53.359375 320.945312 53.359375 C 321.152344 53.359375 321.351562 53.335938 321.539062 53.28125 C 321.734375 53.230469 321.933594 53.15625 322.132812 53.0625 L 322.132812 53.5625 C 321.933594 53.648438 321.730469 53.710938 321.523438 53.75 C 321.324219 53.789062 321.121094 53.8125 320.914062 53.8125 C 320.390625 53.8125 319.976562 53.664062 319.664062 53.359375 C 319.359375 53.058594 319.210938 52.648438 319.210938 52.125 C 319.210938 51.585938 319.355469 51.15625 319.648438 50.84375 C 319.9375 50.53125 320.328125 50.375 320.820312 50.375 C 321.265625 50.375 321.617188 50.515625 321.867188 50.796875 C 322.125 51.078125 322.257812 51.464844 322.257812 51.953125 Z M 321.710938 51.796875 C 321.710938 51.507812 321.625 51.273438 321.460938 51.09375 C 321.304688 50.917969 321.09375 50.828125 320.835938 50.828125 C 320.53125 50.828125 320.289062 50.917969 320.101562 51.09375 C 319.921875 51.261719 319.820312 51.496094 319.789062 51.796875 Z M 321.710938 51.796875 "/>
<path style=" stroke:none;fill-rule:nonzero;fill:rgb(0%,0%,0%);fill-opacity:1;" d="M 326.117188 51.75 L 326.117188 53.734375 L 325.570312 53.734375 L 325.570312 51.765625 C 325.570312 51.464844 325.507812 51.234375 325.382812 51.078125 C 325.265625 50.921875 325.089844 50.84375 324.851562 50.84375 C 324.558594 50.84375 324.328125 50.9375 324.164062 51.125 C 323.996094 51.3125 323.914062 51.5625 323.914062 51.875 L 323.914062 53.734375 L 323.367188 53.734375 L 323.367188 50.453125 L 323.914062 50.453125 L 323.914062 50.96875 C 324.039062 50.773438 324.1875 50.625 324.367188 50.53125 C 324.542969 50.429688 324.742188 50.375 324.960938 50.375 C 325.34375 50.375 325.632812 50.496094 325.820312 50.734375 C 326.015625 50.964844 326.117188 51.304688 326.117188 51.75 Z M 326.117188 51.75 "/>
<path style=" stroke:none;fill-rule:nonzero;fill:rgb(0%,0%,0%);fill-opacity:1;" d="M 329.804688 50.578125 L 329.804688 51.078125 C 329.65625 50.996094 329.507812 50.933594 329.351562 50.890625 C 329.195312 50.851562 329.039062 50.828125 328.882812 50.828125 C 328.539062 50.828125 328.265625 50.945312 328.070312 51.171875 C 327.882812 51.390625 327.789062 51.699219 327.789062 52.09375 C 327.789062 52.5 327.882812 52.8125 328.070312 53.03125 C 328.265625 53.25 328.539062 53.359375 328.882812 53.359375 C 329.039062 53.359375 329.195312 53.339844 329.351562 53.296875 C 329.507812 53.257812 329.65625 53.195312 329.804688 53.109375 L 329.804688 53.609375 C 329.65625 53.683594 329.5 53.734375 329.335938 53.765625 C 329.179688 53.796875 329.011719 53.8125 328.835938 53.8125 C 328.335938 53.8125 327.9375 53.664062 327.648438 53.359375 C 327.355469 53.046875 327.210938 52.625 327.210938 52.09375 C 327.210938 51.5625 327.355469 51.148438 327.648438 50.84375 C 327.949219 50.53125 328.355469 50.375 328.867188 50.375 C 329.03125 50.375 329.195312 50.390625 329.351562 50.421875 C 329.507812 50.453125 329.65625 50.507812 329.804688 50.578125 Z M 329.804688 50.578125 "/>
<path style=" stroke:none;fill-rule:nonzero;fill:rgb(0%,0%,0%);fill-opacity:1;" d="M 333.785156 51.953125 L 333.785156 52.21875 L 331.300781 52.21875 C 331.320312 52.59375 331.429688 52.882812 331.628906 53.078125 C 331.835938 53.265625 332.117188 53.359375 332.472656 53.359375 C 332.679688 53.359375 332.878906 53.335938 333.066406 53.28125 C 333.261719 53.230469 333.460938 53.15625 333.660156 53.0625 L 333.660156 53.5625 C 333.460938 53.648438 333.257812 53.710938 333.050781 53.75 C 332.851562 53.789062 332.648438 53.8125 332.441406 53.8125 C 331.917969 53.8125 331.503906 53.664062 331.191406 53.359375 C 330.886719 53.058594 330.738281 52.648438 330.738281 52.125 C 330.738281 51.585938 330.882812 51.15625 331.175781 50.84375 C 331.464844 50.53125 331.855469 50.375 332.347656 50.375 C 332.792969 50.375 333.144531 50.515625 333.394531 50.796875 C 333.652344 51.078125 333.785156 51.464844 333.785156 51.953125 Z M 333.238281 51.796875 C 333.238281 51.507812 333.152344 51.273438 332.988281 51.09375 C 332.832031 50.917969 332.621094 50.828125 332.363281 50.828125 C 332.058594 50.828125 331.816406 50.917969 331.628906 51.09375 C 331.449219 51.261719 331.347656 51.496094 331.316406 51.796875 Z M 333.238281 51.796875 "/>
<path style=" stroke:none;fill-rule:nonzero;fill:rgb(0%,0%,0%);fill-opacity:1;" d="M 336.945312 50.453125 L 337.492188 50.453125 L 337.492188 53.734375 L 336.945312 53.734375 Z M 336.945312 49.171875 L 337.492188 49.171875 L 337.492188 49.859375 L 336.945312 49.859375 Z M 336.945312 49.171875 "/>
<path style=" stroke:none;fill-rule:nonzero;fill:rgb(0%,0%,0%);fill-opacity:1;" d="M 341.457031 51.75 L 341.457031 53.734375 L 340.910156 53.734375 L 340.910156 51.765625 C 340.910156 51.464844 340.847656 51.234375 340.722656 51.078125 C 340.605469 50.921875 340.429688 50.84375 340.191406 50.84375 C 339.898438 50.84375 339.667969 50.9375 339.503906 51.125 C 339.335938 51.3125 339.253906 51.5625 339.253906 51.875 L 339.253906 53.734375 L 338.707031 53.734375 L 338.707031 50.453125 L 339.253906 50.453125 L 339.253906 50.96875 C 339.378906 50.773438 339.527344 50.625 339.707031 50.53125 C 339.882812 50.429688 340.082031 50.375 340.300781 50.375 C 340.683594 50.375 340.972656 50.496094 341.160156 50.734375 C 341.355469 50.964844 341.457031 51.304688 341.457031 51.75 Z M 341.457031 51.75 "/>
<path style=" stroke:none;fill-rule:nonzero;fill:rgb(0%,0%,0%);fill-opacity:1;" d="M 303.289062 61.234375 L 303.289062 62.984375 L 302.742188 62.984375 L 302.742188 58.453125 L 303.289062 58.453125 L 303.289062 58.953125 C 303.390625 58.757812 303.53125 58.609375 303.710938 58.515625 C 303.886719 58.421875 304.09375 58.375 304.335938 58.375 C 304.730469 58.375 305.054688 58.539062 305.304688 58.859375 C 305.554688 59.171875 305.679688 59.585938 305.679688 60.09375 C 305.679688 60.617188 305.554688 61.03125 305.304688 61.34375 C 305.054688 61.65625 304.730469 61.8125 304.335938 61.8125 C 304.09375 61.8125 303.886719 61.765625 303.710938 61.671875 C 303.53125 61.578125 303.390625 61.433594 303.289062 61.234375 Z M 305.117188 60.09375 C 305.117188 59.699219 305.03125 59.390625 304.867188 59.171875 C 304.710938 58.945312 304.484375 58.828125 304.195312 58.828125 C 303.914062 58.828125 303.6875 58.945312 303.523438 59.171875 C 303.367188 59.390625 303.289062 59.699219 303.289062 60.09375 C 303.289062 60.492188 303.367188 60.804688 303.523438 61.03125 C 303.6875 61.261719 303.914062 61.375 304.195312 61.375 C 304.484375 61.375 304.710938 61.261719 304.867188 61.03125 C 305.03125 60.804688 305.117188 60.492188 305.117188 60.09375 Z M 305.117188 60.09375 "/>
<path style=" stroke:none;fill-rule:nonzero;fill:rgb(0%,0%,0%);fill-opacity:1;" d="M 308.101562 58.828125 C 307.808594 58.828125 307.578125 58.945312 307.414062 59.171875 C 307.246094 59.390625 307.164062 59.699219 307.164062 60.09375 C 307.164062 60.492188 307.246094 60.804688 307.414062 61.03125 C 307.578125 61.25 307.808594 61.359375 308.101562 61.359375 C 308.382812 61.359375 308.605469 61.25 308.773438 61.03125 C 308.9375 60.804688 309.023438 60.492188 309.023438 60.09375 C 309.023438 59.710938 308.9375 59.402344 308.773438 59.171875 C 308.605469 58.945312 308.382812 58.828125 308.101562 58.828125 Z M 308.101562 58.375 C 308.570312 58.375 308.933594 58.527344 309.195312 58.828125 C 309.464844 59.132812 309.601562 59.554688 309.601562 60.09375 C 309.601562 60.636719 309.464844 61.058594 309.195312 61.359375 C 308.933594 61.664062 308.570312 61.8125 308.101562 61.8125 C 307.621094 61.8125 307.246094 61.664062 306.976562 61.359375 C 306.714844 61.058594 306.585938 60.636719 306.585938 60.09375 C 306.585938 59.554688 306.714844 59.132812 306.976562 58.828125 C 307.246094 58.527344 307.621094 58.375 308.101562 58.375 Z M 308.101562 58.375 "/>
<path style=" stroke:none;fill-rule:nonzero;fill:rgb(0%,0%,0%);fill-opacity:1;" d="M 312.828125 58.546875 L 312.828125 59.0625 C 312.671875 58.980469 312.507812 58.921875 312.34375 58.890625 C 312.1875 58.851562 312.019531 58.828125 311.84375 58.828125 C 311.570312 58.828125 311.367188 58.871094 311.234375 58.953125 C 311.109375 59.039062 311.046875 59.15625 311.046875 59.3125 C 311.046875 59.4375 311.09375 59.539062 311.1875 59.609375 C 311.28125 59.683594 311.472656 59.75 311.765625 59.8125 L 311.953125 59.859375 C 312.328125 59.945312 312.59375 60.058594 312.75 60.203125 C 312.914062 60.351562 313 60.558594 313 60.828125 C 313 61.132812 312.878906 61.371094 312.640625 61.546875 C 312.398438 61.726562 312.070312 61.8125 311.65625 61.8125 C 311.476562 61.8125 311.289062 61.796875 311.09375 61.765625 C 310.90625 61.734375 310.707031 61.683594 310.5 61.609375 L 310.5 61.0625 C 310.695312 61.167969 310.890625 61.246094 311.078125 61.296875 C 311.273438 61.351562 311.46875 61.375 311.65625 61.375 C 311.914062 61.375 312.113281 61.335938 312.25 61.25 C 312.382812 61.15625 312.453125 61.03125 312.453125 60.875 C 312.453125 60.730469 312.398438 60.621094 312.296875 60.546875 C 312.203125 60.464844 311.988281 60.386719 311.65625 60.3125 L 311.46875 60.265625 C 311.132812 60.195312 310.890625 60.085938 310.734375 59.9375 C 310.585938 59.792969 310.515625 59.59375 310.515625 59.34375 C 310.515625 59.03125 310.625 58.792969 310.84375 58.625 C 311.0625 58.460938 311.375 58.375 311.78125 58.375 C 311.976562 58.375 312.164062 58.390625 312.34375 58.421875 C 312.519531 58.453125 312.679688 58.496094 312.828125 58.546875 Z M 312.828125 58.546875 "/>
<path style=" stroke:none;fill-rule:nonzero;fill:rgb(0%,0%,0%);fill-opacity:1;" d="M 314.070312 58.453125 L 314.617188 58.453125 L 314.617188 61.734375 L 314.070312 61.734375 Z M 314.070312 57.171875 L 314.617188 57.171875 L 314.617188 57.859375 L 314.070312 57.859375 Z M 314.070312 57.171875 "/>
<path style=" stroke:none;fill-rule:nonzero;fill:rgb(0%,0%,0%);fill-opacity:1;" d="M 316.378906 57.515625 L 316.378906 58.453125 L 317.488281 58.453125 L 317.488281 58.875 L 316.378906 58.875 L 316.378906 60.65625 C 316.378906 60.917969 316.414062 61.089844 316.488281 61.171875 C 316.558594 61.246094 316.710938 61.28125 316.941406 61.28125 L 317.488281 61.28125 L 317.488281 61.734375 L 316.941406 61.734375 C 316.523438 61.734375 316.238281 61.65625 316.082031 61.5 C 315.925781 61.34375 315.847656 61.0625 315.847656 60.65625 L 315.847656 58.875 L 315.441406 58.875 L 315.441406 58.453125 L 315.847656 58.453125 L 315.847656 57.515625 Z M 316.378906 57.515625 "/>
<path style=" stroke:none;fill-rule:nonzero;fill:rgb(0%,0%,0%);fill-opacity:1;" d="M 318.359375 58.453125 L 318.90625 58.453125 L 318.90625 61.734375 L 318.359375 61.734375 Z M 318.359375 57.171875 L 318.90625 57.171875 L 318.90625 57.859375 L 318.359375 57.859375 Z M 318.359375 57.171875 "/>
<path style=" stroke:none;fill-rule:nonzero;fill:rgb(0%,0%,0%);fill-opacity:1;" d="M 321.414062 58.828125 C 321.121094 58.828125 320.890625 58.945312 320.726562 59.171875 C 320.558594 59.390625 320.476562 59.699219 320.476562 60.09375 C 320.476562 60.492188 320.558594 60.804688 320.726562 61.03125 C 320.890625 61.25 321.121094 61.359375 321.414062 61.359375 C 321.695312 61.359375 321.917969 61.25 322.085938 61.03125 C 322.25 60.804688 322.335938 60.492188 322.335938 60.09375 C 322.335938 59.710938 322.25 59.402344 322.085938 59.171875 C 321.917969 58.945312 321.695312 58.828125 321.414062 58.828125 Z M 321.414062 58.375 C 321.882812 58.375 322.246094 58.527344 322.507812 58.828125 C 322.777344 59.132812 322.914062 59.554688 322.914062 60.09375 C 322.914062 60.636719 322.777344 61.058594 322.507812 61.359375 C 322.246094 61.664062 321.882812 61.8125 321.414062 61.8125 C 320.933594 61.8125 320.558594 61.664062 320.289062 61.359375 C 320.027344 61.058594 319.898438 60.636719 319.898438 60.09375 C 319.898438 59.554688 320.027344 59.132812 320.289062 58.828125 C 320.558594 58.527344 320.933594 58.375 321.414062 58.375 Z M 321.414062 58.375 "/>
<path style=" stroke:none;fill-rule:nonzero;fill:rgb(0%,0%,0%);fill-opacity:1;" d="M 326.78125 59.75 L 326.78125 61.734375 L 326.234375 61.734375 L 326.234375 59.765625 C 326.234375 59.464844 326.171875 59.234375 326.046875 59.078125 C 325.929688 58.921875 325.753906 58.84375 325.515625 58.84375 C 325.222656 58.84375 324.992188 58.9375 324.828125 59.125 C 324.660156 59.3125 324.578125 59.5625 324.578125 59.875 L 324.578125 61.734375 L 324.03125 61.734375 L 324.03125 58.453125 L 324.578125 58.453125 L 324.578125 58.96875 C 324.703125 58.773438 324.851562 58.625 325.03125 58.53125 C 325.207031 58.429688 325.40625 58.375 325.625 58.375 C 326.007812 58.375 326.296875 58.496094 326.484375 58.734375 C 326.679688 58.964844 326.78125 59.304688 326.78125 59.75 Z M 326.78125 59.75 "/>
<path style="fill:none;stroke-width:0.8;stroke-linecap:butt;stroke-linejoin:miter;stroke:rgb(100%,0%,0%);stroke-opacity:1;stroke-miterlimit:4;" d="M 268.351562 77.484375 L 274.175781 74.03125 L 292.710938 74.03125 "/>
<path style="fill-rule:evenodd;fill:rgb(100%,0%,0%);fill-opacity:1;stroke-width:0.172044;stroke-linecap:butt;stroke-linejoin:miter;stroke:rgb(100%,0%,0%);stroke-opacity:1;stroke-miterlimit:4;" d="M 165.412803 175.045258 L 166.10069 174.359273 L 163.693749 175.045772 L 166.101679 175.734859 Z M 165.412803 175.045258 " transform="matrix(1,-0.592778,0.592778,1,0,0)"/>
<path style="fill-rule:evenodd;fill:rgb(100%,0%,0%);fill-opacity:1;stroke-width:0.2;stroke-linecap:butt;stroke-linejoin:miter;stroke:rgb(100%,0%,0%);stroke-opacity:1;stroke-miterlimit:4;" d="M 293.492188 74.03125 C 293.492188 74.472656 293.136719 74.832031 292.695312 74.832031 C 292.253906 74.832031 291.894531 74.472656 291.894531 74.03125 C 291.894531 73.589844 292.253906 73.230469 292.695312 73.230469 C 293.136719 73.230469 293.492188 73.589844 293.492188 74.03125 Z M 293.492188 74.03125 "/>
<path style=" stroke:none;fill-rule:nonzero;fill:rgb(0%,0%,0%);fill-opacity:1;" d="M 296.617188 68.992188 L 296.617188 67.210938 L 297.164062 67.210938 L 297.164062 71.773438 L 296.617188 71.773438 L 296.617188 71.273438 C 296.511719 71.472656 296.371094 71.617188 296.195312 71.710938 C 296.015625 71.804688 295.808594 71.851562 295.570312 71.851562 C 295.171875 71.851562 294.851562 71.695312 294.601562 71.382812 C 294.351562 71.070312 294.226562 70.65625 294.226562 70.132812 C 294.226562 69.625 294.351562 69.210938 294.601562 68.898438 C 294.851562 68.578125 295.171875 68.414062 295.570312 68.414062 C 295.808594 68.414062 296.015625 68.460938 296.195312 68.554688 C 296.371094 68.648438 296.511719 68.796875 296.617188 68.992188 Z M 294.789062 70.132812 C 294.789062 70.53125 294.867188 70.84375 295.023438 71.070312 C 295.1875 71.300781 295.417969 71.414062 295.710938 71.414062 C 295.992188 71.414062 296.210938 71.300781 296.367188 71.070312 C 296.53125 70.84375 296.617188 70.53125 296.617188 70.132812 C 296.617188 69.738281 296.53125 69.429688 296.367188 69.210938 C 296.210938 68.984375 295.992188 68.867188 295.710938 68.867188 C 295.417969 68.867188 295.1875 68.984375 295.023438 69.210938 C 294.867188 69.429688 294.789062 69.738281 294.789062 70.132812 Z M 294.789062 70.132812 "/>
<path style=" stroke:none;fill-rule:nonzero;fill:rgb(0%,0%,0%);fill-opacity:1;" d="M 298.523438 68.492188 L 299.070312 68.492188 L 299.070312 71.773438 L 298.523438 71.773438 Z M 298.523438 67.210938 L 299.070312 67.210938 L 299.070312 67.898438 L 298.523438 67.898438 Z M 298.523438 67.210938 "/>
<path style=" stroke:none;fill-rule:nonzero;fill:rgb(0%,0%,0%);fill-opacity:1;" d="M 303.984375 67.210938 L 303.984375 67.664062 L 303.46875 67.664062 C 303.269531 67.664062 303.132812 67.707031 303.0625 67.789062 C 302.988281 67.863281 302.953125 68 302.953125 68.195312 L 302.953125 68.492188 L 303.84375 68.492188 L 303.84375 68.914062 L 302.953125 68.914062 L 302.953125 71.773438 L 302.40625 71.773438 L 302.40625 68.914062 L 300.9375 68.914062 L 300.9375 71.773438 L 300.390625 71.773438 L 300.390625 68.914062 L 299.875 68.914062 L 299.875 68.492188 L 300.390625 68.492188 L 300.390625 68.257812 C 300.390625 67.894531 300.472656 67.628906 300.640625 67.460938 C 300.804688 67.296875 301.078125 67.210938 301.453125 67.210938 L 301.96875 67.210938 L 301.96875 67.664062 L 301.453125 67.664062 C 301.253906 67.664062 301.117188 67.703125 301.046875 67.773438 C 300.972656 67.859375 300.9375 68 300.9375 68.195312 L 300.9375 68.492188 L 302.40625 68.492188 L 302.40625 68.257812 C 302.40625 67.894531 302.488281 67.628906 302.65625 67.460938 C 302.832031 67.296875 303.101562 67.210938 303.46875 67.210938 Z M 303.984375 67.210938 "/>
<path style=" stroke:none;fill-rule:nonzero;fill:rgb(0%,0%,0%);fill-opacity:1;" d="M 307.523438 69.992188 L 307.523438 70.257812 L 305.039062 70.257812 C 305.058594 70.632812 305.167969 70.921875 305.367188 71.117188 C 305.574219 71.304688 305.855469 71.398438 306.210938 71.398438 C 306.417969 71.398438 306.617188 71.375 306.804688 71.320312 C 307 71.269531 307.199219 71.195312 307.398438 71.101562 L 307.398438 71.601562 C 307.199219 71.6875 306.996094 71.75 306.789062 71.789062 C 306.589844 71.828125 306.386719 71.851562 306.179688 71.851562 C 305.65625 71.851562 305.242188 71.703125 304.929688 71.398438 C 304.625 71.097656 304.476562 70.6875 304.476562 70.164062 C 304.476562 69.625 304.621094 69.195312 304.914062 68.882812 C 305.203125 68.570312 305.59375 68.414062 306.085938 68.414062 C 306.53125 68.414062 306.882812 68.554688 307.132812 68.835938 C 307.390625 69.117188 307.523438 69.503906 307.523438 69.992188 Z M 306.976562 69.835938 C 306.976562 69.546875 306.890625 69.3125 306.726562 69.132812 C 306.570312 68.957031 306.359375 68.867188 306.101562 68.867188 C 305.796875 68.867188 305.554688 68.957031 305.367188 69.132812 C 305.1875 69.300781 305.085938 69.535156 305.054688 69.835938 Z M 306.976562 69.835938 "/>
<path style=" stroke:none;fill-rule:nonzero;fill:rgb(0%,0%,0%);fill-opacity:1;" d="M 310.554688 68.992188 C 310.492188 68.960938 310.421875 68.941406 310.351562 68.929688 C 310.277344 68.910156 310.199219 68.898438 310.117188 68.898438 C 309.8125 68.898438 309.578125 69 309.414062 69.195312 C 309.257812 69.394531 309.179688 69.675781 309.179688 70.039062 L 309.179688 71.773438 L 308.632812 71.773438 L 308.632812 68.492188 L 309.179688 68.492188 L 309.179688 69.007812 C 309.28125 68.800781 309.421875 68.648438 309.601562 68.554688 C 309.789062 68.460938 310.011719 68.414062 310.273438 68.414062 C 310.3125 68.414062 310.355469 68.421875 310.398438 68.429688 C 310.4375 68.429688 310.492188 68.4375 310.554688 68.445312 Z M 310.554688 68.992188 "/>
<path style=" stroke:none;fill-rule:nonzero;fill:rgb(0%,0%,0%);fill-opacity:1;" d="M 313.960938 69.992188 L 313.960938 70.257812 L 311.476562 70.257812 C 311.496094 70.632812 311.605469 70.921875 311.804688 71.117188 C 312.011719 71.304688 312.292969 71.398438 312.648438 71.398438 C 312.855469 71.398438 313.054688 71.375 313.242188 71.320312 C 313.4375 71.269531 313.636719 71.195312 313.835938 71.101562 L 313.835938 71.601562 C 313.636719 71.6875 313.433594 71.75 313.226562 71.789062 C 313.027344 71.828125 312.824219 71.851562 312.617188 71.851562 C 312.09375 71.851562 311.679688 71.703125 311.367188 71.398438 C 311.0625 71.097656 310.914062 70.6875 310.914062 70.164062 C 310.914062 69.625 311.058594 69.195312 311.351562 68.882812 C 311.640625 68.570312 312.03125 68.414062 312.523438 68.414062 C 312.96875 68.414062 313.320312 68.554688 313.570312 68.835938 C 313.828125 69.117188 313.960938 69.503906 313.960938 69.992188 Z M 313.414062 69.835938 C 313.414062 69.546875 313.328125 69.3125 313.164062 69.132812 C 313.007812 68.957031 312.796875 68.867188 312.539062 68.867188 C 312.234375 68.867188 311.992188 68.957031 311.804688 69.132812 C 311.625 69.300781 311.523438 69.535156 311.492188 69.835938 Z M 313.414062 69.835938 "/>
<path style=" stroke:none;fill-rule:nonzero;fill:rgb(0%,0%,0%);fill-opacity:1;" d="M 317.820312 69.789062 L 317.820312 71.773438 L 317.273438 71.773438 L 317.273438 69.804688 C 317.273438 69.503906 317.210938 69.273438 317.085938 69.117188 C 316.96875 68.960938 316.792969 68.882812 316.554688 68.882812 C 316.261719 68.882812 316.03125 68.976562 315.867188 69.164062 C 315.699219 69.351562 315.617188 69.601562 315.617188 69.914062 L 315.617188 71.773438 L 315.070312 71.773438 L 315.070312 68.492188 L 315.617188 68.492188 L 315.617188 69.007812 C 315.742188 68.8125 315.890625 68.664062 316.070312 68.570312 C 316.246094 68.46875 316.445312 68.414062 316.664062 68.414062 C 317.046875 68.414062 317.335938 68.535156 317.523438 68.773438 C 317.71875 69.003906 317.820312 69.34375 317.820312 69.789062 Z M 317.820312 69.789062 "/>
<path style=" stroke:none;fill-rule:nonzero;fill:rgb(0%,0%,0%);fill-opacity:1;" d="M 321.507812 68.617188 L 321.507812 69.117188 C 321.359375 69.035156 321.210938 68.972656 321.054688 68.929688 C 320.898438 68.890625 320.742188 68.867188 320.585938 68.867188 C 320.242188 68.867188 319.96875 68.984375 319.773438 69.210938 C 319.585938 69.429688 319.492188 69.738281 319.492188 70.132812 C 319.492188 70.539062 319.585938 70.851562 319.773438 71.070312 C 319.96875 71.289062 320.242188 71.398438 320.585938 71.398438 C 320.742188 71.398438 320.898438 71.378906 321.054688 71.335938 C 321.210938 71.296875 321.359375 71.234375 321.507812 71.148438 L 321.507812 71.648438 C 321.359375 71.722656 321.203125 71.773438 321.039062 71.804688 C 320.882812 71.835938 320.714844 71.851562 320.539062 71.851562 C 320.039062 71.851562 319.640625 71.703125 319.351562 71.398438 C 319.058594 71.085938 318.914062 70.664062 318.914062 70.132812 C 318.914062 69.601562 319.058594 69.1875 319.351562 68.882812 C 319.652344 68.570312 320.058594 68.414062 320.570312 68.414062 C 320.734375 68.414062 320.898438 68.429688 321.054688 68.460938 C 321.210938 68.492188 321.359375 68.546875 321.507812 68.617188 Z M 321.507812 68.617188 "/>
<path style=" stroke:none;fill-rule:nonzero;fill:rgb(0%,0%,0%);fill-opacity:1;" d="M 325.484375 69.992188 L 325.484375 70.257812 L 323 70.257812 C 323.019531 70.632812 323.128906 70.921875 323.328125 71.117188 C 323.535156 71.304688 323.816406 71.398438 324.171875 71.398438 C 324.378906 71.398438 324.578125 71.375 324.765625 71.320312 C 324.960938 71.269531 325.160156 71.195312 325.359375 71.101562 L 325.359375 71.601562 C 325.160156 71.6875 324.957031 71.75 324.75 71.789062 C 324.550781 71.828125 324.347656 71.851562 324.140625 71.851562 C 323.617188 71.851562 323.203125 71.703125 322.890625 71.398438 C 322.585938 71.097656 322.4375 70.6875 322.4375 70.164062 C 322.4375 69.625 322.582031 69.195312 322.875 68.882812 C 323.164062 68.570312 323.554688 68.414062 324.046875 68.414062 C 324.492188 68.414062 324.84375 68.554688 325.09375 68.835938 C 325.351562 69.117188 325.484375 69.503906 325.484375 69.992188 Z M 324.9375 69.835938 C 324.9375 69.546875 324.851562 69.3125 324.6875 69.132812 C 324.53125 68.957031 324.320312 68.867188 324.0625 68.867188 C 323.757812 68.867188 323.515625 68.957031 323.328125 69.132812 C 323.148438 69.300781 323.046875 69.535156 323.015625 69.835938 Z M 324.9375 69.835938 "/>
<path style=" stroke:none;fill-rule:nonzero;fill:rgb(0%,0%,0%);fill-opacity:1;" d="M 328.648438 68.492188 L 329.195312 68.492188 L 329.195312 71.773438 L 328.648438 71.773438 Z M 328.648438 67.210938 L 329.195312 67.210938 L 329.195312 67.898438 L 328.648438 67.898438 Z M 328.648438 67.210938 "/>
<path style=" stroke:none;fill-rule:nonzero;fill:rgb(0%,0%,0%);fill-opacity:1;" d="M 333.15625 69.789062 L 333.15625 71.773438 L 332.609375 71.773438 L 332.609375 69.804688 C 332.609375 69.503906 332.546875 69.273438 332.421875 69.117188 C 332.304688 68.960938 332.128906 68.882812 331.890625 68.882812 C 331.597656 68.882812 331.367188 68.976562 331.203125 69.164062 C 331.035156 69.351562 330.953125 69.601562 330.953125 69.914062 L 330.953125 71.773438 L 330.40625 71.773438 L 330.40625 68.492188 L 330.953125 68.492188 L 330.953125 69.007812 C 331.078125 68.8125 331.226562 68.664062 331.40625 68.570312 C 331.582031 68.46875 331.78125 68.414062 332 68.414062 C 332.382812 68.414062 332.671875 68.535156 332.859375 68.773438 C 333.054688 69.003906 333.15625 69.34375 333.15625 69.789062 Z M 333.15625 69.789062 "/>
<path style=" stroke:none;fill-rule:nonzero;fill:rgb(0%,0%,0%);fill-opacity:1;" d="M 294.992188 75.554688 L 294.992188 76.492188 L 296.101562 76.492188 L 296.101562 76.914062 L 294.992188 76.914062 L 294.992188 78.695312 C 294.992188 78.957031 295.027344 79.128906 295.101562 79.210938 C 295.171875 79.285156 295.324219 79.320312 295.554688 79.320312 L 296.101562 79.320312 L 296.101562 79.773438 L 295.554688 79.773438 C 295.136719 79.773438 294.851562 79.695312 294.695312 79.539062 C 294.539062 79.382812 294.460938 79.101562 294.460938 78.695312 L 294.460938 76.914062 L 294.054688 76.914062 L 294.054688 76.492188 L 294.460938 76.492188 L 294.460938 75.554688 Z M 294.992188 75.554688 "/>
<path style=" stroke:none;fill-rule:nonzero;fill:rgb(0%,0%,0%);fill-opacity:1;" d="M 296.972656 76.492188 L 297.519531 76.492188 L 297.519531 79.773438 L 296.972656 79.773438 Z M 296.972656 75.210938 L 297.519531 75.210938 L 297.519531 75.898438 L 296.972656 75.898438 Z M 296.972656 75.210938 "/>
<path style=" stroke:none;fill-rule:nonzero;fill:rgb(0%,0%,0%);fill-opacity:1;" d="M 301.3125 77.117188 C 301.445312 76.878906 301.609375 76.703125 301.796875 76.585938 C 301.984375 76.472656 302.203125 76.414062 302.453125 76.414062 C 302.796875 76.414062 303.054688 76.535156 303.234375 76.773438 C 303.421875 77.015625 303.515625 77.351562 303.515625 77.789062 L 303.515625 79.773438 L 302.984375 79.773438 L 302.984375 77.804688 C 302.984375 77.492188 302.925781 77.265625 302.8125 77.117188 C 302.695312 76.960938 302.523438 76.882812 302.296875 76.882812 C 302.023438 76.882812 301.804688 76.976562 301.640625 77.164062 C 301.484375 77.351562 301.40625 77.601562 301.40625 77.914062 L 301.40625 79.773438 L 300.859375 79.773438 L 300.859375 77.804688 C 300.859375 77.492188 300.800781 77.265625 300.6875 77.117188 C 300.570312 76.960938 300.398438 76.882812 300.171875 76.882812 C 299.898438 76.882812 299.679688 76.976562 299.515625 77.164062 C 299.359375 77.351562 299.28125 77.601562 299.28125 77.914062 L 299.28125 79.773438 L 298.734375 79.773438 L 298.734375 76.492188 L 299.28125 76.492188 L 299.28125 77.007812 C 299.394531 76.800781 299.535156 76.648438 299.703125 76.554688 C 299.878906 76.460938 300.085938 76.414062 300.328125 76.414062 C 300.566406 76.414062 300.769531 76.476562 300.9375 76.601562 C 301.101562 76.71875 301.226562 76.890625 301.3125 77.117188 Z M 301.3125 77.117188 "/>
<path style=" stroke:none;fill-rule:nonzero;fill:rgb(0%,0%,0%);fill-opacity:1;" d="M 307.796875 77.992188 L 307.796875 78.257812 L 305.3125 78.257812 C 305.332031 78.632812 305.441406 78.921875 305.640625 79.117188 C 305.847656 79.304688 306.128906 79.398438 306.484375 79.398438 C 306.691406 79.398438 306.890625 79.375 307.078125 79.320312 C 307.273438 79.269531 307.472656 79.195312 307.671875 79.101562 L 307.671875 79.601562 C 307.472656 79.6875 307.269531 79.75 307.0625 79.789062 C 306.863281 79.828125 306.660156 79.851562 306.453125 79.851562 C 305.929688 79.851562 305.515625 79.703125 305.203125 79.398438 C 304.898438 79.097656 304.75 78.6875 304.75 78.164062 C 304.75 77.625 304.894531 77.195312 305.1875 76.882812 C 305.476562 76.570312 305.867188 76.414062 306.359375 76.414062 C 306.804688 76.414062 307.15625 76.554688 307.40625 76.835938 C 307.664062 77.117188 307.796875 77.503906 307.796875 77.992188 Z M 307.25 77.835938 C 307.25 77.546875 307.164062 77.3125 307 77.132812 C 306.84375 76.957031 306.632812 76.867188 306.375 76.867188 C 306.070312 76.867188 305.828125 76.957031 305.640625 77.132812 C 305.460938 77.300781 305.359375 77.535156 305.328125 77.835938 Z M 307.25 77.835938 "/>
<path style="fill-rule:nonzero;fill:rgb(0%,0%,100%);fill-opacity:1;stroke-width:0.8;stroke-linecap:round;stroke-linejoin:round;stroke:rgb(0%,0%,50.195312%);stroke-opacity:1;stroke-miterlimit:4;" d="M -286.472656 -79.414062 C -286.472656 -78.777344 -286.988281 -78.261719 -287.625 -78.261719 C -288.261719 -78.261719 -288.777344 -78.777344 -288.777344 -79.414062 C -288.777344 -80.046875 -288.261719 -80.5625 -287.625 -80.5625 C -286.988281 -80.5625 -286.472656 -80.046875 -286.472656 -79.414062 Z M -286.472656 -79.414062 " transform="matrix(-1,0,0,-1,0,0)"/>
</g>
</svg>
