<?xml version="1.0" encoding="UTF-8"?>
<svg xmlns="http://www.w3.org/2000/svg" xmlns:xlink="http://www.w3.org/1999/xlink" width="612pt" height="792pt" viewBox="0 0 612 792" version="1.1">
<g id="surface1">
<rect x="0" y="0" width="612" height="792" style="fill:rgb(49.798584%,23.498535%,19.999695%);fill-opacity:1;stroke:none;"/>
<path style="fill:none;stroke-width:1;stroke-linecap:butt;stroke-linejoin:miter;stroke:rgb(100%,100%,100%);stroke-opacity:1;stroke-dasharray:5,5;stroke-miterlimit:10;" d="M -0.00026875 -0.00101875 L -3517.156519 2041.920856 " transform="matrix(1,0,0,-1,1688.4573,1419.5732)"/>
<path style="fill:none;stroke-width:1;stroke-linecap:butt;stroke-linejoin:miter;stroke:rgb(100%,100%,100%);stroke-opacity:1;stroke-dasharray:5,5;stroke-miterlimit:10;" d="M -0.00024375 0.00045625 L -2867.890869 2512.973112 " transform="matrix(1,0,0,-1,1472.0354,1576.5903)"/>
<path style="fill:none;stroke-width:1;stroke-linecap:butt;stroke-linejoin:miter;stroke:rgb(100%,100%,100%);stroke-opacity:1;stroke-dasharray:5,5;stroke-miterlimit:10;" d="M 0.0002375 0.0009375 L -1866.909919 2779.829062 " transform="matrix(1,0,0,-1,903.8982,1529.415)"/>
<path style="fill:none;stroke-width:1;stroke-linecap:butt;stroke-linejoin:miter;stroke:rgb(100%,100%,100%);stroke-opacity:1;stroke-dasharray:5,5;stroke-miterlimit:10;" d="M -0.0017125 -0.0000375 L -1041.786869 3148.785119 " transform="matrix(1,0,0,-1,511.6189,1584.3359)"/>
<path style="fill:none;stroke-width:1;stroke-linecap:butt;stroke-linejoin:miter;stroke:rgb(100%,100%,100%);stroke-opacity:1;stroke-dasharray:5,5;stroke-miterlimit:10;" d="M 0.00024375 -0.0010125 L -216.663819 3517.741175 " transform="matrix(1,0,0,-1,119.3396,1639.2568)"/>
<path style="fill:none;stroke-width:1;stroke-linecap:butt;stroke-linejoin:miter;stroke:rgb(100%,100%,100%);stroke-opacity:1;stroke-dasharray:5,5;stroke-miterlimit:10;" d="M -0.00120625 0.00191875 L 608.459731 3886.693325 " transform="matrix(1,0,0,-1,-272.9402,1694.1777)"/>
<path style="fill:none;stroke-width:1;stroke-linecap:butt;stroke-linejoin:miter;stroke:rgb(100%,100%,100%);stroke-opacity:1;stroke-dasharray:5,5;stroke-miterlimit:10;" d="M -0.00021875 -0.00004375 L 3517.156031 -2041.921919 " transform="matrix(1,0,0,-1,-1828.699,-622.3477)"/>
<path style="fill:none;stroke-width:1;stroke-linecap:butt;stroke-linejoin:miter;stroke:rgb(100%,100%,100%);stroke-opacity:1;stroke-dasharray:5,5;stroke-miterlimit:10;" d="M 0.00123125 0.00093125 L 2692.032481 -2410.874069 " transform="matrix(1,0,0,-1,-1436.4192,-677.2686)"/>
<path style="fill:none;stroke-width:1;stroke-linecap:butt;stroke-linejoin:miter;stroke:rgb(100%,100%,100%);stroke-opacity:1;stroke-dasharray:5,5;stroke-miterlimit:10;" d="M -0.000725 0.00190625 L 1866.909431 -2779.830125 " transform="matrix(1,0,0,-1,-1044.1399,-732.1895)"/>
<path style="fill:none;stroke-width:1;stroke-linecap:butt;stroke-linejoin:miter;stroke:rgb(100%,100%,100%);stroke-opacity:1;stroke-dasharray:5,5;stroke-miterlimit:10;" d="M 0.001225 -0.001025 L 1041.786381 -3148.786181 " transform="matrix(1,0,0,-1,-651.8606,-787.1104)"/>
<path style="fill:none;stroke-width:1;stroke-linecap:butt;stroke-linejoin:miter;stroke:rgb(100%,100%,100%);stroke-opacity:1;stroke-dasharray:5,5;stroke-miterlimit:10;" d="M 0.00071875 0.001025 L -608.456312 -3886.694287 " transform="matrix(1,0,0,-1,132.6985,-896.9521)"/>
<path style=" stroke:none;fill-rule:nonzero;fill:rgb(49.798584%,23.498535%,19.999695%);fill-opacity:1;" d="M 438.105469 404.21875 L 438.183594 489.21875 L 80.894531 489.21875 L 80.894531 302.78125 L 531.105469 302.78125 L 531.105469 404.621094 Z M 438.105469 404.21875 "/>
<path style=" stroke:none;fill-rule:nonzero;fill:rgb(100%,100%,100%);fill-opacity:1;" d="M 93.183594 327.898438 C 92.488281 327.898438 91.890625 327.765625 91.386719 327.5 C 90.882812 327.234375 90.496094 326.84375 90.226562 326.335938 C 89.957031 325.824219 89.824219 325.214844 89.824219 324.5 C 89.824219 323.785156 89.957031 323.175781 90.226562 322.664062 C 90.496094 322.15625 90.882812 321.765625 91.386719 321.5 C 91.890625 321.234375 92.488281 321.101562 93.183594 321.101562 C 93.957031 321.101562 94.617188 321.265625 95.160156 321.59375 C 95.707031 321.925781 96.046875 322.425781 96.183594 323.101562 L 94.183594 323.878906 C 94.128906 323.472656 94.03125 323.199219 93.894531 323.058594 C 93.753906 322.921875 93.535156 322.851562 93.242188 322.851562 C 92.894531 322.851562 92.636719 322.984375 92.460938 323.25 C 92.289062 323.515625 92.203125 323.933594 92.203125 324.5 C 92.203125 325.066406 92.285156 325.484375 92.453125 325.75 C 92.621094 326.015625 92.875 326.148438 93.222656 326.148438 C 93.535156 326.148438 93.761719 326.082031 93.902344 325.941406 C 94.042969 325.800781 94.132812 325.570312 94.171875 325.25 L 96.234375 325.78125 C 95.894531 327.195312 94.875 327.898438 93.183594 327.898438 "/>
<path style=" stroke:none;fill-rule:nonzero;fill:rgb(100%,100%,100%);fill-opacity:1;" d="M 102.121094 326.089844 L 102.121094 327.800781 L 96.804688 327.800781 L 96.804688 321.199219 L 99.132812 321.199219 L 99.132812 326.089844 Z M 102.121094 326.089844 "/>
<path style=" stroke:none;fill-rule:nonzero;fill:rgb(100%,100%,100%);fill-opacity:1;" d="M 106.597656 323.949219 C 106.726562 323.851562 106.792969 323.695312 106.792969 323.480469 C 106.792969 323.265625 106.726562 323.109375 106.597656 323.011719 C 106.46875 322.910156 106.257812 322.859375 105.972656 322.859375 L 105.183594 322.859375 L 105.183594 324.101562 L 105.972656 324.101562 C 106.257812 324.101562 106.46875 324.050781 106.597656 323.949219 M 109.121094 323.511719 C 109.121094 324.222656 108.890625 324.765625 108.421875 325.140625 C 107.957031 325.515625 107.265625 325.699219 106.351562 325.699219 L 105.183594 325.699219 L 105.183594 327.800781 L 102.851562 327.800781 L 102.851562 321.199219 L 106.351562 321.199219 C 108.199219 321.199219 109.121094 321.96875 109.121094 323.511719 "/>
<path style=" stroke:none;fill-rule:nonzero;fill:rgb(100%,100%,100%);fill-opacity:1;" d="M 115.941406 321.199219 L 115.941406 327.800781 L 113.710938 327.800781 L 113.710938 323.378906 C 113.234375 323.808594 112.742188 324.058594 112.242188 324.128906 L 112.113281 322.261719 C 112.511719 322.214844 112.910156 322.085938 113.308594 321.875 C 113.703125 321.664062 113.980469 321.441406 114.132812 321.199219 Z M 115.941406 321.199219 "/>
<path style=" stroke:none;fill-rule:nonzero;fill:rgb(100%,100%,100%);fill-opacity:1;" d="M 112.59375 358.558594 C 113.511719 357.039062 113.972656 354.519531 113.972656 351 C 113.972656 347.480469 113.511719 344.960938 112.59375 343.441406 C 111.671875 341.921875 109.972656 341.160156 107.492188 341.160156 L 104.011719 341.160156 L 104.011719 360.839844 L 107.492188 360.839844 C 109.972656 360.839844 111.671875 360.082031 112.59375 358.558594 M 123.484375 336.332031 C 126.660156 339.75 128.253906 344.640625 128.253906 351 C 128.253906 357.359375 126.660156 362.25 123.484375 365.671875 C 120.304688 369.089844 115.632812 370.800781 109.472656 370.800781 L 90.03125 370.800781 L 90.03125 331.199219 L 109.472656 331.199219 C 115.632812 331.199219 120.304688 332.910156 123.484375 336.332031 "/>
<path style=" stroke:none;fill-rule:nonzero;fill:rgb(100%,100%,100%);fill-opacity:1;" d="M 146.972656 370.800781 L 132.992188 370.800781 L 132.992188 331.199219 L 146.972656 331.199219 Z M 146.972656 370.800781 "/>
<path style=" stroke:none;fill-rule:nonzero;fill:rgb(100%,100%,100%);fill-opacity:1;" d="M 166.953125 341.460938 L 166.953125 346.980469 L 182.191406 346.980469 L 182.191406 357.242188 L 166.953125 357.242188 L 166.953125 370.800781 L 152.972656 370.800781 L 152.972656 331.199219 L 185.792969 331.199219 L 185.792969 341.460938 Z M 166.953125 341.460938 "/>
<path style=" stroke:none;fill-rule:nonzero;fill:rgb(100%,100%,100%);fill-opacity:1;" d="M 203.792969 341.460938 L 203.792969 346.980469 L 219.03125 346.980469 L 219.03125 357.242188 L 203.792969 357.242188 L 203.792969 370.800781 L 189.8125 370.800781 L 189.8125 331.199219 L 222.632812 331.199219 L 222.632812 341.460938 Z M 203.792969 341.460938 "/>
<path style=" stroke:none;fill-rule:nonzero;fill:rgb(100%,100%,100%);fill-opacity:1;" d="M 260.25 360.539062 L 260.25 370.800781 L 226.652344 370.800781 L 226.652344 331.199219 L 259.53125 331.199219 L 259.53125 341.460938 L 240.632812 341.460938 L 240.632812 346.378906 L 255.871094 346.378906 L 255.871094 355.859375 L 240.632812 355.859375 L 240.632812 360.539062 Z M 260.25 360.539062 "/>
<path style=" stroke:none;fill-rule:nonzero;fill:rgb(100%,100%,100%);fill-opacity:1;" d="M 277.890625 348.480469 L 282.871094 348.480469 C 284.628906 348.480469 285.878906 348.210938 286.621094 347.667969 C 287.359375 347.128906 287.730469 346.179688 287.730469 344.820312 C 287.730469 343.5 287.359375 342.5625 286.621094 342 C 285.878906 341.441406 284.628906 341.160156 282.871094 341.160156 L 277.890625 341.160156 Z M 281.730469 357.660156 L 277.890625 357.660156 L 277.890625 370.800781 L 264.210938 370.800781 L 264.210938 331.199219 L 285.691406 331.199219 C 290.972656 331.199219 294.960938 332.308594 297.660156 334.53125 C 300.359375 336.75 301.710938 340.0625 301.710938 344.460938 C 301.710938 350.261719 299.328125 354.160156 294.570312 356.160156 L 303.929688 370.800781 L 288.75 370.800781 Z M 281.730469 357.660156 "/>
<path style=" stroke:none;fill-rule:nonzero;fill:rgb(100%,100%,100%);fill-opacity:1;" d="M 340.109375 360.539062 L 340.109375 370.800781 L 306.507812 370.800781 L 306.507812 331.199219 L 339.390625 331.199219 L 339.390625 341.460938 L 320.492188 341.460938 L 320.492188 346.378906 L 335.730469 346.378906 L 335.730469 355.859375 L 320.492188 355.859375 L 320.492188 360.539062 Z M 340.109375 360.539062 "/>
<path style=" stroke:none;fill-rule:nonzero;fill:rgb(100%,100%,100%);fill-opacity:1;" d="M 382.828125 370.800781 L 367.710938 370.800781 L 358.230469 352.800781 L 356.070312 347.941406 L 355.949219 347.941406 L 356.1875 356.101562 L 356.1875 370.800781 L 344.070312 370.800781 L 344.070312 331.199219 L 359.1875 331.199219 L 368.671875 349.261719 L 370.828125 354.058594 L 370.949219 354.058594 L 370.710938 345.898438 L 370.710938 331.199219 L 382.828125 331.199219 Z M 382.828125 370.800781 "/>
<path style=" stroke:none;fill-rule:nonzero;fill:rgb(100%,100%,100%);fill-opacity:1;" d="M 425.789062 341.460938 L 413.429688 341.460938 L 413.429688 370.800781 L 399.449219 370.800781 L 399.449219 341.460938 L 387.027344 341.460938 L 387.027344 331.199219 L 425.789062 331.199219 Z M 425.789062 341.460938 "/>
<path style=" stroke:none;fill-rule:nonzero;fill:rgb(100%,100%,100%);fill-opacity:1;" d="M 443.96875 370.800781 L 429.988281 370.800781 L 429.988281 331.199219 L 443.96875 331.199219 Z M 443.96875 370.800781 "/>
<path style=" stroke:none;fill-rule:nonzero;fill:rgb(100%,100%,100%);fill-opacity:1;" d="M 470.789062 354.539062 L 467.605469 341.339844 L 467.429688 341.339844 L 465.867188 348.058594 L 464.246094 354.539062 Z M 472.828125 363.242188 L 462.148438 363.242188 L 460.289062 370.800781 L 446.367188 370.800781 L 459.207031 331.199219 L 476.007812 331.199219 L 488.90625 370.800781 L 474.628906 370.800781 Z M 472.828125 363.242188 "/>
<path style=" stroke:none;fill-rule:nonzero;fill:rgb(100%,100%,100%);fill-opacity:1;" d="M 523.226562 360.539062 L 523.226562 370.800781 L 491.308594 370.800781 L 491.308594 331.199219 L 505.289062 331.199219 L 505.289062 360.539062 Z M 523.226562 360.539062 "/>
<path style=" stroke:none;fill-rule:nonzero;fill:rgb(100%,100%,100%);fill-opacity:1;" d="M 108.933594 416.398438 C 104.773438 416.398438 101.183594 415.601562 98.160156 414 C 95.140625 412.402344 92.824219 410.070312 91.203125 407.011719 C 89.582031 403.949219 88.773438 400.28125 88.773438 396 C 88.773438 391.71875 89.582031 388.050781 91.203125 384.992188 C 92.824219 381.929688 95.140625 379.601562 98.160156 378 C 101.183594 376.402344 104.773438 375.601562 108.933594 375.601562 C 113.574219 375.601562 117.53125 376.589844 120.8125 378.570312 C 124.09375 380.550781 126.132812 383.5625 126.933594 387.601562 L 114.933594 392.28125 C 114.613281 389.839844 114.03125 388.199219 113.191406 387.359375 C 112.351562 386.519531 111.050781 386.101562 109.292969 386.101562 C 107.210938 386.101562 105.652344 386.902344 104.613281 388.5 C 103.574219 390.101562 103.054688 392.601562 103.054688 396 C 103.054688 399.402344 103.550781 401.902344 104.554688 403.5 C 105.550781 405.101562 107.09375 405.898438 109.171875 405.898438 C 111.050781 405.898438 112.410156 405.480469 113.253906 404.640625 C 114.09375 403.800781 114.632812 402.421875 114.871094 400.5 L 127.234375 403.679688 C 125.191406 412.160156 119.09375 416.398438 108.933594 416.398438 "/>
<path style=" stroke:none;fill-rule:nonzero;fill:rgb(100%,100%,100%);fill-opacity:1;" d="M 151.472656 399.539062 L 148.292969 386.339844 L 148.113281 386.339844 L 146.550781 393.058594 L 144.933594 399.539062 Z M 153.511719 408.242188 L 142.832031 408.242188 L 140.972656 415.800781 L 127.050781 415.800781 L 139.890625 376.199219 L 156.691406 376.199219 L 169.59375 415.800781 L 155.3125 415.800781 Z M 153.511719 408.242188 "/>
<path style=" stroke:none;fill-rule:nonzero;fill:rgb(100%,100%,100%);fill-opacity:1;" d="M 203.910156 405.539062 L 203.910156 415.800781 L 171.992188 415.800781 L 171.992188 376.199219 L 185.972656 376.199219 L 185.972656 405.539062 Z M 203.910156 405.539062 "/>
<path style=" stroke:none;fill-rule:nonzero;fill:rgb(100%,100%,100%);fill-opacity:1;" d="M 225.992188 416.398438 C 221.832031 416.398438 218.242188 415.601562 215.222656 414 C 212.203125 412.402344 209.882812 410.070312 208.261719 407.011719 C 206.640625 403.949219 205.832031 400.28125 205.832031 396 C 205.832031 391.71875 206.640625 388.050781 208.261719 384.992188 C 209.882812 381.929688 212.203125 379.601562 215.222656 378 C 218.242188 376.402344 221.832031 375.601562 225.992188 375.601562 C 230.632812 375.601562 234.59375 376.589844 237.871094 378.570312 C 241.152344 380.550781 243.191406 383.5625 243.992188 387.601562 L 231.992188 392.28125 C 231.671875 389.839844 231.09375 388.199219 230.253906 387.359375 C 229.414062 386.519531 228.113281 386.101562 226.351562 386.101562 C 224.269531 386.101562 222.710938 386.902344 221.671875 388.5 C 220.632812 390.101562 220.113281 392.601562 220.113281 396 C 220.113281 399.402344 220.613281 401.902344 221.613281 403.5 C 222.613281 405.101562 224.152344 405.898438 226.230469 405.898438 C 228.113281 405.898438 229.472656 405.480469 230.3125 404.640625 C 231.152344 403.800781 231.691406 402.421875 231.929688 400.5 L 244.292969 403.679688 C 242.253906 412.160156 236.152344 416.398438 225.992188 416.398438 "/>
<path style=" stroke:none;fill-rule:nonzero;fill:rgb(100%,100%,100%);fill-opacity:1;" d="M 285.089844 398.761719 C 285.089844 410.519531 278.710938 416.398438 265.949219 416.398438 C 253.191406 416.398438 246.8125 410.519531 246.8125 398.761719 L 246.8125 376.199219 L 260.851562 376.199219 L 260.851562 399.839844 C 260.851562 401.839844 261.28125 403.351562 262.140625 404.371094 C 263 405.390625 264.273438 405.898438 265.949219 405.898438 C 267.632812 405.898438 268.910156 405.390625 269.789062 404.371094 C 270.671875 403.351562 271.113281 401.839844 271.113281 399.839844 L 271.113281 376.199219 L 285.089844 376.199219 Z M 285.089844 398.761719 "/>
<path style=" stroke:none;fill-rule:nonzero;fill:rgb(100%,100%,100%);fill-opacity:1;" d="M 322.109375 405.539062 L 322.109375 415.800781 L 290.191406 415.800781 L 290.191406 376.199219 L 304.171875 376.199219 L 304.171875 405.539062 Z M 322.109375 405.539062 "/>
<path style=" stroke:none;fill-rule:nonzero;fill:rgb(100%,100%,100%);fill-opacity:1;" d="M 363.871094 398.761719 C 363.871094 410.519531 357.492188 416.398438 344.730469 416.398438 C 331.96875 416.398438 325.589844 410.519531 325.589844 398.761719 L 325.589844 376.199219 L 339.632812 376.199219 L 339.632812 399.839844 C 339.632812 401.839844 340.058594 403.351562 340.921875 404.371094 C 341.78125 405.390625 343.050781 405.898438 344.730469 405.898438 C 346.410156 405.898438 347.691406 405.390625 348.570312 404.371094 C 349.449219 403.351562 349.890625 401.839844 349.890625 399.839844 L 349.890625 376.199219 L 363.871094 376.199219 Z M 363.871094 398.761719 "/>
<path style=" stroke:none;fill-rule:nonzero;fill:rgb(100%,100%,100%);fill-opacity:1;" d="M 396.210938 376.980469 C 398.96875 377.902344 401.710938 379.539062 404.429688 381.898438 L 398.308594 390.601562 C 396.511719 388.917969 394.679688 387.710938 392.820312 386.96875 C 390.960938 386.230469 388.890625 385.859375 386.609375 385.859375 C 385.210938 385.859375 384.089844 386.070312 383.25 386.492188 C 382.410156 386.910156 381.988281 387.460938 381.988281 388.140625 C 381.988281 388.582031 382.390625 388.917969 383.191406 389.160156 C 383.988281 389.398438 385.390625 389.699219 387.390625 390.058594 C 393.1875 391.101562 397.359375 392.667969 399.898438 394.769531 C 402.4375 396.871094 403.710938 399.820312 403.710938 403.621094 C 403.710938 406.339844 402.929688 408.660156 401.371094 410.582031 C 399.808594 412.5 397.6875 413.949219 395.011719 414.929688 C 392.332031 415.910156 389.332031 416.398438 386.011719 416.398438 C 381.332031 416.398438 377.589844 415.957031 374.789062 415.082031 C 371.988281 414.199219 369.25 412.78125 366.570312 410.820312 L 372.570312 401.339844 C 374.25 402.980469 376.089844 404.191406 378.089844 404.96875 C 380.089844 405.75 382.390625 406.140625 384.988281 406.140625 C 387.910156 406.140625 389.371094 405.539062 389.371094 404.339844 C 389.371094 403.699219 388.910156 403.222656 387.988281 402.898438 C 387.070312 402.582031 385.570312 402.242188 383.488281 401.878906 C 380.449219 401.320312 377.859375 400.679688 375.71875 399.960938 C 373.582031 399.242188 371.699219 398.019531 370.082031 396.300781 C 368.460938 394.582031 367.648438 392.21875 367.648438 389.21875 C 367.648438 386.5 368.371094 384.121094 369.808594 382.082031 C 371.25 380.039062 373.359375 378.449219 376.140625 377.308594 C 378.921875 376.167969 382.269531 375.601562 386.191406 375.601562 C 390.109375 375.601562 393.449219 376.0625 396.210938 376.980469 "/>
<path style=" stroke:none;fill-rule:nonzero;fill:rgb(100%,100%,100%);fill-opacity:1;" d="M 122.734375 454.140625 L 122.734375 460.800781 L 92.191406 460.800781 L 92.191406 421.199219 L 121.894531 421.199219 L 121.894531 427.859375 L 100.472656 427.859375 L 100.472656 437.699219 L 117.332031 437.699219 L 117.332031 444.058594 L 100.472656 444.058594 L 100.472656 454.140625 Z M 122.734375 454.140625 "/>
<path style=" stroke:none;fill-rule:nonzero;fill:rgb(100%,100%,100%);fill-opacity:1;" d="M 152.550781 460.800781 L 143.910156 446.460938 L 135.453125 460.800781 L 125.972656 460.800781 L 139.59375 440.820312 L 126.933594 421.199219 L 136.710938 421.199219 L 144.753906 435 L 152.792969 421.199219 L 161.734375 421.199219 L 149.011719 440.519531 L 162.453125 460.800781 Z M 152.550781 460.800781 "/>
<path style=" stroke:none;fill-rule:nonzero;fill:rgb(100%,100%,100%);fill-opacity:1;" d="M 199.113281 454.140625 L 199.113281 460.800781 L 168.574219 460.800781 L 168.574219 421.199219 L 198.273438 421.199219 L 198.273438 427.859375 L 176.851562 427.859375 L 176.851562 437.699219 L 193.710938 437.699219 L 193.710938 444.058594 L 176.851562 444.058594 L 176.851562 454.140625 Z M 199.113281 454.140625 "/>
<path style=" stroke:none;fill-rule:nonzero;fill:rgb(100%,100%,100%);fill-opacity:1;" d="M 214.710938 439.320312 L 222.933594 439.320312 C 225.332031 439.320312 227.101562 438.851562 228.242188 437.910156 C 229.382812 436.972656 229.953125 435.519531 229.953125 433.558594 C 229.953125 431.601562 229.382812 430.152344 228.242188 429.210938 C 227.101562 428.269531 225.332031 427.800781 222.933594 427.800781 L 214.710938 427.800781 Z M 222.152344 445.621094 L 214.710938 445.621094 L 214.710938 460.800781 L 206.550781 460.800781 L 206.550781 421.199219 L 224.011719 421.199219 C 228.53125 421.199219 232.0625 422.269531 234.601562 424.410156 C 237.140625 426.550781 238.410156 429.5625 238.410156 433.441406 C 238.410156 436.28125 237.710938 438.660156 236.3125 440.582031 C 234.910156 442.5 232.910156 443.878906 230.3125 444.71875 L 240.753906 460.800781 L 231.453125 460.800781 Z M 222.152344 445.621094 "/>
<path style=" stroke:none;fill-rule:nonzero;fill:rgb(100%,100%,100%);fill-opacity:1;" d="M 274.652344 458.492188 C 271.691406 460.429688 268.152344 461.398438 264.03125 461.398438 C 260.152344 461.398438 256.773438 460.582031 253.894531 458.941406 C 251.011719 457.300781 248.800781 454.949219 247.261719 451.890625 C 245.722656 448.832031 244.953125 445.199219 244.953125 441 C 244.953125 436.800781 245.722656 433.171875 247.261719 430.109375 C 248.800781 427.050781 251.003906 424.699219 253.863281 423.058594 C 256.722656 421.421875 260.074219 420.601562 263.914062 420.601562 C 268.03125 420.601562 271.523438 421.460938 274.382812 423.179688 C 277.242188 424.902344 279.210938 427.460938 280.292969 430.859375 L 272.792969 434.039062 C 272.152344 431.679688 271.152344 429.980469 269.792969 428.941406 C 268.429688 427.902344 266.589844 427.378906 264.273438 427.378906 C 260.914062 427.378906 258.28125 428.5625 256.382812 430.921875 C 254.480469 433.28125 253.53125 436.640625 253.53125 441 C 253.53125 445.359375 254.453125 448.71875 256.292969 451.082031 C 258.132812 453.441406 260.734375 454.621094 264.089844 454.621094 C 268.929688 454.621094 271.972656 452.28125 273.210938 447.601562 L 280.832031 449.878906 C 279.671875 453.679688 277.613281 456.550781 274.652344 458.492188 "/>
<path style=" stroke:none;fill-rule:nonzero;fill:rgb(100%,100%,100%);fill-opacity:1;" d="M 296.191406 460.800781 L 287.914062 460.800781 L 287.914062 421.199219 L 296.191406 421.199219 Z M 296.191406 460.800781 "/>
<path style=" stroke:none;fill-rule:nonzero;fill:rgb(100%,100%,100%);fill-opacity:1;" d="M 330.453125 422.429688 C 333.09375 423.652344 335.410156 425.582031 337.414062 428.21875 L 331.710938 433.800781 C 330.671875 431.640625 329.292969 430.03125 327.574219 428.96875 C 325.851562 427.910156 323.671875 427.378906 321.03125 427.378906 C 318.632812 427.378906 316.78125 427.832031 315.480469 428.730469 C 314.179688 429.628906 313.53125 430.820312 313.53125 432.300781 C 313.53125 433.660156 314.191406 434.742188 315.511719 435.539062 C 316.832031 436.339844 319.210938 437.039062 322.652344 437.640625 C 326.253906 438.320312 329.113281 439.160156 331.230469 440.160156 C 333.351562 441.160156 334.902344 442.410156 335.882812 443.910156 C 336.863281 445.410156 337.351562 447.28125 337.351562 449.519531 C 337.351562 451.960938 336.664062 454.070312 335.28125 455.851562 C 333.902344 457.628906 331.980469 459 329.519531 459.960938 C 327.0625 460.921875 324.25 461.398438 321.09375 461.398438 C 316.730469 461.398438 313.160156 460.789062 310.382812 459.570312 C 307.601562 458.351562 305.351562 456.5 303.632812 454.019531 L 308.550781 448.140625 C 310.03125 450.582031 311.730469 452.269531 313.652344 453.210938 C 315.574219 454.152344 317.953125 454.621094 320.792969 454.621094 C 323.351562 454.621094 325.300781 454.222656 326.640625 453.421875 C 327.980469 452.621094 328.652344 451.480469 328.652344 450 C 328.652344 448.921875 328.019531 448.019531 326.761719 447.300781 C 325.503906 446.582031 323.253906 445.902344 320.011719 445.261719 C 316.292969 444.5 313.324219 443.601562 311.101562 442.558594 C 308.882812 441.519531 307.269531 440.242188 306.269531 438.71875 C 305.269531 437.199219 304.769531 435.320312 304.769531 433.082031 C 304.769531 430.71875 305.410156 428.589844 306.691406 426.691406 C 307.972656 424.789062 309.84375 423.300781 312.300781 422.21875 C 314.761719 421.140625 317.652344 420.601562 320.972656 420.601562 C 324.652344 420.601562 327.8125 421.210938 330.453125 422.429688 "/>
<path style=" stroke:none;fill-rule:nonzero;fill:rgb(100%,100%,100%);fill-opacity:1;" d="M 375.632812 454.140625 L 375.632812 460.800781 L 345.09375 460.800781 L 345.09375 421.199219 L 374.789062 421.199219 L 374.789062 427.859375 L 353.371094 427.859375 L 353.371094 437.699219 L 370.230469 437.699219 L 370.230469 444.058594 L 353.371094 444.058594 L 353.371094 454.140625 Z M 375.632812 454.140625 "/>
<path style=" stroke:none;fill-rule:nonzero;fill:rgb(100%,100%,100%);fill-opacity:1;" d="M 407.011719 422.429688 C 409.652344 423.652344 411.972656 425.582031 413.972656 428.21875 L 408.269531 433.800781 C 407.230469 431.640625 405.851562 430.03125 404.132812 428.96875 C 402.410156 427.910156 400.230469 427.378906 397.589844 427.378906 C 395.191406 427.378906 393.339844 427.832031 392.039062 428.730469 C 390.738281 429.628906 390.089844 430.820312 390.089844 432.300781 C 390.089844 433.660156 390.75 434.742188 392.070312 435.539062 C 393.390625 436.339844 395.769531 437.039062 399.210938 437.640625 C 402.8125 438.320312 405.671875 439.160156 407.789062 440.160156 C 409.910156 441.160156 411.460938 442.410156 412.441406 443.910156 C 413.421875 445.410156 413.910156 447.28125 413.910156 449.519531 C 413.910156 451.960938 413.222656 454.070312 411.839844 455.851562 C 410.460938 457.628906 408.539062 459 406.082031 459.960938 C 403.621094 460.921875 400.8125 461.398438 397.652344 461.398438 C 393.289062 461.398438 389.722656 460.789062 386.941406 459.570312 C 384.160156 458.351562 381.910156 456.5 380.191406 454.019531 L 385.113281 448.140625 C 386.589844 450.582031 388.289062 452.269531 390.210938 453.210938 C 392.132812 454.152344 394.511719 454.621094 397.351562 454.621094 C 399.910156 454.621094 401.859375 454.222656 403.199219 453.421875 C 404.539062 452.621094 405.210938 451.480469 405.210938 450 C 405.210938 448.921875 404.582031 448.019531 403.320312 447.300781 C 402.0625 446.582031 399.8125 445.902344 396.570312 445.261719 C 392.851562 444.5 389.882812 443.601562 387.660156 442.558594 C 385.441406 441.519531 383.828125 440.242188 382.832031 438.71875 C 381.832031 437.199219 381.332031 435.320312 381.332031 433.082031 C 381.332031 430.71875 381.972656 428.589844 383.25 426.691406 C 384.53125 424.789062 386.402344 423.300781 388.863281 422.21875 C 391.320312 421.140625 394.210938 420.601562 397.53125 420.601562 C 401.210938 420.601562 404.371094 421.210938 407.011719 422.429688 "/>
<path style=" stroke:none;fill-rule:nonzero;fill:rgb(100%,100%,100%);fill-opacity:1;" d="M 92.363281 465.910156 L 92.363281 466.832031 L 94.902344 466.832031 L 94.902344 468.539062 L 92.363281 468.539062 L 92.363281 470.800781 L 90.03125 470.800781 L 90.03125 464.199219 L 95.503906 464.199219 L 95.503906 465.910156 Z M 92.363281 465.910156 "/>
<path style=" stroke:none;fill-rule:nonzero;fill:rgb(100%,100%,100%);fill-opacity:1;" d="M 101.773438 469.089844 L 101.773438 470.800781 L 96.171875 470.800781 L 96.171875 464.199219 L 101.652344 464.199219 L 101.652344 465.910156 L 98.503906 465.910156 L 98.503906 466.730469 L 101.042969 466.730469 L 101.042969 468.308594 L 98.503906 468.308594 L 98.503906 469.089844 Z M 101.773438 469.089844 "/>
<path style=" stroke:none;fill-rule:nonzero;fill:rgb(100%,100%,100%);fill-opacity:1;" d="M 107.753906 469.089844 L 107.753906 470.800781 L 102.433594 470.800781 L 102.433594 464.199219 L 104.761719 464.199219 L 104.761719 469.089844 Z M 107.753906 469.089844 "/>
<path style=" stroke:none;fill-rule:nonzero;fill:rgb(100%,100%,100%);fill-opacity:1;" d="M 112.242188 468.761719 C 112.394531 468.507812 112.472656 468.085938 112.472656 467.5 C 112.472656 466.914062 112.394531 466.492188 112.242188 466.238281 C 112.089844 465.988281 111.804688 465.859375 111.390625 465.859375 L 110.8125 465.859375 L 110.8125 469.140625 L 111.390625 469.140625 C 111.804688 469.140625 112.089844 469.015625 112.242188 468.761719 M 114.058594 465.054688 C 114.585938 465.625 114.851562 466.441406 114.851562 467.5 C 114.851562 468.558594 114.585938 469.375 114.058594 469.945312 C 113.527344 470.515625 112.75 470.800781 111.722656 470.800781 L 108.480469 470.800781 L 108.480469 464.199219 L 111.722656 464.199219 C 112.75 464.199219 113.527344 464.484375 114.058594 465.054688 "/>
<path style=" stroke:none;fill-rule:nonzero;fill:rgb(100%,100%,100%);fill-opacity:1;" d="M 124.121094 470.800781 L 122.09375 470.800781 L 122.09375 468.511719 L 122.121094 466.289062 L 122.09375 466.289062 L 120.8125 470.800781 L 118.953125 470.800781 L 117.691406 466.289062 L 117.652344 466.289062 L 117.683594 468.511719 L 117.683594 470.800781 L 115.644531 470.800781 L 115.644531 464.199219 L 118.902344 464.199219 L 119.664062 467.128906 L 119.953125 468.359375 L 119.972656 468.359375 L 120.261719 467.128906 L 121.023438 464.199219 L 124.121094 464.199219 Z M 124.121094 470.800781 "/>
<path style=" stroke:none;fill-rule:nonzero;fill:rgb(100%,100%,100%);fill-opacity:1;" d="M 128.59375 468.089844 L 128.0625 465.890625 L 128.03125 465.890625 L 127.773438 467.011719 L 127.503906 468.089844 Z M 128.933594 469.539062 L 127.152344 469.539062 L 126.84375 470.800781 L 124.523438 470.800781 L 126.660156 464.199219 L 129.460938 464.199219 L 131.613281 470.800781 L 129.234375 470.800781 Z M 128.933594 469.539062 "/>
<path style=" stroke:none;fill-rule:nonzero;fill:rgb(100%,100%,100%);fill-opacity:1;" d="M 138.472656 470.800781 L 135.953125 470.800781 L 134.371094 467.800781 L 134.011719 466.992188 L 133.992188 466.992188 L 134.03125 468.351562 L 134.03125 470.800781 L 132.011719 470.800781 L 132.011719 464.199219 L 134.53125 464.199219 L 136.113281 467.210938 L 136.472656 468.011719 L 136.492188 468.011719 L 136.453125 466.648438 L 136.453125 464.199219 L 138.472656 464.199219 Z M 138.472656 470.800781 "/>
<path style=" stroke:none;fill-rule:nonzero;fill:rgb(100%,100%,100%);fill-opacity:1;" d="M 151.753906 467.082031 L 152.582031 467.082031 C 152.875 467.082031 153.082031 467.035156 153.207031 466.945312 C 153.332031 466.855469 153.390625 466.695312 153.390625 466.46875 C 153.390625 466.25 153.332031 466.09375 153.207031 466 C 153.082031 465.90625 152.875 465.859375 152.582031 465.859375 L 151.753906 465.859375 Z M 152.390625 468.609375 L 151.753906 468.609375 L 151.753906 470.800781 L 149.472656 470.800781 L 149.472656 464.199219 L 153.050781 464.199219 C 153.933594 464.199219 154.597656 464.386719 155.046875 464.753906 C 155.496094 465.125 155.722656 465.675781 155.722656 466.410156 C 155.722656 467.378906 155.324219 468.027344 154.53125 468.359375 L 156.09375 470.800781 L 153.5625 470.800781 Z M 152.390625 468.609375 "/>
<path style=" stroke:none;fill-rule:nonzero;fill:rgb(100%,100%,100%);fill-opacity:1;" d="M 162.121094 469.089844 L 162.121094 470.800781 L 156.519531 470.800781 L 156.519531 464.199219 L 162.003906 464.199219 L 162.003906 465.910156 L 158.851562 465.910156 L 158.851562 466.730469 L 161.390625 466.730469 L 161.390625 468.308594 L 158.851562 468.308594 L 158.851562 469.089844 Z M 162.121094 469.089844 "/>
<path style=" stroke:none;fill-rule:nonzero;fill:rgb(100%,100%,100%);fill-opacity:1;" d="M 165.933594 470.898438 C 165.238281 470.898438 164.640625 470.765625 164.136719 470.5 C 163.632812 470.234375 163.246094 469.84375 162.976562 469.335938 C 162.707031 468.824219 162.574219 468.214844 162.574219 467.5 C 162.574219 466.785156 162.707031 466.175781 162.976562 465.664062 C 163.246094 465.15625 163.632812 464.765625 164.136719 464.5 C 164.640625 464.234375 165.238281 464.101562 165.933594 464.101562 C 166.703125 464.101562 167.367188 464.265625 167.910156 464.59375 C 168.457031 464.925781 168.800781 465.425781 168.933594 466.101562 L 166.933594 466.878906 C 166.878906 466.472656 166.78125 466.199219 166.640625 466.058594 C 166.5 465.921875 166.285156 465.851562 165.992188 465.851562 C 165.644531 465.851562 165.386719 465.984375 165.210938 466.25 C 165.039062 466.515625 164.953125 466.933594 164.953125 467.5 C 164.953125 468.066406 165.035156 468.484375 165.203125 468.75 C 165.367188 469.015625 165.625 469.148438 165.972656 469.148438 C 166.285156 469.148438 166.511719 469.082031 166.652344 468.941406 C 166.792969 468.800781 166.882812 468.570312 166.921875 468.25 L 168.984375 468.78125 C 168.640625 470.195312 167.625 470.898438 165.933594 470.898438 "/>
<path style=" stroke:none;fill-rule:nonzero;fill:rgb(100%,100%,100%);fill-opacity:1;" d="M 176.023438 464.199219 L 176.023438 470.800781 L 173.691406 470.800781 L 173.691406 468.339844 L 171.882812 468.339844 L 171.882812 470.800781 L 169.550781 470.800781 L 169.550781 464.199219 L 171.882812 464.199219 L 171.882812 466.628906 L 173.691406 466.628906 L 173.691406 464.199219 Z M 176.023438 464.199219 "/>
<path style=" stroke:none;fill-rule:nonzero;fill:rgb(100%,100%,100%);fill-opacity:1;" d="M 183.480469 470.800781 L 180.960938 470.800781 L 179.382812 467.800781 L 179.023438 466.992188 L 179.003906 466.992188 L 179.042969 468.351562 L 179.042969 470.800781 L 177.023438 470.800781 L 177.023438 464.199219 L 179.542969 464.199219 L 181.121094 467.210938 L 181.480469 468.011719 L 181.503906 468.011719 L 181.460938 466.648438 L 181.460938 464.199219 L 183.480469 464.199219 Z M 183.480469 470.800781 "/>
<path style=" stroke:none;fill-rule:nonzero;fill:rgb(100%,100%,100%);fill-opacity:1;" d="M 186.8125 470.800781 L 184.480469 470.800781 L 184.480469 464.199219 L 186.8125 464.199219 Z M 186.8125 470.800781 "/>
<path style=" stroke:none;fill-rule:nonzero;fill:rgb(100%,100%,100%);fill-opacity:1;" d="M 193.972656 465.910156 L 191.910156 465.910156 L 191.910156 470.800781 L 189.582031 470.800781 L 189.582031 465.910156 L 187.511719 465.910156 L 187.511719 464.199219 L 193.972656 464.199219 Z M 193.972656 465.910156 "/>
<path style=" stroke:none;fill-rule:nonzero;fill:rgb(100%,100%,100%);fill-opacity:1;" d="M 200.390625 469.140625 L 200.390625 470.800781 L 194.421875 470.800781 L 194.421875 469.210938 L 197.773438 465.859375 L 194.460938 465.859375 L 194.460938 464.199219 L 200.28125 464.199219 L 200.28125 465.789062 L 196.953125 469.140625 Z M 200.390625 469.140625 "/>
<path style=" stroke:none;fill-rule:nonzero;fill:rgb(100%,100%,100%);fill-opacity:1;" d="M 206.640625 469.089844 L 206.640625 470.800781 L 201.039062 470.800781 L 201.039062 464.199219 L 206.523438 464.199219 L 206.523438 465.910156 L 203.371094 465.910156 L 203.371094 466.730469 L 205.910156 466.730469 L 205.910156 468.308594 L 203.371094 468.308594 L 203.371094 469.089844 Z M 206.640625 469.089844 "/>
<path style=" stroke:none;fill-rule:nonzero;fill:rgb(100%,100%,100%);fill-opacity:1;" d="M 209.582031 467.082031 L 210.410156 467.082031 C 210.703125 467.082031 210.914062 467.035156 211.035156 466.945312 C 211.160156 466.855469 211.222656 466.695312 211.222656 466.46875 C 211.222656 466.25 211.160156 466.09375 211.035156 466 C 210.914062 465.90625 210.703125 465.859375 210.410156 465.859375 L 209.582031 465.859375 Z M 210.222656 468.609375 L 209.582031 468.609375 L 209.582031 470.800781 L 207.300781 470.800781 L 207.300781 464.199219 L 210.882812 464.199219 C 211.761719 464.199219 212.425781 464.386719 212.875 464.753906 C 213.328125 465.125 213.550781 465.675781 213.550781 466.410156 C 213.550781 467.378906 213.15625 468.027344 212.359375 468.359375 L 213.921875 470.800781 L 211.390625 470.800781 Z M 210.222656 468.609375 "/>
<path style=" stroke:none;fill-rule:nonzero;fill:rgb(100%,100%,100%);fill-opacity:1;" d="M 228.582031 468.511719 L 228.582031 470.800781 L 226.25 470.800781 L 226.25 468.511719 L 223.941406 464.199219 L 226.261719 464.199219 L 226.960938 465.710938 L 227.429688 466.910156 L 227.898438 465.710938 L 228.601562 464.199219 L 230.890625 464.199219 Z M 228.582031 468.511719 "/>
<path style=" stroke:none;fill-rule:nonzero;fill:rgb(100%,100%,100%);fill-opacity:1;" d="M 237.082031 469.089844 L 237.082031 470.800781 L 231.480469 470.800781 L 231.480469 464.199219 L 236.960938 464.199219 L 236.960938 465.910156 L 233.8125 465.910156 L 233.8125 466.730469 L 236.351562 466.730469 L 236.351562 468.308594 L 233.8125 468.308594 L 233.8125 469.089844 Z M 237.082031 469.089844 "/>
<path style=" stroke:none;fill-rule:nonzero;fill:rgb(100%,100%,100%);fill-opacity:1;" d="M 241.210938 468.089844 L 240.679688 465.890625 L 240.652344 465.890625 L 240.390625 467.011719 L 240.121094 468.089844 Z M 241.550781 469.539062 L 239.769531 469.539062 L 239.460938 470.800781 L 237.140625 470.800781 L 239.28125 464.199219 L 242.082031 464.199219 L 244.230469 470.800781 L 241.851562 470.800781 Z M 241.550781 469.539062 "/>
<path style=" stroke:none;fill-rule:nonzero;fill:rgb(100%,100%,100%);fill-opacity:1;" d="M 247.582031 467.082031 L 250.640625 467.082031 L 250.640625 470.800781 L 249.101562 470.800781 L 249.019531 470.050781 C 248.679688 470.617188 248.085938 470.898438 247.230469 470.898438 C 246.648438 470.898438 246.128906 470.773438 245.667969 470.515625 C 245.203125 470.257812 244.835938 469.878906 244.566406 469.371094 C 244.296875 468.863281 244.160156 468.246094 244.160156 467.519531 C 244.160156 466.441406 244.464844 465.601562 245.066406 465 C 245.667969 464.398438 246.507812 464.101562 247.582031 464.101562 C 248.398438 464.101562 249.054688 464.242188 249.535156 464.519531 C 250.019531 464.800781 250.394531 465.265625 250.660156 465.910156 L 248.492188 466.691406 C 248.40625 466.128906 248.128906 465.851562 247.660156 465.851562 C 247.273438 465.851562 246.992188 465.980469 246.808594 466.246094 C 246.632812 466.507812 246.542969 466.925781 246.542969 467.5 C 246.542969 468.113281 246.636719 468.550781 246.832031 468.816406 C 247.023438 469.078125 247.328125 469.210938 247.742188 469.210938 C 248.035156 469.210938 248.265625 469.152344 248.433594 469.035156 C 248.605469 468.917969 248.691406 468.746094 248.691406 468.519531 L 248.691406 468.511719 L 247.582031 468.511719 Z M 247.582031 467.082031 "/>
<path style=" stroke:none;fill-rule:nonzero;fill:rgb(100%,100%,100%);fill-opacity:1;" d="M 257.191406 469.089844 L 257.191406 470.800781 L 251.589844 470.800781 L 251.589844 464.199219 L 257.070312 464.199219 L 257.070312 465.910156 L 253.921875 465.910156 L 253.921875 466.730469 L 256.460938 466.730469 L 256.460938 468.308594 L 253.921875 468.308594 L 253.921875 469.089844 Z M 257.191406 469.089844 "/>
<path style=" stroke:none;fill-rule:nonzero;fill:rgb(100%,100%,100%);fill-opacity:1;" d="M 260.132812 467.082031 L 260.960938 467.082031 C 261.253906 467.082031 261.460938 467.035156 261.585938 466.945312 C 261.710938 466.855469 261.769531 466.695312 261.769531 466.46875 C 261.769531 466.25 261.710938 466.09375 261.585938 466 C 261.460938 465.90625 261.253906 465.859375 260.960938 465.859375 L 260.132812 465.859375 Z M 260.769531 468.609375 L 260.132812 468.609375 L 260.132812 470.800781 L 257.851562 470.800781 L 257.851562 464.199219 L 261.429688 464.199219 C 262.3125 464.199219 262.976562 464.386719 263.425781 464.753906 C 263.875 465.125 264.101562 465.675781 264.101562 466.410156 C 264.101562 467.378906 263.703125 468.027344 262.910156 468.359375 L 264.472656 470.800781 L 261.941406 470.800781 Z M 260.769531 468.609375 "/>
</g>
</svg>
