<?xml version="1.0" encoding="UTF-8"?>
<!-- Copyright 2018 Nick Loewen -->
<!-- This work is licensed under the Creative Commons Attribution-NonCommercial-ShareAlike 4.0 International License-->
<!-- https://creativecommons.org/licenses/by-nc-sa/4.0 -->

<svg xmlns="http://www.w3.org/2000/svg" xmlns:xlink="http://www.w3.org/1999/xlink" width="611.692pt" height="789.018pt" viewBox="0 0 611.692 789.018" version="1.1">
<defs>
<clipPath id="clip1">
  <path d="M 0 0 L 611.691406 0 L 611.691406 789.019531 L 0 789.019531 Z M 0 0 "/>
</clipPath>
<clipPath id="clip2">
  <path d="M 0 2.984375 L 609.125 2.984375 L 609.125 789.019531 L 0 789.019531 Z M 0 2.984375 "/>
</clipPath>
<clipPath id="clip3">
  <path d="M 0 2.984375 L 524 2.984375 L 524 789.019531 L 0 789.019531 Z M 0 2.984375 "/>
</clipPath>
<clipPath id="clip4">
  <path d="M 0 2.984375 L 131 2.984375 L 131 789.019531 L 0 789.019531 Z M 0 2.984375 "/>
</clipPath>
<clipPath id="clip5">
  <path d="M 0 2.984375 L 347 2.984375 L 347 789.019531 L 0 789.019531 Z M 0 2.984375 "/>
</clipPath>
<clipPath id="clip6">
  <path d="M 0 2.984375 L 609.125 2.984375 L 609.125 789.019531 L 0 789.019531 Z M 0 2.984375 "/>
</clipPath>
<clipPath id="clip7">
  <path d="M 0 2.984375 L 402 2.984375 L 402 789.019531 L 0 789.019531 Z M 0 2.984375 "/>
</clipPath>
<clipPath id="clip8">
  <path d="M 0 2.984375 L 145 2.984375 L 145 789.019531 L 0 789.019531 Z M 0 2.984375 "/>
</clipPath>
</defs>
<g id="surface1">
<g clip-path="url(#clip1)" clip-rule="nonzero">
<path style=" stroke:none;fill-rule:nonzero;fill:rgb(49.798584%,23.498535%,19.999695%);fill-opacity:1;" d="M 0 789.019531 L 611.691406 789.019531 L 611.691406 0 L 0 0 Z M 0 789.019531 "/>
</g>
<g clip-path="url(#clip2)" clip-rule="nonzero">
<path style="fill:none;stroke-width:1;stroke-linecap:butt;stroke-linejoin:miter;stroke:rgb(100%,100%,100%);stroke-opacity:1;stroke-miterlimit:10;" d="M 0.000575 0.0011125 L -3517.155675 2041.919081 " transform="matrix(1,0,0,-1,1685.7963,1422.5558)"/>
<path style="fill:none;stroke-width:1;stroke-linecap:butt;stroke-linejoin:miter;stroke:rgb(100%,100%,100%);stroke-opacity:1;stroke-miterlimit:10;" d="M 0.0001 -0.00131875 L -2867.890525 2512.971338 " transform="matrix(1,0,0,-1,1469.3749,1579.5729)"/>
<path style="fill:none;stroke-width:1;stroke-linecap:butt;stroke-linejoin:miter;stroke:rgb(100%,100%,100%);stroke-opacity:1;stroke-miterlimit:10;" d="M 0.00058125 -0.0008375 L -1866.909575 2779.831194 " transform="matrix(1,0,0,-1,901.2377,1532.3976)"/>
</g>
<g clip-path="url(#clip3)" clip-rule="nonzero">
<path style="fill:none;stroke-width:1;stroke-linecap:butt;stroke-linejoin:miter;stroke:rgb(100%,100%,100%);stroke-opacity:1;stroke-miterlimit:10;" d="M -0.00136875 -0.0018125 L -1041.786525 3148.783344 " transform="matrix(1,0,0,-1,508.9584,1587.3185)"/>
</g>
<g clip-path="url(#clip4)" clip-rule="nonzero">
<path style="fill:none;stroke-width:1;stroke-linecap:butt;stroke-linejoin:miter;stroke:rgb(100%,100%,100%);stroke-opacity:1;stroke-miterlimit:10;" d="M 0.0010875 0.00161875 L -216.666881 3517.7399 " transform="matrix(1,0,0,-1,116.6786,1642.2399)"/>
</g>
<g clip-path="url(#clip5)" clip-rule="nonzero">
<path style="fill:none;stroke-width:1;stroke-linecap:butt;stroke-linejoin:miter;stroke:rgb(100%,100%,100%);stroke-opacity:1;stroke-miterlimit:10;" d="M -0.0008625 0.00064375 L 608.456169 3886.695956 " transform="matrix(1,0,0,-1,-275.6007,1697.1608)"/>
</g>
<g clip-path="url(#clip6)" clip-rule="nonzero">
<path style="fill:none;stroke-width:1;stroke-linecap:butt;stroke-linejoin:miter;stroke:rgb(100%,100%,100%);stroke-opacity:1;stroke-miterlimit:10;" d="M 0.000125 -0.00181875 L 3517.156375 -2041.919787 " transform="matrix(1,0,0,-1,-1831.3595,-619.3651)"/>
<path style="fill:none;stroke-width:1;stroke-linecap:butt;stroke-linejoin:miter;stroke:rgb(100%,100%,100%);stroke-opacity:1;stroke-miterlimit:10;" d="M -0.00183125 -0.00084375 L 2692.033325 -2410.875844 " transform="matrix(1,0,0,-1,-1439.0802,-674.286)"/>
<path style="fill:none;stroke-width:1;stroke-linecap:butt;stroke-linejoin:miter;stroke:rgb(100%,100%,100%);stroke-opacity:1;stroke-miterlimit:10;" d="M -0.00038125 0.00013125 L 1866.909775 -2779.8319 " transform="matrix(1,0,0,-1,-1046.8004,-729.2069)"/>
</g>
<g clip-path="url(#clip7)" clip-rule="nonzero">
<path style="fill:none;stroke-width:1;stroke-linecap:butt;stroke-linejoin:miter;stroke:rgb(100%,100%,100%);stroke-opacity:1;stroke-miterlimit:10;" d="M 0.00156875 0.00110625 L 1041.786725 -3148.78405 " transform="matrix(1,0,0,-1,-654.5211,-784.1278)"/>
</g>
<g clip-path="url(#clip8)" clip-rule="nonzero">
<path style="fill:none;stroke-width:1;stroke-linecap:butt;stroke-linejoin:miter;stroke:rgb(100%,100%,100%);stroke-opacity:1;stroke-miterlimit:10;" d="M 0.0010625 -0.00075 L -608.459875 -3886.696063 " transform="matrix(1,0,0,-1,130.038,-893.9695)"/>
</g>
<path style=" stroke:none;fill-rule:nonzero;fill:rgb(49.798584%,23.498535%,19.999695%);fill-opacity:1;" d="M 533.125 458.296875 L 78.566406 458.296875 L 78.566406 330.722656 L 533.125 330.722656 Z M 533.125 458.296875 "/>
<path style=" stroke:none;fill-rule:nonzero;fill:rgb(100%,100%,100%);fill-opacity:1;" d="M 543.085938 320.761719 L 68.605469 320.761719 L 68.605469 468.257812 L 543.085938 468.257812 Z M 528.085938 453.257812 L 83.605469 453.257812 L 83.605469 335.761719 L 528.085938 335.761719 Z M 528.085938 453.257812 "/>
<path style=" stroke:none;fill-rule:nonzero;fill:rgb(100%,100%,100%);fill-opacity:1;" d="M 93.027344 348.910156 C 92.335938 348.910156 91.734375 348.777344 91.234375 348.511719 C 90.730469 348.242188 90.34375 347.855469 90.074219 347.34375 C 89.804688 346.835938 89.667969 346.222656 89.667969 345.511719 C 89.667969 344.796875 89.804688 344.183594 90.074219 343.675781 C 90.34375 343.164062 90.730469 342.777344 91.234375 342.511719 C 91.734375 342.242188 92.335938 342.109375 93.027344 342.109375 C 93.800781 342.109375 94.460938 342.273438 95.007812 342.605469 C 95.554688 342.933594 95.894531 343.4375 96.027344 344.109375 L 94.027344 344.890625 C 93.976562 344.484375 93.878906 344.210938 93.738281 344.070312 C 93.597656 343.929688 93.382812 343.859375 93.089844 343.859375 C 92.742188 343.859375 92.480469 343.992188 92.308594 344.261719 C 92.132812 344.527344 92.046875 344.945312 92.046875 345.511719 C 92.046875 346.078125 92.132812 346.492188 92.296875 346.761719 C 92.464844 347.027344 92.722656 347.160156 93.066406 347.160156 C 93.382812 347.160156 93.609375 347.089844 93.75 346.949219 C 93.886719 346.808594 93.976562 346.578125 94.019531 346.261719 L 96.078125 346.789062 C 95.738281 348.203125 94.722656 348.910156 93.027344 348.910156 "/>
<path style=" stroke:none;fill-rule:nonzero;fill:rgb(100%,100%,100%);fill-opacity:1;" d="M 101.96875 347.101562 L 101.96875 348.808594 L 96.648438 348.808594 L 96.648438 342.210938 L 98.976562 342.210938 L 98.976562 347.101562 Z M 101.96875 347.101562 "/>
<path style=" stroke:none;fill-rule:nonzero;fill:rgb(100%,100%,100%);fill-opacity:1;" d="M 106.441406 344.960938 C 106.574219 344.859375 106.636719 344.703125 106.636719 344.488281 C 106.636719 344.277344 106.574219 344.117188 106.441406 344.019531 C 106.3125 343.921875 106.105469 343.867188 105.816406 343.867188 L 105.027344 343.867188 L 105.027344 345.109375 L 105.816406 345.109375 C 106.105469 345.109375 106.3125 345.058594 106.441406 344.960938 M 108.96875 344.519531 C 108.96875 345.234375 108.734375 345.777344 108.269531 346.148438 C 107.800781 346.523438 107.109375 346.710938 106.199219 346.710938 L 105.027344 346.710938 L 105.027344 348.808594 L 102.699219 348.808594 L 102.699219 342.210938 L 106.199219 342.210938 C 108.046875 342.210938 108.96875 342.980469 108.96875 344.519531 "/>
<path style=" stroke:none;fill-rule:nonzero;fill:rgb(100%,100%,100%);fill-opacity:1;" d="M 115.789062 342.210938 L 115.789062 348.808594 L 113.558594 348.808594 L 113.558594 344.390625 C 113.078125 344.816406 112.589844 345.066406 112.089844 345.140625 L 111.957031 343.269531 C 112.359375 343.222656 112.757812 343.09375 113.152344 342.886719 C 113.550781 342.675781 113.824219 342.449219 113.976562 342.210938 Z M 115.789062 342.210938 "/>
<path style=" stroke:none;fill-rule:nonzero;fill:rgb(100%,100%,100%);fill-opacity:1;" d="M 112.4375 379.570312 C 113.355469 378.050781 113.820312 375.53125 113.820312 372.007812 C 113.820312 368.492188 113.355469 365.96875 112.4375 364.449219 C 111.515625 362.929688 109.816406 362.171875 107.339844 362.171875 L 103.859375 362.171875 L 103.859375 381.847656 L 107.339844 381.847656 C 109.816406 381.847656 111.515625 381.089844 112.4375 379.570312 M 123.328125 357.339844 C 126.507812 360.757812 128.097656 365.648438 128.097656 372.007812 C 128.097656 378.371094 126.507812 383.257812 123.328125 386.679688 C 120.148438 390.097656 115.476562 391.808594 109.320312 391.808594 L 89.878906 391.808594 L 89.878906 352.210938 L 109.320312 352.210938 C 115.476562 352.210938 120.148438 353.921875 123.328125 357.339844 "/>
<path style=" stroke:none;fill-rule:nonzero;fill:rgb(100%,100%,100%);fill-opacity:1;" d="M 146.816406 391.808594 L 132.839844 391.808594 L 132.839844 352.210938 L 146.816406 352.210938 Z M 146.816406 391.808594 "/>
<path style=" stroke:none;fill-rule:nonzero;fill:rgb(100%,100%,100%);fill-opacity:1;" d="M 166.796875 362.46875 L 166.796875 367.988281 L 182.039062 367.988281 L 182.039062 378.25 L 166.796875 378.25 L 166.796875 391.808594 L 152.816406 391.808594 L 152.816406 352.210938 L 185.636719 352.210938 L 185.636719 362.46875 Z M 166.796875 362.46875 "/>
<path style=" stroke:none;fill-rule:nonzero;fill:rgb(100%,100%,100%);fill-opacity:1;" d="M 203.636719 362.46875 L 203.636719 367.988281 L 218.878906 367.988281 L 218.878906 378.25 L 203.636719 378.25 L 203.636719 391.808594 L 189.65625 391.808594 L 189.65625 352.210938 L 222.476562 352.210938 L 222.476562 362.46875 Z M 203.636719 362.46875 "/>
<path style=" stroke:none;fill-rule:nonzero;fill:rgb(100%,100%,100%);fill-opacity:1;" d="M 260.097656 381.550781 L 260.097656 391.808594 L 226.496094 391.808594 L 226.496094 352.210938 L 259.378906 352.210938 L 259.378906 362.46875 L 240.476562 362.46875 L 240.476562 367.390625 L 255.71875 367.390625 L 255.71875 376.867188 L 240.476562 376.867188 L 240.476562 381.550781 Z M 260.097656 381.550781 "/>
<path style=" stroke:none;fill-rule:nonzero;fill:rgb(100%,100%,100%);fill-opacity:1;" d="M 277.738281 369.488281 L 282.714844 369.488281 C 284.476562 369.488281 285.726562 369.21875 286.464844 368.679688 C 287.207031 368.140625 287.578125 367.1875 287.578125 365.828125 C 287.578125 364.511719 287.207031 363.570312 286.464844 363.011719 C 285.726562 362.449219 284.476562 362.171875 282.714844 362.171875 L 277.738281 362.171875 Z M 281.578125 378.671875 L 277.738281 378.671875 L 277.738281 391.808594 L 264.058594 391.808594 L 264.058594 352.210938 L 285.535156 352.210938 C 290.816406 352.210938 294.808594 353.320312 297.507812 355.539062 C 300.207031 357.761719 301.558594 361.070312 301.558594 365.46875 C 301.558594 371.269531 299.175781 375.171875 294.417969 377.171875 L 303.777344 391.808594 L 288.597656 391.808594 Z M 281.578125 378.671875 "/>
<path style=" stroke:none;fill-rule:nonzero;fill:rgb(100%,100%,100%);fill-opacity:1;" d="M 339.957031 381.550781 L 339.957031 391.808594 L 306.355469 391.808594 L 306.355469 352.210938 L 339.234375 352.210938 L 339.234375 362.46875 L 320.335938 362.46875 L 320.335938 367.390625 L 335.574219 367.390625 L 335.574219 376.867188 L 320.335938 376.867188 L 320.335938 381.550781 Z M 339.957031 381.550781 "/>
<path style=" stroke:none;fill-rule:nonzero;fill:rgb(100%,100%,100%);fill-opacity:1;" d="M 382.675781 391.808594 L 367.554688 391.808594 L 358.074219 373.808594 L 355.914062 368.949219 L 355.796875 368.949219 L 356.035156 377.109375 L 356.035156 391.808594 L 343.914062 391.808594 L 343.914062 352.210938 L 359.035156 352.210938 L 368.515625 370.269531 L 370.675781 375.070312 L 370.796875 375.070312 L 370.554688 366.910156 L 370.554688 352.210938 L 382.675781 352.210938 Z M 382.675781 391.808594 "/>
<path style=" stroke:none;fill-rule:nonzero;fill:rgb(100%,100%,100%);fill-opacity:1;" d="M 425.632812 362.46875 L 413.273438 362.46875 L 413.273438 391.808594 L 399.292969 391.808594 L 399.292969 362.46875 L 386.875 362.46875 L 386.875 352.210938 L 425.632812 352.210938 Z M 425.632812 362.46875 "/>
<path style=" stroke:none;fill-rule:nonzero;fill:rgb(100%,100%,100%);fill-opacity:1;" d="M 443.8125 391.808594 L 429.835938 391.808594 L 429.835938 352.210938 L 443.8125 352.210938 Z M 443.8125 391.808594 "/>
<path style=" stroke:none;fill-rule:nonzero;fill:rgb(100%,100%,100%);fill-opacity:1;" d="M 470.632812 375.550781 L 467.453125 362.351562 L 467.273438 362.351562 L 465.714844 369.070312 L 464.09375 375.550781 Z M 472.671875 384.25 L 461.992188 384.25 L 460.132812 391.808594 L 446.214844 391.808594 L 459.054688 352.210938 L 475.851562 352.210938 L 488.753906 391.808594 L 474.472656 391.808594 Z M 472.671875 384.25 "/>
<path style=" stroke:none;fill-rule:nonzero;fill:rgb(100%,100%,100%);fill-opacity:1;" d="M 523.074219 381.550781 L 523.074219 391.808594 L 491.152344 391.808594 L 491.152344 352.210938 L 505.132812 352.210938 L 505.132812 381.550781 Z M 523.074219 381.550781 "/>
<path style=" stroke:none;fill-rule:nonzero;fill:rgb(100%,100%,100%);fill-opacity:1;" d="M 108.777344 437.410156 C 104.617188 437.410156 101.027344 436.609375 98.007812 435.011719 C 94.988281 433.410156 92.667969 431.078125 91.046875 428.019531 C 89.429688 424.960938 88.617188 421.289062 88.617188 417.011719 C 88.617188 412.730469 89.429688 409.058594 91.046875 406 C 92.667969 402.9375 94.988281 400.609375 98.007812 399.011719 C 101.027344 397.410156 104.617188 396.609375 108.777344 396.609375 C 113.417969 396.609375 117.378906 397.597656 120.65625 399.578125 C 123.9375 401.558594 125.976562 404.570312 126.777344 408.609375 L 114.777344 413.289062 C 114.457031 410.851562 113.878906 409.210938 113.039062 408.371094 C 112.199219 407.53125 110.898438 407.109375 109.136719 407.109375 C 107.058594 407.109375 105.5 407.910156 104.457031 409.511719 C 103.417969 411.109375 102.898438 413.609375 102.898438 417.011719 C 102.898438 420.410156 103.398438 422.910156 104.398438 424.511719 C 105.398438 426.109375 106.9375 426.910156 109.019531 426.910156 C 110.898438 426.910156 112.257812 426.488281 113.097656 425.648438 C 113.9375 424.808594 114.476562 423.429688 114.71875 421.511719 L 127.078125 424.6875 C 125.039062 433.171875 118.9375 437.410156 108.777344 437.410156 "/>
<path style=" stroke:none;fill-rule:nonzero;fill:rgb(100%,100%,100%);fill-opacity:1;" d="M 151.316406 420.550781 L 148.136719 407.351562 L 147.957031 407.351562 L 146.398438 414.070312 L 144.777344 420.550781 Z M 153.355469 429.25 L 142.675781 429.25 L 140.816406 436.808594 L 126.898438 436.808594 L 139.738281 397.210938 L 156.539062 397.210938 L 169.4375 436.808594 L 155.15625 436.808594 Z M 153.355469 429.25 "/>
<path style=" stroke:none;fill-rule:nonzero;fill:rgb(100%,100%,100%);fill-opacity:1;" d="M 203.757812 426.550781 L 203.757812 436.808594 L 171.835938 436.808594 L 171.835938 397.210938 L 185.816406 397.210938 L 185.816406 426.550781 Z M 203.757812 426.550781 "/>
<path style=" stroke:none;fill-rule:nonzero;fill:rgb(100%,100%,100%);fill-opacity:1;" d="M 225.835938 437.410156 C 221.675781 437.410156 218.085938 436.609375 215.066406 435.011719 C 212.046875 433.410156 209.726562 431.078125 208.109375 428.019531 C 206.488281 424.960938 205.679688 421.289062 205.679688 417.011719 C 205.679688 412.730469 206.488281 409.058594 208.109375 406 C 209.726562 402.9375 212.046875 400.609375 215.066406 399.011719 C 218.085938 397.410156 221.675781 396.609375 225.835938 396.609375 C 230.476562 396.609375 234.4375 397.597656 237.71875 399.578125 C 240.996094 401.558594 243.039062 404.570312 243.835938 408.609375 L 231.835938 413.289062 C 231.519531 410.851562 230.9375 409.210938 230.097656 408.371094 C 229.257812 407.53125 227.957031 407.109375 226.199219 407.109375 C 224.117188 407.109375 222.558594 407.910156 221.519531 409.511719 C 220.476562 411.109375 219.957031 413.609375 219.957031 417.011719 C 219.957031 420.410156 220.457031 422.910156 221.457031 424.511719 C 222.457031 426.109375 223.996094 426.910156 226.078125 426.910156 C 227.957031 426.910156 229.316406 426.488281 230.15625 425.648438 C 230.996094 424.808594 231.539062 423.429688 231.777344 421.511719 L 244.136719 424.6875 C 242.097656 433.171875 235.996094 437.410156 225.835938 437.410156 "/>
<path style=" stroke:none;fill-rule:nonzero;fill:rgb(100%,100%,100%);fill-opacity:1;" d="M 284.9375 419.769531 C 284.9375 431.53125 278.558594 437.410156 265.796875 437.410156 C 253.035156 437.410156 246.65625 431.53125 246.65625 419.769531 L 246.65625 397.210938 L 260.695312 397.210938 L 260.695312 420.851562 C 260.695312 422.851562 261.125 424.359375 261.988281 425.378906 C 262.847656 426.398438 264.117188 426.910156 265.796875 426.910156 C 267.476562 426.910156 268.757812 426.398438 269.636719 425.378906 C 270.515625 424.359375 270.957031 422.851562 270.957031 420.851562 L 270.957031 397.210938 L 284.9375 397.210938 Z M 284.9375 419.769531 "/>
<path style=" stroke:none;fill-rule:nonzero;fill:rgb(100%,100%,100%);fill-opacity:1;" d="M 321.957031 426.550781 L 321.957031 436.808594 L 290.035156 436.808594 L 290.035156 397.210938 L 304.015625 397.210938 L 304.015625 426.550781 Z M 321.957031 426.550781 "/>
<path style=" stroke:none;fill-rule:nonzero;fill:rgb(100%,100%,100%);fill-opacity:1;" d="M 363.714844 419.769531 C 363.714844 431.53125 357.335938 437.410156 344.578125 437.410156 C 331.816406 437.410156 325.4375 431.53125 325.4375 419.769531 L 325.4375 397.210938 L 339.476562 397.210938 L 339.476562 420.851562 C 339.476562 422.851562 339.90625 424.359375 340.765625 425.378906 C 341.625 426.398438 342.894531 426.910156 344.578125 426.910156 C 346.257812 426.910156 347.535156 426.398438 348.417969 425.378906 C 349.296875 424.359375 349.734375 422.851562 349.734375 420.851562 L 349.734375 397.210938 L 363.714844 397.210938 Z M 363.714844 419.769531 "/>
<path style=" stroke:none;fill-rule:nonzero;fill:rgb(100%,100%,100%);fill-opacity:1;" d="M 396.054688 397.988281 C 398.816406 398.910156 401.554688 400.550781 404.277344 402.910156 L 398.15625 411.609375 C 396.355469 409.929688 394.527344 408.71875 392.667969 407.980469 C 390.804688 407.242188 388.734375 406.871094 386.457031 406.871094 C 385.054688 406.871094 383.9375 407.078125 383.097656 407.5 C 382.257812 407.921875 381.835938 408.46875 381.835938 409.148438 C 381.835938 409.589844 382.234375 409.929688 383.035156 410.171875 C 383.835938 410.410156 385.234375 410.710938 387.234375 411.070312 C 393.035156 412.109375 397.207031 413.679688 399.746094 415.78125 C 402.285156 417.878906 403.554688 420.832031 403.554688 424.628906 C 403.554688 427.351562 402.777344 429.671875 401.214844 431.589844 C 399.65625 433.511719 397.535156 434.960938 394.855469 435.9375 C 392.175781 436.917969 389.175781 437.410156 385.855469 437.410156 C 381.175781 437.410156 377.433594 436.96875 374.636719 436.089844 C 371.835938 435.210938 369.09375 433.789062 366.417969 431.828125 L 372.417969 422.347656 C 374.097656 423.992188 375.933594 425.199219 377.9375 425.980469 C 379.933594 426.761719 382.234375 427.148438 384.835938 427.148438 C 387.753906 427.148438 389.214844 426.550781 389.214844 425.347656 C 389.214844 424.710938 388.753906 424.230469 387.835938 423.910156 C 386.914062 423.589844 385.414062 423.25 383.335938 422.890625 C 380.296875 422.332031 377.707031 421.6875 375.566406 420.96875 C 373.425781 420.25 371.546875 419.03125 369.925781 417.308594 C 368.304688 415.589844 367.496094 413.230469 367.496094 410.230469 C 367.496094 407.511719 368.214844 405.128906 369.65625 403.089844 C 371.097656 401.050781 373.207031 399.460938 375.984375 398.320312 C 378.765625 397.179688 382.113281 396.609375 386.035156 396.609375 C 389.957031 396.609375 393.296875 397.070312 396.054688 397.988281 "/>
<path style=" stroke:none;fill-rule:nonzero;fill:rgb(100%,100%,100%);fill-opacity:1;" d="M 92.207031 441.921875 L 92.207031 442.839844 L 94.75 442.839844 L 94.75 444.550781 L 92.207031 444.550781 L 92.207031 446.808594 L 89.878906 446.808594 L 89.878906 440.210938 L 95.347656 440.210938 L 95.347656 441.921875 Z M 92.207031 441.921875 "/>
<path style=" stroke:none;fill-rule:nonzero;fill:rgb(100%,100%,100%);fill-opacity:1;" d="M 101.617188 445.101562 L 101.617188 446.808594 L 96.019531 446.808594 L 96.019531 440.210938 L 101.5 440.210938 L 101.5 441.917969 L 98.347656 441.917969 L 98.347656 442.738281 L 100.886719 442.738281 L 100.886719 444.320312 L 98.347656 444.320312 L 98.347656 445.101562 Z M 101.617188 445.101562 "/>
<path style=" stroke:none;fill-rule:nonzero;fill:rgb(100%,100%,100%);fill-opacity:1;" d="M 107.597656 445.101562 L 107.597656 446.808594 L 102.277344 446.808594 L 102.277344 440.210938 L 104.609375 440.210938 L 104.609375 445.101562 Z M 107.597656 445.101562 "/>
<path style=" stroke:none;fill-rule:nonzero;fill:rgb(100%,100%,100%);fill-opacity:1;" d="M 112.085938 444.769531 C 112.242188 444.515625 112.316406 444.097656 112.316406 443.507812 C 112.316406 442.921875 112.242188 442.503906 112.085938 442.25 C 111.933594 441.996094 111.652344 441.871094 111.238281 441.871094 L 110.65625 441.871094 L 110.65625 445.148438 L 111.238281 445.148438 C 111.652344 445.148438 111.933594 445.023438 112.085938 444.769531 M 113.902344 441.066406 C 114.433594 441.632812 114.699219 442.449219 114.699219 443.507812 C 114.699219 444.570312 114.433594 445.382812 113.902344 445.953125 C 113.371094 446.523438 112.59375 446.808594 111.566406 446.808594 L 108.328125 446.808594 L 108.328125 440.210938 L 111.566406 440.210938 C 112.59375 440.210938 113.371094 440.496094 113.902344 441.066406 "/>
<path style=" stroke:none;fill-rule:nonzero;fill:rgb(100%,100%,100%);fill-opacity:1;" d="M 123.96875 446.808594 L 121.9375 446.808594 L 121.9375 444.519531 L 121.96875 442.300781 L 121.9375 442.300781 L 120.65625 446.808594 L 118.796875 446.808594 L 117.539062 442.300781 L 117.5 442.300781 L 117.527344 444.519531 L 117.527344 446.808594 L 115.488281 446.808594 L 115.488281 440.210938 L 118.75 440.210938 L 119.507812 443.140625 L 119.796875 444.371094 L 119.816406 444.371094 L 120.109375 443.140625 L 120.867188 440.210938 L 123.96875 440.210938 Z M 123.96875 446.808594 "/>
<path style=" stroke:none;fill-rule:nonzero;fill:rgb(100%,100%,100%);fill-opacity:1;" d="M 128.4375 444.101562 L 127.910156 441.898438 L 127.878906 441.898438 L 127.617188 443.019531 L 127.347656 444.101562 Z M 128.777344 445.550781 L 127 445.550781 L 126.6875 446.808594 L 124.367188 446.808594 L 126.507812 440.210938 L 129.308594 440.210938 L 131.457031 446.808594 L 129.078125 446.808594 Z M 128.777344 445.550781 "/>
<path style=" stroke:none;fill-rule:nonzero;fill:rgb(100%,100%,100%);fill-opacity:1;" d="M 138.316406 446.808594 L 135.796875 446.808594 L 134.21875 443.808594 L 133.859375 443 L 133.835938 443 L 133.878906 444.359375 L 133.878906 446.808594 L 131.859375 446.808594 L 131.859375 440.210938 L 134.378906 440.210938 L 135.957031 443.21875 L 136.316406 444.019531 L 136.335938 444.019531 L 136.296875 442.660156 L 136.296875 440.210938 L 138.316406 440.210938 Z M 138.316406 446.808594 "/>
<path style=" stroke:none;fill-rule:nonzero;fill:rgb(100%,100%,100%);fill-opacity:1;" d="M 151.597656 443.089844 L 152.425781 443.089844 C 152.722656 443.089844 152.929688 443.046875 153.050781 442.953125 C 153.175781 442.863281 153.238281 442.707031 153.238281 442.480469 C 153.238281 442.261719 153.175781 442.101562 153.050781 442.011719 C 152.929688 441.914062 152.722656 441.867188 152.425781 441.867188 L 151.597656 441.867188 Z M 152.238281 444.617188 L 151.597656 444.617188 L 151.597656 446.808594 L 149.316406 446.808594 L 149.316406 440.210938 L 152.898438 440.210938 C 153.777344 440.210938 154.441406 440.394531 154.894531 440.765625 C 155.34375 441.136719 155.566406 441.6875 155.566406 442.421875 C 155.566406 443.386719 155.171875 444.035156 154.378906 444.367188 L 155.9375 446.808594 L 153.40625 446.808594 Z M 152.238281 444.617188 "/>
<path style=" stroke:none;fill-rule:nonzero;fill:rgb(100%,100%,100%);fill-opacity:1;" d="M 161.96875 445.101562 L 161.96875 446.808594 L 156.367188 446.808594 L 156.367188 440.210938 L 161.847656 440.210938 L 161.847656 441.917969 L 158.699219 441.917969 L 158.699219 442.738281 L 161.238281 442.738281 L 161.238281 444.320312 L 158.699219 444.320312 L 158.699219 445.101562 Z M 161.96875 445.101562 "/>
<path style=" stroke:none;fill-rule:nonzero;fill:rgb(100%,100%,100%);fill-opacity:1;" d="M 165.777344 446.910156 C 165.085938 446.910156 164.484375 446.777344 163.984375 446.511719 C 163.480469 446.242188 163.09375 445.855469 162.824219 445.34375 C 162.550781 444.835938 162.417969 444.222656 162.417969 443.511719 C 162.417969 442.796875 162.550781 442.183594 162.824219 441.675781 C 163.09375 441.164062 163.480469 440.777344 163.984375 440.511719 C 164.484375 440.242188 165.085938 440.109375 165.777344 440.109375 C 166.550781 440.109375 167.210938 440.273438 167.757812 440.605469 C 168.304688 440.933594 168.644531 441.4375 168.777344 442.109375 L 166.777344 442.890625 C 166.726562 442.484375 166.628906 442.210938 166.488281 442.070312 C 166.347656 441.929688 166.132812 441.859375 165.835938 441.859375 C 165.492188 441.859375 165.230469 441.992188 165.058594 442.261719 C 164.882812 442.527344 164.796875 442.945312 164.796875 443.511719 C 164.796875 444.078125 164.882812 444.492188 165.046875 444.761719 C 165.214844 445.027344 165.46875 445.160156 165.816406 445.160156 C 166.132812 445.160156 166.359375 445.089844 166.496094 444.949219 C 166.636719 444.808594 166.726562 444.578125 166.769531 444.261719 L 168.828125 444.789062 C 168.488281 446.203125 167.46875 446.910156 165.777344 446.910156 "/>
<path style=" stroke:none;fill-rule:nonzero;fill:rgb(100%,100%,100%);fill-opacity:1;" d="M 175.867188 440.210938 L 175.867188 446.808594 L 173.539062 446.808594 L 173.539062 444.351562 L 171.726562 444.351562 L 171.726562 446.808594 L 169.398438 446.808594 L 169.398438 440.210938 L 171.726562 440.210938 L 171.726562 442.640625 L 173.539062 442.640625 L 173.539062 440.210938 Z M 175.867188 440.210938 "/>
<path style=" stroke:none;fill-rule:nonzero;fill:rgb(100%,100%,100%);fill-opacity:1;" d="M 183.328125 446.808594 L 180.808594 446.808594 L 179.226562 443.808594 L 178.867188 443 L 178.847656 443 L 178.886719 444.359375 L 178.886719 446.808594 L 176.867188 446.808594 L 176.867188 440.210938 L 179.386719 440.210938 L 180.96875 443.21875 L 181.328125 444.019531 L 181.347656 444.019531 L 181.308594 442.660156 L 181.308594 440.210938 L 183.328125 440.210938 Z M 183.328125 446.808594 "/>
<path style=" stroke:none;fill-rule:nonzero;fill:rgb(100%,100%,100%);fill-opacity:1;" d="M 186.65625 446.808594 L 184.328125 446.808594 L 184.328125 440.210938 L 186.65625 440.210938 Z M 186.65625 446.808594 "/>
<path style=" stroke:none;fill-rule:nonzero;fill:rgb(100%,100%,100%);fill-opacity:1;" d="M 193.816406 441.921875 L 191.757812 441.921875 L 191.757812 446.808594 L 189.425781 446.808594 L 189.425781 441.921875 L 187.355469 441.921875 L 187.355469 440.210938 L 193.816406 440.210938 Z M 193.816406 441.921875 "/>
<path style=" stroke:none;fill-rule:nonzero;fill:rgb(100%,100%,100%);fill-opacity:1;" d="M 200.238281 445.148438 L 200.238281 446.808594 L 194.265625 446.808594 L 194.265625 445.21875 L 197.617188 441.871094 L 194.308594 441.871094 L 194.308594 440.210938 L 200.128906 440.210938 L 200.128906 441.800781 L 196.796875 445.148438 Z M 200.238281 445.148438 "/>
<path style=" stroke:none;fill-rule:nonzero;fill:rgb(100%,100%,100%);fill-opacity:1;" d="M 206.488281 445.101562 L 206.488281 446.808594 L 200.886719 446.808594 L 200.886719 440.210938 L 206.367188 440.210938 L 206.367188 441.917969 L 203.21875 441.917969 L 203.21875 442.738281 L 205.757812 442.738281 L 205.757812 444.320312 L 203.21875 444.320312 L 203.21875 445.101562 Z M 206.488281 445.101562 "/>
<path style=" stroke:none;fill-rule:nonzero;fill:rgb(100%,100%,100%);fill-opacity:1;" d="M 209.425781 443.089844 L 210.257812 443.089844 C 210.550781 443.089844 210.757812 443.046875 210.882812 442.953125 C 211.003906 442.863281 211.066406 442.707031 211.066406 442.480469 C 211.066406 442.261719 211.003906 442.101562 210.882812 442.011719 C 210.757812 441.914062 210.550781 441.867188 210.257812 441.867188 L 209.425781 441.867188 Z M 210.066406 444.617188 L 209.425781 444.617188 L 209.425781 446.808594 L 207.148438 446.808594 L 207.148438 440.210938 L 210.726562 440.210938 C 211.605469 440.210938 212.273438 440.394531 212.722656 440.765625 C 213.171875 441.136719 213.398438 441.6875 213.398438 442.421875 C 213.398438 443.386719 213 444.035156 212.207031 444.367188 L 213.765625 446.808594 L 211.238281 446.808594 Z M 210.066406 444.617188 "/>
<path style=" stroke:none;fill-rule:nonzero;fill:rgb(100%,100%,100%);fill-opacity:1;" d="M 228.425781 444.519531 L 228.425781 446.808594 L 226.097656 446.808594 L 226.097656 444.519531 L 223.785156 440.210938 L 226.105469 440.210938 L 226.808594 441.71875 L 227.277344 442.917969 L 227.746094 441.71875 L 228.445312 440.210938 L 230.738281 440.210938 Z M 228.425781 444.519531 "/>
<path style=" stroke:none;fill-rule:nonzero;fill:rgb(100%,100%,100%);fill-opacity:1;" d="M 236.925781 445.101562 L 236.925781 446.808594 L 231.328125 446.808594 L 231.328125 440.210938 L 236.808594 440.210938 L 236.808594 441.917969 L 233.65625 441.917969 L 233.65625 442.738281 L 236.195312 442.738281 L 236.195312 444.320312 L 233.65625 444.320312 L 233.65625 445.101562 Z M 236.925781 445.101562 "/>
<path style=" stroke:none;fill-rule:nonzero;fill:rgb(100%,100%,100%);fill-opacity:1;" d="M 241.058594 444.101562 L 240.527344 441.898438 L 240.496094 441.898438 L 240.238281 443.019531 L 239.96875 444.101562 Z M 241.398438 445.550781 L 239.617188 445.550781 L 239.308594 446.808594 L 236.988281 446.808594 L 239.128906 440.210938 L 241.925781 440.210938 L 244.078125 446.808594 L 241.695312 446.808594 Z M 241.398438 445.550781 "/>
<path style=" stroke:none;fill-rule:nonzero;fill:rgb(100%,100%,100%);fill-opacity:1;" d="M 247.425781 443.089844 L 250.488281 443.089844 L 250.488281 446.808594 L 248.945312 446.808594 L 248.867188 446.058594 C 248.527344 446.625 247.929688 446.910156 247.078125 446.910156 C 246.496094 446.910156 245.976562 446.78125 245.511719 446.523438 C 245.046875 446.269531 244.683594 445.886719 244.410156 445.378906 C 244.140625 444.871094 244.007812 444.257812 244.007812 443.527344 C 244.007812 442.449219 244.308594 441.609375 244.910156 441.011719 C 245.515625 440.410156 246.355469 440.109375 247.425781 440.109375 C 248.246094 440.109375 248.898438 440.25 249.382812 440.527344 C 249.863281 440.808594 250.238281 441.273438 250.507812 441.921875 L 248.335938 442.699219 C 248.25 442.140625 247.972656 441.859375 247.507812 441.859375 C 247.121094 441.859375 246.835938 441.992188 246.65625 442.253906 C 246.476562 442.519531 246.386719 442.9375 246.386719 443.511719 C 246.386719 444.121094 246.484375 444.5625 246.675781 444.824219 C 246.871094 445.089844 247.171875 445.21875 247.585938 445.21875 C 247.878906 445.21875 248.113281 445.160156 248.28125 445.046875 C 248.453125 444.929688 248.535156 444.757812 248.535156 444.527344 L 248.535156 444.519531 L 247.425781 444.519531 Z M 247.425781 443.089844 "/>
<path style=" stroke:none;fill-rule:nonzero;fill:rgb(100%,100%,100%);fill-opacity:1;" d="M 257.035156 445.101562 L 257.035156 446.808594 L 251.4375 446.808594 L 251.4375 440.210938 L 256.917969 440.210938 L 256.917969 441.917969 L 253.765625 441.917969 L 253.765625 442.738281 L 256.308594 442.738281 L 256.308594 444.320312 L 253.765625 444.320312 L 253.765625 445.101562 Z M 257.035156 445.101562 "/>
<path style=" stroke:none;fill-rule:nonzero;fill:rgb(100%,100%,100%);fill-opacity:1;" d="M 259.976562 443.089844 L 260.804688 443.089844 C 261.101562 443.089844 261.308594 443.046875 261.429688 442.953125 C 261.554688 442.863281 261.617188 442.707031 261.617188 442.480469 C 261.617188 442.261719 261.554688 442.101562 261.429688 442.011719 C 261.308594 441.914062 261.101562 441.867188 260.804688 441.867188 L 259.976562 441.867188 Z M 260.617188 444.617188 L 259.976562 444.617188 L 259.976562 446.808594 L 257.695312 446.808594 L 257.695312 440.210938 L 261.277344 440.210938 C 262.15625 440.210938 262.820312 440.394531 263.273438 440.765625 C 263.722656 441.136719 263.945312 441.6875 263.945312 442.421875 C 263.945312 443.386719 263.550781 444.035156 262.757812 444.367188 L 264.316406 446.808594 L 261.785156 446.808594 Z M 260.617188 444.617188 "/>
</g>
</svg>
