<?xml version="1.0" encoding="UTF-8" standalone="no"?>
<!-- Created with Inkscape (http://www.inkscape.org/) -->

<svg
   xmlns:ns0="http://www.iki.fi/pav/software/textext/"
   xmlns:dc="http://purl.org/dc/elements/1.1/"
   xmlns:cc="http://creativecommons.org/ns#"
   xmlns:rdf="http://www.w3.org/1999/02/22-rdf-syntax-ns#"
   xmlns:svg="http://www.w3.org/2000/svg"
   xmlns="http://www.w3.org/2000/svg"
   xmlns:xlink="http://www.w3.org/1999/xlink"
   xmlns:sodipodi="http://sodipodi.sourceforge.net/DTD/sodipodi-0.dtd"
   xmlns:inkscape="http://www.inkscape.org/namespaces/inkscape"
   version="1.1"
   inkscape:output_extension="org.inkscape.output.svg.inkscape"
   width="744.09448819"
   height="1052.3622047"
   id="svg2"
   sodipodi:version="0.32"
   inkscape:version="0.91 r"
   sodipodi:docname="neg_inf_lim.svg">
  <sodipodi:namedview
     id="base"
     pagecolor="#ffffff"
     bordercolor="#666666"
     borderopacity="1.0"
     inkscape:pageopacity="0.0"
     inkscape:pageshadow="2"
     inkscape:zoom="2.8165468"
     inkscape:cx="228.63627"
     inkscape:cy="945"
     inkscape:document-units="px"
     inkscape:current-layer="svg2"
     showgrid="true"
     inkscape:window-width="1672"
     inkscape:window-height="996"
     inkscape:window-x="0"
     inkscape:window-y="0"
     inkscape:window-maximized="0">
    <inkscape:grid
       type="xygrid"
       id="grid3128"
       empspacing="6"
       visible="true"
       enabled="true"
       snapvisiblegridlinesonly="true"
       spacingx="6px"
       spacingy="6px" />
  </sodipodi:namedview>
  <defs
     id="defs4">
    <marker
       style="overflow:visible"
       id="DotS"
       refX="0.0"
       refY="0.0"
       orient="auto"
       inkscape:stockid="DotS">
      <path
         transform="scale(0.2) translate(7.4, 1)"
         style="fill-rule:evenodd;stroke:#000000;stroke-width:1.0pt"
         d="M -2.5,-1.0 C -2.5,1.7600000 -4.7400000,4.0 -7.5,4.0 C -10.260000,4.0 -12.5,1.7600000 -12.5,-1.0 C -12.5,-3.7600000 -10.260000,-6.0 -7.5,-6.0 C -4.7400000,-6.0 -2.5,-3.7600000 -2.5,-1.0 z "
         id="path6039" />
    </marker>
    <marker
       style="overflow:visible"
       id="Arrow1Sstart"
       refX="0.0"
       refY="0.0"
       orient="auto"
       inkscape:stockid="Arrow1Sstart">
      <path
         transform="scale(0.2) translate(6,0)"
         style="fill-rule:evenodd;stroke:#000000;stroke-width:1.0pt"
         d="M 0.0,0.0 L 5.0,-5.0 L -12.5,0.0 L 5.0,5.0 L 0.0,0.0 z "
         id="path5984" />
    </marker>
    <marker
       style="overflow:visible"
       id="Arrow1Mstart"
       refX="0.0"
       refY="0.0"
       orient="auto"
       inkscape:stockid="Arrow1Mstart">
      <path
         transform="scale(0.4) translate(10,0)"
         style="fill-rule:evenodd;stroke:#000000;stroke-width:1.0pt"
         d="M 0.0,0.0 L 5.0,-5.0 L -12.5,0.0 L 5.0,5.0 L 0.0,0.0 z "
         id="path5978" />
    </marker>
    <inkscape:perspective
       sodipodi:type="inkscape:persp3d"
       inkscape:vp_x="0 : 526.18109 : 1"
       inkscape:vp_y="0 : 1000 : 0"
       inkscape:vp_z="744.09448 : 526.18109 : 1"
       inkscape:persp3d-origin="372.04724 : 350.78739 : 1"
       id="perspective10" />
    <inkscape:perspective
       id="perspective3674"
       inkscape:persp3d-origin="0.5 : 0.33333333 : 1"
       inkscape:vp_z="1 : 0.5 : 1"
       inkscape:vp_y="0 : 1000 : 0"
       inkscape:vp_x="0 : 0.5 : 1"
       sodipodi:type="inkscape:persp3d" />
    <inkscape:perspective
       id="perspective3674-6"
       inkscape:persp3d-origin="0.5 : 0.33333333 : 1"
       inkscape:vp_z="1 : 0.5 : 1"
       inkscape:vp_y="0 : 1000 : 0"
       inkscape:vp_x="0 : 0.5 : 1"
       sodipodi:type="inkscape:persp3d" />
    <marker
       style="overflow:visible"
       id="Arrow1Sstarth"
       refX="0.0"
       refY="0.0"
       orient="auto"
       inkscape:stockid="Arrow1Sstarth">
      <path
         transform="scale(0.2) translate(6,0)"
         style="stroke:#ff0000;stroke-width:1.0pt;fill:#ff0000;fill-rule:evenodd"
         d="M 0.0,0.0 L 5.0,-5.0 L -12.5,0.0 L 5.0,5.0 L 0.0,0.0 z "
         id="path6940" />
    </marker>
    <marker
       style="overflow:visible"
       id="DotSY"
       refX="0.0"
       refY="0.0"
       orient="auto"
       inkscape:stockid="DotSY">
      <path
         transform="scale(0.2) translate(7.4, 1)"
         style="stroke:#ff0000;stroke-width:1.0pt;fill:#ff0000;fill-rule:evenodd"
         d="M -2.5,-1.0 C -2.5,1.7600000 -4.7400000,4.0 -7.5,4.0 C -10.260000,4.0 -12.5,1.7600000 -12.5,-1.0 C -12.5,-3.7600000 -10.260000,-6.0 -7.5,-6.0 C -4.7400000,-6.0 -2.5,-3.7600000 -2.5,-1.0 z "
         id="path6943" />
    </marker>
  </defs>
  <metadata
     id="metadata7">
    <rdf:RDF>
      <cc:Work
         rdf:about="">
        <dc:format>image/svg+xml</dc:format>
        <dc:type
           rdf:resource="http://purl.org/dc/dcmitype/StillImage" />
        <dc:title />
      </cc:Work>
    </rdf:RDF>
  </metadata>
  <g
     inkscape:label="Layer 1"
     inkscape:groupmode="layer"
     id="layer1" />
  <path
     inkscape:connector-curvature="0"
     style="color:#000000;fill:none;stroke:#ff0000;stroke-width:1;stroke-linecap:round;stroke-linejoin:round;stroke-miterlimit:4;stroke-opacity:1;stroke-dasharray:none;stroke-dashoffset:0;marker:none;visibility:visible;display:inline;overflow:visible;enable-background:accumulate"
     d="m 246,38.362183 0,137.999997"
     id="path2759"
     sodipodi:nodetypes="cc" />
  <path
     inkscape:connector-curvature="0"
     style="color:#000000;fill:none;stroke:#ff0000;stroke-width:1;stroke-linecap:round;stroke-linejoin:round;stroke-miterlimit:4;stroke-opacity:1;stroke-dasharray:none;stroke-dashoffset:0;marker:none;visibility:visible;display:inline;overflow:visible;enable-background:accumulate"
     d="m 174,116.36218 156,0"
     id="path2761"
     sodipodi:nodetypes="cc" />
  <g
     id="g3180"
     ns0:preamble="/home/andrew/.config/inkscape/extensions/header.txt"
     ns0:text="$y$"
     transform="matrix(1.5,0,0,1.5,-101.38371,-153.25867)">
    <defs
       id="defs3182">
      <g
         id="g3184">
        <symbol
           id="textext-45f04eea-0"
           overflow="visible"
           style="overflow:visible">
          <path
             id="path3187"
             d=""
             style="stroke:none"
             inkscape:connector-curvature="0" />
        </symbol>
        <symbol
           id="textext-45f04eea-1"
           overflow="visible"
           style="overflow:visible">
          <path
             id="path3190"
             d="m 4.84375,-3.796875 c 0.046875,-0.140625 0.046875,-0.15625 0.046875,-0.234375 0,-0.171875 -0.140625,-0.265625 -0.296875,-0.265625 -0.09375,0 -0.25,0.0625 -0.34375,0.203125 -0.015625,0.0625 -0.109375,0.359375 -0.140625,0.546875 -0.078125,0.25 -0.140625,0.53125 -0.203125,0.796875 l -0.453125,1.796875 c -0.03125,0.140625 -0.46875,0.84375 -1.125,0.84375 -0.5,0 -0.609375,-0.4375 -0.609375,-0.8125 C 1.71875,-1.375 1.890625,-2 2.21875,-2.875 2.375,-3.28125 2.421875,-3.390625 2.421875,-3.59375 c 0,-0.4375 -0.3125,-0.8125 -0.8125,-0.8125 -0.953125,0 -1.3125,1.453125 -1.3125,1.53125 0,0.109375 0.09375,0.109375 0.109375,0.109375 0.109375,0 0.109375,-0.03125 0.15625,-0.1875 0.28125,-0.9375 0.671875,-1.234375 1.015625,-1.234375 0.078125,0 0.25,0 0.25,0.3125 0,0.25 -0.109375,0.515625 -0.171875,0.703125 -0.40625,1.0625 -0.578125,1.625 -0.578125,2.09375 0,0.890625 0.625,1.1875 1.21875,1.1875 0.390625,0 0.71875,-0.171875 1,-0.453125 -0.125,0.515625 -0.25,1.015625 -0.640625,1.546875 -0.265625,0.328125 -0.640625,0.625 -1.09375,0.625 -0.140625,0 -0.59375,-0.03125 -0.765625,-0.421875 0.15625,0 0.296875,0 0.421875,-0.125 C 1.328125,1.203125 1.421875,1.0625 1.421875,0.875 1.421875,0.5625 1.15625,0.53125 1.0625,0.53125 0.828125,0.53125 0.5,0.6875 0.5,1.171875 c 0,0.5 0.4375,0.875 1.0625,0.875 1.015625,0 2.046875,-0.90625 2.328125,-2.03125 z"
             style="stroke:none"
             inkscape:connector-curvature="0" />
        </symbol>
      </g>
    </defs>
    <g
       id="textext-45f04eea-2">
      <g
         id="g3193"
         style="fill:#000000;fill-opacity:1">
        <use
           id="use3195"
           y="134.765"
           x="223.43201"
           xlink:href="#textext-45f04eea-1"
           width="744.09448"
           height="1052.3622" />
      </g>
    </g>
  </g>
  <g
     ns0:text="$x$"
     ns0:preamble="/home/andrew/.config/inkscape/extensions/header.txt"
     transform="matrix(1.5,0,0,1.5,-17.287168,-74.417848)"
     id="g3368">
    <defs
       id="defs3370">
      <g
         id="g3372">
        <symbol
           style="overflow:visible"
           overflow="visible"
           id="textext-97bbc888-0">
          <path
             inkscape:connector-curvature="0"
             style="stroke:none"
             d=""
             id="path3375" />
        </symbol>
        <symbol
           style="overflow:visible"
           overflow="visible"
           id="textext-97bbc888-1">
          <path
             inkscape:connector-curvature="0"
             style="stroke:none"
             d="M 3.328125,-3.015625 C 3.390625,-3.265625 3.625,-4.1875 4.3125,-4.1875 c 0.046875,0 0.296875,0 0.5,0.125 C 4.53125,-4 4.34375,-3.765625 4.34375,-3.515625 c 0,0.15625 0.109375,0.34375 0.375,0.34375 0.21875,0 0.53125,-0.171875 0.53125,-0.578125 0,-0.515625 -0.578125,-0.65625 -0.921875,-0.65625 -0.578125,0 -0.921875,0.53125 -1.046875,0.75 -0.25,-0.65625 -0.78125,-0.75 -1.078125,-0.75 -1.03125,0 -1.609375,1.28125 -1.609375,1.53125 0,0.109375 0.109375,0.109375 0.125,0.109375 0.078125,0 0.109375,-0.03125 0.125,-0.109375 0.34375,-1.0625 1,-1.3125 1.34375,-1.3125 0.1875,0 0.53125,0.09375 0.53125,0.671875 0,0.3125 -0.171875,0.96875 -0.53125,2.375 -0.15625,0.609375 -0.515625,1.03125 -0.953125,1.03125 -0.0625,0 -0.28125,0 -0.5,-0.125 0.25,-0.0625 0.46875,-0.265625 0.46875,-0.546875 0,-0.265625 -0.21875,-0.34375 -0.359375,-0.34375 -0.3125,0 -0.546875,0.25 -0.546875,0.578125 0,0.453125 0.484375,0.65625 0.921875,0.65625 0.671875,0 1.03125,-0.703125 1.046875,-0.75 0.125,0.359375 0.484375,0.75 1.078125,0.75 1.03125,0 1.59375,-1.28125 1.59375,-1.53125 0,-0.109375 -0.078125,-0.109375 -0.109375,-0.109375 -0.09375,0 -0.109375,0.046875 -0.140625,0.109375 -0.328125,1.078125 -1,1.3125 -1.3125,1.3125 -0.390625,0 -0.546875,-0.3125 -0.546875,-0.65625 0,-0.21875 0.046875,-0.4375 0.15625,-0.875 z"
             id="path3378" />
        </symbol>
      </g>
    </defs>
    <g
       id="textext-97bbc888-2">
      <g
         style="fill:#000000;fill-opacity:1"
         id="g3381">
        <use
           height="1052.3622"
           width="744.09448"
           xlink:href="#textext-97bbc888-1"
           x="223.43201"
           y="134.765"
           id="use3383" />
      </g>
    </g>
  </g>
  <path
     id="path3747"
     title="sqrt(4*x*x+1)/(5*x-1)"
     d="m 180,131.125 c 0.048,-3.3e-4 0.0961,-6.5e-4 0.14414,-9.7e-4 0.0481,-3.3e-4 0.0961,-6.5e-4 0.14415,-9.8e-4 0.0481,-3.3e-4 0.0961,-6.5e-4 0.14414,-9.8e-4 0.048,-3.2e-4 0.0961,-6.5e-4 0.14415,-9.8e-4 0.048,-3.2e-4 0.0961,-6.5e-4 0.14414,-9.8e-4 0.048,-3.3e-4 0.0961,-6.5e-4 0.14414,-9.8e-4 0.0481,-3.3e-4 0.0961,-6.6e-4 0.14415,-9.9e-4 0.0481,-3.3e-4 0.0961,-6.6e-4 0.14414,-9.9e-4 0.048,-3.3e-4 0.0961,-6.6e-4 0.14415,-9.9e-4 0.048,-3.3e-4 0.0961,-6.6e-4 0.14414,-9.9e-4 0.048,-3.3e-4 0.0961,-6.6e-4 0.14415,-0.001 0.048,-3.3e-4 0.0961,-6.6e-4 0.14414,-9.9e-4 0.0481,-3.4e-4 0.0961,-6.7e-4 0.14414,-0.001 0.048,-3.4e-4 0.0961,-6.7e-4 0.14415,-0.001 0.048,-3.3e-4 0.0961,-6.7e-4 0.14414,-10e-4 0.048,-3.4e-4 0.0961,-6.7e-4 0.14415,-0.001 0.048,-3.3e-4 0.0961,-6.7e-4 0.14414,-0.001 0.0481,-3.3e-4 0.0961,-6.7e-4 0.14414,-0.001 0.048,-3.3e-4 0.0961,-6.7e-4 0.14415,-0.001 0.048,-3.4e-4 0.0961,-6.8e-4 0.14414,-0.001 0.048,-3.4e-4 0.0961,-6.7e-4 0.14415,-10e-4 0.0481,-3.4e-4 0.0961,-6.8e-4 0.14414,-0.001 0.0481,-3.5e-4 0.0961,-6.9e-4 0.14415,-0.001 0.048,-3.4e-4 0.0961,-6.8e-4 0.14414,-0.001 0.048,-3.4e-4 0.0961,-6.9e-4 0.14414,-0.001 0.048,-3.4e-4 0.0961,-6.9e-4 0.14415,-0.001 0.0481,-3.4e-4 0.0961,-6.9e-4 0.14414,-10e-4 0.0481,-3.4e-4 0.0961,-6.9e-4 0.14415,-0.001 0.048,-3.5e-4 0.0961,-6.9e-4 0.14414,-0.001 0.048,-3.5e-4 0.0961,-6.9e-4 0.14414,-0.001 0.048,-3.5e-4 0.0961,-6.9e-4 0.14415,-0.001 0.0481,-3.5e-4 0.0961,-7e-4 0.14414,-0.001 0.0481,-3.5e-4 0.0961,-7e-4 0.14415,-10e-4 0.048,-3.5e-4 0.0961,-7e-4 0.14414,-0.001 0.048,-3.5e-4 0.0961,-7e-4 0.14415,-0.001 0.048,-3.5e-4 0.0961,-7e-4 0.14414,-0.001 0.0481,-3.5e-4 0.0961,-7e-4 0.14414,-0.001 0.0481,-3.6e-4 0.0961,-7.1e-4 0.14415,-0.001 0.048,-3.5e-4 0.0961,-7.1e-4 0.14414,-10e-4 0.048,-3.5e-4 0.0961,-7.1e-4 0.14415,-0.001 0.048,-3.6e-4 0.0961,-7.1e-4 0.14414,-0.001 0.0481,-3.5e-4 0.0961,-7.1e-4 0.14414,-0.001 0.0481,-3.6e-4 0.0961,-7.1e-4 0.14415,-0.001 0.048,-3.6e-4 0.0961,-7.1e-4 0.14414,-0.001 0.048,-3.6e-4 0.0961,-7.2e-4 0.14415,-10e-4 0.048,-3.5e-4 0.0961,-7.1e-4 0.14414,-0.001 0.0481,-3.6e-4 0.0961,-7.2e-4 0.14414,-0.001 0.0481,-3.6e-4 0.0961,-7.2e-4 0.14415,-0.001 0.048,-3.6e-4 0.0961,-7.2e-4 0.14414,-0.001 0.048,-3.6e-4 0.0961,-7.3e-4 0.14415,-0.001 0.048,-3.6e-4 0.0961,-7.2e-4 0.14414,-10e-4 0.0481,-3.7e-4 0.0961,-7.3e-4 0.14415,-0.001 0.048,-3.7e-4 0.0961,-7.3e-4 0.14414,-0.001 0.048,-3.6e-4 0.0961,-7.3e-4 0.14414,-0.001 0.048,-3.7e-4 0.0961,-7.3e-4 0.14415,-0.001 0.048,-3.6e-4 0.0961,-7.3e-4 0.14414,-0.001 0.048,-3.6e-4 0.0961,-7.3e-4 0.14415,-10e-4 0.048,-3.7e-4 0.0961,-7.3e-4 0.14414,-0.001 0.0481,-3.7e-4 0.0961,-7.4e-4 0.14414,-0.001 0.048,-3.7e-4 0.0961,-7.4e-4 0.14415,-0.001 0.048,-3.7e-4 0.0961,-7.4e-4 0.14414,-0.001 0.048,-3.7e-4 0.0961,-7.4e-4 0.14415,-0.001 0.048,-3.7e-4 0.0961,-7.4e-4 0.14414,-10e-4 0.0481,-3.7e-4 0.0961,-7.4e-4 0.14415,-0.001 0.048,-3.8e-4 0.0961,-7.5e-4 0.14414,-0.001 0.048,-3.8e-4 0.0961,-7.5e-4 0.14414,-0.001 0.048,-3.7e-4 0.0961,-7.5e-4 0.14415,-0.001 0.0481,-3.8e-4 0.0961,-7.5e-4 0.14414,-0.001 0.0481,-3.7e-4 0.0961,-7.5e-4 0.14415,-10e-4 0.048,-3.7e-4 0.0961,-7.5e-4 0.14414,-0.001 0.048,-3.8e-4 0.0961,-7.5e-4 0.14414,-0.001 0.048,-3.8e-4 0.0961,-7.6e-4 0.14415,-0.001 0.0481,-3.8e-4 0.0961,-7.6e-4 0.14414,-0.001 0.0481,-3.8e-4 0.0961,-7.6e-4 0.14415,-0.001 0.048,-3.8e-4 0.0961,-7.6e-4 0.14414,-10e-4 0.048,-3.8e-4 0.0961,-7.7e-4 0.14414,-0.001 0.048,-3.8e-4 0.0961,-7.6e-4 0.14415,-0.001 0.0481,-3.8e-4 0.0961,-7.6e-4 0.14414,-0.001 0.0481,-3.8e-4 0.0961,-7.6e-4 0.14415,-0.001 0.048,-3.8e-4 0.0961,-7.7e-4 0.14414,-0.001 0.048,-3.9e-4 0.0961,-7.7e-4 0.14415,-10e-4 0.048,-3.9e-4 0.0961,-7.7e-4 0.14414,-0.001 0.0481,-3.9e-4 0.0961,-7.7e-4 0.14414,-0.001 0.0481,-3.9e-4 0.0961,-7.8e-4 0.14415,-0.001 0.048,-3.9e-4 0.0961,-7.8e-4 0.14414,-0.001 0.048,-3.9e-4 0.0961,-7.8e-4 0.14415,-0.001 0.048,-3.9e-4 0.0961,-7.8e-4 0.14414,-10e-4 0.0481,-3.9e-4 0.0961,-7.8e-4 0.14414,-0.001 0.0481,-3.9e-4 0.0961,-7.9e-4 0.14415,-0.001 0.048,-3.9e-4 0.0961,-7.8e-4 0.14414,-0.001 0.048,-3.9e-4 0.0961,-7.8e-4 0.14415,-0.001 0.048,-3.9e-4 0.0961,-7.8e-4 0.14414,-0.001 0.0481,-3.9e-4 0.0961,-7.9e-4 0.14415,-10e-4 0.048,-4e-4 0.0961,-7.9e-4 0.14414,-0.001 0.048,-3.9e-4 0.0961,-7.9e-4 0.14414,-0.001 0.048,-3.9e-4 0.0961,-7.9e-4 0.14415,-0.001 0.048,-3.9e-4 0.0961,-7.9e-4 0.14414,-0.001 0.0481,-4e-4 0.0961,-8e-4 0.14415,-0.001 0.048,-4e-4 0.0961,-8e-4 0.14414,-10e-4 0.048,-4e-4 0.0961,-8e-4 0.14414,-0.001 0.048,-4e-4 0.0961,-8e-4 0.14415,-0.001 0.048,-4e-4 0.0961,-8.1e-4 0.14414,-0.001 0.0481,-4e-4 0.0961,-8e-4 0.14415,-0.001 0.048,-4.1e-4 0.0961,-8.1e-4 0.14414,-0.001 0.048,-4e-4 0.0961,-8.1e-4 0.14415,-10e-4 0.048,-4e-4 0.0961,-8.1e-4 0.14414,-0.001 0.048,-4.1e-4 0.0961,-8.1e-4 0.14414,-0.001 0.0481,-4e-4 0.0961,-8.1e-4 0.14415,-0.001 0.0481,-4.1e-4 0.0961,-8.2e-4 0.14414,-0.001 0.048,-4.1e-4 0.0961,-8.2e-4 0.14415,-0.001 0.048,-4.1e-4 0.0961,-8.2e-4 0.14414,-10e-4 0.048,-4e-4 0.0961,-8.1e-4 0.14414,-0.001 0.0481,-4.1e-4 0.0961,-8.2e-4 0.14415,-0.001 0.0481,-4.1e-4 0.0961,-8.2e-4 0.14414,-0.001 0.048,-4.1e-4 0.0961,-8.2e-4 0.14415,-0.001 0.048,-4.1e-4 0.0961,-8.2e-4 0.14414,-0.001 0.048,-4.1e-4 0.0961,-8.2e-4 0.14414,-10e-4 0.0481,-4.1e-4 0.0961,-8.3e-4 0.14415,-0.001 0.0481,-4.1e-4 0.0961,-8.2e-4 0.14414,-0.001 0.048,-4.1e-4 0.0961,-8.2e-4 0.14415,-0.001 0.048,-4.1e-4 0.0961,-8.3e-4 0.14414,-0.001 0.048,-4.1e-4 0.0961,-8.3e-4 0.14415,-0.001 0.048,-4.2e-4 0.0961,-8.3e-4 0.14414,-10e-4 0.0481,-4.2e-4 0.0961,-8.3e-4 0.14414,-0.001 0.048,-4.1e-4 0.0961,-8.3e-4 0.14415,-0.001 0.048,-4.1e-4 0.0961,-8.3e-4 0.14414,-0.001 0.048,-4.2e-4 0.0961,-8.3e-4 0.14415,-0.001 0.048,-4.2e-4 0.0961,-8.4e-4 0.14414,-0.001 0.0481,-4.2e-4 0.0961,-8.3e-4 0.14414,-10e-4 0.048,-4.2e-4 0.0961,-8.4e-4 0.14415,-0.001 0.048,-4.2e-4 0.0961,-8.4e-4 0.14414,-0.001 0.048,-4.2e-4 0.0961,-8.4e-4 0.14415,-0.001 0.0481,-4.2e-4 0.0961,-8.5e-4 0.14414,-0.001 0.0481,-4.2e-4 0.0961,-8.4e-4 0.14415,-10e-4 0.048,-4.2e-4 0.0961,-8.5e-4 0.14414,-0.001 0.048,-4.2e-4 0.0961,-8.4e-4 0.14414,-0.001 0.048,-4.2e-4 0.0961,-8.4e-4 0.14415,-0.001 0.0481,-4.2e-4 0.0961,-8.4e-4 0.14414,-0.001 0.0481,-4.2e-4 0.0961,-8.5e-4 0.14415,-0.001 0.048,-4.2e-4 0.0961,-8.5e-4 0.14414,-10e-4 0.048,-4.3e-4 0.0961,-8.5e-4 0.14414,-0.001 0.048,-4.3e-4 0.0961,-8.5e-4 0.14415,-0.001 0.0481,-4.2e-4 0.0961,-8.5e-4 0.14414,-0.001 0.0481,-4.2e-4 0.0961,-8.5e-4 0.14415,-0.001 0.048,-4.2e-4 0.0961,-8.5e-4 0.14414,-0.001 0.048,-4.2e-4 0.0961,-8.5e-4 0.14415,-10e-4 0.048,-4.3e-4 0.0961,-8.5e-4 0.14414,-0.001 0.0481,-4.3e-4 0.0961,-8.6e-4 0.14414,-0.001 0.0481,-4.3e-4 0.0961,-8.5e-4 0.14415,-0.001 0.048,-4.3e-4 0.0961,-8.6e-4 0.14414,-0.001 0.048,-4.3e-4 0.0961,-8.6e-4 0.14415,-0.001 0.048,-4.3e-4 0.0961,-8.6e-4 0.14414,-10e-4 0.0481,-4.3e-4 0.0961,-8.6e-4 0.14414,-0.001 0.0481,-4.3e-4 0.0961,-8.6e-4 0.14415,-0.001 0.048,-4.3e-4 0.0961,-8.6e-4 0.14414,-0.001 0.048,-4.3e-4 0.0961,-8.6e-4 0.14415,-0.001 0.048,-4.4e-4 0.0961,-8.7e-4 0.14414,-0.001 0.0481,-4.3e-4 0.0961,-8.6e-4 0.14414,-10e-4 0.0481,-4.4e-4 0.0961,-8.7e-4 0.14415,-0.001 0.048,-4.3e-4 0.0961,-8.6e-4 0.14414,-0.001 0.048,-4.3e-4 0.0961,-8.6e-4 0.14415,-0.001 0.048,-4.4e-4 0.0961,-8.7e-4 0.14414,-0.001 0.0481,-4.3e-4 0.0961,-8.7e-4 0.14415,-0.001 0.048,-4.3e-4 0.0961,-8.6e-4 0.14414,-10e-4 0.048,-4.3e-4 0.0961,-8.6e-4 0.14414,-0.001 0.048,-4.3e-4 0.0961,-8.6e-4 0.14415,-0.001 0.048,-4.3e-4 0.0961,-8.6e-4 0.14414,-0.001 0.048,-4.3e-4 0.0961,-8.6e-4 0.14415,-0.001 0.048,-4.3e-4 0.0961,-8.6e-4 0.14414,-0.001 0.0481,-4.3e-4 0.0961,-8.7e-4 0.14414,-10e-4 0.048,-4.3e-4 0.0961,-8.7e-4 0.14415,-0.001 0.048,-4.3e-4 0.0961,-8.7e-4 0.14414,-0.001 0.048,-4.4e-4 0.0961,-8.7e-4 0.14415,-0.001 0.048,-4.4e-4 0.0961,-8.7e-4 0.14414,-0.001 0.0481,-4.4e-4 0.0961,-8.7e-4 0.14415,-0.001 0.048,-4.3e-4 0.0961,-8.6e-4 0.14414,-10e-4 0.048,-4.3e-4 0.0961,-8.6e-4 0.14414,-0.001 0.048,-4.3e-4 0.0961,-8.6e-4 0.14415,-0.001 0.0481,-4.3e-4 0.0961,-8.6e-4 0.14414,-0.001 0.0481,-4.3e-4 0.0961,-8.6e-4 0.14415,-0.001 0.048,-4.3e-4 0.0961,-8.6e-4 0.14414,-0.001 0.048,-4.3e-4 0.0961,-8.6e-4 0.14414,-10e-4 0.048,-4.3e-4 0.0961,-8.6e-4 0.14415,-0.001 0.0481,-4.4e-4 0.0961,-8.7e-4 0.14414,-0.001 0.0481,-4.3e-4 0.0961,-8.7e-4 0.14415,-0.001 0.048,-4.3e-4 0.0961,-8.6e-4 0.14414,-0.001 0.048,-4.4e-4 0.0961,-8.7e-4 0.14414,-0.001 0.048,-4.3e-4 0.0961,-8.6e-4 0.14415,-10e-4 0.0481,-4.3e-4 0.0961,-8.6e-4 0.14414,-0.001 0.0481,-4.4e-4 0.0961,-8.7e-4 0.14415,-0.001 0.048,-4.3e-4 0.0961,-8.6e-4 0.14414,-0.001 0.048,-4.3e-4 0.0961,-8.6e-4 0.14415,-0.001 0.048,-4.3e-4 0.0961,-8.6e-4 0.14414,-0.001 0.0481,-4.3e-4 0.0961,-8.6e-4 0.14414,-10e-4 0.0481,-4.3e-4 0.0961,-8.5e-4 0.14415,-0.001 0.048,-4.3e-4 0.0961,-8.6e-4 0.14414,-0.001 0.048,-4.3e-4 0.0961,-8.6e-4 0.14415,-0.001 0.048,-4.3e-4 0.0961,-8.6e-4 0.14414,-0.001 0.0481,-4.3e-4 0.0961,-8.5e-4 0.14414,-0.001 0.0481,-4.2e-4 0.0961,-8.5e-4 0.14415,-10e-4 0.048,-4.3e-4 0.0961,-8.5e-4 0.14414,-0.001 0.048,-4.3e-4 0.0961,-8.5e-4 0.14415,-0.001 0.048,-4.2e-4 0.0961,-8.5e-4 0.14414,-0.001 0.0481,-4.2e-4 0.0961,-8.4e-4 0.14415,-0.001 0.048,-4.2e-4 0.0961,-8.4e-4 0.14414,-0.001 0.048,-4.2e-4 0.0961,-8.4e-4 0.14414,-10e-4 0.048,-4.2e-4 0.0961,-8.4e-4 0.14415,-0.001 0.048,-4.1e-4 0.0961,-8.3e-4 0.14414,-0.001 0.0481,-4.1e-4 0.0961,-8.3e-4 0.14415,-0.001 0.048,-4.1e-4 0.0961,-8.3e-4 0.14414,-0.001 0.048,-4.2e-4 0.0961,-8.3e-4 0.14414,-0.001 0.048,-4.2e-4 0.0961,-8.3e-4 0.14415,-10e-4 0.048,-4.1e-4 0.0961,-8.2e-4 0.14414,-0.001 0.0481,-4.1e-4 0.0961,-8.2e-4 0.14415,-0.001 0.048,-4.1e-4 0.0961,-8.2e-4 0.14414,-0.001 0.048,-4.1e-4 0.0961,-8.1e-4 0.14415,-0.001 0.048,-4.1e-4 0.0961,-8.1e-4 0.14414,-0.001 0.048,-4e-4 0.0961,-8.1e-4 0.14414,-10e-4 0.0481,-4e-4 0.0961,-8e-4 0.14415,-0.001 0.0481,-4e-4 0.0961,-8e-4 0.14414,-0.001 0.048,-4e-4 0.0961,-8e-4 0.14415,-0.001 0.048,-4e-4 0.0961,-8e-4 0.14414,-0.001 0.048,-3.9e-4 0.0961,-7.9e-4 0.14414,-0.001 0.0481,-4e-4 0.0961,-7.9e-4 0.14415,-10e-4 0.0481,-3.9e-4 0.0961,-7.9e-4 0.14414,-0.001 0.048,-3.9e-4 0.0961,-7.8e-4 0.14415,-0.001 0.048,-3.9e-4 0.0961,-7.8e-4 0.14414,-0.001 0.048,-3.8e-4 0.0961,-7.7e-4 0.14414,-0.001 0.0481,-3.9e-4 0.0961,-7.7e-4 0.14415,-0.001 0.0481,-3.8e-4 0.0961,-7.6e-4 0.14414,-10e-4 0.048,-3.8e-4 0.0961,-7.6e-4 0.14415,-0.001 0.048,-3.7e-4 0.0961,-7.5e-4 0.14414,-0.001 0.048,-3.8e-4 0.0961,-7.5e-4 0.14415,-0.001 0.048,-3.7e-4 0.0961,-7.4e-4 0.14414,-0.001 0.0481,-3.7e-4 0.0961,-7.4e-4 0.14414,-0.001 0.048,-3.6e-4 0.0961,-7.3e-4 0.14415,-10e-4 0.048,-3.7e-4 0.0961,-7.3e-4 0.14414,-0.001 0.048,-3.6e-4 0.0961,-7.2e-4 0.14415,-0.001 0.048,-3.5e-4 0.0961,-7.1e-4 0.14414,-0.001 0.0481,-3.6e-4 0.0961,-7.1e-4 0.14414,-0.001 0.048,-3.6e-4 0.0961,-7e-4 0.14415,-0.001 0.048,-3.5e-4 0.0961,-7e-4 0.14414,-10e-4 0.048,-3.5e-4 0.0961,-6.9e-4 0.14415,-0.001 0.0481,-3.4e-4 0.0961,-6.8e-4 0.14414,-0.001 0.0481,-3.4e-4 0.0961,-6.8e-4 0.14415,-0.001 0.048,-3.3e-4 0.0961,-6.7e-4 0.14414,-0.001 0.048,-3.3e-4 0.0961,-6.6e-4 0.14414,-9.8e-4 0.048,-3.3e-4 0.0961,-6.5e-4 0.14415,-9.8e-4 0.0481,-3.2e-4 0.0961,-6.4e-4 0.14414,-9.6e-4 0.0481,-3.2e-4 0.0961,-6.3e-4 0.14415,-9.5e-4 0.048,-3.1e-4 0.0961,-6.2e-4 0.14414,-9.3e-4 0.048,-3.1e-4 0.0961,-6.2e-4 0.14414,-9.3e-4 0.048,-3e-4 0.0961,-6.1e-4 0.14415,-9.1e-4 0.0481,-3e-4 0.0961,-6e-4 0.14414,-8.9e-4 0.0481,-3e-4 0.0961,-5.9e-4 0.14415,-8.9e-4 0.048,-2.9e-4 0.0961,-5.8e-4 0.14414,-8.6e-4 0.048,-2.9e-4 0.0961,-5.8e-4 0.14415,-8.6e-4 0.048,-2.8e-4 0.0961,-5.6e-4 0.14414,-8.3e-4 0.0481,-2.8e-4 0.0961,-5.6e-4 0.14414,-8.3e-4 0.0481,-2.7e-4 0.0961,-5.4e-4 0.14415,-8e-4 0.048,-2.7e-4 0.0961,-5.3e-4 0.14414,-7.9e-4 0.048,-2.6e-4 0.0961,-5.2e-4 0.14415,-7.7e-4 0.048,-2.6e-4 0.0961,-5.1e-4 0.14414,-7.6e-4 0.0481,-2.5e-4 0.0961,-4.9e-4 0.14414,-7.3e-4 0.0481,-2.5e-4 0.0961,-4.9e-4 0.14415,-7.2e-4 0.048,-2.4e-4 0.0961,-4.7e-4 0.14414,-7e-4 0.048,-2.3e-4 0.0961,-4.6e-4 0.14415,-6.8e-4 0.048,-2.2e-4 0.0961,-4.4e-4 0.14414,-6.6e-4 0.0481,-2.2e-4 0.0961,-4.3e-4 0.14414,-6.4e-4 0.0481,-2.1e-4 0.0961,-4.2e-4 0.14415,-6.2e-4 0.048,-2e-4 0.0961,-4e-4 0.14414,-6e-4 0.048,-1.9e-4 0.0961,-3.8e-4 0.14415,-5.7e-4 0.048,-1.9e-4 0.0961,-3.7e-4 0.14414,-5.5e-4 0.0481,-1.8e-4 0.0961,-3.6e-4 0.14415,-5.3e-4 0.048,-1.7e-4 0.0961,-3.4e-4 0.14414,-5.1e-4 0.048,-1.6e-4 0.0961,-3.2e-4 0.14414,-4.8e-4 0.048,-1.6e-4 0.0961,-3.1e-4 0.14415,-4.6e-4 0.048,-1.4e-4 0.0961,-2.9e-4 0.14414,-4.3e-4 0.048,-1.3e-4 0.0961,-2.7e-4 0.14415,-4e-4 0.048,-1.3e-4 0.0961,-2.6e-4 0.14414,-3.8e-4 0.0481,-1.2e-4 0.0961,-2.4e-4 0.14414,-3.5e-4 0.048,-1.1e-4 0.0961,-2.2e-4 0.14415,-3.2e-4 0.048,-1e-4 0.0961,-2e-4 0.14414,-2.9e-4 0.048,-9e-5 0.0961,-1.8e-4 0.14415,-2.6e-4 0.048,-9e-5 0.0961,-1.6e-4 0.14414,-2.3e-4 0.0481,-8e-5 0.0961,-1.4e-4 0.14415,-2.1e-4 0.048,-6e-5 0.0961,-1.1e-4 0.14414,-1.6e-4 0.048,-5e-5 0.0961,-1e-4 0.14414,-1.4e-4 0.048,-4e-5 0.0961,-7e-5 0.14415,-1e-4 0.0481,-3e-5 0.0961,-5e-5 0.14414,-7e-5 0.0481,-1e-5 0.0961,-3e-5 0.14415,-3e-5 0.048,0 0.0961,0 0.14414,0 0.048,1e-5 0.0961,3e-5 0.14414,5e-5 0.048,2e-5 0.0961,4e-5 0.14415,8e-5 0.0481,3e-5 0.0961,7e-5 0.14414,1.2e-4 0.0481,4e-5 0.0961,1e-4 0.14415,1.6e-4 0.048,6e-5 0.0961,1.2e-4 0.14414,2e-4 0.048,7e-5 0.0961,1.5e-4 0.14414,2.4e-4 0.048,9e-5 0.0961,1.8e-4 0.14415,2.8e-4 0.0481,1.1e-4 0.0961,2.2e-4 0.14414,3.4e-4 0.0481,1.1e-4 0.0961,2.4e-4 0.14415,3.7e-4 0.048,1.3e-4 0.0961,2.8e-4 0.14414,4.2e-4 0.048,1.5e-4 0.0961,3.1e-4 0.14415,4.7e-4 0.048,1.7e-4 0.0961,3.4e-4 0.14414,5.2e-4 0.0481,1.9e-4 0.0961,3.7e-4 0.14414,5.7e-4 0.0481,2e-4 0.0961,4.1e-4 0.14415,6.2e-4 0.048,2.2e-4 0.0961,4.4e-4 0.14414,6.8e-4 0.048,2.3e-4 0.0961,4.7e-4 0.14415,7.3e-4 0.048,2.5e-4 0.0961,5.1e-4 0.14414,7.8e-4 0.0481,2.7e-4 0.0961,5.5e-4 0.14414,8.4e-4 0.0481,2.9e-4 0.0961,5.9e-4 0.14415,9e-4 0.048,3.1e-4 0.0961,6.3e-4 0.14414,9.6e-4 0.048,3.3e-4 0.0961,6.7e-4 0.14415,0.001 0.048,3.5e-4 0.0961,7.1e-4 0.14414,10e-4 0.0481,3.7e-4 0.0961,7.5e-4 0.14415,0.001 0.048,3.9e-4 0.0961,7.9e-4 0.14414,0.001 0.048,4.2e-4 0.0961,8.4e-4 0.14414,0.001 0.048,4.4e-4 0.0961,8.9e-4 0.14415,0.001 0.048,4.6e-4 0.0961,9.4e-4 0.14414,0.001 0.0481,4.9e-4 0.0961,9.9e-4 0.14415,10e-4 0.048,5.1e-4 0.0961,0.001 0.14414,0.002 0.048,5.3e-4 0.0961,0.001 0.14414,0.002 0.048,5.7e-4 0.0961,0.001 0.14415,0.002 0.048,5.9e-4 0.0961,0.001 0.14414,0.002 0.0481,6.1e-4 0.0961,0.001 0.14415,0.002 0.048,6.5e-4 0.0961,0.001 0.14414,0.002 0.048,6.7e-4 0.0961,0.001 0.14415,0.002 0.048,7e-4 0.0961,0.001 0.14414,0.002 0.048,7.3e-4 0.0961,0.001 0.14414,0.002 0.0481,7.7e-4 0.0961,0.002 0.14415,0.002 0.0481,8e-4 0.0961,0.002 0.14414,0.002 0.048,8.3e-4 0.0961,0.002 0.14415,0.003 0.048,8.6e-4 0.0961,0.002 0.14414,0.003 0.048,9e-4 0.0961,0.002 0.14414,0.003 0.0481,9.3e-4 0.0961,0.002 0.14415,0.003 0.0481,9.6e-4 0.0961,0.002 0.14414,0.003 0.048,0.001 0.0961,0.002 0.14415,0.003 0.048,0.001 0.0961,0.002 0.14414,0.003 0.048,0.001 0.0961,0.002 0.14414,0.003 0.0481,0.001 0.0961,0.002 0.14415,0.003 0.0481,0.001 0.0961,0.002 0.14414,0.004 0.048,10e-4 0.0961,0.002 0.14415,0.004 0.048,0.001 0.0961,0.003 0.14414,0.004 0.048,0.001 0.0961,0.003 0.14415,0.004 0.048,0.001 0.0961,0.003 0.14414,0.004 0.0481,0.001 0.0961,0.003 0.14414,0.004 0.048,0.001 0.0961,0.003 0.14415,0.004 0.048,0.001 0.0961,0.003 0.14414,0.005 0.048,0.002 0.0961,0.003 0.14415,0.005 0.048,0.002 0.0961,0.003 0.14414,0.005 0.0481,0.002 0.0961,0.003 0.14414,0.005 0.048,0.002 0.0961,0.003 0.14415,0.005 0.048,0.002 0.0961,0.004 0.14414,0.005 0.048,0.002 0.0961,0.004 0.14415,0.006 0.0481,0.002 0.0961,0.004 0.14414,0.006 0.0481,0.002 0.0961,0.004 0.14415,0.006 0.048,0.002 0.0961,0.004 0.14414,0.006 0.048,0.002 0.0961,0.004 0.14414,0.006 0.048,0.002 0.0961,0.004 0.14415,0.006 0.0481,0.002 0.0961,0.004 0.14414,0.007 0.0481,0.002 0.0961,0.005 0.14415,0.007 0.048,0.002 0.0961,0.005 0.14414,0.007 0.048,0.002 0.0961,0.005 0.14414,0.007 0.048,0.002 0.0961,0.005 0.14415,0.008 0.0481,0.003 0.0961,0.005 0.14414,0.008 0.0481,0.003 0.0961,0.005 0.14415,0.008 0.048,0.003 0.0961,0.005 0.14414,0.008 0.048,0.003 0.0961,0.006 0.14415,0.009 0.048,0.003 0.0961,0.006 0.14414,0.009 0.0481,0.003 0.0961,0.006 0.14414,0.009 0.0481,0.003 0.0961,0.006 0.14415,0.009 0.048,0.003 0.0961,0.006 0.14414,0.01 0.048,0.003 0.0961,0.007 0.14415,0.01 0.048,0.003 0.0961,0.007 0.14414,0.0103 0.0481,0.003 0.0961,0.007 0.14414,0.0106 0.0481,0.004 0.0961,0.007 0.14415,0.0109 0.048,0.004 0.0961,0.007 0.14414,0.0113 0.048,0.004 0.0961,0.008 0.14415,0.0116 0.048,0.004 0.0961,0.008 0.14414,0.012 0.0481,0.004 0.0961,0.008 0.14414,0.0123 0.0481,0.004 0.0961,0.008 0.14415,0.0127 0.048,0.004 0.0961,0.009 0.14414,0.0131 0.048,0.004 0.0961,0.009 0.14415,0.0135 0.048,0.005 0.0961,0.009 0.14414,0.0139 0.0481,0.005 0.0961,0.009 0.14415,0.0143 0.048,0.005 0.0961,0.01 0.14414,0.0147 0.048,0.005 0.0961,0.01 0.14414,0.0152 0.048,0.005 0.0961,0.0104 0.14415,0.0157 0.048,0.005 0.0961,0.0107 0.14414,0.0161 0.048,0.005 0.0961,0.011 0.14415,0.0166 0.048,0.006 0.0961,0.0113 0.14414,0.0171 0.0481,0.006 0.0961,0.0117 0.14414,0.0176 0.048,0.006 0.0961,0.012 0.14415,0.0182 0.048,0.006 0.0961,0.0124 0.14414,0.0187 0.048,0.006 0.0961,0.0128 0.14415,0.0193 0.048,0.007 0.0961,0.0132 0.14414,0.0199 0.0481,0.007 0.0961,0.0136 0.14415,0.0205 0.048,0.007 0.0961,0.014 0.14414,0.0211 0.048,0.007 0.0961,0.0144 0.14414,0.0218 0.048,0.007 0.0961,0.0148 0.14415,0.0224 0.0481,0.008 0.0961,0.0153 0.14414,0.0231 0.0481,0.008 0.0961,0.0158 0.14415,0.0238 0.048,0.008 0.0961,0.0162 0.14414,0.0246 0.048,0.008 0.0961,0.0168 0.14414,0.0253 0.048,0.009 0.0961,0.0173 0.14415,0.0261 0.0481,0.009 0.0961,0.0178 0.14414,0.0269 0.0481,0.009 0.0961,0.0183 0.14415,0.0277 0.048,0.009 0.0961,0.0189 0.14414,0.0286 0.048,0.01 0.0961,0.0195 0.14414,0.0295 0.048,0.01 0.0961,0.0201 0.14415,0.0304 0.0481,0.0103 0.0961,0.0207 0.14414,0.0313 0.0481,0.0106 0.0961,0.0214 0.14415,0.0323 0.048,0.0109 0.0961,0.0221 0.14414,0.0333 0.048,0.0113 0.0961,0.0227 0.14415,0.0344 0.048,0.0116 0.0961,0.0234 0.14414,0.0355 0.0481,0.012 0.0961,0.0242 0.14414,0.0366 0.0481,0.0124 0.0961,0.025 0.14415,0.0377 0.048,0.0128 0.0961,0.0257 0.14414,0.0389 0.048,0.0132 0.0961,0.0266 0.14415,0.0402 0.048,0.0136 0.0961,0.0274 0.14414,0.0415 0.0481,0.014 0.0961,0.0283 0.14414,0.0428 0.0481,0.0145 0.0961,0.0292 0.14415,0.0442 0.048,0.0149 0.0961,0.0301 0.14414,0.0456 0.048,0.0154 0.0961,0.0311 0.14415,0.047 0.048,0.0159 0.0961,0.0321 0.14414,0.0486 0.0481,0.0164 0.0961,0.0332 0.14415,0.0502 0.048,0.017 0.0961,0.0343 0.14414,0.0518 0.048,0.0175 0.0961,0.0354 0.14414,0.0535 0.048,0.0181 0.0961,0.0365 0.14415,0.0552 0.048,0.0187 0.0961,0.0377 0.14414,0.0571 0.0481,0.0193 0.0961,0.039 0.14415,0.059 0.048,0.02 0.0961,0.0403 0.14414,0.0609 0.048,0.0206 0.0961,0.0416 0.14414,0.063 0.048,0.0213 0.0961,0.043 0.14415,0.0651 0.048,0.0221 0.0961,0.0445 0.14414,0.0673 0.0481,0.0228 0.0961,0.046 0.14415,0.0695 0.048,0.0236 0.0961,0.0475 0.14414,0.0719 0.048,0.0244 0.0961,0.0491 0.14415,0.0743 0.048,0.0252 0.0961,0.0508 0.14414,0.0769 0.048,0.0261 0.0961,0.0526 0.14414,0.0795 0.0481,0.027 0.0961,0.0544 0.14415,0.0823 0.0481,0.0279 0.0961,0.0563 0.14414,0.0851 0.048,0.0289 0.0961,0.0582 0.14415,0.0881 0.048,0.0299 0.0961,0.0602 0.14414,0.0912 0.048,0.0309 0.0961,0.0624 0.14414,0.0944 0.0481,0.032 0.0961,0.0646 0.14415,0.0977 0.0481,0.0332 0.0961,0.0669 0.14414,0.10121 0.048,0.0343 0.0961,0.0693 0.14415,0.10484 0.048,0.0356 0.0961,0.0718 0.14414,0.1086 0.048,0.0368 0.0961,0.0744 0.14414,0.11253 0.0481,0.0382 0.0961,0.0771 0.14415,0.11663 0.0481,0.0396 0.0961,0.0799 0.14414,0.12089 0.048,0.041 0.0961,0.0828 0.14415,0.12534 0.048,0.0426 0.0961,0.0859 0.14414,0.12999 0.048,0.0441 0.0961,0.0891 0.14415,0.13483 0.048,0.0458 0.0961,0.0924 0.14414,0.13989 0.0481,0.0475 0.0961,0.0959 0.14414,0.14516 0.048,0.0493 0.0961,0.0995 0.14415,0.15068 0.048,0.0512 0.0961,0.10331 0.14414,0.15645 0.048,0.0531 0.0961,0.10728 0.14415,0.16247 0.048,0.0552 0.0961,0.11143 0.14414,0.16877 0.0481,0.0573 0.0961,0.11578 0.14414,0.17536 0.048,0.0596 0.0961,0.12033 0.14415,0.18227 0.048,0.0619 0.0961,0.1251 0.14414,0.1895 0.048,0.0644 0.0961,0.13009 0.14415,0.19708 0.0481,0.067 0.0961,0.13531 0.14414,0.20502 0.0481,0.0697 0.0961,0.1408 0.14415,0.21334 0.048,0.0726 0.0961,0.14656 0.14414,0.22209 0.048,0.0755 0.0961,0.1526 0.14414,0.23127 0.048,0.0787 0.0961,0.15895 0.14415,0.24092 0.0481,0.082 0.0961,0.16562 0.14414,0.25106 0.0481,0.0854 0.0961,0.17264 0.14415,0.26172 0.048,0.0891 0.0961,0.18003 0.14414,0.27295 0.048,0.0929 0.0961,0.18782 0.14414,0.28478 0.048,0.097 0.0961,0.19602 0.14415,0.29726 0.0481,0.10123 0.0961,0.20467 0.14414,0.3104 0.0481,0.10574 0.0961,0.2138 0.14415,0.3243 0.048,0.1105 0.0961,0.22345 0.14414,0.33897 0.048,0.11553 0.0961,0.23365 0.14415,0.35449 0.048,0.12085 0.0961,0.24444 0.14414,0.37092 0.0481,0.12648 0.0961,0.25587 0.14414,0.38832 0.0481,0.13246 0.0961,0.26799 0.14415,0.40678 0.048,0.13879 0.0961,0.28085 0.14414,0.42637 0.048,0.14552 0.0961,0.29451 0.14415,0.44719 0.048,0.15267 0.0961,0.30904 0.14414,0.46933 0.0481,0.16029 0.0961,0.32452 0.14414,0.49293 0.0481,0.16841 0.0961,0.34102 0.14415,0.51809 0.048,0.17706 0.0961,0.35862 0.14414,0.54494 0.048,0.18633 0.0961,0.37745 0.14415,0.57367 0.048,0.19623 0.0961,0.39759 0.14414,0.60443 0.0481,0.20683 0.0961,0.41918 0.14414,0.6374 0.0481,0.21822 0.0961,0.44236 0.14415,0.67282 0.048,0.23046 0.0961,0.46729 0.14414,0.71093 0.048,0.24364 0.0961,0.49413 0.14415,0.75199 0.048,0.25785 0.0961,0.5231 0.14414,0.79632 0.0481,0.27321 0.0961,0.55443 0.14415,0.84428 0.048,0.28984 0.0961,0.58837 0.14414,0.89626 0.048,0.3079 0.0961,0.62522 0.14414,0.95274 0.048,0.32752 0.0961,0.66531 0.14415,1.01423 0.048,0.34892 0.0961,0.70904 0.14414,1.08134 0.048,0.37231 0.0961,0.75687 0.14415,1.1548 0.048,0.39792 0.0961,0.8093 0.14414,1.23539 0.0481,0.42608 0.0961,0.86697 0.14414,1.3241 0.048,0.45712 0.0961,0.93059 0.14415,1.42204 0.048,0.49145 0.0961,1.001 0.14414,1.53054 0.048,0.52954 0.0961,1.0792 0.14415,1.65117 0.048,0.57198 0.0961,1.16639 0.14414,1.78582 0.0481,0.61942 0.0961,1.264 0.14415,1.93672 0.048,0.67272 0.0961,1.37376 0.14414,2.10663 0.048,0.73287 0.0961,1.49776 0.14414,2.29886 0.048,0.80109 0.0961,1.6386 0.14415,2.51751 m 6.05405,-126.057775 c 0.0481,1.03569 0.0961,2.019229 0.14415,2.957947 0.048,0.938719 0.0961,1.832326 0.14414,2.686903 0.048,0.854577 0.0961,1.669874 0.14414,2.450978 0.048,0.781104 0.0961,1.527798 0.14415,2.244369 0.048,0.716572 0.0961,1.402831 0.14414,2.062421 0.048,0.659589 0.0961,1.292341 0.14415,1.901368 0.048,0.609026 0.0961,1.19418 0.14414,1.758136 0.0481,0.563957 0.0961,1.106585 0.14414,1.6302 0.048,0.523614 0.0961,1.028096 0.14415,1.515459 0.048,0.487362 0.0961,0.957499 0.14414,1.412168 0.048,0.454669 0.0961,0.893774 0.14415,1.318858 0.048,0.425084 0.0961,0.83606 0.14414,1.234288 0.048,0.398227 0.0961,0.783628 0.14415,1.157403 0.048,0.373776 0.0961,0.735856 0.14414,1.087307 0.048,0.351452 0.0961,0.69221 0.14414,1.023225 0.048,0.331016 0.0961,0.65223 0.14415,0.964494 0.0481,0.312263 0.0961,0.61552 0.14414,0.910535 0.0481,0.295014 0.0961,0.581736 0.14415,0.860851 0.048,0.279114 0.0961,0.550576 0.14414,0.815003 0.048,0.264427 0.0961,0.521777 0.14414,0.77261 0.048,0.250834 0.0961,0.49511 0.14415,0.733337 0.048,0.238227 0.0961,0.470368 0.14414,0.696885 0.048,0.226517 0.0961,0.447375 0.14415,0.662994 0.048,0.21562 0.0961,0.42597 0.14414,0.631433 0.048,0.205463 0.0961,0.40601 0.14415,0.601992 0.048,0.195982 0.0961,0.387371 0.14414,0.57449 0.0481,0.187119 0.0961,0.36994 0.14414,0.548761 0.0481,0.178821 0.0961,0.353616 0.14415,0.524658 0.048,0.171041 0.0961,0.338307 0.14414,0.502047 0.048,0.16374 0.0961,0.323933 0.14415,0.48081 0.048,0.156878 0.0961,0.31042 0.14414,0.46084 0.048,0.15042 0.0961,0.2977 0.14414,0.442037 0.048,0.144338 0.0961,0.285715 0.14415,0.424316 0.048,0.138601 0.0961,0.274409 0.14414,0.407594 0.048,0.133185 0.0961,0.263732 0.14415,0.3918 0.048,0.128067 0.0961,0.25364 0.14414,0.376867 0.0481,0.123226 0.0961,0.244092 0.14415,0.362734 0.048,0.118642 0.0961,0.235049 0.14414,0.349347 0.048,0.114298 0.0961,0.226476 0.14414,0.336654 0.048,0.110178 0.0961,0.218343 0.14415,0.324609 0.048,0.106266 0.0961,0.210621 0.14414,0.31317 0.048,0.102549 0.0961,0.203282 0.14415,0.302297 0.048,0.09901 0.0961,0.196302 0.14414,0.291954 0.048,0.09565 0.0961,0.189659 0.14414,0.282108 0.048,0.09245 0.0961,0.183331 0.14415,0.272728 0.048,0.0894 0.0961,0.1773 0.14414,0.263786 0.0481,0.08649 0.0961,0.171546 0.14415,0.255254 0.048,0.08371 0.0961,0.166056 0.14414,0.247111 0.048,0.08106 0.0961,0.160811 0.14414,0.239332 0.048,0.07852 0.0961,0.155798 0.14415,0.231895 0.048,0.0761 0.0961,0.151005 0.14414,0.224783 0.048,0.07378 0.0961,0.146419 0.14415,0.217977 0.0481,0.07156 0.0961,0.142028 0.14414,0.21146 0.048,0.06943 0.0961,0.137821 0.14415,0.205215 0.048,0.0674 0.0961,0.133789 0.14414,0.19923 0.048,0.06544 0.0961,0.129922 0.14414,0.193488 0.0481,0.06357 0.0961,0.126212 0.14415,0.187979 0.048,0.06177 0.0961,0.12265 0.14414,0.182689 0.048,0.06004 0.0961,0.119229 0.14415,0.177608 0.048,0.05838 0.0961,0.115942 0.14414,0.172725 0.048,0.05678 0.0961,0.112782 0.14414,0.168031 0.048,0.05525 0.0961,0.109742 0.14415,0.163513 0.0481,0.05377 0.0961,0.106818 0.14414,0.159168 0.048,0.05235 0.0961,0.104002 0.14415,0.154983 0.048,0.05098 0.0961,0.10129 0.14414,0.150953 0.048,0.04966 0.0961,0.09868 0.14415,0.147069 0.048,0.04839 0.0961,0.09616 0.14414,0.143326 0.048,0.04717 0.0961,0.09373 0.14414,0.139715 0.048,0.04599 0.0961,0.09139 0.14415,0.136232 0.048,0.04485 0.0961,0.08913 0.14414,0.132872 0.048,0.04374 0.0961,0.08695 0.14415,0.129626 0.048,0.04268 0.0961,0.08484 0.14414,0.126492 0.0481,0.04165 0.0961,0.0828 0.14414,0.123464 0.048,0.04066 0.0961,0.08083 0.14415,0.120538 0.048,0.0397 0.0961,0.07893 0.14414,0.117709 0.048,0.03878 0.0961,0.07709 0.14415,0.114972 0.048,0.03788 0.0961,0.07532 0.14414,0.112326 0.048,0.03701 0.0961,0.07359 0.14414,0.109763 0.048,0.03617 0.0961,0.07193 0.14415,0.107284 0.048,0.03536 0.0961,0.07031 0.14414,0.104882 0.048,0.03457 0.0961,0.06875 0.14415,0.102557 0.0481,0.03381 0.0961,0.06724 0.14414,0.100303 0.0481,0.03307 0.0961,0.06577 0.14415,0.09812 0.048,0.03235 0.0961,0.06435 0.14414,0.096 0.048,0.03166 0.0961,0.06297 0.14414,0.09395 0.048,0.03098 0.0961,0.06163 0.14415,0.09195 0.048,0.03033 0.0961,0.06033 0.14414,0.09002 0.048,0.02969 0.0961,0.05907 0.14415,0.08815 0.048,0.02908 0.0961,0.05785 0.14414,0.08633 0.048,0.02848 0.0961,0.05666 0.14414,0.08456 0.048,0.0279 0.0961,0.05551 0.14415,0.08284 0.0481,0.02733 0.0961,0.05439 0.14414,0.08117 0.0481,0.02679 0.0961,0.0533 0.14415,0.07955 0.048,0.02625 0.0961,0.05224 0.14414,0.07797 0.048,0.02573 0.0961,0.05121 0.14415,0.07644 0.048,0.02523 0.0961,0.05021 0.14414,0.07495 0.048,0.02474 0.0961,0.04924 0.14414,0.0735 0.048,0.02426 0.0961,0.04829 0.14415,0.07209 0.048,0.0238 0.0961,0.04737 0.14414,0.07072 0.048,0.02335 0.0961,0.04648 0.14415,0.06939 0.048,0.02291 0.0961,0.0456 0.14414,0.06809 0.0481,0.02248 0.0961,0.04476 0.14414,0.06682 0.0481,0.02207 0.0961,0.04393 0.14415,0.06559 0.048,0.02166 0.0961,0.04312 0.14414,0.06439 0.048,0.02127 0.0961,0.04234 0.14415,0.06322 0.048,0.02088 0.0961,0.04157 0.14414,0.06208 0.048,0.02051 0.0961,0.04083 0.14415,0.06097 0.048,0.02014 0.0961,0.0401 0.14414,0.05989 0.048,0.01978 0.0961,0.03939 0.14414,0.05883 0.048,0.01944 0.0961,0.0387 0.14415,0.0578 0.048,0.0191 0.0961,0.03803 0.14414,0.0568 0.0481,0.01877 0.0961,0.03737 0.14415,0.05582 0.048,0.01844 0.0961,0.03673 0.14414,0.05486 0.048,0.01813 0.0961,0.0361 0.14414,0.05393 0.048,0.01782 0.0961,0.03549 0.14415,0.05302 0.048,0.01752 0.0961,0.0349 0.14414,0.05213 0.048,0.01723 0.0961,0.03432 0.14415,0.05126 0.048,0.01694 0.0961,0.03375 0.14414,0.05041 0.0481,0.01666 0.0961,0.03319 0.14414,0.04958 0.048,0.01639 0.0961,0.03265 0.14415,0.04878 0.048,0.01613 0.0961,0.03212 0.14414,0.04799 0.048,0.01587 0.0961,0.0316 0.14415,0.04721 0.048,0.01561 0.0961,0.0311 0.14414,0.04646 0.048,0.01536 0.0961,0.0306 0.14415,0.04572 0.048,0.01512 0.0961,0.03012 0.14414,0.045 0.048,0.01488 0.0961,0.02965 0.14414,0.0443 0.048,0.01465 0.0961,0.02918 0.14415,0.04361 0.0481,0.01442 0.0961,0.02873 0.14414,0.04293 0.0481,0.0142 0.0961,0.02829 0.14415,0.04227 0.048,0.01398 0.0961,0.02786 0.14414,0.04163 0.048,0.01377 0.0961,0.02743 0.14414,0.041 0.048,0.01356 0.0961,0.02702 0.14415,0.04038 0.048,0.01336 0.0961,0.02662 0.14414,0.03977 0.048,0.01316 0.0961,0.02622 0.14415,0.03918 0.048,0.01296 0.0961,0.02583 0.14414,0.0386 0.048,0.01277 0.0961,0.02545 0.14415,0.03804 0.048,0.01259 0.0961,0.02508 0.14414,0.03748 0.0481,0.0124 0.0961,0.02471 0.14414,0.03694 0.0481,0.01222 0.0961,0.02436 0.14415,0.0364 0.048,0.01205 0.0961,0.02401 0.14414,0.03588 0.048,0.01187 0.0961,0.02366 0.14415,0.03537 0.048,0.01171 0.0961,0.02333 0.14414,0.03487 0.048,0.01154 0.0961,0.023 0.14414,0.03438 0.048,0.01138 0.0961,0.02268 0.14415,0.0339 0.048,0.01122 0.0961,0.02236 0.14414,0.03343 0.048,0.01106 0.0961,0.02205 0.14415,0.03296 0.048,0.01091 0.0961,0.02175 0.14414,0.03251 0.0481,0.01076 0.0961,0.02145 0.14415,0.03207 0.048,0.01062 0.0961,0.02116 0.14414,0.03163 0.048,0.01047 0.0961,0.02087 0.14414,0.0312 0.048,0.01033 0.0961,0.02059 0.14415,0.03078 0.048,0.01019 0.0961,0.02032 0.14414,0.03037 0.048,0.01006 0.0961,0.02004 0.14415,0.02997 0.048,0.0099 0.0961,0.01978 0.14414,0.02957 0.048,0.0098 0.0961,0.01952 0.14414,0.02918 0.048,0.0097 0.0961,0.01926 0.14415,0.0288 0.048,0.0095 0.0961,0.01901 0.14414,0.02843 0.0481,0.0094 0.0961,0.01877 0.14415,0.02806 0.048,0.0093 0.0961,0.01852 0.14414,0.0277 0.048,0.0092 0.0961,0.01829 0.14414,0.02735 0.048,0.0091 0.0961,0.01805 0.14415,0.027 0.048,0.0089 0.0961,0.01783 0.14414,0.02666 0.048,0.0088 0.0961,0.0176 0.14415,0.02632 0.0481,0.0087 0.0961,0.01738 0.14414,0.02599 0.048,0.0086 0.0961,0.01717 0.14415,0.02567 0.048,0.0085 0.0961,0.01695 0.14414,0.02535 0.048,0.0084 0.0961,0.01674 0.14414,0.02504 0.0481,0.0083 0.0961,0.01654 0.14415,0.02473 0.048,0.0082 0.0961,0.01634 0.14414,0.02443 0.048,0.0081 0.0961,0.01614 0.14415,0.02413 0.048,0.008 0.0961,0.01594 0.14414,0.02384 0.048,0.0079 0.0961,0.01575 0.14414,0.02356 0.048,0.0078 0.0961,0.01556 0.14415,0.02328 0.0481,0.0077 0.0961,0.01538 0.14414,0.023 0.048,0.0076 0.0961,0.0152 0.14415,0.02273 0.048,0.0075 0.0961,0.01502 0.14414,0.02246 0.048,0.0074 0.0961,0.01484 0.14415,0.0222 0.048,0.007 0.0961,0.0147 0.14414,0.0219 0.048,0.007 0.0961,0.0145 0.14414,0.0217 0.048,0.007 0.0961,0.0143 0.14415,0.0214 0.048,0.007 0.0961,0.0142 0.14414,0.0212 0.048,0.007 0.0961,0.014 0.14415,0.0209 0.048,0.007 0.0961,0.0139 0.14414,0.0207 0.0481,0.007 0.0961,0.0137 0.14414,0.0205 0.048,0.007 0.0961,0.0135 0.14415,0.0203 0.048,0.007 0.0961,0.0134 0.14414,0.02 0.048,0.007 0.0961,0.0132 0.14415,0.0198 0.048,0.007 0.0961,0.0131 0.14414,0.0196 0.048,0.007 0.0961,0.013 0.14414,0.0194 0.048,0.006 0.0961,0.0128 0.14415,0.0191 0.048,0.006 0.0961,0.0127 0.14414,0.0189 0.048,0.006 0.0961,0.0125 0.14415,0.0187 0.0481,0.006 0.0961,0.0124 0.14414,0.0185 0.0481,0.006 0.0961,0.0123 0.14415,0.0183 0.048,0.006 0.0961,0.0121 0.14414,0.0181 0.048,0.006 0.0961,0.012 0.14414,0.0179 0.048,0.006 0.0961,0.0119 0.14415,0.0178 0.048,0.006 0.0961,0.0117 0.14414,0.0176 0.048,0.006 0.0961,0.0116 0.14415,0.0174 0.048,0.006 0.0961,0.0115 0.14414,0.0172 0.048,0.006 0.0961,0.0114 0.14414,0.017 0.048,0.006 0.0961,0.0113 0.14415,0.0168 0.0481,0.006 0.0961,0.0111 0.14414,0.0167 0.0481,0.005 0.0961,0.011 0.14415,0.0165 0.048,0.006 0.0961,0.0109 0.14414,0.0163 0.048,0.005 0.0961,0.0108 0.14415,0.0162 0.048,0.005 0.0961,0.0107 0.14414,0.016 0.048,0.005 0.0961,0.0106 0.14414,0.0158 0.048,0.005 0.0961,0.0105 0.14415,0.0157 0.048,0.005 0.0961,0.0104 0.14414,0.0155 0.048,0.005 0.0961,0.0103 0.14415,0.0154 0.048,0.005 0.0961,0.0102 0.14414,0.0152 0.0481,0.005 0.0961,0.0101 0.14414,0.0151 0.0481,0.005 0.0961,0.01 0.14415,0.0149 0.048,0.005 0.0961,0.01 0.14414,0.0148 0.048,0.005 0.0961,0.01 0.14415,0.0146 0.048,0.005 0.0961,0.01 0.14414,0.0145 0.048,0.005 0.0961,0.01 0.14415,0.0143 0.048,0.005 0.0961,0.01 0.14414,0.0142 0.048,0.005 0.0961,0.009 0.14414,0.0141 0.048,0.005 0.0961,0.009 0.14415,0.0139 0.048,0.005 0.0961,0.009 0.14414,0.0138 0.0481,0.005 0.0961,0.009 0.14415,0.0137 0.048,0.004 0.0961,0.009 0.14414,0.0135 0.048,0.004 0.0961,0.009 0.14414,0.0134 0.048,0.005 0.0961,0.009 0.14415,0.0133 0.048,0.004 0.0961,0.009 0.14414,0.0132 0.048,0.004 0.0961,0.009 0.14415,0.013 0.048,0.004 0.0961,0.009 0.14414,0.0129 0.0481,0.004 0.0961,0.009 0.14414,0.0128 0.048,0.004 0.0961,0.008 0.14415,0.0127 0.048,0.004 0.0961,0.008 0.14414,0.0126 0.048,0.004 0.0961,0.008 0.14415,0.0125 0.048,0.004 0.0961,0.008 0.14414,0.0123 0.048,0.004 0.0961,0.008 0.14415,0.0122 0.048,0.004 0.0961,0.008 0.14414,0.0121 0.048,0.004 0.0961,0.008 0.14414,0.012 0.048,0.004 0.0961,0.008 0.14415,0.0119 0.0481,0.004 0.0961,0.008 0.14414,0.0118 0.0481,0.004 0.0961,0.008 0.14415,0.0117 0.048,0.004 0.0961,0.008 0.14414,0.0116 0.048,0.004 0.0961,0.008 0.14414,0.0115 0.048,0.004 0.0961,0.008 0.14415,0.0114 0.048,0.004 0.0961,0.007 0.14414,0.0113 0.048,0.004 0.0961,0.007 0.14415,0.0112 0.048,0.004 0.0961,0.007 0.14414,0.0111 0.048,0.004 0.0961,0.007 0.14415,0.011 0.048,0.004 0.0961,0.007 0.14414,0.0109 0.0481,0.004 0.0961,0.007 0.14414,0.0108 0.0481,0.004 0.0961,0.007 0.14415,0.0107 0.048,0.004 0.0961,0.007 0.14414,0.0106 0.048,0.004 0.0961,0.007 0.14415,0.0105 0.048,0.004 0.0961,0.007 0.14414,0.0104 0.048,0.004 0.0961,0.007 0.14414,0.0104 0.048,0.003 0.0961,0.007 0.14415,0.0103 0.048,0.003 0.0961,0.007 0.14414,0.0102 0.048,0.003 0.0961,0.007 0.14415,0.0101 0.048,0.003 0.0961,0.007 0.14414,0.01 0.0481,0.003 0.0961,0.007 0.14415,0.01 0.048,0.003 0.0961,0.007 0.14414,0.01 0.048,0.003 0.0961,0.007 0.14414,0.01 0.048,0.003 0.0961,0.006 0.14415,0.01 0.048,0.003 0.0961,0.006 0.14414,0.01 0.048,0.003 0.0961,0.006 0.14415,0.01 0.048,0.003 0.0961,0.006 0.14414,0.01 0.048,0.003 0.0961,0.006 0.14414,0.009 0.048,0.003 0.0961,0.006 0.14415,0.009 0.048,0.003 0.0961,0.006 0.14414,0.009 0.0481,0.003 0.0961,0.006 0.14415,0.009 0.048,0.003 0.0961,0.006 0.14414,0.009 0.048,0.003 0.0961,0.006 0.14414,0.009 0.048,0.003 0.0961,0.006 0.14415,0.009 0.048,0.003 0.0961,0.006 0.14414,0.009 0.048,0.003 0.0961,0.006 0.14415,0.009 0.0481,0.003 0.0961,0.006 0.14414,0.009 0.048,0.003 0.0961,0.006 0.14415,0.009 0.048,0.003 0.0961,0.006 0.14414,0.009 0.048,0.003 0.0961,0.006 0.14414,0.009 0.0481,0.003 0.0961,0.006 0.14415,0.008 0.048,0.003 0.0961,0.006 0.14414,0.008 0.048,0.003 0.0961,0.006 0.14415,0.008 0.048,0.003 0.0961,0.006 0.14414,0.008 0.048,0.003 0.0961,0.005 0.14414,0.008 0.048,0.003 0.0961,0.005 0.14415,0.008 0.0481,0.003 0.0961,0.005 0.14414,0.008 0.048,0.003 0.0961,0.005 0.14415,0.008 0.048,0.003 0.0961,0.005 0.14414,0.008 0.048,0.003 0.0961,0.005 0.14415,0.008 0.048,0.003 0.0961,0.005 0.14414,0.008 0.048,0.003 0.0961,0.005 0.14414,0.008 0.048,0.003 0.0961,0.005 0.14415,0.008 0.048,0.003 0.0961,0.005 0.14414,0.008 0.048,0.003 0.0961,0.005 0.14415,0.008 0.048,0.002 0.0961,0.005 0.14414,0.008 0.0481,0.003 0.0961,0.005 0.14414,0.008 0.048,0.002 0.0961,0.005 0.14415,0.007 0.048,0.002 0.0961,0.005 0.14414,0.007 0.048,0.002 0.0961,0.005 0.14415,0.007 0.048,0.002 0.0961,0.005 0.14414,0.007 0.048,0.002 0.0961,0.005 0.14414,0.007 0.048,0.002 0.0961,0.005 0.14415,0.007 0.048,0.002 0.0961,0.005 0.14414,0.007 0.048,0.002 0.0961,0.005 0.14415,0.007 0.0481,0.002 0.0961,0.005 0.14414,0.007 0.0481,0.002 0.0961,0.005 0.14415,0.007 0.048,0.002 0.0961,0.005 0.14414,0.007 0.048,0.002 0.0961,0.005 0.14414,0.007 0.048,0.002 0.0961,0.005 0.14415,0.007 0.048,0.002 0.0961,0.005 0.14414,0.007 0.048,0.002 0.0961,0.005 0.14415,0.007 0.048,0.002 0.0961,0.004 0.14414,0.007 0.048,0.002 0.0961,0.004 0.14414,0.007 0.048,0.002 0.0961,0.004 0.14415,0.007 0.0481,0.002 0.0961,0.004 0.14414,0.007 0.0481,0.002 0.0961,0.004 0.14415,0.007 0.048,0.002 0.0961,0.004 0.14414,0.006 0.048,0.002 0.0961,0.004 0.14415,0.006 0.048,0.002 0.0961,0.004 0.14414,0.006 0.048,0.002 0.0961,0.004 0.14414,0.006 0.048,0.002 0.0961,0.004 0.14415,0.006 0.048,0.002 0.0961,0.004 0.14414,0.006 0.048,0.002 0.0961,0.004 0.14415,0.006 0.048,0.002 0.0961,0.004 0.14414,0.006 0.0481,0.002 0.0961,0.004 0.14414,0.006 0.0481,0.002 0.0961,0.004 0.14415,0.006 0.048,0.002 0.0961,0.004 0.14414,0.006 0.048,0.002 0.0961,0.004 0.14415,0.006 0.048,0.002 0.0961,0.004 0.14414,0.006 0.048,0.002 0.0961,0.004 0.14415,0.006 0.048,0.002 0.0961,0.004 0.14414,0.006 0.048,0.002 0.0961,0.004 0.14414,0.006 0.048,0.002 0.0961,0.004 0.14415,0.006 0.048,0.002 0.0961,0.004 0.14414,0.006 0.0481,0.002 0.0961,0.004 0.14415,0.006 0.048,0.002 0.0961,0.004 0.14414,0.006 0.048,0.002 0.0961,0.004 0.14414,0.006 0.048,0.002 0.0961,0.004 0.14415,0.006 0.048,0.002 0.0961,0.004 0.14414,0.006 0.048,0.002 0.0961,0.004 0.14415,0.006 0.048,0.002 0.0961,0.004 0.14414,0.006 0.0481,0.002 0.0961,0.004 0.14414,0.006 0.048,0.002 0.0961,0.004 0.14415,0.005 0.048,0.002 0.0961,0.004 0.14414,0.005 0.048,0.002 0.0961,0.004 0.14415,0.005 0.048,0.002 0.0961,0.004 0.14414,0.005 0.048,0.002 0.0961,0.004 0.14415,0.005 0.048,0.002 0.0961,0.004 0.14414,0.005 0.048,0.002 0.0961,0.004 0.14414,0.005 0.048,0.002 0.0961,0.004 0.14415,0.005 0.0481,0.002 0.0961,0.003 0.14414,0.005 0.0481,0.002 0.0961,0.003 0.14415,0.005 0.048,0.002 0.0961,0.003 0.14414,0.005 0.048,0.002 0.0961,0.003 0.14414,0.005 0.048,0.002 0.0961,0.003 0.14415,0.005 0.048,0.002 0.0961,0.003 0.14414,0.005 0.048,0.002 0.0961,0.003 0.14415,0.005 0.048,0.002 0.0961,0.003 0.14414,0.005 0.048,0.002 0.0961,0.003 0.14415,0.005 0.048,0.002 0.0961,0.003 0.14414,0.005 0.0481,0.002 0.0961,0.003 0.14414,0.005 0.0481,0.002 0.0961,0.003 0.14415,0.005 0.048,0.002 0.0961,0.003 0.14414,0.005 0.048,0.002 0.0961,0.003 0.14415,0.005 0.048,0.002 0.0961,0.003 0.14414,0.005 0.048,0.002 0.0961,0.003 0.14414,0.005 0.048,0.002 0.0961,0.003 0.14415,0.005 0.048,0.002 0.0961,0.003 0.14414,0.005 0.048,0.002 0.0961,0.003 0.14415,0.005 0.048,0.002 0.0961,0.003 0.14414,0.005 0.0481,0.002 0.0961,0.003 0.14415,0.005 0.048,0.002 0.0961,0.003 0.14414,0.005 0.048,0.002 0.0961,0.003 0.14414,0.005 0.048,0.002 0.0961,0.003 0.14415,0.005 0.048,0.002 0.0961,0.003 0.14414,0.005 0.048,0.002 0.0961,0.003 0.14415,0.004 0.048,0.002 0.0961,0.003 0.14414,0.004 0.048,10e-4 0.0961,0.003 0.14414,0.004 0.048,0.001 0.0961,0.003 0.14415,0.004 0.048,0.001 0.0961,0.003 0.14414,0.004 0.0481,10e-4 0.0961,0.003 0.14415,0.004 0.048,0.001 0.0961,0.003 0.14414,0.004 0.048,0.001 0.0961,0.003 0.14414,0.004 0.048,10e-4 0.0961,0.003 0.14415,0.004 0.048,0.001 0.0961,0.003 0.14414,0.004 0.048,0.001 0.0961,0.003 0.14415,0.004 0.0481,10e-4 0.0961,0.003 0.14414,0.004 0.048,0.001 0.0961,0.003 0.14415,0.004 0.048,0.001 0.0961,0.003 0.14414,0.004 0.048,10e-4 0.0961,0.003 0.14414,0.004 0.0481,0.001 0.0961,0.003 0.14415,0.004 0.048,0.001 0.0961,0.003 0.14414,0.004 0.048,10e-4 0.0961,0.003 0.14415,0.004 0.048,0.001 0.0961,0.003 0.14414,0.004 0.048,10e-4 0.0961,0.003 0.14414,0.004 0.048,0.001 0.0961,0.003 0.14415,0.004 0.0481,0.001 0.0961,0.003 0.14414,0.004 0.048,10e-4 0.0961,0.003 0.14415,0.004 0.048,0.001 0.0961,0.003 0.14414,0.004 0.048,0.001 0.0961,0.003 0.14415,0.004 0.048,10e-4 0.0961,0.003 0.14414,0.004 0.048,0.001 0.0961,0.003 0.14414,0.004 0.048,0.001 0.0961,0.003 0.14415,0.004 0.048,10e-4 0.0961,0.003 0.14414,0.004 0.048,0.001 0.0961,0.003 0.14415,0.004 0.048,0.001 0.0961,0.003 0.14414,0.004 0.0481,10e-4 0.0961,0.003 0.14414,0.004 0.048,0.001 0.0961,0.003 0.14415,0.004 0.048,0.001 0.0961,0.002 0.14414,0.004 0.048,10e-4 0.0961,0.002 0.14415,0.004 0.048,0.001 0.0961,0.002 0.14414,0.004 0.048,0.001 0.0961,0.002 0.14414,0.004 0.048,10e-4 0.0961,0.002 0.14415,0.004 0.048,0.001 0.0961,0.002 0.14414,0.004 0.048,0.001 0.0961,0.002 0.14415,0.004 0.0481,10e-4 0.0961,0.002 0.14414,0.004 0.0481,0.001 0.0961,0.002 0.14415,0.004 0.048,0.001 0.0961,0.002 0.14414,0.004 0.048,10e-4 0.0961,0.002 0.14414,0.004 0.048,0.001 0.0961,0.002 0.14415,0.004 0.048,0.001 0.0961,0.002 0.14414,0.004 0.048,10e-4 0.0961,0.002 0.14415,0.004 0.048,0.001 0.0961,0.002 0.14414,0.003 0.048,0.001 0.0961,0.002 0.14414,0.003 0.048,0.001 0.0961,0.002 0.14415,0.003 0.0481,0.001 0.0961,0.002 0.14414,0.003 0.0481,0.001 0.0961,0.002 0.14415,0.003 0.048,0.001 0.0961,0.002 0.14414,0.003 0.048,0.001 0.0961,0.002 0.14415,0.003 0.048,0.001 0.0961,0.002 0.14414,0.003 0.048,0.001 0.0961,0.002 0.14414,0.003 0.048,0.001 0.0961,0.002 0.14415,0.003 0.048,0.001 0.0961,0.002 0.14414,0.003 0.048,0.001 0.0961,0.002 0.14415,0.003 0.048,0.001 0.0961,0.002 0.14414,0.003 0.0481,0.001 0.0961,0.002 0.14414,0.003 0.0481,0.001 0.0961,0.002 0.14415,0.003 0.048,0.001 0.0961,0.002 0.14414,0.003 0.048,0.001 0.0961,0.002 0.14415,0.003 0.048,0.001 0.0961,0.002 0.14414,0.003 0.048,0.001 0.0961,0.002 0.14415,0.003 0.048,0.001 0.0961,0.002 0.14414,0.003 0.048,0.001 0.0961,0.002 0.14414,0.003 0.048,0.001 0.0961,0.002 0.14415,0.003 0.048,0.001 0.0961,0.002 0.14414,0.003 0.0481,0.001 0.0961,0.002 0.14415,0.003 0.048,0.001 0.0961,0.002 0.14414,0.003"
     style="fill:none;stroke:#000000;stroke-width:1.5;stroke-linecap:round;stroke-linejoin:bevel;stroke-miterlimit:4;stroke-opacity:1;stroke-dasharray:none;stroke-dashoffset:0"
     inkscape:connector-curvature="0"
     sodipodi:nodetypes="cssssssssssssssssssssssssssssssssssssssssssssssssssssssssssssssssssssssssssssssssssssssssssssssssssssssssssssssssssssssssssssssssssssssssssssssssssssssssssssssssssssssssssssssssssssssssssssssssssssssssssssssssssssssssssssssssssssssssssssssssssssssssssssssssssssssssssssssssssssssssssssssssssssssssssssssssssssssssssssssssssssssssssssssssssssssssssssssssssssssssssssssssssssssssssssssssssssssssssssssssssssssssssssssssssssssssssssssssssssssssssssssssssssssssssssssssssssssssssssssssssssssssssssssssssssssssssssssccsssssssssssssssssssssssssssssssssssssssssssssssssssssssssssssssssssssssssssssssssssssssssssssssssssssssssssssssssssssssssssssssssssssssssssssssssssssssssssssssssssssssssssssssssssssssssssssssssssssssssssssssssssssssssssssssssssssssssssssssssssssssssssssssssssssssssssssssssssssssssssssssssssssssssssssssssssssssssssssssssssssssssssssssssssssssssssssssssssssssssssssssssssssssssssssssssssssssssssssssssssssssssssssssssssssssssssssssssssssssssssssc" />
  <g
     id="g3470"
     transform="matrix(1.5,0,0,1.5,-68.933172,-144.73293)"
     ns0:preamble="/home/andrew/.config/inkscape/extensions/header.txt"
     ns0:text="$y = \\frac{\\sqrt{4x^2+1}}{5x-1}$">
    <defs
       id="defs3472">
      <g
         id="g3474">
        <symbol
           id="textext-00b94923-0"
           overflow="visible">
          <path
             id="path3477"
             d=""
             style="stroke:none;" />
        </symbol>
        <symbol
           id="textext-00b94923-1"
           overflow="visible">
          <path
             id="path3480"
             d="M 4.84375 -3.796875 C 4.890625 -3.9375 4.890625 -3.953125 4.890625 -4.03125 C 4.890625 -4.203125 4.75 -4.296875 4.59375 -4.296875 C 4.5 -4.296875 4.34375 -4.234375 4.25 -4.09375 C 4.234375 -4.03125 4.140625 -3.734375 4.109375 -3.546875 C 4.03125 -3.296875 3.96875 -3.015625 3.90625 -2.75 L 3.453125 -0.953125 C 3.421875 -0.8125 2.984375 -0.109375 2.328125 -0.109375 C 1.828125 -0.109375 1.71875 -0.546875 1.71875 -0.921875 C 1.71875 -1.375 1.890625 -2 2.21875 -2.875 C 2.375 -3.28125 2.421875 -3.390625 2.421875 -3.59375 C 2.421875 -4.03125 2.109375 -4.40625 1.609375 -4.40625 C 0.65625 -4.40625 0.296875 -2.953125 0.296875 -2.875 C 0.296875 -2.765625 0.390625 -2.765625 0.40625 -2.765625 C 0.515625 -2.765625 0.515625 -2.796875 0.5625 -2.953125 C 0.84375 -3.890625 1.234375 -4.1875 1.578125 -4.1875 C 1.65625 -4.1875 1.828125 -4.1875 1.828125 -3.875 C 1.828125 -3.625 1.71875 -3.359375 1.65625 -3.171875 C 1.25 -2.109375 1.078125 -1.546875 1.078125 -1.078125 C 1.078125 -0.1875 1.703125 0.109375 2.296875 0.109375 C 2.6875 0.109375 3.015625 -0.0625 3.296875 -0.34375 C 3.171875 0.171875 3.046875 0.671875 2.65625 1.203125 C 2.390625 1.53125 2.015625 1.828125 1.5625 1.828125 C 1.421875 1.828125 0.96875 1.796875 0.796875 1.40625 C 0.953125 1.40625 1.09375 1.40625 1.21875 1.28125 C 1.328125 1.203125 1.421875 1.0625 1.421875 0.875 C 1.421875 0.5625 1.15625 0.53125 1.0625 0.53125 C 0.828125 0.53125 0.5 0.6875 0.5 1.171875 C 0.5 1.671875 0.9375 2.046875 1.5625 2.046875 C 2.578125 2.046875 3.609375 1.140625 3.890625 0.015625 Z M 4.84375 -3.796875 "
             style="stroke:none;" />
        </symbol>
        <symbol
           id="textext-00b94923-2"
           overflow="visible">
          <path
             id="path3483"
             d=""
             style="stroke:none;" />
        </symbol>
        <symbol
           id="textext-00b94923-3"
           overflow="visible">
          <path
             id="path3486"
             d="M 6.84375 -3.265625 C 7 -3.265625 7.1875 -3.265625 7.1875 -3.453125 C 7.1875 -3.65625 7 -3.65625 6.859375 -3.65625 L 0.890625 -3.65625 C 0.75 -3.65625 0.5625 -3.65625 0.5625 -3.453125 C 0.5625 -3.265625 0.75 -3.265625 0.890625 -3.265625 Z M 6.859375 -1.328125 C 7 -1.328125 7.1875 -1.328125 7.1875 -1.53125 C 7.1875 -1.71875 7 -1.71875 6.84375 -1.71875 L 0.890625 -1.71875 C 0.75 -1.71875 0.5625 -1.71875 0.5625 -1.53125 C 0.5625 -1.328125 0.75 -1.328125 0.890625 -1.328125 Z M 6.859375 -1.328125 "
             style="stroke:none;" />
        </symbol>
        <symbol
           id="textext-00b94923-4"
           overflow="visible">
          <path
             id="path3489"
             d=""
             style="stroke:none;" />
        </symbol>
        <symbol
           id="textext-00b94923-5"
           overflow="visible">
          <path
             id="path3492"
             d="M 3.09375 5.875 L 1.71875 3.15625 C 1.6875 3.09375 1.671875 3.046875 1.609375 3.046875 C 1.578125 3.046875 1.5625 3.046875 1.5 3.09375 L 0.75 3.59375 C 0.65625 3.65625 0.65625 3.6875 0.65625 3.71875 C 0.65625 3.75 0.6875 3.8125 0.75 3.8125 C 0.78125 3.8125 0.796875 3.8125 0.890625 3.75 C 0.96875 3.6875 1.15625 3.546875 1.25 3.5 L 2.78125 6.515625 C 2.828125 6.609375 2.84375 6.625 2.9375 6.625 C 3 6.625 3.078125 6.625 3.140625 6.5 L 6.640625 -0.03125 C 6.703125 -0.125 6.703125 -0.125 6.703125 -0.171875 C 6.703125 -0.28125 6.609375 -0.34375 6.53125 -0.34375 C 6.4375 -0.34375 6.390625 -0.28125 6.359375 -0.1875 Z M 3.09375 5.875 "
             style="stroke:none;" />
        </symbol>
        <symbol
           id="textext-00b94923-6"
           overflow="visible">
          <path
             id="path3495"
             d="M 5.1875 -1.578125 C 5.296875 -1.578125 5.46875 -1.578125 5.46875 -1.734375 C 5.46875 -1.921875 5.296875 -1.921875 5.1875 -1.921875 L 1.03125 -1.921875 C 0.921875 -1.921875 0.75 -1.921875 0.75 -1.75 C 0.75 -1.578125 0.90625 -1.578125 1.03125 -1.578125 Z M 5.1875 -1.578125 "
             style="stroke:none;" />
        </symbol>
        <symbol
           id="textext-00b94923-7"
           overflow="visible">
          <path
             id="path3498"
             d=""
             style="stroke:none;" />
        </symbol>
        <symbol
           id="textext-00b94923-8"
           overflow="visible">
          <path
             id="path3501"
             d="M 3.6875 -1.140625 L 3.6875 -1.390625 L 2.90625 -1.390625 L 2.90625 -4.5 C 2.90625 -4.640625 2.90625 -4.703125 2.765625 -4.703125 C 2.671875 -4.703125 2.640625 -4.703125 2.578125 -4.59375 L 0.265625 -1.390625 L 0.265625 -1.140625 L 2.328125 -1.140625 L 2.328125 -0.578125 C 2.328125 -0.328125 2.328125 -0.25 1.75 -0.25 L 1.5625 -0.25 L 1.5625 0 C 1.921875 -0.015625 2.359375 -0.03125 2.609375 -0.03125 C 2.875 -0.03125 3.3125 -0.015625 3.671875 0 L 3.671875 -0.25 L 3.484375 -0.25 C 2.90625 -0.25 2.90625 -0.328125 2.90625 -0.578125 L 2.90625 -1.140625 Z M 2.375 -3.9375 L 2.375 -1.390625 L 0.53125 -1.390625 Z M 2.375 -3.9375 "
             style="stroke:none;" />
        </symbol>
        <symbol
           id="textext-00b94923-9"
           overflow="visible">
          <path
             id="path3504"
             d="M 3.21875 -1.578125 L 5.359375 -1.578125 C 5.453125 -1.578125 5.609375 -1.578125 5.609375 -1.734375 C 5.609375 -1.921875 5.453125 -1.921875 5.359375 -1.921875 L 3.21875 -1.921875 L 3.21875 -4.0625 C 3.21875 -4.140625 3.21875 -4.3125 3.0625 -4.3125 C 2.890625 -4.3125 2.890625 -4.15625 2.890625 -4.0625 L 2.890625 -1.921875 L 0.75 -1.921875 C 0.65625 -1.921875 0.484375 -1.921875 0.484375 -1.75 C 0.484375 -1.578125 0.640625 -1.578125 0.75 -1.578125 L 2.890625 -1.578125 L 2.890625 0.5625 C 2.890625 0.65625 2.890625 0.828125 3.046875 0.828125 C 3.21875 0.828125 3.21875 0.65625 3.21875 0.5625 Z M 3.21875 -1.578125 "
             style="stroke:none;" />
        </symbol>
        <symbol
           id="textext-00b94923-10"
           overflow="visible">
          <path
             id="path3507"
             d="M 2.328125 -4.4375 C 2.328125 -4.625 2.328125 -4.625 2.125 -4.625 C 1.671875 -4.1875 1.046875 -4.1875 0.765625 -4.1875 L 0.765625 -3.9375 C 0.921875 -3.9375 1.390625 -3.9375 1.765625 -4.125 L 1.765625 -0.578125 C 1.765625 -0.34375 1.765625 -0.25 1.078125 -0.25 L 0.8125 -0.25 L 0.8125 0 C 0.9375 0 1.796875 -0.03125 2.046875 -0.03125 C 2.265625 -0.03125 3.140625 0 3.296875 0 L 3.296875 -0.25 L 3.03125 -0.25 C 2.328125 -0.25 2.328125 -0.34375 2.328125 -0.578125 Z M 2.328125 -4.4375 "
             style="stroke:none;" />
        </symbol>
        <symbol
           id="textext-00b94923-11"
           overflow="visible">
          <path
             id="path3510"
             d="M 1.078125 -3.890625 C 1.4375 -3.796875 1.640625 -3.796875 1.75 -3.796875 C 2.671875 -3.796875 3.21875 -4.421875 3.21875 -4.53125 C 3.21875 -4.609375 3.171875 -4.625 3.140625 -4.625 C 3.125 -4.625 3.109375 -4.625 3.078125 -4.609375 C 2.90625 -4.546875 2.546875 -4.40625 2.03125 -4.40625 C 1.828125 -4.40625 1.46875 -4.421875 1.015625 -4.59375 C 0.9375 -4.625 0.921875 -4.625 0.921875 -4.625 C 0.828125 -4.625 0.828125 -4.546875 0.828125 -4.4375 L 0.828125 -2.390625 C 0.828125 -2.265625 0.828125 -2.1875 0.9375 -2.1875 C 1 -2.1875 1.015625 -2.1875 1.078125 -2.28125 C 1.375 -2.65625 1.8125 -2.71875 2.046875 -2.71875 C 2.46875 -2.71875 2.65625 -2.390625 2.6875 -2.328125 C 2.8125 -2.09375 2.859375 -1.828125 2.859375 -1.421875 C 2.859375 -1.21875 2.859375 -0.8125 2.640625 -0.5 C 2.46875 -0.25 2.171875 -0.078125 1.828125 -0.078125 C 1.375 -0.078125 0.90625 -0.328125 0.734375 -0.796875 C 1 -0.78125 1.140625 -0.953125 1.140625 -1.140625 C 1.140625 -1.4375 0.875 -1.484375 0.78125 -1.484375 C 0.78125 -1.484375 0.4375 -1.484375 0.4375 -1.109375 C 0.4375 -0.484375 1.015625 0.140625 1.84375 0.140625 C 2.734375 0.140625 3.515625 -0.515625 3.515625 -1.40625 C 3.515625 -2.1875 2.921875 -2.90625 2.0625 -2.90625 C 1.75 -2.90625 1.390625 -2.84375 1.078125 -2.578125 Z M 1.078125 -3.890625 "
             style="stroke:none;" />
        </symbol>
        <symbol
           id="textext-00b94923-12"
           overflow="visible">
          <path
             id="path3513"
             d=""
             style="stroke:none;" />
        </symbol>
        <symbol
           id="textext-00b94923-13"
           overflow="visible">
          <path
             id="path3516"
             d="M 1.734375 -0.734375 C 1.671875 -0.5 1.4375 -0.125 1.078125 -0.125 C 1.0625 -0.125 0.84375 -0.125 0.703125 -0.21875 C 0.984375 -0.3125 1.015625 -0.5625 1.015625 -0.609375 C 1.015625 -0.765625 0.890625 -0.859375 0.734375 -0.859375 C 0.53125 -0.859375 0.328125 -0.703125 0.328125 -0.4375 C 0.328125 -0.09375 0.71875 0.0625 1.0625 0.0625 C 1.390625 0.0625 1.671875 -0.125 1.84375 -0.421875 C 2.015625 -0.0625 2.390625 0.0625 2.671875 0.0625 C 3.484375 0.0625 3.90625 -0.796875 3.90625 -1 C 3.90625 -1.09375 3.8125 -1.09375 3.796875 -1.09375 C 3.6875 -1.09375 3.6875 -1.046875 3.65625 -0.96875 C 3.515625 -0.484375 3.09375 -0.125 2.703125 -0.125 C 2.421875 -0.125 2.28125 -0.3125 2.28125 -0.578125 C 2.28125 -0.765625 2.453125 -1.390625 2.640625 -2.171875 C 2.78125 -2.703125 3.09375 -2.875 3.328125 -2.875 C 3.34375 -2.875 3.546875 -2.875 3.703125 -2.78125 C 3.484375 -2.71875 3.390625 -2.515625 3.390625 -2.390625 C 3.390625 -2.25 3.515625 -2.140625 3.671875 -2.140625 C 3.828125 -2.140625 4.0625 -2.265625 4.0625 -2.5625 C 4.0625 -2.953125 3.609375 -3.078125 3.34375 -3.078125 C 2.984375 -3.078125 2.703125 -2.84375 2.5625 -2.578125 C 2.4375 -2.859375 2.109375 -3.078125 1.71875 -3.078125 C 0.9375 -3.078125 0.5 -2.21875 0.5 -2 C 0.5 -1.921875 0.59375 -1.921875 0.609375 -1.921875 C 0.703125 -1.921875 0.703125 -1.9375 0.75 -2.03125 C 0.921875 -2.578125 1.359375 -2.875 1.703125 -2.875 C 1.9375 -2.875 2.125 -2.75 2.125 -2.421875 C 2.125 -2.28125 2.03125 -1.9375 1.96875 -1.6875 Z M 1.734375 -0.734375 "
             style="stroke:none;" />
        </symbol>
        <symbol
           id="textext-00b94923-14"
           overflow="visible">
          <path
             id="path3519"
             d=""
             style="stroke:none;" />
        </symbol>
        <symbol
           id="textext-00b94923-15"
           overflow="visible">
          <path
             id="path3522"
             d="M 2.9375 -0.96875 L 2.71875 -0.96875 C 2.71875 -0.875 2.65625 -0.5625 2.578125 -0.515625 C 2.546875 -0.484375 2.125 -0.484375 2.046875 -0.484375 L 1.078125 -0.484375 C 1.40625 -0.71875 1.765625 -1 2.0625 -1.203125 C 2.515625 -1.515625 2.9375 -1.796875 2.9375 -2.328125 C 2.9375 -2.96875 2.328125 -3.3125 1.625 -3.3125 C 0.953125 -3.3125 0.453125 -2.9375 0.453125 -2.4375 C 0.453125 -2.1875 0.671875 -2.140625 0.75 -2.140625 C 0.875 -2.140625 1.03125 -2.234375 1.03125 -2.4375 C 1.03125 -2.609375 0.90625 -2.71875 0.75 -2.71875 C 0.890625 -2.953125 1.1875 -3.09375 1.515625 -3.09375 C 2 -3.09375 2.40625 -2.8125 2.40625 -2.328125 C 2.40625 -1.90625 2.109375 -1.578125 1.734375 -1.265625 L 0.515625 -0.234375 C 0.46875 -0.1875 0.453125 -0.1875 0.453125 -0.15625 L 0.453125 0 L 2.765625 0 Z M 2.9375 -0.96875 "
             style="stroke:none;" />
        </symbol>
      </g>
    </defs>
    <g
       id="textext-00b94923-16">
      <g
         id="g3525"
         style="fill:rgb(0%,0%,0%);fill-opacity:1;">
        <use
           id="use3527"
           y="135.203"
           x="223.432"
           xlink:href="#textext-00b94923-1" />
      </g>
      <g
         id="g3529"
         style="fill:rgb(0%,0%,0%);fill-opacity:1;">
        <use
           id="use3531"
           y="135.203"
           x="231.441"
           xlink:href="#textext-00b94923-3" />
      </g>
      <g
         id="g3533"
         style="fill:rgb(0%,0%,0%);fill-opacity:1;">
        <use
           id="use3535"
           y="125.479"
           x="243.153"
           xlink:href="#textext-00b94923-5" />
      </g>
      <path
         id="path3537"
         transform="matrix(1,0,0,-1,249.698,125.31)"
         d="M 0.00121875 0.00140625 L 22.462156 0.00140625 "
         style="fill:none;stroke-width:0.339;stroke-linecap:butt;stroke-linejoin:miter;stroke:rgb(0%,0%,0%);stroke-opacity:1;stroke-miterlimit:10;" />
      <g
         id="g3539"
         style="fill:rgb(0%,0%,0%);fill-opacity:1;">
        <use
           id="use3541"
           y="131.195"
           x="249.698"
           xlink:href="#textext-00b94923-8" />
      </g>
      <g
         id="g3543"
         style="fill:rgb(0%,0%,0%);fill-opacity:1;">
        <use
           id="use3545"
           y="131.195"
           x="253.669"
           xlink:href="#textext-00b94923-13" />
      </g>
      <g
         id="g3547"
         style="fill:rgb(0%,0%,0%);fill-opacity:1;">
        <use
           id="use3549"
           y="129.202"
           x="258.187"
           xlink:href="#textext-00b94923-15" />
      </g>
      <g
         id="g3551"
         style="fill:rgb(0%,0%,0%);fill-opacity:1;">
        <use
           id="use3553"
           y="131.195"
           x="262.075"
           xlink:href="#textext-00b94923-9" />
        <use
           id="use3555"
           y="131.195"
           x="268.191023"
           xlink:href="#textext-00b94923-10" />
      </g>
      <path
         id="path3557"
         transform="matrix(1,0,0,-1,243.153,132.712)"
         d="M -0.00065625 0.0010625 L 29.007156 0.0010625 "
         style="fill:none;stroke-width:0.398;stroke-linecap:butt;stroke-linejoin:miter;stroke:rgb(0%,0%,0%);stroke-opacity:1;stroke-miterlimit:10;" />
      <g
         id="g3559"
         style="fill:rgb(0%,0%,0%);fill-opacity:1;">
        <use
           id="use3561"
           y="138.638"
           x="248.314"
           xlink:href="#textext-00b94923-11" />
      </g>
      <g
         id="g3563"
         style="fill:rgb(0%,0%,0%);fill-opacity:1;">
        <use
           id="use3565"
           y="138.638"
           x="252.285"
           xlink:href="#textext-00b94923-13" />
      </g>
      <g
         id="g3567"
         style="fill:rgb(0%,0%,0%);fill-opacity:1;">
        <use
           id="use3569"
           y="138.638"
           x="256.803"
           xlink:href="#textext-00b94923-6" />
      </g>
      <g
         id="g3571"
         style="fill:rgb(0%,0%,0%);fill-opacity:1;">
        <use
           id="use3573"
           y="138.638"
           x="263.03"
           xlink:href="#textext-00b94923-10" />
      </g>
    </g>
  </g>
</svg>
