<?xml version="1.0" encoding="UTF-8" standalone="no"?>
<!-- Created with Inkscape (http://www.inkscape.org/) -->

<svg
   xmlns:ns0="http://www.iki.fi/pav/software/textext/"
   xmlns:dc="http://purl.org/dc/elements/1.1/"
   xmlns:cc="http://creativecommons.org/ns#"
   xmlns:rdf="http://www.w3.org/1999/02/22-rdf-syntax-ns#"
   xmlns:svg="http://www.w3.org/2000/svg"
   xmlns="http://www.w3.org/2000/svg"
   xmlns:xlink="http://www.w3.org/1999/xlink"
   xmlns:sodipodi="http://sodipodi.sourceforge.net/DTD/sodipodi-0.dtd"
   xmlns:inkscape="http://www.inkscape.org/namespaces/inkscape"
   sodipodi:docname="cherry1.svg"
   inkscape:version="0.48.4 r9939"
   version="1.1"
   id="svg2"
   height="1052.3622047"
   width="744.09448819">
  <sodipodi:namedview
     id="base"
     pagecolor="#ffffff"
     bordercolor="#666666"
     borderopacity="1.0"
     inkscape:pageopacity="0.0"
     inkscape:pageshadow="2"
     inkscape:zoom="4.9581909"
     inkscape:cx="72.689909"
     inkscape:cy="661.03792"
     inkscape:document-units="px"
     inkscape:current-layer="layer1"
     showgrid="true"
     inkscape:window-width="1680"
     inkscape:window-height="1003"
     inkscape:window-x="-2"
     inkscape:window-y="-3"
     inkscape:window-maximized="1"
     inkscape:snap-global="true"
     inkscape:snap-nodes="true">
    <inkscape:grid
       type="xygrid"
       id="grid2985"
       empspacing="6"
       visible="true"
       enabled="true"
       snapvisiblegridlinesonly="true"
       spacingx="6px"
       spacingy="6px" />
  </sodipodi:namedview>
  <defs
     id="defs4">
    <marker
       style="overflow:visible"
       id="DotLk"
       refX="0.0"
       refY="0.0"
       orient="auto"
       inkscape:stockid="DotLk">
      <path
         transform="scale(0.8) translate(7.4, 1)"
         style="stroke:#ff0000;stroke-width:1.0pt;fill:#ff0000;fill-rule:evenodd"
         d="M -2.5,-1.0 C -2.5,1.7600000 -4.7400000,4.0 -7.5,4.0 C -10.260000,4.0 -12.5,1.7600000 -12.5,-1.0 C -12.5,-3.7600000 -10.260000,-6.0 -7.5,-6.0 C -4.7400000,-6.0 -2.5,-3.7600000 -2.5,-1.0 z "
         id="path9753" />
    </marker>
    <marker
       style="overflow:visible;"
       id="Arrow1LendL"
       refX="0.0"
       refY="0.0"
       orient="auto"
       inkscape:stockid="Arrow1LendL">
      <path
         transform="scale(0.8) rotate(180) translate(12.5,0)"
         style="stroke:#ff0000;stroke-width:1.0pt;fill:#ff0000;fill-rule:evenodd"
         d="M 0.0,0.0 L 5.0,-5.0 L -12.5,0.0 L 5.0,5.0 L 0.0,0.0 z "
         id="path9756" />
    </marker>
    <marker
       style="overflow:visible"
       id="DotL5"
       refX="0.0"
       refY="0.0"
       orient="auto"
       inkscape:stockid="DotL5">
      <path
         transform="scale(0.8) translate(7.4, 1)"
         style="stroke:#ff0000;stroke-width:1.0pt;fill:#ff0000;fill-rule:evenodd"
         d="M -2.5,-1.0 C -2.5,1.7600000 -4.7400000,4.0 -7.5,4.0 C -10.260000,4.0 -12.5,1.7600000 -12.5,-1.0 C -12.5,-3.7600000 -10.260000,-6.0 -7.5,-6.0 C -4.7400000,-6.0 -2.5,-3.7600000 -2.5,-1.0 z "
         id="path9759" />
    </marker>
    <marker
       style="overflow:visible;"
       id="Arrow1Lend8"
       refX="0.0"
       refY="0.0"
       orient="auto"
       inkscape:stockid="Arrow1Lend8">
      <path
         transform="scale(0.8) rotate(180) translate(12.5,0)"
         style="stroke:#ff0000;stroke-width:1.0pt;fill:#ff0000;fill-rule:evenodd"
         d="M 0.0,0.0 L 5.0,-5.0 L -12.5,0.0 L 5.0,5.0 L 0.0,0.0 z "
         id="path9762" />
    </marker>
  </defs>
  <metadata
     id="metadata7">
    <rdf:RDF>
      <cc:Work
         rdf:about="">
        <dc:format>image/svg+xml</dc:format>
        <dc:type
           rdf:resource="http://purl.org/dc/dcmitype/StillImage" />
        <dc:title />
      </cc:Work>
    </rdf:RDF>
  </metadata>
  <g
     inkscape:label="Layer 1"
     inkscape:groupmode="layer"
     id="layer1">
    <g
       id="g17638">
      <g
         id="g17612">
        <rect
           style="fill:none;stroke:#000000;stroke-width:2;stroke-linecap:round;stroke-linejoin:round;stroke-miterlimit:4;stroke-opacity:1;stroke-dasharray:none;stroke-dashoffset:0"
           id="rect2987-8"
           width="36"
           height="36"
           x="36"
           y="404.36218"
           ry="6" />
        <g
           id="g16905"
           style="stroke-width:0.0000001"
           ns0:page_width="10cm"
           ns0:preamble=""
           ns0:text="$3$"
           transform="matrix(2.5,0,0,2.5,47.769531,405.48203)">
          <defs
             id="defs16907">
            <g
               id="g16909">
              <symbol
                 style="overflow:visible"
                 id="textext-e02a80b0-0"
                 overflow="visible">
                <path
                   inkscape:connector-curvature="0"
                   id="path16912"
                   d=""
                   style="stroke:none" />
              </symbol>
              <symbol
                 style="overflow:visible"
                 id="textext-e02a80b0-1"
                 overflow="visible">
                <path
                   inkscape:connector-curvature="0"
                   id="path16915"
                   d="m 2.890625,-3.515625 c 0.8125,-0.265625 1.390625,-0.953125 1.390625,-1.75 0,-0.8125 -0.875,-1.375 -1.828125,-1.375 -1,0 -1.765625,0.59375 -1.765625,1.359375 0,0.328125 0.21875,0.515625 0.515625,0.515625 0.296875,0 0.5,-0.21875 0.5,-0.515625 0,-0.484375 -0.46875,-0.484375 -0.609375,-0.484375 0.296875,-0.5 0.953125,-0.625 1.3125,-0.625 0.421875,0 0.96875,0.21875 0.96875,1.109375 0,0.125 -0.03125,0.703125 -0.28125,1.140625 C 2.796875,-3.65625 2.453125,-3.625 2.203125,-3.625 2.125,-3.609375 1.890625,-3.59375 1.8125,-3.59375 c -0.078125,0.015625 -0.140625,0.03125 -0.140625,0.125 0,0.109375 0.0625,0.109375 0.234375,0.109375 l 0.4375,0 c 0.8125,0 1.1875,0.671875 1.1875,1.65625 0,1.359375 -0.6875,1.640625 -1.125,1.640625 -0.4375,0 -1.1875,-0.171875 -1.53125,-0.75 0.34375,0.046875 0.65625,-0.171875 0.65625,-0.546875 0,-0.359375 -0.265625,-0.5625 -0.546875,-0.5625 -0.25,0 -0.5625,0.140625 -0.5625,0.578125 0,0.90625 0.921875,1.5625 2.015625,1.5625 1.21875,0 2.125,-0.90625 2.125,-1.921875 0,-0.8125 -0.640625,-1.59375 -1.671875,-1.8125 z"
                   style="stroke:none" />
              </symbol>
            </g>
          </defs>
          <g
             id="textext-e02a80b0-2">
            <g
               id="g16918"
               style="fill:#000000;fill-opacity:1">
              <use
                 height="1052.3622"
                 width="744.09448"
                 id="use16920"
                 y="9.9630003"
                 x="0"
                 xlink:href="#textext-e02a80b0-1" />
            </g>
          </g>
        </g>
      </g>
      <g
         id="g17625">
        <rect
           style="fill:none;stroke:#000000;stroke-width:2;stroke-linecap:round;stroke-linejoin:round;stroke-miterlimit:4;stroke-opacity:1;stroke-dasharray:none;stroke-dashoffset:0"
           id="rect2987-5"
           width="36"
           height="36"
           x="108"
           y="404.36218"
           ry="6" />
        <g
           transform="matrix(2.5,0,0,2.5,119.78906,405.48203)"
           ns0:text="$5$"
           ns0:preamble=""
           ns0:page_width="10cm"
           style="stroke-width:0.0000001"
           id="g17368">
          <defs
             id="defs17370">
            <g
               id="g17372">
              <symbol
                 style="overflow:visible"
                 overflow="visible"
                 id="textext-d56441c5-0">
                <path
                   inkscape:connector-curvature="0"
                   style="stroke:none"
                   d=""
                   id="path17375" />
              </symbol>
              <symbol
                 style="overflow:visible"
                 overflow="visible"
                 id="textext-d56441c5-1">
                <path
                   inkscape:connector-curvature="0"
                   style="stroke:none"
                   d="m 4.46875,-2 c 0,-1.1875 -0.8125,-2.1875 -1.890625,-2.1875 -0.46875,0 -0.90625,0.15625 -1.265625,0.515625 l 0,-1.953125 c 0.203125,0.0625 0.53125,0.125 0.84375,0.125 1.234375,0 1.9375,-0.90625 1.9375,-1.03125 0,-0.0625 -0.03125,-0.109375 -0.109375,-0.109375 0,0 -0.03125,0 -0.078125,0.03125 C 3.703125,-6.515625 3.21875,-6.3125 2.546875,-6.3125 2.15625,-6.3125 1.6875,-6.390625 1.21875,-6.59375 1.140625,-6.625 1.125,-6.625 1.109375,-6.625 1,-6.625 1,-6.546875 1,-6.390625 L 1,-3.4375 c 0,0.171875 0,0.25 0.140625,0.25 0.078125,0 0.09375,-0.015625 0.140625,-0.078125 C 1.390625,-3.421875 1.75,-3.96875 2.5625,-3.96875 c 0.515625,0 0.765625,0.453125 0.84375,0.640625 0.15625,0.375 0.1875,0.75 0.1875,1.25 0,0.359375 0,0.953125 -0.25,1.375 C 3.109375,-0.3125 2.734375,-0.0625 2.28125,-0.0625 c -0.71875,0 -1.296875,-0.53125 -1.46875,-1.109375 0.03125,0 0.0625,0.015625 0.171875,0.015625 0.328125,0 0.5,-0.25 0.5,-0.484375 0,-0.25 -0.171875,-0.5 -0.5,-0.5 C 0.84375,-2.140625 0.5,-2.0625 0.5,-1.609375 0.5,-0.75 1.1875,0.21875 2.296875,0.21875 3.453125,0.21875 4.46875,-0.734375 4.46875,-2 z"
                   id="path17378" />
              </symbol>
            </g>
          </defs>
          <g
             id="textext-d56441c5-2">
            <g
               style="fill:#000000;fill-opacity:1"
               id="g17381">
              <use
                 height="1052.3622"
                 width="744.09448"
                 xlink:href="#textext-d56441c5-1"
                 x="0"
                 y="9.9630003"
                 id="use17383" />
            </g>
          </g>
        </g>
      </g>
      <g
         id="g3646"
         transform="translate(0,-468)">
        <rect
           style="fill:none;stroke:#000000;stroke-width:2;stroke-linecap:round;stroke-linejoin:round;stroke-miterlimit:4;stroke-opacity:1;stroke-dasharray:none;stroke-dashoffset:0"
           id="rect2987-4"
           width="36"
           height="36"
           x="72"
           y="800.36218"
           ry="6" />
        <g
           id="g3581"
           style="stroke-width:0.0000001"
           ns0:page_width="10cm"
           ns0:preamble=""
           ns0:text="$+$"
           transform="matrix(2.5,0,0,2.5,80.3125,799.68515)">
          <defs
             id="defs3583">
            <g
               id="g3585">
              <symbol
                 id="textext-b0bbfbb5-0"
                 overflow="visible"
                 style="overflow:visible">
                <path
                   id="path3588"
                   d=""
                   style="stroke:none"
                   inkscape:connector-curvature="0" />
              </symbol>
              <symbol
                 id="textext-b0bbfbb5-1"
                 overflow="visible"
                 style="overflow:visible">
                <path
                   id="path3591"
                   d="m 4.078125,-2.296875 2.78125,0 C 7,-2.296875 7.1875,-2.296875 7.1875,-2.5 7.1875,-2.6875 7,-2.6875 6.859375,-2.6875 l -2.78125,0 0,-2.796875 c 0,-0.140625 0,-0.328125 -0.203125,-0.328125 -0.203125,0 -0.203125,0.1875 -0.203125,0.328125 l 0,2.796875 -2.78125,0 c -0.140625,0 -0.328125,0 -0.328125,0.1875 0,0.203125 0.1875,0.203125 0.328125,0.203125 l 2.78125,0 0,2.796875 c 0,0.140625 0,0.328125 0.203125,0.328125 0.203125,0 0.203125,-0.1875 0.203125,-0.328125 z"
                   style="stroke:none"
                   inkscape:connector-curvature="0" />
              </symbol>
            </g>
          </defs>
          <g
             id="textext-b0bbfbb5-2">
            <g
               id="g3594"
               style="fill:#000000;fill-opacity:1">
              <use
                 id="use3596"
                 y="9.9630003"
                 x="0"
                 xlink:href="#textext-b0bbfbb5-1"
                 width="744.09448"
                 height="1052.3622" />
            </g>
          </g>
        </g>
      </g>
      <path
         style="stroke-linejoin:miter;marker-end:url(#Arrow1Lend8);stroke-opacity:1;marker-start:url(#DotL5);stroke:#ff0000;stroke-linecap:butt;stroke-width:1px;fill:none"
         d="m 53.357426,404.34444 30.20359,-35.08498"
         id="path5167"
         inkscape:connector-curvature="0" />
      <path
         style="stroke-linejoin:miter;marker-end:url(#Arrow1LendL);stroke-opacity:1;marker-start:url(#DotLk);stroke:#ff0000;stroke-linecap:butt;stroke-width:1px;fill:none"
         d="M 125.739,403.5558 95.535406,368.47082"
         id="path5167-5"
         inkscape:connector-curvature="0" />
    </g>
  </g>
</svg>
